<svg width="80" height="80" viewBox="0 0 80 80" fill="none" xmlns="http://www.w3.org/2000/svg">
<path fill-rule="evenodd" clip-rule="evenodd" d="M3.33325 40.0002C3.33325 60.3335 19.6666 76.6668 39.9999 76.6668C60.3332 76.6668 76.6666 60.3335 76.6666 40.0002C76.6666 19.6668 60.3332 3.3335 39.9999 3.3335C19.6666 3.3335 3.33325 19.6668 3.33325 40.0002ZM9.99992 40.0002C9.99992 23.3335 23.3333 10.0002 39.9999 10.0002C56.6666 10.0002 69.9999 23.3335 69.9999 40.0002C69.9999 56.6668 56.6666 70.0002 39.9999 70.0002C23.3333 70.0002 9.99992 56.6668 9.99992 40.0002ZM43.3333 40.0002V26.6668C43.3333 24.6668 41.9999 23.3335 39.9999 23.3335C37.9999 23.3335 36.6666 24.6668 36.6666 26.6668V40.0002C36.6666 42.0002 37.9999 43.3335 39.9999 43.3335C41.9999 43.3335 43.3333 42.0002 43.3333 40.0002ZM42.9999 54.6668C42.9999 55.0002 42.6666 55.3335 42.3332 55.6668C41.6666 56.3335 40.9999 56.6668 39.6666 56.6668C38.6666 56.6668 37.9999 56.3335 37.3333 55.6668C36.6666 55.0002 36.3333 54.3335 36.3333 53.3335C36.3333 52.943 36.4476 52.6668 36.5424 52.4381C36.6094 52.2763 36.6666 52.1382 36.6666 52.0002C36.6666 51.6668 36.9999 51.3335 37.3333 51.0002C38.3333 50.0002 39.6666 49.6668 40.9999 50.3335C41.1666 50.3335 41.2499 50.4168 41.3332 50.5002C41.4166 50.5835 41.4999 50.6668 41.6666 50.6668C41.9999 50.6668 42.3332 51.0002 42.3332 51.0002C42.4999 51.1668 42.5832 51.3335 42.6666 51.5002C42.7499 51.6668 42.8332 51.8335 42.9999 52.0002C43.3332 52.3335 43.3332 53.0002 43.3332 53.3335C43.3332 53.5002 43.2499 53.7502 43.1666 54.0002C43.0832 54.2502 42.9999 54.5002 42.9999 54.6668Z" fill="black"/>
<mask id="mask0_1748_4769" style="mask-type:alpha" maskUnits="userSpaceOnUse" x="3" y="3" width="74" height="74">
<path fill-rule="evenodd" clip-rule="evenodd" d="M3.33325 40.0002C3.33325 60.3335 19.6666 76.6668 39.9999 76.6668C60.3332 76.6668 76.6666 60.3335 76.6666 40.0002C76.6666 19.6668 60.3332 3.3335 39.9999 3.3335C19.6666 3.3335 3.33325 19.6668 3.33325 40.0002ZM9.99992 40.0002C9.99992 23.3335 23.3333 10.0002 39.9999 10.0002C56.6666 10.0002 69.9999 23.3335 69.9999 40.0002C69.9999 56.6668 56.6666 70.0002 39.9999 70.0002C23.3333 70.0002 9.99992 56.6668 9.99992 40.0002ZM43.3333 40.0002V26.6668C43.3333 24.6668 41.9999 23.3335 39.9999 23.3335C37.9999 23.3335 36.6666 24.6668 36.6666 26.6668V40.0002C36.6666 42.0002 37.9999 43.3335 39.9999 43.3335C41.9999 43.3335 43.3333 42.0002 43.3333 40.0002ZM42.9999 54.6668C42.9999 55.0002 42.6666 55.3335 42.3332 55.6668C41.6666 56.3335 40.9999 56.6668 39.6666 56.6668C38.6666 56.6668 37.9999 56.3335 37.3333 55.6668C36.6666 55.0002 36.3333 54.3335 36.3333 53.3335C36.3333 52.943 36.4476 52.6668 36.5424 52.4381C36.6094 52.2763 36.6666 52.1382 36.6666 52.0002C36.6666 51.6668 36.9999 51.3335 37.3333 51.0002C38.3333 50.0002 39.6666 49.6668 40.9999 50.3335C41.1666 50.3335 41.2499 50.4168 41.3332 50.5002C41.4166 50.5835 41.4999 50.6668 41.6666 50.6668C41.9999 50.6668 42.3332 51.0002 42.3332 51.0002C42.4999 51.1668 42.5832 51.3335 42.6666 51.5002C42.7499 51.6668 42.8332 51.8335 42.9999 52.0002C43.3332 52.3335 43.3332 53.0002 43.3332 53.3335C43.3332 53.5002 43.2499 53.7502 43.1666 54.0002C43.0832 54.2502 42.9999 54.5002 42.9999 54.6668Z" fill="white"/>
</mask>
<g mask="url(#mask0_1748_4769)">
<rect width="80" height="80" fill="#FF9F43"/>
</g>
</svg>
