<svg width="21" height="20" viewBox="0 0 21 20" fill="none" xmlns="http://www.w3.org/2000/svg">
<path fill-rule="evenodd" clip-rule="evenodd" d="M15.869 9.99506C15.869 9.49531 16.2024 9.16213 16.7024 9.16213C17.2024 9.16213 17.5357 9.49531 17.5357 9.99506V15.8256C17.5357 17.2415 16.4524 18.3244 15.0357 18.3244H3.36902C1.95235 18.3244 0.869019 17.2415 0.869019 15.8256V4.16456C0.869019 2.74858 1.95235 1.66577 3.36902 1.66577H12.5357C13.0357 1.66577 13.369 1.99894 13.369 2.4987C13.369 2.99846 13.0357 3.33163 12.5357 3.33163H3.36902C2.86902 3.33163 2.53569 3.6648 2.53569 4.16456V15.8256C2.53569 16.3253 2.86902 16.6585 3.36902 16.6585H15.0357C15.5357 16.6585 15.869 16.3253 15.869 15.8256V9.99506ZM9.78568 12.244L18.9524 3.08175C19.2857 2.74858 19.2857 2.24882 18.9524 1.91565C18.619 1.58248 18.119 1.58248 17.7857 1.91565L9.20235 10.4948L7.28568 8.57908C6.95235 8.24591 6.45235 8.24591 6.11902 8.57908C5.78568 8.91226 5.78568 9.41201 6.11902 9.74518L8.61902 12.244C8.78568 12.4106 8.95235 12.4939 9.20235 12.4939C9.45235 12.4939 9.61902 12.4106 9.78568 12.244Z" fill="white"/>
<mask id="mask0_1471_64494" style="mask-type:alpha" maskUnits="userSpaceOnUse" x="0" y="1" width="20" height="18">
<path fill-rule="evenodd" clip-rule="evenodd" d="M15.869 9.99506C15.869 9.49531 16.2024 9.16213 16.7024 9.16213C17.2024 9.16213 17.5357 9.49531 17.5357 9.99506V15.8256C17.5357 17.2415 16.4524 18.3244 15.0357 18.3244H3.36902C1.95235 18.3244 0.869019 17.2415 0.869019 15.8256V4.16456C0.869019 2.74858 1.95235 1.66577 3.36902 1.66577H12.5357C13.0357 1.66577 13.369 1.99894 13.369 2.4987C13.369 2.99846 13.0357 3.33163 12.5357 3.33163H3.36902C2.86902 3.33163 2.53569 3.6648 2.53569 4.16456V15.8256C2.53569 16.3253 2.86902 16.6585 3.36902 16.6585H15.0357C15.5357 16.6585 15.869 16.3253 15.869 15.8256V9.99506ZM9.78568 12.244L18.9524 3.08175C19.2857 2.74858 19.2857 2.24882 18.9524 1.91565C18.619 1.58248 18.119 1.58248 17.7857 1.91565L9.20235 10.4948L7.28568 8.57908C6.95235 8.24591 6.45235 8.24591 6.11902 8.57908C5.78568 8.91226 5.78568 9.41201 6.11902 9.74518L8.61902 12.244C8.78568 12.4106 8.95235 12.4939 9.20235 12.4939C9.45235 12.4939 9.61902 12.4106 9.78568 12.244Z" fill="white"/>
</mask>
<g mask="url(#mask0_1471_64494)">
<rect x="0.0356445" width="20" height="19.9903" fill="white"/>
</g>
</svg>
