<svg width="21" height="18" viewBox="0 0 21 18" fill="none" xmlns="http://www.w3.org/2000/svg">
<path fill-rule="evenodd" clip-rule="evenodd" d="M4.79626 1.5H16.5011C17.9224 1.5 19.0093 2.475 19.0093 3.75V11.25C19.0093 12.525 17.9224 13.5 16.5011 13.5H6.80281L3.70939 16.275C3.54217 16.425 3.37496 16.5 3.12415 16.5C3.04054 16.5 2.87333 16.5 2.78972 16.425C2.4553 16.35 2.28809 16.05 2.28809 15.75V3.75C2.28809 2.475 3.37496 1.5 4.79626 1.5ZM16.5011 12C17.0027 12 17.3372 11.7 17.3372 11.25V3.75C17.3372 3.3 17.0027 3 16.5011 3H4.79626C4.29463 3 3.9602 3.3 3.9602 3.75V13.95L5.88314 12.225C6.05035 12.075 6.21756 12 6.46838 12H16.5011Z" fill="black"/>
<mask id="mask0_1659_15857" style="mask-type:alpha" maskUnits="userSpaceOnUse" x="2" y="1" width="18" height="16">
<path fill-rule="evenodd" clip-rule="evenodd" d="M4.79626 1.5H16.5011C17.9224 1.5 19.0093 2.475 19.0093 3.75V11.25C19.0093 12.525 17.9224 13.5 16.5011 13.5H6.80281L3.70939 16.275C3.54217 16.425 3.37496 16.5 3.12415 16.5C3.04054 16.5 2.87333 16.5 2.78972 16.425C2.4553 16.35 2.28809 16.05 2.28809 15.75V3.75C2.28809 2.475 3.37496 1.5 4.79626 1.5ZM16.5011 12C17.0027 12 17.3372 11.7 17.3372 11.25V3.75C17.3372 3.3 17.0027 3 16.5011 3H4.79626C4.29463 3 3.9602 3.3 3.9602 3.75V13.95L5.88314 12.225C6.05035 12.075 6.21756 12 6.46838 12H16.5011Z" fill="white"/>
</mask>
<g mask="url(#mask0_1659_15857)">
<rect x="0.616211" width="20.0654" height="18" fill="#6E6B7B"/>
</g>
</svg>
