<svg width="20" height="18" viewBox="0 0 20 18" fill="none" xmlns="http://www.w3.org/2000/svg">
<path fill-rule="evenodd" clip-rule="evenodd" d="M11.1505 0.449609L17.4869 3.44961C18.3582 3.82461 18.8334 4.57461 18.8334 5.39961V12.5246C18.8334 13.4246 18.279 14.1746 17.4869 14.5496L11.1505 17.5496C10.8337 17.6996 10.5168 17.7746 10.1208 17.7746C9.804 17.7746 9.40797 17.6996 9.09115 17.5496L2.7547 14.5496C1.88344 14.1746 1.4082 13.3496 1.4082 12.5246V5.39961C1.4082 4.57461 1.88344 3.82461 2.67549 3.44961L9.01194 0.449609C9.72479 0.149609 10.5168 0.149609 11.1505 0.449609ZM10.1208 1.64961C10.0416 1.64961 9.8832 1.64961 9.804 1.72461L3.94278 4.49961L10.1208 7.42461L16.2989 4.49961L10.4376 1.72461C10.3584 1.64961 10.2792 1.64961 10.1208 1.64961ZM3.38834 13.2746C3.15073 13.1246 2.99232 12.8246 2.99232 12.5996V5.69961L9.32876 8.69961V16.0496L3.38834 13.2746ZM10.9129 16.0496L16.7741 13.2746C17.0909 13.1246 17.2493 12.8996 17.2493 12.5996V5.69961L10.9129 8.69961V16.0496Z" fill="black"/>
<mask id="mask0_1659_15757" style="mask-type:alpha" maskUnits="userSpaceOnUse" x="1" y="0" width="18" height="18">
<path fill-rule="evenodd" clip-rule="evenodd" d="M11.1505 0.449609L17.4869 3.44961C18.3582 3.82461 18.8334 4.57461 18.8334 5.39961V12.5246C18.8334 13.4246 18.279 14.1746 17.4869 14.5496L11.1505 17.5496C10.8337 17.6996 10.5168 17.7746 10.1208 17.7746C9.804 17.7746 9.40797 17.6996 9.09115 17.5496L2.7547 14.5496C1.88344 14.1746 1.4082 13.3496 1.4082 12.5246V5.39961C1.4082 4.57461 1.88344 3.82461 2.67549 3.44961L9.01194 0.449609C9.72479 0.149609 10.5168 0.149609 11.1505 0.449609ZM10.1208 1.64961C10.0416 1.64961 9.8832 1.64961 9.804 1.72461L3.94278 4.49961L10.1208 7.42461L16.2989 4.49961L10.4376 1.72461C10.3584 1.64961 10.2792 1.64961 10.1208 1.64961ZM3.38834 13.2746C3.15073 13.1246 2.99232 12.8246 2.99232 12.5996V5.69961L9.32876 8.69961V16.0496L3.38834 13.2746ZM10.9129 16.0496L16.7741 13.2746C17.0909 13.1246 17.2493 12.8996 17.2493 12.5996V5.69961L10.9129 8.69961V16.0496Z" fill="white"/>
</mask>
<g mask="url(#mask0_1659_15757)">
<rect x="0.616211" width="19.0093" height="18" fill="#6E6B7B"/>
</g>
</svg>
