<svg width="21" height="20" viewBox="0 0 21 20" fill="none" xmlns="http://www.w3.org/2000/svg">
<path fill-rule="evenodd" clip-rule="evenodd" d="M4.20227 1.66577H15.8689C17.2856 1.66577 18.3689 2.74858 18.3689 4.16456V12.4939C18.3689 13.9098 17.2856 14.9926 15.8689 14.9926H6.20227L3.11894 18.0745C2.95227 18.2411 2.7856 18.3244 2.5356 18.3244C2.45227 18.3244 2.2856 18.3244 2.20227 18.2411C1.86894 18.1578 1.70227 17.8246 1.70227 17.4914V4.16456C1.70227 2.74858 2.7856 1.66577 4.20227 1.66577ZM15.8689 13.3268C16.3689 13.3268 16.7023 12.9936 16.7023 12.4939V4.16456C16.7023 3.6648 16.3689 3.33163 15.8689 3.33163H4.20227C3.70227 3.33163 3.36894 3.6648 3.36894 4.16456V15.4924L5.2856 13.5767C5.45227 13.4101 5.61894 13.3268 5.86894 13.3268H15.8689Z" fill="white"/>
<mask id="mask0_1471_64485" style="mask-type:alpha" maskUnits="userSpaceOnUse" x="1" y="1" width="18" height="18">
<path fill-rule="evenodd" clip-rule="evenodd" d="M4.20227 1.66577H15.8689C17.2856 1.66577 18.3689 2.74858 18.3689 4.16456V12.4939C18.3689 13.9098 17.2856 14.9926 15.8689 14.9926H6.20227L3.11894 18.0745C2.95227 18.2411 2.7856 18.3244 2.5356 18.3244C2.45227 18.3244 2.2856 18.3244 2.20227 18.2411C1.86894 18.1578 1.70227 17.8246 1.70227 17.4914V4.16456C1.70227 2.74858 2.7856 1.66577 4.20227 1.66577ZM15.8689 13.3268C16.3689 13.3268 16.7023 12.9936 16.7023 12.4939V4.16456C16.7023 3.6648 16.3689 3.33163 15.8689 3.33163H4.20227C3.70227 3.33163 3.36894 3.6648 3.36894 4.16456V15.4924L5.2856 13.5767C5.45227 13.4101 5.61894 13.3268 5.86894 13.3268H15.8689Z" fill="white"/>
</mask>
<g mask="url(#mask0_1471_64485)">
<rect x="0.0356445" width="20" height="19.9903" fill="white"/>
</g>
</svg>
