<svg width="42" height="40" viewBox="0 0 42 40" fill="none" xmlns="http://www.w3.org/2000/svg">
<path fill-rule="evenodd" clip-rule="evenodd" d="M0.796875 0H41.7969V40H0.796875V0Z" fill="#2F80ED"/>
<path fill-rule="evenodd" clip-rule="evenodd" d="M12.7969 10H19.7969C20.3969 10 20.7969 10.4 20.7969 11V18C20.7969 18.6 20.3969 19 19.7969 19H12.7969C12.1969 19 11.7969 18.6 11.7969 18V11C11.7969 10.4 12.1969 10 12.7969 10ZM13.7969 17H18.7969V12H13.7969V17ZM30.7969 10H23.7969C23.1969 10 22.7969 10.4 22.7969 11V18C22.7969 18.6 23.1969 19 23.7969 19H30.7969C31.3969 19 31.7969 18.6 31.7969 18V11C31.7969 10.4 31.3969 10 30.7969 10ZM24.7969 17H29.7969V12H24.7969V17ZM30.7969 21H23.7969C23.1969 21 22.7969 21.4 22.7969 22V29C22.7969 29.6 23.1969 30 23.7969 30H30.7969C31.3969 30 31.7969 29.6 31.7969 29V22C31.7969 21.4 31.3969 21 30.7969 21ZM24.7969 28H29.7969V23H24.7969V28ZM19.7969 21H12.7969C12.1969 21 11.7969 21.4 11.7969 22V29C11.7969 29.6 12.1969 30 12.7969 30H19.7969C20.3969 30 20.7969 29.6 20.7969 29V22C20.7969 21.4 20.3969 21 19.7969 21ZM13.7969 28H18.7969V23H13.7969V28Z" fill="black"/>
<mask id="mask0_2_5291" style="mask-type:alpha" maskUnits="userSpaceOnUse" x="11" y="10" width="21" height="20">
<path fill-rule="evenodd" clip-rule="evenodd" d="M12.7969 10H19.7969C20.3969 10 20.7969 10.4 20.7969 11V18C20.7969 18.6 20.3969 19 19.7969 19H12.7969C12.1969 19 11.7969 18.6 11.7969 18V11C11.7969 10.4 12.1969 10 12.7969 10ZM13.7969 17H18.7969V12H13.7969V17ZM30.7969 10H23.7969C23.1969 10 22.7969 10.4 22.7969 11V18C22.7969 18.6 23.1969 19 23.7969 19H30.7969C31.3969 19 31.7969 18.6 31.7969 18V11C31.7969 10.4 31.3969 10 30.7969 10ZM24.7969 17H29.7969V12H24.7969V17ZM30.7969 21H23.7969C23.1969 21 22.7969 21.4 22.7969 22V29C22.7969 29.6 23.1969 30 23.7969 30H30.7969C31.3969 30 31.7969 29.6 31.7969 29V22C31.7969 21.4 31.3969 21 30.7969 21ZM24.7969 28H29.7969V23H24.7969V28ZM19.7969 21H12.7969C12.1969 21 11.7969 21.4 11.7969 22V29C11.7969 29.6 12.1969 30 12.7969 30H19.7969C20.3969 30 20.7969 29.6 20.7969 29V22C20.7969 21.4 20.3969 21 19.7969 21ZM13.7969 28H18.7969V23H13.7969V28Z" fill="white"/>
</mask>
<g mask="url(#mask0_2_5291)">
<rect x="9.79688" y="8" width="24" height="24" fill="#F2F2F2"/>
</g>
</svg>
