<svg width="42" height="40" viewBox="0 0 42 40" fill="none" xmlns="http://www.w3.org/2000/svg">
<path fill-rule="evenodd" clip-rule="evenodd" d="M0.796875 0H41.7969V40H0.796875V0Z" fill="#27AE60"/>
<path fill-rule="evenodd" clip-rule="evenodd" d="M32.7969 10.9C32.7969 10.8 32.7969 10.7 32.6969 10.6V10.5C32.6969 10.4 32.5969 10.3 32.4969 10.2C32.4469 10.15 32.3969 10.125 32.3469 10.1C32.2969 10.075 32.2469 10.05 32.1969 9.99999H32.0969C31.9969 9.99999 31.8969 9.99999 31.7969 9.89999V9.99999C31.6969 9.99999 31.5969 9.99999 31.4969 10.1L11.4969 17.1C11.0969 17.2 10.7969 17.5 10.7969 18C10.7969 18.4 10.9969 18.8 11.3969 19L19.9969 22.8L23.7969 31.4C23.9969 31.8 24.2969 32 24.6969 32C25.0969 32 25.4969 31.7 25.5969 31.3L32.5969 11.3C32.7969 11.2 32.7969 11.1 32.7969 10.9ZM27.9969 13.4L20.5969 20.8L14.4969 18.1L27.9969 13.4ZM21.9969 22.2L24.6969 28.3L29.3969 14.8L21.9969 22.2Z" fill="black"/>
<mask id="mask0_2_5282" style="mask-type:alpha" maskUnits="userSpaceOnUse" x="10" y="9" width="23" height="23">
<path fill-rule="evenodd" clip-rule="evenodd" d="M32.7969 10.9C32.7969 10.8 32.7969 10.7 32.6969 10.6V10.5C32.6969 10.4 32.5969 10.3 32.4969 10.2C32.4469 10.15 32.3969 10.125 32.3469 10.1C32.2969 10.075 32.2469 10.05 32.1969 9.99999H32.0969C31.9969 9.99999 31.8969 9.99999 31.7969 9.89999V9.99999C31.6969 9.99999 31.5969 9.99999 31.4969 10.1L11.4969 17.1C11.0969 17.2 10.7969 17.5 10.7969 18C10.7969 18.4 10.9969 18.8 11.3969 19L19.9969 22.8L23.7969 31.4C23.9969 31.8 24.2969 32 24.6969 32C25.0969 32 25.4969 31.7 25.5969 31.3L32.5969 11.3C32.7969 11.2 32.7969 11.1 32.7969 10.9ZM27.9969 13.4L20.5969 20.8L14.4969 18.1L27.9969 13.4ZM21.9969 22.2L24.6969 28.3L29.3969 14.8L21.9969 22.2Z" fill="white"/>
</mask>
<g mask="url(#mask0_2_5282)">
<rect x="9.79688" y="8" width="24" height="24" fill="#F2F2F2"/>
<rect x="0.796875" y="5" width="24" height="24" fill="#F2F2F2"/>
</g>
</svg>
