<svg width="20" height="18" viewBox="0 0 20 18" fill="none" xmlns="http://www.w3.org/2000/svg">
<path fill-rule="evenodd" clip-rule="evenodd" d="M16.4573 2.25H3.78437C2.43788 2.25 1.4082 3.225 1.4082 4.5V13.5C1.4082 14.775 2.43788 15.75 3.78437 15.75H16.4573C17.8038 15.75 18.8334 14.775 18.8334 13.5V4.5C18.8334 3.225 17.8038 2.25 16.4573 2.25ZM3.78437 3.75H16.4573C16.7741 3.75 17.0117 3.9 17.1701 4.2L10.1208 8.85L3.07152 4.2C3.22993 3.9 3.46755 3.75 3.78437 3.75ZM2.99232 13.5C2.99232 13.95 3.30914 14.25 3.78437 14.25H16.4573C16.9325 14.25 17.2493 13.95 17.2493 13.5V5.925L10.5961 10.35C10.4376 10.425 10.2792 10.5 10.1208 10.5C9.96241 10.5 9.804 10.425 9.64559 10.35L2.99232 5.925V13.5Z" fill="black"/>
<mask id="mask0_1659_15868" style="mask-type:alpha" maskUnits="userSpaceOnUse" x="1" y="2" width="18" height="14">
<path fill-rule="evenodd" clip-rule="evenodd" d="M16.4573 2.25H3.78437C2.43788 2.25 1.4082 3.225 1.4082 4.5V13.5C1.4082 14.775 2.43788 15.75 3.78437 15.75H16.4573C17.8038 15.75 18.8334 14.775 18.8334 13.5V4.5C18.8334 3.225 17.8038 2.25 16.4573 2.25ZM3.78437 3.75H16.4573C16.7741 3.75 17.0117 3.9 17.1701 4.2L10.1208 8.85L3.07152 4.2C3.22993 3.9 3.46755 3.75 3.78437 3.75ZM2.99232 13.5C2.99232 13.95 3.30914 14.25 3.78437 14.25H16.4573C16.9325 14.25 17.2493 13.95 17.2493 13.5V5.925L10.5961 10.35C10.4376 10.425 10.2792 10.5 10.1208 10.5C9.96241 10.5 9.804 10.425 9.64559 10.35L2.99232 5.925V13.5Z" fill="white"/>
</mask>
<g mask="url(#mask0_1659_15868)">
<rect x="0.616211" width="19.0093" height="18" fill="#6E6B7B"/>
</g>
</svg>
