<svg width="22" height="18" viewBox="0 0 22 18" fill="none" xmlns="http://www.w3.org/2000/svg">
<path d="M19.098 3V5.25C19.098 5.7 18.7459 6 18.2179 6C17.6899 6 17.3378 5.7 17.3378 5.25V3.75H12.0575V14.25H13.8176C14.3456 14.25 14.6976 14.55 14.6976 15C14.6976 15.45 14.3456 15.75 13.8176 15.75H8.53721C8.00917 15.75 7.65715 15.45 7.65715 15C7.65715 14.55 8.00917 14.25 8.53721 14.25H10.2973V3.75H5.01696V5.25C5.01696 5.7 4.66494 6 4.1369 6C3.60886 6 3.25684 5.7 3.25684 5.25V3C3.25684 2.55 3.60886 2.25 4.1369 2.25H18.2179C18.7459 2.25 19.098 2.55 19.098 3Z" fill="black"/>
<mask id="mask0_1659_15786" style="mask-type:alpha" maskUnits="userSpaceOnUse" x="3" y="2" width="17" height="14">
<path d="M19.098 3V5.25C19.098 5.7 18.7459 6 18.2179 6C17.6899 6 17.3378 5.7 17.3378 5.25V3.75H12.0575V14.25H13.8176C14.3456 14.25 14.6976 14.55 14.6976 15C14.6976 15.45 14.3456 15.75 13.8176 15.75H8.53721C8.00917 15.75 7.65715 15.45 7.65715 15C7.65715 14.55 8.00917 14.25 8.53721 14.25H10.2973V3.75H5.01696V5.25C5.01696 5.7 4.66494 6 4.1369 6C3.60886 6 3.25684 5.7 3.25684 5.25V3C3.25684 2.55 3.60886 2.25 4.1369 2.25H18.2179C18.7459 2.25 19.098 2.55 19.098 3Z" fill="white"/>
</mask>
<g mask="url(#mask0_1659_15786)">
<rect x="0.616211" width="21.1215" height="18" fill="#6E6B7B"/>
</g>
</svg>
