<svg width="19" height="18" viewBox="0 0 19 18" fill="none" xmlns="http://www.w3.org/2000/svg">
<path fill-rule="evenodd" clip-rule="evenodd" d="M16.1757 5.5875C16.1944 5.625 16.2131 5.6625 16.2505 5.7C16.3253 5.775 16.3253 5.925 16.3253 6V15C16.3253 16.275 15.3528 17.25 14.0811 17.25H5.10451C3.83282 17.25 2.86035 16.275 2.86035 15V3C2.86035 1.725 3.83282 0.75 5.10451 0.75H11.0889C11.1637 0.75 11.3133 0.75 11.3882 0.825C11.463 0.825 11.5378 0.9 11.6126 0.975L16.1009 5.475C16.1383 5.5125 16.157 5.55 16.1757 5.5875ZM13.7819 5.25L11.837 3.3V5.25H13.7819ZM14.0811 15.75H5.10451C4.65568 15.75 4.35646 15.45 4.35646 15V3C4.35646 2.55 4.65568 2.25 5.10451 2.25H10.3409V6C10.3409 6.45 10.6401 6.75 11.0889 6.75H14.8292V15C14.8292 15.45 14.53 15.75 14.0811 15.75ZM12.585 10.5C13.0339 10.5 13.3331 10.2 13.3331 9.75C13.3331 9.3 13.0339 9 12.585 9H6.60062C6.15178 9 5.85256 9.3 5.85256 9.75C5.85256 10.2 6.15178 10.5 6.60062 10.5H12.585ZM13.3331 12.75C13.3331 13.2 13.0339 13.5 12.585 13.5H6.60062C6.15178 13.5 5.85256 13.2 5.85256 12.75C5.85256 12.3 6.15178 12 6.60062 12H12.585C13.0339 12 13.3331 12.3 13.3331 12.75ZM6.60062 6C6.15178 6 5.85256 6.3 5.85256 6.75C5.85256 7.2 6.15178 7.5 6.60062 7.5H8.09672C8.54555 7.5 8.84478 7.2 8.84478 6.75C8.84478 6.3 8.54555 6 8.09672 6H6.60062Z" fill="black"/>
<mask id="mask0_1659_15723" style="mask-type:alpha" maskUnits="userSpaceOnUse" x="2" y="0" width="15" height="18">
<path fill-rule="evenodd" clip-rule="evenodd" d="M16.1757 5.5875C16.1944 5.625 16.2131 5.6625 16.2505 5.7C16.3253 5.775 16.3253 5.925 16.3253 6V15C16.3253 16.275 15.3528 17.25 14.0811 17.25H5.10451C3.83282 17.25 2.86035 16.275 2.86035 15V3C2.86035 1.725 3.83282 0.75 5.10451 0.75H11.0889C11.1637 0.75 11.3133 0.75 11.3882 0.825C11.463 0.825 11.5378 0.9 11.6126 0.975L16.1009 5.475C16.1383 5.5125 16.157 5.55 16.1757 5.5875ZM13.7819 5.25L11.837 3.3V5.25H13.7819ZM14.0811 15.75H5.10451C4.65568 15.75 4.35646 15.45 4.35646 15V3C4.35646 2.55 4.65568 2.25 5.10451 2.25H10.3409V6C10.3409 6.45 10.6401 6.75 11.0889 6.75H14.8292V15C14.8292 15.45 14.53 15.75 14.0811 15.75ZM12.585 10.5C13.0339 10.5 13.3331 10.2 13.3331 9.75C13.3331 9.3 13.0339 9 12.585 9H6.60062C6.15178 9 5.85256 9.3 5.85256 9.75C5.85256 10.2 6.15178 10.5 6.60062 10.5H12.585ZM13.3331 12.75C13.3331 13.2 13.0339 13.5 12.585 13.5H6.60062C6.15178 13.5 5.85256 13.2 5.85256 12.75C5.85256 12.3 6.15178 12 6.60062 12H12.585C13.0339 12 13.3331 12.3 13.3331 12.75ZM6.60062 6C6.15178 6 5.85256 6.3 5.85256 6.75C5.85256 7.2 6.15178 7.5 6.60062 7.5H8.09672C8.54555 7.5 8.84478 7.2 8.84478 6.75C8.84478 6.3 8.54555 6 8.09672 6H6.60062Z" fill="white"/>
</mask>
<g mask="url(#mask0_1659_15723)">
<rect x="0.616211" width="17.9533" height="18" fill="#6E6B7B"/>
</g>
</svg>
