<svg width="49" height="48" viewBox="0 0 49 48" fill="none" xmlns="http://www.w3.org/2000/svg">
<g clip-path="url(#clip0_1471_64187)">
<rect x="0.158875" width="48" height="48" rx="24" fill="#00CFE8" fill-opacity="0.12"/>
<path fill-rule="evenodd" clip-rule="evenodd" d="M25.2945 12.6L33.2945 16.6C34.3945 17.1 34.9945 18.1 34.9945 19.2V28.7C34.9945 29.9 34.2945 30.9 33.2945 31.4L25.2945 35.4C24.8945 35.6 24.4945 35.7 23.9945 35.7C23.5945 35.7 23.0945 35.6 22.6945 35.4L14.6945 31.4C13.5945 30.9 12.9945 29.8 12.9945 28.7V19.2C12.9945 18.1 13.5945 17.1 14.5945 16.6L22.5945 12.6C23.4945 12.2 24.4945 12.2 25.2945 12.6ZM23.9945 14.2C23.8945 14.2 23.6945 14.2 23.5945 14.3L16.1945 18L23.9945 21.9L31.7945 18L24.3945 14.3C24.2945 14.2 24.1945 14.2 23.9945 14.2ZM15.4945 29.7001C15.1945 29.5 14.9945 29.1 14.9945 28.8V19.6L22.9945 23.6V33.4L15.4945 29.7001ZM24.9945 33.4L32.3945 29.7001C32.7945 29.5 32.9945 29.2 32.9945 28.8V19.6L24.9945 23.6V33.4Z" fill="black"/>
<mask id="mask0_1471_64187" style="mask-type:alpha" maskUnits="userSpaceOnUse" x="12" y="12" width="23" height="24">
<path fill-rule="evenodd" clip-rule="evenodd" d="M25.2945 12.6L33.2945 16.6C34.3945 17.1 34.9945 18.1 34.9945 19.2V28.7C34.9945 29.9 34.2945 30.9 33.2945 31.4L25.2945 35.4C24.8945 35.6 24.4945 35.7 23.9945 35.7C23.5945 35.7 23.0945 35.6 22.6945 35.4L14.6945 31.4C13.5945 30.9 12.9945 29.8 12.9945 28.7V19.2C12.9945 18.1 13.5945 17.1 14.5945 16.6L22.5945 12.6C23.4945 12.2 24.4945 12.2 25.2945 12.6ZM23.9945 14.2C23.8945 14.2 23.6945 14.2 23.5945 14.3L16.1945 18L23.9945 21.9L31.7945 18L24.3945 14.3C24.2945 14.2 24.1945 14.2 23.9945 14.2ZM15.4945 29.7001C15.1945 29.5 14.9945 29.1 14.9945 28.8V19.6L22.9945 23.6V33.4L15.4945 29.7001ZM24.9945 33.4L32.3945 29.7001C32.7945 29.5 32.9945 29.2 32.9945 28.8V19.6L24.9945 23.6V33.4Z" fill="white"/>
</mask>
<g mask="url(#mask0_1471_64187)">
<rect x="11.9945" y="12" width="24" height="24" fill="#00CFE8"/>
</g>
</g>
<defs>
<clipPath id="clip0_1471_64187">
<rect width="48" height="48" fill="white" transform="translate(0.158875)"/>
</clipPath>
</defs>
</svg>
