<svg width="25" height="18" viewBox="0 0 25 18" fill="none" xmlns="http://www.w3.org/2000/svg">
<path fill-rule="evenodd" clip-rule="evenodd" d="M13.4694 0.975L19.2382 5.175C22.7805 7.875 22.7805 12.15 19.2382 14.775C17.5177 16.05 15.19 16.725 12.761 16.725C10.332 16.725 8.00425 16.05 6.28373 14.775C4.56321 13.5 3.65234 11.775 3.65234 9.975C3.65234 8.175 4.56321 6.45 6.38494 5.175L12.0525 0.975C12.255 0.825 12.4574 0.75 12.761 0.75C13.0646 0.75 13.267 0.825 13.4694 0.975ZM12.761 15.225C14.6839 15.225 16.4044 14.7 17.8213 13.725C20.5539 11.625 20.5539 8.325 17.7201 6.3L12.6598 2.55L7.70063 6.3C6.38494 7.275 5.67649 8.55 5.67649 9.975C5.67649 11.4 6.38494 12.675 7.80184 13.725C9.11753 14.7 10.8381 15.225 12.761 15.225Z" fill="black"/>
<mask id="mask0_1659_15775" style="mask-type:alpha" maskUnits="userSpaceOnUse" x="3" y="0" width="19" height="17">
<path fill-rule="evenodd" clip-rule="evenodd" d="M13.4694 0.975L19.2382 5.175C22.7805 7.875 22.7805 12.15 19.2382 14.775C17.5177 16.05 15.19 16.725 12.761 16.725C10.332 16.725 8.00425 16.05 6.28373 14.775C4.56321 13.5 3.65234 11.775 3.65234 9.975C3.65234 8.175 4.56321 6.45 6.38494 5.175L12.0525 0.975C12.255 0.825 12.4574 0.75 12.761 0.75C13.0646 0.75 13.267 0.825 13.4694 0.975ZM12.761 15.225C14.6839 15.225 16.4044 14.7 17.8213 13.725C20.5539 11.625 20.5539 8.325 17.7201 6.3L12.6598 2.55L7.70063 6.3C6.38494 7.275 5.67649 8.55 5.67649 9.975C5.67649 11.4 6.38494 12.675 7.80184 13.725C9.11753 14.7 10.8381 15.225 12.761 15.225Z" fill="white"/>
</mask>
<g mask="url(#mask0_1659_15775)">
<rect x="0.616211" width="24.2897" height="18" fill="#6E6B7B"/>
</g>
</svg>
