<svg width="22" height="18" viewBox="0 0 22 18" fill="none" xmlns="http://www.w3.org/2000/svg">
<path fill-rule="evenodd" clip-rule="evenodd" d="M4.13628 0.75H18.2173C19.7134 0.75 20.8575 1.725 20.8575 3V6C20.8575 7.275 19.7134 8.25 18.2173 8.25H4.13628C2.64017 8.25 1.49609 7.275 1.49609 6V3C1.49609 1.725 2.64017 0.75 4.13628 0.75ZM18.2173 6.75C18.7453 6.75 19.0973 6.45 19.0973 6V3C19.0973 2.55 18.7453 2.25 18.2173 2.25H4.13628C3.60824 2.25 3.25622 2.55 3.25622 3V6C3.25622 6.45 3.60824 6.75 4.13628 6.75H18.2173ZM18.2173 9.75H4.13628C2.64017 9.75 1.49609 10.725 1.49609 12V15C1.49609 16.275 2.64017 17.25 4.13628 17.25H18.2173C19.7134 17.25 20.8575 16.275 20.8575 15V12C20.8575 10.725 19.7134 9.75 18.2173 9.75ZM18.2173 15.75C18.7453 15.75 19.0973 15.45 19.0973 15V12C19.0973 11.55 18.7453 11.25 18.2173 11.25H4.13628C3.60824 11.25 3.25622 11.55 3.25622 12V15C3.25622 15.45 3.60824 15.75 4.13628 15.75H18.2173ZM6.51245 3.975C6.68846 4.125 6.77647 4.275 6.77647 4.5C6.77647 4.725 6.68846 4.875 6.51245 5.025C6.33644 5.175 6.16042 5.25 5.89641 5.25C5.63239 5.25 5.45637 5.175 5.28036 5.025C5.19236 4.95 5.10435 4.875 5.10435 4.8C5.01634 4.725 5.01634 4.575 5.01634 4.5C5.01634 4.425 5.01634 4.275 5.10435 4.2C5.14835 4.1625 5.17035 4.125 5.19236 4.0875C5.21436 4.05 5.23636 4.0125 5.28036 3.975C5.36837 3.9 5.45637 3.825 5.54438 3.825C5.8084 3.75 5.98441 3.75 6.24843 3.825C6.33644 3.825 6.42444 3.9 6.51245 3.975ZM6.77647 13.5C6.77647 13.275 6.68846 13.125 6.51245 12.975C6.16042 12.675 5.63239 12.675 5.28036 12.975C5.23636 13.0125 5.21436 13.05 5.19236 13.0875C5.17035 13.125 5.14835 13.1625 5.10435 13.2C5.01634 13.275 5.01634 13.425 5.01634 13.5C5.01634 13.725 5.10435 13.875 5.28036 14.025C5.45637 14.175 5.63239 14.25 5.89641 14.25C6.16042 14.25 6.33644 14.175 6.51245 14.025C6.68846 13.875 6.77647 13.725 6.77647 13.5Z" fill="black"/>
<mask id="mask0_1659_15680" style="mask-type:alpha" maskUnits="userSpaceOnUse" x="1" y="0" width="20" height="18">
<path fill-rule="evenodd" clip-rule="evenodd" d="M4.13628 0.75H18.2173C19.7134 0.75 20.8575 1.725 20.8575 3V6C20.8575 7.275 19.7134 8.25 18.2173 8.25H4.13628C2.64017 8.25 1.49609 7.275 1.49609 6V3C1.49609 1.725 2.64017 0.75 4.13628 0.75ZM18.2173 6.75C18.7453 6.75 19.0973 6.45 19.0973 6V3C19.0973 2.55 18.7453 2.25 18.2173 2.25H4.13628C3.60824 2.25 3.25622 2.55 3.25622 3V6C3.25622 6.45 3.60824 6.75 4.13628 6.75H18.2173ZM18.2173 9.75H4.13628C2.64017 9.75 1.49609 10.725 1.49609 12V15C1.49609 16.275 2.64017 17.25 4.13628 17.25H18.2173C19.7134 17.25 20.8575 16.275 20.8575 15V12C20.8575 10.725 19.7134 9.75 18.2173 9.75ZM18.2173 15.75C18.7453 15.75 19.0973 15.45 19.0973 15V12C19.0973 11.55 18.7453 11.25 18.2173 11.25H4.13628C3.60824 11.25 3.25622 11.55 3.25622 12V15C3.25622 15.45 3.60824 15.75 4.13628 15.75H18.2173ZM6.51245 3.975C6.68846 4.125 6.77647 4.275 6.77647 4.5C6.77647 4.725 6.68846 4.875 6.51245 5.025C6.33644 5.175 6.16042 5.25 5.89641 5.25C5.63239 5.25 5.45637 5.175 5.28036 5.025C5.19236 4.95 5.10435 4.875 5.10435 4.8C5.01634 4.725 5.01634 4.575 5.01634 4.5C5.01634 4.425 5.01634 4.275 5.10435 4.2C5.14835 4.1625 5.17035 4.125 5.19236 4.0875C5.21436 4.05 5.23636 4.0125 5.28036 3.975C5.36837 3.9 5.45637 3.825 5.54438 3.825C5.8084 3.75 5.98441 3.75 6.24843 3.825C6.33644 3.825 6.42444 3.9 6.51245 3.975ZM6.77647 13.5C6.77647 13.275 6.68846 13.125 6.51245 12.975C6.16042 12.675 5.63239 12.675 5.28036 12.975C5.23636 13.0125 5.21436 13.05 5.19236 13.0875C5.17035 13.125 5.14835 13.1625 5.10435 13.2C5.01634 13.275 5.01634 13.425 5.01634 13.5C5.01634 13.725 5.10435 13.875 5.28036 14.025C5.45637 14.175 5.63239 14.25 5.89641 14.25C6.16042 14.25 6.33644 14.175 6.51245 14.025C6.68846 13.875 6.77647 13.725 6.77647 13.5Z" fill="white"/>
</mask>
<g mask="url(#mask0_1659_15680)">
</g>
</svg>
