<svg width="35" height="35" viewBox="0 0 35 35" fill="none" xmlns="http://www.w3.org/2000/svg">
<path fill-rule="evenodd" clip-rule="evenodd" d="M0 5.83333C0 2.61168 2.61168 0 5.83333 0H35V35H5.83333C2.61168 35 0 32.3883 0 29.1667V5.83333Z" fill="#56CCF2"/>
<path fill-rule="evenodd" clip-rule="evenodd" d="M18.083 10.3542C23.5632 10.3542 26.6321 16.3333 26.7782 16.625C26.8513 16.7708 26.8513 17.0625 26.7782 17.2083C26.6321 17.5 23.5632 23.4792 18.083 23.4792C12.9248 23.4792 9.90285 18.1819 9.44373 17.377C9.41507 17.3269 9.3964 17.2941 9.38781 17.2812C9.31474 17.0625 9.31474 16.8437 9.38781 16.625C9.53395 16.3333 12.6028 10.3542 18.083 10.3542ZM10.8492 16.9167C11.5799 18.0833 14.1373 22.0208 18.083 22.0208C22.0287 22.0208 24.5861 18.0833 25.3168 16.9167C24.5861 15.75 22.0287 11.8125 18.083 11.8125C14.1373 11.8125 11.5068 15.75 10.8492 16.9167ZM18.083 14C16.4755 14 15.1603 15.3125 15.1603 16.9167C15.1603 18.5208 16.4755 19.8333 18.083 19.8333C19.6906 19.8333 21.0057 18.5208 21.0057 16.9167C21.0057 15.3125 19.6906 14 18.083 14ZM16.6216 16.9167C16.6216 17.7187 17.2793 18.375 18.083 18.375C18.8867 18.375 19.5444 17.7187 19.5444 16.9167C19.5444 16.1146 18.8867 15.4583 18.083 15.4583C17.2793 15.4583 16.6216 16.1146 16.6216 16.9167Z" fill="white"/>
<mask id="mask0_474_78" style="mask-type:alpha" maskUnits="userSpaceOnUse" x="9" y="10" width="18" height="14">
<path fill-rule="evenodd" clip-rule="evenodd" d="M18.083 10.3542C23.5632 10.3542 26.6321 16.3333 26.7782 16.625C26.8513 16.7708 26.8513 17.0625 26.7782 17.2083C26.6321 17.5 23.5632 23.4792 18.083 23.4792C12.9248 23.4792 9.90285 18.1819 9.44373 17.377C9.41507 17.3269 9.3964 17.2941 9.38781 17.2812C9.31474 17.0625 9.31474 16.8437 9.38781 16.625C9.53395 16.3333 12.6028 10.3542 18.083 10.3542ZM10.8492 16.9167C11.5799 18.0833 14.1373 22.0208 18.083 22.0208C22.0287 22.0208 24.5861 18.0833 25.3168 16.9167C24.5861 15.75 22.0287 11.8125 18.083 11.8125C14.1373 11.8125 11.5068 15.75 10.8492 16.9167ZM18.083 14C16.4755 14 15.1603 15.3125 15.1603 16.9167C15.1603 18.5208 16.4755 19.8333 18.083 19.8333C19.6906 19.8333 21.0057 18.5208 21.0057 16.9167C21.0057 15.3125 19.6906 14 18.083 14ZM16.6216 16.9167C16.6216 17.7187 17.2793 18.375 18.083 18.375C18.8867 18.375 19.5444 17.7187 19.5444 16.9167C19.5444 16.1146 18.8867 15.4583 18.083 15.4583C17.2793 15.4583 16.6216 16.1146 16.6216 16.9167Z" fill="white"/>
</mask>
<g mask="url(#mask0_474_78)">
<path d="M26.833 8.16666H9.33301V25.6667H26.833V8.16666Z" fill="white"/>
</g>
</svg>
