<svg width="35" height="35" viewBox="0 0 35 35" fill="none" xmlns="http://www.w3.org/2000/svg">
<path fill-rule="evenodd" clip-rule="evenodd" d="M0 0H35V35H0V0Z" fill="#F2994A"/>
<path fill-rule="evenodd" clip-rule="evenodd" d="M25.8854 13.0521L18.5937 20.3438C18.4479 20.4896 18.3021 20.5625 18.0833 20.5625H15.1667C14.7292 20.5625 14.4375 20.2708 14.4375 19.8333V16.9167C14.4375 16.6979 14.5104 16.5521 14.6562 16.4063L21.9479 9.11459C22.2396 8.82293 22.6771 8.82293 22.9687 9.11459L25.8854 12.0313C26.1771 12.3229 26.1771 12.7604 25.8854 13.0521ZM24.6458 18.8854V22.75C24.6458 23.9896 23.6979 24.9375 22.4583 24.9375H12.25C11.0104 24.9375 10.0625 23.9896 10.0625 22.75V12.5417C10.0625 11.3021 11.0104 10.3542 12.25 10.3542H16.1146C16.5521 10.3542 16.8437 10.6458 16.8437 11.0833C16.8437 11.5208 16.5521 11.8125 16.1146 11.8125H12.25C11.8125 11.8125 11.5208 12.1042 11.5208 12.5417V22.75C11.5208 23.1875 11.8125 23.4792 12.25 23.4792H22.4583C22.8958 23.4792 23.1875 23.1875 23.1875 22.75V18.8854C23.1875 18.4479 23.4792 18.1563 23.9167 18.1563C24.3542 18.1563 24.6458 18.4479 24.6458 18.8854ZM22.4583 10.6458L24.3542 12.5417L17.7917 19.1042H15.8958V17.2083L22.4583 10.6458Z" fill="white"/>
<mask id="mask0_473_79" style="mask-type:alpha" maskUnits="userSpaceOnUse" x="10" y="8" width="17" height="17">
<path fill-rule="evenodd" clip-rule="evenodd" d="M25.8854 13.0521L18.5937 20.3438C18.4479 20.4896 18.3021 20.5625 18.0833 20.5625H15.1667C14.7292 20.5625 14.4375 20.2708 14.4375 19.8333V16.9167C14.4375 16.6979 14.5104 16.5521 14.6562 16.4063L21.9479 9.11459C22.2396 8.82293 22.6771 8.82293 22.9687 9.11459L25.8854 12.0313C26.1771 12.3229 26.1771 12.7604 25.8854 13.0521ZM24.6458 18.8854V22.75C24.6458 23.9896 23.6979 24.9375 22.4583 24.9375H12.25C11.0104 24.9375 10.0625 23.9896 10.0625 22.75V12.5417C10.0625 11.3021 11.0104 10.3542 12.25 10.3542H16.1146C16.5521 10.3542 16.8437 10.6458 16.8437 11.0833C16.8437 11.5208 16.5521 11.8125 16.1146 11.8125H12.25C11.8125 11.8125 11.5208 12.1042 11.5208 12.5417V22.75C11.5208 23.1875 11.8125 23.4792 12.25 23.4792H22.4583C22.8958 23.4792 23.1875 23.1875 23.1875 22.75V18.8854C23.1875 18.4479 23.4792 18.1563 23.9167 18.1563C24.3542 18.1563 24.6458 18.4479 24.6458 18.8854ZM22.4583 10.6458L24.3542 12.5417L17.7917 19.1042H15.8958V17.2083L22.4583 10.6458Z" fill="white"/>
</mask>
<g mask="url(#mask0_473_79)">
<path d="M26.833 8.16666H9.33301V25.6667H26.833V8.16666Z" fill="white"/>
</g>
</svg>
