<svg width="20" height="18" viewBox="0 0 20 18" fill="none" xmlns="http://www.w3.org/2000/svg">
<path fill-rule="evenodd" clip-rule="evenodd" d="M6.1606 9C6.1606 9.25658 6.18662 9.50643 6.23633 9.74739C6.21157 9.74912 6.18632 9.75 6.1606 9.75H1.40827C0.933033 9.75 0.616211 9.45 0.616211 9C0.616211 8.55 0.933033 8.25 1.40827 8.25H6.1606C6.18632 8.25 6.21157 8.25088 6.23633 8.25261C6.18662 8.49357 6.1606 8.74342 6.1606 9ZM14.0054 8.25261C13.6483 6.52144 12.0677 5.25 10.1209 5.25C8.17409 5.25 6.5935 6.52144 6.23633 8.25261C6.66919 8.28291 6.95266 8.57435 6.95266 9C6.95266 9.42565 6.66919 9.71709 6.23633 9.74739C6.5935 11.4786 8.17409 12.75 10.1209 12.75C12.0677 12.75 13.6483 11.4786 14.0054 9.74739C14.0302 9.74912 14.0555 9.75 14.0812 9.75H18.8335C19.2295 9.75 19.6256 9.45 19.6256 9C19.6256 8.55 19.3087 8.25 18.8335 8.25H14.0812C14.0555 8.25 14.0302 8.25088 14.0054 8.25261ZM14.0054 8.25261C14.0552 8.49357 14.0812 8.74342 14.0812 9C14.0812 9.25658 14.0552 9.50643 14.0054 9.74739C13.5726 9.71709 13.2891 9.42565 13.2891 9C13.2891 8.57435 13.5726 8.28291 14.0054 8.25261ZM7.74472 9C7.74472 7.725 8.77439 6.75 10.1209 6.75C11.4674 6.75 12.4971 7.725 12.4971 9C12.4971 10.275 11.4674 11.25 10.1209 11.25C8.77439 11.25 7.74472 10.275 7.74472 9Z" fill="black"/>
<mask id="mask0_1659_15708" style="mask-type:alpha" maskUnits="userSpaceOnUse" x="0" y="5" width="20" height="8">
<path fill-rule="evenodd" clip-rule="evenodd" d="M6.1606 9C6.1606 9.25658 6.18662 9.50643 6.23633 9.74739C6.21157 9.74912 6.18632 9.75 6.1606 9.75H1.40827C0.933033 9.75 0.616211 9.45 0.616211 9C0.616211 8.55 0.933033 8.25 1.40827 8.25H6.1606C6.18632 8.25 6.21157 8.25088 6.23633 8.25261C6.18662 8.49357 6.1606 8.74342 6.1606 9ZM14.0054 8.25261C13.6483 6.52144 12.0677 5.25 10.1209 5.25C8.17409 5.25 6.5935 6.52144 6.23633 8.25261C6.66919 8.28291 6.95266 8.57435 6.95266 9C6.95266 9.42565 6.66919 9.71709 6.23633 9.74739C6.5935 11.4786 8.17409 12.75 10.1209 12.75C12.0677 12.75 13.6483 11.4786 14.0054 9.74739C14.0302 9.74912 14.0555 9.75 14.0812 9.75H18.8335C19.2295 9.75 19.6256 9.45 19.6256 9C19.6256 8.55 19.3087 8.25 18.8335 8.25H14.0812C14.0555 8.25 14.0302 8.25088 14.0054 8.25261ZM14.0054 8.25261C14.0552 8.49357 14.0812 8.74342 14.0812 9C14.0812 9.25658 14.0552 9.50643 14.0054 9.74739C13.5726 9.71709 13.2891 9.42565 13.2891 9C13.2891 8.57435 13.5726 8.28291 14.0054 8.25261ZM7.74472 9C7.74472 7.725 8.77439 6.75 10.1209 6.75C11.4674 6.75 12.4971 7.725 12.4971 9C12.4971 10.275 11.4674 11.25 10.1209 11.25C8.77439 11.25 7.74472 10.275 7.74472 9Z" fill="white"/>
</mask>
<g mask="url(#mask0_1659_15708)">
<rect x="0.616211" width="19.0093" height="18" fill="#6E6B7B"/>
</g>
</svg>
