<svg width="20" height="18" viewBox="0 0 20 18" fill="none" xmlns="http://www.w3.org/2000/svg">
<path fill-rule="evenodd" clip-rule="evenodd" d="M6.16121 9C6.16121 9.25658 6.18723 9.50643 6.23694 9.74739C6.21218 9.74912 6.18693 9.75 6.16121 9.75H1.40888C0.933644 9.75 0.616821 9.45 0.616821 9C0.616821 8.55 0.933644 8.25 1.40888 8.25H6.16121C6.18693 8.25 6.21218 8.25088 6.23694 8.25261C6.18723 8.49357 6.16121 8.74342 6.16121 9ZM14.0061 8.25261C13.6489 6.52144 12.0683 5.25 10.1215 5.25C8.1747 5.25 6.59411 6.52144 6.23694 8.25261C6.66981 8.28291 6.95327 8.57435 6.95327 9C6.95327 9.42565 6.66981 9.71709 6.23694 9.74739C6.59411 11.4786 8.1747 12.75 10.1215 12.75C12.0683 12.75 13.6489 11.4786 14.0061 9.74739C14.0308 9.74912 14.0561 9.75 14.0818 9.75H18.8341C19.2301 9.75 19.6262 9.45 19.6262 9C19.6262 8.55 19.3093 8.25 18.8341 8.25H14.0818C14.0561 8.25 14.0308 8.25088 14.0061 8.25261ZM14.0061 8.25261C14.0558 8.49357 14.0818 8.74342 14.0818 9C14.0818 9.25658 14.0558 9.50643 14.0061 9.74739C13.5732 9.71709 13.2897 9.42565 13.2897 9C13.2897 8.57435 13.5732 8.28291 14.0061 8.25261ZM7.74533 9C7.74533 7.725 8.775 6.75 10.1215 6.75C11.468 6.75 12.4977 7.725 12.4977 9C12.4977 10.275 11.468 11.25 10.1215 11.25C8.775 11.25 7.74533 10.275 7.74533 9Z" fill="black"/>
<mask id="mask0_1845_12965" style="mask-type:alpha" maskUnits="userSpaceOnUse" x="0" y="5" width="20" height="8">
<path fill-rule="evenodd" clip-rule="evenodd" d="M6.16121 9C6.16121 9.25658 6.18723 9.50643 6.23694 9.74739C6.21218 9.74912 6.18693 9.75 6.16121 9.75H1.40888C0.933644 9.75 0.616821 9.45 0.616821 9C0.616821 8.55 0.933644 8.25 1.40888 8.25H6.16121C6.18693 8.25 6.21218 8.25088 6.23694 8.25261C6.18723 8.49357 6.16121 8.74342 6.16121 9ZM14.0061 8.25261C13.6489 6.52144 12.0683 5.25 10.1215 5.25C8.1747 5.25 6.59411 6.52144 6.23694 8.25261C6.66981 8.28291 6.95327 8.57435 6.95327 9C6.95327 9.42565 6.66981 9.71709 6.23694 9.74739C6.59411 11.4786 8.1747 12.75 10.1215 12.75C12.0683 12.75 13.6489 11.4786 14.0061 9.74739C14.0308 9.74912 14.0561 9.75 14.0818 9.75H18.8341C19.2301 9.75 19.6262 9.45 19.6262 9C19.6262 8.55 19.3093 8.25 18.8341 8.25H14.0818C14.0561 8.25 14.0308 8.25088 14.0061 8.25261ZM14.0061 8.25261C14.0558 8.49357 14.0818 8.74342 14.0818 9C14.0818 9.25658 14.0558 9.50643 14.0061 9.74739C13.5732 9.71709 13.2897 9.42565 13.2897 9C13.2897 8.57435 13.5732 8.28291 14.0061 8.25261ZM7.74533 9C7.74533 7.725 8.775 6.75 10.1215 6.75C11.468 6.75 12.4977 7.725 12.4977 9C12.4977 10.275 11.468 11.25 10.1215 11.25C8.775 11.25 7.74533 10.275 7.74533 9Z" fill="white"/>
</mask>
<g mask="url(#mask0_1845_12965)">
<rect x="0.616821" width="19.0093" height="18" fill="#6E6B7B"/>
</g>
</svg>
