<svg width="19" height="18" viewBox="0 0 19 18" fill="none" xmlns="http://www.w3.org/2000/svg">
<path fill-rule="evenodd" clip-rule="evenodd" d="M16.9056 5.475L13.1653 1.725C13.0157 1.575 12.8661 1.5 12.6417 1.5H4.4131C3.14141 1.5 2.16895 2.475 2.16895 3.75V14.25C2.16895 15.525 3.14141 16.5 4.4131 16.5H14.8858C16.1575 16.5 17.13 15.525 17.13 14.25V6C17.13 5.775 17.0552 5.625 16.9056 5.475ZM12.6417 15H6.65726V10.5H12.6417V15ZM14.8858 15C15.3347 15 15.6339 14.7 15.6339 14.25V6.3L12.3425 3H6.65726V5.25H11.8936C12.3425 5.25 12.6417 5.55 12.6417 6C12.6417 6.45 12.3425 6.75 11.8936 6.75H5.90921C5.46038 6.75 5.16116 6.45 5.16116 6V3H4.4131C3.96427 3 3.66505 3.3 3.66505 3.75V14.25C3.66505 14.7 3.96427 15 4.4131 15H5.16116V9.75C5.16116 9.3 5.46038 9 5.90921 9H13.3897C13.8386 9 14.1378 9.3 14.1378 9.75V15H14.8858Z" fill="black"/>
<mask id="mask0_1659_15795" style="mask-type:alpha" maskUnits="userSpaceOnUse" x="2" y="1" width="16" height="16">
<path fill-rule="evenodd" clip-rule="evenodd" d="M16.9056 5.475L13.1653 1.725C13.0157 1.575 12.8661 1.5 12.6417 1.5H4.4131C3.14141 1.5 2.16895 2.475 2.16895 3.75V14.25C2.16895 15.525 3.14141 16.5 4.4131 16.5H14.8858C16.1575 16.5 17.13 15.525 17.13 14.25V6C17.13 5.775 17.0552 5.625 16.9056 5.475ZM12.6417 15H6.65726V10.5H12.6417V15ZM14.8858 15C15.3347 15 15.6339 14.7 15.6339 14.25V6.3L12.3425 3H6.65726V5.25H11.8936C12.3425 5.25 12.6417 5.55 12.6417 6C12.6417 6.45 12.3425 6.75 11.8936 6.75H5.90921C5.46038 6.75 5.16116 6.45 5.16116 6V3H4.4131C3.96427 3 3.66505 3.3 3.66505 3.75V14.25C3.66505 14.7 3.96427 15 4.4131 15H5.16116V9.75C5.16116 9.3 5.46038 9 5.90921 9H13.3897C13.8386 9 14.1378 9.3 14.1378 9.75V15H14.8858Z" fill="white"/>
</mask>
<g mask="url(#mask0_1659_15795)">
<rect x="0.672852" width="17.9533" height="18" fill="#6E6B7B"/>
</g>
</svg>
