<svg width="20" height="18" viewBox="0 0 20 18" fill="none" xmlns="http://www.w3.org/2000/svg">
<path fill-rule="evenodd" clip-rule="evenodd" d="M15.6652 9C15.6652 8.55 15.982 8.25 16.4573 8.25C16.9325 8.25 17.2493 8.55 17.2493 9V14.25C17.2493 15.525 16.2197 16.5 14.8732 16.5H3.78437C2.43788 16.5 1.4082 15.525 1.4082 14.25V3.75C1.4082 2.475 2.43788 1.5 3.78437 1.5H12.497C12.9722 1.5 13.289 1.8 13.289 2.25C13.289 2.7 12.9722 3 12.497 3H3.78437C3.30914 3 2.99232 3.3 2.99232 3.75V14.25C2.99232 14.7 3.30914 15 3.78437 15H14.8732C15.3484 15 15.6652 14.7 15.6652 14.25V9ZM9.8832 11.025L18.5958 2.775C18.9126 2.475 18.9126 2.025 18.5958 1.725C18.279 1.425 17.8038 1.425 17.4869 1.725L9.32876 9.45L7.50703 7.725C7.19021 7.425 6.71498 7.425 6.39816 7.725C6.08133 8.025 6.08133 8.475 6.39816 8.775L8.77432 11.025C8.93273 11.175 9.09115 11.25 9.32876 11.25C9.56638 11.25 9.72479 11.175 9.8832 11.025Z" fill="black"/>
<mask id="mask0_1659_15697" style="mask-type:alpha" maskUnits="userSpaceOnUse" x="1" y="1" width="18" height="16">
<path fill-rule="evenodd" clip-rule="evenodd" d="M15.6652 9C15.6652 8.55 15.982 8.25 16.4573 8.25C16.9325 8.25 17.2493 8.55 17.2493 9V14.25C17.2493 15.525 16.2197 16.5 14.8732 16.5H3.78437C2.43788 16.5 1.4082 15.525 1.4082 14.25V3.75C1.4082 2.475 2.43788 1.5 3.78437 1.5H12.497C12.9722 1.5 13.289 1.8 13.289 2.25C13.289 2.7 12.9722 3 12.497 3H3.78437C3.30914 3 2.99232 3.3 2.99232 3.75V14.25C2.99232 14.7 3.30914 15 3.78437 15H14.8732C15.3484 15 15.6652 14.7 15.6652 14.25V9ZM9.8832 11.025L18.5958 2.775C18.9126 2.475 18.9126 2.025 18.5958 1.725C18.279 1.425 17.8038 1.425 17.4869 1.725L9.32876 9.45L7.50703 7.725C7.19021 7.425 6.71498 7.425 6.39816 7.725C6.08133 8.025 6.08133 8.475 6.39816 8.775L8.77432 11.025C8.93273 11.175 9.09115 11.25 9.32876 11.25C9.56638 11.25 9.72479 11.175 9.8832 11.025Z" fill="white"/>
</mask>
<g mask="url(#mask0_1659_15697)">
<rect x="0.616211" width="19.0093" height="18" fill="#6E6B7B"/>
</g>
</svg>
