<svg width="20" height="18" viewBox="0 0 20 18" fill="none" xmlns="http://www.w3.org/2000/svg">
<path fill-rule="evenodd" clip-rule="evenodd" d="M4.57643 12C5.05166 12 5.36848 11.7 5.36848 11.25C5.36848 10.8 5.05166 10.5 4.57643 10.5H3.78437C3.30914 10.5 2.99232 10.2 2.99232 9.75V3C2.99232 2.55 3.30914 2.25 3.78437 2.25H10.9129C11.3881 2.25 11.7049 2.55 11.7049 3V3.75C11.7049 4.2 12.0218 4.5 12.497 4.5C12.9722 4.5 13.289 4.2 13.289 3.75V3C13.289 1.725 12.2594 0.75 10.9129 0.75H3.78437C2.43788 0.75 1.4082 1.725 1.4082 3V9.75C1.4082 11.025 2.43788 12 3.78437 12H4.57643ZM16.4573 6H9.32876C7.98227 6 6.9526 6.975 6.9526 8.25V15C6.9526 16.275 7.98227 17.25 9.32876 17.25H16.4573C17.8038 17.25 18.8334 16.275 18.8334 15V8.25C18.8334 6.975 17.8038 6 16.4573 6ZM17.2493 15C17.2493 15.45 16.9325 15.75 16.4573 15.75H9.32876C8.85353 15.75 8.53671 15.45 8.53671 15V8.25C8.53671 7.8 8.85353 7.5 9.32876 7.5H16.4573C16.9325 7.5 17.2493 7.8 17.2493 8.25V15Z" fill="black"/>
<mask id="mask0_1659_15742" style="mask-type:alpha" maskUnits="userSpaceOnUse" x="1" y="0" width="18" height="18">
<path fill-rule="evenodd" clip-rule="evenodd" d="M4.57643 12C5.05166 12 5.36848 11.7 5.36848 11.25C5.36848 10.8 5.05166 10.5 4.57643 10.5H3.78437C3.30914 10.5 2.99232 10.2 2.99232 9.75V3C2.99232 2.55 3.30914 2.25 3.78437 2.25H10.9129C11.3881 2.25 11.7049 2.55 11.7049 3V3.75C11.7049 4.2 12.0218 4.5 12.497 4.5C12.9722 4.5 13.289 4.2 13.289 3.75V3C13.289 1.725 12.2594 0.75 10.9129 0.75H3.78437C2.43788 0.75 1.4082 1.725 1.4082 3V9.75C1.4082 11.025 2.43788 12 3.78437 12H4.57643ZM16.4573 6H9.32876C7.98227 6 6.9526 6.975 6.9526 8.25V15C6.9526 16.275 7.98227 17.25 9.32876 17.25H16.4573C17.8038 17.25 18.8334 16.275 18.8334 15V8.25C18.8334 6.975 17.8038 6 16.4573 6ZM17.2493 15C17.2493 15.45 16.9325 15.75 16.4573 15.75H9.32876C8.85353 15.75 8.53671 15.45 8.53671 15V8.25C8.53671 7.8 8.85353 7.5 9.32876 7.5H16.4573C16.9325 7.5 17.2493 7.8 17.2493 8.25V15Z" fill="white"/>
</mask>
<g mask="url(#mask0_1659_15742)">
<rect x="0.616211" width="19.0093" height="18" fill="#6E6B7B"/>
</g>
</svg>
