<svg width="49" height="48" viewBox="0 0 49 48" fill="none" xmlns="http://www.w3.org/2000/svg">
<g clip-path="url(#clip0_1471_64205)">
<rect x="0.339722" width="48" height="48" rx="24" fill="#7367F0" fill-opacity="0.12"/>
<path d="M36.3397 18V24C36.3397 24.6 35.9397 25 35.3397 25C34.7397 25 34.3397 24.6 34.3397 24V20.4L26.5397 28.2C26.1397 28.6 25.5397 28.6 25.1397 28.2L20.8397 23.9L14.0397 30.7C13.8397 30.9 13.6397 31 13.3397 31C13.0397 31 12.8397 30.9 12.6397 30.7C12.2397 30.3 12.2397 29.7 12.6397 29.3L20.1397 21.8C20.5397 21.4 21.1397 21.4 21.5397 21.8L25.8397 26.1L32.9397 19H29.3397C28.7397 19 28.3397 18.6 28.3397 18C28.3397 17.4 28.7397 17 29.3397 17H35.3397C35.4397 17 35.6397 17 35.7397 17.1C35.9397 17.2 36.1397 17.4 36.2397 17.6C36.3397 17.7 36.3397 17.9 36.3397 18Z" fill="black"/>
<mask id="mask0_1471_64205" style="mask-type:alpha" maskUnits="userSpaceOnUse" x="12" y="17" width="25" height="14">
<path d="M36.3397 18V24C36.3397 24.6 35.9397 25 35.3397 25C34.7397 25 34.3397 24.6 34.3397 24V20.4L26.5397 28.2C26.1397 28.6 25.5397 28.6 25.1397 28.2L20.8397 23.9L14.0397 30.7C13.8397 30.9 13.6397 31 13.3397 31C13.0397 31 12.8397 30.9 12.6397 30.7C12.2397 30.3 12.2397 29.7 12.6397 29.3L20.1397 21.8C20.5397 21.4 21.1397 21.4 21.5397 21.8L25.8397 26.1L32.9397 19H29.3397C28.7397 19 28.3397 18.6 28.3397 18C28.3397 17.4 28.7397 17 29.3397 17H35.3397C35.4397 17 35.6397 17 35.7397 17.1C35.9397 17.2 36.1397 17.4 36.2397 17.6C36.3397 17.7 36.3397 17.9 36.3397 18Z" fill="white"/>
</mask>
<g mask="url(#mask0_1471_64205)">
<rect x="12.3397" y="12" width="24" height="24" fill="#28C765"/>
</g>
</g>
<defs>
<clipPath id="clip0_1471_64205">
<rect width="48" height="48" fill="white" transform="translate(0.339722)"/>
</clipPath>
</defs>
</svg>
