<svg width="49" height="48" viewBox="0 0 49 48" fill="none" xmlns="http://www.w3.org/2000/svg">
<g clip-path="url(#clip0_1471_64171)">
<rect x="0.241089" width="48" height="48" rx="24" fill="#EA5455" fill-opacity="0.12"/>
<path fill-rule="evenodd" clip-rule="evenodd" d="M19.4055 19C19.4055 16.2 21.6055 14 24.4055 14C27.2055 14 29.4055 16.2 29.4055 19C29.4055 21.8 27.2055 24 24.4055 24C21.6055 24 19.4055 21.8 19.4055 19ZM33.4055 31V33C33.4055 33.6 33.0055 34 32.4055 34C31.8055 34 31.4055 33.6 31.4055 33V31C31.4055 29.3 30.1055 28 28.4055 28H20.4055C18.7055 28 17.4055 29.3 17.4055 31V33C17.4055 33.6 17.0055 34 16.4055 34C15.8055 34 15.4055 33.6 15.4055 33V31C15.4055 28.2 17.6055 26 20.4055 26H28.4055C31.2055 26 33.4055 28.2 33.4055 31ZM24.4055 22C22.7055 22 21.4055 20.7 21.4055 19C21.4055 17.3 22.7055 16 24.4055 16C26.1055 16 27.4055 17.3 27.4055 19C27.4055 20.7 26.1055 22 24.4055 22Z" fill="black"/>
<mask id="mask0_1471_64171" style="mask-type:alpha" maskUnits="userSpaceOnUse" x="15" y="14" width="19" height="20">
<path fill-rule="evenodd" clip-rule="evenodd" d="M19.4055 19C19.4055 16.2 21.6055 14 24.4055 14C27.2055 14 29.4055 16.2 29.4055 19C29.4055 21.8 27.2055 24 24.4055 24C21.6055 24 19.4055 21.8 19.4055 19ZM33.4055 31V33C33.4055 33.6 33.0055 34 32.4055 34C31.8055 34 31.4055 33.6 31.4055 33V31C31.4055 29.3 30.1055 28 28.4055 28H20.4055C18.7055 28 17.4055 29.3 17.4055 31V33C17.4055 33.6 17.0055 34 16.4055 34C15.8055 34 15.4055 33.6 15.4055 33V31C15.4055 28.2 17.6055 26 20.4055 26H28.4055C31.2055 26 33.4055 28.2 33.4055 31ZM24.4055 22C22.7055 22 21.4055 20.7 21.4055 19C21.4055 17.3 22.7055 16 24.4055 16C26.1055 16 27.4055 17.3 27.4055 19C27.4055 20.7 26.1055 22 24.4055 22Z" fill="white"/>
</mask>
<g mask="url(#mask0_1471_64171)">
<rect x="12.4055" y="12" width="24" height="24" fill="#EA5455"/>
</g>
</g>
<defs>
<clipPath id="clip0_1471_64171">
<rect width="48" height="48" fill="white" transform="translate(0.241089)"/>
</clipPath>
</defs>
</svg>
