<svg width="35" height="35" viewBox="0 0 35 35" fill="none" xmlns="http://www.w3.org/2000/svg">
<path fill-rule="evenodd" clip-rule="evenodd" d="M0 0H29.1667C32.3883 0 35 2.61168 35 5.83333V29.1667C35 32.3883 32.3883 35 29.1667 35H0V0Z" fill="#EB5757"/>
<path fill-rule="evenodd" clip-rule="evenodd" d="M24.3542 12.25H21.4375V11.5208C21.4375 10.2813 20.4896 9.33334 19.25 9.33334H16.3333C15.0937 9.33334 14.1458 10.2813 14.1458 11.5208V12.25H11.2292C10.7917 12.25 10.5 12.5417 10.5 12.9792C10.5 13.4167 10.7917 13.7083 11.2292 13.7083H11.9583V23.1875C11.9583 24.4271 12.9062 25.375 14.1458 25.375H21.4375C22.6771 25.375 23.625 24.4271 23.625 23.1875V13.7083H24.3542C24.7917 13.7083 25.0833 13.4167 25.0833 12.9792C25.0833 12.5417 24.7917 12.25 24.3542 12.25ZM15.6042 11.5208C15.6042 11.0833 15.8958 10.7917 16.3333 10.7917H19.25C19.6875 10.7917 19.9792 11.0833 19.9792 11.5208V12.25H15.6042V11.5208ZM21.4375 23.9167C21.875 23.9167 22.1667 23.625 22.1667 23.1875V13.7083H13.4167V23.1875C13.4167 23.625 13.7083 23.9167 14.1458 23.9167H21.4375ZM17.0625 16.625V21C17.0625 21.4375 16.7708 21.7292 16.3333 21.7292C15.8958 21.7292 15.6042 21.4375 15.6042 21V16.625C15.6042 16.1875 15.8958 15.8958 16.3333 15.8958C16.7708 15.8958 17.0625 16.1875 17.0625 16.625ZM19.9792 21V16.625C19.9792 16.1875 19.6875 15.8958 19.25 15.8958C18.8125 15.8958 18.5208 16.1875 18.5208 16.625V21C18.5208 21.4375 18.8125 21.7292 19.25 21.7292C19.6875 21.7292 19.9792 21.4375 19.9792 21Z" fill="white"/>
<mask id="mask0_472_212" style="mask-type:alpha" maskUnits="userSpaceOnUse" x="10" y="9" width="16" height="17">
<path fill-rule="evenodd" clip-rule="evenodd" d="M24.3542 12.25H21.4375V11.5208C21.4375 10.2813 20.4896 9.33334 19.25 9.33334H16.3333C15.0937 9.33334 14.1458 10.2813 14.1458 11.5208V12.25H11.2292C10.7917 12.25 10.5 12.5417 10.5 12.9792C10.5 13.4167 10.7917 13.7083 11.2292 13.7083H11.9583V23.1875C11.9583 24.4271 12.9062 25.375 14.1458 25.375H21.4375C22.6771 25.375 23.625 24.4271 23.625 23.1875V13.7083H24.3542C24.7917 13.7083 25.0833 13.4167 25.0833 12.9792C25.0833 12.5417 24.7917 12.25 24.3542 12.25ZM15.6042 11.5208C15.6042 11.0833 15.8958 10.7917 16.3333 10.7917H19.25C19.6875 10.7917 19.9792 11.0833 19.9792 11.5208V12.25H15.6042V11.5208ZM21.4375 23.9167C21.875 23.9167 22.1667 23.625 22.1667 23.1875V13.7083H13.4167V23.1875C13.4167 23.625 13.7083 23.9167 14.1458 23.9167H21.4375ZM17.0625 16.625V21C17.0625 21.4375 16.7708 21.7292 16.3333 21.7292C15.8958 21.7292 15.6042 21.4375 15.6042 21V16.625C15.6042 16.1875 15.8958 15.8958 16.3333 15.8958C16.7708 15.8958 17.0625 16.1875 17.0625 16.625ZM19.9792 21V16.625C19.9792 16.1875 19.6875 15.8958 19.25 15.8958C18.8125 15.8958 18.5208 16.1875 18.5208 16.625V21C18.5208 21.4375 18.8125 21.7292 19.25 21.7292C19.6875 21.7292 19.9792 21.4375 19.9792 21Z" fill="white"/>
</mask>
<g mask="url(#mask0_472_212)">
</g>
</svg>
