<svg width="49" height="48" viewBox="0 0 49 48" fill="none" xmlns="http://www.w3.org/2000/svg">
<g clip-path="url(#clip0_1471_64155)">
<rect x="0.301331" width="48" height="48" rx="24" fill="#28C76F" fill-opacity="0.12"/>
<path fill-rule="evenodd" clip-rule="evenodd" d="M18.9863 19C18.9863 16.2 21.1863 14 23.9863 14C26.7863 14 28.9863 16.2 28.9863 19C28.9863 21.8 26.7863 24 23.9863 24C21.1863 24 18.9863 21.8 18.9863 19ZM32.9863 31V33C32.9863 33.6 32.5863 34 31.9863 34C31.3863 34 30.9863 33.6 30.9863 33V31C30.9863 29.3 29.6863 28 27.9863 28H19.9863C18.2863 28 16.9863 29.3 16.9863 31V33C16.9863 33.6 16.5863 34 15.9863 34C15.3863 34 14.9863 33.6 14.9863 33V31C14.9863 28.2 17.1863 26 19.9863 26H27.9863C30.7863 26 32.9863 28.2 32.9863 31ZM23.9863 22C22.2863 22 20.9863 20.7 20.9863 19C20.9863 17.3 22.2863 16 23.9863 16C25.6863 16 26.9863 17.3 26.9863 19C26.9863 20.7 25.6863 22 23.9863 22Z" fill="black"/>
<mask id="mask0_1471_64155" style="mask-type:alpha" maskUnits="userSpaceOnUse" x="14" y="14" width="19" height="20">
<path fill-rule="evenodd" clip-rule="evenodd" d="M18.9863 19C18.9863 16.2 21.1863 14 23.9863 14C26.7863 14 28.9863 16.2 28.9863 19C28.9863 21.8 26.7863 24 23.9863 24C21.1863 24 18.9863 21.8 18.9863 19ZM32.9863 31V33C32.9863 33.6 32.5863 34 31.9863 34C31.3863 34 30.9863 33.6 30.9863 33V31C30.9863 29.3 29.6863 28 27.9863 28H19.9863C18.2863 28 16.9863 29.3 16.9863 31V33C16.9863 33.6 16.5863 34 15.9863 34C15.3863 34 14.9863 33.6 14.9863 33V31C14.9863 28.2 17.1863 26 19.9863 26H27.9863C30.7863 26 32.9863 28.2 32.9863 31ZM23.9863 22C22.2863 22 20.9863 20.7 20.9863 19C20.9863 17.3 22.2863 16 23.9863 16C25.6863 16 26.9863 17.3 26.9863 19C26.9863 20.7 25.6863 22 23.9863 22Z" fill="white"/>
</mask>
<g mask="url(#mask0_1471_64155)">
<rect x="11.9863" y="12" width="24" height="24" fill="#7367F0"/>
</g>
</g>
<defs>
<clipPath id="clip0_1471_64155">
<rect width="48" height="48" fill="white" transform="translate(0.301331)"/>
</clipPath>
</defs>
</svg>
