<svg width="21" height="20" viewBox="0 0 21 20" fill="none" xmlns="http://www.w3.org/2000/svg">
<path fill-rule="evenodd" clip-rule="evenodd" d="M18.5068 6.84119C18.839 6.92435 19.0882 7.09066 19.1712 7.4233C19.2543 7.67277 19.1712 8.0054 18.9221 8.17172L15.1017 11.9138L16.0153 17.236C16.0983 17.5686 15.9322 17.9012 15.6831 18.0675C15.517 18.1507 15.3509 18.2339 15.1848 18.2339H14.7695L10.0357 15.7391L5.30182 18.2339C4.96962 18.4002 4.63742 18.317 4.38827 18.1507C4.13912 17.9844 3.97302 17.6518 4.05607 17.3191L4.96962 11.997L1.14931 8.25488C0.900162 8.08856 0.817112 7.75593 0.900162 7.4233C1.06626 7.09066 1.31541 6.84119 1.64761 6.84119L6.87978 6.00961L9.28823 1.26959C9.53738 0.687481 10.534 0.687481 10.7831 1.26959L13.1916 6.09277L18.5068 6.84119ZM13.3577 11.8307C13.3577 11.5812 13.4407 11.3317 13.6068 11.0823L16.5967 8.17172L12.5272 7.58961C12.195 7.58961 11.9458 7.4233 11.8628 7.17382L10.0357 3.51486L8.20858 7.25698C8.04248 7.4233 7.79333 7.67277 7.54418 7.67277L3.47472 8.25488L6.46453 11.0823C6.63063 11.3317 6.71368 11.5812 6.71368 11.8307L5.96623 15.9054L9.62044 13.9928C9.86959 13.8265 10.1187 13.8265 10.3679 13.9928L14.0221 15.9054L13.3577 11.8307Z" fill="white"/>
<mask id="mask0_1471_64454" style="mask-type:alpha" maskUnits="userSpaceOnUse" x="0" y="0" width="20" height="19">
<path fill-rule="evenodd" clip-rule="evenodd" d="M18.5068 6.84119C18.839 6.92435 19.0882 7.09066 19.1712 7.4233C19.2543 7.67277 19.1712 8.0054 18.9221 8.17172L15.1017 11.9138L16.0153 17.236C16.0983 17.5686 15.9322 17.9012 15.6831 18.0675C15.517 18.1507 15.3509 18.2339 15.1848 18.2339H14.7695L10.0357 15.7391L5.30182 18.2339C4.96962 18.4002 4.63742 18.317 4.38827 18.1507C4.13912 17.9844 3.97302 17.6518 4.05607 17.3191L4.96962 11.997L1.14931 8.25488C0.900162 8.08856 0.817112 7.75593 0.900162 7.4233C1.06626 7.09066 1.31541 6.84119 1.64761 6.84119L6.87978 6.00961L9.28823 1.26959C9.53738 0.687481 10.534 0.687481 10.7831 1.26959L13.1916 6.09277L18.5068 6.84119ZM13.3577 11.8307C13.3577 11.5812 13.4407 11.3317 13.6068 11.0823L16.5967 8.17172L12.5272 7.58961C12.195 7.58961 11.9458 7.4233 11.8628 7.17382L10.0357 3.51486L8.20858 7.25698C8.04248 7.4233 7.79333 7.67277 7.54418 7.67277L3.47472 8.25488L6.46453 11.0823C6.63063 11.3317 6.71368 11.5812 6.71368 11.8307L5.96623 15.9054L9.62044 13.9928C9.86959 13.8265 10.1187 13.8265 10.3679 13.9928L14.0221 15.9054L13.3577 11.8307Z" fill="white"/>
</mask>
<g mask="url(#mask0_1471_64454)">
<rect x="0.0356445" width="20" height="19.9903" fill="#FF9F43"/>
</g>
</svg>
