<svg width="21" height="20" viewBox="0 0 21 20" fill="none" xmlns="http://www.w3.org/2000/svg">
<path fill-rule="evenodd" clip-rule="evenodd" d="M16.7024 2.49878H3.36902C1.95235 2.49878 0.869019 3.58159 0.869019 4.99757V14.9927C0.869019 16.4087 1.95235 17.4915 3.36902 17.4915H16.7024C18.119 17.4915 19.2024 16.4087 19.2024 14.9927V4.99757C19.2024 3.58159 18.119 2.49878 16.7024 2.49878ZM3.36902 4.16464H16.7024C17.0357 4.16464 17.2857 4.33122 17.4524 4.6644L10.0357 9.82856L2.61902 4.6644C2.78569 4.33122 3.03569 4.16464 3.36902 4.16464ZM2.53569 14.9927C2.53569 15.4925 2.86902 15.8256 3.36902 15.8256H16.7024C17.2024 15.8256 17.5357 15.4925 17.5357 14.9927V6.58013L10.5357 11.4944C10.369 11.5777 10.2024 11.661 10.0357 11.661C9.86902 11.661 9.70235 11.5777 9.53568 11.4944L2.53569 6.58013V14.9927Z" fill="white"/>
<mask id="mask0_1471_64474" style="mask-type:alpha" maskUnits="userSpaceOnUse" x="0" y="2" width="20" height="16">
<path fill-rule="evenodd" clip-rule="evenodd" d="M16.7024 2.49878H3.36902C1.95235 2.49878 0.869019 3.58159 0.869019 4.99757V14.9927C0.869019 16.4087 1.95235 17.4915 3.36902 17.4915H16.7024C18.119 17.4915 19.2024 16.4087 19.2024 14.9927V4.99757C19.2024 3.58159 18.119 2.49878 16.7024 2.49878ZM3.36902 4.16464H16.7024C17.0357 4.16464 17.2857 4.33122 17.4524 4.6644L10.0357 9.82856L2.61902 4.6644C2.78569 4.33122 3.03569 4.16464 3.36902 4.16464ZM2.53569 14.9927C2.53569 15.4925 2.86902 15.8256 3.36902 15.8256H16.7024C17.2024 15.8256 17.5357 15.4925 17.5357 14.9927V6.58013L10.5357 11.4944C10.369 11.5777 10.2024 11.661 10.0357 11.661C9.86902 11.661 9.70235 11.5777 9.53568 11.4944L2.53569 6.58013V14.9927Z" fill="white"/>
</mask>
<g mask="url(#mask0_1471_64474)">
<rect x="0.0356445" width="20" height="19.9903" fill="white"/>
</g>
</svg>
