<svg width="14" height="15" viewBox="0 0 14 15" fill="none" xmlns="http://www.w3.org/2000/svg">
<path fill-rule="evenodd" clip-rule="evenodd" d="M13.4166 7.88102C13.4166 8.23102 13.1832 8.46436 12.8331 8.46436H6.99819C6.64809 8.46436 6.41469 8.23102 6.41469 7.88102V2.04769C6.41469 1.69769 6.64809 1.46436 6.99819 1.46436C10.5575 1.46436 13.4166 4.32269 13.4166 7.88102ZM12.8915 10.3894C11.8996 12.8394 9.50722 14.2977 6.99819 14.2977C6.18129 14.2977 5.30605 14.1227 4.48915 13.7727C1.22157 12.3727 -0.295518 8.63936 1.10487 5.37269C1.74672 3.85602 2.91371 2.63102 4.4308 1.98936C4.72255 1.87269 5.07265 1.98936 5.18935 2.28102C5.30605 2.57269 5.18935 2.92269 4.8976 3.03936C3.67226 3.62269 2.68031 4.61436 2.15517 5.83936C1.04652 8.52269 2.27187 11.6144 4.95595 12.7227C7.64003 13.831 10.7326 12.606 11.8412 9.92269C11.9579 9.63102 12.308 9.51436 12.5998 9.63102C12.8915 9.74769 13.0082 10.0977 12.8915 10.3894ZM7.58168 2.68936C9.97402 2.92269 11.8996 4.84769 12.1913 7.29769H7.58168V2.68936Z" fill="black"/>
<mask id="mask0_1748_6545" style="mask-type:alpha" maskUnits="userSpaceOnUse" x="0" y="1" width="14" height="14">
<path fill-rule="evenodd" clip-rule="evenodd" d="M13.4166 7.88102C13.4166 8.23102 13.1832 8.46436 12.8331 8.46436H6.99819C6.64809 8.46436 6.41469 8.23102 6.41469 7.88102V2.04769C6.41469 1.69769 6.64809 1.46436 6.99819 1.46436C10.5575 1.46436 13.4166 4.32269 13.4166 7.88102ZM12.8915 10.3894C11.8996 12.8394 9.50722 14.2977 6.99819 14.2977C6.18129 14.2977 5.30605 14.1227 4.48915 13.7727C1.22157 12.3727 -0.295518 8.63936 1.10487 5.37269C1.74672 3.85602 2.91371 2.63102 4.4308 1.98936C4.72255 1.87269 5.07265 1.98936 5.18935 2.28102C5.30605 2.57269 5.18935 2.92269 4.8976 3.03936C3.67226 3.62269 2.68031 4.61436 2.15517 5.83936C1.04652 8.52269 2.27187 11.6144 4.95595 12.7227C7.64003 13.831 10.7326 12.606 11.8412 9.92269C11.9579 9.63102 12.308 9.51436 12.5998 9.63102C12.8915 9.74769 13.0082 10.0977 12.8915 10.3894ZM7.58168 2.68936C9.97402 2.92269 11.8996 4.84769 12.1913 7.29769H7.58168V2.68936Z" fill="white"/>
</mask>
<g mask="url(#mask0_1748_6545)">
<rect y="0.880859" width="14" height="14" fill="white"/>
</g>
</svg>
