<svg width="23" height="18" viewBox="0 0 23 18" fill="none" xmlns="http://www.w3.org/2000/svg">
<path fill-rule="evenodd" clip-rule="evenodd" d="M18.173 2.25H16.3248V1.5C16.3248 1.05 15.9552 0.75 15.4008 0.75C14.8463 0.75 14.4767 1.05 14.4767 1.5V2.25H8.93232V1.5C8.93232 1.05 8.5627 0.75 8.00826 0.75C7.45382 0.75 7.08419 1.05 7.08419 1.5V2.25H5.23606C3.66515 2.25 2.46387 3.225 2.46387 4.5V15C2.46387 16.275 3.66515 17.25 5.23606 17.25H18.173C19.7439 17.25 20.9452 16.275 20.9452 15V4.5C20.9452 3.225 19.7439 2.25 18.173 2.25ZM5.23606 3.75H7.08419V4.5C7.08419 4.95 7.45382 5.25 8.00826 5.25C8.5627 5.25 8.93232 4.95 8.93232 4.5V3.75H14.4767V4.5C14.4767 4.95 14.8463 5.25 15.4008 5.25C15.9552 5.25 16.3248 4.95 16.3248 4.5V3.75H18.173C18.7274 3.75 19.097 4.05 19.097 4.5V6.75H4.312V4.5C4.312 4.05 4.68162 3.75 5.23606 3.75ZM5.23606 15.75H18.173C18.7274 15.75 19.097 15.45 19.097 15V8.25H4.312V15C4.312 15.45 4.68162 15.75 5.23606 15.75Z" fill="black"/>
<mask id="mask0_1659_15844" style="mask-type:alpha" maskUnits="userSpaceOnUse" x="2" y="0" width="19" height="18">
<path fill-rule="evenodd" clip-rule="evenodd" d="M18.173 2.25H16.3248V1.5C16.3248 1.05 15.9552 0.75 15.4008 0.75C14.8463 0.75 14.4767 1.05 14.4767 1.5V2.25H8.93232V1.5C8.93232 1.05 8.5627 0.75 8.00826 0.75C7.45382 0.75 7.08419 1.05 7.08419 1.5V2.25H5.23606C3.66515 2.25 2.46387 3.225 2.46387 4.5V15C2.46387 16.275 3.66515 17.25 5.23606 17.25H18.173C19.7439 17.25 20.9452 16.275 20.9452 15V4.5C20.9452 3.225 19.7439 2.25 18.173 2.25ZM5.23606 3.75H7.08419V4.5C7.08419 4.95 7.45382 5.25 8.00826 5.25C8.5627 5.25 8.93232 4.95 8.93232 4.5V3.75H14.4767V4.5C14.4767 4.95 14.8463 5.25 15.4008 5.25C15.9552 5.25 16.3248 4.95 16.3248 4.5V3.75H18.173C18.7274 3.75 19.097 4.05 19.097 4.5V6.75H4.312V4.5C4.312 4.05 4.68162 3.75 5.23606 3.75ZM5.23606 15.75H18.173C18.7274 15.75 19.097 15.45 19.097 15V8.25H4.312V15C4.312 15.45 4.68162 15.75 5.23606 15.75Z" fill="white"/>
</mask>
<g mask="url(#mask0_1659_15844)">
<rect x="0.616211" width="22.1776" height="18" fill="#6E6B7B"/>
</g>
</svg>
