<svg width="22" height="18" viewBox="0 0 22 18" fill="none" xmlns="http://www.w3.org/2000/svg">
<path fill-rule="evenodd" clip-rule="evenodd" d="M3.31268 1.5H9.47312C10.0012 1.5 10.3532 1.8 10.3532 2.25V7.5C10.3532 7.95 10.0012 8.25 9.47312 8.25H3.31268C2.78464 8.25 2.43262 7.95 2.43262 7.5V2.25C2.43262 1.8 2.78464 1.5 3.31268 1.5ZM4.19274 6.75H8.59305V3H4.19274V6.75ZM19.1538 1.5H12.9934C12.4653 1.5 12.1133 1.8 12.1133 2.25V7.5C12.1133 7.95 12.4653 8.25 12.9934 8.25H19.1538C19.6818 8.25 20.0339 7.95 20.0339 7.5V2.25C20.0339 1.8 19.6818 1.5 19.1538 1.5ZM13.8734 6.75H18.2737V3H13.8734V6.75ZM19.1538 9.75H12.9934C12.4653 9.75 12.1133 10.05 12.1133 10.5V15.75C12.1133 16.2 12.4653 16.5 12.9934 16.5H19.1538C19.6818 16.5 20.0339 16.2 20.0339 15.75V10.5C20.0339 10.05 19.6818 9.75 19.1538 9.75ZM13.8734 15H18.2737V11.25H13.8734V15ZM9.47312 9.75H3.31268C2.78464 9.75 2.43262 10.05 2.43262 10.5V15.75C2.43262 16.2 2.78464 16.5 3.31268 16.5H9.47312C10.0012 16.5 10.3532 16.2 10.3532 15.75V10.5C10.3532 10.05 10.0012 9.75 9.47312 9.75ZM4.19274 15H8.59305V11.25H4.19274V15Z" fill="black"/>
<mask id="mask0_1659_15821" style="mask-type:alpha" maskUnits="userSpaceOnUse" x="2" y="1" width="19" height="16">
<path fill-rule="evenodd" clip-rule="evenodd" d="M3.31268 1.5H9.47312C10.0012 1.5 10.3532 1.8 10.3532 2.25V7.5C10.3532 7.95 10.0012 8.25 9.47312 8.25H3.31268C2.78464 8.25 2.43262 7.95 2.43262 7.5V2.25C2.43262 1.8 2.78464 1.5 3.31268 1.5ZM4.19274 6.75H8.59305V3H4.19274V6.75ZM19.1538 1.5H12.9934C12.4653 1.5 12.1133 1.8 12.1133 2.25V7.5C12.1133 7.95 12.4653 8.25 12.9934 8.25H19.1538C19.6818 8.25 20.0339 7.95 20.0339 7.5V2.25C20.0339 1.8 19.6818 1.5 19.1538 1.5ZM13.8734 6.75H18.2737V3H13.8734V6.75ZM19.1538 9.75H12.9934C12.4653 9.75 12.1133 10.05 12.1133 10.5V15.75C12.1133 16.2 12.4653 16.5 12.9934 16.5H19.1538C19.6818 16.5 20.0339 16.2 20.0339 15.75V10.5C20.0339 10.05 19.6818 9.75 19.1538 9.75ZM13.8734 15H18.2737V11.25H13.8734V15ZM9.47312 9.75H3.31268C2.78464 9.75 2.43262 10.05 2.43262 10.5V15.75C2.43262 16.2 2.78464 16.5 3.31268 16.5H9.47312C10.0012 16.5 10.3532 16.2 10.3532 15.75V10.5C10.3532 10.05 10.0012 9.75 9.47312 9.75ZM4.19274 15H8.59305V11.25H4.19274V15Z" fill="white"/>
</mask>
<g mask="url(#mask0_1659_15821)">
<rect x="0.672852" width="21.1215" height="18" fill="#6E6B7B"/>
</g>
</svg>
