<svg width="21" height="20" viewBox="0 0 21 20" fill="none" xmlns="http://www.w3.org/2000/svg">
<path fill-rule="evenodd" clip-rule="evenodd" d="M15.8689 2.49887H14.2023V1.66594C14.2023 1.16618 13.8689 0.833008 13.3689 0.833008C12.8689 0.833008 12.5356 1.16618 12.5356 1.66594V2.49887H7.5356V1.66594C7.5356 1.16618 7.20227 0.833008 6.70227 0.833008C6.20227 0.833008 5.86894 1.16618 5.86894 1.66594V2.49887H4.20227C2.7856 2.49887 1.70227 3.58167 1.70227 4.99765V16.6587C1.70227 18.0746 2.7856 19.1574 4.20227 19.1574H15.8689C17.2856 19.1574 18.3689 18.0746 18.3689 16.6587V4.99765C18.3689 3.58167 17.2856 2.49887 15.8689 2.49887ZM4.20227 4.16472H5.86894V4.99765C5.86894 5.49741 6.20227 5.83058 6.70227 5.83058C7.20227 5.83058 7.5356 5.49741 7.5356 4.99765V4.16472H12.5356V4.99765C12.5356 5.49741 12.8689 5.83058 13.3689 5.83058C13.8689 5.83058 14.2023 5.49741 14.2023 4.99765V4.16472H15.8689C16.3689 4.16472 16.7023 4.4979 16.7023 4.99765V7.49644H3.36894V4.99765C3.36894 4.4979 3.70227 4.16472 4.20227 4.16472ZM4.20227 17.4916H15.8689C16.3689 17.4916 16.7023 17.1584 16.7023 16.6587V9.1623H3.36894V16.6587C3.36894 17.1584 3.70227 17.4916 4.20227 17.4916Z" fill="white"/>
<mask id="mask0_1471_64463" style="mask-type:alpha" maskUnits="userSpaceOnUse" x="1" y="0" width="18" height="20">
<path fill-rule="evenodd" clip-rule="evenodd" d="M15.8689 2.49887H14.2023V1.66594C14.2023 1.16618 13.8689 0.833008 13.3689 0.833008C12.8689 0.833008 12.5356 1.16618 12.5356 1.66594V2.49887H7.5356V1.66594C7.5356 1.16618 7.20227 0.833008 6.70227 0.833008C6.20227 0.833008 5.86894 1.16618 5.86894 1.66594V2.49887H4.20227C2.7856 2.49887 1.70227 3.58167 1.70227 4.99765V16.6587C1.70227 18.0746 2.7856 19.1574 4.20227 19.1574H15.8689C17.2856 19.1574 18.3689 18.0746 18.3689 16.6587V4.99765C18.3689 3.58167 17.2856 2.49887 15.8689 2.49887ZM4.20227 4.16472H5.86894V4.99765C5.86894 5.49741 6.20227 5.83058 6.70227 5.83058C7.20227 5.83058 7.5356 5.49741 7.5356 4.99765V4.16472H12.5356V4.99765C12.5356 5.49741 12.8689 5.83058 13.3689 5.83058C13.8689 5.83058 14.2023 5.49741 14.2023 4.99765V4.16472H15.8689C16.3689 4.16472 16.7023 4.4979 16.7023 4.99765V7.49644H3.36894V4.99765C3.36894 4.4979 3.70227 4.16472 4.20227 4.16472ZM4.20227 17.4916H15.8689C16.3689 17.4916 16.7023 17.1584 16.7023 16.6587V9.1623H3.36894V16.6587C3.36894 17.1584 3.70227 17.4916 4.20227 17.4916Z" fill="white"/>
</mask>
<g mask="url(#mask0_1471_64463)">
<rect x="0.0356445" width="20" height="19.9903" fill="white"/>
</g>
</svg>
