<svg width="200" height="186" viewBox="0 0 200 186" fill="none" xmlns="http://www.w3.org/2000/svg">
<path d="M43.0278 42.6939C49.5357 48.0304 50.8373 57.1415 46.0214 63.1289C41.2055 68.986 31.9642 69.3765 25.4563 64.04C18.8182 58.5733 17.5166 49.4622 22.4626 43.605C27.2785 37.6177 36.5198 37.2272 43.0278 42.6939V42.6939Z" fill="url(#paint0_linear_1551_85)"/>
<path d="M34.5668 29.5478H33.916V25.9033H34.5668V29.5478Z" fill="#622272"/>
<path d="M34.3056 58.1828C33.3945 57.7923 30.0103 55.9701 29.75 52.4558H38.731C38.4707 56.1003 35.0865 57.7923 34.3056 58.1828Z" fill="#EA3D71"/>
<path d="M40.4227 35.7954H28.0576C28.3179 30.7192 33.264 28.3763 34.3053 27.8557C35.2164 28.3763 40.1624 30.8494 40.4227 35.7954Z" fill="#EA3D71"/>
<path d="M41.7251 51.4145C41.7251 51.9352 41.3347 52.4558 40.6839 52.4558H27.7981C27.1473 52.4558 26.7568 51.9352 26.7568 51.4145C26.7568 50.7637 27.1473 50.3733 27.7981 50.3733H28.3187V37.878H27.7981C27.1473 37.878 26.7568 37.3574 26.7568 36.8367C26.7568 36.1859 27.1473 35.6653 27.7981 35.6653H40.6839C41.3347 35.6653 41.7251 36.1859 41.7251 36.8367C41.7251 37.3574 41.3347 37.878 40.6839 37.878H40.1632V50.3733H40.6839C41.3347 50.3733 41.7251 50.7637 41.7251 51.4145Z" fill="#622272"/>
<path d="M28.8389 50.3733V39.8304C29.3595 40.6113 30.0103 42.3034 30.0103 43.2145V50.3733H28.8389Z" fill="#FFC42B"/>
<path d="M31.5732 50.3733V43.2145C31.5732 41.6526 33.6558 39.7003 33.9161 39.5701C34.0463 39.4399 34.4367 39.4399 34.5669 39.5701C34.8272 39.7003 36.7796 41.6526 36.7796 43.2145V50.3733H31.5732Z" fill="#FFC42B"/>
<path d="M38.4707 50.3733V43.2145C38.4707 42.3034 38.9913 40.6114 39.512 39.9606V50.3733H38.4707Z" fill="#FFC42B"/>
<path fill-rule="evenodd" clip-rule="evenodd" d="M34.1759 23.5605C35.087 23.5605 35.7378 24.2113 35.7378 24.9922C35.7378 25.7732 35.087 26.424 34.1759 26.424C33.3949 26.424 32.7441 25.7732 32.7441 24.9922C32.7441 24.2113 33.3949 23.5605 34.1759 23.5605ZM34.1759 25.9033C34.6965 25.9033 35.087 25.5129 35.087 24.9922C35.087 24.6018 34.6965 24.2113 34.1759 24.2113C33.7854 24.2113 33.3949 24.6018 33.3949 24.9922C33.3949 25.5129 33.7854 25.9033 34.1759 25.9033Z" fill="#EA3D71"/>
<g style="mix-blend-mode:multiply" opacity="0.3">
<path d="M40.1638 38.7891H28.3193V37.878H40.1638V38.7891Z" fill="#622272"/>
</g>
<g style="mix-blend-mode:multiply" opacity="0.3">
<g style="mix-blend-mode:multiply" opacity="0.3">
<path d="M34.3057 58.1828V52.4558H38.7311C38.4708 56.1003 35.0866 57.7923 34.3057 58.1828Z" fill="#EA3D71"/>
</g>
</g>
<g style="mix-blend-mode:multiply" opacity="0.3">
<path d="M40.6835 52.4558H34.3057V35.6653H40.6835C41.3343 35.6653 41.7247 36.1859 41.7247 36.8367C41.7247 37.3574 41.3343 37.878 40.6835 37.878H40.1628V50.3733H40.6835C41.3343 50.3733 41.7247 50.7637 41.7247 51.4145C41.7247 51.9352 41.3343 52.4558 40.6835 52.4558V52.4558Z" fill="#622272"/>
</g>
<g style="mix-blend-mode:multiply" opacity="0.3">
<g style="mix-blend-mode:multiply" opacity="0.3">
<path d="M34.3057 35.7954V27.8557C35.2168 28.3763 40.1628 30.8494 40.4231 35.7954H34.3057Z" fill="#EA3D71"/>
</g>
</g>
<path d="M34.5665 24.3414H34.0459V18.3541H34.5665V24.3414Z" fill="#622272"/>
<path d="M38.3424 78.0971C41.336 77.186 44.3297 76.5352 47.3233 76.1447C48.0175 75.9712 48.7551 75.7976 49.536 75.6241C55.6535 73.6717 59.8186 68.5955 61.2504 62.8685C64.244 52.9764 71.9234 44.6462 82.5965 41.1319C95.4822 36.9668 109.149 41.3922 117.479 51.024C117.479 51.024 117.523 51.024 117.609 51.024C121.514 55.7098 127.762 58.1828 134.009 57.0113C134.009 57.0113 134.009 57.0547 134.009 57.1415C156.527 52.9764 179.175 66.1225 186.333 88.3797C194.143 112.719 180.736 138.881 156.397 146.691C148.197 149.424 139.866 149.424 131.927 147.732C126.07 146.431 121.514 145.129 116.047 146.951C109.149 149.164 105.895 154.11 101.73 160.488C95.0917 170.901 84.9393 179.101 72.1837 183.266C43.1582 192.637 12.0502 176.628 2.67875 147.602C-6.6927 118.577 9.31687 87.4686 38.3424 78.0971V78.0971Z" fill="url(#paint1_linear_1551_85)"/>
<path d="M146.242 99.313H182.947V104.129H146.242V99.313Z" fill="#DDDCEE"/>
<path d="M182.947 103.348V104.129H146.242V103.348H182.947Z" fill="#7D666B"/>
<path d="M146.242 104.129H182.947L191.798 106.992H137.392L146.242 104.129Z" fill="white"/>
<path d="M137.392 106.992H191.798V116.624H137.392V106.992Z" fill="#D1CFCF"/>
<path d="M179.693 102.567V101.265C179.693 100.745 179.954 100.311 180.474 99.9639C180.995 100.311 181.255 100.745 181.255 101.265V102.567H179.693Z" fill="#7D666B"/>
<path d="M175.657 102.567V101.265C175.657 100.745 175.961 100.311 176.568 99.9639C177.089 100.311 177.349 100.745 177.349 101.265V102.567H175.657Z" fill="#7D666B"/>
<path d="M171.753 102.567V101.265C171.753 100.745 172.013 100.311 172.534 99.9639C173.055 100.311 173.315 100.745 173.315 101.265V102.567H171.753Z" fill="#7D666B"/>
<path d="M167.718 102.567V101.265C167.718 100.745 168.021 100.311 168.629 99.9639C169.15 100.311 169.41 100.745 169.41 101.265V102.567H167.718Z" fill="#7D666B"/>
<path d="M163.813 102.567V101.265C163.813 100.745 164.074 100.311 164.594 99.9639C165.115 100.311 165.375 100.745 165.375 101.265V102.567H163.813Z" fill="#7D666B"/>
<path d="M159.777 102.567V101.265C159.777 100.745 160.081 100.311 160.688 99.9639C161.209 100.311 161.469 100.745 161.469 101.265V102.567H159.777Z" fill="#7D666B"/>
<path d="M155.873 102.567V101.265C155.873 100.745 156.133 100.311 156.654 99.9639C157.175 100.311 157.435 100.745 157.435 101.265V102.567H155.873Z" fill="#7D666B"/>
<path d="M151.838 102.567V101.265C151.838 100.745 152.142 100.311 152.749 99.9639C153.27 100.311 153.53 100.745 153.53 101.265V102.567H151.838Z" fill="#7D666B"/>
<path d="M147.934 102.567V101.265C147.934 100.745 148.194 100.311 148.715 99.9639C149.235 100.311 149.496 100.745 149.496 101.265V102.567H147.934Z" fill="#7D666B"/>
<path d="M185.028 115.192V111.418C185.028 110.203 185.679 109.205 186.981 108.424C188.196 109.205 188.803 110.203 188.803 111.418V115.192H185.028Z" fill="#7D666B"/>
<path d="M177.61 115.192V111.418C177.61 110.203 178.261 109.205 179.563 108.424C180.778 109.205 181.385 110.203 181.385 111.418V115.192H177.61Z" fill="#7D666B"/>
<path d="M170.191 115.192V111.418C170.191 110.203 170.799 109.205 172.014 108.424C173.315 109.205 173.966 110.203 173.966 111.418V115.192H170.191Z" fill="#7D666B"/>
<path d="M162.643 115.192V111.418C162.643 110.203 163.293 109.205 164.595 108.424C165.897 109.205 166.547 110.203 166.547 111.418V115.192H162.643Z" fill="#7D666B"/>
<path d="M155.223 115.192V111.418C155.223 110.203 155.873 109.205 157.175 108.424C158.39 109.205 158.997 110.203 158.997 111.418V115.192H155.223Z" fill="#7D666B"/>
<path d="M147.804 115.192V111.418C147.804 110.203 148.455 109.205 149.756 108.424C150.971 109.205 151.578 110.203 151.578 111.418V115.192H147.804Z" fill="#7D666B"/>
<path d="M140.385 115.192V111.418C140.385 110.203 140.992 109.205 142.207 108.424C143.509 109.205 144.159 110.203 144.159 111.418V115.192H140.385Z" fill="#7D666B"/>
<path d="M199.998 116.624V149.034H118.128V121.05L115.915 116.624H199.998Z" fill="#D1CFCF"/>
<path d="M199.998 123.393V125.215H118.128V123.393H199.998Z" fill="#7D666B"/>
<path d="M199.998 121.18V123.392H118.128V121.18H199.998Z" fill="#7D666B"/>
<g style="mix-blend-mode:multiply" opacity="0.3">
<g style="mix-blend-mode:multiply" opacity="0.3">
<path d="M199.998 123.002V123.393H118.128V123.002H199.998Z" fill="#5994DB"/>
</g>
</g>
<path d="M199.997 116.624V149.034H175.918V116.624H199.997Z" fill="#E8E8E8"/>
<path d="M199.997 123.393V125.215H175.918V123.393H199.997Z" fill="#7D666B"/>
<path d="M199.997 121.18V123.392H175.918V121.18H199.997Z" fill="#7D666B"/>
<path d="M183.208 145.259V134.196C183.208 131.766 184.423 129.857 186.852 128.469C189.282 129.944 190.497 131.853 190.497 134.196V145.259H183.208Z" fill="#7D666B"/>
<g style="mix-blend-mode:multiply" opacity="0.3">
<path d="M186.852 128.469C189.281 129.944 190.496 131.853 190.496 134.196V145.259H189.455V134.196C189.455 131.853 188.587 129.944 186.852 128.469V128.469Z" fill="#A289B1"/>
</g>
<path d="M166.937 142.656V134.977C166.937 133.328 167.761 132.026 169.41 131.072C171.058 132.026 171.883 133.328 171.883 134.977V142.656H166.937Z" fill="#7D666B"/>
<path d="M157.956 142.656V134.977C157.956 133.328 158.78 132.026 160.429 131.072C162.078 132.026 162.902 133.328 162.902 134.977V142.656H157.956Z" fill="#7D666B"/>
<path d="M148.846 142.656V134.977C148.846 133.328 149.713 132.026 151.449 131.072C153.098 132.026 153.922 133.328 153.922 134.977V142.656H148.846Z" fill="#7D666B"/>
<path d="M139.864 142.656V134.977C139.864 133.328 140.732 132.026 142.467 131.072C144.116 132.026 144.94 133.328 144.94 134.977V142.656H139.864Z" fill="#7D666B"/>
<path d="M130.884 142.656V134.977C130.884 133.328 131.708 132.026 133.357 131.072C135.092 132.026 135.96 133.328 135.96 134.977V142.656H130.884Z" fill="#7D666B"/>
<path d="M121.902 142.656V134.977C121.902 133.328 122.727 132.026 124.375 131.072C126.024 132.026 126.848 133.328 126.848 134.977V142.656H121.902Z" fill="#A289B1"/>
<path d="M199.998 116.624V117.405H116.306L115.915 116.624H199.998Z" fill="#F6FBFF"/>
<g style="mix-blend-mode:multiply" opacity="0.3">
<g style="mix-blend-mode:multiply" opacity="0.3">
<path d="M199.997 123.002V123.393H175.918V123.002H199.997Z" fill="#6BABDB"/>
</g>
</g>
<path d="M182.947 99.4433H146.242C146.242 90.202 152.75 82.6527 161.08 80.9607C162.035 80.2665 162.816 79.6591 163.423 79.1384L164.204 77.8368L164.725 72.24L165.245 77.8368L165.896 79.1384C166.59 79.6591 167.415 80.2665 168.369 80.9607C176.699 82.7829 182.947 90.3321 182.947 99.4433V99.4433Z" fill="url(#paint2_linear_1551_85)"/>
<path d="M26.4972 103.999H10.3574V88.2496H26.4972V103.999Z" fill="#F6FBFF"/>
<path d="M28.0582 164.132H8.9248V102.177H28.0582V164.132Z" fill="white"/>
<path d="M28.0605 164.132H18.4287V102.177H28.0605V164.132Z" fill="#D1CFCF"/>
<path d="M15.8243 110.897H11.6592V106.862H15.8243V110.897Z" fill="#7D666B"/>
<path d="M15.8243 117.666H11.6592V113.5H15.8243V117.666Z" fill="#7D666B"/>
<path d="M15.8243 124.304H11.6592V120.269H15.8243V124.304Z" fill="#7D666B"/>
<path d="M15.8243 131.072H11.6592V126.907H15.8243V131.072Z" fill="#7D666B"/>
<path d="M25.4551 110.897H21.29V106.862H25.4551V110.897Z" fill="#7D666B"/>
<path d="M25.4551 117.666H21.29V113.5H25.4551V117.666Z" fill="#7D666B"/>
<path d="M25.4551 124.304H21.29V120.269H25.4551V124.304Z" fill="#7D666B"/>
<path d="M25.4551 131.072H21.29V126.907H25.4551V131.072Z" fill="#7D666B"/>
<path d="M11.2695 100.354V92.8051C11.2695 92.1543 12.1806 90.9829 13.2219 90.9829C14.2632 90.9829 15.0441 92.1543 15.0441 92.8051V100.354H11.2695Z" fill="#7D666B"/>
<path d="M16.4756 100.354V92.8051C16.4756 92.1543 17.3867 90.9829 18.428 90.9829C19.4692 90.9829 20.2502 92.1543 20.2502 92.8051V100.354H16.4756Z" fill="#7D666B"/>
<path d="M21.8125 100.354V92.8051C21.8125 92.1543 22.5935 90.9829 23.6347 90.9829C24.676 90.9829 25.5871 92.1543 25.5871 92.8051V100.354H21.8125Z" fill="#7D666B"/>
<path d="M9.70687 88.3797C8.92592 85.0824 9.22962 82.3924 10.618 80.3099C12.527 77.3596 15 75.6242 18.0371 75.1035H18.9482C26.4106 77.1861 29.1006 81.6115 27.018 88.3797H9.70687Z" fill="url(#paint3_linear_1551_85)"/>
<path d="M18.2976 71.9797V70.4178C17.8637 70.331 17.6468 70.1574 17.6468 69.8971C17.6468 69.3765 18.0372 69.2463 18.1674 69.2463V67.4241L18.4277 65.6019H18.5579L18.8182 67.4241V69.2463C18.9484 69.2463 19.2087 69.3765 19.2087 69.8971C19.2087 70.1574 19.0351 70.331 18.688 70.4178V71.9797C18.9483 72.24 19.469 72.3701 19.469 73.0209C19.469 73.368 19.2087 73.585 18.688 73.6717V74.4527C18.9483 74.713 19.2087 74.9733 19.3388 75.2336C19.3388 75.2336 19.2954 75.2336 19.2087 75.2336H17.6468C17.7769 74.9733 18.0372 74.5829 18.2976 74.4527V73.6717C17.7769 73.585 17.5166 73.368 17.5166 73.0209C17.5166 72.3701 18.0372 72.24 18.2976 71.9797Z" fill="url(#paint4_linear_1551_85)"/>
<path d="M27.6677 88.5099H8.9248V88.1194H27.6677V88.5099Z" fill="#7D666B"/>
<path d="M28.7097 102.697H8.14453V102.177H28.7097V102.697Z" fill="#7D666B"/>
<path d="M148.978 40.7415C147.026 45.5574 142.47 48.9415 137.004 48.9415C129.975 48.9415 124.248 43.0844 124.248 36.0558C124.248 30.5891 127.502 26.0335 132.318 24.0811C130.626 26.1637 129.585 28.7668 129.585 31.6303C129.585 38.1383 134.921 43.4748 141.429 43.4748C144.293 43.4748 146.896 42.4336 148.978 40.7415V40.7415Z" fill="url(#paint5_linear_1551_85)"/>
<path d="M139.868 28.6367L141.039 31.37L143.903 31.6303L141.69 33.4525L142.341 36.316L139.868 34.8843L137.395 36.316L138.046 33.4525L135.833 31.6303L138.697 31.37L139.868 28.6367Z" fill="url(#paint6_linear_1551_85)"/>
<g opacity="0.4">
<g opacity="0.4">
<g opacity="0.4">
<path opacity="0.4" fill-rule="evenodd" clip-rule="evenodd" d="M51.7483 117.405H54.8721C55.6531 117.405 56.2171 117.232 56.5642 116.885C56.9113 116.537 57.0848 116.147 57.0848 115.713C57.0848 115.192 56.8245 114.672 56.1737 114.672C56.0436 114.672 55.7832 114.542 55.7832 114.281C55.7832 114.151 56.0436 113.891 56.1737 113.891C57.215 113.891 57.8658 114.672 57.8658 115.713C57.8658 116.364 57.6055 117.015 57.215 117.405C56.5642 117.926 55.7832 118.186 54.8721 118.186H51.7483C51.488 118.186 51.3578 118.056 51.3578 117.796C51.3578 117.535 51.488 117.405 51.7483 117.405ZM31.3133 113.37H33.9165C34.1768 112.069 35.2181 111.158 36.5197 111.158C36.9536 111.158 37.344 111.244 37.6911 111.418C38.2118 110.377 39.253 109.856 40.2943 109.726C40.5546 106.862 43.0276 104.519 46.0213 104.519C49.015 104.519 51.488 106.862 51.8785 109.726C51.9652 109.726 52.052 109.726 52.1388 109.726C53.961 109.726 55.5229 111.288 55.5229 113.11C55.5229 113.11 55.5229 113.153 55.5229 113.24C55.5229 113.37 55.3928 113.5 55.1324 113.5H50.9674C50.707 113.5 50.5769 113.37 50.5769 113.24C50.5769 113.11 50.707 112.85 50.9674 112.85H54.6118C54.6118 111.678 53.4404 110.637 52.1388 110.637C51.9652 110.637 51.7917 110.637 51.6182 110.637C51.4446 110.724 51.3144 110.724 51.2277 110.637C51.1409 110.55 51.0541 110.42 50.9674 110.246C50.9674 107.643 48.7547 105.431 46.0213 105.431C43.4181 105.431 41.2054 107.513 41.0753 110.246C41.0753 110.333 41.0319 110.42 40.9451 110.507C40.8583 110.594 40.7716 110.637 40.6848 110.637C40.598 110.637 40.5546 110.637 40.5546 110.637C39.5134 110.637 38.6022 111.158 38.2118 112.069C38.2118 112.242 38.125 112.329 37.9514 112.329C37.8647 112.416 37.7345 112.416 37.561 112.329C37.3006 112.069 36.9536 111.938 36.5197 111.938C35.6086 111.938 34.6975 112.85 34.6975 113.761C34.6975 114.021 34.5673 114.281 34.307 114.281H31.3133C31.053 114.281 30.9229 114.021 30.9229 113.761C30.9229 113.5 31.053 113.37 31.3133 113.37V113.37ZM48.1039 113.5C47.8435 113.5 47.7134 113.37 47.7134 113.24C47.7134 113.11 47.8435 112.85 48.1039 112.85H49.4054C49.5356 112.85 49.6658 113.11 49.6658 113.24C49.6658 113.37 49.5356 113.5 49.4054 113.5H48.1039Z" fill="white"/>
</g>
</g>
<g opacity="0.4">
<g opacity="0.4">
<path opacity="0.4" fill-rule="evenodd" clip-rule="evenodd" d="M151.059 76.6654H154.183C154.964 76.6654 155.571 76.4484 156.005 76.0146C156.265 75.7542 156.395 75.4071 156.395 74.9733C156.395 74.4526 156.135 73.932 155.614 73.932C155.354 73.932 155.224 73.8019 155.224 73.5415C155.224 73.2812 155.354 73.1511 155.614 73.1511C156.526 73.1511 157.307 73.932 157.307 74.9733C157.307 75.6241 157.046 76.2749 156.526 76.6654C156.005 77.186 155.224 77.4463 154.183 77.4463H151.059C150.929 77.4463 150.668 77.3162 150.668 77.0558C150.668 76.7955 150.929 76.6654 151.059 76.6654V76.6654ZM130.624 72.6304H133.227C133.487 71.3288 134.529 70.2876 135.96 70.2876C136.307 70.2876 136.655 70.3743 137.002 70.5479C137.652 69.6368 138.564 68.986 139.605 68.986C139.995 65.9923 142.468 63.7796 145.462 63.7796C148.326 63.7796 150.929 66.1225 151.189 68.986C151.276 68.986 151.406 68.986 151.579 68.986C153.402 68.986 154.833 70.4177 154.833 72.2399C154.833 72.3267 154.833 72.4135 154.833 72.5003C154.833 72.6304 154.703 72.7606 154.573 72.7606H150.278C150.148 72.7606 150.018 72.6304 150.018 72.5003C150.018 72.24 150.148 72.1098 150.278 72.1098H154.053C153.922 70.8082 152.881 69.7669 151.579 69.7669C151.319 69.7669 151.102 69.8103 150.929 69.8971C150.755 69.8971 150.625 69.8537 150.538 69.7669C150.451 69.6801 150.408 69.5934 150.408 69.5066C150.278 66.7733 148.065 64.6907 145.462 64.6907C142.729 64.6907 140.516 66.7733 140.516 69.3764C140.516 69.55 140.473 69.6801 140.386 69.7669C140.299 69.7669 140.169 69.7669 139.995 69.7669C139.995 69.7669 139.952 69.7669 139.865 69.7669C138.954 69.7669 138.043 70.4177 137.652 71.3288C137.566 71.4156 137.436 71.5024 137.262 71.5892C137.175 71.5892 137.088 71.5458 137.002 71.459C136.655 71.2854 136.307 71.1987 135.96 71.1987C134.919 71.1987 134.138 71.9796 134.138 73.0209C134.138 73.2812 133.878 73.4114 133.618 73.4114H130.624C130.494 73.4114 130.233 73.2812 130.233 73.0209C130.233 72.7606 130.494 72.6304 130.624 72.6304V72.6304ZM147.414 72.7606C147.284 72.7606 147.154 72.6304 147.154 72.5003C147.154 72.24 147.284 72.1098 147.414 72.1098H148.716C148.846 72.1098 148.976 72.24 148.976 72.5003C148.976 72.6304 148.846 72.7606 148.716 72.7606H147.414Z" fill="white"/>
</g>
</g>
<g opacity="0.4">
<g opacity="0.4">
<g opacity="0.4">
<path opacity="0.4" d="M30.5312 89.8114C30.5312 89.5511 30.6614 89.421 30.9217 89.421H36.6487C36.7789 89.421 37.0392 89.5511 37.0392 89.8114C37.0392 90.0717 36.7789 90.2019 36.6487 90.2019H30.9217C30.6614 90.2019 30.5312 90.0717 30.5312 89.8114Z" fill="white"/>
</g>
<g opacity="0.4">
<path opacity="0.4" d="M38.2109 89.8114C38.2109 89.5511 38.4713 89.421 38.6014 89.421H39.903C40.1633 89.421 40.2935 89.5511 40.2935 89.8114C40.2935 90.0717 40.1633 90.2019 39.903 90.2019H38.6014C38.4713 90.2019 38.2109 90.0717 38.2109 89.8114Z" fill="white"/>
</g>
</g>
</g>
<g opacity="0.4">
<g opacity="0.4">
<g opacity="0.4">
<path opacity="0.4" d="M157.568 64.6908C157.568 64.4305 157.829 64.3003 158.089 64.3003H163.686C163.946 64.3003 164.206 64.4305 164.206 64.6908C164.206 64.9511 163.946 65.0812 163.686 65.0812H158.089C157.829 65.0812 157.568 64.9511 157.568 64.6908Z" fill="white"/>
</g>
<g opacity="0.4">
<path opacity="0.4" d="M165.378 64.6908C165.378 64.4305 165.508 64.3003 165.768 64.3003H167.07C167.33 64.3003 167.46 64.4305 167.46 64.6908C167.46 64.9511 167.33 65.0812 167.07 65.0812H165.768C165.508 65.0812 165.378 64.9511 165.378 64.6908Z" fill="white"/>
</g>
</g>
</g>
<g opacity="0.4">
<g opacity="0.4">
<g opacity="0.4">
<path opacity="0.4" d="M46.1533 95.5385C46.1533 95.2782 46.2835 95.148 46.5438 95.148H52.2708C52.5311 95.148 52.6613 95.2782 52.6613 95.5385C52.6613 95.7988 52.5311 96.0591 52.2708 96.0591H46.5438C46.2835 96.0591 46.1533 95.7988 46.1533 95.5385Z" fill="white"/>
</g>
</g>
</g>
<g opacity="0.4">
<g opacity="0.4">
<g opacity="0.4">
<path opacity="0.4" d="M138.565 84.7352C138.565 84.4749 138.696 84.3447 138.956 84.3447H144.683C144.943 84.3447 145.073 84.4749 145.073 84.7352C145.073 84.9955 144.943 85.1257 144.683 85.1257H138.956C138.696 85.1257 138.565 84.9955 138.565 84.7352Z" fill="white"/>
</g>
</g>
</g>
<g opacity="0.4">
<g opacity="0.4">
<g opacity="0.4">
<path opacity="0.4" d="M33.1367 126.907C33.1367 126.647 33.2669 126.516 33.5272 126.516H39.2542C39.3844 126.516 39.6447 126.647 39.6447 126.907C39.6447 127.167 39.3844 127.297 39.2542 127.297H33.5272C33.2669 127.297 33.1367 127.167 33.1367 126.907Z" fill="white"/>
</g>
</g>
</g>
<g opacity="0.4">
<g opacity="0.4">
<g opacity="0.4">
<path opacity="0.4" d="M68.2773 62.2177C68.2773 62.0875 68.4075 61.8272 68.6678 61.8272H74.3948C74.525 61.8272 74.7853 62.0875 74.7853 62.2177C74.7853 62.478 74.525 62.7383 74.3948 62.7383H68.6678C68.4075 62.7383 68.2773 62.478 68.2773 62.2177Z" fill="white"/>
</g>
</g>
</g>
</g>
<path d="M88.7137 121.831L80.2533 145.65H65.285L59.1675 170.25H38.2119C39.2532 155.932 39.8606 147.819 40.0341 145.91C42.1167 125.866 53.831 121.44 63.9834 121.44C70.6649 121.44 78.865 121.44 88.5835 121.44C90.0586 121.44 90.102 121.57 88.7137 121.831V121.831Z" fill="url(#paint7_linear_1551_85)"/>
<path d="M131.015 95.2782C132.664 105.17 132.838 116.104 131.536 128.078L88.5836 121.44C90.6662 109.639 86.8915 92.4147 77.2598 69.767C78.5614 68.2051 80.21 66.5564 82.2058 64.821C85.0693 62.2178 87.6725 60.7426 90.0154 60.3956L105.765 54.2781L120.212 60.786C125.766 73.8887 129.367 85.3861 131.015 95.2782Z" fill="url(#paint8_linear_1551_85)"/>
<path d="M89.3644 106.862C86.3707 111.678 78.8215 123.523 70.6215 123.523C65.285 123.523 58.2564 117.796 60.3389 106.862C62.1611 93.1522 67.8014 80.7871 77.2596 69.767C87.3252 91.2866 91.3602 103.652 89.3644 106.862V106.862Z" fill="url(#paint9_linear_1551_85)"/>
<g style="mix-blend-mode:multiply" opacity="0.3">
<g style="mix-blend-mode:multiply" opacity="0.3">
<path d="M67.3662 85.5162L85.8488 90.3321C88.5821 97.7512 90.6647 104.78 89.3631 106.862C89.016 107.47 88.5388 108.207 87.9314 109.075L85.0679 107.643C83.3324 108.164 81.9874 108.598 81.0329 108.945C80.0784 109.292 78.0393 109.335 74.9154 109.075C73.18 110.724 70.49 111.418 66.8456 111.158C63.2011 111.027 61.3789 107.904 60.4678 105.821C61.6392 98.2718 64.2424 91.2432 67.1059 85.5162H67.3662Z" fill="#AAA6A3"/>
</g>
</g>
<path d="M75.308 106.212C73.1387 108.641 70.2318 109.465 66.5874 108.685C62.8561 107.99 60.9471 104.91 60.8604 99.4432L75.308 106.212Z" fill="url(#paint10_linear_1551_85)"/>
<g style="mix-blend-mode:multiply" opacity="0.3">
<g style="mix-blend-mode:multiply" opacity="0.3">
<path d="M121.123 100.354L118.911 102.567L81.6852 96.5797C80.2968 92.9353 79.1254 90.1585 78.1709 88.2495C81.2079 88.2495 83.6376 90.0284 85.4598 93.5861L85.7201 92.0241C101.513 94.8009 110.581 96.3194 112.923 96.5797C116.438 96.9702 117.349 97.3607 118.13 93.8464C118.65 91.5035 119.258 86.8178 119.952 79.7892L121.123 100.354Z" fill="#AAA6A3"/>
</g>
</g>
<g style="mix-blend-mode:multiply" opacity="0.5">
<g style="mix-blend-mode:multiply" opacity="0.5">
<path d="M132.317 113.631C132.23 119.097 131.97 123.913 131.536 128.078L127.241 127.427C118.13 122.872 104.853 116.234 101.339 114.542C96.6534 112.329 90.1455 108.424 88.3232 107.383C88.3232 107.383 88.3232 107.34 88.3232 107.253L131.406 112.719L132.317 113.631Z" fill="#AAA6A3"/>
</g>
</g>
<g style="mix-blend-mode:screen" opacity="0.7">
<path style="mix-blend-mode:screen" opacity="0.7" d="M108.236 55.4495C106.935 57.1416 104.071 60.3956 98.0838 62.3479C97.216 62.695 96.3917 62.912 95.6107 62.9987C95.4806 64.6908 95.2203 73.1512 97.3028 86.1671L94.8298 86.5575C92.7472 73.8019 93.0076 65.4718 93.1377 63.1289C89.8837 62.9987 87.671 61.8273 87.1504 61.4368C88.3652 60.8294 89.3197 60.4823 90.0139 60.3956L105.763 54.2781L108.236 55.4495Z" fill="url(#paint11_linear_1551_85)"/>
</g>
<path d="M74.3958 82.913L96.1323 76.2749L102.38 101.656L79.9926 107.253H75.5672L60.0783 100.224L52.6592 76.9257L68.9291 83.1733L74.3958 82.913Z" fill="#7C4B7F"/>
<g style="mix-blend-mode:screen">
<path d="M93.4 80.9607C94.5715 85.5163 96.7842 94.6274 97.9556 99.0528C93.0096 100.224 80.254 103.348 79.473 103.608C79.0825 103.608 75.5682 103.608 75.0476 103.608C73.8762 103.088 63.8539 98.2719 61.2507 97.2306C60.7301 95.4084 58.2571 87.9893 56.3047 81.7416C59.3417 82.9565 63.8973 84.6919 69.9714 86.948L75.0476 86.5575C83.8984 83.8676 90.0159 82.002 93.4 80.9607Z" fill="#7C4B7F"/>
</g>
<path d="M54.3525 77.5765L57.7367 74.8431L69.451 79.2686H73.2256L90.6669 74.3225L94.5717 76.7955L74.397 82.913L68.9304 83.1733L54.3525 77.5765Z" fill="#EBDEBF"/>
<path fill-rule="evenodd" clip-rule="evenodd" d="M85.4592 84.6051L86.11 84.9956C86.6307 85.3861 88.1926 86.2972 88.4529 87.2083C88.4529 87.3818 88.4529 87.5988 88.4529 87.8591C88.4529 88.1194 88.3227 88.3797 88.3227 88.64C89.8846 88.9004 91.3164 89.9416 91.837 91.6337C91.9238 91.9808 91.9672 92.3279 91.9672 92.675C91.9672 93.9766 91.3164 95.148 90.2751 95.929C90.7957 96.1893 91.0561 96.5797 91.1862 97.1004C91.273 97.2739 91.3164 97.4041 91.3164 97.4909C91.3164 98.402 90.6656 99.7036 90.4053 100.224L90.0148 100.875L89.364 100.485C88.4529 99.9639 87.2814 99.0528 87.0211 98.2718C87.0211 98.0983 87.0211 97.9247 87.0211 97.7512C87.0211 97.3607 87.0211 97.1004 87.1513 96.8401C85.5894 96.7099 84.1576 95.5385 83.637 93.8464C83.5502 93.4993 83.5068 93.1522 83.5068 92.8051C83.5068 91.5035 84.1576 90.3321 85.0687 89.5512C84.6783 89.2908 84.4179 88.9004 84.2878 88.3797C84.201 88.2929 84.1576 88.1628 84.1576 87.9892C84.1576 87.2083 84.6783 86.167 85.0687 85.2559L85.4592 84.6051ZM87.2815 96.7099C87.2815 96.7099 87.2815 96.6665 87.2815 96.5798C87.2815 96.5798 87.2815 96.6231 87.2815 96.7099Z" fill="#7C4B7F"/>
<path d="M89.755 99.8337C88.8439 99.3131 87.8026 98.5321 87.6725 98.1416C87.6725 97.7512 87.6725 97.2305 87.9328 96.9702C88.0196 96.7967 88.0196 96.6231 87.9328 96.4496C87.8026 96.3194 87.6725 96.1893 87.5423 96.1893C85.9804 96.1893 84.6788 95.148 84.2883 93.7162C83.8978 92.2845 84.5486 90.7226 85.7201 89.9416C85.8502 89.8114 85.9804 89.6813 85.9804 89.5511C85.8936 89.3776 85.8068 89.2474 85.7201 89.1607C85.3296 88.9003 85.0693 88.64 84.9391 88.2495C84.809 87.7289 85.1994 86.5575 85.7201 85.6464C86.6312 86.167 87.5423 86.948 87.8026 87.4686C87.8026 87.8591 87.8026 88.2495 87.5423 88.5099C87.4555 88.6834 87.4555 88.857 87.5423 89.0305C87.6291 89.204 87.7592 89.2908 87.9328 89.2908C89.3645 89.421 90.6661 90.3321 91.0566 91.7638C91.4471 93.1956 90.9264 94.7575 89.755 95.6686C89.5815 95.7554 89.4947 95.8855 89.4947 96.0591C89.4947 96.2326 89.5815 96.3628 89.755 96.4496C90.1455 96.5797 90.4058 96.9702 90.536 97.3607C90.6661 97.7512 90.1455 98.9226 89.755 99.8337Z" fill="#EDBD2F"/>
<path fill-rule="evenodd" clip-rule="evenodd" d="M62.8127 85.2559L63.2032 85.5162C64.1143 86.2972 65.1556 87.3385 65.2857 87.9893C65.2857 88.076 65.2857 88.1628 65.2857 88.2496C65.2857 88.5099 65.2424 88.7268 65.1556 88.9004C66.7175 89.6813 67.8889 90.9829 68.2794 92.1544C68.2794 92.4147 68.2794 92.6316 68.2794 92.8052C68.2794 93.239 68.1492 93.6295 67.8889 93.9766C67.6286 94.3671 67.2381 94.4972 66.7175 94.6274C66.8476 94.8877 67.108 95.0179 67.108 95.2782C67.108 95.365 67.108 95.4517 67.108 95.5385C67.108 96.3194 66.1969 96.9702 65.8064 97.2306L65.2857 97.4909L64.8953 97.2306C63.073 95.5385 62.9429 95.0179 62.9429 94.8877C62.8561 94.7142 62.8127 94.584 62.8127 94.4972C62.8995 94.2369 62.9863 94.0634 63.073 93.9766C61.5111 93.0655 60.3397 91.7639 59.9492 90.5924C59.9492 90.3321 59.9492 90.1152 59.9492 89.9416C59.9492 89.5078 60.0794 89.1173 60.3397 88.7702C60.6 88.3797 60.9905 88.2496 61.5111 88.1194C61.381 87.8591 61.1206 87.729 61.1206 87.4686C61.0339 87.3819 60.9905 87.2951 60.9905 87.2083C60.9905 86.4274 61.7714 85.9067 62.4222 85.5162L62.8127 85.2559Z" fill="#7C4B7F"/>
<path d="M65.4156 96.7099C64.6346 95.9289 63.7235 95.0178 63.5933 94.6273C63.5066 94.367 63.5933 94.1501 63.8537 93.9765C63.9404 93.9765 63.9838 93.8897 63.9838 93.7162C63.8537 93.586 63.7235 93.4559 63.5933 93.4559C62.0314 92.6749 60.86 91.5035 60.5997 90.3321C60.3394 89.2908 61.1203 88.64 62.4219 88.64C62.5521 88.64 62.6822 88.64 62.6822 88.5098C62.5955 88.4231 62.5087 88.2929 62.4219 88.1194C62.0314 87.859 61.7711 87.5987 61.7711 87.3384C61.6409 86.9479 62.2917 86.4273 62.8124 86.0368C63.5933 86.8178 64.5045 87.7289 64.6346 88.1194C64.7214 88.3797 64.6346 88.5966 64.3743 88.7702C64.2875 88.7702 64.2441 88.8569 64.2441 89.0305C64.3309 89.1172 64.4611 89.204 64.6346 89.2908C66.0664 90.0717 67.2378 91.2432 67.4981 92.4146C67.7584 93.4559 67.1076 94.1067 65.806 94.1067C65.7193 94.1067 65.6325 94.1501 65.5457 94.2368C65.5457 94.3236 65.6325 94.4538 65.806 94.6273C66.1531 94.8876 66.3701 95.1479 66.4568 95.4083C66.587 95.7987 65.9362 96.3194 65.4156 96.7099V96.7099Z" fill="#EDBD2F"/>
<g style="mix-blend-mode:multiply" opacity="0.2">
<path d="M74.3954 82.9131L75.0462 86.5575L79.9922 107.253H75.5668L69.97 86.948L68.9287 83.1734L74.3954 82.9131Z" fill="#7C4B7F"/>
</g>
<g style="mix-blend-mode:multiply" opacity="0.8">
<g style="mix-blend-mode:multiply" opacity="0.8">
<path d="M91.3167 76.0146C91.4035 76.1013 91.4035 76.1447 91.3167 76.1447L73.6151 81.0908L68.5389 80.9606L56.9547 76.7955C56.868 76.7087 56.868 76.622 56.9547 76.5352C56.9547 76.5352 56.9547 76.405 57.0849 76.405L68.6691 80.7003L73.6151 80.8304L91.1866 75.8844C91.2734 75.8844 91.3167 75.9278 91.3167 76.0146V76.0146Z" fill="#EBDEBF"/>
</g>
</g>
<g style="mix-blend-mode:multiply" opacity="0.2">
<path d="M85.0687 105.691L80.6433 104.65C75.2634 106.992 70.7078 106.125 66.9766 102.046C71.4887 102.741 75.22 102.741 78.1703 102.046C80.8602 102.046 82.2486 102.046 82.3353 102.046C82.4221 102.046 83.8105 102.61 86.5004 103.739L85.0687 105.691Z" fill="#7C4B7F"/>
</g>
<path d="M85.4599 104.91C83.0303 104.129 81.3382 103.695 80.3837 103.608C78.0408 104.78 74.3964 105.431 70.6218 103.999C64.6344 101.526 63.463 98.9226 64.1138 98.4019C64.3741 98.2284 64.5043 98.1416 64.5043 98.1416C62.682 96.1459 61.9879 94.7575 62.4217 93.9765C62.682 93.6294 62.9424 93.4993 63.2027 93.5861C62.1614 92.8051 61.8143 91.9808 62.1614 91.113C62.5519 90.0718 64.1138 89.5511 66.3265 90.7226C65.8059 90.1152 65.7191 89.5511 66.0662 89.0305C66.4567 88.3797 68.0186 87.9892 71.5329 89.6813C74.0059 90.8527 76.7392 91.7638 78.171 92.1543C77.6503 91.6337 77.7805 91.6337 76.7392 90.9829C75.0472 89.9416 75.1773 87.3384 76.8694 87.7289C77.9107 87.9892 79.9932 88.5099 81.9456 91.7638C82.5964 92.9353 82.8567 93.9765 83.117 95.0178C83.117 95.0178 83.117 94.9744 83.117 94.8877C84.3318 95.3215 85.6768 95.712 87.152 96.0591L85.4599 104.91Z" fill="url(#paint12_linear_1551_85)"/>
<g style="mix-blend-mode:multiply" opacity="0.3">
<g style="mix-blend-mode:multiply" opacity="0.3">
<g style="mix-blend-mode:multiply" opacity="0.3">
<g style="mix-blend-mode:multiply" opacity="0.3">
<path d="M63.201 93.3257C63.3311 93.3257 68.0169 96.9702 71.401 98.1416C71.5312 98.1416 71.5312 98.2718 71.5312 98.4019C71.401 98.5321 71.2708 98.5321 71.2708 98.5321C67.7566 97.3607 63.0708 93.7162 62.9407 93.7162C62.9407 93.5861 62.8105 93.4559 62.9407 93.3257H63.201V93.3257Z" fill="#D97063"/>
</g>
</g>
<g style="mix-blend-mode:multiply" opacity="0.3">
<g style="mix-blend-mode:multiply" opacity="0.3">
<path d="M64.6324 98.0115C64.6324 98.0115 67.626 100.615 71.0102 101.656C71.1403 101.656 71.2705 101.786 71.2705 101.916C71.1403 102.046 71.0101 102.046 70.88 102.046C67.3657 101.005 64.5022 98.4019 64.372 98.4019C64.2419 98.2718 64.2419 98.1416 64.372 98.0115C64.372 98.0115 64.6324 97.8813 64.6324 98.0115V98.0115Z" fill="#D97063"/>
</g>
</g>
<g style="mix-blend-mode:multiply" opacity="0.3">
<g style="mix-blend-mode:multiply" opacity="0.3">
<path d="M66.3248 90.5924C66.4549 90.5924 70.0994 92.9352 72.4423 93.8463C72.5724 93.8463 72.5724 93.9765 72.5724 94.1067C72.4423 94.2368 72.4423 94.2368 72.3121 94.2368C69.8391 93.3257 66.3248 90.9829 66.1946 90.8527C66.0645 90.8527 66.0645 90.7225 66.0645 90.5924C66.1946 90.4622 66.3248 90.4622 66.3248 90.5924Z" fill="#D97063"/>
</g>
</g>
</g>
</g>
<path d="M129.713 66.513C134.138 70.9384 138.824 96.4496 138.043 106.732C137.262 116.885 129.583 121.7 122.424 119.878C117.738 118.577 105.113 114.021 84.5479 106.212L86.8907 94.1067L119.821 99.4433L120.211 60.786C123.335 62.0876 127.11 63.9098 129.713 66.513V66.513Z" fill="url(#paint13_linear_1551_85)"/>
<g style="mix-blend-mode:screen" opacity="0.7">
<path style="mix-blend-mode:screen" opacity="0.7" d="M105.765 54.2781L103.942 55.059L105.765 54.2781Z" fill="url(#paint14_linear_1551_85)"/>
</g>
<g style="mix-blend-mode:screen" opacity="0.7">
<path style="mix-blend-mode:screen" opacity="0.7" d="M138.044 106.732C137.914 109.205 137.263 111.418 136.352 113.24C136.699 111.939 136.959 110.377 137.133 108.554C138.174 97.8813 135.18 88.1194 133.358 79.9194C131.536 71.7194 129.974 67.8146 124.767 64.6908C121.253 62.7384 112.663 58.8336 107.326 56.4907C107.673 56.1436 107.977 55.7966 108.237 55.4495L120.212 60.786C123.336 62.0876 127.11 63.9098 129.714 66.513C134.139 70.9384 138.825 96.4496 138.044 106.732V106.732Z" fill="url(#paint15_linear_1551_85)"/>
</g>
<path d="M104.203 44.5161L105.764 54.278C101.166 60.3521 95.9158 62.3912 90.0152 60.3955C89.8417 59.441 89.7549 58.9637 89.7549 58.9637L104.203 44.5161Z" fill="url(#paint16_linear_1551_85)"/>
<path d="M72.963 49.7225C71.0106 50.6336 67.8868 49.9828 66.0646 47.2495C64.1122 44.6463 63.8519 41.5224 65.2836 40.4812C66.2381 39.787 67.4095 39.6568 68.7979 40.0907C72.7895 45.9045 74.1778 49.1151 72.963 49.7225V49.7225Z" fill="url(#paint17_linear_1551_85)"/>
<path d="M79.2119 15.2303C96.7833 10.4144 99.777 23.5605 101.209 27.9859C102.076 30.8494 102.25 33.5394 101.729 36.0558C102.771 29.0272 109.279 29.8081 110.32 35.9256C111.101 39.9172 109.148 42.5203 104.463 43.7352C102.901 52.0653 98.1283 57.3151 90.1452 59.4844C80.3399 62.1744 72.9642 56.0569 68.0182 41.132C66.7166 37.6177 59.2975 20.697 79.2119 15.2303Z" fill="url(#paint18_linear_1551_85)"/>
<g style="mix-blend-mode:multiply" opacity="0.4">
<path d="M65.8051 33.5827C65.5448 31.1097 65.5448 28.5065 66.3257 25.9033L69.7099 24.4716L92.3576 17.7033L98.475 21.2176C99.256 22.389 99.7766 23.6906 100.167 24.8621L101.469 32.6716C99.6465 27.8557 96.3925 27.2049 94.1798 25.9033C92.7914 25.0356 91.9237 23.6906 91.5766 21.8684C83.2464 30.7192 69.1892 33.0621 65.8051 33.5827V33.5827Z" fill="#F0B896"/>
</g>
<path d="M101.599 37.097C100.905 32.6716 100.037 29.8081 98.9956 28.5065C97.5638 26.5541 93.0083 24.3414 93.0083 19.7859C88.1924 21.8684 77.5193 33.0621 60.2082 30.8494C52.1383 29.4176 48.8843 23.9509 49.0145 16.1414C52.9193 18.6144 57.605 17.9636 60.5987 13.2779C64.2431 7.42073 70.7511 -0.128499 80.7733 0.00166031C89.8845 0.131819 98.3448 4.29691 99.5162 9.76359C105.504 10.8049 111.491 17.5731 109.018 32.5414C107.369 30.806 105.72 30.5023 104.072 31.6303C103.291 32.2811 101.859 33.9732 101.599 37.097V37.097Z" fill="url(#paint19_linear_1551_85)"/>
<path d="M89.3643 50.5034C89.6247 52.4558 87.9326 54.5383 85.3294 54.9288C82.8564 55.3193 80.5135 54.0177 80.123 52.0653C82.5961 50.5034 86.631 49.8526 89.3643 50.5034Z" fill="white"/>
<path style="mix-blend-mode:multiply" opacity="0.3" d="M73.0947 145.65C74.5265 142.656 77.2598 137.45 80.3836 132.243C83.7678 126.646 86.6313 124.434 88.063 123.653L80.2535 145.65H73.0947Z" fill="url(#paint20_linear_1551_85)"/>
<path d="M122.295 145.78C116.481 145.78 111.145 145.78 106.286 145.78L104.463 156.323C103.596 157.624 102.685 159.013 101.73 160.488C95.2221 170.64 85.33 178.84 72.9648 183.005L78.041 150.335C80.4707 133.415 84.8093 123.349 91.057 120.139C100.819 115.193 109.019 117.275 131.536 128.078C131.276 139.879 128.196 145.78 122.295 145.78V145.78Z" fill="url(#paint21_linear_1551_85)"/>
<path style="mix-blend-mode:multiply" d="M109.799 145.78C108.498 145.78 107.326 145.78 106.285 145.78L107.196 141.094C107.457 143.871 108.324 145.433 109.799 145.78Z" fill="url(#paint22_linear_1551_85)"/>
<path style="mix-blend-mode:multiply" d="M65.2852 145.65L66.4566 140.574C66.283 143.697 66.7169 145.389 67.7582 145.65H65.2852Z" fill="url(#paint23_linear_1551_85)"/>
<path d="M19.4699 168.948L11.9207 168.818C8.27624 163.742 5.15241 157.364 3.33019 149.424L9.18735 149.034L2.93971 146.821C2.28891 143.177 1.89844 139.272 1.89844 134.977C8.84026 135.584 15.8689 137.71 22.9842 141.354L23.5049 146.301L24.5461 142.135C30.9239 145.78 37.1716 151.116 41.2065 159.056L39.3843 167.126L42.6382 161.92C43.9398 165.174 44.851 168.948 45.3716 172.983C45.5451 178.276 45.5451 182.572 45.3716 185.869H33.1366C26.0213 183.179 19.5133 178.19 13.6128 170.901L19.4699 168.948Z" fill="url(#paint24_linear_1551_85)"/>
<path d="M42.8991 176.758C43.4197 172.072 44.8514 168.167 46.8038 164.913L48.6261 168.688L47.9753 163.221C51.7499 158.145 56.9562 154.891 61.7721 152.808L62.0325 156.323L63.0737 152.418C66.9785 150.856 70.5362 149.945 73.7468 149.685C73.8769 155.672 72.8357 160.748 71.2738 165.043L68.1499 166.085L70.7531 166.345C68.2801 172.202 64.7658 176.497 61.3817 179.621L55.2642 179.882L59.169 181.313C56.3922 183.483 53.8758 185.001 51.6197 185.869H42.8991C42.8123 183.526 42.8123 180.489 42.8991 176.758V176.758Z" fill="url(#paint25_linear_1551_85)"/>
<g style="mix-blend-mode:screen" opacity="0.3">
<path d="M46.0233 185.869H45.3725L44.7217 185.609C44.8518 185.088 48.1058 172.723 63.9852 157.885C65.2001 156.67 67.4128 155.021 70.6234 152.939C67.9334 155.715 65.9376 157.711 64.636 158.926C50.1884 172.723 46.4137 184.307 46.0233 185.869V185.869Z" fill="white"/>
</g>
<g style="mix-blend-mode:screen" opacity="0.2">
<path d="M10.4886 143.177C9.36055 142.309 7.62509 140.747 5.28223 138.491C8.2325 140.053 10.315 141.354 11.5299 142.396C33.7871 159.967 41.076 181.834 42.2474 185.869H40.9458C39.3839 181.053 31.9649 160.228 10.4886 143.177V143.177Z" fill="white"/>
</g>
<defs>
<linearGradient id="paint0_linear_1551_85" x1="43.6786" y1="36.5764" x2="62.1612" y2="69.767" gradientUnits="userSpaceOnUse">
<stop stop-color="#BBE9F5"/>
<stop offset="1" stop-color="#50C3EF"/>
</linearGradient>
<linearGradient id="paint1_linear_1551_85" x1="173.317" y1="48.1605" x2="206.898" y2="166.735" gradientUnits="userSpaceOnUse">
<stop stop-color="#BBE9F5"/>
<stop offset="1" stop-color="#50C3EF"/>
</linearGradient>
<linearGradient id="paint2_linear_1551_85" x1="143.639" y1="104.129" x2="143.639" y2="83.694" gradientUnits="userSpaceOnUse">
<stop stop-color="#FF9326"/>
<stop offset="1" stop-color="#F9C83F"/>
</linearGradient>
<linearGradient id="paint3_linear_1551_85" x1="9.96719" y1="72.5003" x2="25.4561" y2="72.5003" gradientUnits="userSpaceOnUse">
<stop stop-color="#FF9326"/>
<stop offset="1" stop-color="#F9C83F"/>
</linearGradient>
<linearGradient id="paint4_linear_1551_85" x1="17.5166" y1="62.9987" x2="19.469" y2="62.9987" gradientUnits="userSpaceOnUse">
<stop stop-color="#FF9326"/>
<stop offset="1" stop-color="#F9C83F"/>
</linearGradient>
<linearGradient id="paint5_linear_1551_85" x1="136.873" y1="14.97" x2="155.747" y2="47.2494" gradientUnits="userSpaceOnUse">
<stop stop-color="#FBED8F"/>
<stop offset="0.4" stop-color="#FBE43C"/>
<stop offset="1" stop-color="#FF9326"/>
</linearGradient>
<linearGradient id="paint6_linear_1551_85" x1="137.135" y1="14.8398" x2="156.008" y2="47.1192" gradientUnits="userSpaceOnUse">
<stop stop-color="#FBED8F"/>
<stop offset="0.4" stop-color="#FBE43C"/>
<stop offset="1" stop-color="#FF9326"/>
</linearGradient>
<linearGradient id="paint7_linear_1551_85" x1="87.5422" y1="109.726" x2="103.291" y2="147.602" gradientUnits="userSpaceOnUse">
<stop stop-color="#123659"/>
<stop offset="1" stop-color="#171C24"/>
</linearGradient>
<linearGradient id="paint8_linear_1551_85" x1="120.993" y1="52.7162" x2="145.333" y2="125.996" gradientUnits="userSpaceOnUse">
<stop stop-color="#F06465"/>
<stop offset="1" stop-color="#F0423B"/>
</linearGradient>
<linearGradient id="paint9_linear_1551_85" x1="80.1231" y1="65.732" x2="104.593" y2="139.012" gradientUnits="userSpaceOnUse">
<stop stop-color="#F06465"/>
<stop offset="1" stop-color="#F0423B"/>
</linearGradient>
<linearGradient id="paint10_linear_1551_85" x1="79.3429" y1="102.437" x2="75.4382" y2="112.329" gradientUnits="userSpaceOnUse">
<stop stop-color="#EC9383"/>
<stop offset="1" stop-color="#FFBFAF"/>
</linearGradient>
<linearGradient id="paint11_linear_1551_85" x1="110.058" y1="48.4209" x2="115.525" y2="98.5322" gradientUnits="userSpaceOnUse">
<stop stop-color="#F06465"/>
<stop offset="1" stop-color="#F0423B"/>
</linearGradient>
<linearGradient id="paint12_linear_1551_85" x1="62.4217" y1="85.2559" x2="87.152" y2="85.2559" gradientUnits="userSpaceOnUse">
<stop stop-color="#EC9383"/>
<stop offset="1" stop-color="#FFBFAF"/>
</linearGradient>
<linearGradient id="paint13_linear_1551_85" x1="129.453" y1="50.3733" x2="153.272" y2="121.831" gradientUnits="userSpaceOnUse">
<stop stop-color="#F06465"/>
<stop offset="1" stop-color="#F0423B"/>
</linearGradient>
<linearGradient id="paint14_linear_1551_85" x1="103.942" y1="51.6749" x2="105.765" y2="51.6749" gradientUnits="userSpaceOnUse">
<stop stop-color="#F06465"/>
<stop offset="1" stop-color="#F0423B"/>
</linearGradient>
<linearGradient id="paint15_linear_1551_85" x1="135.31" y1="45.5574" x2="140.777" y2="95.6686" gradientUnits="userSpaceOnUse">
<stop stop-color="#F06465"/>
<stop offset="1" stop-color="#F0423B"/>
</linearGradient>
<linearGradient id="paint16_linear_1551_85" x1="107.717" y1="44.1256" x2="113.184" y2="49.8526" gradientUnits="userSpaceOnUse">
<stop stop-color="#EC9383"/>
<stop offset="1" stop-color="#FFBFAF"/>
</linearGradient>
<linearGradient id="paint17_linear_1551_85" x1="71.5313" y1="52.1955" x2="67.1058" y2="53.7574" gradientUnits="userSpaceOnUse">
<stop stop-color="#EC9383"/>
<stop offset="1" stop-color="#FFBFAF"/>
</linearGradient>
<linearGradient id="paint18_linear_1551_85" x1="116.047" y1="33.4526" x2="105.244" y2="61.4368" gradientUnits="userSpaceOnUse">
<stop stop-color="#EC9383"/>
<stop offset="1" stop-color="#FFBFAF"/>
</linearGradient>
<linearGradient id="paint19_linear_1551_85" x1="103.551" y1="-10.1508" x2="114.354" y2="24.3414" gradientUnits="userSpaceOnUse">
<stop stop-color="#14184F"/>
<stop offset="1" stop-color="#1F0A27"/>
</linearGradient>
<linearGradient id="paint20_linear_1551_85" x1="73.0947" y1="121.05" x2="88.063" y2="121.05" gradientUnits="userSpaceOnUse">
<stop stop-color="#123659"/>
<stop offset="1" stop-color="#171C24"/>
</linearGradient>
<linearGradient id="paint21_linear_1551_85" x1="123.206" y1="110.246" x2="143.251" y2="145.389" gradientUnits="userSpaceOnUse">
<stop stop-color="#123659"/>
<stop offset="1" stop-color="#171C24"/>
</linearGradient>
<linearGradient id="paint22_linear_1551_85" x1="106.285" y1="138.491" x2="109.799" y2="138.491" gradientUnits="userSpaceOnUse">
<stop stop-color="#123659"/>
<stop offset="1" stop-color="#171C24"/>
</linearGradient>
<linearGradient id="paint23_linear_1551_85" x1="65.2852" y1="137.97" x2="67.7582" y2="137.97" gradientUnits="userSpaceOnUse">
<stop stop-color="#123659"/>
<stop offset="1" stop-color="#171C24"/>
</linearGradient>
<linearGradient id="paint24_linear_1551_85" x1="33.9176" y1="203.31" x2="-0.574582" y2="156.193" gradientUnits="userSpaceOnUse">
<stop stop-color="#710E76"/>
<stop offset="0.5" stop-color="#F23F6C"/>
<stop offset="1" stop-color="#EF7544"/>
</linearGradient>
<linearGradient id="paint25_linear_1551_85" x1="30.5339" y1="194.85" x2="46.153" y2="158.926" gradientUnits="userSpaceOnUse">
<stop stop-color="#710E76"/>
<stop offset="0.5" stop-color="#F23F6C"/>
<stop offset="1" stop-color="#EF7544"/>
</linearGradient>
</defs>
</svg>
