<svg width="220" height="199" viewBox="0 0 220 199" fill="none" xmlns="http://www.w3.org/2000/svg">
<path opacity="0.8" d="M60.3974 79.4339C70.5174 71.469 73.414 56.6672 66.8678 46.3722C60.3198 36.0821 45.267 37.1655 35.1471 45.132C25.0221 53.0985 23.6564 64.9294 30.206 75.2211C36.7572 85.5161 50.2725 87.4004 60.3974 79.4339Z" fill="#52D7A7"/>
<path opacity="0.8" d="M170.213 189.705C203.241 189.705 219.617 145.1 195.997 119.423C195.701 119.101 195.402 118.777 195.098 118.455C187.835 110.723 190.998 97.1188 192.872 86.9262C192.844 86.8948 192.813 86.8634 192.778 86.8387C193.698 78.0861 192.834 68.9768 189.853 60.1664C179.852 30.6619 150.254 15.7693 123.73 26.8851C96.3789 38.3477 92.3081 65.015 92.2371 65.0216C89.0465 80.5731 79.1478 94.1132 64.7127 100.157C50.0645 106.299 40.3425 103.029 28.2722 108.091C23.8199 109.955 19.6864 112.35 15.9079 115.185C-13.9384 137.569 1.09786 189.705 37.0974 189.705H170.213Z" fill="#52D7A7"/>
<path d="M184.789 118.405C185.215 118.295 185.419 118.28 185.973 118.276C185.987 118.276 185.998 118.276 186.01 118.276C186.025 118.276 186.036 118.276 186.051 118.276C186.606 118.28 186.807 118.295 187.23 118.405C187.531 118.478 187.78 118.585 188.051 118.683C188.056 118.613 188.069 118.551 188.069 118.478V117.03C188.069 115.892 187.148 114.97 186.01 114.97C184.874 114.97 183.952 115.89 183.952 117.03V118.478C183.952 118.549 183.964 118.613 183.969 118.683C184.241 118.587 184.494 118.48 184.789 118.405Z" fill="#E46E3D"/>
<path d="M186.051 136.242C186 136.242 185.972 136.242 185.972 136.242H182.664V136.492C182.664 138.216 184.159 139.621 186.008 139.621C187.858 139.621 189.354 138.216 189.354 136.492V136.242H186.051Z" fill="#E46E3D"/>
<path d="M194.498 134.665C193.855 133.978 192.637 132.429 192.637 132.429C192.637 132.429 192.637 126.702 192.637 125.07C192.637 122.264 191.324 119.462 187.23 118.407C186.807 118.296 186.606 118.281 186.051 118.278C186.034 118.278 186.023 118.278 186.01 118.278C185.996 118.278 185.985 118.278 185.973 118.278C185.418 118.281 185.215 118.296 184.789 118.407C180.695 119.462 179.382 122.264 179.382 125.07C179.382 126.702 179.382 132.429 179.382 132.429C179.382 132.429 178.164 133.978 177.523 134.665C176.89 135.349 176.941 136.242 178.063 136.242H185.973C185.973 136.242 186.001 136.242 186.052 136.242H193.961C195.082 136.242 195.134 135.349 194.498 134.665Z" fill="#FFD15D"/>
<path opacity="0.5" d="M192.639 132.428C192.639 132.428 192.639 126.701 192.639 125.069C192.639 122.608 191.625 120.148 188.606 118.87C189.225 119.444 191.369 121.623 191.369 124.207V129.665C191.369 130.884 190.456 132.794 187.173 132.794C186.87 132.794 186.887 133.08 187.173 133.08H193.161C192.862 132.712 192.639 132.428 192.639 132.428Z" fill="#F9C747"/>
<path d="M186.687 145.623C186.687 145.996 186.383 146.297 186.01 146.297C185.635 146.297 185.338 145.996 185.338 145.623V142.304C185.338 141.93 185.637 141.626 186.01 141.626C186.385 141.626 186.687 141.93 186.687 142.304V145.623Z" fill="#F9C747"/>
<path d="M192.968 143.188C193.23 143.451 193.23 143.88 192.968 144.15C192.704 144.407 192.274 144.407 192.013 144.146L189.665 141.801C189.401 141.537 189.401 141.104 189.665 140.842C189.929 140.581 190.357 140.581 190.621 140.842L192.968 143.188Z" fill="#F9C747"/>
<path d="M179.053 143.188C178.79 143.451 178.79 143.88 179.058 144.15C179.322 144.407 179.746 144.407 180.011 144.146L182.361 141.801C182.622 141.537 182.622 141.104 182.361 140.842C182.09 140.581 181.664 140.581 181.401 140.842L179.053 143.188Z" fill="#F9C747"/>
<path opacity="0.2" d="M103.358 198.989C123.977 198.989 140.692 198.182 140.692 197.186C140.692 196.19 123.977 195.382 103.358 195.382C82.7394 195.382 66.0244 196.19 66.0244 197.186C66.0244 198.182 82.7394 198.989 103.358 198.989Z" fill="black"/>
<path d="M140.918 192.69H65.8024C60.1594 192.69 55.585 188.116 55.585 182.473V29.8359C55.585 24.1929 60.1594 19.6201 65.8024 19.6201H140.918C146.561 19.6201 151.135 24.1946 151.135 29.8359V182.473C151.135 188.116 146.561 192.69 140.918 192.69Z" fill="#2D2833"/>
<path d="M140.918 184.726H65.8024C60.1594 184.726 55.585 180.15 55.585 174.509V21.872C55.585 16.2291 60.1594 11.6562 65.8024 11.6562H140.918C146.561 11.6562 151.135 16.2307 151.135 21.872V174.511C151.135 180.152 146.561 184.726 140.918 184.726Z" fill="#333333"/>
<path d="M145.844 26.9302H61.1104V168.75H145.844V26.9302Z" fill="#DDFFF3"/>
<path d="M81.8361 67.2265C81.8361 67.225 81.8451 64.2381 81.8451 64.2381L82.9689 63.7315C85.4023 62.6267 94.0629 59.0386 103.581 59.0386C113.092 59.0386 121.756 62.6267 124.186 63.727L125.316 64.2376L125.328 69.9797C125.328 79.3198 124.928 89.0265 120.105 96.0602C114.864 103.703 107.451 108.307 104.506 109.929L103.582 110.44L102.652 109.929C99.7123 108.307 92.2955 103.703 87.0581 96.0602C82.2322 89.0235 81.8262 79.3193 81.8262 69.9827L81.8361 67.2265Z" fill="#F0EFEB"/>
<path d="M81.8361 67.2265C81.8361 67.225 81.8451 64.2381 81.8451 64.2381L82.9689 63.7315C85.4023 62.6267 94.0629 59.0386 103.581 59.0386C113.092 59.0386 121.756 62.6267 124.186 63.727L125.316 64.2376L125.328 69.9797C125.328 79.3198 124.928 89.0265 120.105 96.0602C114.864 103.703 107.451 108.307 104.506 109.929L103.582 110.44L102.652 109.929C99.7123 108.307 92.2955 103.703 87.0581 96.0602C82.2322 89.0235 81.8262 79.3193 81.8262 69.9827L81.8361 67.2265Z" fill="#048D5C"/>
<path d="M122.488 66.3558C122.49 66.9849 122.5 70.6542 122.5 70.6542C122.5 79.2765 122.142 88.223 117.835 94.4981C112.986 101.574 105.991 105.833 103.581 107.167C101.163 105.835 94.1772 101.579 89.3224 94.4981C85.0185 88.2225 84.6533 79.276 84.6533 70.6517L84.6638 68.026C84.6638 68.026 84.6653 67.0163 84.6653 66.3558C86.758 65.4123 94.8099 62.0469 103.58 62.0469C112.342 62.0464 120.402 65.4123 122.488 66.3558Z" fill="#52D7A7"/>
<path opacity="0.3" d="M117.073 94.776C121.382 88.3236 121.739 79.1265 121.739 70.2601C121.739 70.2601 121.728 66.9968 121.727 66.022C122.03 66.1515 122.288 66.2646 122.488 66.3552C122.49 66.9844 122.501 70.6537 122.501 70.6537C122.501 79.2759 122.143 88.2225 117.835 94.4975C114.701 99.0759 110.668 102.467 107.557 104.656C110.547 102.403 114.186 99.1093 117.073 94.776Z" fill="#B2B2B2"/>
<path opacity="0.2" d="M84.6638 68.0249C84.6638 68.0249 84.6653 67.0152 84.6653 66.3547C85.0289 66.1913 85.5689 65.9557 86.2623 65.6782C85.9256 65.8232 85.6426 65.9482 85.4279 66.0468C85.4279 66.7183 85.4259 67.746 85.4259 67.746L85.4155 70.414C85.4155 79.1847 85.7811 88.2822 90.09 94.6649C94.5319 101.26 100.761 105.44 103.63 107.136C103.616 107.145 103.599 107.156 103.581 107.166C101.163 105.834 94.1772 101.578 89.3224 94.497C85.0185 88.2215 84.6533 79.2749 84.6533 70.6506L84.6638 68.0249Z" fill="#8C8C8C"/>
<path opacity="0.15" d="M81.8446 64.2381L82.9684 63.7315C85.3968 62.6267 94.0555 59.0411 103.567 59.0386V110.432L102.651 109.929C99.7113 108.307 92.2946 103.704 87.0571 96.0607C82.2312 89.024 81.8252 79.3198 81.8252 69.9832L81.8357 67.226C81.8357 67.2245 81.8446 64.2381 81.8446 64.2381Z" fill="#B2B2B2"/>
<path d="M109.336 79.7319H107.347V75.2571C107.347 73.3378 105.785 71.7762 103.866 71.7762C101.947 71.7762 100.386 73.3378 100.386 75.2571V79.7319H98.3965V75.2571C98.3965 72.2414 100.85 69.7876 103.866 69.7876C106.882 69.7876 109.336 72.2414 109.336 75.2571V79.7319Z" fill="#048D5C"/>
<path opacity="0.15" d="M104.748 71.7754C104.597 71.7754 104.453 71.8013 104.307 71.8202C106.015 72.0404 107.345 73.4885 107.345 75.2564V79.7312H108.229V75.2564C108.229 73.3371 106.668 71.7754 104.748 71.7754Z" fill="#B2B2B2"/>
<path opacity="0.15" d="M104.308 69.809C104.162 69.7976 104.015 69.7866 103.866 69.7866C100.85 69.7866 98.3965 72.2404 98.3965 75.2562V79.7309H99.2802V75.2562C99.2802 72.3899 101.499 70.0357 104.308 69.809Z" fill="#B2B2B2"/>
<path d="M110.62 93.0053H96.5321C95.4183 93.0053 94.5156 92.1021 94.5156 90.9883V81.4305C94.5156 80.3167 95.4188 79.4141 96.5321 79.4141H110.62C111.734 79.4141 112.637 80.3172 112.637 81.4305V90.9883C112.637 92.1021 111.734 93.0053 110.62 93.0053Z" fill="#FFD15D"/>
<path opacity="0.5" d="M112.167 90.9883C112.167 92.1021 111.264 93.0053 110.15 93.0053H110.62C111.733 93.0053 112.637 92.1021 112.637 90.9883V81.4305C112.637 80.3167 111.733 79.4141 110.62 79.4141H110.15C111.264 79.4141 112.167 80.3172 112.167 81.4305V90.9883Z" fill="#EAB642"/>
<path d="M96.5037 90.9883V81.4305C96.5037 80.3167 97.4068 79.4141 98.5202 79.4141H96.5311C95.4173 79.4141 94.5146 80.3172 94.5146 81.4305V90.9883C94.5146 92.1021 95.4178 93.0053 96.5311 93.0053H98.5202C97.4068 93.0053 96.5037 92.1021 96.5037 90.9883Z" fill="#EAB642"/>
<path opacity="0.5" d="M94.9844 90.9883C94.9844 92.1021 95.8875 93.0053 97.0009 93.0053H96.5311C95.4173 93.0053 94.5146 92.1021 94.5146 90.9883V81.4305C94.5146 80.3167 95.4178 79.4141 96.5311 79.4141H97.0009C95.887 79.4141 94.9844 80.3172 94.9844 81.4305V90.9883Z" fill="#EAB642"/>
<path d="M105.253 84.5807C105.253 83.7175 104.553 83.0181 103.69 83.0181C102.826 83.0181 102.127 83.7175 102.127 84.5807C102.127 85.1416 102.426 85.6318 102.872 85.9063L102.481 88.8199C102.411 89.3434 102.724 89.7698 103.176 89.7698H104.204C104.656 89.7698 104.969 89.3434 104.9 88.8199L104.509 85.9063C104.954 85.6318 105.253 85.1416 105.253 84.5807Z" fill="#564117"/>
<path d="M85.8968 127.076C85.3835 127.076 84.9235 126.993 84.5168 126.826C84.1102 126.659 83.7835 126.413 83.5368 126.086C83.2968 125.759 83.1702 125.366 83.1568 124.906H84.9768C85.0035 125.166 85.0935 125.366 85.2468 125.506C85.4002 125.639 85.6002 125.706 85.8468 125.706C86.1002 125.706 86.3002 125.649 86.4468 125.536C86.5935 125.416 86.6668 125.253 86.6668 125.046C86.6668 124.873 86.6068 124.729 86.4868 124.616C86.3735 124.503 86.2302 124.409 86.0568 124.336C85.8902 124.263 85.6502 124.179 85.3368 124.086C84.8835 123.946 84.5135 123.806 84.2268 123.666C83.9402 123.526 83.6935 123.319 83.4868 123.046C83.2802 122.773 83.1768 122.416 83.1768 121.976C83.1768 121.323 83.4135 120.813 83.8868 120.446C84.3602 120.073 84.9768 119.886 85.7368 119.886C86.5102 119.886 87.1335 120.073 87.6068 120.446C88.0802 120.813 88.3335 121.326 88.3668 121.986H86.5168C86.5035 121.759 86.4202 121.583 86.2668 121.456C86.1135 121.323 85.9168 121.256 85.6768 121.256C85.4702 121.256 85.3035 121.313 85.1768 121.426C85.0502 121.533 84.9868 121.689 84.9868 121.896C84.9868 122.123 85.0935 122.299 85.3068 122.426C85.5202 122.553 85.8535 122.689 86.3068 122.836C86.7602 122.989 87.1268 123.136 87.4068 123.276C87.6935 123.416 87.9402 123.619 88.1468 123.886C88.3535 124.153 88.4568 124.496 88.4568 124.916C88.4568 125.316 88.3535 125.679 88.1468 126.006C87.9468 126.333 87.6535 126.593 87.2668 126.786C86.8802 126.979 86.4235 127.076 85.8968 127.076ZM94.7692 124.126C94.7692 124.286 94.7592 124.453 94.7392 124.626H90.8692C90.8959 124.973 91.0059 125.239 91.1992 125.426C91.3992 125.606 91.6425 125.696 91.9292 125.696C92.3559 125.696 92.6525 125.516 92.8192 125.156H94.6392C94.5459 125.523 94.3759 125.853 94.1292 126.146C93.8892 126.439 93.5859 126.669 93.2192 126.836C92.8525 127.003 92.4425 127.086 91.9892 127.086C91.4425 127.086 90.9559 126.969 90.5292 126.736C90.1025 126.503 89.7692 126.169 89.5292 125.736C89.2892 125.303 89.1692 124.796 89.1692 124.216C89.1692 123.636 89.2859 123.129 89.5192 122.696C89.7592 122.263 90.0925 121.929 90.5192 121.696C90.9459 121.463 91.4359 121.346 91.9892 121.346C92.5292 121.346 93.0092 121.459 93.4292 121.686C93.8492 121.913 94.1759 122.236 94.4092 122.656C94.6492 123.076 94.7692 123.566 94.7692 124.126ZM93.0192 123.676C93.0192 123.383 92.9192 123.149 92.7192 122.976C92.5192 122.803 92.2692 122.716 91.9692 122.716C91.6825 122.716 91.4392 122.799 91.2392 122.966C91.0459 123.133 90.9259 123.369 90.8792 123.676H93.0192ZM95.3313 124.216C95.3313 123.636 95.448 123.129 95.6813 122.696C95.9213 122.263 96.2513 121.929 96.6713 121.696C97.098 121.463 97.5846 121.346 98.1313 121.346C98.8313 121.346 99.4146 121.529 99.8813 121.896C100.355 122.263 100.665 122.779 100.811 123.446H98.9913C98.838 123.019 98.5413 122.806 98.1013 122.806C97.788 122.806 97.538 122.929 97.3513 123.176C97.1646 123.416 97.0713 123.763 97.0713 124.216C97.0713 124.669 97.1646 125.019 97.3513 125.266C97.538 125.506 97.788 125.626 98.1013 125.626C98.5413 125.626 98.838 125.413 98.9913 124.986H100.811C100.665 125.639 100.355 126.153 99.8813 126.526C99.408 126.899 98.8246 127.086 98.1313 127.086C97.5846 127.086 97.098 126.969 96.6713 126.736C96.2513 126.503 95.9213 126.169 95.6813 125.736C95.448 125.303 95.3313 124.796 95.3313 124.216ZM107.236 121.426V127.006H105.526V126.246C105.353 126.493 105.116 126.693 104.816 126.846C104.523 126.993 104.196 127.066 103.836 127.066C103.409 127.066 103.033 126.973 102.706 126.786C102.379 126.593 102.126 126.316 101.946 125.956C101.766 125.596 101.676 125.173 101.676 124.686V121.426H103.376V124.456C103.376 124.829 103.473 125.119 103.666 125.326C103.859 125.533 104.119 125.636 104.446 125.636C104.779 125.636 105.043 125.533 105.236 125.326C105.429 125.119 105.526 124.829 105.526 124.456V121.426H107.236ZM110.174 122.356C110.374 122.049 110.624 121.809 110.924 121.636C111.224 121.456 111.558 121.366 111.924 121.366V123.176H111.454C111.028 123.176 110.708 123.269 110.494 123.456C110.281 123.636 110.174 123.956 110.174 124.416V127.006H108.464V121.426H110.174V122.356ZM113.602 120.846C113.302 120.846 113.055 120.759 112.862 120.586C112.675 120.406 112.582 120.186 112.582 119.926C112.582 119.659 112.675 119.439 112.862 119.266C113.055 119.086 113.302 118.996 113.602 118.996C113.895 118.996 114.135 119.086 114.322 119.266C114.515 119.439 114.612 119.659 114.612 119.926C114.612 120.186 114.515 120.406 114.322 120.586C114.135 120.759 113.895 120.846 113.602 120.846ZM114.452 121.426V127.006H112.742V121.426H114.452ZM118.801 125.556V127.006H117.931C117.311 127.006 116.827 126.856 116.481 126.556C116.134 126.249 115.961 125.753 115.961 125.066V122.846H115.281V121.426H115.961V120.066H117.671V121.426H118.791V122.846H117.671V125.086C117.671 125.253 117.711 125.373 117.791 125.446C117.871 125.519 118.004 125.556 118.191 125.556H118.801ZM125.453 121.426L121.953 129.656H120.113L121.393 126.816L119.123 121.426H121.033L122.323 124.916L123.603 121.426H125.453Z" fill="#048D5C"/>
<path d="M112.066 18.7969C112.715 18.7969 113.235 19.3253 113.235 19.9694C113.235 20.6201 112.715 21.1337 112.066 21.1337H100.382C99.7361 21.1337 99.2109 20.6201 99.2109 19.9694C99.2109 19.3253 99.7361 18.7969 100.382 18.7969H112.066Z" fill="#333333"/>
<path d="M95.3726 18.7969C96.0134 18.7969 96.5419 19.3253 96.5419 19.9694C96.5419 20.6201 96.015 21.1337 95.3726 21.1337H93.2274C92.5801 21.1337 92.0615 20.6201 92.0615 19.9694C92.0615 19.3253 92.5801 18.7969 93.2274 18.7969H95.3726Z" fill="#333333"/>
<path d="M47.6008 30.782L47.6025 19.4004C47.6041 18.2312 46.5951 17.2205 45.4226 17.2205L26.3717 17.2139C25.7904 17.2139 25.2404 17.4418 24.8276 17.8546C24.4114 18.2675 24.1885 18.8125 24.1885 19.3938V30.7705C24.1885 31.6259 24.6856 32.4054 25.4617 32.7588C25.7491 32.8909 26.0546 32.9603 26.37 32.9603H45.4143C46.6232 32.9586 47.6025 31.981 47.6008 30.782ZM45.4226 18.4079C45.5365 18.4079 45.6455 18.4425 45.7512 18.4789C44.6629 19.3789 39.4031 23.2746 35.8657 25.8723C32.3053 23.2449 26.9926 19.2848 26.0166 18.4756C26.1289 18.4326 26.2495 18.3996 26.3717 18.3996L45.4226 18.4079ZM26.37 31.7663C26.3436 31.7663 26.3221 31.7514 26.2974 31.7514L31.8825 26.5362C32.046 26.3843 32.0542 26.1333 31.904 25.9681C31.7504 25.8079 31.5043 25.8046 31.3441 25.9549L25.5823 31.3336C25.4617 31.1685 25.3775 30.9802 25.3775 30.7754V19.473C26.9447 20.7496 32.2078 24.6585 35.5107 27.0927C35.5421 27.1192 35.5784 27.1357 35.6114 27.1555C35.8129 27.243 36.0375 27.2265 36.2142 27.0927C39.5336 24.6585 44.8347 20.7595 46.4151 19.4648L46.4118 30.7837C46.4151 30.9918 46.3276 31.18 46.212 31.3452L40.4501 25.9565C40.2899 25.8079 40.0389 25.8162 39.8886 25.9747C39.7384 26.1349 39.7483 26.3859 39.9035 26.5378L45.4919 31.7597C45.4655 31.7597 45.4474 31.7729 45.4143 31.7729L26.37 31.7663Z" fill="#048D5C"/>
<g opacity="0.1">
<path opacity="0.1" d="M95.2834 11.6567L55.583 51.3555V71.7127L115.641 11.6567H95.2834Z" fill="white"/>
<path opacity="0.1" d="M55.583 165.972V174.511C55.583 179.1 58.6101 182.983 62.775 184.271L151.132 95.9162V70.4214L55.583 165.972Z" fill="white"/>
<path opacity="0.1" d="M151.133 21.8725C151.133 16.2296 146.559 11.6567 140.916 11.6567H137.674L55.583 93.7477V146.506L151.132 50.9575V21.8725H151.133Z" fill="white"/>
</g>
<path opacity="0.4" d="M47.8671 126.73C47.8671 134.512 41.5454 140.832 33.7589 140.832C25.9674 140.832 19.6523 134.512 19.6523 126.73C19.6523 118.932 25.9691 112.615 33.7589 112.615C41.5454 112.615 47.8671 118.932 47.8671 126.73Z" fill="#FFAC18"/>
<path d="M44.6811 126.728C44.6811 132.751 39.7879 137.644 33.7585 137.644C27.7275 137.644 22.8359 132.751 22.8359 126.728C22.8359 120.692 27.7258 115.8 33.7585 115.8C39.7879 115.8 44.6811 120.692 44.6811 126.728Z" fill="#FFD15D"/>
<path d="M36.8998 122.526C36.8998 122.526 33.7819 126.476 32.398 128.23C31.5442 127.337 30.6112 126.369 30.6112 126.369C30.048 125.779 29.11 125.761 28.5172 126.326C27.9276 126.896 27.9094 127.831 28.4742 128.42L31.4369 131.507C31.7325 131.815 32.1487 131.982 32.578 131.961C33.0041 131.939 33.4021 131.736 33.6663 131.398L39.2217 124.363C39.7287 123.72 39.6197 122.79 38.979 122.285C38.3349 121.778 37.4068 121.887 36.8998 122.526Z" fill="white"/>
<path d="M180.863 153.086C181.315 153.086 181.679 153.456 181.679 153.906C181.679 154.358 181.315 154.716 180.863 154.716H172.715C172.266 154.716 171.902 154.358 171.902 153.906C171.902 153.456 172.266 153.086 172.715 153.086H180.863Z" fill="#333333"/>
<path d="M169.227 153.086C169.675 153.086 170.043 153.456 170.043 153.906C170.043 154.358 169.675 154.716 169.227 154.716H167.734C167.285 154.716 166.92 154.358 166.92 153.906C166.92 153.456 167.285 153.086 167.734 153.086H169.227Z" fill="#333333"/>
<path d="M34.2976 169.187C34.7501 169.187 35.1134 169.557 35.1134 170.006C35.1134 170.459 34.7517 170.817 34.2976 170.817H26.1511C25.7019 170.817 25.3369 170.459 25.3369 170.006C25.3369 169.557 25.7019 169.187 26.1511 169.187H34.2976Z" fill="#333333"/>
<path d="M22.6593 169.187C23.1068 169.187 23.4751 169.557 23.4751 170.006C23.4751 170.459 23.1068 170.817 22.6593 170.817H21.1647C20.7156 170.817 20.3506 170.459 20.3506 170.006C20.3506 169.557 20.7156 169.187 21.1647 169.187H22.6593Z" fill="#333333"/>
<path d="M93.5179 3.10693C93.0638 3.10693 92.7021 3.47521 92.7021 3.92605C92.7021 4.38019 93.0638 4.73855 93.5179 4.73855H101.664C102.115 4.73855 102.479 4.38019 102.479 3.92605C102.479 3.47686 102.115 3.10693 101.664 3.10693H93.5179Z" fill="#333333"/>
<path d="M105.154 3.10693C104.706 3.10693 104.338 3.47521 104.338 3.92605C104.338 4.38019 104.705 4.73855 105.154 4.73855H106.647C107.096 4.73855 107.461 4.38019 107.461 3.92605C107.461 3.47686 107.096 3.10693 106.647 3.10693H105.154Z" fill="#333333"/>
<path d="M19.1889 90.9219C18.7364 90.9219 18.373 91.2918 18.373 91.741C18.373 92.1935 18.7347 92.5535 19.1889 92.5535H27.3354C27.7846 92.5535 28.1495 92.1951 28.1495 91.741C28.1495 91.2918 27.7862 90.9219 27.3354 90.9219H19.1889Z" fill="#333333"/>
<path d="M30.8275 90.9219C30.38 90.9219 30.0117 91.2918 30.0117 91.741C30.0117 92.1935 30.3783 92.5535 30.8275 92.5535H32.3221C32.7713 92.5535 33.1362 92.1951 33.1362 91.741C33.1362 91.2918 32.7729 90.9219 32.3221 90.9219H30.8275Z" fill="#333333"/>
<path d="M15.9154 151.999C16.7527 151.999 17.4314 151.32 17.4314 150.483C17.4314 149.646 16.7527 148.967 15.9154 148.967C15.0782 148.967 14.3994 149.646 14.3994 150.483C14.3994 151.32 15.0782 151.999 15.9154 151.999Z" fill="#333333"/>
<path d="M188.349 38.8763C189.186 38.8763 189.865 38.1975 189.865 37.3603C189.865 36.523 189.186 35.8442 188.349 35.8442C187.512 35.8442 186.833 36.523 186.833 37.3603C186.833 38.1975 187.512 38.8763 188.349 38.8763Z" fill="#333333"/>
<path d="M200.384 136.646C201.221 136.646 201.9 135.968 201.9 135.13C201.9 134.293 201.221 133.614 200.384 133.614C199.547 133.614 198.868 134.293 198.868 135.13C198.868 135.968 199.547 136.646 200.384 136.646Z" fill="#333333"/>
<path d="M169.206 127.279H167.814L167.431 127.659V129.05C167.431 129.486 167.082 129.836 166.646 129.836C166.217 129.836 165.865 129.486 165.865 129.05V127.659L165.504 127.279H164.097C163.661 127.279 163.311 126.929 163.311 126.497C163.311 126.064 163.661 125.711 164.097 125.711H165.504L165.865 125.329V123.942C165.865 123.506 166.217 123.156 166.646 123.156C167.082 123.156 167.431 123.506 167.431 123.942V125.329L167.814 125.711H169.206C169.636 125.711 169.987 126.064 169.987 126.497C169.987 126.929 169.636 127.279 169.206 127.279Z" fill="#333333"/>
<path d="M43.2853 153.786H41.8947L41.51 154.166V155.557C41.51 155.993 41.1615 156.343 40.7255 156.343C40.2962 156.343 39.9444 155.993 39.9444 155.557V154.166L39.5827 153.786H38.1757C37.7397 153.786 37.3896 153.436 37.3896 153.003C37.3896 152.571 37.7397 152.217 38.1757 152.217H39.5827L39.9444 151.836V150.449C39.9444 150.013 40.2962 149.663 40.7255 149.663C41.1615 149.663 41.51 150.013 41.51 150.449V151.836L41.8947 152.217H43.2853C43.7146 152.217 44.0647 152.571 44.0647 153.003C44.0647 153.436 43.7146 153.786 43.2853 153.786Z" fill="#333333"/>
<path d="M37.6113 62.2608C37.6113 64.1847 39.1769 65.7486 41.0975 65.7486C43.0198 65.7486 44.5837 64.183 44.5837 62.2608C44.5837 60.3402 43.0198 58.7729 41.0975 58.7729C39.1752 58.7729 37.6113 60.3402 37.6113 62.2608ZM39.0233 62.2608C39.0233 61.118 39.9531 60.1866 41.0958 60.1866C42.2403 60.1866 43.17 61.118 43.17 62.2608C43.17 63.4052 42.2403 64.335 41.0958 64.335C39.9531 64.3333 39.0233 63.4052 39.0233 62.2608Z" fill="#333333"/>
<path opacity="0.1" d="M200.561 1.95947H130.376C120.723 1.95947 112.898 9.78396 112.898 19.4366V51.0896C112.898 60.7422 120.723 68.5667 130.376 68.5667H132.437L128.721 81.499C128.435 82.4948 129.646 83.2314 130.399 82.5196L145.144 68.5667H200.561C210.214 68.5667 218.038 60.7422 218.038 51.0896V19.4382C218.038 9.78397 210.212 1.95947 200.561 1.95947Z" fill="black"/>
<path d="M202.52 0H132.335C122.682 0 114.857 7.82448 114.857 17.4771V49.1301C114.857 58.7827 122.682 66.6072 132.335 66.6072H134.396L130.68 79.5396C130.394 80.5354 131.606 81.2719 132.359 80.5601L147.105 66.6072H202.522C212.175 66.6072 219.999 58.7827 219.999 49.1301V17.4771C219.997 7.82448 212.173 0 202.52 0Z" fill="#F64754"/>
<path d="M131.017 22.7007C133.141 22.7007 134.863 20.9787 134.863 18.8545C134.863 16.7303 133.141 15.0083 131.017 15.0083C128.893 15.0083 127.171 16.7303 127.171 18.8545C127.171 20.9787 128.893 22.7007 131.017 22.7007Z" fill="white"/>
<path d="M136.813 31.3232H125.223C124.685 31.3232 124.249 30.8872 124.249 30.3488C124.249 26.61 127.279 23.5796 131.018 23.5796C134.757 23.5796 137.787 26.61 137.787 30.3488C137.787 30.8872 137.351 31.3232 136.813 31.3232Z" fill="white"/>
<path d="M135.283 40.4119H134.835V38.0801C134.835 35.8969 133.06 34.1216 130.876 34.1216C128.693 34.1216 126.918 35.8969 126.918 38.0801V40.4119H126.472C125.734 40.4119 125.133 41.0113 125.133 41.7512V48.1075C125.133 48.8474 125.732 49.4469 126.472 49.4469H135.283C136.021 49.4469 136.622 48.8474 136.622 48.1075V41.7512C136.622 41.0097 136.021 40.4119 135.283 40.4119ZM131.63 46.5123C131.671 46.8376 131.478 47.1035 131.195 47.1035H130.556C130.275 47.1035 130.081 46.8376 130.123 46.5123L130.366 44.7006C130.089 44.5306 129.904 44.225 129.904 43.8766C129.904 43.3399 130.34 42.9055 130.875 42.9055C131.412 42.9055 131.848 43.3399 131.848 43.8766C131.848 44.225 131.661 44.5306 131.385 44.7006L131.63 46.5123ZM133.098 40.4119H128.659V38.0801C128.659 36.8563 129.654 35.8605 130.878 35.8605C132.102 35.8605 133.099 36.8563 133.099 38.0801V40.4119H133.098Z" fill="white"/>
<path d="M205.529 29.561H147.892C144.936 29.561 142.54 27.1648 142.54 24.2087C142.54 21.2527 144.936 18.8564 147.892 18.8564H205.529C208.485 18.8564 210.881 21.2527 210.881 24.2087C210.883 27.1648 208.485 29.561 205.529 29.561Z" fill="white"/>
<path d="M205.529 47.3935H147.892C144.936 47.3935 142.54 44.9973 142.54 42.0413C142.54 39.0852 144.936 36.689 147.892 36.689H205.529C208.485 36.689 210.881 39.0852 210.881 42.0413C210.883 44.9973 208.485 47.3935 205.529 47.3935Z" fill="white"/>
<path d="M151.504 43.0923C151.475 43.0725 151.381 42.98 151.222 42.8149C151.063 42.6481 150.963 42.5671 150.915 42.5671C150.888 42.5671 150.878 42.6018 150.878 42.6728C150.878 42.7604 150.907 42.8793 150.959 43.0345C151.012 43.1897 151.04 43.3037 151.04 43.3747C151.04 43.5019 150.999 43.6092 150.913 43.6901C150.829 43.776 150.733 43.8173 150.624 43.8173C150.495 43.8173 150.396 43.7743 150.324 43.6868C150.253 43.5993 150.216 43.4919 150.216 43.3598C150.216 43.3136 150.246 43.1963 150.305 43.0081C150.365 42.8215 150.395 42.6976 150.395 42.6415C150.395 42.5804 150.38 42.5506 150.35 42.5506C150.272 42.5506 150.15 42.6497 149.978 42.8479C149.807 43.0461 149.648 43.1451 149.501 43.1451C149.386 43.1451 149.285 43.1039 149.207 43.018C149.128 42.9354 149.088 42.8363 149.088 42.724C149.088 42.5969 149.13 42.4978 149.211 42.4317C149.291 42.3624 149.432 42.3013 149.63 42.2517C149.904 42.1807 150.041 42.1213 150.041 42.0767C150.041 42.0321 149.912 41.9809 149.653 41.9247C149.257 41.8339 149.059 41.6704 149.059 41.4376C149.059 41.3451 149.1 41.2493 149.186 41.1469C149.27 41.0445 149.364 40.995 149.471 40.995C149.635 40.995 149.805 41.0974 149.983 41.3055C150.16 41.5102 150.276 41.6143 150.327 41.6143L150.358 41.5234C150.358 41.4475 150.332 41.3352 150.281 41.1882C150.231 41.0396 150.205 40.9339 150.205 40.8678C150.205 40.7308 150.239 40.6185 150.315 40.5293C150.39 40.4401 150.494 40.3955 150.626 40.3955C150.903 40.3955 151.042 40.5408 151.042 40.8298C151.042 40.9174 151.02 41.0478 150.976 41.2212C150.935 41.3979 150.912 41.5036 150.912 41.5383C150.912 41.5994 150.925 41.6291 150.948 41.6291C151.004 41.6291 151.101 41.5515 151.24 41.3979C151.377 41.2427 151.478 41.1453 151.541 41.1073C151.605 41.0676 151.683 41.0495 151.775 41.0495C151.902 41.0495 152.008 41.1056 152.091 41.2146C152.175 41.322 152.216 41.4194 152.216 41.4987C152.216 41.6011 152.163 41.6869 152.056 41.7579C151.949 41.829 151.778 41.8967 151.544 41.9611C151.309 42.0238 151.194 42.0783 151.194 42.1246C151.194 42.1807 151.356 42.2352 151.676 42.293C152 42.3492 152.162 42.4945 152.162 42.7273C152.162 42.8297 152.127 42.9272 152.056 43.0213C151.985 43.1154 151.887 43.1633 151.765 43.1633C151.683 43.1617 151.597 43.1385 151.504 43.0923Z" fill="#4D4D4D"/>
<path d="M158.852 43.0923C158.821 43.0725 158.728 42.98 158.568 42.8149C158.411 42.6481 158.309 42.5671 158.262 42.5671C158.236 42.5671 158.224 42.6018 158.224 42.6728C158.224 42.7604 158.253 42.8793 158.305 43.0345C158.36 43.1897 158.388 43.3037 158.388 43.3747C158.388 43.5019 158.345 43.6092 158.261 43.6901C158.175 43.776 158.079 43.8173 157.97 43.8173C157.843 43.8173 157.742 43.7743 157.671 43.6868C157.599 43.5993 157.564 43.4919 157.564 43.3598C157.564 43.3136 157.594 43.1963 157.653 43.0081C157.713 42.8215 157.741 42.6976 157.741 42.6415C157.741 42.5804 157.726 42.5506 157.696 42.5506C157.62 42.5506 157.496 42.6497 157.324 42.8479C157.153 43.0461 156.996 43.1451 156.847 43.1451C156.732 43.1451 156.633 43.1039 156.555 43.018C156.474 42.9354 156.436 42.8363 156.436 42.724C156.436 42.5969 156.476 42.4978 156.557 42.4317C156.639 42.3624 156.779 42.3013 156.978 42.2517C157.252 42.1807 157.389 42.1213 157.389 42.0767C157.389 42.0321 157.26 41.9809 157.001 41.9247C156.604 41.8339 156.406 41.6704 156.406 41.4376C156.406 41.3451 156.446 41.2493 156.532 41.1469C156.616 41.0445 156.71 40.995 156.817 40.995C156.983 40.995 157.151 41.0974 157.329 41.3055C157.508 41.5102 157.623 41.6143 157.675 41.6143L157.706 41.5234C157.706 41.4475 157.68 41.3352 157.628 41.1882C157.577 41.0396 157.551 40.9339 157.551 40.8678C157.551 40.7308 157.587 40.6185 157.661 40.5293C157.737 40.4401 157.84 40.3955 157.972 40.3955C158.249 40.3955 158.39 40.5408 158.39 40.8298C158.39 40.9174 158.367 41.0478 158.324 41.2212C158.281 41.3979 158.258 41.5036 158.258 41.5383C158.258 41.5994 158.272 41.6291 158.295 41.6291C158.352 41.6291 158.447 41.5515 158.588 41.3979C158.725 41.2427 158.824 41.1453 158.888 41.1073C158.953 41.0676 159.03 41.0495 159.123 41.0495C159.248 41.0495 159.354 41.1056 159.437 41.2146C159.521 41.322 159.564 41.4194 159.564 41.4987C159.564 41.6011 159.511 41.6869 159.404 41.7579C159.296 41.829 159.125 41.8967 158.892 41.9611C158.657 42.0238 158.54 42.0783 158.54 42.1246C158.54 42.1807 158.702 42.2352 159.024 42.293C159.347 42.3492 159.509 42.4945 159.509 42.7273C159.509 42.8297 159.475 42.9272 159.404 43.0213C159.331 43.1154 159.235 43.1633 159.113 43.1633C159.029 43.1617 158.943 43.1385 158.852 43.0923Z" fill="#4D4D4D"/>
<path d="M166.198 43.0923C166.167 43.0725 166.073 42.98 165.914 42.8149C165.756 42.6481 165.655 42.5671 165.607 42.5671C165.581 42.5671 165.571 42.6018 165.571 42.6728C165.571 42.7604 165.599 42.8793 165.652 43.0345C165.705 43.1897 165.733 43.3037 165.733 43.3747C165.733 43.5019 165.691 43.6092 165.607 43.6901C165.521 43.776 165.426 43.8173 165.317 43.8173C165.188 43.8173 165.089 43.7743 165.016 43.6868C164.945 43.5993 164.909 43.4919 164.909 43.3598C164.909 43.3136 164.938 43.1963 164.998 43.0081C165.057 42.8215 165.087 42.6976 165.087 42.6415C165.087 42.5804 165.072 42.5506 165.042 42.5506C164.965 42.5506 164.843 42.6497 164.671 42.8479C164.499 43.0461 164.341 43.1451 164.194 43.1451C164.078 43.1451 163.977 43.1039 163.9 43.018C163.82 42.9354 163.781 42.8363 163.781 42.724C163.781 42.5969 163.822 42.4978 163.903 42.4317C163.984 42.3624 164.124 42.3013 164.322 42.2517C164.596 42.1807 164.735 42.1213 164.735 42.0767C164.735 42.0321 164.605 41.9809 164.345 41.9247C163.949 41.8339 163.751 41.6704 163.751 41.4376C163.751 41.3451 163.792 41.2493 163.878 41.1469C163.962 41.0445 164.056 40.995 164.164 40.995C164.327 40.995 164.497 41.0974 164.676 41.3055C164.852 41.5102 164.968 41.6143 165.019 41.6143L165.051 41.5234C165.051 41.4475 165.024 41.3352 164.973 41.1882C164.923 41.0396 164.897 40.9339 164.897 40.8678C164.897 40.7308 164.933 40.6185 165.008 40.5293C165.082 40.4401 165.186 40.3955 165.318 40.3955C165.596 40.3955 165.734 40.5408 165.734 40.8298C165.734 40.9174 165.713 41.0478 165.668 41.2212C165.627 41.3979 165.604 41.5036 165.604 41.5383C165.604 41.5994 165.617 41.6291 165.64 41.6291C165.696 41.6291 165.794 41.5515 165.933 41.3979C166.07 41.2427 166.17 41.1453 166.233 41.1073C166.297 41.0676 166.375 41.0495 166.468 41.0495C166.595 41.0495 166.7 41.1056 166.783 41.2146C166.867 41.322 166.909 41.4194 166.909 41.4987C166.909 41.6011 166.856 41.6869 166.748 41.7579C166.641 41.829 166.471 41.8967 166.236 41.9611C166.004 42.0238 165.886 42.0783 165.886 42.1246C165.886 42.1807 166.048 42.2352 166.37 42.293C166.692 42.3508 166.854 42.4945 166.854 42.7273C166.854 42.8297 166.819 42.9272 166.748 43.0213C166.677 43.1154 166.58 43.1633 166.458 43.1633C166.373 43.1617 166.289 43.1385 166.198 43.0923Z" fill="#4D4D4D"/>
<path d="M173.54 43.0923C173.509 43.0725 173.417 42.98 173.256 42.8149C173.1 42.6481 172.997 42.5671 172.951 42.5671C172.925 42.5671 172.913 42.6018 172.913 42.6728C172.913 42.7604 172.941 42.8793 172.994 43.0345C173.048 43.1897 173.076 43.3037 173.076 43.3747C173.076 43.5019 173.034 43.6092 172.949 43.6901C172.863 43.776 172.769 43.8173 172.659 43.8173C172.531 43.8173 172.431 43.7743 172.36 43.6868C172.289 43.5993 172.252 43.4919 172.252 43.3598C172.252 43.3136 172.282 43.1963 172.342 43.0081C172.401 42.8215 172.431 42.6976 172.431 42.6415C172.431 42.5804 172.414 42.5506 172.384 42.5506C172.309 42.5506 172.185 42.6497 172.013 42.8479C171.841 43.0461 171.684 43.1451 171.536 43.1451C171.42 43.1451 171.321 43.1039 171.243 43.018C171.162 42.9354 171.124 42.8363 171.124 42.724C171.124 42.5969 171.164 42.4978 171.247 42.4317C171.328 42.3624 171.468 42.3013 171.666 42.2517C171.94 42.1807 172.077 42.1213 172.077 42.0767C172.077 42.0321 171.949 41.9809 171.689 41.9247C171.293 41.8339 171.095 41.6704 171.095 41.4376C171.095 41.3451 171.134 41.2493 171.22 41.1469C171.306 41.0445 171.399 40.995 171.506 40.995C171.671 40.995 171.84 41.0974 172.018 41.3055C172.196 41.5102 172.312 41.6143 172.363 41.6143L172.394 41.5234C172.394 41.4475 172.368 41.3352 172.317 41.1882C172.266 41.0396 172.239 40.9339 172.239 40.8678C172.239 40.7308 172.276 40.6185 172.35 40.5293C172.426 40.4401 172.528 40.3955 172.66 40.3955C172.939 40.3955 173.078 40.5408 173.078 40.8298C173.078 40.9174 173.055 41.0478 173.012 41.2212C172.969 41.3979 172.946 41.5036 172.946 41.5383C172.946 41.5994 172.961 41.6291 172.984 41.6291C173.04 41.6291 173.138 41.5515 173.276 41.3979C173.413 41.2427 173.512 41.1453 173.577 41.1073C173.641 41.0676 173.719 41.0495 173.811 41.0495C173.937 41.0495 174.043 41.1056 174.127 41.2146C174.211 41.322 174.252 41.4194 174.252 41.4987C174.252 41.6011 174.199 41.6869 174.092 41.7579C173.985 41.829 173.813 41.8967 173.58 41.9611C173.346 42.0238 173.228 42.0783 173.228 42.1246C173.228 42.1807 173.39 42.2352 173.712 42.293C174.036 42.3492 174.198 42.4945 174.198 42.7273C174.198 42.8297 174.163 42.9272 174.092 43.0213C174.019 43.1154 173.924 43.1633 173.801 43.1633C173.719 43.1617 173.633 43.1385 173.54 43.0923Z" fill="#4D4D4D"/>
<path d="M180.886 43.0923C180.855 43.0725 180.76 42.98 180.602 42.8149C180.443 42.6481 180.343 42.5671 180.296 42.5671C180.268 42.5671 180.258 42.6018 180.258 42.6728C180.258 42.7604 180.286 42.8793 180.339 43.0345C180.392 43.1897 180.42 43.3037 180.42 43.3747C180.42 43.5019 180.379 43.6092 180.295 43.6901C180.209 43.776 180.113 43.8173 180.004 43.8173C179.875 43.8173 179.776 43.7743 179.705 43.6868C179.632 43.5993 179.596 43.4919 179.596 43.3598C179.596 43.3136 179.626 43.1963 179.685 43.0081C179.745 42.8215 179.774 42.6976 179.774 42.6415C179.774 42.5804 179.76 42.5506 179.73 42.5506C179.652 42.5506 179.53 42.6497 179.358 42.8479C179.187 43.0461 179.03 43.1451 178.881 43.1451C178.765 43.1451 178.665 43.1039 178.587 43.018C178.508 42.9354 178.468 42.8363 178.468 42.724C178.468 42.5969 178.509 42.4978 178.59 42.4317C178.671 42.3624 178.812 42.3013 179.01 42.2517C179.286 42.1807 179.423 42.1213 179.423 42.0767C179.423 42.0321 179.292 41.9809 179.033 41.9247C178.637 41.8339 178.438 41.6704 178.438 41.4376C178.438 41.3451 178.48 41.2493 178.566 41.1469C178.65 41.0445 178.744 40.995 178.851 40.995C179.015 40.995 179.185 41.0974 179.363 41.3055C179.54 41.5102 179.656 41.6143 179.708 41.6143L179.738 41.5234C179.738 41.4475 179.712 41.3352 179.661 41.1882C179.611 41.0396 179.585 40.9339 179.585 40.8678C179.585 40.7308 179.621 40.6185 179.695 40.5293C179.77 40.4401 179.874 40.3955 180.006 40.3955C180.283 40.3955 180.422 40.5408 180.422 40.8298C180.422 40.9174 180.4 41.0478 180.356 41.2212C180.314 41.3979 180.291 41.5036 180.291 41.5383C180.291 41.5994 180.305 41.6291 180.328 41.6291C180.384 41.6291 180.481 41.5515 180.62 41.3979C180.757 41.2427 180.858 41.1453 180.921 41.1073C180.985 41.0676 181.063 41.0495 181.155 41.0495C181.282 41.0495 181.388 41.1056 181.471 41.2146C181.555 41.322 181.596 41.4194 181.596 41.4987C181.596 41.6011 181.543 41.6869 181.436 41.7579C181.328 41.829 181.158 41.8967 180.924 41.9611C180.691 42.0238 180.574 42.0783 180.574 42.1246C180.574 42.1807 180.736 42.2352 181.058 42.293C181.38 42.3508 181.542 42.4945 181.542 42.7273C181.542 42.8297 181.507 42.9272 181.436 43.0213C181.365 43.1154 181.267 43.1633 181.145 43.1633C181.063 43.1617 180.977 43.1385 180.886 43.0923Z" fill="#4D4D4D"/>
<path d="M188.233 43.0923C188.202 43.0725 188.109 42.98 187.949 42.8149C187.792 42.6481 187.69 42.5671 187.643 42.5671C187.617 42.5671 187.605 42.6018 187.605 42.6728C187.605 42.7604 187.633 42.8793 187.688 43.0345C187.741 43.1897 187.769 43.3037 187.769 43.3747C187.769 43.5019 187.726 43.6092 187.642 43.6901C187.556 43.776 187.462 43.8173 187.353 43.8173C187.224 43.8173 187.125 43.7743 187.052 43.6868C186.981 43.5993 186.945 43.4919 186.945 43.3598C186.945 43.3136 186.974 43.1963 187.034 43.0081C187.093 42.8215 187.123 42.6976 187.123 42.6415C187.123 42.5804 187.107 42.5506 187.077 42.5506C187.001 42.5506 186.877 42.6497 186.705 42.8479C186.534 43.0461 186.377 43.1451 186.228 43.1451C186.114 43.1451 186.013 43.1039 185.936 43.018C185.856 42.9354 185.817 42.8363 185.817 42.724C185.817 42.5969 185.856 42.4978 185.939 42.4317C186.02 42.3624 186.16 42.3013 186.359 42.2517C186.633 42.1807 186.77 42.1213 186.77 42.0767C186.77 42.0321 186.641 41.9809 186.382 41.9247C185.985 41.8339 185.787 41.6704 185.787 41.4376C185.787 41.3451 185.828 41.2493 185.913 41.1469C185.998 41.0445 186.091 40.995 186.198 40.995C186.363 40.995 186.534 41.0974 186.71 41.3055C186.889 41.5102 187.004 41.6143 187.055 41.6143L187.087 41.5234C187.087 41.4475 187.06 41.3352 187.009 41.1882C186.96 41.0396 186.932 40.9339 186.932 40.8678C186.932 40.7308 186.968 40.6185 187.042 40.5293C187.118 40.4401 187.221 40.3955 187.354 40.3955C187.632 40.3955 187.77 40.5408 187.77 40.8298C187.77 40.9174 187.747 41.0478 187.704 41.2212C187.661 41.3979 187.638 41.5036 187.638 41.5383C187.638 41.5994 187.653 41.6291 187.676 41.6291C187.732 41.6291 187.83 41.5515 187.969 41.3979C188.106 41.2427 188.205 41.1453 188.269 41.1073C188.334 41.0676 188.411 41.0495 188.504 41.0495C188.629 41.0495 188.735 41.1056 188.817 41.2146C188.903 41.322 188.945 41.4194 188.945 41.4987C188.945 41.6011 188.892 41.6869 188.784 41.7579C188.677 41.829 188.507 41.8967 188.273 41.9611C188.038 42.0238 187.921 42.0783 187.921 42.1246C187.921 42.1807 188.084 42.2352 188.405 42.293C188.728 42.3492 188.89 42.4945 188.89 42.7273C188.89 42.8297 188.855 42.9272 188.784 43.0213C188.712 43.1154 188.616 43.1633 188.494 43.1633C188.41 43.1617 188.324 43.1385 188.233 43.0923Z" fill="#4D4D4D"/>
<path d="M195.58 43.0923C195.548 43.0725 195.454 42.98 195.296 42.8149C195.137 42.6481 195.036 42.5671 194.99 42.5671C194.964 42.5671 194.952 42.6018 194.952 42.6728C194.952 42.7604 194.98 42.8793 195.033 43.0345C195.086 43.1897 195.114 43.3037 195.114 43.3747C195.114 43.5019 195.073 43.6092 194.988 43.6901C194.902 43.776 194.807 43.8173 194.698 43.8173C194.569 43.8173 194.47 43.7743 194.399 43.6868C194.326 43.5993 194.29 43.4919 194.29 43.3598C194.29 43.3136 194.32 43.1963 194.379 43.0081C194.438 42.8215 194.468 42.6976 194.468 42.6415C194.468 42.5804 194.453 42.5506 194.424 42.5506C194.348 42.5506 194.224 42.6497 194.052 42.8479C193.88 43.0461 193.723 43.1451 193.575 43.1451C193.459 43.1451 193.358 43.1039 193.281 43.018C193.202 42.9354 193.162 42.8363 193.162 42.724C193.162 42.5969 193.203 42.4978 193.284 42.4317C193.365 42.3624 193.505 42.3013 193.704 42.2517C193.978 42.1807 194.116 42.1213 194.116 42.0767C194.116 42.0321 193.986 41.9809 193.727 41.9247C193.33 41.8339 193.134 41.6704 193.134 41.4376C193.134 41.3451 193.173 41.2493 193.259 41.1469C193.344 41.0445 193.438 40.995 193.545 40.995C193.709 40.995 193.879 41.0974 194.057 41.3055C194.234 41.5102 194.349 41.6143 194.402 41.6143L194.433 41.5234C194.433 41.4475 194.405 41.3352 194.354 41.1882C194.305 41.0396 194.278 40.9339 194.278 40.8678C194.278 40.7308 194.315 40.6185 194.389 40.5293C194.463 40.4401 194.567 40.3955 194.699 40.3955C194.977 40.3955 195.116 40.5408 195.116 40.8298C195.116 40.9174 195.094 41.0478 195.051 41.2212C195.008 41.3979 194.985 41.5036 194.985 41.5383C194.985 41.5994 194.998 41.6291 195.023 41.6291C195.079 41.6291 195.175 41.5515 195.314 41.3979C195.451 41.2427 195.551 41.1453 195.616 41.1073C195.679 41.0676 195.758 41.0495 195.849 41.0495C195.976 41.0495 196.082 41.1056 196.164 41.2146C196.248 41.322 196.291 41.4194 196.291 41.4987C196.291 41.6011 196.237 41.6869 196.13 41.7579C196.022 41.829 195.852 41.8967 195.618 41.9611C195.385 42.0238 195.267 42.0783 195.267 42.1246C195.267 42.1807 195.429 42.2352 195.751 42.293C196.073 42.3508 196.235 42.4945 196.235 42.7273C196.235 42.8297 196.201 42.9272 196.13 43.0213C196.058 43.1154 195.961 43.1633 195.84 43.1633C195.755 43.1617 195.67 43.1385 195.58 43.0923Z" fill="#4D4D4D"/>
<path d="M202.921 43.0923C202.89 43.0725 202.798 42.98 202.637 42.8149C202.48 42.6481 202.38 42.5671 202.332 42.5671C202.305 42.5671 202.295 42.6018 202.295 42.6728C202.295 42.7604 202.322 42.8793 202.376 43.0345C202.429 43.1897 202.457 43.3037 202.457 43.3747C202.457 43.5019 202.414 43.6092 202.33 43.6901C202.244 43.776 202.15 43.8173 202.041 43.8173C201.912 43.8173 201.813 43.7743 201.741 43.6868C201.67 43.5993 201.633 43.4919 201.633 43.3598C201.633 43.3136 201.663 43.1963 201.722 43.0081C201.782 42.8215 201.812 42.6976 201.812 42.6415C201.812 42.5804 201.795 42.5506 201.765 42.5506C201.689 42.5506 201.566 42.6497 201.394 42.8479C201.224 43.0461 201.065 43.1451 200.917 43.1451C200.801 43.1451 200.702 43.1039 200.624 43.018C200.545 42.9354 200.505 42.8363 200.505 42.724C200.505 42.5969 200.547 42.4978 200.628 42.4317C200.708 42.3624 200.849 42.3013 201.047 42.2517C201.321 42.1807 201.458 42.1213 201.458 42.0767C201.458 42.0321 201.329 41.9809 201.07 41.9247C200.674 41.8339 200.476 41.6704 200.476 41.4376C200.476 41.3451 200.517 41.2493 200.603 41.1469C200.687 41.0445 200.779 40.995 200.888 40.995C201.052 40.995 201.222 41.0974 201.399 41.3055C201.577 41.5102 201.693 41.6143 201.744 41.6143L201.775 41.5234C201.775 41.4475 201.749 41.3352 201.698 41.1882C201.648 41.0396 201.622 40.9339 201.622 40.8678C201.622 40.7308 201.656 40.6185 201.732 40.5293C201.807 40.4401 201.909 40.3955 202.043 40.3955C202.32 40.3955 202.459 40.5408 202.459 40.8298C202.459 40.9174 202.437 41.0478 202.393 41.2212C202.352 41.3979 202.327 41.5036 202.327 41.5383C202.327 41.5994 202.342 41.6291 202.365 41.6291C202.421 41.6291 202.518 41.5515 202.657 41.3979C202.794 41.2427 202.893 41.1453 202.958 41.1073C203.022 41.0676 203.1 41.0495 203.192 41.0495C203.318 41.0495 203.425 41.1056 203.508 41.2146C203.592 41.322 203.633 41.4194 203.633 41.4987C203.633 41.6011 203.58 41.6869 203.473 41.7579C203.366 41.829 203.196 41.8967 202.961 41.9611C202.726 42.0238 202.609 42.0783 202.609 42.1246C202.609 42.1807 202.773 42.2352 203.093 42.293C203.417 42.3492 203.579 42.4945 203.579 42.7273C203.579 42.8297 203.544 42.9272 203.473 43.0213C203.4 43.1154 203.304 43.1633 203.182 43.1633C203.1 43.1617 203.014 43.1385 202.921 43.0923Z" fill="#4D4D4D"/>
<path d="M150.839 25.3036C151.485 25.3036 152.01 24.7794 152.01 24.1328C152.01 23.4861 151.485 22.9619 150.839 22.9619C150.192 22.9619 149.668 23.4861 149.668 24.1328C149.668 24.7794 150.192 25.3036 150.839 25.3036Z" fill="#4D4D4D"/>
<path d="M159.235 25.3036C159.882 25.3036 160.406 24.7794 160.406 24.1328C160.406 23.4861 159.882 22.9619 159.235 22.9619C158.589 22.9619 158.064 23.4861 158.064 24.1328C158.064 24.7794 158.589 25.3036 159.235 25.3036Z" fill="#4D4D4D"/>
<path d="M167.631 25.3036C168.277 25.3036 168.802 24.7794 168.802 24.1328C168.802 23.4861 168.277 22.9619 167.631 22.9619C166.984 22.9619 166.46 23.4861 166.46 24.1328C166.46 24.7794 166.984 25.3036 167.631 25.3036Z" fill="#4D4D4D"/>
<path d="M176.027 25.3036C176.674 25.3036 177.198 24.7794 177.198 24.1328C177.198 23.4861 176.674 22.9619 176.027 22.9619C175.381 22.9619 174.856 23.4861 174.856 24.1328C174.856 24.7794 175.381 25.3036 176.027 25.3036Z" fill="#4D4D4D"/>
<path d="M184.424 25.3036C185.07 25.3036 185.595 24.7794 185.595 24.1328C185.595 23.4861 185.07 22.9619 184.424 22.9619C183.777 22.9619 183.253 23.4861 183.253 24.1328C183.253 24.7794 183.777 25.3036 184.424 25.3036Z" fill="#4D4D4D"/>
<path d="M192.818 25.3036C193.465 25.3036 193.989 24.7794 193.989 24.1328C193.989 23.4861 193.465 22.9619 192.818 22.9619C192.172 22.9619 191.647 23.4861 191.647 24.1328C191.647 24.7794 192.172 25.3036 192.818 25.3036Z" fill="#4D4D4D"/>
<path d="M201.213 25.3036C201.86 25.3036 202.384 24.7794 202.384 24.1328C202.384 23.4861 201.86 22.9619 201.213 22.9619C200.566 22.9619 200.042 23.4861 200.042 24.1328C200.042 24.7794 200.566 25.3036 201.213 25.3036Z" fill="#4D4D4D"/>
</svg>
