<svg width="200" height="157" viewBox="0 0 200 157" fill="none" xmlns="http://www.w3.org/2000/svg">
<path d="M72.5748 6.22746C72.5082 6.22746 72.4374 6.20633 72.3783 6.16195C72.2747 6.09115 72.2229 5.95485 72.2441 5.83122L72.5156 4.38892L71.4442 3.38513C71.3607 3.29214 71.3216 3.16535 71.3692 3.03433C71.3998 2.91915 71.5034 2.8304 71.6376 2.80927L73.0862 2.61802L73.7191 1.293C73.8311 1.069 74.2031 1.069 74.3129 1.293L74.9501 2.61802L76.4061 2.80927C76.535 2.8304 76.6322 2.91915 76.6756 3.03433C76.7168 3.16535 76.683 3.29109 76.5942 3.38513L75.5312 4.38892L75.7933 5.83122C75.8134 5.95485 75.7637 6.09115 75.6601 6.16195C75.5566 6.23169 75.4213 6.24542 75.3115 6.18097L74.0234 5.49099L72.728 6.18097C72.6815 6.21267 72.6245 6.22746 72.5748 6.22746ZM74.0224 4.77671C74.072 4.77671 74.1323 4.79573 74.1756 4.82214L75.0145 5.27861L74.8455 4.33081C74.8254 4.22092 74.8656 4.11103 74.9427 4.03918L75.638 3.36822L74.6838 3.24882C74.576 3.23509 74.4852 3.17274 74.4323 3.06814L74.0224 2.2017L73.6029 3.06814C73.5585 3.17274 73.4687 3.23614 73.3577 3.24882L72.4047 3.36822L73.0999 4.03918C73.1792 4.11103 73.2193 4.22092 73.1993 4.33081L73.0154 5.27861L73.8586 4.82214C73.9104 4.79573 73.9653 4.77671 74.0224 4.77671Z" fill="#AE9ECA"/>
<path d="M169.845 47.3779H168.941L168.69 47.6252V48.5307C168.69 48.8139 168.463 49.0411 168.181 49.0411C167.902 49.0411 167.674 48.8128 167.674 48.5307V47.6252L167.438 47.3779H166.524C166.24 47.3779 166.013 47.1497 166.013 46.8686C166.013 46.5876 166.241 46.3583 166.524 46.3583H167.438L167.674 46.11V45.2076C167.674 44.9244 167.903 44.6973 168.181 44.6973C168.464 44.6973 168.69 44.9255 168.69 45.2076V46.11L168.941 46.3583H169.845C170.124 46.3583 170.352 46.5876 170.352 46.8686C170.352 47.1497 170.124 47.3779 169.845 47.3779Z" fill="#AE9ECA"/>
<path d="M18.4291 137.852H17.5236L17.2743 138.1V139.004C17.2743 139.287 17.0471 139.515 16.7639 139.515C16.485 139.515 16.2567 139.286 16.2567 139.004V138.1L16.0211 137.852H15.1061C14.8229 137.852 14.5957 137.624 14.5957 137.343C14.5957 137.062 14.8229 136.833 15.1061 136.833H16.0211L16.2567 136.586V135.683C16.2567 135.4 16.486 135.173 16.7639 135.173C17.0471 135.173 17.2743 135.401 17.2743 135.683V136.586L17.5236 136.833H18.4291C18.7081 136.833 18.9363 137.063 18.9363 137.343C18.9374 137.624 18.7081 137.852 18.4291 137.852Z" fill="#AE9ECA"/>
<path d="M149.438 10.2306C149.438 11.4816 150.456 12.5002 151.705 12.5002C152.957 12.5002 153.974 11.4816 153.974 10.2306C153.974 8.98058 152.956 7.96094 151.705 7.96094C150.456 7.96199 149.438 8.98058 149.438 10.2306ZM150.357 10.2306C150.357 9.48671 150.961 8.8802 151.705 8.8802C152.45 8.8802 153.054 9.48671 153.054 10.2306C153.054 10.9755 152.45 11.5799 151.705 11.5799C150.961 11.5799 150.357 10.9766 150.357 10.2306Z" fill="#AE9ECA"/>
<path d="M106.445 0C106.146 0 105.906 0.243026 105.906 0.540995C105.906 0.841077 106.146 1.07671 106.445 1.07671H111.825C112.122 1.07671 112.364 0.841077 112.364 0.540995C112.364 0.244082 112.122 0 111.825 0H106.445Z" fill="#AE9ECA"/>
<path d="M114.133 0C113.837 0 113.594 0.243026 113.594 0.540995C113.594 0.841077 113.836 1.07671 114.133 1.07671H115.121C115.417 1.07671 115.657 0.841077 115.657 0.540995C115.657 0.244082 115.417 0 115.121 0H114.133Z" fill="#AE9ECA"/>
<path d="M177.803 154.272C185.52 141.629 189.727 126.773 189.971 110.879C190.278 90.7728 175.869 97.3345 166.889 81.2315C157.964 65.2278 165.666 53.7169 153.553 41.0183C140.831 27.6816 124.193 27.4766 106.569 27.4766C60.5073 27.4766 23.166 64.8168 23.166 110.878C23.166 126.774 27.6165 141.629 35.3352 154.271H177.803V154.272Z" fill="#ACFFE1"/>
<path d="M23.166 110.878C23.166 126.774 27.6165 141.63 35.3352 154.271H177.803C183.112 145.574 186.761 135.827 188.599 125.414C178.858 120.559 164.876 125.766 160.323 132.728C153.347 143.397 136.113 151.604 126.265 132.317C116.418 113.032 90.9762 115.494 81.1274 129.444C71.2796 143.396 53.6339 137.652 56.0969 121.649C58.5599 105.645 71.6896 81.8455 52.8361 73.9694C42.5139 69.6573 32.9134 74.2536 28.5189 81.464C25.0679 90.6144 23.166 100.523 23.166 110.878Z" fill="#75D4B2"/>
<path d="M152.749 139.427C148.402 140.449 143.605 133.49 144.068 129.066C144.532 124.642 142.891 122.755 139.768 121.411C136.646 120.067 136.004 118.725 136.493 115.623C136.981 112.52 136.858 105.911 136.456 104.529C136.053 103.148 136.577 101.293 138.721 102.948C140.864 104.603 149.399 108.506 152.251 110.584C155.104 112.661 153.976 115.223 153.404 118.854C152.833 122.487 154.308 122.305 156.397 126.768C158.486 131.231 155.763 139.243 152.749 139.427Z" fill="#01AA9A"/>
<path d="M175.272 143.033C177.746 140.091 179.694 139.465 182.51 140.454C185.326 141.464 186.498 141.108 188.492 139.272C190.378 137.339 195.955 134.779 197.496 134.702C198.941 134.531 200.434 133.363 197.518 132.579C192.372 131.194 187.126 127.469 182.903 126.959C178.82 126.325 175.97 128.415 174.073 131.097C172.252 133.859 171.071 132.844 166.823 135.135C162.462 137.491 161.425 144.605 163.819 146.002C163.818 146.002 169.565 149.819 175.272 143.033Z" fill="#5CBEB2"/>
<path d="M159.279 152.565C159.348 152.565 159.411 152.517 159.427 152.447C159.438 152.399 160.593 147.516 165.542 142.728C170.058 138.359 178.737 133.19 194.506 133.19C194.7 133.19 194.893 133.191 195.09 133.192C195.176 133.209 195.242 133.126 195.243 133.042C195.244 132.959 195.177 132.889 195.093 132.889C194.896 132.888 194.7 132.886 194.506 132.886C178.623 132.886 169.873 138.11 165.317 142.523C160.311 147.374 159.142 152.33 159.132 152.381C159.113 152.461 159.165 152.542 159.246 152.561C159.258 152.563 159.269 152.565 159.279 152.565Z" fill="#37AB9F"/>
<path d="M152.061 152.808C152.13 152.808 152.193 152.76 152.211 152.69C152.225 152.63 153.601 146.658 152.692 137.906C151.854 129.831 148.844 117.664 139.267 105.558C139.215 105.492 139.12 105.48 139.053 105.534C138.986 105.586 138.976 105.683 139.029 105.749C157.26 128.798 151.968 152.386 151.912 152.621C151.893 152.703 151.944 152.785 152.026 152.805C152.038 152.807 152.051 152.808 152.061 152.808Z" fill="#ABDBF2"/>
<path d="M151.405 141.039C153.859 139.444 153.205 131.593 149.966 128.374C146.51 124.942 145.202 125.612 144.498 122.047C143.794 118.483 143.969 115.722 140.616 114.764C137.263 113.805 128.017 113.086 125.465 112.277C122.914 111.469 123.058 113.37 123.902 114.514C124.746 115.66 127.106 121.752 127.707 124.796C128.309 127.841 129.36 128.868 132.715 129.054C136.069 129.24 138.233 130.432 139.307 134.696C140.381 138.96 147.455 143.608 151.405 141.039Z" fill="#ABDBF2"/>
<path d="M153.605 152.395C153.685 152.395 153.753 152.331 153.756 152.251C153.761 152.136 154.181 140.632 145.303 130.672C135.975 120.21 127.212 114.762 127.126 114.71C127.056 114.665 126.963 114.686 126.917 114.759C126.873 114.83 126.895 114.924 126.967 114.967C127.055 115.021 135.78 120.447 145.078 130.875C153.875 140.743 153.46 152.123 153.455 152.237C153.45 152.321 153.516 152.391 153.599 152.395C153.599 152.395 153.603 152.395 153.605 152.395Z" fill="#79BCC5"/>
<path d="M156.511 137.819C161.04 139.665 167.414 132.954 167.666 128.09C167.919 123.227 170.015 121.464 173.621 120.542C177.228 119.619 178.15 118.276 178.15 114.839C178.15 111.402 179.408 104.272 180.079 102.845C180.751 101.419 180.498 99.3224 177.899 100.749C175.299 102.175 165.403 104.943 161.964 106.704C158.525 108.465 159.307 111.429 159.307 115.454C159.307 119.479 157.742 119.033 154.723 123.505C151.703 127.978 153.283 137.106 156.511 137.819Z" fill="#ABDBF2"/>
<path d="M155.003 152.413C155.007 152.413 155.011 152.413 155.016 152.412C155.109 152.406 155.177 152.325 155.17 152.232C155.15 151.968 153.442 125.553 177.091 103.725C177.158 103.661 177.162 103.556 177.1 103.487C177.037 103.422 176.931 103.416 176.863 103.478C164.442 114.943 159.114 127.591 156.833 136.182C154.358 145.495 154.83 152.19 154.835 152.257C154.842 152.346 154.916 152.413 155.003 152.413Z" fill="#79BCC5"/>
<path d="M70.9322 141.309C74.6684 142.187 78.7914 136.207 78.393 132.405C77.9947 128.602 79.4053 126.982 82.0881 125.826C84.7719 124.671 85.3235 123.517 84.9029 120.852C84.4834 118.186 84.5891 112.506 84.9346 111.318C85.2812 110.131 84.829 108.536 82.9883 109.959C81.1466 111.382 73.8115 114.736 71.3612 116.521C68.9109 118.306 69.8787 120.508 70.3701 123.63C70.8614 126.75 69.5934 126.595 67.7982 130.431C66.003 134.268 68.3413 141.151 70.9322 141.309Z" fill="#01AA9A"/>
<path d="M51.5743 144.407C49.4473 141.878 47.7736 141.341 45.354 142.19C42.9343 143.058 41.9252 142.751 40.2124 141.173C38.5915 139.513 33.7976 137.312 32.4747 137.245C31.2332 137.099 29.9494 136.096 32.4557 135.421C36.8777 134.231 41.3863 131.03 45.0169 130.592C48.526 130.046 50.9742 131.843 52.6056 134.146C54.1705 136.521 55.1848 135.649 58.8365 137.618C62.5844 139.643 63.4762 145.755 61.4179 146.956C61.4179 146.957 56.4792 150.238 51.5743 144.407Z" fill="#5CBEB2"/>
<path d="M65.3176 152.598C65.2574 152.598 65.2045 152.557 65.1908 152.497C65.1813 152.454 64.1891 148.257 59.9341 144.144C56.0531 140.389 48.5954 135.945 35.0431 135.945C34.8761 135.945 34.7092 135.947 34.5412 135.948C34.4683 135.962 34.4102 135.891 34.4102 135.819C34.4102 135.747 34.4672 135.689 34.5391 135.688C34.7081 135.687 34.8761 135.686 35.0431 135.686C48.6926 135.686 56.2126 140.175 60.1285 143.968C64.4311 148.136 65.4338 152.397 65.4444 152.439C65.4602 152.509 65.4169 152.579 65.3461 152.595C65.3366 152.597 65.3271 152.598 65.3176 152.598Z" fill="#37AB9F"/>
<path d="M71.5219 152.807C71.4617 152.807 71.4078 152.767 71.393 152.705C71.3814 152.655 70.1979 147.522 70.9799 139.999C71.6994 133.06 74.2871 122.604 82.5161 112.199C82.5605 112.142 82.6429 112.133 82.701 112.177C82.7581 112.223 82.7676 112.305 82.7222 112.362C67.0534 132.171 71.6022 152.442 71.6498 152.644C71.6667 152.715 71.6223 152.787 71.5525 152.803C71.542 152.806 71.5314 152.807 71.5219 152.807Z" fill="#ABDBF2"/>
<path d="M72.0846 142.693C69.9756 141.323 70.5377 134.574 73.322 131.808C76.2921 128.859 77.4164 129.435 78.0208 126.37C78.6252 123.307 78.4751 120.934 81.3566 120.111C84.238 119.288 92.1849 118.669 94.3774 117.975C96.5699 117.28 96.4463 118.914 95.7214 119.898C94.9966 120.882 92.9679 126.118 92.4512 128.733C91.9345 131.35 91.0311 132.233 88.1475 132.393C85.265 132.553 83.4043 133.578 82.4819 137.242C81.5594 140.905 75.4796 144.9 72.0846 142.693Z" fill="#ABDBF2"/>
<path d="M70.1942 152.454C70.1256 152.454 70.0675 152.399 70.0643 152.33C70.0601 152.231 69.6987 142.345 77.3297 133.785C85.3452 124.793 92.8758 120.113 92.9508 120.067C93.0111 120.029 93.0903 120.046 93.1294 120.109C93.1675 120.172 93.1484 120.251 93.0861 120.289C93.0111 120.335 85.5122 124.997 77.522 133.96C69.9607 142.44 70.3189 152.221 70.3232 152.318C70.3263 152.39 70.2714 152.452 70.1995 152.455C70.1985 152.454 70.1953 152.454 70.1942 152.454Z" fill="#79BCC5"/>
<path d="M67.6963 139.927C63.8037 141.512 58.3262 135.746 58.1106 131.566C57.8951 127.386 56.0925 125.872 52.9934 125.079C49.8943 124.286 49.1007 123.132 49.1007 120.177C49.1007 117.222 48.0198 111.095 47.4429 109.871C46.866 108.645 47.0826 106.843 49.3163 108.068C51.5511 109.294 60.0559 111.672 63.0113 113.186C65.9656 114.7 65.2936 117.247 65.2936 120.706C65.2936 124.165 66.6387 123.781 69.2337 127.625C71.8288 131.47 70.4721 139.314 67.6963 139.927Z" fill="#ABDBF2"/>
<path d="M68.9937 152.468C68.9905 152.468 68.9863 152.468 68.9831 152.467C68.9039 152.462 68.8447 152.393 68.851 152.313C68.8679 152.085 70.3356 129.384 50.0124 110.625C49.9532 110.57 49.9501 110.479 50.005 110.421C50.0578 110.365 50.1498 110.36 50.2089 110.414C60.883 120.266 65.4614 131.136 67.4225 138.52C69.5484 146.524 69.1427 152.278 69.1384 152.335C69.131 152.41 69.0687 152.468 68.9937 152.468Z" fill="#79BCC5"/>
<path d="M182.737 154.246H28.5003C27.5366 154.246 26.7568 153.466 26.7568 152.503C26.7568 151.54 27.5366 150.76 28.5003 150.76H182.737C183.7 150.76 184.481 151.54 184.481 152.503C184.481 153.466 183.7 154.246 182.737 154.246Z" fill="#42BB90"/>
<path d="M188.873 83.0047C195.019 80.5265 197.353 71.9537 194.088 63.8569C190.823 55.7601 183.194 51.2054 177.049 53.6836C170.904 56.1619 168.569 64.7346 171.834 72.8314C175.099 80.9282 182.728 85.483 188.873 83.0047Z" fill="#C8CDFF"/>
<path d="M143.272 148.007C142.974 152.696 139.138 156.526 134.452 156.526L76.0671 156.499C71.3863 156.499 67.5518 152.66 67.5518 147.974L67.613 23.071C67.6215 18.3848 71.456 14.5524 76.1379 14.5566L134.527 14.5799C139.209 14.5841 143.044 18.4176 143.337 23.1037L143.272 148.007Z" fill="#333333"/>
<path d="M139.361 143.115L139.412 27.9833L71.2354 27.9463V143.115H139.361Z" fill="#FDFFFF"/>
<g opacity="0.3">
<g opacity="0.3">
<path opacity="0.3" d="M102.147 20.0186C101.729 20.0186 101.387 20.3525 101.387 20.773C101.387 21.1914 101.728 21.5295 102.147 21.5295H112.171C112.592 21.5295 112.93 21.1925 112.93 20.773C112.93 20.3525 112.593 20.0186 112.171 20.0186H102.147Z" fill="#B2B2B2"/>
</g>
<g opacity="0.3">
<path opacity="0.3" d="M98.5532 20.0186C98.1369 20.0186 97.7998 20.3525 97.7998 20.773C97.7998 21.1914 98.1369 21.5295 98.5532 21.5295H99.2653C99.6774 21.5295 100.02 21.1925 100.02 20.773C100.02 20.3525 99.6774 20.0186 99.2653 20.0186H98.5532Z" fill="#B2B2B2"/>
</g>
</g>
<path d="M79.6726 31.4084C79.6726 31.5732 79.5384 31.7064 79.3736 31.7064H74.8967C74.7318 31.7064 74.5977 31.5732 74.5977 31.4084C74.5977 31.2436 74.7318 31.1094 74.8967 31.1094H79.3736C79.5384 31.1094 79.6726 31.2436 79.6726 31.4084Z" fill="#D5CAE5"/>
<path d="M79.6726 33.0988C79.6726 33.2637 79.5384 33.3968 79.3736 33.3968H74.8967C74.7318 33.3968 74.5977 33.2637 74.5977 33.0988C74.5977 32.9329 74.7318 32.7998 74.8967 32.7998H79.3736C79.5384 32.8009 79.6726 32.934 79.6726 33.0988Z" fill="#D5CAE5"/>
<path d="M79.6726 34.7911C79.6726 34.957 79.5384 35.0902 79.3736 35.0902H74.8967C74.7318 35.0902 74.5977 34.957 74.5977 34.7911C74.5977 34.6263 74.7318 34.4932 74.8967 34.4932H79.3736C79.5384 34.4932 79.6726 34.6263 79.6726 34.7911Z" fill="#D5CAE5"/>
<path d="M33.1455 45.0351C33.8471 44.5173 34.7527 45.1523 35.1595 46.4372L39.3458 60.0371C39.5783 60.8591 39.4441 60.9141 38.3336 60.1427L26.8501 52.5519C25.7417 51.7806 25.4047 50.7208 26.1115 50.2083L33.1455 45.0351Z" fill="#5BC4BE"/>
<path d="M61.7912 47.1807C61.7912 51.5626 58.2377 55.116 53.8569 55.116H24.713C20.328 55.116 16.7725 51.5626 16.7725 47.1807C16.7725 42.7946 20.328 39.2412 24.713 39.2412H53.858C58.2377 39.2412 61.7912 42.7946 61.7912 47.1807Z" fill="#52D7A7"/>
<path d="M44.1573 44.2485C44.1573 44.4999 43.9533 44.7049 43.7008 44.7049H27.1635C26.912 44.7049 26.707 44.501 26.707 44.2485C26.707 43.997 26.912 43.792 27.1635 43.792H43.7008C43.9523 43.793 44.1573 43.997 44.1573 44.2485Z" fill="white"/>
<path d="M52.2432 44.2485C52.2432 44.4999 52.0393 44.7049 51.7878 44.7049H45.8295C45.578 44.7049 45.373 44.501 45.373 44.2485C45.373 43.997 45.577 43.792 45.8295 43.792H51.7878C52.0383 43.793 52.2432 43.997 52.2432 44.2485Z" fill="white"/>
<path d="M29.5652 46.9242C29.5652 47.1757 29.3613 47.3796 29.1088 47.3796H27.1635C26.912 47.3796 26.707 47.1757 26.707 46.9242C26.707 46.6728 26.912 46.4678 27.1635 46.4678H29.1088C29.3602 46.4678 29.5652 46.6728 29.5652 46.9242Z" fill="white"/>
<path d="M52.2436 46.9242C52.2436 47.1757 52.0396 47.3796 51.7882 47.3796H31.2367C30.9853 47.3796 30.7803 47.1757 30.7803 46.9242C30.7803 46.6728 30.9842 46.4678 31.2367 46.4678H51.7871C52.0386 46.4678 52.2436 46.6728 52.2436 46.9242Z" fill="white"/>
<path d="M38.3194 49.599C38.3194 49.8504 38.1144 50.0554 37.864 50.0554H27.1635C26.912 50.0554 26.707 49.8515 26.707 49.599C26.707 49.3475 26.912 49.1436 27.1635 49.1436H37.864C38.1144 49.1436 38.3194 49.3475 38.3194 49.599Z" fill="white"/>
<path d="M52.2441 49.599C52.2441 49.8504 52.0402 50.0554 51.7887 50.0554H39.9925C39.741 50.0554 39.5371 49.8515 39.5371 49.599C39.5371 49.3475 39.741 49.1436 39.9925 49.1436H51.7887C52.0391 49.1436 52.2441 49.3475 52.2441 49.599Z" fill="white"/>
<path d="M55.5901 103.979C45.381 107.221 38.2456 105.967 38.2456 105.967C38.2456 105.967 37.7109 114.604 37.7109 121.407C37.7109 128.211 37.9666 153.72 37.9666 153.72L41.8762 153.371C41.8762 149.95 45.3493 115.686 46.4831 115.686C47.1794 115.686 47.321 120.291 47.321 124.827C47.321 129.363 46.0646 153.44 46.0646 153.44L50.1813 153.787C50.8089 147.786 54.5536 127.711 55.3926 114.589C55.568 111.827 55.5901 105.494 55.5901 103.979Z" fill="#333333"/>
<path d="M46.645 153.637L48.2278 153.644C48.2278 153.644 51.7643 153.813 53.6937 156.628L48.792 156.6C48.792 156.6 48.437 155.735 48.0767 155.731C47.7175 155.731 47.4945 156.593 47.4945 156.593L46.4844 156.586L46.645 153.637Z" fill="url(#paint0_linear_1337_1412)"/>
<path d="M41.4872 153.57L39.9012 153.544C39.9012 153.544 36.3637 153.631 34.374 156.404L39.2736 156.482C39.2736 156.482 39.6477 155.624 40.008 155.631C40.3672 155.638 40.5711 156.508 40.5711 156.508L41.5834 156.52L41.4872 153.57Z" fill="url(#paint1_linear_1337_1412)"/>
<path d="M51.5427 71.2636C51.5427 71.2636 51.3335 73.6336 51.0524 75.1012C50.7756 76.5668 49.7285 78.2415 48.8208 78.1718C47.9142 78.101 45.298 77.4036 44.3872 74.0203C44.1093 73.8787 42.5043 72.9373 42.9935 71.2636C43.4827 69.5878 44.8426 73.0757 44.8426 73.3916C44.8426 73.7044 45.0159 72.5199 44.9472 71.9261C44.8785 71.3323 44.8785 68.5755 46.343 68.6093C47.8086 68.6453 50.0085 68.9675 51.1243 68.6093C51.9949 68.3304 51.5744 70.7374 51.5427 71.2636Z" fill="#FABB85"/>
<path d="M49.6237 64.7357C48.3314 63.9676 45.0485 63.9676 44.6681 65.9223C44.6681 65.9223 42.819 66.2013 42.6774 67.9109C42.5601 69.3691 42.6954 70.2926 43.0208 71.1822C43.5291 69.7082 44.8424 73.0799 44.8424 73.3895C44.8424 73.7023 45.0157 72.5178 44.947 71.924C44.8784 71.3302 44.8784 68.5734 46.3429 68.6072C47.8084 68.6432 50.0083 68.9654 51.1241 68.6072C51.8035 68.3896 51.6989 69.8054 51.6038 70.6867L51.645 70.6666C51.645 70.6666 51.924 69.7611 52.1691 68.6062C52.4132 67.4576 51.2192 65.6878 49.6237 64.7357Z" fill="#333333"/>
<path d="M49.6412 74.9787C49.2587 75.0295 48.9956 74.9069 48.648 74.927C48.2961 74.9439 47.1803 75.1024 47.0599 76.5679C46.727 76.514 45.9092 76.2013 45.2087 74.7875C44.6983 73.7509 44.692 74.3881 44.9889 75.5218C46.1438 77.6192 48.0668 78.1148 48.8213 78.1729C49.6074 78.2331 50.496 76.9832 50.9018 75.6972C50.8511 75.4637 50.6049 74.6977 49.6412 74.9787ZM49.4669 76.9335C49.0484 76.9863 49.1362 76.6894 48.8414 76.8447C48.5392 77.0043 47.9485 77.0899 47.7562 76.6017C47.5649 76.1135 47.9305 75.487 48.2951 75.4151C48.6628 75.3464 48.8044 75.5208 49.3612 75.45C49.6528 75.413 50.1484 75.3095 50.3048 75.6951C50.4612 76.0797 49.8864 76.8817 49.4669 76.9335Z" fill="#333333"/>
<path opacity="0.3" d="M55.5163 106.476C54.7947 106.709 54.0857 106.899 53.3936 107.063C53.2583 111.082 52.7691 121.53 51.1419 134.387C50.0007 143.388 49.166 150.733 48.6377 153.657L50.1783 153.786C50.8059 147.785 54.5506 127.71 55.3896 114.588C55.5121 112.648 55.5618 108.957 55.5787 106.4C55.5618 106.431 55.5385 106.459 55.5163 106.476Z" fill="url(#paint2_linear_1337_1412)"/>
<path d="M50.0516 77.3742C49.668 77.8772 49.2274 78.2047 48.8196 78.172C47.913 78.1012 45.2968 77.4038 44.3859 74.0205C44.3405 73.9951 44.2539 73.9476 44.1503 73.8789C44.1471 73.8926 44.1461 73.9011 44.1419 73.9138L43.8291 78.5904C43.8291 78.5904 45.0516 84.1588 47.6678 84.0532C50.2851 83.9475 50.0421 78.6802 50.0421 78.6802L50.0516 77.3742Z" fill="#FABB85"/>
<path opacity="0.3" d="M38.2456 105.967C38.2456 105.967 37.7109 114.604 37.7109 121.406C37.7109 128.211 37.9666 153.72 37.9666 153.72L39.3318 153.6C39.5315 148.262 39.9425 134.564 39.9425 128.666C39.9425 121.98 41.0129 110.305 41.3267 107.064C39.3572 106.553 38.2456 105.967 38.2456 105.967Z" fill="url(#paint3_linear_1337_1412)"/>
<path opacity="0.3" d="M48.8199 78.172C47.9133 78.1012 45.2971 77.4038 44.3863 74.0205C44.3408 73.9951 44.2542 73.9476 44.1506 73.8789C44.1475 73.8926 44.1464 73.9011 44.1422 73.9138L44.0186 75.7682C44.5067 76.5828 45.9585 78.5767 48.4902 78.4932C49.1474 78.471 49.6536 78.3284 50.0477 78.1192L50.0519 77.3753C49.6683 77.8772 49.2277 78.2047 48.8199 78.172Z" fill="#FABB85"/>
<path d="M55.2743 99.9991C55.2743 99.2647 54.5083 90.4905 54.5083 87.9757C54.5083 85.463 54.3709 81.4859 54.3709 81.4859C54.3709 81.4859 50.9812 79.2828 50.044 78.6499V78.6784C50.044 78.6784 50.2575 81.1995 48.1368 81.6074C47.9921 81.6349 47.8367 83.9563 47.6698 83.9626C47.4923 83.97 47.32 81.6592 47.1552 81.638C44.893 81.3485 43.831 78.5897 43.831 78.5897L43.8543 78.2441C43.8511 78.2463 39.538 79.9147 38.6652 80.7874C38.6652 83.3698 37.4775 118.235 37.4775 121.239C37.4775 121.239 45.0176 124.485 55.2247 121.239C56.4049 106.827 55.2743 100.731 55.2743 99.9991Z" fill="white"/>
<path d="M49.2071 92.2473C49.2039 92.2473 49.1997 92.2473 49.1997 92.2473C49.3001 92.4798 49.2885 92.6869 49.149 92.8274C48.8626 93.1148 48.1029 92.7387 47.1615 91.7972C46.9068 91.5447 46.2549 91.8321 46.2549 91.8321C46.2549 91.8321 46.7557 92.2558 46.8804 92.6161C46.948 92.8042 46.9364 93.3864 46.9153 93.7689C46.9153 93.7689 47.5419 93.7023 47.9328 93.4413C48.3259 93.1782 48.7549 93.1391 49.149 93.0757C49.5442 93.0102 49.7661 92.4956 49.2071 92.2473Z" fill="#FAA378"/>
<path d="M44.3608 93.1788C44.2551 93.1397 44.2551 94.1604 43.8103 94.6856C43.6391 94.8863 43.4478 95.0586 43.2471 95.1695C44.0564 95.2794 44.4823 94.8388 44.5974 94.4573C44.7031 94.1023 44.9588 93.8456 45.0962 93.724C44.8077 93.4694 44.4316 93.2063 44.3608 93.1788Z" fill="#FAA378"/>
<path opacity="0.3" d="M42.2156 94.7143L38.1931 97.0368C38.1783 97.9835 38.1614 98.9038 38.1455 99.7745L42.8042 96.854C43.0028 96.6543 43.2057 95.9093 43.5195 95.9093C43.8333 95.9093 44.7589 95.9093 44.7589 95.2838C44.7589 94.6551 45.3496 93.9387 45.3496 93.9387L44.5138 93.6777L42.2156 94.7143Z" fill="#A375BF"/>
<path d="M42.4072 94.5615C42.4801 95.3339 42.7115 95.8982 42.7115 95.8982C42.7115 95.8982 43.056 95.4438 43.056 94.9747C43.056 94.7369 42.7295 94.6196 42.4072 94.5615Z" fill="#474079"/>
<path opacity="0.3" d="M38.6329 82.4629C38.6329 82.4629 38.9742 83.9295 39.0777 86.3101C39.138 87.6499 38.9985 92.6181 38.9985 92.6181L44.3366 91.5193L41.565 93.9801L37.5361 94.6067L36.8018 93.0905L38.6329 82.4629Z" fill="#A375BF"/>
<path d="M38.663 80.7881C38.663 80.7881 36.5339 81.7813 36.0119 83.0387C35.4879 84.294 33.1337 92.9837 32.6096 95.8102C32.0855 98.6377 32.8738 99.9997 36.6406 98.6377C40.4086 97.2768 42.712 95.8979 42.712 95.8979C42.712 95.8979 41.8414 93.8057 42.9223 92.1299C42.9223 92.1299 39.7957 93.1454 38.4263 93.3863C38.4263 93.3863 38.8913 89.3721 38.8913 86.2836L38.663 80.7881Z" fill="white"/>
<path d="M49.8046 91.2044C49.6683 91.067 49.2002 90.8208 48.4014 90.4531C47.5983 90.0875 46.9696 90.2978 46.4318 90.6095C45.0667 90.3834 45.0857 90.8029 44.8596 91.0301C44.7211 90.8885 44.4654 91.0205 44.1263 91.3608C43.7934 91.6915 42.8731 92.2631 42.8298 92.2906C42.2317 93.3525 42.3532 94.5433 42.5212 95.2555C42.9999 95.4172 43.4479 95.1097 43.8103 94.6849C44.2541 94.1598 44.2541 93.1391 44.3608 93.1782C44.4665 93.2194 45.2516 93.7815 45.408 94.0552C45.5643 94.331 45.6298 94.6966 45.8919 94.6701C46.155 94.6458 46.2712 94.2908 46.2712 94.2908C46.3388 94.5138 46.8724 94.3183 46.901 94.0161C46.9253 93.716 46.9644 92.8496 46.8809 92.6161C46.7562 92.2557 46.2554 91.832 46.2554 91.832C46.2554 91.832 46.9084 91.5446 47.162 91.7972C48.1034 92.7386 48.8631 93.1148 49.1495 92.8274C49.4379 92.54 49.1843 91.9705 48.5377 91.4675C49.2551 91.8521 49.943 91.3418 49.8046 91.2044Z" fill="#FABB85"/>
<path d="M44.9535 92.1818C44.9334 92.2019 45.785 93.0905 45.9752 93.4477C46.1665 93.7985 46.2183 94.35 46.2183 94.3553C46.2183 94.3659 46.2267 94.3733 46.232 94.3807C46.2584 94.331 46.2711 94.2909 46.2711 94.2909C46.2806 94.3205 46.2975 94.3405 46.3207 94.3574C46.3207 94.3532 46.3229 94.349 46.3229 94.3426C46.3207 94.3215 46.2647 93.7678 46.0703 93.3959C45.8706 93.0282 44.9746 92.1607 44.9535 92.1818ZM48.6369 91.4306C48.6147 91.4137 47.688 90.916 47.6753 90.9435C47.6648 90.9688 48.565 91.4855 48.5376 91.4676C48.5745 91.4855 48.6094 91.4908 48.6443 91.5067C48.6443 91.5067 48.6464 91.5056 48.6485 91.5035C48.6654 91.4824 48.6591 91.4464 48.6369 91.4306ZM46.3419 91.8004C46.2436 91.7328 45.4416 91.2795 45.429 91.3027C45.4131 91.3291 46.2552 91.8332 46.2552 91.8332C46.2552 91.8332 46.2912 91.8184 46.3419 91.8004Z" fill="#FAA378"/>
<path opacity="0.3" d="M55.2734 99.998C55.2734 99.8142 55.2269 99.1453 55.1603 98.2018L51.9048 96.8577L49.1808 96.6475L47.0264 97.7664C47.0264 97.7664 48.5088 97.59 49.1386 97.8869C49.6616 98.1341 53.5595 100.519 55.4931 101.788C55.3061 100.938 55.2734 100.239 55.2734 99.998Z" fill="#A375BF"/>
<path opacity="0.3" d="M54.4216 82.9512C54.4216 82.9512 54.1469 87.315 54.1469 88.3273C54.1469 89.3374 54.1025 90.728 53.552 91.1358C52.8895 91.624 51.4409 92.109 50.2501 92.819C49.6256 93.1888 55.4381 92.8623 55.4381 92.8623L55.7868 89.7907L54.4216 82.9512Z" fill="#A375BF"/>
<path d="M54.3682 81.4863C54.3682 81.4863 55.4808 82.1499 56.4244 83.0903C57.3679 84.0339 57.5254 87.1742 58.0991 89.5315C58.676 91.8867 60.2451 94.449 60.2451 96.072C60.2451 97.6929 59.6703 99.4215 58.414 100.102C57.1577 100.782 54.4368 99.58 54.4368 99.58C54.4368 99.58 58.2058 99.0549 56.2141 96.3066C56.2796 95.8206 56.361 95.7064 56.361 95.2341C56.361 94.7618 54.4865 91.6226 54.4865 91.0467L54.3682 81.4863Z" fill="white"/>
<path opacity="0.3" d="M56.8872 92.752C56.8872 92.752 56.7467 93.909 56.7467 94.2756C56.7467 94.6412 56.8333 95.8975 56.6379 96.0888C56.4487 96.2821 57.5814 98.0964 56.4646 98.4472C55.3488 98.7948 55.1406 96.876 55.1406 96.876L55.856 95.0776L56.1349 93.1408L56.8872 92.752Z" fill="#A375BF"/>
<path d="M54.793 99.5093C54.793 99.5093 52.5265 98.5594 51.6368 98.2963C50.7482 98.0364 48.2968 97.0685 47.8414 96.8593C47.3903 96.6501 47.7051 96.1788 48.4881 96.3172C49.2732 96.4578 50.8951 97.0495 50.8951 97.0495C50.8951 97.0495 49.1844 95.9147 48.804 95.7752C48.4194 95.6368 48.804 94.9922 50.0086 95.4445C51.211 95.8988 51.9274 96.1619 52.1874 96.1619C52.4505 96.1619 52.6428 95.9347 52.3786 95.6737C52.1187 95.4117 51.5978 94.8887 51.4033 94.6964C51.211 94.5041 51.0536 94.241 51.2554 94.0413C51.4562 93.8405 51.8577 93.7021 52.4758 94.3033C53.0982 94.9045 54.0121 95.7171 54.4221 95.3071C54.8331 94.895 55.1343 95.1085 55.3467 94.895C55.5612 94.6816 55.8 93.42 56.4804 93.3164C56.7583 93.3164 56.4477 94.5844 56.4477 94.8918C56.4477 95.2004 56.4804 95.8978 56.2152 96.3077C56.7414 96.6152 57.3511 98.1822 56.2216 98.9123C55.4957 99.3815 54.793 99.5093 54.793 99.5093Z" fill="#FABB85"/>
<path d="M47.8401 96.858C47.389 96.6488 47.7038 96.1775 48.4868 96.3159C49.0753 96.4205 50.1341 96.7798 50.6265 96.9541L50.7163 96.9341C50.2714 96.6403 49.1081 95.889 48.8017 95.7739C48.4171 95.6355 48.8017 94.9909 50.0062 95.4431C51.2087 95.8975 51.9251 96.1606 52.185 96.1606C52.4481 96.1606 52.6404 95.9334 52.3762 95.6724C52.1163 95.4104 51.5954 94.8874 51.401 94.6951C51.2087 94.5027 51.0512 94.2397 51.253 94.0399C51.4538 93.8392 51.8553 93.7008 52.4734 94.302C53.0958 94.9032 54.0098 95.7158 54.4198 95.3058C54.8308 94.8937 55.1319 95.1071 55.3443 94.8937C55.5588 94.6803 55.7976 93.4186 56.4781 93.3151L57.9426 91.2832L49.9354 92.8798L46.6377 97.8501L48.976 97.325C48.4466 97.1147 48.0102 96.9351 47.8401 96.858Z" fill="url(#paint4_linear_1337_1412)"/>
<path d="M57.9436 91.2842L57.82 90.9619L49.8107 92.6018L46.4189 97.6335L46.6387 97.8511L49.9365 92.8808L57.9436 91.2842Z" fill="url(#paint5_linear_1337_1412)"/>
<path d="M176.551 18.1575C176.545 18.0222 176.617 17.9916 176.71 18.0898L177.811 19.2426C178.004 19.4444 178.299 19.5121 178.561 19.4148L180.055 18.8591C180.182 18.8126 180.234 18.8707 180.169 18.9901L179.413 20.3943C179.281 20.6405 179.306 20.9417 179.481 21.1604L180.471 22.4104C180.555 22.516 180.515 22.5837 180.382 22.5594L178.814 22.2741C178.538 22.2244 178.261 22.3428 178.106 22.5752L177.224 23.9023C177.149 24.0154 177.071 23.9974 177.055 23.8632L176.841 22.2836C176.803 22.0068 176.604 21.7785 176.335 21.7035L174.8 21.2745C174.67 21.2386 174.662 21.1604 174.784 21.1012L176.22 20.4102C176.471 20.2887 176.628 20.0298 176.616 19.7498L176.551 18.1575Z" fill="#FCB821"/>
<path d="M176.348 28.3303C172.863 28.3303 170.02 25.5038 170.02 22.0011C170.02 20.4288 170.596 19.0034 171.531 17.9014C168.044 18.5839 165.401 21.663 165.401 25.3643C165.401 29.5412 168.802 32.9647 172.999 32.9647C176.702 32.9647 179.775 30.3189 180.461 26.8151C179.352 27.7534 177.92 28.3303 176.348 28.3303Z" fill="#FCB821"/>
<path d="M0.320702 88.9557C4.5525 88.9557 18.6543 88.9557 18.6543 88.9557C19.3928 88.9557 19.9941 88.4095 19.9941 87.7406C19.9941 87.0718 19.3928 86.5276 18.6543 86.5276C18.6543 86.5276 4.52608 86.5276 0.294285 86.5276C-0.107234 86.5276 -0.0512337 85.6992 0.274208 85.6992V63.8936H18.7895C19.9169 63.8936 20.832 64.8086 20.832 65.936V87.7406C20.832 88.8691 19.9169 89.7841 18.7895 89.7841H0.274208C-0.0512337 89.7831 -0.146328 88.9557 0.320702 88.9557Z" fill="#4E569E"/>
<path d="M0.666016 88.9565V86.5273C5.28982 86.5273 18.6541 86.5273 18.6541 86.5273C19.3926 86.5273 19.9939 87.0726 19.9939 87.7403C19.9939 88.4103 19.3926 88.9555 18.6541 88.9555C18.6541 88.9565 5.26341 88.9565 0.666016 88.9565Z" fill="#E8DDEC"/>
<path d="M19.7868 88.1291C19.7868 87.4603 19.1855 86.9161 18.447 86.9161C18.447 86.9161 5.46628 86.9161 0.666016 86.9161V86.5283C5.28982 86.5283 18.6541 86.5283 18.6541 86.5283C19.3926 86.5283 19.9939 87.0735 19.9939 87.7413C19.9939 88.0108 19.8945 88.2559 19.7308 88.4567C19.7635 88.3531 19.7868 88.2443 19.7868 88.1291Z" fill="#AE9ECA"/>
<path d="M10.3186 79.745C10.3186 79.3794 10.1759 79.0402 9.90964 78.7962C9.78813 78.7042 9.73635 78.5574 9.76805 78.4179C9.81349 78.27 9.90964 78.1474 10.0523 78.103C11.2885 77.6613 12.136 76.479 12.136 75.1719C12.136 73.867 11.2885 72.6804 10.0523 72.2472C9.90964 72.1975 9.81349 72.0781 9.76805 71.9598C9.73635 71.7865 9.78813 71.6681 9.90964 71.5477C10.1759 71.3047 10.3186 70.9644 10.3186 70.6041C10.3186 70.1413 9.64232 69.2495 9.01468 68.5986C8.4124 69.2495 7.73087 70.1413 7.73087 70.6041C7.73087 70.9644 7.87986 71.3047 8.13979 71.5477C8.24439 71.6681 8.2856 71.7875 8.2687 71.9598C8.2444 72.0781 8.1176 72.1975 7.99926 72.2472C6.74081 72.6804 5.89551 73.867 5.89551 75.1719C5.89551 76.48 6.74081 77.6613 7.99926 78.103C8.1176 78.1474 8.2444 78.271 8.2687 78.4179C8.2856 78.5584 8.24439 78.7042 8.13979 78.7962C7.8788 79.0402 7.73087 79.3794 7.73087 79.745C7.73087 80.2057 8.41346 81.0985 9.01468 81.7515C9.64232 81.0985 10.3186 80.2046 10.3186 79.745Z" fill="#FCB821"/>
<path opacity="0.4" d="M14.4754 68.3989V81.9681C13.3427 82.1351 12.4478 83.029 12.2755 84.1723H5.77197C5.58284 83.029 4.6847 82.1351 3.54883 81.9681V68.3989C4.6847 68.2066 5.58284 67.3159 5.77197 66.1758H12.2755C12.4467 67.3148 13.3427 68.2066 14.4754 68.3989ZM10.8554 78.6546C12.135 77.9794 12.957 76.6449 12.957 75.1709C12.957 73.6979 12.136 72.3655 10.8554 71.6924C11.0467 71.3744 11.1418 70.9898 11.1418 70.602C11.1418 69.5359 9.62127 68.0143 9.30851 67.7216C9.13311 67.5515 8.89431 67.5515 8.7263 67.7216C8.43468 68.0143 6.88566 69.5359 6.88566 70.602C6.88566 70.9898 7.004 71.3744 7.20053 71.6924C5.91884 72.3655 5.07354 73.6979 5.07354 75.1709C5.07354 76.6459 5.91779 77.9794 7.20053 78.6546C7.004 78.9705 6.88566 79.3519 6.88566 79.745C6.88566 80.808 8.43362 82.3337 8.7263 82.6486C8.82034 82.7184 8.9165 82.7416 9.01371 82.7416C9.10669 82.7416 9.23138 82.7194 9.30851 82.6486C9.62127 82.3337 11.1418 80.808 11.1418 79.745C11.1418 79.3509 11.0456 78.9705 10.8554 78.6546Z" fill="#DDE0FF"/>
<g opacity="0.5">
<path opacity="0.5" d="M1.44141 87.8815C1.44141 88.0421 1.80489 88.1721 2.24973 88.1721H17.9861C18.4309 88.1721 18.7944 88.0421 18.7944 87.8815C18.7944 87.7198 18.4309 87.5899 17.9861 87.5899H2.24973C1.80489 87.5888 1.44141 87.7188 1.44141 87.8815Z" fill="#AE9ECA"/>
</g>
<path d="M18.2607 63.8936H18.7901C19.9175 63.8936 20.8326 64.8086 20.8326 65.936V87.7406C20.8326 86.6142 19.9175 85.6981 18.7901 85.6981H18.2607V63.8936Z" fill="#4E569E"/>
<g opacity="0.4">
<g opacity="0.4">
<path opacity="0.4" d="M18.2746 63.8945H17.7695V85.7002H18.2746V63.8945Z" fill="#4E569E"/>
</g>
</g>
<path d="M190.981 54.999H190.263V58.9677H190.981V54.999Z" fill="#4650A6"/>
<path d="M190.637 90.3957C189.749 89.9952 185.992 88.013 185.697 84.1689H195.549C195.243 88.144 191.55 89.9952 190.637 90.3957Z" fill="#747FE4"/>
<path d="M197.44 65.8972H183.801C184.142 60.2844 189.537 57.6312 190.638 57.1367C191.708 57.6312 197.101 60.3742 197.44 65.8972Z" fill="#747FE4"/>
<path d="M197.688 81.7985H197.158L197.157 68.1099H197.688C198.361 68.1099 198.874 67.5889 198.874 66.9349C198.874 66.2914 198.361 65.7451 197.688 65.7451H183.564C182.887 65.7451 182.37 66.2914 182.37 66.9349C182.37 67.5889 182.887 68.1099 183.564 68.1099H184.081V81.7985H183.564C182.887 81.7985 182.37 82.3194 182.37 82.9861C182.37 83.6296 182.887 84.1917 183.564 84.1917H197.688C198.361 84.1917 198.874 83.6307 198.874 82.9861C198.874 82.3194 198.361 81.7985 197.688 81.7985Z" fill="#4650A6"/>
<path d="M184.722 81.7986V70.293C185.286 71.1076 185.936 72.9715 185.936 73.9478V81.7986H184.722Z" fill="#FCB821"/>
<path d="M187.767 81.7982V73.9475C187.767 72.2896 190.027 70.1901 190.277 69.9471C190.483 69.778 190.783 69.778 190.973 69.9471C191.247 70.1891 193.478 72.2886 193.478 73.9475V81.7982H187.767Z" fill="#FCB821"/>
<path d="M195.31 81.7991V73.9484C195.31 72.9995 195.918 71.1779 196.463 70.377V81.8002H195.31V81.7991Z" fill="#FCB821"/>
<path d="M189.028 53.9712C189.028 54.8492 189.743 55.5646 190.621 55.5646C191.499 55.5646 192.214 54.8492 192.214 53.9712C192.214 53.092 191.499 52.3799 190.621 52.3799C189.743 52.3799 189.028 53.0931 189.028 53.9712ZM189.697 53.9712C189.697 53.464 190.112 53.0487 190.62 53.0487C191.129 53.0487 191.541 53.464 191.541 53.9712C191.541 54.4794 191.129 54.8947 190.62 54.8947C190.112 54.8947 189.697 54.4794 189.697 53.9712Z" fill="#747FE4"/>
<path opacity="0.3" d="M197.157 68.1094H184.081V69.1649H197.157V68.1094Z" fill="#0E176A"/>
<path opacity="0.15" d="M195.55 84.1689H190.638V90.3957C191.55 89.9952 195.242 88.144 195.55 84.1689Z" fill="black"/>
<path opacity="0.15" d="M197.44 65.8972C197.102 60.3732 191.708 57.6312 190.638 57.1367V65.8972H197.44Z" fill="black"/>
<path opacity="0.15" d="M198.874 82.9861C198.874 82.3194 198.362 81.7985 197.689 81.7985H197.158L197.157 68.1099H197.689C198.362 68.1099 198.874 67.5889 198.874 66.9349C198.874 66.2914 198.362 65.7451 197.689 65.7451H190.638V84.1917H197.689C198.362 84.1917 198.874 83.6296 198.874 82.9861Z" fill="black"/>
<path d="M190.636 53.2382C190.501 53.2382 190.393 53.1284 190.393 52.9942V46.3163C190.393 46.1821 190.502 46.0732 190.636 46.0732C190.771 46.0732 190.879 46.1821 190.879 46.3163V52.9942C190.88 53.1284 190.771 53.2382 190.636 53.2382Z" fill="#4650A6"/>
<path d="M82.2214 55.6444C82.2214 56.2266 81.7491 56.6978 81.1669 56.6978H76.6678C76.0856 56.6978 75.6133 56.2266 75.6133 55.6444C75.6133 55.0622 76.0856 54.5898 76.6678 54.5898H81.1669C81.7481 54.5898 82.2214 55.0622 82.2214 55.6444Z" fill="#D5CAE5"/>
<path d="M134.655 55.6444C134.655 56.2266 134.182 56.6978 133.601 56.6978H86.0878C85.5056 56.6978 85.0322 56.2266 85.0322 55.6444C85.0322 55.0622 85.5045 54.5898 86.0878 54.5898H133.601C134.181 54.5898 134.655 55.0622 134.655 55.6444Z" fill="#D5CAE5"/>
<path d="M98.7693 64.2888C98.7693 64.871 98.2949 65.3444 97.7158 65.3444H76.6678C76.0856 65.3444 75.6133 64.8721 75.6133 64.2888C75.6133 63.7087 76.0856 63.2354 76.6678 63.2354H97.7158C98.2959 63.2354 98.7693 63.7077 98.7693 64.2888Z" fill="#D5CAE5"/>
<path d="M134.654 64.2888C134.654 64.871 134.182 65.3444 133.601 65.3444H110.022C109.44 65.3444 108.969 64.8721 108.969 64.2888C108.969 63.7087 109.44 63.2354 110.022 63.2354H133.601C134.181 63.2354 134.654 63.7077 134.654 64.2888Z" fill="#D5CAE5"/>
<path d="M115.957 72.8485C115.957 73.4307 115.485 73.903 114.903 73.903H76.6678C76.0856 73.903 75.6133 73.4307 75.6133 72.8485C75.6133 72.2663 76.0856 71.793 76.6678 71.793H114.904C115.485 71.794 115.957 72.2663 115.957 72.8485Z" fill="#D5CAE5"/>
<path d="M134.654 72.8485C134.654 73.4307 134.182 73.903 133.6 73.903H119.824C119.242 73.903 118.77 73.4307 118.77 72.8485C118.77 72.2663 119.242 71.793 119.824 71.793H133.6C134.18 71.794 134.654 72.2663 134.654 72.8485Z" fill="#D5CAE5"/>
<path d="M82.2214 81.4949C82.2214 82.0782 81.7491 82.5484 81.1669 82.5484H76.6678C76.0856 82.5484 75.6133 82.0782 75.6133 81.4949C75.6133 80.9127 76.0856 80.4404 76.6678 80.4404H81.1669C81.7481 80.4404 82.2214 80.9127 82.2214 81.4949Z" fill="#D5CAE5"/>
<path d="M134.655 81.4949C134.655 82.0782 134.182 82.5484 133.601 82.5484H86.0878C85.5056 82.5484 85.0322 82.0782 85.0322 81.4949C85.0322 80.9127 85.5045 80.4404 86.0878 80.4404H133.601C134.181 80.4404 134.655 80.9127 134.655 81.4949Z" fill="#D5CAE5"/>
<path d="M98.7693 90.1394C98.7693 90.7227 98.2949 91.195 97.7158 91.195H76.6678C76.0856 91.195 75.6133 90.7227 75.6133 90.1394C75.6133 89.5593 76.0856 89.0859 76.6678 89.0859H97.7158C98.2959 89.0859 98.7693 89.5604 98.7693 90.1394Z" fill="#D5CAE5"/>
<path d="M134.654 90.1394C134.654 90.7227 134.182 91.195 133.601 91.195H110.022C109.44 91.195 108.969 90.7227 108.969 90.1394C108.969 89.5593 109.44 89.0859 110.022 89.0859H133.601C134.181 89.0859 134.654 89.5604 134.654 90.1394Z" fill="#D5CAE5"/>
<path d="M115.957 98.703C115.957 99.2862 115.485 99.7575 114.903 99.7575H76.6678C76.0856 99.7575 75.6133 99.2862 75.6133 98.703C75.6133 98.1208 76.0856 97.6484 76.6678 97.6484H114.904C115.485 97.6484 115.957 98.1208 115.957 98.703Z" fill="#D5CAE5"/>
<path d="M134.654 98.703C134.654 99.2862 134.182 99.7575 133.6 99.7575H119.824C119.242 99.7575 118.77 99.2862 118.77 98.703C118.77 98.1208 119.242 97.6484 119.824 97.6484H133.6C134.18 97.6484 134.654 98.1208 134.654 98.703Z" fill="#D5CAE5"/>
<path d="M82.2214 107.35C82.2214 107.932 81.7491 108.402 81.1669 108.402H76.6678C76.0856 108.402 75.6133 107.932 75.6133 107.35C75.6133 106.766 76.0856 106.294 76.6678 106.294H81.1669C81.7481 106.294 82.2214 106.766 82.2214 107.35Z" fill="#D5CAE5"/>
<path d="M134.654 107.35C134.654 107.932 134.182 108.402 133.601 108.402H93.4735C92.8913 108.402 92.4189 107.932 92.4189 107.35C92.4189 106.766 92.8913 106.294 93.4735 106.294H133.601C134.181 106.294 134.654 106.766 134.654 107.35Z" fill="#D5CAE5"/>
<path d="M102.462 115.993C102.462 116.575 101.989 117.047 101.409 117.047H76.6678C76.0856 117.047 75.6133 116.575 75.6133 115.993C75.6133 115.412 76.0856 114.939 76.6678 114.939H101.409C101.989 114.939 102.462 115.412 102.462 115.993Z" fill="#D5CAE5"/>
<path d="M134.654 115.993C134.654 116.575 134.182 117.047 133.601 117.047H106.328C105.746 117.047 105.274 116.575 105.274 115.993C105.274 115.412 105.746 114.939 106.328 114.939H133.601C134.181 114.939 134.654 115.412 134.654 115.993Z" fill="#D5CAE5"/>
<path d="M115.957 124.551C115.957 125.134 115.485 125.606 114.903 125.606H76.6678C76.0856 125.606 75.6133 125.134 75.6133 124.551C75.6133 123.968 76.0856 123.496 76.6678 123.496H114.904C115.485 123.496 115.957 123.968 115.957 124.551Z" fill="#D5CAE5"/>
<path d="M134.655 124.551C134.655 125.134 134.182 125.606 133.601 125.606H127.211C126.629 125.606 126.156 125.134 126.156 124.551C126.156 123.968 126.629 123.496 127.211 123.496H133.601C134.181 123.496 134.655 123.968 134.655 124.551Z" fill="#D5CAE5"/>
<path d="M82.2214 133.197C82.2214 133.779 81.7491 134.251 81.1669 134.251H76.6678C76.0856 134.251 75.6133 133.779 75.6133 133.197C75.6133 132.615 76.0856 132.143 76.6678 132.143H81.1669C81.7481 132.143 82.2214 132.616 82.2214 133.197Z" fill="#D5CAE5"/>
<path d="M134.655 133.197C134.655 133.779 134.182 134.251 133.601 134.251H86.0878C85.5056 134.251 85.0322 133.779 85.0322 133.197C85.0322 132.615 85.5045 132.143 86.0878 132.143H133.601C134.181 132.143 134.655 132.616 134.655 133.197Z" fill="#D5CAE5"/>
<path d="M103.874 67.433C105.701 67.433 107.182 65.9518 107.182 64.1247C107.182 62.2976 105.701 60.8164 103.874 60.8164C102.047 60.8164 100.565 62.2976 100.565 64.1247C100.565 65.9518 102.047 67.433 103.874 67.433Z" fill="#AE9ECA"/>
<path d="M105.839 64.5418L104.29 66.0897C104.059 66.3201 103.686 66.3201 103.456 66.0897L101.908 64.5418C101.678 64.3114 101.678 63.9385 101.908 63.7071L103.456 62.1591C103.686 61.9287 104.059 61.9287 104.29 62.1591L105.839 63.7071C106.069 63.9385 106.069 64.3114 105.839 64.5418Z" fill="white"/>
<path d="M103.873 64.9168C104.157 64.9168 104.388 64.5625 104.388 64.1254C104.388 63.6883 104.157 63.334 103.873 63.334C103.589 63.334 103.358 63.6883 103.358 64.1254C103.358 64.5625 103.589 64.9168 103.873 64.9168Z" fill="#AE9ECA"/>
<path d="M103.874 93.393C105.701 93.393 107.182 91.9118 107.182 90.0847C107.182 88.2575 105.701 86.7764 103.874 86.7764C102.047 86.7764 100.565 88.2575 100.565 90.0847C100.565 91.9118 102.047 93.393 103.874 93.393Z" fill="#AE9ECA"/>
<path d="M105.839 90.5017L104.29 92.0497C104.059 92.2801 103.686 92.2801 103.456 92.0497L101.908 90.5017C101.678 90.2714 101.678 89.8984 101.908 89.6681L103.456 88.119C103.686 87.8887 104.059 87.8887 104.29 88.119L105.839 89.6681C106.069 89.8984 106.069 90.2714 105.839 90.5017Z" fill="white"/>
<path d="M103.873 90.8747C104.157 90.8747 104.388 90.5208 104.388 90.0843C104.388 89.6478 104.157 89.2939 103.873 89.2939C103.589 89.2939 103.358 89.6478 103.358 90.0843C103.358 90.5208 103.589 90.8747 103.873 90.8747Z" fill="#AE9ECA"/>
<path d="M87.1521 110.42C88.9792 110.42 90.4604 108.939 90.4604 107.112C90.4604 105.285 88.9792 103.804 87.1521 103.804C85.3249 103.804 83.8438 105.285 83.8438 107.112C83.8438 108.939 85.3249 110.42 87.1521 110.42Z" fill="#AE9ECA"/>
<path d="M89.116 107.529L87.5681 109.078C87.3377 109.308 86.9647 109.308 86.7344 109.078L85.1864 107.529C84.9561 107.298 84.9561 106.925 85.1864 106.695L86.7344 105.147C86.9647 104.916 87.3377 104.916 87.5681 105.147L89.116 106.695C89.3474 106.925 89.3474 107.3 89.116 107.529Z" fill="white"/>
<path d="M87.1513 107.904C87.4355 107.904 87.6659 107.55 87.6659 107.113C87.6659 106.676 87.4355 106.321 87.1513 106.321C86.8671 106.321 86.6367 106.676 86.6367 107.113C86.6367 107.55 86.8671 107.904 87.1513 107.904Z" fill="#AE9ECA"/>
<path d="M121.108 127.758C122.935 127.758 124.416 126.277 124.416 124.45C124.416 122.623 122.935 121.142 121.108 121.142C119.281 121.142 117.8 122.623 117.8 124.45C117.8 126.277 119.281 127.758 121.108 127.758Z" fill="#AE9ECA"/>
<path d="M123.073 124.867L121.524 126.415C121.294 126.645 120.922 126.645 120.69 126.415L119.142 124.867C118.912 124.637 118.912 124.264 119.142 124.033L120.69 122.484C120.922 122.254 121.294 122.254 121.524 122.484L123.073 124.033C123.303 124.263 123.303 124.637 123.073 124.867Z" fill="white"/>
<path d="M121.107 125.24C121.392 125.24 121.622 124.886 121.622 124.45C121.622 124.013 121.392 123.659 121.107 123.659C120.823 123.659 120.593 124.013 120.593 124.45C120.593 124.886 120.823 125.24 121.107 125.24Z" fill="#AE9ECA"/>
<path d="M188.59 111.137C188.291 111.137 188.051 111.38 188.051 111.678C188.051 111.977 188.291 112.213 188.59 112.213H193.969C194.267 112.213 194.509 111.977 194.509 111.678C194.509 111.381 194.267 111.137 193.969 111.137H188.59Z" fill="#AE9ECA"/>
<path d="M196.275 111.137C195.98 111.137 195.737 111.38 195.737 111.678C195.737 111.977 195.979 112.213 196.275 112.213H197.263C197.561 112.213 197.801 111.977 197.801 111.678C197.801 111.381 197.561 111.137 197.263 111.137H196.275Z" fill="#AE9ECA"/>
<path d="M4.76048 111.547C4.46145 111.547 4.22266 111.79 4.22266 112.088C4.22266 112.387 4.46145 112.624 4.76048 112.624H10.1398C10.4377 112.624 10.6787 112.387 10.6787 112.088C10.6787 111.791 10.4367 111.547 10.1398 111.547H4.76048Z" fill="#AE9ECA"/>
<path d="M12.446 111.547C12.1502 111.547 11.9082 111.79 11.9082 112.088C11.9082 112.387 12.1502 112.624 12.446 112.624H13.434C13.7319 112.624 13.9707 112.387 13.9707 112.088C13.9707 111.791 13.7309 111.547 13.434 111.547H12.446Z" fill="#AE9ECA"/>
<path d="M54.2021 7.65763C54.2021 7.15256 54.4568 6.7373 54.7548 6.7373C55.0527 6.7373 55.3084 7.15256 55.3084 7.65763C55.3084 8.14262 55.0517 8.5769 54.7548 8.5769C54.4579 8.5769 54.2021 8.14368 54.2021 7.65763Z" fill="#453E77"/>
<path d="M54.7558 5.93415C54.0679 5.93415 53.5153 6.71606 53.5153 7.65857C53.5153 8.57783 54.0679 9.36185 54.7558 9.36185C55.4204 9.36185 55.9762 8.57783 55.9762 7.65857C55.9751 6.715 55.4204 5.93415 54.7558 5.93415ZM52.9395 7.65751C52.9395 6.3251 53.7457 5.26953 54.7547 5.26953C55.7437 5.26953 56.5721 6.3251 56.5721 7.63427C56.5721 7.63427 56.5721 7.63427 56.5721 7.65751C56.5721 8.96984 55.7659 10.0275 54.7547 10.0497H54.6649C53.6992 9.98315 52.9395 8.92547 52.9395 7.65751Z" fill="#636CC2"/>
<path d="M55.4905 30.2927C55.2623 30.2927 55.1006 30.1321 55.1006 29.9039V29.2171C55.1006 29.0375 55.2158 28.899 55.3531 28.8525C55.3986 28.8525 55.4451 28.8525 55.4905 28.8525C55.5116 28.8525 55.557 28.8525 55.6035 28.8525C55.7652 28.899 55.8783 29.0375 55.8783 29.2171V29.9039C55.8783 30.1321 55.6934 30.2927 55.4905 30.2927Z" fill="#453E77"/>
<path d="M55.1006 25.79H55.8783V28.4665C55.8783 28.6472 55.7652 28.7835 55.6035 28.8532C55.557 28.831 55.5116 28.831 55.4905 28.831C55.4451 28.831 55.3986 28.831 55.3531 28.8532C55.2168 28.7845 55.1006 28.6482 55.1006 28.4665V25.79Z" fill="#453E77"/>
<path d="M54.3656 10.832H40.8936V22.7413H54.3656V10.832Z" fill="#4E569E"/>
<path d="M54.051 30.2927C53.8429 30.2927 53.6611 30.1321 53.6611 29.9039V29.2171C53.6611 29.0375 53.7531 28.9191 53.9147 28.8525H53.938C53.9591 28.8525 53.9823 28.8525 54.0056 28.8525C54.0278 28.8525 54.0278 28.8525 54.051 28.8525C54.0954 28.8525 54.1197 28.8525 54.1641 28.8525H54.1873C54.349 28.9191 54.4388 29.0375 54.4388 29.2171V29.9039C54.4388 30.1321 54.2803 30.2927 54.051 30.2927Z" fill="#453E77"/>
<path d="M53.9147 28.8522C53.7541 28.7835 53.6611 28.6472 53.6611 28.4655V25.7891H54.4388V28.4655C54.4388 28.6462 54.349 28.7603 54.1873 28.8522H54.1641C54.1197 28.83 54.0954 28.83 54.051 28.83C54.0278 28.83 54.0278 28.83 54.0056 28.8522C53.9823 28.8522 53.9591 28.8522 53.938 28.8522H53.9147Z" fill="#453E77"/>
<path d="M52.9982 29.2171V29.9039C52.9982 30.1321 52.8387 30.2927 52.6104 30.2927C52.4044 30.2927 52.2227 30.1321 52.2227 29.9039V29.2171C52.2227 29.0375 52.3125 28.9191 52.4974 28.8525H52.5164C52.5428 28.8525 52.5428 28.8525 52.5639 28.8525C52.5872 28.8525 52.5872 28.8525 52.6104 28.8525C52.6337 28.8525 52.6791 28.8525 52.7024 28.8525C52.7235 28.8525 52.7235 28.8525 52.7478 28.8525C52.8852 28.899 52.9982 29.0375 52.9982 29.2171Z" fill="#453E77"/>
<path d="M52.9981 25.79V28.4665C52.9981 28.6472 52.8851 28.7835 52.7488 28.8532C52.7245 28.8532 52.7245 28.8532 52.7033 28.8532C52.6801 28.831 52.6347 28.831 52.6114 28.831C52.5882 28.831 52.5882 28.831 52.5649 28.8532C52.5438 28.8532 52.5438 28.8532 52.5174 28.8532H52.4984C52.3134 28.7845 52.2236 28.6482 52.2236 28.4665V25.79H52.9981Z" fill="#453E77"/>
<path d="M51.1947 30.2927C50.9865 30.2927 50.8037 30.1321 50.8037 29.9039V29.2171C50.8037 29.0375 50.8956 28.9191 51.0562 28.8525H51.0805C51.0996 28.8525 51.1249 28.8525 51.1461 28.8525C51.1704 28.8525 51.1704 28.8525 51.1936 28.8525C51.238 28.8525 51.2591 28.8525 51.2834 28.8525C51.3046 28.8525 51.3046 28.8525 51.3046 28.8525C51.4652 28.899 51.5814 29.0375 51.5814 29.2171V29.9039C51.5824 30.1321 51.3975 30.2927 51.1947 30.2927Z" fill="#453E77"/>
<path d="M51.0572 28.8522C50.8977 28.7603 50.8047 28.6472 50.8047 28.4655V25.7891H51.5824V28.4655C51.5824 28.6462 51.4672 28.7825 51.3055 28.8522C51.3055 28.8522 51.3055 28.8522 51.2844 28.8522C51.2601 28.83 51.239 28.83 51.1946 28.83C51.1713 28.83 51.1713 28.83 51.147 28.8522C51.1259 28.8522 51.1005 28.8522 51.0815 28.8522H51.0572Z" fill="#453E77"/>
<path d="M49.7763 30.2927C49.547 30.2927 49.3652 30.1321 49.3652 29.9039V29.2171C49.3652 29.0575 49.4804 28.9191 49.6167 28.8525H49.64H49.6611C49.7108 28.8525 49.7329 28.8525 49.7773 28.8525C49.8006 28.8525 49.8249 28.8525 49.8693 28.8525H49.8925C50.0277 28.899 50.1672 29.0375 50.1672 29.2171V29.9039C50.1662 30.1321 49.9812 30.2927 49.7763 30.2927Z" fill="#453E77"/>
<path d="M49.6167 28.8522C49.4815 28.7603 49.3652 28.6472 49.3652 28.4655V25.7891H50.1662V28.4655C50.1662 28.6462 50.0267 28.7825 49.8914 28.8522H49.8682C49.8238 28.83 49.7995 28.83 49.7763 28.83C49.7319 28.83 49.7097 28.83 49.66 28.8522H49.6389H49.6167Z" fill="#453E77"/>
<path d="M48.336 30.2927C48.1321 30.2927 47.9482 30.1321 47.9482 29.9039V29.2171C47.9482 29.0375 48.037 28.9191 48.1976 28.8525H48.2208C48.243 28.8525 48.2684 28.8525 48.2874 28.8525C48.2874 28.8525 48.3128 28.8525 48.335 28.8525C48.3793 28.8525 48.4005 28.8525 48.4258 28.8525H48.4459H48.4713C48.6329 28.9191 48.7227 29.0375 48.7227 29.2171V29.9039C48.7238 30.1321 48.5421 30.2927 48.336 30.2927Z" fill="#453E77"/>
<path d="M47.9482 28.4655V25.7891H48.7238V28.4655C48.7238 28.6462 48.634 28.7603 48.4723 28.8522H48.447H48.4269C48.4015 28.83 48.3804 28.83 48.336 28.83C48.3138 28.83 48.2885 28.8522 48.2885 28.8522C48.2705 28.8522 48.2441 28.8522 48.2219 28.8522H48.1987C48.037 28.7835 47.9482 28.6472 47.9482 28.4655Z" fill="#453E77"/>
<path d="M46.9221 30.2927C46.6907 30.2927 46.5322 30.1321 46.5322 29.9039V29.2171C46.5322 29.0575 46.622 28.9191 46.7583 28.8525H46.7837C46.8038 28.8525 46.827 28.8525 46.8524 28.8525C46.8735 28.8525 46.8978 28.8525 46.9211 28.8525C46.9422 28.8525 46.9654 28.8525 47.0109 28.8525H47.032C47.1905 28.899 47.3088 29.0375 47.3088 29.2171V29.9039C47.311 30.1321 47.1261 30.2927 46.9221 30.2927Z" fill="#453E77"/>
<path d="M46.7593 28.8522C46.623 28.7603 46.5332 28.6472 46.5332 28.4655V25.7891H47.3109V28.4655C47.3109 28.6462 47.1925 28.7825 47.034 28.8522H47.0129C46.9675 28.83 46.9442 28.83 46.9231 28.83C46.8999 28.83 46.8756 28.83 46.8544 28.8522C46.8291 28.8522 46.8058 28.8522 46.7857 28.8522H46.7593Z" fill="#453E77"/>
<path d="M45.0918 29.2171C45.0918 29.0375 45.1837 28.9191 45.3433 28.8525H45.3644C45.3877 28.8525 45.412 28.8525 45.4331 28.8525C45.4563 28.8525 45.4563 28.8525 45.4775 28.8525C45.5282 28.8525 45.5483 28.8525 45.5726 28.8525H45.5937H45.618C45.7775 28.9191 45.8674 29.0375 45.8674 29.2171V29.9039C45.8674 30.1321 45.6877 30.2927 45.4775 30.2927C45.2513 30.2927 45.0918 30.1321 45.0918 29.9039V29.2171Z" fill="#453E77"/>
<path d="M45.3433 28.8522C45.1848 28.7603 45.0918 28.6472 45.0918 28.4655V25.7891H45.8674V28.4655C45.8674 28.6462 45.7775 28.7603 45.618 28.8522H45.5937H45.5726C45.5493 28.83 45.5282 28.83 45.4775 28.83C45.4563 28.83 45.4563 28.83 45.4331 28.8522C45.412 28.8522 45.3877 28.8522 45.3644 28.8522H45.3433Z" fill="#453E77"/>
<path d="M44.0404 30.2927C43.8323 30.2927 43.6484 30.1321 43.6484 29.9039V29.2171C43.6484 29.0375 43.7414 28.9191 43.901 28.8525H43.9242C43.9485 28.8525 43.9697 28.8525 43.9697 28.8525C43.9929 28.8525 44.014 28.8525 44.0394 28.8525C44.0616 28.8525 44.106 28.8525 44.1271 28.8525C44.1514 28.8525 44.1514 28.8525 44.1725 28.8525C44.3109 28.899 44.4494 29.0375 44.4494 29.2171V29.9039C44.4504 30.1321 44.2655 30.2927 44.0404 30.2927Z" fill="#453E77"/>
<path d="M43.6504 25.79H44.4513V28.4665C44.4513 28.6472 44.314 28.7835 44.1745 28.8532C44.1533 28.8532 44.1533 28.8532 44.129 28.8532C44.1079 28.831 44.0635 28.831 44.0413 28.831C44.016 28.831 43.9949 28.831 43.9716 28.8532C43.9716 28.8532 43.9505 28.8532 43.9262 28.8532H43.9029C43.7444 28.7613 43.6504 28.6482 43.6504 28.4665V25.79Z" fill="#453E77"/>
<path d="M42.6233 30.2927C42.4183 30.2927 42.2334 30.1321 42.2334 29.9039V29.2171C42.2334 29.0375 42.3253 28.9191 42.4838 28.8525H42.5071C42.5282 28.8525 42.5536 28.8525 42.5758 28.8525C42.5758 28.8525 42.599 28.8525 42.6222 28.8525C42.6434 28.8525 42.6687 28.8525 42.7142 28.8525H42.7374C42.8959 28.899 43.01 29.0375 43.01 29.2171V29.9039C43.0111 30.1321 42.8293 30.2927 42.6233 30.2927Z" fill="#453E77"/>
<path d="M42.4838 28.8522C42.3253 28.7835 42.2334 28.6472 42.2334 28.4655V25.7891H43.0111V28.4655C43.0111 28.6462 42.898 28.7825 42.7385 28.8522H42.7152C42.6698 28.83 42.6444 28.83 42.6233 28.83C42.6001 28.83 42.5768 28.8522 42.5768 28.8522C42.5546 28.8522 42.5293 28.8522 42.5081 28.8522H42.4838Z" fill="#453E77"/>
<path d="M40.792 29.2171C40.792 29.0575 40.9072 28.9191 41.0456 28.8525H41.0667H41.09C41.1386 28.8525 41.1586 28.8525 41.2041 28.8525C41.2273 28.8525 41.2485 28.8525 41.2949 28.8525H41.3171C41.4566 28.899 41.5929 29.0375 41.5929 29.2171V29.9039C41.5929 30.1321 41.4122 30.2927 41.2041 30.2927C40.9769 30.2927 40.792 30.1321 40.792 29.9039V29.2171Z" fill="#453E77"/>
<path d="M41.0456 28.8522C40.9082 28.7603 40.792 28.6472 40.792 28.4655V25.7891H41.5929V28.4655C41.5929 28.6462 41.4566 28.7825 41.3171 28.8522H41.2949C41.2485 28.83 41.2273 28.83 41.2041 28.83C41.1586 28.83 41.1375 28.83 41.09 28.8522H41.0667H41.0456Z" fill="#453E77"/>
<path d="M38.6611 10.8316H40.0865V23.1329C40.0865 23.34 40.2693 23.5218 40.4775 23.5218H54.7557C54.9639 23.5218 55.1466 23.34 55.1466 23.1329V10.7873C55.6972 10.6943 56.1832 10.372 56.5731 9.93457V24.9725H38.6611V10.8316Z" fill="#636CC2"/>
<path d="M39.769 30.2927C39.5345 30.2927 39.376 30.1321 39.376 29.9039V29.2171C39.376 29.0375 39.4658 28.9191 39.6285 28.8525H39.6507C39.6739 28.8525 39.6972 28.8525 39.7183 28.8525C39.7183 28.8525 39.7416 28.8525 39.768 28.8525C39.787 28.8525 39.8102 28.8525 39.8335 28.8525C39.8557 28.8525 39.8557 28.8525 39.8789 28.8525C40.0385 28.899 40.1505 29.0375 40.1505 29.2171V29.9039C40.1526 30.1321 39.973 30.2927 39.769 30.2927Z" fill="#453E77"/>
<path d="M39.3779 28.4655V25.7891H40.1535V28.4655C40.1535 28.6462 40.0415 28.7825 39.8819 28.8522C39.8587 28.8522 39.8587 28.8522 39.8365 28.8522C39.8133 28.83 39.79 28.83 39.771 28.83C39.7446 28.83 39.7213 28.8522 39.7213 28.8522C39.7002 28.8522 39.6769 28.8522 39.6537 28.8522H39.6315C39.4677 28.7603 39.3779 28.6472 39.3779 28.4655Z" fill="#453E77"/>
<path d="M53.0291 10.0507H40.4764H38.268C37.2589 10.0507 36.458 8.97079 36.458 7.65846C36.458 6.32605 37.2589 5.27048 38.2257 5.24512C38.2479 5.26942 38.2691 5.26942 38.2965 5.26942H53.0291C52.9847 5.3138 52.9393 5.38248 52.8928 5.43003C52.8474 5.49659 52.803 5.56633 52.7554 5.63396C52.6878 5.70369 52.6392 5.79562 52.5948 5.8643C52.5494 5.95517 52.5029 6.05027 52.4818 6.14114C52.4311 6.23201 52.3867 6.32499 52.3634 6.41586C52.318 6.50884 52.2969 6.60183 52.2736 6.71489C52.2049 7.01391 52.1595 7.31294 52.1595 7.6574C52.1595 7.98179 52.2049 8.303 52.2736 8.60202C52.2969 8.69289 52.318 8.78694 52.3634 8.87675C52.3867 8.99192 52.4311 9.08596 52.4818 9.17578C52.5029 9.26876 52.5494 9.33638 52.5948 9.42936C52.6181 9.47374 52.6392 9.52341 52.6635 9.56778C52.6868 9.58997 52.7079 9.63435 52.7544 9.68296C52.8019 9.74952 52.8463 9.82138 52.8918 9.88794C52.9393 9.93443 52.9847 9.98304 53.0291 10.0507Z" fill="#636CC2"/>
<path d="M159.563 95.0805V96.0272H157.436V95.0805C157.436 94.6504 157.927 94.2891 158.504 94.2891C159.078 94.2891 159.563 94.6504 159.563 95.0805Z" fill="#AE9ECA"/>
<path d="M159.002 89.9064V92.5332C159.002 92.8111 158.777 93.0383 158.503 93.0383C158.221 93.0383 157.997 92.8111 157.997 92.5332V89.9064C157.997 89.6338 158.222 89.4014 158.503 89.4014C158.777 89.4014 159.002 89.6338 159.002 89.9064Z" fill="#453E77"/>
<path d="M167.508 78.8097C167.521 79.636 166.866 80.3259 166.031 80.3439C165.191 80.3523 164.515 79.7015 164.502 78.8783C164.485 78.0426 165.147 77.36 165.967 77.3346C166.776 77.2955 167.49 77.976 167.508 78.8097Z" fill="#AE9ECA"/>
<path d="M165.797 81.4108C166.545 81.7785 166.849 82.6745 166.479 83.4205C166.111 84.1665 165.204 84.4739 164.459 84.1031C163.725 83.7322 163.416 82.8256 163.782 82.0881C164.043 81.5608 164.579 81.248 165.134 81.248C165.355 81.248 165.581 81.3019 165.797 81.4108Z" fill="#AE9ECA"/>
<path d="M166.306 74.2714C166.695 75.0015 166.424 75.9176 165.694 76.317C165.35 76.5083 164.939 76.5495 164.555 76.4396C164.17 76.3287 163.852 76.0613 163.658 75.7074C163.463 75.364 163.424 74.9561 163.537 74.5736C163.647 74.1858 163.907 73.8657 164.259 73.6702C164.491 73.555 164.735 73.4863 164.984 73.4863C165.512 73.4853 166.03 73.7748 166.306 74.2714Z" fill="#AE9ECA"/>
<path d="M163.778 84.9114C164.276 85.5791 164.133 86.5238 163.457 87.0151C163.134 87.2528 162.738 87.349 162.339 87.2941C161.941 87.2285 161.598 87.0204 161.356 86.6939C161.123 86.3727 161.018 85.969 161.082 85.5791C161.145 85.1755 161.356 84.8332 161.677 84.5891C161.94 84.3968 162.245 84.3027 162.567 84.3027C162.635 84.3027 162.718 84.3027 162.799 84.3218C163.194 84.3756 163.546 84.5891 163.778 84.9114Z" fill="#AE9ECA"/>
<path d="M163.049 70.7378C163.738 71.1953 163.929 72.1241 163.476 72.8215C163.248 73.1511 162.915 73.3825 162.518 73.4639C162.128 73.5421 161.727 73.4639 161.391 73.2441C161.052 73.0201 160.829 72.6852 160.747 72.291C160.724 72.1854 160.717 72.0829 160.717 71.9804C160.717 71.6919 160.798 71.4098 160.964 71.1615C161.18 70.8234 161.525 70.5994 161.921 70.5191C162.014 70.4969 162.12 70.4863 162.222 70.4863C162.514 70.4863 162.8 70.5677 163.049 70.7378Z" fill="#AE9ECA"/>
<path d="M158.656 85.4928C159.479 85.5795 160.083 86.3159 159.991 87.1443C159.905 87.9675 159.169 88.5697 158.341 88.481C157.942 88.4429 157.58 88.2401 157.331 87.9273C157.104 87.6653 156.994 87.3366 156.994 86.9911C156.994 86.9362 156.994 86.8865 157.004 86.8316C157.041 86.4279 157.243 86.0697 157.555 85.8214C157.821 85.6059 158.159 85.4875 158.495 85.4875C158.548 85.4854 158.605 85.4854 158.656 85.4928Z" fill="#AE9ECA"/>
<path d="M158.629 69.1491C159.455 69.2357 160.051 69.9806 159.964 70.8069C159.92 71.2021 159.732 71.5624 159.418 71.8181C159.104 72.0685 158.71 72.1858 158.311 72.1393C157.908 72.0981 157.555 71.9069 157.299 71.5931C157.092 71.3289 156.97 70.9992 156.97 70.6622C156.97 70.6083 156.97 70.5459 156.978 70.4857C157.06 69.7175 157.707 69.1406 158.471 69.1406C158.52 69.1406 158.575 69.1491 158.629 69.1491Z" fill="#AE9ECA"/>
<path d="M155.575 84.385C156.273 84.8425 156.464 85.7787 156.007 86.4687C155.547 87.1682 154.614 87.3605 153.921 86.9009C153.23 86.4444 153.04 85.5061 153.497 84.8161C153.717 84.4801 154.051 84.2477 154.444 84.1674C154.548 84.1536 154.651 84.1367 154.753 84.1367C155.046 84.1367 155.327 84.2244 155.575 84.385Z" fill="#AE9ECA"/>
<path d="M155.61 70.9358C156.103 71.6025 155.96 72.5482 155.284 73.0374C154.62 73.533 153.675 73.3903 153.184 72.7172C152.95 72.396 152.849 71.9945 152.912 71.6025C152.977 71.2031 153.184 70.8565 153.507 70.6135C153.772 70.4212 154.075 70.3271 154.399 70.3271C154.468 70.3271 154.551 70.3271 154.632 70.343C155.022 70.4001 155.377 70.6135 155.61 70.9358Z" fill="#AE9ECA"/>
<path d="M153.314 81.9234C153.5 82.2742 153.546 82.6746 153.435 83.0582C153.322 83.4555 153.066 83.7682 152.714 83.9605C152.363 84.1528 151.951 84.193 151.565 84.0757C151.181 83.9648 150.859 83.708 150.669 83.3561C150.274 82.6281 150.541 81.712 151.269 81.32C152.001 80.9185 152.913 81.1922 153.314 81.9234Z" fill="#AE9ECA"/>
<path d="M153.267 74.3926C153.393 74.7751 153.361 75.1851 153.184 75.5475C153.011 75.9068 152.697 76.1709 152.32 76.2988C151.936 76.4277 151.537 76.4013 151.174 76.2195C150.812 76.041 150.541 75.7388 150.412 75.3552C150.282 74.9769 150.314 74.5701 150.492 74.2077C150.669 73.8453 150.979 73.5811 151.357 73.4512C151.519 73.3973 151.681 73.374 151.838 73.374C152.07 73.374 152.296 73.4216 152.502 73.5241C152.865 73.709 153.136 74.0165 153.267 74.3926Z" fill="#AE9ECA"/>
<path d="M152.471 78.76C152.485 79.5873 151.833 80.2783 150.996 80.2942C150.179 80.3238 149.482 79.6518 149.465 78.8287C149.448 77.9929 150.109 77.3039 150.933 77.2881C150.95 77.2881 150.958 77.2881 150.963 77.2881C151.783 77.2881 152.456 77.9442 152.471 78.76Z" fill="#AE9ECA"/>
<path d="M159.834 99.5773C159.744 99.5773 159.669 99.5023 159.669 99.4124V97.0625C159.669 97.0625 159.987 97.0625 159.998 97.0625L160.003 99.4124C160.002 99.5044 159.926 99.5773 159.834 99.5773Z" fill="#453E77"/>
<path d="M158.942 99.5773C158.852 99.5773 158.777 99.5044 158.777 99.4124V97.0625H159.133L159.111 99.4124C159.11 99.5044 159.04 99.5773 158.942 99.5773Z" fill="#453E77"/>
<path d="M158.05 99.5773C157.961 99.5773 157.887 99.5044 157.887 99.4124V97.0625H158.242L158.222 99.4124C158.222 99.5044 158.15 99.5773 158.05 99.5773Z" fill="#453E77"/>
<path d="M157.165 99.5773C157.067 99.5773 156.994 99.5044 156.994 99.4124V97.0625C157.009 97.0625 157.349 97.0625 157.349 97.0625L157.331 99.4124C157.332 99.5023 157.251 99.5773 157.165 99.5773Z" fill="#453E77"/>
<path d="M162.963 71.0802C163.144 71.1996 163.195 71.4427 163.075 71.6265C163.016 71.7132 162.928 71.7734 162.824 71.7945C162.721 71.8157 162.618 71.7945 162.529 71.7375C162.438 71.6772 162.381 71.5906 162.36 71.487C162.355 71.4596 162.354 71.4321 162.354 71.4057C162.354 71.3296 162.374 71.2556 162.418 71.1912C162.474 71.1014 162.567 71.0433 162.668 71.0221C162.693 71.0168 162.719 71.0137 162.747 71.0137C162.823 71.0137 162.897 71.0348 162.963 71.0802Z" fill="white"/>
<path d="M159.177 69.6359C159.357 69.7553 159.407 69.9983 159.289 70.1822C159.228 70.2678 159.142 70.3291 159.038 70.3502C158.935 70.3703 158.831 70.3502 158.743 70.2921C158.653 70.234 158.593 70.1463 158.574 70.0438C158.568 70.0152 158.565 69.9888 158.565 69.9624C158.565 69.8853 158.587 69.8124 158.631 69.7468C158.688 69.6581 158.778 69.5989 158.882 69.5778C158.906 69.5715 158.934 69.5693 158.962 69.5693C159.038 69.5693 159.111 69.5915 159.177 69.6359Z" fill="white"/>
<path d="M155.108 70.9574C155.289 71.0757 155.339 71.3198 155.221 71.5026C155.16 71.5882 155.074 71.6494 154.969 71.6706C154.867 71.6917 154.762 71.6706 154.676 71.6135C154.585 71.5543 154.526 71.4677 154.506 71.3642C154.5 71.3356 154.496 71.3082 154.496 71.2817C154.496 71.2057 154.518 71.1317 154.563 71.0672C154.62 70.9785 154.71 70.9193 154.814 70.8982C154.837 70.8929 154.866 70.8887 154.892 70.8887C154.968 70.8897 155.044 70.9119 155.108 70.9574Z" fill="white"/>
<path d="M152.548 73.9152C152.729 74.0346 152.78 74.2776 152.661 74.4615C152.6 74.5471 152.513 74.6083 152.41 74.6295C152.306 74.6506 152.204 74.6295 152.115 74.5714C152.025 74.5133 151.966 74.4266 151.945 74.3231C151.94 74.2945 151.938 74.2681 151.938 74.2406C151.938 74.1656 151.96 74.0906 152.003 74.0261C152.059 73.9363 152.151 73.8782 152.254 73.8571C152.278 73.8507 152.306 73.8486 152.333 73.8486C152.409 73.8497 152.485 73.8708 152.548 73.9152Z" fill="white"/>
<path d="M151.539 77.7667C151.72 77.8861 151.772 78.1291 151.651 78.313C151.591 78.3985 151.504 78.4598 151.401 78.481C151.297 78.5021 151.194 78.481 151.106 78.4228C151.016 78.3647 150.957 78.277 150.937 78.1745C150.931 78.146 150.93 78.1196 150.93 78.0932C150.93 78.0171 150.95 77.9431 150.993 77.8776C151.05 77.7878 151.141 77.7308 151.245 77.7096C151.268 77.7043 151.296 77.7012 151.324 77.7012C151.4 77.7012 151.475 77.7213 151.539 77.7667Z" fill="white"/>
<path d="M152.667 81.6407C152.848 81.7601 152.898 82.0042 152.778 82.188C152.719 82.2726 152.632 82.3349 152.529 82.356C152.427 82.3772 152.322 82.356 152.233 82.2979C152.143 82.2388 152.083 82.1511 152.064 82.0496C152.058 82.0211 152.056 81.9936 152.056 81.9672C152.056 81.8922 152.078 81.8172 152.122 81.7538C152.178 81.664 152.269 81.6058 152.373 81.5847C152.396 81.5784 152.424 81.5752 152.452 81.5752C152.529 81.5752 152.602 81.5963 152.667 81.6407Z" fill="white"/>
<path d="M155.378 84.7403C155.559 84.8608 155.61 85.1038 155.49 85.2877C155.431 85.3732 155.342 85.4345 155.24 85.4557C155.137 85.4757 155.033 85.4557 154.945 85.3975C154.853 85.3384 154.795 85.2517 154.775 85.1482C154.77 85.1207 154.768 85.0932 154.768 85.0668C154.768 84.9918 154.789 84.9168 154.833 84.8523C154.89 84.7636 154.981 84.7044 155.082 84.6843C155.107 84.678 155.135 84.6748 155.164 84.6748C155.238 84.6748 155.313 84.6959 155.378 84.7403Z" fill="white"/>
<path d="M159.183 86.0812C159.363 86.1995 159.413 86.4446 159.294 86.6264C159.234 86.713 159.148 86.7743 159.044 86.7955C158.94 86.8166 158.837 86.7955 158.749 86.7373C158.659 86.6782 158.6 86.5915 158.58 86.489C158.574 86.4605 158.572 86.433 158.572 86.4077C158.572 86.3316 158.592 86.2576 158.638 86.1921C158.695 86.1034 158.785 86.0442 158.887 86.0241C158.91 86.0188 158.939 86.0157 158.966 86.0157C159.045 86.0146 159.119 86.0368 159.183 86.0812Z" fill="white"/>
<path d="M163.165 84.8478C163.343 84.9672 163.395 85.2102 163.275 85.394C163.216 85.4807 163.129 85.542 163.025 85.5621C162.923 85.5832 162.818 85.5621 162.73 85.505C162.639 85.4448 162.581 85.3581 162.56 85.2556C162.555 85.2282 162.553 85.1996 162.553 85.1743C162.553 85.0982 162.573 85.0242 162.618 84.9587C162.675 84.87 162.766 84.8108 162.869 84.7907C162.892 84.7844 162.92 84.7823 162.948 84.7823C163.024 84.7812 163.099 84.8034 163.165 84.8478Z" fill="white"/>
<path d="M165.804 81.8517C165.986 81.9711 166.037 82.2152 165.915 82.399C165.857 82.4846 165.769 82.5459 165.666 82.567C165.563 82.5871 165.459 82.567 165.37 82.5078C165.281 82.4487 165.222 82.3631 165.202 82.2595C165.195 82.2321 165.193 82.2046 165.193 82.1782C165.193 82.1032 165.216 82.0281 165.259 81.9637C165.315 81.8749 165.407 81.8157 165.509 81.7957C165.534 81.7893 165.561 81.7862 165.589 81.7862C165.665 81.7851 165.74 81.8073 165.804 81.8517Z" fill="white"/>
<path d="M166.757 77.9786C166.937 78.098 166.988 78.3421 166.868 78.5249C166.807 78.6115 166.721 78.6728 166.617 78.6939C166.514 78.714 166.412 78.6939 166.323 78.6358C166.232 78.5766 166.174 78.49 166.152 78.3854C166.149 78.3579 166.146 78.3304 166.146 78.304C166.146 78.228 166.167 78.154 166.21 78.0895C166.267 78.0008 166.359 77.9416 166.461 77.9215C166.485 77.9163 166.513 77.9131 166.54 77.9131C166.618 77.9131 166.693 77.9342 166.757 77.9786Z" fill="white"/>
<path d="M165.804 74.2082C165.986 74.3276 166.037 74.5706 165.915 74.7544C165.857 74.84 165.769 74.9013 165.666 74.9224C165.563 74.9425 165.459 74.9224 165.37 74.8643C165.281 74.8052 165.222 74.7185 165.202 74.615C165.195 74.5875 165.193 74.56 165.193 74.5336C165.193 74.4575 165.216 74.3836 165.259 74.3191C165.315 74.2304 165.407 74.1722 165.509 74.15C165.534 74.1437 165.561 74.1416 165.589 74.1416C165.665 74.1416 165.74 74.1638 165.804 74.2082Z" fill="white"/>
<path d="M143.677 51.5086C148.563 51.5086 152.523 47.5481 152.523 42.6625C152.523 37.7769 148.563 33.8164 143.677 33.8164C138.792 33.8164 134.831 37.7769 134.831 42.6625C134.831 47.5481 138.792 51.5086 143.677 51.5086Z" fill="#52D7A7"/>
<path d="M144.719 46.6339V47.0692C144.719 47.7951 145.309 48.3837 146.034 48.3837H146.514C147.241 48.3837 147.829 47.7951 147.829 47.0692V46.4976C147.829 45.4769 148.544 45.2983 148.876 44.5819C149.208 43.8655 149.081 43.67 149.081 43.09V41.9488C149.081 41.3613 148.791 41.1574 148.411 41.1352C148.385 41.1352 148.352 41.1352 148.331 41.1415C148.309 41.1468 147.805 41.2187 147.805 42.2563C147.805 43.3256 147.618 43.8074 147.114 44.0293L147.047 44.0578C146.613 44.247 145.955 44.5322 145.955 45.6554C145.955 45.6924 145.925 45.722 145.888 45.722C145.851 45.722 145.821 45.6924 145.821 45.6554C145.821 44.4445 146.557 44.1276 146.995 43.9374L147.062 43.9088C147.438 43.7429 147.673 43.408 147.673 42.2573C147.673 41.2271 148.17 41.0887 148.313 41.0686V38.6468C148.313 38.3214 148.047 38.0572 147.723 38.0572C147.508 38.0572 147.322 38.1735 147.218 38.3467V42.1886C147.218 42.2256 147.19 42.2542 147.153 42.2542C147.115 42.2542 147.085 42.2256 147.085 42.1886V37.7392C146.989 37.5479 146.793 37.418 146.563 37.418C146.335 37.418 146.14 37.549 146.043 37.7392V42.3154C146.043 42.3524 146.011 42.3831 145.977 42.3831C145.939 42.3831 145.91 42.3524 145.91 42.3154V38.6341C145.813 38.4429 145.616 38.3129 145.39 38.3129C145.161 38.3129 144.968 38.444 144.868 38.6331V42.7708C144.868 42.8068 144.839 42.8364 144.802 42.8364C144.765 42.8364 144.735 42.8068 144.735 42.7708V39.8144C144.655 39.6401 144.501 39.5228 144.284 39.5228C143.909 39.5228 143.798 39.9222 143.798 40.2476V43.7567C143.798 44.4551 143.798 44.9243 144.274 45.4779C144.788 46.0696 144.719 46.4141 144.719 46.6339Z" fill="white"/>
<path d="M142.471 46.6339V47.0692C142.471 47.7951 141.883 48.3837 141.157 48.3837H140.677C139.951 48.3837 139.364 47.7951 139.364 47.0692V46.4976C139.364 45.4769 138.646 45.2983 138.316 44.5819C137.985 43.8655 138.112 43.67 138.112 43.09V41.9488C138.112 41.3613 138.402 41.1574 138.781 41.1352C138.807 41.1352 138.839 41.1352 138.86 41.1415C138.882 41.1468 139.386 41.2187 139.386 42.2563C139.386 43.3256 139.574 43.8074 140.076 44.0293L140.145 44.0578C140.581 44.247 141.238 44.5322 141.238 45.6554C141.238 45.6924 141.267 45.722 141.305 45.722C141.341 45.722 141.371 45.6924 141.371 45.6554C141.371 44.4445 140.636 44.1276 140.198 43.9374L140.13 43.9088C139.754 43.7429 139.519 43.408 139.519 42.2573C139.519 41.2271 139.023 41.0887 138.881 41.0686V38.6468C138.881 38.3214 139.143 38.0572 139.47 38.0572C139.684 38.0572 139.871 38.1735 139.972 38.3467V42.1886C139.972 42.2256 140.003 42.2542 140.039 42.2542C140.076 42.2542 140.107 42.2256 140.107 42.1886V37.7392C140.204 37.5479 140.4 37.418 140.628 37.418C140.857 37.418 141.051 37.549 141.149 37.7392V42.3154C141.149 42.3524 141.18 42.3831 141.215 42.3831C141.252 42.3831 141.281 42.3524 141.281 42.3154V38.6341C141.381 38.4429 141.574 38.3129 141.802 38.3129C142.032 38.3129 142.224 38.444 142.322 38.6331V42.7708C142.322 42.8068 142.352 42.8364 142.39 42.8364C142.426 42.8364 142.457 42.8068 142.457 42.7708V39.8144C142.537 39.6401 142.69 39.5228 142.908 39.5228C143.282 39.5228 143.393 39.9222 143.393 40.2476V43.7567C143.393 44.4551 143.393 44.9243 142.915 45.4779C142.404 46.0696 142.471 46.4141 142.471 46.6339Z" fill="white"/>
<path d="M129.898 44.5487C129.898 45.1309 129.426 45.6021 128.844 45.6021H81.331C80.7488 45.6021 80.2754 45.1309 80.2754 44.5487C80.2754 43.9665 80.7477 43.4941 81.331 43.4941H128.844C129.424 43.4941 129.898 43.9665 129.898 44.5487Z" fill="#D5CAE5"/>
<defs>
<linearGradient id="paint0_linear_1337_1412" x1="50.0878" y1="157.016" x2="50.1049" y2="154.16" gradientUnits="userSpaceOnUse">
<stop stop-color="#3D342B"/>
<stop offset="1" stop-color="#291C17"/>
</linearGradient>
<linearGradient id="paint1_linear_1337_1412" x1="37.9697" y1="156.872" x2="38.0165" y2="154.017" gradientUnits="userSpaceOnUse">
<stop stop-color="#3D342B"/>
<stop offset="1" stop-color="#291C17"/>
</linearGradient>
<linearGradient id="paint2_linear_1337_1412" x1="52.1031" y1="132.693" x2="53.0599" y2="117.252" gradientUnits="userSpaceOnUse">
<stop stop-color="#505050"/>
<stop offset="1" stop-color="#919191"/>
</linearGradient>
<linearGradient id="paint3_linear_1337_1412" x1="38.6195" y1="132.526" x2="39.5775" y2="117.068" gradientUnits="userSpaceOnUse">
<stop stop-color="#595959"/>
<stop offset="1" stop-color="#C0C0C0"/>
</linearGradient>
<linearGradient id="paint4_linear_1337_1412" x1="50.995" y1="92.4569" x2="53.9947" y2="97.3406" gradientUnits="userSpaceOnUse">
<stop stop-color="#BABABA"/>
<stop offset="1" stop-color="#363636"/>
</linearGradient>
<linearGradient id="paint5_linear_1337_1412" x1="51.5625" y1="93.075" x2="54.2131" y2="98.8993" gradientUnits="userSpaceOnUse">
<stop stop-color="#EDEDED"/>
<stop offset="1" stop-color="#363636"/>
</linearGradient>
</defs>
</svg>
