<svg width="143" height="92" viewBox="0 0 143 92" fill="none" xmlns="http://www.w3.org/2000/svg">
<path d="M6.93823 89.8135H0.876465L10.1128 62.8125H17.4027L26.626 89.8135H20.5642L13.8623 68.983H13.6532L6.93823 89.8135ZM6.55938 79.2002H20.8777V83.6567H6.55938V79.2002ZM52.2252 62.8125V89.8135H47.3392L35.699 72.8196H35.5031V89.8135H29.8463V62.8125H34.8106L46.3594 79.7934H46.5946V62.8125H52.2252ZM61.5106 89.8135H55.4488L64.6852 62.8125H71.9747L81.1985 89.8135H75.1363L68.4348 68.983H68.2253L61.5106 89.8135ZM61.1317 79.2002H75.4503V83.6567H61.1317V79.2002ZM84.4184 62.8125H91.3952L98.7632 80.9539H99.0764L106.445 62.8125H113.421V89.8135H107.934V72.2394H107.712L100.788 89.6822H97.0519L90.128 72.173H89.9056V89.8135H84.4184V62.8125ZM122.693 89.8135H116.632L125.868 62.8125H133.158L142.381 89.8135H136.319L129.618 68.983H129.408L122.693 89.8135ZM122.315 79.2002H136.633V83.6567H122.315V79.2002Z" fill="white"/>
<path fill-rule="evenodd" clip-rule="evenodd" d="M74.0477 29.2579C73.2198 27.2764 72.5248 25.7661 71.4732 23.9036C67.9679 17.6938 63.2312 12.9871 57.4028 9.05278C57.0156 8.79133 56.2179 8.34753 55.8886 8.03435L51.3116 5.61761C47.0344 3.28595 37.0354 0.229648 32.8799 0C35.1721 26.8494 46.9828 50.6733 72.1689 61.8446C73.3032 62.3477 75.9671 63.5628 77.1306 63.7716C76.9367 61.2222 74.8437 54.8629 73.8226 52.0732C73.1757 50.3084 72.3689 48.3735 71.7051 46.8316C69.1165 40.8117 64.7388 33.5835 59.7709 29.3911L56.6295 26.9813C55.608 26.3333 55.831 26.5282 55.7613 26.0883C56.2591 25.8072 56.9347 26.3726 57.7732 26.8885C62.0168 29.4989 65.6352 33.3424 68.6174 37.3165C70.3165 39.581 71.8489 42.0181 73.373 44.708C73.9107 45.7729 76.9767 52.4572 77.6283 52.8328C78.6562 49.3935 77.2723 39.876 76.2804 36.0256C75.58 33.3737 75.0823 31.7333 74.0477 29.2579Z" fill="white"/>
<path fill-rule="evenodd" clip-rule="evenodd" d="M77.0196 32.2118C80.2259 38.6133 87.8021 39.0268 92.1869 33.6635C95.3661 28.9068 93.747 22.8904 88.7934 20.4377C81.4328 16.7931 73.4173 25.0216 77.0196 32.2118Z" fill="white"/>
<path fill-rule="evenodd" clip-rule="evenodd" d="M102.003 39.668C102.788 38.4737 102.773 37.5391 103.378 37.4506C104.466 39.0656 99.5946 45.1865 98.539 46.4117C96.3151 48.9922 93.7088 51.0303 91.1133 53.1688C91.8964 53.4401 100.014 49.4714 100.829 49.0113C112.117 42.6327 117.977 35.948 116.845 22.6406C115.928 23.1951 113.583 30.0693 102.242 33.4475C97.4514 34.8745 94.199 34.7395 89.8956 37.9996C84.1501 42.3521 82.0238 48.6291 81.834 55.5584C85.8736 55.6484 100.17 43.0118 102.003 39.668Z" fill="white"/>
</svg>
