<svg width="31" height="31" viewBox="0 0 31 31" fill="none" xmlns="http://www.w3.org/2000/svg">
<path d="M24.25 6H6.75C5.75544 6 4.80161 6.39509 4.09835 7.09835C3.39509 7.80161 3 8.75544 3 9.75V22.25C3 23.2446 3.39509 24.1984 4.09835 24.9016C4.80161 25.6049 5.75544 26 6.75 26H24.25C25.2446 26 26.1984 25.6049 26.9017 24.9016C27.6049 24.1984 28 23.2446 28 22.25V9.75C28 8.75544 27.6049 7.80161 26.9017 7.09835C26.1984 6.39509 25.2446 6 24.25 6V6ZM23.4125 8.5L15.5 14.4375L7.5875 8.5H23.4125ZM24.25 23.5H6.75C6.41848 23.5 6.10054 23.3683 5.86612 23.1339C5.6317 22.8995 5.5 22.5815 5.5 22.25V10.0625L14.75 17C14.9664 17.1623 15.2295 17.25 15.5 17.25C15.7705 17.25 16.0336 17.1623 16.25 17L25.5 10.0625V22.25C25.5 22.5815 25.3683 22.8995 25.1339 23.1339C24.8995 23.3683 24.5815 23.5 24.25 23.5Z" fill="#333333"/>
</svg>
