<svg width="25" height="20" viewBox="0 0 25 20" fill="none" xmlns="http://www.w3.org/2000/svg">
<g clip-path="url(#clip0_1169_128)">
<path d="M20.75 0H3.25C2.25544 0 1.30161 0.395088 0.59835 1.09835C-0.104912 1.80161 -0.5 2.75544 -0.5 3.75V16.25C-0.5 17.2446 -0.104912 18.1984 0.59835 18.9016C1.30161 19.6049 2.25544 20 3.25 20H20.75C21.7446 20 22.6984 19.6049 23.4017 18.9016C24.1049 18.1984 24.5 17.2446 24.5 16.25V3.75C24.5 2.75544 24.1049 1.80161 23.4017 1.09835C22.6984 0.395088 21.7446 0 20.75 0ZM19.9125 2.5L12 8.4375L4.0875 2.5H19.9125ZM20.75 17.5H3.25C2.91848 17.5 2.60054 17.3683 2.36612 17.1339C2.1317 16.8995 2 16.5815 2 16.25V4.0625L11.25 11C11.4664 11.1623 11.7295 11.25 12 11.25C12.2705 11.25 12.5336 11.1623 12.75 11L22 4.0625V16.25C22 16.5815 21.8683 16.8995 21.6339 17.1339C21.3995 17.3683 21.0815 17.5 20.75 17.5Z" fill="white"/>
</g>
<defs>
<clipPath id="clip0_1169_128">
<rect width="25" height="20" fill="white"/>
</clipPath>
</defs>
</svg>
