<svg width="150" height="150" viewBox="0 0 150 150" fill="none" xmlns="http://www.w3.org/2000/svg">
<rect width="150" height="150" fill="white" fill-opacity="0.01"/>
<path d="M27.3777 78.4814L26.3462 78.8254C26.5754 78.5962 26.9193 78.4814 27.3777 78.4814Z" fill="#82BFAB"/>
<path d="M53.1653 99.1111C52.7068 99.3403 52.363 99.5695 52.1338 99.7988L50.4146 100.83L45.257 97.3919L60.3858 88.1084C61.532 89.713 62.9074 91.0882 64.5119 92.2343L53.1653 99.1111Z" fill="#AAD4C8"/>
<path d="M38.3809 89.8277L36.6617 90.8592L35.974 91.5469C34.3695 90.1715 32.9941 88.7961 31.848 87.4208L32.5357 87.0768L52.8221 74.355C53.2805 76.1888 53.9682 78.0225 54.8851 79.8563L38.3809 89.8277Z" fill="#AAD4C8"/>
<path d="M27.3782 78.4811C27.149 78.0226 26.9198 77.5643 26.6905 77.1059C26.6905 76.4182 26.5759 75.7304 26.3467 75.0427V74.3552C25.659 72.636 24.6275 70.573 23.2521 69.1976L20.1576 67.4784L15 64.3838L36.318 30L41.8194 33.4384C44.2263 34.8137 46.6331 35.1577 49.04 34.8138C50.1861 34.1261 51.4468 33.5531 52.8222 33.0946C53.9683 32.6362 55.3437 32.2922 56.9482 32.0629C62.7935 30.6876 68.9826 31.0316 75.1717 33.0946C77.4639 34.0115 79.7562 35.1577 82.0484 36.533L106.461 51.6618C107.492 52.3494 108.524 53.381 108.868 54.7564C109.555 57.5071 107.836 59.914 105.086 60.6017C103.71 60.9455 102.335 60.6016 101.303 59.914L97.1773 57.5071L77.9224 45.4727C76.8909 44.785 75.8594 45.1288 75.1717 45.8165L74.8279 46.1604C74.5986 46.3897 74.484 46.6189 74.484 46.8482C74.484 47.5358 74.7132 48.1089 75.1717 48.5673L74.484 48.9111V49.2549L67.6072 53.381L51.7907 63.0084L27.3782 78.4811Z" fill="#AAD4C8"/>
<path d="M135 64.3838L129.842 67.4784L126.748 69.1976C125.372 70.573 124.341 72.636 123.653 74.3552V75.0427C123.424 76.6473 122.965 78.252 122.278 79.8565C120.559 84.3264 117.808 88.4526 114.026 91.5471V85.0141V84.6704V83.6387H113.682C113.338 81.5756 111.275 79.8565 108.868 79.8565C108.18 79.8565 107.493 79.9711 106.805 80.2003C105.43 80.888 104.398 82.2633 104.054 83.6387V84.3264L103.71 85.0141H104.054L103.71 92.2346V98.0799L98.209 101.518V93.6101V88.4525V88.1087C98.209 86.7334 97.8652 85.7019 96.8337 84.6704C96.146 83.6388 94.7707 83.2949 93.3953 83.2949C91.6761 83.2949 90.6446 83.6388 89.6131 84.6704C88.9254 85.7019 88.2378 86.7334 88.2378 88.1087V88.4525V89.8279V93.6101V101.518V107.02V107.707L82.7363 111.146V102.206V96.017V95.673C82.7363 92.9223 80.3295 90.8594 77.5788 90.8594C75.1719 90.8594 72.765 92.9224 72.765 95.3293L72.4212 96.017L72.765 96.3607V98.7676L69.6705 100.831L60.043 106.676L59.0115 107.364L58.6677 107.02C57.98 108.051 56.6046 108.739 55.2293 108.739C52.4786 108.739 50.0717 106.676 50.0717 103.925C50.0717 102.206 50.7594 100.831 52.1348 99.7991C52.364 99.5699 52.7078 99.3406 53.1663 99.1114L64.5129 92.2346C62.9084 91.0885 61.533 89.7133 60.3868 88.1087L45.258 97.3922L43.5388 98.4239C42.5073 99.1116 41.4758 99.7991 40.1004 99.7991C37.3497 99.7991 34.9428 97.3922 34.9428 94.6415C34.9428 93.2662 35.6305 91.8909 36.662 90.8594L38.3812 89.8279L54.8855 79.8565C53.9686 78.0227 53.2809 76.189 52.8224 74.3552L32.536 87.0771L31.8483 87.421C31.1606 87.8795 30.3583 88.1087 29.4414 88.1087C26.6907 88.1087 24.2838 85.7019 24.2838 82.9512C24.2838 81.232 25.3154 79.8566 26.3469 78.8251L27.3784 78.4811L51.7909 63.0084L67.6075 53.381L74.4842 49.2549V48.9111L75.1719 48.5673C75.5157 47.8797 75.8596 46.8481 75.1719 46.1604V45.8165C75.8596 45.1288 76.8911 44.785 77.9226 45.4727L97.1776 57.5071L101.304 59.914C102.335 60.6016 103.71 60.9455 105.086 60.6017C107.837 59.914 109.556 57.5071 108.868 54.7564C108.524 53.381 107.493 52.3494 106.461 51.6618L82.0487 36.533C79.7564 35.1577 77.4642 34.0115 75.1719 33.0946C81.0171 31.0316 87.2062 30.6876 93.3953 32.0629C94.7707 32.2922 96.0314 32.6362 97.1776 33.0946C98.5529 33.5531 99.8136 34.1261 100.96 34.8138C103.367 35.1577 105.774 34.8137 108.18 33.4384L113.682 30L135 64.3838Z" fill="#616E7D"/>
<path d="M98.2081 93.6101V101.518V106.676V107.02V107.707C97.8643 110.114 95.8013 111.833 93.3944 111.833C90.6437 111.833 88.5807 110.114 88.2368 107.707V107.02V101.518V93.6101V89.8279V88.4525V88.1087C88.2368 86.7334 88.9245 85.7019 89.6121 84.6704C90.6437 83.6388 91.6752 83.2949 93.3944 83.2949C94.7697 83.2949 96.1451 83.6388 96.8328 84.6704C97.8643 85.7019 98.2081 86.7334 98.2081 88.1087V88.4525V93.6101Z" fill="#AAD4C8"/>
<path d="M82.7363 102.206V111.146V115.272V115.616V115.96V116.303C82.3925 118.71 80.3295 120.773 77.5788 120.773C75.5157 120.773 73.4527 119.054 72.7651 117.335V111.49V109.083V105.301L66.9198 109.083L65.5444 109.77L60.0431 106.676L69.6705 100.831L72.7651 102.55V98.7676V96.3607L72.4212 96.0169L72.7651 95.3292C72.7651 92.9224 75.1719 90.8594 77.5788 90.8594C80.3295 90.8594 82.7363 92.9223 82.7363 95.673V96.0169V102.206Z" fill="#AAD4C8"/>
<path d="M114.025 85.014V91.547V98.7675V99.1113V99.799C113.681 102.206 111.618 103.925 108.867 103.925C106.461 103.925 104.398 102.206 104.054 99.799V99.1113V98.7675V98.0798H103.71V92.2345L104.054 85.014H103.71L104.054 84.3263V83.6386C104.398 82.2632 105.429 80.8879 106.804 80.2002C107.492 79.971 108.18 79.8564 108.867 79.8564C111.274 79.8564 113.337 81.5756 113.681 83.6386H114.025V84.6703V85.014Z" fill="#AAD4C8"/>
<path d="M72.7653 111.489V117.335C71.8484 117.793 70.8169 118.137 69.6707 118.366C66.92 118.366 64.857 115.959 64.857 113.209C64.857 111.489 65.5447 109.77 66.92 109.082L72.7653 105.3V109.082V111.489Z" fill="#616E7D"/>
</svg>
