<svg width="150" height="150" viewBox="0 0 150 150" fill="none" xmlns="http://www.w3.org/2000/svg">
<rect width="150" height="150" fill="white" fill-opacity="0.01"/>
<path d="M124.3 93.8384V107.72V109.986V111.402C122.034 111.402 118.068 112.252 115.235 113.102C115.046 113.102 114.857 113.196 114.669 113.385C103.62 115.935 80.1077 122.167 68.7762 125H68.4929C68.1152 125 67.6431 125 67.0765 125C66.3211 125 65.5657 124.906 64.8102 124.717C64.6214 124.717 64.4325 124.622 64.2436 124.433L30.8159 100.354L29.3995 99.2209C28.8329 98.8432 28.2663 98.4654 27.6997 98.0877C26.5666 96.9546 26 95.2549 26 93.5552C26 90.4391 28.5496 87.8894 31.6657 87.6061C32.0434 87.4172 32.4212 87.3229 32.7989 87.3229C32.9878 87.3229 33.271 87.4172 33.6488 87.6061C33.8376 87.6061 34.0265 87.6061 34.2154 87.6061C34.5931 87.795 34.8763 87.9838 35.0652 88.1727C35.4429 88.1727 35.7262 88.2672 35.915 88.4561L39.5978 91.289L61.1276 105.17C61.6941 105.17 62.3551 105.17 63.1105 105.17C64.2437 104.887 70.7593 103.187 76.7083 101.77L76.9915 101.487C78.6912 101.109 80.391 100.637 82.0907 100.071C84.9236 99.5042 86.9066 98.9375 87.4731 98.9375C89.1729 97.8044 90.306 95.8214 90.306 93.8384C90.306 91.0056 88.323 88.456 85.4901 88.1727H80.1077H71.8924C69.9094 88.1727 68.2097 86.4731 68.2097 84.2068C68.2097 82.2238 69.9094 80.5239 71.8924 80.5239H86.34C88.4174 80.3351 90.7782 80.2407 93.4222 80.2407C99.6545 80.2407 103.904 82.7903 107.586 85.3398C112.969 89.0226 117.218 93.2718 124.3 93.2718V93.8384Z" fill="#616E7D"/>
<path d="M80.1075 73.7253V58.7112C80.1075 58.5223 80.013 58.4278 79.8242 58.4278C79.8242 58.2389 79.7298 58.1445 79.5409 58.1445H65.0933C64.9045 58.1445 64.81 58.2389 64.81 58.4278C64.6212 58.4278 64.5267 58.5223 64.5267 58.7112V73.7253H58.0112C57.4446 73.7253 57.1613 73.1586 57.1613 72.5921V50.2126L72.4588 34.915L87.7562 50.2126V72.5921C87.7562 73.1586 87.1897 73.7253 86.6231 73.7253H80.1075Z" fill="#AAD4C8"/>
<path d="M57.1605 50.2119V72.5914C57.1605 73.158 57.4438 73.7246 58.0104 73.7246H64.5259V75.9909C64.5259 76.1797 64.6204 76.3686 64.8093 76.5575C64.8093 76.5575 64.9037 76.5575 65.0926 76.5575H79.5402C79.729 76.5575 79.8234 76.5575 79.8234 76.5575C80.0122 76.3686 80.1067 76.1797 80.1067 75.9909V73.7246H86.6223C87.1889 73.7246 87.7555 73.158 87.7555 72.5914V50.2119L91.1548 53.6112V72.5914C91.1548 75.141 89.1719 77.1241 86.6223 77.1241H58.0104C55.7441 77.1241 53.7611 75.141 53.7611 72.5914V53.6112L57.1605 50.2119Z" fill="#616E7D"/>
<path d="M46.6793 48.7961L66.5093 28.9661L69.0589 26.4164C69.9087 25.5666 71.0419 25 72.4583 25C73.5915 25 74.7246 25.5666 75.5744 26.4164L78.1241 28.9661L98.2373 48.7961C99.937 50.7791 99.937 53.6119 98.2373 55.5949L95.4044 58.1445L91.1552 53.6118L87.7558 50.2125L72.4583 34.915L57.1608 50.2125L53.7614 53.6118L49.2288 58.1445L46.6793 55.5949C44.6963 53.6119 44.6963 50.7791 46.6793 48.7961Z" fill="#616E7D"/>
<path d="M79.5417 58.1445C79.7306 58.1445 79.825 58.2389 79.825 58.4277C80.0138 58.4277 80.1083 58.5223 80.1083 58.7111V73.7253V75.9915C80.1083 76.1804 80.0138 76.3693 79.825 76.5581C79.825 76.5581 79.7306 76.5581 79.5417 76.5581H65.0941C64.9053 76.5581 64.8108 76.5581 64.8108 76.5581C64.622 76.3693 64.5275 76.1804 64.5275 75.9915V73.7253V58.7111C64.5275 58.5223 64.622 58.4277 64.8108 58.4277C64.8108 58.2389 64.9053 58.1445 65.0941 58.1445H79.5417Z" fill="#616E7D"/>
</svg>
