<svg width="150" height="150" viewBox="0 0 150 150" fill="none" xmlns="http://www.w3.org/2000/svg">
<rect width="150" height="150" fill="white" fill-opacity="0.01"/>
<path fill-rule="evenodd" clip-rule="evenodd" d="M87.8433 25C88.5122 25.223 89.0696 25.4459 89.5155 25.6688C89.9615 26.1148 90.1845 26.6722 90.1845 27.3411V54.4317H62.0905C61.6445 54.4317 61.1987 54.5432 60.7528 54.7661C60.5298 54.9891 60.4182 55.3235 60.4182 55.7695V97.5759H37.0066C36.5607 97.5759 36.1149 97.353 35.6689 96.907C35.223 96.4611 35 95.9037 35 95.2348V27.3411C35 26.6722 35.223 26.1148 35.6689 25.6688C36.1149 25.4459 36.5607 25.223 37.0066 25H87.8433ZM59.4149 78.1777H41.3547V82.5256H59.4149V78.1777ZM59.4149 68.1442H41.0201V72.492H59.4149V68.1442ZM59.4149 58.1107H41.3547V62.4585H59.4149V58.1107ZM83.8298 47.7426H41.3547V52.4249H83.8298V47.7426ZM83.8298 37.3746H45.7025V42.0569H83.8298V37.3746Z" fill="#AAD4C8"/>
<path d="M45.7031 37.0391H83.4961V41.7215H45.7031V37.0391Z" fill="#616E7D"/>
<path d="M41.3557 47.4072H83.4965V51.7552H41.3557V47.4072Z" fill="#616E7D"/>
<path d="M41.3557 57.4414H59.0816V62.1237H41.3557V57.4414Z" fill="#616E7D"/>
<path d="M41.0195 67.8086H59.0799V72.4909H41.0195V67.8086Z" fill="#616E7D"/>
<path d="M41.3557 78.1777H59.0816V82.5256H41.3557V78.1777Z" fill="#616E7D"/>
<path fill-rule="evenodd" clip-rule="evenodd" d="M63.4299 57.4414H111.256V121.991H63.4299V57.4414ZM70.4533 70.1506H108.581V65.8027H70.4533V70.1506ZM66.1054 80.1842H108.581V75.8362H66.1054V80.1842ZM66.1054 90.2177H108.581V85.8698H66.1054V90.2177ZM66.1054 100.251H108.581V95.9033H66.1054V100.251ZM66.1054 110.619H97.8783V105.937H66.1054V110.619Z" fill="white"/>
<path fill-rule="evenodd" clip-rule="evenodd" d="M112.592 54.4307C113.038 54.4307 113.484 54.5422 113.93 54.7651C114.153 54.9881 114.265 55.3225 114.265 55.7684V123.662C114.265 124.108 114.153 124.442 113.93 124.665C113.484 124.888 113.038 125 112.592 125H62.09C61.6441 125 61.1983 124.888 60.7524 124.665C60.5294 124.442 60.4178 124.108 60.4178 123.662V55.7684C60.4178 55.3225 60.5294 54.9881 60.7524 54.7651C61.1983 54.5422 61.6441 54.4307 62.09 54.4307H112.592ZM110.92 57.4407H63.0936V121.99H110.92V57.4407Z" fill="#616E7D"/>
<path d="M70.4531 65.4668H108.581V69.8147H70.4531V65.4668Z" fill="#82BFAB"/>
<path d="M66.1018 75.8359H108.577V80.1839H66.1018V75.8359Z" fill="#82BFAB"/>
<path d="M66.1018 85.8691H108.577V90.5514H66.1018V85.8691Z" fill="#82BFAB"/>
<path d="M66.1018 96.2373H108.577V100.585H66.1018V96.2373Z" fill="#82BFAB"/>
<path d="M66.1018 106.605H97.8747V110.953H66.1018V106.605Z" fill="#82BFAB"/>
</svg>
