<svg width="150" height="150" viewBox="0 0 150 150" fill="none" xmlns="http://www.w3.org/2000/svg">
<rect width="150" height="150" fill="white" fill-opacity="0.01"/>
<path d="M61.501 64.1666L62.1677 56.8332H42.8345C40.1678 56.8332 38.1677 54.8333 38.1677 52.8333V29.8333C38.1677 27.5 40.1678 25.5 42.8345 25.5H91.1677C93.8343 25.5 95.8344 27.5 95.8344 29.8333V52.8333C95.8344 54.8333 93.8343 56.8332 91.1677 56.8332H68.8343L61.501 64.1666Z" fill="#616E7D"/>
<path d="M109.166 66.8334H100.166L100.499 71.1668L96.1655 66.8334H81.4988C79.8321 66.8334 78.4989 65.5001 78.4989 64.1668V58.5001H92.8322C95.8321 58.5001 98.1654 56.5001 98.1654 54.1668V45.8335H109.166C110.832 45.8335 112.165 47.1668 112.165 48.5001V64.1668C112.165 65.5001 110.832 66.8334 109.166 66.8334Z" fill="#AAD4C8"/>
<path d="M44.167 78.4995C50.5003 78.4995 55.5002 83.4995 55.5002 89.8328C55.5002 96.1661 50.5003 101.166 44.167 101.166C37.8337 101.166 32.8336 96.1661 32.8336 89.8328C32.8336 83.4995 37.8337 78.4995 44.167 78.4995Z" fill="#616E7D"/>
<path fill-rule="evenodd" clip-rule="evenodd" d="M112.166 102.167C118.166 102.167 122.832 107.167 122.832 112.833V118.166H100.166C100.166 112.5 96.8326 107.5 92.4993 104.5C94.1659 103.167 96.4991 102.167 98.8325 102.167H112.166ZM111.833 106.167C112.166 105.5 109.832 104.167 109.832 104.167L105.833 116.5L101.499 104.167C101.499 104.167 99.4992 105.5 99.4992 106.167C99.8325 106.167 102.832 109.167 102.832 109.167L100.833 111.167L105.833 116.5L110.833 111.167L108.499 109.167L111.833 106.167Z" fill="#616E7D"/>
<path fill-rule="evenodd" clip-rule="evenodd" d="M37.8323 102.167H50.8324C53.1657 102.167 55.499 103.167 57.499 104.5C52.8324 107.5 49.8323 112.5 49.499 118.166H26.8324V112.833C26.8324 107.167 31.8323 102.167 37.8323 102.167ZM38.1656 103.5C37.9434 103.5 37.7213 103.5 37.4991 103.5L40.1657 116.167H41.4989L42.8323 107.833L41.4989 105.166H46.8323L45.4989 107.833L46.8323 116.167H48.499L50.8324 103.5C50.6101 103.5 50.3879 103.5 50.1657 103.5H38.1656Z" fill="#616E7D"/>
<path d="M45.4997 107.833L46.8331 105.166H41.4997L42.8331 107.833L41.4997 116.166H40.1665L37.4999 103.5C37.7221 103.5 37.9442 103.5 38.1664 103.5H50.1665C50.3887 103.5 50.611 103.5 50.8332 103.5L48.4998 116.166H46.8331L45.4997 107.833Z" fill="white"/>
<path d="M74.8339 71.833C83.5006 71.833 90.1673 78.833 90.1673 87.1663C90.1673 95.833 83.5006 102.5 74.8339 102.5C66.5006 102.5 59.5007 95.833 59.5007 87.1663C59.5007 78.833 66.5006 71.833 74.8339 71.833Z" fill="#616E7D"/>
<path d="M73.167 111.167L71.5004 108.167L73.167 111.167Z" fill="#616E7D"/>
<path fill-rule="evenodd" clip-rule="evenodd" d="M83.8335 104.167C91.8335 104.167 98.1668 110.5 98.1668 118.5V125.5H51.5002V118.5C51.5002 110.5 58.1671 104.167 65.8337 104.167H83.8335ZM84.167 105.5C83.7225 105.5 83.389 105.5 83.1668 105.5H67.1669C66.7225 105.5 66.3892 105.5 66.1669 105.5L69.5003 123.167H80.8337L84.167 105.5Z" fill="#616E7D"/>
<path d="M76.4992 111.167L78.4994 108.167H71.4993L73.1659 111.167L71.166 123.167H69.1661L65.8328 105.5C66.2772 105.5 66.6105 105.5 66.8327 105.5H82.8326C83.2771 105.5 83.6104 105.5 83.8326 105.5L80.4993 123.167H78.4994L76.8327 111.167H76.4992Z" fill="white"/>
<path d="M73.1662 111.167L71.4995 108.167H78.4996L76.4995 111.167H76.833L78.4996 123.166H71.1663L73.1662 111.167Z" fill="#AAD4C8"/>
<path d="M108.5 109.167L110.5 111.167L105.5 116.5L109.833 104.167C109.833 104.167 111.833 105.5 111.833 106.167C111.5 106.167 108.5 109.167 108.5 109.167Z" fill="white"/>
<path d="M100.5 111.167L102.833 109.167L99.5 106.167C99.1667 105.5 101.5 104.167 101.5 104.167L105.5 116.5L100.5 111.167Z" fill="white"/>
<path d="M116.499 89.833V90.1664V96.1664C116.499 98.4997 117.5 100.166 119.166 100.833V101.166H105.499C105.277 101.166 105.055 101.166 104.833 101.166C98.4994 101.166 93.1662 95.8331 93.4996 89.1664C93.8329 83.4998 98.4996 78.8331 104.166 78.4997C110.833 77.8331 116.499 83.1664 116.499 89.833Z" fill="#616E7D"/>
<path fill-rule="evenodd" clip-rule="evenodd" d="M15.4999 100.166H25.8333C27.4999 100.166 29.4999 100.833 30.8333 101.833C27.1666 104.166 24.8331 107.833 24.8331 112.499H7.5V108.499C7.5 103.833 11.1665 100.166 15.4999 100.166ZM15.8333 103.166C16.1666 103.166 18.4999 105.499 18.4999 105.499L16.8333 107.166L20.4998 111.166L24.4999 107.166L22.8332 105.499C22.8332 105.499 25.1665 103.166 25.4998 103.166C25.4998 102.833 23.8332 101.499 23.8332 101.499L20.4998 111.166L17.5 101.499C17.5 101.499 15.8333 102.833 15.8333 103.166Z" fill="#616E7D"/>
<path d="M16.8333 107.167L18.5 105.5C18.5 105.5 16.1667 103.167 15.8334 103.167C15.8334 102.833 17.5 101.5 17.5 101.5L20.4999 111.167L16.8333 107.167Z" fill="white"/>
<path d="M22.833 105.5L24.4997 107.167L20.4996 111.167L23.833 101.5C23.833 101.5 25.4996 102.833 25.4996 103.167C25.1663 103.167 22.833 105.5 22.833 105.5Z" fill="white"/>
<path d="M11.4995 90.8331C11.4995 85.8331 15.833 81.8331 20.833 82.1664C25.1663 82.1664 28.4995 85.833 28.8329 90.1664C29.1662 95.1663 25.1663 99.4997 20.1663 99.4997H19.8329H9.49963L9.16638 99.1664C10.4997 98.4997 11.4995 97.1664 11.4995 95.4997V90.8331Z" fill="#616E7D"/>
<path fill-rule="evenodd" clip-rule="evenodd" d="M134.5 100.166C138.833 100.166 142.5 103.833 142.5 108.499V112.499H125.167C125.167 107.833 122.833 104.166 119.5 101.833C120.833 100.833 122.5 100.166 124.5 100.166H134.5ZM134.167 101.166C134.167 101.166 134.055 101.166 133.833 101.166H124.833C124.833 101.166 124.722 101.166 124.5 101.166L126.167 110.499H127.5L128.5 104.166L127.5 102.499H131.167L130.167 104.166H130.5L131.167 110.499H132.5L134.167 101.166Z" fill="#616E7D"/>
<path d="M129.499 81.833C134.166 81.833 138.166 85.833 138.166 90.4997C138.166 95.4997 134.166 99.1663 129.499 99.1663C124.499 99.1663 120.833 95.4997 120.833 90.4997C120.833 85.833 124.499 81.833 129.499 81.833Z" fill="#616E7D"/>
<path d="M130.5 104.166L131.166 102.499H127.5L128.5 104.166L127.5 110.499H126.166L124.5 101.166C124.722 101.166 124.944 101.166 125.166 101.166H133.833C134.055 101.166 134.278 101.166 134.5 101.166L132.5 110.499H131.5L130.5 104.166Z" fill="white"/>
</svg>
