<svg width="150" height="150" viewBox="0 0 150 150" fill="none" xmlns="http://www.w3.org/2000/svg">
<rect width="150" height="150" fill="white" fill-opacity="0.01"/>
<path d="M49.8878 88.4009L42.4439 92.433C43.3744 95.2245 42.7539 98.3261 41.2031 100.807L37.4812 107.631C36.5507 109.182 34.3795 109.182 33.7592 107.631L17.3205 76.9248C16.39 75.3739 17.6307 73.513 19.1815 73.8231L27.2457 74.1333C30.0372 74.4435 32.8287 75.6841 34.9998 77.8553L42.1337 74.1333L37.4812 65.4487C36.8609 63.8979 37.4812 61.7267 39.3422 60.7962L40.893 59.8657L64.7757 105.46L63.535 106.08C61.674 107.321 59.5029 106.701 58.5725 105.15L49.8878 88.4009Z" fill="#616E7D"/>
<path fill-rule="evenodd" clip-rule="evenodd" d="M127.739 120.037V113.214H114.402C108.199 113.214 102.306 110.112 98.5837 104.529L90.2092 92.1226L79.6637 97.7055L55.781 52.1113L105.717 25.4372C107.578 24.5067 109.75 25.127 110.68 26.6778L131.771 66.3789C132.392 67.9297 131.771 70.1009 129.91 71.0314L99.8244 87.1599L107.579 98.9462C109.129 101.117 111.611 102.668 114.402 102.668H127.739V95.8445C127.739 93.053 129.91 90.8819 132.702 90.8819V125C129.91 125 127.739 122.829 127.739 120.037ZM106.028 50.2503C103.857 51.491 102.926 54.5927 104.167 56.7638C105.407 58.935 108.199 59.8655 110.37 58.6248C112.851 57.3841 113.782 54.5927 112.541 52.1113C111.3 49.9402 108.199 49.0097 106.028 50.2503ZM104.787 47.769C107.889 46.2182 109.129 42.1861 107.579 39.0844C105.718 35.9828 101.996 35.0523 98.894 36.6031C95.7923 38.1539 94.8617 42.1861 96.4125 45.2877C97.9633 48.3894 101.995 49.3199 104.787 47.769Z" fill="#616E7D"/>
<path d="M55.7808 52.1113L79.6635 97.7055L70.0483 102.978L45.8555 57.074L55.7808 52.1113Z" fill="#82BFAB"/>
<path d="M40.8923 59.8657L45.8549 57.0742L70.0477 102.979L64.775 105.46L40.8923 59.8657Z" fill="#AAD4C8"/>
<path d="M107.578 39.0842C109.129 42.1859 107.888 46.218 104.787 47.7688C101.995 49.3197 97.9631 48.3892 96.4123 45.2875C94.8615 42.1859 95.7921 38.1537 98.8938 36.6029C101.995 35.0521 105.717 35.9826 107.578 39.0842Z" fill="#AAD4C8"/>
<path d="M112.541 52.1115C113.782 54.5928 112.852 57.3843 110.37 58.625C108.199 59.8656 105.408 58.9351 104.167 56.764C102.926 54.5928 103.857 51.4912 106.028 50.2505C108.199 49.0099 111.301 49.9404 112.541 52.1115Z" fill="#82BFAB"/>
</svg>
