<svg width="150" height="150" viewBox="0 0 150 150" fill="none" xmlns="http://www.w3.org/2000/svg">
<rect width="150" height="150" fill="white" fill-opacity="0.01"/>
<path d="M132.041 53.0739L123.512 61.0341C123.512 61.6027 123.797 62.1713 124.365 62.4556C126.924 63.0241 128.914 65.2985 129.198 68.71C129.388 69.0891 129.388 69.4682 129.198 69.8473C127.777 76.9546 120.385 78.376 116.405 74.3959C115.647 73.4483 115.078 72.5006 114.699 71.553C114.699 70.9844 114.131 70.7001 113.562 70.7001L105.318 78.6603C104.749 79.2289 103.896 79.2289 103.612 78.6603L95.9359 70.7001C95.083 69.8473 95.6517 68.71 96.5045 68.71C99.0632 68.1415 101.622 65.8671 102.475 62.4556C102.664 61.6974 102.664 60.9394 102.475 60.1812C102.096 58.665 101.432 57.4331 100.485 56.4855C99.7266 55.5378 98.4945 54.8744 96.7888 54.4954C96.2202 54.3059 95.557 54.2112 94.7988 54.2112C91.103 55.064 88.8286 57.3384 88.26 59.897C87.9757 61.0342 86.8386 61.3185 86.2701 60.7499V60.4655H85.9857L78.5941 52.5053C78.0255 52.221 78.0255 51.3682 78.5941 50.7996L86.8385 42.8394C87.1228 42.2708 86.8386 41.7022 86.2701 41.7022C85.1329 41.3231 84.1852 40.6597 83.4271 39.7121C79.7313 35.732 81.437 28.3405 88.5444 27.2033C88.9234 27.2033 89.3024 27.2033 89.6814 27.2033C93.093 27.7719 95.083 30.0462 95.9359 32.3205C95.9359 32.8891 96.5046 33.1734 97.0732 33.1734L105.318 25.2132C105.886 24.9289 106.455 24.9289 107.023 25.2132L107.308 25.4974L114.415 32.8892C114.984 33.4578 116.121 33.1734 116.121 32.3205C116.5 31.3729 117.163 30.4253 118.111 29.4776C121.238 26.6347 125.787 26.6346 128.63 29.7618C131.473 32.6048 131.188 37.1535 128.345 40.2807C127.398 41.0388 126.355 41.6074 125.218 41.9864C124.649 42.2707 124.365 43.1237 124.65 43.6923L131.757 51.0838L132.041 51.6525C132.61 51.9367 132.325 52.7896 132.041 53.0739Z" fill="#AAD4C8"/>
<path d="M92.8095 123.01C94.2309 120.736 94.5151 117.324 92.5251 114.197C92.146 113.629 91.6722 113.155 91.1036 112.776C89.5874 112.018 88.2608 111.638 87.1236 111.638C85.7969 111.638 84.3754 112.018 82.8592 112.776C82.2906 113.155 81.8168 113.629 81.4377 114.197C79.4477 117.324 79.4477 120.736 80.8691 123.01C81.4377 123.863 80.8692 124.716 80.0163 124.716H79.7319H68.9288C68.3602 124.716 68.076 124.432 67.7917 124.147C67.7917 123.958 67.7917 123.768 67.7917 123.579V111.638H67.5073C67.1283 111.449 66.7493 111.449 66.3702 111.638C66.1807 111.828 65.9912 111.923 65.8016 111.923C65.6121 111.923 65.3278 111.828 64.9488 111.638H64.6644C64.4749 111.828 64.1906 111.923 63.8115 111.923C62.3901 111.923 60.6844 111.354 59.2629 110.217C59.0734 110.217 58.8838 110.028 58.6943 109.648C58.5048 109.459 58.3152 109.175 58.1257 108.795C57.5571 107.469 57.2728 106.237 57.2728 105.1C57.2728 104.721 57.2728 104.436 57.2728 104.247C57.5571 100.835 60.4 98.2767 63.8115 98.2767C64.1906 98.2767 64.5697 98.3714 64.9488 98.561C65.3278 98.3714 65.7068 98.2767 66.0858 98.2767L66.3702 98.561C66.7493 98.561 67.0336 98.561 67.2231 98.561H68.0759V86.6206C68.0759 86.4311 67.9812 86.2415 67.7917 86.052C68.076 85.7677 68.3602 85.4835 68.9288 85.4835H69.2132H79.7319C80.3005 85.1993 80.8692 84.3463 80.5849 83.7777C80.0163 82.6405 79.7319 81.5033 79.7319 80.3661C79.7319 76.1017 83.1435 72.6903 87.1236 72.9746C91.1037 72.6903 94.5152 76.1017 94.5152 80.3661C94.5152 81.5033 94.2309 82.6405 93.6623 83.7777C93.0937 84.3463 93.6623 85.1993 94.5152 85.4835H104.75H105.318C105.887 85.4835 106.456 86.052 106.456 86.6206L106.171 98.2767C106.74 98.561 107.308 98.8453 107.593 98.561C109.867 97.4238 112.994 97.4238 115.837 99.4138C116.027 99.6033 116.216 99.8876 116.406 100.267C120.386 106.237 116.406 112.491 111.004 112.491C109.677 112.491 108.54 112.207 107.593 111.638C107.024 111.354 106.456 111.638 106.171 112.207V123.863C106.171 124.432 105.603 125 105.034 125H94.2309H93.9465C92.8094 125 92.5252 123.863 92.8095 123.01Z" fill="#616E7D"/>
<path d="M56.1351 80.3661C56.1351 79.608 55.9455 78.8499 55.5665 78.0918C54.7136 74.6803 51.8707 72.4059 48.1749 72.4059H47.8907C44.4792 72.4059 41.3519 74.6803 40.499 78.0918C40.3094 78.8499 40.2148 79.608 40.2148 80.3661C40.2148 81.6928 40.499 82.83 41.0676 83.7777V84.0621V84.3463C41.0676 84.6306 40.7833 84.9149 40.499 84.9149H30.2645C30.075 84.9149 29.9801 84.9149 29.9801 84.9149C29.601 84.9149 29.2221 85.0096 28.843 85.1991C28.843 85.0096 28.843 84.9149 28.843 84.9149V73.2588C28.5587 72.6902 27.9901 72.6903 27.4216 72.6903C26.4739 73.2589 25.4314 73.5432 24.2942 73.5432C18.6084 73.5432 14.6283 67.2888 18.6084 61.3186C18.7979 60.9396 19.0823 60.6551 19.4614 60.4656C22.3043 58.4755 25.1472 58.4756 27.4216 59.6128C27.9901 59.897 28.5587 59.6128 28.843 59.3285V47.6724C28.843 47.1038 29.4115 46.5353 29.9801 46.5353H30.2645H40.7834C41.6363 46.5353 41.9205 45.6824 41.6362 44.8295C41.0676 43.8818 40.7834 42.7448 40.7834 41.4181C40.7834 37.438 44.1948 34.0264 48.1749 34.0264C52.155 34.0264 55.5665 37.438 55.5665 41.4181C55.5665 42.7448 55.2822 43.8818 54.7136 44.8295C54.4293 45.6824 54.7136 46.5353 55.5665 46.5353H66.0854L66.3698 46.8196C66.9383 46.8196 67.5068 47.1039 67.5068 47.9568V59.3285C67.7911 59.8971 68.3597 59.897 68.9283 59.6128C71.2026 58.4756 74.0455 58.4755 76.8885 60.4656C77.078 60.8447 77.3624 61.1291 77.7415 61.3186C81.7216 67.2888 77.4572 73.8274 72.0556 73.8274C70.9184 73.8274 69.7812 73.5432 68.6441 72.9746C68.3598 72.6903 67.7912 72.9745 67.2226 73.2588V84.9149V85.1991C67.0331 85.0096 66.7488 84.9149 66.3698 84.9149C66.1802 84.9149 65.9907 84.9149 65.8011 84.9149H55.5665C55.2822 84.9149 54.998 84.6306 54.998 84.3463L55.2823 84.0621V83.7777C55.8508 82.83 56.1351 81.6928 56.1351 80.3661Z" fill="#616E7D"/>
<path d="M56.1348 105.099C56.1348 105.479 56.1348 105.952 56.1348 106.521C56.3244 106.9 56.4192 107.184 56.4192 107.374C56.7983 108.321 57.2721 109.269 57.8407 110.217C58.0302 110.596 58.3145 110.88 58.6935 111.07L58.9778 111.354C60.494 112.491 62.105 113.06 63.8108 113.06C64.1898 113.06 64.569 112.965 64.948 112.775C65.3271 112.965 65.706 113.06 66.0851 113.06C66.2746 113.06 66.5589 113.06 66.9379 113.06V123.579C66.9379 123.863 66.6538 124.147 66.3695 124.147H55.282H54.9978C54.8082 124.147 54.7134 124.052 54.7134 123.863C54.5238 123.863 54.4291 123.768 54.4291 123.579L54.7134 123.294C55.4715 121.968 55.8506 120.546 55.8506 119.03C55.8506 117.324 55.2819 115.618 54.1447 113.913C53.7657 113.155 53.1972 112.586 52.4391 112.207C51.1124 111.449 49.6909 111.07 48.1747 111.07C46.6584 111.07 45.237 111.449 43.9103 112.207C43.1521 112.586 42.5836 113.155 42.2046 113.913C41.0674 115.618 40.4987 117.324 40.4987 119.03C40.4987 120.451 41.0674 121.873 41.6359 123.294L41.9202 123.579C41.9202 123.768 41.8255 123.863 41.6359 123.863C41.6359 124.052 41.5411 124.147 41.3515 124.147H41.0673H29.9798C29.6955 124.147 29.4114 123.863 29.4114 123.579V111.923V111.638C29.1271 111.07 28.5585 110.785 27.9899 110.785C27.8004 110.785 27.5159 110.88 27.1369 111.07C26.3788 111.638 25.4311 111.923 24.294 111.923C20.5981 111.923 17.7552 108.795 17.7552 105.099C17.7552 103.678 18.0395 101.972 19.1767 100.266C19.3662 100.077 19.5558 99.8875 19.7453 99.698C21.4511 98.5608 22.8725 98.2765 24.294 98.2765C25.4311 98.2765 26.3788 98.4659 27.1369 98.845C27.5159 99.0345 27.8004 99.1294 27.9899 99.1294C28.5585 99.1294 29.0323 98.9398 29.4114 98.5607V98.2765V86.6204C29.4114 86.3361 29.6955 86.0518 29.9798 86.0518H30.2642V85.7675L40.7831 86.0518V85.7675C41.636 85.7675 42.2046 85.199 42.2046 84.3461L42.4888 84.0619C42.4888 83.8723 42.3941 83.6828 42.2046 83.4932V83.2088C41.636 82.2612 41.3515 81.2189 41.3515 80.0817C41.3515 79.8921 41.4464 79.6079 41.6359 79.2288C41.6359 79.0393 41.6359 78.755 41.6359 78.376C42.2045 76.6702 43.0573 75.5329 44.1945 74.68C45.3317 73.8272 46.469 73.543 47.8904 73.543H48.1747H48.4589C51.3018 73.543 53.8605 75.5331 54.7134 78.376C54.9029 78.9446 54.9978 79.5131 54.9978 80.0817C54.9978 81.2189 54.7133 82.2612 54.1447 83.2088V83.4932C53.9552 83.6828 53.8605 83.8723 53.8605 84.0619L54.1447 84.3461C54.1447 85.199 54.7133 85.7675 55.5662 85.7675V86.0518L66.0851 85.7675V86.0518H66.3695C66.6538 86.0518 66.9379 86.3361 66.9379 86.6204V97.1393C66.7484 97.1393 66.559 97.1393 66.3695 97.1393C65.9904 97.1393 65.6113 97.1393 65.2322 97.1393C64.8532 97.1393 64.3794 97.0446 63.8108 96.855V97.7079V96.855C61.8207 96.855 60.115 97.7078 58.6935 98.845C56.9878 100.551 56.1348 102.541 56.1348 105.099Z" fill="#616E7D"/>
</svg>
