<svg width="150" height="150" viewBox="0 0 150 150" fill="none" xmlns="http://www.w3.org/2000/svg">
<rect width="150" height="150" fill="white" fill-opacity="0.01"/>
<path d="M39.056 100.78L38.247 98.8921H42.0225L40.9438 100.78L42.0225 106.982H38.247L39.056 100.78Z" fill="#AAD4C8"/>
<path d="M74.384 25C78.6988 25 82.4743 28.5058 82.4743 32.8207C82.4743 37.1356 78.6988 40.6414 74.384 40.6414C70.0691 40.6414 66.5634 37.1356 66.5634 32.8207C66.5634 28.5058 70.0691 25 74.384 25Z" fill="#616E7D"/>
<path fill-rule="evenodd" clip-rule="evenodd" d="M78.969 41.4507C83.0141 41.4507 86.5199 44.6868 86.5199 48.732V52.5076H62.5186V48.732C62.5186 44.6868 65.7548 41.4507 69.8 41.4507H78.969ZM79.2387 42.2597C79.0589 42.2597 78.8791 42.2597 78.6993 42.2597H70.3392C70.1594 42.2597 69.9797 42.2597 69.8 42.2597L71.6876 51.1592H77.3509L79.2387 42.2597Z" fill="#616E7D"/>
<path d="M75.463 45.2258L76.272 43.6077H72.7662L73.5752 45.2258L72.7662 51.1587H71.4178L69.7998 42.2593C69.9796 42.2593 70.1592 42.2593 70.339 42.2593H78.6992C78.8789 42.2593 79.0588 42.2593 79.2385 42.2593L77.3508 51.1587H76.272L75.463 45.2258Z" fill="white"/>
<path d="M73.5746 45.2255L72.7656 43.6074H76.2714L75.4624 45.2255L76.2714 51.1585H72.7656L73.5746 45.2255Z" fill="#AAD4C8"/>
<path d="M40.1343 80.2842C44.4491 80.2842 47.9549 83.79 47.9549 88.3746C47.9549 92.6894 44.4491 96.1952 40.1343 96.1952C35.8194 96.1952 32.3135 92.6894 32.3135 88.3746C32.3135 83.79 35.8194 80.2842 40.1343 80.2842Z" fill="#616E7D"/>
<path fill-rule="evenodd" clip-rule="evenodd" d="M44.72 97.0049C48.7652 97.0049 52.0014 100.241 52.0014 104.286V107.792H28V104.286C28 100.241 31.5058 97.0049 35.551 97.0049H44.72ZM44.72 97.8139C44.5402 97.6341 44.3605 97.5442 44.1808 97.5442H36.0904C35.9106 97.5442 35.7308 97.6341 35.551 97.8139L37.169 106.713H43.102L44.72 97.8139Z" fill="#616E7D"/>
<path d="M40.9442 100.51L41.7532 98.8919H38.2474L39.0564 100.51L38.2474 106.713H37.1686L35.5506 97.8132C35.7304 97.6334 35.8202 97.5435 35.8202 97.5435H44.1804C44.3602 97.5435 44.5398 97.6334 44.7196 97.8132L43.1016 106.713H42.0228L40.9442 100.51Z" fill="white"/>
<path d="M109.983 80.2842C114.297 80.2842 117.803 83.79 117.803 88.3746C117.803 92.6894 114.297 96.1952 109.983 96.1952C105.668 96.1952 102.162 92.6894 102.162 88.3746C102.162 83.79 105.668 80.2842 109.983 80.2842Z" fill="#616E7D"/>
<path d="M108.093 106.713L108.902 100.51L108.093 106.713Z" fill="#616E7D"/>
<path fill-rule="evenodd" clip-rule="evenodd" d="M114.566 97.0049C118.611 97.0049 121.847 100.241 121.847 104.286V107.792H97.8456V104.286C97.8456 100.241 101.351 97.0049 105.397 97.0049H114.566ZM114.566 97.8139C114.386 97.6341 114.206 97.5442 114.026 97.5442H105.936C105.756 97.5442 105.576 97.6341 105.397 97.8139L107.015 106.713H112.948L114.566 97.8139Z" fill="#616E7D"/>
<path d="M108.902 100.51L108.093 98.8921L108.902 100.51Z" fill="#616E7D"/>
<path d="M110.789 100.51L111.598 98.8919H108.092L108.901 100.51L108.092 106.713H107.014L105.395 97.8132C105.395 97.6334 105.485 97.5435 105.665 97.5435H114.025C114.205 97.5435 114.385 97.6334 114.565 97.8132L112.947 106.713H111.868L110.789 100.51Z" fill="white"/>
<path d="M108.902 100.51L108.093 98.8921H111.599L110.79 100.51L111.869 106.713H108.093L108.902 100.51Z" fill="#AAD4C8"/>
<path d="M47.6871 54.3951H44.4509C43.3722 54.3951 42.5631 53.5861 42.5631 52.5074C42.5631 51.4287 43.3722 50.6196 44.4509 50.6196H52.0019C53.62 50.6196 54.6987 51.6983 54.6987 53.3164V60.8674C54.6987 61.9461 53.8896 62.7552 52.8109 62.7552C51.7322 62.7552 50.9233 61.9461 50.9233 60.8674V57.0919C45.7994 60.5977 42.0238 65.1823 39.5967 70.8456C39.327 71.6546 38.7876 72.194 37.9785 72.194H37.7089C36.3605 72.194 35.5515 70.8456 35.8211 69.4972C38.2483 63.2946 42.5632 58.1706 47.6871 54.3951Z" fill="#AAD4C8"/>
<path d="M103.24 65.7222L107.285 66.5312C104.318 61.4073 100.004 57.0924 94.6099 54.3956C93.8009 53.8562 93.5313 53.3169 93.5313 52.5079V52.2382C93.5313 50.8898 95.1494 50.0808 96.2281 50.6201C102.161 53.5866 107.015 58.4408 110.521 63.8344L111.06 60.8679C111.33 59.7892 112.409 59.2499 113.487 59.2499C114.566 59.5196 115.106 60.5983 114.836 61.677L113.218 69.228C112.948 70.5764 111.33 71.3854 109.982 71.1158L102.431 69.4977C101.622 69.228 100.813 68.1493 101.082 67.3403C101.352 66.2615 102.431 65.4525 103.24 65.7222Z" fill="#AAD4C8"/>
<path d="M67.9125 119.388L69.8003 122.084C70.3397 122.893 70.3396 123.972 69.2609 124.511C68.4519 125.32 67.3731 125.051 66.8338 124.242L62.2492 117.769C61.4401 116.691 61.7099 114.803 63.0583 113.994L69.2609 109.679C70.3396 109.14 71.4184 109.409 71.9577 110.218C72.4971 111.027 72.497 112.376 71.4183 112.915L68.1821 115.073C74.1151 116.96 80.3178 116.691 85.9811 114.803C86.7901 114.533 87.5991 114.803 88.1385 115.342C88.9475 116.421 88.6779 118.309 87.3295 118.578C81.1269 120.736 74.3848 121.006 67.9125 119.388Z" fill="#AAD4C8"/>
</svg>
