<svg width="150" height="150" viewBox="0 0 150 150" fill="none" xmlns="http://www.w3.org/2000/svg">
<rect width="150" height="150" fill="white" fill-opacity="0.01"/>
<path d="M124.017 114.358C125.748 115.743 124.709 119.553 121.938 122.324C119.168 125.095 115.704 125.787 113.972 124.056L111.201 121.631L110.855 121.285L121.246 111.241L121.592 111.587L124.017 114.358Z" fill="#82BFAB"/>
<path d="M120.902 110.896L121.248 111.242L110.858 121.286L108.433 118.862L118.824 108.817L120.902 110.896Z" fill="#AAD4C8"/>
<path fill-rule="evenodd" clip-rule="evenodd" d="M104.622 64.484C104.622 73.1427 101.851 81.1088 97.3482 87.3431L118.822 108.817L108.431 118.861L86.9576 97.041C80.7233 101.197 73.1036 103.622 65.1376 103.622C43.3175 103.275 26 85.6114 26 64.1377C26.3464 42.3176 44.0102 25 65.8303 25C87.3041 25.3464 104.968 43.0102 104.622 64.484ZM93.5384 64.484C93.5384 49.2445 81.416 36.7759 66.1766 36.7759C50.9372 36.7759 38.4685 48.8983 38.4685 64.1377C38.1222 79.3771 50.5909 91.8457 65.8303 91.8457C81.0698 92.1921 93.5384 79.7234 93.5384 64.484Z" fill="#616E7D"/>
<path d="M68.6015 59.2892V40.9326C73.7968 40.9326 78.2994 43.0107 81.4165 46.1279L68.6015 59.2892Z" fill="#82BFAB"/>
<path d="M65.8328 40.932L65.4863 64.4838L86.6138 75.9134C83.4967 82.8404 74.8379 88.0357 65.8328 88.0357C52.6715 88.0357 42.281 77.2988 42.281 64.1375C42.6274 51.3225 52.3251 40.5856 65.1401 40.932C65.371 40.932 65.6019 40.932 65.8328 40.932Z" fill="#AAD4C8"/>
<path d="M73.7968 65.1765L77.2603 54.4396L80.7238 50.9761L75.8748 66.2155L73.7968 65.1765Z" fill="#AAD4C8"/>
<path d="M71.3711 63.7924L72.7566 58.9435L76.2201 55.48L73.1028 64.8314L71.3711 63.7924Z" fill="#AAD4C8"/>
<path d="M81.4182 69.3326L86.9597 52.3613C87.4215 53.2849 87.8834 54.3241 88.3452 55.4786L83.4962 70.718L81.4182 69.3326Z" fill="#AAD4C8"/>
<path d="M83.8401 70.7185L88.6889 56.5181C89.1507 57.6726 89.497 58.9425 89.7279 60.3279L85.9181 72.1038L83.8401 70.7185Z" fill="#AAD4C8"/>
<path d="M86.6135 72.1047L89.7306 62.0605C89.7306 62.5223 89.7306 62.8687 89.7306 63.0996C89.7306 66.5631 89.0379 70.0266 87.6525 72.7974L86.6135 72.1047Z" fill="#AAD4C8"/>
<path d="M81.7644 49.9378L83.4962 48.2061C83.7271 48.437 84.0734 48.6678 84.5352 48.8987L78.3009 67.6017L76.2229 66.5626L81.7644 49.9378Z" fill="#AAD4C8"/>
<path d="M70.678 63.4454L69.2927 62.7527L71.7172 59.9819L70.678 63.4454Z" fill="#AAD4C8"/>
<path d="M78.9921 67.9479L84.8801 49.5913C85.3419 50.284 85.9192 50.9767 86.6119 51.6694L80.7239 69.3333L78.9921 67.9479Z" fill="#AAD4C8"/>
</svg>
