<svg width="50" height="50" viewBox="0 0 50 50" fill="none" xmlns="http://www.w3.org/2000/svg">
<path d="M36.9782 18.9872C36.8359 18.4571 36.5569 17.9738 36.1691 17.5855C35.7813 17.1972 35.2983 16.9175 34.7684 16.7746C32.8181 16.25 25 16.25 25 16.25C25 16.25 17.1819 16.25 15.2316 16.7718C14.7015 16.9143 14.2183 17.1938 13.8304 17.5821C13.4425 17.9705 13.1636 18.4541 13.0218 18.9844C12.5 20.9375 12.5 25.0112 12.5 25.0112C12.5 25.0112 12.5 29.0848 13.0218 31.0352C13.3092 32.1122 14.1574 32.9604 15.2316 33.2478C17.1819 33.7723 25 33.7723 25 33.7723C25 33.7723 32.8181 33.7723 34.7684 33.2478C35.8454 32.9604 36.6908 32.1122 36.9782 31.0352C37.5 29.0848 37.5 25.0112 37.5 25.0112C37.5 25.0112 37.5 20.9375 36.9782 18.9872ZM22.5167 28.75V21.2723L28.99 24.9833L22.5167 28.75Z" fill="#374D0B"/>
<rect x="0.5" y="0.5" width="49" height="49" rx="24.5" stroke="#374D0B"/>
</svg>
