<svg width="50" height="50" viewBox="0 0 50 50" fill="none" xmlns="http://www.w3.org/2000/svg">
<path d="M33.75 15H16.25C15.2554 15 14.3016 15.3951 13.5983 16.0983C12.8951 16.8016 12.5 17.7554 12.5 18.75V31.25C12.5 32.2446 12.8951 33.1984 13.5983 33.9016C14.3016 34.6049 15.2554 35 16.25 35H33.75C34.7446 35 35.6984 34.6049 36.4017 33.9016C37.1049 33.1984 37.5 32.2446 37.5 31.25V18.75C37.5 17.7554 37.1049 16.8016 36.4017 16.0983C35.6984 15.3951 34.7446 15 33.75 15ZM32.9125 17.5L25 23.4375L17.0875 17.5H32.9125ZM33.75 32.5H16.25C15.9185 32.5 15.6005 32.3683 15.3661 32.1339C15.1317 31.8995 15 31.5815 15 31.25V19.0625L24.25 26C24.4664 26.1623 24.7295 26.25 25 26.25C25.2705 26.25 25.5336 26.1623 25.75 26L35 19.0625V31.25C35 31.5815 34.8683 31.8995 34.6339 32.1339C34.3995 32.3683 34.0815 32.5 33.75 32.5Z" fill="#374D0B"/>
<rect x="0.5" y="0.5" width="49" height="49" rx="24.5" stroke="#374D0B"/>
</svg>
