<svg width="50" height="50" viewBox="0 0 50 50" fill="none" xmlns="http://www.w3.org/2000/svg">
<path fill-rule="evenodd" clip-rule="evenodd" d="M12.5 14.5886C12.5 14.0347 12.7201 13.5034 13.1117 13.1118C13.5034 12.7201 14.0347 12.5 14.5886 12.5H35.4091C35.6836 12.4996 35.9555 12.5533 36.2092 12.658C36.463 12.7628 36.6936 12.9166 36.8878 13.1106C37.082 13.3046 37.236 13.535 37.3411 13.7887C37.4461 14.0423 37.5001 14.3141 37.5 14.5886V35.4091C37.5003 35.6837 37.4465 35.9556 37.3416 36.2093C37.2367 36.4631 37.0828 36.6936 36.8887 36.8879C36.6946 37.0821 36.4641 37.2361 36.2104 37.3411C35.9567 37.4462 35.6848 37.5001 35.4102 37.5H14.5886C14.3143 37.5 14.0426 37.4459 13.7891 37.3409C13.5356 37.2359 13.3053 37.0819 13.1113 36.8879C12.9174 36.6938 12.7636 36.4634 12.6587 36.2099C12.5538 35.9563 12.4999 35.6846 12.5 35.4102V14.5886ZM22.3955 22.0318H25.7807V23.7318C26.2693 22.7545 27.5193 21.875 29.3977 21.875C32.9989 21.875 33.8523 23.8216 33.8523 27.3932V34.0091H30.208V28.2068C30.208 26.1727 29.7193 25.025 28.4784 25.025C26.7568 25.025 26.0409 26.2625 26.0409 28.2068V34.0091H22.3955V22.0318ZM16.1455 33.8534H19.7909V21.875H16.1455V33.8523V33.8534ZM20.3125 17.9682C20.3194 18.2803 20.2638 18.5907 20.1491 18.881C20.0344 19.1714 19.8629 19.436 19.6446 19.6591C19.4263 19.8823 19.1656 20.0596 18.8778 20.1807C18.59 20.3018 18.281 20.3641 17.9688 20.3641C17.6565 20.3641 17.3475 20.3018 17.0597 20.1807C16.7719 20.0596 16.5112 19.8823 16.2929 19.6591C16.0746 19.436 15.9031 19.1714 15.7884 18.881C15.6737 18.5907 15.6181 18.2803 15.625 17.9682C15.6385 17.3555 15.8913 16.7725 16.3294 16.344C16.7675 15.9154 17.3559 15.6755 17.9688 15.6755C18.5816 15.6755 19.17 15.9154 19.6081 16.344C20.0462 16.7725 20.299 17.3555 20.3125 17.9682Z" fill="#374D0B"/>
<rect x="0.5" y="0.5" width="49" height="49" rx="24.5" stroke="#374D0B"/>
</svg>
