<svg width="50" height="50" viewBox="0 0 50 50" fill="none" xmlns="http://www.w3.org/2000/svg">
<path fill-rule="evenodd" clip-rule="evenodd" d="M19.8466 12.575C21.1795 12.5136 21.6045 12.5 25 12.5C28.3955 12.5 28.8205 12.5148 30.1523 12.575C31.4841 12.6352 32.3932 12.8477 33.1886 13.1557C34.0216 13.4705 34.7773 13.9625 35.4023 14.5989C36.0386 15.2227 36.5295 15.9773 36.8432 16.8114C37.1523 17.6068 37.3636 18.5159 37.425 19.8455C37.4864 21.1807 37.5 21.6057 37.5 25C37.5 28.3955 37.4852 28.8205 37.425 30.1534C37.3648 31.483 37.1523 32.392 36.8432 33.1875C36.5295 34.0217 36.0378 34.7775 35.4023 35.4023C34.7773 36.0386 34.0216 36.5295 33.1886 36.8432C32.3932 37.1523 31.4841 37.3636 30.1545 37.425C28.8205 37.4864 28.3955 37.5 25 37.5C21.6045 37.5 21.1795 37.4852 19.8466 37.425C18.517 37.3648 17.608 37.1523 16.8125 36.8432C15.9783 36.5295 15.2225 36.0378 14.5977 35.4023C13.9618 34.778 13.4697 34.0226 13.1557 33.1886C12.8477 32.3932 12.6364 31.4841 12.575 30.1545C12.5136 28.8193 12.5 28.3943 12.5 25C12.5 21.6045 12.5148 21.1795 12.575 19.8477C12.6352 18.5159 12.8477 17.6068 13.1557 16.8114C13.4701 15.9774 13.9626 15.2219 14.5989 14.5977C15.2228 13.9619 15.9778 13.4698 16.8114 13.1557C17.6068 12.8477 18.5159 12.6364 19.8455 12.575H19.8466ZM30.0511 14.825C28.733 14.7648 28.3375 14.7523 25 14.7523C21.6625 14.7523 21.267 14.7648 19.9489 14.825C18.7295 14.8807 18.0682 15.0841 17.6273 15.2557C17.0443 15.483 16.6273 15.7523 16.1898 16.1898C15.7751 16.5932 15.4559 17.0844 15.2557 17.6273C15.0841 18.0682 14.8807 18.7295 14.825 19.9489C14.7648 21.267 14.7523 21.6625 14.7523 25C14.7523 28.3375 14.7648 28.733 14.825 30.0511C14.8807 31.2705 15.0841 31.9318 15.2557 32.3727C15.4557 32.9148 15.775 33.4068 16.1898 33.8102C16.5932 34.225 17.0852 34.5443 17.6273 34.7443C18.0682 34.9159 18.7295 35.1193 19.9489 35.175C21.267 35.2352 21.6614 35.2477 25 35.2477C28.3386 35.2477 28.733 35.2352 30.0511 35.175C31.2705 35.1193 31.9318 34.9159 32.3727 34.7443C32.9557 34.517 33.3727 34.2477 33.8102 33.8102C34.225 33.4068 34.5443 32.9148 34.7443 32.3727C34.9159 31.9318 35.1193 31.2705 35.175 30.0511C35.2352 28.733 35.2477 28.3375 35.2477 25C35.2477 21.6625 35.2352 21.267 35.175 19.9489C35.1193 18.7295 34.9159 18.0682 34.7443 17.6273C34.517 17.0443 34.2477 16.6273 33.8102 16.1898C33.4067 15.7751 32.9156 15.4559 32.3727 15.2557C31.9318 15.0841 31.2705 14.8807 30.0511 14.825ZM23.4034 28.8534C24.2951 29.2246 25.2879 29.2747 26.2124 28.9951C27.1369 28.7156 27.9357 28.1238 28.4723 27.3207C29.0089 26.5177 29.2501 25.5533 29.1546 24.5922C29.0591 23.6311 28.633 22.7329 27.9489 22.0511C27.5128 21.6153 26.9855 21.2816 26.4049 21.074C25.8244 20.8665 25.205 20.7902 24.5915 20.8507C23.9779 20.9112 23.3854 21.107 22.8566 21.424C22.3278 21.741 21.8758 22.1713 21.5333 22.6839C21.1908 23.1965 20.9661 23.7787 20.8756 24.3886C20.785 24.9984 20.8309 25.6208 21.0097 26.2108C21.1886 26.8008 21.496 27.3439 21.9099 27.8008C22.3238 28.2578 22.8339 28.6173 23.4034 28.8534ZM20.4568 20.4568C21.0534 19.8602 21.7617 19.3869 22.5412 19.064C23.3208 18.7412 24.1563 18.575 25 18.575C25.8437 18.575 26.6792 18.7412 27.4588 19.064C28.2383 19.3869 28.9466 19.8602 29.5432 20.4568C30.1398 21.0534 30.6131 21.7617 30.936 22.5412C31.2588 23.3208 31.425 24.1563 31.425 25C31.425 25.8437 31.2588 26.6792 30.936 27.4588C30.6131 28.2383 30.1398 28.9466 29.5432 29.5432C28.3383 30.7481 26.704 31.425 25 31.425C23.296 31.425 21.6617 30.7481 20.4568 29.5432C19.2519 28.3383 18.575 26.704 18.575 25C18.575 23.296 19.2519 21.6617 20.4568 20.4568ZM32.85 19.5318C32.9978 19.3924 33.1162 19.2246 33.1981 19.0386C33.2799 18.8526 33.3236 18.652 33.3266 18.4488C33.3296 18.2456 33.2917 18.0438 33.2153 17.8555C33.1389 17.6671 33.0255 17.496 32.8818 17.3523C32.7381 17.2086 32.567 17.0952 32.3786 17.0188C32.1903 16.9424 31.9885 16.9045 31.7853 16.9075C31.5821 16.9104 31.3815 16.9542 31.1955 17.036C31.0095 17.1179 30.8417 17.2362 30.7023 17.3841C30.431 17.6716 30.2825 18.0535 30.2883 18.4488C30.2941 18.844 30.4536 19.2215 30.7331 19.501C31.0126 19.7805 31.3901 19.94 31.7853 19.9458C32.1805 19.9516 32.5625 19.8031 32.85 19.5318Z" fill="#374D0B"/>
<rect x="0.5" y="0.5" width="49" height="49" rx="24.5" stroke="#374D0B"/>
</svg>
