<svg width="80" height="100" viewBox="0 0 80 100" fill="none" xmlns="http://www.w3.org/2000/svg">
<path fill-rule="evenodd" clip-rule="evenodd" d="M52.8431 0C53.512 0.222967 54.0694 0.445872 54.5154 0.668839C54.9613 1.11477 55.1843 1.67219 55.1843 2.34109V29.4316H27.0904C26.6445 29.4316 26.1986 29.5431 25.7527 29.7661C25.5297 29.989 25.4181 30.3234 25.4181 30.7694V72.5757H2.00662C1.56069 72.5757 1.11487 72.3527 0.668941 71.9068C0.223008 71.4609 0 70.9035 0 70.2346V2.34109C0 1.67219 0.223008 1.11477 0.668941 0.668839C1.11487 0.445872 1.56069 0.222967 2.00662 0H52.8431ZM24.4148 53.1776H6.35464V57.5254H24.4148V53.1776ZM24.4148 43.1441H6.02006V47.4919H24.4148V43.1441ZM24.4148 33.1106H6.35464V37.4584H24.4148V33.1106ZM48.8297 22.7426H6.35464V27.4249H48.8297V22.7426ZM48.8297 12.3746H10.7024V17.0569H48.8297V12.3746Z" fill="#AAD4C8"/>
<path d="M10.7031 12.0391H48.496V16.7214H10.7031V12.0391Z" fill="#616E7D"/>
<path d="M6.35547 22.4072H48.4961V26.7551H6.35547V22.4072Z" fill="#616E7D"/>
<path d="M6.35547 32.4409H24.0813V37.1232H6.35547V32.4409Z" fill="#616E7D"/>
<path d="M6.01953 42.8091H24.0799V47.4914H6.01953V42.8091Z" fill="#616E7D"/>
<path d="M6.35547 53.1772H24.0813V57.5251H6.35547V53.1772Z" fill="#616E7D"/>
<path fill-rule="evenodd" clip-rule="evenodd" d="M28.4277 32.4409H76.2541V96.9899H28.4277V32.4409ZM35.4511 45.1501H73.5785V40.8022H35.4511V45.1501ZM31.1033 55.1836H73.5785V50.8357H31.1033V55.1836ZM31.1033 65.2171H73.5785V60.8692H31.1033V65.2171ZM31.1033 75.2506H73.5785V70.9027H31.1033V75.2506ZM31.1033 85.6185H62.8761V80.9362H31.1033V85.6185Z" fill="white"/>
<path fill-rule="evenodd" clip-rule="evenodd" d="M77.5923 29.4307C78.0383 29.4307 78.4841 29.5422 78.93 29.7651C79.153 29.9881 79.2646 30.3225 79.2646 30.7684V98.6619C79.2646 99.1078 79.153 99.4423 78.93 99.6652C78.4841 99.8882 78.0383 99.9997 77.5923 99.9997H27.0902C26.6443 99.9997 26.1985 99.8882 25.7525 99.6652C25.5296 99.4423 25.418 99.1078 25.418 98.6619V30.7684C25.418 30.3225 25.5296 29.9881 25.7525 29.7651C26.1985 29.5422 26.6443 29.4307 27.0902 29.4307H77.5923ZM75.9201 32.4407H28.0937V96.9897H75.9201V32.4407Z" fill="#616E7D"/>
<path d="M35.4512 40.4673H73.5786V44.8152H35.4512V40.4673Z" fill="#82BFAB"/>
<path d="M31.1035 50.8354H73.5787V55.1834H31.1035V50.8354Z" fill="#82BFAB"/>
<path d="M31.1035 60.8691H73.5787V65.5514H31.1035V60.8691Z" fill="#82BFAB"/>
<path d="M31.1035 71.2373H73.5787V75.5851H31.1035V71.2373Z" fill="#82BFAB"/>
<path d="M31.1035 81.606H62.8763V85.9538H31.1035V81.606Z" fill="#82BFAB"/>
</svg>
