<svg width="31" height="31" viewBox="0 0 31 31" fill="none" xmlns="http://www.w3.org/2000/svg">
<path fill-rule="evenodd" clip-rule="evenodd" d="M3 5.08864C3 4.5347 3.22005 4.00345 3.61175 3.61175C4.00344 3.22005 4.5347 3 5.08864 3H25.9091C26.1836 2.99955 26.4555 3.05326 26.7092 3.15803C26.963 3.26281 27.1936 3.4166 27.3878 3.61061C27.582 3.80462 27.736 4.03503 27.8411 4.28865C27.9461 4.54227 28.0001 4.81412 28 5.08864V25.9091C28.0003 26.1837 27.9465 26.4556 27.8416 26.7093C27.7367 26.9631 27.5828 27.1936 27.3887 27.3879C27.1946 27.5821 26.9641 27.7361 26.7104 27.8411C26.4567 27.9462 26.1848 28.0001 25.9102 28H5.08864C4.81426 28 4.54257 27.9459 4.28909 27.8409C4.03561 27.7359 3.80531 27.5819 3.61135 27.3879C3.41738 27.1938 3.26356 26.9634 3.15866 26.7099C3.05377 26.4563 2.99985 26.1846 3 25.9102V5.08864ZM12.8955 12.5318H16.2807V14.2318C16.7693 13.2545 18.0193 12.375 19.8977 12.375C23.4989 12.375 24.3523 14.3216 24.3523 17.8932V24.5091H20.708V18.7068C20.708 16.6727 20.2193 15.525 18.9784 15.525C17.2568 15.525 16.5409 16.7625 16.5409 18.7068V24.5091H12.8955V12.5318ZM6.64545 24.3534H10.2909V12.375H6.64545V24.3523V24.3534ZM10.8125 8.46818C10.8194 8.78031 10.7638 9.09067 10.6491 9.38104C10.5344 9.67141 10.3629 9.93595 10.1446 10.1591C9.92626 10.3823 9.66557 10.5596 9.37779 10.6807C9.09001 10.8018 8.78095 10.8641 8.46875 10.8641C8.15655 10.8641 7.84749 10.8018 7.55971 10.6807C7.27193 10.5596 7.01124 10.3823 6.79292 10.1591C6.5746 9.93595 6.40306 9.67141 6.28836 9.38104C6.17367 9.09067 6.11813 8.78031 6.125 8.46818C6.13849 7.85552 6.39135 7.27249 6.82942 6.84396C7.26748 6.41544 7.85594 6.17548 8.46875 6.17548C9.08156 6.17548 9.67002 6.41544 10.1081 6.84396C10.5462 7.27249 10.799 7.85552 10.8125 8.46818Z" fill="#333333"/>
</svg>
