<svg width="213" height="145" viewBox="0 0 213 145" fill="none" xmlns="http://www.w3.org/2000/svg">
<path d="M11.0478 131.283H2.10738L15.73 91.8222H26.4817L40.085 131.283H31.1446L21.26 100.84H20.9517L11.0478 131.283ZM10.489 115.773H31.607V122.285H10.489V115.773ZM77.8411 91.8222V131.283H70.6348L53.4668 106.447H53.1778V131.283H44.8346V91.8222H52.1565L69.1896 116.64H69.5365V91.8222H77.8411ZM91.536 131.283H82.5955L96.2181 91.8222H106.97L120.573 131.283H111.633L101.748 100.84H101.44L91.536 131.283ZM90.9772 115.773H112.095V122.285H90.9772V115.773ZM125.323 91.8222H135.612L146.479 118.335H146.942L157.809 91.8222H168.098V131.283H160.006V105.599H159.678L149.466 131.091H143.955L133.743 105.503H133.415V131.283H125.323V91.8222ZM181.774 131.283H172.833L186.456 91.8222H197.208L210.811 131.283H201.871L191.986 100.84H191.678L181.774 131.283ZM181.215 115.773H202.333V122.285H181.215V115.773Z" fill="#0A9E18"/>
<path fill-rule="evenodd" clip-rule="evenodd" d="M110.029 42.7835C108.807 39.8876 107.782 37.6804 106.232 34.9584C101.061 25.883 94.0753 19.0042 85.4791 13.2544C84.908 12.8723 83.7315 12.2237 83.2458 11.766L76.4952 8.23409C70.1868 4.82646 55.4394 0.359792 49.3105 0.0241699C52.6913 39.2636 70.1108 74.0814 107.257 90.4078C108.93 91.1429 112.86 92.9189 114.576 93.2239C114.29 89.4981 111.203 80.2042 109.696 76.1272C108.743 73.5481 107.552 70.7202 106.574 68.4669C102.755 59.6689 96.2988 49.1051 88.9718 42.9781L84.3385 39.4564C82.8319 38.5092 83.1608 38.7942 83.058 38.1513C83.7923 37.7405 84.7886 38.5667 86.0253 39.3207C92.2842 43.1358 97.6209 48.7529 102.019 54.5609C104.526 57.8702 106.786 61.4321 109.034 65.3632C109.826 66.9196 114.349 76.6885 115.309 77.2373C116.825 72.2109 114.784 58.3015 113.322 52.6741C112.289 48.7986 111.554 46.4013 110.029 42.7835V42.7835Z" fill="#708F32"/>
<path fill-rule="evenodd" clip-rule="evenodd" d="M114.413 47.1002C119.141 56.4556 130.315 57.06 136.782 49.2216C141.472 42.2699 139.083 33.4772 131.777 29.8927C120.922 24.5662 109.1 36.5919 114.413 47.1002Z" fill="#099D17"/>
<path fill-rule="evenodd" clip-rule="evenodd" d="M151.258 57.9969C152.417 56.2515 152.394 54.8855 153.287 54.7563C154.891 57.1166 147.706 66.062 146.149 67.8527C142.87 71.6239 139.025 74.6026 135.198 77.7279C136.353 78.1243 148.325 72.3243 149.526 71.6519C166.176 62.3297 174.818 52.5604 173.149 33.1121C171.796 33.9224 168.337 43.9687 151.611 48.9059C144.546 50.9915 139.748 50.7942 133.402 55.5587C124.927 61.9196 121.791 71.0933 121.512 81.2202C127.47 81.3517 148.556 62.8838 151.258 57.9969Z" fill="#708F32"/>
</svg>
