<svg width="120" height="80" viewBox="0 0 120 80" fill="none" xmlns="http://www.w3.org/2000/svg">
<path d="M0 0H120V70C120 75.5229 115.523 80 110 80H10C4.47715 80 0 75.5229 0 70V0Z" fill="#FEFEFE"/>
<path d="M23.8814 64.7878H20.4902L25.6574 49.8198H29.7357L34.8955 64.7878H31.5044L27.755 53.2404H27.6381L23.8814 64.7878ZM23.6695 58.9043H31.6797V61.3748H23.6695V58.9043ZM49.2168 49.8198V64.7878H46.4834L39.9714 55.3672H39.8618V64.7878H36.6971V49.8198H39.4744L45.9352 59.2332H46.0668V49.8198H49.2168ZM54.4114 64.7878H51.0202L56.1874 49.8198H60.2655L65.4256 64.7878H62.0342L58.2851 53.2404H58.1679L54.4114 64.7878ZM54.1995 58.9043H62.2098V61.3748H54.1995V58.9043ZM67.227 49.8198H71.1301L75.252 59.8765H75.4273L79.5496 49.8198H83.4523V64.7878H80.3826V55.0456H80.2586L76.3847 64.715H74.2947L70.4211 55.0088H70.2967V64.7878H67.227V49.8198ZM88.6394 64.7878H85.2484L90.4157 49.8198H94.4937L99.6538 64.7878H96.2624L92.5133 53.2404H92.3961L88.6394 64.7878ZM88.4278 58.9043H96.438V61.3748H88.4278V58.9043Z" fill="#0A9E18"/>
<path fill-rule="evenodd" clip-rule="evenodd" d="M61.4255 31.219C60.9623 30.1206 60.5735 29.2834 59.9852 28.2509C58.0242 24.8085 55.3743 22.1993 52.1137 20.0184C51.897 19.8735 51.4508 19.6274 51.2665 19.4538L48.706 18.1141C46.3131 16.8216 40.7193 15.1273 38.3945 15C39.6769 29.8839 46.2843 43.0907 60.3744 49.2834C61.009 49.5623 62.4993 50.2359 63.1502 50.3516C63.0417 48.9384 61.8708 45.4131 61.2995 43.8667C60.9377 42.8884 60.4863 41.8158 60.1149 40.961C58.6667 37.6239 56.2177 33.6169 53.4385 31.2929L51.681 29.957C51.1095 29.5978 51.2343 29.7059 51.1953 29.462C51.4738 29.3062 51.8517 29.6196 52.3208 29.9056C54.6949 31.3527 56.7192 33.4833 58.3876 35.6863C59.3381 36.9416 60.1954 38.2927 61.048 39.7838C61.3488 40.3741 63.0641 44.0796 63.4286 44.2877C64.0036 42.3812 63.2295 37.1052 62.6745 34.9707C62.2827 33.5006 62.0043 32.5913 61.4255 31.219Z" fill="#708F32"/>
<path fill-rule="evenodd" clip-rule="evenodd" d="M63.0879 32.8564C64.8816 36.405 69.12 36.6342 71.573 33.6611C73.3516 31.0242 72.4458 27.689 69.6746 26.3294C65.5568 24.309 61.0726 28.8705 63.0879 32.8564Z" fill="#099D17"/>
<path fill-rule="evenodd" clip-rule="evenodd" d="M77.0646 36.9898C77.5038 36.3278 77.4955 35.8097 77.8338 35.7607C78.4423 36.6559 75.7173 40.049 75.1267 40.7283C73.8826 42.1587 72.4245 43.2886 70.9725 44.474C71.4106 44.6244 75.9517 42.4244 76.4076 42.1693C82.7228 38.6333 86.0011 34.9277 85.3677 27.5508C84.8549 27.8581 83.5428 31.6688 77.1985 33.5416C74.5183 34.3326 72.6987 34.2578 70.2913 36.065C67.077 38.4778 65.8875 41.9574 65.7812 45.7987C68.0412 45.8486 76.0393 38.8435 77.0646 36.9898Z" fill="#708F32"/>
</svg>
