<svg width="30" height="30" viewBox="0 0 30 30" fill="none" xmlns="http://www.w3.org/2000/svg">
<path d="M24.6324 20.6665L20.0688 16.5171C19.8531 16.321 19.5696 16.2165 19.2782 16.2255C18.9868 16.2345 18.7103 16.3564 18.5071 16.5654L15.8206 19.3283C15.1739 19.2048 13.8739 18.7995 12.5357 17.4646C11.1974 16.1253 10.7922 14.8219 10.672 14.1797L13.4327 11.492C13.642 11.289 13.764 11.0125 13.773 10.721C13.782 10.4295 13.6773 10.146 13.481 9.93042L9.3327 5.36789C9.13628 5.15162 8.86328 5.02043 8.5717 5.00219C8.28011 4.98395 7.9929 5.0801 7.77106 5.27022L5.33487 7.3595C5.14078 7.5543 5.02492 7.81357 5.0093 8.08812C4.99246 8.36878 4.67137 15.0172 9.82667 20.1748C14.3241 24.6711 19.9576 25 21.5092 25C21.7359 25 21.8752 24.9933 21.9122 24.991C22.1867 24.9757 22.4458 24.8593 22.6397 24.6643L24.7279 22.227C24.9187 22.0059 25.0156 21.7189 24.9977 21.4273C24.9799 21.1358 24.8488 20.8627 24.6324 20.6665V20.6665Z" fill="#333333"/>
</svg>
