<svg width="70" height="70" viewBox="0 0 70 70" fill="none" xmlns="http://www.w3.org/2000/svg">
<path d="M18.9579 29.1664C18.3075 29.1664 17.6833 29.2656 17.0621 29.356C17.2633 28.6793 17.4704 27.991 17.8029 27.3727C18.1354 26.4743 18.6546 25.6956 19.1708 24.911C19.6025 24.0622 20.3637 23.4877 20.9237 22.7614C21.51 22.0556 22.3092 21.586 22.9421 20.9997C23.5633 20.3872 24.3771 20.081 25.0246 19.6493C25.7012 19.2614 26.2904 18.8327 26.9204 18.6285L28.4925 17.981L29.875 17.4064L28.4604 11.7539L26.7192 12.1739C26.1621 12.3139 25.4825 12.4772 24.7096 12.6727C23.9192 12.8185 23.0762 13.2181 22.1371 13.5827C21.2096 13.9968 20.1362 14.2768 19.1387 14.9418C18.1354 15.5777 16.9775 16.1085 15.9567 16.9602C14.9679 17.8381 13.775 18.5993 12.8942 19.7164C11.9317 20.7606 10.9808 21.8572 10.2429 23.1056C9.38832 24.2956 8.8079 25.6022 8.1954 26.8943C7.64124 28.1864 7.19499 29.5077 6.8304 30.791C6.13915 33.3635 5.82999 35.8077 5.7104 37.8989C5.61124 39.9931 5.66957 41.7343 5.79207 42.9943C5.83582 43.5893 5.91749 44.1668 5.97582 44.5664L6.04874 45.0564L6.12457 45.0389C6.64333 47.4622 7.83754 49.689 9.56905 51.4619C11.3006 53.2348 13.4986 54.4813 15.9089 55.0571C18.3193 55.633 20.8434 55.5147 23.1893 54.7159C25.5352 53.9171 27.607 52.4706 29.1651 50.5435C30.7232 48.6164 31.7039 46.2876 31.9937 43.8264C32.2835 41.3653 31.8707 38.8724 30.8029 36.636C29.7351 34.3997 28.056 32.5114 25.9598 31.1895C23.8636 29.8677 21.4361 29.1662 18.9579 29.1664ZM51.0412 29.1664C50.3908 29.1664 49.7667 29.2656 49.1454 29.356C49.3466 28.6793 49.5537 27.991 49.8862 27.3727C50.2187 26.4743 50.7379 25.6956 51.2542 24.911C51.6858 24.0622 52.4471 23.4877 53.0071 22.7614C53.5933 22.0556 54.3925 21.586 55.0254 20.9997C55.6466 20.3872 56.4604 20.081 57.1079 19.6493C57.7846 19.2614 58.3737 18.8327 59.0037 18.6285L60.5758 17.981L61.9583 17.4064L60.5437 11.7539L58.8025 12.1739C58.2454 12.3139 57.5658 12.4772 56.7929 12.6727C56.0025 12.8185 55.1596 13.2181 54.2204 13.5827C53.2958 13.9997 52.2196 14.2768 51.2221 14.9447C50.2187 15.5806 49.0608 16.1114 48.04 16.9631C47.0512 17.841 45.8583 18.6022 44.9775 19.7164C44.015 20.7606 43.0641 21.8572 42.3262 23.1056C41.4716 24.2956 40.8912 25.6022 40.2787 26.8943C39.7246 28.1864 39.2783 29.5077 38.9137 30.791C38.2225 33.3635 37.9133 35.8077 37.7937 37.8989C37.6946 39.9931 37.7529 41.7343 37.8754 42.9943C37.9192 43.5893 38.0008 44.1668 38.0592 44.5664L38.1321 45.0564L38.2079 45.0389C38.7267 47.4622 39.9209 49.689 41.6524 51.4619C43.3839 53.2348 45.5819 54.4813 47.9923 55.0571C50.4026 55.633 52.9267 55.5147 55.2726 54.7159C57.6185 53.9171 59.6903 52.4706 61.2484 50.5435C62.8065 48.6164 63.7872 46.2876 64.077 43.8264C64.3669 41.3653 63.954 38.8724 62.8862 36.636C61.8184 34.3997 60.1393 32.5114 58.0431 31.1895C55.947 29.8677 53.5194 29.1662 51.0412 29.1664Z" fill="#AACA69"/>
</svg>
