<svg width="99" height="100" viewBox="0 0 99 100" fill="none" xmlns="http://www.w3.org/2000/svg">
<path d="M98.0167 89.358C99.7485 90.7434 98.7095 94.5532 95.9387 97.324C93.1679 100.095 89.7042 100.787 87.9725 99.0557L85.2017 96.6312L84.8555 96.285L95.246 86.2407L95.5922 86.5871L98.0167 89.358Z" fill="#82BFAB"/>
<path d="M94.9002 85.8955L95.2466 86.2418L84.8561 96.286L82.4316 93.8615L92.8221 83.8174L94.9002 85.8955Z" fill="#AAD4C8"/>
<path fill-rule="evenodd" clip-rule="evenodd" d="M78.6215 39.4839C78.6215 48.1427 75.8506 56.1087 71.3481 62.343L92.8218 83.8168L82.4313 93.8609L60.9576 72.0409C54.7233 76.1971 47.1036 78.6215 39.1375 78.6215C17.3175 78.2752 0 60.6113 0 39.1376C0.34635 17.3176 18.0102 0 39.8303 0C61.304 0.34635 78.9679 18.0102 78.6215 39.4839ZM67.5383 39.4839C67.5383 24.2445 55.416 11.7759 40.1765 11.7759C24.9371 11.7759 12.4685 23.8982 12.4685 39.1376C12.1222 54.377 24.5909 66.8456 39.8303 66.8456C55.0697 67.192 67.5383 54.7233 67.5383 39.4839Z" fill="#616E7D"/>
<path d="M42.5996 34.2891V15.9326C47.7949 15.9326 52.2975 18.0107 55.4146 21.1279L42.5996 34.2891Z" fill="#82BFAB"/>
<path d="M39.8311 15.932L39.4846 39.4838L60.6121 50.9134C57.4949 57.8404 48.8362 63.0356 39.8311 63.0356C26.6698 63.0356 16.2793 52.2988 16.2793 39.1375C16.6256 26.3225 26.3234 15.5856 39.1383 15.932C39.3692 15.932 39.6002 15.932 39.8311 15.932Z" fill="#AAD4C8"/>
<path d="M47.7969 40.1765L51.2604 29.4396L54.7239 25.9761L49.8749 41.2155L47.7969 40.1765Z" fill="#AAD4C8"/>
<path d="M45.3711 38.7924L46.7566 33.9435L50.2201 30.48L47.1028 39.8314L45.3711 38.7924Z" fill="#AAD4C8"/>
<path d="M55.416 44.3326L60.9575 27.3613C61.4193 28.2849 61.8812 29.3241 62.343 30.4786L57.494 45.718L55.416 44.3326Z" fill="#AAD4C8"/>
<path d="M57.8398 45.7184L62.6886 31.5181C63.1504 32.6726 63.4967 33.9425 63.7276 35.3279L59.9179 47.1038L57.8398 45.7184Z" fill="#AAD4C8"/>
<path d="M60.6113 47.1042L63.7284 37.0601C63.7284 37.5219 63.7284 37.8682 63.7284 38.0991C63.7284 41.5626 63.0357 45.0261 61.6503 47.7969L60.6113 47.1042Z" fill="#AAD4C8"/>
<path d="M55.7622 24.9378L57.494 23.2061C57.7249 23.437 58.0712 23.6678 58.533 23.8987L52.2987 42.6017L50.2207 41.5626L55.7622 24.9378Z" fill="#AAD4C8"/>
<path d="M44.6782 38.4454L43.293 37.7527L45.7175 34.9819L44.6782 38.4454Z" fill="#AAD4C8"/>
<path d="M52.9922 42.9478L58.8802 24.5913C59.342 25.284 59.9192 25.9767 60.6119 26.6694L54.7239 44.3333L52.9922 42.9478Z" fill="#AAD4C8"/>
</svg>
