<svg width="94" height="100" viewBox="0 0 94 100" fill="none" xmlns="http://www.w3.org/2000/svg">
<path d="M11.0571 75.7799L10.248 73.8921H14.0235L12.9448 75.7799L14.0235 81.9825H10.248L11.0571 75.7799Z" fill="#AAD4C8"/>
<path d="M46.3851 0C50.6999 0 54.4754 3.50581 54.4754 7.82068C54.4754 12.1356 50.6999 15.6414 46.3851 15.6414C42.0702 15.6414 38.5645 12.1356 38.5645 7.82068C38.5645 3.50581 42.0702 0 46.3851 0Z" fill="#616E7D"/>
<path fill-rule="evenodd" clip-rule="evenodd" d="M50.9679 16.4507C55.0131 16.4507 58.5189 19.6868 58.5189 23.732V27.5076H34.5176V23.732C34.5176 19.6868 37.7538 16.4507 41.799 16.4507H50.9679ZM51.2377 17.2597C51.0579 17.2597 50.8781 17.2597 50.6983 17.2597H42.3382C42.1584 17.2597 41.9787 17.2597 41.799 17.2597L43.6866 26.1592H49.3499L51.2377 17.2597Z" fill="#616E7D"/>
<path d="M47.464 20.2258L48.273 18.6077H44.7672L45.5762 20.2258L44.7672 26.1587H43.4188L41.8008 17.2593C41.9806 17.2593 42.1602 17.2593 42.34 17.2593H50.7002C50.88 17.2593 51.0598 17.2593 51.2396 17.2593L49.3518 26.1587H48.273L47.464 20.2258Z" fill="white"/>
<path d="M45.5746 20.2255L44.7656 18.6074H48.2714L47.4624 20.2255L48.2714 26.1585H44.7656L45.5746 20.2255Z" fill="#AAD4C8"/>
<path d="M12.1333 55.2842C16.4481 55.2842 19.9539 58.79 19.9539 63.3746C19.9539 67.6894 16.4481 71.1952 12.1333 71.1952C7.8184 71.1952 4.3125 67.6894 4.3125 63.3746C4.3125 58.79 7.8184 55.2842 12.1333 55.2842Z" fill="#616E7D"/>
<path fill-rule="evenodd" clip-rule="evenodd" d="M16.72 72.0049C20.7652 72.0049 24.0014 75.241 24.0014 79.2862V82.7921H0V79.2862C0 75.241 3.5058 72.0049 7.55099 72.0049H16.72ZM16.72 72.8139C16.5402 72.6341 16.3605 72.5442 16.1808 72.5442H8.09038C7.91059 72.5442 7.73077 72.6341 7.55099 72.8139L9.169 81.7133H15.102L16.72 72.8139Z" fill="#616E7D"/>
<path d="M12.9444 75.5099L13.7534 73.8919H10.2476L11.0566 75.5099L10.2476 81.7125H9.16879L7.55078 72.8132C7.73057 72.6334 7.82039 72.5435 7.82039 72.5435H16.1806C16.3603 72.5435 16.54 72.6334 16.7198 72.8132L15.1018 81.7125H14.023L12.9444 75.5099Z" fill="white"/>
<path d="M81.9827 55.2842C86.2976 55.2842 89.8035 58.79 89.8035 63.3746C89.8035 67.6894 86.2976 71.1952 81.9827 71.1952C77.6678 71.1952 74.1621 67.6894 74.1621 63.3746C74.1621 58.79 77.6678 55.2842 81.9827 55.2842Z" fill="#616E7D"/>
<path d="M80.0918 81.7128L80.901 75.5103L80.0918 81.7128Z" fill="#616E7D"/>
<path fill-rule="evenodd" clip-rule="evenodd" d="M86.5658 72.0049C90.611 72.0049 93.8472 75.241 93.8472 79.2862V82.7921H69.8457V79.2862C69.8457 75.241 73.3515 72.0049 77.3967 72.0049H86.5658ZM86.5658 72.8139C86.3861 72.6341 86.2062 72.5442 86.0265 72.5442H77.9361C77.7563 72.5442 77.5765 72.6341 77.3967 72.8139L79.0149 81.7133H84.9478L86.5658 72.8139Z" fill="#616E7D"/>
<path d="M80.901 75.5102L80.0918 73.8921L80.901 75.5102Z" fill="#616E7D"/>
<path d="M82.7881 75.5099L83.5973 73.8919H80.0913L80.9005 75.5099L80.0913 81.7125H79.0127L77.3945 72.8132C77.3945 72.6334 77.4845 72.5435 77.6643 72.5435H86.0243C86.2041 72.5435 86.3839 72.6334 86.5637 72.8132L84.9457 81.7125H83.8669L82.7881 75.5099Z" fill="white"/>
<path d="M80.901 75.5102L80.0918 73.8921H83.5978L82.7886 75.5102L83.8674 81.7128H80.0918L80.901 75.5102Z" fill="#AAD4C8"/>
<path d="M19.6872 29.3951H16.451C15.3723 29.3951 14.5632 28.5861 14.5632 27.5074C14.5632 26.4287 15.3723 25.6196 16.451 25.6196H24.002C25.62 25.6196 26.6987 26.6983 26.6987 28.3164V35.8674C26.6987 36.9461 25.8897 37.7552 24.811 37.7552C23.7322 37.7552 22.9233 36.9461 22.9233 35.8674V32.0919C17.7994 35.5977 14.0239 40.1823 11.5968 45.8456C11.3271 46.6546 10.7876 47.194 9.9786 47.194H9.70899C8.36059 47.194 7.55152 45.8456 7.8212 44.4972C10.2483 38.2946 14.5632 33.1706 19.6872 29.3951Z" fill="#AAD4C8"/>
<path d="M75.2396 40.7222L79.2848 41.5312C76.3184 36.4073 72.0035 32.0924 66.6099 29.3956C65.8008 28.8562 65.5312 28.3169 65.5312 27.5079V27.2382C65.5312 25.8898 67.1493 25.0808 68.228 25.6201C74.161 28.5866 79.0152 33.4408 82.521 38.8344L83.0604 35.8679C83.3301 34.7892 84.4087 34.2499 85.4874 34.2499C86.5661 34.5196 87.1055 35.5983 86.8358 36.677L85.2178 44.228C84.9481 45.5764 83.33 46.3854 81.9816 46.1158L74.4306 44.4977C73.6216 44.228 72.8126 43.1493 73.0822 42.3403C73.3519 41.2615 74.4306 40.4525 75.2396 40.7222Z" fill="#AAD4C8"/>
<path d="M39.9133 94.3875L41.8011 97.0843C42.3405 97.8933 42.3404 98.972 41.2617 99.5114C40.4527 100.32 39.3739 100.051 38.8345 99.2417L34.25 92.7694C33.4409 91.6907 33.7107 89.803 35.0591 88.9939L41.2617 84.679C42.3404 84.1397 43.4192 84.4094 43.9585 85.2184C44.4979 86.0275 44.4978 87.3759 43.4191 87.9152L40.1829 90.0726C46.1159 91.9604 52.3186 91.6907 57.9819 89.8029C58.7909 89.5332 59.5999 89.803 60.1393 90.3423C60.9483 91.421 60.6787 93.3088 59.3303 93.5785C53.1276 95.7359 46.3856 96.0056 39.9133 94.3875Z" fill="#AAD4C8"/>
</svg>
