<svg width="334" height="334" viewBox="0 0 334 334" fill="none" xmlns="http://www.w3.org/2000/svg">
<rect width="334" height="334" fill="white"/>
<path fill-rule="evenodd" clip-rule="evenodd" d="M87.9181 58.1857C87.9243 57.7061 88.2746 57.3006 88.7484 57.2246C91.1604 56.4975 93.4301 55.3944 95.8163 54.5897C97.1018 54.1655 98.3507 53.6374 99.5504 53.0105C100.421 52.5476 101.413 52.4114 102.322 52.0156L102.567 51.9008C103.616 51.3767 104.793 51.1559 105.886 50.7016C106.808 50.3183 107.846 50.2769 108.804 49.914C110.203 49.4029 111.628 48.9626 113.072 48.5947C113.968 48.2467 114.921 48.0655 115.883 48.0599C116.141 48.085 116.295 47.9313 116.498 47.8773C117.363 47.6173 118.243 47.4102 119.133 47.2573C121.025 46.9866 122.89 46.5343 124.783 46.2928C126.157 46.1184 127.514 45.8626 128.88 45.6473C130.194 45.441 131.512 45.2608 132.835 45.1064C135.929 44.7336 139.042 44.5422 142.159 44.5332C144.598 44.5563 147.035 44.7173 149.456 45.0153C151.429 45.177 153.388 45.4699 155.321 45.8921C156.853 46.2796 158.451 46.4469 159.92 46.9647C161.306 47.4533 162.728 47.8694 164.116 48.3198C167.331 49.3628 170.495 50.5307 173.607 51.8235C175.44 52.5827 177.269 53.386 179.108 54.1135C181.266 54.967 183.31 56.0589 185.463 56.9185C186.724 57.4231 187.962 58.1119 189.209 58.7051C190.416 59.2791 191.535 60.0186 192.778 60.5168C194 61.0569 195.193 61.6587 196.354 62.3197C197.453 62.8983 198.762 63.2614 199.623 64.2812C200.717 64.2089 201.358 65.1278 202.222 65.5452C203.085 65.9626 203.93 66.4428 204.8 66.7998C205.698 67.1674 206.602 67.567 207.479 67.9559C209.261 68.7454 211.107 69.36 212.879 70.141C213.961 70.6169 215.107 70.7332 216.2 71.1035C218.297 71.8012 220.458 72.2886 222.652 72.5584C223.535 72.6496 224.399 72.8743 225.214 73.2249C225.826 73.5064 226.397 73.1289 227.011 73.2959C228.004 73.5666 229.042 73.6697 230.055 73.8628C230.367 73.9801 230.718 73.92 230.973 73.7056L231.555 74.3692C231.919 74.4365 231.646 74.102 231.837 74.002C232.261 74.0422 232.729 73.9769 233.14 74.2978C233.526 74.6002 233.942 74.2075 234.389 74.348C235.364 74.6499 236.512 74.082 237.403 74.9082C238.375 74.6326 239.343 74.9378 240.314 74.9429C240.783 74.9198 241.245 75.0637 241.617 75.3472L241.701 75.4151C242.043 75.7287 242.564 74.995 242.873 75.5971C244.553 75.2686 246.04 76.1291 247.559 76.5237C249.995 77.1575 252.494 77.6092 254.839 78.6612C256.012 79.1871 257.384 79.3936 258.59 79.9071C261.3 81.0606 264.093 82.0311 266.665 83.5103C267.727 84.1217 268.926 84.4966 269.983 85.1186L271.204 85.8377C273.035 86.9192 274.855 88.0205 276.602 89.2367C277.048 89.4543 277.423 89.7923 277.686 90.2123C277.936 90.7446 278.6 90.5266 279.037 90.8543C279.557 91.2407 279.839 91.8411 280.472 92.1616C280.821 92.3383 281.204 92.8196 281.608 93.0254C282.921 93.6952 283.69 95.0361 285.019 95.6745C285.469 95.9917 285.843 96.4052 286.113 96.885C287.167 98.2029 288.744 98.992 289.678 100.394L289.801 100.589C290.261 101.332 290.886 101.957 291.627 102.417L291.916 102.59C292.129 102.72 292.327 102.857 292.369 103.056C292.545 103.892 293.264 104.318 293.734 104.912C294.236 105.549 294.954 106.005 295.398 106.729C295.771 107.507 296.279 108.213 296.898 108.814C298.067 109.701 298.713 110.944 299.521 112.076C299.924 112.642 300.607 113.089 300.483 113.98C300.42 114.433 301.389 114.102 301.305 114.756L301.292 114.83C301.193 115.276 301.475 115.506 301.873 115.714C302.237 115.904 301.977 116.603 302.412 116.727C302.847 116.852 303.348 117.182 303.248 117.404C303.002 117.962 303.865 117.946 303.629 118.388C303.616 118.441 303.629 118.496 303.663 118.539C304.687 119.684 304.962 121.252 305.934 122.453C306.488 123.2 306.897 124.044 307.137 124.942C307.416 125.757 307.762 126.548 308.172 127.306C308.822 128.624 309.046 130.079 309.704 131.377C309.882 131.729 309.154 132.353 310.039 132.499C309.813 133.042 310.354 133.302 310.471 133.708C310.509 134.072 310.49 134.44 310.415 134.798C310.879 135.492 311.173 136.284 311.273 137.112C311.675 138.762 311.973 140.437 312.163 142.125L312.316 143.515C312.519 145.372 312.671 147.238 312.287 149.098C312.188 149.577 312.665 149.747 312.621 150.175C312.381 152.664 312.395 155.168 311.701 157.622C311.412 158.65 311.486 159.82 311.196 160.876C310.648 162.878 310.358 164.935 309.57 166.894L309.426 167.239C308.893 168.46 308.535 169.811 308.021 171.074C307.696 171.944 286.348 274.246 213.845 248.157C179.463 235.785 148.325 301.468 101.029 287.508C-32.8666 247.986 30.8082 83.7474 84.743 59.2235C85.1564 59.1167 85.5544 58.9571 85.9269 58.7486C86.4812 58.288 87.2046 58.0835 87.9181 58.1857Z" fill="#D1D8F7"/>
<path fill-rule="evenodd" clip-rule="evenodd" d="M134.269 246.188C132.393 228.842 133.73 207.02 140.444 190.916C139.213 193.221 156.909 196.991 156.721 197.978C155.491 204.457 154.703 211.76 153.644 219.815C152.441 228.966 153.26 238.763 154.275 246.06C156.677 263.324 136.142 263.518 134.269 246.188Z" fill="white"/>
<path fill-rule="evenodd" clip-rule="evenodd" d="M136.316 191.658C140.505 178.969 150.472 168.313 162.854 163.287C169.148 160.732 176.463 159.563 172.754 160.397C172.016 164.95 176.68 168.97 181.287 169.188C185.894 169.405 190.178 166.935 193.932 164.255C191.467 159.857 193.95 162.022 197.532 167C197.655 167.275 179.931 171.297 168.859 179.359C159.181 186.406 155.681 197.615 159.25 197.978C157.532 198.758 155.546 198.932 153.718 198.462C153.718 198.462 141.236 194.887 136.316 191.658Z" fill="white"/>
<path fill-rule="evenodd" clip-rule="evenodd" d="M136.316 191.659C140.505 178.969 150.472 168.314 162.854 163.288C165.138 162.361 171.017 160.285 174.243 158.55C179.915 155.5 178.579 152.841 178.579 150.911C178.579 148.76 188.18 146.12 190.177 147.62C191.573 148.67 190.843 152.571 191.654 155.832C192.926 160.947 195.447 165.79 196.459 165.068C199.493 169.34 212.585 172.655 223.454 184.523C228.131 189.63 229.407 195.531 231.078 200.036C232.537 203.971 235.325 206.668 236.07 207.704C236.126 207.83 218.49 216.19 218.49 216.19C218.49 216.19 222.992 241.67 216.962 246.061C207.284 253.108 154.1 272.944 157.669 273.308C156.669 273.762 152.372 237.938 153.099 220.954C153.621 208.765 157.485 198.175 156.721 197.979C156.721 197.979 141.236 194.888 136.316 191.659Z" fill="white"/>
<path fill-rule="evenodd" clip-rule="evenodd" d="M222.982 237.841C231.787 234.67 232.664 211.425 232.881 211.225C234.221 217.302 235.194 223.46 235.792 229.654C236.055 232.378 236.245 235.138 235.819 237.841C235.371 240.68 234.253 243.379 232.865 245.896C229.787 251.476 225.322 256.285 219.985 259.767C219.121 260.331 218.209 260.871 217.193 261.051C214.947 261.449 212.802 260.027 211.094 258.515C202.467 250.874 198.142 239.588 194.551 228.637C193.356 224.991 186.008 205.174 187.291 204.571C185.183 203.866 182.81 203.984 180.782 204.895C179.556 205.445 178.569 203.387 179.342 202.287C180.114 201.186 181.583 200.904 182.86 200.484C184.137 200.064 185.528 199.119 185.434 197.778C183.202 198.119 181.001 198.659 178.864 199.388C177.85 199.734 176.812 198.751 176.556 197.711C175.869 194.923 178.681 192.539 181.331 191.432C184.087 190.279 187.057 189.639 190.043 189.554C190.65 189.536 200.112 190.848 198.197 198.385C198.174 198.476 197.915 199.293 197.894 199.388C195.89 208.799 212.619 241.572 222.982 237.841Z" fill="white"/>
<path fill-rule="evenodd" clip-rule="evenodd" d="M183.151 190.076C182.188 189.573 182.68 188.122 183.232 187.185C185.017 184.16 186.154 180.754 186.545 177.262C189.214 176.907 192.014 177.657 194.149 179.298C194.496 179.564 194.841 179.875 194.979 180.29C195.157 180.827 194.953 181.407 194.751 181.935C193.755 184.537 192.758 187.139 191.762 189.742C193.467 189.743 185.171 191.231 183.151 190.076Z" fill="white"/>
<path fill-rule="evenodd" clip-rule="evenodd" d="M155.709 125.701C152.473 96.611 149.013 98.2354 145.195 92.1651C139.552 83.193 141.029 71.41 144.857 61.5257C147.254 55.3338 150.524 49.4153 155.025 44.5332C155.839 44.7866 156.118 45.8615 155.862 46.6747C155.606 47.488 154.99 48.1262 154.494 48.8198C153.017 50.8865 152.587 53.6634 153.369 56.0801C154.486 59.5291 157.828 61.8828 161.333 62.809C164.838 63.7352 168.533 63.4712 172.148 63.2004C175.7 62.9344 179.251 62.6684 182.803 62.4024C186.352 62.1366 190.075 61.899 193.321 63.3598C196.567 64.8206 199.073 68.5862 197.869 71.936C197.498 72.968 198.089 74.133 198.933 74.8341C199.776 75.5352 200.836 75.9064 201.813 76.4047C205.93 78.5047 208.492 82.8941 209.498 87.4045C210.505 91.915 210.17 96.603 209.83 101.212C209.593 104.426 209.356 107.64 209.119 110.854C208.955 113.076 208.843 115.499 210.122 117.323C211.662 119.521 209.971 122.551 207.975 124.345C205.979 126.139 203.462 127.813 203.005 130.457C202.406 133.93 191.654 149.65 181.269 150.91C171.214 152.13 157.161 138.753 155.709 125.701Z" fill="white"/>
<path fill-rule="evenodd" clip-rule="evenodd" d="M159.952 129.631C162.873 129.827 165.807 129.819 168.726 129.609C169.823 129.53 171.118 129.284 171.556 128.276C172.082 127.062 173.353 126.21 174.675 126.182C175.997 126.154 177.302 126.953 177.879 128.143C178.499 129.421 180.321 129.355 181.709 129.054C185.397 128.256 189.026 127.184 192.556 125.851C194.155 125.247 195.085 123.494 195.223 121.79C195.36 120.087 194.857 118.404 194.358 116.769C189.914 117.789 185.332 118.016 180.778 118.24C171.598 118.691 162.419 119.142 153.24 119.593C153.819 122.148 154.399 124.702 154.978 127.257C155.105 127.817 155.248 128.406 155.646 128.819C156.045 129.232 156.79 129.367 157.177 128.943C155.974 126.119 154.747 123.072 155.37 120.066C156.142 122.66 156.915 125.254 157.688 127.848C157.831 128.329 157.991 128.837 158.37 129.165C158.793 129.532 159.394 129.594 159.952 129.631ZM194.194 115.935C194.547 115.514 194.277 114.662 193.736 114.755C180.708 117.002 167.362 116.081 154.17 116.942C153.449 116.989 152.496 117.292 152.559 118.012C154.605 118.704 156.824 118.583 158.98 118.455C170.214 117.787 181.448 117.119 192.681 116.451C193.229 116.419 193.841 116.355 194.194 115.935Z" fill="#F5F5F5"/>
<path fill-rule="evenodd" clip-rule="evenodd" d="M185.988 202.945C185.988 205.646 191.278 220.495 190.177 216.819C190.301 218.256 191.203 220.845 189.962 221.582C189.171 222.051 188.174 221.902 187.27 221.729C180.064 220.344 172.977 218.337 166.115 215.737C164.908 215.28 163.587 214.689 163.101 213.493C162.339 211.617 164.073 209.729 165.636 208.441C169.065 205.615 172.493 202.789 175.922 199.963C176.175 199.754 176.464 199.533 176.792 199.556C177.119 199.58 177.398 200.012 177.166 200.245C173.487 203.259 185.988 200.244 185.988 202.945Z" fill="white"/>
<path fill-rule="evenodd" clip-rule="evenodd" d="M189.962 221.58C189.171 222.05 188.174 221.901 187.27 221.727C180.064 220.342 172.977 218.335 166.115 215.735C164.908 215.278 163.587 214.688 163.101 213.492C162.339 211.616 164.961 209.306 167 208.193C170.542 206.259 174.253 210.477 179.21 213.492C184.463 216.688 190.864 218.741 190.711 218.311" fill="url(#paint0_linear_206_2239)"/>
<path fill-rule="evenodd" clip-rule="evenodd" d="M206.712 140.184C206.428 140.227 206.52 140.662 206.687 140.896C208.421 143.338 210.155 145.779 211.889 148.22C212.184 148.635 212.468 149.243 212.104 149.599C207.062 147.362 202.977 143.05 201.017 137.894C201.371 137.494 201.971 138.035 202.223 138.507C203.946 141.726 206.29 144.612 209.09 146.956C209.377 147.196 209.807 147.433 210.09 147.187C207.395 144.066 205.229 140.489 203.712 136.655C203.648 136.494 203.585 136.319 203.627 136.151C203.71 135.824 204.165 135.724 204.466 135.877C204.768 136.031 204.949 136.342 205.124 136.631C206.644 139.145 208.893 141.211 211.527 142.511C211.784 142.013 211.335 141.456 210.935 141.062C207.903 138.07 205.683 134.263 204.573 130.15C204.35 129.323 204.448 128.087 205.304 128.051C205.519 130.002 206.067 131.917 206.917 133.686C207.975 135.89 209.482 137.842 210.978 139.775C212.185 141.336 213.392 142.896 214.599 144.457C214.367 144.761 213.894 144.671 213.535 144.54C210.979 143.61 208.631 142.112 206.712 140.184Z" fill="black"/>
<path fill-rule="evenodd" clip-rule="evenodd" d="M178.356 134.49C181.923 134.49 184.814 136.584 184.814 139.166C184.814 141.749 182.628 144.112 179.062 144.112C175.496 144.112 171.899 141.749 171.899 139.166C171.899 136.584 174.79 134.49 178.356 134.49ZM178.356 135.826C175.452 135.826 172.806 137.432 172.806 139.166C172.806 140.901 175.511 143.138 178.415 143.138C181.319 143.138 183.478 140.901 183.478 139.166C183.478 137.432 181.26 135.826 178.356 135.826Z" fill="black"/>
<path fill-rule="evenodd" clip-rule="evenodd" d="M113.711 190.951C113.624 191.131 113.577 191.33 113.574 191.53C113.193 191.337 112.812 191.144 112.431 190.951C113.807 194.352 115.184 197.752 116.561 201.152C116.772 201.675 116.992 202.21 117.379 202.619C117.346 201.592 117.042 200.596 116.74 199.615C115.866 196.769 114.992 193.924 114.118 191.079C114.05 190.934 113.849 190.871 113.711 190.951Z" fill="url(#paint1_linear_206_2239)"/>
<path fill-rule="evenodd" clip-rule="evenodd" d="M119.832 180.171C120.269 180.842 120.305 181.687 120.522 182.458C120.985 184.107 122.263 185.385 123.08 186.891C123.897 188.396 124.104 190.561 122.728 191.581C122.065 192.072 122.189 193.072 122.28 193.892C122.371 194.712 122.157 195.797 121.34 195.91C120.876 195.975 120.429 195.65 120.2 195.242C119.971 194.833 119.912 194.355 119.848 193.891C119.422 190.794 118.616 187.75 117.452 184.848C117.16 184.122 116.876 183.206 117.409 182.634C118.084 181.91 117.198 180.564 117.813 179.789C118.31 179.161 119.395 179.501 119.832 180.171Z" fill="url(#paint2_linear_206_2239)"/>
<path fill-rule="evenodd" clip-rule="evenodd" d="M173.331 178.191C173.641 177.479 173.95 176.766 174.259 176.054C174.637 175.182 175.332 174.142 176.253 174.375C176.529 174.445 176.764 174.629 176.948 174.847C177.888 175.96 177.457 177.709 176.579 178.871C175.977 179.668 175.194 180.326 174.305 180.781C173.764 181.058 173.088 180.545 172.965 179.949C172.842 179.353 173.089 178.749 173.331 178.191ZM175.727 178.209C176.006 177.863 176.293 177.504 176.416 177.077C176.54 176.649 176.461 176.13 176.11 175.857C174.954 176.933 174.114 178.344 173.716 179.872C174 180.133 174.434 179.811 174.676 179.511C175.026 179.077 175.376 178.643 175.727 178.209Z" fill="url(#paint3_linear_206_2239)"/>
<path fill-rule="evenodd" clip-rule="evenodd" d="M155.056 179.895C156.457 178.804 158.795 179.469 159.536 181.083C160.276 182.697 159.382 184.807 157.76 185.53C157.335 185.72 156.872 185.827 156.407 185.842C155.551 185.871 154.649 185.556 154.135 184.872C153.599 184.158 153.565 183.181 153.734 182.305C153.912 181.386 154.317 180.47 155.056 179.895Z" fill="url(#paint4_linear_206_2239)"/>
<path fill-rule="evenodd" clip-rule="evenodd" d="M187.912 112.53C186.772 113.633 184.919 113.293 183.388 112.879C182.66 112.682 181.932 112.486 181.204 112.289C180.478 112.093 179.586 111.94 179.075 112.49C178.599 113.003 177.652 112.298 177.79 111.613C177.928 110.928 178.683 110.542 179.378 110.469C181.828 110.213 184.044 112.544 186.475 112.146C187.025 112.056 187.822 111.98 187.912 112.53L187.912 112.53Z" fill="black"/>
<path fill-rule="evenodd" clip-rule="evenodd" d="M152.721 176.22C153.308 175.733 154.152 175.507 154.858 175.796C155.564 176.084 156.019 176.963 155.713 177.662C155.503 178.141 155.019 178.434 154.548 178.662C153.902 178.974 153.099 179.211 152.501 178.815C151.661 178.256 151.944 176.864 152.721 176.22M153.261 177.493C153.004 177.621 153.066 178.087 153.347 178.144C153.97 177.962 154.563 177.68 155.096 177.311C154.593 176.838 153.671 176.942 153.286 177.514L153.261 177.493Z" fill="url(#paint5_linear_206_2239)"/>
<path fill-rule="evenodd" clip-rule="evenodd" d="M186.098 148.117C185.101 148.334 183.993 147.885 183.429 147.035C188.093 147.425 192.892 145.769 196.324 142.586C199.756 139.403 201.767 134.742 201.729 130.062C201.463 130.137 201.208 130.25 200.974 130.398C200.446 130.173 200.794 129.374 201.2 128.967L209.123 121.011C210.494 119.635 208.798 117.043 206.856 117.052C204.914 117.06 203.356 118.66 202.334 120.311C201.164 122.202 200.366 124.322 199.998 126.514L195.915 117.601C195.434 118.523 195.711 119.544 195.994 120.586C196.174 121.249 196.356 121.92 196.348 122.58C196.312 125.434 193.004 126.916 190.261 127.703L182.796 129.845C180.82 130.411 178.096 130.653 177.291 128.762C176.503 126.908 173.349 126.856 172.5 128.683C171.697 130.412 169.396 130.695 167.49 130.687C163.861 130.673 160.232 130.482 156.622 130.114C156.068 130.057 155.475 129.979 155.063 129.604C154.694 129.268 154.546 128.758 154.414 128.276L152.043 119.596C151.784 118.65 151.531 117.611 151.935 116.717C152.338 115.823 153.718 115.365 154.309 116.148C153.15 111.477 152.953 106.569 153.733 101.82L155.211 116.034L191.2 114.521C191.983 114.489 192.895 114.383 193.3 113.713C193.656 113.125 193.449 112.373 193.23 111.722C192.35 109.104 191.416 106.504 190.43 103.924C190.125 103.127 189.791 102.297 189.138 101.747C187.752 100.579 185.671 101.158 183.948 101.719C177.128 103.937 169.783 104.931 162.745 103.552C155.708 102.172 149.013 98.2354 145.195 92.1651C139.552 83.193 141.029 71.41 144.856 61.5257C147.254 55.3338 150.524 49.4153 155.025 44.5332C155.839 44.7866 156.118 45.8615 155.862 46.6747C155.669 47.2863 155.273 47.799 154.877 48.3106C154.747 48.4793 154.617 48.6479 154.494 48.8198C153.017 50.8865 152.587 53.6634 153.369 56.0801C154.486 59.5291 157.828 61.8828 161.333 62.809C164.838 63.7352 168.533 63.4712 172.148 63.2004L182.803 62.4024C186.352 62.1366 190.075 61.899 193.321 63.3598C196.566 64.8206 199.073 68.5862 197.869 71.936C197.498 72.968 198.089 74.133 198.932 74.8341C199.541 75.3402 200.263 75.6745 200.985 76.0088L200.985 76.0088C201.263 76.1375 201.541 76.2662 201.813 76.4047C205.93 78.5047 208.492 82.8941 209.498 87.4045C210.505 91.915 210.17 96.603 209.83 101.212L209.119 110.854C208.955 113.076 208.843 115.499 210.122 117.323C211.662 119.521 209.971 122.551 207.975 124.345C207.633 124.652 207.276 124.956 206.916 125.262C205.177 126.741 203.384 128.266 203.005 130.457C201.918 136.757 199.216 143.524 193.386 146.146C192.59 146.504 191.758 146.772 190.927 147.04L190.927 147.04L190.927 147.04C190.123 147.3 189.32 147.559 188.548 147.899C187.818 148.221 187.119 148.614 186.422 149.007C185.411 149.576 184.402 150.145 183.3 150.494C179.886 151.577 176.161 150.391 172.99 148.725C165.693 144.893 159.825 138.409 156.739 130.767C157.931 130.761 158.641 132.048 159.152 133.125C162.229 139.613 167.564 145.003 174.021 148.145C177.864 150.014 182.888 150.938 186.098 148.117ZM198.287 76.7913C197.932 76.6427 197.546 76.5038 197.17 76.5863C196.682 76.6934 196.386 77.1127 196.086 77.5365C195.947 77.7332 195.807 77.9308 195.647 78.0987C195.142 78.628 193.895 78.4993 194.065 77.7881C195.015 75.8979 195.978 73.9639 196.264 71.8681C196.549 69.7722 196.039 67.4474 194.443 66.0587C193.34 65.0985 191.866 64.6926 190.426 64.4382C185.808 63.6226 181.099 64.0803 176.412 64.5359C175.417 64.6326 174.422 64.7292 173.43 64.8136C167.765 65.295 161.808 65.3182 156.714 62.7953C153.251 61.0807 151.19 56.9212 151.922 53.1274C145.831 60.5438 143.09 70.4578 143.801 80.0287C144.006 82.7808 144.486 85.532 145.494 88.1008C147.988 94.453 153.672 99.2777 160.122 101.506C166.572 103.734 173.699 103.532 180.293 101.77C186.886 100.009 192.996 96.7567 198.689 92.9928C199.059 92.7476 199.54 93.2837 199.425 93.7129C199.31 94.1421 198.884 94.4001 198.495 94.6142L188.62 100.041C190.594 101.077 191.66 103.246 192.499 105.311C193.567 107.943 194.476 110.638 195.221 113.378L205.806 104.877C206.173 104.582 206.919 104.437 206.934 104.908L196.838 113.303C196.329 113.727 195.766 114.29 195.898 114.94L205.5 107.032C206.525 106.187 207.621 105.225 207.83 103.913C208.768 98.033 209.675 91.8244 207.522 86.2731C205.882 82.0469 202.468 78.5418 198.287 76.7913ZM158.371 129.166C158.794 129.532 159.394 129.594 159.953 129.631C162.873 129.827 165.807 129.82 168.727 129.609C169.823 129.53 171.119 129.285 171.556 128.276C172.083 127.063 173.353 126.21 174.675 126.182C175.998 126.155 177.303 126.953 177.88 128.143C178.499 129.422 180.321 129.355 181.71 129.055C185.398 128.256 189.027 127.185 192.557 125.851C194.156 125.248 195.086 123.495 195.223 121.791C195.361 120.087 194.857 118.404 194.359 116.769C189.915 117.789 185.332 118.017 180.778 118.241L153.24 119.594L154.979 127.257C155.106 127.817 155.248 128.407 155.647 128.82C156.046 129.233 156.79 129.368 157.177 128.944C155.975 126.119 154.747 123.072 155.37 120.066L157.688 127.849C157.831 128.33 157.991 128.837 158.371 129.166ZM192.682 116.452C193.23 116.419 193.842 116.356 194.195 115.935C194.547 115.515 194.277 114.662 193.736 114.756C185.398 116.194 176.929 116.334 168.454 116.474C163.688 116.553 158.919 116.632 154.171 116.942C153.449 116.989 152.497 117.292 152.56 118.013C154.605 118.704 156.824 118.584 158.98 118.456L192.682 116.452ZM206.92 110.036C207.432 109.557 207.552 108.804 207.643 108.109L207.892 106.202L196.91 115.318C196.746 115.455 196.571 115.607 196.524 115.815C196.474 116.035 196.579 116.257 196.68 116.459L200.077 123.193C200.783 118.204 203.24 113.479 206.92 110.036ZM207.574 112.19C207.605 111.674 207.617 111.1 207.276 110.711C205.575 112.703 204.081 114.871 202.824 117.17C202.67 117.453 202.536 117.85 202.782 118.058C203.981 117.056 205.372 116.284 206.857 115.796C207.299 115.651 207.402 115.082 207.43 114.617L207.574 112.19ZM162.854 163.287C150.472 168.313 140.505 178.968 136.316 191.658C141.236 194.887 153.718 198.461 153.718 198.461C155.546 198.931 157.532 198.758 159.25 197.978C151.597 197.199 144.121 194.734 137.506 190.809C143.28 176.413 156.215 165.099 171.252 161.293C172.518 163.934 173.831 166.639 175.966 168.642C178.102 170.645 181.278 171.817 184.021 170.792C187.955 169.322 191.708 167.366 195.167 164.984C196.542 167.719 196.812 170.984 195.935 173.914L195.673 174.687C195.77 174.433 195.857 174.174 195.935 173.914L197.598 168.996L214.286 179.253C217.606 181.293 220.986 183.384 223.501 186.361C226.084 189.417 227.574 193.181 229.062 196.943L229.062 196.944C230.584 200.789 232.105 204.633 234.793 207.717C229.826 211.344 224.406 214.348 218.698 216.638L214.051 200.274L219.975 236.029C220.24 229.897 219.84 223.736 218.785 217.69C225.179 215.426 231.144 211.957 236.275 207.519C232.997 204.523 231.416 200.335 229.822 196.114C228.679 193.084 227.528 190.038 225.74 187.4C220.572 179.782 205.772 171.509 199.855 168.201L199.854 168.201L199.854 168.201C198.345 167.358 197.414 166.837 197.367 166.733C193.785 161.755 191.621 155.768 191.192 149.65C190.489 154.642 191.467 159.856 193.931 164.255C190.178 166.935 185.894 169.404 181.287 169.187C176.68 168.97 172.016 164.95 172.754 160.397C176.463 159.563 179.194 155.64 178.69 151.872C177.288 157.675 170.98 160.121 165.2 162.363L165.2 162.363C164.403 162.672 163.616 162.978 162.854 163.287ZM134.355 246.972C131.368 247.66 127.782 249.09 125.364 251.962C123.673 253.969 122.517 255.528 121.542 256.84C119.931 259.011 118.819 260.51 116.614 262.258C117.871 261.49 119.323 263.161 119.397 264.632C119.423 265.143 119.376 265.664 119.329 266.183C119.241 267.16 119.153 268.129 119.554 269.003C120.604 268.352 121.682 267.676 122.407 266.676C123.132 265.675 123.427 264.259 122.793 263.198C122.577 262.836 122.894 262.396 123.197 262.101C125.066 260.285 127.195 258.736 129.498 257.516C129.824 258.487 129.725 259.592 129.231 260.489L130.356 261.801L127.759 268.303L134.257 261.702C135.55 260.389 137.325 258.961 139.033 259.655C139.901 260.007 140.449 260.812 140.987 261.602C141.106 261.777 141.225 261.951 141.347 262.12C142.658 263.937 144.599 265.29 146.758 265.891C146.79 265.309 147.094 264.748 147.563 264.403C148.205 265.453 149.259 266.243 150.447 266.564L148.84 259.691C148.755 259.328 148.674 258.926 148.851 258.598C149.296 257.773 150.574 258.351 151.171 259.074C151.768 259.796 152.652 260.7 153.462 260.229L152.817 258.006C152.599 257.256 152.962 256 153.632 256.401C153.852 256.532 153.933 256.806 153.996 257.054L155.223 261.917C156.782 260.141 156.614 257.338 155.466 255.273C155.292 254.96 155.147 254.628 154.994 254.279C154.138 252.316 153.035 249.791 145.231 246.994C144.084 246.584 142.796 246.544 141.509 246.504C140.865 246.484 140.221 246.464 139.595 246.398C139.114 246.347 137.532 246.371 135.513 246.734C137.809 263.395 136.182 263.407 134.355 246.972ZM135.321 245.317C135.958 245.231 136.609 245.188 137.274 245.191C137.171 245.191 158.172 244.189 158.172 259.837C158.172 261.351 157.275 263.214 155.769 263.16C158.952 271.263 162.661 279.158 166.866 286.78C162.873 288.082 158.601 288.521 154.427 288.057C148.864 293.448 139.88 294.936 132.876 291.626C133.807 293.201 130.96 294.163 129.166 293.805L110.119 290.01C108.621 289.712 106.757 288.989 106.782 287.462C106.8 286.327 107.906 285.565 108.86 284.95C114.836 281.1 119.508 275.263 121.956 268.59C121.111 270.661 117.233 269.782 117.365 267.548C112.082 265.553 106.774 270.11 102.952 274.268L81.2331 297.899L160.008 301.865C164.436 302.088 167.983 298.433 170.877 295.076L191.266 271.418L158.85 268.571C170.654 268.579 182.459 269.276 194.182 270.657C185.317 281.298 176.11 291.655 166.579 301.705C165.141 303.221 162.795 303.309 160.705 303.289C134.083 303.028 107.47 301.859 80.9272 299.784C79.6145 299.201 80.4355 297.214 81.4057 296.155L101.269 274.474C105.749 269.584 111.921 264.223 118.168 266.449C118.908 265.958 118.287 265.313 117.574 264.571C117.096 264.073 116.576 263.532 116.396 262.965C116.159 262.22 116.611 261.449 117.044 260.798C121.384 254.273 126.871 247.101 134.197 245.513C132.384 228.373 132.086 210.499 138.713 194.604C134.273 211.068 133.115 228.409 135.321 245.317ZM197.136 205.096C197.125 203.784 197.333 202.441 197.537 201.116C197.974 198.289 198.398 195.541 196.668 193.343C195.147 191.41 192.478 190.808 190.02 190.747C185.594 190.637 180.88 191.745 177.755 194.881C177.382 195.254 177.237 196.257 177.645 196.166C178.583 195.959 179.358 195.529 180.119 195.107C180.795 194.732 181.461 194.362 182.222 194.16C183.839 193.728 185.693 193.849 187.012 194.881C183.71 194.28 177.347 196.167 177.755 197.778C178.053 198.958 179.908 198.249 181.545 197.623C182.142 197.394 182.71 197.177 183.163 197.067C184.632 196.708 186.834 196.867 186.856 198.379C186.87 199.293 185.957 199.909 185.155 200.347C184.543 200.682 183.694 201.008 182.844 201.335L182.844 201.335C181.145 201.989 179.446 202.642 179.642 203.359C179.916 204.363 181.224 203.946 182.689 203.478C183.832 203.114 185.07 202.718 185.988 202.944C188.021 203.445 188.901 205.789 189.461 207.807L189.752 208.857L189.752 208.858L189.752 208.858C192.68 219.427 195.618 230.032 199.995 240.084C203.026 247.043 206.907 253.908 212.951 258.499C213.66 259.037 214.435 259.557 215.319 259.657C216.178 259.755 217.027 259.444 217.819 259.097C224.066 256.357 228.98 251.073 232.14 245.028C233.405 242.611 234.421 240.033 234.801 237.332C235.142 234.91 234.964 232.447 234.725 230.013C234.222 224.889 233.449 219.791 232.412 214.747C232.161 213.53 231.968 212.066 232.881 211.224C234.221 217.301 235.194 223.459 235.792 229.653C236.056 232.377 236.245 235.137 235.819 237.84C235.371 240.68 234.254 243.379 232.865 245.896C229.787 251.476 225.322 257.62 219.985 261.103C219.121 261.666 218.209 262.206 217.193 262.386C214.947 262.784 212.802 261.362 211.094 259.85C202.468 252.209 198.142 239.587 194.551 228.636C193.356 224.99 192.207 221.329 191.105 217.653C191.23 219.09 191.203 220.844 189.962 221.581C189.171 222.05 188.174 221.902 187.27 221.728C180.064 220.343 172.977 218.336 166.115 215.736C164.908 215.279 163.587 214.688 163.101 213.493C162.339 211.616 164.073 209.728 165.636 208.44L175.922 199.962C176.175 199.753 176.464 199.532 176.792 199.556C177.119 199.579 177.397 200.012 177.166 200.244L166.129 209.287C164.878 210.311 163.499 211.945 164.328 213.333C164.694 213.945 165.393 214.262 166.052 214.534C172.618 217.234 179.532 218.988 186.477 220.459C187.346 220.643 188.265 220.82 189.105 220.535C189.946 220.251 190.637 219.325 190.34 218.488L186.753 208.388C186.278 207.053 186.009 205.173 187.291 204.571C185.183 203.865 182.811 203.983 180.782 204.894C179.556 205.444 178.569 203.386 179.342 202.286C179.99 201.362 181.131 201.015 182.236 200.678L182.237 200.678L182.238 200.678C182.448 200.614 182.656 200.551 182.86 200.484C184.137 200.064 185.528 199.118 185.435 197.778C183.203 198.119 181.001 198.658 178.864 199.388C177.851 199.734 176.812 198.75 176.556 197.71C175.869 194.922 178.681 192.538 181.331 191.431C184.087 190.279 187.057 189.638 190.043 189.553C190.65 189.535 191.002 188.876 191.225 188.311L194.14 180.95L187.712 179.139L183.152 190.077C182.188 189.573 182.68 188.122 183.232 187.186C185.017 184.16 186.154 180.754 186.545 177.263C189.215 176.908 192.014 177.657 194.15 179.298C194.497 179.565 194.842 179.875 194.979 180.291C195.157 180.827 194.953 181.407 194.751 181.935L191.763 189.742C194.435 189.744 197.032 191.435 198.115 193.878C199.057 196.003 198.869 198.357 198.68 200.715L198.68 200.716C198.603 201.68 198.525 202.645 198.525 203.596C198.525 209.774 201.833 215.406 205.037 220.688L208.422 226.266C209.516 228.069 210.616 229.881 211.984 231.487C214.584 234.542 218.134 236.776 222.014 237.798C218.608 238.03 215.297 236.342 212.826 233.988C210.354 231.634 208.587 228.654 206.851 225.715L201.467 216.596C199.404 213.102 197.169 209.153 197.136 205.096ZM187.807 206.211C187.728 205.985 187.625 205.734 187.403 205.645C187.03 206.229 187.19 206.993 187.379 207.659C188.122 210.268 189.128 212.802 190.378 215.209C189.889 212.124 188.846 209.158 187.807 206.211ZM187.541 178.086C189.17 178.914 190.986 179.371 192.812 179.414C191.243 178.454 189.378 177.984 187.541 178.086ZM190.675 216.665C190.588 216.914 190.784 217.219 191.047 217.242C190.97 216.575 190.762 215.924 190.437 215.338C190.307 215.765 190.383 216.25 190.637 216.617L190.675 216.665ZM214.975 270.873C214.623 270.744 214.628 270.249 214.699 269.88L215.782 264.222C215.85 263.867 216.005 263.43 216.366 263.404C216.82 263.371 216.98 263.994 216.961 264.449C216.879 266.398 216.493 268.334 215.822 270.167C215.68 270.552 215.361 271.015 214.975 270.873ZM116.748 289.16C113.776 289.556 110.432 289.855 108.091 287.982C107.945 287.865 107.801 287.735 107.73 287.563C107.429 286.836 108.493 286.374 109.258 286.192C111.914 285.561 113.888 283.376 115.544 281.206C119.287 276.3 122.343 270.869 124.593 265.123C124.638 265.008 124.683 264.892 124.728 264.776C125.547 262.675 126.411 260.457 128.252 259.183C128.987 262.405 128.223 265.937 126.222 268.567C126.536 269.166 127.364 269.332 128.005 269.113C128.646 268.894 129.142 268.39 129.613 267.903L134.812 262.528C136.033 261.265 137.966 259.929 139.347 261.014C139.798 261.369 140.04 261.899 140.283 262.429C140.375 262.631 140.468 262.833 140.572 263.025C141.767 265.234 144.254 265.963 146.772 266.7C147.951 267.045 149.137 267.392 150.2 267.894C150.567 268.068 151.093 268.223 151.306 267.877C151.378 267.76 151.385 267.616 151.388 267.479C151.458 264.765 150.845 262.037 149.62 259.614C151.841 260.696 154.262 261.997 155.078 264.329C157.733 271.924 160.974 279.314 164.762 286.412C160.208 287.245 155.482 287.122 150.977 286.053C150.885 287.172 151.816 288.273 152.933 288.37C150.708 289.043 148.494 289.757 146.295 290.51L147.966 291.89C142.249 292.263 136.478 291.808 130.89 290.543C130.993 291.454 131.179 292.356 131.445 293.234C127.309 292.514 123.23 291.463 119.262 290.093L119.923 288.738L116.748 289.16Z" fill="black"/>
<path fill-rule="evenodd" clip-rule="evenodd" d="M154.414 174.064C153.983 174.246 153.429 174.259 153.1 173.926C152.692 173.514 152.829 172.821 153.082 172.3C153.307 171.839 153.621 171.394 154.08 171.165C154.539 170.936 155.166 170.988 155.483 171.391C155.678 171.638 155.729 171.973 155.703 172.286C155.638 173.053 155.122 173.764 154.414 174.064Z" fill="url(#paint6_linear_206_2239)"/>
<path fill-rule="evenodd" clip-rule="evenodd" d="M165.933 112.697C165.27 112.988 164.676 112.167 163.992 111.928C163.278 111.678 162.52 112.094 161.873 112.486C160.511 113.31 159.124 114.092 157.714 114.831C157.425 114.983 157.111 115.137 156.787 115.095C156.463 115.053 156.16 114.717 156.279 114.413C156.346 114.242 156.516 114.139 156.675 114.047C157.862 113.366 159.048 112.685 160.235 112.004C161.767 111.125 163.533 110.215 165.22 110.741C165.651 110.876 166.076 111.126 166.273 111.532C166.47 111.939 166.347 112.515 165.933 112.697V112.697Z" fill="black"/>
<path fill-rule="evenodd" clip-rule="evenodd" d="M168.863 137.892C168.46 138.871 167.846 140.007 166.788 140.058C165.842 140.103 165.102 139.187 164.879 138.266C164.569 136.984 165.058 135.455 166.235 134.859C167.412 134.264 169.141 135.028 169.237 136.343C169.276 136.878 169.067 137.396 168.863 137.892H168.863Z" fill="url(#paint7_linear_206_2239)"/>
<path fill-rule="evenodd" clip-rule="evenodd" d="M189.574 137.064L189.584 137.271C189.646 138.283 189.869 139.426 190.783 139.809C191.657 140.175 192.665 139.567 193.189 138.779C193.919 137.68 193.983 136.076 193.081 135.113C192.179 134.151 190.292 134.278 189.752 135.481C189.533 135.97 189.551 136.528 189.574 137.064Z" fill="url(#paint8_linear_206_2239)"/>
<path fill-rule="evenodd" clip-rule="evenodd" d="M191.399 118.417C191.675 118.344 192.018 118.341 192.19 118.569C192.304 118.721 192.303 118.928 192.293 119.118C192.248 119.95 191.89 120.997 191.057 121.016C190.416 121.03 189.936 120.294 190.066 119.666C190.197 119.038 190.779 118.581 191.399 118.417V118.417Z" fill="url(#paint9_linear_206_2239)"/>
<path fill-rule="evenodd" clip-rule="evenodd" d="M189.992 125.253C189.584 124.53 190.41 123.75 191.128 123.335C191.723 122.99 192.662 122.744 192.949 123.37C193.147 123.8 192.819 124.277 192.51 124.636C192.177 125.023 191.823 125.422 191.349 125.61C190.874 125.798 190.243 125.697 189.992 125.253H189.992Z" fill="url(#paint10_linear_206_2239)"/>
<path fill-rule="evenodd" clip-rule="evenodd" d="M184.299 121.868C184.191 122.15 184.072 122.441 183.844 122.639C183.528 122.913 183.06 122.948 182.657 122.838C181.842 122.615 181.221 121.791 181.272 120.947C181.324 120.102 182.075 119.347 182.92 119.33C183.766 119.314 184.56 120.078 184.537 120.923C184.529 121.249 184.415 121.563 184.299 121.868Z" fill="black"/>
<path fill-rule="evenodd" clip-rule="evenodd" d="M163.897 123.133C162.96 123.036 162.261 121.959 162.555 121.064C162.849 120.169 164.051 119.715 164.863 120.193C165.675 120.671 165.862 121.941 165.223 122.633C164.89 122.993 164.384 123.184 163.897 123.133H163.897Z" fill="black"/>
<path fill-rule="evenodd" clip-rule="evenodd" d="M174.937 136.137L176.794 135.791L176.817 136.082C176.958 138.113 176.627 139.066 175.825 138.94C175.009 138.812 174.706 137.926 174.918 136.28L174.937 136.137ZM176.379 136.314L175.55 136.545C175.44 137.708 175.572 138.333 175.947 138.422C176.321 138.51 176.465 137.807 176.379 136.314Z" fill="black"/>
<path fill-rule="evenodd" clip-rule="evenodd" d="M178.692 135.723L181.179 135.381L181.208 135.661C181.398 137.67 180.956 138.612 179.881 138.487C178.786 138.361 178.382 137.482 178.668 135.853L178.692 135.723ZM179.101 135.936C178.935 136.915 179.113 137.972 179.675 138.047C180.237 138.121 180.645 137.444 180.516 136.186L180.306 136.13C180.144 136.089 180.014 136.059 179.915 136.042L179.783 136.02C179.613 135.995 179.386 135.967 179.101 135.936Z" fill="black"/>
<path fill-rule="evenodd" clip-rule="evenodd" d="M150.616 218.511C150.024 219.389 149.432 220.267 148.84 221.145C148.48 221.139 148.458 220.607 148.561 220.262C149.113 218.4 149.666 216.539 150.219 214.677C149.829 214.503 149.47 214.964 149.289 215.35C147.465 219.252 145.634 223.171 144.395 227.296C143.156 231.421 142.521 235.791 143.141 240.053C143.545 239.109 143.949 238.165 144.354 237.221C144.996 235.721 145.64 234.216 146.472 232.813C147.377 231.284 148.495 229.887 149.362 228.336C150.228 226.785 150.843 225.01 150.61 223.249C150.26 223.735 149.911 224.222 149.561 224.708C148.572 222.784 151.237 220.583 150.616 218.511Z" fill="url(#paint11_linear_206_2239)"/>
<path fill-rule="evenodd" clip-rule="evenodd" d="M125.083 216.43C125.98 216.442 125.205 214.568 126.013 214.177C126.525 213.928 126.996 214.579 127.188 215.115C128.482 218.725 129.241 222.527 129.431 226.357C129.646 230.694 132.62 234.906 131.411 239.076C131.326 239.372 131.211 239.674 130.982 239.878C130.16 240.614 128.965 239.543 128.443 238.571C126.649 235.239 125.428 231.599 124.847 227.859C124.719 227.036 124.615 226.185 124.214 225.454C123.877 224.84 123.35 224.35 122.981 223.754C122.254 222.58 122.205 221.124 122.178 219.744C122.128 217.221 122.077 214.698 122.027 212.175C122.009 211.259 122.229 210.049 123.14 209.943C124.118 211.987 124.776 214.184 125.083 216.43Z" fill="url(#paint12_linear_206_2239)"/>
<path fill-rule="evenodd" clip-rule="evenodd" d="M108.091 287.981C110.432 289.855 113.776 289.556 116.748 289.16C117.807 289.019 118.865 288.879 119.923 288.738C119.703 289.189 119.482 289.641 119.262 290.093C123.23 291.463 127.309 292.514 131.445 293.234C131.179 292.356 130.993 291.454 130.89 290.543C136.478 291.808 142.249 292.263 147.967 291.89C147.409 291.43 146.852 290.97 146.295 290.51C148.495 289.757 150.708 289.043 152.934 288.37C151.816 288.273 150.885 287.171 150.977 286.053C155.482 287.122 160.208 287.245 164.762 286.412C160.974 279.314 157.733 271.924 155.078 264.329C154.262 261.997 151.841 260.696 149.62 259.614C150.845 262.036 151.459 264.765 151.388 267.479C151.385 267.616 151.378 267.76 151.306 267.877C151.093 268.223 150.567 268.068 150.2 267.894C146.865 266.32 142.326 266.268 140.572 263.025C140.195 262.328 139.97 261.504 139.347 261.014C137.966 259.929 136.033 261.265 134.812 262.528C133.079 264.32 131.346 266.111 129.613 267.903C129.142 268.39 128.646 268.894 128.005 269.113C127.364 269.332 126.537 269.166 126.222 268.567C128.223 265.937 128.987 262.405 128.252 259.183C126.309 260.528 125.455 262.923 124.593 265.123C122.343 270.869 119.288 276.299 115.544 281.205C113.888 283.376 111.914 285.561 109.258 286.192C108.493 286.374 107.429 286.836 107.73 287.563C107.801 287.735 107.945 287.865 108.091 287.981Z" fill="white"/>
<path fill-rule="evenodd" clip-rule="evenodd" d="M153.863 245.742C151.988 228.396 151.594 210.262 158.307 194.158C153.773 210.972 152.661 228.7 155.06 245.948C157.462 263.212 155.737 263.072 153.863 245.742Z" fill="black"/>
<path fill-rule="evenodd" clip-rule="evenodd" d="M133.288 199.709C133.395 198.55 133.548 197.396 133.745 196.249C133.85 195.641 134.745 195.489 135.236 195.862C135.726 196.236 135.899 196.885 136.033 197.487C138.088 206.746 138.192 216.434 136.335 225.735C136.159 226.614 135.702 227.706 134.808 227.654C134.026 227.609 133.635 226.708 133.422 225.955C131.722 219.958 130.206 213.909 128.876 207.82C128.532 206.247 128.199 204.644 128.338 203.04C128.477 201.436 129.158 199.804 130.477 198.881C130.985 198.524 131.614 198.28 132.223 198.398C132.833 198.517 133.373 199.094 133.288 199.709" fill="url(#paint13_linear_206_2239)"/>
<path fill-rule="evenodd" clip-rule="evenodd" d="M151.069 259.378C151.73 260.517 153.934 260.918 153.63 260.209C153.326 259.5 153.231 258.904 152.927 258.195C152.62 257.477 152.827 256.186 153.541 256.502C153.775 256.606 153.889 256.868 153.981 257.107C154.585 258.666 154.62 260.359 155.223 261.918C157.471 259.966 156.07 255.23 154.679 253.32C153.288 251.41 152.805 248.583 143.276 246.433C141.493 246.031 139.434 246.043 137.545 246.074C136.302 246.095 128.029 247.499 124.087 252.692C120.145 257.884 119.784 259.043 116.614 262.258C117.798 261.918 119.086 262.965 119.339 264.416C119.592 265.867 118.566 267.859 119.339 269.112C123.69 268.094 122.983 264.442 123.248 264.113C124.881 262.082 126.239 258.88 128.942 258.794C129.385 259.718 129.205 260.768 129.04 261.778C129.466 262.166 128.18 266.305 127.585 268.562C129.466 266.114 132.295 264.817 134.176 262.369C135.3 260.908 136.887 259.274 138.667 259.755C139.772 260.053 140.424 261.53 141.202 262.369C142.725 264.012 144.542 265.558 146.758 265.892C146.719 265.31 147.277 265.088 147.7 264.688C148.465 265.652 149.426 266.559 150.644 266.733C149.833 264.525 149.912 262.175 149.101 259.966C148.973 259.616 148.844 259.227 148.98 258.88C149.32 258.007 150.409 258.238 151.069 259.378Z" fill="url(#paint14_linear_206_2239)"/>
<path fill-rule="evenodd" clip-rule="evenodd" d="M239.178 127.324C240.296 127.297 241.148 127.517 242.759 128.161C242.759 128.161 245.695 129.549 245.589 129.903C245.483 130.256 243.815 130.034 243.215 129.79L242.458 129.48C241.053 128.911 240.302 128.686 239.499 128.661L239.396 128.658L239.391 128.704L239.386 128.757C239.368 129.029 239.428 129.389 239.516 129.596C239.679 129.981 239.874 130.36 240.095 130.73L240.239 130.964L240.406 130.984C242.56 131.255 244.643 132.09 245.998 133.29L246.119 133.4C247.632 134.81 248.289 135.824 247.946 136.614C247.568 137.487 246.502 137.417 245.135 136.85C243.157 136.028 241.077 134.4 239.607 132.404L239.488 132.241L239.451 132.239C239.197 132.225 238.943 132.221 238.691 132.227L238.502 132.233C235.798 132.345 233.891 133.521 233.363 135.632C233.185 136.34 233.293 137.076 233.627 137.792L233.693 137.927L233.717 137.928C236.201 138.029 238.545 138.756 239.843 139.936L239.943 140.03C240.643 140.707 241.085 141.276 241.275 141.763C241.533 142.421 241.343 143.044 240.728 143.316C239.997 143.64 238.703 143.365 237.262 142.695C235.439 141.848 233.904 140.667 232.957 139.315L232.915 139.254L232.781 139.257C232.659 139.26 232.536 139.265 232.414 139.272L232.231 139.283C229.291 139.485 227.14 140.627 226.589 142.431C226.384 143.103 226.55 144.026 226.988 144.989L227.011 145.04L227.134 145.037C228.564 145.019 230.008 145.488 231.29 146.513L231.501 146.683C231.659 146.808 231.949 147.03 231.922 147.009L232.106 147.156C232.93 147.833 233.266 148.389 232.88 149.157C231.9 151.108 229.672 150.441 227.696 148.36C227.174 147.81 226.712 147.212 226.331 146.595L226.253 146.467L226.147 146.488C225.126 146.707 224.143 147.238 223.301 148.045L223.196 148.147C221.475 149.864 221.047 152.076 222.19 153.815L222.269 153.931L222.339 153.963C222.736 154.146 223.17 154.375 223.686 154.666L224.214 154.969L224.839 155.33C224.906 155.367 224.961 155.403 225.012 155.444C225.174 155.574 225.277 155.702 225.289 155.968C225.312 156.438 225.004 156.635 224.686 156.677C224.604 156.688 224.532 156.685 224.451 156.676C224.28 156.655 224.024 156.589 223.73 156.495C223.025 156.268 222.38 155.977 222.053 155.682C221.827 155.478 221.622 155.266 221.439 155.046L221.419 155.02L221.413 155.019C221.078 154.883 220.768 154.786 220.441 154.712L220.343 154.691C219.274 154.465 218.133 154.533 216.434 154.842C213.754 155.328 212.479 157.875 212.942 159.987L212.953 160.036L212.994 160.051C213.445 160.219 213.906 160.479 214.534 160.885L215.087 161.245C215.697 161.637 216.109 162.025 216.345 162.549C216.637 163.198 216.128 164.283 215.26 164.038C213.582 163.564 212.493 162.52 211.941 161.263L211.893 161.15L211.869 161.146C209.189 160.766 205.609 162.127 203.418 164.258L203.29 164.384C202.415 165.27 201.891 166.143 201.749 166.968L201.743 167.006L201.885 166.995C202.496 166.955 203.048 166.968 203.496 167.039L203.627 167.062C205.67 167.458 206.93 167.902 207.538 168.446C208.32 169.145 208.123 170.012 207.319 170.603C206.358 171.31 204.08 171.923 203.478 171.612C201.885 170.788 200.926 169.742 200.552 168.595L200.526 168.51L200.499 168.515C199.644 168.671 198.731 168.911 197.878 169.222L197.696 169.29C195.292 170.207 193.999 171.54 193.656 172.955C193.243 174.659 197.14 178.118 196.839 178.331C196.538 178.544 195.27 177.41 194.648 176.82L194.542 176.72C192.784 175.06 192.193 174.224 192.326 172.828C192.524 170.746 194.391 169.12 197.22 168.041C198.219 167.661 199.3 167.371 200.322 167.19L200.381 167.179L200.386 167.116C200.487 165.938 201.122 164.711 202.243 163.545L202.34 163.445C204.63 161.129 208.321 159.596 211.385 159.759L211.543 159.769L211.533 159.674C211.285 157.071 212.902 154.214 216.03 153.559L216.196 153.527L216.648 153.448C218.119 153.204 219.227 153.146 220.298 153.323L220.482 153.356L220.456 153.279C219.815 151.292 220.457 149.059 222.145 147.31L222.252 147.201C223.223 146.233 224.37 145.568 225.578 145.25L225.636 145.235L225.603 145.153C225.187 144.092 225.046 143.045 225.278 142.16L225.312 142.041C226.045 139.637 228.614 138.236 231.956 137.964L232.139 137.95L232.229 137.944L232.203 137.872C231.927 137.085 231.855 136.265 232.036 135.438L232.067 135.307C232.759 132.542 235.207 131.032 238.447 130.898L238.654 130.891L238.63 130.845C238.536 130.666 238.448 130.485 238.366 130.302L238.286 130.119C238.116 129.718 238.022 129.149 238.053 128.67C238.101 127.925 238.442 127.342 239.178 127.324ZM203.373 168.374C203.027 168.307 202.571 168.291 202.047 168.322L201.885 168.332L201.904 168.38C202.198 169.076 202.827 169.716 203.815 170.275L203.993 170.372L204.066 170.367L204.168 170.355C204.38 170.327 204.655 170.27 204.94 170.193C205.6 170.015 206.2 169.767 206.527 169.527L206.569 169.495L206.64 169.435L206.607 169.408C206.215 169.094 205.203 168.739 203.553 168.409L203.373 168.374ZM227.817 146.413L227.835 146.438C228.084 146.784 228.362 147.122 228.665 147.44C230.069 148.918 231.253 149.296 231.659 148.606L231.667 148.592C231.663 148.592 231.659 148.59 231.655 148.586L231.631 148.557C231.55 148.443 231.409 148.309 231.187 148.131L231.059 148.031L230.708 147.76L230.562 147.643C229.763 146.976 228.886 146.582 227.994 146.438L227.817 146.413ZM234.733 139.351L234.776 139.395C235.562 140.198 236.614 140.921 237.825 141.484C238.697 141.889 239.496 142.106 239.925 142.124L239.971 142.125L239.947 142.081C239.802 141.833 239.527 141.498 239.119 141.092L239.014 140.99C238.201 140.202 236.685 139.624 234.952 139.38L234.733 139.351ZM241.427 132.525L241.555 132.665C242.766 133.977 244.246 135.034 245.647 135.616C245.971 135.75 246.26 135.842 246.492 135.888L246.563 135.9L246.518 135.828C246.276 135.456 245.839 134.965 245.208 134.377C244.326 133.555 242.992 132.91 241.524 132.548L241.427 132.525Z" fill="url(#paint15_linear_206_2239)"/>
<path fill-rule="evenodd" clip-rule="evenodd" d="M197.17 76.5859C196.456 76.7426 196.151 77.5689 195.647 78.0982C195.142 78.6276 193.896 78.4988 194.065 77.7876C195.015 75.8974 195.978 73.9634 196.264 71.8676C196.549 69.7718 196.039 67.447 194.444 66.0582C193.34 65.098 191.866 64.6921 190.426 64.4377C184.827 63.449 179.095 64.3317 173.43 64.8131C167.766 65.2946 161.809 65.3177 156.714 62.7949C153.251 61.0802 151.19 56.9208 151.922 53.127C145.831 60.5434 143.09 70.4573 143.801 80.0283C144.006 82.7803 144.486 85.5316 145.494 88.1003C147.988 94.4526 153.672 99.2773 160.122 101.505C166.572 103.734 173.7 103.531 180.293 101.77C186.886 100.009 192.996 96.7563 198.689 92.9923C199.059 92.7472 199.541 93.2832 199.425 93.7124C199.31 94.1417 198.884 94.3997 198.495 94.6137C195.203 96.4226 191.912 98.2315 188.62 100.04C190.594 101.077 191.66 103.246 192.499 105.311C193.567 107.942 194.476 110.638 195.221 113.378C198.749 110.544 202.278 107.711 205.806 104.877C206.173 104.582 206.919 104.436 206.934 104.907C203.569 107.706 200.204 110.504 196.838 113.303C196.329 113.727 195.766 114.29 195.898 114.939C199.099 112.303 202.299 109.667 205.5 107.032C206.525 106.187 207.621 105.224 207.83 103.913C208.768 98.0325 209.675 91.8239 207.522 86.2726C205.882 82.0464 202.469 78.5414 198.287 76.7909C197.932 76.6423 197.546 76.5034 197.17 76.5859Z" fill="white"/>
<path fill-rule="evenodd" clip-rule="evenodd" d="M174.263 127.854C174.57 127.87 174.806 128.132 174.79 128.439L174.77 128.794C174.678 130.291 174.539 131.249 174.323 131.74C174.107 132.23 174.593 132.223 174.757 132.184C174.922 132.144 176.753 130.203 176.968 130.423C177.182 130.644 177.176 130.996 176.956 131.21L176.723 131.434C175.782 132.332 175.172 132.802 174.757 132.901C174.393 132.988 173.714 133.2 173.628 132.723C173.463 131.81 174.087 130.821 174.243 129.59C174.344 128.793 174.096 127.859 174.206 127.854L174.263 127.854Z" fill="black"/>
<defs>
<linearGradient id="paint0_linear_206_2239" x1="187.115" y1="224.076" x2="159.209" y2="220.605" gradientUnits="userSpaceOnUse">
<stop stop-color="#35C3F3"/>
<stop offset="0.264988" stop-color="#8B9FE8"/>
<stop offset="0.525409" stop-color="#E681D8"/>
<stop offset="0.744796" stop-color="#FFA9A4"/>
<stop offset="1" stop-color="#FED2CE"/>
<stop offset="1" stop-color="#FED2CE"/>
</linearGradient>
<linearGradient id="paint1_linear_206_2239" x1="116.737" y1="204.417" x2="111.687" y2="204.281" gradientUnits="userSpaceOnUse">
<stop stop-color="#35C3F3"/>
<stop offset="0.264988" stop-color="#8B9FE8"/>
<stop offset="0.525409" stop-color="#E681D8"/>
<stop offset="0.744796" stop-color="#FFA9A4"/>
<stop offset="1" stop-color="#FED2CE"/>
<stop offset="1" stop-color="#FED2CE"/>
</linearGradient>
<linearGradient id="paint2_linear_206_2239" x1="122.869" y1="198.448" x2="116.115" y2="198.275" gradientUnits="userSpaceOnUse">
<stop stop-color="#35C3F3"/>
<stop offset="0.264988" stop-color="#8B9FE8"/>
<stop offset="0.525409" stop-color="#E681D8"/>
<stop offset="0.744796" stop-color="#FFA9A4"/>
<stop offset="1" stop-color="#FED2CE"/>
<stop offset="1" stop-color="#FED2CE"/>
</linearGradient>
<linearGradient id="paint3_linear_206_2239" x1="176.887" y1="181.859" x2="172.255" y2="181.654" gradientUnits="userSpaceOnUse">
<stop stop-color="#35C3F3"/>
<stop offset="0.264988" stop-color="#8B9FE8"/>
<stop offset="0.525409" stop-color="#E681D8"/>
<stop offset="0.744796" stop-color="#FFA9A4"/>
<stop offset="1" stop-color="#FED2CE"/>
<stop offset="1" stop-color="#FED2CE"/>
</linearGradient>
<linearGradient id="paint4_linear_206_2239" x1="159" y1="186.841" x2="152.738" y2="186.462" gradientUnits="userSpaceOnUse">
<stop stop-color="#35C3F3"/>
<stop offset="0.264988" stop-color="#8B9FE8"/>
<stop offset="0.525409" stop-color="#E681D8"/>
<stop offset="0.744796" stop-color="#FFA9A4"/>
<stop offset="1" stop-color="#FED2CE"/>
<stop offset="1" stop-color="#FED2CE"/>
</linearGradient>
<linearGradient id="paint5_linear_206_2239" x1="155.315" y1="179.538" x2="151.434" y2="179.257" gradientUnits="userSpaceOnUse">
<stop stop-color="#35C3F3"/>
<stop offset="0.264988" stop-color="#8B9FE8"/>
<stop offset="0.525409" stop-color="#E681D8"/>
<stop offset="0.744796" stop-color="#FFA9A4"/>
<stop offset="1" stop-color="#FED2CE"/>
<stop offset="1" stop-color="#FED2CE"/>
</linearGradient>
<linearGradient id="paint6_linear_206_2239" x1="155.337" y1="174.677" x2="152.418" y2="174.508" gradientUnits="userSpaceOnUse">
<stop stop-color="#35C3F3"/>
<stop offset="0.264988" stop-color="#8B9FE8"/>
<stop offset="0.525409" stop-color="#E681D8"/>
<stop offset="0.744796" stop-color="#FFA9A4"/>
<stop offset="1" stop-color="#FED2CE"/>
<stop offset="1" stop-color="#FED2CE"/>
</linearGradient>
<linearGradient id="paint7_linear_206_2239" x1="168.664" y1="140.89" x2="164.128" y2="140.652" gradientUnits="userSpaceOnUse">
<stop stop-color="#35C3F3"/>
<stop offset="0.264988" stop-color="#8B9FE8"/>
<stop offset="0.525409" stop-color="#E681D8"/>
<stop offset="0.744796" stop-color="#FFA9A4"/>
<stop offset="1" stop-color="#FED2CE"/>
<stop offset="1" stop-color="#FED2CE"/>
</linearGradient>
<linearGradient id="paint8_linear_206_2239" x1="193.204" y1="140.755" x2="188.939" y2="140.546" gradientUnits="userSpaceOnUse">
<stop stop-color="#35C3F3"/>
<stop offset="0.264988" stop-color="#8B9FE8"/>
<stop offset="0.525409" stop-color="#E681D8"/>
<stop offset="0.744796" stop-color="#FFA9A4"/>
<stop offset="1" stop-color="#FED2CE"/>
<stop offset="1" stop-color="#FED2CE"/>
</linearGradient>
<linearGradient id="paint9_linear_206_2239" x1="192.005" y1="121.422" x2="189.712" y2="121.297" gradientUnits="userSpaceOnUse">
<stop stop-color="#35C3F3"/>
<stop offset="0.264988" stop-color="#8B9FE8"/>
<stop offset="0.525409" stop-color="#E681D8"/>
<stop offset="0.744796" stop-color="#FFA9A4"/>
<stop offset="1" stop-color="#FED2CE"/>
<stop offset="1" stop-color="#FED2CE"/>
</linearGradient>
<linearGradient id="paint10_linear_206_2239" x1="192.604" y1="126.118" x2="189.429" y2="125.885" gradientUnits="userSpaceOnUse">
<stop stop-color="#35C3F3"/>
<stop offset="0.264988" stop-color="#8B9FE8"/>
<stop offset="0.525409" stop-color="#E681D8"/>
<stop offset="0.744796" stop-color="#FFA9A4"/>
<stop offset="1" stop-color="#FED2CE"/>
<stop offset="1" stop-color="#FED2CE"/>
</linearGradient>
<linearGradient id="paint11_linear_206_2239" x1="147.342" y1="244.605" x2="140.857" y2="243.705" gradientUnits="userSpaceOnUse">
<stop stop-color="#35C3F3"/>
<stop offset="0.264988" stop-color="#8B9FE8"/>
<stop offset="0.525409" stop-color="#E681D8"/>
<stop offset="0.744796" stop-color="#FFA9A4"/>
<stop offset="1" stop-color="#FED2CE"/>
<stop offset="1" stop-color="#FED2CE"/>
</linearGradient>
<linearGradient id="paint12_linear_206_2239" x1="129.175" y1="244.486" x2="116.321" y2="242.543" gradientUnits="userSpaceOnUse">
<stop stop-color="#35C3F3"/>
<stop offset="0.264988" stop-color="#8B9FE8"/>
<stop offset="0.525409" stop-color="#E681D8"/>
<stop offset="0.744796" stop-color="#FFA9A4"/>
<stop offset="1" stop-color="#FED2CE"/>
<stop offset="1" stop-color="#FED2CE"/>
</linearGradient>
<linearGradient id="paint13_linear_206_2239" x1="136.442" y1="232.572" x2="126.898" y2="232.394" gradientUnits="userSpaceOnUse">
<stop stop-color="#35C3F3"/>
<stop offset="0.264988" stop-color="#8B9FE8"/>
<stop offset="0.525409" stop-color="#E681D8"/>
<stop offset="0.744796" stop-color="#FFA9A4"/>
<stop offset="1" stop-color="#FED2CE"/>
<stop offset="1" stop-color="#FED2CE"/>
</linearGradient>
<linearGradient id="paint14_linear_206_2239" x1="151.245" y1="272.654" x2="111.091" y2="268.245" gradientUnits="userSpaceOnUse">
<stop stop-color="#35C3F3"/>
<stop offset="0.264988" stop-color="#8B9FE8"/>
<stop offset="0.525409" stop-color="#E681D8"/>
<stop offset="0.744796" stop-color="#FFA9A4"/>
<stop offset="1" stop-color="#FED2CE"/>
<stop offset="1" stop-color="#FED2CE"/>
</linearGradient>
<linearGradient id="paint15_linear_206_2239" x1="240.808" y1="186.199" x2="184.169" y2="182.264" gradientUnits="userSpaceOnUse">
<stop stop-color="#35C3F3"/>
<stop offset="0.264988" stop-color="#8B9FE8"/>
<stop offset="0.525409" stop-color="#E681D8"/>
<stop offset="0.744796" stop-color="#FFA9A4"/>
<stop offset="1" stop-color="#FED2CE"/>
<stop offset="1" stop-color="#FED2CE"/>
</linearGradient>
</defs>
</svg>
