<svg width="420" height="250" viewBox="0 0 420 250" fill="none" xmlns="http://www.w3.org/2000/svg">
<path fill-rule="evenodd" clip-rule="evenodd" d="M20.6115 230.065C20.8207 230.444 20.6854 230.922 20.3062 231.131C19.9297 231.341 19.4505 231.205 19.2414 230.828C12.2475 218.209 6.98716 204.586 3.74678 190.277C0.614924 176.433 -0.623829 161.947 0.297229 147.11C2.97608 103.895 23.427 65.8535 54.3279 39.286C85.2203 12.7263 126.559 -2.36759 171.021 0.304065C202.878 2.21809 232.019 12.9969 256.052 30.0159C280.859 47.584 300.226 71.7982 311.531 99.7764L311.586 99.8915L311.603 99.9307C311.625 99.9778 311.649 100.027 311.677 100.094C315.284 108.388 319.259 114.938 324.211 119.595C329.122 124.212 335.02 126.981 342.513 127.763C342.943 127.806 343.258 128.192 343.213 128.623C343.168 129.052 342.784 129.365 342.354 129.323C334.493 128.501 328.301 125.591 323.138 120.736C318.015 115.92 313.928 109.201 310.241 100.72L310.194 100.617L310.167 100.567L310.112 100.452L310.114 100.45L310.095 100.405C298.905 72.6866 279.722 48.6953 255.148 31.2939C231.35 14.4416 202.487 3.76735 170.93 1.87032C126.89 -0.775185 85.9439 14.1722 55.347 40.4783C24.7572 66.7765 4.51292 104.429 1.86283 147.202C0.952231 161.895 2.17791 176.234 5.2784 189.933C8.48282 204.095 13.6902 217.58 20.6115 230.065Z" fill="#FFEBB3"/>
<path fill-rule="evenodd" clip-rule="evenodd" d="M162.478 4.323C226.712 4.323 282.077 42.2518 307.426 96.9309C307.476 97.0309 307.53 97.1218 307.581 97.2231C315.857 113.92 325.22 123.349 340.563 124.042C383.868 125.998 420 145.885 420 195.231C420 216.136 411.005 234.94 396.678 247.986H300.676C300.178 247.531 299.684 247.071 299.199 246.603C298.918 247.067 298.632 247.526 298.347 247.986H26.6115C11.5039 223.591 2.77441 194.83 2.77441 164.026C2.77441 75.825 74.2751 4.323 162.478 4.323Z" fill="#FFEBB3"/>
<path fill-rule="evenodd" clip-rule="evenodd" d="M238.192 216.736C238.553 216.494 242.166 216.013 242.368 216.534C242.569 217.056 243.612 220.669 243.291 222.315C242.97 223.961 242.141 227.589 240.762 228.977C239.384 230.367 235.433 230.131 234.942 230.061C234.45 229.991 233.385 229.67 232.994 229.188C232.602 228.706 238.192 216.736 238.192 216.736Z" fill="#7C7C7C"/>
<path fill-rule="evenodd" clip-rule="evenodd" d="M219.408 109.001C219.408 109.001 226.231 111.009 230.085 115.906C233.939 120.803 236.908 131.962 238.031 142.879C239.156 153.798 240.119 167.927 242.207 175.794C244.294 183.661 250.877 196.025 250.396 205.98C250.162 210.821 249.628 215.864 248.378 219.257C246.376 224.697 240.438 234.357 233.056 229.382C241.172 231.815 245.157 222.443 240.401 216.978C237.712 213.886 225.709 211.201 225.709 211.201C225.709 211.201 209.45 117.086 219.408 109.001Z" fill="white"/>
<path fill-rule="evenodd" clip-rule="evenodd" d="M224.536 204.092C223.376 196.872 221.539 184.919 219.883 171.861L222.974 165.606L230.986 165.266C230.986 165.266 230.438 173.89 233.244 179.736C236.049 185.583 237.993 182.44 237.993 182.44L240.425 184.369C240.425 184.369 241.583 185.025 241.274 186.068C240.965 187.11 233.282 208.885 233.282 208.885L224.536 204.092Z" fill="#7C7C7C"/>
<path fill-rule="evenodd" clip-rule="evenodd" d="M219.407 109.001C219.407 109.001 223.565 110.225 227.222 113.092C226.949 114.481 226.353 115.857 225.368 116.965C222.602 120.078 217.159 127.398 217.159 127.398L216.181 126.428C216.189 117.461 217.083 110.888 219.407 109.001Z" fill="#7C7C7C"/>
<path fill-rule="evenodd" clip-rule="evenodd" d="M139.571 111.658C139.571 111.658 144.803 135.421 139.023 150.674L146.056 201.757C146.056 201.757 145.169 205.182 144.794 210.695H225.701C225.653 208.536 225.424 206.215 224.842 204.161C224.842 204.161 226.368 201.111 225.806 198.943C225.245 196.776 225.726 181.341 225.565 180.055C225.565 180.055 233.032 166.488 231.105 157.657C229.103 148.477 223.097 118.477 219.75 111.249L200.96 109.629L139.571 111.658Z" fill="#58C4E0"/>
<path fill-rule="evenodd" clip-rule="evenodd" d="M144.354 189.402L146.057 201.756C146.057 201.756 145.545 203.73 145.135 207.09L158.578 206.374C158.578 206.374 164.137 188.847 164.446 185.912C164.755 182.979 161.957 180.853 161.957 180.853L159.806 174.647L164.29 162.643L163.287 161.128L144.354 189.402Z" fill="#4BA8BF"/>
<path fill-rule="evenodd" clip-rule="evenodd" d="M139.673 112.146C139.966 113.591 140.83 118.138 141.343 123.963L141.361 123.993C144.604 129.706 166.454 159.588 171.858 165.455C177.263 171.324 181.509 174.026 188.537 165.842C195.563 157.657 207.223 144.674 207.223 144.674L212.163 122.447L217.158 127.398C217.158 127.398 220.021 123.548 222.649 120.244C221.586 116.279 220.585 113.054 219.748 111.25L200.958 109.63L140.12 111.642L139.673 112.146Z" fill="#4BA8BF"/>
<path fill-rule="evenodd" clip-rule="evenodd" d="M144.795 210.695C144.672 212.553 144.604 214.645 144.643 216.921C144.643 216.921 137.241 228.355 129.215 247.101H237.767C233.559 237.01 228.179 225.096 225.245 218.409C225.245 218.409 225.794 214.847 225.702 210.694H144.795V210.695Z" fill="#4C4375"/>
<path fill-rule="evenodd" clip-rule="evenodd" d="M144.796 210.695C144.672 212.553 144.604 214.645 144.644 216.921C144.644 216.921 143.186 219.175 140.862 223.317C147.508 226.181 194.278 245.28 231.564 232.694C229.124 227.15 226.827 222.018 225.245 218.409C225.245 218.409 225.795 214.847 225.702 210.694H144.796V210.695Z" fill="#403867"/>
<path fill-rule="evenodd" clip-rule="evenodd" d="M145.4 205.177C145.021 207.635 144.622 211.292 144.633 215.733C189.963 228.354 216.056 221.346 225.333 217.658C225.591 215.627 226.249 209.114 224.844 204.161C224.844 204.161 225.09 203.669 225.348 202.939C223.463 203.151 221.457 203.416 219.307 203.746C182.091 209.46 151.733 203.1 151.733 203.1L145.4 205.177Z" fill="#7C7C7C"/>
<path fill-rule="evenodd" clip-rule="evenodd" d="M146.57 163.336C146.57 163.336 149.476 163.807 153.891 166.575C158.307 169.345 156.862 171.192 156.862 171.192C156.862 171.192 160.285 174.226 161.904 178.669C163.524 183.113 150.56 183.595 150.56 183.595C150.56 183.595 142.974 173.961 143.093 172.958C143.215 171.954 144.016 164.769 144.016 164.769C144.016 164.769 144.877 163.429 146.57 163.336Z" fill="#7C7C7C"/>
<path d="M206.324 181.494C206.31 181.494 206.295 181.492 206.28 181.49C206.12 181.466 206.012 181.316 206.036 181.156C207.77 169.968 207.67 165.819 206.518 159.741C205.413 153.893 199.209 137.158 199.147 136.989C199.09 136.838 199.168 136.67 199.319 136.614C199.466 136.555 199.637 136.634 199.694 136.787C199.757 136.955 205.977 153.736 207.093 159.633C208.257 165.783 208.36 169.974 206.613 181.247C206.59 181.39 206.466 181.494 206.324 181.494ZM201.928 167.565C200.442 167.565 199.08 165.861 198.891 163.767C198.779 162.52 199.104 161.346 199.762 160.626C200.187 160.162 200.715 159.916 201.291 159.916C202.193 159.916 203.084 160.538 203.676 161.582C204.035 162.213 204.261 162.949 204.33 163.715C204.379 164.268 204.346 164.801 204.23 165.3C203.913 166.676 203.009 167.565 201.928 167.565ZM201.291 160.5C200.884 160.5 200.505 160.68 200.193 161.021C199.644 161.622 199.373 162.629 199.472 163.715C199.635 165.516 200.737 166.981 201.928 166.981C202.726 166.981 203.407 166.269 203.66 165.169C203.762 164.73 203.792 164.258 203.749 163.767C203.686 163.084 203.486 162.429 203.169 161.87C202.682 161.012 201.98 160.5 201.291 160.5Z" fill="#4BA8BF"/>
<path fill-rule="evenodd" clip-rule="evenodd" d="M139.572 111.658C115.338 113.986 123.836 153.489 120.28 173.05C118.85 180.918 115.296 196.224 114.939 206.738L132.242 203.434L142.276 166.426C142.276 166.426 143.802 152.537 144.845 146.999C145.889 141.46 147.816 120.667 139.572 111.658Z" fill="white"/>
<path fill-rule="evenodd" clip-rule="evenodd" d="M145.686 130.552C145.27 123.712 143.746 116.474 139.838 111.961L139.07 112.829C139.07 112.829 138.119 118.279 141.362 123.993C142.059 125.221 143.617 127.568 145.686 130.552Z" fill="#7C7C7C"/>
<path fill-rule="evenodd" clip-rule="evenodd" d="M197.453 101.93L195.754 81.2341L171.59 93.0007L172.671 104.319V104.319C172.74 105.505 171.617 106.449 170.237 107.111C170.237 107.111 172.35 120.594 172.659 122.399C172.968 124.205 175.971 127.067 176.321 127.856C176.672 128.646 176.781 135.03 176.7 139.482C176.659 141.681 176.757 141.373 177.252 139.577C177.835 137.466 178.358 133.757 180.508 128.422C180.508 128.422 184.34 126.425 186.116 124.751C187.891 123.077 205.584 106.086 205.584 106.086L199.545 104.592C199.546 104.591 197.701 104.64 197.453 101.93Z" fill="#F2BA95"/>
<path fill-rule="evenodd" clip-rule="evenodd" d="M197.284 100.281L195.834 82.6462L171.672 94.4134L172.679 104.96C175.138 106.334 177.579 107.605 178.928 108.053C180.958 108.727 183.368 108.791 185.669 108.393C187.971 108.006 190.224 107.147 191.917 105.837C193.139 104.891 195.262 102.592 197.284 100.281Z" fill="#EE8B83"/>
<path fill-rule="evenodd" clip-rule="evenodd" d="M138.51 109.172C138.51 109.172 138.599 113.938 141.506 118.822C144.415 123.707 166.955 152.151 166.955 152.151L149.375 88.5942C149.375 88.5949 139.475 95.3535 138.51 109.172Z" fill="#DC618A"/>
<path fill-rule="evenodd" clip-rule="evenodd" d="M148.739 84.1383L147.243 90.3975C147.017 91.3375 146.504 92.5083 146.861 93.7261C156.442 126.374 159.323 148.945 165.686 152.88C170.825 156.057 180.67 162.579 184.17 163.217C187.671 163.854 203.286 149.178 209.08 142.661C214.876 136.143 223.856 109.804 223.856 109.804C220.964 106.051 215.432 105.61 211.049 104.402L198.703 84.0017L169.471 78.5715C169.473 78.5708 156.031 69.6237 148.739 84.1383Z" fill="#BA547B"/>
<path fill-rule="evenodd" clip-rule="evenodd" d="M192.72 115.456C192.72 115.456 192.469 119.761 196.12 120.577C199.772 121.393 200.881 121.538 200.881 121.538C200.881 121.538 201.215 121.635 201.41 120.992C201.607 120.349 202.972 100.518 202.972 100.518C202.972 100.518 193.875 107.417 192.72 115.456Z" fill="#DC618A"/>
<path fill-rule="evenodd" clip-rule="evenodd" d="M215.038 81.3201C215.038 81.3201 218.095 98.1201 218.253 102.763C218.411 107.405 218.312 110.153 213.625 118.011C208.937 125.868 206.752 128.037 205.769 130.921L203.383 93.4318L215.038 81.3201Z" fill="#F06994"/>
<path fill-rule="evenodd" clip-rule="evenodd" d="M215.039 81.3201C215.039 81.3201 216.996 92.0845 217.859 98.7613C217.859 98.7613 214.782 93.5952 211.208 98.8823C209.428 101.513 206.666 105.29 204.338 108.421L203.383 93.4311L215.039 81.3201Z" fill="#DC618A"/>
<path fill-rule="evenodd" clip-rule="evenodd" d="M205.042 135.313L208.569 138.926C208.569 138.926 206.009 142.23 199.353 143.649C192.697 145.07 172.636 141.377 169.937 140.039C167.238 138.699 155.506 100.916 152.01 98.1226L191.613 129.782L205.042 135.313Z" fill="#F06994"/>
<path fill-rule="evenodd" clip-rule="evenodd" d="M214.626 79.1554C214.626 79.1554 217.258 88.9223 211.89 94.7605C206.523 100.598 194.125 110.329 192.72 115.457C192.72 115.457 193.002 107.286 194.248 100.38C195.494 93.4753 198.433 85.5329 196.075 77.2467C193.717 68.9604 198.513 61.3782 198.513 61.3782C198.513 61.3782 209.499 66.7248 214.626 79.1554Z" fill="#F06994"/>
<path fill-rule="evenodd" clip-rule="evenodd" d="M193.813 103.086C193.942 102.176 194.088 101.268 194.248 100.38C195.493 93.4746 198.433 85.5322 196.075 77.2459C193.859 69.4624 197.957 62.3011 198.463 61.4604C203.87 66.2488 210.746 72.6635 210.701 72.6511C210.944 72.4798 212.135 75.847 212.135 75.847C212.135 75.847 207.731 71.7954 206.372 74.5141C205.013 77.2309 193.827 103.057 193.813 103.086Z" fill="#BA547B"/>
<path fill-rule="evenodd" clip-rule="evenodd" d="M152.009 98.1216C152.009 98.1216 145.048 90.9656 144.296 87.8494C142.617 80.8843 146.508 74.6447 148.039 75.6553C149.424 76.5692 151.138 75.9024 153.382 78.2172C165.27 90.4799 186.78 120.823 189.801 122.027C194.306 123.821 201.989 126.021 204.802 115.717C204.802 115.717 208.654 119.47 209.81 121.649C210.967 123.828 209.687 135.509 208.911 138.269C208.137 141.029 199.627 142.744 190.486 136.915C181.346 131.086 152.009 98.1216 152.009 98.1216Z" fill="#DC618A"/>
<path fill-rule="evenodd" clip-rule="evenodd" d="M149.252 95.1097C147.217 92.774 144.729 89.6435 144.296 87.8504C142.617 80.8852 146.508 74.6457 148.039 75.6563C149.424 76.5702 151.138 75.9034 153.382 78.2182C156.451 81.3834 160.16 85.7546 164.029 90.5168L164.035 92.4361L168.138 98.1958C168.138 98.1958 163.356 96.7655 161.09 95.9353C158.825 95.1044 157.616 93.7199 157.012 92.8387C156.408 91.9576 155.577 91.4542 154.672 91.9079C153.931 92.2772 150.494 94.3566 149.252 95.1097Z" fill="#BA547B"/>
<path fill-rule="evenodd" clip-rule="evenodd" d="M170.859 35.9142C140.492 41.5497 149.011 64.4853 154.955 83.1339C157.457 90.9842 162.715 94.9744 162.715 94.9744C162.715 94.9744 172.579 101.045 175.812 102.119C177.738 102.759 180.025 102.819 182.207 102.442C184.391 102.075 186.527 101.26 188.132 100.018C190.827 97.933 198.121 88.9349 198.121 88.9349C198.121 88.9349 201.758 83.4275 201.517 75.1922C200.944 55.6271 201.379 31.1644 170.859 35.9142Z" fill="#FFC5B0"/>
<path fill-rule="evenodd" clip-rule="evenodd" d="M162.115 38.4082C142.357 46.5997 149.673 66.559 154.955 83.1341C155.376 84.4526 155.874 85.6606 156.412 86.7608C156.978 76.7632 164.955 59.603 168.18 53.8635C171.401 48.1234 178.301 47.524 178.301 47.524L175.68 45.757C175.68 45.757 185.85 32.5661 186.844 47.9777C187.836 63.3905 201.325 68.6639 201.325 68.6639C200.723 52.0816 198.453 34.7115 176.916 35.3352C172.106 36.2065 166.973 37.2812 162.115 38.4082Z" fill="#FFA89E"/>
<path fill-rule="evenodd" clip-rule="evenodd" d="M170.859 35.9142C140.492 41.5497 149.011 64.4853 154.955 83.1339C155.243 84.0386 155.569 84.8911 155.918 85.6932C155.892 85.5709 153.071 72.2682 158.583 62.2451C164.121 52.1755 173.889 44.02 184.765 49.0541C195.634 54.0863 201.43 72.1963 201.435 72.212C200.91 53.2437 199.845 31.403 170.859 35.9142Z" fill="#403867"/>
<path fill-rule="evenodd" clip-rule="evenodd" d="M168.3 48.6005C165.768 53.8928 161.95 62.7144 157.402 73.5213C150.981 88.7838 151.189 92.3288 145.382 98.6599C139.574 104.992 138.509 109.173 138.509 109.173C138.509 109.173 137.021 93.348 138.779 81.8246C140.536 70.3025 144.579 49.8464 147.741 39.9259C150.904 30.006 163.832 23.8195 178.122 24.8536C192.41 25.8878 196.227 36.7097 201.043 45.4137C205.858 54.117 214.627 79.1562 214.627 79.1562C214.627 79.1562 213.097 75.4086 207.21 72.3839C201.323 69.3592 192.552 60.3265 188.969 51.8304C185.008 42.4354 174.223 36.2234 168.3 48.6005Z" fill="#FF80A9"/>
<path fill-rule="evenodd" clip-rule="evenodd" d="M157.54 153.331L152.348 155.275C152.348 155.275 152.506 155.943 151.816 157.112C151.123 158.28 141.485 171.92 141.485 171.92L145.045 180.791L153.543 181.817C153.543 181.817 161.544 166.413 162.405 164.793C163.265 163.173 164.578 162.27 165.494 162.143L157.54 153.331Z" fill="#FFC5B0"/>
<path fill-rule="evenodd" clip-rule="evenodd" d="M145.568 166.126C143.39 169.223 141.485 171.92 141.485 171.92L145.045 180.791L153.543 181.818C153.543 181.818 155.117 178.787 156.944 175.273C149.068 173.311 145.568 166.126 145.568 166.126Z" fill="#FFA89E"/>
<path fill-rule="evenodd" clip-rule="evenodd" d="M114.94 206.739C114.819 210.383 115.078 213.454 115.946 215.437C119.318 223.144 121.968 225.794 125.82 226.837C129.673 227.88 142.598 222.823 146.613 214.153C150.627 205.483 161.786 181.399 161.786 181.399C161.786 181.399 162.508 179.513 161.906 178.669C161.723 181.231 153.846 178.875 149.022 174.178C144.962 170.224 143.462 164.048 146.572 163.336C146.572 163.336 144.888 163.176 144.325 163.698C143.763 164.219 142.277 166.427 142.277 166.427L124.857 188.182L114.94 206.739Z" fill="white"/>
<path fill-rule="evenodd" clip-rule="evenodd" d="M238.45 177.382H181.711C181.115 177.382 180.423 177.859 180.174 178.444L167.419 208.433C167.17 209.018 167.456 209.495 168.054 209.495H224.791C225.388 209.495 226.08 209.018 226.329 208.433L239.084 178.444C239.333 177.86 239.049 177.382 238.45 177.382Z" fill="white"/>
<path fill-rule="evenodd" clip-rule="evenodd" d="M239.253 179.469H178.904C178.306 179.469 177.614 179.947 177.366 180.531L164.611 210.52C164.362 211.105 164.649 211.583 165.245 211.583H225.594C226.192 211.583 226.884 211.105 227.133 210.52L239.888 180.531C240.136 179.947 239.851 179.469 239.253 179.469Z" fill="#4C4375"/>
<path fill-rule="evenodd" clip-rule="evenodd" d="M190.734 211.584H225.595C226.192 211.584 226.884 211.106 227.134 210.521L235.271 191.386C229.348 190.523 226.035 197.075 223.087 198.343C219.496 199.887 190.734 211.584 190.734 211.584Z" fill="#403867"/>
<path fill-rule="evenodd" clip-rule="evenodd" d="M228.417 208.213C226.866 205.853 226.424 198.787 230.266 198.258C230.266 198.258 230.976 198.281 231.111 198.944C231.237 199.565 232.08 204.632 234.468 207.238C234.468 207.238 236.004 209.031 236.927 209.874C237.85 210.716 239.954 213.35 240.359 215.593C242.005 224.704 235.882 232.572 227.299 228.642C226.116 227.832 224.975 226.492 223.88 224.246C223.88 224.246 211.508 216.849 210.261 215.946C209.014 215.041 209.303 213.943 209.303 213.943C209.303 213.943 206.592 212.596 206.116 212.306C205.64 212.016 207.183 208.888 209.753 209.522C211.104 203.517 224.413 207.629 228.417 208.213Z" fill="#FFC5B0"/>
<path d="M228.671 227.307C228.621 227.307 228.572 227.293 228.524 227.267L223.734 224.497C223.594 224.417 223.547 224.238 223.626 224.098C223.707 223.958 223.885 223.911 224.026 223.992L228.817 226.763C228.957 226.843 229.004 227.022 228.923 227.161C228.87 227.254 228.772 227.307 228.671 227.307ZM224.839 221.3C224.799 221.3 224.759 221.291 224.719 221.273L209.18 214.208C209.033 214.141 208.97 213.969 209.036 213.821C209.101 213.674 209.273 213.61 209.422 213.677L224.96 220.742C225.107 220.809 225.172 220.981 225.104 221.128C225.057 221.236 224.95 221.3 224.839 221.3ZM229.223 216.136C229.191 216.136 229.161 216.13 229.129 216.12C223.316 214.134 211.941 210.883 210.886 210.614C209.529 210.263 209.46 209.644 209.46 209.523C209.46 209.362 209.591 209.231 209.752 209.231C209.905 209.231 210.031 209.35 210.043 209.499C210.066 209.591 210.284 209.855 211.03 210.048C212.395 210.397 223.705 213.651 229.316 215.567C229.469 215.619 229.551 215.786 229.499 215.937C229.459 216.059 229.345 216.136 229.223 216.136ZM233.142 210.322C233.084 210.322 233.025 210.305 232.974 210.269C231.569 209.285 228.379 208.503 228.347 208.495C228.192 208.457 228.094 208.299 228.133 208.142C228.171 207.986 228.33 207.891 228.485 207.927C228.621 207.96 231.814 208.744 233.309 209.791C233.44 209.884 233.472 210.066 233.38 210.197C233.325 210.279 233.234 210.322 233.142 210.322Z" fill="#EE8B83"/>
<path fill-rule="evenodd" clip-rule="evenodd" d="M153.738 142.583C153.738 142.583 154.542 139.633 154.316 138.725C154.089 137.815 150.751 132.146 150.497 131.307C150.242 130.467 150.577 129.625 152.141 129.16C153.704 128.694 157.801 130.472 158.304 133.263C158.808 136.054 159.482 137.016 159.88 137.536C160.278 138.056 162.839 141.962 162.839 141.962L153.738 142.583Z" fill="#FFC5B0"/>
<path fill-rule="evenodd" clip-rule="evenodd" d="M153.739 142.583C153.739 142.583 154.543 139.633 154.316 138.725C154.294 138.628 154.233 138.478 154.147 138.285L161.462 139.873C162.171 140.941 162.839 141.963 162.839 141.963L153.739 142.583Z" fill="#FFA89E"/>
<path fill-rule="evenodd" clip-rule="evenodd" d="M165.527 140.351C165.527 140.351 154.672 140.922 153.525 141.302C152.377 141.682 150.059 143.115 150.667 144.714C151.276 146.312 150.912 146.67 150.298 147.397C149.685 148.123 149.647 149.996 150.501 151.368C151.357 152.738 150.878 154.35 150.886 155.158C150.892 155.968 151.083 157.231 152.198 158.441C153.314 159.653 153.034 161.927 153.197 162.916C153.359 163.903 154.846 165.88 156.146 166.137C157.446 166.396 159.721 167.118 162.712 164.734C162.712 164.734 166.718 163.443 167.402 163.019C168.089 162.594 169.668 160.892 168.298 158.467C168.298 158.467 169.927 157.6 169.998 156.634C170.066 155.67 170.484 153.821 169.278 153.016C169.278 153.016 170.842 152.339 170.696 151.42C170.549 150.5 170.621 146.576 168.194 146.624C168.194 146.624 169.268 145.626 168.885 143.874C168.502 142.123 167.62 140.335 165.527 140.351Z" fill="#FFC5B0"/>
<path d="M157.965 165.891C157.827 165.891 157.705 165.792 157.678 165.652C157.65 165.493 157.755 165.341 157.913 165.312L162.659 164.448C162.822 164.418 162.969 164.524 162.999 164.682C163.028 164.84 162.922 164.992 162.764 165.022L158.018 165.886C158 165.889 157.983 165.891 157.965 165.891ZM158.267 159.788C158.163 159.788 158.062 159.732 158.008 159.635C157.933 159.495 157.983 159.321 158.122 159.242C158.157 159.223 158.493 159.045 159.329 158.944C159.681 158.902 160.733 158.85 161.951 158.79L162.472 158.765C163.999 158.69 165.547 158.61 166.226 158.53C167.548 158.373 168.211 158.188 168.218 158.186C168.369 158.143 168.533 158.232 168.578 158.388C168.622 158.542 168.532 158.704 168.377 158.748C168.348 158.757 167.67 158.947 166.295 159.109C165.596 159.193 164.037 159.273 162.501 159.348L161.979 159.374C160.823 159.431 159.729 159.485 159.399 159.524C158.685 159.611 158.405 159.753 158.403 159.755C158.36 159.777 158.313 159.788 158.267 159.788ZM158.2 153.48C157.954 153.48 157.851 153.466 157.824 153.462C157.666 153.435 157.557 153.284 157.584 153.125C157.611 152.967 157.75 152.863 157.92 152.886C157.929 152.887 158.169 152.92 159.006 152.863L159.194 152.85C159.726 152.809 161.305 152.752 162.974 152.69C164.65 152.629 166.382 152.567 167.032 152.52C168.084 152.444 168.925 152.622 169.236 152.702C169.322 152.724 169.368 152.739 169.368 152.739C169.52 152.79 169.603 152.954 169.553 153.107C169.504 153.26 169.34 153.344 169.187 153.294L169.09 153.267C168.806 153.195 168.044 153.031 167.072 153.102C166.414 153.15 164.675 153.212 162.995 153.274C161.331 153.335 159.758 153.392 159.237 153.432L159.048 153.446C158.661 153.471 158.389 153.48 158.2 153.48ZM158.801 147.412C157.413 147.412 156.962 146.919 156.912 146.86C156.809 146.736 156.826 146.551 156.951 146.449C157.074 146.347 157.257 146.362 157.362 146.487C157.362 146.487 157.755 146.879 159.067 146.823C160.589 146.753 168.177 146.333 168.177 146.333L168.209 146.916C168.209 146.916 160.617 147.335 159.096 147.405C158.993 147.41 158.895 147.412 158.801 147.412Z" fill="#EE8B83"/>
<path fill-rule="evenodd" clip-rule="evenodd" d="M137.072 208.159H154.187C155.014 208.159 155.691 208.834 155.691 209.662V245.035C155.691 245.863 155.014 246.539 154.187 246.539H137.072C136.244 246.539 135.567 245.863 135.567 245.035V209.662C135.567 208.834 136.244 208.159 137.072 208.159Z" fill="white"/>
<path fill-rule="evenodd" clip-rule="evenodd" d="M132.011 205.363C128.349 209.025 128.215 214.88 131.608 218.703C132.179 219.273 132.887 218.671 132.918 218.64L145.288 206.269C145.319 206.239 145.922 205.53 145.352 204.961C141.528 201.567 135.674 201.701 132.011 205.363Z" fill="#F06994"/>
<path fill-rule="evenodd" clip-rule="evenodd" d="M132.708 206.058C129.29 209.476 129.29 215.018 132.708 218.437C132.777 218.506 132.847 218.574 132.919 218.641L145.289 206.271C145.223 206.2 145.155 206.129 145.085 206.059C141.667 202.641 136.126 202.641 132.708 206.058Z" fill="white"/>
<path fill-rule="evenodd" clip-rule="evenodd" d="M131.001 214.364C131.306 215.502 131.836 216.519 132.533 217.381C132.533 217.381 132.95 217.81 133.551 217.223L133.568 217.208L138.062 212.715C138.19 212.556 138.132 212.334 137.94 212.262L131.8 210.617C130.968 210.394 130.818 210.984 130.818 210.984C130.647 212.078 130.697 213.225 131.001 214.364ZM141.012 204.352C142.151 204.656 143.169 205.187 144.031 205.884C144.031 205.884 144.467 206.307 143.857 206.917L139.364 211.411C139.206 211.542 138.983 211.483 138.911 211.291L137.266 205.15L137.26 205.129C137.053 204.314 137.632 204.168 137.632 204.168C138.727 203.997 139.874 204.047 141.012 204.352ZM133.117 206.467C133.949 205.634 134.919 205.018 135.953 204.62C135.953 204.62 136.539 204.452 136.762 205.287L138.407 211.426C138.44 211.628 138.278 211.792 138.076 211.758H138.075L131.936 210.113L131.914 210.107C131.105 209.879 131.27 209.303 131.27 209.303C131.668 208.27 132.283 207.301 133.117 206.467Z" fill="#FF80A9"/>
<g opacity="0.5">
<path opacity="0.5" fill-rule="evenodd" clip-rule="evenodd" d="M137.071 208.159H143.403L135.567 215.993V209.662C135.567 208.834 136.243 208.159 137.071 208.159Z" fill="white"/>
</g>
<path fill-rule="evenodd" clip-rule="evenodd" d="M138.349 214.923H152.908C153.611 214.923 154.187 215.498 154.187 216.201V242.392C154.187 243.095 153.611 243.671 152.908 243.671H138.349C137.647 243.671 137.071 243.095 137.071 242.392V216.201C137.071 215.498 137.647 214.923 138.349 214.923Z" fill="#FDE3C8"/>
<path fill-rule="evenodd" clip-rule="evenodd" d="M138.818 219.653L142.536 217.506C142.814 217.346 143.174 217.442 143.335 217.72L145.483 221.438C145.643 221.718 145.547 222.077 145.268 222.238L141.549 224.385C141.271 224.546 140.911 224.45 140.75 224.171L138.604 220.453C138.442 220.173 138.538 219.813 138.818 219.653Z" fill="#F2D0AC"/>
<path fill-rule="evenodd" clip-rule="evenodd" d="M146.396 218.664L150.114 216.517C150.394 216.357 150.754 216.453 150.913 216.733L153.061 220.451C153.221 220.729 153.126 221.09 152.847 221.251L149.129 223.398C148.85 223.558 148.49 223.462 148.329 223.183L146.182 219.465C146.02 219.186 146.117 218.825 146.396 218.664Z" fill="white"/>
<path fill-rule="evenodd" clip-rule="evenodd" d="M139.114 227.311L144.908 223.966C145.342 223.715 145.902 223.866 146.154 224.3L149.499 230.094C149.749 230.528 149.598 231.089 149.164 231.339L143.37 234.684C142.936 234.935 142.376 234.786 142.124 234.35L138.779 228.558C138.529 228.123 138.679 227.562 139.114 227.311Z" fill="white"/>
<path fill-rule="evenodd" clip-rule="evenodd" d="M145.967 235.724L150.007 233.391C150.311 233.217 150.702 233.321 150.877 233.625L153.208 237.664C153.383 237.966 153.279 238.357 152.976 238.532L148.936 240.864C148.633 241.039 148.242 240.934 148.066 240.631L145.735 236.592C145.56 236.289 145.665 235.898 145.967 235.724Z" fill="#F2D0AC"/>
<path fill-rule="evenodd" clip-rule="evenodd" d="M139.61 238.021L142.782 236.191C143.018 236.054 143.325 236.136 143.463 236.374L145.292 239.543C145.43 239.781 145.349 240.088 145.11 240.225L141.941 242.055C141.704 242.193 141.396 242.11 141.259 241.873L139.429 238.703C139.291 238.465 139.373 238.159 139.61 238.021Z" fill="#F2D0AC"/>
<path fill-rule="evenodd" clip-rule="evenodd" d="M363.673 173.741C363.742 173.57 363.66 173.376 363.489 173.308C363.319 173.24 363.125 173.319 363.055 173.491C363.053 173.499 361.906 176.304 362.391 179.343C362.462 179.792 362.572 180.345 362.707 181.018C363.527 185.116 365.23 193.62 363.129 201.927C363.085 202.105 363.193 202.287 363.372 202.33C363.549 202.375 363.731 202.266 363.775 202.089C365.913 193.634 364.191 185.032 363.363 180.887C363.223 180.194 363.108 179.624 363.047 179.237C362.593 176.385 363.669 173.749 363.673 173.741Z" fill="#4BA8BF"/>
<path fill-rule="evenodd" clip-rule="evenodd" d="M358.618 168.36C358.618 168.36 353.532 162.165 346.08 163.122C338.629 164.08 337.217 172.236 329.211 171.431C329.211 171.431 331.326 170.474 332.283 164.532C333.239 158.59 337.317 151.289 345.374 151.944C353.431 152.598 357.358 159.447 358.618 168.36Z" fill="#58C4E0"/>
<path fill-rule="evenodd" clip-rule="evenodd" d="M336.615 166.944C336.725 166.944 336.816 166.855 336.816 166.744C336.816 166.633 336.725 166.544 336.615 166.544C336.605 166.544 332.981 166.538 332.36 166.621C332.25 166.635 332.175 166.736 332.187 166.845C332.202 166.953 332.302 167.031 332.411 167.017C332.995 166.938 336.605 166.944 336.615 166.944ZM339.473 163.937C339.576 163.972 339.69 163.915 339.724 163.811C339.76 163.707 339.704 163.593 339.599 163.559C339.589 163.555 336.165 162.388 333.835 162.516C333.725 162.522 333.641 162.616 333.647 162.726C333.653 162.836 333.747 162.92 333.857 162.914C336.109 162.791 339.462 163.933 339.473 163.937ZM342.362 161.264C342.349 161.255 338.057 158.055 335.907 158.006C335.797 158.003 335.71 157.912 335.711 157.802C335.714 157.692 335.805 157.605 335.914 157.607C338.195 157.659 342.589 160.934 342.601 160.944C342.689 161.01 342.707 161.135 342.642 161.223C342.575 161.312 342.451 161.331 342.362 161.264ZM346.555 161.036C346.6 161.136 346.719 161.179 346.819 161.134C346.918 161.088 346.963 160.971 346.917 160.871C346.909 160.854 344.172 154.794 341.925 153.528C341.828 153.476 341.706 153.51 341.653 153.606C341.598 153.701 341.632 153.823 341.728 153.877C343.861 155.077 346.548 161.018 346.555 161.036ZM350.419 161.802C350.442 161.909 350.549 161.977 350.657 161.953C350.764 161.929 350.832 161.823 350.807 161.715C350.803 161.697 349.288 154.927 348.207 153.41C348.143 153.32 348.018 153.3 347.929 153.364C347.839 153.427 347.818 153.552 347.882 153.641C348.916 155.095 350.414 161.783 350.419 161.802ZM353.435 163.548C353.436 163.658 353.527 163.746 353.637 163.744C353.747 163.744 353.835 163.654 353.834 163.544C353.834 163.531 353.809 158.696 353.734 157.616C353.726 157.507 353.631 157.423 353.521 157.431C353.413 157.439 353.328 157.533 353.336 157.643C353.409 158.727 353.435 163.535 353.435 163.548ZM355.79 165.229C355.775 165.338 355.85 165.441 355.959 165.456C356.069 165.472 356.169 165.396 356.186 165.287L356.601 162.468C356.618 162.36 356.541 162.258 356.433 162.242C356.324 162.225 356.222 162.302 356.207 162.41L355.79 165.229ZM333.925 169.838C334.034 169.836 334.121 169.744 334.119 169.635C334.117 169.524 334.027 169.437 333.917 169.439L331.701 169.489C331.59 169.492 331.503 169.583 331.506 169.693C331.509 169.802 331.598 169.89 331.708 169.889L333.925 169.838Z" fill="#4BA8BF"/>
<path fill-rule="evenodd" clip-rule="evenodd" d="M358.618 168.36C358.618 168.36 353.532 162.165 346.08 163.122C338.629 164.08 337.217 172.236 329.211 171.431C335.55 171.027 338.526 158.036 345.677 158.59C352.827 159.145 358.618 168.36 358.618 168.36Z" fill="#4BA8BF"/>
<path fill-rule="evenodd" clip-rule="evenodd" d="M362.789 202.128C362.9 202.27 363.106 202.296 363.249 202.185C363.391 202.074 363.417 201.869 363.305 201.726C363.3 201.719 361.494 199.451 361.298 191.216C361.27 190.01 361.252 188.722 361.233 187.387C361.171 182.978 362.664 163.257 353.594 166.121C352.337 166.518 351.166 167.333 350.284 168.278C349.905 168.683 349.577 169.115 349.316 169.55C349.223 169.705 349.273 169.906 349.43 169.999C349.584 170.092 349.785 170.041 349.879 169.887C350.115 169.493 350.415 169.098 350.764 168.724C351.576 167.856 352.647 167.109 353.791 166.748C362.009 164.152 360.525 183.438 360.58 187.396C360.599 188.741 360.617 190.038 360.645 191.233C360.846 199.685 362.785 202.122 362.789 202.128Z" fill="#4BA8BF"/>
<path fill-rule="evenodd" clip-rule="evenodd" d="M362.448 179.059C362.448 179.059 362.307 171.442 371.668 170.668C390.343 169.124 397.52 154.064 400.567 154.051C400.567 154.051 388.887 142.583 374.503 147.676C360.12 152.768 362.448 179.059 362.448 179.059Z" fill="#4BA8BF"/>
<path fill-rule="evenodd" clip-rule="evenodd" d="M366.473 162.958C366.473 161.478 366.515 158.424 366.852 157.217C366.886 157.094 366.812 156.964 366.689 156.931C366.565 156.897 366.437 156.97 366.403 157.094C365.97 158.649 366.004 163.05 366.013 163.713C365.575 164.462 365.169 165.266 364.79 166.111C364.785 166.122 364.781 166.131 364.777 166.141C363.737 168.47 362.929 171.167 362.425 174.296C362.405 174.423 362.491 174.542 362.619 174.561C362.745 174.582 362.864 174.494 362.884 174.368C363.371 171.354 364.143 168.747 365.138 166.492C365.842 166.662 368.374 167.411 369.94 169.608C370.014 169.713 370.159 169.738 370.264 169.663C370.369 169.589 370.393 169.444 370.318 169.339C368.721 167.095 366.178 166.278 365.329 166.059C366.061 164.472 366.907 163.067 367.842 161.823C368.802 161.946 374.628 162.899 376.202 168.184C376.239 168.307 376.369 168.378 376.492 168.34C376.615 168.304 376.686 168.173 376.649 168.05C375.103 162.861 369.697 161.643 368.161 161.399C369.508 159.693 371.029 158.307 372.656 157.181C373.502 157.278 380.492 158.271 383.593 164.736C383.648 164.852 383.787 164.902 383.902 164.846C384.018 164.791 384.068 164.651 384.012 164.536C381.168 158.605 375.168 157.123 373.232 156.794C374.342 156.079 375.496 155.48 376.676 154.981C376.709 154.975 376.741 154.961 376.77 154.94C377.645 154.573 378.534 154.264 379.43 154.001C380.118 154.22 387.624 156.667 389.549 160.089C389.611 160.201 389.753 160.241 389.865 160.179C389.979 160.117 390.018 159.973 389.956 159.862C388.224 156.781 382.295 154.497 380.232 153.78C381.514 153.445 382.805 153.206 384.078 153.043C384.122 153.05 384.17 153.044 384.212 153.025C385.411 152.875 386.595 152.793 387.744 152.763L387.761 152.766C387.777 152.77 393.572 153.826 395.562 155.8C395.653 155.89 395.799 155.89 395.89 155.799C395.982 155.707 395.981 155.56 395.89 155.47C394.575 154.167 391.751 153.257 389.824 152.758C390.792 152.78 391.722 152.834 392.604 152.909C392.641 152.922 392.681 152.925 392.719 152.919C397.266 153.316 400.473 154.269 400.503 154.277C400.627 154.312 400.756 154.24 400.79 154.116C400.826 153.993 400.754 153.864 400.631 153.829C400.603 153.821 397.734 152.97 393.57 152.533C394.074 152.326 394.784 152.074 395.585 151.913C395.71 151.887 395.791 151.765 395.766 151.64C395.742 151.513 395.619 151.431 395.494 151.457C394.091 151.739 392.949 152.289 392.646 152.446C390.266 152.242 387.531 152.191 384.692 152.497C385.458 151.651 387.259 149.865 389.502 149.051C389.623 149.007 389.685 148.874 389.64 148.753C389.597 148.633 389.463 148.57 389.343 148.614C386.554 149.626 384.428 152.07 384.009 152.577C381.689 152.874 379.312 153.42 377.021 154.324C377.491 152.983 378.944 149.306 381.204 147.83C381.311 147.759 381.341 147.615 381.272 147.508C381.2 147.399 381.056 147.369 380.949 147.44C378.291 149.175 376.72 153.725 376.452 154.554C374.338 155.449 372.303 156.657 370.46 158.274C370.552 156.804 370.89 152.906 372.003 150.63C372.06 150.515 372.013 150.375 371.898 150.318C371.781 150.262 371.642 150.309 371.586 150.425C370.274 153.106 370.006 157.907 369.969 158.724C368.694 159.919 367.514 161.318 366.473 162.958Z" fill="#58C4E0"/>
<path fill-rule="evenodd" clip-rule="evenodd" d="M368.775 181.901C368.866 181.743 368.811 181.538 368.65 181.447C368.491 181.356 368.287 181.411 368.196 181.571C368.188 181.583 365.553 185.959 367.213 200.487C367.233 200.67 367.399 200.801 367.581 200.78C367.764 200.759 367.895 200.595 367.875 200.412C366.239 186.103 368.767 181.913 368.775 181.901Z" fill="#4BA8BF"/>
<path fill-rule="evenodd" clip-rule="evenodd" d="M349.815 192.098C349.654 192.008 349.452 192.066 349.364 192.227C349.274 192.387 349.331 192.589 349.492 192.679C349.507 192.687 354.874 195.624 353.679 202.393C353.648 202.573 353.769 202.747 353.95 202.778C354.132 202.81 354.304 202.688 354.336 202.508C355.613 195.272 349.83 192.107 349.815 192.098Z" fill="#4BA8BF"/>
<path fill-rule="evenodd" clip-rule="evenodd" d="M401.439 177.599C401.439 177.599 395.646 170.254 388.956 169.841C382.266 169.425 391.61 174.014 391.61 174.014C391.61 174.014 396.783 179.151 401.439 177.599Z" fill="#4BA8BF"/>
<path fill-rule="evenodd" clip-rule="evenodd" d="M367.78 183.875C367.78 183.875 361.986 172.702 367.504 165.805C373.02 158.907 385.024 161.114 391.23 170.358C397.437 179.599 401.437 177.598 401.437 177.598C401.437 177.598 399.921 179.253 393.23 176.978C386.54 174.703 375.23 168.081 367.78 183.875Z" fill="#58C4E0"/>
<path fill-rule="evenodd" clip-rule="evenodd" d="M350.713 198.167H375.383C375.72 198.167 376.007 198.216 376.323 198.328C378.917 199.245 379.685 202.5 379.685 204.933C379.685 205.988 379.598 207.087 379.522 208.14C379.394 209.893 379.236 211.644 379.063 213.393C378.601 218.101 378.035 222.809 377.35 227.488C376.615 232.505 375.755 237.713 374.436 242.611C374.423 242.655 374.412 242.694 374.399 242.735C373.705 244.901 371.738 246.537 369.413 246.537C365.171 246.537 360.928 246.537 356.685 246.537C354.358 246.537 352.391 244.901 351.698 242.736C351.685 242.692 351.674 242.655 351.662 242.611C350.341 237.713 349.481 232.505 348.747 227.488C348.063 222.809 347.497 218.101 347.034 213.393C346.861 211.644 346.703 209.893 346.576 208.14C346.499 207.087 346.412 205.988 346.412 204.933C346.412 202.499 347.181 199.245 349.774 198.328C350.089 198.216 350.376 198.167 350.713 198.167Z" fill="white"/>
<path fill-rule="evenodd" clip-rule="evenodd" d="M352.706 198.167H375.382C375.719 198.167 376.006 198.216 376.322 198.328C378.917 199.246 379.684 202.5 379.684 204.933C379.684 205.988 379.597 207.087 379.522 208.14C379.393 209.893 379.235 211.644 379.062 213.394C378.6 218.101 378.035 222.809 377.35 227.489C377.274 228 377.199 228.514 377.12 229.027L352.706 198.167Z" fill="#C4E6F9"/>
<path fill-rule="evenodd" clip-rule="evenodd" d="M379.653 204.078C379.673 204.371 379.684 204.656 379.684 204.933C379.684 205.113 379.681 205.295 379.677 205.478H346.419C346.414 205.295 346.411 205.113 346.411 204.933C346.411 204.656 346.422 204.372 346.443 204.078H379.653Z" fill="#58C4E0"/>
<path fill-rule="evenodd" clip-rule="evenodd" d="M379.041 201.227C379.218 201.677 379.354 202.149 379.451 202.628H346.643C346.742 202.15 346.877 201.677 347.052 201.227H379.041Z" fill="#58C4E0"/>
<path fill-rule="evenodd" clip-rule="evenodd" d="M380.8 222.086C396.714 207.893 382.611 184.392 369.128 191.065C360.587 188.58 354.057 196.154 363.87 205.898C369.126 211.118 377.21 215.754 380.8 222.086Z" fill="#58C4E0"/>
<path fill-rule="evenodd" clip-rule="evenodd" d="M352.175 194.569C352.175 194.569 338.514 190.508 333.357 206.09C327.78 179.836 350.579 188.365 352.175 194.569Z" fill="#58C4E0"/>
<path fill-rule="evenodd" clip-rule="evenodd" d="M348.513 169.345C348.396 169.383 346.751 169.541 346.751 169.541C346.751 169.541 346.383 170.251 346.191 171.05C345.999 171.85 347.756 172.733 349.185 172.032C350.614 171.331 348.513 169.345 348.513 169.345Z" fill="white"/>
<path fill-rule="evenodd" clip-rule="evenodd" d="M337.481 176.731C337.481 176.731 335.614 178.641 336.034 180.335C336.456 182.029 340.375 180.989 340.375 180.989C340.375 180.989 342.574 177.09 337.481 176.731Z" fill="white"/>
<path fill-rule="evenodd" clip-rule="evenodd" d="M347.318 185.673C347.318 185.673 348.068 188.236 349.748 188.703C351.429 189.168 352.45 185.244 352.45 185.244C352.45 185.244 350.132 181.413 347.318 185.673Z" fill="white"/>
<path fill-rule="evenodd" clip-rule="evenodd" d="M341.549 181.355C341.549 181.355 340.587 183.846 341.641 185.236C342.694 186.627 345.887 184.126 345.887 184.126C345.887 184.126 346.37 179.675 341.549 181.355Z" fill="white"/>
<path fill-rule="evenodd" clip-rule="evenodd" d="M338.626 176.567C338.626 176.567 336.856 180.863 338.108 183.333C339.359 185.804 347.364 181.093 346.463 176.578C345.561 172.064 338.626 176.567 338.626 176.567Z" fill="white"/>
<path fill-rule="evenodd" clip-rule="evenodd" d="M344.584 177.275C344.584 177.275 343.129 183.504 345.173 186.789C347.216 190.073 351.69 182.118 351.69 182.118C351.69 182.118 350.182 175.065 344.584 177.275Z" fill="white"/>
<path fill-rule="evenodd" clip-rule="evenodd" d="M350.93 172.697C350.93 172.697 353.758 173.832 353.835 176.908C353.913 179.984 352.548 183.984 354.247 186.178C354.247 186.178 350.444 186.487 348.206 182.798C345.966 179.108 347.665 172.702 350.93 172.697Z" fill="white"/>
<path fill-rule="evenodd" clip-rule="evenodd" d="M335.373 176.938C335.373 176.938 337.233 176.179 338.975 173.793C340.718 171.405 344.898 168.56 349.082 171.131C353.265 173.703 345.265 182.994 335.373 176.938Z" fill="white"/>
<path fill-rule="evenodd" clip-rule="evenodd" d="M346.751 169.541C346.751 169.541 348.622 170.15 348.673 171.866C348.727 173.582 350.248 174.175 351.139 173.308C354.815 169.735 347.718 166.839 346.751 169.541Z" fill="white"/>
<path fill-rule="evenodd" clip-rule="evenodd" d="M381.843 213.694C382.396 214.316 383.335 215.488 383.604 216.538C383.638 216.662 383.764 216.738 383.888 216.706C384.012 216.674 384.088 216.547 384.056 216.423C383.68 214.962 382.157 213.331 381.823 212.986C381.71 209.781 381.178 206.997 380.39 204.584C381.396 204.518 384.712 204.435 386.389 206.049C386.482 206.138 386.63 206.136 386.718 206.042C386.808 205.951 386.805 205.803 386.712 205.714C384.827 203.898 381.122 204.062 380.239 204.129C379.383 201.66 378.259 199.599 377.057 197.899C378.209 197.625 382.057 196.843 384.451 197.883C384.569 197.934 384.705 197.878 384.756 197.76C384.806 197.642 384.752 197.506 384.635 197.455C381.96 196.294 377.648 197.27 376.762 197.489C375.373 195.609 373.901 194.192 372.63 193.168C373.591 192.766 376.415 191.767 379.255 192.534C379.378 192.568 379.508 192.492 379.54 192.369C379.574 192.245 379.5 192.116 379.376 192.083C376.127 191.207 372.907 192.527 372.215 192.839C370.483 191.511 369.211 190.946 369.2 190.94C369.082 190.887 368.944 190.938 368.89 191.055C368.836 191.172 368.888 191.311 369.004 191.364C369.012 191.367 369.395 191.539 370.025 191.911C367.824 191.786 362.442 191.886 360.283 195.574C360.218 195.684 360.255 195.827 360.366 195.891C360.477 195.956 360.619 195.92 360.684 195.808C363.154 191.588 370.249 192.372 370.879 192.451C371.221 192.68 371.599 192.949 372.001 193.26C372.023 193.287 372.051 193.308 372.08 193.322C372.801 193.883 373.596 194.578 374.41 195.422C372.802 195.778 367.001 197.47 365.819 203.591C365.795 203.717 365.879 203.84 366.004 203.863C366.131 203.888 366.254 203.805 366.277 203.679C367.493 197.369 373.874 195.987 374.787 195.821C375.34 196.42 375.897 197.091 376.44 197.834C376.455 197.877 376.482 197.913 376.516 197.94C377.13 198.789 377.726 199.728 378.277 200.773C377.225 201.389 372.202 204.601 372.979 209.247C373 209.373 373.12 209.46 373.248 209.438C373.374 209.417 373.46 209.296 373.439 209.17C372.716 204.851 377.445 201.804 378.491 201.188C378.987 202.171 379.443 203.24 379.84 204.401V204.401C379.842 204.437 379.854 204.469 379.871 204.497C380.312 205.805 380.676 207.228 380.937 208.773C380.56 209.253 378.582 211.831 377.619 214.1C377.569 214.219 377.624 214.355 377.742 214.405C377.86 214.455 377.998 214.4 378.047 214.282C378.847 212.397 380.371 210.287 381.037 209.404C381.548 212.89 381.534 216.975 380.69 221.743C380.669 221.869 380.753 221.99 380.879 222.012C381.005 222.035 381.127 221.949 381.149 221.824C381.672 218.863 381.881 216.158 381.843 213.694Z" fill="#4BA8BF"/>
<path fill-rule="evenodd" clip-rule="evenodd" d="M387.249 174.721C387.172 174.822 387.192 174.969 387.296 175.045C387.398 175.122 387.543 175.103 387.621 174.999C388.081 174.388 388.64 173.599 389.055 172.861C389.368 172.304 389.604 171.772 389.656 171.36C389.672 171.232 389.582 171.116 389.454 171.1C389.328 171.084 389.21 171.174 389.195 171.302C389.15 171.649 388.937 172.124 388.65 172.633C388.249 173.346 387.701 174.119 387.249 174.721ZM381.992 173.594C381.928 173.705 381.968 173.847 382.079 173.909C382.192 173.972 382.335 173.933 382.397 173.82C382.966 172.813 383.771 171.25 384.262 169.703C384.606 168.621 384.797 167.54 384.655 166.645C384.634 166.517 384.514 166.432 384.388 166.451C384.262 166.471 384.175 166.59 384.195 166.717C384.325 167.532 384.143 168.541 383.819 169.563C383.337 171.078 382.549 172.608 381.992 173.594ZM376.963 174.154C376.939 174.28 377.022 174.403 377.148 174.427C377.273 174.452 377.397 174.369 377.422 174.243C377.635 173.154 377.878 171.496 377.865 169.674C377.852 167.845 377.578 165.854 376.75 164.111C376.695 163.994 376.556 163.944 376.44 163.999C376.323 164.055 376.274 164.194 376.329 164.31C377.123 165.985 377.387 167.907 377.4 169.678C377.413 171.456 377.172 173.083 376.963 174.154ZM373.214 176.249C373.24 176.376 373.365 176.455 373.491 176.429C373.616 176.402 373.696 176.277 373.669 176.151C373.416 174.99 372.789 172.351 371.873 169.944C371.301 168.447 370.617 167.037 369.831 166.117C369.747 166.02 369.6 166.008 369.503 166.092C369.405 166.176 369.393 166.324 369.478 166.421C370.222 167.292 370.882 168.655 371.438 170.11C372.344 172.487 372.962 175.1 373.214 176.249ZM370.498 179.099C370.053 178.216 369.292 176.721 368.54 175.315C367.787 173.907 367.036 172.576 366.609 172.006C366.532 171.904 366.552 171.758 366.656 171.68C366.758 171.605 366.904 171.624 366.981 171.728C367.426 172.317 368.188 173.67 368.95 175.096C369.714 176.524 370.471 178.012 370.914 178.888C370.97 179.003 370.926 179.144 370.809 179.201C370.696 179.26 370.555 179.213 370.498 179.099ZM368.893 181.549C368.971 181.649 369.118 181.671 369.22 181.593C369.323 181.515 369.343 181.369 369.267 181.266L367.366 178.753C367.289 178.652 367.142 178.631 367.04 178.709C366.937 178.786 366.917 178.931 366.993 179.034L368.893 181.549ZM392.132 176.413C392.017 176.47 391.969 176.611 392.026 176.727C392.083 176.842 392.223 176.887 392.338 176.831C392.736 176.634 393.138 176.417 393.448 176.211C393.72 176.026 393.927 175.843 394.017 175.675C394.076 175.561 394.032 175.421 393.919 175.362C393.804 175.302 393.665 175.347 393.605 175.46C393.557 175.553 393.402 175.68 393.189 175.824C392.9 176.017 392.515 176.224 392.132 176.413Z" fill="#4BA8BF"/>
<path fill-rule="evenodd" clip-rule="evenodd" d="M338.45 197.905C338.573 197.941 338.703 197.867 338.737 197.744C338.773 197.621 338.7 197.492 338.576 197.457C337.857 197.253 336.726 196.966 335.589 196.815C334.803 196.71 334.014 196.671 333.355 196.769C333.226 196.787 333.139 196.906 333.157 197.033C333.176 197.16 333.294 197.249 333.421 197.231C334.034 197.139 334.782 197.177 335.529 197.277C336.635 197.423 337.744 197.704 338.45 197.905ZM342.044 195.519C341.034 194.868 339.139 193.677 337.545 192.848C336.548 192.329 335.684 191.957 335.276 191.965C335.147 191.967 335.041 191.865 335.039 191.736C335.036 191.608 335.138 191.502 335.267 191.5C335.767 191.49 336.704 191.884 337.761 192.435C339.364 193.269 341.277 194.47 342.296 195.127C342.404 195.195 342.435 195.34 342.366 195.448C342.296 195.557 342.153 195.588 342.044 195.519ZM345.866 194.408C345.957 194.499 346.104 194.5 346.195 194.409C346.287 194.318 346.287 194.17 346.197 194.079C345.513 193.391 344.529 192.404 343.544 191.517C342.542 190.619 341.531 189.817 340.805 189.516C340.686 189.467 340.549 189.522 340.498 189.641C340.45 189.76 340.506 189.897 340.624 189.946C341.296 190.224 342.264 190.995 343.231 191.865C344.216 192.748 345.192 193.727 345.866 194.408ZM349.577 194.305C349.658 194.405 349.804 194.422 349.906 194.343C350.006 194.262 350.022 194.115 349.943 194.015C349.479 193.435 348.807 192.591 348.369 192.038C348.023 191.6 347.725 191.224 347.578 191.032C347.502 190.929 347.355 190.911 347.253 190.989C347.151 191.066 347.131 191.213 347.21 191.315C347.339 191.484 347.642 191.87 348.004 192.327C348.6 193.08 349.199 193.831 349.577 194.305ZM336.004 200.836C336.132 200.825 336.226 200.711 336.213 200.582C336.201 200.455 336.088 200.36 335.96 200.373L333.366 200.621C333.238 200.633 333.143 200.746 333.157 200.875C333.168 201.003 333.283 201.097 333.41 201.084L336.004 200.836Z" fill="#4BA8BF"/>
<path d="M380.28 246.539C385.636 246.539 389.979 242.197 389.979 236.84C389.979 231.484 385.636 227.142 380.28 227.142C374.924 227.142 370.582 231.484 370.582 236.84C370.582 242.197 374.924 246.539 380.28 246.539Z" fill="#FF80A9"/>
<path fill-rule="evenodd" clip-rule="evenodd" d="M389.951 236.112C389.969 236.353 389.979 236.595 389.979 236.84C389.979 237.656 389.877 238.449 389.687 239.207H370.874C370.684 238.449 370.582 237.656 370.582 236.84C370.582 236.595 370.591 236.353 370.609 236.112H389.951Z" fill="#F06994"/>
<path fill-rule="evenodd" clip-rule="evenodd" d="M388.876 232.345C389.18 232.926 389.428 233.54 389.611 234.184H370.95C371.134 233.541 371.38 232.926 371.686 232.345H388.876Z" fill="#F06994"/>
<path fill-rule="evenodd" clip-rule="evenodd" d="M373.615 246.538H386.947C387.311 246.538 387.609 246.241 387.609 245.876V244.664C387.609 244.299 387.311 244 386.947 244H373.615C373.25 244 372.952 244.299 372.952 244.664V245.876C372.952 246.241 373.25 246.538 373.615 246.538Z" fill="white"/>
<path fill-rule="evenodd" clip-rule="evenodd" d="M353.074 216.21C353.074 224.027 359.538 229.063 359.538 236.428C359.538 243.794 353.148 246.539 352.659 246.539C352.171 246.539 347.017 246.539 347.017 246.539C347.017 246.539 341.861 246.539 341.372 246.539C340.883 246.539 334.493 243.794 334.493 236.428C334.493 229.063 340.958 224.027 340.958 216.21C340.958 215.473 341.559 215.473 341.559 215.473H347.017H352.473C352.472 215.473 353.074 215.473 353.074 216.21Z" fill="#F2D0AC"/>
<path fill-rule="evenodd" clip-rule="evenodd" d="M353.082 216.664C353.102 217.291 353.164 217.902 353.258 218.496H340.771C340.867 217.902 340.928 217.291 340.949 216.664H353.082Z" fill="white"/>
<path fill-rule="evenodd" clip-rule="evenodd" d="M353.403 219.276C353.47 219.584 353.545 219.889 353.627 220.191H340.402C340.484 219.889 340.561 219.584 340.626 219.276H353.403Z" fill="white"/>
<path d="M332.348 246.538C335.791 246.538 338.581 243.748 338.581 240.305C338.581 236.863 335.791 234.072 332.348 234.072C328.906 234.072 326.115 236.863 326.115 240.305C326.115 243.748 328.906 246.538 332.348 246.538Z" fill="white"/>
<path fill-rule="evenodd" clip-rule="evenodd" d="M338.331 242.055C337.574 244.645 335.182 246.538 332.349 246.538C330.24 246.538 328.377 245.491 327.249 243.89C330.285 243.349 336.112 242.411 338.331 242.055Z" fill="#F4EBF0"/>
<path fill-rule="evenodd" clip-rule="evenodd" d="M328.064 246.538H336.632C336.865 246.538 337.058 246.346 337.058 246.113V245.334C337.058 245.099 336.865 244.908 336.632 244.908H328.064C327.829 244.908 327.638 245.099 327.638 245.334V246.113C327.638 246.346 327.829 246.538 328.064 246.538Z" fill="white"/>
<path fill-rule="evenodd" clip-rule="evenodd" d="M307.565 240.858L299.444 203.471H276.586L268.465 240.858L275.882 242.125L305.76 242.083L307.565 240.858Z" fill="#58C4E0"/>
<path fill-rule="evenodd" clip-rule="evenodd" d="M282.786 203.471H276.586L268.465 240.858L275.882 242.125L282.44 242.117L279.07 240.858L282.786 203.471Z" fill="white"/>
<path fill-rule="evenodd" clip-rule="evenodd" d="M306.512 241.813C306.512 244.413 304.386 246.538 301.786 246.538H274.221C271.623 246.538 269.497 244.413 269.497 241.813C269.497 241.813 283.835 240.688 283.835 240.165C283.835 239.642 306.512 241.813 306.512 241.813Z" fill="#FF80A9"/>
<path fill-rule="evenodd" clip-rule="evenodd" d="M267.513 239.642H308.496C309.095 239.642 309.583 240.13 309.583 240.728C309.583 241.324 309.095 241.813 308.496 241.813H267.513C266.915 241.813 266.428 241.324 266.428 240.728C266.427 240.13 266.915 239.642 267.513 239.642Z" fill="white"/>
<path fill-rule="evenodd" clip-rule="evenodd" d="M290.84 182.238V180.629C290.84 179.074 289.569 177.803 288.013 177.803C286.46 177.803 285.189 179.074 285.189 180.629V182.238L286.269 184.702L290.84 182.238Z" fill="white"/>
<path fill-rule="evenodd" clip-rule="evenodd" d="M273.972 202.601C273.972 203.795 274.95 204.772 276.143 204.772H299.884C301.079 204.772 302.056 203.795 302.056 202.601C302.056 201.406 295.342 199.216 295.342 199.216L273.972 202.601Z" fill="#FF80A9"/>
<path fill-rule="evenodd" clip-rule="evenodd" d="M297.44 192.439V190.9C297.44 185.714 293.199 181.473 288.014 181.473C282.827 181.473 278.586 185.714 278.586 190.9V192.439L281.253 195.075L297.44 192.439Z" fill="white"/>
<path fill-rule="evenodd" clip-rule="evenodd" d="M301.823 198.257V194.947C301.823 193.568 300.694 192.438 299.315 192.438H276.713C275.334 192.438 274.204 193.568 274.204 194.947V198.257L279.471 201.514C279.47 201.514 302.056 198.257 301.823 198.257Z" fill="#FF80A9"/>
<path fill-rule="evenodd" clip-rule="evenodd" d="M273.97 198.257H302.055C303.25 198.257 304.227 199.233 304.227 200.428C304.227 201.623 303.25 202.6 302.055 202.6H273.97C272.775 202.6 271.799 201.623 271.799 200.428C271.799 199.233 272.775 198.257 273.97 198.257Z" fill="white"/>
<path fill-rule="evenodd" clip-rule="evenodd" d="M275.994 206.191L300.837 209.891L299.725 204.772H276.303L275.994 206.191Z" fill="#4BA8BF"/>
<path fill-rule="evenodd" clip-rule="evenodd" d="M293.775 208.84L296.837 239.642H307.3L300.837 209.891L293.775 208.84Z" fill="#4BA8BF"/>
<path fill-rule="evenodd" clip-rule="evenodd" d="M297.409 190.13L278.586 191.703V192.438H297.44V190.9C297.44 190.641 297.429 190.385 297.409 190.13Z" fill="#58C4E0"/>
<path fill-rule="evenodd" clip-rule="evenodd" d="M64.1235 225.5H102.148C103.115 225.5 103.99 225.895 104.625 226.529C104.67 226.575 104.714 226.622 104.753 226.671C105.312 227.295 105.654 228.115 105.654 229.006V229.007C105.654 229.965 105.26 230.839 104.625 231.477L104.622 231.481L104.618 231.484L104.617 231.486C103.978 232.12 103.105 232.513 102.148 232.513H64.1235C63.1619 232.513 63.1619 225.5 64.1235 225.5Z" fill="#4BA8BF"/>
<path fill-rule="evenodd" clip-rule="evenodd" d="M31.6571 228.991C30.6929 228.991 29.9131 228.21 29.9131 227.245C29.9131 226.282 30.6929 225.5 31.6571 225.5H73.6813C74.6482 225.5 75.5235 225.895 76.1582 226.529C76.204 226.575 76.2478 226.622 76.2857 226.671C76.8446 227.295 77.1858 228.115 77.1858 229.006V229.007C77.1858 229.965 76.7923 230.839 76.1582 231.477L76.1556 231.481L76.1517 231.484L76.1491 231.486C75.5117 232.12 74.6384 232.513 73.6813 232.513H31.6571C30.6929 232.513 29.9131 231.732 29.9131 230.768C29.9131 229.805 30.6929 229.023 31.6571 229.023V228.991Z" fill="#58C4E0"/>
<path d="M71.706 229.432H31.6566C31.4304 229.432 31.248 229.249 31.248 229.024C31.248 228.798 31.4304 228.615 31.6566 228.615H71.706C71.9309 228.615 72.1145 228.798 72.1145 229.024C72.1145 229.249 71.9309 229.432 71.706 229.432Z" fill="#4BA8BF"/>
<path fill-rule="evenodd" clip-rule="evenodd" d="M64.1235 239.526H102.148C103.115 239.526 103.99 239.132 104.625 238.498C104.67 238.451 104.714 238.404 104.753 238.356C105.312 237.731 105.654 236.911 105.654 236.02V236.019C105.654 235.061 105.26 234.187 104.625 233.549L104.622 233.545L104.618 233.542L104.617 233.54C103.978 232.907 103.105 232.514 102.148 232.514H64.1235C63.1619 232.513 63.1619 239.526 64.1235 239.526Z" fill="#7C7C7C"/>
<path fill-rule="evenodd" clip-rule="evenodd" d="M31.6571 236.036C30.6929 236.036 29.9131 236.818 29.9131 237.781C29.9131 238.745 30.6929 239.526 31.6571 239.526H73.6813C74.6482 239.526 75.5235 239.132 76.1582 238.498C76.204 238.451 76.2478 238.404 76.2857 238.356C76.8446 237.731 77.1858 236.911 77.1858 236.02V236.019C77.1858 235.061 76.7923 234.187 76.1582 233.549L76.1556 233.545L76.1517 233.542L76.1491 233.54C75.5117 232.907 74.6384 232.514 73.6813 232.514H31.6571C30.6929 232.514 29.9131 233.295 29.9131 234.259C29.9131 235.223 30.6929 236.003 31.6571 236.003V236.036Z" fill="white"/>
<path d="M71.706 236.411H31.6566C31.4304 236.411 31.248 236.228 31.248 236.003C31.248 235.778 31.4304 235.594 31.6566 235.594H71.706C71.9309 235.594 72.1145 235.778 72.1145 236.003C72.1145 236.228 71.9309 236.411 71.706 236.411Z" fill="#7C7C7C"/>
<path fill-rule="evenodd" clip-rule="evenodd" d="M64.1235 239.526H102.148C103.115 239.526 103.99 239.921 104.625 240.555C104.67 240.6 104.714 240.647 104.753 240.696C105.312 241.321 105.654 242.14 105.654 243.032C105.654 243.991 105.26 244.866 104.625 245.502L104.622 245.506L104.618 245.51L104.617 245.512C103.978 246.146 103.105 246.538 102.148 246.538H64.1235C63.1619 246.538 63.1619 239.526 64.1235 239.526Z" fill="#DC618A"/>
<path fill-rule="evenodd" clip-rule="evenodd" d="M31.6571 243.015C30.6929 243.015 29.9131 242.235 29.9131 241.27C29.9131 240.307 30.6929 239.526 31.6571 239.526H73.6813C74.6482 239.526 75.5235 239.921 76.1582 240.555C76.204 240.6 76.2478 240.647 76.2857 240.696C76.8446 241.321 77.1858 242.14 77.1858 243.032C77.1858 243.991 76.7923 244.866 76.1582 245.502L76.1556 245.506L76.1517 245.51L76.1491 245.512C75.5117 246.146 74.6384 246.538 73.6813 246.538H31.6571C30.6929 246.538 29.9131 245.757 29.9131 244.793C29.9131 243.83 30.6929 243.048 31.6571 243.048V243.015Z" fill="#FF80A9"/>
<path d="M71.706 243.458H31.6566C31.4304 243.458 31.248 243.274 31.248 243.049C31.248 242.823 31.4304 242.64 31.6566 242.64H71.706C71.9309 242.64 72.1145 242.823 72.1145 243.049C72.1145 243.274 71.9309 243.458 71.706 243.458Z" fill="#DC618A"/>
<path fill-rule="evenodd" clip-rule="evenodd" d="M19.2682 246.538H406.903C407.699 246.538 408.352 247.189 408.352 247.986C408.352 248.783 407.699 249.435 406.903 249.435H19.2682C18.474 249.435 17.8203 248.783 17.8203 247.986C17.8203 247.189 18.474 246.538 19.2682 246.538Z" fill="#403867"/>
<path fill-rule="evenodd" clip-rule="evenodd" d="M13.3816 246.538H9.2077C8.41215 246.538 7.75977 247.189 7.75977 247.986C7.75977 248.783 8.41215 249.435 9.2077 249.435H13.3816C14.1784 249.435 14.8308 248.783 14.8308 247.986C14.8308 247.189 14.1778 246.538 13.3816 246.538Z" fill="#403867"/>
<path fill-rule="evenodd" clip-rule="evenodd" d="M416.925 246.538H412.752C411.955 246.538 411.303 247.189 411.303 247.986C411.303 248.783 411.955 249.435 412.752 249.435H416.925C417.721 249.435 418.374 248.783 418.374 247.986C418.374 247.189 417.721 246.538 416.925 246.538Z" fill="#403867"/>
<path d="M124.856 188.473C124.792 188.473 124.727 188.452 124.674 188.408C124.549 188.308 124.527 188.124 124.629 187.998L131.122 179.89L126.076 181.633C125.926 181.688 125.758 181.605 125.706 181.452C125.654 181.301 125.734 181.134 125.886 181.082L131.805 179.037L142.05 166.244C142.15 166.119 142.335 166.098 142.46 166.199C142.586 166.3 142.605 166.483 142.505 166.609L132.22 179.454C132.214 179.464 132.206 179.472 132.199 179.481L125.084 188.364C125.027 188.435 124.942 188.473 124.856 188.473Z" fill="#7C7C7C"/>
<path d="M264.264 170.192C263.81 170.192 263.385 170.006 263.068 169.67L259.478 165.852H255.335C253.265 165.852 251.584 164.168 251.584 162.099V153.627C251.584 151.559 253.265 149.875 255.335 149.875H312.931C315.001 149.875 316.682 151.559 316.682 153.627V162.099C316.682 164.168 315.001 165.852 312.931 165.852H269.048L265.457 169.672C265.142 170.007 264.717 170.192 264.264 170.192ZM255.335 151.043C253.91 151.043 252.751 152.201 252.751 153.627V162.099C252.751 163.524 253.91 164.683 255.335 164.683H259.731C259.892 164.683 260.046 164.75 260.156 164.867L263.92 168.87C264.106 169.07 264.422 169.068 264.607 168.872L268.371 164.867C268.481 164.749 268.635 164.683 268.796 164.683H312.932C314.357 164.683 315.516 163.524 315.516 162.099V153.627C315.516 152.201 314.357 151.043 312.932 151.043H255.335Z" fill="#7C7C7C"/>
<path fill-rule="evenodd" clip-rule="evenodd" d="M262.423 154.924C263.244 154.102 264.589 154.102 265.41 154.924L265.988 155.501L266.565 154.924C267.387 154.102 268.731 154.102 269.552 154.924C270.373 155.745 270.373 157.09 269.552 157.911L268.975 158.488L265.988 161.475L263 158.488L262.423 157.911C261.601 157.09 261.601 155.745 262.423 154.924Z" fill="#7C7C7C"/>
<path fill-rule="evenodd" clip-rule="evenodd" d="M280.568 154.924C281.389 154.102 282.734 154.102 283.555 154.924L284.133 155.501L284.71 154.924C285.532 154.102 286.875 154.102 287.697 154.924C288.518 155.745 288.518 157.09 287.697 157.911L287.12 158.488L284.133 161.475L281.145 158.488L280.568 157.911C279.746 157.09 279.746 155.745 280.568 154.924Z" fill="#7C7C7C"/>
<path fill-rule="evenodd" clip-rule="evenodd" d="M298.712 154.924C299.534 154.102 300.878 154.102 301.7 154.924L302.277 155.501L302.854 154.924C303.677 154.102 305.02 154.102 305.842 154.924C306.663 155.745 306.663 157.09 305.842 157.911L305.264 158.488L302.277 161.475L299.29 158.488L298.712 157.911C297.89 157.09 297.89 155.745 298.712 154.924Z" fill="#7C7C7C"/>
<path fill-rule="evenodd" clip-rule="evenodd" d="M64.2375 179.696C60.0355 181.514 61.2449 197.788 48.7083 198.061C48.7083 198.06 49.8352 180.23 64.2375 179.696ZM42.3739 194.528C38.2694 186.734 29.4634 190.626 23.9234 182.784C19.6436 176.727 20.549 167.228 17.5459 164.073C17.5466 164.073 41.0744 166.209 42.3739 194.528ZM36.3338 142.595C40.0017 150.226 24.6326 168.048 46.9577 184.089C46.9577 184.088 58.3333 155.849 36.3338 142.595Z" fill="#7C7C7C"/>
<path d="M45.6991 206.551C45.6939 206.551 45.6887 206.551 45.6841 206.551C45.6651 206.549 45.6455 206.546 45.6279 206.539C45.6115 206.534 45.5958 206.527 45.5808 206.518C45.5592 206.506 45.5409 206.491 45.5259 206.473C45.5069 206.453 45.4926 206.429 45.4828 206.404C45.4762 206.389 45.4723 206.373 45.4697 206.356C45.3586 205.774 38.5941 171.261 17.4745 164.295C17.3516 164.254 17.2856 164.122 17.3248 164.001C17.3666 163.878 17.5 163.812 17.6196 163.851C36.5899 170.107 44.093 198.189 45.6226 204.855C46.4842 196.394 50.1436 153.142 36.195 142.784C36.0904 142.706 36.0689 142.56 36.1467 142.457C36.2231 142.352 36.3689 142.33 36.4735 142.408C50.3835 152.739 47.2249 193.683 46.1835 204.031C48.2891 197.78 54.8862 180.621 64.2099 179.465C64.3386 179.447 64.4537 179.54 64.47 179.668C64.4851 179.796 64.3949 179.913 64.2667 179.929C53.4422 181.272 46.0626 205.912 45.9233 206.38C45.9233 206.384 45.9207 206.389 45.9194 206.393C45.9142 206.409 45.9064 206.426 45.8979 206.44C45.8861 206.459 45.8724 206.476 45.8567 206.49C45.8364 206.509 45.8122 206.525 45.7841 206.535C45.7691 206.542 45.7508 206.547 45.7331 206.549C45.722 206.55 45.7109 206.551 45.6991 206.551Z" fill="#7C7C7C"/>
<path fill-rule="evenodd" clip-rule="evenodd" d="M39.6582 205.954H50.4108C52.8301 205.954 54.8082 207.932 54.8082 210.35V218.813C54.8082 222.491 51.7999 225.5 48.1216 225.5H41.9474C38.2704 225.5 35.2607 222.491 35.2607 218.813V210.35C35.2607 207.932 37.2401 205.954 39.6582 205.954Z" fill="white"/>
<path fill-rule="evenodd" clip-rule="evenodd" d="M39.6588 205.954H50.4114C52.8308 205.954 54.8088 207.932 54.8088 210.35V210.382L37.1172 206.769C37.8356 206.255 38.7142 205.954 39.6588 205.954Z" fill="#7C7C7C"/>
<path fill-rule="evenodd" clip-rule="evenodd" d="M38.1121 204.708H51.9613C52.3777 204.708 52.7183 205.049 52.7183 205.465C52.7183 205.882 52.3777 206.223 51.9613 206.223H38.1121C37.6957 206.223 37.3564 205.882 37.3564 205.465C37.3564 205.049 37.6957 204.708 38.1121 204.708Z" fill="white"/>
<path d="M52.8294 121.581H25.8546C25.6284 121.581 25.446 121.398 25.446 121.173C25.446 120.947 25.6284 120.764 25.8546 120.764H32.0863V115.793H27.5333C27.3071 115.793 27.1247 115.61 27.1247 115.385C27.1247 115.159 27.3071 114.976 27.5333 114.976H44.6797C44.9059 114.976 45.0883 115.159 45.0883 115.385C45.0883 115.61 44.9059 115.793 44.6797 115.793H32.9027V120.764H49.6766V115.793H47.911C47.6848 115.793 47.5024 115.61 47.5024 115.385C47.5024 115.159 47.6848 114.976 47.911 114.976H54.6904C54.9153 114.976 55.099 115.159 55.099 115.385C55.099 115.61 54.9153 115.793 54.6904 115.793H50.4937V120.764H52.8287C53.0536 120.764 53.2373 120.947 53.2373 121.173C53.2379 121.398 53.0542 121.581 52.8294 121.581ZM23.9229 121.581H23.0345C22.8084 121.581 22.626 121.398 22.626 121.173C22.626 120.947 22.8084 120.764 23.0345 120.764H23.9229C24.1478 120.764 24.3315 120.947 24.3315 121.173C24.3315 121.398 24.1471 121.581 23.9229 121.581Z" fill="#7C7C7C"/>
<path d="M99.235 200.029H82.6834C82.4585 200.029 82.2748 199.846 82.2748 199.62C82.2748 199.395 82.4585 199.212 82.6834 199.212H88.9164V194.24H84.3621C84.1372 194.24 83.9535 194.057 83.9535 193.832C83.9535 193.607 84.1372 193.423 84.3621 193.423H91.0853C91.3115 193.423 91.4939 193.607 91.4939 193.832C91.4939 194.057 91.3115 194.24 91.0853 194.24H89.7335V199.212H96.0841V194.24H94.3172C94.0923 194.24 93.9086 194.057 93.9086 193.832C93.9086 193.607 94.0923 193.423 94.3172 193.423H101.097C101.322 193.423 101.505 193.607 101.505 193.832C101.505 194.057 101.322 194.24 101.097 194.24H96.9013V199.212H99.235C99.4611 199.212 99.6435 199.395 99.6435 199.62C99.6435 199.846 99.4605 200.029 99.235 200.029ZM80.751 200.029H79.8627C79.6378 200.029 79.4541 199.846 79.4541 199.62C79.4541 199.395 79.6378 199.212 79.8627 199.212H80.751C80.9759 199.212 81.1596 199.395 81.1596 199.62C81.1596 199.846 80.9759 200.029 80.751 200.029Z" fill="#7C7C7C"/>
<path d="M135.012 40.2732H108.035C107.81 40.2732 107.627 40.0901 107.627 39.8646C107.627 39.6391 107.81 39.456 108.035 39.456H114.268V34.4853H109.714C109.488 34.4853 109.305 34.3023 109.305 34.0768C109.305 33.8512 109.488 33.6682 109.714 33.6682H126.862C127.087 33.6682 127.27 33.8512 127.27 34.0768C127.27 34.3023 127.087 34.4853 126.862 34.4853H115.085V39.456H131.859V34.4853H130.092C129.867 34.4853 129.683 34.3023 129.683 34.0768C129.683 33.8512 129.867 33.6682 130.092 33.6682H136.871C137.096 33.6682 137.28 33.8512 137.28 34.0768C137.28 34.3023 137.096 34.4853 136.871 34.4853H132.676V39.456H135.011C135.236 39.456 135.419 39.6391 135.419 39.8646C135.419 40.0901 135.237 40.2732 135.012 40.2732ZM106.105 40.2732H105.215C104.989 40.2732 104.807 40.0901 104.807 39.8646C104.807 39.6391 104.989 39.456 105.215 39.456H106.105C106.33 39.456 106.513 39.6391 106.513 39.8646C106.513 40.0901 106.33 40.2732 106.105 40.2732Z" fill="#7C7C7C"/>
<path d="M245.258 86.7954H228.706C228.481 86.7954 228.298 86.6123 228.298 86.3868C228.298 86.1613 228.481 85.9783 228.706 85.9783H234.939V81.0076H230.384C230.159 81.0076 229.975 80.8245 229.975 80.599C229.975 80.3735 230.159 80.1904 230.384 80.1904H237.108C237.334 80.1904 237.517 80.3735 237.517 80.599C237.517 80.8245 237.334 81.0076 237.108 81.0076H235.756V85.9783H242.105V81.0076H240.338C240.113 81.0076 239.929 80.8245 239.929 80.599C239.929 80.3735 240.113 80.1904 240.338 80.1904H247.118C247.342 80.1904 247.526 80.3735 247.526 80.599C247.526 80.8245 247.342 81.0076 247.118 81.0076H242.922V85.9783H245.257C245.482 85.9783 245.666 86.1613 245.666 86.3868C245.666 86.6123 245.482 86.7954 245.258 86.7954ZM226.774 86.7954H225.884C225.659 86.7954 225.476 86.6123 225.476 86.3868C225.476 86.1613 225.659 85.9783 225.884 85.9783H226.774C226.999 85.9783 227.182 86.1613 227.182 86.3868C227.182 86.6123 226.999 86.7954 226.774 86.7954Z" fill="#7C7C7C"/>
<path d="M344.398 145.051H327.845C327.621 145.051 327.437 144.867 327.437 144.642C327.437 144.417 327.621 144.234 327.845 144.234H334.078V139.262H329.524C329.299 139.262 329.116 139.079 329.116 138.853C329.116 138.628 329.299 138.445 329.524 138.445H336.249C336.474 138.445 336.657 138.628 336.657 138.853C336.657 139.079 336.474 139.262 336.249 139.262H334.896V144.234H341.246V139.262H339.479C339.253 139.262 339.071 139.079 339.071 138.853C339.071 138.628 339.253 138.445 339.479 138.445H346.259C346.485 138.445 346.667 138.628 346.667 138.853C346.667 139.079 346.485 139.262 346.259 139.262H342.063V144.234H344.398C344.623 144.234 344.807 144.417 344.807 144.642C344.807 144.867 344.623 145.051 344.398 145.051ZM325.913 145.051H325.025C324.8 145.051 324.616 144.867 324.616 144.642C324.616 144.417 324.8 144.234 325.025 144.234H325.913C326.139 144.234 326.322 144.417 326.322 144.642C326.322 144.867 326.139 145.051 325.913 145.051Z" fill="#7C7C7C"/>
<path d="M412.035 204.659H395.482C395.258 204.659 395.074 204.476 395.074 204.25C395.074 204.025 395.258 203.842 395.482 203.842H401.716V198.87H397.161C396.936 198.87 396.753 198.688 396.753 198.462C396.753 198.237 396.936 198.053 397.161 198.053H403.886C404.111 198.053 404.294 198.237 404.294 198.462C404.294 198.688 404.111 198.87 403.886 198.87H402.533V203.842H408.883V198.87H407.116C406.89 198.87 406.708 198.688 406.708 198.462C406.708 198.237 406.89 198.053 407.116 198.053H413.896C414.122 198.053 414.304 198.237 414.304 198.462C414.304 198.688 414.122 198.87 413.896 198.87H409.7V203.842H412.035C412.26 203.842 412.444 204.025 412.444 204.25C412.444 204.476 412.26 204.659 412.035 204.659ZM393.551 204.659H392.662C392.438 204.659 392.254 204.476 392.254 204.25C392.254 204.025 392.438 203.842 392.662 203.842H393.551C393.777 203.842 393.959 204.025 393.959 204.25C393.959 204.476 393.777 204.659 393.551 204.659Z" fill="#7C7C7C"/>
<path d="M17.6692 140.526C17.5083 140.526 17.377 140.395 17.377 140.235V139.112C17.377 138.951 17.5083 138.82 17.6692 138.82C17.83 138.82 17.96 138.951 17.96 139.112V140.235C17.9607 140.395 17.83 140.526 17.6692 140.526Z" fill="white"/>
<path d="M19.646 141.38H18.5236C18.3628 141.38 18.2314 141.249 18.2314 141.088C18.2314 140.928 18.3628 140.797 18.5236 140.797H19.646C19.8069 140.797 19.9382 140.928 19.9382 141.088C19.9382 141.249 19.8069 141.38 19.646 141.38Z" fill="white"/>
<path d="M17.6692 143.357C17.5083 143.357 17.377 143.226 17.377 143.065V141.942C17.377 141.782 17.5083 141.65 17.6692 141.65C17.83 141.65 17.96 141.782 17.96 141.942V143.065C17.9607 143.226 17.83 143.357 17.6692 143.357Z" fill="white"/>
<path d="M16.8163 141.38H15.6926C15.5318 141.38 15.4004 141.249 15.4004 141.088C15.4004 140.928 15.5318 140.797 15.6926 140.797H16.8163C16.9771 140.797 17.1085 140.928 17.1085 141.088C17.1085 141.249 16.9771 141.38 16.8163 141.38Z" fill="white"/>
<path d="M92.411 126.319C92.2502 126.319 92.1201 126.188 92.1201 126.028V124.905C92.1201 124.743 92.2502 124.612 92.411 124.612C92.5718 124.612 92.7032 124.743 92.7032 124.905V126.028C92.7032 126.188 92.5718 126.319 92.411 126.319Z" fill="white"/>
<path d="M94.3882 127.174H93.2658C93.105 127.174 92.9736 127.043 92.9736 126.882C92.9736 126.721 93.105 126.591 93.2658 126.591H94.3882C94.549 126.591 94.6804 126.721 94.6804 126.882C94.6804 127.043 94.549 127.174 94.3882 127.174Z" fill="white"/>
<path d="M92.411 129.15C92.2502 129.15 92.1201 129.019 92.1201 128.858V127.734C92.1201 127.574 92.2502 127.443 92.411 127.443C92.5718 127.443 92.7032 127.574 92.7032 127.734V128.858C92.7032 129.019 92.5718 129.15 92.411 129.15Z" fill="white"/>
<path d="M91.5595 127.174H90.4358C90.2749 127.174 90.1436 127.043 90.1436 126.882C90.1436 126.721 90.2749 126.591 90.4358 126.591H91.5595C91.7203 126.591 91.8504 126.721 91.8504 126.882C91.8504 127.043 91.7203 127.174 91.5595 127.174Z" fill="white"/>
<path d="M93.0295 33.0462C92.8687 33.0462 92.7373 32.9154 92.7373 32.7546V31.6316C92.7373 31.4701 92.8687 31.3394 93.0295 31.3394C93.1903 31.3394 93.3217 31.4701 93.3217 31.6316V32.7546C93.3217 32.9154 93.1903 33.0462 93.0295 33.0462Z" fill="white"/>
<path d="M95.0054 33.9002H93.8817C93.7209 33.9002 93.5908 33.7694 93.5908 33.608C93.5908 33.4465 93.7209 33.3164 93.8817 33.3164H95.0054C95.1662 33.3164 95.2963 33.4471 95.2963 33.608C95.2963 33.7694 95.1662 33.9002 95.0054 33.9002Z" fill="white"/>
<path d="M93.0295 35.8769C92.8687 35.8769 92.7373 35.7462 92.7373 35.5847V34.4616C92.7373 34.3002 92.8687 34.1694 93.0295 34.1694C93.1903 34.1694 93.3217 34.3002 93.3217 34.4616V35.5847C93.3217 35.7462 93.1903 35.8769 93.0295 35.8769Z" fill="white"/>
<path d="M92.1757 33.9002H91.052C90.8912 33.9002 90.7598 33.7694 90.7598 33.608C90.7598 33.4465 90.8912 33.3164 91.052 33.3164H92.1757C92.3365 33.3164 92.4666 33.4471 92.4666 33.608C92.4666 33.7694 92.3365 33.9002 92.1757 33.9002Z" fill="white"/>
<path d="M147.388 16.3679C147.227 16.3679 147.096 16.2372 147.096 16.0757V14.9533C147.096 14.7919 147.227 14.6611 147.388 14.6611C147.549 14.6611 147.68 14.7919 147.68 14.9533V16.0757C147.68 16.2372 147.549 16.3679 147.388 16.3679Z" fill="white"/>
<path d="M149.364 17.2221H148.24C148.079 17.2221 147.949 17.0914 147.949 16.9299C147.949 16.7684 148.079 16.6377 148.24 16.6377H149.364C149.525 16.6377 149.656 16.7684 149.656 16.9299C149.656 17.0914 149.525 17.2221 149.364 17.2221Z" fill="white"/>
<path d="M147.388 19.1985C147.227 19.1985 147.096 19.0678 147.096 18.907V17.7839C147.096 17.6224 147.227 17.4917 147.388 17.4917C147.549 17.4917 147.68 17.6224 147.68 17.7839V18.907C147.68 19.0678 147.549 19.1985 147.388 19.1985Z" fill="white"/>
<path d="M146.535 17.2222H145.411C145.25 17.2222 145.12 17.0915 145.12 16.93C145.12 16.7686 145.25 16.6378 145.411 16.6378H146.535C146.696 16.6378 146.826 16.7686 146.826 16.93C146.826 17.0915 146.696 17.2222 146.535 17.2222Z" fill="white"/>
<path d="M126.387 76.2856C126.226 76.2856 126.095 76.1548 126.095 75.9934V74.8703C126.095 74.7089 126.226 74.5781 126.387 74.5781C126.548 74.5781 126.678 74.7089 126.678 74.8703V75.9934C126.678 76.1548 126.548 76.2856 126.387 76.2856Z" fill="white"/>
<path d="M128.362 77.1387H127.239C127.079 77.1387 126.947 77.0079 126.947 76.8471C126.947 76.6857 127.079 76.5549 127.239 76.5549H128.362C128.523 76.5549 128.654 76.6857 128.654 76.8471C128.655 77.0086 128.523 77.1387 128.362 77.1387Z" fill="white"/>
<path d="M126.387 79.1157C126.226 79.1157 126.095 78.9849 126.095 78.8235V77.7004C126.095 77.5389 126.226 77.4082 126.387 77.4082C126.548 77.4082 126.678 77.5389 126.678 77.7004V78.8235C126.678 78.9849 126.548 79.1157 126.387 79.1157Z" fill="white"/>
<path d="M125.533 77.1387H124.409C124.248 77.1387 124.118 77.0079 124.118 76.8471C124.118 76.6857 124.248 76.5549 124.409 76.5549H125.533C125.694 76.5549 125.825 76.6857 125.825 76.8471C125.825 77.0086 125.694 77.1387 125.533 77.1387Z" fill="white"/>
<path d="M238.191 61.4609C238.03 61.4609 237.898 61.3302 237.898 61.1688V60.0457C237.898 59.8842 238.03 59.7542 238.191 59.7542C238.351 59.7542 238.483 59.8849 238.483 60.0457V61.1688C238.483 61.3309 238.351 61.4609 238.191 61.4609Z" fill="white"/>
<path d="M240.167 62.3146H239.043C238.882 62.3146 238.752 62.1839 238.752 62.0224C238.752 61.861 238.882 61.7302 239.043 61.7302H240.167C240.327 61.7302 240.457 61.861 240.457 62.0224C240.457 62.1839 240.328 62.3146 240.167 62.3146Z" fill="white"/>
<path d="M238.191 64.2915C238.03 64.2915 237.898 64.1608 237.898 64V62.8769C237.898 62.7155 238.03 62.5847 238.191 62.5847C238.351 62.5847 238.483 62.7155 238.483 62.8769V64C238.483 64.1608 238.351 64.2915 238.191 64.2915Z" fill="white"/>
<path d="M237.337 62.3146H236.212C236.051 62.3146 235.921 62.1839 235.921 62.0224C235.921 61.861 236.051 61.7302 236.212 61.7302H237.337C237.498 61.7302 237.628 61.861 237.628 62.0224C237.628 62.1839 237.498 62.3146 237.337 62.3146Z" fill="white"/>
<path d="M205.452 31.8108C205.292 31.8108 205.16 31.6801 205.16 31.5186V30.3956C205.16 30.2341 205.292 30.104 205.452 30.104C205.613 30.104 205.745 30.2347 205.745 30.3956V31.5186C205.745 31.6807 205.613 31.8108 205.452 31.8108Z" fill="white"/>
<path d="M207.428 32.6647H206.305C206.144 32.6647 206.014 32.534 206.014 32.3725C206.014 32.2111 206.144 32.0803 206.305 32.0803H207.428C207.589 32.0803 207.72 32.2111 207.72 32.3725C207.72 32.534 207.59 32.6647 207.428 32.6647Z" fill="white"/>
<path d="M205.452 34.6414C205.292 34.6414 205.16 34.5106 205.16 34.3492V33.2261C205.16 33.0647 205.292 32.9346 205.452 32.9346C205.613 32.9346 205.745 33.0653 205.745 33.2261V34.3492C205.745 34.5106 205.613 34.6414 205.452 34.6414Z" fill="white"/>
<path d="M204.599 32.6647H203.476C203.315 32.6647 203.184 32.534 203.184 32.3725C203.184 32.2111 203.315 32.0803 203.476 32.0803H204.599C204.76 32.0803 204.89 32.2111 204.89 32.3725C204.89 32.534 204.76 32.6647 204.599 32.6647Z" fill="white"/>
<path d="M244.367 116.436C244.207 116.436 244.075 116.305 244.075 116.144V115.021C244.075 114.859 244.207 114.729 244.367 114.729C244.528 114.729 244.66 114.86 244.66 115.021V116.144C244.66 116.305 244.528 116.436 244.367 116.436Z" fill="white"/>
<path d="M246.343 117.289H245.22C245.059 117.289 244.929 117.159 244.929 116.998C244.929 116.836 245.059 116.706 245.22 116.706H246.343C246.504 116.706 246.634 116.836 246.634 116.998C246.634 117.159 246.504 117.289 246.343 117.289Z" fill="white"/>
<path d="M244.367 119.266C244.207 119.266 244.075 119.135 244.075 118.974V117.852C244.075 117.69 244.207 117.559 244.367 117.559C244.528 117.559 244.66 117.69 244.66 117.852V118.974C244.66 119.135 244.528 119.266 244.367 119.266Z" fill="white"/>
<path d="M243.515 117.289H242.391C242.23 117.289 242.099 117.159 242.099 116.998C242.099 116.836 242.23 116.706 242.391 116.706H243.515C243.675 116.706 243.805 116.836 243.805 116.998C243.805 117.159 243.675 117.289 243.515 117.289Z" fill="white"/>
<path d="M311.079 183.148C310.918 183.148 310.788 183.017 310.788 182.856V181.733C310.788 181.572 310.918 181.441 311.079 181.441C311.24 181.441 311.371 181.572 311.371 181.733V182.856C311.371 183.017 311.24 183.148 311.079 183.148Z" fill="white"/>
<path d="M313.053 184.002H311.931C311.77 184.002 311.639 183.87 311.639 183.71C311.639 183.549 311.77 183.418 311.931 183.418H313.053C313.214 183.418 313.345 183.549 313.345 183.71C313.345 183.87 313.215 184.002 313.053 184.002Z" fill="white"/>
<path d="M311.079 185.979C310.918 185.979 310.788 185.847 310.788 185.686V184.564C310.788 184.403 310.918 184.272 311.079 184.272C311.24 184.272 311.371 184.403 311.371 184.564V185.686C311.371 185.847 311.24 185.979 311.079 185.979Z" fill="white"/>
<path d="M310.226 184.002H309.102C308.942 184.002 308.812 183.87 308.812 183.71C308.812 183.549 308.942 183.418 309.102 183.418H310.226C310.387 183.418 310.518 183.549 310.518 183.71C310.518 183.87 310.387 184.002 310.226 184.002Z" fill="white"/>
<path d="M319.728 222.063C319.567 222.063 319.436 221.932 319.436 221.772V220.649C319.436 220.488 319.567 220.357 319.728 220.357C319.889 220.357 320.019 220.488 320.019 220.649V221.772C320.019 221.932 319.889 222.063 319.728 222.063Z" fill="white"/>
<path d="M321.701 222.918H320.578C320.417 222.918 320.286 222.787 320.286 222.626C320.286 222.465 320.417 222.334 320.578 222.334H321.701C321.862 222.334 321.993 222.465 321.993 222.626C321.993 222.787 321.862 222.918 321.701 222.918Z" fill="white"/>
<path d="M319.728 224.893C319.567 224.893 319.436 224.763 319.436 224.602V223.479C319.436 223.318 319.567 223.187 319.728 223.187C319.889 223.187 320.019 223.318 320.019 223.479V224.602C320.019 224.763 319.889 224.893 319.728 224.893Z" fill="white"/>
<path d="M318.874 222.918H317.751C317.59 222.918 317.459 222.787 317.459 222.626C317.459 222.465 317.59 222.334 317.751 222.334H318.874C319.034 222.334 319.166 222.465 319.166 222.626C319.166 222.787 319.034 222.918 318.874 222.918Z" fill="white"/>
<path d="M362.348 141.144C362.187 141.144 362.057 141.012 362.057 140.852V139.729C362.057 139.568 362.187 139.438 362.348 139.438C362.508 139.438 362.64 139.568 362.64 139.729V140.852C362.64 141.012 362.508 141.144 362.348 141.144Z" fill="white"/>
<path d="M364.323 141.998H363.2C363.04 141.998 362.908 141.868 362.908 141.707C362.908 141.546 363.04 141.415 363.2 141.415H364.323C364.484 141.415 364.615 141.546 364.615 141.707C364.615 141.868 364.484 141.998 364.323 141.998Z" fill="white"/>
<path d="M362.348 143.975C362.187 143.975 362.057 143.843 362.057 143.682V142.559C362.057 142.399 362.187 142.268 362.348 142.268C362.508 142.268 362.64 142.399 362.64 142.559V143.682C362.64 143.843 362.508 143.975 362.348 143.975Z" fill="white"/>
<path d="M361.495 141.998H360.372C360.211 141.998 360.08 141.868 360.08 141.707C360.08 141.546 360.211 141.415 360.372 141.415H361.495C361.655 141.415 361.787 141.546 361.787 141.707C361.787 141.868 361.655 141.998 361.495 141.998Z" fill="white"/>
<path d="M409.293 180.677C409.132 180.677 409.001 180.545 409.001 180.385V179.262C409.001 179.101 409.132 178.97 409.293 178.97C409.454 178.97 409.584 179.101 409.584 179.262V180.385C409.584 180.545 409.454 180.677 409.293 180.677Z" fill="white"/>
<path d="M411.27 181.531H410.147C409.986 181.531 409.854 181.4 409.854 181.239C409.854 181.078 409.986 180.948 410.147 180.948H411.27C411.431 180.948 411.561 181.078 411.561 181.239C411.561 181.4 411.431 181.531 411.27 181.531Z" fill="white"/>
<path d="M409.293 183.507C409.132 183.507 409.001 183.377 409.001 183.216V182.093C409.001 181.932 409.132 181.801 409.293 181.801C409.454 181.801 409.584 181.932 409.584 182.093V183.216C409.584 183.376 409.454 183.507 409.293 183.507Z" fill="white"/>
<path d="M408.439 181.531H407.317C407.156 181.531 407.024 181.4 407.024 181.239C407.024 181.078 407.156 180.948 407.317 180.948H408.439C408.6 180.948 408.731 181.078 408.731 181.239C408.731 181.4 408.6 181.531 408.439 181.531Z" fill="white"/>
<path d="M254.868 230.711C254.708 230.711 254.576 230.58 254.576 230.42V229.297C254.576 229.136 254.708 229.004 254.868 229.004C255.029 229.004 255.159 229.136 255.159 229.297V230.42C255.159 230.58 255.029 230.711 254.868 230.711Z" fill="white"/>
<path d="M256.845 231.565H255.721C255.56 231.565 255.429 231.434 255.429 231.273C255.429 231.112 255.56 230.981 255.721 230.981H256.845C257.005 230.981 257.136 231.112 257.136 231.273C257.136 231.434 257.005 231.565 256.845 231.565Z" fill="white"/>
<path d="M254.868 233.542C254.708 233.542 254.576 233.41 254.576 233.249V232.127C254.576 231.966 254.708 231.835 254.868 231.835C255.029 231.835 255.159 231.966 255.159 232.127V233.249C255.159 233.41 255.029 233.542 254.868 233.542Z" fill="white"/>
<path d="M254.014 231.565H252.892C252.731 231.565 252.6 231.434 252.6 231.273C252.6 231.112 252.731 230.981 252.892 230.981H254.014C254.175 230.981 254.306 231.112 254.306 231.273C254.306 231.434 254.175 231.565 254.014 231.565Z" fill="white"/>
<path d="M81.0608 212.489C80.8999 212.489 80.7686 212.358 80.7686 212.198V211.075C80.7686 210.914 80.8999 210.782 81.0608 210.782C81.2216 210.782 81.3517 210.914 81.3517 211.075V212.198C81.3517 212.357 81.2216 212.489 81.0608 212.489Z" fill="white"/>
<path d="M83.0367 213.343H81.9143C81.7535 213.343 81.6221 213.212 81.6221 213.051C81.6221 212.89 81.7535 212.759 81.9143 212.759H83.0367C83.1975 212.759 83.3289 212.89 83.3289 213.051C83.3289 213.212 83.1975 213.343 83.0367 213.343Z" fill="white"/>
<path d="M81.0608 215.319C80.8999 215.319 80.7686 215.188 80.7686 215.028V213.905C80.7686 213.744 80.8999 213.613 81.0608 213.613C81.2216 213.613 81.3517 213.744 81.3517 213.905V215.028C81.3517 215.188 81.2216 215.319 81.0608 215.319Z" fill="white"/>
<path d="M80.2069 213.343H79.0832C78.9224 213.343 78.791 213.212 78.791 213.051C78.791 212.89 78.9224 212.76 79.0832 212.76H80.2069C80.3677 212.76 80.4978 212.89 80.4978 213.051C80.4978 213.212 80.3677 213.343 80.2069 213.343Z" fill="white"/>
<path d="M102.681 176.508C102.52 176.508 102.389 176.376 102.389 176.216V175.093C102.389 174.932 102.52 174.801 102.681 174.801C102.842 174.801 102.973 174.932 102.973 175.093V176.216C102.973 176.376 102.842 176.508 102.681 176.508Z" fill="white"/>
<path d="M104.657 177.362H103.533C103.372 177.362 103.242 177.23 103.242 177.07C103.242 176.909 103.372 176.778 103.533 176.778H104.657C104.818 176.778 104.949 176.909 104.949 177.07C104.949 177.23 104.818 177.362 104.657 177.362Z" fill="white"/>
<path d="M102.681 179.338C102.52 179.338 102.389 179.207 102.389 179.046V177.924C102.389 177.763 102.52 177.632 102.681 177.632C102.842 177.632 102.973 177.763 102.973 177.924V179.046C102.973 179.206 102.842 179.338 102.681 179.338Z" fill="white"/>
<path d="M101.827 177.362H100.704C100.543 177.362 100.412 177.23 100.412 177.069C100.412 176.909 100.543 176.778 100.704 176.778H101.827C101.988 176.778 102.119 176.909 102.119 177.069C102.119 177.23 101.988 177.362 101.827 177.362Z" fill="white"/>
<path d="M77.3537 175.427C77.1929 175.427 77.0615 175.295 77.0615 175.135V174.012C77.0615 173.851 77.1929 173.72 77.3537 173.72C77.5145 173.72 77.6446 173.851 77.6446 174.012V175.135C77.6446 175.295 77.5145 175.427 77.3537 175.427Z" fill="white"/>
<path d="M79.33 176.28H78.2063C78.0455 176.28 77.9141 176.149 77.9141 175.988C77.9141 175.828 78.0455 175.697 78.2063 175.697H79.33C79.4908 175.697 79.6209 175.828 79.6209 175.988C79.6209 176.149 79.4914 176.28 79.33 176.28Z" fill="white"/>
<path d="M77.3537 178.257C77.1929 178.257 77.0615 178.126 77.0615 177.965V176.842C77.0615 176.681 77.1929 176.55 77.3537 176.55C77.5145 176.55 77.6446 176.681 77.6446 176.842V177.965C77.6446 178.126 77.5145 178.257 77.3537 178.257Z" fill="white"/>
<path d="M76.4996 176.28H75.3759C75.215 176.28 75.085 176.149 75.085 175.988C75.085 175.828 75.215 175.697 75.3759 175.697H76.4996C76.6604 175.697 76.7905 175.828 76.7905 175.988C76.7905 176.149 76.6604 176.28 76.4996 176.28Z" fill="white"/>
</svg>
