<svg width="32" height="25" viewBox="0 0 32 25" fill="none" xmlns="http://www.w3.org/2000/svg">
<rect x="2" y="2" width="20" height="18" fill="#FFD969"/>
<rect x="5" y="18" width="6" height="5" fill="white"/>
<rect x="21" y="18" width="6" height="5" fill="white"/>
<path d="M31.7981 12.0837L28.3814 4.11143C28.2942 3.90558 28.1484 3.72993 27.962 3.60639C27.7757 3.48286 27.5572 3.41688 27.3336 3.4167H23.9169V1.1389C23.9169 0.836845 23.7969 0.547162 23.5833 0.333576C23.3697 0.119991 23.0801 0 22.778 0H1.1389C0.836845 0 0.547161 0.119991 0.333576 0.333576C0.119991 0.547162 0 0.836845 0 1.1389V20.5002C0 20.8023 0.119991 21.0919 0.333576 21.3055C0.547161 21.5191 0.836845 21.6391 1.1389 21.6391H3.57615C3.83842 22.6042 4.41096 23.4561 5.20545 24.0635C5.99995 24.6709 6.97223 25 7.9723 25C8.97237 25 9.94466 24.6709 10.7392 24.0635C11.5336 23.4561 12.1062 22.6042 12.3685 21.6391H19.5208C19.783 22.6042 20.3556 23.4561 21.1501 24.0635C21.9445 24.6709 22.9168 25 23.9169 25C24.917 25 25.8893 24.6709 26.6838 24.0635C27.4782 23.4561 28.0508 22.6042 28.3131 21.6391H30.7503C31.0524 21.6391 31.342 21.5191 31.5556 21.3055C31.7692 21.0919 31.8892 20.8023 31.8892 20.5002V12.5279C31.8889 12.3752 31.8579 12.2242 31.7981 12.0837ZM23.9169 5.6945H26.5819L29.0192 11.389H23.9169V5.6945ZM7.9723 22.778C7.5218 22.778 7.08141 22.6444 6.70682 22.3941C6.33224 22.1438 6.04029 21.7881 5.86789 21.3719C5.69549 20.9557 5.65038 20.4977 5.73827 20.0558C5.82616 19.614 6.0431 19.2081 6.36165 18.8896C6.68021 18.571 7.08608 18.3541 7.52793 18.2662C7.96978 18.1783 8.42776 18.2234 8.84398 18.3958C9.26019 18.5682 9.61594 18.8601 9.86622 19.2347C10.1165 19.6093 10.2501 20.0497 10.2501 20.5002C10.2501 21.1043 10.0101 21.6837 9.58295 22.1109C9.15578 22.538 8.57641 22.778 7.9723 22.778ZM19.5208 19.3613H12.3685C12.1062 18.3962 11.5336 17.5443 10.7392 16.9369C9.94466 16.3295 8.97237 16.0004 7.9723 16.0004C6.97223 16.0004 5.99995 16.3295 5.20545 16.9369C4.41096 17.5443 3.83842 18.3962 3.57615 19.3613H2.2778V2.2778H21.6391V16.5824C21.1205 16.8834 20.6664 17.2838 20.3029 17.7607C19.9394 18.2375 19.6736 18.7815 19.5208 19.3613ZM23.9169 22.778C23.4664 22.778 23.026 22.6444 22.6514 22.3941C22.2768 22.1438 21.9849 21.7881 21.8125 21.3719C21.6401 20.9557 21.595 20.4977 21.6829 20.0558C21.7708 19.614 21.9877 19.2081 22.3063 18.8896C22.6248 18.571 23.0307 18.3541 23.4725 18.2662C23.9144 18.1783 24.3724 18.2234 24.7886 18.3958C25.2048 18.5682 25.5605 18.8601 25.8108 19.2347C26.0611 19.6093 26.1947 20.0497 26.1947 20.5002C26.1947 21.1043 25.9547 21.6837 25.5276 22.1109C25.1004 22.538 24.521 22.778 23.9169 22.778ZM29.6114 19.3613H28.3131C28.0612 18.3859 27.4931 17.5214 26.6977 16.9032C25.9023 16.285 24.9243 15.9479 23.9169 15.9446V13.6668H29.6114V19.3613Z" fill="#333333"/>
</svg>
