<svg width="71" height="71" viewBox="0 0 71 71" fill="none" xmlns="http://www.w3.org/2000/svg">
<rect width="71" height="71" rx="35.5" fill="#355BC0"/>
<g clip-path="url(#clip0_1312_155)">
<path d="M28.2083 18H23.8333C22.2862 18 20.8025 18.6146 19.7085 19.7085C18.6146 20.8025 18 22.2862 18 23.8333V28.2083C18 29.7554 18.6146 31.2392 19.7085 32.3331C20.8025 33.4271 22.2862 34.0417 23.8333 34.0417H28.2083C29.7554 34.0417 31.2392 33.4271 32.3331 32.3331C33.4271 31.2392 34.0417 29.7554 34.0417 28.2083V23.8333C34.0417 22.2862 33.4271 20.8025 32.3331 19.7085C31.2392 18.6146 29.7554 18 28.2083 18V18ZM31.125 28.2083C31.125 28.9819 30.8177 29.7237 30.2707 30.2707C29.7237 30.8177 28.9819 31.125 28.2083 31.125H23.8333C23.0598 31.125 22.3179 30.8177 21.7709 30.2707C21.224 29.7237 20.9167 28.9819 20.9167 28.2083V23.8333C20.9167 23.0598 21.224 22.3179 21.7709 21.7709C22.3179 21.224 23.0598 20.9167 23.8333 20.9167H28.2083C28.9819 20.9167 29.7237 21.224 30.2707 21.7709C30.8177 22.3179 31.125 23.0598 31.125 23.8333V28.2083Z" fill="white"/>
<path d="M47.1663 18H42.7913C41.2442 18 39.7605 18.6146 38.6665 19.7085C37.5726 20.8025 36.958 22.2862 36.958 23.8333V28.2083C36.958 29.7554 37.5726 31.2392 38.6665 32.3331C39.7605 33.4271 41.2442 34.0417 42.7913 34.0417H47.1663C48.7134 34.0417 50.1971 33.4271 51.2911 32.3331C52.3851 31.2392 52.9997 29.7554 52.9997 28.2083V23.8333C52.9997 22.2862 52.3851 20.8025 51.2911 19.7085C50.1971 18.6146 48.7134 18 47.1663 18V18ZM50.083 28.2083C50.083 28.9819 49.7757 29.7238 49.2287 30.2707C48.6817 30.8177 47.9399 31.125 47.1663 31.125H42.7913C42.0178 31.125 41.2759 30.8177 40.7289 30.2707C40.182 29.7238 39.8747 28.9819 39.8747 28.2083V23.8333C39.8747 23.0598 40.182 22.3179 40.7289 21.7709C41.2759 21.224 42.0178 20.9167 42.7913 20.9167H47.1663C47.9399 20.9167 48.6817 21.224 49.2287 21.7709C49.7757 22.3179 50.083 23.0598 50.083 23.8333V28.2083Z" fill="white"/>
<path d="M28.2083 36.958H23.8333C22.2862 36.958 20.8025 37.5726 19.7085 38.6666C18.6146 39.7605 18 41.2443 18 42.7913V47.1664C18 48.7135 18.6146 50.1972 19.7085 51.2912C20.8025 52.3851 22.2862 52.9997 23.8333 52.9997H28.2083C29.7554 52.9997 31.2392 52.3851 32.3331 51.2912C33.4271 50.1972 34.0417 48.7135 34.0417 47.1664V42.7913C34.0417 41.2443 33.4271 39.7605 32.3331 38.6666C31.2392 37.5726 29.7554 36.958 28.2083 36.958ZM31.125 47.1664C31.125 47.9399 30.8177 48.6818 30.2707 49.2288C29.7237 49.7757 28.9819 50.083 28.2083 50.083H23.8333C23.0598 50.083 22.3179 49.7757 21.7709 49.2288C21.224 48.6818 20.9167 47.9399 20.9167 47.1664V42.7913C20.9167 42.0178 21.224 41.2759 21.7709 40.729C22.3179 40.182 23.0598 39.8747 23.8333 39.8747H28.2083C28.9819 39.8747 29.7237 40.182 30.2707 40.729C30.8177 41.2759 31.125 42.0178 31.125 42.7913V47.1664Z" fill="white"/>
<path d="M47.1663 36.958H42.7913C41.2442 36.958 39.7605 37.5726 38.6665 38.6666C37.5726 39.7605 36.958 41.2443 36.958 42.7913V47.1664C36.958 48.7135 37.5726 50.1972 38.6665 51.2912C39.7605 52.3851 41.2442 52.9997 42.7913 52.9997H47.1663C48.7134 52.9997 50.1971 52.3851 51.2911 51.2912C52.3851 50.1972 52.9997 48.7135 52.9997 47.1664V42.7913C52.9997 41.2443 52.3851 39.7605 51.2911 38.6666C50.1971 37.5726 48.7134 36.958 47.1663 36.958ZM50.083 47.1664C50.083 47.9399 49.7757 48.6818 49.2287 49.2288C48.6817 49.7757 47.9399 50.083 47.1663 50.083H42.7913C42.0178 50.083 41.2759 49.7757 40.7289 49.2288C40.182 48.6818 39.8747 47.9399 39.8747 47.1664V42.7913C39.8747 42.0178 40.182 41.2759 40.7289 40.729C41.2759 40.182 42.0178 39.8747 42.7913 39.8747H47.1663C47.9399 39.8747 48.6817 40.182 49.2287 40.729C49.7757 41.2759 50.083 42.0178 50.083 42.7913V47.1664Z" fill="white"/>
</g>
<defs>
<clipPath id="clip0_1312_155">
<rect width="35" height="35" fill="white" transform="translate(18 18)"/>
</clipPath>
</defs>
</svg>
