<svg width="71" height="71" viewBox="0 0 71 71" fill="none" xmlns="http://www.w3.org/2000/svg">
<rect width="71" height="71" rx="35.5" fill="#6B7D63"/>
<g clip-path="url(#clip0_1312_147)">
<path d="M51.5413 34.043H48.6247V31.1263C48.6247 30.7395 48.471 30.3686 48.1975 30.0951C47.924 29.8216 47.5531 29.668 47.1663 29.668C46.7796 29.668 46.4086 29.8216 46.1351 30.0951C45.8616 30.3686 45.708 30.7395 45.708 31.1263V34.043H42.7913C42.4046 34.043 42.0336 34.1966 41.7601 34.4701C41.4867 34.7436 41.333 35.1145 41.333 35.5013C41.333 35.8881 41.4867 36.259 41.7601 36.5325C42.0336 36.806 42.4046 36.9596 42.7913 36.9596H45.708V39.8763C45.708 40.2631 45.8616 40.634 46.1351 40.9075C46.4086 41.181 46.7796 41.3346 47.1663 41.3346C47.5531 41.3346 47.924 41.181 48.1975 40.9075C48.471 40.634 48.6247 40.2631 48.6247 39.8763V36.9596H51.5413C51.9281 36.9596 52.299 36.806 52.5725 36.5325C52.846 36.259 52.9997 35.8881 52.9997 35.5013C52.9997 35.1145 52.846 34.7436 52.5725 34.4701C52.299 34.1966 51.9281 34.043 51.5413 34.043Z" fill="white"/>
<path d="M31.125 35.5C32.8556 35.5 34.5473 34.9868 35.9862 34.0254C37.4252 33.0639 38.5467 31.6973 39.2089 30.0985C39.8712 28.4996 40.0445 26.7403 39.7069 25.043C39.3693 23.3456 38.5359 21.7865 37.3122 20.5628C36.0885 19.3391 34.5294 18.5058 32.832 18.1681C31.1347 17.8305 29.3754 18.0038 27.7765 18.6661C26.1777 19.3283 24.8111 20.4498 23.8496 21.8888C22.8882 23.3277 22.375 25.0194 22.375 26.75C22.3773 29.0699 23.2999 31.2942 24.9404 32.9346C26.5808 34.5751 28.8051 35.4977 31.125 35.5ZM31.125 20.9167C32.2787 20.9167 33.4065 21.2588 34.3658 21.8998C35.3251 22.5407 36.0728 23.4518 36.5143 24.5177C36.9558 25.5836 37.0713 26.7565 36.8462 27.888C36.6212 29.0196 36.0656 30.059 35.2498 30.8748C34.434 31.6906 33.3946 32.2462 32.263 32.4713C31.1315 32.6963 29.9586 32.5808 28.8927 32.1393C27.8268 31.6978 26.9157 30.9501 26.2748 29.9908C25.6338 29.0315 25.2917 27.9037 25.2917 26.75C25.2917 25.2029 25.9062 23.7192 27.0002 22.6252C28.0942 21.5313 29.5779 20.9167 31.125 20.9167Z" fill="white"/>
<path d="M31.125 38.418C27.6452 38.4218 24.3091 39.8059 21.8485 42.2665C19.3879 44.727 18.0039 48.0632 18 51.543C18 51.9297 18.1536 52.3007 18.4271 52.5742C18.7006 52.8477 19.0716 53.0013 19.4583 53.0013C19.8451 53.0013 20.216 52.8477 20.4895 52.5742C20.763 52.3007 20.9167 51.9297 20.9167 51.543C20.9167 48.8356 21.9922 46.239 23.9066 44.3246C25.8211 42.4102 28.4176 41.3346 31.125 41.3346C33.8324 41.3346 36.4289 42.4102 38.3434 44.3246C40.2578 46.239 41.3333 48.8356 41.3333 51.543C41.3333 51.9297 41.487 52.3007 41.7605 52.5742C42.034 52.8477 42.4049 53.0013 42.7917 53.0013C43.1784 53.0013 43.5494 52.8477 43.8229 52.5742C44.0964 52.3007 44.25 51.9297 44.25 51.543C44.2461 48.0632 42.8621 44.727 40.4015 42.2665C37.9409 39.8059 34.6048 38.4218 31.125 38.418Z" fill="white"/>
</g>
<defs>
<clipPath id="clip0_1312_147">
<rect width="35" height="35" fill="white" transform="translate(18 18)"/>
</clipPath>
</defs>
</svg>
