<svg width="51" height="51" viewBox="0 0 51 51" fill="none" xmlns="http://www.w3.org/2000/svg">
<g clip-path="url(#clip0_1316_866)">
<path d="M51 25.5C51 11.4167 39.5833 0 25.5 0C11.4167 0 0 11.4167 0 25.5C0 39.5833 11.4167 51 25.5 51C39.5833 51 51 39.5833 51 25.5Z" fill="#355BC0"/>
<path d="M36.7223 17.2005C36.4277 16.8468 36.0588 16.5625 35.6419 16.3675C35.2249 16.1725 34.7702 16.0717 34.3099 16.0723H17.3734L17.3293 15.7046C17.2393 14.9404 16.872 14.2357 16.297 13.7242C15.722 13.2128 14.9793 12.93 14.2098 12.9297H13.9772C13.6994 12.9297 13.4329 13.04 13.2365 13.2365C13.04 13.4329 12.9297 13.6994 12.9297 13.9772C12.9297 14.255 13.04 14.5215 13.2365 14.7179C13.4329 14.9144 13.6994 15.0248 13.9772 15.0248H14.2098C14.4664 15.0248 14.714 15.119 14.9058 15.2895C15.0975 15.46 15.2199 15.6949 15.25 15.9497L16.6914 28.2059C16.841 29.4806 17.4535 30.6559 18.4124 31.5088C19.3713 32.3617 20.6101 32.8329 21.8935 32.8328H32.8328C33.1107 32.8328 33.3771 32.7225 33.5736 32.526C33.77 32.3296 33.8804 32.0632 33.8804 31.7853C33.8804 31.5075 33.77 31.2411 33.5736 31.0446C33.3771 30.8481 33.1107 30.7378 32.8328 30.7378H21.8935C21.2451 30.7359 20.6132 30.5337 20.0843 30.1586C19.5554 29.7835 19.1555 29.254 18.9394 28.6427H31.426C32.654 28.6428 33.8431 28.2114 34.7853 27.4238C35.7276 26.6363 36.3631 25.5428 36.5809 24.3342L37.4032 19.7732C37.4853 19.3207 37.4669 18.8557 37.3492 18.411C37.2315 17.9665 37.0176 17.5532 36.7223 17.2005ZM35.3469 19.4014L34.5236 23.9624C34.3928 24.6883 34.0108 25.3451 33.4445 25.8177C32.8782 26.2904 32.1637 26.5488 31.426 26.5476H18.6063L17.6205 18.1674H34.3099C34.4638 18.1665 34.616 18.1994 34.7557 18.264C34.8953 18.3286 35.0191 18.4231 35.1181 18.5409C35.2171 18.6587 35.2889 18.7969 35.3285 18.9456C35.368 19.0944 35.3744 19.25 35.3469 19.4014Z" fill="white"/>
<path d="M20.2625 38.071C21.4196 38.071 22.3576 37.133 22.3576 35.9759C22.3576 34.8188 21.4196 33.8809 20.2625 33.8809C19.1054 33.8809 18.1675 34.8188 18.1675 35.9759C18.1675 37.133 19.1054 38.071 20.2625 38.071Z" fill="white"/>
<path d="M30.7377 38.071C31.8947 38.071 32.8327 37.133 32.8327 35.9759C32.8327 34.8188 31.8947 33.8809 30.7377 33.8809C29.5805 33.8809 28.6426 34.8188 28.6426 35.9759C28.6426 37.133 29.5805 38.071 30.7377 38.071Z" fill="white"/>
</g>
<defs>
<clipPath id="clip0_1316_866">
<rect width="51" height="51" fill="white"/>
</clipPath>
</defs>
</svg>
