<svg width="71" height="71" viewBox="0 0 71 71" fill="none" xmlns="http://www.w3.org/2000/svg">
<rect width="71" height="71" rx="35.5" fill="#355BC0"/>
<g clip-path="url(#clip0_1312_160)">
<path d="M28.2083 26.7506H51.5417C51.9284 26.7506 52.2994 26.597 52.5729 26.3235C52.8464 26.05 53 25.6791 53 25.2923C53 24.9055 52.8464 24.5346 52.5729 24.2611C52.2994 23.9876 51.9284 23.834 51.5417 23.834H28.2083C27.8216 23.834 27.4506 23.9876 27.1771 24.2611C26.9036 24.5346 26.75 24.9055 26.75 25.2923C26.75 25.6791 26.9036 26.05 27.1771 26.3235C27.4506 26.597 27.8216 26.7506 28.2083 26.7506Z" fill="white"/>
<path d="M51.5417 34.041H28.2083C27.8216 34.041 27.4506 34.1947 27.1771 34.4682C26.9036 34.7416 26.75 35.1126 26.75 35.4994C26.75 35.8861 26.9036 36.2571 27.1771 36.5306C27.4506 36.8041 27.8216 36.9577 28.2083 36.9577H51.5417C51.9284 36.9577 52.2994 36.8041 52.5729 36.5306C52.8464 36.2571 53 35.8861 53 35.4994C53 35.1126 52.8464 34.7416 52.5729 34.4682C52.2994 34.1947 51.9284 34.041 51.5417 34.041Z" fill="white"/>
<path d="M51.5417 44.25H28.2083C27.8216 44.25 27.4506 44.4036 27.1771 44.6771C26.9036 44.9506 26.75 45.3216 26.75 45.7083C26.75 46.0951 26.9036 46.4661 27.1771 46.7395C27.4506 47.013 27.8216 47.1667 28.2083 47.1667H51.5417C51.9284 47.1667 52.2994 47.013 52.5729 46.7395C52.8464 46.4661 53 46.0951 53 45.7083C53 45.3216 52.8464 44.9506 52.5729 44.6771C52.2994 44.4036 51.9284 44.25 51.5417 44.25Z" fill="white"/>
<path d="M20.9167 28.2083C22.5275 28.2083 23.8333 26.9025 23.8333 25.2917C23.8333 23.6808 22.5275 22.375 20.9167 22.375C19.3058 22.375 18 23.6808 18 25.2917C18 26.9025 19.3058 28.2083 20.9167 28.2083Z" fill="white"/>
<path d="M20.9167 38.4173C22.5275 38.4173 23.8333 37.1115 23.8333 35.5006C23.8333 33.8898 22.5275 32.584 20.9167 32.584C19.3058 32.584 18 33.8898 18 35.5006C18 37.1115 19.3058 38.4173 20.9167 38.4173Z" fill="white"/>
<path d="M20.9167 48.6243C22.5275 48.6243 23.8333 47.3185 23.8333 45.7077C23.8333 44.0968 22.5275 42.791 20.9167 42.791C19.3058 42.791 18 44.0968 18 45.7077C18 47.3185 19.3058 48.6243 20.9167 48.6243Z" fill="white"/>
</g>
<defs>
<clipPath id="clip0_1312_160">
<rect width="35" height="35" fill="white" transform="translate(18 18)"/>
</clipPath>
</defs>
</svg>
