<svg width="71" height="71" viewBox="0 0 71 71" fill="none" xmlns="http://www.w3.org/2000/svg">
<rect width="71" height="71" rx="35.5" fill="#6B7D63"/>
<g clip-path="url(#clip0_1312_152)">
<path d="M51.5417 50.0833H25.2917C24.1313 50.0833 23.0185 49.6224 22.1981 48.8019C21.3776 47.9815 20.9167 46.8687 20.9167 45.7083V19.4583C20.9167 19.0716 20.763 18.7006 20.4895 18.4271C20.216 18.1536 19.8451 18 19.4583 18C19.0716 18 18.7006 18.1536 18.4271 18.4271C18.1536 18.7006 18 19.0716 18 19.4583V45.7083C18.0023 47.6415 18.7713 49.4948 20.1382 50.8618C21.5052 52.2287 23.3585 52.9977 25.2917 53H51.5417C51.9284 53 52.2994 52.8464 52.5729 52.5729C52.8464 52.2994 53 51.9284 53 51.5417C53 51.1549 52.8464 50.784 52.5729 50.5105C52.2994 50.237 51.9284 50.0833 51.5417 50.0833Z" fill="white"/>
<path d="M26.7503 47.167C27.1371 47.167 27.508 47.0133 27.7815 46.7399C28.055 46.4664 28.2087 46.0954 28.2087 45.7087V35.5003C28.2087 35.1136 28.055 34.7426 27.7815 34.4691C27.508 34.1956 27.1371 34.042 26.7503 34.042C26.3635 34.042 25.9926 34.1956 25.7191 34.4691C25.4456 34.7426 25.292 35.1136 25.292 35.5003V45.7087C25.292 46.0954 25.4456 46.4664 25.7191 46.7399C25.9926 47.0133 26.3635 47.167 26.7503 47.167Z" fill="white"/>
<path d="M32.583 32.5833V45.7083C32.583 46.0951 32.7367 46.466 33.0101 46.7395C33.2836 47.013 33.6546 47.1666 34.0413 47.1666C34.4281 47.1666 34.7991 47.013 35.0726 46.7395C35.346 46.466 35.4997 46.0951 35.4997 45.7083V32.5833C35.4997 32.1966 35.346 31.8256 35.0726 31.5521C34.7991 31.2786 34.4281 31.125 34.0413 31.125C33.6546 31.125 33.2836 31.2786 33.0101 31.5521C32.7367 31.8256 32.583 32.1966 32.583 32.5833Z" fill="white"/>
<path d="M39.875 36.9583V45.7083C39.875 46.0951 40.0286 46.466 40.3021 46.7395C40.5756 47.013 40.9466 47.1666 41.3333 47.1666C41.7201 47.1666 42.0911 47.013 42.3645 46.7395C42.638 46.466 42.7917 46.0951 42.7917 45.7083V36.9583C42.7917 36.5716 42.638 36.2006 42.3645 35.9271C42.0911 35.6536 41.7201 35.5 41.3333 35.5C40.9466 35.5 40.5756 35.6536 40.3021 35.9271C40.0286 36.2006 39.875 36.5716 39.875 36.9583Z" fill="white"/>
<path d="M47.167 31.1253V45.7087C47.167 46.0954 47.3206 46.4664 47.5941 46.7399C47.8676 47.0133 48.2386 47.167 48.6253 47.167C49.0121 47.167 49.383 47.0133 49.6565 46.7399C49.93 46.4664 50.0837 46.0954 50.0837 45.7087V31.1253C50.0837 30.7386 49.93 30.3676 49.6565 30.0941C49.383 29.8206 49.0121 29.667 48.6253 29.667C48.2386 29.667 47.8676 29.8206 47.5941 30.0941C47.3206 30.3676 47.167 30.7386 47.167 31.1253Z" fill="white"/>
<path d="M26.7498 31.1247C27.1365 31.1246 27.5074 30.9709 27.7808 30.6974L33.0104 25.4678C33.2884 25.203 33.6575 25.0553 34.0414 25.0553C34.4253 25.0553 34.7945 25.203 35.0725 25.4678L38.24 28.6353C39.0604 29.4555 40.173 29.9162 41.3331 29.9162C42.4932 29.9162 43.6058 29.4555 44.4262 28.6353L52.5725 20.489C52.8381 20.214 52.9851 19.8456 52.9818 19.4632C52.9785 19.0809 52.8251 18.7151 52.5547 18.4447C52.2843 18.1743 51.9186 18.021 51.5362 18.0176C51.1538 18.0143 50.7854 18.1613 50.5104 18.4269L42.3641 26.5717C42.0907 26.8451 41.7198 26.9987 41.3331 26.9987C40.9464 26.9987 40.5755 26.8451 40.3021 26.5717L37.1346 23.4057C36.3141 22.5855 35.2015 22.1248 34.0414 22.1248C32.8813 22.1248 31.7687 22.5855 30.9483 23.4057L25.7187 28.6353C25.5148 28.8392 25.376 29.0991 25.3198 29.3819C25.2635 29.6648 25.2924 29.9579 25.4027 30.2244C25.5131 30.4908 25.7 30.7185 25.9397 30.8788C26.1795 31.039 26.4614 31.1246 26.7498 31.1247Z" fill="white"/>
</g>
<defs>
<clipPath id="clip0_1312_152">
<rect width="35" height="35" fill="white" transform="translate(18 18)"/>
</clipPath>
</defs>
</svg>
