<svg width="71" height="71" viewBox="0 0 71 71" fill="none" xmlns="http://www.w3.org/2000/svg">
<rect width="71" height="71" rx="35.5" fill="#6B7D63"/>
<g clip-path="url(#clip0_1312_143)">
<path d="M48.625 26.75H44.25C44.25 24.4294 43.3281 22.2038 41.6872 20.5628C40.0462 18.9219 37.8206 18 35.5 18C33.1794 18 30.9538 18.9219 29.3128 20.5628C27.6719 22.2038 26.75 24.4294 26.75 26.75H22.375C21.2147 26.75 20.1019 27.2109 19.2814 28.0314C18.4609 28.8519 18 29.9647 18 31.125V45.7083C18.0023 47.6415 18.7713 49.4948 20.1382 50.8618C21.5052 52.2287 23.3585 52.9977 25.2917 53H45.7083C47.6415 52.9977 49.4948 52.2287 50.8618 50.8618C52.2287 49.4948 52.9977 47.6415 53 45.7083V31.125C53 29.9647 52.5391 28.8519 51.7186 28.0314C50.8981 27.2109 49.7853 26.75 48.625 26.75ZM35.5 20.9167C37.0471 20.9167 38.5308 21.5312 39.6248 22.6252C40.7188 23.7192 41.3333 25.2029 41.3333 26.75H29.6667C29.6667 25.2029 30.2812 23.7192 31.3752 22.6252C32.4692 21.5312 33.9529 20.9167 35.5 20.9167ZM50.0833 45.7083C50.0833 46.8687 49.6224 47.9815 48.8019 48.8019C47.9815 49.6224 46.8687 50.0833 45.7083 50.0833H25.2917C24.1313 50.0833 23.0185 49.6224 22.1981 48.8019C21.3776 47.9815 20.9167 46.8687 20.9167 45.7083V31.125C20.9167 30.7382 21.0703 30.3673 21.3438 30.0938C21.6173 29.8203 21.9882 29.6667 22.375 29.6667H26.75V32.5833C26.75 32.9701 26.9036 33.341 27.1771 33.6145C27.4506 33.888 27.8216 34.0417 28.2083 34.0417C28.5951 34.0417 28.966 33.888 29.2395 33.6145C29.513 33.341 29.6667 32.9701 29.6667 32.5833V29.6667H41.3333V32.5833C41.3333 32.9701 41.487 33.341 41.7605 33.6145C42.034 33.888 42.4049 34.0417 42.7917 34.0417C43.1784 34.0417 43.5494 33.888 43.8229 33.6145C44.0964 33.341 44.25 32.9701 44.25 32.5833V29.6667H48.625C49.0118 29.6667 49.3827 29.8203 49.6562 30.0938C49.9297 30.3673 50.0833 30.7382 50.0833 31.125V45.7083Z" fill="white"/>
</g>
<defs>
<clipPath id="clip0_1312_143">
<rect width="35" height="35" fill="white" transform="translate(18 18)"/>
</clipPath>
</defs>
</svg>
