<svg width="400" height="329" viewBox="0 0 400 329" fill="none" xmlns="http://www.w3.org/2000/svg">
<path fill-rule="evenodd" clip-rule="evenodd" d="M173.866 48.451C192.948 21.8269 213.965 7.15086 235.122 2.06878C253.909 -2.44679 272.783 0.599344 290.498 9.55165C308.16 18.4783 324.668 33.28 338.785 52.3093C374.462 100.412 394.89 175.612 379.972 251.235C376.197 270.366 370.089 284.38 362.379 294.428C335.326 338.628 282.7 321.84 245.676 308.046C200.886 291.361 174.539 295.752 109.553 320.341C104.915 322.096 100.395 323.424 95.9844 324.405C66.4929 334.05 41.7398 325.563 24.7491 308.097C16.9674 300.1 10.821 290.217 6.60063 279.334C2.38297 268.463 0.0876058 256.588 0.00235437 244.593C-0.0700635 234.173 1.52679 223.664 4.97902 213.641C11.4985 185.973 30.1538 160.54 63.9317 147.447C105.887 131.186 124.853 133.723 150.83 84.1053C158.133 70.1553 165.854 58.3356 173.866 48.451ZM108.833 118.625C176.544 78.3623 139.747 -37.0698 73.038 13.2055C28.5506 46.7332 13.0311 92.4554 24.189 117.838C33.6565 139.377 62.3394 146.268 108.833 118.625ZM370.341 277.477C373.621 270.015 376.339 261.228 378.371 250.922C393.199 175.766 372.914 101.053 337.477 53.2774C323.513 34.4496 307.198 19.8167 289.765 11.0064C272.385 2.22187 253.888 -0.770182 235.5 3.65006C220.089 7.35253 204.735 16.2627 190.154 31.3238C284.931 -52.372 406.873 101.862 375.648 257.989C374.206 265.203 372.419 271.671 370.341 277.477ZM79.4942 326.38C30.4563 327.088 -0.00497844 279.293 2.42056 231.692C1.85955 235.977 1.59738 240.29 1.62763 244.587C1.71105 256.378 3.96975 268.057 8.1159 278.747C12.2593 289.428 18.2865 299.123 25.9151 306.963C39.3243 320.746 57.702 328.794 79.4942 326.38Z" fill="white"/>
<path fill-rule="evenodd" clip-rule="evenodd" d="M136.911 310.465C140.005 287.021 143.26 262.765 143.26 262.765C142.982 261.656 142.826 260.628 142.759 259.688C163.841 264.142 202.876 268.984 240.103 255.451C240.46 257.113 240.659 259.625 239.874 262.765C239.874 262.765 242.917 285.442 245.916 308.136L245.675 308.046C207.749 293.919 183.044 294.904 136.911 310.465Z" fill="#4C466A"/>
<path fill-rule="evenodd" clip-rule="evenodd" d="M148.477 263.817C148.209 261.996 149.644 256.947 149.644 256.947L140.139 208.42C146.594 177.638 141.233 140.606 141.233 140.606C143.17 139.713 153.8 136.827 161.977 134.578C165.246 133.678 167.654 133.189 169.675 132.498H171.068C169.975 133.161 168.683 133.739 167.153 134.177C172.925 142.737 182.563 147.179 192.271 147.181C201.981 147.18 211.619 142.738 217.391 134.177C215.861 133.738 214.57 133.161 213.476 132.498H214.868C214.868 132.498 231.563 138.217 236.5 139.426C241.437 140.634 244.76 144.483 244.76 144.483C244.76 144.483 237.949 177.638 244.407 208.42L235.248 260.415C235.248 260.415 235.644 260.776 235.927 261.43C202.445 267.481 183.852 266.328 148.477 263.817Z" fill="white"/>
<path fill-rule="evenodd" clip-rule="evenodd" d="M143.049 192.312C143.602 179.721 143.232 167.801 142.686 158.705C154.018 161.42 169.922 165.213 171.245 165.434L242.478 165.409C241.391 178.941 240.89 197.907 243.846 216.477C240.845 215.07 237.842 217.603 237.842 217.603L237.846 217.569C209.692 245.385 164.865 231.738 143.049 192.312Z" fill="#E4DAE2"/>
<path fill-rule="evenodd" clip-rule="evenodd" d="M158.704 144.852C158.399 144.574 158.377 144.102 158.654 143.796C158.932 143.492 159.404 143.469 159.71 143.746C159.809 143.839 194.342 176.027 230.786 143.742C231.094 143.467 231.565 143.496 231.837 143.804C232.11 144.112 232.082 144.585 231.773 144.856C194.314 178.043 158.807 144.945 158.704 144.852Z" fill="#7385A1"/>
<path fill-rule="evenodd" clip-rule="evenodd" d="M178.488 153.663C178.488 153.663 179.776 161.927 180.895 169.944C182.015 177.963 178.699 195.717 177.565 210.148C176.695 221.193 177.03 275.089 177.234 299.773C161.187 302.368 143.139 307.949 119.95 316.462H119.591C120.583 310.617 136.619 262.717 138.529 258.883C138.529 258.883 138.401 253.004 139.196 248.525L136.754 224.555C132.384 209.029 134.213 196.863 136.714 167.554L130.782 146.067C136.419 142.023 141.236 141.818 141.236 141.818L140.349 138.296C145.453 136.868 150.433 135.769 154.805 134.888L178.488 153.663Z" fill="#675D82"/>
<path fill-rule="evenodd" clip-rule="evenodd" d="M180.25 165.432C180.464 166.906 180.682 168.43 180.894 169.944C182.014 177.964 178.698 195.717 177.563 210.148C177.34 212.988 177.197 218.662 177.109 225.939C159.533 217.26 143.953 199.942 135.96 176.178C136.198 173.475 136.451 170.61 136.713 167.557L133.672 156.544C141.987 158.541 169.488 165.141 171.245 165.435L180.25 165.432Z" fill="#4C466A"/>
<path fill-rule="evenodd" clip-rule="evenodd" d="M104.621 176.719C97.7649 192.856 92.7103 211.045 91.8394 223.336C91.7065 225.202 92.4362 226.379 92.4362 226.379C92.4362 226.379 92.3766 224.592 93.1814 224.679C110.168 226.549 109.796 244.35 135.374 249.091C135.55 249.124 136.692 221.604 138.721 192.745C140.533 166.979 140.591 148.878 135.963 143.182C130.978 145.217 123.533 150.275 118.534 162.825C116.018 169.146 110.745 173.671 104.621 176.719Z" fill="#675D82"/>
<path fill-rule="evenodd" clip-rule="evenodd" d="M139.246 184.641C139.864 174.021 140.077 164.994 139.632 157.973C134.76 156.804 131.307 155.973 131.307 155.973C132.695 166.455 135.456 176.051 139.246 184.641Z" fill="#4C466A"/>
<path fill-rule="evenodd" clip-rule="evenodd" d="M107.897 232.609C113.953 238.61 119.937 246.23 135.376 249.092C135.483 249.111 135.947 238.969 136.747 224.539C133.607 213.367 133.675 203.931 134.893 188.589H134.892C134.892 188.589 133.238 202.237 116.133 221.071C112.949 224.574 110.222 228.515 107.897 232.609Z" fill="#4C466A"/>
<path fill-rule="evenodd" clip-rule="evenodd" d="M97.7694 176.788C97.1369 195.56 96.9728 239.275 96.3595 248.437C95.3979 262.824 122.961 273.452 131.065 252.479C134.574 243.404 119.654 181.926 119.215 175.284C111.479 174.006 106.812 178.264 97.7694 176.788Z" fill="#FCD1C8"/>
<path fill-rule="evenodd" clip-rule="evenodd" d="M126.776 144.935L124.96 149.869C124.96 149.869 124.472 162.826 122.736 167.49C121.002 172.153 119.375 178.767 113.302 179.416C107.23 180.068 99.5176 179.966 94.156 176.005C88.7961 172.044 94.5428 148.296 94.5428 148.296L120.256 139.981C120.257 139.981 127.941 140.271 126.776 144.935Z" fill="#FCD1C8"/>
<path d="M123.795 100.305L123.795 100.304L91.6782 94.7457C91.6782 94.7457 91.6781 94.7457 91.6781 94.7457C90.0368 94.4622 88.4611 95.5736 88.1766 97.2141C88.1766 97.2141 88.1766 97.2142 88.1766 97.2142L75.6722 169.478C75.3886 171.12 76.5 172.695 78.1406 172.979C78.1406 172.979 78.1406 172.979 78.1406 172.979L110.259 178.537C111.899 178.821 113.476 177.709 113.76 176.068L113.76 176.068L126.264 103.804L123.795 100.305ZM123.795 100.305C125.437 100.586 126.547 102.163 126.264 103.804L123.795 100.305Z" fill="white" stroke="#FFB7C6" stroke-width="0.5"/>
<path fill-rule="evenodd" clip-rule="evenodd" d="M90.0666 105.331L121.754 110.815C122.256 110.902 122.596 111.382 122.508 111.884L112.938 167.197C112.853 167.699 112.369 168.04 111.868 167.952L80.1793 162.469C79.6778 162.384 79.3387 161.902 79.4257 161.4L88.9959 106.086C89.083 105.584 89.5652 105.244 90.0666 105.331Z" fill="#FFA1C9"/>
<path d="M113.485 111.468L99.2002 108.936L98.1908 114.63L112.475 117.162L113.485 111.468Z" fill="#FFA1C9"/>
<path fill-rule="evenodd" clip-rule="evenodd" d="M110.81 102.985L101.768 101.42C101.37 101.352 100.987 101.622 100.919 102.02H100.918C100.852 102.418 101.119 102.801 101.52 102.869L110.561 104.434C110.958 104.503 111.341 104.233 111.409 103.835C111.479 103.436 111.209 103.055 110.81 102.985Z" fill="white"/>
<path fill-rule="evenodd" clip-rule="evenodd" d="M80.5856 145.558C80.395 145.558 75.4889 146.371 74.7849 146.534C74.079 146.697 73.1853 147.916 73.6189 149.38C74.0534 150.845 75.2451 151.846 75.7877 152.28C76.3286 152.715 78.1766 153.542 78.1766 153.542L78.6386 150.867C78.6386 150.867 80.7891 149.887 81.2548 148.861C81.7223 147.834 81.5335 145.531 80.5856 145.558Z" fill="#FCD1C8"/>
<path fill-rule="evenodd" clip-rule="evenodd" d="M128.647 139.297C128.267 137.561 125.991 136.856 125.07 136.856C124.147 136.856 119.485 137.236 119.485 137.236C119.485 137.236 118.86 137.588 118.97 138.645C119.078 139.703 119.89 142.331 121.328 143.118C122.764 143.904 125.285 143.768 125.285 143.768L126.776 144.934C126.776 144.934 129.108 140.625 128.647 139.297Z" fill="#FCD1C8"/>
<path fill-rule="evenodd" clip-rule="evenodd" d="M76.0739 132.901C75.5285 133.226 74.9427 133.653 74.5962 134.144C73.8097 135.255 73.674 137.181 74.1076 138.32C74.5403 139.458 77.1428 141.411 78.2822 142.169C79.4216 142.927 80.4474 143.044 81.5355 142.006C82.6218 140.967 83.345 138.004 81.1046 136.616V136.615C81.8398 136.79 82.8958 136.004 83.2983 134.821C83.7309 133.547 83.5843 131.595 82.1799 130.402L82.3825 129.23C82.9197 129.234 83.4477 129.104 83.7309 128.721C84.2736 127.989 84.8172 125.111 83.202 124.49L83.4165 123.251C83.4165 123.251 82.1038 123.38 81.5896 123.868C81.0735 124.357 79.7443 125.603 79.6095 126.471C79.5646 126.758 79.6352 127.097 79.7745 127.431C79.1466 127.589 78.3024 127.847 77.8752 128.179C77.1428 128.749 75.9226 130.267 75.787 131.324C75.7182 131.865 75.8557 132.434 76.0739 132.901Z" fill="#FCD1C8"/>
<path fill-rule="evenodd" clip-rule="evenodd" d="M79.8269 129.22C79.6729 129.116 79.6325 128.907 79.7352 128.752C79.8388 128.599 80.0487 128.559 80.2018 128.662L82.367 130.125C82.521 130.228 82.5622 130.437 82.4587 130.591C82.3551 130.745 82.1461 130.786 81.9921 130.683L79.8269 129.22ZM77.0695 151.81C76.8962 151.875 76.7019 151.786 76.6387 151.612C76.5736 151.438 76.6616 151.245 76.8339 151.181L78.5215 150.553C78.6948 150.489 78.8882 150.577 78.9533 150.75C79.0174 150.923 78.9285 151.117 78.7553 151.182L77.0695 151.81ZM127.038 141.899C127.112 141.73 127.31 141.652 127.479 141.726C127.65 141.8 127.728 141.998 127.654 142.168C126.853 143.996 125.457 144.099 125.3 144.106C125.005 144.133 121.564 144.414 119.7 141.821C119.592 141.671 119.626 141.46 119.776 141.352C119.926 141.244 120.137 141.278 120.245 141.428C121.883 143.709 124.953 143.462 125.228 143.436C125.247 143.433 125.266 143.431 125.285 143.431C125.284 143.432 126.367 143.431 127.038 141.899Z" fill="#F8A8A0"/>
<path fill-rule="evenodd" clip-rule="evenodd" d="M73.7926 138.44C73.7266 138.267 73.8137 138.072 73.9869 138.005C74.1611 137.94 74.3545 138.026 74.4196 138.202C74.5745 138.606 75.0723 139.156 75.68 139.718C76.6159 140.578 77.7985 141.443 78.4676 141.888C78.9828 142.232 79.4641 142.432 79.9252 142.426C80.3734 142.421 80.8254 142.218 81.3029 141.763C81.4349 141.637 81.5605 141.477 81.6751 141.292C81.9969 140.772 82.226 140.068 82.2334 139.347C82.2425 138.643 82.0372 137.924 81.4973 137.359L81.4835 137.343C81.3286 137.184 81.1434 137.035 80.928 136.902C80.7694 136.804 80.7208 136.596 80.818 136.44C80.9152 136.283 81.1233 136.232 81.28 136.331C81.5422 136.493 81.7695 136.677 81.963 136.878L81.984 136.898C82.6578 137.604 82.9145 138.489 82.9044 139.354C82.8943 140.204 82.6266 141.034 82.2462 141.645C82.1014 141.881 81.9382 142.087 81.765 142.252C81.1563 142.835 80.5513 143.094 79.9298 143.099C79.3211 143.105 78.7179 142.866 78.0964 142.451C77.407 141.992 76.1888 141.101 75.2263 140.214C74.5488 139.587 73.9887 138.953 73.7926 138.44Z" fill="#F8A8A0"/>
<path fill-rule="evenodd" clip-rule="evenodd" d="M75.7022 133.316C75.5427 133.224 75.4868 133.017 75.5812 132.857C75.6738 132.697 75.8782 132.642 76.0395 132.733C76.2586 132.862 76.9791 133.382 77.8197 133.992C79.0994 134.918 80.6688 136.055 81.085 136.254C81.1033 136.264 81.1207 136.27 81.1354 136.276V136.275C81.3645 136.353 81.668 136.27 81.9686 136.07C82.3078 135.847 82.6314 135.483 82.8496 135.029L82.8569 135.014C82.9009 134.921 82.9412 134.821 82.977 134.713C83.1951 134.075 83.2529 133.247 83.0512 132.446C82.8844 131.788 82.5406 131.15 81.9613 130.659C81.8192 130.539 81.8027 130.326 81.9219 130.184C82.041 130.043 82.2546 130.026 82.3958 130.146C83.0925 130.736 83.5059 131.498 83.7039 132.283C83.9386 133.213 83.8707 134.18 83.6141 134.929C83.5728 135.055 83.5206 135.179 83.4619 135.302L83.4546 135.32C83.1823 135.886 82.7726 136.345 82.339 136.631C81.8678 136.943 81.3535 137.06 80.919 136.912C80.8732 136.895 80.8292 136.878 80.7916 136.859C80.3204 136.632 78.7254 135.478 77.4246 134.537C76.596 133.937 75.8864 133.423 75.7022 133.316Z" fill="#F8A8A0"/>
<path fill-rule="evenodd" clip-rule="evenodd" d="M99.7368 169.882L90.3261 168.253C88.2654 167.898 88.1297 170.802 89.8329 171.097L99.2436 172.724C101.305 173.079 101.44 170.176 99.7368 169.882Z" fill="white"/>
<path fill-rule="evenodd" clip-rule="evenodd" d="M204.831 155.902C204.831 155.902 204.823 240.69 203.793 248.719C203.261 252.865 203.072 267.874 206.42 298.473C218.864 299.521 231.323 302.7 245.676 308.046C250.929 310.004 256.5 312.023 262.266 313.916L243.729 257.57C243.729 257.57 246.226 252.719 245.432 248.239L252.452 214.43L258.913 148.006L227.725 135.035L204.831 155.902Z" fill="#675D82"/>
<path fill-rule="evenodd" clip-rule="evenodd" d="M204.82 165.423C204.793 181.098 204.7 212.558 204.365 232.19C216.423 231.822 228.129 227.169 237.846 217.57L237.842 217.603C237.842 217.603 242.712 213.495 246.244 218.647L245.393 208.505C249.038 203.205 252.233 196.963 254.853 189.73L257.219 165.406L204.82 165.423Z" fill="#4C466A"/>
<path fill-rule="evenodd" clip-rule="evenodd" d="M297.68 212.928C298.916 215.595 300.069 218.094 301.104 220.338C301.421 221.021 301.707 221.697 301.98 222.371L289.09 226.736C289.09 226.736 288.469 216.906 289.463 216.285C289.823 216.06 293.333 214.647 297.68 212.928Z" fill="#F8A8A0"/>
<path fill-rule="evenodd" clip-rule="evenodd" d="M258.913 148.007C258.913 148.007 274.182 151.4 282.412 169.334C288.228 182.012 309.622 230.834 309.951 232.677C310.884 237.932 279.129 220.817 259.794 234.673C259.649 234.777 259.332 234.977 259.3 234.806C252.944 200.893 255.436 146.669 258.913 148.007Z" fill="#675D82"/>
<path fill-rule="evenodd" clip-rule="evenodd" d="M247.636 159.142C248.789 160.585 301.493 225.592 301.493 225.592C301.493 225.592 305.347 238.84 300.17 247.029C294.992 255.218 280.643 253.497 273.788 246.107C267.239 239.05 240.256 183.475 232.363 172.682C232.192 172.451 232.159 172.294 232.159 172.294L247.636 159.142Z" fill="#FCD1C8"/>
<path fill-rule="evenodd" clip-rule="evenodd" d="M142.008 126.527C142.588 126.062 142.974 125.496 143.191 124.987C147.681 114.477 145.542 96.8066 152.008 80.3723C154.588 57.6111 158.149 44.7464 169.987 34.9462C181.826 25.145 210.523 22.3913 222.919 38.4617C234.384 53.3275 248.797 86.0246 241.639 112.791C241.639 112.791 244.787 119.748 242.49 132.655C242.49 132.655 254.726 141.079 258.976 144.604C267.057 151.307 258.701 189.174 225.839 215.301C169.059 260.442 99.7761 137.589 142.008 126.527Z" fill="#FFB7C6"/>
<path fill-rule="evenodd" clip-rule="evenodd" d="M215.157 57.3522C207.72 48.7721 198.859 42.4433 190.361 42.7623C169.241 49.4156 159.765 99.2574 167.583 109.049C175.403 118.838 189.049 127.198 193.523 128.861C197.997 130.523 204.316 129.776 204.316 129.776C204.316 129.776 210.528 128.353 214.241 125.27C216.811 123.136 222.533 116.489 227.251 108.655C232.248 98.766 228.802 87.2232 225.617 77.1159C222.081 65.8993 215.414 57.6666 215.157 57.3522Z" fill="#FCD1C8"/>
<path fill-rule="evenodd" clip-rule="evenodd" d="M168.039 75.0358C179.377 48.1119 199.057 49.9508 199.057 49.9508L185.667 45.0484C177.452 50.5219 171.432 62.6634 168.039 75.0358Z" fill="#F8A8A0"/>
<path fill-rule="evenodd" clip-rule="evenodd" d="M171.308 65.2979C187.542 41.0782 207.021 51.3212 215.148 57.3402C207.715 48.7664 198.857 42.4422 190.363 42.7622C182.131 45.3564 175.667 54.5104 171.308 65.2979Z" fill="white"/>
<path fill-rule="evenodd" clip-rule="evenodd" d="M227.911 107.233C227.911 107.233 219.519 124.761 214.503 133.466C209.488 142.173 195.768 144.335 186.31 137.099C178.325 130.991 167.675 115.4 165.666 104.63C166.113 106.493 166.75 108 167.586 109.049C175.406 118.837 189.051 127.198 193.526 128.86C198 130.522 204.319 129.776 204.319 129.776C204.319 129.776 210.932 128.018 214.244 125.269C217.556 122.52 222.95 116.398 227.911 107.233Z" fill="#85666D"/>
<path d="M197.948 203.76C187.773 203.76 178.405 198.186 170.772 187.564C161.666 174.894 155.585 156.008 152.695 131.427C152.694 131.425 152.694 131.423 152.694 131.423C150.351 126.888 148.231 121.989 146.374 116.756C146.299 116.543 146.41 116.31 146.623 116.235C146.834 116.163 147.068 116.272 147.143 116.484C158.638 148.885 180.237 168.384 202.213 166.2C222.615 164.155 238.033 143.569 242.451 112.479C242.481 112.255 242.695 112.093 242.912 112.132C243.134 112.163 243.29 112.37 243.259 112.593C238.787 144.076 223.089 164.926 202.294 167.011C184.046 168.824 166.075 156.027 153.763 133.434C160.437 185.982 181.569 203.806 199.347 202.909C220.454 201.828 242.667 175.158 243.299 132.395C243.303 132.172 243.485 131.993 243.707 131.993H243.714C243.939 131.996 244.119 132.182 244.115 132.406C243.475 175.648 220.871 202.624 199.389 203.724C198.906 203.747 198.427 203.76 197.948 203.76ZM162.07 106.046C161.947 106.046 161.827 105.991 161.745 105.887C154.212 96.0672 152.827 80.3085 152.814 80.1509C152.795 79.9263 152.962 79.7292 153.188 79.7099C153.401 79.7136 153.609 79.8584 153.629 80.083C153.642 80.2379 155.007 95.7629 162.394 105.389C162.532 105.568 162.498 105.824 162.319 105.962C162.245 106.018 162.157 106.046 162.07 106.046Z" fill="#85666D"/>
<path d="M164.937 94.1055C164.937 94.1055 164.923 94.1055 164.917 94.1046C164.691 94.0945 164.519 93.9029 164.53 93.6774C165.385 75.9845 174.148 47.4427 190.24 42.3726C190.451 42.3011 190.683 42.4248 190.751 42.6393C190.819 42.8538 190.699 43.0839 190.485 43.1518C175.447 47.8892 166.221 75.5619 165.344 93.7177C165.335 93.9359 165.155 94.1055 164.937 94.1055Z" fill="white"/>
<path d="M214.243 125.678C214.125 125.678 214.01 125.627 213.928 125.53C213.784 125.357 213.808 125.099 213.981 124.955C216.454 122.902 222.098 116.422 226.905 108.443C231.93 98.4943 228.215 86.7086 225.23 77.2365C221.715 66.0924 215.121 57.9504 214.841 57.6094C214.699 57.4353 214.725 57.1777 214.899 57.0347C215.074 56.8926 215.332 56.9192 215.474 57.0924C215.758 57.4389 222.448 65.7001 226.008 76.9917C229.038 86.6041 232.808 98.5667 227.62 108.838C222.749 116.924 217.02 123.494 214.505 125.583C214.428 125.646 214.335 125.678 214.243 125.678Z" fill="#85666D"/>
<path fill-rule="evenodd" clip-rule="evenodd" d="M212.804 140.351L211.092 137.986C211.092 137.986 208.406 138.066 206.961 137.437C205.519 136.806 182.061 126.713 182.061 126.713C182.061 126.713 181.222 126.432 180.942 127.503C180.663 128.573 180.909 133.251 185.76 136.091C190.611 138.932 202.394 145.256 202.394 145.256L212.804 140.351Z" fill="#FCD1C8"/>
<path fill-rule="evenodd" clip-rule="evenodd" d="M210.064 162.644L202.248 167.051C202.248 167.051 199.601 167.879 199.696 170.33C199.79 172.781 201.675 175.442 205.333 174.788C208.991 174.135 211.879 172.408 211.879 172.408L218.494 171.399C218.494 171.399 223.705 173.619 229.051 173.027C234.396 172.435 239.06 169.947 240.22 171.329C240.22 171.329 241.436 169.347 241.457 168.921C241.476 168.499 235.005 162.096 234.552 161.542C234.101 160.988 223.995 155.553 223.571 155.533C223.144 155.515 210.064 162.644 210.064 162.644Z" fill="#F8A8A0"/>
<path fill-rule="evenodd" clip-rule="evenodd" d="M253.985 174.129L257.626 166.379C257.626 166.379 255.595 163.592 254.029 162.591C252.464 161.588 230.234 143.569 230.234 143.569C230.234 143.569 228.2 142.442 226.319 142.855C226.319 142.855 222.489 140.635 221.691 140.253C220.891 139.873 219.154 140.122 219.154 140.122C219.154 140.122 215.286 137.958 214.004 137.784C212.722 137.611 210.146 137.779 206.082 139.962C202.019 142.147 194.056 146.658 194.056 146.658C194.056 146.658 191.699 148.344 191.919 151.655C192.138 154.967 193.309 165.168 193.309 165.168C193.309 165.168 194.003 166.764 195.084 167.305C196.166 167.846 203.309 171.853 203.309 171.853C203.309 171.853 205.013 171.841 205.525 170.756C206.036 169.671 205.506 165.953 201.073 162.801L199.591 154.457L205.892 150.997L201.857 155.676C201.857 155.676 200.434 158.097 202.019 160.316C203.602 162.536 208.519 168.645 208.519 168.645C208.519 168.645 211.109 170.358 213.504 169.284C213.504 169.284 215.092 170.107 215.817 170.145C216.541 170.182 221.32 170.344 222.307 170.234C223.294 170.126 224.148 166.96 221.186 165.039L220.738 162.063L222.954 159.629C222.954 159.629 229.075 166.473 232.541 167.793C232.541 167.793 237.875 171.423 241.864 179.952C241.863 179.95 247.657 180.898 253.985 174.129Z" fill="#FCD1C8"/>
<path fill-rule="evenodd" clip-rule="evenodd" d="M242.354 187.232C242.595 187.789 242.747 188.131 242.747 188.131C236.425 198.548 239.61 207.939 244.788 216.341C249.535 224.044 253.265 228.089 256.116 232.972C262.508 243.905 261.884 253.922 269.386 263.978C288.848 290.069 326.813 256.094 307.058 227.63C303.296 222.211 298.52 216.789 295.122 210.404C290.876 202.422 288.697 182.902 279.575 176.675C274.443 173.174 267.124 172.77 267.124 172.77C267.124 172.77 266.695 172.221 266.056 171.407C261.766 182.499 248.495 186.128 242.354 187.232Z" fill="#675D82"/>
<path fill-rule="evenodd" clip-rule="evenodd" d="M256.348 164.783C256.348 164.783 251.632 175.358 240.52 177.335L239.851 176.19C239.851 176.19 238.79 177.489 238.946 178.64C239.104 179.791 242.747 188.131 242.747 188.131C242.747 188.131 258.256 191.232 267.124 172.769C267.124 172.769 261.708 165.84 260.617 164.626C259.526 163.411 257.965 162.263 255.196 163.549L256.348 164.783Z" fill="#F0F0F0"/>
<path fill-rule="evenodd" clip-rule="evenodd" d="M124.429 189.626C124.569 190.273 124.656 190.682 124.656 190.682C138.162 193.254 129.95 218.238 131.006 227.964C131.346 231.085 135.669 244.205 135.376 249.091C135.132 253.159 134.268 257.245 132.12 260.35C127.394 267.193 107.486 273.661 95.1686 260.102C82.8521 246.542 87.4217 235.382 89.1552 222.7C90.8886 210.017 88.2843 203.043 88.6574 198.69C89.0305 194.335 94.9202 192.051 94.9202 192.051L94.9413 191.107C103.379 193.128 114.324 194.037 124.429 189.626Z" fill="#675D82"/>
<path fill-rule="evenodd" clip-rule="evenodd" d="M97.5939 183.126C97.5939 183.126 109.276 187.358 120.604 183.25L119.963 179.963C119.963 179.963 121.731 180.108 122.602 182.535C123.473 184.961 124.656 190.684 124.656 190.684C107.922 201.67 94.9209 192.051 94.9209 192.051C94.9209 192.051 95.0767 184.678 95.2628 183.28C95.4498 181.881 97.6315 181.568 97.6315 181.568L97.5939 183.126Z" fill="#F0F0F0"/>
<path d="M213.504 169.691C213.323 169.691 213.157 169.57 213.109 169.388L210.814 160.698C210.796 160.655 210.056 158.653 211.631 156.406C213.089 154.326 218.704 147.158 218.76 147.085C218.902 146.908 219.158 146.88 219.334 147.015C219.512 147.155 219.543 147.412 219.404 147.588C219.346 147.661 213.746 154.811 212.298 156.873C210.972 158.768 211.584 160.429 211.591 160.446L213.899 169.177C213.957 169.395 213.826 169.619 213.609 169.678C213.573 169.687 213.538 169.691 213.504 169.691ZM222.953 160.036C222.871 160.036 222.79 160.013 222.72 159.963C222.534 159.833 222.489 159.58 222.617 159.394L225.173 155.725C225.182 155.711 225.191 155.698 225.202 155.685L226.834 153.34C226.965 153.153 227.219 153.111 227.402 153.237C227.588 153.366 227.633 153.62 227.504 153.805L226.383 155.414L230.896 154.83C231.126 154.806 231.326 154.959 231.354 155.182C231.383 155.407 231.225 155.611 231.002 155.641L225.753 156.319L223.287 159.86C223.209 159.975 223.081 160.036 222.953 160.036ZM205.893 151.405C205.807 151.405 205.722 151.378 205.648 151.323C205.468 151.188 205.431 150.932 205.566 150.751L210.648 143.976C210.783 143.795 211.039 143.76 211.22 143.895C211.399 144.03 211.437 144.286 211.301 144.467L206.219 151.242C206.14 151.349 206.016 151.405 205.893 151.405ZM199.245 144.146C199.102 144.146 198.963 144.07 198.888 143.936C198.777 143.739 198.849 143.491 199.046 143.381C201.391 142.068 204.044 140.595 205.889 139.602C210.196 137.291 212.858 137.22 214.06 137.379C214.283 137.41 214.44 137.616 214.41 137.84C214.38 138.062 214.186 138.215 213.95 138.19C212.847 138.036 210.377 138.117 206.277 140.323C204.433 141.314 201.786 142.784 199.444 144.094C199.381 144.129 199.312 144.146 199.245 144.146Z" fill="#F8A8A0"/>
<path d="M131.007 228.373C130.8 228.373 130.624 228.217 130.601 228.009C130.298 225.216 130.749 221.162 131.227 216.871C132.417 206.172 133.9 192.859 124.58 191.083C124.358 191.042 124.213 190.828 124.255 190.606C124.298 190.384 124.508 190.24 124.733 190.282C134.794 192.198 133.266 205.927 132.038 216.961C131.565 221.207 131.12 225.216 131.414 227.921C131.438 228.143 131.275 228.346 131.052 228.37C131.035 228.372 131.02 228.373 131.007 228.373ZM250.365 225.025C250.239 225.025 250.115 224.967 250.035 224.855C248.442 222.655 246.529 219.947 244.44 216.554C239.885 209.162 235.537 199.226 242.397 187.919C242.515 187.727 242.766 187.665 242.957 187.783C243.151 187.9 243.211 188.15 243.095 188.343C236.463 199.271 240.7 208.931 245.134 216.128C247.21 219.496 249.109 222.188 250.695 224.377C250.827 224.559 250.787 224.815 250.603 224.947C250.533 224.999 250.449 225.025 250.365 225.025ZM136.753 224.966C136.575 224.966 136.411 224.848 136.36 224.668C133.165 213.309 133.228 203.991 134.577 187.403C134.596 187.179 134.757 187.022 135.017 187.028C135.242 187.048 135.41 187.245 135.391 187.468C134.049 203.956 133.984 213.209 137.145 224.447C137.207 224.665 137.08 224.889 136.862 224.951C136.827 224.962 136.789 224.966 136.753 224.966ZM295.122 210.812C294.976 210.812 294.835 210.734 294.762 210.595C293.895 208.969 293.112 206.858 292.344 204.504C292.337 204.485 292.331 204.466 292.327 204.445C291.819 202.885 291.321 201.22 290.811 199.516C288.22 190.868 285.284 181.066 279.343 177.012C274.364 173.614 267.172 173.181 267.101 173.176C266.875 173.165 266.703 172.972 266.716 172.747C266.729 172.525 266.891 172.327 267.146 172.362C267.449 172.379 274.639 172.811 279.805 176.336C285.983 180.556 288.964 190.503 291.593 199.281C292.089 200.939 292.575 202.559 293.066 204.077L294.858 205.158C295.051 205.275 295.113 205.525 294.996 205.718C294.881 205.911 294.627 205.971 294.437 205.856L293.46 205.267C294.105 207.17 294.768 208.867 295.481 210.21C295.587 210.41 295.512 210.656 295.312 210.763C295.252 210.797 295.187 210.812 295.122 210.812Z" fill="#4C466A"/>
<path d="M227.475 272.7C227.321 272.7 227.173 272.612 227.105 272.461C227.01 272.257 227.099 272.016 227.306 271.92C239.797 266.181 243.314 257.508 243.347 257.423C243.431 257.213 243.669 257.109 243.876 257.191C244.086 257.273 244.191 257.511 244.108 257.719C243.964 258.087 240.435 266.789 227.646 272.664C227.59 272.688 227.532 272.7 227.475 272.7ZM151.452 265.877C151.433 265.877 151.413 265.875 151.394 265.872C140.403 264.301 138.235 259.253 138.149 259.038C138.065 258.829 138.165 258.594 138.372 258.508C138.582 258.426 138.818 258.523 138.905 258.73C138.925 258.779 141.037 263.567 151.51 265.064C151.733 265.095 151.889 265.303 151.856 265.526C151.827 265.728 151.652 265.877 151.452 265.877Z" fill="#4C466A"/>
<path fill-rule="evenodd" clip-rule="evenodd" d="M240.163 264.923C243.346 263.73 245.201 264.36 246.234 265.186L243.728 257.571C243.728 257.571 242.755 260.053 239.941 263.261C238.771 264.593 237.284 266.052 235.416 267.509C237.257 266.244 238.827 265.424 240.163 264.923Z" fill="#4C466A"/>
<path d="M95.1684 260.511C95.0566 260.511 94.9466 260.465 94.8659 260.377C84.2874 248.73 86.0108 238.816 87.8359 228.32C88.1567 226.474 88.4876 224.564 88.7507 222.645C89.8801 214.383 89.1568 208.553 88.6279 204.296C88.3428 202.006 88.1182 200.197 88.2502 198.656C88.6416 194.098 94.5222 191.767 94.7733 191.672C94.9805 191.589 95.217 191.693 95.3004 191.904C95.3829 192.113 95.2784 192.35 95.0676 192.432C95.0108 192.454 89.4107 194.677 89.0642 198.725C88.9396 200.182 89.1587 201.953 89.4382 204.196C89.9727 208.497 90.7033 214.388 89.5611 222.756C89.2952 224.69 88.9625 226.605 88.6407 228.461C86.8514 238.754 85.1619 248.476 95.4718 259.829C95.6231 259.996 95.6103 260.254 95.4434 260.405C95.3637 260.476 95.2665 260.511 95.1684 260.511ZM203.311 172.261C203.244 172.261 203.176 172.243 203.112 172.208C203.041 172.169 195.964 168.2 194.904 167.669C193.703 167.071 192.968 165.401 192.937 165.331C192.922 165.293 192.911 165.254 192.906 165.213C192.895 165.113 191.732 154.965 191.514 151.681C191.282 148.184 193.716 146.4 193.821 146.326C193.857 146.303 196.322 144.906 199.21 143.29C199.407 143.181 199.654 143.251 199.765 143.448C199.875 143.645 199.805 143.893 199.608 144.003C196.723 145.618 194.259 147.014 194.259 147.014C194.207 147.054 192.127 148.598 192.328 151.627C192.536 154.755 193.61 164.182 193.709 165.056C193.835 165.321 194.436 166.523 195.268 166.94C196.346 167.479 203.22 171.333 203.51 171.497C203.707 171.608 203.777 171.857 203.666 172.052C203.593 172.186 203.454 172.261 203.311 172.261ZM208.519 169.053C208.4 169.053 208.282 168.999 208.201 168.9C208.152 168.839 203.257 162.756 201.687 160.553C199.968 158.146 201.441 155.576 201.504 155.468L205.584 150.731C205.732 150.561 205.987 150.542 206.159 150.689C206.331 150.836 206.349 151.093 206.202 151.264L202.166 155.943C202.158 155.972 200.946 158.11 202.351 160.079C203.909 162.264 208.788 168.328 208.838 168.389C208.978 168.565 208.952 168.822 208.776 168.964C208.7 169.022 208.61 169.053 208.519 169.053ZM257.626 166.787C257.5 166.787 257.377 166.73 257.296 166.62C257.277 166.592 255.292 163.882 253.811 162.934C252.244 161.931 230.895 144.628 229.979 143.885C229.966 143.885 228.098 142.889 226.408 143.253C226.309 143.275 226.204 143.259 226.116 143.209C226.078 143.187 222.29 140.992 221.515 140.621C220.957 140.356 219.663 140.463 219.215 140.525C219.119 140.54 219.035 140.521 218.957 140.479C217.9 139.886 214.939 138.322 213.95 138.19C213.416 138.116 212.502 138.092 211.182 138.386C211.09 138.409 210.994 138.4 210.814 138.399C209.999 138.399 208.012 138.341 206.798 137.813C205.373 137.19 182.134 127.19 181.9 127.089C181.692 127 181.597 126.76 181.687 126.553C181.775 126.344 182.018 126.25 182.222 126.34C182.457 126.44 205.698 136.442 207.125 137.064C208.469 137.649 211.053 137.578 211.079 137.579C212.44 137.27 213.456 137.299 214.06 137.38C215.295 137.548 218.493 139.29 219.237 139.701C219.701 139.644 221.092 139.517 221.867 139.885C222.595 140.234 225.697 142.024 226.391 142.426C228.348 142.074 230.346 143.165 230.433 143.213C230.714 143.432 252.72 161.268 254.249 162.247C255.862 163.278 257.87 166.024 257.955 166.139C258.087 166.322 258.048 166.577 257.866 166.709C257.793 166.762 257.709 166.787 257.626 166.787ZM131.018 155.16C130.825 155.16 130.652 155.024 130.617 154.827C127.767 139.334 132.29 128.796 143.032 125.901C143.465 125.536 143.818 125.066 144.029 124.572C146.063 119.813 146.711 113.665 147.461 106.545C148.33 98.3021 149.314 88.9602 152.823 80.018C155.369 57.5868 158.876 44.3664 170.943 34.3755C178.101 28.4501 190.68 25.3389 202.224 26.6222C208.958 27.373 218.282 29.9498 224.457 37.9561C224.596 38.1348 224.562 38.3915 224.385 38.529C224.208 38.6665 223.95 38.6344 223.812 38.4557C217.809 30.6749 208.71 28.1668 202.135 27.4335C190.782 26.1721 178.462 29.2118 171.463 35.0062C159.602 44.8248 156.152 57.9177 153.629 80.1628C153.624 80.1977 153.615 80.2325 153.603 80.2664C150.119 89.1206 149.138 98.4231 148.274 106.63C147.516 113.815 146.863 120.021 144.782 124.892C144.507 125.534 144.045 126.136 143.478 126.59C143.434 126.627 143.383 126.652 143.327 126.666C129.175 130.419 129.791 145.827 131.42 154.678C131.461 154.9 131.314 155.113 131.093 155.154C131.067 155.158 131.042 155.16 131.018 155.16Z" fill="white"/>
<path fill-rule="evenodd" clip-rule="evenodd" d="M286.662 85.6727C281.582 85.6727 276.626 85.6727 271.598 85.6727C271.598 90.709 271.598 95.6646 271.598 100.742C276.706 100.742 281.7 100.742 286.662 100.742C286.662 95.6398 286.662 90.6466 286.662 85.6727ZM284.548 98.5915C280.938 98.5915 277.393 98.5915 273.771 98.5915C273.771 95.0146 273.771 91.5047 273.771 87.8773C277.312 87.8773 280.861 87.8773 284.548 87.8773C284.548 91.4845 284.548 94.9935 284.548 98.5915Z" fill="#8B8B8B"/>
<path fill-rule="evenodd" clip-rule="evenodd" d="M302.094 85.7195C302.094 90.7667 302.094 95.6866 302.094 100.749C307.228 100.749 312.222 100.749 317.208 100.749C317.208 95.6554 317.208 90.6622 317.208 85.7195C312.098 85.7195 307.104 85.7195 302.094 85.7195ZM315.057 98.6007C311.493 98.6007 307.984 98.6007 304.352 98.6007C304.352 95.0706 304.352 91.5248 304.352 87.8224C307.946 87.8224 311.456 87.8224 315.057 87.8224C315.057 91.4286 315.057 94.9743 315.057 98.6007Z" fill="#8B8B8B"/>
<path fill-rule="evenodd" clip-rule="evenodd" d="M271.61 131.317C276.649 131.317 281.605 131.317 286.672 131.317C286.672 126.199 286.672 121.204 286.672 116.255C281.566 116.255 276.573 116.255 271.61 116.255C271.61 121.335 271.61 126.293 271.61 131.317ZM273.809 118.397C277.352 118.397 280.896 118.397 284.528 118.397C284.528 121.946 284.528 125.454 284.528 129.145C280.939 129.145 277.43 129.145 273.809 129.145C273.809 125.59 273.809 122.043 273.809 118.397Z" fill="#8B8B8B"/>
<path fill-rule="evenodd" clip-rule="evenodd" d="M291.237 96.4364C292.013 96.4364 292.743 96.4364 293.458 96.4364C293.458 97.8077 293.458 99.2286 293.458 100.754C294.081 100.754 294.715 100.754 295.434 100.754C295.434 99.3249 295.434 97.9278 295.434 96.4364C295.434 95.1228 295.434 93.6799 295.434 92.2316C295.434 90.6925 295.434 89.1671 295.434 87.7499C296.205 87.7499 296.987 87.7499 297.786 87.7499C297.786 87.0596 297.786 86.4271 297.786 85.691C295.056 85.691 292.252 85.691 289.079 85.691C289.079 86.3841 289.079 87.0661 289.079 87.7499C289.761 87.7499 290.442 87.7499 291.127 87.7499C291.127 87.7655 291.127 87.7811 291.127 87.7976C291.142 87.7976 291.158 87.7976 291.175 87.7976C291.175 87.7811 291.175 87.7655 291.175 87.7499C291.906 87.7499 292.641 87.7499 293.385 87.7499C293.385 89.7932 293.385 92.3168 293.385 94.3839C291.792 94.3839 290.425 94.3839 289.079 94.3839C289.079 96.6115 289.079 98.6667 289.079 100.747C289.799 100.747 290.435 100.747 291.237 100.747C291.237 99.2799 291.237 97.9122 291.237 96.4364Z" fill="#8B8B8B"/>
<path fill-rule="evenodd" clip-rule="evenodd" d="M297.785 100.78C298.464 100.78 299.067 100.78 299.773 100.78C299.773 96.5078 299.773 92.2397 299.773 87.8424C299.069 87.8424 298.464 87.8424 297.785 87.8424C297.785 92.1774 297.785 96.4455 297.785 100.78Z" fill="#8B8B8B"/>
<path fill-rule="evenodd" clip-rule="evenodd" d="M295.49 120.725C295.49 119.894 295.49 119.24 295.49 118.587C294.84 118.587 294.183 118.587 293.354 118.587C293.354 119.249 293.354 119.857 293.354 120.459C293.34 120.459 293.324 120.459 293.31 120.459C293.31 120.475 293.31 120.493 293.31 120.508C293.324 120.508 293.34 120.508 293.354 120.508C293.354 120.581 293.354 120.652 293.354 120.725C294.044 120.725 294.733 120.725 295.49 120.725Z" fill="#8B8B8B"/>
<path fill-rule="evenodd" clip-rule="evenodd" d="M297.665 118.389H299.798V116.254H297.665C297.013 116.254 296.357 116.254 295.528 116.254C295.528 117.011 295.528 117.701 295.528 118.389C296.217 118.389 296.907 118.389 297.665 118.389Z" fill="#8B8B8B"/>
<path fill-rule="evenodd" clip-rule="evenodd" d="M293.31 127.321V120.844H288.992V127.269C288.977 127.269 288.962 127.268 288.947 127.268C288.947 127.283 288.947 127.298 288.947 127.313C288.962 127.313 288.977 127.313 288.992 127.313V127.321H293.31Z" fill="#8B8B8B"/>
<path d="M275.881 107.476H271.586V109.596H275.881V107.476Z" fill="#8B8B8B"/>
<path fill-rule="evenodd" clip-rule="evenodd" d="M271.61 113.859C272.219 113.859 277.243 113.859 278.048 113.859C278.048 113.168 278.048 112.484 278.048 111.803C277.4 111.803 272.362 111.803 271.61 111.803C271.61 112.487 271.61 113.119 271.61 113.859Z" fill="#8B8B8B"/>
<path fill-rule="evenodd" clip-rule="evenodd" d="M306.426 105.214H297.778V103.125H282.295V103.144H271.585V105.263H280.248V107.406H278.048V109.526H280.248V111.74V111.787V113.86H284.725V111.787H286.817V109.526H284.725V111.74H282.339V109.526V107.406V105.263H283.199V105.245H284.725V107.405H286.817V105.245H288.946V111.787H291.037V111.74C291.037 111.047 291.037 110.41 291.037 109.604V105.245H293.176V107.437H306.424V107.455H308.545V107.437V105.215V103.159H306.424V105.214H306.426Z" fill="#8B8B8B"/>
<path fill-rule="evenodd" clip-rule="evenodd" d="M317.141 109.62C317.141 109.11 317.141 106.915 317.141 105.214C317.141 104.227 317.141 103.406 317.141 103.181V103.159H312.879H310.777H310.759V105.175C310.759 105.175 310.753 105.175 310.75 105.175C310.75 105.183 310.75 105.192 310.75 105.192C310.753 105.198 310.755 105.198 310.755 105.198L310.759 107.371C310.759 107.371 310.755 107.371 310.751 107.371C310.751 107.387 310.751 107.403 310.751 107.419C310.755 107.419 310.756 107.419 310.756 107.419L310.759 107.455H312.879V105.215H315.083C315.083 106.959 315.083 109.205 315.083 109.622C315.767 109.62 316.451 109.62 317.141 109.62Z" fill="#8B8B8B"/>
<path fill-rule="evenodd" clip-rule="evenodd" d="M315.142 113.868H315.04V114.707V115.389V116.297V118.39V120.575V122.696V124.909V127.029V129.189V129.233C313.307 129.233 311.109 129.233 310.697 129.233C310.697 129.917 310.697 130.6 310.697 131.291C311.506 131.291 316.526 131.291 317.136 131.291C317.136 125.483 317.161 119.677 317.161 113.869H316.15H315.142V113.868Z" fill="#8B8B8B"/>
<path fill-rule="evenodd" clip-rule="evenodd" d="M293.409 109.561V111.96H291.146V114.052H293.409V116.254H295.528V114.052H297.792V111.96H295.528V109.561H293.409Z" fill="#8B8B8B"/>
<path fill-rule="evenodd" clip-rule="evenodd" d="M304.019 129.189H301.929H299.799V120.598H297.707V120.646C297.707 121.341 297.707 124.023 297.707 124.831V129.189H290.969V131.308H306.45V130.753V129.292V129.189H306.405H304.019Z" fill="#8B8B8B"/>
<path fill-rule="evenodd" clip-rule="evenodd" d="M303.859 113.868V111.838C303.207 111.838 302.551 111.838 301.723 111.838C301.071 111.838 300.415 111.838 299.587 111.838V113.868H299.799H303.859Z" fill="#8B8B8B"/>
<path fill-rule="evenodd" clip-rule="evenodd" d="M291.084 116.451C290.328 116.451 289.638 116.451 288.948 116.451C288.948 117.14 288.948 117.831 288.948 118.588C289.777 118.588 290.431 118.588 291.084 118.588C291.084 117.934 291.084 117.281 291.084 116.451Z" fill="#8B8B8B"/>
<path fill-rule="evenodd" clip-rule="evenodd" d="M282.296 90.038C280.122 90.038 278.074 90.038 275.956 90.038C275.956 92.1683 275.956 94.2171 275.956 96.3777C278.17 96.3777 280.253 96.3777 282.296 96.3777C282.296 94.1777 282.296 92.0922 282.296 90.038Z" fill="#4A4B4B"/>
<path fill-rule="evenodd" clip-rule="evenodd" d="M312.881 90.058C310.689 90.058 308.605 90.058 306.543 90.058C306.543 92.2516 306.543 94.3371 306.543 96.4115C308.709 96.4115 310.76 96.4115 312.881 96.4115C312.881 94.2867 312.881 92.2379 312.881 90.058Z" fill="#4A4B4B"/>
<path fill-rule="evenodd" clip-rule="evenodd" d="M275.962 126.918C278.161 126.918 280.246 126.918 282.299 126.918C282.299 124.723 282.299 122.638 282.299 120.572C280.131 120.572 278.081 120.572 275.962 120.572C275.962 122.698 275.962 124.746 275.962 126.918Z" fill="#4A4B4B"/>
<path d="M308.678 120.675C308.517 120.675 308.357 120.628 308.215 120.53L306.731 119.506C306.009 119.01 305.525 118.261 305.367 117.393C305.206 116.529 305.393 115.655 305.889 114.933C306.919 113.442 308.972 113.062 310.462 114.092L311.947 115.116C312.318 115.371 312.412 115.88 312.156 116.251C311.902 116.621 311.393 116.717 311.021 116.459L309.537 115.436C308.785 114.919 307.753 115.109 307.233 115.86C306.985 116.222 306.892 116.662 306.972 117.098C307.051 117.535 307.295 117.913 307.657 118.162L309.142 119.187C309.513 119.442 309.607 119.95 309.35 120.321C309.193 120.551 308.937 120.675 308.678 120.675Z" fill="#4A4B4B"/>
<path d="M308.757 126.204C308.114 126.204 307.464 126.016 306.895 125.624L305.41 124.601C305.04 124.345 304.946 123.837 305.202 123.466C305.456 123.095 305.965 123 306.337 123.258L307.822 124.282C308.569 124.798 309.603 124.61 310.125 123.857C310.373 123.495 310.467 123.055 310.387 122.619C310.306 122.181 310.063 121.804 309.7 121.555L308.215 120.531C307.845 120.276 307.752 119.767 308.007 119.396C308.261 119.025 308.77 118.932 309.142 119.188L310.626 120.212C311.348 120.707 311.833 121.457 311.991 122.324C312.151 123.189 311.964 124.062 311.467 124.784C310.832 125.706 309.802 126.204 308.757 126.204Z" fill="#4A4B4B"/>
<path d="M308.678 128.525C308.227 128.525 307.861 128.159 307.861 127.708V125.385C307.861 124.934 308.226 124.568 308.678 124.568C309.13 124.568 309.495 124.934 309.495 125.385V127.708C309.495 128.159 309.129 128.525 308.678 128.525ZM308.678 115.149C308.227 115.149 307.861 114.784 307.861 114.333V112.009C307.861 111.558 308.226 111.192 308.678 111.192C309.13 111.192 309.495 111.557 309.495 112.009V114.333C309.495 114.784 309.129 115.149 308.678 115.149Z" fill="#4A4B4B"/>
<path fill-rule="evenodd" clip-rule="evenodd" d="M67.3545 96.2012C65.6036 95.3092 63.7473 94.0158 62.1807 92.8452C58.0987 89.8009 54.3807 86.1736 51.1622 82.231C40.0007 68.5596 35.2422 51.7201 35.2422 34.2234C35.2422 33.7733 35.6089 33.4067 36.058 33.4067C42.836 33.4067 49.6121 33.4067 56.3882 33.4067C60.5078 33.4067 64.0691 32.0747 67.2005 29.4402C67.5066 29.1835 67.9457 29.1835 68.251 29.4402C71.3833 32.0747 74.9427 33.4067 79.0623 33.4067C85.8403 33.4067 92.6164 33.4067 99.3925 33.4067C99.8426 33.4067 100.209 33.7733 100.209 34.2234C100.209 51.7192 95.4517 68.5596 84.2874 82.231C81.0708 86.1736 77.3518 89.8009 73.2707 92.8452C71.705 94.0149 69.8478 95.3092 68.0961 96.2012C67.8568 96.324 67.5955 96.324 67.3545 96.2012Z" fill="#A4A4A4"/>
<path fill-rule="evenodd" clip-rule="evenodd" d="M67.7258 91.0119C68.6736 90.4078 69.5939 89.7396 70.4666 89.0887C74.2461 86.2681 77.6745 82.9204 80.6555 79.2674C90.3045 67.4486 94.788 53.0952 95.437 38.0965C89.9782 38.0965 84.5203 38.0965 79.0614 38.0965C74.9015 38.0965 71.112 37.0029 67.7248 34.8588C64.3377 37.0029 60.5472 38.0965 56.3873 38.0965C50.9294 38.0965 45.4706 38.0965 40.0117 38.0965C40.6598 53.0952 45.1442 67.4486 54.7941 79.2674C57.7752 82.9195 61.2026 86.2681 64.983 89.0887C65.8548 89.7396 66.7779 90.4078 67.7258 91.0119Z" fill="#FFB7C6"/>
<path fill-rule="evenodd" clip-rule="evenodd" d="M65.8363 46.1191H69.6139C70.8175 46.1191 71.912 46.6105 72.705 47.4025C73.497 48.1954 73.9892 49.2909 73.9892 50.4945V62.4058C73.9892 63.6094 73.496 64.7049 72.705 65.4969C71.912 66.2889 70.8175 66.7811 69.6139 66.7811H65.8363C64.6327 66.7811 63.5381 66.2889 62.7452 65.4969C61.9532 64.7049 61.4609 63.6094 61.4609 62.4058V50.4945C61.4609 49.2909 61.9541 48.1963 62.7452 47.4025C63.5381 46.6105 64.6327 46.1191 65.8363 46.1191ZM69.6139 47.5015H65.8363C65.014 47.5015 64.266 47.8388 63.7233 48.3806C63.1815 48.9242 62.8442 49.6713 62.8442 50.4935V62.4049C62.8442 63.2272 63.1815 63.9752 63.7233 64.5179C64.266 65.0596 65.014 65.397 65.8363 65.397H69.6139C70.4352 65.397 71.1842 65.0596 71.7269 64.5179C72.2686 63.9752 72.6059 63.2272 72.6059 62.4049V50.4935C72.6059 49.6713 72.2686 48.9242 71.7269 48.3806C71.1842 47.8388 70.4352 47.5015 69.6139 47.5015Z" fill="white"/>
<path fill-rule="evenodd" clip-rule="evenodd" d="M60.2217 52.4259H75.2296C76.8402 52.4259 78.1575 53.7432 78.1575 55.3538V68.7767C78.1575 70.3864 76.8402 71.7046 75.2296 71.7046H60.2217C58.6111 71.7046 57.292 70.3864 57.292 68.7767V55.3538C57.2929 53.7432 58.6111 52.4259 60.2217 52.4259Z" fill="white"/>
<path fill-rule="evenodd" clip-rule="evenodd" d="M69.0618 63.2904V65.6875C69.0618 65.9158 68.8748 66.1009 68.6475 66.1009H66.7463C66.519 66.1009 66.332 65.9158 66.332 65.6875V63.2574C65.4905 62.7734 64.9258 61.8668 64.9258 60.8291C64.9258 59.2826 66.1789 58.0295 67.7262 58.0295C69.2727 58.0295 70.5258 59.2826 70.5258 60.8291C70.5267 61.8915 69.9336 62.8165 69.0618 63.2904Z" fill="#C2C2C2"/>
<path d="M330.871 166.498H396.56C398.315 166.498 399.75 167.934 399.75 169.688V208.036C399.75 209.79 398.314 211.226 396.56 211.226H330.871C329.117 211.226 327.682 209.789 327.682 208.036V169.688C327.682 167.934 329.117 166.498 330.871 166.498Z" fill="#FFB7C6" stroke="#85666D" stroke-width="0.5"/>
<path d="M327.682 208.036V197.43H399.75V208.036C399.75 209.79 398.314 211.226 396.56 211.226H330.871C329.117 211.226 327.682 209.789 327.682 208.036Z" fill="#FFEFF2" stroke="#85666D" stroke-width="0.5"/>
<path d="M392.909 193.467C392.805 193.467 392.699 193.426 392.62 193.348L391.793 192.519L390.965 193.348C390.805 193.505 390.547 193.505 390.387 193.348C390.228 193.187 390.228 192.929 390.387 192.769L391.215 191.941L390.387 191.114C390.228 190.954 390.228 190.696 390.387 190.536C390.547 190.378 390.805 190.378 390.965 190.536L391.793 191.365L392.62 190.536C392.78 190.378 393.038 190.378 393.198 190.536C393.357 190.696 393.357 190.954 393.198 191.114L392.369 191.941L393.198 192.769C393.357 192.929 393.357 193.187 393.198 193.348C393.117 193.426 393.013 193.467 392.909 193.467Z" fill="#4C466A"/>
<path d="M388.282 193.467C388.178 193.467 388.073 193.426 387.994 193.348L387.167 192.519L386.34 193.348C386.18 193.505 385.922 193.505 385.762 193.348C385.603 193.187 385.603 192.929 385.762 192.769L386.589 191.941L385.762 191.114C385.603 190.954 385.603 190.696 385.762 190.536C385.922 190.378 386.18 190.378 386.34 190.536L387.167 191.365L387.994 190.536C388.154 190.378 388.413 190.378 388.572 190.536C388.732 190.696 388.732 190.954 388.572 191.114L387.744 191.941L388.572 192.769C388.732 192.929 388.732 193.187 388.572 193.348C388.491 193.426 388.387 193.467 388.282 193.467Z" fill="#4C466A"/>
<path d="M383.658 193.467C383.554 193.467 383.448 193.426 383.37 193.348L382.542 192.519L381.714 193.348C381.554 193.505 381.296 193.505 381.136 193.348C380.977 193.187 380.977 192.929 381.136 192.769L381.964 191.941L381.136 191.114C380.977 190.954 380.977 190.696 381.136 190.536C381.296 190.378 381.554 190.378 381.714 190.536L382.542 191.365L383.37 190.536C383.529 190.378 383.787 190.378 383.948 190.536C384.106 190.696 384.106 190.954 383.948 191.114L383.118 191.941L383.948 192.769C384.106 192.929 384.106 193.187 383.948 193.348C383.866 193.426 383.762 193.467 383.658 193.467Z" fill="#4C466A"/>
<path d="M379.031 193.467C378.927 193.467 378.822 193.426 378.743 193.348L377.916 192.519L377.089 193.348C376.929 193.505 376.671 193.505 376.511 193.348C376.352 193.187 376.352 192.929 376.511 192.769L377.338 191.941L376.511 191.114C376.352 190.954 376.352 190.696 376.511 190.536C376.671 190.378 376.929 190.378 377.089 190.536L377.916 191.365L378.743 190.536C378.903 190.378 379.162 190.378 379.322 190.536C379.48 190.696 379.48 190.954 379.322 191.114L378.493 191.941L379.322 192.769C379.48 192.929 379.48 193.187 379.322 193.348C379.241 193.426 379.136 193.467 379.031 193.467Z" fill="#4C466A"/>
<path d="M371.73 193.467C371.625 193.467 371.52 193.426 371.441 193.348L370.614 192.519L369.787 193.348C369.627 193.505 369.369 193.505 369.208 193.348C369.05 193.187 369.05 192.929 369.208 192.769L370.038 191.941L369.208 191.114C369.05 190.954 369.05 190.696 369.208 190.536C369.369 190.378 369.627 190.378 369.787 190.536L370.614 191.365L371.442 190.536C371.602 190.378 371.86 190.378 372.02 190.536C372.179 190.696 372.179 190.954 372.02 191.114L371.192 191.941L372.02 192.769C372.178 192.929 372.178 193.187 372.02 193.348C371.939 193.426 371.834 193.467 371.73 193.467Z" fill="#4C466A"/>
<path d="M367.106 193.467C367.001 193.467 366.896 193.426 366.817 193.348L365.989 192.519L365.161 193.348C365.002 193.505 364.743 193.505 364.584 193.348C364.425 193.187 364.425 192.929 364.584 192.769L365.412 191.941L364.584 191.114C364.425 190.954 364.425 190.696 364.584 190.536C364.743 190.378 365.002 190.378 365.161 190.536L365.989 191.365L366.817 190.536C366.977 190.378 367.235 190.378 367.395 190.536C367.554 190.696 367.554 190.954 367.395 191.114L366.567 191.941L367.395 192.769C367.554 192.929 367.554 193.187 367.395 193.348C367.315 193.426 367.211 193.467 367.106 193.467Z" fill="#4C466A"/>
<path d="M362.48 193.467C362.375 193.467 362.271 193.426 362.191 193.348L361.363 192.519L360.535 193.348C360.376 193.505 360.117 193.505 359.958 193.348C359.799 193.187 359.799 192.929 359.958 192.769L360.786 191.941L359.958 191.114C359.799 190.954 359.799 190.696 359.958 190.536C360.117 190.378 360.376 190.378 360.535 190.536L361.363 191.365L362.191 190.536C362.35 190.378 362.609 190.378 362.769 190.536C362.928 190.696 362.928 190.954 362.769 191.114L361.941 191.941L362.769 192.769C362.928 192.929 362.928 193.187 362.769 193.348C362.69 193.426 362.585 193.467 362.48 193.467Z" fill="#4C466A"/>
<path d="M357.855 193.467C357.751 193.467 357.645 193.426 357.567 193.348L356.739 192.519L355.911 193.348C355.751 193.505 355.493 193.505 355.333 193.348C355.174 193.187 355.174 192.929 355.333 192.769L356.162 191.941L355.333 191.114C355.174 190.954 355.174 190.696 355.333 190.536C355.493 190.378 355.751 190.378 355.911 190.536L356.739 191.365L357.567 190.536C357.727 190.378 357.985 190.378 358.145 190.536C358.304 190.696 358.304 190.954 358.145 191.114L357.316 191.941L358.145 192.769C358.304 192.929 358.304 193.187 358.145 193.348C358.064 193.426 357.96 193.467 357.855 193.467Z" fill="#4C466A"/>
<path d="M350.551 193.467C350.447 193.467 350.342 193.426 350.263 193.348L349.435 192.519L348.608 193.348C348.448 193.505 348.189 193.505 348.029 193.348C347.871 193.187 347.871 192.929 348.029 192.769L348.858 191.941L348.029 191.114C347.871 190.954 347.871 190.696 348.029 190.536C348.189 190.378 348.448 190.378 348.608 190.536L349.435 191.365L350.263 190.536C350.423 190.378 350.681 190.378 350.841 190.536C350.999 190.696 350.999 190.954 350.841 191.114L350.012 191.941L350.841 192.769C350.999 192.929 350.999 193.187 350.841 193.348C350.76 193.426 350.655 193.467 350.551 193.467Z" fill="#4C466A"/>
<path d="M345.926 193.467C345.821 193.467 345.716 193.426 345.636 193.348L344.809 192.519L343.982 193.348C343.823 193.505 343.564 193.505 343.404 193.348C343.245 193.187 343.245 192.929 343.404 192.769L344.232 191.941L343.403 191.114C343.245 190.954 343.245 190.696 343.403 190.536C343.564 190.378 343.821 190.378 343.982 190.536L344.809 191.365L345.636 190.536C345.797 190.378 346.055 190.378 346.215 190.536C346.374 190.696 346.374 190.954 346.215 191.114L345.386 191.941L346.215 192.769C346.374 192.929 346.374 193.187 346.215 193.348C346.134 193.426 346.029 193.467 345.926 193.467Z" fill="#4C466A"/>
<path d="M341.3 193.467C341.196 193.467 341.091 193.426 341.012 193.348L340.184 192.519L339.357 193.348C339.197 193.505 338.938 193.505 338.778 193.348C338.62 193.187 338.62 192.929 338.778 192.769L339.607 191.941L338.778 191.114C338.62 190.954 338.62 190.696 338.778 190.536C338.938 190.378 339.197 190.378 339.357 190.536L340.184 191.365L341.012 190.536C341.172 190.378 341.43 190.378 341.59 190.536C341.749 190.696 341.749 190.954 341.59 191.114L340.761 191.941L341.59 192.769C341.749 192.929 341.749 193.187 341.59 193.348C341.509 193.426 341.405 193.467 341.3 193.467Z" fill="#4C466A"/>
<path fill-rule="evenodd" clip-rule="evenodd" d="M391.969 178.211H382.229C381.713 178.211 381.29 178.634 381.29 179.151V185.843C381.29 186.359 381.714 186.782 382.229 186.782H391.969C392.486 186.782 392.91 186.359 392.91 185.843V179.151C392.911 178.634 392.487 178.211 391.969 178.211Z" fill="#FFB8D6"/>
<path fill-rule="evenodd" clip-rule="evenodd" d="M392.339 201.48H383.624C383.31 201.48 383.055 201.736 383.055 202.049V204.384C383.055 204.698 383.31 204.953 383.624 204.953H392.339C392.653 204.953 392.91 204.698 392.91 204.384V202.049C392.91 201.736 392.652 201.48 392.339 201.48Z" fill="#FFB7C6"/>
<path fill-rule="evenodd" clip-rule="evenodd" d="M380.097 201.48H365.544C365.23 201.48 364.975 201.736 364.975 202.049V204.384C364.975 204.698 365.23 204.953 365.544 204.953H380.097C380.411 204.953 380.666 204.698 380.666 204.384V202.049C380.666 201.736 380.411 201.48 380.097 201.48Z" fill="#FFB7C6"/>
<path fill-rule="evenodd" clip-rule="evenodd" d="M349.565 171.661H335.013C334.698 171.661 334.443 171.917 334.443 172.23V174.565C334.443 174.88 334.698 175.136 335.013 175.136H349.565C349.88 175.136 350.135 174.88 350.135 174.565V172.23C350.135 171.918 349.879 171.661 349.565 171.661Z" fill="white"/>
<path fill-rule="evenodd" clip-rule="evenodd" d="M392.339 171.661H375.002C374.687 171.661 374.432 171.917 374.432 172.23V174.565C374.432 174.88 374.687 175.136 375.002 175.136H392.339C392.653 175.136 392.91 174.88 392.91 174.565V172.23C392.91 171.918 392.652 171.661 392.339 171.661Z" fill="white"/>
<path d="M327.432 206.187C332.407 206.187 336.439 202.155 336.439 197.18C336.439 192.205 332.407 188.173 327.432 188.173C322.458 188.173 318.425 192.205 318.425 197.18C318.425 202.155 322.458 206.187 327.432 206.187Z" fill="#DC6597"/>
<path d="M327.433 207.005C322.017 207.005 317.609 202.598 317.609 197.18C317.609 191.763 322.017 187.355 327.433 187.355C332.85 187.355 337.258 191.763 337.258 197.18C337.258 202.598 332.85 207.005 327.433 207.005ZM327.433 188.989C322.916 188.989 319.242 192.664 319.242 197.181C319.242 201.697 322.916 205.373 327.433 205.373C331.949 205.373 335.625 201.697 335.625 197.181C335.625 192.664 331.949 188.989 327.433 188.989Z" fill="#FFA1C9"/>
<path d="M326.151 201.058C325.784 201.058 325.437 200.892 325.204 200.608L323.139 198.084C322.71 197.561 322.787 196.789 323.311 196.362C323.835 195.93 324.605 196.011 325.034 196.534L326.1 197.836L329.796 192.805C330.196 192.26 330.964 192.142 331.506 192.543C332.053 192.945 332.169 193.709 331.768 194.255L327.137 200.558C326.914 200.864 326.561 201.047 326.182 201.057C326.172 201.056 326.16 201.058 326.151 201.058Z" fill="white"/>
<path fill-rule="evenodd" clip-rule="evenodd" d="M40.3941 292.308L40.4051 292.316L40.4464 292.342L40.4482 292.34C46.0051 295.832 56.4443 289.418 63.8098 277.971C71.1726 266.523 72.6806 254.364 67.1997 250.753L67.1567 250.727L67.1466 250.718L67.1337 250.71L66.4435 250.267L65.7532 249.823L62.5677 247.773L35.8135 289.362L39.6901 291.857V291.857L40.3813 292.3L40.3941 292.308Z" fill="#B3537B"/>
<path d="M43.9764 293.699C42.5821 293.699 41.3364 293.368 40.2739 292.713C40.2574 292.704 40.24 292.695 40.2244 292.684L35.5934 289.704C35.4036 289.582 35.3477 289.33 35.4705 289.141L62.2248 247.552C62.2835 247.461 62.3761 247.397 62.4815 247.374C62.5878 247.353 62.6969 247.371 62.7886 247.43L67.3555 250.368C73.0774 254.138 71.6098 266.599 64.1526 278.192C58.185 287.467 50.0769 293.699 43.9764 293.699ZM40.6012 291.961C40.6232 291.97 40.6452 291.98 40.6663 291.995C41.605 292.584 42.7187 292.884 43.9764 292.884C49.7194 292.884 57.734 286.661 63.4669 277.751C70.683 266.532 72.256 254.574 66.976 251.094C66.9595 251.083 66.9017 251.044 66.887 251.031L62.6914 248.337L36.378 289.239L40.603 291.955L40.6012 291.961Z" fill="#8B8B8B"/>
<path d="M39.16 262.109C31.7723 273.593 30.2784 285.795 35.8232 289.362C41.3681 292.928 51.852 286.51 59.2396 275.026C66.6273 263.541 68.1212 251.34 62.5764 247.773C57.0316 244.206 46.5477 250.625 39.16 262.109Z" fill="#FFB8D6"/>
<path d="M39.3988 290.755H39.3978C37.9587 290.755 36.679 290.401 35.5964 289.705C29.8717 286.022 31.3146 273.542 38.8121 261.887C44.7797 252.61 52.8886 246.377 58.9901 246.377C60.4293 246.377 61.708 246.731 62.7906 247.427C68.5162 251.11 67.0743 263.589 59.5768 275.244C53.6092 284.523 45.4993 290.755 39.3988 290.755ZM58.9892 247.196C53.2452 247.196 45.2307 253.419 39.4968 262.329C32.2422 273.607 30.6903 285.579 36.0364 289.019C36.987 289.631 38.1172 289.939 39.3969 289.939C45.1418 289.94 53.1563 283.717 58.8902 274.805C66.1439 263.527 67.6958 251.554 62.3488 248.116C61.4 247.504 60.2698 247.196 58.9892 247.196Z" fill="#8B8B8B"/>
<path d="M41.0728 263.34C35.3178 272.286 34.1537 281.791 38.4727 284.569C42.7918 287.347 50.9584 282.347 56.7134 273.401C62.4684 264.455 63.6325 254.95 59.3135 252.172C54.9944 249.393 46.8278 254.393 41.0728 263.34Z" fill="#B3537B"/>
<path fill-rule="evenodd" clip-rule="evenodd" d="M53.4541 260.433L54.1288 259.384C54.3543 259.034 54.8594 258.666 55.2728 258.933C55.6862 259.199 55.5597 259.811 55.336 260.16L54.478 261.495C54.632 261.826 54.7164 262.186 54.7466 262.548L54.9776 265.308C55.0161 265.766 54.7054 266.28 54.3002 266.487C53.8611 266.713 53.4074 266.518 53.3643 266.006L53.158 263.545L49.7608 268.828L49.924 270.779C50.012 271.832 49.6682 272.933 49.1448 273.837C48.6058 274.769 47.8028 275.622 46.8375 276.117L46.7678 276.152C46.1766 276.441 45.4955 276.606 44.84 276.476L44.0911 277.641C43.8665 277.991 43.3605 278.359 42.948 278.093C42.5337 277.828 42.6593 277.213 42.8838 276.865L43.6071 275.739C43.2478 275.303 43.0745 274.748 43.0269 274.186L42.7977 271.429C42.7583 270.973 43.0699 270.459 43.4724 270.25C43.9133 270.025 44.367 270.219 44.4101 270.731L44.6356 273.424C44.642 273.467 44.6448 273.503 44.6448 273.539C44.6622 273.685 44.6943 273.83 44.7484 273.966L48.086 268.779L47.8504 265.959C47.7606 264.906 48.1062 263.805 48.6287 262.9C49.1686 261.968 49.9716 261.116 50.936 260.62L51.0056 260.586C51.7601 260.216 52.6667 260.059 53.4541 260.433ZM52.366 262.126C51.9966 262.002 51.5841 262.091 51.2403 262.26L51.1862 262.288L51.1395 262.31C50.6243 262.59 50.1971 263.059 49.9038 263.563C49.6141 264.063 49.4134 264.68 49.4629 265.262L49.5637 266.481L52.366 262.126ZM46.0134 274.652C46.1931 274.622 46.3691 274.56 46.5304 274.481L46.5854 274.451L46.6312 274.43C47.1455 274.151 47.5763 273.68 47.8688 273.176C48.1566 272.678 48.3564 272.058 48.3097 271.478L48.2803 271.127L46.0134 274.652Z" fill="#FFB8D6"/>
<path fill-rule="evenodd" clip-rule="evenodd" d="M52.7983 260.013L53.473 258.963C53.6994 258.613 54.2045 258.246 54.6179 258.512C55.0295 258.778 54.9057 259.39 54.6811 259.74L53.8213 261.075C53.9762 261.405 54.0596 261.765 54.0908 262.127L54.3209 264.888C54.3585 265.345 54.0477 265.858 53.6435 266.066C53.2044 266.292 52.7488 266.098 52.7066 265.586L52.5022 263.124L49.105 268.407L49.2672 270.358C49.3561 271.411 49.0105 272.513 48.4871 273.416C47.9481 274.349 47.1451 275.2 46.1798 275.698L46.1111 275.731C45.5189 276.021 44.8387 276.185 44.1833 276.056L43.4335 277.221C43.208 277.57 42.7019 277.938 42.2904 277.673C41.876 277.408 42.0025 276.793 42.2271 276.444L42.9495 275.319C42.5919 274.882 42.4178 274.329 42.3701 273.766L42.14 271.009C42.1015 270.551 42.4123 270.038 42.8174 269.829C43.2565 269.604 43.7103 269.798 43.7534 270.311L43.9789 273.005C43.9853 273.046 43.9899 273.082 43.9899 273.119C44.0064 273.264 44.0375 273.409 44.0926 273.546L47.4302 268.358L47.1946 265.538C47.1057 264.485 47.4504 263.384 47.9738 262.479C48.5128 261.548 49.3158 260.696 50.2811 260.2L50.3498 260.165C51.107 259.795 52.0108 259.638 52.7983 260.013ZM51.712 261.705C51.3408 261.581 50.9292 261.67 50.5872 261.839L50.5322 261.867L50.4846 261.889C49.9694 262.169 49.5413 262.638 49.248 263.142C48.9601 263.642 48.7585 264.26 48.808 264.842L48.9088 266.06L51.712 261.705ZM45.3585 274.231C45.54 274.201 45.7151 274.139 45.8773 274.06L45.9323 274.032L45.9772 274.01C46.4933 273.73 46.9224 273.261 47.2148 272.756C47.5026 272.257 47.7052 271.637 47.6557 271.057L47.6264 270.706L45.3585 274.231Z" fill="white"/>
<path d="M39.3952 290.753C37.9825 290.753 36.6983 290.415 35.5983 289.706C35.4085 289.584 35.3526 289.332 35.4754 289.142C35.5983 288.951 35.854 288.899 36.0392 289.019C40.7014 292.018 49.5043 287.355 56.5279 278.172C56.6636 277.993 56.9212 277.958 57.099 278.096C57.2787 278.233 57.3126 278.489 57.1751 278.667C51.3698 286.261 44.535 290.753 39.3952 290.753ZM58.1459 277.059C58.0643 277.059 57.9827 277.036 57.9121 276.985C57.727 276.857 57.683 276.602 57.8122 276.418C58.1789 275.892 58.5382 275.357 58.8921 274.807C59.0131 274.617 59.2651 274.562 59.4558 274.684C59.6465 274.807 59.7006 275.058 59.5787 275.248C59.2211 275.806 58.8536 276.35 58.4805 276.884C58.4016 276.999 58.2742 277.059 58.1459 277.059ZM34.8246 270.9C34.7751 270.9 34.7238 270.891 34.6752 270.872C34.4652 270.789 34.3626 270.552 34.446 270.343C34.5844 269.992 34.7283 269.639 34.8796 269.285C34.9685 269.077 35.2123 268.981 35.4149 269.069C35.623 269.159 35.7193 269.398 35.6313 269.605C35.4828 269.952 35.3407 270.299 35.2059 270.643C35.1418 270.803 34.9887 270.9 34.8246 270.9ZM36.1694 267.838C36.1098 267.838 36.0493 267.824 35.9915 267.797C35.7889 267.699 35.7037 267.454 35.8018 267.251C36.6781 265.437 37.692 263.634 38.814 261.889C46.3097 250.235 57.0651 243.744 62.7944 247.431C62.9841 247.552 63.04 247.805 62.9172 247.994C62.7944 248.184 62.5386 248.238 62.3534 248.117C57.0019 244.679 46.7552 251.057 39.5006 262.331C38.396 264.047 37.3995 265.823 36.5379 267.607C36.4664 267.751 36.3215 267.838 36.1694 267.838Z" fill="#DEDEDE"/>
<path fill-rule="evenodd" clip-rule="evenodd" d="M26.4602 195.727H60.525C62.7022 195.727 64.4824 197.508 64.4824 199.683V214.424C64.4824 216.601 62.7022 218.381 60.525 218.381H55.0332L50.3315 223.382C49.8026 223.944 48.9373 223.944 48.4111 223.384L43.7085 218.381H26.4602C24.284 218.381 22.5029 216.601 22.5029 214.424V199.683C22.502 197.506 24.284 195.727 26.4602 195.727Z" fill="#FFB7C6"/>
<path d="M49.3688 224.376C48.8463 224.376 48.3577 224.164 47.9938 223.777L43.459 218.953H26.46C23.9621 218.953 21.9316 216.922 21.9316 214.425V199.684C21.9316 197.186 23.963 195.156 26.46 195.156H60.5248C63.0219 195.156 65.0533 197.187 65.0533 199.684V214.425C65.0533 216.923 63.0219 218.953 60.5248 218.953H55.2805L50.7475 223.775C50.3827 224.162 49.8913 224.376 49.3688 224.376ZM26.46 196.298C24.5928 196.298 23.0738 197.816 23.0738 199.683V214.424C23.0738 216.291 24.5928 217.81 26.46 217.81H43.7074C43.8642 217.81 44.0154 217.874 44.1236 217.989L48.8271 222.993C49.1167 223.304 49.6228 223.304 49.9152 222.99L54.6168 217.989C54.725 217.874 54.8753 217.81 55.033 217.81H60.5248C62.3921 217.81 63.9102 216.291 63.9102 214.424V199.683C63.9102 197.816 62.3912 196.298 60.5248 196.298H26.46Z" fill="#A4A4A4"/>
<path d="M35.0581 208.548C36.144 208.548 37.0244 207.667 37.0244 206.581C37.0244 205.495 36.144 204.615 35.0581 204.615C33.9721 204.615 33.0918 205.495 33.0918 206.581C33.0918 207.667 33.9721 208.548 35.0581 208.548Z" fill="white"/>
<path d="M43.4936 208.548C44.5796 208.548 45.4599 207.667 45.4599 206.581C45.4599 205.495 44.5796 204.615 43.4936 204.615C42.4077 204.615 41.5273 205.495 41.5273 206.581C41.5273 207.667 42.4077 208.548 43.4936 208.548Z" fill="white"/>
<path d="M51.9282 208.548C53.0141 208.548 53.8945 207.667 53.8945 206.581C53.8945 205.495 53.0141 204.615 51.9282 204.615C50.8423 204.615 49.9619 205.495 49.9619 206.581C49.9619 207.667 50.8423 208.548 51.9282 208.548Z" fill="white"/>
<path fill-rule="evenodd" clip-rule="evenodd" d="M325.103 31.1744H291.039C288.863 31.1744 287.082 32.9565 287.082 35.1318V49.8729C287.082 52.0482 288.863 53.8302 291.039 53.8302H296.53L301.233 58.8316C301.761 59.3926 302.626 59.3945 303.154 58.8344L307.856 53.8311H325.103C327.279 53.8311 329.059 52.0491 329.059 49.8738V35.1327C329.059 32.9556 327.278 31.1744 325.103 31.1744Z" fill="#FFB7C6"/>
<path d="M302.194 59.8253C301.672 59.8253 301.182 59.6117 300.816 59.223L296.283 54.4022H291.039C288.541 54.4022 286.511 52.3709 286.511 49.8738V35.1327C286.511 32.6347 288.542 30.6042 291.039 30.6042H325.103C327.6 30.6042 329.631 32.6356 329.631 35.1327V49.8738C329.631 52.3709 327.599 54.4022 325.103 54.4022H308.103L303.57 59.2258C303.204 59.6126 302.716 59.8253 302.194 59.8253ZM291.039 31.7464C289.172 31.7464 287.654 33.2654 287.654 35.1327V49.8738C287.654 51.7411 289.172 53.2591 291.039 53.2591H296.53C296.688 53.2591 296.839 53.3242 296.946 53.4388L301.649 58.4402C301.941 58.7528 302.446 58.7519 302.738 58.4411L307.439 53.4388C307.547 53.3242 307.697 53.2591 307.855 53.2591H325.102C326.969 53.2591 328.487 51.7411 328.487 49.8738V35.1327C328.487 33.2654 326.969 31.7464 325.102 31.7464H291.039Z" fill="#A4A4A4"/>
<path d="M316.506 43.9962C317.593 43.9962 318.473 43.1154 318.473 42.029C318.473 40.9425 317.593 40.0618 316.506 40.0618C315.42 40.0618 314.539 40.9425 314.539 42.029C314.539 43.1154 315.42 43.9962 316.506 43.9962Z" fill="white"/>
<path d="M308.071 43.9962C309.157 43.9962 310.038 43.1154 310.038 42.029C310.038 40.9425 309.157 40.0618 308.071 40.0618C306.984 40.0618 306.104 40.9425 306.104 42.029C306.104 43.1154 306.984 43.9962 308.071 43.9962Z" fill="white"/>
<path d="M299.637 43.9962C300.724 43.9962 301.604 43.1154 301.604 42.029C301.604 40.9425 300.724 40.0618 299.637 40.0618C298.551 40.0618 297.67 40.9425 297.67 42.029C297.67 43.1154 298.551 43.9962 299.637 43.9962Z" fill="white"/>
<path d="M346.779 284.174C346.685 284.174 346.592 284.151 346.504 284.102C346.226 283.95 346.126 283.602 346.278 283.327C349.462 277.553 351.357 270.94 351.759 264.205C351.778 263.89 352.055 263.638 352.363 263.668C352.678 263.688 352.918 263.957 352.9 264.272C352.487 271.178 350.543 277.958 347.278 283.877C347.175 284.065 346.98 284.174 346.779 284.174ZM314.297 272.978C314.076 272.978 313.866 272.85 313.772 272.635C313.646 272.346 313.779 272.008 314.068 271.883C319.128 269.682 319.787 263.635 319.835 261.138C319.834 252.332 326.73 245.061 335.532 244.598C335.841 244.562 336.117 244.822 336.132 245.138C336.15 245.453 335.907 245.722 335.592 245.739C327.397 246.171 320.977 252.939 320.978 261.149C320.866 266.905 318.514 271.194 314.524 272.932C314.451 272.963 314.373 272.978 314.297 272.978ZM352.413 261.105H351.842C351.791 254.904 348.115 249.387 342.473 246.963C342.184 246.837 342.05 246.501 342.174 246.211C342.299 245.923 342.631 245.787 342.925 245.912C348.981 248.516 352.931 254.443 352.985 261.01L352.413 261.105Z" fill="#C87397"/>
<path d="M341.978 285.959C341.869 285.959 341.76 285.929 341.662 285.864C341.399 285.691 341.328 285.336 341.5 285.073C342.898 282.959 344.121 280.642 345.135 278.185C347.343 272.834 348.686 266.265 348.641 261.046C348.614 257.788 347.314 254.729 344.98 252.434C342.67 250.163 339.631 248.915 336.41 248.915C336.376 248.915 336.341 248.917 336.307 248.917C329.602 248.975 324.16 254.475 324.178 261.181C324.102 267.965 321.087 273.4 316.114 275.724C315.828 275.859 315.487 275.736 315.354 275.449C315.22 275.163 315.344 274.822 315.63 274.69C320.196 272.555 322.965 267.503 323.034 261.175C323.015 253.852 328.966 247.837 336.298 247.774C339.903 247.783 343.229 249.11 345.782 251.619C348.333 254.127 349.756 257.472 349.785 261.036C349.831 266.399 348.454 273.137 346.191 278.621C345.149 281.144 343.893 283.526 342.455 285.703C342.344 285.868 342.162 285.959 341.978 285.959Z" fill="#C87397"/>
<path d="M337.525 286.652C337.4 286.652 337.276 286.612 337.169 286.529C336.923 286.332 336.882 285.973 337.077 285.726C339.123 283.151 340.839 280.203 342.176 276.962C344.231 271.984 345.482 265.895 345.442 261.072C345.434 260.113 345.275 259.169 344.969 258.266C344.868 257.966 345.026 257.641 345.327 257.541C345.623 257.442 345.95 257.599 346.051 257.899C346.397 258.916 346.576 259.982 346.586 261.063C346.626 266.029 345.342 272.287 343.232 277.399C341.855 280.737 340.086 283.778 337.973 286.435C337.86 286.578 337.693 286.652 337.525 286.652ZM317.886 278.441C317.677 278.441 317.474 278.325 317.375 278.125C317.233 277.842 317.348 277.499 317.63 277.358C320.577 275.888 322.744 273.49 324.258 270.027C325.409 267.389 326.223 263.756 326.234 261.193C326.228 259.664 326.557 258.185 327.211 256.805C327.347 256.518 327.688 256.399 327.974 256.534C328.258 256.67 328.379 257.012 328.245 257.295C327.662 258.519 327.371 259.832 327.378 261.193C327.364 263.944 326.53 267.675 325.303 270.483C323.68 274.204 321.336 276.787 318.14 278.379C318.059 278.422 317.973 278.441 317.886 278.441ZM343.735 255.523C343.572 255.523 343.411 255.454 343.299 255.32C341.554 253.262 339.035 252.094 336.334 252.119C335.616 252.125 334.897 252.216 334.199 252.392C333.891 252.47 333.582 252.284 333.506 251.978C333.428 251.673 333.615 251.362 333.921 251.286C334.704 251.088 335.514 250.983 336.325 250.976C339.374 250.931 342.207 252.265 344.169 254.583C344.375 254.823 344.343 255.184 344.103 255.387C343.996 255.478 343.865 255.523 343.735 255.523Z" fill="#C87397"/>
<path d="M333.386 286.554C333.245 286.554 333.104 286.502 332.994 286.399C332.765 286.183 332.753 285.822 332.969 285.591C335.555 282.836 337.658 279.523 339.217 275.74C341.091 271.2 342.277 265.452 342.24 261.099C342.227 259.547 341.609 258.089 340.495 256.994C339.395 255.912 337.946 255.318 336.413 255.318C336.395 255.318 336.379 255.318 336.361 255.318C333.147 255.345 330.553 257.981 330.58 261.191C330.586 264.218 329.679 268.389 328.322 271.57C326.57 275.672 323.949 278.752 320.534 280.725C320.262 280.88 319.911 280.788 319.753 280.515C319.595 280.241 319.69 279.893 319.963 279.734C323.204 277.862 325.596 275.045 327.272 271.121C328.573 268.069 329.443 264.079 329.437 261.196C329.405 257.358 332.507 254.207 336.351 254.174C336.371 254.174 336.392 254.174 336.412 254.174C338.248 254.174 339.98 254.885 341.294 256.179C342.625 257.488 343.367 259.231 343.382 261.089C343.42 265.652 342.229 271.432 340.272 276.176C338.659 280.084 336.482 283.516 333.799 286.373C333.689 286.494 333.537 286.554 333.386 286.554Z" fill="#C87397"/>
<path d="M329.572 285.822C329.417 285.822 329.263 285.76 329.15 285.635C328.939 285.401 328.955 285.04 329.188 284.827C332.182 282.105 334.561 278.636 336.262 274.515C337.984 270.338 339.074 265.085 339.04 261.127C339.033 260.426 338.754 259.77 338.253 259.276C337.752 258.781 337.071 258.518 336.39 258.52C334.939 258.531 333.769 259.722 333.782 261.171C333.789 261.923 333.744 262.756 333.649 263.642C333.615 263.957 333.32 264.181 333.02 264.15C332.705 264.116 332.479 263.834 332.512 263.52C332.604 262.677 332.646 261.889 332.639 261.182C332.621 259.101 334.298 257.395 336.379 257.376C337.404 257.37 338.335 257.753 339.054 258.461C339.775 259.169 340.175 260.113 340.183 261.117C340.218 265.216 339.094 270.645 337.317 274.952C335.553 279.229 333.075 282.837 329.958 285.673C329.847 285.772 329.71 285.822 329.572 285.822ZM322.992 282.864C322.809 282.864 322.628 282.775 322.516 282.611C322.341 282.35 322.411 281.995 322.673 281.818C326.022 279.574 328.602 276.294 330.345 272.074C330.612 271.423 330.867 270.719 331.104 269.979C331.201 269.678 331.515 269.514 331.823 269.61C332.123 269.706 332.288 270.028 332.192 270.328C331.945 271.095 331.679 271.83 331.401 272.51C329.57 276.943 326.848 280.393 323.309 282.768C323.212 282.833 323.102 282.864 322.992 282.864Z" fill="#C87397"/>
<path d="M326.088 284.555C325.918 284.555 325.751 284.48 325.638 284.335C325.444 284.086 325.488 283.728 325.736 283.534C335.837 275.623 335.839 261.298 335.839 261.155C335.836 260.839 336.089 260.582 336.405 260.578C336.406 260.578 336.409 260.578 336.409 260.578C336.722 260.578 336.978 260.831 336.982 261.144C336.982 261.293 336.993 276.171 326.44 284.433C326.335 284.515 326.212 284.555 326.088 284.555Z" fill="#C87397"/>
<path d="M340.245 143.842C340.02 143.842 339.837 143.658 339.837 143.434V142.546H338.949C338.724 142.546 338.541 142.363 338.541 142.138C338.541 141.913 338.724 141.73 338.949 141.73H339.837V140.843C339.837 140.618 340.02 140.434 340.245 140.434C340.47 140.434 340.653 140.618 340.653 140.843V141.73H341.541C341.766 141.73 341.949 141.914 341.949 142.138C341.949 142.363 341.766 142.546 341.541 142.546H340.653V143.434C340.653 143.658 340.47 143.842 340.245 143.842Z" fill="white"/>
<path d="M118.221 56.588C117.996 56.588 117.813 56.4047 117.813 56.1792V55.2918H116.925C116.7 55.2918 116.518 55.1085 116.518 54.8839C116.518 54.6584 116.701 54.4751 116.925 54.4751H117.813V53.5877C117.813 53.3631 117.996 53.1798 118.221 53.1798C118.446 53.1798 118.629 53.3631 118.629 53.5877V54.4751H119.518C119.742 54.4751 119.926 54.6584 119.926 54.8839C119.926 55.1085 119.742 55.2918 119.518 55.2918H118.629V56.1792C118.63 56.4038 118.446 56.588 118.221 56.588Z" fill="white"/>
<path d="M297.912 304.096C297.688 304.096 297.505 303.913 297.505 303.687V302.8H296.617C296.392 302.8 296.209 302.616 296.209 302.392C296.209 302.167 296.392 301.984 296.617 301.984H297.505V301.097C297.505 300.871 297.688 300.689 297.912 300.689C298.138 300.689 298.321 300.871 298.321 301.097V301.984H299.209C299.435 301.984 299.617 302.167 299.617 302.392C299.617 302.616 299.435 302.8 299.209 302.8H298.321V303.687C298.321 303.913 298.138 304.096 297.912 304.096Z" fill="white"/>
<path d="M255.582 109.718C255.357 109.718 255.174 109.535 255.174 109.31V108.423H254.286C254.061 108.423 253.878 108.24 253.878 108.015C253.878 107.79 254.061 107.606 254.286 107.606H255.174V106.719C255.174 106.494 255.357 106.311 255.582 106.311C255.807 106.311 255.99 106.494 255.99 106.719V107.606H256.876C257.102 107.606 257.285 107.79 257.285 108.015C257.285 108.24 257.102 108.423 256.876 108.423H255.99V109.31C255.99 109.534 255.807 109.718 255.582 109.718Z" fill="white"/>
<path d="M303.96 179.694C303.735 179.694 303.552 179.511 303.552 179.285V178.398H302.664C302.44 178.398 302.256 178.215 302.256 177.99C302.256 177.765 302.44 177.582 302.664 177.582H303.552V176.695C303.552 176.469 303.735 176.287 303.96 176.287C304.185 176.287 304.368 176.469 304.368 176.695V177.582H305.254C305.48 177.582 305.662 177.765 305.662 177.99C305.662 178.215 305.48 178.398 305.254 178.398H304.368V179.285C304.369 179.511 304.186 179.694 303.96 179.694Z" fill="white"/>
<path d="M30.1025 242.759C29.877 242.759 29.6946 242.575 29.6946 242.35V241.463H28.8064C28.5818 241.463 28.3984 241.279 28.3984 241.055C28.3984 240.83 28.5818 240.647 28.8064 240.647H29.6946V239.759C29.6946 239.534 29.878 239.351 30.1025 239.351C30.3271 239.351 30.5105 239.534 30.5105 239.759V240.647H31.3969C31.6224 240.647 31.8048 240.83 31.8048 241.055C31.8048 241.279 31.6215 241.463 31.3969 241.463H30.5105V242.35C30.5114 242.575 30.3281 242.759 30.1025 242.759Z" fill="white"/>
<path d="M56.0206 174.51C55.796 174.51 55.6127 174.328 55.6127 174.102V173.215H54.7253C54.4998 173.215 54.3174 173.031 54.3174 172.807C54.3174 172.582 54.5007 172.399 54.7253 172.399H55.6127V171.511C55.6127 171.286 55.796 171.103 56.0206 171.103C56.2461 171.103 56.4285 171.286 56.4285 171.511V172.399H57.3149C57.5395 172.399 57.7229 172.582 57.7229 172.807C57.7229 173.031 57.5395 173.215 57.3149 173.215H56.4285V174.102C56.4285 174.327 56.2461 174.51 56.0206 174.51Z" fill="white"/>
<path d="M40.4697 104.534C40.2442 104.534 40.0608 104.351 40.0608 104.126V103.239H39.1735C38.948 103.239 38.7646 103.056 38.7646 102.831C38.7646 102.607 38.948 102.423 39.1735 102.423H40.0608V101.536C40.0608 101.31 40.2442 101.128 40.4697 101.128C40.6943 101.128 40.8776 101.311 40.8776 101.536V102.423H41.764C41.9895 102.423 42.1729 102.607 42.1729 102.831C42.1729 103.056 41.9895 103.239 41.764 103.239H40.8776V104.126C40.8776 104.351 40.6943 104.534 40.4697 104.534Z" fill="white"/>
<path d="M91.4404 15.552C91.2149 15.552 91.0316 15.3686 91.0316 15.144V14.2567H90.1442C89.9197 14.2567 89.7363 14.0734 89.7363 13.8478C89.7363 13.6233 89.9197 13.4399 90.1442 13.4399H91.0316V12.5526C91.0316 12.328 91.2149 12.1447 91.4404 12.1447C91.665 12.1447 91.8484 12.328 91.8484 12.5526V13.4399H92.7357C92.9603 13.4399 93.1436 13.6233 93.1436 13.8478C93.1436 14.0734 92.9603 14.2567 92.7357 14.2567H91.8484V15.144C91.8484 15.3686 91.665 15.552 91.4404 15.552Z" fill="white"/>
<path d="M267.676 22.463C267.451 22.463 267.268 22.2796 267.268 22.055V21.1677H266.381C266.156 21.1677 265.973 20.9844 265.973 20.7589C265.973 20.5334 266.156 20.3509 266.381 20.3509H267.268V19.4636C267.268 19.239 267.451 19.0557 267.676 19.0557C267.901 19.0557 268.084 19.239 268.084 19.4636V20.3509H268.971C269.196 20.3509 269.379 20.5343 269.379 20.7589C269.379 20.9834 269.196 21.1677 268.971 21.1677H268.084V22.055C268.085 22.2806 267.902 22.463 267.676 22.463Z" fill="white"/>
</svg>
