<svg width="10" height="12" viewBox="0 0 10 12" fill="none" xmlns="http://www.w3.org/2000/svg">
<path d="M9.88731 7.03577L8.84615 5.99462V4.61538C8.84496 3.66225 8.49039 2.7434 7.85101 2.03653C7.21163 1.32966 6.33286 0.884974 5.38462 0.788462V0H4.61538V0.788462C3.66714 0.884974 2.78837 1.32966 2.14899 2.03653C1.50961 2.7434 1.15504 3.66225 1.15385 4.61538V5.99462L0.112692 7.03577C0.0405579 7.10788 2.17836e-05 7.20569 0 7.30769V8.46154C0 8.56354 0.0405218 8.66137 0.112651 8.7335C0.184781 8.80563 0.282609 8.84615 0.384615 8.84615H3.07692V9.145C3.06856 9.63294 3.24054 10.1068 3.55992 10.4758C3.87929 10.8448 4.3236 11.0829 4.80769 11.1446C5.07507 11.1711 5.34503 11.1414 5.60023 11.0573C5.85542 10.9732 6.09019 10.8367 6.28943 10.6564C6.48868 10.4761 6.64799 10.2562 6.75712 10.0106C6.86625 9.76511 6.92278 9.49946 6.92308 9.23077V8.84615H9.61539C9.71739 8.84615 9.81522 8.80563 9.88735 8.7335C9.95948 8.66137 10 8.56354 10 8.46154V7.30769C9.99998 7.20569 9.95944 7.10788 9.88731 7.03577ZM6.15385 9.23077C6.15385 9.53679 6.03228 9.83027 5.81589 10.0467C5.5995 10.2631 5.30602 10.3846 5 10.3846C4.69398 10.3846 4.4005 10.2631 4.18411 10.0467C3.96772 9.83027 3.84615 9.53679 3.84615 9.23077V8.84615H6.15385V9.23077ZM9.23077 8.07692H0.769231V7.46692L1.81038 6.42577C1.88252 6.35366 1.92306 6.25584 1.92308 6.15385V4.61538C1.92308 3.79933 2.24725 3.01671 2.82429 2.43967C3.40132 1.86264 4.18395 1.53846 5 1.53846C5.81605 1.53846 6.59868 1.86264 7.17571 2.43967C7.75275 3.01671 8.07692 3.79933 8.07692 4.61538V6.15385C8.07695 6.25584 8.11748 6.35366 8.18962 6.42577L9.23077 7.46692V8.07692Z" fill="#252525" fill-opacity="0.5"/>
</svg>
