<svg width="53" height="57" viewBox="0 0 53 57" fill="none" xmlns="http://www.w3.org/2000/svg">
<path d="M15.1838 51.9907L2.29641 21.1235C2.21559 20.9674 2.13935 20.8067 2.06864 20.6423C0.657111 17.3591 1.80045 13.6847 4.4674 11.6184C5.18461 11.0628 6.01302 10.6238 6.93135 10.3391L20.4158 5.90617L26.0637 4.04926L33.4684 1.61467C33.6659 1.55313 33.8642 1.51089 34.0635 1.48424C35.6064 1.27852 37.1419 2.09403 37.8151 3.54961L43.3087 15.4535L47.7609 25.1L51.2911 32.7499C52.2058 34.7318 51.1662 37.0663 49.0797 37.7128L48.0585 38.0287L47.491 38.2051L46.3706 38.5522L22.6161 45.9028C22.5261 45.9303 22.437 45.9607 22.3498 45.9946C21.043 46.4951 20.0502 47.5963 19.6948 48.9619L19.5818 49.3944C19.1015 51.243 20.829 52.9062 22.6583 52.3552C22.6583 52.3552 22.6583 52.3552 22.6593 52.3543L43.542 46.0662C44.9149 45.6539 45.9646 44.5436 46.3008 43.1495L46.6553 41.6764L46.7507 41.2815L47.052 40.0289L47.3082 40.5827L48.4185 42.9897C49.3332 44.9716 48.2927 47.307 46.2071 47.9526L46.1244 47.9783L22.5528 55.2729C22.213 55.3775 21.8704 55.4519 21.527 55.496C18.916 55.8368 16.3207 54.4537 15.1838 51.9907Z" fill="#FFC107"/>
<g opacity="0.55">
<path opacity="0.55" d="M13.6828 40.1357C13.376 39.3315 12.738 38.8281 12.2577 39.0113C11.7774 39.1945 11.6368 39.995 11.9435 40.7992C12.2503 41.6034 12.8884 42.1068 13.3687 41.9236C13.849 41.7404 13.9896 40.94 13.6828 40.1357Z" fill="white"/>
</g>
<g opacity="0.55">
<path opacity="0.55" d="M6.84694 23.3314C6.54016 22.5272 5.90211 22.0238 5.42181 22.207C4.94151 22.3902 4.80084 23.1907 5.10762 23.9949C5.41439 24.7991 6.05245 25.3025 6.53275 25.1193C7.01305 24.9361 7.15371 24.1356 6.84694 23.3314Z" fill="white"/>
</g>
<g opacity="0.55">
<path opacity="0.55" d="M47.3078 40.5831L46.7504 41.282L46.6549 41.6769L47.4382 43.4338C48.2106 45.1061 47.5897 47.031 46.124 47.9787L46.2067 47.953C48.2923 47.3074 49.3328 44.972 48.4181 42.9902L47.3078 40.5831Z" fill="white"/>
</g>
<g opacity="0.55">
<path opacity="0.55" d="M22.3488 45.995L21.3598 46.3008C19.9225 46.7462 18.8177 47.9025 18.4384 49.3599L18.3255 49.7925C17.8452 51.6411 19.5726 53.3043 21.402 52.7533L22.7685 52.3419C22.7318 52.3474 22.6959 52.352 22.6583 52.3547C22.6592 52.3556 22.6574 52.3556 22.6574 52.3556C20.828 52.9066 19.1006 51.2435 19.5809 49.3948L19.6938 48.9622C20.0492 47.5966 21.0419 46.4955 22.3488 45.995Z" fill="white"/>
</g>
<g opacity="0.55">
<path opacity="0.55" d="M34.063 1.4846C34.0171 1.49564 33.9721 1.50943 33.9271 1.52317L32.8535 1.87672C34.3808 1.69215 35.8924 2.50582 36.5591 3.94766L50.0352 33.148C50.915 35.0546 49.9875 37.2862 48.058 38.0291L49.0792 37.7132C51.1657 37.0666 52.2053 34.7322 51.2906 32.7503L37.8145 3.55002C37.1414 2.09444 35.6059 1.27891 34.063 1.4846Z" fill="white"/>
</g>
<path d="M3.40687 11.9516C4.34479 11.0137 5.50516 10.3048 6.79646 9.90527L33.3259 1.18324C33.3284 1.18231 33.3309 1.18159 33.3335 1.18076C35.2717 0.580678 37.3755 1.51727 38.2271 3.35928L51.7033 32.5599C52.1942 33.6232 52.2024 34.8469 51.7259 35.9169C51.2492 36.9874 50.3334 37.8005 49.2137 38.1474L46.5045 38.9868L22.75 46.3374C21.4539 46.7389 20.476 47.763 20.1342 49.0767L20.0211 49.5097C19.8376 50.2163 20.0422 50.9411 20.5688 51.4479C21.0953 51.9544 21.8271 52.1311 22.5267 51.9204L43.4103 45.6314C44.6234 45.267 45.5613 44.2754 45.8582 43.0434L46.6094 39.923C46.6547 39.7346 46.8142 39.596 47.0068 39.577C47.1995 39.558 47.383 39.6632 47.4641 39.8389L48.8306 42.7997C49.3215 43.8632 49.3295 45.0871 48.8527 46.1575C48.3756 47.2279 47.4603 48.0406 46.341 48.3873L22.6866 55.7075C19.5492 56.6786 16.1461 55.1627 14.7704 52.1815C14.7681 52.1764 14.7659 52.1714 14.7638 52.1662L1.8831 21.3164C1.80103 21.1562 1.72282 20.9901 1.65061 20.8223C0.7495 18.7261 0.78547 16.4183 1.75206 14.3238C2.16314 13.433 2.72649 12.6319 3.40687 11.9516ZM33.6058 2.04816L7.07279 10.7712C5.08314 11.387 3.44741 12.8198 2.57752 14.7047C1.72054 16.562 1.68796 18.607 2.48586 20.463C2.55222 20.6172 2.62416 20.7698 2.69974 20.9165C2.70537 20.9272 2.71048 20.9382 2.71511 20.9495L15.5994 51.808C16.787 54.3721 19.7168 55.6751 22.4178 54.8391L46.0721 47.5188C46.9411 47.2498 47.6522 46.6187 48.0221 45.7875C48.3924 44.9564 48.3862 44.0063 48.0052 43.1806L47.1871 41.408L46.7421 43.2564C46.3696 44.8015 45.1932 46.0451 43.6722 46.502L22.7888 52.791C21.7705 53.0977 20.7049 52.8404 19.9384 52.1029C19.1718 51.3651 18.8738 50.3101 19.1413 49.2805L19.2544 48.8474C19.676 47.2276 20.882 45.9645 22.481 45.469L48.9446 37.2791C49.8143 37.0097 50.5251 36.3781 50.8954 35.5471C51.2653 34.7163 51.2589 33.7664 50.8778 32.941L37.4017 3.74052C36.7412 2.31166 35.1098 1.58442 33.6058 2.04816Z" fill="white" stroke="white"/>
<g opacity="0.3">
<path opacity="0.3" d="M24.6345 41.2745L46.2812 34.4407C47.0672 34.1926 47.4578 33.3118 47.1141 32.5626L35.1055 6.39318C34.8128 5.75544 34.0856 5.44184 33.4209 5.6668L11.9696 12.9264C11.1995 13.187 10.8244 14.0569 11.1635 14.7957L22.9767 40.5394C23.2648 41.1674 23.9755 41.4826 24.6345 41.2745Z" fill="black"/>
</g>
<path d="M47.4904 38.2054L46.37 38.5526L22.6156 45.9032C21.1783 46.3486 20.0735 47.5048 19.6943 48.9623L19.5813 49.3948C19.101 51.2435 20.8284 52.9067 22.6578 52.3556L43.5414 46.0667C44.9144 45.6543 45.9641 44.544 46.3002 43.1499L47.0514 40.0293L47.4904 38.2054Z" fill="white"/>
<path d="M20.7807 46.9367C21.278 46.4393 21.8965 46.0616 22.5973 45.8444L47.5753 38.1147L46.3598 43.1643C46.0201 44.5738 44.9469 45.7086 43.5589 46.1256L22.6754 52.4145C21.7948 52.6798 20.8735 52.4574 20.2109 51.8196C19.5481 51.1817 19.2904 50.2695 19.5217 49.3793L19.6346 48.9467C19.837 48.1693 20.2362 47.4811 20.7807 46.9367ZM47.4053 38.2962L46.388 38.6114L22.6336 45.962C21.2066 46.4042 20.13 47.5316 19.7536 48.9778L19.6407 49.4104C19.4207 50.2569 19.6658 51.1244 20.2961 51.7311C20.9263 52.3376 21.8025 52.5491 22.6399 52.2969L43.5236 46.0079C44.8697 45.6035 45.9106 44.5029 46.2403 43.1356L47.4053 38.2962Z" fill="white"/>
<g opacity="0.3">
<path opacity="0.3" d="M47.4904 38.2054L46.37 38.5526L22.6156 45.9032C21.1783 46.3486 20.0735 47.5048 19.6943 48.9623L19.5813 49.3948C19.101 51.2435 20.8284 52.9067 22.6578 52.3556L26.245 51.2756C24.5717 51.5034 23.1152 49.9476 23.5606 48.2312L23.6735 47.7987C24.0528 46.3413 25.1576 45.185 26.5949 44.7396L47.472 38.2789L47.4904 38.2054Z" fill="white"/>
</g>
<path d="M20.5023 46.6585C21.0439 46.1169 21.7176 45.7056 22.4808 45.469L47.3556 37.7712C47.5118 37.7228 47.6819 37.762 47.8012 37.8738C47.9204 37.9858 47.9704 38.1529 47.9321 38.3118L46.7419 43.2564C46.3694 44.8016 45.193 46.0452 43.672 46.5021L22.7886 52.7909C21.7703 53.0977 20.7047 52.8405 19.9382 52.1029C19.1716 51.3651 18.8736 50.3101 19.1412 49.2806L19.2542 48.8475C19.4745 48.0008 19.9093 47.2515 20.5023 46.6585ZM46.8612 38.8762L46.5043 38.9868L22.7498 46.3374C21.4537 46.739 20.4758 47.763 20.134 49.0767L20.0209 49.5097C19.8374 50.2163 20.042 50.9411 20.5686 51.4478C21.095 51.9544 21.827 52.1311 22.5265 51.9203L43.4101 45.6314C44.6233 45.2671 45.5611 44.2754 45.8581 43.0434L46.8612 38.8762Z" fill="white"/>
<g opacity="0.3">
<path opacity="0.3" d="M5.96341 13.1706C5.8106 12.8431 5.3922 12.7348 5.10576 12.9553C5.1039 12.9567 5.1021 12.9581 5.10021 12.9595C2.4333 15.0258 1.28991 18.7002 2.70144 21.9834C2.77213 22.1478 2.84834 22.3085 2.92918 22.4646L15.5209 52.6247C16.7827 54.6873 19.1484 55.8059 21.5261 55.4964C21.5362 55.4899 21.5399 55.4863 21.5399 55.4863C17.038 55.3302 14.2076 50.3269 19.3569 44.5568C19.8519 44.0031 19.9759 43.2105 19.6609 42.5373L5.96341 13.1706Z" fill="black"/>
</g>
<path d="M14.0315 40.1361C13.7247 39.3319 13.0866 38.8284 12.6063 39.0116C12.1261 39.1949 11.9854 39.9953 12.2922 40.7996C12.599 41.6038 13.237 42.1072 13.7173 41.924C14.1976 41.7408 14.3382 40.9403 14.0315 40.1361Z" fill="white"/>
<path d="M7.19361 23.3314C6.88683 22.5272 6.24877 22.0237 5.76847 22.2069C5.28817 22.3902 5.14751 23.1906 5.45429 23.9949C5.76107 24.7991 6.39913 25.3025 6.87943 25.1193C7.35973 24.9361 7.50039 24.1356 7.19361 23.3314Z" fill="white"/>
<path d="M40.1944 43.7827L33.0449 46.0042L36.8935 54.3499C37.0989 54.7953 37.7015 54.8683 38.0072 54.4847L40.018 51.962L43.145 52.7253C43.6809 52.8562 44.1308 52.3098 43.8995 51.809L40.2118 43.8204L40.1944 43.7827Z" fill="#FF4229"/>
<g opacity="0.55">
<path opacity="0.55" d="M40.1248 43.9072L33.3408 46.0149L33.384 46.1113L39.2652 44.2838L43.1444 52.6632L44.2988 52.9452L40.1248 43.9072Z" fill="white"/>
</g>
<path d="M32.723 45.6834C32.7745 45.6319 32.8383 45.5928 32.9095 45.5707L40.0593 43.3494C40.277 43.2818 40.5113 43.3859 40.6068 43.593L44.4729 51.9671C44.6236 52.2936 44.5753 52.6689 44.3467 52.9466C44.118 53.2242 43.759 53.3438 43.4097 53.2584L40.1918 52.4732L38.175 55.0025C37.9733 55.2563 37.6595 55.3844 37.3373 55.3454C37.015 55.3064 36.7417 55.1071 36.6058 54.8123L32.6316 46.1953C32.5768 46.0763 32.5759 45.9396 32.6291 45.82C32.652 45.7685 32.684 45.7224 32.723 45.6834ZM39.9485 44.3358L33.6743 46.2851L37.4314 54.4316C37.4337 54.4368 37.4359 54.4415 37.4466 54.4428C37.4576 54.4441 37.4612 54.4394 37.4643 54.4357L39.6622 51.6793C39.7724 51.5415 39.9533 51.4791 40.1253 51.5211L43.6253 52.3752C43.6329 52.377 43.6363 52.3783 43.645 52.3687C43.6526 52.3593 43.6508 52.3553 43.6476 52.3482L39.9485 44.3358Z" fill="white"/>
<path d="M42.5262 43.1692C42.114 43.6504 41.6094 43.8311 41.1035 44.0069C40.5988 44.1868 40.0893 44.3512 39.5775 44.5077C38.5513 44.8125 37.5147 45.0825 36.492 45.3987L34.9568 45.869C34.4458 46.0281 33.9313 46.1756 33.4249 46.3505C32.9201 46.5304 32.407 46.6868 31.8735 46.7704C31.3409 46.8575 30.8 46.9152 30.2323 46.8758C30.1936 46.8731 30.1645 46.8397 30.1672 46.801C30.1687 46.7795 30.18 46.7608 30.1961 46.749C30.6573 46.4161 31.1453 46.1802 31.6416 45.9736C31.8897 45.8703 32.142 45.7813 32.3984 45.7068C32.6544 45.6307 32.9163 45.575 33.1739 45.5029C33.6906 45.3644 34.1992 45.1985 34.7112 45.0442L36.2452 44.5744C37.2686 44.2638 38.2781 43.9071 39.298 43.585C39.8092 43.4281 40.3228 43.2792 40.8412 43.1457C41.3583 43.0081 41.8768 42.8754 42.4877 43.0432C42.5292 43.0545 42.5537 43.0975 42.5423 43.1391C42.5391 43.1505 42.5333 43.1608 42.5262 43.1692Z" fill="#44464E"/>
<g opacity="0.3">
<path opacity="0.3" d="M37.6391 54.4934C37.6391 54.4934 34.6148 46.6966 40.3429 44.3798L39.9306 43.9675L33.2227 45.9501L37.0306 54.7542L37.6391 54.4934Z" fill="white"/>
</g>
</svg>
