<svg width="101" height="100" viewBox="0 0 101 100" fill="none" xmlns="http://www.w3.org/2000/svg">
<path d="M32.1064 27.4807L59.4993 22.5002C62.8349 21.8937 64.5569 24.2474 65.001 25.5001L69.501 42.0001L73.999 57.0001C74.9971 60.3283 74.5 59 74.5 59.5C74.5 59.9091 71.711 60.8762 69.9667 61.3056C69.4356 61.4363 69.0495 61.9369 69.1099 62.4805L69.501 66.0001C69.501 68.4001 67.8343 69.3333 67.001 69.4999L64.3379 70.2605C63.8573 70.3978 63.5518 70.8689 63.6226 71.3637L63.7951 72.5684C63.8941 73.2604 63.2707 73.8379 62.5883 73.6863L59.9874 73.1084C59.6801 73.0401 59.3586 73.1205 59.1196 73.3254L57.0853 75.0695C56.558 75.5215 55.7419 75.3117 55.4981 74.6615L54.7865 72.7638C54.6197 72.3192 54.1657 72.0528 53.6965 72.1263C50.252 72.6661 43.9522 73.6309 41 73.9999C37.8 74.3999 35.6667 71.1666 35 69.4999C32.3331 59.9999 26.8993 39.8999 26.4993 35.4999C26.1057 31.1705 29.876 28.4224 31.9026 27.5415C31.9684 27.5129 32.0358 27.4935 32.1064 27.4807Z" fill="white" stroke="white" stroke-width="2" stroke-linecap="square" stroke-linejoin="bevel"/>
<path d="M35.8854 68.5714L27.9602 37.8246C27.9054 37.667 27.8556 37.5057 27.8114 37.3416C26.9302 34.0658 28.5023 30.7685 31.288 29.1886C32.0371 28.7638 32.8749 28.4636 33.7763 28.3206L47.0458 25.983L52.6038 25.0037L59.8906 23.7198C60.0845 23.6887 60.2765 23.6759 60.4674 23.6779C61.9448 23.6937 63.277 24.6679 63.7122 26.1267L67.2605 38.0551L70.1362 47.7215L72.4163 55.3872C73.0071 57.3731 71.714 59.4255 69.6661 59.7502L68.6638 59.9086L68.1067 59.9974L67.007 60.1717L43.6932 63.8588C43.6049 63.8725 43.5171 63.8889 43.4305 63.909C42.1349 64.2021 41.053 65.1021 40.534 66.337L40.3692 66.728C39.6675 68.3998 41.0651 70.1965 42.8585 69.9267C42.8585 69.9267 42.8585 69.9267 42.8595 69.926L63.3313 66.848C64.6771 66.6467 65.8138 65.7457 66.3185 64.4815L66.8511 63.1456L66.9944 62.7875L67.4471 61.6514L67.6128 62.2065L68.3298 64.6184C68.9206 66.6043 67.6266 68.6575 65.5796 68.9814L65.4985 68.9944L42.3639 72.6536C42.0305 72.7059 41.6985 72.7293 41.3699 72.7242C38.8707 72.6906 36.6198 71.0395 35.8854 68.5714Z" fill="#FFC107"/>
<g opacity="0.55">
<path opacity="0.55" d="M35.5481 58.8681C36.0242 58.7611 36.2649 58.0281 36.0857 57.2309C35.9065 56.4337 35.3752 55.8742 34.8991 55.9813C34.4231 56.0883 34.1824 56.8213 34.3616 57.6185C34.5408 58.4157 35.0721 58.9752 35.5481 58.8681Z" fill="white"/>
</g>
<g opacity="0.55">
<path opacity="0.55" d="M31.4017 42.1529C31.8778 42.0459 32.1185 41.3129 31.9392 40.5157C31.76 39.7185 31.2288 39.159 30.7527 39.266C30.2766 39.3731 30.0359 40.1061 30.2151 40.9033C30.3943 41.7005 30.9256 42.2599 31.4017 42.1529Z" fill="white"/>
</g>
<g opacity="0.55">
<path opacity="0.55" d="M67.6124 62.2068L66.9939 62.7879L66.8507 63.1459L67.3486 64.9027C67.8476 66.5785 67.0035 68.3029 65.498 68.9947L65.5791 68.9817C67.6261 68.6578 68.9202 66.6047 68.3293 64.6187L67.6124 62.2068Z" fill="white"/>
</g>
<g opacity="0.55">
<path opacity="0.55" d="M43.4302 63.9093L42.4595 64.0626C41.0488 64.2863 39.8542 65.2228 39.3003 66.5408L39.1356 66.9318C38.4338 68.6036 39.8314 70.4003 41.6248 70.1305L42.9645 69.9291C42.9292 69.9293 42.8949 69.9288 42.8592 69.9263C42.8599 69.9272 42.8582 69.927 42.8582 69.927C41.0648 70.1968 39.6672 68.4001 40.369 66.7283L40.5337 66.3373C41.0526 65.1024 42.1346 64.2024 43.4302 63.9093Z" fill="white"/>
</g>
<g opacity="0.55">
<path opacity="0.55" d="M60.4671 23.6782C60.4225 23.6824 60.3783 23.6892 60.3342 23.696L59.2776 23.8827C60.7375 23.9163 62.0475 24.8856 62.4785 26.3305L71.1827 55.591C71.7509 57.5015 70.577 59.4724 68.6636 59.909L69.6658 59.7505C71.7138 59.4259 73.0068 57.3734 72.416 55.3875L63.7119 26.1271C63.2767 24.6683 61.9445 23.694 60.4671 23.6782Z" fill="white"/>
</g>
<path d="M33.8598 28.795L33.859 28.7951C31.9202 29.1018 30.2016 30.2183 29.1367 31.8594C28.0875 33.4765 27.7822 35.3788 28.2766 37.2168C28.3177 37.3695 28.3643 37.5216 28.4151 37.6685L28.3678 37.6848M33.8598 28.795L28.4262 37.7054C28.4245 37.6989 28.4227 37.6923 28.4207 37.6858C28.4189 37.6799 28.417 37.674 28.415 37.6682L28.3678 37.6848M33.8598 28.795L59.9693 24.1951C59.9694 24.1951 59.9695 24.1951 59.9696 24.1951C61.4206 23.9673 62.8308 24.8565 63.2506 26.2644C63.2506 26.2644 63.2506 26.2644 63.2506 26.2644L71.9548 55.5249L72.0027 55.5106L71.9548 55.5249C72.1968 56.3383 72.0761 57.2166 71.6237 57.9348C71.1709 58.6533 70.43 59.142 69.5907 59.275C69.5907 59.275 69.5907 59.275 69.5907 59.275L43.6178 63.3835L43.6256 63.4329L43.6178 63.3835C42.0312 63.6351 40.7125 64.6698 40.0902 66.1504L39.9253 66.542L39.9253 66.542C39.5274 67.4898 39.667 68.5405 40.2984 69.3517C40.9296 70.1628 41.9138 70.5561 42.9301 70.4033L63.4025 67.3245L33.8598 28.795ZM28.3678 37.6848C28.3167 37.5368 28.2698 37.3836 28.2283 37.2298L65.5121 68.5556L42.2964 72.2277C39.6455 72.6472 37.0695 71.026 36.3011 68.4561L28.3777 37.7179C28.3749 37.7067 28.3716 37.6956 28.3678 37.6848ZM59.8154 23.2445L59.8151 23.2445L35.4675 68.6793C35.4688 68.6845 35.4702 68.6896 35.4717 68.6946L35.4238 68.7089C35.4238 68.7089 35.4238 68.7089 35.4238 68.7089C36.3194 71.7203 39.3352 73.6206 42.4391 73.1295L65.6548 69.4574L65.647 69.408L65.6548 69.4574C66.7677 69.2811 67.7503 68.6333 68.3513 67.68L68.309 67.6534L68.3513 67.68C68.952 66.7268 69.1124 65.5609 68.7912 64.4814L67.9086 61.5146L67.8606 61.5288C67.8082 61.3527 67.6501 61.229 67.4665 61.2208L67.4687 61.1708C67.4687 61.1708 67.4687 61.1708 67.4687 61.1708C67.264 61.1616 67.0758 61.2828 66.9998 61.4735L65.8712 64.3033C65.8712 64.3033 65.8712 64.3033 65.8712 64.3033C65.4318 65.4041 64.4312 66.1969 63.2597 66.3722L63.2597 66.3722L42.7869 69.4509L42.7943 69.5003L42.7869 69.4509C42.1189 69.5514 41.4731 69.2934 41.0583 68.7604C40.6433 68.2271 40.5518 67.5376 40.813 66.9152L40.9779 66.5239L40.9779 66.5238C41.4704 65.3519 42.5134 64.5336 43.7684 64.3347L67.0824 60.6476L67.0824 60.6476L69.7415 60.2261C70.8546 60.0497 71.8379 59.4015 72.4384 58.4482C73.0388 57.4952 73.1989 56.3296 72.8778 55.2503L64.1735 25.9895L64.1735 25.9895C63.6159 24.1195 61.7425 22.9394 59.8154 23.2445ZM27.4984 37.9642L35.419 68.6914L59.8158 23.2952L59.8071 23.2459L59.8065 23.246C59.8062 23.2461 59.8059 23.2461 59.8056 23.2462L33.7011 27.8453C33.7009 27.8453 33.7008 27.8454 33.7006 27.8454C32.4253 28.0471 31.2316 28.5591 30.217 29.3179C29.481 29.8684 28.8391 30.549 28.3289 31.3352C27.1293 33.1838 26.7803 35.3617 27.3466 37.4671L27.3949 37.4541L27.3466 37.4672C27.3919 37.635 27.4429 37.8021 27.4984 37.9642ZM36.349 68.4418L28.4262 37.7058L63.4026 67.3245C64.9111 67.0988 66.1997 66.078 66.7656 64.6603L66.7192 64.6417L66.7656 64.6602L67.3809 63.1177L67.8682 64.756C68.1102 65.5695 67.9894 66.4482 67.5365 67.1666L67.5365 67.1666C67.084 67.8852 66.343 68.3735 65.5043 68.5062L42.2886 72.1784C39.6628 72.5938 37.1109 70.9881 36.3493 68.4427C36.3492 68.4424 36.3491 68.4421 36.349 68.4418Z" fill="white" stroke="white" stroke-width="0.1"/>
<g opacity="0.3">
<path opacity="0.3" d="M46.2173 59.7841L67.4809 56.2969C68.253 56.1703 68.7393 55.3956 68.5179 54.6453L60.7818 28.4313C60.5933 27.7924 59.9525 27.3993 59.2976 27.5205L38.1598 31.4342C37.4011 31.5747 36.9307 32.3411 37.1492 33.0812L44.7594 58.8687C44.945 59.4978 45.5701 59.8902 46.2173 59.7841Z" fill="black"/>
</g>
<path d="M68.1069 59.9979L67.0073 60.1722L43.6934 63.8593C42.2828 64.083 41.0881 65.0196 40.5343 66.3375L40.3695 66.7286C39.6678 68.4004 41.0653 70.197 42.8587 69.9273L63.3315 66.8486C64.6774 66.6472 65.814 65.7463 66.3187 64.4821L67.4474 61.652L68.1069 59.9979Z" fill="white"/>
<path d="M41.8294 64.5814C42.3641 64.1816 42.9963 63.9105 43.6841 63.8015L68.1989 59.924L66.3727 64.5035C65.8625 65.7817 64.7004 66.7024 63.34 66.9061L42.8672 69.9847C42.004 70.1147 41.1685 69.7808 40.6324 69.0918C40.0961 68.4028 39.9776 67.5108 40.3155 66.7058L40.4802 66.3147C40.7757 65.6116 41.2441 65.0192 41.8294 64.5814ZM68.0146 60.0714L67.0162 60.2297L43.7024 63.9168C42.3017 64.1389 41.1374 65.0522 40.5878 66.3599L40.4232 66.751C40.1018 67.5166 40.2145 68.3648 40.7244 69.0202C41.2344 69.6754 42.0289 69.9929 42.8499 69.8694L63.3227 66.7907C64.6422 66.5932 65.7693 65.7002 66.2643 64.4602L68.0146 60.0714Z" fill="white"/>
<g opacity="0.3">
<path opacity="0.3" d="M68.1068 59.9977L67.0071 60.172L43.6933 63.8591C42.2826 64.0829 41.0879 65.0194 40.5341 66.3373L40.3693 66.7284C39.6676 68.4002 41.0651 70.1968 42.8586 69.9271L46.3751 69.3984C44.7722 69.3857 43.6146 67.7267 44.2656 66.1744L44.4304 65.7833C44.9842 64.4654 46.1789 63.5288 47.5896 63.3051L68.0796 60.0642L68.1068 59.9977Z" fill="white"/>
</g>
<path d="M41.6057 64.2824C42.1879 63.8469 42.8766 63.5518 43.6258 63.4329L68.0393 59.5715C68.1926 59.5472 68.3471 59.6071 68.444 59.7283C68.5408 59.8496 68.5652 60.0134 68.5077 60.1575L66.7193 64.6417C66.16 66.043 64.8863 67.052 63.3953 67.2751L42.9228 70.3538C41.9244 70.504 40.9582 70.1179 40.338 69.321C39.7177 68.524 39.5807 67.4924 39.9716 66.5614L40.1365 66.1698C40.4582 65.4042 40.9682 64.7592 41.6057 64.2824ZM67.425 60.5427L67.0748 60.5982L43.7608 64.2852C42.4887 64.4869 41.4312 65.3165 40.932 66.5045L40.7671 66.8959C40.4989 67.5349 40.5929 68.2436 41.019 68.7911C41.445 69.3383 42.1087 69.6035 42.7945 69.5003L63.2673 66.4216C64.4564 66.2438 65.4719 65.4391 65.9179 64.3219L67.425 60.5427Z" fill="white"/>
<g opacity="0.3">
<path opacity="0.3" d="M32.4839 30.8497C32.3847 30.5213 32.0063 30.3628 31.7073 30.5311C31.7054 30.5322 31.7035 30.5333 31.7015 30.5344C28.9159 32.1144 27.3438 35.4116 28.225 38.6875C28.2692 38.8515 28.319 39.0128 28.3738 39.1705L36.1169 69.2127C37.023 71.3216 39.094 72.6931 41.3698 72.7245C41.3802 72.7198 41.3841 72.7169 41.3841 72.7169C37.1757 71.9602 35.1945 66.876 40.8142 62.1526C41.3543 61.6994 41.5782 60.9716 41.3735 60.2965L32.4839 30.8497Z" fill="black"/>
</g>
<path d="M35.8743 58.9152C36.3504 58.8082 36.5911 58.0752 36.4119 57.278C36.2326 56.4808 35.7014 55.9213 35.2253 56.0284C34.7492 56.1354 34.5086 56.8684 34.6878 57.6656C34.867 58.4628 35.3982 59.0223 35.8743 58.9152Z" fill="white"/>
<path d="M31.7279 42.2C32.204 42.093 32.4446 41.36 32.2654 40.5628C32.0862 39.7656 31.5549 39.2061 31.0788 39.3132C30.6027 39.4202 30.3621 40.1532 30.5413 40.9504C30.7205 41.7476 31.2518 42.3071 31.7279 42.2Z" fill="white"/>
<path d="M60.4957 64.2489L53.4776 65.3673L55.9625 73.7297C56.0951 74.176 56.6514 74.3262 56.9906 74.0073L59.2217 71.9096L62.056 73.0505C62.5418 73.2461 63.0385 72.7938 62.8892 72.2918L60.507 64.2866L60.4957 64.2489Z" fill="#FF4229"/>
<g opacity="0.55">
<path opacity="0.55" d="M60.4133 64.3565L53.7541 65.4174L53.7815 65.5139L59.5547 64.5938L62.0638 72.9921L63.1102 73.4135L60.4133 64.3565Z" fill="white"/>
</g>
<path d="M53.2185 65.0222C53.2739 64.9807 53.3391 64.9527 53.409 64.9415L60.4274 63.8235C60.6411 63.7894 60.8471 63.919 60.9088 64.1266L63.4062 72.5181C63.5036 72.8453 63.4074 73.1913 63.155 73.4212C62.9025 73.651 62.549 73.7147 62.2323 73.5872L59.3155 72.4134L57.078 74.5164C56.854 74.7275 56.5418 74.8054 56.2444 74.7251C55.947 74.6447 55.7171 74.4205 55.6294 74.1251L53.0632 65.4907C53.0279 65.3715 53.0456 65.2429 53.1118 65.1377C53.1403 65.0925 53.1766 65.0535 53.2185 65.0222ZM60.1896 64.7352L54.0307 65.7164L56.4566 73.8793C56.4581 73.8845 56.4595 73.8893 56.4695 73.8919C56.4796 73.8946 56.4837 73.8907 56.487 73.8876L58.9255 71.5957C59.0477 71.4812 59.2261 71.4471 59.382 71.5098L62.5546 72.7866C62.5615 72.7894 62.5646 72.791 62.5739 72.7832C62.5825 72.7754 62.5812 72.7714 62.5792 72.7643L60.1896 64.7352Z" fill="white"/>
<path d="M62.7696 63.9886C62.3171 64.3848 61.8185 64.4861 61.3193 64.5828C60.8208 64.6834 60.3199 64.7689 59.8178 64.8466C58.8123 64.9938 57.8019 65.107 56.7982 65.2655L55.2921 65.4993C54.7904 65.5796 54.2871 65.6485 53.7876 65.7442C53.2889 65.8448 52.7857 65.9222 52.2731 65.9284C51.7609 65.9381 51.2449 65.919 50.7169 65.8051C50.6809 65.7973 50.6581 65.7619 50.6658 65.726C50.6701 65.706 50.6833 65.6899 50.7001 65.681C51.1784 65.4307 51.6689 65.2752 52.1632 65.1484C52.4103 65.085 52.6593 65.0355 52.9104 65.0003C53.1612 64.9635 53.4148 64.9467 53.6667 64.9138C54.1708 64.8537 54.6711 64.7668 55.1731 64.6912L56.6779 64.4576C57.6816 64.3045 58.6784 64.1062 59.6802 63.9418C60.1818 63.8636 60.6845 63.7933 61.1896 63.7382C61.6941 63.679 62.1992 63.6245 62.7504 63.8649C62.7879 63.8812 62.8051 63.925 62.7887 63.9625C62.7842 63.9727 62.7774 63.9817 62.7696 63.9886Z" fill="white"/>
<g opacity="0.3">
<path opacity="0.3" d="M47.7136 28.9892C47.7087 28.9806 47.7025 28.9744 47.6984 28.9668L47.1727 26.5287L47.0806 26.0988L47.0463 25.9829L52.6043 25.0036C52.6129 25.011 52.6215 25.0185 52.6301 25.0259L67.261 38.055L70.1367 47.7214C69.2158 47.9268 68.2118 47.7001 67.4533 47.0235L66.3564 46.0426C66.073 46.1083 65.7681 46.0362 65.541 45.8334L65.1859 45.5171C64.9519 45.3072 64.8527 45.0119 64.8839 44.7284L48.2572 29.9219C47.9866 29.6795 47.7997 29.3575 47.7136 28.9892Z" fill="#868686"/>
</g>
<g opacity="0.3">
<path opacity="0.3" d="M56.6437 73.9656C56.6437 73.9656 54.8589 66.2306 60.5544 64.8301L60.2229 64.3869L53.652 65.3406L56.0367 74.1282L56.6437 73.9656Z" fill="white"/>
</g>
</svg>
