<svg width="181" height="183" viewBox="0 0 181 183" fill="none" xmlns="http://www.w3.org/2000/svg">
<path fill-rule="evenodd" clip-rule="evenodd" d="M20.5098 182.506C27.8681 167.101 38.1056 153.964 50.2799 143.446C63.3525 132.153 78.6575 123.882 95.0271 119.063C95.0573 119.049 95.0876 119.035 95.12 119.024C96.1896 118.671 97.1685 118.243 98.0571 117.753L99.4185 118.402C98.3048 119.097 97.0442 119.694 95.6404 120.168C95.5993 120.191 95.554 120.21 95.5068 120.224C79.2587 124.985 64.0659 133.185 51.0941 144.391C39.1959 154.672 29.1642 167.487 21.8996 182.506H20.5098ZM119.004 30.9431C127.009 28.869 135.787 29.6832 143.65 33.8964C150.232 37.4237 155.187 42.8039 158.214 49.0477C161.31 55.4369 162.389 62.731 161.128 69.8707C161.126 69.8922 161.123 69.9126 161.119 69.9341C160.784 72.6642 161.038 75.037 161.76 76.9185C162.385 78.5466 163.359 79.8004 164.6 80.586C165.606 81.2227 166.795 81.5558 168.121 81.5354L167.531 82.773C166.196 82.6994 164.985 82.3096 163.933 81.6438C162.463 80.7136 161.317 79.2502 160.594 77.3649C159.805 75.3071 159.52 72.7401 159.876 69.814C159.876 69.7808 159.88 69.746 159.886 69.712C161.116 62.8168 160.081 55.7674 157.088 49.5942C154.173 43.5811 149.401 38.3992 143.059 35.0011C135.146 30.7603 126.274 30.0938 118.291 32.4394L119.004 30.9431Z" fill="#5F626F"/>
<path fill-rule="evenodd" clip-rule="evenodd" d="M24.836 180.706C40.658 147.508 69.5346 124.751 102.39 115.633L102.373 115.626C114.103 111.944 115.928 99.5584 105.723 93.1677L105.726 93.1662C91.3289 84.0472 85.6874 65.4014 93.2039 49.6308C101.322 32.5991 121.71 25.373 138.741 33.4904C152.432 40.016 159.785 54.4697 157.927 68.735L157.93 68.7343C157.103 79.4386 164.577 84.801 173.391 77.8268L173.388 77.8328C175.611 75.9321 177.962 74.2081 180.417 72.6672V182.506H23.9961C24.2703 181.905 24.5505 181.305 24.836 180.706Z" fill="#5F626F"/>
<path d="M1.31753 146.146C1.73614 146.146 2.07549 145.807 2.07549 145.388C2.07549 144.969 1.73614 144.63 1.31753 144.63C0.898921 144.63 0.55957 144.969 0.55957 145.388C0.55957 145.807 0.898921 146.146 1.31753 146.146Z" fill="#5F626F"/>
<path d="M1.31753 149.841C1.73614 149.841 2.07549 149.502 2.07549 149.083C2.07549 148.665 1.73614 148.325 1.31753 148.325C0.898921 148.325 0.55957 148.665 0.55957 149.083C0.55957 149.502 0.898921 149.841 1.31753 149.841Z" fill="#5F626F"/>
<path d="M1.31753 153.537C1.73614 153.537 2.07549 153.197 2.07549 152.779C2.07549 152.36 1.73614 152.021 1.31753 152.021C0.898921 152.021 0.55957 152.36 0.55957 152.779C0.55957 153.197 0.898921 153.537 1.31753 153.537Z" fill="#5F626F"/>
<path d="M1.31753 157.232C1.73614 157.232 2.07549 156.893 2.07549 156.474C2.07549 156.056 1.73614 155.716 1.31753 155.716C0.898921 155.716 0.55957 156.056 0.55957 156.474C0.55957 156.893 0.898921 157.232 1.31753 157.232Z" fill="#5F626F"/>
<path d="M1.31753 160.927C1.73614 160.927 2.07549 160.588 2.07549 160.17C2.07549 159.751 1.73614 159.412 1.31753 159.412C0.898921 159.412 0.55957 159.751 0.55957 160.17C0.55957 160.588 0.898921 160.927 1.31753 160.927Z" fill="#5F626F"/>
<path d="M1.31813 164.623C1.73653 164.623 2.07571 164.284 2.07571 163.866C2.07571 163.447 1.73653 163.108 1.31813 163.108C0.899729 163.108 0.560547 163.447 0.560547 163.866C0.560547 164.284 0.899729 164.623 1.31813 164.623Z" fill="#5F626F"/>
<path d="M1.31753 168.319C1.73614 168.319 2.07549 167.98 2.07549 167.561C2.07549 167.143 1.73614 166.803 1.31753 166.803C0.898921 166.803 0.55957 167.143 0.55957 167.561C0.55957 167.98 0.898921 168.319 1.31753 168.319Z" fill="#5F626F"/>
<path d="M1.31753 172.015C1.73614 172.015 2.07549 171.675 2.07549 171.257C2.07549 170.838 1.73614 170.499 1.31753 170.499C0.898921 170.499 0.55957 170.838 0.55957 171.257C0.55957 171.675 0.898921 172.015 1.31753 172.015Z" fill="#5F626F"/>
<path d="M5.00698 146.146C5.4256 146.146 5.76495 145.807 5.76495 145.388C5.76495 144.969 5.4256 144.63 5.00698 144.63C4.58837 144.63 4.24902 144.969 4.24902 145.388C4.24902 145.807 4.58837 146.146 5.00698 146.146Z" fill="#5F626F"/>
<path d="M5.00698 149.841C5.4256 149.841 5.76495 149.502 5.76495 149.083C5.76495 148.665 5.4256 148.325 5.00698 148.325C4.58837 148.325 4.24902 148.665 4.24902 149.083C4.24902 149.502 4.58837 149.841 5.00698 149.841Z" fill="#5F626F"/>
<path d="M5.00698 153.537C5.4256 153.537 5.76495 153.197 5.76495 152.779C5.76495 152.36 5.4256 152.021 5.00698 152.021C4.58837 152.021 4.24902 152.36 4.24902 152.779C4.24902 153.197 4.58837 153.537 5.00698 153.537Z" fill="#5F626F"/>
<path d="M5.00698 157.232C5.4256 157.232 5.76495 156.893 5.76495 156.474C5.76495 156.056 5.4256 155.716 5.00698 155.716C4.58837 155.716 4.24902 156.056 4.24902 156.474C4.24902 156.893 4.58837 157.232 5.00698 157.232Z" fill="#5F626F"/>
<path d="M5.00698 160.927C5.4256 160.927 5.76495 160.588 5.76495 160.17C5.76495 159.751 5.4256 159.412 5.00698 159.412C4.58837 159.412 4.24902 159.751 4.24902 160.17C4.24902 160.588 4.58837 160.927 5.00698 160.927Z" fill="#5F626F"/>
<path d="M5.00758 164.623C5.42599 164.623 5.76517 164.284 5.76517 163.866C5.76517 163.447 5.42599 163.108 5.00758 163.108C4.58918 163.108 4.25 163.447 4.25 163.866C4.25 164.284 4.58918 164.623 5.00758 164.623Z" fill="#5F626F"/>
<path d="M5.00698 168.319C5.4256 168.319 5.76495 167.98 5.76495 167.561C5.76495 167.143 5.4256 166.803 5.00698 166.803C4.58837 166.803 4.24902 167.143 4.24902 167.561C4.24902 167.98 4.58837 168.319 5.00698 168.319Z" fill="#5F626F"/>
<path d="M5.00698 172.015C5.4256 172.015 5.76495 171.675 5.76495 171.257C5.76495 170.838 5.4256 170.499 5.00698 170.499C4.58837 170.499 4.24902 170.838 4.24902 171.257C4.24902 171.675 4.58837 172.015 5.00698 172.015Z" fill="#5F626F"/>
<path d="M8.69937 146.146C9.11798 146.146 9.45733 145.807 9.45733 145.388C9.45733 144.969 9.11798 144.63 8.69937 144.63C8.28076 144.63 7.94141 144.969 7.94141 145.388C7.94141 145.807 8.28076 146.146 8.69937 146.146Z" fill="#5F626F"/>
<path d="M8.69937 149.841C9.11798 149.841 9.45733 149.502 9.45733 149.083C9.45733 148.665 9.11798 148.325 8.69937 148.325C8.28076 148.325 7.94141 148.665 7.94141 149.083C7.94141 149.502 8.28076 149.841 8.69937 149.841Z" fill="#5F626F"/>
<path d="M8.69937 153.537C9.11798 153.537 9.45733 153.197 9.45733 152.779C9.45733 152.36 9.11798 152.021 8.69937 152.021C8.28076 152.021 7.94141 152.36 7.94141 152.779C7.94141 153.197 8.28076 153.537 8.69937 153.537Z" fill="#5F626F"/>
<path d="M8.69937 157.232C9.11798 157.232 9.45733 156.893 9.45733 156.474C9.45733 156.056 9.11798 155.716 8.69937 155.716C8.28076 155.716 7.94141 156.056 7.94141 156.474C7.94141 156.893 8.28076 157.232 8.69937 157.232Z" fill="#5F626F"/>
<path d="M8.69937 160.927C9.11798 160.927 9.45733 160.588 9.45733 160.17C9.45733 159.751 9.11798 159.412 8.69937 159.412C8.28076 159.412 7.94141 159.751 7.94141 160.17C7.94141 160.588 8.28076 160.927 8.69937 160.927Z" fill="#5F626F"/>
<path d="M8.69997 164.623C9.11837 164.623 9.45755 164.284 9.45755 163.866C9.45755 163.447 9.11837 163.108 8.69997 163.108C8.28156 163.108 7.94238 163.447 7.94238 163.866C7.94238 164.284 8.28156 164.623 8.69997 164.623Z" fill="#5F626F"/>
<path d="M8.69937 168.319C9.11798 168.319 9.45733 167.98 9.45733 167.561C9.45733 167.143 9.11798 166.803 8.69937 166.803C8.28076 166.803 7.94141 167.143 7.94141 167.561C7.94141 167.98 8.28076 168.319 8.69937 168.319Z" fill="#5F626F"/>
<path d="M8.69937 172.015C9.11798 172.015 9.45733 171.675 9.45733 171.257C9.45733 170.838 9.11798 170.499 8.69937 170.499C8.28076 170.499 7.94141 170.838 7.94141 171.257C7.94141 171.675 8.28076 172.015 8.69937 172.015Z" fill="#5F626F"/>
<path d="M127.121 2.11256C127.539 2.11256 127.879 1.77304 127.879 1.35423C127.879 0.935406 127.539 0.595886 127.121 0.595886C126.702 0.595886 126.362 0.935406 126.362 1.35423C126.362 1.77304 126.702 2.11256 127.121 2.11256Z" fill="#5F626F"/>
<path d="M123.427 2.11224C123.846 2.11224 124.185 1.77288 124.185 1.35427C124.185 0.935664 123.846 0.596313 123.427 0.596313C123.008 0.596313 122.669 0.935664 122.669 1.35427C122.669 1.77288 123.008 2.11224 123.427 2.11224Z" fill="#5F626F"/>
<path d="M119.731 2.11256C120.15 2.11256 120.489 1.77304 120.489 1.35423C120.489 0.935406 120.15 0.595886 119.731 0.595886C119.312 0.595886 118.973 0.935406 118.973 1.35423C118.973 1.77304 119.312 2.11256 119.731 2.11256Z" fill="#5F626F"/>
<path d="M116.035 2.11224C116.454 2.11224 116.793 1.77288 116.793 1.35427C116.793 0.935664 116.454 0.596313 116.035 0.596313C115.617 0.596313 115.277 0.935664 115.277 1.35427C115.277 1.77288 115.617 2.11224 116.035 2.11224Z" fill="#5F626F"/>
<path d="M112.339 2.11224C112.758 2.11224 113.097 1.77288 113.097 1.35427C113.097 0.935664 112.758 0.596313 112.339 0.596313C111.92 0.596313 111.581 0.935664 111.581 1.35427C111.581 1.77288 111.92 2.11224 112.339 2.11224Z" fill="#5F626F"/>
<path d="M108.643 2.11256C109.062 2.11256 109.401 1.77304 109.401 1.35423C109.401 0.935406 109.062 0.595886 108.643 0.595886C108.224 0.595886 107.885 0.935406 107.885 1.35423C107.885 1.77304 108.224 2.11256 108.643 2.11256Z" fill="#5F626F"/>
<path d="M104.948 2.11224C105.367 2.11224 105.706 1.77288 105.706 1.35427C105.706 0.935664 105.367 0.596313 104.948 0.596313C104.53 0.596313 104.19 0.935664 104.19 1.35427C104.19 1.77288 104.53 2.11224 104.948 2.11224Z" fill="#5F626F"/>
<path d="M101.252 2.11256C101.671 2.11256 102.011 1.77304 102.011 1.35423C102.011 0.935406 101.671 0.595886 101.252 0.595886C100.834 0.595886 100.494 0.935406 100.494 1.35423C100.494 1.77304 100.834 2.11256 101.252 2.11256Z" fill="#5F626F"/>
<path d="M127.12 5.80306C127.539 5.80306 127.878 5.46354 127.878 5.04472C127.878 4.6259 127.539 4.28638 127.12 4.28638C126.701 4.28638 126.361 4.6259 126.361 5.04472C126.361 5.46354 126.701 5.80306 127.12 5.80306Z" fill="#5F626F"/>
<path d="M123.426 5.80267C123.845 5.80267 124.184 5.46331 124.184 5.0447C124.184 4.62609 123.845 4.28674 123.426 4.28674C123.007 4.28674 122.668 4.62609 122.668 5.0447C122.668 5.46331 123.007 5.80267 123.426 5.80267Z" fill="#5F626F"/>
<path d="M119.73 5.80306C120.149 5.80306 120.488 5.46354 120.488 5.04472C120.488 4.6259 120.149 4.28638 119.73 4.28638C119.311 4.28638 118.972 4.6259 118.972 5.04472C118.972 5.46354 119.311 5.80306 119.73 5.80306Z" fill="#5F626F"/>
<path d="M116.034 5.80267C116.453 5.80267 116.792 5.46331 116.792 5.0447C116.792 4.62609 116.453 4.28674 116.034 4.28674C115.616 4.28674 115.276 4.62609 115.276 5.0447C115.276 5.46331 115.616 5.80267 116.034 5.80267Z" fill="#5F626F"/>
<path d="M112.338 5.80267C112.757 5.80267 113.096 5.46331 113.096 5.0447C113.096 4.62609 112.757 4.28674 112.338 4.28674C111.919 4.28674 111.58 4.62609 111.58 5.0447C111.58 5.46331 111.919 5.80267 112.338 5.80267Z" fill="#5F626F"/>
<path d="M108.642 5.80306C109.061 5.80306 109.4 5.46354 109.4 5.04472C109.4 4.6259 109.061 4.28638 108.642 4.28638C108.223 4.28638 107.884 4.6259 107.884 5.04472C107.884 5.46354 108.223 5.80306 108.642 5.80306Z" fill="#5F626F"/>
<path d="M104.947 5.80267C105.366 5.80267 105.705 5.46331 105.705 5.0447C105.705 4.62609 105.366 4.28674 104.947 4.28674C104.529 4.28674 104.189 4.62609 104.189 5.0447C104.189 5.46331 104.529 5.80267 104.947 5.80267Z" fill="#5F626F"/>
<path d="M101.252 5.80306C101.67 5.80306 102.01 5.46354 102.01 5.04472C102.01 4.6259 101.67 4.28638 101.252 4.28638C100.833 4.28638 100.493 4.6259 100.493 5.04472C100.493 5.46354 100.833 5.80306 101.252 5.80306Z" fill="#5F626F"/>
<path d="M127.12 9.49312C127.539 9.49312 127.878 9.1536 127.878 8.73478C127.878 8.31596 127.539 7.97644 127.12 7.97644C126.701 7.97644 126.361 8.31596 126.361 8.73478C126.361 9.1536 126.701 9.49312 127.12 9.49312Z" fill="#5F626F"/>
<path d="M123.426 9.49273C123.845 9.49273 124.184 9.15338 124.184 8.73477C124.184 8.31616 123.845 7.97681 123.426 7.97681C123.007 7.97681 122.668 8.31616 122.668 8.73477C122.668 9.15338 123.007 9.49273 123.426 9.49273Z" fill="#5F626F"/>
<path d="M119.73 9.49312C120.149 9.49312 120.488 9.1536 120.488 8.73478C120.488 8.31596 120.149 7.97644 119.73 7.97644C119.311 7.97644 118.972 8.31596 118.972 8.73478C118.972 9.1536 119.311 9.49312 119.73 9.49312Z" fill="#5F626F"/>
<path d="M116.034 9.49273C116.453 9.49273 116.792 9.15338 116.792 8.73477C116.792 8.31616 116.453 7.97681 116.034 7.97681C115.616 7.97681 115.276 8.31616 115.276 8.73477C115.276 9.15338 115.616 9.49273 116.034 9.49273Z" fill="#5F626F"/>
<path d="M112.338 9.49273C112.757 9.49273 113.096 9.15338 113.096 8.73477C113.096 8.31616 112.757 7.97681 112.338 7.97681C111.919 7.97681 111.58 8.31616 111.58 8.73477C111.58 9.15338 111.919 9.49273 112.338 9.49273Z" fill="#5F626F"/>
<path d="M108.642 9.49312C109.061 9.49312 109.4 9.1536 109.4 8.73478C109.4 8.31596 109.061 7.97644 108.642 7.97644C108.223 7.97644 107.884 8.31596 107.884 8.73478C107.884 9.1536 108.223 9.49312 108.642 9.49312Z" fill="#5F626F"/>
<path d="M104.947 9.49273C105.366 9.49273 105.705 9.15338 105.705 8.73477C105.705 8.31616 105.366 7.97681 104.947 7.97681C104.529 7.97681 104.189 8.31616 104.189 8.73477C104.189 9.15338 104.529 9.49273 104.947 9.49273Z" fill="#5F626F"/>
<path d="M101.252 9.49312C101.67 9.49312 102.01 9.1536 102.01 8.73478C102.01 8.31596 101.67 7.97644 101.252 7.97644C100.833 7.97644 100.493 8.31596 100.493 8.73478C100.493 9.1536 100.833 9.49312 101.252 9.49312Z" fill="#5F626F"/>
<path d="M74.5813 101.069H68.7857C68.6928 101.069 68.6177 100.993 68.6177 100.901C68.6177 100.808 68.6928 100.732 68.7857 100.732H70.4773V97.2708H55.7773V100.732H66.0251C66.118 100.732 66.1931 100.808 66.1931 100.901C66.1931 100.993 66.118 101.069 66.0251 101.069H51.3658C51.2729 101.069 51.1978 100.993 51.1978 100.901C51.1978 100.808 51.2729 100.732 51.3658 100.732H55.4397V97.2708H49.9308C49.8378 97.2708 49.7619 97.1957 49.7619 97.1028C49.7619 97.0099 49.8378 96.934 49.9308 96.934H52.0619V94.452C52.0619 94.3591 52.1378 94.2839 52.2307 94.2839C52.3236 94.2839 52.3987 94.3591 52.3987 94.452V96.934H72.9906C73.0835 96.934 73.1594 97.0099 73.1594 97.1028C73.1594 97.1957 73.0835 97.2708 72.9906 97.2708H70.8138V100.732H74.5809C74.6738 100.732 74.7497 100.808 74.7497 100.901C74.7497 100.993 74.6742 101.069 74.5813 101.069ZM48.28 97.2708H47.5194C47.4265 97.2708 47.3506 97.1957 47.3506 97.1028C47.3506 97.0099 47.4265 96.934 47.5194 96.934H48.28C48.3729 96.934 48.4481 97.0099 48.4481 97.1028C48.4481 97.1957 48.3729 97.2708 48.28 97.2708Z" fill="#D7D7D7"/>
<path d="M92.4241 18.2767H86.6285C86.5356 18.2767 86.4597 18.2008 86.4597 18.1079C86.4597 18.015 86.5356 17.9398 86.6285 17.9398H88.3193V14.479H73.6193V17.9398H83.8671C83.96 17.9398 84.0359 18.015 84.0359 18.1079C84.0359 18.2008 83.96 18.2767 83.8671 18.2767H69.2086C69.1157 18.2767 69.0398 18.2008 69.0398 18.1079C69.0398 18.015 69.1157 17.9398 69.2086 17.9398H73.2824V14.479H67.7731C67.6802 14.479 67.6051 14.4031 67.6051 14.3102C67.6051 14.2173 67.6802 14.1413 67.7731 14.1413H69.9043V11.6601C69.9043 11.5672 69.9802 11.4921 70.0731 11.4921C70.166 11.4921 70.2419 11.5672 70.2419 11.6601V14.1413H90.833C90.9259 14.1413 91.0018 14.2173 91.0018 14.3102C91.0018 14.4031 90.9259 14.479 90.833 14.479H88.6569V17.9398H92.4241C92.517 17.9398 92.5921 18.015 92.5921 18.1079C92.5921 18.2008 92.517 18.2767 92.4241 18.2767ZM66.122 14.4786H65.3622C65.2693 14.4786 65.1934 14.4027 65.1934 14.3098C65.1934 14.2169 65.2693 14.141 65.3622 14.141H66.122C66.2149 14.141 66.2908 14.2169 66.2908 14.3098C66.2908 14.4027 66.2149 14.4786 66.122 14.4786Z" fill="#D7D7D7"/>
<path d="M24.1718 132.001C24.0789 132.001 24.0029 131.926 24.0029 131.833V129.351H5.75636H3.41148C3.31857 129.351 3.24267 129.275 3.24267 129.183C3.24267 129.09 3.31857 129.014 3.41148 129.014H5.58755V125.554H1.82116C1.72825 125.554 1.65234 125.478 1.65234 125.385C1.65234 125.292 1.72825 125.216 1.82116 125.216H5.75636H7.61595C7.70886 125.216 7.78477 125.292 7.78477 125.385C7.78477 125.478 7.70886 125.554 7.61595 125.554H5.92518V129.014H20.6252V125.554H10.3778C10.2849 125.554 10.209 125.478 10.209 125.385C10.209 125.292 10.2849 125.216 10.3778 125.216H25.0362C25.1291 125.216 25.205 125.292 25.205 125.385C25.205 125.478 25.1291 125.554 25.0362 125.554H20.9632V129.014H26.4717C26.5646 129.014 26.6405 129.09 26.6405 129.183C26.6405 129.275 26.5646 129.351 26.4717 129.351H24.3398V131.833C24.3402 131.926 24.2647 132.001 24.1718 132.001ZM28.8831 129.351H28.1217C28.0288 129.351 27.9536 129.275 27.9536 129.182C27.9536 129.089 28.0288 129.014 28.1217 129.014H28.8831C28.976 129.014 29.0511 129.089 29.0511 129.182C29.0511 129.275 28.976 129.351 28.8831 129.351Z" fill="#D7D7D7"/>
<path d="M80.6526 167.689H79.892C79.7991 167.689 79.7232 167.613 79.7232 167.52C79.7232 167.427 79.7991 167.351 79.892 167.351H80.6526C80.7455 167.351 80.8214 167.427 80.8214 167.52C80.8214 167.613 80.7455 167.689 80.6526 167.689ZM78.2412 167.689H55.181C55.0881 167.689 55.0122 167.613 55.0122 167.52C55.0122 167.427 55.0881 167.351 55.181 167.351H57.3578V163.89H53.5907C53.4978 163.89 53.4219 163.814 53.4219 163.721C53.4219 163.629 53.4978 163.553 53.5907 163.553H59.3855C59.4784 163.553 59.5543 163.629 59.5543 163.721C59.5543 163.814 59.4784 163.89 59.3855 163.89H57.6947V167.351H72.3947V163.89H62.1469C62.054 163.89 61.9789 163.814 61.9789 163.721C61.9789 163.629 62.054 163.553 62.1469 163.553H76.8061C76.899 163.553 76.9742 163.629 76.9742 163.721C76.9742 163.814 76.899 163.89 76.8061 163.89H72.7323V167.351H78.2409C78.3338 167.351 78.4097 167.427 78.4097 167.52C78.4097 167.613 78.3341 167.689 78.2412 167.689Z" fill="#707389"/>
<path d="M160.934 12.1794C160.842 12.1794 160.766 12.1043 160.766 12.0114V11.3622C160.766 11.2693 160.842 11.1934 160.934 11.1934C161.027 11.1934 161.103 11.2693 161.103 11.3622V12.0114C161.103 12.1043 161.027 12.1794 160.934 12.1794Z" fill="white"/>
<path d="M162.075 12.673H161.427C161.334 12.673 161.258 12.5971 161.258 12.5042C161.258 12.4113 161.334 12.3354 161.427 12.3354H162.075C162.168 12.3354 162.244 12.4113 162.244 12.5042C162.244 12.5971 162.168 12.673 162.075 12.673Z" fill="white"/>
<path d="M160.934 13.8147C160.842 13.8147 160.766 13.7388 160.766 13.6459V12.9967C160.766 12.9038 160.842 12.8287 160.934 12.8287C161.027 12.8287 161.103 12.9038 161.103 12.9967V13.6459C161.103 13.7388 161.027 13.8147 160.934 13.8147Z" fill="white"/>
<path d="M160.441 12.673H159.792C159.699 12.673 159.624 12.5971 159.624 12.5042C159.624 12.4113 159.699 12.3354 159.792 12.3354H160.441C160.534 12.3354 160.609 12.4113 160.609 12.5042C160.609 12.5971 160.535 12.673 160.441 12.673Z" fill="white"/>
<path d="M141.426 24.0035C141.333 24.0035 141.258 23.9276 141.258 23.8347V23.1855C141.258 23.0926 141.333 23.0167 141.426 23.0167C141.519 23.0167 141.595 23.0926 141.595 23.1855V23.8347C141.595 23.9276 141.519 24.0035 141.426 24.0035Z" fill="white"/>
<path d="M142.567 24.496H141.918C141.825 24.496 141.749 24.4201 141.749 24.3272C141.749 24.2343 141.825 24.1591 141.918 24.1591H142.567C142.66 24.1591 142.736 24.2343 142.736 24.3272C142.736 24.4201 142.66 24.496 142.567 24.496Z" fill="white"/>
<path d="M141.426 25.638C141.333 25.638 141.258 25.5621 141.258 25.4692V24.8208C141.258 24.7279 141.333 24.652 141.426 24.652C141.519 24.652 141.595 24.7279 141.595 24.8208V25.4692C141.595 25.5621 141.519 25.638 141.426 25.638Z" fill="white"/>
<path d="M140.932 24.496H140.284C140.191 24.496 140.115 24.4201 140.115 24.3272C140.115 24.2343 140.191 24.1591 140.284 24.1591H140.932C141.025 24.1591 141.101 24.2343 141.101 24.3272C141.101 24.4201 141.025 24.496 140.932 24.496Z" fill="white"/>
<path d="M160.428 43.6304C160.335 43.6304 160.26 43.5545 160.26 43.4616V42.8132C160.26 42.7203 160.335 42.6443 160.428 42.6443C160.521 42.6443 160.597 42.7203 160.597 42.8132V43.4616C160.597 43.5545 160.521 43.6304 160.428 43.6304Z" fill="white"/>
<path d="M161.57 44.1232H160.921C160.828 44.1232 160.752 44.0481 160.752 43.9552C160.752 43.8623 160.828 43.7864 160.921 43.7864H161.57C161.663 43.7864 161.738 43.8623 161.738 43.9552C161.738 44.0481 161.663 44.1232 161.57 44.1232Z" fill="white"/>
<path d="M160.428 45.2653C160.335 45.2653 160.26 45.1901 160.26 45.0972V44.448C160.26 44.3551 160.335 44.28 160.428 44.28C160.521 44.28 160.597 44.3551 160.597 44.448V45.0972C160.597 45.1897 160.521 45.2653 160.428 45.2653Z" fill="white"/>
<path d="M159.935 44.1232H159.286C159.193 44.1232 159.118 44.0481 159.118 43.9552C159.118 43.8623 159.193 43.7864 159.286 43.7864H159.935C160.028 43.7864 160.104 43.8623 160.104 43.9552C160.104 44.0481 160.028 44.1232 159.935 44.1232Z" fill="white"/>
<path d="M32.0614 6.40989C31.9685 6.40989 31.8926 6.33399 31.8926 6.24108V5.59189C31.8926 5.49898 31.9685 5.42383 32.0614 5.42383C32.1543 5.42383 32.2295 5.49898 32.2295 5.59189V6.24108C32.2295 6.33399 32.1543 6.40989 32.0614 6.40989Z" fill="white"/>
<path d="M33.203 6.90306H32.5546C32.4617 6.90306 32.3857 6.82715 32.3857 6.73424C32.3857 6.64134 32.4617 6.56543 32.5546 6.56543H33.203C33.2959 6.56543 33.3718 6.64134 33.3718 6.73424C33.3718 6.82715 33.2959 6.90306 33.203 6.90306Z" fill="white"/>
<path d="M32.0614 8.04445C31.9685 8.04445 31.8926 7.9693 31.8926 7.8764V7.2272C31.8926 7.1343 31.9685 7.05914 32.0614 7.05914C32.1543 7.05914 32.2295 7.1343 32.2295 7.2272V7.8764C32.2295 7.9693 32.1543 8.04445 32.0614 8.04445Z" fill="white"/>
<path d="M31.5682 6.90306H30.9198C30.8269 6.90306 30.751 6.82715 30.751 6.73424C30.751 6.64134 30.8269 6.56543 30.9198 6.56543H31.5682C31.6611 6.56543 31.737 6.64134 31.737 6.73424C31.737 6.82715 31.6611 6.90306 31.5682 6.90306Z" fill="white"/>
<path d="M8.86239 29.6058C8.76949 29.6058 8.69434 29.5299 8.69434 29.437V28.7886C8.69434 28.6957 8.76949 28.6198 8.86239 28.6198C8.9553 28.6198 9.03121 28.6957 9.03121 28.7886V29.437C9.03121 29.5299 8.9553 29.6058 8.86239 29.6058Z" fill="white"/>
<path d="M10.0048 30.099H9.35556C9.26265 30.099 9.1875 30.0231 9.1875 29.9302C9.1875 29.8373 9.26265 29.7621 9.35556 29.7621H10.0048C10.0977 29.7621 10.1728 29.8373 10.1728 29.9302C10.1728 30.0231 10.098 30.099 10.0048 30.099Z" fill="white"/>
<path d="M8.86239 31.2411C8.76949 31.2411 8.69434 31.1652 8.69434 31.0723V30.4238C8.69434 30.3309 8.76949 30.255 8.86239 30.255C8.9553 30.255 9.03121 30.3309 9.03121 30.4238V31.0723C9.03121 31.1652 8.9553 31.2411 8.86239 31.2411Z" fill="white"/>
<path d="M8.36999 30.099H7.72079C7.62789 30.099 7.55273 30.0231 7.55273 29.9302C7.55273 29.8373 7.62789 29.7621 7.72079 29.7621H8.36999C8.46289 29.7621 8.53805 29.8373 8.53805 29.9302C8.53805 30.0231 8.46289 30.099 8.36999 30.099Z" fill="white"/>
<path d="M1.72741 47.4486C1.6345 47.4486 1.55859 47.3735 1.55859 47.2806V46.6314C1.55859 46.5385 1.6345 46.4633 1.72741 46.4633C1.82031 46.4633 1.89622 46.5385 1.89622 46.6314V47.2806C1.89622 47.3735 1.82031 47.4486 1.72741 47.4486Z" fill="white"/>
<path d="M2.86803 47.9419H2.21959C2.12669 47.9419 2.05078 47.8667 2.05078 47.7738C2.05078 47.6809 2.12669 47.605 2.21959 47.605H2.86803C2.96094 47.605 3.03685 47.6809 3.03685 47.7738C3.03685 47.8667 2.96094 47.9419 2.86803 47.9419Z" fill="white"/>
<path d="M1.72741 49.0839C1.6345 49.0839 1.55859 49.0088 1.55859 48.9159V48.2667C1.55859 48.1738 1.6345 48.0986 1.72741 48.0986C1.82031 48.0986 1.89622 48.1738 1.89622 48.2667V48.9159C1.89622 49.0088 1.82031 49.0839 1.72741 49.0839Z" fill="white"/>
<path d="M1.23425 47.9419H0.58505C0.492146 47.9419 0.416992 47.8667 0.416992 47.7738C0.416992 47.6809 0.492146 47.605 0.58505 47.605H1.23425C1.32715 47.605 1.4023 47.6809 1.4023 47.7738C1.4023 47.8667 1.32715 47.9419 1.23425 47.9419Z" fill="white"/>
<path d="M44.1944 122.748C44.1015 122.748 44.0264 122.672 44.0264 122.579V121.93C44.0264 121.837 44.1015 121.761 44.1944 121.761C44.2873 121.761 44.3632 121.837 44.3632 121.93V122.579C44.3632 122.672 44.2873 122.748 44.1944 122.748Z" fill="#8E8E8E"/>
<path d="M45.3368 123.241H44.6876C44.5947 123.241 44.5195 123.165 44.5195 123.072C44.5195 122.979 44.5947 122.904 44.6876 122.904H45.3368C45.4297 122.904 45.5048 122.979 45.5048 123.072C45.5048 123.165 45.4297 123.241 45.3368 123.241Z" fill="#8E8E8E"/>
<path d="M44.1944 124.383C44.1015 124.383 44.0264 124.307 44.0264 124.214V123.565C44.0264 123.473 44.1015 123.397 44.1944 123.397C44.2873 123.397 44.3632 123.473 44.3632 123.565V124.214C44.3632 124.307 44.2873 124.383 44.1944 124.383Z" fill="#8E8E8E"/>
<path d="M43.702 123.241H43.0528C42.9599 123.241 42.8848 123.165 42.8848 123.072C42.8848 122.979 42.9599 122.904 43.0528 122.904H43.702C43.7949 122.904 43.8701 122.979 43.8701 123.072C43.8701 123.165 43.7949 123.241 43.702 123.241Z" fill="#8E8E8E"/>
<path d="M4.93857 89.7086C4.84566 89.7086 4.77051 89.6327 4.77051 89.5398V88.8914C4.77051 88.7984 4.84566 88.7225 4.93857 88.7225C5.03147 88.7225 5.10738 88.7984 5.10738 88.8914V89.5398C5.10738 89.6327 5.03147 89.7086 4.93857 89.7086Z" fill="#8E8E8E"/>
<path d="M6.08093 90.2014H5.43173C5.33883 90.2014 5.26367 90.1255 5.26367 90.0326C5.26367 89.9397 5.33883 89.8646 5.43173 89.8646H6.08093C6.17383 89.8646 6.24898 89.9397 6.24898 90.0326C6.24898 90.1255 6.17383 90.2014 6.08093 90.2014Z" fill="#8E8E8E"/>
<path d="M4.93857 91.3431C4.84566 91.3431 4.77051 91.2679 4.77051 91.175V90.5258C4.77051 90.4329 4.84566 90.357 4.93857 90.357C5.03147 90.357 5.10738 90.4329 5.10738 90.5258V91.175C5.10738 91.2679 5.03147 91.3431 4.93857 91.3431Z" fill="#8E8E8E"/>
<path d="M4.44616 90.2014H3.79697C3.70406 90.2014 3.62891 90.1255 3.62891 90.0326C3.62891 89.9397 3.70406 89.8646 3.79697 89.8646H4.44616C4.53906 89.8646 4.61497 89.9397 4.61497 90.0326C4.61497 90.1255 4.53906 90.2014 4.44616 90.2014Z" fill="#8E8E8E"/>
<path d="M94.5118 30.4695C94.4189 30.4695 94.3438 30.3936 94.3438 30.3007V29.6515C94.3438 29.5586 94.4189 29.4835 94.5118 29.4835C94.6047 29.4835 94.6806 29.5586 94.6806 29.6515V30.3007C94.6806 30.3936 94.6047 30.4695 94.5118 30.4695Z" fill="#8E8E8E"/>
<path d="M95.6542 30.9624H95.005C94.9121 30.9624 94.8369 30.8864 94.8369 30.7935C94.8369 30.7006 94.9121 30.6255 95.005 30.6255H95.6542C95.7471 30.6255 95.8222 30.7006 95.8222 30.7935C95.8222 30.8864 95.7471 30.9624 95.6542 30.9624Z" fill="#8E8E8E"/>
<path d="M94.5118 32.1041C94.4189 32.1041 94.3438 32.0289 94.3438 31.936V31.2868C94.3438 31.1939 94.4189 31.1188 94.5118 31.1188C94.6047 31.1188 94.6806 31.1939 94.6806 31.2868V31.936C94.6806 32.0289 94.6047 32.1041 94.5118 32.1041Z" fill="#8E8E8E"/>
<path d="M94.0194 30.9624H93.3702C93.2773 30.9624 93.2021 30.8864 93.2021 30.7935C93.2021 30.7006 93.2773 30.6255 93.3702 30.6255H94.0194C94.1123 30.6255 94.1882 30.7006 94.1882 30.7935C94.1882 30.8864 94.1123 30.9624 94.0194 30.9624Z" fill="#8E8E8E"/>
<path d="M100.935 65.0848C100.843 65.0848 100.767 65.0089 100.767 64.916V64.2676C100.767 64.1747 100.843 64.0988 100.935 64.0988C101.028 64.0988 101.103 64.1747 101.103 64.2676V64.916C101.103 65.0089 101.028 65.0848 100.935 65.0848Z" fill="#8E8E8E"/>
<path d="M102.077 65.5785H101.429C101.336 65.5785 101.26 65.5025 101.26 65.4096C101.26 65.3167 101.336 65.2416 101.429 65.2416H102.077C102.17 65.2416 102.246 65.3167 102.246 65.4096C102.246 65.5025 102.17 65.5785 102.077 65.5785Z" fill="#8E8E8E"/>
<path d="M100.935 66.7201C100.843 66.7201 100.767 66.6442 100.767 66.5513V65.9029C100.767 65.81 100.843 65.7341 100.935 65.7341C101.028 65.7341 101.103 65.81 101.103 65.9029V66.5513C101.103 66.6442 101.028 66.7201 100.935 66.7201Z" fill="#8E8E8E"/>
<path d="M100.442 65.5785H99.7938C99.7009 65.5785 99.625 65.5025 99.625 65.4096C99.625 65.3167 99.7009 65.2416 99.7938 65.2416H100.442C100.535 65.2416 100.611 65.3167 100.611 65.4096C100.611 65.5025 100.535 65.5785 100.442 65.5785Z" fill="#8E8E8E"/>
<path d="M171.239 90.4221C171.146 90.4221 171.07 90.3469 171.07 90.254V89.6048C171.07 89.5119 171.146 89.4368 171.239 89.4368C171.332 89.4368 171.408 89.5119 171.408 89.6048V90.254C171.408 90.3469 171.332 90.4221 171.239 90.4221Z" fill="#8E8E8E"/>
<path d="M172.38 90.9157H171.731C171.638 90.9157 171.562 90.8398 171.562 90.7469C171.562 90.654 171.638 90.5781 171.731 90.5781H172.38C172.473 90.5781 172.549 90.654 172.549 90.7469C172.549 90.8398 172.473 90.9157 172.38 90.9157Z" fill="#8E8E8E"/>
<path d="M171.239 92.0574C171.146 92.0574 171.07 91.9814 171.07 91.8885V91.2401C171.07 91.1472 171.146 91.0713 171.239 91.0713C171.332 91.0713 171.408 91.1472 171.408 91.2401V91.8885C171.408 91.9814 171.332 92.0574 171.239 92.0574Z" fill="#8E8E8E"/>
<path d="M170.746 90.9157H170.097C170.004 90.9157 169.929 90.8398 169.929 90.7469C169.929 90.654 170.004 90.5781 170.097 90.5781H170.746C170.839 90.5781 170.914 90.654 170.914 90.7469C170.914 90.8398 170.839 90.9157 170.746 90.9157Z" fill="#8E8E8E"/>
<path d="M169.81 167.505C169.718 167.505 169.642 167.429 169.642 167.336V166.688C169.642 166.595 169.718 166.519 169.81 166.519C169.903 166.519 169.978 166.595 169.978 166.688V167.336C169.978 167.429 169.903 167.505 169.81 167.505Z" fill="#8E8E8E"/>
<path d="M170.952 167.998H170.304C170.211 167.998 170.135 167.923 170.135 167.83C170.135 167.737 170.211 167.661 170.304 167.661H170.952C171.045 167.661 171.121 167.737 171.121 167.83C171.121 167.923 171.045 167.998 170.952 167.998Z" fill="#8E8E8E"/>
<path d="M169.81 169.14C169.718 169.14 169.642 169.064 169.642 168.971V168.323C169.642 168.23 169.718 168.154 169.81 168.154C169.903 168.154 169.978 168.23 169.978 168.323V168.971C169.978 169.064 169.903 169.14 169.81 169.14Z" fill="#8E8E8E"/>
<path d="M169.317 167.998H168.669C168.576 167.998 168.5 167.923 168.5 167.83C168.5 167.737 168.576 167.661 168.669 167.661H169.317C169.41 167.661 169.486 167.737 169.486 167.83C169.486 167.923 169.41 167.998 169.317 167.998Z" fill="#8E8E8E"/>
<path d="M71.6717 149.661C71.5788 149.661 71.5029 149.586 71.5029 149.493V148.844C71.5029 148.751 71.5788 148.676 71.6717 148.676C71.7647 148.676 71.8398 148.751 71.8398 148.844V149.493C71.8398 149.586 71.7647 149.661 71.6717 149.661Z" fill="#8E8E8E"/>
<path d="M72.8134 150.155H72.1649C72.072 150.155 71.9961 150.08 71.9961 149.987C71.9961 149.894 72.072 149.818 72.1649 149.818H72.8134C72.9063 149.818 72.9822 149.894 72.9822 149.987C72.9822 150.08 72.9063 150.155 72.8134 150.155Z" fill="#8E8E8E"/>
<path d="M71.6717 151.297C71.5788 151.297 71.5029 151.221 71.5029 151.129V150.479C71.5029 150.386 71.5788 150.311 71.6717 150.311C71.7647 150.311 71.8398 150.386 71.8398 150.479V151.129C71.8398 151.221 71.7647 151.297 71.6717 151.297Z" fill="#8E8E8E"/>
<path d="M71.1786 150.155H70.5301C70.4372 150.155 70.3613 150.08 70.3613 149.987C70.3613 149.894 70.4372 149.818 70.5301 149.818H71.1786C71.2715 149.818 71.3474 149.894 71.3474 149.987C71.3474 150.08 71.2715 150.155 71.1786 150.155Z" fill="#8E8E8E"/>
<path d="M45.9786 173.215C45.8857 173.215 45.8105 173.139 45.8105 173.046V172.397C45.8105 172.305 45.8857 172.229 45.9786 172.229C46.0715 172.229 46.1474 172.305 46.1474 172.397V173.046C46.1478 173.139 46.0719 173.215 45.9786 173.215Z" fill="#8E8E8E"/>
<path d="M47.121 173.708H46.4718C46.3789 173.708 46.3037 173.632 46.3037 173.539C46.3037 173.447 46.3789 173.371 46.4718 173.371H47.121C47.2139 173.371 47.289 173.447 47.289 173.539C47.289 173.632 47.2139 173.708 47.121 173.708Z" fill="#8E8E8E"/>
<path d="M45.9786 174.85C45.8857 174.85 45.8105 174.774 45.8105 174.682V174.032C45.8105 173.94 45.8857 173.864 45.9786 173.864C46.0715 173.864 46.1474 173.94 46.1474 174.032V174.682C46.1478 174.774 46.0719 174.85 45.9786 174.85Z" fill="#8E8E8E"/>
<path d="M45.4862 173.708H44.837C44.7441 173.708 44.6689 173.632 44.6689 173.539C44.6689 173.447 44.7441 173.371 44.837 173.371H45.4862C45.5791 173.371 45.655 173.447 45.655 173.539C45.655 173.632 45.5791 173.708 45.4862 173.708Z" fill="#8E8E8E"/>
<path fill-rule="evenodd" clip-rule="evenodd" d="M89.5811 182.506C91.9871 178.144 94.4272 173.658 96.8922 169.047L108.453 168.908L106.214 182.506H89.5811Z" fill="#707389"/>
<path fill-rule="evenodd" clip-rule="evenodd" d="M95.5262 171.595L91.9423 172.027C91.9423 172.027 93.8615 174.112 92.1753 176.342C90.489 178.572 87.5527 182.487 87.5527 182.487L87.9157 182.506H93.9869L97.9825 177.886C97.9825 177.886 99.7353 176.095 99.1907 174.94C98.6476 173.786 95.5262 171.595 95.5262 171.595Z" fill="#4F5164"/>
<path fill-rule="evenodd" clip-rule="evenodd" d="M88.8902 166.683C88.8902 166.683 86.9826 170.784 98.9212 175.92C99.2339 173.6 101.967 171.67 102.207 169.835C102.622 166.659 100.467 164.101 100.642 162.697C95.9139 163.222 90.1761 165.134 88.8902 166.683Z" fill="#4F5164"/>
<path fill-rule="evenodd" clip-rule="evenodd" d="M108.425 160.798C104.233 169.969 95.9442 175.152 89.1875 182.506H155.978L154.521 176.822C154.521 176.822 130.854 157.964 108.425 160.798Z" fill="#4F5164"/>
<path fill-rule="evenodd" clip-rule="evenodd" d="M108.425 160.798C107.794 162.181 107.067 163.471 106.269 164.694C107.205 164.52 108.141 164.513 108.911 164.842C109.946 165.285 117.61 173.538 128.686 182.505H155.979L154.522 176.822C154.522 176.822 130.855 157.964 108.425 160.798Z" fill="#4F5164"/>
<path fill-rule="evenodd" clip-rule="evenodd" d="M152.046 148.129C152.167 148.386 152.286 148.644 152.401 148.906L151.183 152.752C151.183 152.752 153.401 155.243 155.721 163.362C157.669 170.18 160.183 176.683 163.422 181.498C163.582 181.834 163.746 182.17 163.912 182.506H152.415C150.074 181.75 147.391 180.586 144.374 178.834C131.358 171.28 131.361 167.024 122.142 163.987C112.922 160.949 106.785 161.565 106.785 161.565C106.785 161.565 110.432 153.696 110.525 146.224C115.432 142.878 121.236 139.503 121.319 139.455L121.324 139.455L152.046 148.129Z" fill="#707389"/>
<path fill-rule="evenodd" clip-rule="evenodd" d="M108.302 157.66C116.665 160.32 138.115 166.18 155.117 161.366C153.031 154.829 151.182 152.751 151.182 152.751L152.4 148.905C152.285 148.644 152.166 148.385 152.046 148.128L121.323 139.453L121.318 139.454C121.234 139.502 115.431 142.877 110.524 146.223C110.472 150.39 109.315 154.679 108.302 157.66Z" fill="#4F5164"/>
<path fill-rule="evenodd" clip-rule="evenodd" d="M88.9376 166.598L88.8896 166.683C88.8896 166.683 93.0824 164.418 99.208 171.167C102.33 174.606 105.5 178.974 109.122 182.506H124.991C124.012 161.643 124.685 146.74 125.086 140.516L121.321 139.453C121.321 139.453 106.652 147.973 104.153 151.407C101.655 154.842 99.4698 156.448 95.0085 160.017C90.9811 163.239 89.2379 166.078 88.9376 166.598Z" fill="#707389"/>
<path fill-rule="evenodd" clip-rule="evenodd" d="M124.484 161.68C124.478 151.68 124.835 144.405 125.086 140.516L121.321 139.453C121.321 139.453 106.651 147.973 104.153 151.407C101.655 154.842 99.4691 156.448 95.0078 160.017C95.0078 160.017 99.159 159.521 102.728 156.8C102.728 156.8 103.441 156.086 104.78 156.488C105.464 156.693 113.725 159.762 124.484 161.68Z" fill="#4F5164"/>
<path fill-rule="evenodd" clip-rule="evenodd" d="M168.137 123.15C168.137 123.15 168.029 124.664 165.925 124.742C163.821 124.821 165.768 120.121 165.768 120.121C165.768 120.121 168.285 121.143 168.137 123.15Z" fill="#707389"/>
<path fill-rule="evenodd" clip-rule="evenodd" d="M151.349 148.881C151.349 148.881 151.96 151.576 151.021 153.044C150.083 154.513 140.596 158.051 127.102 158.051C113.607 158.051 104.121 154.513 103.183 153.044C102.243 151.575 102.855 148.881 102.855 148.881L127.102 150.908L151.349 148.881Z" fill="white"/>
<path fill-rule="evenodd" clip-rule="evenodd" d="M99.394 89.351C99.394 89.351 91.7015 93.8334 88.9642 101.196C86.2269 108.559 88.0208 125.456 87.2647 130.081C86.5102 134.706 83.8673 142.352 85.4716 147.26C87.0767 152.169 90.4749 154.906 94.722 155.472C98.9699 156.038 103.595 134.234 103.689 129.325C103.784 124.418 103.123 93.5509 99.394 89.351Z" fill="white"/>
<path fill-rule="evenodd" clip-rule="evenodd" d="M94.4734 93.1948C92.4 95.1922 90.187 97.9068 88.9641 101.197C88.526 102.375 88.205 103.797 87.9697 105.373C88.9377 107.702 92.1217 111.978 102.441 117.293L102.508 120.006C102.508 120.006 100.389 121.697 99.2089 123.31C98.0294 124.923 98.3444 127.715 98.3444 128.737C98.3444 129.76 98.1454 131.863 94.115 134.587L92.7592 138.413L100.849 144.147C102.502 138.234 103.643 131.739 103.689 129.326C103.763 125.46 103.369 105.49 101.376 95.131L94.4734 93.1948Z" fill="#E7E5E4"/>
<path fill-rule="evenodd" clip-rule="evenodd" d="M127.103 46.1974C109.009 46.4606 111.67 60.5454 113.265 71.9024C113.937 76.682 116.58 79.505 116.58 79.505C116.58 79.505 121.68 83.9822 123.441 84.9214C124.491 85.4803 125.805 85.7409 127.103 85.7379C128.4 85.7409 129.715 85.4803 130.763 84.9214C132.525 83.9825 137.625 79.505 137.625 79.505C137.625 79.505 140.268 76.682 140.939 71.9024C142.536 60.5458 145.197 46.461 127.103 46.1974Z" fill="#FFC5B0"/>
<path fill-rule="evenodd" clip-rule="evenodd" d="M127.103 46.1967C111.788 46.4202 111.341 56.5437 112.534 66.5343C113.083 66.5853 113.515 66.3213 113.764 65.6374C115.403 61.1342 120.005 52.8219 127.384 53.0708C134.764 53.3197 139.919 63.7736 139.919 63.7736L142.049 59.1364V59.1326C142.009 59.0778 136.485 51.5454 132.894 46.8965C131.252 46.4735 129.336 46.2291 127.103 46.1967Z" fill="#FFA89E"/>
<path fill-rule="evenodd" clip-rule="evenodd" d="M127.104 46.1974C121.174 46.2839 117.473 47.8542 115.233 50.3282C115.048 51.1168 114.95 51.9355 114.95 52.7762C114.95 54.7944 115.513 56.6899 116.498 58.3335C118.578 54.8609 122.548 52.5137 127.103 52.5137C131.659 52.5137 135.629 54.8609 137.71 58.3335C138.695 56.6899 139.257 54.7944 139.257 52.7762C139.257 51.9352 139.159 51.1153 138.974 50.3267C136.734 47.8542 133.034 46.2839 127.104 46.1974Z" fill="#5F626F"/>
<path fill-rule="evenodd" clip-rule="evenodd" d="M127.104 89.3046C127.104 89.3046 120.927 88.6429 116.694 84.4902C113.213 85.4026 103.78 87.1587 101.221 89.351C101.221 89.351 104.792 104.594 100.737 119.698C100.737 119.698 102.236 132.817 102.236 135.461C102.236 138.103 100.648 145.466 100.296 147.07C99.9429 148.676 103.038 156.226 127.103 156.226C151.169 156.226 154.264 148.676 153.91 147.07C153.558 145.466 151.97 138.103 151.97 135.461C151.97 132.817 153.47 119.698 153.47 119.698C149.414 104.594 152.985 89.351 152.985 89.351C150.426 87.1587 140.993 85.4026 137.512 84.4902C133.281 88.6429 127.104 89.3046 127.104 89.3046Z" fill="white"/>
<path fill-rule="evenodd" clip-rule="evenodd" d="M102.181 95.3566C102.774 100.562 103.132 108.534 101.431 116.763C101.76 116.939 102.095 117.115 102.441 117.292L102.508 120.005C102.508 120.005 101.773 120.592 100.928 121.404C101.331 125.044 102.235 133.409 102.235 135.461C102.235 137.276 101.487 141.314 100.904 144.187L102.079 145.019L103.251 151.441C104.657 152.433 106.674 153.43 109.531 154.254C110.89 152.832 111.881 150.574 111.519 146.986C110.575 137.626 115.216 136.603 116.003 136.524C116.79 136.445 131.97 138.57 138.106 136.209C144.242 133.85 146.445 139.12 146.445 139.12L149.869 143.447L146.76 145.327C146.76 145.327 142.645 148.977 145.849 153.89C152.958 151.531 154.135 148.094 153.91 147.071C153.557 145.467 151.97 138.104 151.97 135.461C151.97 132.817 153.47 119.698 153.47 119.698C152.519 116.156 151.986 112.608 151.731 109.249L102.181 95.3566Z" fill="#E7E5E4"/>
<path fill-rule="evenodd" clip-rule="evenodd" d="M154.812 89.351C154.812 89.351 162.505 93.8334 165.242 101.196C167.979 108.559 166.185 125.456 166.941 130.081C167.695 134.706 170.339 142.352 168.734 147.26C167.129 152.169 163.731 154.906 159.483 155.472C155.236 156.038 150.611 134.234 150.516 129.325C150.422 124.418 151.083 93.5509 154.812 89.351Z" fill="white"/>
<path fill-rule="evenodd" clip-rule="evenodd" d="M166.81 113.477C166.864 116.306 166.819 119.175 166.779 121.759C162.684 121.371 156.906 123.63 156.906 126.535C156.906 129.838 160.367 137.705 160.367 137.705C160.367 137.705 164.341 141.664 168.998 146.256C168.927 146.601 168.839 146.937 168.734 147.261C167.129 152.17 163.731 154.907 159.483 155.473C155.236 156.039 150.611 134.235 150.516 129.326C150.469 126.876 150.611 117.952 151.228 109.108L166.81 113.477Z" fill="#E7E5E4"/>
<path d="M102.546 125.136C102.546 125.136 102.544 125.136 102.543 125.136C102.45 125.133 102.376 125.057 102.378 124.964C102.413 123.158 102.345 116.584 101.918 108.809C101.913 108.717 101.984 108.637 102.077 108.632C102.185 108.616 102.249 108.698 102.255 108.791C102.682 116.575 102.75 123.161 102.715 124.971C102.713 125.062 102.638 125.136 102.546 125.136Z" fill="#C6C5C4"/>
<path fill-rule="evenodd" clip-rule="evenodd" d="M168.138 123.15C167.427 117.325 145.531 125.928 142.558 127.823C139.585 129.717 120.47 137.64 111.598 129.711C102.725 121.782 110.182 115.788 110.182 115.788C110.182 115.788 94.4505 110.483 88.323 103.436C88.323 103.436 87.7161 102.785 87.9291 101.699C88.1417 100.613 91.1143 93.157 98.3827 87.6825C105.65 82.2072 107.35 78.9042 107.35 78.9042C107.35 78.9042 107.822 71.6829 109.238 69.4177C109.238 69.4177 105.698 55.7306 109.71 50.7274C112.313 28.2242 141.894 28.2242 144.497 50.7274C148.509 55.7306 144.97 69.4177 144.97 69.4177C144.97 69.4177 146.146 69.8419 146.004 71.9182C146.004 71.9182 149.167 76.5902 149.261 81.1206C149.261 81.1206 151.479 81.7815 151.527 84.4716C151.527 84.4716 154.028 87.02 156.954 89.3332C168.593 98.5315 171.152 108.863 168.138 123.15ZM127.104 48.7409C127.104 48.7409 122.165 49.449 119.475 53.5546C116.785 57.6609 114.624 61.9205 113.765 65.6374C112.906 69.3528 115.435 78.5529 117.431 80.2414C118.958 81.5523 122.129 84.2208 123.442 84.9218C124.492 85.4807 125.806 85.7413 127.104 85.7383C128.401 85.7413 129.716 85.4807 130.764 84.9218C132.079 84.2212 135.249 81.5523 136.776 80.2414C138.773 78.5529 141.301 69.3528 140.443 65.6374C139.583 61.9205 137.422 57.6609 134.731 53.5546C132.041 49.449 127.104 48.7409 127.104 48.7409Z" fill="#707389"/>
<path fill-rule="evenodd" clip-rule="evenodd" d="M102.43 120.278C103.194 120.278 103.818 119.654 103.818 118.889C103.818 118.125 103.194 117.501 102.43 117.501C101.665 117.501 101.041 118.124 101.041 118.889C101.041 119.654 101.665 120.278 102.43 120.278Z" fill="#5F626F"/>
<path fill-rule="evenodd" clip-rule="evenodd" d="M146.12 126.122C144.418 126.838 143.132 127.456 142.557 127.823C141.625 128.416 139.111 129.6 135.824 130.704C133.635 126.129 131.077 122.515 130.035 121.281C128.757 119.767 127.676 119.098 128.521 119.039C129.367 118.98 130.704 119.236 130.783 118.665C130.861 118.095 129.701 117.643 129.701 117.643C125.335 115.558 122.857 120.003 122.857 120.003L118.48 132.842C115.887 132.386 113.503 131.416 111.596 129.711C102.723 121.782 110.18 115.788 110.18 115.788C110.18 115.788 108.356 115.173 105.709 114.083C107.833 113.157 111.435 111.37 113.379 109.187C116.25 105.962 114.897 103.049 114.897 103.049C123.073 115.931 136.736 117.257 136.736 117.257C136.736 117.257 142.189 122.335 146.12 126.122Z" fill="#4F5164"/>
<path fill-rule="evenodd" clip-rule="evenodd" d="M138.917 76.2149L138.914 76.2225L138.917 76.2149ZM138.885 76.3071C138.73 76.7636 138.156 78.7354 139.986 78.1946C139.986 78.1946 138.865 80.456 135.64 83.2877C132.415 86.1194 132.063 88.4688 134.677 87.7267C134.677 87.7267 130.394 89.7351 126.114 88.6452C126.114 88.6452 127.125 88.1452 126.279 87.5942C125.434 87.0439 120.951 85.1771 118.188 80.8884C119.838 82.2861 122.318 84.3229 123.441 84.9218C124.49 85.4808 125.805 85.7414 127.102 85.7383C128.4 85.7414 129.714 85.4808 130.763 84.9218C132.077 84.2213 135.248 81.5524 136.775 80.2415C137.469 79.6542 138.226 78.1614 138.885 76.3071Z" fill="#4F5164"/>
<path fill-rule="evenodd" clip-rule="evenodd" d="M140.217 72.5369C140.217 72.5369 140.124 72.7499 139.893 72.8318C140.527 70.113 140.83 67.3153 140.442 65.637C140.301 65.0294 140.126 64.4066 139.919 63.7729C139.879 63.6475 139.836 63.5214 139.793 63.396C139.909 63.3703 140.022 63.3409 140.133 63.3084C140.875 63.0871 141.508 62.7015 142.046 62.2117C143.573 60.8257 144.348 58.616 144.729 57.0151C144.521 60.7871 143.663 65.8342 141.074 70.9514C140.808 71.4802 140.521 72.0089 140.217 72.5369Z" fill="#4F5164"/>
<path fill-rule="evenodd" clip-rule="evenodd" d="M107.818 74.6245C108.116 72.6358 108.572 70.4812 109.238 69.4177C110.036 72.5111 111.105 75.3859 112.373 78.0095C110.575 75.0146 109 74.4024 107.818 74.6245Z" fill="#4F5164"/>
<path fill-rule="evenodd" clip-rule="evenodd" d="M95.2715 90.3733C96.2062 89.4492 97.241 88.5417 98.3811 87.6825C105.649 82.2072 107.348 78.9042 107.348 78.9042C107.348 78.9042 107.44 82.0285 108.365 86.5068C109.2 90.5482 110.712 95.6915 113.447 100.633C113.445 100.631 113.444 100.63 113.444 100.628C108.949 92.7019 104.566 90.0338 101.231 89.3967C97.6451 88.7116 95.2715 90.3733 95.2715 90.3733Z" fill="#4F5164"/>
<path fill-rule="evenodd" clip-rule="evenodd" d="M151.525 84.4717C151.525 84.4717 154.027 87.0201 156.953 89.3333C158.71 90.7223 160.261 92.137 161.616 93.5872C161.616 93.5872 160.778 93.1219 159.444 92.921C157.802 92.674 155.411 92.8289 152.904 94.7451C152.606 94.9732 152.307 95.2259 152.007 95.5065C151.094 96.357 150.176 97.459 149.283 98.876C151.019 95.2961 151.53 91.3568 151.636 88.5036C151.724 86.1032 151.525 84.4717 151.525 84.4717Z" fill="#4F5164"/>
<path fill-rule="evenodd" clip-rule="evenodd" d="M146.69 86.7406C146.132 85.0343 144.904 85.2069 143.973 85.7552C144.722 82.9832 145.085 79.5779 144.95 75.4856C145.714 73.3998 146.003 71.9186 146.003 71.9186C146.003 71.9186 149.166 76.5906 149.26 81.121C149.26 81.121 149.516 83.9357 149.118 87.4887C148.443 93.5112 145.884 101.655 137.002 101.819C140.18 101.082 146.052 98.741 146.849 91.4488C147.1 89.1591 146.994 87.6707 146.69 86.7406Z" fill="#4F5164"/>
<path fill-rule="evenodd" clip-rule="evenodd" d="M135.368 126.977C136.133 126.977 136.756 126.354 136.756 125.588C136.756 124.824 136.133 124.2 135.368 124.2C134.604 124.2 133.979 124.824 133.979 125.588C133.979 126.353 134.603 126.977 135.368 126.977Z" fill="#5F626F"/>
<path fill-rule="evenodd" clip-rule="evenodd" d="M118.439 128.787C119.204 128.787 119.828 128.164 119.828 127.399C119.828 126.635 119.204 126.01 118.439 126.01C117.674 126.01 117.051 126.634 117.051 127.399C117.051 128.163 117.674 128.787 118.439 128.787Z" fill="#5F626F"/>
<path fill-rule="evenodd" clip-rule="evenodd" d="M151.654 119.825C152.419 119.825 153.042 119.201 153.042 118.436C153.042 117.672 152.419 117.048 151.654 117.048C150.889 117.048 150.266 117.671 150.266 118.436C150.266 119.201 150.889 119.825 151.654 119.825Z" fill="#5F626F"/>
<path d="M140.604 117.84C140.601 117.84 140.598 117.84 140.595 117.839C123.896 116.858 115.698 106.318 111.762 97.6481C107.504 88.2708 107.184 79.0012 107.181 78.909C107.178 78.8154 107.252 78.738 107.345 78.7349C107.458 78.7225 107.516 78.8063 107.519 78.8988C107.522 78.9914 107.84 88.2017 112.074 97.5186C115.972 106.099 124.088 116.532 140.615 117.503C140.708 117.509 140.779 117.588 140.773 117.681C140.767 117.771 140.693 117.84 140.604 117.84ZM136.723 101.989C135.905 101.989 135.052 101.923 134.162 101.791C134.07 101.778 134.007 101.692 134.02 101.6C134.034 101.509 134.117 101.444 134.212 101.458C138.398 102.078 141.779 101.205 144.259 98.8604C150.13 93.3114 149.105 81.2581 149.094 81.1361C149.085 81.0432 149.154 80.9612 149.247 80.9533C149.335 80.9416 149.421 81.013 149.429 81.1059C149.44 81.2282 150.48 93.4432 144.491 99.1043C142.462 101.023 139.856 101.989 136.723 101.989ZM148.157 101.038C148.125 101.038 148.092 101.029 148.065 101.01C147.986 100.959 147.965 100.854 148.016 100.777C152.461 94.015 151.371 84.5868 151.36 84.4923C151.349 84.3994 151.414 84.3152 151.507 84.3043C151.602 84.2933 151.684 84.3594 151.694 84.4512C151.706 84.5471 152.811 94.0985 148.298 100.961C148.265 101.01 148.211 101.038 148.157 101.038ZM133.356 95.5876C124.615 95.5876 113.253 85.6385 109.075 69.4596C109.051 69.3698 109.105 69.2776 109.195 69.2546C109.287 69.2308 109.377 69.2855 109.401 69.3747C113.786 86.3493 126.102 96.398 134.851 95.1453C141.388 94.205 144.993 87.3486 144.803 76.2881C142.585 81.8299 137.273 90.5077 126.09 88.8113C125.998 88.798 125.935 88.7116 125.949 88.6194C125.963 88.528 126.045 88.4623 126.141 88.4778C141.942 90.8759 145.803 72.0753 145.839 71.885C145.857 71.7943 145.944 71.7309 146.037 71.752C146.128 71.7698 146.188 71.8582 146.17 71.9496C146.16 72.002 145.864 73.4424 145.119 75.4652C145.12 75.4705 145.12 75.4739 145.12 75.4791C145.507 87.1983 141.782 94.4882 134.899 95.4781C134.396 95.5513 133.88 95.5876 133.356 95.5876ZM136.066 81.4598C136.008 81.4598 135.951 81.4295 135.92 81.3755C135.873 81.2943 135.901 81.1912 135.982 81.1455C142.837 77.1994 144.787 69.4551 144.806 69.3769C144.829 69.2871 144.919 69.23 145.009 69.2531C145.1 69.2761 145.155 69.3667 145.134 69.4574C145.114 69.5363 143.13 77.4207 136.15 81.4378C136.123 81.4526 136.095 81.4598 136.066 81.4598ZM140.218 72.706C140.189 72.706 140.161 72.6985 140.134 72.683C140.053 72.6365 140.025 72.5334 140.072 72.453C146.199 61.8468 144.351 50.866 144.331 50.7569C144.315 50.6647 144.376 50.5775 144.468 50.5612C144.559 50.542 144.647 50.6062 144.663 50.6976C144.683 50.8082 146.554 61.9057 140.364 72.6218C140.333 72.6758 140.276 72.706 140.218 72.706ZM113.832 72.3053C113.77 72.3053 113.711 72.2713 113.682 72.2124C108.126 61.1402 109.528 50.8059 109.543 50.7028C109.557 50.6115 109.636 50.5442 109.734 50.5605C109.826 50.5729 109.89 50.6587 109.877 50.7516C109.862 50.8535 108.478 61.087 113.983 72.0606C114.024 72.144 113.991 72.2456 113.908 72.2872C113.883 72.2996 113.858 72.3053 113.832 72.3053Z" fill="#4F5164"/>
<path fill-rule="evenodd" clip-rule="evenodd" d="M106.686 118.328C106.686 118.328 107.135 115.449 106.403 114.789C105.671 114.128 104.736 114.243 104.353 115.99C103.972 117.738 102.061 119.059 101.447 119.98C100.833 120.9 100.597 122.009 100.739 123.637C100.88 125.266 100.999 127.201 100.763 128.357C100.527 129.514 99.8185 131.189 98.403 133.572C96.986 135.956 96.3965 136.852 96.3965 136.852C96.3965 136.852 97.5295 142.61 104.279 143.554C104.279 143.554 107.676 137.183 109.423 135.247C111.169 133.313 113.859 132.558 115.322 131.095C116.786 129.631 121.01 120.924 121.553 119.815C122.096 118.706 121.14 118.399 120.526 118.552C120.526 118.552 121.553 115.98 122.001 115.012C122.449 114.045 121.883 112.228 120.042 113.078C120.042 113.078 120.679 112.181 120.986 111.237C121.608 109.323 119.378 109.139 118.29 110.027C117.989 110.272 117.664 110.64 117.304 111.189C117.304 111.189 116.88 109.703 115.629 109.892C114.379 110.08 109.446 116.168 106.686 118.328Z" fill="#FFC5B0"/>
<path fill-rule="evenodd" clip-rule="evenodd" d="M99.7749 131.047C99.7749 131.047 100.268 136.505 107.902 137.333L108.949 135.827C108.949 135.827 109.897 137.666 109.378 138.703C108.859 139.742 106.405 143.612 106.405 143.612C113.184 152.466 96.351 158.983 90.1714 153.802C79.8065 145.113 89.0935 131.038 95.7388 135.258C95.7388 135.258 98.6302 131.188 98.9247 130.844C99.2197 130.503 99.5422 130.25 100.083 130.376L99.7749 131.047Z" fill="white"/>
<path d="M116.646 125.49C116.618 125.49 116.589 125.483 116.562 125.468C116.482 125.422 116.454 125.319 116.499 125.238L120.381 118.468C120.426 118.386 120.531 118.36 120.61 118.405C120.691 118.452 120.719 118.555 120.673 118.635L116.792 125.405C116.761 125.46 116.704 125.49 116.646 125.49ZM113.956 123.131C113.925 123.131 113.895 123.123 113.868 123.106C113.788 123.057 113.763 122.953 113.813 122.874L119.9 112.989C119.95 112.909 120.054 112.886 120.132 112.934C120.211 112.982 120.236 113.087 120.187 113.166L114.099 123.051C114.067 123.103 114.011 123.131 113.956 123.131ZM110.511 121.432C110.478 121.432 110.445 121.423 110.416 121.403C110.339 121.351 110.319 121.246 110.37 121.169L117.166 111.095C117.218 111.018 117.323 110.998 117.4 111.049C117.477 111.101 117.497 111.206 117.445 111.283L110.65 121.358C110.618 121.406 110.565 121.432 110.511 121.432ZM104.045 121.007C104 121.007 103.956 120.989 103.922 120.955C103.858 120.887 103.861 120.781 103.928 120.716L106.57 118.206C106.638 118.141 106.745 118.144 106.809 118.212C106.873 118.279 106.871 118.386 106.803 118.45L104.161 120.961C104.128 120.992 104.087 121.007 104.045 121.007Z" fill="#EE8B83"/>
<path fill-rule="evenodd" clip-rule="evenodd" d="M147.52 118.328C147.52 118.328 147.071 115.449 147.803 114.789C148.535 114.128 149.47 114.243 149.852 115.99C150.234 117.738 152.145 119.059 152.759 119.98C153.372 120.9 153.608 122.009 153.467 123.637C153.326 125.266 153.207 127.201 153.443 128.357C153.679 129.514 154.387 131.189 155.803 133.572C157.22 135.956 157.81 136.852 157.81 136.852C157.81 136.852 156.676 142.61 149.928 143.554C149.928 143.554 146.53 137.183 144.784 135.247C143.037 133.313 140.347 132.558 138.884 131.095C137.421 129.631 133.196 120.924 132.654 119.815C132.111 118.706 133.067 118.399 133.681 118.552C133.681 118.552 132.654 115.98 132.205 115.012C131.757 114.045 132.324 112.228 134.164 113.078C134.164 113.078 133.527 112.181 133.22 111.237C132.598 109.323 134.829 109.139 135.916 110.027C136.217 110.272 136.542 110.64 136.901 111.189C136.901 111.189 137.326 109.703 138.577 109.892C139.826 110.08 144.759 116.168 147.52 118.328Z" fill="#FFC5B0"/>
<path fill-rule="evenodd" clip-rule="evenodd" d="M154.432 131.047C154.432 131.047 153.939 136.505 146.305 137.333L145.259 135.827C145.259 135.827 144.31 137.666 144.829 138.703C145.348 139.742 147.803 143.612 147.803 143.612C141.023 152.466 157.856 158.983 164.036 153.802C174.401 145.113 165.114 131.038 158.468 135.258C158.468 135.258 155.577 131.188 155.282 130.844C154.987 130.503 154.665 130.25 154.124 130.376L154.432 131.047Z" fill="white"/>
<path d="M137.559 125.49C137.501 125.49 137.444 125.46 137.413 125.405L133.532 118.635C133.486 118.554 133.514 118.452 133.594 118.405C133.673 118.36 133.778 118.386 133.824 118.468L137.706 125.238C137.751 125.319 137.723 125.422 137.643 125.468C137.617 125.483 137.588 125.49 137.559 125.49ZM140.25 123.131C140.193 123.131 140.138 123.103 140.106 123.05L134.019 113.165C133.97 113.086 133.994 112.982 134.074 112.933C134.153 112.887 134.256 112.909 134.305 112.988L140.393 122.874C140.441 122.953 140.417 123.057 140.337 123.105C140.311 123.123 140.28 123.131 140.25 123.131ZM143.695 121.432C143.641 121.432 143.588 121.406 143.555 121.358L136.759 111.283C136.707 111.206 136.727 111.101 136.805 111.049C136.882 110.998 136.987 111.018 137.039 111.095L143.835 121.169C143.887 121.246 143.867 121.351 143.789 121.403C143.76 121.423 143.727 121.432 143.695 121.432ZM150.161 121.007C150.119 121.007 150.077 120.992 150.044 120.961L147.403 118.45C147.335 118.386 147.332 118.279 147.396 118.212C147.46 118.144 147.568 118.141 147.635 118.206L150.276 120.716C150.344 120.781 150.347 120.887 150.283 120.955C150.25 120.989 150.205 121.007 150.161 121.007Z" fill="#EE8B83"/>
<path d="M101.903 154.695C101.836 154.695 101.773 154.654 101.746 154.588C101.712 154.501 101.755 154.403 101.842 154.369C104.918 153.156 107.03 151.211 107.636 149.032C108.109 147.327 107.663 145.555 106.308 143.765C96.7577 141.775 95.6828 136.136 95.5797 135.358C92.6869 133.58 89.5587 135.394 87.7316 138.001C87.6776 138.078 87.5722 138.096 87.4971 138.042C87.4204 137.989 87.4019 137.884 87.4552 137.808C89.7411 134.549 93.0317 133.448 95.693 135.032C96.1953 134.324 98.527 131.049 98.797 130.734C99.092 130.392 99.4817 130.062 100.121 130.212C100.212 130.233 100.269 130.324 100.247 130.415C100.226 130.505 100.136 130.563 100.044 130.54C99.6018 130.438 99.3386 130.623 99.0523 130.955C98.7838 131.266 96.2508 134.829 95.9128 135.304C95.9903 135.926 96.9412 141.448 106.325 143.423C106.71 142.812 108.763 139.555 109.227 138.628C109.702 137.678 108.808 135.922 108.799 135.904C108.756 135.821 108.789 135.72 108.872 135.677C108.954 135.634 109.056 135.666 109.098 135.749C109.139 135.828 110.08 137.677 109.529 138.778C109.053 139.732 107.004 142.98 106.61 143.604C108.006 145.468 108.46 147.324 107.961 149.122C107.327 151.404 105.142 153.431 101.966 154.683C101.944 154.691 101.924 154.695 101.903 154.695Z" fill="#C6C5C4"/>
<path d="M149.102 152.919C149.066 152.919 149.029 152.907 148.999 152.884C145.627 150.291 145.121 146.913 147.598 143.604C147.203 142.98 145.155 139.732 144.678 138.779C144.127 137.677 145.069 135.828 145.109 135.75C145.152 135.666 145.254 135.634 145.336 135.678C145.419 135.72 145.451 135.822 145.409 135.904C145.4 135.922 144.505 137.68 144.98 138.628C145.448 139.565 147.539 142.881 147.895 143.441C157.37 143.184 158.234 136.018 158.296 135.307C157.965 134.842 155.424 131.268 155.155 130.956C154.869 130.623 154.6 130.44 154.164 130.541C154.071 130.563 153.982 130.506 153.961 130.416C153.939 130.324 153.996 130.234 154.086 130.213C154.729 130.063 155.115 130.393 155.411 130.735C155.681 131.049 158.012 134.325 158.515 135.033C159.715 134.318 161.064 134.136 162.426 134.507C164.432 135.054 166.35 136.787 167.554 139.142C167.597 139.226 167.565 139.327 167.481 139.37C167.4 139.412 167.297 139.38 167.254 139.296C166.092 137.023 164.254 135.355 162.337 134.833C161.045 134.479 159.765 134.662 158.63 135.357C158.544 136.257 157.548 143.526 147.888 143.78C145.515 146.93 145.993 150.147 149.205 152.617C149.278 152.673 149.292 152.779 149.236 152.853C149.202 152.896 149.153 152.919 149.102 152.919Z" fill="#C6C5C4"/>
<path fill-rule="evenodd" clip-rule="evenodd" d="M119.588 130.812C120.353 130.812 120.977 130.188 120.977 129.423C120.977 128.659 120.353 128.036 119.588 128.036C118.823 128.036 118.199 128.659 118.199 129.423C118.199 130.188 118.823 130.812 119.588 130.812Z" fill="#5F626F"/>
<path fill-rule="evenodd" clip-rule="evenodd" d="M101.068 121.339C101.833 121.339 102.457 120.715 102.457 119.95C102.457 119.186 101.833 118.562 101.068 118.562C100.304 118.562 99.6797 119.186 99.6797 119.95C99.6797 120.715 100.304 121.339 101.068 121.339Z" fill="#5F626F"/>
<path fill-rule="evenodd" clip-rule="evenodd" d="M101.224 123.639C101.989 123.639 102.612 123.016 102.612 122.251C102.612 121.487 101.989 120.862 101.224 120.862C100.459 120.862 99.835 121.486 99.835 122.251C99.835 123.016 100.459 123.639 101.224 123.639Z" fill="#5F626F"/>
<path fill-rule="evenodd" clip-rule="evenodd" d="M102.08 125.701C102.844 125.701 103.468 125.078 103.468 124.312C103.468 123.547 102.845 122.923 102.08 122.923C101.315 122.923 100.691 123.547 100.691 124.312C100.691 125.078 101.315 125.701 102.08 125.701Z" fill="#5F626F"/>
<path fill-rule="evenodd" clip-rule="evenodd" d="M103.036 127.836C103.8 127.836 104.424 127.213 104.424 126.448C104.424 125.682 103.8 125.059 103.036 125.059C102.271 125.059 101.646 125.682 101.646 126.448C101.646 127.213 102.27 127.836 103.036 127.836Z" fill="#5F626F"/>
<path fill-rule="evenodd" clip-rule="evenodd" d="M103.597 129.946C104.362 129.946 104.986 129.322 104.986 128.557C104.986 127.791 104.362 127.168 103.597 127.168C102.832 127.168 102.209 127.791 102.209 128.557C102.209 129.322 102.832 129.946 103.597 129.946Z" fill="#5F626F"/>
<path fill-rule="evenodd" clip-rule="evenodd" d="M104.536 131.931C105.3 131.931 105.924 131.307 105.924 130.543C105.924 129.778 105.301 129.154 104.536 129.154C103.77 129.154 103.146 129.778 103.146 130.543C103.146 131.307 103.771 131.931 104.536 131.931Z" fill="#5F626F"/>
<path fill-rule="evenodd" clip-rule="evenodd" d="M105.315 134.229C106.079 134.229 106.703 133.605 106.703 132.84C106.703 132.076 106.079 131.452 105.315 131.452C104.55 131.452 103.926 132.075 103.926 132.84C103.926 133.605 104.55 134.229 105.315 134.229Z" fill="#5F626F"/>
<path fill-rule="evenodd" clip-rule="evenodd" d="M106.211 136.371C106.975 136.371 107.599 135.747 107.599 134.982C107.599 134.218 106.976 133.594 106.211 133.594C105.445 133.594 104.822 134.218 104.822 134.982C104.822 135.747 105.445 136.371 106.211 136.371Z" fill="#5F626F"/>
<path fill-rule="evenodd" clip-rule="evenodd" d="M106.462 138.711C107.226 138.711 107.851 138.088 107.851 137.323C107.851 136.559 107.227 135.935 106.462 135.935C105.698 135.935 105.073 136.559 105.073 137.323C105.073 138.088 105.697 138.711 106.462 138.711Z" fill="#5F626F"/>
<path fill-rule="evenodd" clip-rule="evenodd" d="M107.3 140.986C108.065 140.986 108.689 140.362 108.689 139.597C108.689 138.833 108.066 138.208 107.3 138.208C106.536 138.208 105.912 138.832 105.912 139.597C105.912 140.361 106.536 140.986 107.3 140.986Z" fill="#5F626F"/>
<path fill-rule="evenodd" clip-rule="evenodd" d="M108.09 142.977C108.855 142.977 109.479 142.353 109.479 141.589C109.479 140.824 108.856 140.2 108.09 140.2C107.325 140.2 106.702 140.824 106.702 141.589C106.703 142.353 107.326 142.977 108.09 142.977Z" fill="#5F626F"/>
<path fill-rule="evenodd" clip-rule="evenodd" d="M109.053 144.782C109.817 144.782 110.442 144.159 110.442 143.394C110.442 142.63 109.818 142.005 109.053 142.005C108.289 142.005 107.665 142.629 107.665 143.394C107.665 144.159 108.289 144.782 109.053 144.782Z" fill="#5F626F"/>
<path fill-rule="evenodd" clip-rule="evenodd" d="M110.396 146.359C111.161 146.359 111.785 145.736 111.785 144.971C111.785 144.207 111.161 143.582 110.396 143.582C109.632 143.582 109.009 144.206 109.009 144.971C109.009 145.736 109.632 146.359 110.396 146.359Z" fill="#5F626F"/>
<path fill-rule="evenodd" clip-rule="evenodd" d="M111.856 147.741C112.621 147.741 113.244 147.117 113.244 146.353C113.244 145.588 112.621 144.965 111.856 144.965C111.091 144.965 110.468 145.588 110.468 146.353C110.468 147.117 111.091 147.741 111.856 147.741Z" fill="#5F626F"/>
<path fill-rule="evenodd" clip-rule="evenodd" d="M113.609 149.3C114.374 149.3 114.997 148.676 114.997 147.911C114.997 147.146 114.374 146.523 113.609 146.523C112.844 146.523 112.22 147.146 112.22 147.911C112.22 148.676 112.844 149.3 113.609 149.3Z" fill="#5F626F"/>
<path fill-rule="evenodd" clip-rule="evenodd" d="M115.324 150.631C116.089 150.631 116.713 150.007 116.713 149.242C116.713 148.478 116.089 147.853 115.324 147.853C114.56 147.853 113.936 148.477 113.936 149.242C113.936 150.006 114.559 150.631 115.324 150.631Z" fill="#5F626F"/>
<path fill-rule="evenodd" clip-rule="evenodd" d="M117.317 151.851C118.082 151.851 118.705 151.228 118.705 150.463C118.705 149.698 118.082 149.075 117.317 149.075C116.553 149.075 115.929 149.698 115.929 150.463C115.929 151.228 116.553 151.851 117.317 151.851Z" fill="#5F626F"/>
<path fill-rule="evenodd" clip-rule="evenodd" d="M119.47 152.843C120.234 152.843 120.858 152.219 120.858 151.455C120.858 150.69 120.234 150.067 119.47 150.067C118.705 150.067 118.081 150.69 118.081 151.455C118.081 152.219 118.705 152.843 119.47 152.843Z" fill="#5F626F"/>
<path fill-rule="evenodd" clip-rule="evenodd" d="M121.719 153.585C122.484 153.585 123.108 152.962 123.108 152.196C123.108 151.432 122.484 150.808 121.719 150.808C120.955 150.808 120.331 151.432 120.331 152.196C120.331 152.962 120.955 153.585 121.719 153.585Z" fill="#5F626F"/>
<path fill-rule="evenodd" clip-rule="evenodd" d="M123.961 154.255C124.725 154.255 125.349 153.631 125.349 152.866C125.349 152.101 124.726 151.478 123.961 151.478C123.197 151.478 122.572 152.101 122.572 152.866C122.572 153.631 123.196 154.255 123.961 154.255Z" fill="#5F626F"/>
<path fill-rule="evenodd" clip-rule="evenodd" d="M120.66 132.759C121.424 132.759 122.048 132.136 122.048 131.37C122.048 130.605 121.425 129.982 120.66 129.982C119.894 129.982 119.271 130.605 119.271 131.37C119.271 132.136 119.894 132.759 120.66 132.759Z" fill="#5F626F"/>
<path fill-rule="evenodd" clip-rule="evenodd" d="M122.339 134.519C123.104 134.519 123.728 133.896 123.728 133.131C123.728 132.366 123.105 131.742 122.339 131.742C121.574 131.742 120.951 132.366 120.951 133.131C120.951 133.896 121.574 134.519 122.339 134.519Z" fill="#5F626F"/>
<path fill-rule="evenodd" clip-rule="evenodd" d="M124.013 136.041C124.778 136.041 125.401 135.418 125.401 134.653C125.401 133.888 124.778 133.264 124.013 133.264C123.248 133.264 122.624 133.888 122.624 134.653C122.624 135.418 123.248 136.041 124.013 136.041Z" fill="#5F626F"/>
<path fill-rule="evenodd" clip-rule="evenodd" d="M134.096 128.787C134.861 128.787 135.485 128.164 135.485 127.399C135.485 126.635 134.861 126.01 134.096 126.01C133.332 126.01 132.708 126.634 132.708 127.399C132.708 128.163 133.332 128.787 134.096 128.787Z" fill="#5F626F"/>
<path fill-rule="evenodd" clip-rule="evenodd" d="M132.948 130.812C133.713 130.812 134.336 130.188 134.336 129.423C134.336 128.659 133.713 128.036 132.948 128.036C132.183 128.036 131.56 128.659 131.56 129.423C131.56 130.188 132.183 130.812 132.948 130.812Z" fill="#5F626F"/>
<path fill-rule="evenodd" clip-rule="evenodd" d="M152.102 121.727C152.867 121.727 153.491 121.103 153.491 120.339C153.491 119.574 152.867 118.95 152.102 118.95C151.337 118.95 150.714 119.574 150.714 120.339C150.714 121.103 151.337 121.727 152.102 121.727Z" fill="#5F626F"/>
<path fill-rule="evenodd" clip-rule="evenodd" d="M151.31 123.639C152.075 123.639 152.698 123.016 152.698 122.251C152.698 121.487 152.075 120.862 151.31 120.862C150.545 120.862 149.922 121.486 149.922 122.251C149.922 123.016 150.545 123.639 151.31 123.639Z" fill="#5F626F"/>
<path fill-rule="evenodd" clip-rule="evenodd" d="M150.455 125.701C151.219 125.701 151.844 125.078 151.844 124.312C151.844 123.547 151.22 122.923 150.455 122.923C149.691 122.923 149.066 123.547 149.066 124.312C149.066 125.078 149.691 125.701 150.455 125.701Z" fill="#5F626F"/>
<path fill-rule="evenodd" clip-rule="evenodd" d="M149.5 127.836C150.264 127.836 150.888 127.213 150.888 126.448C150.888 125.682 150.265 125.059 149.5 125.059C148.736 125.059 148.111 125.682 148.111 126.448C148.111 127.213 148.735 127.836 149.5 127.836Z" fill="#5F626F"/>
<path fill-rule="evenodd" clip-rule="evenodd" d="M148.938 129.946C149.703 129.946 150.326 129.322 150.326 128.557C150.326 127.791 149.703 127.168 148.938 127.168C148.173 127.168 147.55 127.791 147.55 128.557C147.55 129.322 148.173 129.946 148.938 129.946Z" fill="#5F626F"/>
<path fill-rule="evenodd" clip-rule="evenodd" d="M148 131.931C148.765 131.931 149.389 131.307 149.389 130.543C149.389 129.778 148.765 129.154 148 129.154C147.235 129.154 146.611 129.778 146.611 130.543C146.611 131.307 147.236 131.931 148 131.931Z" fill="#5F626F"/>
<path fill-rule="evenodd" clip-rule="evenodd" d="M147.22 134.229C147.985 134.229 148.609 133.605 148.609 132.84C148.609 132.076 147.985 131.452 147.22 131.452C146.455 131.452 145.832 132.075 145.832 132.84C145.832 133.605 146.455 134.229 147.22 134.229Z" fill="#5F626F"/>
<path fill-rule="evenodd" clip-rule="evenodd" d="M146.325 136.371C147.09 136.371 147.714 135.747 147.714 134.982C147.714 134.218 147.09 133.594 146.325 133.594C145.56 133.594 144.937 134.218 144.937 134.982C144.937 135.747 145.56 136.371 146.325 136.371Z" fill="#5F626F"/>
<path fill-rule="evenodd" clip-rule="evenodd" d="M146.074 138.711C146.839 138.711 147.463 138.088 147.463 137.323C147.463 136.559 146.839 135.935 146.074 135.935C145.309 135.935 144.686 136.559 144.686 137.323C144.686 138.088 145.309 138.711 146.074 138.711Z" fill="#5F626F"/>
<path fill-rule="evenodd" clip-rule="evenodd" d="M145.234 140.986C145.999 140.986 146.622 140.362 146.622 139.597C146.622 138.833 145.999 138.208 145.234 138.208C144.47 138.208 143.846 138.832 143.846 139.597C143.846 140.361 144.47 140.986 145.234 140.986Z" fill="#5F626F"/>
<path fill-rule="evenodd" clip-rule="evenodd" d="M144.447 142.977C145.211 142.977 145.835 142.353 145.835 141.589C145.835 140.824 145.211 140.2 144.447 140.2C143.682 140.2 143.058 140.824 143.058 141.589C143.058 142.353 143.682 142.977 144.447 142.977Z" fill="#5F626F"/>
<path fill-rule="evenodd" clip-rule="evenodd" d="M143.481 144.782C144.246 144.782 144.87 144.159 144.87 143.394C144.87 142.63 144.246 142.005 143.481 142.005C142.717 142.005 142.094 142.629 142.094 143.394C142.094 144.159 142.717 144.782 143.481 144.782Z" fill="#5F626F"/>
<path fill-rule="evenodd" clip-rule="evenodd" d="M142.139 146.359C142.903 146.359 143.528 145.736 143.528 144.971C143.528 144.207 142.904 143.582 142.139 143.582C141.375 143.582 140.751 144.206 140.751 144.971C140.751 145.736 141.375 146.359 142.139 146.359Z" fill="#5F626F"/>
<path fill-rule="evenodd" clip-rule="evenodd" d="M140.678 147.741C141.443 147.741 142.067 147.117 142.067 146.353C142.067 145.588 141.443 144.965 140.678 144.965C139.913 144.965 139.29 145.588 139.29 146.353C139.29 147.117 139.914 147.741 140.678 147.741Z" fill="#5F626F"/>
<path fill-rule="evenodd" clip-rule="evenodd" d="M138.927 149.3C139.692 149.3 140.316 148.676 140.316 147.911C140.316 147.146 139.692 146.523 138.927 146.523C138.163 146.523 137.539 147.146 137.539 147.911C137.539 148.676 138.163 149.3 138.927 149.3Z" fill="#5F626F"/>
<path fill-rule="evenodd" clip-rule="evenodd" d="M137.212 150.631C137.976 150.631 138.6 150.007 138.6 149.242C138.6 148.478 137.976 147.853 137.212 147.853C136.447 147.853 135.823 148.477 135.823 149.242C135.823 150.006 136.446 150.631 137.212 150.631Z" fill="#5F626F"/>
<path fill-rule="evenodd" clip-rule="evenodd" d="M135.217 151.851C135.982 151.851 136.606 151.228 136.606 150.463C136.606 149.698 135.983 149.075 135.217 149.075C134.453 149.075 133.829 149.698 133.829 150.463C133.829 151.228 134.453 151.851 135.217 151.851Z" fill="#5F626F"/>
<path fill-rule="evenodd" clip-rule="evenodd" d="M133.064 152.843C133.829 152.843 134.453 152.219 134.453 151.455C134.453 150.69 133.829 150.067 133.064 150.067C132.3 150.067 131.676 150.69 131.676 151.455C131.676 152.219 132.3 152.843 133.064 152.843Z" fill="#5F626F"/>
<path fill-rule="evenodd" clip-rule="evenodd" d="M130.816 153.585C131.581 153.585 132.204 152.962 132.204 152.196C132.204 151.432 131.581 150.808 130.816 150.808C130.051 150.808 129.427 151.432 129.427 152.196C129.427 152.962 130.051 153.585 130.816 153.585Z" fill="#5F626F"/>
<path fill-rule="evenodd" clip-rule="evenodd" d="M128.574 154.255C129.339 154.255 129.963 153.631 129.963 152.866C129.963 152.101 129.339 151.478 128.574 151.478C127.809 151.478 127.186 152.101 127.186 152.866C127.186 153.631 127.809 154.255 128.574 154.255Z" fill="#5F626F"/>
<path fill-rule="evenodd" clip-rule="evenodd" d="M131.877 132.759C132.641 132.759 133.265 132.136 133.265 131.37C133.265 130.605 132.642 129.982 131.877 129.982C131.113 129.982 130.488 130.605 130.488 131.37C130.488 132.136 131.112 132.759 131.877 132.759Z" fill="#5F626F"/>
<path fill-rule="evenodd" clip-rule="evenodd" d="M130.197 134.519C130.961 134.519 131.585 133.896 131.585 133.131C131.585 132.366 130.961 131.742 130.197 131.742C129.432 131.742 128.808 132.366 128.808 133.131C128.808 133.896 129.432 134.519 130.197 134.519Z" fill="#5F626F"/>
<path fill-rule="evenodd" clip-rule="evenodd" d="M128.522 136.041C129.287 136.041 129.91 135.418 129.91 134.653C129.91 133.888 129.287 133.264 128.522 133.264C127.758 133.264 127.134 133.888 127.134 134.653C127.134 135.418 127.758 136.041 128.522 136.041Z" fill="#5F626F"/>
<path fill-rule="evenodd" clip-rule="evenodd" d="M126.272 154.531C127.037 154.531 127.66 153.908 127.66 153.143C127.66 152.379 127.037 151.755 126.272 151.755C125.508 151.755 124.884 152.378 124.884 153.143C124.884 153.908 125.508 154.531 126.272 154.531Z" fill="#5F626F"/>
<path fill-rule="evenodd" clip-rule="evenodd" d="M126.272 138.649C127.444 138.649 128.399 137.694 128.399 136.522C128.399 135.35 127.444 134.395 126.272 134.395C125.101 134.395 124.146 135.35 124.146 136.522C124.146 137.694 125.101 138.649 126.272 138.649Z" fill="#5F626F"/>
<path fill-rule="evenodd" clip-rule="evenodd" d="M125.881 143.876C125.888 143.889 125.896 143.9 125.904 143.91H125.905C125.916 143.923 125.935 143.933 125.959 143.941C126.027 143.965 126.15 143.974 126.27 143.974C126.389 143.974 126.511 143.964 126.575 143.946C126.599 143.938 126.618 143.929 126.629 143.919C126.64 143.91 126.649 143.898 126.657 143.883L126.658 143.881C126.665 143.87 126.67 143.855 126.673 143.839V143.838C126.678 143.809 126.721 143.123 126.776 142.215C126.872 140.628 127.006 138.361 127.043 137.735C127.056 137.501 126.86 137.341 126.604 137.267C126.498 137.236 126.381 137.22 126.264 137.22C126.147 137.22 126.03 137.235 125.924 137.268C125.674 137.343 125.487 137.512 125.502 137.782C125.543 138.471 125.674 140.683 125.768 142.232C125.823 143.132 125.865 143.809 125.87 143.838C125.873 143.851 125.877 143.863 125.881 143.874V143.876Z" fill="#E95E67"/>
<path d="M87.9284 101.868C87.9182 101.868 87.9069 101.867 87.8959 101.865C87.8046 101.847 87.7449 101.758 87.763 101.667C87.9488 100.715 90.8795 93.1223 98.2808 87.5473C105.065 82.4364 106.994 79.1931 107.183 78.8551C107.226 78.2361 107.7 71.6656 109.057 69.3898C108.759 68.2157 105.679 55.5675 109.547 50.6587C110.925 38.9305 119.353 33.6803 127.103 33.6803C134.863 33.6803 143.303 38.9452 144.664 50.7067C144.674 50.7996 144.609 50.883 144.516 50.894C144.42 50.9042 144.339 50.8381 144.329 50.7456C142.992 39.19 134.714 34.0179 127.103 34.0179C119.492 34.0179 111.213 39.19 109.876 50.7456C109.873 50.7773 109.861 50.8067 109.841 50.832C105.928 55.7122 109.365 69.2384 109.4 69.3743C109.411 69.4193 109.404 69.4672 109.38 69.5065C108.002 71.7098 107.521 78.8426 107.517 78.9148C107.515 78.9378 107.509 78.9605 107.499 78.9805C107.428 79.1168 105.698 82.3809 98.4832 87.8169C91.1661 93.3277 88.2762 100.795 88.0931 101.731C88.078 101.812 88.0074 101.868 87.9284 101.868Z" fill="#8E8E8E"/>
<path fill-rule="evenodd" clip-rule="evenodd" d="M100.694 120.205C101.036 120.205 101.315 119.926 101.315 119.583C101.315 119.241 101.036 118.962 100.694 118.962C100.352 118.962 100.072 119.241 100.072 119.583C100.072 119.926 100.352 120.205 100.694 120.205Z" fill="#707389"/>
<path d="M100.802 122.584C101.146 122.584 101.424 122.306 101.424 121.962C101.424 121.619 101.146 121.341 100.802 121.341C100.459 121.341 100.181 121.619 100.181 121.962C100.181 122.306 100.459 122.584 100.802 122.584Z" fill="#707389"/>
<path fill-rule="evenodd" clip-rule="evenodd" d="M101.731 124.755C102.072 124.755 102.352 124.476 102.352 124.134C102.352 123.791 102.073 123.513 101.731 123.513C101.389 123.513 101.109 123.791 101.109 124.134C101.109 124.476 101.389 124.755 101.731 124.755Z" fill="#707389"/>
<path fill-rule="evenodd" clip-rule="evenodd" d="M102.669 126.896C103.011 126.896 103.291 126.617 103.291 126.275C103.291 125.932 103.011 125.654 102.669 125.654C102.327 125.654 102.048 125.932 102.048 126.275C102.047 126.617 102.327 126.896 102.669 126.896Z" fill="#707389"/>
<path fill-rule="evenodd" clip-rule="evenodd" d="M103.337 128.993C103.679 128.993 103.958 128.714 103.958 128.371C103.958 128.03 103.679 127.751 103.337 127.751C102.995 127.751 102.716 128.029 102.716 128.371C102.716 128.714 102.995 128.993 103.337 128.993Z" fill="#707389"/>
<path fill-rule="evenodd" clip-rule="evenodd" d="M104.14 131.045C104.482 131.045 104.761 130.766 104.761 130.423C104.761 130.081 104.482 129.802 104.14 129.802C103.798 129.802 103.519 130.081 103.519 130.423C103.519 130.766 103.798 131.045 104.14 131.045Z" fill="#707389"/>
<path fill-rule="evenodd" clip-rule="evenodd" d="M105.033 133.275C105.375 133.275 105.655 132.996 105.655 132.654C105.655 132.312 105.375 132.033 105.033 132.033C104.691 132.033 104.412 132.311 104.412 132.654C104.412 132.996 104.691 133.275 105.033 133.275Z" fill="#707389"/>
<path fill-rule="evenodd" clip-rule="evenodd" d="M105.835 135.282C106.177 135.282 106.456 135.004 106.456 134.661C106.456 134.319 106.178 134.04 105.835 134.04C105.494 134.04 105.214 134.319 105.214 134.661C105.214 135.004 105.493 135.282 105.835 135.282Z" fill="#707389"/>
<path fill-rule="evenodd" clip-rule="evenodd" d="M106.103 137.825C106.445 137.825 106.724 137.546 106.724 137.204C106.724 136.862 106.445 136.583 106.103 136.583C105.761 136.583 105.481 136.861 105.481 137.204C105.481 137.546 105.761 137.825 106.103 137.825Z" fill="#707389"/>
<path fill-rule="evenodd" clip-rule="evenodd" d="M107.039 140.056C107.381 140.056 107.66 139.777 107.66 139.434C107.66 139.093 107.382 138.813 107.039 138.813C106.698 138.813 106.418 139.092 106.418 139.434C106.418 139.777 106.698 140.056 107.039 140.056Z" fill="#707389"/>
<path fill-rule="evenodd" clip-rule="evenodd" d="M107.776 141.806C108.118 141.806 108.397 141.527 108.397 141.185C108.397 140.842 108.118 140.563 107.776 140.563C107.433 140.563 107.154 140.842 107.154 141.185C107.155 141.527 107.433 141.806 107.776 141.806Z" fill="#707389"/>
<path d="M109.271 143.636C109.614 143.636 109.893 143.358 109.893 143.014C109.893 142.671 109.614 142.393 109.271 142.393C108.928 142.393 108.649 142.671 108.649 143.014C108.649 143.358 108.928 143.636 109.271 143.636Z" fill="#707389"/>
<path fill-rule="evenodd" clip-rule="evenodd" d="M110.608 145.197C110.95 145.197 111.229 144.918 111.229 144.575C111.229 144.233 110.95 143.954 110.608 143.954C110.266 143.954 109.986 144.233 109.986 144.575C109.986 144.918 110.266 145.197 110.608 145.197Z" fill="#707389"/>
<path fill-rule="evenodd" clip-rule="evenodd" d="M112.102 146.624C112.444 146.624 112.723 146.345 112.723 146.003C112.723 145.66 112.444 145.381 112.102 145.381C111.76 145.381 111.48 145.66 111.48 146.003C111.48 146.345 111.76 146.624 112.102 146.624Z" fill="#707389"/>
<path fill-rule="evenodd" clip-rule="evenodd" d="M113.508 148.052C113.85 148.052 114.129 147.773 114.129 147.43C114.129 147.088 113.851 146.809 113.508 146.809C113.167 146.809 112.887 147.088 112.887 147.43C112.887 147.773 113.167 148.052 113.508 148.052Z" fill="#707389"/>
<path fill-rule="evenodd" clip-rule="evenodd" d="M115.359 149.39C115.701 149.39 115.98 149.111 115.98 148.769C115.98 148.426 115.701 148.147 115.359 148.147C115.016 148.147 114.737 148.426 114.737 148.769C114.738 149.11 115.016 149.39 115.359 149.39Z" fill="#707389"/>
<path fill-rule="evenodd" clip-rule="evenodd" d="M117.299 150.639C117.641 150.639 117.921 150.36 117.921 150.017C117.921 149.675 117.641 149.396 117.299 149.396C116.957 149.396 116.678 149.675 116.678 150.017C116.678 150.36 116.957 150.639 117.299 150.639Z" fill="#707389"/>
<path fill-rule="evenodd" clip-rule="evenodd" d="M119.441 151.642C119.782 151.642 120.062 151.363 120.062 151.021C120.062 150.678 119.783 150.4 119.441 150.4C119.099 150.4 118.819 150.678 118.819 151.021C118.819 151.363 119.099 151.642 119.441 151.642Z" fill="#707389"/>
<path fill-rule="evenodd" clip-rule="evenodd" d="M121.716 152.446C122.057 152.446 122.337 152.166 122.337 151.824C122.337 151.482 122.058 151.203 121.716 151.203C121.374 151.203 121.095 151.482 121.095 151.824C121.095 152.167 121.374 152.446 121.716 152.446Z" fill="#707389"/>
<path d="M124.258 153.205C124.602 153.205 124.88 152.926 124.88 152.583C124.88 152.24 124.602 151.961 124.258 151.961C123.915 151.961 123.637 152.24 123.637 152.583C123.637 152.926 123.915 153.205 124.258 153.205Z" fill="#707389"/>
<path fill-rule="evenodd" clip-rule="evenodd" d="M126.311 153.427C126.652 153.427 126.932 153.147 126.932 152.806C126.932 152.463 126.652 152.184 126.311 152.184C125.969 152.184 125.689 152.463 125.689 152.806C125.69 153.147 125.969 153.427 126.311 153.427Z" fill="#707389"/>
<path d="M128.586 153.159C128.929 153.159 129.207 152.881 129.207 152.538C129.207 152.195 128.929 151.917 128.586 151.917C128.243 151.917 127.965 152.195 127.965 152.538C127.965 152.881 128.243 153.159 128.586 153.159Z" fill="#707389"/>
<path fill-rule="evenodd" clip-rule="evenodd" d="M130.816 152.49C131.158 152.49 131.437 152.21 131.437 151.869C131.437 151.526 131.158 151.247 130.816 151.247C130.473 151.247 130.194 151.526 130.194 151.869C130.195 152.21 130.473 152.49 130.816 152.49Z" fill="#707389"/>
<path fill-rule="evenodd" clip-rule="evenodd" d="M133.447 151.732C133.79 151.732 134.069 151.452 134.069 151.111C134.069 150.769 133.79 150.489 133.447 150.489C133.105 150.489 132.826 150.769 132.826 151.111C132.826 151.452 133.105 151.732 133.447 151.732Z" fill="#707389"/>
<path fill-rule="evenodd" clip-rule="evenodd" d="M135.188 150.795C135.53 150.795 135.809 150.516 135.809 150.174C135.809 149.831 135.531 149.552 135.188 149.552C134.845 149.552 134.566 149.831 134.566 150.174C134.566 150.516 134.846 150.795 135.188 150.795Z" fill="#707389"/>
<path fill-rule="evenodd" clip-rule="evenodd" d="M137.283 149.501C137.626 149.501 137.905 149.222 137.905 148.88C137.905 148.538 137.626 148.259 137.283 148.259C136.941 148.259 136.662 148.537 136.662 148.88C136.662 149.222 136.941 149.501 137.283 149.501Z" fill="#707389"/>
<path fill-rule="evenodd" clip-rule="evenodd" d="M139.112 148.163C139.455 148.163 139.734 147.884 139.734 147.542C139.734 147.199 139.455 146.92 139.112 146.92C138.771 146.92 138.491 147.199 138.491 147.542C138.491 147.884 138.771 148.163 139.112 148.163Z" fill="#707389"/>
<path d="M140.718 146.558C141.062 146.558 141.34 146.279 141.34 145.936C141.34 145.593 141.062 145.314 140.718 145.314C140.375 145.314 140.097 145.593 140.097 145.936C140.097 146.279 140.375 146.558 140.718 146.558Z" fill="#707389"/>
<path fill-rule="evenodd" clip-rule="evenodd" d="M142.236 145.085C142.577 145.085 142.857 144.806 142.857 144.464C142.857 144.121 142.577 143.842 142.236 143.842C141.893 143.842 141.614 144.121 141.614 144.464C141.615 144.806 141.893 145.085 142.236 145.085Z" fill="#707389"/>
<path d="M143.574 143.748C143.917 143.748 144.195 143.469 144.195 143.126C144.195 142.783 143.917 142.504 143.574 142.504C143.23 142.504 142.952 142.783 142.952 143.126C142.952 143.469 143.23 143.748 143.574 143.748Z" fill="#707389"/>
<path d="M144.421 141.918C144.764 141.918 145.042 141.64 145.042 141.297C145.042 140.954 144.764 140.676 144.421 140.676C144.078 140.676 143.8 140.954 143.8 141.297C143.8 141.64 144.078 141.918 144.421 141.918Z" fill="#707389"/>
<path d="M145.268 139.777C145.611 139.777 145.889 139.499 145.889 139.156C145.889 138.812 145.611 138.534 145.268 138.534C144.925 138.534 144.646 138.812 144.646 139.156C144.646 139.499 144.925 139.777 145.268 139.777Z" fill="#707389"/>
<path d="M145.983 137.458C146.326 137.458 146.605 137.179 146.605 136.836C146.605 136.493 146.326 136.214 145.983 136.214C145.64 136.214 145.361 136.493 145.361 136.836C145.361 137.179 145.64 137.458 145.983 137.458Z" fill="#707389"/>
<path d="M146.429 135.271C146.772 135.271 147.05 134.993 147.05 134.65C147.05 134.307 146.772 134.029 146.429 134.029C146.086 134.029 145.808 134.307 145.808 134.65C145.808 134.993 146.086 135.271 146.429 135.271Z" fill="#707389"/>
<path fill-rule="evenodd" clip-rule="evenodd" d="M147.252 133.086C147.595 133.086 147.874 132.806 147.874 132.465C147.874 132.122 147.595 131.843 147.252 131.843C146.911 131.843 146.632 132.122 146.632 132.465C146.632 132.806 146.911 133.086 147.252 133.086Z" fill="#707389"/>
<path fill-rule="evenodd" clip-rule="evenodd" d="M148.124 130.766C148.466 130.766 148.745 130.487 148.745 130.144C148.745 129.803 148.467 129.524 148.124 129.524C147.782 129.524 147.503 129.803 147.503 130.144C147.503 130.487 147.782 130.766 148.124 130.766Z" fill="#707389"/>
<path d="M149.061 128.759C149.404 128.759 149.683 128.481 149.683 128.137C149.683 127.794 149.404 127.516 149.061 127.516C148.718 127.516 148.439 127.794 148.439 128.137C148.439 128.481 148.718 128.759 149.061 128.759Z" fill="#707389"/>
<path d="M149.641 126.595C149.984 126.595 150.262 126.317 150.262 125.974C150.262 125.631 149.984 125.352 149.641 125.352C149.298 125.352 149.02 125.631 149.02 125.974C149.02 126.317 149.298 126.595 149.641 126.595Z" fill="#707389"/>
<path fill-rule="evenodd" clip-rule="evenodd" d="M150.376 124.364C150.718 124.364 150.998 124.085 150.998 123.743C150.998 123.4 150.718 123.122 150.376 123.122C150.034 123.122 149.755 123.4 149.755 123.743C149.755 124.085 150.034 124.364 150.376 124.364Z" fill="#707389"/>
<path fill-rule="evenodd" clip-rule="evenodd" d="M151.246 122.603C151.588 122.603 151.868 122.323 151.868 121.981C151.868 121.64 151.588 121.361 151.246 121.361C150.904 121.361 150.625 121.639 150.625 121.981C150.625 122.323 150.904 122.603 151.246 122.603Z" fill="#707389"/>
<path fill-rule="evenodd" clip-rule="evenodd" d="M151.781 120.728C152.124 120.728 152.403 120.45 152.403 120.107C152.403 119.766 152.124 119.486 151.781 119.486C151.439 119.486 151.16 119.765 151.16 120.107C151.16 120.45 151.439 120.728 151.781 120.728Z" fill="#707389"/>
<path d="M152.25 118.409C152.482 118.409 152.671 118.221 152.671 117.989C152.671 117.756 152.482 117.568 152.25 117.568C152.017 117.568 151.829 117.756 151.829 117.989C151.829 118.221 152.017 118.409 152.25 118.409Z" fill="#707389"/>
<path d="M118.972 127.643C119.205 127.643 119.393 127.455 119.393 127.223C119.393 126.99 119.205 126.802 118.972 126.802C118.74 126.802 118.552 126.99 118.552 127.223C118.552 127.455 118.74 127.643 118.972 127.643Z" fill="#707389"/>
<path fill-rule="evenodd" clip-rule="evenodd" d="M119.864 129.87C120.192 129.87 120.458 129.603 120.458 129.274C120.458 128.947 120.192 128.68 119.864 128.68C119.536 128.68 119.269 128.947 119.269 129.274C119.269 129.603 119.536 129.87 119.864 129.87Z" fill="#707389"/>
<path fill-rule="evenodd" clip-rule="evenodd" d="M121.069 131.632C121.396 131.632 121.663 131.365 121.663 131.037C121.663 130.709 121.396 130.442 121.069 130.442C120.741 130.442 120.474 130.709 120.474 131.037C120.474 131.365 120.741 131.632 121.069 131.632Z" fill="#707389"/>
<path fill-rule="evenodd" clip-rule="evenodd" d="M122.54 133.394C122.868 133.394 123.135 133.126 123.135 132.799C123.135 132.471 122.868 132.204 122.54 132.204C122.212 132.204 121.945 132.471 121.945 132.799C121.945 133.126 122.212 133.394 122.54 133.394Z" fill="#707389"/>
<path fill-rule="evenodd" clip-rule="evenodd" d="M124.036 134.866C124.363 134.866 124.63 134.599 124.63 134.271C124.63 133.943 124.363 133.676 124.036 133.676C123.707 133.676 123.44 133.943 123.44 134.271C123.44 134.598 123.707 134.866 124.036 134.866Z" fill="#707389"/>
<path fill-rule="evenodd" clip-rule="evenodd" d="M126.104 136.505C126.552 136.505 126.917 136.14 126.917 135.692C126.917 135.245 126.551 134.88 126.104 134.88C125.656 134.88 125.292 135.245 125.292 135.692C125.292 136.14 125.656 136.505 126.104 136.505Z" fill="#707389"/>
<path fill-rule="evenodd" clip-rule="evenodd" d="M128.496 134.821C128.823 134.821 129.091 134.554 129.091 134.226C129.091 133.899 128.823 133.631 128.496 133.631C128.167 133.631 127.9 133.899 127.9 134.226C127.9 134.554 128.167 134.821 128.496 134.821Z" fill="#707389"/>
<path fill-rule="evenodd" clip-rule="evenodd" d="M130.146 133.238C130.473 133.238 130.741 132.971 130.741 132.642C130.741 132.315 130.473 132.048 130.146 132.048C129.818 132.048 129.551 132.315 129.551 132.642C129.55 132.971 129.817 133.238 130.146 133.238Z" fill="#707389"/>
<path fill-rule="evenodd" clip-rule="evenodd" d="M131.507 131.431C131.835 131.431 132.102 131.164 132.102 130.836C132.102 130.509 131.835 130.241 131.507 130.241C131.18 130.241 130.912 130.509 130.912 130.836C130.912 131.164 131.18 131.431 131.507 131.431Z" fill="#707389"/>
<path fill-rule="evenodd" clip-rule="evenodd" d="M133.045 129.446C133.373 129.446 133.641 129.179 133.641 128.85C133.641 128.523 133.373 128.256 133.045 128.256C132.718 128.256 132.45 128.523 132.45 128.85C132.45 129.179 132.718 129.446 133.045 129.446Z" fill="#707389"/>
<path fill-rule="evenodd" clip-rule="evenodd" d="M133.983 127.528C134.31 127.528 134.578 127.261 134.578 126.933C134.578 126.605 134.31 126.338 133.983 126.338C133.655 126.338 133.388 126.605 133.388 126.933C133.388 127.261 133.655 127.528 133.983 127.528Z" fill="#707389"/>
</svg>
