<svg width="181" height="183" viewBox="0 0 181 183" fill="none" xmlns="http://www.w3.org/2000/svg">
<path fill-rule="evenodd" clip-rule="evenodd" d="M20.5098 182.636C27.8681 167.231 38.1056 154.094 50.2799 143.577C63.3525 132.283 78.6575 124.012 95.0271 119.194C95.0573 119.179 95.0876 119.165 95.12 119.154C96.1896 118.801 97.1685 118.373 98.0571 117.883L99.4185 118.532C98.3048 119.228 97.0442 119.824 95.6404 120.298C95.5993 120.322 95.554 120.34 95.5068 120.354C79.2587 125.116 64.0659 133.315 51.0941 144.522C39.1959 154.802 29.1642 167.618 21.8996 182.636H20.5098ZM119.004 31.0735C127.009 28.9994 135.787 29.8136 143.65 34.0268C150.232 37.5541 155.187 42.9342 158.214 49.1781C161.31 55.5673 162.389 62.8614 161.128 70.001C161.126 70.0226 161.123 70.043 161.119 70.0645C160.784 72.7946 161.038 75.1674 161.76 77.0489C162.385 78.677 163.359 79.9308 164.6 80.7163C165.606 81.3531 166.795 81.6862 168.121 81.6658L167.531 82.9034C166.196 82.8297 164.985 82.44 163.933 81.7742C162.463 80.844 161.317 79.3806 160.594 77.4953C159.805 75.4374 159.52 72.8705 159.876 69.9444C159.876 69.9112 159.88 69.8764 159.886 69.8424C161.116 62.9471 160.081 55.8977 157.088 49.7245C154.173 43.7115 149.401 38.5296 143.059 35.1314C135.146 30.8907 126.274 30.2241 118.291 32.5698L119.004 31.0735Z" fill="#4C487E"/>
<path fill-rule="evenodd" clip-rule="evenodd" d="M24.836 180.836C40.658 147.639 69.5346 124.881 102.39 115.763L102.373 115.756C114.103 112.074 115.928 99.6888 105.723 93.298L105.726 93.2965C91.3289 84.1776 85.6874 65.5318 93.2039 49.7612C101.322 32.7295 121.71 25.5034 138.741 33.6208C152.432 40.1463 159.785 54.6001 157.927 68.8654L157.93 68.8647C157.103 79.569 164.577 84.9314 173.391 77.9572L173.388 77.9632C175.611 76.0625 177.962 74.3384 180.417 72.7976V182.636H23.9961C24.2703 182.035 24.5505 181.435 24.836 180.836Z" fill="#4C487E"/>
<path d="M1.31753 146.276C1.73614 146.276 2.07549 145.937 2.07549 145.518C2.07549 145.1 1.73614 144.76 1.31753 144.76C0.898921 144.76 0.55957 145.1 0.55957 145.518C0.55957 145.937 0.898921 146.276 1.31753 146.276Z" fill="#4C487E"/>
<path d="M1.31753 149.972C1.73614 149.972 2.07549 149.632 2.07549 149.214C2.07549 148.795 1.73614 148.456 1.31753 148.456C0.898921 148.456 0.55957 148.795 0.55957 149.214C0.55957 149.632 0.898921 149.972 1.31753 149.972Z" fill="#4C487E"/>
<path d="M1.31753 153.667C1.73614 153.667 2.07549 153.328 2.07549 152.909C2.07549 152.491 1.73614 152.151 1.31753 152.151C0.898921 152.151 0.55957 152.491 0.55957 152.909C0.55957 153.328 0.898921 153.667 1.31753 153.667Z" fill="#4C487E"/>
<path d="M1.31753 157.362C1.73614 157.362 2.07549 157.023 2.07549 156.605C2.07549 156.186 1.73614 155.847 1.31753 155.847C0.898921 155.847 0.55957 156.186 0.55957 156.605C0.55957 157.023 0.898921 157.362 1.31753 157.362Z" fill="#4C487E"/>
<path d="M1.31753 161.058C1.73614 161.058 2.07549 160.719 2.07549 160.3C2.07549 159.881 1.73614 159.542 1.31753 159.542C0.898921 159.542 0.55957 159.881 0.55957 160.3C0.55957 160.719 0.898921 161.058 1.31753 161.058Z" fill="#4C487E"/>
<path d="M1.31813 164.754C1.73653 164.754 2.07571 164.414 2.07571 163.996C2.07571 163.578 1.73653 163.238 1.31813 163.238C0.899729 163.238 0.560547 163.578 0.560547 163.996C0.560547 164.414 0.899729 164.754 1.31813 164.754Z" fill="#4C487E"/>
<path d="M1.31753 168.45C1.73614 168.45 2.07549 168.11 2.07549 167.692C2.07549 167.273 1.73614 166.934 1.31753 166.934C0.898921 166.934 0.55957 167.273 0.55957 167.692C0.55957 168.11 0.898921 168.45 1.31753 168.45Z" fill="#4C487E"/>
<path d="M1.31753 172.145C1.73614 172.145 2.07549 171.806 2.07549 171.387C2.07549 170.969 1.73614 170.629 1.31753 170.629C0.898921 170.629 0.55957 170.969 0.55957 171.387C0.55957 171.806 0.898921 172.145 1.31753 172.145Z" fill="#4C487E"/>
<path d="M5.00698 146.276C5.4256 146.276 5.76495 145.937 5.76495 145.518C5.76495 145.1 5.4256 144.76 5.00698 144.76C4.58837 144.76 4.24902 145.1 4.24902 145.518C4.24902 145.937 4.58837 146.276 5.00698 146.276Z" fill="#4C487E"/>
<path d="M5.00698 149.972C5.4256 149.972 5.76495 149.632 5.76495 149.214C5.76495 148.795 5.4256 148.456 5.00698 148.456C4.58837 148.456 4.24902 148.795 4.24902 149.214C4.24902 149.632 4.58837 149.972 5.00698 149.972Z" fill="#4C487E"/>
<path d="M5.00698 153.667C5.4256 153.667 5.76495 153.328 5.76495 152.909C5.76495 152.491 5.4256 152.151 5.00698 152.151C4.58837 152.151 4.24902 152.491 4.24902 152.909C4.24902 153.328 4.58837 153.667 5.00698 153.667Z" fill="#4C487E"/>
<path d="M5.00698 157.363C5.4256 157.363 5.76495 157.023 5.76495 156.605C5.76495 156.186 5.4256 155.847 5.00698 155.847C4.58837 155.847 4.24902 156.186 4.24902 156.605C4.24902 157.023 4.58837 157.363 5.00698 157.363Z" fill="#4C487E"/>
<path d="M5.00698 161.058C5.4256 161.058 5.76495 160.719 5.76495 160.3C5.76495 159.881 5.4256 159.542 5.00698 159.542C4.58837 159.542 4.24902 159.881 4.24902 160.3C4.24902 160.719 4.58837 161.058 5.00698 161.058Z" fill="#4C487E"/>
<path d="M5.00758 164.754C5.42599 164.754 5.76517 164.415 5.76517 163.996C5.76517 163.578 5.42599 163.239 5.00758 163.239C4.58918 163.239 4.25 163.578 4.25 163.996C4.25 164.415 4.58918 164.754 5.00758 164.754Z" fill="#4C487E"/>
<path d="M5.00698 168.45C5.4256 168.45 5.76495 168.11 5.76495 167.692C5.76495 167.273 5.4256 166.934 5.00698 166.934C4.58837 166.934 4.24902 167.273 4.24902 167.692C4.24902 168.11 4.58837 168.45 5.00698 168.45Z" fill="#4C487E"/>
<path d="M5.00698 172.145C5.4256 172.145 5.76495 171.806 5.76495 171.387C5.76495 170.969 5.4256 170.629 5.00698 170.629C4.58837 170.629 4.24902 170.969 4.24902 171.387C4.24902 171.806 4.58837 172.145 5.00698 172.145Z" fill="#4C487E"/>
<path d="M8.69937 146.276C9.11798 146.276 9.45733 145.937 9.45733 145.518C9.45733 145.1 9.11798 144.76 8.69937 144.76C8.28076 144.76 7.94141 145.1 7.94141 145.518C7.94141 145.937 8.28076 146.276 8.69937 146.276Z" fill="#4C487E"/>
<path d="M8.69937 149.972C9.11798 149.972 9.45733 149.632 9.45733 149.214C9.45733 148.795 9.11798 148.456 8.69937 148.456C8.28076 148.456 7.94141 148.795 7.94141 149.214C7.94141 149.632 8.28076 149.972 8.69937 149.972Z" fill="#4C487E"/>
<path d="M8.69937 153.667C9.11798 153.667 9.45733 153.328 9.45733 152.909C9.45733 152.491 9.11798 152.151 8.69937 152.151C8.28076 152.151 7.94141 152.491 7.94141 152.909C7.94141 153.328 8.28076 153.667 8.69937 153.667Z" fill="#4C487E"/>
<path d="M8.69937 157.363C9.11798 157.363 9.45733 157.023 9.45733 156.605C9.45733 156.186 9.11798 155.847 8.69937 155.847C8.28076 155.847 7.94141 156.186 7.94141 156.605C7.94141 157.023 8.28076 157.363 8.69937 157.363Z" fill="#4C487E"/>
<path d="M8.69937 161.058C9.11798 161.058 9.45733 160.719 9.45733 160.3C9.45733 159.881 9.11798 159.542 8.69937 159.542C8.28076 159.542 7.94141 159.881 7.94141 160.3C7.94141 160.719 8.28076 161.058 8.69937 161.058Z" fill="#4C487E"/>
<path d="M8.69997 164.754C9.11837 164.754 9.45755 164.415 9.45755 163.996C9.45755 163.578 9.11837 163.239 8.69997 163.239C8.28156 163.239 7.94238 163.578 7.94238 163.996C7.94238 164.415 8.28156 164.754 8.69997 164.754Z" fill="#4C487E"/>
<path d="M8.69937 168.45C9.11798 168.45 9.45733 168.11 9.45733 167.692C9.45733 167.273 9.11798 166.934 8.69937 166.934C8.28076 166.934 7.94141 167.273 7.94141 167.692C7.94141 168.11 8.28076 168.45 8.69937 168.45Z" fill="#4C487E"/>
<path d="M8.69937 172.145C9.11798 172.145 9.45733 171.806 9.45733 171.387C9.45733 170.969 9.11798 170.629 8.69937 170.629C8.28076 170.629 7.94141 170.969 7.94141 171.387C7.94141 171.806 8.28076 172.145 8.69937 172.145Z" fill="#4C487E"/>
<path d="M127.121 2.243C127.539 2.243 127.879 1.90348 127.879 1.48466C127.879 1.06584 127.539 0.726318 127.121 0.726318C126.702 0.726318 126.362 1.06584 126.362 1.48466C126.362 1.90348 126.702 2.243 127.121 2.243Z" fill="#4C487E"/>
<path d="M123.427 2.24267C123.846 2.24267 124.185 1.90332 124.185 1.48471C124.185 1.0661 123.846 0.726746 123.427 0.726746C123.008 0.726746 122.669 1.0661 122.669 1.48471C122.669 1.90332 123.008 2.24267 123.427 2.24267Z" fill="#4C487E"/>
<path d="M119.731 2.243C120.15 2.243 120.489 1.90348 120.489 1.48466C120.489 1.06584 120.15 0.726318 119.731 0.726318C119.312 0.726318 118.973 1.06584 118.973 1.48466C118.973 1.90348 119.312 2.243 119.731 2.243Z" fill="#4C487E"/>
<path d="M116.035 2.24267C116.454 2.24267 116.793 1.90332 116.793 1.48471C116.793 1.0661 116.454 0.726746 116.035 0.726746C115.617 0.726746 115.277 1.0661 115.277 1.48471C115.277 1.90332 115.617 2.24267 116.035 2.24267Z" fill="#4C487E"/>
<path d="M112.339 2.24267C112.758 2.24267 113.097 1.90332 113.097 1.48471C113.097 1.0661 112.758 0.726746 112.339 0.726746C111.92 0.726746 111.581 1.0661 111.581 1.48471C111.581 1.90332 111.92 2.24267 112.339 2.24267Z" fill="#4C487E"/>
<path d="M108.643 2.243C109.062 2.243 109.401 1.90348 109.401 1.48466C109.401 1.06584 109.062 0.726318 108.643 0.726318C108.224 0.726318 107.885 1.06584 107.885 1.48466C107.885 1.90348 108.224 2.243 108.643 2.243Z" fill="#4C487E"/>
<path d="M104.948 2.24267C105.367 2.24267 105.706 1.90332 105.706 1.48471C105.706 1.0661 105.367 0.726746 104.948 0.726746C104.53 0.726746 104.19 1.0661 104.19 1.48471C104.19 1.90332 104.53 2.24267 104.948 2.24267Z" fill="#4C487E"/>
<path d="M101.252 2.243C101.671 2.243 102.011 1.90348 102.011 1.48466C102.011 1.06584 101.671 0.726318 101.252 0.726318C100.834 0.726318 100.494 1.06584 100.494 1.48466C100.494 1.90348 100.834 2.243 101.252 2.243Z" fill="#4C487E"/>
<path d="M127.12 5.93343C127.539 5.93343 127.878 5.59391 127.878 5.17509C127.878 4.75627 127.539 4.41675 127.12 4.41675C126.701 4.41675 126.361 4.75627 126.361 5.17509C126.361 5.59391 126.701 5.93343 127.12 5.93343Z" fill="#4C487E"/>
<path d="M123.426 5.93304C123.845 5.93304 124.184 5.59369 124.184 5.17508C124.184 4.75646 123.845 4.41711 123.426 4.41711C123.007 4.41711 122.668 4.75646 122.668 5.17508C122.668 5.59369 123.007 5.93304 123.426 5.93304Z" fill="#4C487E"/>
<path d="M119.73 5.93343C120.149 5.93343 120.488 5.59391 120.488 5.17509C120.488 4.75627 120.149 4.41675 119.73 4.41675C119.311 4.41675 118.972 4.75627 118.972 5.17509C118.972 5.59391 119.311 5.93343 119.73 5.93343Z" fill="#4C487E"/>
<path d="M116.034 5.93304C116.453 5.93304 116.792 5.59369 116.792 5.17508C116.792 4.75646 116.453 4.41711 116.034 4.41711C115.616 4.41711 115.276 4.75646 115.276 5.17508C115.276 5.59369 115.616 5.93304 116.034 5.93304Z" fill="#4C487E"/>
<path d="M112.338 5.93304C112.757 5.93304 113.096 5.59369 113.096 5.17508C113.096 4.75646 112.757 4.41711 112.338 4.41711C111.919 4.41711 111.58 4.75646 111.58 5.17508C111.58 5.59369 111.919 5.93304 112.338 5.93304Z" fill="#4C487E"/>
<path d="M108.642 5.93343C109.061 5.93343 109.4 5.59391 109.4 5.17509C109.4 4.75627 109.061 4.41675 108.642 4.41675C108.223 4.41675 107.884 4.75627 107.884 5.17509C107.884 5.59391 108.223 5.93343 108.642 5.93343Z" fill="#4C487E"/>
<path d="M104.947 5.93304C105.366 5.93304 105.705 5.59369 105.705 5.17508C105.705 4.75646 105.366 4.41711 104.947 4.41711C104.529 4.41711 104.189 4.75646 104.189 5.17508C104.189 5.59369 104.529 5.93304 104.947 5.93304Z" fill="#4C487E"/>
<path d="M101.252 5.93343C101.67 5.93343 102.01 5.59391 102.01 5.17509C102.01 4.75627 101.67 4.41675 101.252 4.41675C100.833 4.41675 100.493 4.75627 100.493 5.17509C100.493 5.59391 100.833 5.93343 101.252 5.93343Z" fill="#4C487E"/>
<path d="M127.12 9.62355C127.539 9.62355 127.878 9.28403 127.878 8.86521C127.878 8.44639 127.539 8.10687 127.12 8.10687C126.701 8.10687 126.361 8.44639 126.361 8.86521C126.361 9.28403 126.701 9.62355 127.12 9.62355Z" fill="#4C487E"/>
<path d="M123.426 9.62322C123.845 9.62322 124.184 9.28387 124.184 8.86526C124.184 8.44665 123.845 8.1073 123.426 8.1073C123.007 8.1073 122.668 8.44665 122.668 8.86526C122.668 9.28387 123.007 9.62322 123.426 9.62322Z" fill="#4C487E"/>
<path d="M119.73 9.62355C120.149 9.62355 120.488 9.28403 120.488 8.86521C120.488 8.44639 120.149 8.10687 119.73 8.10687C119.311 8.10687 118.972 8.44639 118.972 8.86521C118.972 9.28403 119.311 9.62355 119.73 9.62355Z" fill="#4C487E"/>
<path d="M116.034 9.62322C116.453 9.62322 116.792 9.28387 116.792 8.86526C116.792 8.44665 116.453 8.1073 116.034 8.1073C115.616 8.1073 115.276 8.44665 115.276 8.86526C115.276 9.28387 115.616 9.62322 116.034 9.62322Z" fill="#4C487E"/>
<path d="M112.338 9.62322C112.757 9.62322 113.096 9.28387 113.096 8.86526C113.096 8.44665 112.757 8.1073 112.338 8.1073C111.919 8.1073 111.58 8.44665 111.58 8.86526C111.58 9.28387 111.919 9.62322 112.338 9.62322Z" fill="#4C487E"/>
<path d="M108.642 9.62355C109.061 9.62355 109.4 9.28403 109.4 8.86521C109.4 8.44639 109.061 8.10687 108.642 8.10687C108.223 8.10687 107.884 8.44639 107.884 8.86521C107.884 9.28403 108.223 9.62355 108.642 9.62355Z" fill="#4C487E"/>
<path d="M104.947 9.62322C105.366 9.62322 105.705 9.28387 105.705 8.86526C105.705 8.44665 105.366 8.1073 104.947 8.1073C104.529 8.1073 104.189 8.44665 104.189 8.86526C104.189 9.28387 104.529 9.62322 104.947 9.62322Z" fill="#4C487E"/>
<path d="M101.252 9.62355C101.67 9.62355 102.01 9.28403 102.01 8.86521C102.01 8.44639 101.67 8.10687 101.252 8.10687C100.833 8.10687 100.493 8.44639 100.493 8.86521C100.493 9.28403 100.833 9.62355 101.252 9.62355Z" fill="#4C487E"/>
<path d="M74.5813 101.2H68.7857C68.6928 101.2 68.6177 101.124 68.6177 101.031C68.6177 100.938 68.6928 100.862 68.7857 100.862H70.4773V97.4013H55.7773V100.862H66.0251C66.118 100.862 66.1931 100.938 66.1931 101.031C66.1931 101.124 66.118 101.2 66.0251 101.2H51.3658C51.2729 101.2 51.1978 101.124 51.1978 101.031C51.1978 100.938 51.2729 100.862 51.3658 100.862H55.4397V97.4013H49.9308C49.8378 97.4013 49.7619 97.3261 49.7619 97.2332C49.7619 97.1403 49.8378 97.0644 49.9308 97.0644H52.0619V94.5824C52.0619 94.4895 52.1378 94.4144 52.2307 94.4144C52.3236 94.4144 52.3987 94.4895 52.3987 94.5824V97.0644H72.9906C73.0835 97.0644 73.1594 97.1403 73.1594 97.2332C73.1594 97.3261 73.0835 97.4013 72.9906 97.4013H70.8138V100.862H74.5809C74.6738 100.862 74.7497 100.938 74.7497 101.031C74.7497 101.124 74.6742 101.2 74.5813 101.2ZM48.28 97.4013H47.5194C47.4265 97.4013 47.3506 97.3261 47.3506 97.2332C47.3506 97.1403 47.4265 97.0644 47.5194 97.0644H48.28C48.3729 97.0644 48.4481 97.1403 48.4481 97.2332C48.4481 97.3261 48.3729 97.4013 48.28 97.4013Z" fill="#D7D7D7"/>
<path d="M92.4241 18.4071H86.6285C86.5356 18.4071 86.4597 18.3312 86.4597 18.2383C86.4597 18.1454 86.5356 18.0703 86.6285 18.0703H88.3193V14.6094H73.6193V18.0703H83.8671C83.96 18.0703 84.0359 18.1454 84.0359 18.2383C84.0359 18.3312 83.96 18.4071 83.8671 18.4071H69.2086C69.1157 18.4071 69.0398 18.3312 69.0398 18.2383C69.0398 18.1454 69.1157 18.0703 69.2086 18.0703H73.2824V14.6094H67.7731C67.6802 14.6094 67.6051 14.5335 67.6051 14.4406C67.6051 14.3477 67.6802 14.2718 67.7731 14.2718H69.9043V11.7906C69.9043 11.6977 69.9802 11.6225 70.0731 11.6225C70.166 11.6225 70.2419 11.6977 70.2419 11.7906V14.2718H90.833C90.9259 14.2718 91.0018 14.3477 91.0018 14.4406C91.0018 14.5335 90.9259 14.6094 90.833 14.6094H88.6569V18.0703H92.4241C92.517 18.0703 92.5921 18.1454 92.5921 18.2383C92.5921 18.3312 92.517 18.4071 92.4241 18.4071ZM66.122 14.609H65.3622C65.2693 14.609 65.1934 14.5331 65.1934 14.4402C65.1934 14.3473 65.2693 14.2714 65.3622 14.2714H66.122C66.2149 14.2714 66.2908 14.3473 66.2908 14.4402C66.2908 14.5331 66.2149 14.609 66.122 14.609Z" fill="#D7D7D7"/>
<path d="M24.1718 132.132C24.0789 132.132 24.0029 132.057 24.0029 131.964V129.482H5.75636H3.41148C3.31857 129.482 3.24267 129.406 3.24267 129.313C3.24267 129.22 3.31857 129.145 3.41148 129.145H5.58755V125.684H1.82116C1.72825 125.684 1.65234 125.608 1.65234 125.515C1.65234 125.422 1.72825 125.346 1.82116 125.346H5.75636H7.61595C7.70886 125.346 7.78477 125.422 7.78477 125.515C7.78477 125.608 7.70886 125.684 7.61595 125.684H5.92518V129.145H20.6252V125.684H10.3778C10.2849 125.684 10.209 125.608 10.209 125.515C10.209 125.422 10.2849 125.346 10.3778 125.346H25.0362C25.1291 125.346 25.205 125.422 25.205 125.515C25.205 125.608 25.1291 125.684 25.0362 125.684H20.9632V129.145H26.4717C26.5646 129.145 26.6405 129.22 26.6405 129.313C26.6405 129.406 26.5646 129.482 26.4717 129.482H24.3398V131.964C24.3402 132.056 24.2647 132.132 24.1718 132.132ZM28.8831 129.481H28.1217C28.0288 129.481 27.9536 129.406 27.9536 129.313C27.9536 129.22 28.0288 129.145 28.1217 129.145H28.8831C28.976 129.145 29.0511 129.22 29.0511 129.313C29.0511 129.406 28.976 129.481 28.8831 129.481Z" fill="#D7D7D7"/>
<path d="M80.6526 167.819H79.892C79.7991 167.819 79.7232 167.743 79.7232 167.65C79.7232 167.558 79.7991 167.482 79.892 167.482H80.6526C80.7455 167.482 80.8214 167.558 80.8214 167.65C80.8214 167.743 80.7455 167.819 80.6526 167.819ZM78.2412 167.819H55.181C55.0881 167.819 55.0122 167.743 55.0122 167.65C55.0122 167.558 55.0881 167.482 55.181 167.482H57.3578V164.021H53.5907C53.4978 164.021 53.4219 163.945 53.4219 163.852C53.4219 163.759 53.4978 163.683 53.5907 163.683H59.3855C59.4784 163.683 59.5543 163.759 59.5543 163.852C59.5543 163.945 59.4784 164.021 59.3855 164.021H57.6947V167.482H72.3947V164.021H62.1469C62.054 164.021 61.9789 163.945 61.9789 163.852C61.9789 163.759 62.054 163.683 62.1469 163.683H76.8061C76.899 163.683 76.9742 163.759 76.9742 163.852C76.9742 163.945 76.899 164.021 76.8061 164.021H72.7323V167.482H78.2409C78.3338 167.482 78.4097 167.558 78.4097 167.65C78.4097 167.743 78.3341 167.819 78.2412 167.819Z" fill="#756FBD"/>
<path d="M160.934 12.3099C160.842 12.3099 160.766 12.2347 160.766 12.1418V11.4926C160.766 11.3997 160.842 11.3238 160.934 11.3238C161.027 11.3238 161.103 11.3997 161.103 11.4926V12.1418C161.103 12.2347 161.027 12.3099 160.934 12.3099Z" fill="white"/>
<path d="M162.075 12.8034H161.427C161.334 12.8034 161.258 12.7275 161.258 12.6346C161.258 12.5417 161.334 12.4658 161.427 12.4658H162.075C162.168 12.4658 162.244 12.5417 162.244 12.6346C162.244 12.7275 162.168 12.8034 162.075 12.8034Z" fill="white"/>
<path d="M160.934 13.9452C160.842 13.9452 160.766 13.8693 160.766 13.7764V13.1272C160.766 13.0343 160.842 12.9591 160.934 12.9591C161.027 12.9591 161.103 13.0343 161.103 13.1272V13.7764C161.103 13.8693 161.027 13.9452 160.934 13.9452Z" fill="white"/>
<path d="M160.441 12.8034H159.792C159.699 12.8034 159.624 12.7275 159.624 12.6346C159.624 12.5417 159.699 12.4658 159.792 12.4658H160.441C160.534 12.4658 160.609 12.5417 160.609 12.6346C160.609 12.7275 160.535 12.8034 160.441 12.8034Z" fill="white"/>
<path d="M141.426 24.134C141.333 24.134 141.258 24.0581 141.258 23.9652V23.316C141.258 23.2231 141.333 23.1472 141.426 23.1472C141.519 23.1472 141.595 23.2231 141.595 23.316V23.9652C141.595 24.0581 141.519 24.134 141.426 24.134Z" fill="white"/>
<path d="M142.567 24.6264H141.918C141.825 24.6264 141.749 24.5505 141.749 24.4576C141.749 24.3647 141.825 24.2896 141.918 24.2896H142.567C142.66 24.2896 142.736 24.3647 142.736 24.4576C142.736 24.5505 142.66 24.6264 142.567 24.6264Z" fill="white"/>
<path d="M141.426 25.7685C141.333 25.7685 141.258 25.6926 141.258 25.5997V24.9512C141.258 24.8583 141.333 24.7824 141.426 24.7824C141.519 24.7824 141.595 24.8583 141.595 24.9512V25.5997C141.595 25.6926 141.519 25.7685 141.426 25.7685Z" fill="white"/>
<path d="M140.932 24.6264H140.284C140.191 24.6264 140.115 24.5505 140.115 24.4576C140.115 24.3647 140.191 24.2896 140.284 24.2896H140.932C141.025 24.2896 141.101 24.3647 141.101 24.4576C141.101 24.5505 141.025 24.6264 140.932 24.6264Z" fill="white"/>
<path d="M160.428 43.7608C160.335 43.7608 160.26 43.6849 160.26 43.592V42.9436C160.26 42.8507 160.335 42.7748 160.428 42.7748C160.521 42.7748 160.597 42.8507 160.597 42.9436V43.592C160.597 43.6849 160.521 43.7608 160.428 43.7608Z" fill="white"/>
<path d="M161.57 44.2537H160.921C160.828 44.2537 160.752 44.1785 160.752 44.0856C160.752 43.9927 160.828 43.9168 160.921 43.9168H161.57C161.663 43.9168 161.738 43.9927 161.738 44.0856C161.738 44.1785 161.663 44.2537 161.57 44.2537Z" fill="white"/>
<path d="M160.428 45.3957C160.335 45.3957 160.26 45.3206 160.26 45.2276V44.5785C160.26 44.4856 160.335 44.4104 160.428 44.4104C160.521 44.4104 160.597 44.4856 160.597 44.5785V45.2276C160.597 45.3202 160.521 45.3957 160.428 45.3957Z" fill="white"/>
<path d="M159.935 44.2537H159.286C159.193 44.2537 159.118 44.1785 159.118 44.0856C159.118 43.9927 159.193 43.9168 159.286 43.9168H159.935C160.028 43.9168 160.104 43.9927 160.104 44.0856C160.104 44.1785 160.028 44.2537 159.935 44.2537Z" fill="white"/>
<path d="M32.0614 6.54033C31.9685 6.54033 31.8926 6.46442 31.8926 6.37151V5.72232C31.8926 5.62941 31.9685 5.55426 32.0614 5.55426C32.1543 5.55426 32.2295 5.62941 32.2295 5.72232V6.37151C32.2295 6.46442 32.1543 6.54033 32.0614 6.54033Z" fill="white"/>
<path d="M33.203 7.03355H32.5546C32.4617 7.03355 32.3857 6.95764 32.3857 6.86474C32.3857 6.77183 32.4617 6.69592 32.5546 6.69592H33.203C33.2959 6.69592 33.3718 6.77183 33.3718 6.86474C33.3718 6.95764 33.2959 7.03355 33.203 7.03355Z" fill="white"/>
<path d="M32.0614 8.17489C31.9685 8.17489 31.8926 8.09973 31.8926 8.00683V7.35763C31.8926 7.26473 31.9685 7.18958 32.0614 7.18958C32.1543 7.18958 32.2295 7.26473 32.2295 7.35763V8.00683C32.2295 8.09973 32.1543 8.17489 32.0614 8.17489Z" fill="white"/>
<path d="M31.5682 7.03355H30.9198C30.8269 7.03355 30.751 6.95764 30.751 6.86474C30.751 6.77183 30.8269 6.69592 30.9198 6.69592H31.5682C31.6611 6.69592 31.737 6.77183 31.737 6.86474C31.737 6.95764 31.6611 7.03355 31.5682 7.03355Z" fill="white"/>
<path d="M8.86239 29.7363C8.76949 29.7363 8.69434 29.6603 8.69434 29.5674V28.919C8.69434 28.8261 8.76949 28.7502 8.86239 28.7502C8.9553 28.7502 9.03121 28.8261 9.03121 28.919V29.5674C9.03121 29.6603 8.9553 29.7363 8.86239 29.7363Z" fill="white"/>
<path d="M10.0048 30.2294H9.35556C9.26265 30.2294 9.1875 30.1535 9.1875 30.0606C9.1875 29.9677 9.26265 29.8926 9.35556 29.8926H10.0048C10.0977 29.8926 10.1728 29.9677 10.1728 30.0606C10.1728 30.1535 10.098 30.2294 10.0048 30.2294Z" fill="white"/>
<path d="M8.86239 31.3715C8.76949 31.3715 8.69434 31.2956 8.69434 31.2027V30.5543C8.69434 30.4613 8.76949 30.3854 8.86239 30.3854C8.9553 30.3854 9.03121 30.4613 9.03121 30.5543V31.2027C9.03121 31.2956 8.9553 31.3715 8.86239 31.3715Z" fill="white"/>
<path d="M8.36999 30.2294H7.72079C7.62789 30.2294 7.55273 30.1535 7.55273 30.0606C7.55273 29.9677 7.62789 29.8926 7.72079 29.8926H8.36999C8.46289 29.8926 8.53805 29.9677 8.53805 30.0606C8.53805 30.1535 8.46289 30.2294 8.36999 30.2294Z" fill="white"/>
<path d="M1.72741 47.5791C1.6345 47.5791 1.55859 47.5039 1.55859 47.411V46.7618C1.55859 46.6689 1.6345 46.5938 1.72741 46.5938C1.82031 46.5938 1.89622 46.6689 1.89622 46.7618V47.411C1.89622 47.5039 1.82031 47.5791 1.72741 47.5791Z" fill="white"/>
<path d="M2.86803 48.0723H2.21959C2.12669 48.0723 2.05078 47.9971 2.05078 47.9042C2.05078 47.8113 2.12669 47.7354 2.21959 47.7354H2.86803C2.96094 47.7354 3.03685 47.8113 3.03685 47.9042C3.03685 47.9971 2.96094 48.0723 2.86803 48.0723Z" fill="white"/>
<path d="M1.72741 49.2144C1.6345 49.2144 1.55859 49.1392 1.55859 49.0463V48.3971C1.55859 48.3042 1.6345 48.2291 1.72741 48.2291C1.82031 48.2291 1.89622 48.3042 1.89622 48.3971V49.0463C1.89622 49.1392 1.82031 49.2144 1.72741 49.2144Z" fill="white"/>
<path d="M1.23425 48.0723H0.58505C0.492146 48.0723 0.416992 47.9971 0.416992 47.9042C0.416992 47.8113 0.492146 47.7354 0.58505 47.7354H1.23425C1.32715 47.7354 1.4023 47.8113 1.4023 47.9042C1.4023 47.9971 1.32715 48.0723 1.23425 48.0723Z" fill="white"/>
<path d="M44.1944 122.879C44.1015 122.879 44.0264 122.803 44.0264 122.71V122.061C44.0264 121.968 44.1015 121.892 44.1944 121.892C44.2873 121.892 44.3632 121.968 44.3632 122.061V122.71C44.3632 122.802 44.2873 122.879 44.1944 122.879Z" fill="#7A71DF"/>
<path d="M45.3368 123.371H44.6876C44.5947 123.371 44.5195 123.295 44.5195 123.202C44.5195 123.109 44.5947 123.034 44.6876 123.034H45.3368C45.4297 123.034 45.5048 123.109 45.5048 123.202C45.5048 123.295 45.4297 123.371 45.3368 123.371Z" fill="#7A71DF"/>
<path d="M44.1944 124.513C44.1015 124.513 44.0264 124.437 44.0264 124.344V123.696C44.0264 123.603 44.1015 123.527 44.1944 123.527C44.2873 123.527 44.3632 123.603 44.3632 123.696V124.344C44.3632 124.437 44.2873 124.513 44.1944 124.513Z" fill="#7A71DF"/>
<path d="M43.702 123.371H43.0528C42.9599 123.371 42.8848 123.295 42.8848 123.202C42.8848 123.109 42.9599 123.034 43.0528 123.034H43.702C43.7949 123.034 43.8701 123.109 43.8701 123.202C43.8701 123.295 43.7949 123.371 43.702 123.371Z" fill="#7A71DF"/>
<path d="M4.93857 89.839C4.84566 89.839 4.77051 89.7631 4.77051 89.6702V89.0218C4.77051 88.9289 4.84566 88.853 4.93857 88.853C5.03147 88.853 5.10738 88.9289 5.10738 89.0218V89.6702C5.10738 89.7631 5.03147 89.839 4.93857 89.839Z" fill="#7A71DF"/>
<path d="M6.08093 90.3319H5.43173C5.33883 90.3319 5.26367 90.256 5.26367 90.1631C5.26367 90.0701 5.33883 89.995 5.43173 89.995H6.08093C6.17383 89.995 6.24898 90.0701 6.24898 90.1631C6.24898 90.256 6.17383 90.3319 6.08093 90.3319Z" fill="#7A71DF"/>
<path d="M4.93857 91.4735C4.84566 91.4735 4.77051 91.3983 4.77051 91.3054V90.6562C4.77051 90.5633 4.84566 90.4874 4.93857 90.4874C5.03147 90.4874 5.10738 90.5633 5.10738 90.6562V91.3054C5.10738 91.3983 5.03147 91.4735 4.93857 91.4735Z" fill="#7A71DF"/>
<path d="M4.44616 90.3319H3.79697C3.70406 90.3319 3.62891 90.256 3.62891 90.1631C3.62891 90.0701 3.70406 89.995 3.79697 89.995H4.44616C4.53906 89.995 4.61497 90.0701 4.61497 90.1631C4.61497 90.256 4.53906 90.3319 4.44616 90.3319Z" fill="#7A71DF"/>
<path d="M94.5118 30.6C94.4189 30.6 94.3438 30.524 94.3438 30.4311V29.7819C94.3438 29.689 94.4189 29.6139 94.5118 29.6139C94.6047 29.6139 94.6806 29.689 94.6806 29.7819V30.4311C94.6806 30.524 94.6047 30.6 94.5118 30.6Z" fill="#7A71DF"/>
<path d="M95.6542 31.0928H95.005C94.9121 31.0928 94.8369 31.0169 94.8369 30.924C94.8369 30.8311 94.9121 30.7559 95.005 30.7559H95.6542C95.7471 30.7559 95.8222 30.8311 95.8222 30.924C95.8222 31.0169 95.7471 31.0928 95.6542 31.0928Z" fill="#7A71DF"/>
<path d="M94.5118 32.2345C94.4189 32.2345 94.3438 32.1594 94.3438 32.0665V31.4173C94.3438 31.3244 94.4189 31.2492 94.5118 31.2492C94.6047 31.2492 94.6806 31.3244 94.6806 31.4173V32.0665C94.6806 32.1594 94.6047 32.2345 94.5118 32.2345Z" fill="#7A71DF"/>
<path d="M94.0194 31.0928H93.3702C93.2773 31.0928 93.2021 31.0169 93.2021 30.924C93.2021 30.8311 93.2773 30.7559 93.3702 30.7559H94.0194C94.1123 30.7559 94.1882 30.8311 94.1882 30.924C94.1882 31.0169 94.1123 31.0928 94.0194 31.0928Z" fill="#7A71DF"/>
<path d="M100.935 65.2153C100.843 65.2153 100.767 65.1394 100.767 65.0465V64.3981C100.767 64.3052 100.843 64.2292 100.935 64.2292C101.028 64.2292 101.103 64.3052 101.103 64.3981V65.0465C101.103 65.1394 101.028 65.2153 100.935 65.2153Z" fill="#7A71DF"/>
<path d="M102.077 65.7089H101.429C101.336 65.7089 101.26 65.633 101.26 65.5401C101.26 65.4472 101.336 65.3721 101.429 65.3721H102.077C102.17 65.3721 102.246 65.4472 102.246 65.5401C102.246 65.633 102.17 65.7089 102.077 65.7089Z" fill="#7A71DF"/>
<path d="M100.935 66.8506C100.843 66.8506 100.767 66.7747 100.767 66.6818V66.0334C100.767 65.9405 100.843 65.8646 100.935 65.8646C101.028 65.8646 101.103 65.9405 101.103 66.0334V66.6818C101.103 66.7747 101.028 66.8506 100.935 66.8506Z" fill="#7A71DF"/>
<path d="M100.442 65.7089H99.7938C99.7009 65.7089 99.625 65.633 99.625 65.5401C99.625 65.4472 99.7009 65.3721 99.7938 65.3721H100.442C100.535 65.3721 100.611 65.4472 100.611 65.5401C100.611 65.633 100.535 65.7089 100.442 65.7089Z" fill="#7A71DF"/>
<path d="M171.239 90.5525C171.146 90.5525 171.07 90.4773 171.07 90.3844V89.7352C171.07 89.6423 171.146 89.5671 171.239 89.5671C171.332 89.5671 171.408 89.6423 171.408 89.7352V90.3844C171.408 90.4773 171.332 90.5525 171.239 90.5525Z" fill="#7A71DF"/>
<path d="M172.38 91.0461H171.731C171.638 91.0461 171.562 90.9702 171.562 90.8773C171.562 90.7844 171.638 90.7084 171.731 90.7084H172.38C172.473 90.7084 172.549 90.7844 172.549 90.8773C172.549 90.9702 172.473 91.0461 172.38 91.0461Z" fill="#7A71DF"/>
<path d="M171.239 92.1877C171.146 92.1877 171.07 92.1118 171.07 92.0189V91.3705C171.07 91.2776 171.146 91.2017 171.239 91.2017C171.332 91.2017 171.408 91.2776 171.408 91.3705V92.0189C171.408 92.1118 171.332 92.1877 171.239 92.1877Z" fill="#7A71DF"/>
<path d="M170.746 91.0461H170.097C170.004 91.0461 169.929 90.9702 169.929 90.8773C169.929 90.7844 170.004 90.7084 170.097 90.7084H170.746C170.839 90.7084 170.914 90.7844 170.914 90.8773C170.914 90.9702 170.839 91.0461 170.746 91.0461Z" fill="#7A71DF"/>
<path d="M169.81 167.635C169.718 167.635 169.642 167.559 169.642 167.466V166.818C169.642 166.725 169.718 166.649 169.81 166.649C169.903 166.649 169.978 166.725 169.978 166.818V167.466C169.978 167.559 169.903 167.635 169.81 167.635Z" fill="#7A71DF"/>
<path d="M170.952 168.128H170.304C170.211 168.128 170.135 168.053 170.135 167.96C170.135 167.867 170.211 167.791 170.304 167.791H170.952C171.045 167.791 171.121 167.867 171.121 167.96C171.121 168.053 171.045 168.128 170.952 168.128Z" fill="#7A71DF"/>
<path d="M169.81 169.271C169.718 169.271 169.642 169.195 169.642 169.102V168.453C169.642 168.36 169.718 168.285 169.81 168.285C169.903 168.285 169.978 168.36 169.978 168.453V169.102C169.978 169.195 169.903 169.271 169.81 169.271Z" fill="#7A71DF"/>
<path d="M169.317 168.128H168.669C168.576 168.128 168.5 168.053 168.5 167.96C168.5 167.867 168.576 167.791 168.669 167.791H169.317C169.41 167.791 169.486 167.867 169.486 167.96C169.486 168.053 169.41 168.128 169.317 168.128Z" fill="#7A71DF"/>
<path d="M71.6717 149.792C71.5788 149.792 71.5029 149.717 71.5029 149.624V148.974C71.5029 148.882 71.5788 148.806 71.6717 148.806C71.7647 148.806 71.8398 148.882 71.8398 148.974V149.624C71.8398 149.717 71.7647 149.792 71.6717 149.792Z" fill="#7A71DF"/>
<path d="M72.8134 150.285H72.1649C72.072 150.285 71.9961 150.21 71.9961 150.117C71.9961 150.024 72.072 149.948 72.1649 149.948H72.8134C72.9063 149.948 72.9822 150.024 72.9822 150.117C72.9822 150.21 72.9063 150.285 72.8134 150.285Z" fill="#7A71DF"/>
<path d="M71.6717 151.427C71.5788 151.427 71.5029 151.352 71.5029 151.259V150.61C71.5029 150.517 71.5788 150.441 71.6717 150.441C71.7647 150.441 71.8398 150.517 71.8398 150.61V151.259C71.8398 151.352 71.7647 151.427 71.6717 151.427Z" fill="#7A71DF"/>
<path d="M71.1786 150.285H70.5301C70.4372 150.285 70.3613 150.21 70.3613 150.117C70.3613 150.024 70.4372 149.948 70.5301 149.948H71.1786C71.2715 149.948 71.3474 150.024 71.3474 150.117C71.3474 150.21 71.2715 150.285 71.1786 150.285Z" fill="#7A71DF"/>
<path d="M45.9786 173.345C45.8857 173.345 45.8105 173.269 45.8105 173.176V172.528C45.8105 172.435 45.8857 172.359 45.9786 172.359C46.0715 172.359 46.1474 172.435 46.1474 172.528V173.176C46.1478 173.269 46.0719 173.345 45.9786 173.345Z" fill="#7A71DF"/>
<path d="M47.121 173.839H46.4718C46.3789 173.839 46.3037 173.763 46.3037 173.67C46.3037 173.577 46.3789 173.501 46.4718 173.501H47.121C47.2139 173.501 47.289 173.577 47.289 173.67C47.289 173.763 47.2139 173.839 47.121 173.839Z" fill="#7A71DF"/>
<path d="M45.9786 174.981C45.8857 174.981 45.8105 174.905 45.8105 174.812V174.163C45.8105 174.071 45.8857 173.995 45.9786 173.995C46.0715 173.995 46.1474 174.071 46.1474 174.163V174.812C46.1478 174.905 46.0719 174.981 45.9786 174.981Z" fill="#7A71DF"/>
<path d="M45.4862 173.839H44.837C44.7441 173.839 44.6689 173.763 44.6689 173.67C44.6689 173.577 44.7441 173.501 44.837 173.501H45.4862C45.5791 173.501 45.655 173.577 45.655 173.67C45.655 173.763 45.5791 173.839 45.4862 173.839Z" fill="#7A71DF"/>
<path fill-rule="evenodd" clip-rule="evenodd" d="M89.5811 182.636C91.9871 178.275 94.4272 173.789 96.8922 169.178L108.453 169.038L106.214 182.636H89.5811Z" fill="#756FBD"/>
<path fill-rule="evenodd" clip-rule="evenodd" d="M95.5262 171.725L91.9423 172.158C91.9423 172.158 93.8615 174.242 92.1753 176.473C90.489 178.703 87.5527 182.618 87.5527 182.618L87.9157 182.636H93.9869L97.9825 178.016C97.9825 178.016 99.7353 176.225 99.1907 175.071C98.6476 173.916 95.5262 171.725 95.5262 171.725Z" fill="#332F66"/>
<path fill-rule="evenodd" clip-rule="evenodd" d="M88.8902 166.813C88.8902 166.813 86.9826 170.915 98.9212 176.05C99.2339 173.73 101.967 171.8 102.207 169.966C102.622 166.79 100.467 164.231 100.642 162.827C95.9139 163.352 90.1761 165.264 88.8902 166.813Z" fill="#332F66"/>
<path fill-rule="evenodd" clip-rule="evenodd" d="M108.425 160.929C104.233 170.099 95.9442 175.282 89.1875 182.636H155.978L154.521 176.953C154.521 176.953 130.854 158.094 108.425 160.929Z" fill="#332F66"/>
<path fill-rule="evenodd" clip-rule="evenodd" d="M108.425 160.929C107.794 162.311 107.067 163.602 106.269 164.825C107.205 164.651 108.141 164.643 108.911 164.972C109.946 165.416 117.61 173.668 128.686 182.636H155.979L154.522 176.952C154.522 176.953 130.855 158.094 108.425 160.929Z" fill="#332F66"/>
<path fill-rule="evenodd" clip-rule="evenodd" d="M152.046 148.259C152.167 148.517 152.286 148.775 152.401 149.036L151.183 152.882C151.183 152.882 153.401 155.374 155.721 163.493C157.669 170.311 160.183 176.813 163.422 181.628C163.582 181.964 163.746 182.3 163.912 182.637H152.415C150.074 181.881 147.391 180.717 144.374 178.965C131.358 171.411 131.361 167.155 122.142 164.117C112.922 161.08 106.785 161.695 106.785 161.695C106.785 161.695 110.432 153.826 110.525 146.354C115.432 143.009 121.236 139.634 121.319 139.586L121.324 139.585L152.046 148.259Z" fill="#756FBD"/>
<path fill-rule="evenodd" clip-rule="evenodd" d="M108.302 157.79C116.665 160.45 138.115 166.31 155.117 161.497C153.031 154.959 151.182 152.881 151.182 152.881L152.4 149.035C152.285 148.774 152.166 148.516 152.046 148.258L121.323 139.584L121.318 139.585C121.234 139.633 115.431 143.007 110.524 146.353C110.472 150.52 109.315 154.809 108.302 157.79Z" fill="#332F66"/>
<path fill-rule="evenodd" clip-rule="evenodd" d="M88.9376 166.728L88.8896 166.813C88.8896 166.813 93.0824 164.549 99.208 171.298C102.33 174.736 105.5 179.105 109.122 182.636H124.991C124.012 161.774 124.685 146.871 125.086 140.647L121.321 139.584C121.321 139.584 106.652 148.103 104.153 151.538C101.655 154.973 99.4698 156.578 95.0085 160.147C90.9811 163.37 89.2379 166.208 88.9376 166.728Z" fill="#756FBD"/>
<path fill-rule="evenodd" clip-rule="evenodd" d="M124.484 161.811C124.478 151.811 124.835 144.535 125.086 140.647L121.321 139.584C121.321 139.584 106.651 148.103 104.153 151.537C101.655 154.973 99.4691 156.578 95.0078 160.147C95.0078 160.147 99.159 159.652 102.728 156.93C102.728 156.93 103.441 156.217 104.78 156.618C105.464 156.824 113.725 159.892 124.484 161.811Z" fill="#332F66"/>
<path fill-rule="evenodd" clip-rule="evenodd" d="M168.137 123.28C168.137 123.28 168.029 124.794 165.925 124.872C163.821 124.951 165.768 120.251 165.768 120.251C165.768 120.251 168.285 121.274 168.137 123.28Z" fill="#756FBD"/>
<path fill-rule="evenodd" clip-rule="evenodd" d="M151.349 149.011C151.349 149.011 151.96 151.706 151.021 153.174C150.083 154.643 140.596 158.181 127.102 158.181C113.607 158.181 104.121 154.643 103.183 153.174C102.243 151.706 102.855 149.011 102.855 149.011L127.102 151.038L151.349 149.011Z" fill="white"/>
<path fill-rule="evenodd" clip-rule="evenodd" d="M99.394 89.4814C99.394 89.4814 91.7015 93.9639 88.9642 101.327C86.2269 108.69 88.0208 125.586 87.2647 130.212C86.5102 134.836 83.8673 142.482 85.4716 147.391C87.0767 152.299 90.4749 155.037 94.722 155.602C98.9699 156.169 103.595 134.364 103.689 129.455C103.784 124.548 103.123 93.6814 99.394 89.4814Z" fill="white"/>
<path fill-rule="evenodd" clip-rule="evenodd" d="M94.4734 93.3252C92.4 95.3226 90.187 98.0372 88.9641 101.327C88.526 102.505 88.205 103.927 87.9697 105.504C88.9377 107.832 92.1217 112.108 102.441 117.424L102.508 120.136C102.508 120.136 100.389 121.828 99.2089 123.44C98.0294 125.053 98.3444 127.845 98.3444 128.868C98.3444 129.891 98.1454 131.994 94.115 134.718L92.7592 138.544L100.849 144.277C102.502 138.364 103.643 131.87 103.689 129.457C103.763 125.591 103.369 105.621 101.376 95.2614L94.4734 93.3252Z" fill="#E7E5E4"/>
<path fill-rule="evenodd" clip-rule="evenodd" d="M127.103 46.3279C109.009 46.5911 111.67 60.6759 113.265 72.0329C113.937 76.8125 116.58 79.6355 116.58 79.6355C116.58 79.6355 121.68 84.1126 123.441 85.0519C124.491 85.6108 125.805 85.8714 127.103 85.8684C128.4 85.8714 129.715 85.6108 130.763 85.0519C132.525 84.113 137.625 79.6355 137.625 79.6355C137.625 79.6355 140.268 76.8125 140.939 72.0329C142.536 60.6763 145.197 46.5915 127.103 46.3279Z" fill="#FFC5B0"/>
<path fill-rule="evenodd" clip-rule="evenodd" d="M127.103 46.3271C111.788 46.5507 111.341 56.6742 112.534 66.6648C113.083 66.7157 113.515 66.4518 113.764 65.7678C115.403 61.2646 120.005 52.9524 127.384 53.2012C134.764 53.4501 139.919 63.9041 139.919 63.9041L142.049 59.2668V59.263C142.009 59.2083 136.485 51.6759 132.894 47.0269C131.252 46.6039 129.336 46.3596 127.103 46.3271Z" fill="#FFA89E"/>
<path fill-rule="evenodd" clip-rule="evenodd" d="M127.104 46.3279C121.174 46.4144 117.473 47.9847 115.233 50.4587C115.048 51.2473 114.95 52.066 114.95 52.9067C114.95 54.9249 115.513 56.8204 116.498 58.4639C118.578 54.9914 122.548 52.6442 127.103 52.6442C131.659 52.6442 135.629 54.9914 137.71 58.4639C138.695 56.8204 139.257 54.9249 139.257 52.9067C139.257 52.0656 139.159 51.2457 138.974 50.4572C136.734 47.9847 133.034 46.4144 127.104 46.3279Z" fill="#4C487E"/>
<path fill-rule="evenodd" clip-rule="evenodd" d="M127.104 89.435C127.104 89.435 120.927 88.7733 116.694 84.6206C113.213 85.533 103.78 87.2891 101.221 89.4815C101.221 89.4815 104.792 104.725 100.737 119.828C100.737 119.828 102.236 132.947 102.236 135.591C102.236 138.234 100.648 145.597 100.296 147.201C99.9429 148.806 103.038 156.357 127.103 156.357C151.169 156.357 154.264 148.806 153.91 147.201C153.558 145.597 151.97 138.234 151.97 135.591C151.97 132.947 153.47 119.828 153.47 119.828C149.414 104.725 152.985 89.4815 152.985 89.4815C150.426 87.2891 140.993 85.533 137.512 84.6206C133.281 88.7733 127.104 89.435 127.104 89.435Z" fill="white"/>
<path fill-rule="evenodd" clip-rule="evenodd" d="M102.181 95.4869C102.774 100.692 103.132 108.665 101.431 116.893C101.76 117.069 102.095 117.245 102.441 117.423L102.508 120.135C102.508 120.135 101.773 120.722 100.928 121.534C101.331 125.174 102.235 133.539 102.235 135.591C102.235 137.406 101.487 141.444 100.904 144.317L102.079 145.15L103.251 151.572C104.657 152.564 106.674 153.56 109.531 154.384C110.89 152.962 111.881 150.705 111.519 147.116C110.575 137.756 115.216 136.734 116.003 136.655C116.79 136.576 131.97 138.7 138.106 136.34C144.242 133.98 146.445 139.25 146.445 139.25L149.869 143.577L146.76 145.458C146.76 145.458 142.645 149.107 145.849 154.021C152.958 151.662 154.135 148.224 153.91 147.201C153.557 145.597 151.97 138.234 151.97 135.591C151.97 132.948 153.47 119.829 153.47 119.829C152.519 116.286 151.986 112.738 151.731 109.379L102.181 95.4869Z" fill="#E7E5E4"/>
<path fill-rule="evenodd" clip-rule="evenodd" d="M154.812 89.4814C154.812 89.4814 162.505 93.9639 165.242 101.327C167.979 108.69 166.185 125.586 166.941 130.212C167.695 134.836 170.339 142.482 168.734 147.391C167.129 152.299 163.731 155.037 159.483 155.602C155.236 156.169 150.611 134.364 150.516 129.455C150.422 124.548 151.083 93.6814 154.812 89.4814Z" fill="white"/>
<path fill-rule="evenodd" clip-rule="evenodd" d="M166.81 113.607C166.864 116.437 166.819 119.306 166.779 121.889C162.684 121.502 156.906 123.761 156.906 126.665C156.906 129.969 160.367 137.835 160.367 137.835C160.367 137.835 164.341 141.795 168.998 146.386C168.927 146.732 168.839 147.068 168.734 147.391C167.129 152.3 163.731 155.037 159.483 155.603C155.236 156.17 150.611 134.365 150.516 129.456C150.469 127.006 150.611 118.082 151.228 109.238L166.81 113.607Z" fill="#E7E5E4"/>
<path d="M102.546 125.266C102.546 125.266 102.544 125.266 102.543 125.266C102.45 125.264 102.376 125.187 102.378 125.094C102.413 123.289 102.345 116.715 101.918 108.94C101.913 108.847 101.984 108.767 102.077 108.762C102.185 108.747 102.249 108.828 102.255 108.921C102.682 116.705 102.75 123.292 102.715 125.101C102.713 125.192 102.638 125.266 102.546 125.266Z" fill="#C6C5C4"/>
<path fill-rule="evenodd" clip-rule="evenodd" d="M168.138 123.28C167.427 117.455 145.531 126.059 142.558 127.953C139.585 129.847 120.47 137.77 111.598 129.841C102.725 121.912 110.182 115.918 110.182 115.918C110.182 115.918 94.4505 110.613 88.323 103.567C88.323 103.567 87.7161 102.915 87.9291 101.83C88.1417 100.744 91.1143 93.2874 98.3827 87.8129C105.65 82.3376 107.35 79.0346 107.35 79.0346C107.35 79.0346 107.822 71.8134 109.238 69.5482C109.238 69.5482 105.698 55.8611 109.71 50.8578C112.313 28.3547 141.894 28.3547 144.497 50.8578C148.509 55.8611 144.97 69.5482 144.97 69.5482C144.97 69.5482 146.146 69.9723 146.004 72.0487C146.004 72.0487 149.167 76.7207 149.261 81.2511C149.261 81.2511 151.479 81.912 151.527 84.602C151.527 84.602 154.028 87.1505 156.954 89.4636C168.593 98.6619 171.152 108.994 168.138 123.28ZM127.104 48.8714C127.104 48.8714 122.165 49.5795 119.475 53.685C116.785 57.7913 114.624 62.0509 113.765 65.7678C112.906 69.4832 115.435 78.6834 117.431 80.3719C118.958 81.6827 122.129 84.3513 123.442 85.0522C124.492 85.6111 125.806 85.8717 127.104 85.8687C128.401 85.8717 129.716 85.6111 130.764 85.0522C132.079 84.3517 135.249 81.6827 136.776 80.3719C138.773 78.6834 141.301 69.4832 140.443 65.7678C139.583 62.0509 137.422 57.7913 134.731 53.685C132.041 49.5795 127.104 48.8714 127.104 48.8714Z" fill="#756FBD"/>
<path fill-rule="evenodd" clip-rule="evenodd" d="M102.43 120.408C103.194 120.408 103.818 119.784 103.818 119.019C103.818 118.255 103.194 117.631 102.43 117.631C101.665 117.631 101.041 118.255 101.041 119.019C101.041 119.784 101.665 120.408 102.43 120.408Z" fill="#4C487E"/>
<path fill-rule="evenodd" clip-rule="evenodd" d="M146.12 126.252C144.418 126.968 143.132 127.586 142.557 127.953C141.625 128.546 139.111 129.731 135.824 130.834C133.635 126.26 131.077 122.646 130.035 121.411C128.757 119.897 127.676 119.229 128.521 119.17C129.367 119.111 130.704 119.366 130.783 118.796C130.861 118.225 129.701 117.773 129.701 117.773C125.335 115.689 122.857 120.133 122.857 120.133L118.48 132.973C115.887 132.517 113.503 131.546 111.596 129.841C102.723 121.912 110.18 115.918 110.18 115.918C110.18 115.918 108.356 115.303 105.709 114.214C107.833 113.287 111.435 111.5 113.379 109.317C116.25 106.092 114.897 103.179 114.897 103.179C123.073 116.062 136.736 117.387 136.736 117.387C136.736 117.387 142.189 122.465 146.12 126.252Z" fill="#332F66"/>
<path fill-rule="evenodd" clip-rule="evenodd" d="M138.917 76.3453L138.914 76.3529L138.917 76.3453ZM138.885 76.4375C138.73 76.8941 138.156 78.8658 139.986 78.325C139.986 78.325 138.865 80.5865 135.64 83.4181C132.415 86.2498 132.063 88.5992 134.677 87.8571C134.677 87.8571 130.394 89.8655 126.114 88.7756C126.114 88.7756 127.125 88.2756 126.279 87.7246C125.434 87.1743 120.951 85.3076 118.188 81.0189C119.838 82.4166 122.318 84.4533 123.441 85.0523C124.49 85.6112 125.805 85.8718 127.102 85.8688C128.4 85.8718 129.714 85.6112 130.763 85.0523C132.077 84.3517 135.248 81.6828 136.775 80.3719C137.469 79.7847 138.226 78.2918 138.885 76.4375Z" fill="#332F66"/>
<path fill-rule="evenodd" clip-rule="evenodd" d="M140.217 72.6673C140.217 72.6673 140.124 72.8803 139.893 72.9622C140.527 70.2435 140.83 67.4458 140.442 65.7675C140.301 65.1598 140.126 64.537 139.919 63.9033C139.879 63.778 139.836 63.6518 139.793 63.5264C139.909 63.5008 140.022 63.4713 140.133 63.4388C140.875 63.2175 141.508 62.8319 142.046 62.3421C143.573 60.9561 144.348 58.7464 144.729 57.1455C144.521 60.9176 143.663 65.9646 141.074 71.0819C140.808 71.6106 140.521 72.1393 140.217 72.6673Z" fill="#332F66"/>
<path fill-rule="evenodd" clip-rule="evenodd" d="M107.818 74.755C108.116 72.7662 108.572 70.6117 109.238 69.5482C110.036 72.6416 111.105 75.5164 112.373 78.14C110.575 75.1451 109 74.5329 107.818 74.755Z" fill="#332F66"/>
<path fill-rule="evenodd" clip-rule="evenodd" d="M95.2715 90.5037C96.2062 89.5796 97.241 88.6721 98.3811 87.8129C105.649 82.3376 107.348 79.0346 107.348 79.0346C107.348 79.0346 107.44 82.159 108.365 86.6373C109.2 90.6786 110.712 95.8219 113.447 100.763C113.445 100.761 113.444 100.76 113.444 100.759C108.949 92.8324 104.566 90.1642 101.231 89.5271C97.6451 88.842 95.2715 90.5037 95.2715 90.5037Z" fill="#332F66"/>
<path fill-rule="evenodd" clip-rule="evenodd" d="M151.525 84.6021C151.525 84.6021 154.027 87.1505 156.953 89.4636C158.71 90.8527 160.261 92.2674 161.616 93.7176C161.616 93.7176 160.778 93.2523 159.444 93.0514C157.802 92.8044 155.411 92.9593 152.904 94.8755C152.606 95.1036 152.307 95.3563 152.007 95.6369C151.094 96.4873 150.176 97.5894 149.283 99.0063C151.019 95.4265 151.53 91.4871 151.636 88.6339C151.724 86.2335 151.525 84.6021 151.525 84.6021Z" fill="#332F66"/>
<path fill-rule="evenodd" clip-rule="evenodd" d="M146.69 86.871C146.132 85.1648 144.904 85.3374 143.973 85.8857C144.722 83.1137 145.085 79.7084 144.95 75.6161C145.714 73.5302 146.003 72.0491 146.003 72.0491C146.003 72.0491 149.166 76.7211 149.26 81.2515C149.26 81.2515 149.516 84.0662 149.118 87.6192C148.443 93.6417 145.884 101.786 137.002 101.949C140.18 101.213 146.052 98.8715 146.849 91.5793C147.1 89.2896 146.994 87.8012 146.69 86.871Z" fill="#332F66"/>
<path fill-rule="evenodd" clip-rule="evenodd" d="M135.368 127.107C136.133 127.107 136.756 126.484 136.756 125.719C136.756 124.955 136.133 124.331 135.368 124.331C134.604 124.331 133.979 124.954 133.979 125.719C133.979 126.484 134.603 127.107 135.368 127.107Z" fill="#4C487E"/>
<path fill-rule="evenodd" clip-rule="evenodd" d="M118.439 128.917C119.204 128.917 119.828 128.294 119.828 127.529C119.828 126.765 119.204 126.141 118.439 126.141C117.674 126.141 117.051 126.765 117.051 127.529C117.051 128.294 117.674 128.917 118.439 128.917Z" fill="#4C487E"/>
<path fill-rule="evenodd" clip-rule="evenodd" d="M151.654 119.955C152.419 119.955 153.042 119.331 153.042 118.566C153.042 117.802 152.419 117.179 151.654 117.179C150.889 117.179 150.266 117.802 150.266 118.566C150.266 119.331 150.889 119.955 151.654 119.955Z" fill="#4C487E"/>
<path d="M140.604 117.97C140.601 117.97 140.598 117.97 140.595 117.969C123.896 116.989 115.698 106.448 111.762 97.7785C107.504 88.4013 107.184 79.1316 107.181 79.0395C107.178 78.9458 107.252 78.8684 107.345 78.8654C107.458 78.8529 107.516 78.9368 107.519 79.0293C107.522 79.1218 107.84 88.3322 112.074 97.649C115.972 106.23 124.088 116.663 140.615 117.633C140.708 117.639 140.779 117.719 140.773 117.812C140.767 117.901 140.693 117.97 140.604 117.97ZM136.723 102.119C135.905 102.119 135.052 102.053 134.162 101.921C134.07 101.908 134.007 101.822 134.02 101.73C134.034 101.639 134.117 101.575 134.212 101.588C138.398 102.208 141.779 101.335 144.259 98.9908C150.13 93.4419 149.105 81.3885 149.094 81.2665C149.085 81.1736 149.154 81.0917 149.247 81.0837C149.335 81.072 149.421 81.1434 149.429 81.2363C149.44 81.3587 150.48 93.5737 144.491 99.2348C142.462 101.153 139.856 102.119 136.723 102.119ZM148.157 101.168C148.125 101.168 148.092 101.159 148.065 101.14C147.986 101.089 147.965 100.984 148.016 100.907C152.461 94.1454 151.371 84.7172 151.36 84.6228C151.349 84.5299 151.414 84.4457 151.507 84.4347C151.602 84.4238 151.684 84.4898 151.694 84.5816C151.706 84.6775 152.811 94.2289 148.298 101.092C148.265 101.141 148.211 101.168 148.157 101.168ZM133.356 95.718C124.615 95.718 113.253 85.769 109.075 69.5901C109.051 69.5002 109.105 69.408 109.195 69.385C109.287 69.3612 109.377 69.416 109.401 69.5051C113.786 86.4797 126.102 96.5285 134.851 95.2758C141.388 94.3354 144.993 87.479 144.803 76.4185C142.585 81.9603 137.273 90.6381 126.09 88.9417C125.998 88.9285 125.935 88.842 125.949 88.7498C125.963 88.6584 126.045 88.5927 126.141 88.6082C141.942 91.0064 145.803 72.2057 145.839 72.0154C145.857 71.9248 145.944 71.8613 146.037 71.8825C146.128 71.9002 146.188 71.9886 146.17 72.08C146.16 72.1325 145.864 73.5729 145.119 75.5956C145.12 75.6009 145.12 75.6043 145.12 75.6096C145.507 87.3287 141.782 94.6187 134.899 95.6085C134.396 95.6818 133.88 95.718 133.356 95.718ZM136.066 81.5902C136.008 81.5902 135.951 81.56 135.92 81.506C135.873 81.4248 135.901 81.3217 135.982 81.276C142.837 77.3298 144.787 69.5855 144.806 69.5074C144.829 69.4175 144.919 69.3605 145.009 69.3835C145.1 69.4065 145.155 69.4972 145.134 69.5878C145.114 69.6667 143.13 77.5511 136.15 81.5683C136.123 81.583 136.095 81.5902 136.066 81.5902ZM140.218 72.8364C140.189 72.8364 140.161 72.8289 140.134 72.8134C140.053 72.7669 140.025 72.6638 140.072 72.5834C146.199 61.9772 144.351 50.9964 144.331 50.8873C144.315 50.7951 144.376 50.7079 144.468 50.6917C144.559 50.6724 144.647 50.7366 144.663 50.828C144.683 50.9386 146.554 62.0361 140.364 72.7522C140.333 72.8062 140.276 72.8364 140.218 72.8364ZM113.832 72.4357C113.77 72.4357 113.711 72.4017 113.682 72.3428C108.126 61.2706 109.528 50.9364 109.543 50.8333C109.557 50.7419 109.636 50.6747 109.734 50.6909C109.826 50.7034 109.89 50.7891 109.877 50.882C109.862 50.984 108.478 61.2174 113.983 72.191C114.024 72.2745 113.991 72.3761 113.908 72.4176C113.883 72.4301 113.858 72.4357 113.832 72.4357Z" fill="#332F66"/>
<path fill-rule="evenodd" clip-rule="evenodd" d="M106.686 118.458C106.686 118.458 107.135 115.58 106.403 114.919C105.671 114.258 104.736 114.373 104.353 116.121C103.972 117.868 102.061 119.19 101.447 120.11C100.833 121.03 100.597 122.139 100.739 123.768C100.88 125.396 100.999 127.332 100.763 128.487C100.527 129.644 99.8185 131.319 98.403 133.703C96.986 136.087 96.3965 136.983 96.3965 136.983C96.3965 136.983 97.5295 142.741 104.279 143.685C104.279 143.685 107.676 137.313 109.423 135.378C111.169 133.443 113.859 132.689 115.322 131.225C116.786 129.762 121.01 121.054 121.553 119.946C122.096 118.836 121.14 118.529 120.526 118.683C120.526 118.683 121.553 116.11 122.001 115.143C122.449 114.175 121.883 112.358 120.042 113.208C120.042 113.208 120.679 112.311 120.986 111.367C121.608 109.453 119.378 109.269 118.29 110.157C117.989 110.402 117.664 110.77 117.304 111.32C117.304 111.32 116.88 109.833 115.629 110.022C114.379 110.211 109.446 116.298 106.686 118.458Z" fill="#FFC5B0"/>
<path fill-rule="evenodd" clip-rule="evenodd" d="M99.7749 131.177C99.7749 131.177 100.268 136.635 107.902 137.463L108.949 135.958C108.949 135.958 109.897 137.796 109.378 138.834C108.859 139.872 106.405 143.743 106.405 143.743C113.184 152.596 96.351 159.113 90.1714 153.933C79.8065 145.243 89.0935 131.169 95.7388 135.389C95.7388 135.389 98.6302 131.318 98.9247 130.975C99.2197 130.633 99.5422 130.38 100.083 130.506L99.7749 131.177Z" fill="white"/>
<path d="M116.646 125.621C116.618 125.621 116.589 125.613 116.562 125.598C116.482 125.552 116.454 125.449 116.499 125.368L120.381 118.599C120.426 118.517 120.531 118.49 120.61 118.536C120.691 118.582 120.719 118.685 120.673 118.765L116.792 125.536C116.761 125.591 116.704 125.621 116.646 125.621ZM113.956 123.261C113.925 123.261 113.895 123.253 113.868 123.236C113.788 123.188 113.763 123.084 113.813 123.005L119.9 113.119C119.95 113.039 120.054 113.016 120.132 113.064C120.211 113.113 120.236 113.217 120.187 113.296L114.099 123.181C114.067 123.233 114.011 123.261 113.956 123.261ZM110.511 121.562C110.478 121.562 110.445 121.553 110.416 121.534C110.339 121.481 110.319 121.377 110.37 121.299L117.166 111.226C117.218 111.148 117.323 111.128 117.4 111.18C117.477 111.232 117.497 111.337 117.445 111.414L110.65 121.488C110.618 121.536 110.565 121.562 110.511 121.562ZM104.045 121.138C104 121.138 103.956 121.12 103.922 121.085C103.858 121.018 103.861 120.911 103.928 120.847L106.57 118.336C106.638 118.272 106.745 118.275 106.809 118.342C106.873 118.409 106.871 118.516 106.803 118.58L104.161 121.091C104.128 121.123 104.087 121.138 104.045 121.138Z" fill="#EE8B83"/>
<path fill-rule="evenodd" clip-rule="evenodd" d="M147.52 118.458C147.52 118.458 147.071 115.58 147.803 114.919C148.535 114.258 149.47 114.373 149.852 116.121C150.234 117.868 152.145 119.19 152.759 120.11C153.372 121.03 153.608 122.139 153.467 123.768C153.326 125.396 153.207 127.332 153.443 128.487C153.679 129.644 154.387 131.319 155.803 133.703C157.22 136.087 157.81 136.983 157.81 136.983C157.81 136.983 156.676 142.741 149.928 143.685C149.928 143.685 146.53 137.313 144.784 135.378C143.037 133.443 140.347 132.689 138.884 131.225C137.421 129.762 133.196 121.054 132.654 119.946C132.111 118.836 133.067 118.529 133.681 118.683C133.681 118.683 132.654 116.11 132.205 115.143C131.757 114.175 132.324 112.358 134.164 113.208C134.164 113.208 133.527 112.311 133.22 111.367C132.598 109.453 134.829 109.269 135.916 110.157C136.217 110.402 136.542 110.77 136.901 111.32C136.901 111.32 137.326 109.833 138.577 110.022C139.826 110.211 144.759 116.298 147.52 118.458Z" fill="#FFC5B0"/>
<path fill-rule="evenodd" clip-rule="evenodd" d="M154.432 131.177C154.432 131.177 153.939 136.635 146.305 137.463L145.259 135.958C145.259 135.958 144.31 137.796 144.829 138.834C145.348 139.872 147.803 143.743 147.803 143.743C141.023 152.596 157.856 159.113 164.036 153.933C174.401 145.243 165.114 131.169 158.468 135.389C158.468 135.389 155.577 131.318 155.282 130.975C154.987 130.633 154.665 130.38 154.124 130.506L154.432 131.177Z" fill="white"/>
<path d="M137.559 125.621C137.501 125.621 137.444 125.591 137.413 125.536L133.532 118.765C133.486 118.685 133.514 118.582 133.594 118.536C133.673 118.49 133.778 118.517 133.824 118.599L137.706 125.368C137.751 125.449 137.723 125.552 137.643 125.598C137.617 125.614 137.588 125.621 137.559 125.621ZM140.25 123.261C140.193 123.261 140.138 123.233 140.106 123.181L134.019 113.296C133.97 113.217 133.994 113.112 134.074 113.064C134.153 113.017 134.256 113.039 134.305 113.119L140.393 123.004C140.441 123.083 140.417 123.187 140.337 123.236C140.311 123.253 140.28 123.261 140.25 123.261ZM143.695 121.562C143.641 121.562 143.588 121.536 143.555 121.488L136.759 111.414C136.707 111.337 136.727 111.232 136.805 111.18C136.882 111.128 136.987 111.148 137.039 111.226L143.835 121.299C143.887 121.377 143.867 121.481 143.789 121.534C143.76 121.553 143.727 121.562 143.695 121.562ZM150.161 121.138C150.119 121.138 150.077 121.123 150.044 121.091L147.403 118.58C147.335 118.516 147.332 118.409 147.396 118.342C147.46 118.275 147.568 118.272 147.635 118.336L150.276 120.847C150.344 120.911 150.347 121.018 150.283 121.085C150.25 121.12 150.205 121.138 150.161 121.138Z" fill="#EE8B83"/>
<path d="M101.903 154.825C101.836 154.825 101.773 154.785 101.746 154.718C101.712 154.632 101.755 154.534 101.842 154.5C104.918 153.286 107.03 151.342 107.636 149.162C108.109 147.458 107.663 145.685 106.308 143.895C96.7577 141.905 95.6828 136.267 95.5797 135.489C92.6869 133.71 89.5587 135.525 87.7316 138.131C87.6776 138.208 87.5722 138.227 87.4971 138.173C87.4204 138.119 87.4019 138.015 87.4552 137.938C89.7411 134.679 93.0317 133.579 95.693 135.162C96.1953 134.455 98.527 131.179 98.797 130.865C99.092 130.523 99.4817 130.192 100.121 130.343C100.212 130.363 100.269 130.454 100.247 130.545C100.226 130.635 100.136 130.693 100.044 130.671C99.6018 130.568 99.3386 130.753 99.0523 131.085C98.7838 131.397 96.2508 134.959 95.9128 135.435C95.9903 136.056 96.9412 141.578 106.325 143.553C106.71 142.943 108.763 139.685 109.227 138.758C109.702 137.809 108.808 136.052 108.799 136.034C108.756 135.952 108.789 135.85 108.872 135.808C108.954 135.764 109.056 135.797 109.098 135.88C109.139 135.958 110.08 137.807 109.529 138.909C109.053 139.862 107.004 143.11 106.61 143.734C108.006 145.598 108.46 147.455 107.961 149.253C107.327 151.534 105.142 153.561 101.966 154.813C101.944 154.822 101.924 154.825 101.903 154.825Z" fill="#C6C5C4"/>
<path d="M149.102 153.049C149.066 153.049 149.029 153.037 148.999 153.014C145.627 150.422 145.121 147.044 147.598 143.734C147.203 143.11 145.155 139.863 144.678 138.909C144.127 137.808 145.069 135.958 145.109 135.88C145.152 135.797 145.254 135.764 145.336 135.808C145.419 135.85 145.451 135.952 145.409 136.035C145.4 136.052 144.505 137.81 144.98 138.759C145.448 139.695 147.539 143.011 147.895 143.572C157.37 143.315 158.234 136.148 158.296 135.437C157.965 134.973 155.424 131.398 155.155 131.086C154.869 130.753 154.6 130.57 154.164 130.672C154.071 130.694 153.982 130.636 153.961 130.546C153.939 130.455 153.996 130.364 154.086 130.343C154.729 130.193 155.115 130.523 155.411 130.866C155.681 131.18 158.012 134.456 158.515 135.163C159.715 134.449 161.064 134.267 162.426 134.637C164.432 135.184 166.35 136.918 167.554 139.273C167.597 139.356 167.565 139.458 167.481 139.5C167.4 139.543 167.297 139.51 167.254 139.426C166.092 137.154 164.254 135.485 162.337 134.963C161.045 134.61 159.765 134.792 158.63 135.488C158.544 136.387 157.548 143.656 147.888 143.91C145.515 147.06 145.993 150.278 149.205 152.747C149.278 152.804 149.292 152.91 149.236 152.983C149.202 153.026 149.153 153.049 149.102 153.049Z" fill="#C6C5C4"/>
<path fill-rule="evenodd" clip-rule="evenodd" d="M119.588 130.943C120.353 130.943 120.977 130.319 120.977 129.554C120.977 128.79 120.353 128.166 119.588 128.166C118.823 128.166 118.199 128.789 118.199 129.554C118.199 130.319 118.823 130.943 119.588 130.943Z" fill="#4C487E"/>
<path fill-rule="evenodd" clip-rule="evenodd" d="M101.068 121.469C101.833 121.469 102.457 120.846 102.457 120.08C102.457 119.316 101.833 118.692 101.068 118.692C100.304 118.692 99.6797 119.316 99.6797 120.08C99.6797 120.846 100.304 121.469 101.068 121.469Z" fill="#4C487E"/>
<path fill-rule="evenodd" clip-rule="evenodd" d="M101.224 123.769C101.989 123.769 102.612 123.146 102.612 122.381C102.612 121.617 101.989 120.993 101.224 120.993C100.459 120.993 99.835 121.617 99.835 122.381C99.835 123.146 100.459 123.769 101.224 123.769Z" fill="#4C487E"/>
<path fill-rule="evenodd" clip-rule="evenodd" d="M102.08 125.831C102.844 125.831 103.468 125.208 103.468 124.443C103.468 123.678 102.845 123.054 102.08 123.054C101.315 123.054 100.691 123.678 100.691 124.443C100.691 125.208 101.315 125.831 102.08 125.831Z" fill="#4C487E"/>
<path fill-rule="evenodd" clip-rule="evenodd" d="M103.036 127.966C103.8 127.966 104.424 127.343 104.424 126.578C104.424 125.813 103.8 125.19 103.036 125.19C102.271 125.19 101.646 125.813 101.646 126.578C101.646 127.343 102.27 127.966 103.036 127.966Z" fill="#4C487E"/>
<path fill-rule="evenodd" clip-rule="evenodd" d="M103.597 130.076C104.362 130.076 104.986 129.452 104.986 128.687C104.986 127.922 104.362 127.299 103.597 127.299C102.832 127.299 102.209 127.922 102.209 128.687C102.209 129.452 102.832 130.076 103.597 130.076Z" fill="#4C487E"/>
<path fill-rule="evenodd" clip-rule="evenodd" d="M104.536 132.062C105.3 132.062 105.924 131.438 105.924 130.673C105.924 129.909 105.301 129.284 104.536 129.284C103.77 129.284 103.146 129.908 103.146 130.673C103.146 131.438 103.771 132.062 104.536 132.062Z" fill="#4C487E"/>
<path fill-rule="evenodd" clip-rule="evenodd" d="M105.315 134.359C106.079 134.359 106.703 133.735 106.703 132.97C106.703 132.206 106.079 131.582 105.315 131.582C104.55 131.582 103.926 132.206 103.926 132.97C103.926 133.735 104.55 134.359 105.315 134.359Z" fill="#4C487E"/>
<path fill-rule="evenodd" clip-rule="evenodd" d="M106.211 136.501C106.975 136.501 107.599 135.878 107.599 135.112C107.599 134.348 106.976 133.724 106.211 133.724C105.445 133.724 104.822 134.348 104.822 135.112C104.822 135.878 105.445 136.501 106.211 136.501Z" fill="#4C487E"/>
<path fill-rule="evenodd" clip-rule="evenodd" d="M106.462 138.842C107.226 138.842 107.851 138.219 107.851 137.454C107.851 136.69 107.227 136.065 106.462 136.065C105.698 136.065 105.073 136.689 105.073 137.454C105.073 138.219 105.697 138.842 106.462 138.842Z" fill="#4C487E"/>
<path fill-rule="evenodd" clip-rule="evenodd" d="M107.3 141.116C108.065 141.116 108.689 140.492 108.689 139.728C108.689 138.963 108.066 138.339 107.3 138.339C106.536 138.339 105.912 138.963 105.912 139.728C105.912 140.492 106.536 141.116 107.3 141.116Z" fill="#4C487E"/>
<path fill-rule="evenodd" clip-rule="evenodd" d="M108.09 143.107C108.855 143.107 109.479 142.484 109.479 141.719C109.479 140.954 108.856 140.33 108.09 140.33C107.325 140.33 106.702 140.954 106.702 141.719C106.703 142.484 107.326 143.107 108.09 143.107Z" fill="#4C487E"/>
<path fill-rule="evenodd" clip-rule="evenodd" d="M109.053 144.912C109.817 144.912 110.442 144.289 110.442 143.524C110.442 142.76 109.818 142.136 109.053 142.136C108.289 142.136 107.665 142.76 107.665 143.524C107.665 144.289 108.289 144.912 109.053 144.912Z" fill="#4C487E"/>
<path fill-rule="evenodd" clip-rule="evenodd" d="M110.396 146.489C111.161 146.489 111.785 145.866 111.785 145.101C111.785 144.337 111.161 143.713 110.396 143.713C109.632 143.713 109.009 144.337 109.009 145.101C109.009 145.866 109.632 146.489 110.396 146.489Z" fill="#4C487E"/>
<path fill-rule="evenodd" clip-rule="evenodd" d="M111.856 147.872C112.621 147.872 113.244 147.248 113.244 146.483C113.244 145.719 112.621 145.095 111.856 145.095C111.091 145.095 110.468 145.718 110.468 146.483C110.468 147.248 111.091 147.872 111.856 147.872Z" fill="#4C487E"/>
<path fill-rule="evenodd" clip-rule="evenodd" d="M113.609 149.43C114.374 149.43 114.997 148.806 114.997 148.041C114.997 147.276 114.374 146.653 113.609 146.653C112.844 146.653 112.22 147.276 112.22 148.041C112.22 148.806 112.844 149.43 113.609 149.43Z" fill="#4C487E"/>
<path fill-rule="evenodd" clip-rule="evenodd" d="M115.324 150.761C116.089 150.761 116.713 150.137 116.713 149.373C116.713 148.608 116.089 147.984 115.324 147.984C114.56 147.984 113.936 148.608 113.936 149.373C113.936 150.137 114.559 150.761 115.324 150.761Z" fill="#4C487E"/>
<path fill-rule="evenodd" clip-rule="evenodd" d="M117.317 151.982C118.082 151.982 118.705 151.359 118.705 150.593C118.705 149.828 118.082 149.205 117.317 149.205C116.553 149.205 115.929 149.828 115.929 150.593C115.929 151.359 116.553 151.982 117.317 151.982Z" fill="#4C487E"/>
<path fill-rule="evenodd" clip-rule="evenodd" d="M119.47 152.974C120.234 152.974 120.858 152.35 120.858 151.585C120.858 150.821 120.234 150.197 119.47 150.197C118.705 150.197 118.081 150.82 118.081 151.585C118.081 152.35 118.705 152.974 119.47 152.974Z" fill="#4C487E"/>
<path fill-rule="evenodd" clip-rule="evenodd" d="M121.719 153.715C122.484 153.715 123.108 153.092 123.108 152.327C123.108 151.563 122.484 150.939 121.719 150.939C120.955 150.939 120.331 151.562 120.331 152.327C120.331 153.092 120.955 153.715 121.719 153.715Z" fill="#4C487E"/>
<path fill-rule="evenodd" clip-rule="evenodd" d="M123.961 154.385C124.725 154.385 125.349 153.762 125.349 152.996C125.349 152.231 124.726 151.608 123.961 151.608C123.197 151.608 122.572 152.231 122.572 152.996C122.572 153.762 123.196 154.385 123.961 154.385Z" fill="#4C487E"/>
<path fill-rule="evenodd" clip-rule="evenodd" d="M120.66 132.89C121.424 132.89 122.048 132.266 122.048 131.501C122.048 130.736 121.425 130.113 120.66 130.113C119.894 130.113 119.271 130.736 119.271 131.501C119.271 132.266 119.894 132.89 120.66 132.89Z" fill="#4C487E"/>
<path fill-rule="evenodd" clip-rule="evenodd" d="M122.339 134.649C123.104 134.649 123.728 134.026 123.728 133.261C123.728 132.496 123.105 131.873 122.339 131.873C121.574 131.873 120.951 132.496 120.951 133.261C120.951 134.026 121.574 134.649 122.339 134.649Z" fill="#4C487E"/>
<path fill-rule="evenodd" clip-rule="evenodd" d="M124.013 136.172C124.778 136.172 125.401 135.549 125.401 134.783C125.401 134.018 124.778 133.394 124.013 133.394C123.248 133.394 122.624 134.018 122.624 134.783C122.624 135.549 123.248 136.172 124.013 136.172Z" fill="#4C487E"/>
<path fill-rule="evenodd" clip-rule="evenodd" d="M134.096 128.917C134.861 128.917 135.485 128.294 135.485 127.529C135.485 126.765 134.861 126.141 134.096 126.141C133.332 126.141 132.708 126.765 132.708 127.529C132.708 128.294 133.332 128.917 134.096 128.917Z" fill="#4C487E"/>
<path fill-rule="evenodd" clip-rule="evenodd" d="M132.948 130.943C133.713 130.943 134.336 130.319 134.336 129.554C134.336 128.79 133.713 128.166 132.948 128.166C132.183 128.166 131.56 128.789 131.56 129.554C131.56 130.319 132.183 130.943 132.948 130.943Z" fill="#4C487E"/>
<path fill-rule="evenodd" clip-rule="evenodd" d="M152.102 121.857C152.867 121.857 153.491 121.233 153.491 120.469C153.491 119.704 152.867 119.081 152.102 119.081C151.337 119.081 150.714 119.704 150.714 120.469C150.714 121.233 151.337 121.857 152.102 121.857Z" fill="#4C487E"/>
<path fill-rule="evenodd" clip-rule="evenodd" d="M151.31 123.769C152.075 123.769 152.698 123.146 152.698 122.381C152.698 121.617 152.075 120.993 151.31 120.993C150.545 120.993 149.922 121.617 149.922 122.381C149.922 123.146 150.545 123.769 151.31 123.769Z" fill="#4C487E"/>
<path fill-rule="evenodd" clip-rule="evenodd" d="M150.455 125.831C151.219 125.831 151.844 125.208 151.844 124.443C151.844 123.678 151.22 123.054 150.455 123.054C149.691 123.054 149.066 123.678 149.066 124.443C149.066 125.208 149.691 125.831 150.455 125.831Z" fill="#4C487E"/>
<path fill-rule="evenodd" clip-rule="evenodd" d="M149.5 127.966C150.264 127.966 150.888 127.343 150.888 126.578C150.888 125.813 150.265 125.19 149.5 125.19C148.736 125.19 148.111 125.813 148.111 126.578C148.111 127.343 148.735 127.966 149.5 127.966Z" fill="#4C487E"/>
<path fill-rule="evenodd" clip-rule="evenodd" d="M148.938 130.076C149.703 130.076 150.326 129.452 150.326 128.687C150.326 127.922 149.703 127.299 148.938 127.299C148.173 127.299 147.55 127.922 147.55 128.687C147.55 129.452 148.173 130.076 148.938 130.076Z" fill="#4C487E"/>
<path fill-rule="evenodd" clip-rule="evenodd" d="M148 132.062C148.765 132.062 149.389 131.438 149.389 130.673C149.389 129.909 148.765 129.284 148 129.284C147.235 129.284 146.611 129.908 146.611 130.673C146.611 131.438 147.236 132.062 148 132.062Z" fill="#4C487E"/>
<path fill-rule="evenodd" clip-rule="evenodd" d="M147.22 134.359C147.985 134.359 148.609 133.735 148.609 132.97C148.609 132.206 147.985 131.582 147.22 131.582C146.455 131.582 145.832 132.206 145.832 132.97C145.832 133.735 146.455 134.359 147.22 134.359Z" fill="#4C487E"/>
<path fill-rule="evenodd" clip-rule="evenodd" d="M146.325 136.501C147.09 136.501 147.714 135.878 147.714 135.112C147.714 134.348 147.09 133.724 146.325 133.724C145.56 133.724 144.937 134.348 144.937 135.112C144.937 135.878 145.56 136.501 146.325 136.501Z" fill="#4C487E"/>
<path fill-rule="evenodd" clip-rule="evenodd" d="M146.074 138.842C146.839 138.842 147.463 138.219 147.463 137.454C147.463 136.69 146.839 136.065 146.074 136.065C145.309 136.065 144.686 136.689 144.686 137.454C144.686 138.219 145.309 138.842 146.074 138.842Z" fill="#4C487E"/>
<path fill-rule="evenodd" clip-rule="evenodd" d="M145.234 141.116C145.999 141.116 146.622 140.492 146.622 139.728C146.622 138.963 145.999 138.339 145.234 138.339C144.47 138.339 143.846 138.963 143.846 139.728C143.846 140.492 144.47 141.116 145.234 141.116Z" fill="#4C487E"/>
<path fill-rule="evenodd" clip-rule="evenodd" d="M144.447 143.107C145.211 143.107 145.835 142.484 145.835 141.719C145.835 140.954 145.211 140.33 144.447 140.33C143.682 140.33 143.058 140.954 143.058 141.719C143.058 142.484 143.682 143.107 144.447 143.107Z" fill="#4C487E"/>
<path fill-rule="evenodd" clip-rule="evenodd" d="M143.481 144.912C144.246 144.912 144.87 144.289 144.87 143.524C144.87 142.76 144.246 142.136 143.481 142.136C142.717 142.136 142.094 142.76 142.094 143.524C142.094 144.289 142.717 144.912 143.481 144.912Z" fill="#4C487E"/>
<path fill-rule="evenodd" clip-rule="evenodd" d="M142.139 146.489C142.903 146.489 143.528 145.866 143.528 145.101C143.528 144.337 142.904 143.713 142.139 143.713C141.375 143.713 140.751 144.337 140.751 145.101C140.751 145.866 141.375 146.489 142.139 146.489Z" fill="#4C487E"/>
<path fill-rule="evenodd" clip-rule="evenodd" d="M140.678 147.872C141.443 147.872 142.067 147.248 142.067 146.483C142.067 145.719 141.443 145.095 140.678 145.095C139.913 145.095 139.29 145.718 139.29 146.483C139.29 147.248 139.914 147.872 140.678 147.872Z" fill="#4C487E"/>
<path fill-rule="evenodd" clip-rule="evenodd" d="M138.927 149.43C139.692 149.43 140.316 148.806 140.316 148.041C140.316 147.276 139.692 146.653 138.927 146.653C138.163 146.653 137.539 147.276 137.539 148.041C137.539 148.806 138.163 149.43 138.927 149.43Z" fill="#4C487E"/>
<path fill-rule="evenodd" clip-rule="evenodd" d="M137.212 150.761C137.976 150.761 138.6 150.137 138.6 149.373C138.6 148.608 137.976 147.984 137.212 147.984C136.447 147.984 135.823 148.608 135.823 149.373C135.823 150.137 136.446 150.761 137.212 150.761Z" fill="#4C487E"/>
<path fill-rule="evenodd" clip-rule="evenodd" d="M135.217 151.982C135.982 151.982 136.606 151.359 136.606 150.593C136.606 149.828 135.983 149.205 135.217 149.205C134.453 149.205 133.829 149.828 133.829 150.593C133.829 151.359 134.453 151.982 135.217 151.982Z" fill="#4C487E"/>
<path fill-rule="evenodd" clip-rule="evenodd" d="M133.064 152.974C133.829 152.974 134.453 152.35 134.453 151.585C134.453 150.821 133.829 150.197 133.064 150.197C132.3 150.197 131.676 150.82 131.676 151.585C131.676 152.35 132.3 152.974 133.064 152.974Z" fill="#4C487E"/>
<path fill-rule="evenodd" clip-rule="evenodd" d="M130.816 153.715C131.581 153.715 132.204 153.092 132.204 152.327C132.204 151.563 131.581 150.939 130.816 150.939C130.051 150.939 129.427 151.562 129.427 152.327C129.427 153.092 130.051 153.715 130.816 153.715Z" fill="#4C487E"/>
<path fill-rule="evenodd" clip-rule="evenodd" d="M128.574 154.385C129.339 154.385 129.963 153.762 129.963 152.996C129.963 152.231 129.339 151.608 128.574 151.608C127.809 151.608 127.186 152.231 127.186 152.996C127.186 153.762 127.809 154.385 128.574 154.385Z" fill="#4C487E"/>
<path fill-rule="evenodd" clip-rule="evenodd" d="M131.877 132.89C132.641 132.89 133.265 132.266 133.265 131.501C133.265 130.736 132.642 130.113 131.877 130.113C131.113 130.113 130.488 130.736 130.488 131.501C130.488 132.266 131.112 132.89 131.877 132.89Z" fill="#4C487E"/>
<path fill-rule="evenodd" clip-rule="evenodd" d="M130.197 134.649C130.961 134.649 131.585 134.026 131.585 133.261C131.585 132.496 130.961 131.873 130.197 131.873C129.432 131.873 128.808 132.496 128.808 133.261C128.808 134.026 129.432 134.649 130.197 134.649Z" fill="#4C487E"/>
<path fill-rule="evenodd" clip-rule="evenodd" d="M128.522 136.172C129.287 136.172 129.91 135.549 129.91 134.783C129.91 134.018 129.287 133.394 128.522 133.394C127.758 133.394 127.134 134.018 127.134 134.783C127.134 135.549 127.758 136.172 128.522 136.172Z" fill="#4C487E"/>
<path fill-rule="evenodd" clip-rule="evenodd" d="M126.272 154.662C127.037 154.662 127.66 154.038 127.66 153.273C127.66 152.509 127.037 151.885 126.272 151.885C125.508 151.885 124.884 152.509 124.884 153.273C124.884 154.038 125.508 154.662 126.272 154.662Z" fill="#4C487E"/>
<path fill-rule="evenodd" clip-rule="evenodd" d="M126.272 138.78C127.444 138.78 128.399 137.825 128.399 136.652C128.399 135.48 127.444 134.525 126.272 134.525C125.101 134.525 124.146 135.48 124.146 136.652C124.146 137.825 125.101 138.78 126.272 138.78Z" fill="#4C487E"/>
<path fill-rule="evenodd" clip-rule="evenodd" d="M125.881 144.007C125.888 144.02 125.896 144.031 125.904 144.041H125.905C125.916 144.053 125.935 144.064 125.959 144.072C126.027 144.095 126.15 144.105 126.27 144.105C126.389 144.105 126.511 144.095 126.575 144.076C126.599 144.069 126.618 144.06 126.629 144.05C126.64 144.04 126.649 144.028 126.657 144.013L126.658 144.012C126.665 144 126.67 143.985 126.673 143.969V143.968C126.678 143.939 126.721 143.254 126.776 142.346C126.872 140.758 127.006 138.491 127.043 137.866C127.056 137.632 126.86 137.472 126.604 137.397C126.498 137.366 126.381 137.351 126.264 137.35C126.147 137.35 126.03 137.366 125.924 137.398C125.674 137.474 125.487 137.642 125.502 137.913C125.543 138.602 125.674 140.813 125.768 142.363C125.823 143.263 125.865 143.939 125.87 143.968C125.873 143.982 125.877 143.993 125.881 144.005V144.007Z" fill="#E95E67"/>
<path d="M87.9284 101.999C87.9182 101.999 87.9069 101.998 87.8959 101.996C87.8046 101.978 87.7449 101.889 87.763 101.797C87.9488 100.845 90.8795 93.2527 98.2808 87.6777C105.065 82.5669 106.994 79.3235 107.183 78.9855C107.226 78.3665 107.7 71.796 109.057 69.5203C108.759 68.3461 105.679 55.6979 109.547 50.7891C110.925 39.0609 119.353 33.8107 127.103 33.8107C134.863 33.8107 143.303 39.0757 144.664 50.8371C144.674 50.93 144.609 51.0135 144.516 51.0244C144.42 51.0346 144.339 50.9685 144.329 50.876C142.992 39.3204 134.714 34.1484 127.103 34.1484C119.492 34.1484 111.213 39.3204 109.876 50.876C109.873 50.9077 109.861 50.9372 109.841 50.9625C105.928 55.8426 109.365 69.3688 109.4 69.5048C109.411 69.5497 109.404 69.5977 109.38 69.6369C108.002 71.8402 107.521 78.9731 107.517 79.0452C107.515 79.0682 107.509 79.0909 107.499 79.1109C107.428 79.2472 105.698 82.5113 98.4832 87.9474C91.1661 93.4582 88.2762 100.926 88.0931 101.862C88.078 101.943 88.0074 101.999 87.9284 101.999Z" fill="#7A71DF"/>
<path fill-rule="evenodd" clip-rule="evenodd" d="M100.694 120.335C101.036 120.335 101.315 120.056 101.315 119.714C101.315 119.371 101.036 119.093 100.694 119.093C100.352 119.093 100.072 119.371 100.072 119.714C100.072 120.056 100.352 120.335 100.694 120.335Z" fill="#756FBD"/>
<path d="M100.802 122.714C101.146 122.714 101.424 122.436 101.424 122.093C101.424 121.749 101.146 121.471 100.802 121.471C100.459 121.471 100.181 121.749 100.181 122.093C100.181 122.436 100.459 122.714 100.802 122.714Z" fill="#756FBD"/>
<path fill-rule="evenodd" clip-rule="evenodd" d="M101.731 124.886C102.072 124.886 102.352 124.606 102.352 124.264C102.352 123.921 102.073 123.643 101.731 123.643C101.389 123.643 101.109 123.921 101.109 124.264C101.109 124.606 101.389 124.886 101.731 124.886Z" fill="#756FBD"/>
<path fill-rule="evenodd" clip-rule="evenodd" d="M102.669 127.027C103.011 127.027 103.291 126.747 103.291 126.406C103.291 126.063 103.011 125.784 102.669 125.784C102.327 125.784 102.048 126.063 102.048 126.406C102.047 126.747 102.327 127.027 102.669 127.027Z" fill="#756FBD"/>
<path fill-rule="evenodd" clip-rule="evenodd" d="M103.337 129.123C103.679 129.123 103.958 128.845 103.958 128.502C103.958 128.16 103.679 127.881 103.337 127.881C102.995 127.881 102.716 128.16 102.716 128.502C102.716 128.844 102.995 129.123 103.337 129.123Z" fill="#756FBD"/>
<path fill-rule="evenodd" clip-rule="evenodd" d="M104.14 131.175C104.482 131.175 104.761 130.896 104.761 130.554C104.761 130.211 104.482 129.932 104.14 129.932C103.798 129.932 103.519 130.211 103.519 130.554C103.519 130.896 103.798 131.175 104.14 131.175Z" fill="#756FBD"/>
<path fill-rule="evenodd" clip-rule="evenodd" d="M105.033 133.406C105.375 133.406 105.655 133.126 105.655 132.784C105.655 132.442 105.375 132.163 105.033 132.163C104.691 132.163 104.412 132.442 104.412 132.784C104.412 133.127 104.691 133.406 105.033 133.406Z" fill="#756FBD"/>
<path fill-rule="evenodd" clip-rule="evenodd" d="M105.835 135.413C106.177 135.413 106.456 135.134 106.456 134.791C106.456 134.45 106.178 134.171 105.835 134.171C105.494 134.171 105.214 134.449 105.214 134.791C105.214 135.134 105.493 135.413 105.835 135.413Z" fill="#756FBD"/>
<path fill-rule="evenodd" clip-rule="evenodd" d="M106.103 137.956C106.445 137.956 106.724 137.676 106.724 137.334C106.724 136.992 106.445 136.713 106.103 136.713C105.761 136.713 105.481 136.992 105.481 137.334C105.481 137.677 105.761 137.956 106.103 137.956Z" fill="#756FBD"/>
<path fill-rule="evenodd" clip-rule="evenodd" d="M107.039 140.186C107.381 140.186 107.66 139.907 107.66 139.564C107.66 139.223 107.382 138.944 107.039 138.944C106.698 138.944 106.418 139.223 106.418 139.564C106.418 139.907 106.698 140.186 107.039 140.186Z" fill="#756FBD"/>
<path fill-rule="evenodd" clip-rule="evenodd" d="M107.776 141.937C108.118 141.937 108.397 141.657 108.397 141.316C108.397 140.973 108.118 140.694 107.776 140.694C107.433 140.694 107.154 140.973 107.154 141.316C107.155 141.657 107.433 141.937 107.776 141.937Z" fill="#756FBD"/>
<path d="M109.271 143.767C109.614 143.767 109.893 143.488 109.893 143.145C109.893 142.802 109.614 142.523 109.271 142.523C108.928 142.523 108.649 142.802 108.649 143.145C108.649 143.488 108.928 143.767 109.271 143.767Z" fill="#756FBD"/>
<path fill-rule="evenodd" clip-rule="evenodd" d="M110.608 145.327C110.95 145.327 111.229 145.048 111.229 144.706C111.229 144.363 110.95 144.084 110.608 144.084C110.266 144.084 109.986 144.363 109.986 144.706C109.986 145.048 110.266 145.327 110.608 145.327Z" fill="#756FBD"/>
<path fill-rule="evenodd" clip-rule="evenodd" d="M112.102 146.754C112.444 146.754 112.723 146.475 112.723 146.133C112.723 145.79 112.444 145.512 112.102 145.512C111.76 145.512 111.48 145.79 111.48 146.133C111.48 146.475 111.76 146.754 112.102 146.754Z" fill="#756FBD"/>
<path fill-rule="evenodd" clip-rule="evenodd" d="M113.508 148.183C113.85 148.183 114.129 147.903 114.129 147.561C114.129 147.219 113.851 146.94 113.508 146.94C113.167 146.94 112.887 147.218 112.887 147.561C112.887 147.903 113.167 148.183 113.508 148.183Z" fill="#756FBD"/>
<path fill-rule="evenodd" clip-rule="evenodd" d="M115.359 149.521C115.701 149.521 115.98 149.241 115.98 148.899C115.98 148.556 115.701 148.278 115.359 148.278C115.016 148.278 114.737 148.556 114.737 148.899C114.738 149.241 115.016 149.521 115.359 149.521Z" fill="#756FBD"/>
<path fill-rule="evenodd" clip-rule="evenodd" d="M117.299 150.769C117.641 150.769 117.921 150.49 117.921 150.148C117.921 149.805 117.641 149.527 117.299 149.527C116.957 149.527 116.678 149.805 116.678 150.148C116.678 150.49 116.957 150.769 117.299 150.769Z" fill="#756FBD"/>
<path fill-rule="evenodd" clip-rule="evenodd" d="M119.441 151.773C119.782 151.773 120.062 151.493 120.062 151.152C120.062 150.809 119.783 150.53 119.441 150.53C119.099 150.53 118.819 150.809 118.819 151.152C118.819 151.493 119.099 151.773 119.441 151.773Z" fill="#756FBD"/>
<path fill-rule="evenodd" clip-rule="evenodd" d="M121.716 152.576C122.057 152.576 122.337 152.297 122.337 151.955C122.337 151.612 122.058 151.333 121.716 151.333C121.374 151.333 121.095 151.612 121.095 151.955C121.095 152.297 121.374 152.576 121.716 152.576Z" fill="#756FBD"/>
<path d="M124.258 153.335C124.602 153.335 124.88 153.057 124.88 152.713C124.88 152.37 124.602 152.092 124.258 152.092C123.915 152.092 123.637 152.37 123.637 152.713C123.637 153.057 123.915 153.335 124.258 153.335Z" fill="#756FBD"/>
<path fill-rule="evenodd" clip-rule="evenodd" d="M126.311 153.557C126.652 153.557 126.932 153.278 126.932 152.936C126.932 152.593 126.652 152.314 126.311 152.314C125.969 152.314 125.689 152.593 125.689 152.936C125.69 153.278 125.969 153.557 126.311 153.557Z" fill="#756FBD"/>
<path d="M128.586 153.289C128.929 153.289 129.207 153.011 129.207 152.668C129.207 152.325 128.929 152.047 128.586 152.047C128.243 152.047 127.965 152.325 127.965 152.668C127.965 153.011 128.243 153.289 128.586 153.289Z" fill="#756FBD"/>
<path fill-rule="evenodd" clip-rule="evenodd" d="M130.816 152.62C131.158 152.62 131.437 152.341 131.437 151.999C131.437 151.656 131.158 151.377 130.816 151.377C130.473 151.377 130.194 151.656 130.194 151.999C130.195 152.341 130.473 152.62 130.816 152.62Z" fill="#756FBD"/>
<path fill-rule="evenodd" clip-rule="evenodd" d="M133.447 151.862C133.79 151.862 134.069 151.583 134.069 151.241C134.069 150.899 133.79 150.62 133.447 150.62C133.105 150.62 132.826 150.899 132.826 151.241C132.826 151.583 133.105 151.862 133.447 151.862Z" fill="#756FBD"/>
<path fill-rule="evenodd" clip-rule="evenodd" d="M135.188 150.925C135.53 150.925 135.809 150.646 135.809 150.304C135.809 149.961 135.531 149.683 135.188 149.683C134.845 149.683 134.566 149.961 134.566 150.304C134.566 150.646 134.846 150.925 135.188 150.925Z" fill="#756FBD"/>
<path fill-rule="evenodd" clip-rule="evenodd" d="M137.283 149.632C137.626 149.632 137.905 149.352 137.905 149.01C137.905 148.668 137.626 148.389 137.283 148.389C136.941 148.389 136.662 148.668 136.662 149.01C136.662 149.352 136.941 149.632 137.283 149.632Z" fill="#756FBD"/>
<path fill-rule="evenodd" clip-rule="evenodd" d="M139.112 148.294C139.455 148.294 139.734 148.014 139.734 147.672C139.734 147.329 139.455 147.051 139.112 147.051C138.771 147.051 138.491 147.329 138.491 147.672C138.491 148.014 138.771 148.294 139.112 148.294Z" fill="#756FBD"/>
<path d="M140.718 146.688C141.062 146.688 141.34 146.41 141.34 146.067C141.34 145.723 141.062 145.445 140.718 145.445C140.375 145.445 140.097 145.723 140.097 146.067C140.097 146.41 140.375 146.688 140.718 146.688Z" fill="#756FBD"/>
<path fill-rule="evenodd" clip-rule="evenodd" d="M142.236 145.216C142.577 145.216 142.857 144.936 142.857 144.594C142.857 144.251 142.577 143.973 142.236 143.973C141.893 143.973 141.614 144.251 141.614 144.594C141.615 144.936 141.893 145.216 142.236 145.216Z" fill="#756FBD"/>
<path d="M143.574 143.878C143.917 143.878 144.195 143.6 144.195 143.256C144.195 142.913 143.917 142.635 143.574 142.635C143.23 142.635 142.952 142.913 142.952 143.256C142.952 143.6 143.23 143.878 143.574 143.878Z" fill="#756FBD"/>
<path d="M144.421 142.049C144.764 142.049 145.042 141.77 145.042 141.427C145.042 141.084 144.764 140.806 144.421 140.806C144.078 140.806 143.8 141.084 143.8 141.427C143.8 141.77 144.078 142.049 144.421 142.049Z" fill="#756FBD"/>
<path d="M145.268 139.907C145.611 139.907 145.889 139.629 145.889 139.286C145.889 138.943 145.611 138.665 145.268 138.665C144.925 138.665 144.646 138.943 144.646 139.286C144.646 139.629 144.925 139.907 145.268 139.907Z" fill="#756FBD"/>
<path d="M145.983 137.588C146.326 137.588 146.605 137.31 146.605 136.966C146.605 136.623 146.326 136.345 145.983 136.345C145.64 136.345 145.361 136.623 145.361 136.966C145.361 137.31 145.64 137.588 145.983 137.588Z" fill="#756FBD"/>
<path d="M146.429 135.402C146.772 135.402 147.05 135.124 147.05 134.781C147.05 134.437 146.772 134.159 146.429 134.159C146.086 134.159 145.808 134.437 145.808 134.781C145.808 135.124 146.086 135.402 146.429 135.402Z" fill="#756FBD"/>
<path fill-rule="evenodd" clip-rule="evenodd" d="M147.252 133.216C147.595 133.216 147.874 132.937 147.874 132.595C147.874 132.252 147.595 131.973 147.252 131.973C146.911 131.973 146.632 132.252 146.632 132.595C146.632 132.936 146.911 133.216 147.252 133.216Z" fill="#756FBD"/>
<path fill-rule="evenodd" clip-rule="evenodd" d="M148.124 130.896C148.466 130.896 148.745 130.618 148.745 130.275C148.745 129.933 148.467 129.654 148.124 129.654C147.782 129.654 147.503 129.933 147.503 130.275C147.503 130.618 147.782 130.896 148.124 130.896Z" fill="#756FBD"/>
<path d="M149.061 128.889C149.404 128.889 149.683 128.611 149.683 128.268C149.683 127.924 149.404 127.646 149.061 127.646C148.718 127.646 148.439 127.924 148.439 128.268C148.439 128.611 148.718 128.889 149.061 128.889Z" fill="#756FBD"/>
<path d="M149.641 126.725C149.984 126.725 150.262 126.447 150.262 126.104C150.262 125.761 149.984 125.483 149.641 125.483C149.298 125.483 149.02 125.761 149.02 126.104C149.02 126.447 149.298 126.725 149.641 126.725Z" fill="#756FBD"/>
<path fill-rule="evenodd" clip-rule="evenodd" d="M150.376 124.495C150.718 124.495 150.998 124.216 150.998 123.873C150.998 123.531 150.718 123.252 150.376 123.252C150.034 123.252 149.755 123.531 149.755 123.873C149.755 124.216 150.034 124.495 150.376 124.495Z" fill="#756FBD"/>
<path fill-rule="evenodd" clip-rule="evenodd" d="M151.246 122.733C151.588 122.733 151.868 122.454 151.868 122.112C151.868 121.77 151.588 121.491 151.246 121.491C150.904 121.491 150.625 121.77 150.625 122.112C150.625 122.454 150.904 122.733 151.246 122.733Z" fill="#756FBD"/>
<path fill-rule="evenodd" clip-rule="evenodd" d="M151.781 120.859C152.124 120.859 152.403 120.58 152.403 120.238C152.403 119.896 152.124 119.616 151.781 119.616C151.439 119.616 151.16 119.896 151.16 120.238C151.16 120.58 151.439 120.859 151.781 120.859Z" fill="#756FBD"/>
<path d="M152.25 118.54C152.482 118.54 152.671 118.351 152.671 118.119C152.671 117.887 152.482 117.698 152.25 117.698C152.017 117.698 151.829 117.887 151.829 118.119C151.829 118.351 152.017 118.54 152.25 118.54Z" fill="#756FBD"/>
<path d="M118.972 127.774C119.205 127.774 119.393 127.585 119.393 127.353C119.393 127.121 119.205 126.932 118.972 126.932C118.74 126.932 118.552 127.121 118.552 127.353C118.552 127.585 118.74 127.774 118.972 127.774Z" fill="#756FBD"/>
<path fill-rule="evenodd" clip-rule="evenodd" d="M119.864 130C120.192 130 120.458 129.733 120.458 129.405C120.458 129.077 120.192 128.81 119.864 128.81C119.536 128.81 119.269 129.077 119.269 129.405C119.269 129.733 119.536 130 119.864 130Z" fill="#756FBD"/>
<path fill-rule="evenodd" clip-rule="evenodd" d="M121.069 131.762C121.396 131.762 121.663 131.495 121.663 131.167C121.663 130.84 121.396 130.572 121.069 130.572C120.741 130.572 120.474 130.84 120.474 131.167C120.474 131.495 120.741 131.762 121.069 131.762Z" fill="#756FBD"/>
<path fill-rule="evenodd" clip-rule="evenodd" d="M122.54 133.524C122.868 133.524 123.135 133.257 123.135 132.929C123.135 132.601 122.868 132.334 122.54 132.334C122.212 132.334 121.945 132.601 121.945 132.929C121.945 133.257 122.212 133.524 122.54 133.524Z" fill="#756FBD"/>
<path fill-rule="evenodd" clip-rule="evenodd" d="M124.036 134.996C124.363 134.996 124.63 134.729 124.63 134.401C124.63 134.074 124.363 133.807 124.036 133.807C123.707 133.807 123.44 134.074 123.44 134.401C123.44 134.729 123.707 134.996 124.036 134.996Z" fill="#756FBD"/>
<path fill-rule="evenodd" clip-rule="evenodd" d="M126.104 136.636C126.552 136.636 126.917 136.27 126.917 135.823C126.917 135.375 126.551 135.011 126.104 135.011C125.656 135.011 125.292 135.375 125.292 135.823C125.292 136.27 125.656 136.636 126.104 136.636Z" fill="#756FBD"/>
<path fill-rule="evenodd" clip-rule="evenodd" d="M128.496 134.952C128.823 134.952 129.091 134.685 129.091 134.356C129.091 134.029 128.823 133.761 128.496 133.761C128.167 133.761 127.9 134.029 127.9 134.356C127.9 134.685 128.167 134.952 128.496 134.952Z" fill="#756FBD"/>
<path fill-rule="evenodd" clip-rule="evenodd" d="M130.146 133.368C130.473 133.368 130.741 133.101 130.741 132.773C130.741 132.445 130.473 132.178 130.146 132.178C129.818 132.178 129.551 132.445 129.551 132.773C129.55 133.101 129.817 133.368 130.146 133.368Z" fill="#756FBD"/>
<path fill-rule="evenodd" clip-rule="evenodd" d="M131.507 131.562C131.835 131.562 132.102 131.294 132.102 130.967C132.102 130.639 131.835 130.371 131.507 130.371C131.18 130.371 130.912 130.639 130.912 130.967C130.912 131.294 131.18 131.562 131.507 131.562Z" fill="#756FBD"/>
<path fill-rule="evenodd" clip-rule="evenodd" d="M133.045 129.576C133.373 129.576 133.641 129.309 133.641 128.981C133.641 128.653 133.373 128.386 133.045 128.386C132.718 128.386 132.45 128.653 132.45 128.981C132.45 129.309 132.718 129.576 133.045 129.576Z" fill="#756FBD"/>
<path fill-rule="evenodd" clip-rule="evenodd" d="M133.983 127.658C134.31 127.658 134.578 127.391 134.578 127.063C134.578 126.736 134.31 126.469 133.983 126.469C133.655 126.469 133.388 126.736 133.388 127.063C133.388 127.391 133.655 127.658 133.983 127.658Z" fill="#756FBD"/>
</svg>
