<svg width="12" height="12" viewBox="0 0 12 12" fill="none" xmlns="http://www.w3.org/2000/svg">
<path d="M5.13177 10.2635C6.27036 10.2633 7.37615 9.88214 8.27305 9.18073L11.093 12.0006L12 11.0936L9.18009 8.27369C9.88186 7.3767 10.2633 6.27066 10.2635 5.13177C10.2635 2.30224 7.9613 0 5.13177 0C2.30224 0 0 2.30224 0 5.13177C0 7.9613 2.30224 10.2635 5.13177 10.2635ZM5.13177 1.28294C7.2544 1.28294 8.9806 3.00914 8.9806 5.13177C8.9806 7.2544 7.2544 8.9806 5.13177 8.9806C3.00914 8.9806 1.28294 7.2544 1.28294 5.13177C1.28294 3.00914 3.00914 1.28294 5.13177 1.28294Z" fill="#333333"/>
</svg>
