<svg width="82" height="55" viewBox="0 0 82 55" fill="none" xmlns="http://www.w3.org/2000/svg">
<path d="M10.4672 29.8764C10.3274 29.8764 10.1971 29.804 10.1228 29.6845L7.04342 24.7043C6.93548 24.5295 6.90688 24.3163 6.96516 24.1193C7.02345 23.9212 7.16431 23.7572 7.35131 23.6687C7.56205 23.5691 7.79439 23.5184 8.04156 23.5184C8.59366 23.5184 9.19217 23.7709 9.8209 24.2691C9.83871 24.2777 9.88809 24.2974 9.96499 24.2974C10.1911 24.2974 10.4718 24.1285 10.7564 23.8214C10.859 23.6911 11.3617 23.1039 12.0986 23.1039C12.3685 23.1039 12.6313 23.184 12.8798 23.3422C12.9095 23.3608 12.9362 23.3834 12.96 23.4091C13.1151 23.5753 13.6189 24.0089 14.072 24.0089C14.1376 24.0089 14.1988 24 14.2582 23.9817C14.463 23.7566 15.0477 23.2016 15.8327 23.2016C16.221 23.2016 16.5961 23.3354 16.948 23.5996C17.0513 23.6773 17.1679 23.7216 17.2853 23.7275C17.3174 23.7291 17.3508 23.7302 17.3856 23.7302C17.4178 23.7302 17.4509 23.7294 17.4852 23.7275C17.4979 23.7269 17.5103 23.7264 17.5227 23.7264C17.7691 23.7264 17.9949 23.8608 18.1121 24.0772C18.2284 24.2912 18.2176 24.551 18.0843 24.7556L14.9975 29.4929C14.9266 29.6019 14.8076 29.6702 14.6778 29.6764L10.4866 29.8761C10.4801 29.8764 10.4736 29.8764 10.4672 29.8764Z" fill="#E67E22"/>
<path fill-rule="evenodd" clip-rule="evenodd" d="M13.0974 23.0007C13.1562 23.0382 13.2072 23.0797 13.2544 23.1313C13.4314 23.3185 13.8054 23.594 14.0585 23.6038C14.364 23.2978 14.993 22.7967 15.8327 22.7967C16.3106 22.7967 16.7675 22.958 17.1911 23.2762C17.2292 23.3045 17.2699 23.3215 17.3066 23.3231C17.3317 23.3245 17.3582 23.3253 17.3857 23.3253C17.4108 23.3253 17.4367 23.3247 17.4631 23.3231C17.4831 23.322 17.5031 23.3215 17.5228 23.3215C17.9178 23.3215 18.2799 23.5371 18.468 23.8841C18.655 24.2287 18.6378 24.6472 18.4235 24.9764L15.3368 29.7138C15.1948 29.9318 14.9568 30.0681 14.697 30.0805L10.5058 30.2802C10.4929 30.2807 10.4802 30.281 10.4672 30.281C10.1877 30.281 9.92673 30.1366 9.77885 29.8973L6.69942 24.9173C6.53077 24.6445 6.48598 24.3118 6.57691 24.0045C6.66812 23.696 6.88723 23.4402 7.17812 23.3026C7.44364 23.1771 7.73399 23.1135 8.04161 23.1135C8.66252 23.1135 9.31823 23.3744 9.99203 23.8892C10.0689 23.8722 10.2322 23.7891 10.4508 23.5557C10.6046 23.3658 11.2087 22.699 12.0987 22.699C12.4468 22.699 12.7827 22.8004 13.0974 23.0007ZM11.066 24.0827C10.6078 24.5825 10.2257 24.702 9.96504 24.702C9.80557 24.702 9.68036 24.6685 9.58888 24.6016C8.93398 24.0776 8.41993 23.923 8.04161 23.923C7.8252 23.923 7.65304 23.9737 7.52433 24.0344C7.35163 24.1162 7.2874 24.3288 7.38779 24.4913L10.4672 29.4715L14.6587 29.272L17.7451 24.5344C17.8601 24.358 17.7295 24.131 17.5228 24.131C17.5176 24.131 17.5125 24.1313 17.5071 24.1316C17.4653 24.1337 17.4248 24.1348 17.3857 24.1348C17.3436 24.1348 17.3031 24.1337 17.2648 24.1316C17.0613 24.1213 16.8679 24.0455 16.7049 23.9232C16.397 23.692 16.1018 23.6062 15.8327 23.6062C15.3149 23.6062 14.8702 23.8447 14.4989 24.3221C14.3573 24.3866 14.2137 24.4135 14.072 24.4135C13.5817 24.4135 13.1119 24.1702 12.6627 23.6836C12.4643 23.5573 12.2743 23.5085 12.0987 23.5085C11.6974 23.5085 11.3531 23.6998 11.066 24.0827Z" fill="#2E3349"/>
<g opacity="0.6">
<g opacity="0.6">
<g opacity="0.6">
<g opacity="0.6">
<g opacity="0.6">
<g opacity="0.6">
<path opacity="0.6" d="M14.8082 24.3997C15.2292 23.8595 15.7246 23.6242 16.2951 23.6938C15.6229 23.4385 15.0244 23.6482 14.4993 24.3223C14.3063 24.41 14.1096 24.4283 13.9199 24.4035C14.1979 24.5044 14.5076 24.5363 14.8082 24.3997Z" fill="#FEFEFE"/>
</g>
</g>
</g>
</g>
</g>
<g opacity="0.6">
<g opacity="0.6">
<g opacity="0.6">
<g opacity="0.6">
<g opacity="0.6">
<path opacity="0.6" d="M17.5743 24.2091C17.618 24.2113 17.665 24.2121 17.7133 24.2116C17.6631 24.1598 17.5911 24.1271 17.5074 24.1317C17.4211 24.1363 17.3393 24.1358 17.2651 24.132C17.2559 24.1314 17.2465 24.1301 17.2373 24.1293C17.3436 24.1749 17.4572 24.2032 17.5743 24.2091Z" fill="#FEFEFE"/>
</g>
</g>
</g>
</g>
</g>
<g opacity="0.6">
<g opacity="0.6">
<g opacity="0.6">
<g opacity="0.6">
<g opacity="0.6">
<path opacity="0.6" d="M7.6977 24.5686C7.59705 24.4061 7.66127 24.1935 7.83397 24.112C8.00667 24.0302 8.25708 23.9676 8.58791 24.02C8.1003 23.8551 7.74762 23.9293 7.525 24.0345C7.3523 24.1163 7.28808 24.3289 7.38846 24.4914L10.4679 29.4716L10.7218 29.4594L7.6977 24.5686Z" fill="#FEFEFE"/>
</g>
</g>
</g>
</g>
</g>
<g opacity="0.6">
<g opacity="0.6">
<g opacity="0.6">
<g opacity="0.6">
<g opacity="0.6">
<path opacity="0.6" d="M11.3759 24.16C11.6873 23.7453 12.0567 23.555 12.4841 23.5893C11.9544 23.3653 11.4822 23.5297 11.0669 24.0828C10.5909 24.602 10.1975 24.7105 9.93652 24.7013C10.0798 24.7774 10.6257 24.9785 11.3759 24.16Z" fill="#FEFEFE"/>
</g>
</g>
</g>
</g>
</g>
</g>
<path d="M8.60715 54.5852C4.37765 54.5852 0.813585 51.2885 0.493283 47.0798C-0.109813 39.1578 2.51952 34.8285 4.8318 32.5917C7.27305 30.2298 9.82791 29.6515 10.0921 29.597C10.2405 29.556 10.4432 29.5369 10.7268 29.5369C12.1677 29.5369 15.3097 30.0482 15.4428 30.0701C15.4665 30.0741 15.4903 30.0801 15.5129 30.0881C23.5375 32.9401 24.7901 40.8146 24.4282 46.9182C24.1732 51.2176 20.6043 54.5852 16.3033 54.5852H8.60715Z" fill="#E67E22"/>
<path fill-rule="evenodd" clip-rule="evenodd" d="M15.5079 29.6706C15.5556 29.6784 15.6026 29.6905 15.6485 29.7067C19.3841 31.0343 22.0305 33.559 23.5138 37.2102C24.6112 39.9113 25.0549 43.1856 24.832 46.942C24.5646 51.4549 20.8181 54.9901 16.3031 54.9901H8.60694C6.44902 54.9901 4.38797 54.1835 2.80319 52.7188C1.21706 51.2528 0.253184 49.2611 0.0893903 47.1104C-0.180182 43.5682 0.160628 40.4259 1.10265 37.7709C1.86792 35.6138 3.02797 33.7732 4.55014 32.3007C7.02756 29.904 9.64044 29.2796 9.99636 29.2035C10.1807 29.1541 10.4087 29.132 10.7265 29.132C12.1999 29.132 15.3735 29.6484 15.5079 29.6706ZM10.1879 29.9903C3.23062 31.3409 0.133644 37.027 0.896756 47.0489C1.20303 51.0747 4.56957 54.1805 8.60694 54.1805H16.3031C20.4006 54.1805 23.7815 50.9845 24.0241 46.894C24.3735 41.0031 23.1967 33.2487 15.3773 30.4693C13.2266 30.1174 11.6764 29.9415 10.7265 29.9415C10.4891 29.9415 10.3021 29.9563 10.1879 29.9903Z" fill="#2E3349"/>
<g opacity="0.188">
<g opacity="0.188">
<g opacity="0.188">
<g opacity="0.188">
<g opacity="0.188">
<path opacity="0.188" d="M6.44237 39.2004C7.12021 38.0301 8.59706 37.6186 9.17668 37.9543C9.75629 38.29 9.21904 39.2457 8.5412 40.416C7.86336 41.5866 7.30155 42.5281 6.72193 42.1924C6.14231 41.8567 5.76453 40.3707 6.44237 39.2004Z" fill="#FCE5E5"/>
</g>
</g>
</g>
</g>
</g>
<g opacity="0.6">
<g opacity="0.6">
<g opacity="0.6">
<g opacity="0.6">
<g opacity="0.6">
<path opacity="0.6" d="M15.3768 30.4697C12.4495 29.9905 10.7198 29.831 10.1877 29.9905C8.65394 30.2884 7.11287 31.1138 5.56452 32.4673C4.30733 33.5661 3.0442 35.129 2.13565 37.3361C1.1483 39.7352 0.58001 42.8954 0.896264 47.049C1.12914 50.1047 3.12462 52.6296 5.83841 53.6696C3.32322 52.5457 1.50422 50.1177 1.28268 47.209C0.95536 42.9107 1.57519 39.6761 2.62676 37.2481C3.40066 37.0271 4.21559 36.4213 4.82543 35.5311C5.42232 34.6598 5.69459 33.7032 5.63711 32.9115C7.25319 31.3963 8.89896 30.4759 10.5739 30.1505C11.1063 29.991 12.8359 30.1507 15.7632 30.6297C15.9318 30.6896 16.0964 30.7528 16.2589 30.8172C15.9742 30.6942 15.6812 30.5776 15.3768 30.4697Z" fill="#FEFEFE"/>
</g>
</g>
</g>
</g>
</g>
<path d="M15.3564 29.3532C15.2253 29.3532 15.0925 29.3305 14.9616 29.2857C14.5614 29.1484 13.4964 28.8292 12.2508 28.8292C11.6007 28.8292 10.9952 28.9179 10.4507 29.0923C10.3587 29.1219 10.2731 29.1435 10.1895 29.1584C10.0135 29.1899 9.7526 29.2274 9.50974 29.2283C9.17811 29.2283 8.88398 29.0728 8.71938 28.8124C8.58823 28.6041 8.56071 28.3696 8.64004 28.134C8.73125 27.8647 8.95522 27.6537 9.23963 27.5695C9.7499 27.4182 11.1023 27.0663 12.6386 27.0663C13.8696 27.0663 14.9524 27.2903 15.8572 27.7317C16.1729 27.8861 16.3451 28.2242 16.2855 28.5733C16.2226 28.9444 16.0019 29.2053 15.664 29.3084C15.5661 29.3381 15.4625 29.3532 15.3564 29.3532Z" fill="#F7C714"/>
<path fill-rule="evenodd" clip-rule="evenodd" d="M15.9766 27.484C16.4035 27.6923 16.6364 28.1489 16.556 28.6195C16.4758 29.092 16.1795 29.4393 15.7429 29.5723C15.6191 29.6101 15.4882 29.6293 15.3549 29.6293C15.1933 29.6293 15.0303 29.6015 14.8705 29.5467C14.4836 29.4139 13.4533 29.1052 12.2493 29.1052C11.6279 29.1052 11.0507 29.1894 10.5339 29.3551C10.4298 29.3886 10.3323 29.4131 10.2366 29.4301C10.0496 29.4633 9.77189 29.5032 9.5042 29.5043C9.08136 29.5043 8.70008 29.3009 8.48474 28.9598C8.30988 28.6829 8.27184 28.3586 8.37735 28.0456C8.49715 27.6915 8.78966 27.4147 9.15989 27.3048C9.68149 27.1502 11.0647 26.7905 12.6371 26.7905C13.9104 26.7905 15.0341 27.0237 15.9766 27.484ZM9.31666 27.834C9.12454 27.8909 8.96425 28.0326 8.90003 28.2223C8.83904 28.4031 8.87979 28.5515 8.9513 28.6651C9.06922 28.8516 9.28374 28.9525 9.5042 28.9525C9.50528 28.9525 9.50609 28.9525 9.50717 28.9525C9.73762 28.9517 9.99154 28.9134 10.1397 28.8869C10.2163 28.8732 10.2911 28.8535 10.365 28.8297C10.9967 28.6271 11.6432 28.5534 12.2493 28.5534C13.5464 28.5534 14.6593 28.8907 15.0497 29.0248C15.1482 29.0585 15.2516 29.0774 15.3549 29.0774C15.4315 29.0774 15.5082 29.0669 15.5821 29.0442C15.8695 28.9568 15.9772 28.7323 16.012 28.527C16.0506 28.3016 15.9399 28.0801 15.7346 27.9797C14.7502 27.4994 13.6522 27.3424 12.6371 27.3424C11.1386 27.3424 9.82073 27.6845 9.31666 27.834Z" fill="#2E3349"/>
<g opacity="0.6">
<g opacity="0.6">
<g opacity="0.6">
<g opacity="0.6">
<g opacity="0.6">
<path opacity="0.6" d="M9.18338 28.7421C9.11187 28.6285 9.07113 28.4803 9.13238 28.2995C9.19633 28.1096 9.35662 27.9679 9.54875 27.9109C10.3035 27.6873 12.8824 27.0326 15.1606 27.7404C12.8284 26.9101 10.0973 27.6023 9.31668 27.8338C9.12483 27.8907 8.96454 28.0324 8.90032 28.2221C8.83933 28.4029 8.88008 28.5513 8.95159 28.6649C9.05089 28.8219 9.21873 28.9172 9.40114 28.9439C9.31399 28.8956 9.23816 28.8284 9.18338 28.7421Z" fill="#FEFEFE"/>
</g>
</g>
</g>
</g>
</g>
<path d="M15.3562 30.4661C15.2297 30.4661 15.1015 30.4475 14.975 30.4113C14.5729 30.2958 13.5022 30.0276 12.2506 30.0276C11.5963 30.0276 10.9862 30.1023 10.4381 30.2494C10.3472 30.2737 10.2635 30.2915 10.1815 30.3037C10.0072 30.3296 9.74866 30.3609 9.50931 30.3614C9.18685 30.3614 8.89812 30.2305 8.73244 30.0114C8.58754 29.8193 8.5565 29.5921 8.64555 29.3716C8.7408 29.1355 8.96747 28.9526 9.25162 28.8821C9.75973 28.7561 11.1076 28.4625 12.6384 28.4625C13.8629 28.4625 14.9404 28.649 15.8403 29.0165C16.1666 29.1498 16.3487 29.4655 16.2837 29.7847C16.2168 30.114 15.9925 30.3431 15.6517 30.4299C15.5575 30.4537 15.4582 30.4661 15.3562 30.4661Z" fill="#F7C714"/>
<path fill-rule="evenodd" clip-rule="evenodd" d="M15.9432 28.761C16.3941 28.9453 16.6448 29.3889 16.553 29.8396C16.4651 30.2718 16.1609 30.5846 15.7187 30.6971C15.6021 30.7268 15.4796 30.7419 15.3549 30.7419C15.2027 30.7419 15.0489 30.7198 14.8975 30.6766C14.5065 30.5644 13.466 30.3037 12.2493 30.3037C11.619 30.3037 11.0331 30.3749 10.5083 30.5158C10.4074 30.543 10.3132 30.5627 10.2209 30.5765C10.0374 30.604 9.76489 30.6367 9.50422 30.6375C9.09946 30.6375 8.72815 30.4656 8.51093 30.1777C8.30828 29.9092 8.26349 29.5778 8.38842 29.268C8.51687 28.9502 8.81423 28.7059 9.18365 28.6142C9.70201 28.4858 11.0758 28.1868 12.6371 28.1868C13.8978 28.1868 15.0101 28.38 15.9432 28.761ZM9.31668 29.1498C9.12455 29.1976 8.96427 29.3161 8.90005 29.4747C8.83906 29.6261 8.87981 29.7502 8.95131 29.8452C9.06924 30.0012 9.28376 30.0857 9.50422 30.0857C9.5053 30.0857 9.50611 30.0857 9.50719 30.0857C9.73763 30.0848 9.99155 30.0527 10.1397 30.0309C10.2163 30.0193 10.2911 30.0028 10.365 29.9828C10.9967 29.8134 11.643 29.7519 12.2493 29.7519C13.5462 29.7519 14.6593 30.0341 15.0497 30.1461C15.1482 30.1742 15.2516 30.1901 15.3549 30.1901C15.4316 30.1901 15.5082 30.1814 15.5821 30.1626C15.8695 30.0892 15.9772 29.9016 16.012 29.7297C16.0506 29.5411 15.9399 29.3557 15.7346 29.2721C14.7502 28.87 13.6525 28.7386 12.6371 28.7386C11.1387 28.7386 9.82075 29.0249 9.31668 29.1498Z" fill="#2E3349"/>
<g opacity="0.6">
<g opacity="0.6">
<g opacity="0.6">
<g opacity="0.6">
<g opacity="0.6">
<path opacity="0.6" d="M9.18338 29.9225C9.11187 29.8276 9.07113 29.7034 9.13238 29.5523C9.19633 29.3934 9.35662 29.2749 9.54875 29.2274C10.3383 29.0315 13.1244 28.4403 15.4745 29.1735C13.0794 28.3237 10.1327 28.9476 9.31668 29.15C9.12483 29.1977 8.96454 29.3162 8.90032 29.4749C8.83933 29.6263 8.88008 29.7504 8.95159 29.8454C9.04414 29.9679 9.1966 30.0456 9.36472 30.0734C9.29294 30.0348 9.23034 29.9846 9.18338 29.9225Z" fill="#FEFEFE"/>
</g>
</g>
</g>
</g>
</g>
<path d="M14.8274 43.961C14.845 44.8396 14.3506 45.6289 13.2901 45.9821L13.3114 47.0491L11.952 47.0761L11.9342 46.1759C11.1808 46.1724 10.453 45.9908 10.0769 45.7916L10.371 44.4842C10.7992 44.6915 11.4541 44.896 12.126 44.8828C12.8503 44.8685 13.2254 44.5609 13.2165 44.1062C13.2078 43.6731 12.8724 43.4316 12.0292 43.1482C10.864 42.7686 10.0966 42.142 10.0766 41.1288C10.0577 40.1705 10.6883 39.3818 11.7941 39.095L11.7731 38.025L13.1323 37.998L13.152 38.9929C13.7011 39.0313 14.1277 39.1559 14.455 39.2949L14.1296 40.574C13.8484 40.4447 13.3471 40.2585 12.666 40.272C11.9833 40.2855 11.6587 40.6012 11.666 40.9641C11.6746 41.408 12.0718 41.5961 12.9771 41.9197C14.2168 42.3501 14.808 42.9799 14.8274 43.961Z" fill="#F9F6C3"/>
<g opacity="0.302">
<g opacity="0.302">
<g opacity="0.302">
<g opacity="0.302">
<g opacity="0.302">
<path opacity="0.302" d="M16.9827 24.0494L15.8852 25.3298C15.4252 25.8665 14.7651 26.1922 14.059 26.227C12.8096 26.2888 10.6994 26.5354 9.02344 27.4494C12.5009 26.8055 14.8318 26.8957 16.0167 27.72L17.8713 24.629L18.0259 23.9336L17.0985 23.779L17.2145 23.9722C17.2401 23.8435 17.1629 23.8691 16.9827 24.0494Z" fill="#2E3349"/>
</g>
</g>
</g>
</g>
</g>
<g opacity="0.302">
<g opacity="0.302">
<g opacity="0.302">
<g opacity="0.302">
<g opacity="0.302">
<path opacity="0.302" d="M4.93594 52.8747C4.94215 52.8774 4.94809 52.8801 4.95402 52.8825C5.70121 53.2832 6.52018 53.5649 7.38503 53.7028C7.39312 53.7042 7.40122 53.7055 7.40958 53.7069C7.4792 53.7177 7.54936 53.7276 7.61979 53.7366C7.6268 53.7376 7.63382 53.7384 7.64084 53.7395C7.71801 53.749 7.79546 53.7576 7.87317 53.7652C7.87614 53.7654 7.87911 53.7654 7.8818 53.7657C7.95169 53.7724 8.02158 53.7776 8.09201 53.7824C8.11252 53.7838 8.13303 53.7849 8.15354 53.7859C8.20885 53.7892 8.26444 53.7919 8.32003 53.794C8.34134 53.7946 8.36266 53.7956 8.38425 53.7962C8.45846 53.7983 8.53266 53.7997 8.60741 53.7997H9.31358H12.1728H16.3036C16.3775 53.7997 16.4514 53.7983 16.5251 53.7962C16.547 53.7956 16.5688 53.7948 16.5907 53.794C16.6436 53.7919 16.6962 53.7894 16.7488 53.7865C16.7725 53.7851 16.7963 53.7838 16.82 53.7822C16.8751 53.7786 16.9296 53.7743 16.9844 53.7695C17.0027 53.7679 17.0211 53.7665 17.0392 53.7649C17.1128 53.7579 17.1859 53.75 17.2588 53.7411C17.2642 53.7403 17.2696 53.7395 17.2747 53.739C17.3419 53.7306 17.4086 53.7212 17.4752 53.7109C17.4938 53.7082 17.5125 53.705 17.5311 53.702C17.5861 53.6934 17.6412 53.6839 17.6962 53.674C17.7143 53.6704 17.7326 53.6672 17.7507 53.6637C17.8149 53.6516 17.8786 53.6389 17.9423 53.6251C17.9488 53.6238 17.9553 53.6224 17.9617 53.6211C18.0359 53.6046 18.1099 53.5873 18.1835 53.569C18.186 53.5684 18.1884 53.5676 18.1911 53.5671C18.2591 53.5498 18.3268 53.5317 18.3943 53.5129C18.4064 53.5093 18.4188 53.5058 18.431 53.5023C18.4922 53.4848 18.5532 53.4667 18.6137 53.4476C18.6234 53.4446 18.6328 53.4416 18.6423 53.4386C18.8563 53.3709 19.0659 53.294 19.2716 53.2085C19.278 53.2058 19.2845 53.2028 19.291 53.2001C19.3571 53.1726 19.4227 53.144 19.4877 53.1146C19.4893 53.1138 19.4909 53.1132 19.4923 53.1124C19.5622 53.0808 19.6313 53.0482 19.7001 53.0145C21.9675 51.7732 23.552 49.4261 23.7153 46.6735C23.7471 46.1365 23.7663 45.5841 23.7687 45.0212C23.7698 45.3361 23.7655 45.6478 23.7569 45.9559C23.9223 40.207 22.477 33.1082 15.0685 30.4751C15.0588 30.4735 15.0453 30.4714 15.028 30.4687C15.028 30.4684 15.0278 30.4684 15.0278 30.4684C20.111 33.9634 20.9222 40.3349 20.6245 45.3545C20.624 45.3615 20.6235 45.3688 20.6232 45.3761C20.5436 46.6559 19.8817 47.8305 18.8414 48.5804C16.2998 50.4126 10.3268 53.4065 1.73535 49.6228C2.45178 51.0058 3.5727 52.1394 4.93594 52.8747Z" fill="#2E3349"/>
</g>
</g>
</g>
</g>
</g>
<path d="M19.803 54.4613C19.0467 54.4613 18.4312 53.8461 18.4312 53.0895V50.3449C18.4312 49.5883 19.0467 48.973 19.803 48.973H23.1402C23.8965 48.973 24.512 49.5883 24.512 50.3449V53.0895C24.512 53.8461 23.8965 54.4613 23.1402 54.4613H19.803Z" fill="#9CAAB9"/>
<path fill-rule="evenodd" clip-rule="evenodd" d="M24.946 50.3449V53.0894C24.946 54.0854 24.136 54.8957 23.14 54.8957H19.8029C18.8071 54.8957 17.9971 54.0854 17.9971 53.0894V50.3449C17.9971 49.3489 18.8071 48.5388 19.8029 48.5388H23.14C24.136 48.5388 24.946 49.3489 24.946 50.3449ZM19.8029 49.4072C19.2853 49.4072 18.8654 49.827 18.8654 50.3449V53.0894C18.8654 53.6073 19.2853 54.0271 19.8029 54.0271H23.14C23.6578 54.0271 24.0777 53.6073 24.0777 53.0894V50.3449C24.0777 49.827 23.6578 49.4072 23.14 49.4072H19.8029Z" fill="#2E3349"/>
<g opacity="0.6">
<g opacity="0.6">
<g opacity="0.6">
<g opacity="0.6">
<g opacity="0.6">
<path opacity="0.6" d="M19.4059 53.0895V50.3449C19.4059 49.8271 19.8255 49.4072 20.3433 49.4072H19.8036C19.2858 49.4072 18.8662 49.8271 18.8662 50.3449V53.0895C18.8662 53.6073 19.2858 54.0272 19.8036 54.0272H20.3433C19.8255 54.0272 19.4059 53.6073 19.4059 53.0895Z" fill="white"/>
</g>
</g>
</g>
</g>
</g>
<g opacity="0.302">
<g opacity="0.302">
<g opacity="0.302">
<g opacity="0.302">
<g opacity="0.302">
<path opacity="0.302" d="M24.0777 50.8739L19.1348 51.1791L20.9648 51.7647C21.9981 52.0955 21.9713 53.581 20.9217 53.8551C20.614 53.9353 20.2471 53.9917 19.8094 54.0124L19.8274 54.0273H23.14C23.6578 54.0273 24.0777 53.6074 24.0777 53.0896V50.8739Z" fill="#2E3349"/>
</g>
</g>
</g>
</g>
</g>
<path d="M37.0979 54.4613C36.3416 54.4613 35.7261 53.8461 35.7261 53.0895V50.3449C35.7261 49.5883 36.3416 48.973 37.0979 48.973H40.4351C41.1914 48.973 41.807 49.5883 41.807 50.3449V53.0895C41.807 53.8461 41.1914 54.4613 40.4351 54.4613H37.0979Z" fill="#9CAAB9"/>
<path fill-rule="evenodd" clip-rule="evenodd" d="M42.2407 50.3449V53.0894C42.2407 54.0854 41.4304 54.8957 40.4347 54.8957H37.0976C36.1018 54.8957 35.2915 54.0854 35.2915 53.0894V50.3449C35.2915 49.3489 36.1018 48.5388 37.0976 48.5388H40.4347C41.4304 48.5388 42.2407 49.3489 42.2407 50.3449ZM37.0976 49.4072C36.5797 49.4072 36.1601 49.827 36.1601 50.3449V53.0894C36.1601 53.6073 36.5797 54.0271 37.0976 54.0271H40.4347C40.9525 54.0271 41.3724 53.6073 41.3724 53.0894V50.3449C41.3724 49.827 40.9525 49.4072 40.4347 49.4072H37.0976Z" fill="#2E3349"/>
<g opacity="0.6">
<g opacity="0.6">
<g opacity="0.6">
<g opacity="0.6">
<g opacity="0.6">
<path opacity="0.6" d="M36.6998 53.0895V50.3449C36.6998 49.8271 37.1197 49.4072 37.6375 49.4072H37.0979C36.58 49.4072 36.1602 49.8271 36.1602 50.3449V53.0895C36.1602 53.6073 36.58 54.0272 37.0979 54.0272H37.6375C37.1197 54.0272 36.6998 53.6073 36.6998 53.0895Z" fill="white"/>
</g>
</g>
</g>
</g>
</g>
<g opacity="0.302">
<g opacity="0.302">
<g opacity="0.302">
<g opacity="0.302">
<g opacity="0.302">
<path opacity="0.302" d="M41.3724 50.8739L36.4297 51.1791L38.2598 51.7647C39.2927 52.0955 39.266 53.581 38.2166 53.8551C37.909 53.9353 37.542 53.9917 37.1043 54.0124L37.1224 54.0273H40.4349C40.9528 54.0273 41.3724 53.6074 41.3724 53.0896V50.8739Z" fill="#2E3349"/>
</g>
</g>
</g>
</g>
</g>
<path d="M47.1673 54.4613C46.4107 54.4613 45.7954 53.8461 45.7954 53.0895V50.3449C45.7954 49.5883 46.4107 48.973 47.1673 48.973H50.5042C51.2608 48.973 51.876 49.5883 51.876 50.3449V53.0895C51.876 53.8461 51.2608 54.4613 50.5042 54.4613H47.1673Z" fill="#9CAAB9"/>
<path fill-rule="evenodd" clip-rule="evenodd" d="M52.3098 50.3449V53.0894C52.3098 54.0854 51.4997 54.8957 50.5038 54.8957H47.1669C46.1709 54.8957 45.3608 54.0854 45.3608 53.0894V50.3449C45.3608 49.3489 46.1709 48.5388 47.1669 48.5388H50.5038C51.4997 48.5388 52.3098 49.3489 52.3098 50.3449ZM47.1669 49.4072C46.6491 49.4072 46.2292 49.827 46.2292 50.3449V53.0894C46.2292 53.6073 46.6491 54.0271 47.1669 54.0271H50.5038C51.0216 54.0271 51.4415 53.6073 51.4415 53.0894V50.3449C51.4415 49.827 51.0216 49.4072 50.5038 49.4072H47.1669Z" fill="#2E3349"/>
<g opacity="0.6">
<g opacity="0.6">
<g opacity="0.6">
<g opacity="0.6">
<g opacity="0.6">
<path opacity="0.6" d="M46.7697 53.0895V50.3449C46.7697 49.8271 47.1895 49.4072 47.7074 49.4072H47.1677C46.6499 49.4072 46.23 49.8271 46.23 50.3449V53.0895C46.23 53.6073 46.6499 54.0272 47.1677 54.0272H47.7074C47.1895 54.0272 46.7697 53.6073 46.7697 53.0895Z" fill="white"/>
</g>
</g>
</g>
</g>
</g>
<g opacity="0.302">
<g opacity="0.302">
<g opacity="0.302">
<g opacity="0.302">
<g opacity="0.302">
<path opacity="0.302" d="M51.4412 50.8739L46.4985 51.1791L48.3283 51.7647C49.3615 52.0955 49.3348 53.581 48.2852 53.8551C47.9778 53.9353 47.6108 53.9917 47.1731 54.0124L47.1912 54.0273H50.5038C51.0213 54.0273 51.4412 53.6074 51.4412 53.0896V50.8739Z" fill="#2E3349"/>
</g>
</g>
</g>
</g>
</g>
<path d="M18.0463 50.7891C15.907 50.7891 14.1665 49.0486 14.1665 46.9095V12.6947C14.1665 10.5554 15.907 8.81519 18.0463 8.81519H70.5038C72.6431 8.81519 74.3835 10.5554 74.3835 12.6947V46.9095C74.3835 49.0486 72.6431 50.7891 70.5038 50.7891H18.0463Z" fill="#9CAAB9"/>
<path fill-rule="evenodd" clip-rule="evenodd" d="M74.8173 12.6947V46.9095C74.8173 49.2882 72.8823 51.2235 70.5034 51.2235H18.0459C15.6672 51.2235 13.7319 49.2882 13.7319 46.9095V12.6947C13.7319 10.316 15.6672 8.38074 18.0459 8.38074H70.5034C72.8823 8.38074 74.8173 10.316 74.8173 12.6947ZM18.0459 9.24936C16.143 9.24936 14.6006 10.7918 14.6006 12.6947V46.9095C14.6006 48.8125 16.143 50.3549 18.0459 50.3549H70.5034C72.4063 50.3549 73.949 48.8125 73.949 46.9095V12.6947C73.949 10.7918 72.4063 9.24936 70.5034 9.24936H18.0459Z" fill="#2E3349"/>
<g opacity="0.4">
<g opacity="0.4">
<g opacity="0.4">
<g opacity="0.4">
<g opacity="0.4">
<path opacity="0.4" d="M69.8298 50.3549C71.7327 50.3549 73.2754 48.8122 73.2754 46.9096V12.6947C73.2754 10.7918 71.7327 9.24939 69.8298 9.24939H18.0469C16.144 9.24939 14.6016 10.7918 14.6016 12.6947V46.9096C14.6016 48.8122 16.144 50.3549 18.0469 50.3549H70.5044C70.9801 50.3549 71.4334 50.2586 71.8455 50.0843C71.4334 50.2586 70.9801 50.3549 70.5044 50.3549H69.8298Z" fill="#2E3349"/>
</g>
</g>
</g>
</g>
</g>
<path d="M18.1985 50.7891C15.9753 50.7891 14.1665 48.9803 14.1665 46.7573V12.8469C14.1665 10.6237 15.9753 8.81519 18.1985 8.81519H53.412C55.6352 8.81519 57.4437 10.6237 57.4437 12.8469V46.7573C57.4437 48.9803 55.6352 50.7891 53.412 50.7891H18.1985Z" fill="#9CAAB9"/>
<path fill-rule="evenodd" clip-rule="evenodd" d="M57.8775 12.8469V46.7574C57.8775 49.2199 55.8742 51.2235 53.4116 51.2235H18.1981C15.7355 51.2235 13.7319 49.2199 13.7319 46.7574V12.8469C13.7319 10.3843 15.7355 8.38074 18.1981 8.38074H53.4116C55.8742 8.38074 57.8775 10.3843 57.8775 12.8469ZM18.1981 9.24936C16.2112 9.24936 14.6006 10.86 14.6006 12.8469V46.7574C14.6006 48.7442 16.2112 50.3549 18.1981 50.3549H53.4116C55.3984 50.3549 57.0091 48.7442 57.0091 46.7574V12.8469C57.0091 10.86 55.3984 9.24936 53.4116 9.24936H18.1981Z" fill="#2E3349"/>
<g opacity="0.2">
<g opacity="0.2">
<g opacity="0.2">
<g opacity="0.2">
<g opacity="0.2">
<path opacity="0.2" d="M55.6597 10.1604C55.6599 10.1587 55.6603 10.1569 55.6606 10.1553C55.6603 10.1569 55.6599 10.1589 55.6597 10.1604Z" fill="#2E3349"/>
</g>
</g>
</g>
</g>
</g>
<g opacity="0.2">
<g opacity="0.2">
<g opacity="0.2">
<g opacity="0.2">
<g opacity="0.2">
<path opacity="0.2" d="M56.3744 46.7721V12.8616C56.3744 12.8613 56.3744 12.8608 56.3744 12.8605C56.3741 12.0022 56.0724 11.2148 55.5705 10.5966C55.2362 12.0097 54.1045 15.0311 50.5728 14.6156C49.8531 14.2559 42.5226 24.7797 28.5807 46.187C28.041 48.7055 24.8928 50.1448 19.1362 50.5045L53.0918 50.355C54.931 50.1953 56.3744 48.6526 56.3744 46.7721Z" fill="#2E3349"/>
</g>
</g>
</g>
</g>
</g>
<path d="M21.3655 46.1989C19.9056 46.1989 18.7178 45.0111 18.7178 43.5513V16.0528C18.7178 14.5929 19.9056 13.4051 21.3655 13.4051H49.1988C50.6589 13.4051 51.8465 14.5929 51.8465 16.0528V43.5513C51.8465 45.0111 50.6589 46.1989 49.1988 46.1989H21.3655Z" fill="#9CAAB9"/>
<path fill-rule="evenodd" clip-rule="evenodd" d="M52.2517 16.0529V43.5514C52.2517 45.2346 50.8826 46.6038 49.1993 46.6038H21.3659C19.6829 46.6038 18.3135 45.2346 18.3135 43.5514V16.0529C18.3135 14.3696 19.6829 13.0004 21.3659 13.0004H49.1993C50.8826 13.0004 52.2517 14.3696 52.2517 16.0529ZM21.3659 13.81C20.1274 13.81 19.123 14.814 19.123 16.0529V43.5514C19.123 44.7902 20.1274 45.7943 21.3659 45.7943H49.1993C50.4381 45.7943 51.4422 44.7902 51.4422 43.5514V16.0529C51.4422 14.814 50.4381 13.81 49.1993 13.81H21.3659Z" fill="#2E3349"/>
<g opacity="0.188">
<g opacity="0.188">
<g opacity="0.188">
<g opacity="0.188">
<g opacity="0.188">
<path opacity="0.188" d="M26.8439 28.0338H24.3791C23.5693 28.0338 22.9131 27.3776 22.9131 26.5681V19.3196C22.9131 18.5098 23.5693 17.8535 24.3791 17.8535H26.8439C27.6537 17.8535 28.3099 18.5098 28.3099 19.3196V26.5681C28.3099 27.3776 27.6537 28.0338 26.8439 28.0338Z" fill="#FCE5E5"/>
</g>
</g>
</g>
</g>
</g>
<g opacity="0.2">
<g opacity="0.2">
<g opacity="0.2">
<g opacity="0.2">
<g opacity="0.2">
<path opacity="0.2" d="M48.599 45.7822C48.986 45.7822 49.3503 45.6842 49.6679 45.5115C49.6905 45.4994 49.7113 45.4846 49.7334 45.4716C49.7893 45.439 49.8438 45.4042 49.8964 45.3666C50.4677 44.96 50.8417 44.294 50.8417 43.5393V23.068C50.8417 23.0677 50.842 23.0672 50.842 23.0667C49.0505 31.5502 45.8496 42.9489 28.4448 45.7822H48.599Z" fill="#2E3349"/>
</g>
</g>
</g>
</g>
</g>
<g opacity="0.6">
<g opacity="0.6">
<g opacity="0.6">
<g opacity="0.6">
<g opacity="0.6">
<path opacity="0.6" d="M19.6627 43.9562V16.4577C19.6627 15.2188 20.6668 14.2148 21.9054 14.2148H49.739C50.1216 14.2148 50.4819 14.3114 50.7973 14.4803C50.3904 14.0669 49.8251 13.81 49.1993 13.81H21.3657C20.1271 13.81 19.123 14.8141 19.123 16.0529V43.5514C19.123 44.4073 19.6026 45.1505 20.3074 45.5288C19.9091 45.1238 19.6627 44.569 19.6627 43.9562Z" fill="white"/>
</g>
</g>
</g>
</g>
</g>
<path d="M51.5993 24.7493C51.0273 24.7493 50.5615 24.2838 50.5615 23.7115V18.9528C50.5615 18.3805 51.0273 17.915 51.5993 17.915H51.9752C52.5476 17.915 53.013 18.3805 53.013 18.9528V23.7115C53.013 24.2838 52.5476 24.7493 51.9752 24.7493H51.5993Z" fill="#9CAAB9"/>
<path fill-rule="evenodd" clip-rule="evenodd" d="M53.3507 18.9528V23.7115C53.3507 24.4697 52.7339 25.0866 51.9756 25.0866H51.5997C50.8415 25.0866 50.2246 24.4697 50.2246 23.7115V18.9528C50.2246 18.1946 50.8415 17.5777 51.5997 17.5777H51.9756C52.7339 17.5777 53.3507 18.1946 53.3507 18.9528ZM51.5997 18.2523C51.2128 18.2523 50.8992 18.5659 50.8992 18.9528V23.7115C50.8992 24.0984 51.2128 24.412 51.5997 24.412H51.9756C52.3626 24.412 52.6761 24.0984 52.6761 23.7115V18.9528C52.6761 18.5659 52.3626 18.2523 51.9756 18.2523H51.5997Z" fill="#2E3349"/>
<g opacity="0.302">
<g opacity="0.302">
<g opacity="0.302">
<g opacity="0.302">
<g opacity="0.302">
<path opacity="0.302" d="M52.1355 18.2724C52.2196 18.3879 52.2706 18.529 52.2706 18.6828V23.4415C52.2706 23.8284 51.9571 24.1423 51.5701 24.1423H51.1943C51.1387 24.1423 51.0855 24.1342 51.0337 24.1218C51.1611 24.2969 51.3661 24.4121 51.599 24.4121H51.9749C52.3619 24.4121 52.6754 24.0983 52.6754 23.7113V18.9527C52.6754 18.6213 52.4447 18.3453 52.1355 18.2724Z" fill="#2E3349"/>
</g>
</g>
</g>
</g>
</g>
<g opacity="0.6">
<g opacity="0.6">
<g opacity="0.6">
<g opacity="0.6">
<g opacity="0.6">
<path opacity="0.6" d="M51.1693 23.8465V19.0878C51.1693 18.7009 51.4828 18.3873 51.8698 18.3873H52.2457C52.3037 18.3873 52.3593 18.3962 52.4132 18.4097C52.2929 18.3128 52.1423 18.2524 51.9758 18.2524H51.5999C51.213 18.2524 50.8994 18.5659 50.8994 18.9529V23.7115C50.8994 24.0405 51.1269 24.3144 51.4324 24.3899C51.2731 24.2615 51.1693 24.0672 51.1693 23.8465Z" fill="white"/>
</g>
</g>
</g>
</g>
</g>
<path d="M51.5993 41.6894C51.0273 41.6894 50.5615 41.2239 50.5615 40.6516V35.8927C50.5615 35.3206 51.0273 34.8549 51.5993 34.8549H51.9752C52.5476 34.8549 53.013 35.3206 53.013 35.8927V40.6516C53.013 41.2239 52.5476 41.6894 51.9752 41.6894H51.5993Z" fill="#9CAAB9"/>
<path fill-rule="evenodd" clip-rule="evenodd" d="M53.3507 35.8924V40.6514C53.3507 41.4096 52.7339 42.0265 51.9756 42.0265H51.5997C50.8415 42.0265 50.2246 41.4096 50.2246 40.6514V35.8924C50.2246 35.1345 50.8415 34.5173 51.5997 34.5173H51.9756C52.7339 34.5173 53.3507 35.1345 53.3507 35.8924ZM51.5997 35.1919C51.2128 35.1919 50.8992 35.5058 50.8992 35.8924V40.6514C50.8992 41.0383 51.2128 41.3519 51.5997 41.3519H51.9756C52.3626 41.3519 52.6761 41.0383 52.6761 40.6514V35.8924C52.6761 35.5058 52.3626 35.1919 51.9756 35.1919H51.5997Z" fill="#2E3349"/>
<g opacity="0.302">
<g opacity="0.302">
<g opacity="0.302">
<g opacity="0.302">
<g opacity="0.302">
<path opacity="0.302" d="M52.1364 35.2126C52.2206 35.3281 52.2716 35.469 52.2716 35.6228V40.3817C52.2716 40.7687 51.9581 41.0822 51.5711 41.0822H51.1952C51.1396 41.0822 51.0865 41.0741 51.0347 41.062C51.162 41.2371 51.3671 41.3521 51.6 41.3521H51.9759C52.3628 41.3521 52.6764 41.0385 52.6764 40.6516V35.8926C52.6764 35.5616 52.4457 35.2855 52.1364 35.2126Z" fill="#2E3349"/>
</g>
</g>
</g>
</g>
</g>
<g opacity="0.6">
<g opacity="0.6">
<g opacity="0.6">
<g opacity="0.6">
<g opacity="0.6">
<path opacity="0.6" d="M51.1693 40.7865V36.0276C51.1693 35.6409 51.4828 35.3271 51.8698 35.3271H52.2457C52.3037 35.3271 52.3593 35.3362 52.4132 35.3495C52.2929 35.2526 52.1423 35.1921 51.9758 35.1921H51.5999C51.213 35.1921 50.8994 35.506 50.8994 35.8926V40.6516C50.8994 40.9805 51.1269 41.2544 51.4324 41.3297C51.2731 41.2012 51.1693 41.007 51.1693 40.7865Z" fill="white"/>
</g>
</g>
</g>
</g>
</g>
<path d="M35.871 35.9138C32.3142 35.9138 29.4204 33.02 29.4204 29.4632C29.4204 25.9065 32.3142 23.0129 35.871 23.0129C39.4278 23.0129 42.3215 25.9065 42.3215 29.4632C42.3215 33.02 39.4278 35.9138 35.871 35.9138Z" fill="#F3F6F9"/>
<path fill-rule="evenodd" clip-rule="evenodd" d="M42.6046 29.4632C42.6046 33.1765 39.5835 36.1976 35.8702 36.1976C32.1569 36.1976 29.1357 33.1765 29.1357 29.4632C29.1357 25.7499 32.1569 22.729 35.8702 22.729C39.5835 22.729 42.6046 25.7499 42.6046 29.4632ZM29.7035 29.4632C29.7035 32.8688 32.4645 35.6299 35.8702 35.6299C39.2759 35.6299 42.0366 32.8688 42.0366 29.4632C42.0366 26.0575 39.2759 23.2967 35.8702 23.2967C32.4645 23.2967 29.7035 26.0575 29.7035 29.4632Z" fill="#2E3349"/>
<g opacity="0.2">
<g opacity="0.2">
<g opacity="0.2">
<g opacity="0.2">
<g opacity="0.2">
<path opacity="0.2" d="M42.0366 29.4632C42.0366 27.4008 41.0233 25.5762 39.4682 24.4568C40.4674 25.5527 41.0773 27.0104 41.0773 28.6105C41.0773 29.0196 41.0371 29.4195 40.961 29.8065C40.8938 30.1475 40.4372 30.219 40.2691 29.9149L39.4477 28.4284L33.3709 32.0532L35.1345 34.3206C35.2776 34.5047 35.1494 34.7767 34.9162 34.7769C34.9143 34.7769 34.9125 34.7769 34.9106 34.7769C33.5673 34.7769 32.3255 34.3463 31.3125 33.6169C32.4404 34.8536 34.0646 35.6299 35.8701 35.6299C35.9632 35.6299 36.0555 35.6269 36.1473 35.6229L36.3558 35.8911C38.7725 35.0382 40.0162 34.5762 40.0872 34.5052C40.1585 34.434 40.6914 33.7588 41.6863 32.4795L41.4594 32.0685C41.829 31.2771 42.0366 30.3947 42.0366 29.4632Z" fill="#2E3349"/>
</g>
</g>
</g>
</g>
</g>
<path d="M35.8704 32.8734C33.9902 32.8734 32.4604 31.3439 32.4604 29.4634C32.4604 27.5831 33.9902 26.0536 35.8704 26.0536C37.7507 26.0536 39.2804 27.5831 39.2804 29.4634C39.2804 31.3439 37.7507 32.8734 35.8704 32.8734Z" fill="#F7C714"/>
<path fill-rule="evenodd" clip-rule="evenodd" d="M39.5818 29.4634C39.5818 31.5093 37.9174 33.1737 35.8715 33.1737C33.8255 33.1737 32.1611 31.5093 32.1611 29.4634C32.1611 27.4177 33.8255 25.7531 35.8715 25.7531C37.9174 25.7531 39.5818 27.4177 39.5818 29.4634ZM32.7618 29.4634C32.7618 31.1809 34.1542 32.573 35.8715 32.573C37.5887 32.573 38.9811 31.1809 38.9811 29.4634C38.9811 27.7461 37.5887 26.354 35.8715 26.354C34.1542 26.354 32.7618 27.7461 32.7618 29.4634Z" fill="#2E3349"/>
<path d="M37.2621 26.6823C37.7348 27.2276 38.0214 27.9386 38.0214 28.7171C38.0214 30.4344 36.6293 31.8268 34.9118 31.8268C34.4117 31.8268 33.9395 31.708 33.521 31.4981C34.0912 32.1563 34.9323 32.5729 35.8713 32.5729C37.5886 32.5729 38.981 31.1808 38.981 29.4632C38.981 28.246 38.281 27.1928 37.2621 26.6823Z" fill="#F89E1D"/>
<path d="M37.5708 23.2072L37.2944 24.2245L37.5708 23.2072Z" fill="white"/>
<path d="M37.7747 23.2625C37.7731 23.3532 37.7501 23.4379 37.7229 23.5216C37.6959 23.6052 37.656 23.6854 37.6166 23.7658C37.5359 23.9258 37.4441 24.0831 37.3241 24.2323C37.3127 24.2466 37.292 24.2488 37.2776 24.2375C37.2712 24.2321 37.2671 24.2245 37.2658 24.2167C37.2377 24.027 37.238 23.8448 37.2496 23.6659C37.2563 23.5769 37.2625 23.4876 37.2814 23.4015C37.3003 23.3157 37.3233 23.231 37.3678 23.1519C37.4266 23.0475 37.5594 23.0102 37.6638 23.069C37.7358 23.1095 37.776 23.1853 37.7747 23.2625Z" fill="#2E3349"/>
<path d="M34.4487 34.7021L34.1724 35.7195L34.4487 34.7021Z" fill="white"/>
<path d="M34.4772 34.71C34.505 34.8997 34.5047 35.0816 34.4934 35.2605C34.4867 35.3498 34.4804 35.4392 34.4616 35.525C34.4427 35.611 34.4195 35.6958 34.3752 35.7746C34.3164 35.8793 34.1836 35.9165 34.0792 35.8577C34.0072 35.8169 33.9669 35.7414 33.9683 35.6642C33.9699 35.5735 33.9928 35.4888 34.0201 35.4052C34.0471 35.3215 34.087 35.2414 34.1264 35.161C34.2071 35.0007 34.2988 34.8436 34.4189 34.6941C34.4303 34.6801 34.451 34.6779 34.4651 34.6893C34.4718 34.6947 34.4759 34.7022 34.4772 34.71Z" fill="#2E3349"/>
<path d="M39.1512 23.8713L38.6177 24.7807L39.1512 23.8713Z" fill="white"/>
<path d="M39.3326 23.9781C39.3075 24.0652 39.263 24.141 39.2147 24.2144C39.1666 24.2881 39.1073 24.355 39.0482 24.4222C38.9284 24.5558 38.7986 24.6832 38.6434 24.796C38.6288 24.8067 38.6083 24.8035 38.5975 24.7887C38.5924 24.7817 38.5905 24.7733 38.5916 24.7655C38.6143 24.5752 38.6623 24.3996 38.7203 24.2298C38.75 24.1456 38.7794 24.0609 38.8202 23.9832C38.8609 23.9052 38.9054 23.8294 38.9691 23.7649C39.0533 23.6793 39.1909 23.6783 39.2765 23.7625C39.3353 23.8205 39.3542 23.9039 39.3326 23.9781Z" fill="#2E3349"/>
<path d="M33.1233 34.1458L32.5898 35.0551L33.1233 34.1458Z" fill="white"/>
<path d="M33.1496 34.161C33.127 34.3513 33.0789 34.5269 33.0209 34.6964C32.9912 34.7808 32.9618 34.8653 32.9208 34.9433C32.8803 35.0213 32.8358 35.0971 32.7721 35.1616C32.6879 35.2471 32.5503 35.2482 32.4648 35.164C32.406 35.106 32.3871 35.0224 32.4084 34.9481C32.4337 34.8613 32.4783 34.7854 32.5263 34.7118C32.5743 34.6381 32.634 34.5712 32.6931 34.5043C32.8129 34.3707 32.9427 34.243 33.0978 34.1305C33.1124 34.1197 33.1329 34.123 33.1437 34.1378C33.1486 34.1446 33.1507 34.1529 33.1496 34.161Z" fill="#2E3349"/>
<path d="M40.5022 24.9265L39.749 25.6643L40.5022 24.9265Z" fill="white"/>
<path d="M40.6497 25.0775C40.6022 25.1547 40.5396 25.2162 40.4738 25.2745C40.4082 25.3331 40.3332 25.3822 40.2585 25.4313C40.1079 25.5287 39.9492 25.6178 39.77 25.686C39.753 25.6925 39.7342 25.6839 39.7277 25.6669C39.7247 25.6588 39.725 25.6504 39.728 25.6428C39.7997 25.465 39.892 25.3082 39.9927 25.1598C40.0434 25.0862 40.0939 25.0122 40.1538 24.9477C40.2134 24.8832 40.2763 24.8217 40.3545 24.7761C40.4584 24.7157 40.5914 24.7507 40.6519 24.8546C40.6934 24.9259 40.6897 25.0114 40.6497 25.0775Z" fill="#2E3349"/>
<path d="M31.9934 33.2618L31.2402 33.9993L31.9934 33.2618Z" fill="white"/>
<path d="M32.014 33.2834C31.9422 33.4609 31.8499 33.6177 31.7493 33.7664C31.6986 33.84 31.6481 33.914 31.5882 33.9782C31.5286 34.043 31.4657 34.1042 31.3874 34.1498C31.2835 34.2105 31.1505 34.1755 31.0901 34.0716C31.0485 34.0003 31.0523 33.9148 31.0922 33.8487C31.1394 33.7715 31.2023 33.7097 31.2682 33.6517C31.3337 33.5931 31.4088 33.544 31.4835 33.4946C31.6338 33.3972 31.7927 33.3082 31.9719 33.2402C31.9889 33.2337 32.0078 33.2423 32.0143 33.2593C32.0173 33.2672 32.017 33.2758 32.014 33.2834Z" fill="#2E3349"/>
<path d="M41.529 26.2997L40.6089 26.8141L41.529 26.2997Z" fill="white"/>
<path d="M41.6328 26.4837C41.567 26.5458 41.4903 26.589 41.4115 26.6278C41.3327 26.6672 41.2475 26.6947 41.1625 26.7228C40.9919 26.7773 40.8152 26.8216 40.6244 26.8402C40.6063 26.8421 40.5904 26.8288 40.5885 26.8108C40.5877 26.8021 40.5904 26.794 40.595 26.7878C40.711 26.6351 40.8411 26.508 40.9771 26.3909C41.0454 26.3331 41.1136 26.2751 41.1884 26.2287C41.2628 26.1818 41.3395 26.1391 41.4269 26.1156C41.5429 26.0843 41.6622 26.1532 41.6935 26.2692C41.7148 26.3491 41.6887 26.4306 41.6328 26.4837Z" fill="#2E3349"/>
<path d="M31.1326 32.1124L30.2124 32.6268L31.1326 32.1124Z" fill="white"/>
<path d="M31.1472 32.1386C31.0314 32.2913 30.9011 32.4184 30.7654 32.5355C30.6971 32.5933 30.6288 32.6513 30.5541 32.6977C30.4796 32.7444 30.403 32.7873 30.3155 32.8108C30.1995 32.8418 30.0802 32.7732 30.0489 32.6572C30.0276 32.5773 30.0535 32.4958 30.1096 32.4427C30.1755 32.3803 30.2521 32.3374 30.3309 32.2986C30.4097 32.2592 30.4947 32.2317 30.5797 32.2036C30.7505 32.1491 30.927 32.1048 31.1178 32.0859C31.1358 32.0843 31.152 32.0976 31.1539 32.1156C31.1547 32.124 31.152 32.1324 31.1472 32.1386Z" fill="#2E3349"/>
<path d="M42.1602 27.894L41.1372 28.1493L42.1602 27.894Z" fill="white"/>
<path d="M42.2116 28.0984C42.1317 28.1413 42.0465 28.1626 41.9601 28.1796C41.874 28.1969 41.7844 28.2012 41.6951 28.2058C41.5159 28.2136 41.3341 28.2101 41.1449 28.1783C41.1271 28.1753 41.115 28.1583 41.1182 28.1405C41.1195 28.1319 41.1241 28.1249 41.1303 28.1197C41.2823 28.0029 41.4412 27.9144 41.6031 27.8372C41.6843 27.7992 41.7653 27.7611 41.8495 27.7357C41.9337 27.7101 42.0189 27.6891 42.1093 27.6893C42.2294 27.6896 42.3265 27.7873 42.3263 27.9074C42.326 27.9899 42.2796 28.0617 42.2116 28.0984Z" fill="#2E3349"/>
<path d="M30.6023 30.7778L29.5796 31.0331L30.6023 30.7778Z" fill="white"/>
<path d="M30.6102 30.807C30.4586 30.9241 30.2996 31.0126 30.1377 31.0898C30.0565 31.1276 29.9756 31.1659 29.8914 31.1913C29.8072 31.2166 29.7219 31.2379 29.6312 31.2377C29.5112 31.2374 29.4143 31.1397 29.4146 31.0196C29.4148 30.9371 29.4612 30.865 29.5292 30.8286C29.6091 30.7857 29.6944 30.7644 29.7807 30.7474C29.8668 30.7301 29.9564 30.7258 30.0457 30.7209C30.2249 30.7131 30.4068 30.7166 30.5956 30.7487C30.6137 30.7517 30.6256 30.7687 30.6226 30.7865C30.6213 30.7949 30.6167 30.8022 30.6102 30.807Z" fill="#2E3349"/>
<path d="M42.0915 31.292L41.0801 30.9949L42.0915 31.292Z" fill="white"/>
<path d="M42.0311 31.4945C41.9407 31.491 41.8563 31.4665 41.7734 31.4373C41.6903 31.4087 41.6107 31.3672 41.5314 31.3259C41.373 31.242 41.2178 31.147 41.0707 31.0239C41.057 31.0121 41.0551 30.9916 41.0667 30.9775C41.0724 30.9711 41.0799 30.967 41.0877 30.9659C41.278 30.9419 41.4599 30.946 41.6385 30.9613C41.7278 30.9697 41.8169 30.9778 41.9024 30.9986C41.988 31.0191 42.0721 31.0439 42.1501 31.09C42.2535 31.151 42.288 31.2843 42.2268 31.3877C42.1849 31.4589 42.1083 31.4975 42.0311 31.4945Z" fill="#2E3349"/>
<path d="M30.6627 27.9319L29.6514 27.6345L30.6627 27.9319Z" fill="white"/>
<path d="M30.6543 27.9609C30.464 27.9849 30.2819 27.9809 30.1032 27.9657C30.0142 27.9574 29.9252 27.9493 29.8396 27.9285C29.7541 27.908 29.6699 27.8829 29.5919 27.837C29.4886 27.776 29.454 27.6427 29.515 27.5391C29.5571 27.4682 29.6337 27.4296 29.7109 27.4325C29.8013 27.436 29.8858 27.4606 29.9686 27.4897C30.0517 27.5183 30.131 27.5599 30.2106 27.6009C30.369 27.6848 30.5242 27.7801 30.6713 27.9031C30.685 27.9147 30.6869 27.9355 30.6753 27.9496C30.6696 27.956 30.6621 27.9601 30.6543 27.9609Z" fill="#2E3349"/>
<path d="M41.3941 32.8586L40.4961 32.3065L41.3941 32.8586Z" fill="white"/>
<path d="M41.2834 33.0381C41.1968 33.0112 41.1221 32.9653 41.0495 32.9154C40.9769 32.866 40.911 32.805 40.8452 32.7446C40.7143 32.622 40.5894 32.4896 40.4801 32.3322C40.4696 32.3174 40.4734 32.2969 40.4882 32.2864C40.4952 32.2815 40.5036 32.2799 40.5117 32.281C40.7014 32.3074 40.876 32.3592 41.0443 32.4207C41.128 32.452 41.2119 32.4833 41.2891 32.5257C41.3663 32.5681 41.441 32.6142 41.5042 32.679C41.5881 32.7651 41.5862 32.9027 41.5001 32.9866C41.441 33.0441 41.3571 33.0611 41.2834 33.0381Z" fill="#2E3349"/>
<path d="M31.2467 26.6203L30.3486 26.0682L31.2467 26.6203Z" fill="white"/>
<path d="M31.231 26.6458C31.0413 26.6191 30.8667 26.5676 30.6983 26.5061C30.6147 26.4745 30.5305 26.4435 30.4536 26.4008C30.3764 26.3587 30.3016 26.3126 30.2385 26.2478C30.1546 26.1617 30.1565 26.0241 30.2426 25.9402C30.3016 25.8825 30.3856 25.8655 30.4592 25.8884C30.5459 25.9157 30.6206 25.9615 30.6932 26.0114C30.7658 26.0608 30.8316 26.1218 30.8975 26.1823C31.0283 26.3048 31.1533 26.4373 31.2626 26.5946C31.2731 26.6094 31.2693 26.6299 31.2545 26.6402C31.2474 26.6453 31.2391 26.6469 31.231 26.6458Z" fill="#2E3349"/>
<path d="M38.9173 35.186L38.4219 34.2556L38.9173 35.186Z" fill="white"/>
<path d="M38.7308 35.2849C38.6698 35.218 38.6285 35.1405 38.5913 35.0606C38.5535 34.9813 38.5276 34.8955 38.5014 34.81C38.4504 34.6381 38.41 34.4608 38.3951 34.2695C38.3938 34.2514 38.4073 34.2357 38.4253 34.2344C38.434 34.2336 38.4421 34.2363 38.4483 34.2414C38.5986 34.3604 38.723 34.4932 38.8371 34.6313C38.8932 34.701 38.9499 34.7703 38.995 34.8459C39.04 34.9214 39.0813 34.9989 39.1029 35.0868C39.1318 35.2034 39.0605 35.3213 38.944 35.3502C38.8638 35.3699 38.7826 35.3421 38.7308 35.2849Z" fill="#2E3349"/>
<path d="M33.3211 24.671L32.8257 23.7403L33.3211 24.671Z" fill="white"/>
<path d="M33.2939 24.6852C33.1436 24.5662 33.0192 24.4335 32.905 24.295C32.8486 24.2257 32.792 24.1563 32.7472 24.0808C32.7021 24.0052 32.6608 23.9275 32.6392 23.8395C32.6104 23.723 32.6816 23.6053 32.7982 23.5764C32.8783 23.5567 32.9593 23.5845 33.0113 23.6415C33.0721 23.7087 33.1136 23.7861 33.1509 23.8657C33.1886 23.9453 33.2145 24.0311 33.2407 24.1167C33.2917 24.2885 33.3322 24.4658 33.347 24.6569C33.3484 24.675 33.3349 24.6909 33.3168 24.6922C33.3082 24.693 33.3001 24.6901 33.2939 24.6852Z" fill="#2E3349"/>
<path d="M37.3082 35.7845L37.0742 34.7567L37.3082 35.7845Z" fill="white"/>
<path d="M37.1031 35.8313C37.0621 35.7506 37.0424 35.6648 37.0273 35.5782C37.0119 35.4919 37.0092 35.4023 37.0065 35.3127C37.0022 35.1335 37.0095 34.9516 37.0453 34.7633C37.0488 34.7455 37.0658 34.7339 37.0839 34.7371C37.0923 34.7387 37.0993 34.7436 37.1042 34.7501C37.218 34.9044 37.3033 35.065 37.377 35.2285C37.4131 35.3103 37.4496 35.392 37.4733 35.4768C37.4971 35.5615 37.5165 35.6473 37.5143 35.7377C37.5114 35.8578 37.4118 35.9527 37.2917 35.95C37.2091 35.9482 37.1384 35.9001 37.1031 35.8313Z" fill="#2E3349"/>
<path d="M34.6656 24.1701L34.4316 23.1423L34.6656 24.1701Z" fill="white"/>
<path d="M34.6354 24.1769C34.5215 24.0225 34.4363 23.8617 34.3626 23.6984C34.3265 23.6167 34.2898 23.5349 34.2663 23.4502C34.2425 23.3654 34.2231 23.2796 34.2253 23.1892C34.228 23.0692 34.3278 22.9739 34.4476 22.9769C34.5305 22.9788 34.6012 23.0268 34.6365 23.0956C34.6775 23.1763 34.6972 23.2618 34.7123 23.3484C34.7277 23.4351 34.7304 23.5247 34.7331 23.614C34.7372 23.7934 34.7299 23.975 34.6943 24.1634C34.6907 24.1812 34.6735 24.1931 34.6557 24.1895C34.6473 24.1879 34.6403 24.1833 34.6354 24.1769Z" fill="#2E3349"/>
<path d="M42.3536 29.6743C42.2659 29.6965 42.1779 29.6965 42.0902 29.6922C42.0022 29.6881 41.9145 29.6706 41.8266 29.6536C41.6509 29.6177 41.4752 29.5702 41.2996 29.4936C41.2828 29.4863 41.2753 29.4668 41.2826 29.4504C41.2861 29.4423 41.2923 29.4366 41.2996 29.4334C41.4752 29.3565 41.6509 29.3093 41.8266 29.2734C41.9145 29.2564 42.0022 29.2388 42.0902 29.2348C42.1779 29.2302 42.2659 29.2305 42.3536 29.2526C42.4701 29.282 42.5406 29.4002 42.5112 29.5165C42.4912 29.5966 42.4286 29.6552 42.3536 29.6743Z" fill="#2E3349"/>
<path d="M30.4421 29.4936C30.2664 29.5702 30.0907 29.6177 29.9151 29.6536C29.8271 29.6706 29.7394 29.6881 29.6514 29.6922C29.5637 29.6965 29.4758 29.6965 29.3881 29.6743C29.2715 29.6449 29.2011 29.5267 29.2302 29.4102C29.2504 29.33 29.313 29.2717 29.3881 29.2526C29.4758 29.2305 29.5637 29.2302 29.6514 29.2348C29.7394 29.2388 29.8271 29.2564 29.9151 29.2734C30.0907 29.3093 30.2664 29.3565 30.4421 29.4334C30.4588 29.4407 30.4664 29.4598 30.4591 29.4766C30.4556 29.4844 30.4494 29.4903 30.4421 29.4936Z" fill="#2E3349"/>
<path d="M40.455 34.0473L39.7095 33.302L40.455 34.0473Z" fill="white"/>
<path d="M40.3053 34.1965C40.2276 34.1498 40.1652 34.088 40.1064 34.0227C40.0473 33.9577 39.9974 33.8832 39.9475 33.809C39.8484 33.6595 39.7578 33.5017 39.6879 33.3233C39.6811 33.3063 39.6895 33.2874 39.7062 33.2806C39.7143 33.2774 39.723 33.2777 39.7303 33.2806C39.9089 33.3505 40.0667 33.4412 40.2162 33.5402C40.2902 33.5902 40.3647 33.6401 40.4297 33.6992C40.495 33.7583 40.557 33.8206 40.6035 33.8983C40.665 34.0014 40.6313 34.1347 40.5282 34.1965C40.4572 34.2389 40.3717 34.2359 40.3053 34.1965Z" fill="#2E3349"/>
<path d="M32.0314 25.6246L31.2861 24.8793L32.0314 25.6246Z" fill="white"/>
<path d="M32.0107 25.646C31.8323 25.5759 31.6745 25.4852 31.525 25.3864C31.4508 25.3363 31.3763 25.2866 31.3113 25.2272C31.2462 25.1684 31.1842 25.1061 31.1377 25.0284C31.0762 24.9253 31.1097 24.7917 31.2128 24.7302C31.2837 24.6878 31.3695 24.6908 31.4359 24.7302C31.5136 24.7766 31.5757 24.8387 31.6348 24.904C31.6939 24.969 31.7438 25.0435 31.7937 25.1177C31.8928 25.2672 31.9834 25.4248 32.0533 25.6034C32.0601 25.6204 32.0517 25.6393 32.0347 25.646C32.0269 25.649 32.0182 25.6487 32.0107 25.646Z" fill="#2E3349"/>
<path d="M36.0809 22.9806C36.103 23.0685 36.1033 23.1562 36.0987 23.2442C36.0947 23.3319 36.0771 23.4199 36.0601 23.5075C36.0245 23.6832 35.977 23.8589 35.9004 24.0345C35.8931 24.0513 35.8737 24.0588 35.8569 24.0515C35.8491 24.0483 35.8432 24.0418 35.8399 24.0345C35.7633 23.8589 35.7158 23.6832 35.6802 23.5075C35.6629 23.4199 35.6457 23.3319 35.6413 23.2442C35.637 23.1562 35.6373 23.0685 35.6594 22.9806C35.6886 22.864 35.807 22.7936 35.9233 22.823C36.0035 22.8432 36.062 22.9058 36.0809 22.9806Z" fill="#2E3349"/>
<path d="M35.8999 34.8919C35.9765 35.0676 36.024 35.2433 36.0596 35.4192C36.0766 35.5069 36.0942 35.5949 36.0982 35.6826C36.1028 35.7705 36.1025 35.8582 36.0804 35.9462C36.051 36.0625 35.9328 36.1332 35.8165 36.1038C35.7364 36.0835 35.6778 36.0209 35.6589 35.9462C35.6368 35.8582 35.6365 35.7705 35.6409 35.6826C35.6452 35.5949 35.6624 35.5069 35.6797 35.4192C35.7153 35.2433 35.7628 35.0676 35.8395 34.8919C35.8467 34.8755 35.8662 34.8676 35.8829 34.8749C35.8907 34.8784 35.8967 34.8846 35.8999 34.8919Z" fill="#2E3349"/>
<path d="M35.3438 26.3009L35.7177 25.0666C35.7647 24.912 35.983 24.9099 36.0327 25.0639L36.3977 26.1957L35.3438 26.3009Z" fill="#2E3349"/>
<g opacity="0.549">
<g opacity="0.549">
<g opacity="0.549">
<g opacity="0.549">
<g opacity="0.549">
<path opacity="0.549" d="M35.8709 26.3536C35.4961 26.3536 35.1366 26.42 34.8039 26.5417C33.8843 26.8777 33.1687 27.6354 32.8891 28.5806C32.8063 28.8605 32.7612 29.1565 32.7612 29.4633C32.7612 30.6115 33.3838 31.6134 34.3093 32.152C33.5632 31.584 33.081 30.6868 33.081 29.6767C33.081 29.2544 33.1657 28.8518 33.3182 28.4848C33.5845 28.3864 33.8619 28.2166 34.1139 27.9821C34.472 27.6489 34.7038 27.256 34.7815 26.9049C35.2046 26.6893 35.6833 26.5671 36.1907 26.5671C36.76 26.5671 37.2932 26.7206 37.7522 26.9878C37.2298 26.5903 36.5781 26.3536 35.8709 26.3536Z" fill="white"/>
</g>
</g>
</g>
</g>
</g>
<path fill-rule="evenodd" clip-rule="evenodd" d="M35.8709 32.0812C34.4273 32.0812 33.2529 30.9069 33.2529 29.4632C33.2529 28.0198 34.4273 26.8452 35.8709 26.8452C37.3146 26.8452 38.4889 28.0198 38.4889 29.4632C38.4889 30.9069 37.3146 32.0812 35.8709 32.0812ZM35.8709 27.0584C34.5449 27.0584 33.4661 28.1372 33.4661 29.4632C33.4661 30.7895 34.5449 31.8681 35.8709 31.8681C37.1969 31.8681 38.2758 30.7895 38.2758 29.4632C38.2758 28.1372 37.1969 27.0584 35.8709 27.0584Z" fill="#2E3349"/>
<path d="M24.8724 32.3314C23.4795 32.3314 22.3462 31.1981 22.3462 29.8052C22.3462 28.4123 23.4795 27.2789 24.8724 27.2789C26.2654 27.2789 27.3987 28.4123 27.3987 29.8052C27.3987 31.1981 26.2654 32.3314 24.8724 32.3314Z" fill="#C5D3E2"/>
<path fill-rule="evenodd" clip-rule="evenodd" d="M27.669 29.8052C27.669 31.3474 26.4143 32.6021 24.8721 32.6021C23.33 32.6021 22.0752 31.3474 22.0752 29.8052C22.0752 28.2628 23.33 27.0083 24.8721 27.0083C26.4143 27.0083 27.669 28.2628 27.669 29.8052ZM22.6165 29.8052C22.6165 31.0508 23.6265 32.0605 24.8721 32.0605C26.1177 32.0605 27.1277 31.0508 27.1277 29.8052C27.1277 28.5593 26.1177 27.5496 24.8721 27.5496C23.6265 27.5496 22.6165 28.5593 22.6165 29.8052Z" fill="#2E3349"/>
<g opacity="0.302">
<g opacity="0.302">
<g opacity="0.302">
<g opacity="0.302">
<g opacity="0.302">
<path opacity="0.302" d="M26.1162 27.9235C26.3521 28.2799 26.49 28.7071 26.49 29.1666C26.49 30.4122 25.48 31.422 24.2344 31.422C23.7748 31.422 23.3477 31.2843 22.9912 31.0485C23.3949 31.6583 24.087 32.061 24.8731 32.061C26.1189 32.061 27.1287 31.0509 27.1287 29.8053C27.1287 29.019 26.7261 28.3271 26.1162 27.9235Z" fill="#2E3349"/>
</g>
</g>
</g>
</g>
</g>
<g opacity="0.8">
<g opacity="0.8">
<g opacity="0.8">
<g opacity="0.8">
<g opacity="0.8">
<path opacity="0.8" d="M22.7989 29.9877C22.7989 28.7421 23.8086 27.7321 25.0542 27.7321C25.6309 27.7321 26.1563 27.9488 26.5551 28.3044C26.142 27.8414 25.541 27.5497 24.8718 27.5497C23.6262 27.5497 22.6162 28.5594 22.6162 29.8053C22.6162 30.4745 22.9082 31.0754 23.371 31.4886C23.0153 31.0897 22.7989 30.5641 22.7989 29.9877Z" fill="white"/>
</g>
</g>
</g>
</g>
</g>
<path d="M24.8727 36.5269C24.2259 36.5269 23.6997 36.0007 23.6997 35.3539V30.4819C23.6997 29.8354 24.2259 29.3092 24.8727 29.3092C25.5195 29.3092 26.0457 29.8354 26.0457 30.4819V35.3539C26.0457 36.0007 25.5195 36.5269 24.8727 36.5269Z" fill="#C5D3E2"/>
<path fill-rule="evenodd" clip-rule="evenodd" d="M26.2713 30.4819V35.3539C26.2713 36.1251 25.6439 36.7525 24.8727 36.7525C24.1018 36.7525 23.4741 36.1251 23.4741 35.3539V30.4819C23.4741 29.711 24.1018 29.0836 24.8727 29.0836C25.6439 29.0836 26.2713 29.711 26.2713 30.4819ZM23.9253 30.4819V35.3539C23.9253 35.8772 24.3495 36.3013 24.8727 36.3013C25.3959 36.3013 25.8201 35.8772 25.8201 35.3539V30.4819C25.8201 29.9587 25.3959 29.5348 24.8727 29.5348C24.3495 29.5348 23.9253 29.9587 23.9253 30.4819Z" fill="#2E3349"/>
<g opacity="0.302">
<g opacity="0.302">
<g opacity="0.302">
<g opacity="0.302">
<g opacity="0.302">
<path opacity="0.302" d="M25.2734 29.6245C25.3306 29.7465 25.3635 29.8822 25.3635 30.0258V34.8978C25.3635 35.4207 24.9393 35.8449 24.4161 35.8449C24.2726 35.8449 24.1371 35.812 24.0151 35.755C24.1662 36.0775 24.4928 36.3012 24.8724 36.3012C25.3957 36.3012 25.8198 35.877 25.8198 35.3538V30.4818C25.8198 30.1024 25.5959 29.7756 25.2734 29.6245Z" fill="#2E3349"/>
</g>
</g>
</g>
</g>
</g>
<g opacity="0.8">
<g opacity="0.8">
<g opacity="0.8">
<g opacity="0.8">
<g opacity="0.8">
<path opacity="0.8" d="M24.1075 35.4454V30.5734C24.1075 30.0502 24.5317 29.626 25.0546 29.626C25.1712 29.626 25.2824 29.6481 25.3855 29.6864C25.2373 29.5909 25.0616 29.5348 24.8722 29.5348C24.349 29.5348 23.9248 29.9587 23.9248 30.4819V35.3539C23.9248 35.7609 24.1817 36.1065 24.5417 36.2409C24.2807 36.0722 24.1075 35.7792 24.1075 35.4454Z" fill="white"/>
</g>
</g>
</g>
</g>
</g>
<path d="M59.2909 42.179C58.7193 42.1776 58.2555 41.7121 58.2568 41.1409L58.2647 37.052C58.2657 36.4818 58.7304 36.0179 59.3006 36.0179L80.0007 36.0576C80.5719 36.0587 81.0358 36.5242 81.0347 37.0954L81.0269 41.1846C81.0258 41.7548 80.5611 42.2186 79.9907 42.2186C79.9907 42.2186 73.0908 42.2054 59.2909 42.179Z" fill="#1EBC61"/>
<path fill-rule="evenodd" clip-rule="evenodd" d="M59.3036 35.6533L80.0018 35.693C80.7738 35.6943 81.4009 36.3239 81.3996 37.0962L81.3917 41.1851C81.3904 41.9557 80.7622 42.5831 79.9886 42.5831L59.2904 42.5435C58.9164 42.5427 58.5648 42.3964 58.3008 42.1314C58.0367 41.8662 57.8918 41.5143 57.8926 41.1403L57.9004 37.0514C57.9018 36.2804 58.5299 35.6533 59.3009 35.6533C59.3014 35.6533 59.303 35.6533 59.3036 35.6533ZM58.6295 37.0527L58.6217 41.1416C58.6209 41.5124 58.9209 41.8138 59.2917 41.8143L79.9899 41.854C79.9902 41.854 79.9907 41.854 79.9913 41.854C80.3615 41.854 80.6621 41.5542 80.6626 41.1837L80.6705 37.0948C80.6713 36.7238 80.3712 36.4226 80.0004 36.4221L59.3022 36.3824C59.3017 36.3824 59.3012 36.3824 59.3009 36.3824C58.9307 36.3824 58.6301 36.6822 58.6295 37.0527Z" fill="#2E3349"/>
<g opacity="0.6">
<g opacity="0.6">
<g opacity="0.6">
<g opacity="0.6">
<g opacity="0.6">
<path opacity="0.6" d="M59.1076 41.3848L59.1154 37.2956C59.1162 36.9248 59.4173 36.6248 59.7881 36.6256L80.4863 36.665C80.4968 36.665 80.5068 36.6661 80.5173 36.6666C80.3943 36.5176 80.2084 36.4224 80.0003 36.4221L59.3021 36.3824C58.9314 36.3816 58.6299 36.6817 58.6294 37.0527L58.6216 41.1417C58.6208 41.5019 58.9044 41.7958 59.2608 41.8128C59.1648 41.6964 59.1073 41.5472 59.1076 41.3848Z" fill="#FEFEFE"/>
</g>
</g>
</g>
</g>
</g>
<path d="M73.3567 37.7891C73.8009 37.7549 74.2448 37.7343 74.6887 37.7241C75.1328 37.7149 75.5767 37.7101 76.0206 37.7146C76.4645 37.7176 76.9086 37.7222 77.3525 37.7387C77.7964 37.7511 78.2403 37.7686 78.6842 37.7991C78.7066 37.8007 78.7233 37.8202 78.722 37.8425C78.7206 37.8631 78.7039 37.879 78.6839 37.8803C78.24 37.9089 77.7961 37.9248 77.352 37.9356C76.9081 37.9505 76.4642 37.9534 76.0201 37.9545C75.5762 37.9572 75.1323 37.951 74.6884 37.9402C74.2445 37.9281 73.8003 37.906 73.3564 37.8701C73.3343 37.8682 73.3176 37.8485 73.3195 37.8264C73.3211 37.8061 73.337 37.7905 73.3567 37.7891Z" fill="#2E3349"/>
<path d="M73.355 39.1835C73.6686 39.1492 73.9819 39.1284 74.2954 39.1179C74.6087 39.1084 74.9223 39.1036 75.2356 39.1076C75.5488 39.1098 75.8621 39.1163 76.1757 39.1295C76.489 39.1419 76.8022 39.1616 77.1155 39.1908C77.1379 39.1929 77.1544 39.2126 77.1522 39.235C77.1506 39.255 77.1347 39.2701 77.1155 39.2717C76.802 39.2998 76.4887 39.3184 76.1751 39.3295C75.8619 39.3416 75.5483 39.3467 75.235 39.3478C74.9217 39.3508 74.6082 39.3446 74.2949 39.3341C73.9816 39.3222 73.6683 39.3003 73.355 39.2647C73.3326 39.262 73.3164 39.2418 73.3191 39.2194C73.3213 39.2002 73.3367 39.1856 73.355 39.1835Z" fill="#2E3349"/>
<path d="M60.4016 39.06C60.6847 39.0411 60.9677 39.0308 61.2505 39.019L62.0995 38.9957C62.6653 38.9866 63.2309 38.9822 63.7968 38.9868C64.3626 38.9901 64.9285 38.9949 65.4943 39.0117C66.0602 39.0243 66.6258 39.0422 67.1916 39.0729C67.214 39.074 67.231 39.0932 67.23 39.1156C67.2289 39.1363 67.2119 39.1528 67.1914 39.1539C66.6255 39.1825 66.0597 39.1981 65.4938 39.2086C64.9279 39.2232 64.3621 39.2259 63.7965 39.227C63.2306 39.2294 62.6648 39.223 62.0989 39.2116L61.2503 39.1852C60.9675 39.1722 60.6844 39.1609 60.4016 39.1409C60.3792 39.1393 60.3625 39.1199 60.3638 39.0975C60.3655 39.077 60.3819 39.0613 60.4016 39.06Z" fill="#2E3349"/>
<path d="M66.35 42.1889C66.2542 42.1887 66.1624 42.1506 66.095 42.0826C66.0273 42.0149 65.9895 41.9229 65.9897 41.8273L66 36.3951C66.0005 36.1963 66.1619 36.0349 66.3611 36.0349C66.3613 36.0349 68.6596 36.0395 73.256 36.0481C73.3518 36.0484 73.4436 36.0865 73.5113 36.1545C73.5788 36.2222 73.6168 36.3142 73.6166 36.41L73.606 41.8416C73.6058 42.041 73.4441 42.2021 73.245 42.2021C73.245 42.2021 70.9465 42.1976 66.35 42.1889Z" fill="#F9F6C3"/>
<path fill-rule="evenodd" clip-rule="evenodd" d="M66.3616 35.674L73.2561 35.6872C73.4477 35.6874 73.6312 35.7641 73.7664 35.8995C73.9013 36.0353 73.9771 36.219 73.9768 36.4106L73.9663 41.8425C73.9658 42.2408 73.6425 42.5633 73.2442 42.5633C73.244 42.5633 73.2434 42.5633 73.2429 42.5633L66.3487 42.5501C66.1571 42.5498 65.9736 42.4732 65.8384 42.3377C65.7032 42.202 65.6274 42.0182 65.6279 41.8266L65.6382 36.3947C65.639 35.9964 65.9623 35.674 66.3603 35.674C66.3608 35.674 66.3614 35.674 66.3616 35.674ZM66.35 41.828L73.2442 41.8412L73.2548 36.4093L66.3603 36.396L66.35 41.828Z" fill="#2E3349"/>
<path d="M67.5 41.8301L67.5102 36.3982L67.5 41.8301Z" fill="#F9F6C3"/>
<path d="M67.4992 42.0393C67.4989 42.0393 67.4989 42.0393 67.4986 42.0393C67.3834 42.0391 67.29 41.9454 67.29 41.83L67.3006 36.398C67.3008 36.2828 67.3945 36.1895 67.5094 36.1895C67.5097 36.1895 67.5097 36.1895 67.51 36.1895C67.6254 36.1897 67.7185 36.2834 67.7185 36.3989L67.708 41.8308C67.7078 41.946 67.6144 42.0393 67.4992 42.0393Z" fill="#2E3349"/>
<path d="M72.2102 36.4071L72.1997 41.8393L72.2102 36.4071Z" fill="#F9F6C3"/>
<path d="M72.2006 42.0481H72.2003C72.0848 42.0479 71.9914 41.9542 71.9917 41.8387L72.002 36.4068C72.0022 36.2916 72.0959 36.1982 72.2108 36.1982C72.2111 36.1982 72.2111 36.1982 72.2113 36.1982C72.3268 36.1985 72.4199 36.2921 72.4199 36.4076L72.4097 41.8395C72.4094 41.9548 72.3158 42.0481 72.2006 42.0481Z" fill="#2E3349"/>
<path d="M60.1958 37.5974C60.5353 37.5629 60.8748 37.5424 61.2142 37.5318C61.554 37.5224 61.8934 37.5175 62.2329 37.5216C62.5723 37.5237 62.9118 37.5305 63.2513 37.5437C63.5907 37.5561 63.9302 37.5758 64.2696 37.6052C64.292 37.6071 64.3085 37.6268 64.3066 37.6492C64.305 37.6692 64.2891 37.6846 64.2696 37.6862C63.9299 37.714 63.5905 37.7326 63.251 37.7437C62.9115 37.7558 62.5718 37.7609 62.2323 37.7617C61.8929 37.7647 61.5534 37.7585 61.214 37.7477C60.8745 37.7358 60.535 37.714 60.1956 37.6784C60.1732 37.6759 60.157 37.656 60.1594 37.6336C60.1613 37.6141 60.177 37.5993 60.1958 37.5974Z" fill="#2E3349"/>
<path d="M74.7107 40.55C74.9022 40.5125 75.0938 40.496 75.2854 40.4836C75.477 40.4739 75.6683 40.4688 75.8599 40.4726C76.0515 40.4744 76.2428 40.4807 76.4344 40.4936C76.626 40.5066 76.8173 40.5233 77.0089 40.5543C77.0313 40.5578 77.0464 40.5792 77.0426 40.6013C77.0399 40.6194 77.0256 40.6326 77.0086 40.6353C76.817 40.6655 76.6254 40.6814 76.4341 40.6938C76.2425 40.706 76.051 40.7116 75.8594 40.7127C75.6678 40.716 75.4765 40.71 75.2849 40.6995C75.0933 40.6863 74.902 40.669 74.7104 40.631C74.6883 40.6264 74.6737 40.6048 74.678 40.5824C74.6815 40.5654 74.6947 40.553 74.7107 40.55Z" fill="#2E3349"/>
<path d="M61.5476 40.5248C61.7043 40.4873 61.8611 40.4705 62.0179 40.4581C62.1747 40.4481 62.3312 40.443 62.488 40.4468C62.6447 40.4487 62.8013 40.4549 62.958 40.4678C63.1148 40.4808 63.2713 40.4973 63.4281 40.5283C63.4502 40.5326 63.4648 40.5545 63.4605 40.5769C63.4572 40.5936 63.4437 40.6063 63.4278 40.6092C63.271 40.6395 63.1143 40.6557 62.9578 40.6678C62.801 40.6802 62.6442 40.6859 62.4874 40.687C62.3309 40.6902 62.1741 40.6845 62.0174 40.674C61.8608 40.661 61.7041 40.6438 61.5476 40.6057C61.5252 40.6003 61.5114 40.5777 61.5168 40.5553C61.5206 40.5396 61.533 40.5283 61.5476 40.5248Z" fill="#2E3349"/>
<g opacity="0.302">
<g opacity="0.302">
<g opacity="0.302">
<g opacity="0.302">
<g opacity="0.302">
<path opacity="0.302" d="M80.3251 36.4153L79.7678 37.7685C79.069 39.4658 77.4569 40.6105 75.6239 40.7104L58.5742 41.6405L59.0605 42.005L79.9605 42.2479L80.9327 41.7619L81.1759 36.9015L80.3251 36.4153Z" fill="#2E3349"/>
</g>
</g>
</g>
</g>
</g>
<path d="M56.4991 48.3422C55.9279 48.3408 55.464 47.8754 55.4648 47.3041L55.4727 43.2152C55.4738 42.645 55.9387 42.1812 56.5086 42.1812L77.209 42.2208C77.78 42.2216 78.2438 42.6874 78.243 43.2586L78.2352 47.3475C78.2338 47.9177 77.7692 48.3818 77.199 48.3818C77.199 48.3818 70.2989 48.3686 56.4991 48.3422Z" fill="#1EBC61"/>
<path fill-rule="evenodd" clip-rule="evenodd" d="M56.5111 41.8164L77.2093 41.8561C77.9813 41.8574 78.6084 42.487 78.6068 43.2592L78.5993 47.3484C78.5976 48.1191 77.9694 48.7459 77.1958 48.7459L56.4979 48.7065C55.7256 48.7049 55.0985 48.0756 55.1001 47.3034L55.1077 43.2142C55.1093 42.4435 55.7377 41.8164 56.5084 41.8164C56.5089 41.8164 56.5106 41.8164 56.5111 41.8164ZM55.8368 43.2158L55.8289 47.3047C55.8284 47.6755 56.1285 47.9766 56.4992 47.9774L77.1974 48.0171C77.1977 48.0171 77.1982 48.0171 77.1988 48.0171C77.5687 48.0171 77.8693 47.717 77.8701 47.3468L77.878 43.2579C77.8785 42.8869 77.5784 42.5857 77.2077 42.5849L56.5098 42.5455C56.5092 42.5455 56.5087 42.5455 56.5084 42.5455C56.1382 42.5455 55.8376 42.8453 55.8368 43.2158Z" fill="#2E3349"/>
<path d="M70.5635 43.9524C71.0074 43.9181 71.4516 43.8976 71.8955 43.8873C72.3394 43.8779 72.7835 43.8733 73.2274 43.8779C73.6713 43.8809 74.1152 43.8855 74.5591 43.9019C75.003 43.9143 75.4471 43.9319 75.891 43.9624C75.9134 43.964 75.9301 43.9834 75.9285 44.0058C75.9272 44.0263 75.9107 44.0422 75.8908 44.0433C75.4469 44.0722 75.0027 44.0881 74.5588 44.0989C74.1149 44.1138 73.6708 44.1167 73.2269 44.1178C72.783 44.1205 72.3391 44.1143 71.8949 44.1032C71.451 44.0914 71.0071 44.0692 70.5633 44.0333C70.5409 44.0314 70.5241 44.0117 70.526 43.9893C70.5276 43.9694 70.5438 43.9537 70.5635 43.9524Z" fill="#2E3349"/>
<path d="M70.5613 45.3467C70.8746 45.3124 71.1881 45.2916 71.5014 45.2811C71.815 45.2716 72.1283 45.2665 72.4416 45.2708C72.7551 45.273 73.0684 45.2795 73.3817 45.2927C73.6953 45.3051 74.0085 45.3248 74.3218 45.3539C74.3442 45.3561 74.3607 45.3758 74.3585 45.3982C74.3566 45.4182 74.341 45.4333 74.3215 45.4349C74.0083 45.4629 73.6947 45.4813 73.3814 45.4926C73.0679 45.5048 72.7546 45.5099 72.4413 45.511C72.1277 45.5139 71.8144 45.5077 71.5012 45.4969C71.1879 45.4853 70.8743 45.4632 70.561 45.4279C70.5386 45.4252 70.5227 45.4049 70.5251 45.3825C70.5273 45.3634 70.5427 45.3488 70.5613 45.3467Z" fill="#2E3349"/>
<path d="M57.6087 45.2232C57.8918 45.2043 58.1745 45.194 58.4576 45.1822L59.3063 45.1589C59.8721 45.1498 60.438 45.1455 61.0038 45.15C61.5697 45.1533 62.1356 45.1581 62.7011 45.1749C63.267 45.1875 63.8329 45.2054 64.3987 45.2361C64.4211 45.2372 64.4381 45.2564 64.437 45.2788C64.4357 45.2995 64.419 45.316 64.3985 45.3171C63.8326 45.3457 63.2667 45.3613 62.7009 45.3718C62.135 45.3864 61.5692 45.3891 61.0033 45.3902C60.4374 45.3926 59.8719 45.3861 59.306 45.3748L58.4573 45.3484C58.1743 45.3354 57.8915 45.3241 57.6087 45.3041C57.5863 45.3025 57.5693 45.2831 57.5709 45.2607C57.5723 45.2402 57.5887 45.2245 57.6087 45.2232Z" fill="#2E3349"/>
<path d="M57.4023 43.7605C57.7421 43.7259 58.0815 43.7054 58.421 43.6949C58.7605 43.6855 59.0999 43.6806 59.4397 43.6847C59.7791 43.6868 60.1186 43.6933 60.458 43.7068C60.7975 43.7192 61.137 43.7389 61.4764 43.768C61.4988 43.7702 61.5153 43.7899 61.5134 43.812C61.5115 43.8323 61.4956 43.8476 61.4762 43.8493C61.1367 43.8771 60.7972 43.8957 60.4575 43.9067C60.118 43.9186 59.7786 43.924 59.4391 43.9248C59.0997 43.9278 58.7602 43.9216 58.4207 43.9108C58.0813 43.8989 57.7418 43.8771 57.4023 43.8414C57.3799 43.839 57.3638 43.819 57.3659 43.7966C57.3681 43.7772 57.3837 43.7624 57.4023 43.7605Z" fill="#2E3349"/>
<path d="M71.9173 46.7129C72.1089 46.6754 72.3002 46.6589 72.4918 46.6462C72.6834 46.6365 72.875 46.6314 73.0665 46.6354C73.2579 46.6373 73.4495 46.6435 73.6408 46.6565C73.8324 46.6694 74.0239 46.6862 74.2153 46.7172C74.2377 46.7207 74.2528 46.7417 74.2493 46.7641C74.2463 46.7822 74.2323 46.7954 74.2153 46.7981C74.0237 46.8284 73.8321 46.8443 73.6405 46.8567C73.4489 46.8688 73.2576 46.8742 73.066 46.8756C72.8744 46.8788 72.6828 46.8729 72.4915 46.8624C72.2999 46.8491 72.1086 46.8319 71.917 46.7938C71.8946 46.7892 71.88 46.7676 71.8846 46.7452C71.8879 46.7282 71.9014 46.7158 71.9173 46.7129Z" fill="#2E3349"/>
<path d="M58.7556 46.6877C58.9123 46.6505 59.0691 46.6338 59.2259 46.6211C59.3824 46.6114 59.5392 46.6062 59.696 46.61C59.8525 46.6119 60.0093 46.6181 60.166 46.6311C60.3225 46.644 60.4793 46.6605 60.6358 46.6915C60.6582 46.6958 60.6728 46.7177 60.6685 46.7398C60.665 46.7568 60.6517 46.7692 60.6358 46.7725C60.479 46.8027 60.3223 46.8189 60.1655 46.831C60.0087 46.8434 59.8522 46.8491 59.6954 46.8502C59.5387 46.8534 59.3821 46.8478 59.2254 46.8372C59.0686 46.824 58.9121 46.807 58.7556 46.769C58.7332 46.7636 58.7194 46.7409 58.7248 46.7185C58.7286 46.7028 58.741 46.6915 58.7556 46.6877Z" fill="#2E3349"/>
<g opacity="0.6">
<g opacity="0.6">
<g opacity="0.6">
<g opacity="0.6">
<g opacity="0.6">
<path opacity="0.6" d="M56.3158 47.5477L56.3237 43.4588C56.3242 43.088 56.6254 42.788 56.9964 42.7888L77.6943 42.8282C77.7048 42.8282 77.7151 42.8293 77.7253 42.8298C77.6026 42.6808 77.4166 42.5856 77.2083 42.5851L56.5104 42.5457C56.1394 42.5448 55.8382 42.8449 55.8374 43.2159L55.8296 47.3049C55.8291 47.6651 56.1127 47.959 56.4688 47.976C56.373 47.8596 56.3156 47.7104 56.3158 47.5477Z" fill="#FEFEFE"/>
</g>
</g>
</g>
</g>
</g>
<path d="M63.5565 48.3521C63.3571 48.3516 63.1958 48.1897 63.1963 47.9903L63.2065 42.5586C63.2065 42.4628 63.2449 42.3711 63.3126 42.3034C63.3803 42.2359 63.4718 42.1981 63.5673 42.1981C63.5676 42.1981 65.8661 42.2024 70.4626 42.2113C70.5584 42.2113 70.6501 42.2497 70.7176 42.3174C70.7853 42.3854 70.8231 42.4774 70.8228 42.5729L70.8126 48.0048C70.812 48.204 70.6507 48.3653 70.4515 48.3653C70.4513 48.3653 68.153 48.3608 63.5565 48.3521Z" fill="#F9F6C3"/>
<path fill-rule="evenodd" clip-rule="evenodd" d="M63.5689 41.837L70.4633 41.8503C70.6549 41.8505 70.8384 41.9269 70.9736 42.0626C71.1088 42.1984 71.1846 42.3821 71.1841 42.5737L71.1735 48.0056C71.173 48.4039 70.8497 48.7264 70.4517 48.7264C70.4512 48.7264 70.4506 48.7264 70.4504 48.7264L63.5562 48.7131C63.1571 48.7123 62.8346 48.3885 62.8355 47.9897L62.8457 42.5578C62.846 42.3662 62.9223 42.1827 63.0581 42.0475C63.1933 41.9126 63.3765 41.837 63.5675 41.837C63.5681 41.837 63.5686 41.837 63.5689 41.837ZM63.5573 47.991L70.4517 48.0043L70.462 42.5724L63.5675 42.5591L63.5573 47.991Z" fill="#2E3349"/>
<path d="M64.7065 47.9929L64.7168 42.561L64.7065 47.9929Z" fill="#F9F6C3"/>
<path d="M64.7077 48.2022C64.7074 48.2022 64.7074 48.2022 64.7071 48.2022C64.5916 48.2019 64.4985 48.108 64.4985 47.9928L64.5088 42.5609C64.5091 42.4457 64.6027 42.3523 64.7179 42.3523H64.7182C64.8337 42.3526 64.927 42.4462 64.9268 42.5617L64.9165 47.9936C64.9162 48.1088 64.8226 48.2022 64.7077 48.2022Z" fill="#2E3349"/>
<path d="M69.4185 42.5699L69.4082 48.0019L69.4185 42.5699Z" fill="#F9F6C3"/>
<path d="M69.4079 48.2111C69.4076 48.2111 69.4076 48.2111 69.4073 48.2111C69.2918 48.2108 69.1987 48.1172 69.1987 48.0017L69.2093 42.5698C69.2095 42.4546 69.3029 42.3612 69.4181 42.3612C69.4184 42.3612 69.4184 42.3612 69.4186 42.3612C69.5339 42.3615 69.6272 42.4551 69.6272 42.5706L69.6167 48.0025C69.6164 48.1177 69.5228 48.2111 69.4079 48.2111Z" fill="#2E3349"/>
<g opacity="0.302">
<g opacity="0.302">
<g opacity="0.302">
<g opacity="0.302">
<g opacity="0.302">
<path opacity="0.302" d="M77.502 42.6542L76.9761 43.9316C76.2772 45.6289 74.6649 46.7736 72.8322 46.8734L56.0361 47.7898C56.1565 47.9056 56.3197 47.9773 56.5 47.9776L77.1982 48.0173C77.569 48.0178 77.8701 47.7177 77.8709 47.347L77.8787 43.2581C77.8793 42.9926 77.7255 42.7637 77.502 42.6542Z" fill="#2E3349"/>
</g>
</g>
</g>
</g>
</g>
<path d="M58.9671 54.5055C58.6906 54.505 58.4304 54.3968 58.2351 54.2006C58.04 54.0047 57.9326 53.7443 57.9331 53.4674L57.9409 49.3785C57.9423 48.8083 58.4069 48.3445 58.9769 48.3445L79.677 48.3839C80.2482 48.385 80.7121 48.8507 80.7113 49.422L80.7032 53.5109C80.7023 54.081 80.2374 54.5449 79.6672 54.5449C79.667 54.5449 72.7671 54.532 58.9671 54.5055Z" fill="#1EBC61"/>
<path fill-rule="evenodd" clip-rule="evenodd" d="M58.9794 47.9797L79.6773 48.0194C80.4496 48.0208 81.0767 48.65 81.0751 49.4226L81.0673 53.5115C81.0659 54.2822 80.4377 54.9093 79.6641 54.9093L58.9659 54.8699C58.5919 54.8691 58.2405 54.7228 57.9764 54.4576C57.7125 54.1926 57.5673 53.8407 57.5684 53.4667L57.5759 49.3775C57.5775 48.6068 58.206 47.9797 58.9767 47.9797C58.9772 47.9797 58.9788 47.9797 58.9794 47.9797ZM58.305 49.3789L58.2972 53.468C58.2964 53.8388 58.5967 54.1399 58.9675 54.1408L79.6654 54.1802C79.666 54.1802 79.6665 54.1802 79.6668 54.1802C80.037 54.1802 80.3376 53.8804 80.3382 53.5101L80.3463 49.4212C80.3468 49.0502 80.0467 48.7491 79.676 48.7485L58.9777 48.7088C58.9775 48.7088 58.9769 48.7088 58.9767 48.7088C58.6064 48.7088 58.3058 49.0086 58.305 49.3789Z" fill="#2E3349"/>
<g opacity="0.6">
<g opacity="0.6">
<g opacity="0.6">
<g opacity="0.6">
<g opacity="0.6">
<path opacity="0.6" d="M58.7824 53.7108L58.7902 49.6219C58.791 49.2511 59.0921 48.9511 59.4632 48.9516L80.1611 48.9913C80.1716 48.9913 80.1819 48.9923 80.1921 48.9929C80.0694 48.8439 79.8834 48.7487 79.6751 48.7481L58.9769 48.7087C58.6062 48.7079 58.305 49.008 58.3042 49.379L58.2964 53.4679C58.2958 53.8282 58.5792 54.122 58.9356 54.139C58.8396 54.0227 58.7821 53.8735 58.7824 53.7108Z" fill="#FEFEFE"/>
</g>
</g>
</g>
</g>
</g>
<path d="M73.0323 50.1152C73.4762 50.0812 73.9201 50.0607 74.3642 50.0504C74.8081 50.041 75.252 50.0364 75.6959 50.0407C76.14 50.0437 76.5839 50.0485 77.0278 50.065C77.4717 50.0774 77.9156 50.0949 78.3595 50.1254C78.3819 50.127 78.3989 50.1465 78.3973 50.1686C78.3959 50.1894 78.3795 50.205 78.3595 50.2064C77.9153 50.2352 77.4714 50.2512 77.0275 50.262C76.5834 50.2765 76.1395 50.2795 75.6956 50.2808C75.2517 50.2835 74.8076 50.2773 74.3637 50.2663C73.9198 50.2541 73.4759 50.232 73.032 50.1964C73.0096 50.1945 72.9929 50.1748 72.9948 50.1524C72.9964 50.1322 73.0126 50.1168 73.0323 50.1152Z" fill="#2E3349"/>
<path d="M73.0301 51.5097C73.3433 51.4754 73.6569 51.4546 73.9702 51.4441C74.2837 51.4344 74.597 51.4295 74.9103 51.4338C75.2239 51.436 75.5372 51.4425 75.8504 51.4557C76.1637 51.4681 76.4773 51.4878 76.7906 51.5169C76.813 51.5188 76.8294 51.5388 76.8273 51.5612C76.8254 51.5809 76.8095 51.5963 76.7903 51.5979C76.477 51.626 76.1635 51.6443 75.8502 51.6556C75.5366 51.6678 75.2233 51.6729 74.91 51.674C74.5965 51.6767 74.2832 51.6708 73.9699 51.66C73.6564 51.6484 73.3431 51.6262 73.0298 51.5906C73.0074 51.5882 72.9915 51.5679 72.9939 51.5455C72.9961 51.5264 73.0114 51.5118 73.0301 51.5097Z" fill="#2E3349"/>
<path d="M60.0774 51.3864C60.3605 51.3675 60.6433 51.3573 60.9264 51.3454L61.775 51.3222C62.3409 51.3128 62.9067 51.3087 63.4726 51.3133C64.0384 51.3165 64.604 51.3214 65.1699 51.3381C65.7358 51.3508 66.3016 51.3686 66.8672 51.3994C66.8896 51.4005 66.9069 51.4196 66.9055 51.442C66.9044 51.4628 66.8874 51.4793 66.8672 51.4803C66.3013 51.5089 65.7355 51.5246 65.1696 51.5351C64.6038 51.5497 64.0379 51.5524 63.472 51.5535C62.9062 51.5559 62.3403 51.5494 61.7745 51.5381L60.9258 51.5116C60.643 51.4987 60.3602 51.4873 60.0772 51.4674C60.0548 51.4658 60.038 51.4463 60.0397 51.4239C60.041 51.4034 60.0575 51.3875 60.0774 51.3864Z" fill="#2E3349"/>
<path d="M66.0253 54.5153C65.9295 54.5151 65.838 54.477 65.7703 54.409C65.7028 54.3413 65.6648 54.2493 65.665 54.1535L65.6756 48.7216C65.6758 48.5224 65.8375 48.3613 66.0363 48.3613C66.0366 48.3613 68.3348 48.3656 72.9316 48.3746C73.0274 48.3746 73.1191 48.4129 73.1866 48.4806C73.2541 48.5486 73.2921 48.6406 73.2918 48.7361L73.2816 54.168C73.2811 54.3672 73.1194 54.5283 72.9205 54.5283C72.9203 54.5283 70.622 54.524 66.0253 54.5153Z" fill="#F9F6C3"/>
<path fill-rule="evenodd" clip-rule="evenodd" d="M66.0369 48.0001L72.9314 48.0133C73.123 48.0136 73.3065 48.09 73.4417 48.2257C73.5769 48.3614 73.6524 48.5452 73.6521 48.7368L73.6416 54.1687C73.6411 54.567 73.3178 54.8895 72.9198 54.8895C72.9192 54.8895 72.9187 54.8895 72.9184 54.8895L66.024 54.8762C65.8324 54.876 65.6489 54.7993 65.5137 54.6636C65.3785 54.5281 65.303 54.3444 65.3032 54.1528L65.3138 48.7209C65.3143 48.3226 65.6376 48.0001 66.0356 48.0001C66.0361 48.0001 66.0367 48.0001 66.0369 48.0001ZM66.0253 54.1541L72.9198 54.1674L72.93 48.7354L66.0356 48.7222L66.0253 54.1541Z" fill="#2E3349"/>
<path d="M67.1748 54.1563L67.1853 48.7244L67.1748 54.1563Z" fill="#F9F6C3"/>
<path d="M67.1757 54.3651H67.1754C67.0599 54.3649 66.9665 54.2712 66.9668 54.156L66.977 48.7241C66.9773 48.6086 67.071 48.5155 67.1862 48.5155H67.1865C67.302 48.5158 67.3953 48.6094 67.395 48.7249L67.3848 54.1565C67.3845 54.272 67.2909 54.3651 67.1757 54.3651Z" fill="#2E3349"/>
<path d="M71.8862 48.7333L71.876 54.1652L71.8862 48.7333Z" fill="#F9F6C3"/>
<path d="M71.8756 54.3744C71.8754 54.3744 71.8754 54.3744 71.8751 54.3744C71.7596 54.3742 71.6665 54.2803 71.6665 54.165L71.677 48.7331C71.6773 48.6179 71.7707 48.5245 71.8859 48.5245C71.8862 48.5245 71.8862 48.5245 71.8864 48.5245C72.0016 48.5248 72.095 48.6184 72.095 48.7339L72.0845 54.1658C72.0842 54.2811 71.9906 54.3744 71.8756 54.3744Z" fill="#2E3349"/>
<path d="M59.8706 49.9236C60.2101 49.8891 60.5498 49.8686 60.8893 49.8578C61.2288 49.8483 61.5682 49.8437 61.9077 49.8478C62.2474 49.8499 62.5869 49.8564 62.9263 49.8699C63.2658 49.8823 63.6053 49.902 63.9447 49.9312C63.9669 49.9331 63.9836 49.9528 63.9817 49.9752C63.9798 49.9954 63.9639 50.0108 63.9445 50.0124C63.605 50.0402 63.2653 50.0588 62.9258 50.0699C62.5863 50.0818 62.2469 50.0872 61.9074 50.088C61.568 50.0909 61.2282 50.0847 60.8888 50.0739C60.5493 50.0621 60.2098 50.0402 59.8706 50.0046C59.8482 50.0021 59.8318 49.9822 59.8342 49.9598C59.8364 49.9404 59.8518 49.9252 59.8706 49.9236Z" fill="#2E3349"/>
<path d="M74.3853 52.8763C74.5769 52.8388 74.7685 52.8224 74.96 52.8097C75.1516 52.8 75.3432 52.7948 75.5345 52.7989C75.7261 52.8008 75.9177 52.807 76.109 52.8199C76.3006 52.8329 76.4919 52.8496 76.6835 52.8806C76.7059 52.8841 76.721 52.9052 76.7175 52.9276C76.7145 52.9457 76.7002 52.9589 76.6832 52.9616C76.4917 52.9918 76.3003 53.0077 76.1088 53.0199C75.9172 53.0323 75.7256 53.0377 75.5343 53.039C75.3427 53.0423 75.1511 53.0363 74.9598 53.0258C74.7682 53.0126 74.5766 52.9953 74.3853 52.9573C74.3629 52.9527 74.3483 52.9311 74.3529 52.9087C74.3561 52.8917 74.3694 52.8793 74.3853 52.8763Z" fill="#2E3349"/>
<path d="M61.2234 52.8511C61.3801 52.8138 61.5369 52.7971 61.6934 52.7844C61.8502 52.7747 62.007 52.7696 62.1635 52.7733C62.3203 52.7752 62.477 52.7814 62.6335 52.7944C62.7903 52.8073 62.9468 52.8238 63.1036 52.8548C63.126 52.8592 63.1406 52.8807 63.136 52.9031C63.1327 52.9201 63.1195 52.9326 63.1033 52.9358C62.9465 52.966 62.79 52.9822 62.6333 52.9943C62.4765 53.0068 62.3197 53.0122 62.1632 53.0135C62.0064 53.0167 61.8496 53.0111 61.6931 53.0005C61.5364 52.9873 61.3799 52.9701 61.2231 52.9323C61.2007 52.9266 61.1872 52.9042 61.1926 52.8818C61.1964 52.8662 61.2085 52.8546 61.2234 52.8511Z" fill="#2E3349"/>
<g opacity="0.302">
<g opacity="0.302">
<g opacity="0.302">
<g opacity="0.302">
<g opacity="0.302">
<path opacity="0.302" d="M79.9693 48.8175L79.4434 50.0949C78.7445 51.7922 77.1322 52.9369 75.2994 53.0368L58.5034 53.9529C58.6238 54.0689 58.787 54.1407 58.9673 54.1409L79.6652 54.1803C80.0362 54.1812 80.3374 53.8811 80.3382 53.5103L80.346 49.4214C80.3463 49.1559 80.1925 48.9271 79.9693 48.8175Z" fill="#2E3349"/>
</g>
</g>
</g>
</g>
</g>
<path d="M34.3646 8.808C34.0877 8.80746 33.8279 8.69925 33.6325 8.50308C33.4372 8.3069 33.33 8.04651 33.3306 7.76992L33.3384 3.68101C33.3395 3.11083 33.8041 2.64697 34.3743 2.64697L55.0744 2.68664C55.6457 2.68772 56.1095 3.1532 56.1084 3.72445L56.1006 7.81363C56.0995 8.38354 55.6349 8.84767 55.0644 8.84767C55.0644 8.84767 48.1643 8.83444 34.3646 8.808Z" fill="#1EBC61"/>
<path fill-rule="evenodd" clip-rule="evenodd" d="M34.3768 2.28235L55.075 2.32175C55.847 2.32337 56.4742 2.95291 56.4728 3.72519L56.465 7.8141C56.4636 8.58477 55.8352 9.21189 55.0615 9.21189L34.3636 9.17249C33.9896 9.17168 33.638 9.02543 33.3741 8.76044C33.1099 8.49519 32.965 8.14304 32.9658 7.76904L32.9737 3.6804C32.975 2.90946 33.6032 2.28235 34.3741 2.28235C34.3747 2.28235 34.3763 2.28235 34.3768 2.28235ZM33.7028 3.68175L33.6949 7.77066C33.6941 8.14142 33.9942 8.44257 34.365 8.44338L55.0632 8.48304C55.0634 8.48304 55.064 8.48304 55.0642 8.48304C55.4347 8.48304 55.7353 8.18325 55.7359 7.81276L55.7437 3.72384C55.7445 3.35281 55.4444 3.05167 55.0734 3.05086L34.3755 3.01146C34.3749 3.01146 34.3744 3.01146 34.3741 3.01146C34.0039 3.01146 33.7033 3.31126 33.7028 3.68175Z" fill="#2E3349"/>
<g opacity="0.6">
<g opacity="0.6">
<g opacity="0.6">
<g opacity="0.6">
<g opacity="0.6">
<path opacity="0.6" d="M34.1818 8.01353L34.1896 3.92462C34.1904 3.55386 34.4916 3.25379 34.8623 3.25433L55.5605 3.294C55.5708 3.294 55.581 3.29508 55.5916 3.29562C55.4685 3.14667 55.2826 3.05142 55.0743 3.05088L34.3763 3.01148C34.0053 3.01067 33.7042 3.31073 33.7036 3.68176L33.6958 7.77067C33.695 8.13091 33.9786 8.42477 34.3348 8.44177C34.239 8.32546 34.1815 8.17624 34.1818 8.01353Z" fill="#FEFEFE"/>
</g>
</g>
</g>
</g>
</g>
<path d="M48.4312 4.41785C48.8753 4.38385 49.3192 4.36334 49.7631 4.35282C50.207 4.34365 50.6512 4.33906 51.095 4.34337C51.5389 4.34634 51.9828 4.3512 52.427 4.36766C52.8709 4.38007 53.3148 4.39761 53.7587 4.4281C53.7811 4.42972 53.7978 4.44915 53.7964 4.47128C53.7948 4.49205 53.7784 4.50798 53.7584 4.50906C53.3145 4.53793 52.8706 4.55385 52.4264 4.56464C51.9826 4.57922 51.5387 4.58218 51.0945 4.58353C50.6506 4.58623 50.2067 4.58002 49.7628 4.56896C49.3187 4.55709 48.8748 4.53469 48.4309 4.49907C48.4088 4.49718 48.392 4.47748 48.3937 4.45509C48.3953 4.43512 48.4115 4.41947 48.4312 4.41785Z" fill="#2E3349"/>
<path d="M48.4275 5.81234C48.7411 5.77807 49.0544 5.75729 49.3679 5.7465C49.6812 5.73705 49.9945 5.7322 50.308 5.73651C50.6213 5.73867 50.9346 5.74515 51.2482 5.75837C51.5615 5.77052 51.8748 5.79022 52.188 5.81963C52.2104 5.82179 52.2269 5.84149 52.2247 5.86388C52.2229 5.88358 52.2072 5.89896 52.188 5.90058C51.8745 5.92865 51.5612 5.947 51.2476 5.95833C50.9344 5.97047 50.6208 5.9756 50.3075 5.97668C49.9942 5.97937 49.6807 5.97344 49.3674 5.96264C49.0541 5.95104 48.7408 5.92891 48.4275 5.8933C48.4051 5.89087 48.3889 5.87063 48.3914 5.84823C48.3938 5.82907 48.4092 5.8145 48.4275 5.81234Z" fill="#2E3349"/>
<path d="M35.4749 5.68909C35.758 5.67021 36.041 5.65995 36.3238 5.64808L37.1727 5.62487C37.7383 5.61543 38.3042 5.61138 38.87 5.61597C39.4359 5.61921 40.0018 5.62406 40.5676 5.64079C41.1335 5.65348 41.6991 5.67129 42.2649 5.70205C42.2873 5.70313 42.3043 5.72229 42.3032 5.74468C42.3022 5.76546 42.2852 5.78192 42.2647 5.783C41.6988 5.8116 41.1329 5.82725 40.5671 5.83778C40.0012 5.85235 39.4354 5.85505 38.8698 5.85613C38.3039 5.85855 37.7381 5.85208 37.1722 5.84074L36.3235 5.8143C36.0408 5.80135 35.7577 5.79001 35.4749 5.77005C35.4525 5.76843 35.4355 5.749 35.4371 5.7266C35.4387 5.70609 35.4552 5.69017 35.4749 5.68909Z" fill="#2E3349"/>
<path d="M41.4232 8.81789C41.3274 8.81762 41.2357 8.7793 41.1682 8.71157C41.1005 8.64384 41.0627 8.55182 41.063 8.45603L41.0732 3.02412C41.0738 2.82497 41.2351 2.66388 41.4343 2.66388C41.4346 2.66388 43.7328 2.6682 48.3293 2.6771C48.4251 2.6771 48.5168 2.71542 48.5846 2.78315C48.652 2.85115 48.6901 2.9429 48.6898 3.03869L48.6793 8.4706C48.679 8.66974 48.5174 8.83111 48.3182 8.83111C48.3182 8.83111 46.0197 8.82652 41.4232 8.81789Z" fill="#F9F6C3"/>
<path fill-rule="evenodd" clip-rule="evenodd" d="M41.4363 2.30286L48.3308 2.31608C48.5224 2.31635 48.7059 2.39271 48.8411 2.52844C48.976 2.66417 49.0518 2.84794 49.0515 3.03953L49.041 8.47144C49.0405 8.86973 48.7172 9.19219 48.3189 9.19219C48.3187 9.19219 48.3181 9.19219 48.3176 9.19219L41.4234 9.17896C41.2318 9.17842 41.048 9.10206 40.9128 8.9666C40.7779 8.83087 40.7021 8.64683 40.7026 8.45552L40.7129 3.02361C40.7137 2.62532 41.0367 2.30286 41.435 2.30286C41.4355 2.30286 41.4358 2.30286 41.4363 2.30286ZM41.4245 8.45687L48.3189 8.47009L48.3294 3.03817L41.435 3.02495L41.4245 8.45687Z" fill="#2E3349"/>
<path d="M42.5732 8.45913L42.5835 3.02722L42.5732 8.45913Z" fill="#F9F6C3"/>
<path d="M42.5739 8.66793C42.5736 8.66793 42.5736 8.66793 42.5733 8.66793C42.4581 8.66766 42.3647 8.57402 42.3647 8.45853L42.3753 3.02689C42.3755 2.91166 42.4692 2.8183 42.5841 2.8183C42.5844 2.8183 42.5844 2.8183 42.5847 2.8183C42.7002 2.81857 42.7933 2.9122 42.7933 3.02743L42.7827 8.45934C42.7825 8.57456 42.6891 8.66793 42.5739 8.66793Z" fill="#2E3349"/>
<path d="M47.2837 3.03607L47.2734 8.46798L47.2837 3.03607Z" fill="#F9F6C3"/>
<path d="M47.2733 8.67711H47.273C47.1575 8.67684 47.0642 8.58293 47.0645 8.46771L47.0747 3.0358C47.075 2.92057 47.1686 2.82721 47.2836 2.82721C47.2838 2.82721 47.2838 2.82721 47.2841 2.82721C47.3993 2.82748 47.4927 2.92111 47.4927 3.03661L47.4824 8.46852C47.4822 8.58374 47.3885 8.67711 47.2733 8.67711Z" fill="#2E3349"/>
<path d="M35.2696 4.22602C35.609 4.19175 35.9485 4.17124 36.288 4.16045C36.6277 4.151 36.9672 4.14642 37.3066 4.15046C37.6461 4.15262 37.9855 4.1591 38.325 4.17259C38.6645 4.185 39.0039 4.2047 39.3434 4.23384C39.3658 4.23573 39.3822 4.25543 39.3804 4.27783C39.3787 4.29807 39.3625 4.31345 39.3431 4.31507C39.0037 4.34286 38.6642 4.36148 38.3247 4.37254C37.985 4.38441 37.6455 4.38981 37.3061 4.39062C36.9666 4.39359 36.6272 4.38738 36.2877 4.37659C35.9482 4.36472 35.6088 4.34286 35.2693 4.30724C35.2469 4.30481 35.2307 4.28484 35.2332 4.26244C35.235 4.24275 35.2507 4.22791 35.2696 4.22602Z" fill="#2E3349"/>
<path d="M49.7834 7.17894C49.975 7.14143 50.1666 7.12497 50.3582 7.11228C50.5495 7.10257 50.7411 7.09744 50.9327 7.10149C51.124 7.10338 51.3156 7.10958 51.5072 7.12254C51.6985 7.13549 51.8901 7.15222 52.0817 7.18325C52.1038 7.18676 52.1192 7.20781 52.1154 7.23021C52.1127 7.24829 52.0984 7.26151 52.0814 7.26421C51.8898 7.29443 51.6982 7.31035 51.5066 7.32249C51.3153 7.33491 51.1237 7.3403 50.9321 7.34165C50.7406 7.34489 50.5492 7.33895 50.3576 7.32843C50.1661 7.31521 49.9747 7.29794 49.7831 7.25989C49.7608 7.2553 49.7465 7.23371 49.7508 7.21132C49.7543 7.19432 49.7675 7.18191 49.7834 7.17894Z" fill="#2E3349"/>
<path d="M36.6218 7.15361C36.7786 7.11637 36.9353 7.09964 37.0921 7.08696C37.2489 7.07724 37.4054 7.07211 37.5622 7.07589C37.719 7.07778 37.8755 7.08399 38.0322 7.09694C38.1887 7.10989 38.3455 7.12635 38.502 7.15738C38.5244 7.1617 38.539 7.18329 38.5347 7.20569C38.5312 7.22269 38.5179 7.2351 38.502 7.23834C38.3452 7.26856 38.1885 7.28475 38.0317 7.29689C37.8752 7.3093 37.7184 7.31497 37.5616 7.31605C37.4051 7.31929 37.2483 7.31362 37.0916 7.3031C36.9351 7.28988 36.7783 7.27261 36.6218 7.23483C36.5994 7.22916 36.5856 7.20676 36.591 7.18437C36.5948 7.16872 36.6072 7.15711 36.6218 7.15361Z" fill="#2E3349"/>
<g opacity="0.302">
<g opacity="0.302">
<g opacity="0.302">
<g opacity="0.302">
<g opacity="0.302">
<path opacity="0.302" d="M55.3988 3.04407L54.8416 4.39732C54.1427 6.09462 52.5307 7.23929 50.6976 7.33913L33.6479 8.26928L34.1342 8.63383L55.0342 8.87669L56.0065 8.39071L56.2493 3.53005L55.3988 3.04407Z" fill="#2E3349"/>
</g>
</g>
</g>
</g>
</g>
<path d="M35.4633 0.90491V2.3831C35.4633 2.73444 35.1886 3.02101 34.8419 3.04044C34.8303 3.04125 34.817 3.04124 34.8052 3.04124H26.3227C25.9595 3.04124 25.6646 2.74712 25.6646 2.3831V0.90491C25.6646 0.541163 25.9595 0.246765 26.3227 0.246765H34.8052C35.1681 0.246765 35.4633 0.541163 35.4633 0.90491Z" fill="#F7C714"/>
<path d="M34.7271 0.246765V3.04124H31.0581V0.246765H34.7271Z" fill="#F89E1D"/>
<g opacity="0.549">
<g opacity="0.549">
<g opacity="0.549">
<g opacity="0.549">
<g opacity="0.549">
<path opacity="0.549" d="M28.547 0.246338V3.04082H26.7646V0.246338H28.547Z" fill="#FCE5E5"/>
</g>
</g>
</g>
</g>
</g>
<path fill-rule="evenodd" clip-rule="evenodd" d="M34.8049 3.53331H26.323C25.7563 3.53331 25.2954 3.07242 25.2954 2.50575V1.02756C25.2954 0.46116 25.7563 0 26.323 0H34.8049C35.3716 0 35.8325 0.46116 35.8325 1.02756V2.50575C35.8325 3.07242 35.3716 3.53331 34.8049 3.53331ZM26.323 0.738826C26.1635 0.738826 26.034 0.868351 26.034 1.02756V2.50575C26.034 2.66496 26.1635 2.79475 26.323 2.79475H34.8049C34.9644 2.79475 35.0939 2.66496 35.0939 2.50575V1.02756C35.0939 0.868351 34.9644 0.738826 34.8049 0.738826H26.323Z" fill="#2E3349"/>
<path d="M35.443 6.51609V7.99455C35.443 8.34589 35.1681 8.63219 34.8213 8.65189C34.8097 8.6527 34.7965 8.6527 34.7846 8.6527H26.2976C25.9344 8.6527 25.6392 8.3583 25.6392 7.99455V6.51609C25.6392 6.15234 25.9344 5.85822 26.2976 5.85822H34.7846C35.1478 5.85822 35.443 6.15234 35.443 6.51609Z" fill="#F7C714"/>
<path d="M34.7071 5.85822V8.6527H31.0361V5.85822H34.7071Z" fill="#F89E1D"/>
<g opacity="0.549">
<g opacity="0.549">
<g opacity="0.549">
<g opacity="0.549">
<g opacity="0.549">
<path opacity="0.549" d="M28.5236 5.85797V8.65245H26.7402V5.85797H28.5236Z" fill="#FCE5E5"/>
</g>
</g>
</g>
</g>
</g>
<path fill-rule="evenodd" clip-rule="evenodd" d="M34.7841 9.26335H26.2971C25.7304 9.26335 25.2695 8.80219 25.2695 8.23552V6.7576C25.2695 6.1912 25.7304 5.73004 26.2971 5.73004H34.7841C35.3508 5.73004 35.8117 6.1912 35.8117 6.7576V8.23552C35.8117 8.80219 35.3508 9.26335 34.7841 9.26335ZM26.2971 6.4686C26.1379 6.4686 26.0081 6.59839 26.0081 6.7576V8.23552C26.0081 8.395 26.1379 8.52452 26.2971 8.52452H34.7841C34.9434 8.52452 35.0732 8.395 35.0732 8.23552V6.7576C35.0732 6.59839 34.9434 6.4686 34.7841 6.4686H26.2971Z" fill="#2E3349"/>
<path d="M33.8532 3.72138V5.19957C33.8532 5.5509 33.5785 5.83747 33.232 5.8569C33.2201 5.85771 33.2069 5.85771 33.1953 5.85771H24.7126C24.3496 5.85771 24.0547 5.56332 24.0547 5.19957V3.72138C24.0547 3.35763 24.3496 3.06323 24.7126 3.06323H33.1953C33.5582 3.06323 33.8532 3.35763 33.8532 3.72138Z" fill="#F7C714"/>
<path d="M33.1183 3.06323V5.85771H29.4492V3.06323H33.1183Z" fill="#F89E1D"/>
<g opacity="0.549">
<g opacity="0.549">
<g opacity="0.549">
<g opacity="0.549">
<g opacity="0.549">
<path opacity="0.549" d="M26.9379 3.06299V5.85747H25.1553V3.06299H26.9379Z" fill="#FCE5E5"/>
</g>
</g>
</g>
</g>
</g>
<path fill-rule="evenodd" clip-rule="evenodd" d="M33.1955 6.34983H24.7133C24.1469 6.34983 23.686 5.88894 23.686 5.32228V3.84408C23.686 3.27769 24.1469 2.81653 24.7133 2.81653H33.1955C33.7619 2.81653 34.2228 3.27769 34.2228 3.84408V5.32228C34.2228 5.88894 33.7619 6.34983 33.1955 6.34983ZM24.7133 3.55535C24.5541 3.55535 24.4246 3.68488 24.4246 3.84408V5.32228C24.4246 5.48148 24.5541 5.61128 24.7133 5.61128H33.1955C33.3547 5.61128 33.4843 5.48148 33.4843 5.32228V3.84408C33.4843 3.68488 33.3547 3.55535 33.1955 3.55535H24.7133Z" fill="#2E3349"/>
<path d="M79.2246 27.9562V29.4711C79.2246 29.8311 78.9432 30.1246 78.5881 30.1446C78.5759 30.1454 78.5624 30.1454 78.5506 30.1454H69.8584C69.4863 30.1454 69.1841 29.8437 69.1841 29.4711V27.9562C69.1841 27.5833 69.4863 27.2819 69.8584 27.2819H78.5506C78.9224 27.2819 79.2246 27.5833 79.2246 27.9562Z" fill="#F7C714"/>
<path d="M78.4697 27.2819V30.1454H74.71V27.2819H78.4697Z" fill="#F89E1D"/>
<g opacity="0.549">
<g opacity="0.549">
<g opacity="0.549">
<g opacity="0.549">
<g opacity="0.549">
<path opacity="0.549" d="M72.1376 27.2815V30.145H70.311V27.2815H72.1376Z" fill="#FCE5E5"/>
</g>
</g>
</g>
</g>
</g>
<path fill-rule="evenodd" clip-rule="evenodd" d="M78.5497 30.6495H69.8581C69.2774 30.6495 68.8052 30.1773 68.8052 29.5968V28.0822C68.8052 27.5015 69.2774 27.0293 69.8581 27.0293H78.5497C79.1301 27.0293 79.6024 27.5015 79.6024 28.0822V29.5968C79.6024 30.1773 79.1301 30.6495 78.5497 30.6495ZM69.8581 27.7862C69.6948 27.7862 69.5621 27.919 69.5621 28.0822V29.5968C69.5621 29.7601 69.6948 29.8928 69.8581 29.8928H78.5497C78.713 29.8928 78.8457 29.7601 78.8457 29.5968V28.0822C78.8457 27.919 78.713 27.7862 78.5497 27.7862H69.8581Z" fill="#2E3349"/>
<path d="M78.2554 33.7062V35.2211C78.2554 35.5811 77.9737 35.8746 77.6183 35.8946C77.6064 35.8954 77.5927 35.8954 77.5808 35.8954H68.8841C68.512 35.8954 68.2095 35.5937 68.2095 35.2211V33.7062C68.2095 33.3335 68.512 33.0319 68.8841 33.0319H77.5808C77.9529 33.0319 78.2554 33.3335 78.2554 33.7062Z" fill="#F7C714"/>
<path d="M77.5009 33.0319V35.8954H73.7393V33.0319H77.5009Z" fill="#F89E1D"/>
<g opacity="0.549">
<g opacity="0.549">
<g opacity="0.549">
<g opacity="0.549">
<g opacity="0.549">
<path opacity="0.549" d="M71.1653 33.0316V35.8952H69.3379V33.0316H71.1653Z" fill="#FCE5E5"/>
</g>
</g>
</g>
</g>
</g>
<path fill-rule="evenodd" clip-rule="evenodd" d="M77.5799 36.3998H68.8835C68.3028 36.3998 67.8306 35.9273 67.8306 35.3466V33.8322C67.8306 33.2518 68.3028 32.7793 68.8835 32.7793H77.5799C78.1606 32.7793 78.6331 33.2518 78.6331 33.8322V35.3466C78.6331 35.9273 78.1606 36.3998 77.5799 36.3998ZM68.8835 33.5362C68.7202 33.5362 68.5875 33.669 68.5875 33.8322V35.3466C68.5875 35.5098 68.7202 35.6429 68.8835 35.6429H77.5799C77.7432 35.6429 77.8762 35.5098 77.8762 35.3466V33.8322C77.8762 33.669 77.7432 33.5362 77.5799 33.5362H68.8835Z" fill="#2E3349"/>
<path d="M80.5364 30.8419V32.3571C80.5364 32.717 80.2547 33.0103 79.8996 33.0306C79.8877 33.0314 79.874 33.0314 79.8621 33.0314H71.1699C70.7981 33.0314 70.4956 32.7297 70.4956 32.3571V30.8419C70.4956 30.4693 70.7981 30.1678 71.1699 30.1678H79.8621C80.2339 30.1678 80.5364 30.4693 80.5364 30.8419Z" fill="#F7C714"/>
<path d="M79.7822 30.1678V33.0314H76.0225V30.1678H79.7822Z" fill="#F89E1D"/>
<g opacity="0.549">
<g opacity="0.549">
<g opacity="0.549">
<g opacity="0.549">
<g opacity="0.549">
<path opacity="0.549" d="M73.4493 30.1677V33.031H71.623V30.1677H73.4493Z" fill="#FCE5E5"/>
</g>
</g>
</g>
</g>
</g>
<path fill-rule="evenodd" clip-rule="evenodd" d="M79.8617 33.5356H71.1701C70.5894 33.5356 70.1172 33.0634 70.1172 32.4829V30.9681C70.1172 30.3876 70.5894 29.9154 71.1701 29.9154H79.8617C80.4421 29.9154 80.9146 30.3876 80.9146 30.9681V32.4829C80.9146 33.0634 80.4421 33.5356 79.8617 33.5356ZM71.1701 30.672C71.0068 30.672 70.8741 30.8051 70.8741 30.9681V32.4829C70.8741 32.6459 71.0068 32.779 71.1701 32.779H79.8617C80.025 32.779 80.1577 32.6459 80.1577 32.4829V30.9681C80.1577 30.8051 80.025 30.672 79.8617 30.672H71.1701Z" fill="#2E3349"/>
<path d="M65.5478 35.9054L63.9814 35.3314C63.6093 35.1949 63.4123 34.7925 63.5264 34.4177C63.53 34.405 63.5353 34.391 63.5397 34.3786L66.8339 25.3918C66.975 25.007 67.4014 24.8089 67.7867 24.9501L69.3529 25.5243C69.7385 25.6654 69.9355 26.0923 69.7946 26.4768L66.5004 35.4639C66.3595 35.8484 65.9332 36.0468 65.5478 35.9054Z" fill="#F7C714"/>
<path d="M66.6347 35.0958L63.6743 34.0105L65.0991 30.1234L68.0598 31.2084L66.6347 35.0958Z" fill="#F89E1D"/>
<g opacity="0.549">
<g opacity="0.549">
<g opacity="0.549">
<g opacity="0.549">
<g opacity="0.549">
<path opacity="0.549" d="M68.9307 28.834L65.9702 27.7487L66.6624 25.8606L69.6228 26.9456L68.9307 28.834Z" fill="#FCE5E5"/>
</g>
</g>
</g>
</g>
</g>
<path fill-rule="evenodd" clip-rule="evenodd" d="M65.802 36.2705C65.6811 36.2705 65.5578 36.2495 65.4377 36.2055L63.8715 35.6315C63.6052 35.5339 63.3928 35.3382 63.2733 35.0808C63.154 34.8234 63.1421 34.5349 63.2398 34.2686L66.5338 25.282C66.6315 25.0157 66.8271 24.8033 67.0843 24.6841C67.342 24.5645 67.6304 24.5526 67.8967 24.6503L69.4626 25.2246C70.0126 25.4259 70.2962 26.0373 70.0946 26.5873L66.8007 35.5738C66.6431 36.0034 66.2351 36.2705 65.802 36.2705ZM67.5308 25.2246C67.4701 25.2246 67.4097 25.2375 67.3533 25.2639C67.2505 25.3114 67.1728 25.3959 67.1339 25.5022L63.84 34.4885C63.8011 34.5945 63.8057 34.7095 63.8532 34.812C63.9007 34.9146 63.9854 34.9923 64.0915 35.0314L65.6576 35.6054C65.8765 35.6858 66.1201 35.5727 66.2005 35.3536L69.4945 26.3673C69.5746 26.1485 69.4618 25.9048 69.2427 25.8247L67.6768 25.2505C67.6293 25.2329 67.58 25.2246 67.5308 25.2246ZM63.5399 34.3784H63.5412H63.5399Z" fill="#2E3349"/>
<path d="M62.9516 48.4602C62.9516 51.8618 60.1938 54.6196 56.7922 54.6196C55.7922 54.6196 54.848 54.381 54.0129 53.9582C53.3928 53.6441 52.8334 53.228 52.3552 52.7323C52.1237 52.493 51.9127 52.2336 51.7232 51.9589C51.0597 51.001 50.6622 49.8469 50.635 48.6005C50.6339 48.5533 50.6328 48.5074 50.6328 48.4602C50.6328 45.0575 53.3906 42.2997 56.7922 42.2997C57.1495 42.2997 57.4989 42.3302 57.8395 42.389C59.0505 42.5962 60.141 43.1564 60.9996 43.9603C61.243 44.1891 61.4678 44.4363 61.672 44.7002C62.0911 45.2431 62.4208 45.8565 62.6397 46.5208C62.8429 47.1304 62.9516 47.7829 62.9516 48.4602Z" fill="#F7C714"/>
<g opacity="0.549">
<g opacity="0.549">
<g opacity="0.549">
<g opacity="0.549">
<g opacity="0.549">
<path opacity="0.549" d="M62.9516 48.4602C62.9516 48.6143 62.946 48.7673 62.9352 48.9184C62.7015 45.7307 60.0398 43.2163 56.7922 43.2163C53.5447 43.2163 50.8832 45.7307 50.6495 48.9184C50.6387 48.7673 50.6328 48.6143 50.6328 48.4602C50.6328 45.0575 53.3906 42.2997 56.7922 42.2997C60.1938 42.2997 62.9516 45.0575 62.9516 48.4602Z" fill="white"/>
</g>
</g>
</g>
</g>
</g>
<path d="M62.9516 48.4602C62.9516 51.8618 60.1938 54.6196 56.7922 54.6196C53.3906 54.6196 50.6328 51.8618 50.6328 48.4602C50.6328 48.1658 50.6536 47.8763 50.6938 47.5927C51.1148 50.5838 53.6853 52.8853 56.7922 52.8853C59.8994 52.8853 62.47 50.5838 62.8909 47.5927C62.9311 47.8763 62.9516 48.1658 62.9516 48.4602Z" fill="#F89E1D"/>
<path d="M56.7914 52.7549C54.4233 52.7549 52.4966 50.828 52.4966 48.4599C52.4966 46.0915 54.4233 44.1648 56.7914 44.1648C59.1598 44.1648 61.0864 46.0915 61.0864 48.4599C61.0864 50.828 59.1598 52.7549 56.7914 52.7549Z" fill="#F9DD6A"/>
<g opacity="0.549">
<g opacity="0.549">
<g opacity="0.549">
<g opacity="0.549">
<g opacity="0.549">
<path opacity="0.549" d="M61.0859 48.4602C61.0859 48.5759 61.081 48.6909 61.0721 48.8037C60.8965 46.5956 59.0435 44.8516 56.7911 44.8516C54.5387 44.8516 52.686 46.5956 52.5103 48.8037C52.5014 48.6909 52.4966 48.5759 52.4966 48.4602C52.4966 46.092 54.423 44.1646 56.7911 44.1646C59.1595 44.1646 61.0859 46.092 61.0859 48.4602Z" fill="white"/>
</g>
</g>
</g>
</g>
</g>
<path d="M58.3261 49.4016C58.3261 49.965 57.9994 50.4645 57.3153 50.6776V51.3617H56.4437V50.7845C55.961 50.7726 55.4966 50.6472 55.2583 50.5147L55.4634 49.6803C55.7351 49.8187 56.1523 49.9582 56.5832 49.9582C57.0474 49.9582 57.2918 49.7658 57.2918 49.4744C57.2918 49.1965 57.0797 49.0375 56.543 48.8451C55.801 48.5872 55.3171 48.1759 55.3171 47.5262C55.3171 46.9117 55.7313 46.4141 56.4437 46.2444V45.5585H57.3153V46.1964C57.6666 46.2277 57.9384 46.3132 58.1464 46.4063L57.9219 47.2221C57.7433 47.1357 57.4243 47.01 56.9874 47.01C56.5498 47.01 56.3377 47.2083 56.3377 47.4409C56.3377 47.7253 56.59 47.8511 57.1661 48.0699C57.9551 48.3613 58.3261 48.7726 58.3261 49.4016Z" fill="#2E3349"/>
<g opacity="0.271">
<g opacity="0.271">
<g opacity="0.271">
<g opacity="0.271">
<g opacity="0.271">
<path opacity="0.271" d="M60.9994 43.9602L51.723 51.9589C51.0595 51.0009 50.662 49.8468 50.6348 48.6004L57.8393 42.3889C59.0503 42.5962 60.1407 43.1563 60.9994 43.9602Z" fill="#FCE5E5"/>
</g>
</g>
</g>
</g>
</g>
<g opacity="0.271">
<g opacity="0.271">
<g opacity="0.271">
<g opacity="0.271">
<g opacity="0.271">
<path opacity="0.271" d="M62.3956 45.8996L53.7463 53.7615C53.126 53.4474 52.8327 53.228 52.3545 52.7323L61.6713 44.7002C62.0904 45.2431 62.1765 45.2353 62.3956 45.8996Z" fill="#FCE5E5"/>
</g>
</g>
</g>
</g>
</g>
<path fill-rule="evenodd" clip-rule="evenodd" d="M56.7919 53.0495C54.261 53.0495 52.2021 50.9906 52.2021 48.46C52.2021 45.9291 54.261 43.8702 56.7919 43.8702C59.3225 43.8702 61.3811 45.9291 61.3811 48.46C61.3811 50.9906 59.3225 53.0495 56.7919 53.0495ZM56.7919 44.4593C54.5859 44.4593 52.7912 46.254 52.7912 48.46C52.7912 50.6657 54.5859 52.4604 56.7919 52.4604C58.9976 52.4604 60.7923 50.6657 60.7923 48.46C60.7923 46.254 58.9976 44.4593 56.7919 44.4593Z" fill="#2E3349"/>
<path fill-rule="evenodd" clip-rule="evenodd" d="M56.7921 55C55.754 55 54.7613 54.7637 53.8406 54.2974C53.1862 53.966 52.5942 53.5283 52.0812 52.9965C51.8384 52.7455 51.6122 52.4689 51.4096 52.1748C50.6821 51.1243 50.2824 49.8908 50.2541 48.6088C50.253 48.5589 50.252 48.5101 50.252 48.4601C50.252 44.8534 53.1859 41.9192 56.7921 41.9192C57.1658 41.9192 57.5398 41.9513 57.9039 42.0142C59.1627 42.2292 60.3233 42.8064 61.2593 43.6826C61.5176 43.9252 61.7572 44.1891 61.9725 44.4676C62.4251 45.0537 62.771 45.7043 63.0006 46.4018C63.2203 47.0605 63.3317 47.7534 63.3317 48.4601C63.3317 52.0663 60.398 55 56.7921 55ZM56.7921 42.6801C53.6055 42.6801 51.0132 45.273 51.0132 48.4601C51.0132 48.5044 51.014 48.5476 51.0148 48.5918C51.0399 49.7249 51.3928 50.814 52.0356 51.7422C52.2151 52.0026 52.4145 52.2466 52.6285 52.4678C53.0826 52.9387 53.6058 53.3257 54.1846 53.6187C54.9974 54.0302 55.8746 54.2391 56.7921 54.2391C59.9784 54.2391 62.5708 51.6467 62.5708 48.4601C62.5708 47.8355 62.4723 47.2235 62.2785 46.6411C62.0753 46.0246 61.7699 45.4501 61.3705 44.9328C61.1797 44.6861 60.9671 44.4522 60.7388 44.2374C59.9123 43.464 58.8872 42.9543 57.7749 42.7641C57.4529 42.7085 57.1224 42.6801 56.7921 42.6801Z" fill="#2E3349"/>
<g opacity="0.6">
<g opacity="0.6">
<g opacity="0.6">
<g opacity="0.6">
<g opacity="0.6">
<path opacity="0.6" d="M53.4126 9.24939H18.1991C16.2122 9.24939 14.6016 10.8601 14.6016 12.8469V15.6017V21.5895V46.7574C14.6016 48.208 15.4607 49.4574 16.6977 50.0265C15.8342 49.3694 15.2762 48.3311 15.2762 47.1621V21.025C15.6534 20.4713 15.8973 19.5892 15.8973 18.5956C15.8973 17.6021 15.6534 16.72 15.2762 16.166V13.2517C15.2762 11.2648 16.8869 9.65415 18.8737 9.65415H54.0872C54.6231 9.65415 55.1315 9.77234 55.5886 9.98255C54.9842 9.52274 54.2305 9.24939 53.4126 9.24939Z" fill="white"/>
</g>
</g>
</g>
</g>
</g>
</svg>
