<svg width="70" height="55" viewBox="0 0 70 55" fill="none" xmlns="http://www.w3.org/2000/svg">
<g opacity="0.302">
<path opacity="0.302" fill-rule="evenodd" clip-rule="evenodd" d="M43.1145 2.92508C41.2099 3.59834 39.4361 4.57596 37.8414 5.83179C35.5278 7.6535 33.6783 10.0155 32.4564 12.6679C30.514 11.9012 28.4285 11.5039 26.2958 11.5039C17.0832 11.5039 9.58829 18.9988 9.58829 28.2114C9.58829 28.3566 9.58996 28.5018 9.59386 28.6465C7.29976 29.3348 5.21543 30.6318 3.56009 32.4296C1.26488 34.9217 0.000701904 38.1579 0.000701904 41.5403C0.000701904 48.9618 6.03837 55 13.4598 55H54.284C61.7055 55 67.7432 48.9618 67.7432 41.5403C67.7432 39.1433 67.1061 36.7891 65.9009 34.7326C65.291 33.6915 64.5438 32.7395 63.6852 31.9021C66.2915 28.6459 67.7432 24.5797 67.7432 20.3592C67.7432 10.1668 59.4515 1.87512 49.2596 1.87512C47.1541 1.87512 45.087 2.22845 43.1145 2.92508ZM65.0646 20.3592C65.0646 25.0749 62.9875 29.3147 59.7013 32.2131C62.9196 34.0821 65.0646 37.5653 65.0646 41.5403C65.0646 47.4851 60.2282 52.3214 54.284 52.3214H13.4598C7.51509 52.3214 2.67929 47.4851 2.67929 41.5403C2.67929 35.9177 7.00709 31.2861 12.5061 30.8015C12.347 29.9502 12.2669 29.0827 12.2669 28.2114C12.2669 20.4761 18.5599 14.183 26.2958 14.183C29.079 14.183 31.7153 14.9832 33.947 16.4365C35.6964 9.61263 41.8982 4.5537 49.2596 4.5537C57.9742 4.5537 65.0646 11.6441 65.0646 20.3592Z" fill="#2E3349"/>
</g>
<path d="M36.4003 18.4842C36.4003 26.7692 43.1168 33.4857 51.4018 33.4857C59.6868 33.4857 66.4033 26.7692 66.4033 18.4842C66.4033 10.1986 59.6868 3.48267 51.4018 3.48267C43.1168 3.48267 36.4003 10.1986 36.4003 18.4842Z" fill="#FFC107"/>
<path fill-rule="evenodd" clip-rule="evenodd" d="M51.4021 34.2892C60.1172 34.2892 67.207 27.1988 67.207 18.4842C67.207 9.76905 60.1172 2.67865 51.4021 2.67865C42.6869 2.67865 35.5971 9.76905 35.5971 18.4842C35.5971 27.1988 42.6869 34.2892 51.4021 34.2892ZM51.4021 4.28613C59.2308 4.28613 65.6001 10.6554 65.6001 18.4842C65.6001 26.313 59.2308 32.6822 51.4021 32.6822C43.5733 32.6822 37.204 26.313 37.204 18.4842C37.204 10.6554 43.5733 4.28613 51.4021 4.28613Z" fill="#2E3349"/>
<g opacity="0.149">
<path opacity="0.149" d="M51.4021 33.4856C43.117 33.4856 36.4005 26.7691 36.4005 18.4841C36.4005 16.5372 36.7717 14.6771 37.4461 12.9706C38.8121 13.9326 40.0122 15.1473 40.9832 16.58C42.6224 15.8116 44.428 15.4088 46.2491 15.4088C52.8443 15.4088 58.2538 20.5818 58.6321 27.0841C60.0872 27.2538 61.4476 27.7117 62.6611 28.3961C59.9124 31.5165 55.8873 33.4856 51.4021 33.4856Z" fill="#2E3349"/>
</g>
<path d="M15.602 29.6881H15.6421C15.3622 28.6176 15.2131 27.4947 15.2131 26.3363C15.2131 19.0322 21.1339 13.1114 28.438 13.1114C33.2398 13.1114 37.4436 15.6709 39.7605 19.4996C41.4097 18.5993 43.3004 18.0874 45.3113 18.0874C51.7184 18.0874 56.912 23.2816 56.912 29.6881C56.912 29.6926 56.912 29.6965 56.912 29.7004C62.1963 29.9541 66.4033 34.318 66.4033 39.6652C66.4033 45.1754 61.9364 49.6423 56.4262 49.6423H15.602C10.0919 49.6423 5.62495 45.1754 5.62495 39.6652C5.62495 34.155 10.0919 29.6881 15.602 29.6881Z" fill="white"/>
<path fill-rule="evenodd" clip-rule="evenodd" d="M15.6023 50.4458H56.4265C62.3712 50.4458 67.207 45.61 67.207 39.6653C67.207 34.154 63.0851 29.5875 57.694 28.9587C57.3101 22.4514 51.9028 17.284 45.3115 17.284C43.4904 17.284 41.6848 17.6874 40.0456 18.4553C37.4271 14.5921 33.1416 12.308 28.4382 12.308C20.7029 12.308 14.4093 18.601 14.4093 26.3363C14.4093 27.2077 14.49 28.0751 14.6491 28.9264C9.14954 29.4111 4.82174 34.0421 4.82174 39.6653C4.82174 45.61 9.6581 50.4458 15.6023 50.4458ZM45.3115 18.8909C51.2652 18.8909 56.1088 23.7345 56.1088 29.6882C56.1088 30.1172 56.4454 30.4827 56.8738 30.5033C61.767 30.7381 65.6001 34.7621 65.6001 39.6653C65.6001 44.7236 61.4849 48.8389 56.4265 48.8389H15.6023C10.5439 48.8389 6.42921 44.7236 6.42921 39.6653C6.42921 34.6074 10.5439 30.4922 15.6023 30.4922H15.6423C15.8911 30.4922 16.1259 30.3765 16.2783 30.1795C16.4302 29.9825 16.4825 29.726 16.4197 29.4851C16.1526 28.4618 16.0168 27.4024 16.0168 26.3363C16.0168 19.4874 21.5888 13.9149 28.4382 13.9149C32.8239 13.9149 36.7995 16.1584 39.0736 19.9159C39.2961 20.2836 39.7685 20.4111 40.1458 20.2052C41.7204 19.3455 43.5065 18.8909 45.3115 18.8909Z" fill="#2E3349"/>
<g opacity="0.2">
<path opacity="0.2" d="M5.62499 39.6652C5.62499 34.155 10.0919 29.6881 15.6021 29.6881H15.6421C15.3623 28.6176 15.2131 27.4947 15.2131 26.3363C15.2131 25.9206 15.2332 25.5095 15.2704 25.1033L16.1429 29.8673C14.6562 43.7065 30.0722 49.6384 62.3916 47.6631C60.6083 49.3324 59.0615 49.6423 56.4263 49.6423H15.6021C10.0919 49.6423 5.62499 45.1754 5.62499 39.6652Z" fill="#2E3349"/>
</g>
<g opacity="0.6">
<path opacity="0.6" d="M51.4016 4.28607C51.5713 4.28607 51.7399 4.28997 51.9085 4.29609C56.0365 4.44187 59.7216 6.35761 62.2255 9.30716C64.3288 11.7838 65.5996 14.9882 65.5996 18.4841C65.5996 22.1776 64.1813 25.5456 61.8616 28.0739C63.567 25.7314 64.5747 22.8498 64.5747 19.7366C64.5747 15.6609 62.8476 11.9807 60.0872 9.38896C59.0617 9.26432 57.8788 8.94828 56.6703 8.44138C54.8652 7.68521 53.4024 6.67254 52.594 5.71216C51.8712 5.59866 51.1306 5.53856 50.3766 5.53856C46.2414 5.53856 42.5139 7.31631 39.9166 10.1468C42.5 6.59798 46.6859 4.28607 51.4016 4.28607Z" fill="white"/>
</g>
<path fill-rule="evenodd" clip-rule="evenodd" d="M45.2571 1.04996C43.3525 1.72322 41.5781 2.70084 39.9834 3.95667C37.6698 5.77893 35.8203 8.14036 34.5984 10.7928C32.656 10.026 30.5705 9.62877 28.4378 9.62877C19.2252 9.62877 11.7303 17.1237 11.7303 26.3363C11.7303 26.4815 11.7325 26.6267 11.7364 26.7719C9.44177 27.4597 7.358 28.7567 5.7021 30.5544C3.40689 33.0466 2.14272 36.2827 2.14272 39.6652C2.14272 47.0867 8.18038 53.1249 15.6018 53.1249H56.4261C63.8475 53.1249 69.8857 47.0867 69.8857 39.6652C69.8857 37.2682 69.2486 34.914 68.0429 32.8574C67.4331 31.8164 66.6858 30.8644 65.8272 30.027C68.4335 26.7708 69.8857 22.7045 69.8857 18.4841C69.8857 8.29171 61.5935 0 51.4016 0C49.2961 0 47.2291 0.353325 45.2571 1.04996ZM67.2066 18.4841C67.2066 23.2003 65.1301 27.4396 61.8433 30.338C65.0622 32.207 67.2066 35.6902 67.2066 39.6652C67.2066 45.6099 62.3708 50.4463 56.4261 50.4463H15.6018C9.65767 50.4463 4.8213 45.6099 4.8213 39.6652C4.8213 34.0426 9.1491 29.411 14.6487 28.9264C14.4896 28.0751 14.4095 27.2076 14.4095 26.3363C14.4095 18.601 20.7025 12.3079 28.4378 12.3079C31.221 12.3079 33.8578 13.108 36.0896 14.5614C37.8384 7.73752 44.0402 2.67858 51.4016 2.67858C60.1168 2.67858 67.2066 9.76899 67.2066 18.4841Z" fill="white"/>
</svg>
