<svg width="70" height="55" viewBox="0 0 70 55" fill="none" xmlns="http://www.w3.org/2000/svg">
<g opacity="0.302">
<path opacity="0.302" fill-rule="evenodd" clip-rule="evenodd" d="M26.7712 2.92508C28.6758 3.59834 30.4497 4.57596 32.0443 5.83179C34.3579 7.6535 36.2074 10.0155 37.4293 12.6679C39.3718 11.9012 41.4572 11.5039 43.59 11.5039C52.8025 11.5039 60.2974 18.9988 60.2974 28.2114C60.2974 28.3566 60.2958 28.5018 60.2919 28.6465C62.586 29.3348 64.6703 30.6318 66.3257 32.4296C68.6209 34.9217 69.885 38.1579 69.885 41.5403C69.885 48.9618 63.8474 55 56.4259 55H15.6017C8.18024 55 2.14258 48.9618 2.14258 41.5403C2.14258 39.1433 2.77967 36.7891 3.98487 34.7326C4.5947 33.6915 5.34197 32.7395 6.20052 31.9021C3.59427 28.6459 2.14258 24.5797 2.14258 20.3592C2.14258 10.1668 10.4343 1.87512 20.6261 1.87512C22.7316 1.87512 24.7987 2.22845 26.7712 2.92508ZM4.82116 20.3592C4.82116 25.0749 6.89826 29.3147 10.1845 32.2131C6.96614 34.0821 4.82116 37.5653 4.82116 41.5403C4.82116 47.4851 9.65753 52.3214 15.6017 52.3214H56.4259C62.3706 52.3214 67.2065 47.4851 67.2065 41.5403C67.2065 35.9177 62.8787 31.2861 57.3796 30.8015C57.5387 29.9502 57.6189 29.0827 57.6189 28.2114C57.6189 20.4761 51.3258 14.183 43.59 14.183C40.8068 14.183 38.1705 14.9832 35.9387 16.4365C34.1893 9.61263 27.9875 4.5537 20.6261 4.5537C11.9116 4.5537 4.82116 11.6441 4.82116 20.3592Z" fill="#2E3349"/>
</g>
<path d="M33.4855 18.4842C33.4855 26.7692 26.769 33.4857 18.4839 33.4857C10.1989 33.4857 3.48242 26.7692 3.48242 18.4842C3.48242 10.1986 10.1989 3.48267 18.4839 3.48267C26.769 3.48267 33.4855 10.1986 33.4855 18.4842Z" fill="#FFC107"/>
<path fill-rule="evenodd" clip-rule="evenodd" d="M18.4837 34.2892C9.76856 34.2892 2.67871 27.1988 2.67871 18.4842C2.67871 9.76905 9.76856 2.67865 18.4837 2.67865C27.1988 2.67865 34.2887 9.76905 34.2887 18.4842C34.2887 27.1988 27.1988 34.2892 18.4837 34.2892ZM18.4837 4.28613C10.6549 4.28613 4.28564 10.6554 4.28564 18.4842C4.28564 26.313 10.6549 32.6822 18.4837 32.6822C26.3125 32.6822 32.6817 26.313 32.6817 18.4842C32.6817 10.6554 26.3125 4.28613 18.4837 4.28613Z" fill="#2E3349"/>
<g opacity="0.149">
<path opacity="0.149" d="M18.4837 33.4856C26.7687 33.4856 33.4852 26.7691 33.4852 18.4841C33.4852 16.5372 33.1141 14.6771 32.4397 12.9706C31.0737 13.9326 29.8735 15.1473 28.9026 16.58C27.2634 15.8116 25.4578 15.4088 23.6366 15.4088C17.0414 15.4088 11.632 20.5818 11.2536 27.0841C9.79859 27.2538 8.43815 27.7117 7.22461 28.3961C9.9733 31.5165 13.9984 33.4856 18.4837 33.4856Z" fill="#2E3349"/>
</g>
<path d="M54.2837 29.6881H54.2436C54.5235 28.6176 54.6726 27.4947 54.6726 26.3363C54.6726 19.0322 48.7518 13.1114 41.4478 13.1114C36.6459 13.1114 32.4422 15.6709 30.1253 19.4996C28.476 18.5993 26.5853 18.0874 24.5745 18.0874C18.1673 18.0874 12.9738 23.2816 12.9738 29.6881C12.9738 29.6926 12.9738 29.6965 12.9738 29.7004C7.68948 29.9541 3.48242 34.318 3.48242 39.6652C3.48242 45.1754 7.94933 49.6423 13.4595 49.6423H54.2837C59.7939 49.6423 64.2608 45.1754 64.2608 39.6652C64.2608 34.155 59.7939 29.6881 54.2837 29.6881Z" fill="white"/>
<path fill-rule="evenodd" clip-rule="evenodd" d="M54.2835 50.4458H13.4593C7.51452 50.4458 2.67871 45.61 2.67871 39.6653C2.67871 34.154 6.80064 29.5875 12.1917 28.9587C12.5757 22.4514 17.9829 17.284 24.5742 17.284C26.3954 17.284 28.2009 17.6874 29.8401 18.4553C32.4586 14.5921 36.7441 12.308 41.4475 12.308C49.1828 12.308 55.4764 18.601 55.4764 26.3363C55.4764 27.2077 55.3957 28.0751 55.2366 28.9264C60.7362 29.4111 65.064 34.0421 65.064 39.6653C65.064 45.61 60.2276 50.4458 54.2835 50.4458ZM24.5742 18.8909C18.6206 18.8909 13.777 23.7345 13.777 29.6882C13.777 30.1172 13.4403 30.4827 13.0119 30.5033C8.11879 30.7381 4.28564 34.7621 4.28564 39.6653C4.28564 44.7236 8.40089 48.8389 13.4593 48.8389H54.2835C59.3418 48.8389 63.4565 44.7236 63.4565 39.6653C63.4565 34.6074 59.3418 30.4922 54.2835 30.4922H54.2434C53.9947 30.4922 53.7599 30.3765 53.6074 30.1795C53.4555 29.9825 53.4032 29.726 53.4661 29.4851C53.7332 28.4618 53.8689 27.4024 53.8689 26.3363C53.8689 19.4874 48.297 13.9149 41.4475 13.9149C37.0618 13.9149 33.0863 16.1584 30.8122 19.9159C30.5896 20.2836 30.1172 20.4111 29.74 20.2052C28.1653 19.3455 26.3792 18.8909 24.5742 18.8909Z" fill="#2E3349"/>
<g opacity="0.2">
<path opacity="0.2" d="M64.2608 39.6652C64.2608 34.155 59.7938 29.6881 54.2837 29.6881H54.2436C54.5235 28.6176 54.6726 27.4947 54.6726 26.3363C54.6726 25.9206 54.6526 25.5095 54.6153 25.1033L53.7428 29.8673C55.2296 43.7065 39.8135 49.6384 7.49414 47.6631C9.27745 49.3324 10.8243 49.6423 13.4595 49.6423H54.2837C59.7938 49.6423 64.2608 45.1754 64.2608 39.6652Z" fill="#2E3349"/>
</g>
<g opacity="0.6">
<path opacity="0.6" d="M18.4842 4.28607C18.3145 4.28607 18.1459 4.28997 17.9773 4.29609C13.8492 4.44187 10.1641 6.35761 7.66024 9.30716C5.55699 11.7838 4.28613 14.9882 4.28613 18.4841C4.28613 22.1776 5.70444 25.5456 8.02413 28.0739C6.31872 25.7314 5.31105 22.8498 5.31105 19.7366C5.31105 15.6609 7.03816 11.9807 9.79854 9.38896C10.824 9.26432 12.007 8.94828 13.2155 8.44138C15.0205 7.68521 16.4833 6.67254 17.2918 5.71216C18.0146 5.59866 18.7552 5.53856 19.5091 5.53856C23.6444 5.53856 27.3718 7.31631 29.9692 10.1468C27.3857 6.59798 23.1998 4.28607 18.4842 4.28607Z" fill="white"/>
</g>
<path fill-rule="evenodd" clip-rule="evenodd" d="M24.6286 1.04996C26.5332 1.72322 28.3076 2.70084 29.9023 3.95667C32.2159 5.77893 34.0654 8.14036 35.2873 10.7928C37.2298 10.026 39.3152 9.62877 41.4479 9.62877C50.6605 9.62877 58.1554 17.1237 58.1554 26.3363C58.1554 26.4815 58.1532 26.6267 58.1493 26.7719C60.444 27.4597 62.5277 28.7567 64.1836 30.5544C66.4789 33.0466 67.743 36.2827 67.743 39.6652C67.743 47.0867 61.7054 53.1249 54.2839 53.1249H13.4597C6.03822 53.1249 0 47.0867 0 39.6652C0 37.2682 0.637095 34.914 1.84285 32.8574C2.45268 31.8164 3.19995 30.8644 4.05849 30.027C1.45224 26.7708 0 22.7045 0 18.4841C0 8.29171 8.29226 0 18.4841 0C20.5896 0 22.6567 0.353325 24.6286 1.04996ZM2.67914 18.4841C2.67914 23.2003 4.75568 27.4396 8.04243 30.338C4.82357 32.207 2.67914 35.6902 2.67914 39.6652C2.67914 45.6099 7.51495 50.4463 13.4597 50.4463H54.2839C60.2281 50.4463 65.0644 45.6099 65.0644 39.6652C65.0644 34.0426 60.7366 29.411 55.237 28.9264C55.3962 28.0751 55.4763 27.2076 55.4763 26.3363C55.4763 18.601 49.1832 12.3079 41.4479 12.3079C38.6648 12.3079 36.0279 13.108 33.7961 14.5614C32.0473 7.73752 25.8455 2.67858 18.4841 2.67858C9.76898 2.67858 2.67914 9.76899 2.67914 18.4841Z" fill="white"/>
</svg>
