<svg width="69" height="57" viewBox="0 0 69 57" fill="none" xmlns="http://www.w3.org/2000/svg">
<path d="M1.46304 30.3987C2.1302 33.0579 3.12336 35.6121 4.40666 38.0067C6.77189 42.4282 10.1256 46.3035 14.2447 49.2858C17.7997 51.8618 21.9263 53.7716 26.483 54.7902C44.4184 58.8092 62.215 47.5234 66.2321 29.5889C68.4621 19.628 65.9722 9.70586 60.2419 2.16692C59.1722 0.757016 56.9232 1.42514 56.8145 3.1922C56.7757 3.78848 56.7228 4.38759 56.6538 4.9867C56.5187 6.13484 56.324 7.28863 56.067 8.43865C55.5208 10.8748 54.7223 13.1871 53.7036 15.3539C53.5203 15.7404 53.3323 16.1212 53.1367 16.4992C52.6576 17.4234 52.1397 18.3183 51.5822 19.1829C51.1796 19.8094 50.7572 20.419 50.3159 21.0124C50.1024 21.3006 49.8832 21.5851 49.6602 21.8648C49.1026 22.5669 48.5168 23.2444 47.9054 23.8955C47.5727 24.2527 47.2316 24.6014 46.8829 24.9416C46.6381 25.1806 46.3906 25.416 46.1373 25.6475C45.2103 26.5008 44.236 27.3002 43.2211 28.0411C43.1276 28.11 43.0331 28.1771 42.9395 28.2442C42.3716 28.6496 41.7914 29.038 41.1998 29.4056C41.0619 29.4915 40.9249 29.5757 40.786 29.6598C40.1954 30.0179 39.5925 30.3553 38.982 30.6746C38.6513 30.8485 38.3177 31.0158 37.9804 31.1764C37.9095 31.2114 37.8386 31.2454 37.7668 31.2785C37.7167 31.3021 37.6676 31.3257 37.6165 31.3493C37.5079 31.4004 37.3983 31.4495 37.2896 31.4986C36.7094 31.7614 36.1216 32.008 35.5272 32.2367C35.3486 32.3066 35.1691 32.3727 34.9886 32.4379C34.7948 32.5088 34.6002 32.5787 34.4046 32.6459C33.8915 32.8226 33.3699 32.9879 32.8473 33.1391C32.0327 33.3782 31.2077 33.5823 30.3743 33.7571C29.5191 33.9348 28.6554 34.0803 27.7841 34.1899C26.6275 34.3373 25.4567 34.4233 24.2783 34.4469C23.1718 34.4687 22.0548 34.4356 20.9331 34.343C20.7045 34.3251 20.4749 34.3043 20.2452 34.2806C19.7519 34.2306 19.2568 34.1701 18.7625 34.0964C17.9489 33.9764 17.1334 33.827 16.317 33.6437C16.2631 33.6314 16.2093 33.6201 16.1563 33.6059C13.8261 33.073 11.6082 32.3066 9.52455 31.3361C7.71589 30.4961 6.00737 29.5029 4.41131 28.3774C2.97218 27.3616 1.03402 28.6884 1.46304 30.3987Z" fill="#FFC107"/>
<g opacity="0.35">
<path opacity="0.35" d="M62.3912 5.36408C66.1792 12.2292 67.5731 20.4513 65.7255 28.7037C61.7091 46.6376 43.9114 57.9224 25.9776 53.906C21.4206 52.8862 17.2936 50.9755 13.7386 48.3997C11.1691 46.5403 8.89888 44.3309 6.97946 41.8595C7.9605 42.7707 8.99958 43.6253 10.0929 44.4171C13.6489 46.9931 17.7748 48.9036 22.3328 49.9236C33.0308 52.3199 43.6812 49.2701 51.3847 42.6119C50.965 42.4689 50.5786 42.251 50.2389 41.9583C50.3002 42.0107 50.3628 42.0613 50.427 42.1091C50.5786 41.9827 50.7294 41.8555 50.8787 41.7264C50.3724 41.5539 49.9136 41.2742 49.5282 40.8834C49.4301 40.7838 49.3401 40.6782 49.2554 40.5687C49.2555 40.5692 49.2558 40.5696 49.256 40.5701C48.4596 38.595 49.1601 35.7695 51.1516 33.6067C53.5952 30.9523 57.059 30.3022 58.8861 32.1554C59.0199 32.291 59.1409 32.4356 59.2491 32.5893C60.493 30.1496 61.4542 27.5161 62.0798 24.7211C63.9252 16.4785 62.5397 8.26555 58.7625 1.40625C59.3056 1.41526 59.8527 1.65245 60.2436 2.16697C61.7902 4.20257 63.0984 6.4129 64.1437 8.74962C63.6238 7.58773 63.0385 6.45727 62.3912 5.36408Z" fill="#6E3C1B"/>
</g>
<g opacity="0.35">
<path opacity="0.35" d="M17.0282 37.7023C19.0983 37.6777 20.8059 39.0892 20.8422 40.8552C20.8785 42.6211 19.2297 44.0727 17.1596 44.0974C15.0895 44.1221 13.3819 42.7105 13.3456 40.9446C13.3093 39.1786 14.9581 37.727 17.0282 37.7023Z" fill="#6E3C1B"/>
</g>
<g opacity="0.35">
<path opacity="0.35" d="M36.4834 38.9628C34.0537 39.0656 32.2585 37.8855 32.4737 36.3269C32.6889 34.7683 34.8331 33.4214 37.2628 33.3186C39.6926 33.2158 41.4878 34.3959 41.2725 35.9545C41.0573 37.5131 38.9131 38.8599 36.4834 38.9628Z" fill="#6E3C1B"/>
</g>
<path d="M36.5164 38.8359C34.4072 38.9945 32.8971 38.3126 33.1434 37.3127C33.3897 36.3127 35.2992 35.3735 37.4083 35.2148C39.5175 35.0561 41.0276 35.7381 40.7813 36.738C40.535 37.738 38.6255 38.6772 36.5164 38.8359Z" fill="#FFC107"/>
<path d="M17.1864 39.9122C18.6413 40.4592 19.4327 41.8449 18.9541 43.0072C18.4756 44.1695 16.9083 44.6683 15.4534 44.1214C13.9985 43.5744 13.2071 42.1887 13.6856 41.0264C14.1642 39.8641 15.7315 39.3653 17.1864 39.9122Z" fill="#FFC107"/>
<path d="M31.6913 47.9104C31.691 48.2217 31.7307 48.5345 31.8136 48.8436C32.3979 51.0337 34.8965 52.2252 37.3952 51.5048C39.2716 50.963 40.615 49.4971 40.9189 47.8745L31.6913 47.9104Z" fill="#FFC107"/>
<path d="M31.5738 47.9103C31.4714 49.0471 32.0057 50.2358 32.9123 50.9801C33.3604 51.3594 33.8917 51.632 34.4478 51.8076C35.007 51.9755 35.5934 52.0481 36.1736 52.0192C36.7531 51.9879 37.3286 51.8742 37.8669 51.6633C38.4046 51.4525 38.912 51.1629 39.3554 50.7952C39.8039 50.434 40.1768 49.9843 40.469 49.4941C40.7587 49.0017 40.9455 48.4503 41.0111 47.8919C41.0172 47.8401 40.9801 47.7931 40.9283 47.787C40.8814 47.7815 40.8385 47.8114 40.8263 47.8554L40.8258 47.8571C40.5371 48.8926 39.8763 49.7734 39.0355 50.3844C38.1934 50.9927 37.1746 51.3558 36.1452 51.3909C35.6321 51.4104 35.1157 51.3584 34.6253 51.2136C34.1326 51.0773 33.6681 50.8485 33.2599 50.5444C32.8536 50.2384 32.5068 49.8503 32.2599 49.3991C32.1298 49.1762 32.0389 48.9327 31.9545 48.6853C31.8797 48.4354 31.8303 48.1756 31.8078 47.9105C31.8023 47.8459 31.7455 47.798 31.6808 47.8035C31.6232 47.8084 31.5788 47.8546 31.5738 47.9103Z" fill="#6E3C1B"/>
<path d="M55.4709 29.218C56.6402 29.059 57.7697 29.2384 58.7354 29.8074C60.4852 30.8384 61.1997 32.8475 61.0186 35.1942C60.8997 36.7338 60.3535 38.3906 59.3644 39.9469C56.8676 43.8753 52.4944 45.6758 49.5964 43.9683C48.5181 43.333 47.796 42.3014 47.4429 41.0541C46.8472 38.9494 47.3997 36.2955 48.9674 33.8288L55.4709 29.218Z" fill="#FFC107"/>
<path d="M58.7353 29.8074C59.189 30.1281 59.5792 30.5226 59.8814 30.9704C60.1834 31.4184 60.4061 31.9127 60.544 32.4296C60.6849 32.9456 60.7541 33.4794 60.7649 34.0143C60.7738 34.5485 60.7438 35.0875 60.6569 35.6143C60.6156 35.8782 60.5607 36.1401 60.4945 36.399C60.432 36.6587 60.3555 36.9151 60.274 37.1696C60.1037 37.6764 59.8982 38.1718 59.6537 38.6477C59.168 39.6005 58.5575 40.4926 57.8366 41.2797C57.4777 41.6746 57.0904 42.0433 56.6775 42.3794C56.2671 42.7186 55.8279 43.0214 55.3687 43.2865C54.9101 43.5528 54.428 43.7774 53.9289 43.9486C53.8046 43.9934 53.6774 44.0267 53.5516 44.0667C53.424 44.0978 53.297 44.1335 53.1686 44.1606C53.0401 44.1874 52.9118 44.2176 52.7818 44.235C52.6524 44.2582 52.5222 44.2724 52.3917 44.2847C51.8692 44.3391 51.3433 44.2985 50.8311 44.194C50.3216 44.0797 49.8262 43.8813 49.3832 43.591C48.936 43.3069 48.5434 42.9324 48.2175 42.4998C47.8926 42.0659 47.6386 41.5736 47.4429 41.0541C47.5518 41.5985 47.7457 42.1322 48.03 42.6237C48.3144 43.115 48.6983 43.5548 49.1517 43.9148C49.6075 44.2723 50.1386 44.5352 50.6969 44.7082C51.2582 44.8715 51.8479 44.94 52.4302 44.9161C53.013 44.8952 53.5924 44.7985 54.1455 44.6251C54.7001 44.4562 55.2345 44.229 55.7429 43.9569C56.7597 43.409 57.6606 42.6704 58.4351 41.8261C59.2067 40.9774 59.8516 40.0186 60.3414 38.9838C60.8233 37.9473 61.1707 36.8388 61.2819 35.6957C61.3978 34.5596 61.3149 33.3889 60.9206 32.3072C60.7159 31.7718 60.4315 31.2641 60.0586 30.8342C59.6876 30.4034 59.2348 30.0508 58.7353 29.8074Z" fill="#6E3C1B"/>
<path d="M17.1647 44.3595C17.9731 44.3966 18.8042 44.2051 19.5267 43.7901C19.8845 43.5779 20.2159 43.3127 20.4956 42.9939C20.7704 42.672 20.9966 42.3006 21.1369 41.8913C21.4281 41.0732 21.3288 40.1341 20.9274 39.3681C20.7269 38.9829 20.4456 38.648 20.1286 38.3628C19.809 38.0798 19.4515 37.84 19.0637 37.6679C18.676 37.4966 18.2679 37.3787 17.8523 37.3097C17.4352 37.2492 17.0134 37.2417 16.5955 37.2824C16.1784 37.3345 15.768 37.4341 15.3758 37.5862C14.9841 37.7403 14.6195 37.9604 14.2909 38.223C13.6288 38.7416 13.1512 39.5152 13.0295 40.3511C12.9698 40.7676 12.9903 41.1945 13.1063 41.5942C13.1637 41.7937 13.2389 41.9871 13.3344 42.1691C13.4265 42.3533 13.5542 42.5148 13.6682 42.6817C13.6975 42.7244 13.7558 42.7354 13.7986 42.7061C13.8383 42.679 13.8506 42.6266 13.8286 42.585L13.8218 42.5723C13.7313 42.4028 13.6285 42.2416 13.5622 42.0635C13.4907 41.8884 13.4372 41.7072 13.4019 41.5237C13.3681 41.3398 13.3499 41.1541 13.3521 40.9686C13.3632 40.7833 13.3734 40.599 13.4176 40.4199C13.5709 39.7003 14.0171 39.0644 14.6107 38.6338C15.7932 37.7527 17.4797 37.6265 18.8021 38.2399C19.4592 38.5485 20.0432 39.0332 20.3816 39.6621C20.7236 40.2827 20.8162 41.0346 20.6069 41.7188C20.4007 42.4048 19.9108 43.0034 19.2938 43.4166C18.6748 43.8344 17.9285 44.068 17.162 44.1255L17.1612 44.1256C17.0967 44.1304 17.0483 44.1867 17.0531 44.2512C17.0577 44.311 17.1062 44.3568 17.1647 44.3595Z" fill="#6E3C1B"/>
<path d="M12.1847 38.921C11.7236 39.5675 11.4512 40.3635 11.4242 41.1782C11.3928 41.9947 11.6284 42.8154 12.0421 43.5212C12.4514 44.2348 13.0588 44.8161 13.742 45.2559C14.4308 45.6903 15.2026 45.9875 16.0009 46.1279C16.7994 46.2655 17.6199 46.2642 18.4146 46.1103C19.2086 45.9577 19.9751 45.6507 20.6454 45.1979C21.3151 44.7479 21.8971 44.1536 22.2861 43.4451C22.6704 42.7363 22.8628 41.9244 22.8055 41.1337C22.8017 41.0817 22.7566 41.0426 22.7046 41.0464C22.6564 41.0499 22.6193 41.089 22.6171 41.1361L22.617 41.1377C22.5815 41.8939 22.3449 42.6216 21.9472 43.2438C21.5502 43.8684 20.9882 44.3734 20.3644 44.7596C19.1069 45.5315 17.5543 45.7729 16.1116 45.5088C15.3905 45.3759 14.6914 45.1189 14.0725 44.7315C13.7577 44.5457 13.4743 44.3147 13.2059 44.0692C13.1391 44.0075 13.0811 43.9374 13.0181 43.872C12.9583 43.804 12.8897 43.7426 12.8365 43.6692L12.671 43.4534C12.6436 43.4173 12.6143 43.3823 12.5883 43.3452L12.5171 43.2297L12.3736 42.9986C12.3291 42.9198 12.2945 42.8361 12.254 42.755C12.1668 42.5949 12.1154 42.4211 12.0539 42.2504C12.0185 42.1661 12.0015 42.077 11.981 41.9886L11.9188 41.7229C11.9012 41.5424 11.8717 41.3614 11.8644 41.1788C11.8348 40.4469 12.0252 39.7072 12.3833 39.0447C12.4141 38.9877 12.3929 38.9166 12.336 38.8858C12.2834 38.8573 12.2185 38.8735 12.1847 38.921Z" fill="#6E3C1B"/>
<g opacity="0.35">
<path opacity="0.35" d="M39.2769 47.8634C39.1077 48.8218 38.2735 49.6714 37.0854 49.9646C35.5034 50.3542 33.8924 49.6092 33.4867 48.3005C33.4292 48.1158 33.3991 47.9296 33.3946 47.7448C33.2968 45.689 35.0605 44.7685 36.5245 44.737C38.179 44.7013 39.5623 45.7412 39.2769 47.8634Z" fill="#6E3C1B"/>
</g>
<path d="M39.1152 47.9786C38.946 48.937 38.1118 49.7866 36.9238 50.0798C35.3418 50.4694 33.7308 49.7244 33.325 48.4157C33.2675 48.231 33.2375 48.0447 33.2329 47.86C33.6515 47.212 34.3709 46.6961 35.2775 46.4721C36.8844 46.0765 38.5189 46.7426 39.1152 47.9786Z" fill="#FFC107"/>
<path d="M35.636 44.7231C35.0119 44.8565 34.4176 45.1755 33.9517 45.6424C33.721 45.8775 33.5225 46.149 33.3722 46.4499C33.2236 46.7513 33.1264 47.083 33.0943 47.4249C33.0579 47.7643 33.0932 48.1211 33.206 48.4482C33.3109 48.7787 33.4828 49.0905 33.7086 49.3555C34.1699 49.8795 34.8138 50.2098 35.481 50.3249C36.8213 50.5524 38.2403 49.969 39.0087 48.8649C39.3904 48.3186 39.5984 47.6334 39.5226 46.966C39.4837 46.6345 39.3819 46.3121 39.2171 46.0271C39.0552 45.7404 38.8313 45.4956 38.5762 45.3026C38.5345 45.2711 38.4753 45.2793 38.4438 45.321C38.415 45.3591 38.4199 45.4124 38.4528 45.4452C38.8742 45.8653 39.1199 46.4273 39.1296 46.9945C39.1471 47.5612 38.9302 48.1131 38.5884 48.5577C37.8938 49.4471 36.6822 49.9043 35.5897 49.7053C35.0469 49.6056 34.5329 49.3494 34.1747 48.9469C33.8191 48.5473 33.6206 48.0102 33.6502 47.4644C33.6734 46.9191 33.9071 46.3762 34.2766 45.9394C34.6433 45.4965 35.1438 45.1611 35.7009 44.9479L35.7025 44.9473C35.763 44.9241 35.7932 44.8563 35.7701 44.7958C35.7491 44.7411 35.6915 44.7111 35.636 44.7231Z" fill="#6E3C1B"/>
<g opacity="0.35">
<path opacity="0.35" d="M50.863 33.5407C53.2567 30.9442 56.665 30.3243 58.4756 32.1561C60.2862 33.988 59.8135 37.5779 57.4199 40.1744C55.0262 42.771 51.6179 43.3909 49.8072 41.559C47.9966 39.7272 48.4693 36.1373 50.863 33.5407Z" fill="#6E3C1B"/>
</g>
<path d="M52.4846 35.4223C54.7195 33.3337 57.5238 32.8598 58.7481 34.3638C59.9724 35.8678 59.1532 38.7801 56.9183 40.8686C54.6834 42.9572 51.8791 43.4311 50.6548 41.9271C49.4304 40.4232 50.2497 37.5108 52.4846 35.4223Z" fill="#FFC107"/>
<path d="M53.1408 42.5695C52.5637 42.6181 51.9831 42.5607 51.4554 42.3713C50.9278 42.1831 50.4584 41.8589 50.1023 41.4419C49.7429 41.0265 49.4936 40.5198 49.3566 39.9814C49.2172 39.4434 49.1697 38.8773 49.211 38.3145C49.2889 37.1871 49.6608 36.0784 50.2337 35.0924C50.7986 34.0996 51.5623 33.218 52.4711 32.5402C53.3737 31.8618 54.45 31.3943 55.5445 31.3363C56.0895 31.3071 56.6335 31.3995 57.1201 31.6212C57.6066 31.8435 58.0355 32.1875 58.3535 32.6282C58.6751 33.0667 58.8855 33.5916 59.003 34.141C59.122 34.6915 59.1426 35.2685 59.0906 35.8413C58.988 36.9909 58.5895 38.1177 58.0093 39.1436L58.0089 39.1442C57.976 39.2024 57.9965 39.2762 58.0547 39.3091C58.1092 39.3399 58.1778 39.3233 58.2132 39.2733C58.9092 38.2817 59.4063 37.1289 59.5922 35.9014C59.6841 35.2884 59.6905 34.6562 59.5887 34.0311C59.4906 33.4065 59.2662 32.7882 58.9008 32.2462C58.5376 31.7045 58.0252 31.2487 57.4281 30.965C56.8325 30.6766 56.1658 30.5515 55.5176 30.5715C54.8676 30.5887 54.2328 30.7368 53.6425 30.9715C53.347 31.0889 53.0607 31.2259 52.7847 31.3796C52.5101 31.5356 52.2456 31.7075 51.9911 31.8924C50.9769 32.6389 50.1558 33.6164 49.5422 34.7011C49.2372 35.246 48.9925 35.8252 48.8103 36.4246C48.6313 37.0248 48.5158 37.6477 48.4974 38.2793C48.4742 38.9095 48.5451 39.5493 48.731 40.1617C48.9185 40.7724 49.2381 41.3537 49.6855 41.8221C50.1351 42.2872 50.7061 42.6305 51.3194 42.8005C51.6262 42.8844 51.9405 42.9317 52.2535 42.9406C52.5668 42.9499 52.8776 42.9198 53.1812 42.8667C53.2628 42.8524 53.3174 42.7747 53.3032 42.693C53.2897 42.6161 53.2198 42.5631 53.1434 42.5693L53.1408 42.5695Z" fill="#6E3C1B"/>
<g opacity="0.35">
<path opacity="0.35" d="M20.9335 34.343C20.9458 34.3789 20.96 34.4148 20.9742 34.4498C20.9883 34.6624 21.0252 34.8807 21.0913 35.1018C21.7934 37.3707 24.5764 38.2212 26.6949 37.7128C27.6862 37.4604 28.6681 37.1874 29.6395 36.8925C29.6555 36.9785 29.6829 37.0645 29.7245 37.1467L30.5391 38.7777C30.9341 39.5687 32.0028 39.8361 32.9251 39.3759C33.8483 38.9148 34.2755 37.8989 33.8805 37.108L33.1822 35.7104C36.9157 34.3449 40.4952 32.6468 43.9094 30.6029C43.9406 30.7427 44.0039 30.8788 44.1003 30.9969L45.2551 32.4077C45.8154 33.0919 46.9172 33.1174 47.7148 32.4644C48.5133 31.8115 48.7061 30.7266 48.1457 30.0415L46.9929 28.6326C47.5986 28.2196 48.1996 27.7954 48.794 27.3588C50.1094 26.3807 50.6631 24.6685 50.0886 23.2246C50.0508 22.7558 49.9119 22.2919 49.6605 21.8647C49.103 22.5669 48.5171 23.2444 47.9057 23.8955C47.5731 24.2527 47.2319 24.6014 46.8832 24.9416C46.6385 25.1806 46.3909 25.416 46.1376 25.6474C45.2106 26.5008 44.2364 27.3002 43.2215 28.041C43.1279 28.11 43.0334 28.1771 42.9399 28.2442C42.372 28.6496 41.7918 29.038 41.2002 29.4056C41.0622 29.4915 40.9252 29.5756 40.7863 29.6597C40.1957 30.0179 39.5928 30.3552 38.9824 30.6746C38.6516 30.8485 38.3181 31.0158 37.9807 31.1764C37.9098 31.2114 37.839 31.2454 37.7672 31.2785C37.7171 31.3021 37.6679 31.3257 37.6169 31.3493C37.5082 31.4004 37.3986 31.4495 37.2899 31.4986C36.7097 31.7614 36.122 32.008 35.5276 32.2367C35.349 32.3066 35.1694 32.3727 34.9889 32.4379C34.7952 32.5088 34.6006 32.5787 34.4049 32.6458C33.8919 32.8225 33.3702 32.9879 32.8476 33.1391C32.0331 33.3782 31.2081 33.5823 30.3747 33.7571C29.5195 33.9348 28.6558 34.0803 27.7845 34.1899C26.6278 34.3373 25.4571 34.4233 24.2787 34.4469C23.1721 34.4687 22.0552 34.4356 20.9335 34.343Z" fill="#6E3C1B"/>
</g>
<path d="M40.3786 34.1865C40.7634 34.5384 41.0361 34.9964 41.0461 35.4785L41.0508 35.657L41.0267 35.8343C41.0217 35.8637 41.0215 35.8933 41.013 35.9223L40.9874 36.0087C40.9686 36.0659 40.9585 36.1245 40.9339 36.1799C40.8827 36.2902 40.8443 36.404 40.775 36.5072C40.7424 36.5593 40.7169 36.6144 40.6794 36.664L40.568 36.8128C40.264 37.2057 39.8569 37.5291 39.4158 37.7895C38.9765 38.0563 38.4938 38.2557 37.9972 38.4072C37.8717 38.4412 37.7477 38.481 37.621 38.5109L37.239 38.5935L36.8524 38.6519C36.7233 38.6681 36.5936 38.6781 36.4639 38.6919C35.9448 38.7317 35.4215 38.7087 34.9118 38.6197C34.4042 38.5266 33.9041 38.3642 33.4804 38.0827C33.2598 37.952 33.0802 37.7728 32.9168 37.5807L32.8078 37.4259C32.768 37.3754 32.7496 37.3146 32.7179 37.2592C32.6502 37.1491 32.6265 37.0228 32.582 36.9003L32.5769 36.8861C32.5592 36.8375 32.5055 36.8124 32.4568 36.83C32.4153 36.8451 32.3909 36.8865 32.3956 36.9286C32.4276 37.2135 32.5116 37.5003 32.6655 37.7518C32.8217 37.9977 33.0168 38.2252 33.248 38.401C33.7038 38.7667 34.2473 38.9952 34.8019 39.1285C35.3575 39.2671 35.9308 39.309 36.4983 39.2878C37.067 39.2679 37.6293 39.168 38.176 39.0102C38.7223 38.8504 39.2494 38.6187 39.7396 38.318C39.9841 38.1664 40.2141 37.9895 40.4327 37.7983C40.5404 37.7007 40.642 37.5946 40.7442 37.4906L40.8847 37.3201C40.9316 37.2634 40.978 37.2066 41.0171 37.1426L41.1395 36.9565C41.1802 36.8947 41.21 36.8242 41.2454 36.7584C41.3193 36.6286 41.3656 36.482 41.416 36.3399C41.44 36.2682 41.4496 36.1907 41.4664 36.1166L41.4885 36.0046C41.4956 35.9672 41.4943 35.9279 41.4974 35.8898L41.5078 35.6603L41.4836 35.4314C41.4453 35.128 41.3207 34.8395 41.1507 34.5971C40.9794 34.3534 40.7597 34.1562 40.5214 34.0012C40.4671 33.9658 40.3944 33.9812 40.359 34.0355C40.3273 34.0844 40.3369 34.1485 40.3786 34.1865Z" fill="#6E3C1B"/>
<path d="M37.8516 40.233C37.1915 40.4383 36.5175 40.5132 35.8494 40.4761C35.5158 40.4546 35.1834 40.4132 34.858 40.337C34.5311 40.268 34.2123 40.165 33.9018 40.0438C33.2818 39.8002 32.6988 39.4557 32.2154 39.0072C31.7341 38.5593 31.3669 37.9839 31.2902 37.3058L31.2899 37.3039C31.2841 37.2518 31.2371 37.2143 31.185 37.2202C31.1412 37.2251 31.1077 37.2594 31.1018 37.3011C31.0493 37.6695 31.1099 38.056 31.2441 38.4101C31.3801 38.7651 31.5906 39.0871 31.84 39.3678C32.3389 39.934 32.9831 40.3448 33.6677 40.6276C34.0114 40.7689 34.37 40.8702 34.7335 40.9443C35.0989 41.0084 35.4702 41.0452 35.8413 41.0333C36.5811 41.0167 37.3269 40.8298 37.9499 40.4453C38.0053 40.4111 38.0225 40.3385 37.9883 40.2831C37.9594 40.2364 37.9032 40.2169 37.8531 40.2324L37.8516 40.233Z" fill="#6E3C1B"/>
<g opacity="0.5">
<path opacity="0.5" d="M1.60944 29.0775C2.01584 27.9964 3.40289 27.4082 4.50148 28.1831C7.98065 30.6374 11.9917 32.4602 16.406 33.4489C23.8548 35.1168 31.2803 34.146 37.7038 31.1548C37.5331 31.2877 37.3615 31.4163 37.1895 31.5425C37.2228 31.5276 37.2568 31.5137 37.2901 31.4987C37.3987 31.4496 37.5084 31.4004 37.617 31.3494C37.6681 31.3258 37.7172 31.3022 37.7673 31.2785C37.8391 31.2454 37.91 31.2115 37.9809 31.1765C38.2361 31.0549 38.4886 30.9283 38.74 30.7992C38.8208 30.7577 38.902 30.717 38.9825 30.6747C39.5541 30.3756 40.1188 30.06 40.6733 29.7271C40.7109 29.7045 40.7489 29.6826 40.7864 29.6598C40.9254 29.5757 41.0624 29.4916 41.2004 29.4056C41.7919 29.038 42.3721 28.6496 42.94 28.2443C43.0335 28.1772 43.1281 28.1101 43.2216 28.0411C43.729 27.6707 44.2264 27.2856 44.7126 26.8864C44.9558 26.6869 45.1962 26.4838 45.4338 26.2773C45.6713 26.0708 45.906 25.8608 46.1378 25.6474C46.2351 25.5585 46.3309 25.4685 46.4267 25.3784C46.5167 25.2938 46.606 25.2085 46.6949 25.123C46.7577 25.0625 46.821 25.0025 46.8834 24.9415C47.2321 24.6014 47.5732 24.2527 47.9058 23.8955C48.0205 23.7734 48.1333 23.6495 48.2461 23.5255C48.7351 22.9885 49.2076 22.4352 49.6607 21.8647C49.743 21.7614 49.8243 21.6568 49.9055 21.5522C50.0442 21.3737 50.1818 21.1941 50.3165 21.0123C50.3459 20.9728 50.3745 20.9326 50.4038 20.8929C50.6205 20.5987 50.8327 20.3006 51.04 19.9984C51.2245 19.7296 51.4059 19.4582 51.5827 19.1829C52.1402 18.3183 52.6581 17.4234 53.1372 16.4992C53.2631 16.256 53.385 16.0108 53.5053 15.7645C53.572 15.628 53.6388 15.4917 53.7042 15.3539C54.7229 13.1871 55.5214 10.8748 56.0676 8.43864C56.1639 8.00737 56.2487 7.57557 56.3277 7.14375C56.4593 6.42406 56.5699 5.70425 56.6544 4.98666C56.6678 4.87038 56.6778 4.7542 56.6899 4.63797C56.7406 4.15522 56.7838 3.67275 56.815 3.19217C56.8305 2.94081 56.8904 2.71261 56.983 2.50854C57.2969 1.81597 57.9985 1.41109 58.7166 1.40581C58.8236 1.40505 58.9308 1.4142 59.0371 1.43148C59.1039 1.44234 59.1701 1.45666 59.2357 1.47482C59.3125 1.49602 59.3882 1.52266 59.4627 1.55416C59.5089 1.57364 59.5544 1.5952 59.5993 1.61873C59.6492 1.64486 59.6983 1.67343 59.7464 1.70465C59.9279 1.82214 60.0964 1.97453 60.2424 2.16693C60.2632 2.19436 60.283 2.22244 60.3037 2.24994C59.2104 1.91042 57.909 2.61735 57.827 3.9512C57.7883 4.54747 57.7353 5.14661 57.6663 5.74572C57.5312 6.89384 57.3366 8.04768 57.0796 9.19767C56.5334 11.6338 55.7349 13.9461 54.7162 16.113C54.5329 16.4994 54.3448 16.8803 54.1492 17.2582C53.6701 18.1824 53.1522 19.0773 52.5947 19.9419C52.1922 20.5685 51.7698 21.1779 51.3285 21.7714C51.1149 22.0597 50.8957 22.3441 50.6727 22.6238C50.1152 23.3259 49.5293 24.0034 48.9179 24.6545C48.5853 25.0117 48.2441 25.3604 47.8954 25.7006C47.6507 25.9397 47.4031 26.175 47.1498 26.4065C46.2229 27.2598 45.2486 28.0592 44.2337 28.8001C44.1401 28.8691 44.0456 28.9362 43.9521 29.0032C43.3842 29.4086 42.804 29.797 42.2124 30.1646C42.0744 30.2506 41.9374 30.3347 41.7985 30.4188C41.2079 30.7769 40.605 31.1143 39.9946 31.4337C39.6638 31.6075 39.3303 31.7748 38.993 31.9354C38.9221 31.9704 38.8512 32.0044 38.7794 32.0375C38.7293 32.0611 38.6802 32.0847 38.6291 32.1084C38.5205 32.1594 38.4108 32.2086 38.3022 32.2577C37.722 32.5204 37.1342 32.767 36.5398 32.9957C36.3612 33.0656 36.1817 33.1318 36.0012 33.197C35.8074 33.2679 35.6128 33.3378 35.4172 33.4049C34.9041 33.5816 34.3825 33.7469 33.8599 33.8981C33.2281 34.0836 32.59 34.2474 31.9466 34.3934C19.3414 39.1388 5.71527 30.8622 3.94216 31.1844C2.82496 31.3882 3.06987 33.0834 3.57868 34.697C4.10148 36.095 4.71655 37.4544 5.41924 38.7657C7.60464 42.8509 10.6353 46.4681 14.3324 49.3472C14.3049 49.3274 14.2767 49.3084 14.2491 49.2885C14.2479 49.2876 14.2465 49.2867 14.2453 49.2858C14.163 49.2262 14.0829 49.164 14.0013 49.1037C13.721 48.8969 13.4448 48.6857 13.1718 48.4707C12.8253 48.1975 12.4838 47.9188 12.1493 47.6329C11.3827 46.9777 10.6467 46.2909 9.94597 45.5723C9.50673 45.1218 9.08083 44.6595 8.66861 44.1859C8.25635 43.7124 7.85777 43.2275 7.47341 42.7322C7.28115 42.4845 7.09251 42.2341 6.90749 41.9812C5.98206 40.7168 5.14643 39.3884 4.40726 38.0067C4.24683 37.7073 4.091 37.4055 3.93974 37.1014C3.86409 36.9492 3.78958 36.7966 3.71626 36.6433C2.76305 34.6506 2.00579 32.5593 1.46371 30.3988C1.34136 29.9116 1.41369 29.4571 1.60944 29.0775Z" fill="white"/>
</g>
<mask id="path-23-outside-1" maskUnits="userSpaceOnUse" x="-0.551758" y="-1" width="69" height="58" fill="black">
<rect fill="white" x="-0.551758" y="-1" width="69" height="58"/>
<path d="M33.7084 56C40.3607 56.0002 46.9359 54.0076 52.5328 50.2485C59.1217 45.8234 63.9499 39.2123 66.1277 31.633C66.2252 31.2902 66.3085 30.9841 66.3825 30.6963C66.4596 30.3958 66.5345 30.0852 66.6112 29.7465C66.6663 29.5038 66.72 29.2537 66.7708 29.0036C66.8207 28.7552 66.8684 28.5086 66.913 28.261C66.956 28.021 66.9968 27.7802 67.0346 27.5409C67.0553 27.411 67.0748 27.2799 67.0942 27.1487C67.1084 27.0521 67.1218 26.957 67.1351 26.8614L67.1455 26.7874C67.1627 26.6585 67.1787 26.5328 67.1942 26.406C67.2095 26.2826 67.2246 26.1593 67.2381 26.0356C67.2516 25.9122 67.2652 25.7888 67.2772 25.6649C67.2895 25.544 67.3015 25.4201 67.3126 25.2966C67.3236 25.1729 67.3346 25.0491 67.3437 24.9263L67.3479 24.8728C67.3562 24.767 67.3644 24.6618 67.3708 24.5565C67.374 24.5161 67.3771 24.4691 67.3801 24.4218L67.3967 24.1366C67.4041 24.0173 67.4098 23.8945 67.415 23.7706C67.4417 23.179 67.4525 22.5796 67.4468 21.9906L67.4441 21.7233C67.4417 21.5672 67.4376 21.4136 67.4323 21.2595L67.4318 21.2454C67.4297 21.1689 67.4276 21.0924 67.424 21.0155C67.4045 20.4977 67.372 19.9699 67.3276 19.4499C67.3216 19.377 67.3149 19.3023 67.3081 19.2275L67.3033 19.1749C67.2995 19.1318 67.2955 19.0887 67.2906 19.046C67.2807 18.9354 67.2679 18.8155 67.2547 18.6946C67.2056 18.2346 67.1435 17.7553 67.07 17.2712C67.0531 17.1546 67.0342 17.035 67.0143 16.916C66.8639 15.9873 66.6697 15.0474 66.4375 14.1244C66.382 13.9036 66.3246 13.6836 66.2645 13.4637C66.1342 12.9893 65.9973 12.5283 65.8577 12.0927C65.8285 11.9984 65.7969 11.9009 65.7645 11.8038C65.6142 11.3477 65.4478 10.8775 65.2704 10.4079C65.1943 10.2076 65.117 10.0097 65.0372 9.81182C64.9257 9.53225 64.8071 9.24714 64.6855 8.96601C64.6241 8.82455 64.5615 8.68297 64.4984 8.54284C64.0809 7.61154 63.6137 6.68565 63.1098 5.79084C62.9375 5.48539 62.7582 5.179 62.5768 4.87988C62.4732 4.70865 62.367 4.53694 62.2601 4.36684C62.1461 4.18451 62.0294 4.00419 61.911 3.8233C61.7063 3.51091 61.4905 3.19438 61.2512 2.85526C61.113 2.65982 60.9636 2.45408 60.7943 2.22572C60.7175 2.12232 60.6392 2.01851 60.5617 1.91564C60.5121 1.84991 60.4592 1.78722 60.4049 1.72958C60.394 1.71723 60.3803 1.70228 60.3657 1.68788C60.3431 1.664 60.32 1.64194 60.2962 1.61983C60.284 1.60718 60.2707 1.59506 60.2565 1.58345C60.2436 1.57189 60.2306 1.56065 60.2176 1.54952L60.1951 1.53006C60.1698 1.50861 60.1508 1.49424 60.1315 1.48007L60.1062 1.46067C60.0912 1.4488 60.0761 1.43701 60.0608 1.42578L60.0432 1.41355C59.6801 1.15542 59.249 1.01323 58.7958 1.0021C58.7904 1.00157 58.7785 1.00099 58.7668 1.00086L58.7032 1L58.696 1.00013C58.6026 1.00149 58.5048 1.00954 58.4052 1.02396C57.3553 1.17528 56.559 1.97742 56.4243 3.01994C56.4172 3.07256 56.4125 3.12724 56.4086 3.18307C56.3984 3.35213 56.3869 3.51762 56.3729 3.68308C56.3651 3.78977 56.3564 3.89108 56.3471 3.99392C56.3312 4.17302 56.3145 4.35247 56.2947 4.53099C56.2836 4.64605 56.2714 4.75525 56.2589 4.86594C56.1874 5.49584 56.0963 6.12945 55.9882 6.74931C55.9703 6.8584 55.9515 6.96307 55.9319 7.06827C55.912 7.18045 55.8914 7.28858 55.8697 7.39724C55.8126 7.69057 55.7582 7.95415 55.7032 8.2048L56.0954 8.30863L55.7004 8.2175C55.6983 8.22651 55.6963 8.23554 55.6945 8.24447L55.6699 8.35392C55.649 8.44664 55.6282 8.53909 55.6063 8.63169L55.5878 8.71037C55.5618 8.82106 55.5359 8.9318 55.5076 9.04256C55.4898 9.11697 55.4726 9.18554 55.4549 9.25319C55.4284 9.35869 55.4023 9.45941 55.3752 9.56079C55.3678 9.59062 55.3623 9.61372 55.3555 9.63638L55.3514 9.6506C55.3154 9.78866 55.2775 9.92526 55.2386 10.0623C55.1957 10.2171 55.152 10.3691 55.1072 10.5191C55.047 10.723 54.984 10.9238 54.9208 11.1243C54.8876 11.2284 54.8542 11.3332 54.82 11.4376C54.8051 11.4831 54.7902 11.5273 54.7752 11.5715L54.7511 11.6432C53.1914 16.2884 50.6685 20.4342 47.2529 23.9646C41.6908 29.713 34.2657 33.2505 26.3454 33.9255C24.4921 34.0841 22.6119 34.0826 20.7566 33.921C20.6851 33.9151 20.6152 33.9085 20.5454 33.902L20.431 33.8914C20.3757 33.886 20.3191 33.88 20.2625 33.874C20.1387 33.8622 20.0196 33.8491 19.9014 33.8357C19.8282 33.8276 19.7556 33.8187 19.6829 33.8098C19.4808 33.7861 19.2821 33.7597 19.0824 33.7315C18.8363 33.6976 18.5859 33.6602 18.3157 33.6171C18.1679 33.5919 18.0162 33.5661 17.864 33.5393C17.7049 33.5115 17.5466 33.4823 17.3875 33.4513L17.3642 33.4467C17.2071 33.4162 17.0497 33.3847 16.8927 33.352C16.7444 33.3207 16.5952 33.2891 16.4452 33.2557C15.638 33.0762 14.824 32.8627 14.0258 32.621C13.8951 32.5811 13.7636 32.541 13.6325 32.4993C13.499 32.4577 13.3691 32.4147 13.2391 32.3718C13.1091 32.3297 12.9812 32.2859 12.8546 32.2425C10.4422 31.4123 8.13168 30.3016 5.98352 28.9399L5.88025 28.8743C5.80328 28.8254 5.72631 28.7766 5.65022 28.7267L5.38449 28.5509C5.24488 28.4588 5.10702 28.3663 4.97065 28.2717L4.6418 28.0418C4.36818 27.8492 4.06726 27.7194 3.74987 27.6578C3.6981 27.6477 3.6455 27.6394 3.59311 27.634C3.49651 27.6211 3.39804 27.615 3.29021 27.6173L3.19248 27.6213C3.02557 27.6309 2.85991 27.6591 2.69882 27.7051C2.37812 27.7978 2.07373 27.9607 1.81767 28.1766C1.47103 28.4708 1.22109 28.8498 1.09376 29.2736C0.996178 29.6007 0.974518 29.9408 1.02924 30.2853C1.03294 30.3143 1.03999 30.3543 1.04789 30.3924C1.05629 30.4316 1.06421 30.4669 1.07359 30.5028C1.14301 30.7809 1.22147 31.0762 1.31251 31.4009C1.3545 31.5508 1.39749 31.6999 1.44136 31.8486C1.57145 32.2879 1.71399 32.7355 1.86533 33.1795C1.97777 33.5069 2.08016 33.7934 2.17888 34.056C2.66029 35.3459 3.22337 36.6136 3.85192 37.8227C3.91778 37.9486 3.98326 38.0735 4.04909 38.1969L4.06268 38.2222C4.13359 38.3537 4.20499 38.486 4.27778 38.6164C4.34682 38.7413 4.41747 38.8671 4.48825 38.9929C4.67368 39.3165 4.83863 39.5957 4.99403 39.8491C5.3162 40.3789 5.65874 40.9074 6.01107 41.4186C6.03108 41.448 6.0522 41.4786 6.07432 41.509L6.17957 41.6607C6.21901 41.7172 6.25888 41.7734 6.29891 41.8296C6.30743 41.8423 6.31596 41.8542 6.32535 41.866L6.38217 41.946C6.41888 41.9983 6.45569 42.0491 6.4926 42.0999L6.57771 42.2159C6.59859 42.2463 6.62146 42.2765 6.64405 42.306C6.68459 42.3622 6.72633 42.4187 6.7682 42.4753L6.77784 42.4883C6.80613 42.5264 6.83504 42.5651 6.86492 42.6026C6.90297 42.6553 6.94275 42.7072 6.98219 42.7584L7.08385 42.8903C7.10657 42.9218 7.12994 42.952 7.15466 42.9812C7.16796 42.9995 7.18158 43.0169 7.19519 43.0344C7.27607 43.1382 7.35688 43.2415 7.43951 43.3438C7.44804 43.3559 7.45978 43.3712 7.47483 43.3879C7.52622 43.453 7.57785 43.5168 7.62975 43.5806L7.65186 43.6077C7.68488 43.6482 7.7182 43.6891 7.75205 43.7288C7.84161 43.8399 7.93919 43.9569 8.03791 44.0734L8.35875 43.8248L8.04644 44.0834C8.05436 44.093 8.0625 44.1026 8.07103 44.1119C8.08613 44.1286 8.10081 44.1464 8.11564 44.1643C8.15541 44.212 8.1951 44.2577 8.23485 44.3034C8.27417 44.35 8.31725 44.4004 8.36209 44.4503C8.38172 44.474 8.40214 44.4974 8.42266 44.5208L8.45018 44.5523C8.4519 44.5548 8.46144 44.5654 8.47118 44.5758C8.53048 44.6435 8.58902 44.71 8.64845 44.7761L8.69898 44.832C8.76742 44.9085 8.84069 44.9886 8.91345 45.0677C8.93938 45.0976 8.96595 45.1266 8.99239 45.1556L9.02353 45.1897C9.08415 45.2552 9.14148 45.3166 9.1998 45.3777L9.21179 45.3908C9.23587 45.4169 9.26034 45.4434 9.28516 45.4689C9.32645 45.5134 9.37411 45.5634 9.42216 45.6138L9.51185 45.7072C9.56015 45.7573 9.60896 45.8076 9.65786 45.8572L9.731 45.9326C9.81735 46.0213 9.90456 46.1083 9.99192 46.1952C10.0002 46.2038 10.0141 46.218 10.0297 46.2331L10.1073 46.3094C10.1525 46.3542 10.1976 46.3986 10.2432 46.4428C10.2613 46.4615 10.2858 46.4857 10.3113 46.5092L10.4832 46.6746C10.5482 46.7372 10.6134 46.7996 10.6796 46.8615C10.753 46.9312 10.8285 47.0027 10.9055 47.0725C10.9367 47.1028 10.9683 47.1317 11.0011 47.1601C11.0859 47.2387 11.1719 47.3167 11.2588 47.3943C11.289 47.4224 11.3242 47.4536 11.36 47.4853L11.3845 47.5071C11.4031 47.5243 11.4275 47.5456 11.4524 47.5673L11.4709 47.5833C11.5002 47.6099 11.5335 47.6394 11.5686 47.6694C11.6128 47.7095 11.6662 47.7553 11.7202 47.8014L11.7419 47.82C11.7524 47.8294 11.7631 47.8385 11.7735 47.8473L11.7871 47.8591C11.8837 47.9422 11.9805 48.0253 12.079 48.1076C12.1074 48.1323 12.1426 48.1614 12.1772 48.1892C12.2512 48.2517 12.3323 48.3183 12.4135 48.385L12.4797 48.4394C12.4927 48.4509 12.5086 48.4642 12.5261 48.4774C12.5527 48.5001 12.5804 48.5222 12.6079 48.5433C12.6825 48.6047 12.7664 48.6717 12.8515 48.7381C12.8566 48.7424 12.8616 48.7465 12.8667 48.7506C12.8793 48.7616 12.8897 48.7692 12.8954 48.7736L12.9587 48.8232C13.0247 48.8747 13.0906 48.9261 13.1576 48.9775C13.1857 49.0003 13.2199 49.0271 13.2564 49.0531C13.3544 49.1287 13.4525 49.2042 13.552 49.2777C13.6056 49.319 13.6651 49.3645 13.7262 49.408C13.79 49.4554 13.8577 49.5046 13.9261 49.5544L13.9268 49.5557L14.3245 49.8414C14.3413 49.8539 14.3646 49.8698 14.3877 49.8856C14.4575 49.9347 14.5326 49.9866 14.6079 50.0386L14.6877 50.0935C14.8858 50.2312 15.0985 50.3739 15.3564 50.542C15.657 50.738 15.9334 50.9122 16.2013 51.0742C16.2948 51.1326 16.3948 51.1928 16.4952 51.2516C16.5111 51.2625 16.5269 51.2722 16.5429 51.281C16.5935 51.3112 16.6448 51.3409 16.6961 51.3708C16.7555 51.4064 16.8122 51.4396 16.8699 51.4724C16.9466 51.5172 17.0278 51.5632 17.1091 51.6091L17.1774 51.6478C17.2825 51.7079 17.3894 51.7671 17.4962 51.8263C17.5098 51.8346 17.5317 51.8463 17.5542 51.8574C17.6422 51.9058 17.7242 51.9509 17.8078 51.995C17.8986 52.0442 17.9939 52.0946 18.0902 52.1447C18.155 52.1788 18.2209 52.2134 18.2877 52.2475C18.3118 52.2609 18.3355 52.2731 18.3601 52.2851C18.3879 52.2999 18.4164 52.3143 18.4446 52.3278C18.5138 52.364 18.5836 52.399 18.6532 52.4338C18.7896 52.5022 18.9203 52.5668 19.0515 52.63C19.2446 52.7234 19.4402 52.816 19.6367 52.9056L19.9948 53.0717L19.9979 53.0701C20.0439 53.0907 20.0901 53.1111 20.136 53.1317L20.3834 53.242L20.3864 53.2404C20.3871 53.2406 20.3877 53.2409 20.3883 53.2412C20.4798 53.281 20.5615 53.3155 20.6427 53.349L20.779 53.4072C20.8428 53.4336 20.9012 53.4577 20.9595 53.4804C20.981 53.4901 21.0025 53.4988 21.0251 53.507C21.0591 53.5213 21.0936 53.5355 21.1282 53.5495L21.2271 53.5889C21.2758 53.6083 21.3247 53.6277 21.3739 53.6466C21.3849 53.6517 21.3979 53.6571 21.4114 53.6622L21.4947 53.6951C21.5623 53.7216 21.6321 53.7488 21.7022 53.7745L21.7289 53.7847C21.7516 53.7936 21.7745 53.8024 21.7976 53.8108C21.8063 53.8142 21.8153 53.8176 21.8244 53.8207C21.8704 53.8388 21.9167 53.8559 21.9644 53.8732C22.0013 53.8879 22.0391 53.9021 22.0763 53.9153C22.0983 53.9232 22.1231 53.9321 22.1482 53.9406C22.1667 53.9484 22.1859 53.9554 22.2053 53.962C22.2359 53.9736 22.2662 53.9844 22.2972 53.9947C22.3513 54.015 22.4062 54.0346 22.4621 54.054L22.6035 54.1038C22.6334 54.1153 22.6637 54.1256 22.6949 54.1352C22.7556 54.1574 22.8178 54.1781 22.8814 54.1991L23.0225 54.2472C23.108 54.2759 23.1959 54.3048 23.2841 54.3337L23.5726 54.4265C23.6633 54.4549 23.7541 54.4834 23.8452 54.5113C23.9815 54.5532 24.1176 54.5941 24.2539 54.6329C24.275 54.6403 24.2959 54.6466 24.3169 54.6519C24.3822 54.6708 24.4477 54.6896 24.5133 54.7083L24.5148 54.7111L24.9248 54.8224C25.0083 54.8451 25.0928 54.8676 25.1772 54.89L25.4221 54.9527C25.4751 54.9674 25.5342 54.982 25.5946 54.9961C25.6332 55.0068 25.671 55.0161 25.7103 55.0257C25.776 55.0418 25.8428 55.0575 25.9084 55.0727C25.9422 55.0819 25.9745 55.0896 26.007 55.096C26.0592 55.1089 26.1111 55.1212 26.1632 55.1334L26.1892 55.14C26.2572 55.1552 26.3184 55.169 26.3807 55.1823C26.4271 55.1934 26.4817 55.2055 26.5363 55.2175L26.6301 55.2381C26.6789 55.2487 26.7277 55.2595 26.7767 55.2697C26.8333 55.2816 26.8877 55.2929 26.9409 55.3039L26.9454 55.3129L27.1628 55.3488C27.2625 55.3695 27.3613 55.3883 27.46 55.4071C27.5181 55.4183 27.5742 55.4286 27.6301 55.4387L27.7022 55.4519C27.7875 55.4679 27.875 55.4836 27.961 55.4988L27.9996 55.5055C28.0173 55.5087 28.0349 55.5119 28.0526 55.5146C28.1689 55.5352 28.2942 55.5559 28.419 55.5754C28.4208 55.5759 28.4282 55.5771 28.436 55.5782L28.5125 55.5903C28.6062 55.6053 28.6992 55.6201 28.7924 55.6333C28.8699 55.6452 28.9511 55.6567 29.0323 55.6681L29.1594 55.6864C29.2515 55.6989 29.3401 55.7106 29.429 55.7224L29.5315 55.7358C29.6561 55.7519 29.7798 55.7665 29.9037 55.7809C29.9932 55.7914 30.083 55.8012 30.1726 55.8108L30.2734 55.8218C31.4172 55.9411 32.5645 56 33.7084 56ZM59.7234 2.19445L59.7328 2.20322C59.753 2.22182 59.7658 2.23326 59.778 2.24641L59.8153 2.28618C59.8492 2.32209 59.8825 2.36165 59.9144 2.40391C59.9909 2.50526 60.0678 2.60724 60.1431 2.70872C60.3088 2.9322 60.4547 3.13318 60.5891 3.32319C60.8227 3.65421 61.0333 3.96323 61.2327 4.26756C61.348 4.44353 61.4618 4.61926 61.5732 4.7974C61.6779 4.96431 61.7817 5.1321 61.8833 5.29994C62.0607 5.59236 62.2356 5.8913 62.4036 6.18904C62.8953 7.06207 63.3511 7.96574 63.7586 8.87457L63.7589 8.8751C63.8204 9.01198 63.8817 9.15042 63.9415 9.28828C64.06 9.56203 64.1755 9.83987 64.2848 10.1138C64.3632 10.308 64.4383 10.5006 64.5122 10.6952C64.6853 11.1532 64.8479 11.6124 64.995 12.0592C65.0261 12.1523 65.0559 12.2441 65.0846 12.3365C65.2218 12.765 65.3554 13.215 65.4826 13.6778C65.5409 13.8918 65.5971 14.1064 65.6512 14.3221C65.8779 15.2228 66.0673 16.1397 66.2143 17.0475C66.2334 17.1629 66.2516 17.2769 66.2681 17.3904C66.34 17.8651 66.4007 18.3324 66.4486 18.7819C66.4615 18.8987 66.4738 19.0133 66.4842 19.1288C66.4894 19.1751 66.4926 19.2115 66.4959 19.2478L66.5009 19.3024C66.5073 19.3734 66.5137 19.4462 66.5198 19.518C66.5631 20.0261 66.5949 20.5411 66.614 21.0494C66.6175 21.1248 66.6195 21.1964 66.6214 21.2679L66.6219 21.285C66.6272 21.4367 66.6311 21.585 66.6334 21.7329L66.6361 21.9978C66.6415 22.5727 66.6311 23.1571 66.605 23.7354C66.5999 23.8555 66.5945 23.9731 66.5873 24.0917L66.571 24.3698C66.5682 24.4135 66.5653 24.4572 66.562 24.5007C66.5555 24.6077 66.5476 24.7083 66.5397 24.8094L66.5352 24.865C66.5264 24.9854 66.5157 25.1049 66.5049 25.2245C66.4943 25.3447 66.4826 25.4652 66.4704 25.5846C66.4585 25.707 66.4454 25.8272 66.4322 25.9472C66.4191 26.0669 66.4045 26.1862 66.3895 26.3068C66.3743 26.4317 66.3587 26.5542 66.3422 26.6773L66.3321 26.7492C66.319 26.8428 66.3061 26.9361 66.2921 27.0305C66.2733 27.1581 66.2543 27.2861 66.2339 27.4136C66.1967 27.6483 66.1569 27.8836 66.1151 28.1176C66.0713 28.3594 66.0246 28.6008 65.9761 28.8431C65.9267 29.0865 65.8743 29.3304 65.8205 29.5672C65.7454 29.8984 65.6724 30.2018 65.5972 30.4946C65.525 30.7755 65.4435 31.075 65.3481 31.4101C61.2638 45.6243 48.3138 55.1943 33.8 55.1949C32.6611 55.1949 31.5139 55.136 30.3594 55.0158L30.2597 55.005C30.1725 54.9956 30.0852 54.9862 29.998 54.9759C29.8772 54.9617 29.7566 54.9477 29.6365 54.9321L29.1462 54.8658C29.0677 54.8545 28.9893 54.8434 28.9105 54.8314C28.8177 54.8182 28.729 54.8041 28.64 54.7899L28.5467 54.7753C28.4247 54.7558 28.3047 54.7362 28.1852 54.715L28.1457 54.7081C28.1284 54.7051 28.1111 54.7018 28.0936 54.6991C28.0187 54.6858 27.9339 54.6709 27.8504 54.6552L27.7752 54.6413C27.7224 54.6318 27.6695 54.6222 27.6169 54.6119C27.5734 54.6037 27.5309 54.5955 27.4889 54.5875L27.4822 54.574L27.2414 54.5383C27.1456 54.5189 27.0485 54.4985 26.9513 54.4781C26.8951 54.4665 26.8496 54.4565 26.8042 54.4465L26.7113 54.4261C26.6604 54.4149 26.6096 54.4036 26.5583 54.3915C26.4936 54.3777 26.4376 54.3651 26.3819 54.3526L26.3659 54.3486C26.3081 54.335 26.2503 54.3214 26.192 54.3069L26.1686 54.3017C26.1514 54.2985 26.1346 54.2944 26.1166 54.2894L26.0995 54.2851C26.0346 54.27 25.9684 54.2545 25.9031 54.2385C25.8692 54.2303 25.8384 54.2229 25.8068 54.2139L25.7868 54.2087C25.7342 54.1965 25.6823 54.1839 25.6297 54.1694L25.3848 54.1065C25.3022 54.0847 25.2194 54.0627 25.1363 54.0401L24.9043 53.9763C24.7805 53.9419 24.6562 53.9064 24.5328 53.8706L24.4897 53.8572C24.354 53.8189 24.2186 53.7782 24.0826 53.7364C23.993 53.709 23.9041 53.6811 23.8153 53.6532L23.5367 53.5636C23.4505 53.5353 23.3644 53.5071 23.2784 53.4782L23.1465 53.4331C23.0773 53.4102 23.0202 53.3914 22.9645 53.3708L22.941 53.3628C22.9246 53.3579 22.9087 53.3529 22.8931 53.3468L22.7699 53.3033C22.7561 53.298 22.7416 53.2929 22.7271 53.288C22.6748 53.2701 22.6247 53.252 22.5752 53.2335L22.5603 53.2282C22.5352 53.2198 22.5109 53.2111 22.4861 53.2017L22.4688 53.1954C22.4659 53.1946 22.467 53.1952 22.47 53.1969L22.4207 53.1771C22.3968 53.1693 22.3726 53.1605 22.3495 53.1522C22.3176 53.1409 22.2882 53.1299 22.2597 53.1184L22.2467 53.1135C22.2017 53.0971 22.158 53.0813 22.1146 53.0639L22.0792 53.0508C22.0597 53.0438 22.0403 53.0362 22.0211 53.0288L21.9853 53.0151C21.9163 52.9898 21.8519 52.9646 21.7876 52.9395L21.6746 52.8939C21.6248 52.8748 21.5753 52.8551 21.5259 52.8356L21.4338 52.799C21.3992 52.7848 21.3646 52.7708 21.3308 52.7563L21.263 52.7289C21.2069 52.7072 21.1512 52.6842 21.0956 52.6612L20.9575 52.6023C20.8751 52.5682 20.7981 52.5357 20.7222 52.5027C20.6689 52.4795 20.6255 52.4606 20.5826 52.4424L20.4658 52.3914C20.3703 52.3487 20.2741 52.306 20.1786 52.2628C20.1784 52.2628 20.1783 52.2628 20.1782 52.2628L20.0017 52.1618L19.9814 52.1721L19.9753 52.1694C19.7816 52.0811 19.5917 51.9911 19.4036 51.9002C19.2758 51.8385 19.1491 51.7759 19.0233 51.7128C18.9483 51.6754 18.8812 51.6417 18.8145 51.6068L18.8009 51.6C18.7795 51.5897 18.7579 51.5789 18.7369 51.5675L18.7187 51.5583C18.7039 51.5512 18.6896 51.5438 18.675 51.5356L18.6621 51.5288C18.596 51.4951 18.5308 51.4609 18.4655 51.4267C18.3719 51.3779 18.2803 51.3292 18.1896 51.2802C18.1039 51.2349 18.0234 51.1906 17.9431 51.1465L17.9164 51.1325C17.9105 51.1296 17.9043 51.1264 17.8985 51.1229C17.7851 51.06 17.6815 51.0026 17.5783 50.9435L17.508 50.9037C17.43 50.8596 17.3521 50.8155 17.2743 50.7701C17.2179 50.7379 17.1667 50.7079 17.1152 50.677L17.1029 50.6698C17.0516 50.6401 17.0006 50.6105 16.9503 50.5803L16.9194 50.5609C16.8205 50.5031 16.7219 50.4438 16.6254 50.3836C16.3607 50.2235 16.092 50.0542 15.7991 49.8632C15.5479 49.6994 15.3415 49.5609 15.1493 49.4275L15.0681 49.3714C14.9946 49.3207 14.9213 49.2702 14.8483 49.219C14.8293 49.2058 14.8152 49.1965 14.8019 49.1866L14.4569 48.9384C14.3719 48.8765 14.2868 48.8147 14.2024 48.7525C14.1439 48.7105 14.0918 48.6704 14.0395 48.6304C13.9364 48.5541 13.8406 48.4802 13.7448 48.4064L13.7312 48.3963C13.7057 48.3784 13.6821 48.3595 13.6578 48.3401C13.5853 48.2844 13.5217 48.2346 13.4578 48.1847L13.3653 48.1113C13.2742 48.04 13.1929 47.9752 13.112 47.909C13.0846 47.8876 13.0659 47.873 13.0486 47.8576L12.9281 47.759C12.8493 47.6942 12.7706 47.6294 12.6919 47.5633C12.6579 47.5358 12.6305 47.5132 12.6038 47.4901C12.5028 47.4057 12.4092 47.3253 12.3158 47.2449L12.2469 47.1854C12.1985 47.144 12.1504 47.103 12.1035 47.0606C12.0657 47.0282 12.0375 47.0031 12.0087 46.9773L11.9842 46.9557C11.9654 46.9393 11.9468 46.9233 11.9286 46.9065L11.8977 46.8789C11.8659 46.8508 11.8344 46.823 11.8033 46.7942C11.7137 46.7141 11.6297 46.6378 11.5467 46.5609L11.5367 46.5519C11.5123 46.5308 11.4888 46.5093 11.4655 46.4868L11.4546 46.4766C11.3805 46.4095 11.3079 46.3406 11.2352 46.2716C11.17 46.2106 11.1077 46.1512 11.0452 46.0908L10.8666 45.9191C10.8449 45.8989 10.83 45.8841 10.8148 45.8686C10.7639 45.819 10.7202 45.7759 10.6763 45.7325L10.5692 45.6266C10.4792 45.5369 10.395 45.4531 10.3126 45.3685L10.2363 45.2897C10.187 45.2398 10.1405 45.1917 10.0945 45.144L10.0087 45.0547C9.9628 45.0066 9.91708 44.9586 9.87162 44.9098C9.84602 44.8834 9.82699 44.8626 9.80809 44.8421L9.79043 44.8229C9.73065 44.7602 9.67605 44.7018 9.6212 44.6425L9.58958 44.6077C9.56721 44.5834 9.54476 44.5589 9.52285 44.5336L9.51421 44.5238C9.4423 44.4456 9.36992 44.3666 9.29852 44.2869L9.24752 44.2305C9.19375 44.1707 9.13741 44.1067 9.08122 44.0426C9.08061 44.0415 9.07196 44.0319 9.06305 44.0224L9.07145 44.0323L9.03206 43.9867C9.01511 43.9673 8.99805 43.9481 8.98191 43.9283L8.96941 43.9138C8.9283 43.8682 8.88886 43.8219 8.84959 43.7755C8.80997 43.73 8.77422 43.689 8.73903 43.6465C8.71692 43.6199 8.69433 43.593 8.67146 43.5678L8.64921 43.5416C8.56175 43.4381 8.46811 43.326 8.37595 43.2119C8.33913 43.1683 8.30923 43.1316 8.27958 43.0953L8.25808 43.069C8.2056 43.0041 8.152 42.938 8.09871 42.8703L8.06944 42.8341C7.98986 42.7354 7.91207 42.636 7.83374 42.5355C7.8241 42.5232 7.81446 42.5112 7.80535 42.4981L7.77876 42.4643C7.76432 42.4477 7.75108 42.4304 7.73813 42.4122L7.62423 42.264C7.5879 42.2168 7.5516 42.1696 7.51714 42.1215L7.50272 42.1026C7.47711 42.0708 7.45265 42.0377 7.42859 42.0052L7.4192 41.9927C7.37841 41.9376 7.33728 41.8819 7.29748 41.8268L7.28923 41.8157C7.27342 41.7951 7.25697 41.7739 7.24263 41.7527L7.14839 41.6238C7.11403 41.5767 7.0798 41.5295 7.04635 41.4818L6.96233 41.3643C6.92132 41.3067 6.88043 41.2491 6.84015 41.1912L6.82065 41.1628L6.73268 41.0367C6.71181 41.008 6.69562 40.9841 6.67932 40.9602C6.33466 40.4603 6.00062 39.9448 5.68561 39.4268C5.53365 39.1791 5.37282 38.9068 5.19294 38.5929C5.12476 38.4716 5.05508 38.3476 4.98629 38.2232C4.91461 38.0946 4.84506 37.9657 4.77599 37.8376L4.76314 37.8139C4.69915 37.6941 4.63492 37.5711 4.57055 37.4481C3.95755 36.2691 3.40809 35.032 2.93781 33.772C2.84155 33.5158 2.74173 33.2365 2.63216 32.9174C2.48466 32.4847 2.34543 32.0476 2.21867 31.6192C2.17594 31.4744 2.13393 31.3288 2.09291 31.1825C2.00396 30.8651 1.92738 30.5773 1.85881 30.3026C1.85127 30.2738 1.84608 30.2496 1.8409 30.2255C1.83768 30.2097 1.83389 30.1891 1.83115 30.1689C1.79409 29.9348 1.80765 29.7155 1.87004 29.5065C1.95206 29.2339 2.11502 28.9878 2.34095 28.7958C2.5097 28.6536 2.71107 28.5457 2.92245 28.4847C3.0451 28.4496 3.17272 28.4307 3.30094 28.4288L3.34084 28.4281C3.3942 28.4288 3.44338 28.4321 3.49031 28.4385L3.50526 28.4404C3.5353 28.4433 3.56543 28.4483 3.59508 28.454C3.79941 28.4936 3.99533 28.5787 4.17734 28.7068L4.50766 28.9378C4.64984 29.0364 4.79314 29.1327 4.9367 29.2273L5.20354 29.4038C5.28483 29.4571 5.365 29.508 5.44533 29.559L5.54784 29.6242C7.7506 31.0205 10.1183 32.1587 12.5865 33.0081C12.7223 33.0547 12.8546 33.0999 12.9868 33.1427C13.1187 33.1864 13.253 33.2306 13.3887 33.2729C13.5206 33.3148 13.6551 33.356 13.7895 33.397C14.6081 33.6448 15.4419 33.8636 16.2688 34.0474C16.4217 34.0815 16.5738 34.1136 16.7259 34.1457C16.8886 34.1797 17.051 34.2122 17.2132 34.2437L17.2364 34.2483C17.3992 34.28 17.5611 34.3097 17.7234 34.3381C17.8767 34.3651 18.0302 34.3912 18.1835 34.4173C18.4636 34.4621 18.7196 34.5003 18.9702 34.5348C19.1746 34.5637 19.3797 34.5909 19.5857 34.6151C19.6594 34.6242 19.7355 34.6334 19.8108 34.6418C19.9331 34.6556 20.0574 34.6692 20.1805 34.6808C20.2348 34.6867 20.2946 34.693 20.3553 34.699L20.4692 34.7095C20.5423 34.7164 20.6154 34.7232 20.688 34.7292C22.5874 34.8948 24.5145 34.8963 26.4141 34.7337C34.5293 34.042 42.1369 30.4178 47.8351 24.5288C51.3355 20.9108 53.9209 16.6622 55.5197 11.9009L55.5433 11.8307C55.5591 11.7839 55.5748 11.7371 55.5901 11.69C55.625 11.5842 55.6592 11.4768 55.6933 11.3695C55.7585 11.1632 55.823 10.9576 55.8841 10.75C55.93 10.5963 55.9752 10.4392 56.0189 10.2815C56.0582 10.1432 56.0971 10.0032 56.1341 9.86173C56.1436 9.82922 56.1518 9.79631 56.1601 9.76332C56.1865 9.66502 56.2135 9.56046 56.2401 9.45485C56.2582 9.38536 56.2766 9.3111 56.2943 9.23743C56.3224 9.12785 56.3497 9.01198 56.3768 8.89615L56.394 8.82286C56.4176 8.72353 56.4391 8.62772 56.4607 8.53168L56.4962 8.37262C56.5513 8.12192 56.6069 7.85224 56.6649 7.55431C56.6874 7.44177 56.709 7.32795 56.7293 7.21361C56.7493 7.10624 56.7691 6.99588 56.7873 6.88499C56.8975 6.25317 56.9908 5.60352 57.0642 4.95773C57.0773 4.84269 57.0897 4.72904 57.1009 4.61484C57.1206 4.43596 57.138 4.25082 57.1545 4.06613C57.164 3.95885 57.1733 3.85297 57.1809 3.74661C57.195 3.57958 57.207 3.40779 57.2175 3.23547C57.2198 3.20058 57.2228 3.16332 57.2278 3.1261C57.3292 2.34195 57.9503 1.90891 58.5211 1.82663C58.5848 1.81737 58.6457 1.81219 58.7028 1.81112L58.7723 1.81279C59.0688 1.82 59.3463 1.91179 59.5783 2.07827L59.7234 2.19445ZM27.1719 54.9671L27.1708 54.9677L27.1777 54.9388L27.1719 54.9671ZM22.4742 53.1988C22.4744 53.1988 22.4746 53.1989 22.4748 53.1991L22.4742 53.1988ZM20.1903 52.2693L20.1904 52.2695L20.1903 52.2693ZM13.3879 48.1298C13.3885 48.1303 13.3894 48.131 13.3907 48.132L13.3879 48.1298ZM64.1285 8.70873H64.1273H64.1285Z"/>
</mask>
<path d="M33.7084 56C40.3607 56.0002 46.9359 54.0076 52.5328 50.2485C59.1217 45.8234 63.9499 39.2123 66.1277 31.633C66.2252 31.2902 66.3085 30.9841 66.3825 30.6963C66.4596 30.3958 66.5345 30.0852 66.6112 29.7465C66.6663 29.5038 66.72 29.2537 66.7708 29.0036C66.8207 28.7552 66.8684 28.5086 66.913 28.261C66.956 28.021 66.9968 27.7802 67.0346 27.5409C67.0553 27.411 67.0748 27.2799 67.0942 27.1487C67.1084 27.0521 67.1218 26.957 67.1351 26.8614L67.1455 26.7874C67.1627 26.6585 67.1787 26.5328 67.1942 26.406C67.2095 26.2826 67.2246 26.1593 67.2381 26.0356C67.2516 25.9122 67.2652 25.7888 67.2772 25.6649C67.2895 25.544 67.3015 25.4201 67.3126 25.2966C67.3236 25.1729 67.3346 25.0491 67.3437 24.9263L67.3479 24.8728C67.3562 24.767 67.3644 24.6618 67.3708 24.5565C67.374 24.5161 67.3771 24.4691 67.3801 24.4218L67.3967 24.1366C67.4041 24.0173 67.4098 23.8945 67.415 23.7706C67.4417 23.179 67.4525 22.5796 67.4468 21.9906L67.4441 21.7233C67.4417 21.5672 67.4376 21.4136 67.4323 21.2595L67.4318 21.2454C67.4297 21.1689 67.4276 21.0924 67.424 21.0155C67.4045 20.4977 67.372 19.9699 67.3276 19.4499C67.3216 19.377 67.3149 19.3023 67.3081 19.2275L67.3033 19.1749C67.2995 19.1318 67.2955 19.0887 67.2906 19.046C67.2807 18.9354 67.2679 18.8155 67.2547 18.6946C67.2056 18.2346 67.1435 17.7553 67.07 17.2712C67.0531 17.1546 67.0342 17.035 67.0143 16.916C66.8639 15.9873 66.6697 15.0474 66.4375 14.1244C66.382 13.9036 66.3246 13.6836 66.2645 13.4637C66.1342 12.9893 65.9973 12.5283 65.8577 12.0927C65.8285 11.9984 65.7969 11.9009 65.7645 11.8038C65.6142 11.3477 65.4478 10.8775 65.2704 10.4079C65.1943 10.2076 65.117 10.0097 65.0372 9.81182C64.9257 9.53225 64.8071 9.24714 64.6855 8.96601C64.6241 8.82455 64.5615 8.68297 64.4984 8.54284C64.0809 7.61154 63.6137 6.68565 63.1098 5.79084C62.9375 5.48539 62.7582 5.179 62.5768 4.87988C62.4732 4.70865 62.367 4.53694 62.2601 4.36684C62.1461 4.18451 62.0294 4.00419 61.911 3.8233C61.7063 3.51091 61.4905 3.19438 61.2512 2.85526C61.113 2.65982 60.9636 2.45408 60.7943 2.22572C60.7175 2.12232 60.6392 2.01851 60.5617 1.91564C60.5121 1.84991 60.4592 1.78722 60.4049 1.72958C60.394 1.71723 60.3803 1.70228 60.3657 1.68788C60.3431 1.664 60.32 1.64194 60.2962 1.61983C60.284 1.60718 60.2707 1.59506 60.2565 1.58345C60.2436 1.57189 60.2306 1.56065 60.2176 1.54952L60.1951 1.53006C60.1698 1.50861 60.1508 1.49424 60.1315 1.48007L60.1062 1.46067C60.0912 1.4488 60.0761 1.43701 60.0608 1.42578L60.0432 1.41355C59.6801 1.15542 59.249 1.01323 58.7958 1.0021C58.7904 1.00157 58.7785 1.00099 58.7668 1.00086L58.7032 1L58.696 1.00013C58.6026 1.00149 58.5048 1.00954 58.4052 1.02396C57.3553 1.17528 56.559 1.97742 56.4243 3.01994C56.4172 3.07256 56.4125 3.12724 56.4086 3.18307C56.3984 3.35213 56.3869 3.51762 56.3729 3.68308C56.3651 3.78977 56.3564 3.89108 56.3471 3.99392C56.3312 4.17302 56.3145 4.35247 56.2947 4.53099C56.2836 4.64605 56.2714 4.75525 56.2589 4.86594C56.1874 5.49584 56.0963 6.12945 55.9882 6.74931C55.9703 6.8584 55.9515 6.96307 55.9319 7.06827C55.912 7.18045 55.8914 7.28858 55.8697 7.39724C55.8126 7.69057 55.7582 7.95415 55.7032 8.2048L56.0954 8.30863L55.7004 8.2175C55.6983 8.22651 55.6963 8.23554 55.6945 8.24447L55.6699 8.35392C55.649 8.44664 55.6282 8.53909 55.6063 8.63169L55.5878 8.71037C55.5618 8.82106 55.5359 8.9318 55.5076 9.04256C55.4898 9.11697 55.4726 9.18554 55.4549 9.25319C55.4284 9.35869 55.4023 9.45941 55.3752 9.56079C55.3678 9.59062 55.3623 9.61372 55.3555 9.63638L55.3514 9.6506C55.3154 9.78866 55.2775 9.92526 55.2386 10.0623C55.1957 10.2171 55.152 10.3691 55.1072 10.5191C55.047 10.723 54.984 10.9238 54.9208 11.1243C54.8876 11.2284 54.8542 11.3332 54.82 11.4376C54.8051 11.4831 54.7902 11.5273 54.7752 11.5715L54.7511 11.6432C53.1914 16.2884 50.6685 20.4342 47.2529 23.9646C41.6908 29.713 34.2657 33.2505 26.3454 33.9255C24.4921 34.0841 22.6119 34.0826 20.7566 33.921C20.6851 33.9151 20.6152 33.9085 20.5454 33.902L20.431 33.8914C20.3757 33.886 20.3191 33.88 20.2625 33.874C20.1387 33.8622 20.0196 33.8491 19.9014 33.8357C19.8282 33.8276 19.7556 33.8187 19.6829 33.8098C19.4808 33.7861 19.2821 33.7597 19.0824 33.7315C18.8363 33.6976 18.5859 33.6602 18.3157 33.6171C18.1679 33.5919 18.0162 33.5661 17.864 33.5393C17.7049 33.5115 17.5466 33.4823 17.3875 33.4513L17.3642 33.4467C17.2071 33.4162 17.0497 33.3847 16.8927 33.352C16.7444 33.3207 16.5952 33.2891 16.4452 33.2557C15.638 33.0762 14.824 32.8627 14.0258 32.621C13.8951 32.5811 13.7636 32.541 13.6325 32.4993C13.499 32.4577 13.3691 32.4147 13.2391 32.3718C13.1091 32.3297 12.9812 32.2859 12.8546 32.2425C10.4422 31.4123 8.13168 30.3016 5.98352 28.9399L5.88025 28.8743C5.80328 28.8254 5.72631 28.7766 5.65022 28.7267L5.38449 28.5509C5.24488 28.4588 5.10702 28.3663 4.97065 28.2717L4.6418 28.0418C4.36818 27.8492 4.06726 27.7194 3.74987 27.6578C3.6981 27.6477 3.6455 27.6394 3.59311 27.634C3.49651 27.6211 3.39804 27.615 3.29021 27.6173L3.19248 27.6213C3.02557 27.6309 2.85991 27.6591 2.69882 27.7051C2.37812 27.7978 2.07373 27.9607 1.81767 28.1766C1.47103 28.4708 1.22109 28.8498 1.09376 29.2736C0.996178 29.6007 0.974518 29.9408 1.02924 30.2853C1.03294 30.3143 1.03999 30.3543 1.04789 30.3924C1.05629 30.4316 1.06421 30.4669 1.07359 30.5028C1.14301 30.7809 1.22147 31.0762 1.31251 31.4009C1.3545 31.5508 1.39749 31.6999 1.44136 31.8486C1.57145 32.2879 1.71399 32.7355 1.86533 33.1795C1.97777 33.5069 2.08016 33.7934 2.17888 34.056C2.66029 35.3459 3.22337 36.6136 3.85192 37.8227C3.91778 37.9486 3.98326 38.0735 4.04909 38.1969L4.06268 38.2222C4.13359 38.3537 4.20499 38.486 4.27778 38.6164C4.34682 38.7413 4.41747 38.8671 4.48825 38.9929C4.67368 39.3165 4.83863 39.5957 4.99403 39.8491C5.3162 40.3789 5.65874 40.9074 6.01107 41.4186C6.03108 41.448 6.0522 41.4786 6.07432 41.509L6.17957 41.6607C6.21901 41.7172 6.25888 41.7734 6.29891 41.8296C6.30743 41.8423 6.31596 41.8542 6.32535 41.866L6.38217 41.946C6.41888 41.9983 6.45569 42.0491 6.4926 42.0999L6.57771 42.2159C6.59859 42.2463 6.62146 42.2765 6.64405 42.306C6.68459 42.3622 6.72633 42.4187 6.7682 42.4753L6.77784 42.4883C6.80613 42.5264 6.83504 42.5651 6.86492 42.6026C6.90297 42.6553 6.94275 42.7072 6.98219 42.7584L7.08385 42.8903C7.10657 42.9218 7.12994 42.952 7.15466 42.9812C7.16796 42.9995 7.18158 43.0169 7.19519 43.0344C7.27607 43.1382 7.35688 43.2415 7.43951 43.3438C7.44804 43.3559 7.45978 43.3712 7.47483 43.3879C7.52622 43.453 7.57785 43.5168 7.62975 43.5806L7.65186 43.6077C7.68488 43.6482 7.7182 43.6891 7.75205 43.7288C7.84161 43.8399 7.93919 43.9569 8.03791 44.0734L8.35875 43.8248L8.04644 44.0834C8.05436 44.093 8.0625 44.1026 8.07103 44.1119C8.08613 44.1286 8.10081 44.1464 8.11564 44.1643C8.15541 44.212 8.1951 44.2577 8.23485 44.3034C8.27417 44.35 8.31725 44.4004 8.36209 44.4503C8.38172 44.474 8.40214 44.4974 8.42266 44.5208L8.45018 44.5523C8.4519 44.5548 8.46144 44.5654 8.47118 44.5758C8.53048 44.6435 8.58902 44.71 8.64845 44.7761L8.69898 44.832C8.76742 44.9085 8.84069 44.9886 8.91345 45.0677C8.93938 45.0976 8.96595 45.1266 8.99239 45.1556L9.02353 45.1897C9.08415 45.2552 9.14148 45.3166 9.1998 45.3777L9.21179 45.3908C9.23587 45.4169 9.26034 45.4434 9.28516 45.4689C9.32645 45.5134 9.37411 45.5634 9.42216 45.6138L9.51185 45.7072C9.56015 45.7573 9.60896 45.8076 9.65786 45.8572L9.731 45.9326C9.81735 46.0213 9.90456 46.1083 9.99192 46.1952C10.0002 46.2038 10.0141 46.218 10.0297 46.2331L10.1073 46.3094C10.1525 46.3542 10.1976 46.3986 10.2432 46.4428C10.2613 46.4615 10.2858 46.4857 10.3113 46.5092L10.4832 46.6746C10.5482 46.7372 10.6134 46.7996 10.6796 46.8615C10.753 46.9312 10.8285 47.0027 10.9055 47.0725C10.9367 47.1028 10.9683 47.1317 11.0011 47.1601C11.0859 47.2387 11.1719 47.3167 11.2588 47.3943C11.289 47.4224 11.3242 47.4536 11.36 47.4853L11.3845 47.5071C11.4031 47.5243 11.4275 47.5456 11.4524 47.5673L11.4709 47.5833C11.5002 47.6099 11.5335 47.6394 11.5686 47.6694C11.6128 47.7095 11.6662 47.7553 11.7202 47.8014L11.7419 47.82C11.7524 47.8294 11.7631 47.8385 11.7735 47.8473L11.7871 47.8591C11.8837 47.9422 11.9805 48.0253 12.079 48.1076C12.1074 48.1323 12.1426 48.1614 12.1772 48.1892C12.2512 48.2517 12.3323 48.3183 12.4135 48.385L12.4797 48.4394C12.4927 48.4509 12.5086 48.4642 12.5261 48.4774C12.5527 48.5001 12.5804 48.5222 12.6079 48.5433C12.6825 48.6047 12.7664 48.6717 12.8515 48.7381C12.8566 48.7424 12.8616 48.7465 12.8667 48.7506C12.8793 48.7616 12.8897 48.7692 12.8954 48.7736L12.9587 48.8232C13.0247 48.8747 13.0906 48.9261 13.1576 48.9775C13.1857 49.0003 13.2199 49.0271 13.2564 49.0531C13.3544 49.1287 13.4525 49.2042 13.552 49.2777C13.6056 49.319 13.6651 49.3645 13.7262 49.408C13.79 49.4554 13.8577 49.5046 13.9261 49.5544L13.9268 49.5557L14.3245 49.8414C14.3413 49.8539 14.3646 49.8698 14.3877 49.8856C14.4575 49.9347 14.5326 49.9866 14.6079 50.0386L14.6877 50.0935C14.8858 50.2312 15.0985 50.3739 15.3564 50.542C15.657 50.738 15.9334 50.9122 16.2013 51.0742C16.2948 51.1326 16.3948 51.1928 16.4952 51.2516C16.5111 51.2625 16.5269 51.2722 16.5429 51.281C16.5935 51.3112 16.6448 51.3409 16.6961 51.3708C16.7555 51.4064 16.8122 51.4396 16.8699 51.4724C16.9466 51.5172 17.0278 51.5632 17.1091 51.6091L17.1774 51.6478C17.2825 51.7079 17.3894 51.7671 17.4962 51.8263C17.5098 51.8346 17.5317 51.8463 17.5542 51.8574C17.6422 51.9058 17.7242 51.9509 17.8078 51.995C17.8986 52.0442 17.9939 52.0946 18.0902 52.1447C18.155 52.1788 18.2209 52.2134 18.2877 52.2475C18.3118 52.2609 18.3355 52.2731 18.3601 52.2851C18.3879 52.2999 18.4164 52.3143 18.4446 52.3278C18.5138 52.364 18.5836 52.399 18.6532 52.4338C18.7896 52.5022 18.9203 52.5668 19.0515 52.63C19.2446 52.7234 19.4402 52.816 19.6367 52.9056L19.9948 53.0717L19.9979 53.0701C20.0439 53.0907 20.0901 53.1111 20.136 53.1317L20.3834 53.242L20.3864 53.2404C20.3871 53.2406 20.3877 53.2409 20.3883 53.2412C20.4798 53.281 20.5615 53.3155 20.6427 53.349L20.779 53.4072C20.8428 53.4336 20.9012 53.4577 20.9595 53.4804C20.981 53.4901 21.0025 53.4988 21.0251 53.507C21.0591 53.5213 21.0936 53.5355 21.1282 53.5495L21.2271 53.5889C21.2758 53.6083 21.3247 53.6277 21.3739 53.6466C21.3849 53.6517 21.3979 53.6571 21.4114 53.6622L21.4947 53.6951C21.5623 53.7216 21.6321 53.7488 21.7022 53.7745L21.7289 53.7847C21.7516 53.7936 21.7745 53.8024 21.7976 53.8108C21.8063 53.8142 21.8153 53.8176 21.8244 53.8207C21.8704 53.8388 21.9167 53.8559 21.9644 53.8732C22.0013 53.8879 22.0391 53.9021 22.0763 53.9153C22.0983 53.9232 22.1231 53.9321 22.1482 53.9406C22.1667 53.9484 22.1859 53.9554 22.2053 53.962C22.2359 53.9736 22.2662 53.9844 22.2972 53.9947C22.3513 54.015 22.4062 54.0346 22.4621 54.054L22.6035 54.1038C22.6334 54.1153 22.6637 54.1256 22.6949 54.1352C22.7556 54.1574 22.8178 54.1781 22.8814 54.1991L23.0225 54.2472C23.108 54.2759 23.1959 54.3048 23.2841 54.3337L23.5726 54.4265C23.6633 54.4549 23.7541 54.4834 23.8452 54.5113C23.9815 54.5532 24.1176 54.5941 24.2539 54.6329C24.275 54.6403 24.2959 54.6466 24.3169 54.6519C24.3822 54.6708 24.4477 54.6896 24.5133 54.7083L24.5148 54.7111L24.9248 54.8224C25.0083 54.8451 25.0928 54.8676 25.1772 54.89L25.4221 54.9527C25.4751 54.9674 25.5342 54.982 25.5946 54.9961C25.6332 55.0068 25.671 55.0161 25.7103 55.0257C25.776 55.0418 25.8428 55.0575 25.9084 55.0727C25.9422 55.0819 25.9745 55.0896 26.007 55.096C26.0592 55.1089 26.1111 55.1212 26.1632 55.1334L26.1892 55.14C26.2572 55.1552 26.3184 55.169 26.3807 55.1823C26.4271 55.1934 26.4817 55.2055 26.5363 55.2175L26.6301 55.2381C26.6789 55.2487 26.7277 55.2595 26.7767 55.2697C26.8333 55.2816 26.8877 55.2929 26.9409 55.3039L26.9454 55.3129L27.1628 55.3488C27.2625 55.3695 27.3613 55.3883 27.46 55.4071C27.5181 55.4183 27.5742 55.4286 27.6301 55.4387L27.7022 55.4519C27.7875 55.4679 27.875 55.4836 27.961 55.4988L27.9996 55.5055C28.0173 55.5087 28.0349 55.5119 28.0526 55.5146C28.1689 55.5352 28.2942 55.5559 28.419 55.5754C28.4208 55.5759 28.4282 55.5771 28.436 55.5782L28.5125 55.5903C28.6062 55.6053 28.6992 55.6201 28.7924 55.6333C28.8699 55.6452 28.9511 55.6567 29.0323 55.6681L29.1594 55.6864C29.2515 55.6989 29.3401 55.7106 29.429 55.7224L29.5315 55.7358C29.6561 55.7519 29.7798 55.7665 29.9037 55.7809C29.9932 55.7914 30.083 55.8012 30.1726 55.8108L30.2734 55.8218C31.4172 55.9411 32.5645 56 33.7084 56ZM59.7234 2.19445L59.7328 2.20322C59.753 2.22182 59.7658 2.23326 59.778 2.24641L59.8153 2.28618C59.8492 2.32209 59.8825 2.36165 59.9144 2.40391C59.9909 2.50526 60.0678 2.60724 60.1431 2.70872C60.3088 2.9322 60.4547 3.13318 60.5891 3.32319C60.8227 3.65421 61.0333 3.96323 61.2327 4.26756C61.348 4.44353 61.4618 4.61926 61.5732 4.7974C61.6779 4.96431 61.7817 5.1321 61.8833 5.29994C62.0607 5.59236 62.2356 5.8913 62.4036 6.18904C62.8953 7.06207 63.3511 7.96574 63.7586 8.87457L63.7589 8.8751C63.8204 9.01198 63.8817 9.15042 63.9415 9.28828C64.06 9.56203 64.1755 9.83987 64.2848 10.1138C64.3632 10.308 64.4383 10.5006 64.5122 10.6952C64.6853 11.1532 64.8479 11.6124 64.995 12.0592C65.0261 12.1523 65.0559 12.2441 65.0846 12.3365C65.2218 12.765 65.3554 13.215 65.4826 13.6778C65.5409 13.8918 65.5971 14.1064 65.6512 14.3221C65.8779 15.2228 66.0673 16.1397 66.2143 17.0475C66.2334 17.1629 66.2516 17.2769 66.2681 17.3904C66.34 17.8651 66.4007 18.3324 66.4486 18.7819C66.4615 18.8987 66.4738 19.0133 66.4842 19.1288C66.4894 19.1751 66.4926 19.2115 66.4959 19.2478L66.5009 19.3024C66.5073 19.3734 66.5137 19.4462 66.5198 19.518C66.5631 20.0261 66.5949 20.5411 66.614 21.0494C66.6175 21.1248 66.6195 21.1964 66.6214 21.2679L66.6219 21.285C66.6272 21.4367 66.6311 21.585 66.6334 21.7329L66.6361 21.9978C66.6415 22.5727 66.6311 23.1571 66.605 23.7354C66.5999 23.8555 66.5945 23.9731 66.5873 24.0917L66.571 24.3698C66.5682 24.4135 66.5653 24.4572 66.562 24.5007C66.5555 24.6077 66.5476 24.7083 66.5397 24.8094L66.5352 24.865C66.5264 24.9854 66.5157 25.1049 66.5049 25.2245C66.4943 25.3447 66.4826 25.4652 66.4704 25.5846C66.4585 25.707 66.4454 25.8272 66.4322 25.9472C66.4191 26.0669 66.4045 26.1862 66.3895 26.3068C66.3743 26.4317 66.3587 26.5542 66.3422 26.6773L66.3321 26.7492C66.319 26.8428 66.3061 26.9361 66.2921 27.0305C66.2733 27.1581 66.2543 27.2861 66.2339 27.4136C66.1967 27.6483 66.1569 27.8836 66.1151 28.1176C66.0713 28.3594 66.0246 28.6008 65.9761 28.8431C65.9267 29.0865 65.8743 29.3304 65.8205 29.5672C65.7454 29.8984 65.6724 30.2018 65.5972 30.4946C65.525 30.7755 65.4435 31.075 65.3481 31.4101C61.2638 45.6243 48.3138 55.1943 33.8 55.1949C32.6611 55.1949 31.5139 55.136 30.3594 55.0158L30.2597 55.005C30.1725 54.9956 30.0852 54.9862 29.998 54.9759C29.8772 54.9617 29.7566 54.9477 29.6365 54.9321L29.1462 54.8658C29.0677 54.8545 28.9893 54.8434 28.9105 54.8314C28.8177 54.8182 28.729 54.8041 28.64 54.7899L28.5467 54.7753C28.4247 54.7558 28.3047 54.7362 28.1852 54.715L28.1457 54.7081C28.1284 54.7051 28.1111 54.7018 28.0936 54.6991C28.0187 54.6858 27.9339 54.6709 27.8504 54.6552L27.7752 54.6413C27.7224 54.6318 27.6695 54.6222 27.6169 54.6119C27.5734 54.6037 27.5309 54.5955 27.4889 54.5875L27.4822 54.574L27.2414 54.5383C27.1456 54.5189 27.0485 54.4985 26.9513 54.4781C26.8951 54.4665 26.8496 54.4565 26.8042 54.4465L26.7113 54.4261C26.6604 54.4149 26.6096 54.4036 26.5583 54.3915C26.4936 54.3777 26.4376 54.3651 26.3819 54.3526L26.3659 54.3486C26.3081 54.335 26.2503 54.3214 26.192 54.3069L26.1686 54.3017C26.1514 54.2985 26.1346 54.2944 26.1166 54.2894L26.0995 54.2851C26.0346 54.27 25.9684 54.2545 25.9031 54.2385C25.8692 54.2303 25.8384 54.2229 25.8068 54.2139L25.7868 54.2087C25.7342 54.1965 25.6823 54.1839 25.6297 54.1694L25.3848 54.1065C25.3022 54.0847 25.2194 54.0627 25.1363 54.0401L24.9043 53.9763C24.7805 53.9419 24.6562 53.9064 24.5328 53.8706L24.4897 53.8572C24.354 53.8189 24.2186 53.7782 24.0826 53.7364C23.993 53.709 23.9041 53.6811 23.8153 53.6532L23.5367 53.5636C23.4505 53.5353 23.3644 53.5071 23.2784 53.4782L23.1465 53.4331C23.0773 53.4102 23.0202 53.3914 22.9645 53.3708L22.941 53.3628C22.9246 53.3579 22.9087 53.3529 22.8931 53.3468L22.7699 53.3033C22.7561 53.298 22.7416 53.2929 22.7271 53.288C22.6748 53.2701 22.6247 53.252 22.5752 53.2335L22.5603 53.2282C22.5352 53.2198 22.5109 53.2111 22.4861 53.2017L22.4688 53.1954C22.4659 53.1946 22.467 53.1952 22.47 53.1969L22.4207 53.1771C22.3968 53.1693 22.3726 53.1605 22.3495 53.1522C22.3176 53.1409 22.2882 53.1299 22.2597 53.1184L22.2467 53.1135C22.2017 53.0971 22.158 53.0813 22.1146 53.0639L22.0792 53.0508C22.0597 53.0438 22.0403 53.0362 22.0211 53.0288L21.9853 53.0151C21.9163 52.9898 21.8519 52.9646 21.7876 52.9395L21.6746 52.8939C21.6248 52.8748 21.5753 52.8551 21.5259 52.8356L21.4338 52.799C21.3992 52.7848 21.3646 52.7708 21.3308 52.7563L21.263 52.7289C21.2069 52.7072 21.1512 52.6842 21.0956 52.6612L20.9575 52.6023C20.8751 52.5682 20.7981 52.5357 20.7222 52.5027C20.6689 52.4795 20.6255 52.4606 20.5826 52.4424L20.4658 52.3914C20.3703 52.3487 20.2741 52.306 20.1786 52.2628C20.1784 52.2628 20.1783 52.2628 20.1782 52.2628L20.0017 52.1618L19.9814 52.1721L19.9753 52.1694C19.7816 52.0811 19.5917 51.9911 19.4036 51.9002C19.2758 51.8385 19.1491 51.7759 19.0233 51.7128C18.9483 51.6754 18.8812 51.6417 18.8145 51.6068L18.8009 51.6C18.7795 51.5897 18.7579 51.5789 18.7369 51.5675L18.7187 51.5583C18.7039 51.5512 18.6896 51.5438 18.675 51.5356L18.6621 51.5288C18.596 51.4951 18.5308 51.4609 18.4655 51.4267C18.3719 51.3779 18.2803 51.3292 18.1896 51.2802C18.1039 51.2349 18.0234 51.1906 17.9431 51.1465L17.9164 51.1325C17.9105 51.1296 17.9043 51.1264 17.8985 51.1229C17.7851 51.06 17.6815 51.0026 17.5783 50.9435L17.508 50.9037C17.43 50.8596 17.3521 50.8155 17.2743 50.7701C17.2179 50.7379 17.1667 50.7079 17.1152 50.677L17.1029 50.6698C17.0516 50.6401 17.0006 50.6105 16.9503 50.5803L16.9194 50.5609C16.8205 50.5031 16.7219 50.4438 16.6254 50.3836C16.3607 50.2235 16.092 50.0542 15.7991 49.8632C15.5479 49.6994 15.3415 49.5609 15.1493 49.4275L15.0681 49.3714C14.9946 49.3207 14.9213 49.2702 14.8483 49.219C14.8293 49.2058 14.8152 49.1965 14.8019 49.1866L14.4569 48.9384C14.3719 48.8765 14.2868 48.8147 14.2024 48.7525C14.1439 48.7105 14.0918 48.6704 14.0395 48.6304C13.9364 48.5541 13.8406 48.4802 13.7448 48.4064L13.7312 48.3963C13.7057 48.3784 13.6821 48.3595 13.6578 48.3401C13.5853 48.2844 13.5217 48.2346 13.4578 48.1847L13.3653 48.1113C13.2742 48.04 13.1929 47.9752 13.112 47.909C13.0846 47.8876 13.0659 47.873 13.0486 47.8576L12.9281 47.759C12.8493 47.6942 12.7706 47.6294 12.6919 47.5633C12.6579 47.5358 12.6305 47.5132 12.6038 47.4901C12.5028 47.4057 12.4092 47.3253 12.3158 47.2449L12.2469 47.1854C12.1985 47.144 12.1504 47.103 12.1035 47.0606C12.0657 47.0282 12.0375 47.0031 12.0087 46.9773L11.9842 46.9557C11.9654 46.9393 11.9468 46.9233 11.9286 46.9065L11.8977 46.8789C11.8659 46.8508 11.8344 46.823 11.8033 46.7942C11.7137 46.7141 11.6297 46.6378 11.5467 46.5609L11.5367 46.5519C11.5123 46.5308 11.4888 46.5093 11.4655 46.4868L11.4546 46.4766C11.3805 46.4095 11.3079 46.3406 11.2352 46.2716C11.17 46.2106 11.1077 46.1512 11.0452 46.0908L10.8666 45.9191C10.8449 45.8989 10.83 45.8841 10.8148 45.8686C10.7639 45.819 10.7202 45.7759 10.6763 45.7325L10.5692 45.6266C10.4792 45.5369 10.395 45.4531 10.3126 45.3685L10.2363 45.2897C10.187 45.2398 10.1405 45.1917 10.0945 45.144L10.0087 45.0547C9.9628 45.0066 9.91708 44.9586 9.87162 44.9098C9.84602 44.8834 9.82699 44.8626 9.80809 44.8421L9.79043 44.8229C9.73065 44.7602 9.67605 44.7018 9.6212 44.6425L9.58958 44.6077C9.56721 44.5834 9.54476 44.5589 9.52285 44.5336L9.51421 44.5238C9.4423 44.4456 9.36992 44.3666 9.29852 44.2869L9.24752 44.2305C9.19375 44.1707 9.13741 44.1067 9.08122 44.0426C9.08061 44.0415 9.07196 44.0319 9.06305 44.0224L9.07145 44.0323L9.03206 43.9867C9.01511 43.9673 8.99805 43.9481 8.98191 43.9283L8.96941 43.9138C8.9283 43.8682 8.88886 43.8219 8.84959 43.7755C8.80997 43.73 8.77422 43.689 8.73903 43.6465C8.71692 43.6199 8.69433 43.593 8.67146 43.5678L8.64921 43.5416C8.56175 43.4381 8.46811 43.326 8.37595 43.2119C8.33913 43.1683 8.30923 43.1316 8.27958 43.0953L8.25808 43.069C8.2056 43.0041 8.152 42.938 8.09871 42.8703L8.06944 42.8341C7.98986 42.7354 7.91207 42.636 7.83374 42.5355C7.8241 42.5232 7.81446 42.5112 7.80535 42.4981L7.77876 42.4643C7.76432 42.4477 7.75108 42.4304 7.73813 42.4122L7.62423 42.264C7.5879 42.2168 7.5516 42.1696 7.51714 42.1215L7.50272 42.1026C7.47711 42.0708 7.45265 42.0377 7.42859 42.0052L7.4192 41.9927C7.37841 41.9376 7.33728 41.8819 7.29748 41.8268L7.28923 41.8157C7.27342 41.7951 7.25697 41.7739 7.24263 41.7527L7.14839 41.6238C7.11403 41.5767 7.0798 41.5295 7.04635 41.4818L6.96233 41.3643C6.92132 41.3067 6.88043 41.2491 6.84015 41.1912L6.82065 41.1628L6.73268 41.0367C6.71181 41.008 6.69562 40.9841 6.67932 40.9602C6.33466 40.4603 6.00062 39.9448 5.68561 39.4268C5.53365 39.1791 5.37282 38.9068 5.19294 38.5929C5.12476 38.4716 5.05508 38.3476 4.98629 38.2232C4.91461 38.0946 4.84506 37.9657 4.77599 37.8376L4.76314 37.8139C4.69915 37.6941 4.63492 37.5711 4.57055 37.4481C3.95755 36.2691 3.40809 35.032 2.93781 33.772C2.84155 33.5158 2.74173 33.2365 2.63216 32.9174C2.48466 32.4847 2.34543 32.0476 2.21867 31.6192C2.17594 31.4744 2.13393 31.3288 2.09291 31.1825C2.00396 30.8651 1.92738 30.5773 1.85881 30.3026C1.85127 30.2738 1.84608 30.2496 1.8409 30.2255C1.83768 30.2097 1.83389 30.1891 1.83115 30.1689C1.79409 29.9348 1.80765 29.7155 1.87004 29.5065C1.95206 29.2339 2.11502 28.9878 2.34095 28.7958C2.5097 28.6536 2.71107 28.5457 2.92245 28.4847C3.0451 28.4496 3.17272 28.4307 3.30094 28.4288L3.34084 28.4281C3.3942 28.4288 3.44338 28.4321 3.49031 28.4385L3.50526 28.4404C3.5353 28.4433 3.56543 28.4483 3.59508 28.454C3.79941 28.4936 3.99533 28.5787 4.17734 28.7068L4.50766 28.9378C4.64984 29.0364 4.79314 29.1327 4.9367 29.2273L5.20354 29.4038C5.28483 29.4571 5.365 29.508 5.44533 29.559L5.54784 29.6242C7.7506 31.0205 10.1183 32.1587 12.5865 33.0081C12.7223 33.0547 12.8546 33.0999 12.9868 33.1427C13.1187 33.1864 13.253 33.2306 13.3887 33.2729C13.5206 33.3148 13.6551 33.356 13.7895 33.397C14.6081 33.6448 15.4419 33.8636 16.2688 34.0474C16.4217 34.0815 16.5738 34.1136 16.7259 34.1457C16.8886 34.1797 17.051 34.2122 17.2132 34.2437L17.2364 34.2483C17.3992 34.28 17.5611 34.3097 17.7234 34.3381C17.8767 34.3651 18.0302 34.3912 18.1835 34.4173C18.4636 34.4621 18.7196 34.5003 18.9702 34.5348C19.1746 34.5637 19.3797 34.5909 19.5857 34.6151C19.6594 34.6242 19.7355 34.6334 19.8108 34.6418C19.9331 34.6556 20.0574 34.6692 20.1805 34.6808C20.2348 34.6867 20.2946 34.693 20.3553 34.699L20.4692 34.7095C20.5423 34.7164 20.6154 34.7232 20.688 34.7292C22.5874 34.8948 24.5145 34.8963 26.4141 34.7337C34.5293 34.042 42.1369 30.4178 47.8351 24.5288C51.3355 20.9108 53.9209 16.6622 55.5197 11.9009L55.5433 11.8307C55.5591 11.7839 55.5748 11.7371 55.5901 11.69C55.625 11.5842 55.6592 11.4768 55.6933 11.3695C55.7585 11.1632 55.823 10.9576 55.8841 10.75C55.93 10.5963 55.9752 10.4392 56.0189 10.2815C56.0582 10.1432 56.0971 10.0032 56.1341 9.86173C56.1436 9.82922 56.1518 9.79631 56.1601 9.76332C56.1865 9.66502 56.2135 9.56046 56.2401 9.45485C56.2582 9.38536 56.2766 9.3111 56.2943 9.23743C56.3224 9.12785 56.3497 9.01198 56.3768 8.89615L56.394 8.82286C56.4176 8.72353 56.4391 8.62772 56.4607 8.53168L56.4962 8.37262C56.5513 8.12192 56.6069 7.85224 56.6649 7.55431C56.6874 7.44177 56.709 7.32795 56.7293 7.21361C56.7493 7.10624 56.7691 6.99588 56.7873 6.88499C56.8975 6.25317 56.9908 5.60352 57.0642 4.95773C57.0773 4.84269 57.0897 4.72904 57.1009 4.61484C57.1206 4.43596 57.138 4.25082 57.1545 4.06613C57.164 3.95885 57.1733 3.85297 57.1809 3.74661C57.195 3.57958 57.207 3.40779 57.2175 3.23547C57.2198 3.20058 57.2228 3.16332 57.2278 3.1261C57.3292 2.34195 57.9503 1.90891 58.5211 1.82663C58.5848 1.81737 58.6457 1.81219 58.7028 1.81112L58.7723 1.81279C59.0688 1.82 59.3463 1.91179 59.5783 2.07827L59.7234 2.19445ZM27.1719 54.9671L27.1708 54.9677L27.1777 54.9388L27.1719 54.9671ZM22.4742 53.1988C22.4744 53.1988 22.4746 53.1989 22.4748 53.1991L22.4742 53.1988ZM20.1903 52.2693L20.1904 52.2695L20.1903 52.2693ZM13.3879 48.1298C13.3885 48.1303 13.3894 48.131 13.3907 48.132L13.3879 48.1298ZM64.1285 8.70873H64.1273H64.1285Z" fill="white"/>
<path d="M33.7084 56C40.3607 56.0002 46.9359 54.0076 52.5328 50.2485C59.1217 45.8234 63.9499 39.2123 66.1277 31.633C66.2252 31.2902 66.3085 30.9841 66.3825 30.6963C66.4596 30.3958 66.5345 30.0852 66.6112 29.7465C66.6663 29.5038 66.72 29.2537 66.7708 29.0036C66.8207 28.7552 66.8684 28.5086 66.913 28.261C66.956 28.021 66.9968 27.7802 67.0346 27.5409C67.0553 27.411 67.0748 27.2799 67.0942 27.1487C67.1084 27.0521 67.1218 26.957 67.1351 26.8614L67.1455 26.7874C67.1627 26.6585 67.1787 26.5328 67.1942 26.406C67.2095 26.2826 67.2246 26.1593 67.2381 26.0356C67.2516 25.9122 67.2652 25.7888 67.2772 25.6649C67.2895 25.544 67.3015 25.4201 67.3126 25.2966C67.3236 25.1729 67.3346 25.0491 67.3437 24.9263L67.3479 24.8728C67.3562 24.767 67.3644 24.6618 67.3708 24.5565C67.374 24.5161 67.3771 24.4691 67.3801 24.4218L67.3967 24.1366C67.4041 24.0173 67.4098 23.8945 67.415 23.7706C67.4417 23.179 67.4525 22.5796 67.4468 21.9906L67.4441 21.7233C67.4417 21.5672 67.4376 21.4136 67.4323 21.2595L67.4318 21.2454C67.4297 21.1689 67.4276 21.0924 67.424 21.0155C67.4045 20.4977 67.372 19.9699 67.3276 19.4499C67.3216 19.377 67.3149 19.3023 67.3081 19.2275L67.3033 19.1749C67.2995 19.1318 67.2955 19.0887 67.2906 19.046C67.2807 18.9354 67.2679 18.8155 67.2547 18.6946C67.2056 18.2346 67.1435 17.7553 67.07 17.2712C67.0531 17.1546 67.0342 17.035 67.0143 16.916C66.8639 15.9873 66.6697 15.0474 66.4375 14.1244C66.382 13.9036 66.3246 13.6836 66.2645 13.4637C66.1342 12.9893 65.9973 12.5283 65.8577 12.0927C65.8285 11.9984 65.7969 11.9009 65.7645 11.8038C65.6142 11.3477 65.4478 10.8775 65.2704 10.4079C65.1943 10.2076 65.117 10.0097 65.0372 9.81182C64.9257 9.53225 64.8071 9.24714 64.6855 8.96601C64.6241 8.82455 64.5615 8.68297 64.4984 8.54284C64.0809 7.61154 63.6137 6.68565 63.1098 5.79084C62.9375 5.48539 62.7582 5.179 62.5768 4.87988C62.4732 4.70865 62.367 4.53694 62.2601 4.36684C62.1461 4.18451 62.0294 4.00419 61.911 3.8233C61.7063 3.51091 61.4905 3.19438 61.2512 2.85526C61.113 2.65982 60.9636 2.45408 60.7943 2.22572C60.7175 2.12232 60.6392 2.01851 60.5617 1.91564C60.5121 1.84991 60.4592 1.78722 60.4049 1.72958C60.394 1.71723 60.3803 1.70228 60.3657 1.68788C60.3431 1.664 60.32 1.64194 60.2962 1.61983C60.284 1.60718 60.2707 1.59506 60.2565 1.58345C60.2436 1.57189 60.2306 1.56065 60.2176 1.54952L60.1951 1.53006C60.1698 1.50861 60.1508 1.49424 60.1315 1.48007L60.1062 1.46067C60.0912 1.4488 60.0761 1.43701 60.0608 1.42578L60.0432 1.41355C59.6801 1.15542 59.249 1.01323 58.7958 1.0021C58.7904 1.00157 58.7785 1.00099 58.7668 1.00086L58.7032 1L58.696 1.00013C58.6026 1.00149 58.5048 1.00954 58.4052 1.02396C57.3553 1.17528 56.559 1.97742 56.4243 3.01994C56.4172 3.07256 56.4125 3.12724 56.4086 3.18307C56.3984 3.35213 56.3869 3.51762 56.3729 3.68308C56.3651 3.78977 56.3564 3.89108 56.3471 3.99392C56.3312 4.17302 56.3145 4.35247 56.2947 4.53099C56.2836 4.64605 56.2714 4.75525 56.2589 4.86594C56.1874 5.49584 56.0963 6.12945 55.9882 6.74931C55.9703 6.8584 55.9515 6.96307 55.9319 7.06827C55.912 7.18045 55.8914 7.28858 55.8697 7.39724C55.8126 7.69057 55.7582 7.95415 55.7032 8.2048L56.0954 8.30863L55.7004 8.2175C55.6983 8.22651 55.6963 8.23554 55.6945 8.24447L55.6699 8.35392C55.649 8.44664 55.6282 8.53909 55.6063 8.63169L55.5878 8.71037C55.5618 8.82106 55.5359 8.9318 55.5076 9.04256C55.4898 9.11697 55.4726 9.18554 55.4549 9.25319C55.4284 9.35869 55.4023 9.45941 55.3752 9.56079C55.3678 9.59062 55.3623 9.61372 55.3555 9.63638L55.3514 9.6506C55.3154 9.78866 55.2775 9.92526 55.2386 10.0623C55.1957 10.2171 55.152 10.3691 55.1072 10.5191C55.047 10.723 54.984 10.9238 54.9208 11.1243C54.8876 11.2284 54.8542 11.3332 54.82 11.4376C54.8051 11.4831 54.7902 11.5273 54.7752 11.5715L54.7511 11.6432C53.1914 16.2884 50.6685 20.4342 47.2529 23.9646C41.6908 29.713 34.2657 33.2505 26.3454 33.9255C24.4921 34.0841 22.6119 34.0826 20.7566 33.921C20.6851 33.9151 20.6152 33.9085 20.5454 33.902L20.431 33.8914C20.3757 33.886 20.3191 33.88 20.2625 33.874C20.1387 33.8622 20.0196 33.8491 19.9014 33.8357C19.8282 33.8276 19.7556 33.8187 19.6829 33.8098C19.4808 33.7861 19.2821 33.7597 19.0824 33.7315C18.8363 33.6976 18.5859 33.6602 18.3157 33.6171C18.1679 33.5919 18.0162 33.5661 17.864 33.5393C17.7049 33.5115 17.5466 33.4823 17.3875 33.4513L17.3642 33.4467C17.2071 33.4162 17.0497 33.3847 16.8927 33.352C16.7444 33.3207 16.5952 33.2891 16.4452 33.2557C15.638 33.0762 14.824 32.8627 14.0258 32.621C13.8951 32.5811 13.7636 32.541 13.6325 32.4993C13.499 32.4577 13.3691 32.4147 13.2391 32.3718C13.1091 32.3297 12.9812 32.2859 12.8546 32.2425C10.4422 31.4123 8.13168 30.3016 5.98352 28.9399L5.88025 28.8743C5.80328 28.8254 5.72631 28.7766 5.65022 28.7267L5.38449 28.5509C5.24488 28.4588 5.10702 28.3663 4.97065 28.2717L4.6418 28.0418C4.36818 27.8492 4.06726 27.7194 3.74987 27.6578C3.6981 27.6477 3.6455 27.6394 3.59311 27.634C3.49651 27.6211 3.39804 27.615 3.29021 27.6173L3.19248 27.6213C3.02557 27.6309 2.85991 27.6591 2.69882 27.7051C2.37812 27.7978 2.07373 27.9607 1.81767 28.1766C1.47103 28.4708 1.22109 28.8498 1.09376 29.2736C0.996178 29.6007 0.974518 29.9408 1.02924 30.2853C1.03294 30.3143 1.03999 30.3543 1.04789 30.3924C1.05629 30.4316 1.06421 30.4669 1.07359 30.5028C1.14301 30.7809 1.22147 31.0762 1.31251 31.4009C1.3545 31.5508 1.39749 31.6999 1.44136 31.8486C1.57145 32.2879 1.71399 32.7355 1.86533 33.1795C1.97777 33.5069 2.08016 33.7934 2.17888 34.056C2.66029 35.3459 3.22337 36.6136 3.85192 37.8227C3.91778 37.9486 3.98326 38.0735 4.04909 38.1969L4.06268 38.2222C4.13359 38.3537 4.20499 38.486 4.27778 38.6164C4.34682 38.7413 4.41747 38.8671 4.48825 38.9929C4.67368 39.3165 4.83863 39.5957 4.99403 39.8491C5.3162 40.3789 5.65874 40.9074 6.01107 41.4186C6.03108 41.448 6.0522 41.4786 6.07432 41.509L6.17957 41.6607C6.21901 41.7172 6.25888 41.7734 6.29891 41.8296C6.30743 41.8423 6.31596 41.8542 6.32535 41.866L6.38217 41.946C6.41888 41.9983 6.45569 42.0491 6.4926 42.0999L6.57771 42.2159C6.59859 42.2463 6.62146 42.2765 6.64405 42.306C6.68459 42.3622 6.72633 42.4187 6.7682 42.4753L6.77784 42.4883C6.80613 42.5264 6.83504 42.5651 6.86492 42.6026C6.90297 42.6553 6.94275 42.7072 6.98219 42.7584L7.08385 42.8903C7.10657 42.9218 7.12994 42.952 7.15466 42.9812C7.16796 42.9995 7.18158 43.0169 7.19519 43.0344C7.27607 43.1382 7.35688 43.2415 7.43951 43.3438C7.44804 43.3559 7.45978 43.3712 7.47483 43.3879C7.52622 43.453 7.57785 43.5168 7.62975 43.5806L7.65186 43.6077C7.68488 43.6482 7.7182 43.6891 7.75205 43.7288C7.84161 43.8399 7.93919 43.9569 8.03791 44.0734L8.35875 43.8248L8.04644 44.0834C8.05436 44.093 8.0625 44.1026 8.07103 44.1119C8.08613 44.1286 8.10081 44.1464 8.11564 44.1643C8.15541 44.212 8.1951 44.2577 8.23485 44.3034C8.27417 44.35 8.31725 44.4004 8.36209 44.4503C8.38172 44.474 8.40214 44.4974 8.42266 44.5208L8.45018 44.5523C8.4519 44.5548 8.46144 44.5654 8.47118 44.5758C8.53048 44.6435 8.58902 44.71 8.64845 44.7761L8.69898 44.832C8.76742 44.9085 8.84069 44.9886 8.91345 45.0677C8.93938 45.0976 8.96595 45.1266 8.99239 45.1556L9.02353 45.1897C9.08415 45.2552 9.14148 45.3166 9.1998 45.3777L9.21179 45.3908C9.23587 45.4169 9.26034 45.4434 9.28516 45.4689C9.32645 45.5134 9.37411 45.5634 9.42216 45.6138L9.51185 45.7072C9.56015 45.7573 9.60896 45.8076 9.65786 45.8572L9.731 45.9326C9.81735 46.0213 9.90456 46.1083 9.99192 46.1952C10.0002 46.2038 10.0141 46.218 10.0297 46.2331L10.1073 46.3094C10.1525 46.3542 10.1976 46.3986 10.2432 46.4428C10.2613 46.4615 10.2858 46.4857 10.3113 46.5092L10.4832 46.6746C10.5482 46.7372 10.6134 46.7996 10.6796 46.8615C10.753 46.9312 10.8285 47.0027 10.9055 47.0725C10.9367 47.1028 10.9683 47.1317 11.0011 47.1601C11.0859 47.2387 11.1719 47.3167 11.2588 47.3943C11.289 47.4224 11.3242 47.4536 11.36 47.4853L11.3845 47.5071C11.4031 47.5243 11.4275 47.5456 11.4524 47.5673L11.4709 47.5833C11.5002 47.6099 11.5335 47.6394 11.5686 47.6694C11.6128 47.7095 11.6662 47.7553 11.7202 47.8014L11.7419 47.82C11.7524 47.8294 11.7631 47.8385 11.7735 47.8473L11.7871 47.8591C11.8837 47.9422 11.9805 48.0253 12.079 48.1076C12.1074 48.1323 12.1426 48.1614 12.1772 48.1892C12.2512 48.2517 12.3323 48.3183 12.4135 48.385L12.4797 48.4394C12.4927 48.4509 12.5086 48.4642 12.5261 48.4774C12.5527 48.5001 12.5804 48.5222 12.6079 48.5433C12.6825 48.6047 12.7664 48.6717 12.8515 48.7381C12.8566 48.7424 12.8616 48.7465 12.8667 48.7506C12.8793 48.7616 12.8897 48.7692 12.8954 48.7736L12.9587 48.8232C13.0247 48.8747 13.0906 48.9261 13.1576 48.9775C13.1857 49.0003 13.2199 49.0271 13.2564 49.0531C13.3544 49.1287 13.4525 49.2042 13.552 49.2777C13.6056 49.319 13.6651 49.3645 13.7262 49.408C13.79 49.4554 13.8577 49.5046 13.9261 49.5544L13.9268 49.5557L14.3245 49.8414C14.3413 49.8539 14.3646 49.8698 14.3877 49.8856C14.4575 49.9347 14.5326 49.9866 14.6079 50.0386L14.6877 50.0935C14.8858 50.2312 15.0985 50.3739 15.3564 50.542C15.657 50.738 15.9334 50.9122 16.2013 51.0742C16.2948 51.1326 16.3948 51.1928 16.4952 51.2516C16.5111 51.2625 16.5269 51.2722 16.5429 51.281C16.5935 51.3112 16.6448 51.3409 16.6961 51.3708C16.7555 51.4064 16.8122 51.4396 16.8699 51.4724C16.9466 51.5172 17.0278 51.5632 17.1091 51.6091L17.1774 51.6478C17.2825 51.7079 17.3894 51.7671 17.4962 51.8263C17.5098 51.8346 17.5317 51.8463 17.5542 51.8574C17.6422 51.9058 17.7242 51.9509 17.8078 51.995C17.8986 52.0442 17.9939 52.0946 18.0902 52.1447C18.155 52.1788 18.2209 52.2134 18.2877 52.2475C18.3118 52.2609 18.3355 52.2731 18.3601 52.2851C18.3879 52.2999 18.4164 52.3143 18.4446 52.3278C18.5138 52.364 18.5836 52.399 18.6532 52.4338C18.7896 52.5022 18.9203 52.5668 19.0515 52.63C19.2446 52.7234 19.4402 52.816 19.6367 52.9056L19.9948 53.0717L19.9979 53.0701C20.0439 53.0907 20.0901 53.1111 20.136 53.1317L20.3834 53.242L20.3864 53.2404C20.3871 53.2406 20.3877 53.2409 20.3883 53.2412C20.4798 53.281 20.5615 53.3155 20.6427 53.349L20.779 53.4072C20.8428 53.4336 20.9012 53.4577 20.9595 53.4804C20.981 53.4901 21.0025 53.4988 21.0251 53.507C21.0591 53.5213 21.0936 53.5355 21.1282 53.5495L21.2271 53.5889C21.2758 53.6083 21.3247 53.6277 21.3739 53.6466C21.3849 53.6517 21.3979 53.6571 21.4114 53.6622L21.4947 53.6951C21.5623 53.7216 21.6321 53.7488 21.7022 53.7745L21.7289 53.7847C21.7516 53.7936 21.7745 53.8024 21.7976 53.8108C21.8063 53.8142 21.8153 53.8176 21.8244 53.8207C21.8704 53.8388 21.9167 53.8559 21.9644 53.8732C22.0013 53.8879 22.0391 53.9021 22.0763 53.9153C22.0983 53.9232 22.1231 53.9321 22.1482 53.9406C22.1667 53.9484 22.1859 53.9554 22.2053 53.962C22.2359 53.9736 22.2662 53.9844 22.2972 53.9947C22.3513 54.015 22.4062 54.0346 22.4621 54.054L22.6035 54.1038C22.6334 54.1153 22.6637 54.1256 22.6949 54.1352C22.7556 54.1574 22.8178 54.1781 22.8814 54.1991L23.0225 54.2472C23.108 54.2759 23.1959 54.3048 23.2841 54.3337L23.5726 54.4265C23.6633 54.4549 23.7541 54.4834 23.8452 54.5113C23.9815 54.5532 24.1176 54.5941 24.2539 54.6329C24.275 54.6403 24.2959 54.6466 24.3169 54.6519C24.3822 54.6708 24.4477 54.6896 24.5133 54.7083L24.5148 54.7111L24.9248 54.8224C25.0083 54.8451 25.0928 54.8676 25.1772 54.89L25.4221 54.9527C25.4751 54.9674 25.5342 54.982 25.5946 54.9961C25.6332 55.0068 25.671 55.0161 25.7103 55.0257C25.776 55.0418 25.8428 55.0575 25.9084 55.0727C25.9422 55.0819 25.9745 55.0896 26.007 55.096C26.0592 55.1089 26.1111 55.1212 26.1632 55.1334L26.1892 55.14C26.2572 55.1552 26.3184 55.169 26.3807 55.1823C26.4271 55.1934 26.4817 55.2055 26.5363 55.2175L26.6301 55.2381C26.6789 55.2487 26.7277 55.2595 26.7767 55.2697C26.8333 55.2816 26.8877 55.2929 26.9409 55.3039L26.9454 55.3129L27.1628 55.3488C27.2625 55.3695 27.3613 55.3883 27.46 55.4071C27.5181 55.4183 27.5742 55.4286 27.6301 55.4387L27.7022 55.4519C27.7875 55.4679 27.875 55.4836 27.961 55.4988L27.9996 55.5055C28.0173 55.5087 28.0349 55.5119 28.0526 55.5146C28.1689 55.5352 28.2942 55.5559 28.419 55.5754C28.4208 55.5759 28.4282 55.5771 28.436 55.5782L28.5125 55.5903C28.6062 55.6053 28.6992 55.6201 28.7924 55.6333C28.8699 55.6452 28.9511 55.6567 29.0323 55.6681L29.1594 55.6864C29.2515 55.6989 29.3401 55.7106 29.429 55.7224L29.5315 55.7358C29.6561 55.7519 29.7798 55.7665 29.9037 55.7809C29.9932 55.7914 30.083 55.8012 30.1726 55.8108L30.2734 55.8218C31.4172 55.9411 32.5645 56 33.7084 56ZM59.7234 2.19445L59.7328 2.20322C59.753 2.22182 59.7658 2.23326 59.778 2.24641L59.8153 2.28618C59.8492 2.32209 59.8825 2.36165 59.9144 2.40391C59.9909 2.50526 60.0678 2.60724 60.1431 2.70872C60.3088 2.9322 60.4547 3.13318 60.5891 3.32319C60.8227 3.65421 61.0333 3.96323 61.2327 4.26756C61.348 4.44353 61.4618 4.61926 61.5732 4.7974C61.6779 4.96431 61.7817 5.1321 61.8833 5.29994C62.0607 5.59236 62.2356 5.8913 62.4036 6.18904C62.8953 7.06207 63.3511 7.96574 63.7586 8.87457L63.7589 8.8751C63.8204 9.01198 63.8817 9.15042 63.9415 9.28828C64.06 9.56203 64.1755 9.83987 64.2848 10.1138C64.3632 10.308 64.4383 10.5006 64.5122 10.6952C64.6853 11.1532 64.8479 11.6124 64.995 12.0592C65.0261 12.1523 65.0559 12.2441 65.0846 12.3365C65.2218 12.765 65.3554 13.215 65.4826 13.6778C65.5409 13.8918 65.5971 14.1064 65.6512 14.3221C65.8779 15.2228 66.0673 16.1397 66.2143 17.0475C66.2334 17.1629 66.2516 17.2769 66.2681 17.3904C66.34 17.8651 66.4007 18.3324 66.4486 18.7819C66.4615 18.8987 66.4738 19.0133 66.4842 19.1288C66.4894 19.1751 66.4926 19.2115 66.4959 19.2478L66.5009 19.3024C66.5073 19.3734 66.5137 19.4462 66.5198 19.518C66.5631 20.0261 66.5949 20.5411 66.614 21.0494C66.6175 21.1248 66.6195 21.1964 66.6214 21.2679L66.6219 21.285C66.6272 21.4367 66.6311 21.585 66.6334 21.7329L66.6361 21.9978C66.6415 22.5727 66.6311 23.1571 66.605 23.7354C66.5999 23.8555 66.5945 23.9731 66.5873 24.0917L66.571 24.3698C66.5682 24.4135 66.5653 24.4572 66.562 24.5007C66.5555 24.6077 66.5476 24.7083 66.5397 24.8094L66.5352 24.865C66.5264 24.9854 66.5157 25.1049 66.5049 25.2245C66.4943 25.3447 66.4826 25.4652 66.4704 25.5846C66.4585 25.707 66.4454 25.8272 66.4322 25.9472C66.4191 26.0669 66.4045 26.1862 66.3895 26.3068C66.3743 26.4317 66.3587 26.5542 66.3422 26.6773L66.3321 26.7492C66.319 26.8428 66.3061 26.9361 66.2921 27.0305C66.2733 27.1581 66.2543 27.2861 66.2339 27.4136C66.1967 27.6483 66.1569 27.8836 66.1151 28.1176C66.0713 28.3594 66.0246 28.6008 65.9761 28.8431C65.9267 29.0865 65.8743 29.3304 65.8205 29.5672C65.7454 29.8984 65.6724 30.2018 65.5972 30.4946C65.525 30.7755 65.4435 31.075 65.3481 31.4101C61.2638 45.6243 48.3138 55.1943 33.8 55.1949C32.6611 55.1949 31.5139 55.136 30.3594 55.0158L30.2597 55.005C30.1725 54.9956 30.0852 54.9862 29.998 54.9759C29.8772 54.9617 29.7566 54.9477 29.6365 54.9321L29.1462 54.8658C29.0677 54.8545 28.9893 54.8434 28.9105 54.8314C28.8177 54.8182 28.729 54.8041 28.64 54.7899L28.5467 54.7753C28.4247 54.7558 28.3047 54.7362 28.1852 54.715L28.1457 54.7081C28.1284 54.7051 28.1111 54.7018 28.0936 54.6991C28.0187 54.6858 27.9339 54.6709 27.8504 54.6552L27.7752 54.6413C27.7224 54.6318 27.6695 54.6222 27.6169 54.6119C27.5734 54.6037 27.5309 54.5955 27.4889 54.5875L27.4822 54.574L27.2414 54.5383C27.1456 54.5189 27.0485 54.4985 26.9513 54.4781C26.8951 54.4665 26.8496 54.4565 26.8042 54.4465L26.7113 54.4261C26.6604 54.4149 26.6096 54.4036 26.5583 54.3915C26.4936 54.3777 26.4376 54.3651 26.3819 54.3526L26.3659 54.3486C26.3081 54.335 26.2503 54.3214 26.192 54.3069L26.1686 54.3017C26.1514 54.2985 26.1346 54.2944 26.1166 54.2894L26.0995 54.2851C26.0346 54.27 25.9684 54.2545 25.9031 54.2385C25.8692 54.2303 25.8384 54.2229 25.8068 54.2139L25.7868 54.2087C25.7342 54.1965 25.6823 54.1839 25.6297 54.1694L25.3848 54.1065C25.3022 54.0847 25.2194 54.0627 25.1363 54.0401L24.9043 53.9763C24.7805 53.9419 24.6562 53.9064 24.5328 53.8706L24.4897 53.8572C24.354 53.8189 24.2186 53.7782 24.0826 53.7364C23.993 53.709 23.9041 53.6811 23.8153 53.6532L23.5367 53.5636C23.4505 53.5353 23.3644 53.5071 23.2784 53.4782L23.1465 53.4331C23.0773 53.4102 23.0202 53.3914 22.9645 53.3708L22.941 53.3628C22.9246 53.3579 22.9087 53.3529 22.8931 53.3468L22.7699 53.3033C22.7561 53.298 22.7416 53.2929 22.7271 53.288C22.6748 53.2701 22.6247 53.252 22.5752 53.2335L22.5603 53.2282C22.5352 53.2198 22.5109 53.2111 22.4861 53.2017L22.4688 53.1954C22.4659 53.1946 22.467 53.1952 22.47 53.1969L22.4207 53.1771C22.3968 53.1693 22.3726 53.1605 22.3495 53.1522C22.3176 53.1409 22.2882 53.1299 22.2597 53.1184L22.2467 53.1135C22.2017 53.0971 22.158 53.0813 22.1146 53.0639L22.0792 53.0508C22.0597 53.0438 22.0403 53.0362 22.0211 53.0288L21.9853 53.0151C21.9163 52.9898 21.8519 52.9646 21.7876 52.9395L21.6746 52.8939C21.6248 52.8748 21.5753 52.8551 21.5259 52.8356L21.4338 52.799C21.3992 52.7848 21.3646 52.7708 21.3308 52.7563L21.263 52.7289C21.2069 52.7072 21.1512 52.6842 21.0956 52.6612L20.9575 52.6023C20.8751 52.5682 20.7981 52.5357 20.7222 52.5027C20.6689 52.4795 20.6255 52.4606 20.5826 52.4424L20.4658 52.3914C20.3703 52.3487 20.2741 52.306 20.1786 52.2628C20.1784 52.2628 20.1783 52.2628 20.1782 52.2628L20.0017 52.1618L19.9814 52.1721L19.9753 52.1694C19.7816 52.0811 19.5917 51.9911 19.4036 51.9002C19.2758 51.8385 19.1491 51.7759 19.0233 51.7128C18.9483 51.6754 18.8812 51.6417 18.8145 51.6068L18.8009 51.6C18.7795 51.5897 18.7579 51.5789 18.7369 51.5675L18.7187 51.5583C18.7039 51.5512 18.6896 51.5438 18.675 51.5356L18.6621 51.5288C18.596 51.4951 18.5308 51.4609 18.4655 51.4267C18.3719 51.3779 18.2803 51.3292 18.1896 51.2802C18.1039 51.2349 18.0234 51.1906 17.9431 51.1465L17.9164 51.1325C17.9105 51.1296 17.9043 51.1264 17.8985 51.1229C17.7851 51.06 17.6815 51.0026 17.5783 50.9435L17.508 50.9037C17.43 50.8596 17.3521 50.8155 17.2743 50.7701C17.2179 50.7379 17.1667 50.7079 17.1152 50.677L17.1029 50.6698C17.0516 50.6401 17.0006 50.6105 16.9503 50.5803L16.9194 50.5609C16.8205 50.5031 16.7219 50.4438 16.6254 50.3836C16.3607 50.2235 16.092 50.0542 15.7991 49.8632C15.5479 49.6994 15.3415 49.5609 15.1493 49.4275L15.0681 49.3714C14.9946 49.3207 14.9213 49.2702 14.8483 49.219C14.8293 49.2058 14.8152 49.1965 14.8019 49.1866L14.4569 48.9384C14.3719 48.8765 14.2868 48.8147 14.2024 48.7525C14.1439 48.7105 14.0918 48.6704 14.0395 48.6304C13.9364 48.5541 13.8406 48.4802 13.7448 48.4064L13.7312 48.3963C13.7057 48.3784 13.6821 48.3595 13.6578 48.3401C13.5853 48.2844 13.5217 48.2346 13.4578 48.1847L13.3653 48.1113C13.2742 48.04 13.1929 47.9752 13.112 47.909C13.0846 47.8876 13.0659 47.873 13.0486 47.8576L12.9281 47.759C12.8493 47.6942 12.7706 47.6294 12.6919 47.5633C12.6579 47.5358 12.6305 47.5132 12.6038 47.4901C12.5028 47.4057 12.4092 47.3253 12.3158 47.2449L12.2469 47.1854C12.1985 47.144 12.1504 47.103 12.1035 47.0606C12.0657 47.0282 12.0375 47.0031 12.0087 46.9773L11.9842 46.9557C11.9654 46.9393 11.9468 46.9233 11.9286 46.9065L11.8977 46.8789C11.8659 46.8508 11.8344 46.823 11.8033 46.7942C11.7137 46.7141 11.6297 46.6378 11.5467 46.5609L11.5367 46.5519C11.5123 46.5308 11.4888 46.5093 11.4655 46.4868L11.4546 46.4766C11.3805 46.4095 11.3079 46.3406 11.2352 46.2716C11.17 46.2106 11.1077 46.1512 11.0452 46.0908L10.8666 45.9191C10.8449 45.8989 10.83 45.8841 10.8148 45.8686C10.7639 45.819 10.7202 45.7759 10.6763 45.7325L10.5692 45.6266C10.4792 45.5369 10.395 45.4531 10.3126 45.3685L10.2363 45.2897C10.187 45.2398 10.1405 45.1917 10.0945 45.144L10.0087 45.0547C9.9628 45.0066 9.91708 44.9586 9.87162 44.9098C9.84602 44.8834 9.82699 44.8626 9.80809 44.8421L9.79043 44.8229C9.73065 44.7602 9.67605 44.7018 9.6212 44.6425L9.58958 44.6077C9.56721 44.5834 9.54476 44.5589 9.52285 44.5336L9.51421 44.5238C9.4423 44.4456 9.36992 44.3666 9.29852 44.2869L9.24752 44.2305C9.19375 44.1707 9.13741 44.1067 9.08122 44.0426C9.08061 44.0415 9.07196 44.0319 9.06305 44.0224L9.07145 44.0323L9.03206 43.9867C9.01511 43.9673 8.99805 43.9481 8.98191 43.9283L8.96941 43.9138C8.9283 43.8682 8.88886 43.8219 8.84959 43.7755C8.80997 43.73 8.77422 43.689 8.73903 43.6465C8.71692 43.6199 8.69433 43.593 8.67146 43.5678L8.64921 43.5416C8.56175 43.4381 8.46811 43.326 8.37595 43.2119C8.33913 43.1683 8.30923 43.1316 8.27958 43.0953L8.25808 43.069C8.2056 43.0041 8.152 42.938 8.09871 42.8703L8.06944 42.8341C7.98986 42.7354 7.91207 42.636 7.83374 42.5355C7.8241 42.5232 7.81446 42.5112 7.80535 42.4981L7.77876 42.4643C7.76432 42.4477 7.75108 42.4304 7.73813 42.4122L7.62423 42.264C7.5879 42.2168 7.5516 42.1696 7.51714 42.1215L7.50272 42.1026C7.47711 42.0708 7.45265 42.0377 7.42859 42.0052L7.4192 41.9927C7.37841 41.9376 7.33728 41.8819 7.29748 41.8268L7.28923 41.8157C7.27342 41.7951 7.25697 41.7739 7.24263 41.7527L7.14839 41.6238C7.11403 41.5767 7.0798 41.5295 7.04635 41.4818L6.96233 41.3643C6.92132 41.3067 6.88043 41.2491 6.84015 41.1912L6.82065 41.1628L6.73268 41.0367C6.71181 41.008 6.69562 40.9841 6.67932 40.9602C6.33466 40.4603 6.00062 39.9448 5.68561 39.4268C5.53365 39.1791 5.37282 38.9068 5.19294 38.5929C5.12476 38.4716 5.05508 38.3476 4.98629 38.2232C4.91461 38.0946 4.84506 37.9657 4.77599 37.8376L4.76314 37.8139C4.69915 37.6941 4.63492 37.5711 4.57055 37.4481C3.95755 36.2691 3.40809 35.032 2.93781 33.772C2.84155 33.5158 2.74173 33.2365 2.63216 32.9174C2.48466 32.4847 2.34543 32.0476 2.21867 31.6192C2.17594 31.4744 2.13393 31.3288 2.09291 31.1825C2.00396 30.8651 1.92738 30.5773 1.85881 30.3026C1.85127 30.2738 1.84608 30.2496 1.8409 30.2255C1.83768 30.2097 1.83389 30.1891 1.83115 30.1689C1.79409 29.9348 1.80765 29.7155 1.87004 29.5065C1.95206 29.2339 2.11502 28.9878 2.34095 28.7958C2.5097 28.6536 2.71107 28.5457 2.92245 28.4847C3.0451 28.4496 3.17272 28.4307 3.30094 28.4288L3.34084 28.4281C3.3942 28.4288 3.44338 28.4321 3.49031 28.4385L3.50526 28.4404C3.5353 28.4433 3.56543 28.4483 3.59508 28.454C3.79941 28.4936 3.99533 28.5787 4.17734 28.7068L4.50766 28.9378C4.64984 29.0364 4.79314 29.1327 4.9367 29.2273L5.20354 29.4038C5.28483 29.4571 5.365 29.508 5.44533 29.559L5.54784 29.6242C7.7506 31.0205 10.1183 32.1587 12.5865 33.0081C12.7223 33.0547 12.8546 33.0999 12.9868 33.1427C13.1187 33.1864 13.253 33.2306 13.3887 33.2729C13.5206 33.3148 13.6551 33.356 13.7895 33.397C14.6081 33.6448 15.4419 33.8636 16.2688 34.0474C16.4217 34.0815 16.5738 34.1136 16.7259 34.1457C16.8886 34.1797 17.051 34.2122 17.2132 34.2437L17.2364 34.2483C17.3992 34.28 17.5611 34.3097 17.7234 34.3381C17.8767 34.3651 18.0302 34.3912 18.1835 34.4173C18.4636 34.4621 18.7196 34.5003 18.9702 34.5348C19.1746 34.5637 19.3797 34.5909 19.5857 34.6151C19.6594 34.6242 19.7355 34.6334 19.8108 34.6418C19.9331 34.6556 20.0574 34.6692 20.1805 34.6808C20.2348 34.6867 20.2946 34.693 20.3553 34.699L20.4692 34.7095C20.5423 34.7164 20.6154 34.7232 20.688 34.7292C22.5874 34.8948 24.5145 34.8963 26.4141 34.7337C34.5293 34.042 42.1369 30.4178 47.8351 24.5288C51.3355 20.9108 53.9209 16.6622 55.5197 11.9009L55.5433 11.8307C55.5591 11.7839 55.5748 11.7371 55.5901 11.69C55.625 11.5842 55.6592 11.4768 55.6933 11.3695C55.7585 11.1632 55.823 10.9576 55.8841 10.75C55.93 10.5963 55.9752 10.4392 56.0189 10.2815C56.0582 10.1432 56.0971 10.0032 56.1341 9.86173C56.1436 9.82922 56.1518 9.79631 56.1601 9.76332C56.1865 9.66502 56.2135 9.56046 56.2401 9.45485C56.2582 9.38536 56.2766 9.3111 56.2943 9.23743C56.3224 9.12785 56.3497 9.01198 56.3768 8.89615L56.394 8.82286C56.4176 8.72353 56.4391 8.62772 56.4607 8.53168L56.4962 8.37262C56.5513 8.12192 56.6069 7.85224 56.6649 7.55431C56.6874 7.44177 56.709 7.32795 56.7293 7.21361C56.7493 7.10624 56.7691 6.99588 56.7873 6.88499C56.8975 6.25317 56.9908 5.60352 57.0642 4.95773C57.0773 4.84269 57.0897 4.72904 57.1009 4.61484C57.1206 4.43596 57.138 4.25082 57.1545 4.06613C57.164 3.95885 57.1733 3.85297 57.1809 3.74661C57.195 3.57958 57.207 3.40779 57.2175 3.23547C57.2198 3.20058 57.2228 3.16332 57.2278 3.1261C57.3292 2.34195 57.9503 1.90891 58.5211 1.82663C58.5848 1.81737 58.6457 1.81219 58.7028 1.81112L58.7723 1.81279C59.0688 1.82 59.3463 1.91179 59.5783 2.07827L59.7234 2.19445ZM27.1719 54.9671L27.1708 54.9677L27.1777 54.9388L27.1719 54.9671ZM22.4742 53.1988C22.4744 53.1988 22.4746 53.1989 22.4748 53.1991L22.4742 53.1988ZM20.1903 52.2693L20.1904 52.2695L20.1903 52.2693ZM13.3879 48.1298C13.3885 48.1303 13.3894 48.131 13.3907 48.132L13.3879 48.1298ZM64.1285 8.70873H64.1273H64.1285Z" stroke="white" stroke-width="2" mask="url(#path-23-outside-1)"/>
<path d="M56.7214 18.6666C56.6193 17.7617 56.6758 16.7384 56.9178 15.677C57.6442 12.4919 59.766 10.1709 61.657 10.493C63.548 10.815 64.4922 13.6582 63.7659 16.8433C63.0395 20.0285 60.9178 22.3494 59.0267 22.0273L56.7214 18.6666Z" fill="#FFC107"/>
<path d="M62.1287 10.7603C62.6017 11.0866 62.9475 11.5651 63.184 12.0876C63.4207 12.613 63.5562 13.1837 63.6333 13.7604C63.7092 14.3383 63.7215 14.9257 63.6927 15.5089C63.6772 15.8004 63.6501 16.0916 63.6073 16.3774C63.5852 16.5199 63.5608 16.6616 63.527 16.7959C63.4825 16.9351 63.4432 17.0753 63.3975 17.2134C63.2185 17.7671 63 18.3047 62.7447 18.8212C62.4856 19.3354 62.1913 19.8316 61.8378 20.2789C61.6647 20.5051 61.4767 20.719 61.2731 20.9148C61.073 21.1143 60.8545 21.2933 60.6217 21.4478C60.3895 21.6037 60.1393 21.7299 59.8751 21.8184C59.6099 21.9011 59.3304 21.9455 59.0429 21.9332L59.0406 21.9331C58.9884 21.9308 58.9441 21.9714 58.9419 22.0237C58.94 22.0686 58.9697 22.1075 59.0113 22.1191C59.3136 22.2027 59.6409 22.217 59.957 22.1655C60.2739 22.1152 60.5771 22.0012 60.8604 21.8573C61.1432 21.711 61.4032 21.5276 61.6456 21.327C61.8848 21.1223 62.1043 20.8976 62.3075 20.6607C62.7079 20.1816 63.0422 19.6536 63.3058 19.0949C63.4426 18.8179 63.5562 18.5306 63.6564 18.2398C63.7081 18.0949 63.754 17.9482 63.7976 17.8009C63.8364 17.6522 63.8777 17.5045 63.9104 17.3546C63.9477 17.206 63.9745 17.055 64.0016 16.9044C64.0347 16.7478 64.0578 16.5946 64.077 16.4415C64.1143 16.1357 64.1342 15.8311 64.1423 15.5261C64.1576 14.9165 64.119 14.306 64.0198 13.7026C63.9197 13.1003 63.7521 12.5021 63.4734 11.9487C63.1984 11.3968 62.789 10.8931 62.2572 10.5646C62.2023 10.5304 62.1301 10.5472 62.096 10.602C62.0628 10.6552 62.0781 10.7249 62.1287 10.7603Z" fill="#6E3C1B"/>
<g opacity="0.35">
<path opacity="0.35" d="M62.497 15.685C62.3914 16.6588 62.0674 17.583 61.6195 18.3148C61.0938 19.1729 60.3981 19.7701 59.6836 19.8773C58.3595 20.0776 57.4714 18.5261 57.7011 16.4118C57.9191 14.3938 59.0765 12.5923 60.334 12.2576C60.3939 12.2409 60.4543 12.2283 60.5145 12.2194C61.8386 12.0192 62.7267 13.5707 62.497 15.685Z" fill="#6E3C1B"/>
</g>
<path d="M58.3027 16.7355C59.1287 15.2382 60.4439 14.459 61.2403 14.9952C62.0367 15.5313 62.0127 17.1797 61.1867 18.677C60.3607 20.1743 59.0454 20.9535 58.249 20.4173C57.4526 19.8812 57.4766 18.2328 58.3027 16.7355Z" fill="#FFC107"/>
<path d="M57.8587 17.805C57.8338 17.1317 57.9218 16.4588 58.1141 15.8193C58.1997 15.4967 58.326 15.1877 58.4595 14.8857C58.6015 14.5873 58.7616 14.2993 58.948 14.032C59.1396 13.7697 59.35 13.5239 59.5875 13.3192C59.8239 13.1152 60.0909 12.954 60.3642 12.8805C60.6361 12.8035 60.9116 12.822 61.1497 12.9381C61.3893 13.0521 61.5887 13.2674 61.7404 13.526C61.8919 13.7858 61.993 14.0877 62.0576 14.3991C62.1226 14.7112 62.1521 15.0356 62.1499 15.362C62.156 15.5251 62.1375 15.6888 62.1307 15.8526C62.1082 16.0153 62.0987 16.18 62.0643 16.3417C62.0132 16.668 61.9261 16.9879 61.8292 17.3041C61.7212 17.6165 61.5946 17.9228 61.4414 18.2156C61.2855 18.5063 61.1047 18.7833 60.8952 19.0359C60.684 19.2858 60.4389 19.5064 60.1621 19.6693C59.8857 19.8299 59.5696 19.9269 59.2476 19.8965L59.2458 19.8964C59.1939 19.8915 59.1479 19.9296 59.143 19.9815C59.1385 20.0293 59.1704 20.0721 59.216 20.0824C59.5794 20.1651 59.9676 20.0947 60.3004 19.9399C60.637 19.7866 60.9285 19.5572 61.1856 19.3023C61.4387 19.0424 61.6537 18.7511 61.845 18.4463C62.0353 18.1403 62.1847 17.8127 62.3192 17.4798L62.4087 17.2259C62.4397 17.1415 62.4673 17.056 62.4902 16.9692L62.5635 16.7099L62.6201 16.4462C62.6623 16.2712 62.6794 16.0909 62.7088 15.913C62.7226 15.7326 62.7474 15.5532 62.7468 15.371C62.7626 15.0081 62.7334 14.6409 62.6621 14.2773C62.5907 13.9142 62.4772 13.5513 62.2852 13.2116C62.0964 12.874 61.808 12.5572 61.4224 12.3732C61.0391 12.1862 60.5824 12.1679 60.1937 12.2844C59.8019 12.4007 59.4739 12.6228 59.1958 12.8737C58.9172 13.1268 58.684 13.4152 58.4855 13.721C58.2914 14.0296 58.1289 14.353 57.9926 14.6857C57.8686 15.0227 57.756 15.3632 57.6869 15.7134C57.5394 16.4092 57.5026 17.1327 57.6262 17.8313C57.6374 17.895 57.6983 17.9376 57.762 17.9263C57.8204 17.916 57.861 17.8642 57.8588 17.8066L57.8587 17.805Z" fill="#6E3C1B"/>
</svg>
