<svg width="219" height="131" viewBox="0 0 219 131" fill="none" xmlns="http://www.w3.org/2000/svg">
<path fill-rule="evenodd" clip-rule="evenodd" d="M208.264 119.834C208.156 120.032 208.226 120.28 208.424 120.389C208.62 120.499 208.869 120.428 208.979 120.231C212.62 113.658 215.361 106.562 217.048 99.1092C218.68 91.8989 219.325 84.3534 218.845 76.6246C217.45 54.1156 206.798 34.3012 190.703 20.4624C174.612 6.62887 153.079 -1.23294 129.921 0.158309C113.327 1.15558 98.1495 6.7697 85.6313 15.6343C72.7092 24.7847 62.622 37.3974 56.7343 51.97L56.7053 52.0301L56.6959 52.0508C56.6847 52.0749 56.6722 52.1004 56.6577 52.1353C54.7786 56.4555 52.7083 59.8671 50.1286 62.2922C47.5717 64.6973 44.4994 66.1399 40.5966 66.5475C40.3725 66.5698 40.2088 66.7707 40.2321 66.9954C40.2542 67.219 40.4552 67.3819 40.6788 67.3596C44.7732 66.9318 47.9998 65.4157 50.6882 62.887C53.3564 60.3784 55.4847 56.8788 57.4055 52.4614L57.4308 52.4078L57.4446 52.3819L57.4738 52.3218L57.4716 52.3208L57.4821 52.297C63.31 37.8596 73.3017 25.3635 86.1015 16.2994C98.4982 7.52173 113.531 1.96213 129.969 0.973944C152.907 -0.404347 174.235 7.38174 190.172 21.0836C206.105 34.7815 216.65 54.3938 218.03 76.6726C218.505 84.3251 217.866 91.7943 216.252 98.9294C214.582 106.306 211.87 113.331 208.264 119.834Z" fill="#FEA2A3"/>
<path fill-rule="evenodd" clip-rule="evenodd" d="M134.372 2.25183C100.914 2.25183 72.0772 22.0083 58.8729 50.4883C58.8465 50.5408 58.819 50.5881 58.7924 50.6408C54.4818 59.3379 49.6039 64.2494 41.6122 64.6104C19.0564 65.629 0.236099 75.9878 0.236099 101.69C0.236099 112.579 4.92201 122.373 12.3842 129.169C76.6189 129.169 140.361 129.169 205.141 129.169C213.009 116.462 217.557 101.481 217.557 85.4362C217.557 39.495 180.313 2.25183 134.372 2.25183Z" fill="#FEA2A3"/>
<path fill-rule="evenodd" clip-rule="evenodd" d="M162.44 81.6647C162.44 81.6647 162.606 83.0166 160.644 83.9138C158.682 84.8116 159.245 79.0933 159.245 79.0933L162.44 81.6647Z" fill="#83D0CD"/>
<path fill-rule="evenodd" clip-rule="evenodd" d="M105.024 70.7064C105.024 70.7064 102.938 72.96 102.019 76.0486C101.101 79.1374 96.6493 101.793 96.6493 101.793L110.218 75.4093L105.024 70.7064Z" fill="#6D6757"/>
<path fill-rule="evenodd" clip-rule="evenodd" d="M105.024 70.7064C105.024 70.7064 102.938 72.96 102.019 76.0486C101.909 76.419 101.748 77.0732 101.55 77.9335C102.986 78.4117 104.802 80.5679 106.394 82.8447L110.218 75.4093L105.024 70.7064Z" fill="#585448"/>
<path fill-rule="evenodd" clip-rule="evenodd" d="M110.804 108.969C110.804 108.969 107.217 121.295 105.547 129.168H154.606C153.287 123.996 150.931 111.647 147.094 105.86L110.804 108.969Z" fill="#585448"/>
<path fill-rule="evenodd" clip-rule="evenodd" d="M111.632 104.344C111.632 104.344 107.353 113.273 105.542 122.151H118.073C118.227 119.686 118.177 117.316 118.177 117.316L119.471 114.512C119.471 114.512 129.249 118.754 139.387 117.604C144.409 117.034 144.699 119.509 143.714 122.151H154.609C153.289 116.979 150.931 111.647 147.094 105.86L111.632 104.344Z" fill="#585448"/>
<path fill-rule="evenodd" clip-rule="evenodd" d="M112.109 105.45C112.109 105.45 111.502 106.371 111.695 108.103C111.695 108.103 117.558 110.978 130.071 110.978C142.583 110.978 148.445 108.103 148.445 108.103C148.639 106.371 148.033 105.45 148.033 105.45L130.071 107.734L112.109 105.45Z" fill="#FDE3C8"/>
<path fill-rule="evenodd" clip-rule="evenodd" d="M126.023 42.8514H134.119C135.304 42.8514 136.275 43.821 136.275 45.0078V58.2666C136.284 58.4106 136.5 61.05 140.298 61.9464L139.676 74.9867L130.07 77.9097L121.136 75.1422L119.843 61.9464C123.747 61.0246 123.866 58.26 123.866 58.26V45.0077C123.866 43.821 124.836 42.8514 126.023 42.8514Z" fill="#FFC5B0"/>
<path fill-rule="evenodd" clip-rule="evenodd" d="M108.396 73.9063C108.161 75.5929 107.815 77.4217 107.318 79.3699L112.572 97.2658C112.572 97.2658 111.838 97.818 112.38 98.7028C112.38 98.7028 110.949 101.836 110.795 102.684C110.64 103.532 112.109 105.449 112.109 105.449C112.109 105.449 119.078 108.214 130.071 108.214C141.063 108.214 148.033 105.449 148.033 105.449C148.033 105.449 149.501 103.532 149.346 102.684C149.192 101.836 147.761 98.7028 147.761 98.7028C148.303 97.818 147.568 97.2658 147.568 97.2658L152.341 81.7081C151.693 79.1663 151.473 76.4928 151.506 73.9063H108.396Z" fill="white"/>
<path fill-rule="evenodd" clip-rule="evenodd" d="M114.72 61.8588C112.26 62.4437 112.306 65.7836 110.855 66.0761C110.34 66.1799 109.877 66.4609 109.494 66.78C109.516 67.7104 109.603 68.6355 109.783 69.5116C109.491 69.5857 109.099 69.6931 108.637 69.8388C108.936 72.5395 109.161 78.1416 107.318 85.381L107.801 87.0235L108.656 87.8723C112.887 95.926 116.554 99.4463 123.686 99.2041C133.866 98.859 142.346 85.5936 151.715 84.2761C151.08 78.7903 151.983 73.1517 152.854 69.3814C151.337 68.1251 149.297 67.3277 146.259 66.987C145.7 66.9243 145.385 66.5099 145.247 66.2035C145.095 65.8671 144.87 65.0155 144.605 63.8705C142.499 67.0313 136.787 69.2971 130.07 69.2971C121.997 69.297 115.376 66.0243 114.72 61.8588Z" fill="#E4DAE2"/>
<path fill-rule="evenodd" clip-rule="evenodd" d="M113.312 64.7014L112.508 64.8878C113.129 67.1634 113.727 68.0058 116.623 69.5309C120.072 71.3486 124.827 72.4735 130.07 72.4735C135.314 72.4735 140.069 71.3487 143.518 69.5309C146.444 67.9892 148.445 65.9395 149.043 63.6351C148.781 63.5517 148.517 63.472 148.254 63.3943C147.728 65.4791 145.87 67.3625 143.135 68.8036C139.8 70.5613 135.181 71.6496 130.07 71.6496C124.96 71.6496 120.341 70.5612 117.006 68.8036C114.327 67.3923 113.879 66.7352 113.312 64.7014Z" fill="#D9E1EF"/>
<path fill-rule="evenodd" clip-rule="evenodd" d="M105.439 70.3049C108.258 78.5475 107.17 88.8385 107.17 88.8385L109.096 101.653C108.369 103.397 109.188 104.289 109.188 104.289C106.565 112.833 103.591 120.883 100.958 129.165H121.033C122.341 117.955 125.128 101.091 125.348 97.9538C125.681 93.1925 119.701 72.1811 118.9 66.295C115.677 66.2743 112.321 67.6931 105.439 70.3049Z" fill="#6D6757"/>
<path fill-rule="evenodd" clip-rule="evenodd" d="M107.365 85.2012L107.358 85.5114L107.802 87.0235L108.657 87.8724C112.888 95.9261 116.555 99.4464 123.687 99.2042C124.208 99.1862 124.724 99.133 125.237 99.051C125.291 98.5935 125.329 98.222 125.348 97.9537C125.673 93.3222 120.022 73.3142 118.977 66.8098C118.687 66.6511 118.408 66.4864 118.144 66.3157C115.879 66.4561 113.424 67.2798 109.646 68.7039C109.684 68.9768 109.73 69.2463 109.784 69.5117C109.492 69.5858 109.1 69.6933 108.638 69.8389C108.935 72.5171 109.159 78.0484 107.365 85.2012Z" fill="#585448"/>
<path fill-rule="evenodd" clip-rule="evenodd" d="M154.102 65.8975C151.282 74.1402 153.076 88.7208 153.076 88.7208L149.225 103.296C149.952 105.04 149.133 105.932 149.133 105.932C152.327 113.596 154.755 121.553 158.074 129.169C151.786 129.169 145.425 129.165 139.109 129.165C137.801 117.955 134.546 101.492 134.326 98.3546C133.992 93.593 138.47 67.2693 139.272 61.3832C139.272 61.3832 139.569 61.0892 140.187 61.0892C140.804 61.0892 148.999 63.378 150.417 63.8504C151.833 64.3225 153.651 65.4675 154.102 65.8975Z" fill="#6D6757"/>
<path fill-rule="evenodd" clip-rule="evenodd" d="M134.487 94.7255C135.078 88.2698 137.001 76.0837 138.256 68.056C141.18 67.0879 143.442 65.6158 144.605 63.8704C144.87 65.0153 145.095 65.867 145.247 66.2033C145.385 66.5098 145.7 66.9242 146.259 66.9869C149.297 67.3276 151.337 68.1249 152.854 69.3813C151.983 73.1515 151.08 78.7902 151.715 84.276C145.835 85.1024 140.306 90.6341 134.487 94.7255Z" fill="#585448"/>
<path fill-rule="evenodd" clip-rule="evenodd" d="M119.886 62.5786C119.886 62.5786 117.558 63.2838 115.08 64.025C114.949 68.0619 116.022 77.3106 128.758 76.5915C141.494 75.8716 141.519 66.5606 140.933 62.5641C138.696 62.1623 136.576 61.7746 136.096 61.6871C133.954 61.1486 133.29 60.3523 133.174 58.2963L132.558 47.3927C132.502 46.4021 131.607 45.6408 130.568 45.6995L123.481 46.0997C122.442 46.1584 121.638 47.0163 121.695 48.0066L122.308 58.8774C122.403 60.5447 121.887 62.0092 119.886 62.5786Z" fill="#FFC5B0"/>
<path d="M127.386 76.6791C127.831 76.6791 128.293 76.6657 128.76 76.6392C133.375 76.379 136.764 74.9614 138.832 72.4276C141.484 69.1774 141.316 64.8484 140.981 62.5572C140.978 62.5368 140.962 62.5205 140.942 62.5168C138.983 62.1651 137.115 61.8242 136.358 61.6858L136.105 61.64C134.011 61.1133 133.336 60.331 133.221 58.2936L132.606 47.39C132.55 46.4132 131.705 45.6478 130.681 45.6478C130.642 45.6478 130.604 45.6493 130.566 45.6516L123.478 46.0518C122.963 46.0806 122.489 46.3006 122.143 46.6713C121.795 47.0418 121.619 47.517 121.647 48.0094L122.261 58.8802C122.372 60.8492 121.591 62.0438 119.873 62.5323C119.849 62.5392 117.516 63.2465 115.066 63.9789C115.046 63.9849 115.033 64.003 115.032 64.0229C114.959 66.2689 115.26 70.4739 118.095 73.4031C120.199 75.5771 123.326 76.6791 127.386 76.6791ZM140.891 62.6055C141.221 64.8898 141.373 69.1618 138.758 72.3668C136.707 74.8786 133.342 76.2844 128.755 76.5436C124.052 76.8083 120.479 75.727 118.164 73.3362C115.368 70.4472 115.059 66.2996 115.127 64.0608C117.565 63.3321 119.877 62.6316 119.9 62.6247C121.667 62.1219 122.471 60.8953 122.356 58.8746L121.743 48.0038C121.716 47.5383 121.883 47.0881 122.212 46.7367C122.542 46.3844 122.994 46.1753 123.483 46.1473L130.571 45.747C130.608 45.7453 130.644 45.7439 130.681 45.7439C131.654 45.7439 132.457 46.4695 132.51 47.3951L133.126 58.2986C133.244 60.3908 133.936 61.1934 136.085 61.7338L136.341 61.7808C137.094 61.918 138.945 62.2559 140.891 62.6055Z" fill="white"/>
<path fill-rule="evenodd" clip-rule="evenodd" d="M133.474 59.8919C133.301 59.463 133.21 58.9423 133.173 58.2964L132.558 47.3928C132.502 46.4022 131.607 45.6409 130.568 45.6995L123.481 46.0998C122.442 46.1584 121.638 47.0164 121.695 48.0067L122.308 58.8775C122.321 59.0895 122.322 59.2978 122.312 59.502C123.217 60.2909 124.089 61.0045 124.614 61.3151C125.49 61.8333 126.605 62.1066 127.714 62.154C128.824 62.206 129.957 62.0338 130.876 61.5956C131.454 61.3205 132.452 60.638 133.474 59.8919Z" fill="#ED8E86"/>
<path fill-rule="evenodd" clip-rule="evenodd" d="M138.189 43.509C138.189 43.509 139.248 42.4669 139.932 42.5591C140.618 42.6513 141.412 44.1586 141.272 45.2685C141.13 46.3786 139.67 50.1932 137.467 48.6319C135.263 47.0701 138.189 43.509 138.189 43.509Z" fill="#FFC5B0"/>
<path fill-rule="evenodd" clip-rule="evenodd" d="M137.277 44.7224C137.194 44.7956 137.167 44.9253 137.215 45.0122C137.257 45.0898 137.345 45.1064 137.422 45.0558C137.422 45.0558 137.894 48.5087 138.424 47.9949C138.954 47.4808 139.509 46.9882 139.758 46.1275C140.008 45.2673 139.267 44.4374 139.555 44.2221C139.83 44.0164 140.103 44.366 140.127 44.3994L140.128 44.4008V44.4015L140.129 44.4022C140.341 44.7052 140.432 45.055 140.432 45.0568C140.459 45.1578 140.555 45.198 140.644 45.1465C140.735 45.0951 140.786 44.9712 140.758 44.8701C140.757 44.8667 140.419 43.5492 139.462 43.553C138.548 43.5567 137.28 44.7189 137.277 44.7224Z" fill="#ED8E86"/>
<path fill-rule="evenodd" clip-rule="evenodd" d="M116.831 42.1821C116.831 42.1821 115.852 41.0654 115.162 41.1075C114.471 41.1497 113.569 42.5947 113.629 43.712C113.689 44.8294 114.867 48.7403 117.179 47.3436C119.491 45.9467 116.831 42.1821 116.831 42.1821Z" fill="#FFC5B0"/>
<path fill-rule="evenodd" clip-rule="evenodd" d="M117.653 43.458C117.729 43.5374 117.748 43.6685 117.694 43.7516C117.646 43.8264 117.556 43.8361 117.484 43.7802C117.484 43.7802 116.761 47.1895 116.27 46.6384C115.779 46.0874 115.262 45.5552 115.076 44.6787C114.889 43.8031 115.689 43.029 115.416 42.7934C115.157 42.5684 114.861 42.8972 114.834 42.9286L114.833 42.9301L114.832 42.9308L114.831 42.9315C114.598 43.2182 114.482 43.5602 114.481 43.5623C114.447 43.6609 114.349 43.694 114.263 43.6364C114.177 43.5781 114.135 43.4512 114.17 43.3521C114.171 43.3487 114.604 42.0591 115.558 42.1331C116.47 42.2033 117.65 43.4546 117.653 43.458Z" fill="#ED8E86"/>
<path fill-rule="evenodd" clip-rule="evenodd" d="M128.177 27.461C142.334 28.3014 139.757 39.2358 138.109 48.0715C137.415 51.7901 135.247 53.9071 135.247 53.9071C135.247 53.9071 131.097 57.2342 129.685 57.9071C128.844 58.3084 127.805 58.4658 126.79 58.4177C125.774 58.3741 123.273 57.6185 122.471 57.1438C121.125 56.3466 118.77 53.1686 118.77 53.1686C118.77 53.1686 116.623 51.1156 116.264 47.3503C115.414 38.4029 114.002 27.0323 128.177 27.461Z" fill="#FFC5B0"/>
<path fill-rule="evenodd" clip-rule="evenodd" d="M139.419 38.7337C139.356 41.417 138.821 44.2919 138.306 47.0176C137.885 46.4187 137.428 45.4728 136.935 44.0805C133.435 34.2036 126.467 34.9716 126.467 34.9716L133.126 32.4775L139.419 38.7337Z" fill="#ED8E86"/>
<path fill-rule="evenodd" clip-rule="evenodd" d="M157.529 68.7449C161.608 81.6646 162.694 92.0428 162.876 105.524L150.518 102.802L150.6 88.6114C150.6 88.6114 150.074 76.3826 149.682 77.0923C149.291 77.8016 157.529 68.7449 157.529 68.7449Z" fill="#6D6757"/>
<path fill-rule="evenodd" clip-rule="evenodd" d="M159.283 74.8415C159.882 77.1578 160.385 79.4162 160.809 81.6543C159.555 81.223 156.256 80.6308 150.316 83.0532C150.132 79.9283 149.888 76.7193 149.682 77.0923C149.513 77.3991 150.958 75.8783 152.654 74.054C155.327 74.361 157.599 74.6295 159.283 74.8415Z" fill="#585448"/>
<path fill-rule="evenodd" clip-rule="evenodd" d="M127.323 48.3515C127.459 48.2392 127.369 47.73 127.278 47.3862C127.211 47.1268 127.151 46.9991 127.076 47.0074C127.005 46.977 126.918 47.0819 126.79 47.3117C126.622 47.6157 126.415 48.0799 126.519 48.2289C126.655 48.4252 127.145 48.5001 127.323 48.3515Z" fill="#F9D4C8"/>
<path fill-rule="evenodd" clip-rule="evenodd" d="M131.211 27.8401C132.682 28.1377 133.907 28.5811 134.924 29.1457C138.776 33.8847 141.518 48.7555 135.728 39.9512C128.943 29.6356 120.5 38.142 120.5 38.142C120.5 38.142 117.942 34.2174 116.961 32.9979C117.049 32.7846 117.145 32.5762 117.247 32.372C119.412 31.4362 126.724 28.3834 131.211 27.8401Z" fill="#585448"/>
<path fill-rule="evenodd" clip-rule="evenodd" d="M111.787 63.702C109.68 64.238 103.868 66.6565 101.63 75.441L110.659 82.0631C114.891 90.1166 118.558 93.6361 125.69 93.3945C138.98 92.9437 147.169 74.4804 162.44 81.6645C162.513 81.6494 160.724 68.5039 154.413 63.328C152.736 62.2121 150.723 61.4533 148.263 61.1773C147.704 61.1149 147.389 60.7003 147.251 60.3937C145.659 56.862 145.295 44.957 142.301 42.8069C141.274 35.1123 139.98 30.7771 135.904 27.5355C131.826 24.2947 122.083 23.5541 117.992 29.0829C113.901 34.6121 111.524 44.5119 112.168 49.1374C112.29 50.0197 112.496 51.0094 112.748 52.0321C112.748 52.0321 110.76 58.677 111.787 63.702ZM125.439 58.1038C125.439 58.1038 123.515 57.7186 122.351 56.827C122.028 56.5799 121.545 56.1207 120.985 55.511L120.985 55.5102C120.922 55.4419 120.858 55.3721 120.794 55.2997C119.6 54.052 117.886 53.3943 116.704 49.1993C116.643 49.0606 116.584 48.9216 116.528 48.7836C115.119 45.2799 122.423 32.0895 129.231 32.2013C135.062 33.8428 138.251 45.6828 137.226 50.3537C136.433 53.963 133.651 55.0701 130.758 56.7091C130.728 56.7091 129.079 57.6455 128.762 57.7657C127.393 58.2867 125.439 58.1038 125.439 58.1038Z" fill="#B2E1D9"/>
<path d="M135.763 89.9935C135.805 89.9935 135.847 89.9765 135.879 89.9433C135.93 89.8878 141.081 84.3168 144.392 76.1706L144.448 76.0335C146.973 69.8234 149.152 64.4599 151.89 63.3515C152.666 63.0376 153.457 63.0674 154.309 63.4426C154.388 63.4777 154.482 63.4419 154.517 63.3619C154.552 63.2826 154.516 63.1893 154.436 63.1542C153.515 62.748 152.618 62.7159 151.772 63.0589C148.911 64.2179 146.812 69.3797 144.156 75.9149L144.1 76.0511C140.81 84.145 135.699 89.6728 135.648 89.7277C135.588 89.7915 135.592 89.8912 135.655 89.9508C135.685 89.9793 135.724 89.9935 135.763 89.9935ZM122.529 84.7957C123.254 84.7957 124.008 84.6781 124.791 84.4434C129.79 82.9435 135.609 74.2169 139.46 68.4425C140.812 66.415 141.88 64.8135 142.591 63.9982C142.593 63.9968 142.594 63.9954 142.595 63.994C145.277 60.9261 148.21 61.3292 148.24 61.3336C148.324 61.3464 148.405 61.2866 148.419 61.2007C148.431 61.1149 148.372 61.034 148.286 61.0209C148.161 61.0023 145.157 60.5896 142.363 63.7801C138.015 67.5578 132.475 71.5643 126.776 70.8959C137.129 69.6828 142.233 43.988 142.455 42.837C142.473 42.7514 142.417 42.6686 142.331 42.652C142.248 42.6329 142.163 42.6922 142.147 42.7769C142.089 43.0712 136.3 72.1849 125.087 70.5571C124.759 70.4627 124.431 70.3518 124.102 70.2227C117.111 67.4792 112.942 52.1459 112.9 51.991C112.878 51.9072 112.79 51.8582 112.707 51.8792C112.623 51.9018 112.573 51.9887 112.596 52.0728C112.766 52.7102 116.849 67.7152 123.986 70.5164C130.266 72.9801 136.492 69.0969 141.425 64.9935C140.808 65.8522 140.061 66.9733 139.197 68.2676C135.372 74.0043 129.591 82.6739 124.701 84.1409C122.663 84.7529 120.826 84.5338 119.243 83.4904C115.637 81.1151 113.181 74.4512 111.943 63.6842C111.933 63.5976 111.851 63.5365 111.768 63.5455C111.682 63.5552 111.619 63.6331 111.63 63.7197C111.64 63.8126 111.651 63.9054 111.662 63.9976C108.123 68.3309 109.132 78.8273 110.513 82.124C110.547 82.2043 110.64 82.2416 110.72 82.209C110.8 82.1748 110.838 82.0829 110.804 82.0023C109.47 78.8183 108.479 68.8247 111.715 64.4434C112.991 74.8837 115.464 81.3794 119.069 83.7537C120.123 84.448 121.28 84.7957 122.529 84.7957ZM137.289 50.1765C137.344 50.1765 137.398 50.1477 137.426 50.0963C137.489 49.9867 143.571 39.0133 137.693 28.9941C137.649 28.9188 137.553 28.8931 137.478 28.9379C137.402 28.9819 137.376 29.0786 137.421 29.1538C143.207 39.0181 137.213 49.8327 137.152 49.9406C137.109 50.0169 137.136 50.1129 137.211 50.1561C137.235 50.1699 137.262 50.1765 137.289 50.1765ZM116.398 48.4628C116.413 48.4628 116.428 48.4604 116.443 48.4559C116.526 48.4318 116.574 48.3442 116.55 48.2606C114.185 40.1907 115.933 32.8682 115.951 32.7949C115.971 32.7105 115.919 32.6246 115.835 32.6045C115.751 32.5834 115.665 32.6352 115.644 32.7198C115.626 32.7936 113.858 40.1945 116.247 48.3489C116.267 48.418 116.33 48.4628 116.398 48.4628Z" fill="#83D0CD"/>
<path fill-rule="evenodd" clip-rule="evenodd" d="M121.668 52.655C119.15 53.6018 117.295 55.4372 116.813 57.8168C115.959 62.0337 119.743 66.3564 125.265 67.4751C130.787 68.5937 135.954 66.0838 136.808 61.8672C137.356 59.1626 135.996 56.4144 133.494 54.4958C132.756 53.9307 131.391 53.0722 130.512 53.8555C129.889 54.4111 129.142 55.154 128.227 54.7343C127.31 54.3148 126.759 53.8838 126.042 54.3772C125.324 54.8706 125.445 53.7451 124.885 53.7806C124.324 53.8161 123.521 54.3138 123.126 53.5304C122.731 52.7488 122.402 52.501 121.668 52.655ZM124.068 58.4433C124.813 58.1111 125.933 58.0239 127.13 58.2661C128.327 58.5083 129.325 59.0249 129.881 59.6209C129.066 59.7945 128 59.7875 126.869 59.5583C125.737 59.3288 124.752 58.9206 124.068 58.4433Z" fill="#9E6D82"/>
<path fill-rule="evenodd" clip-rule="evenodd" d="M129.882 59.6208C129.325 59.0249 128.327 58.5082 127.13 58.266C125.933 58.0238 124.813 58.111 124.068 58.4433C124.752 58.9206 125.737 59.3288 126.869 59.5581C128 59.7874 129.066 59.7943 129.882 59.6208ZM116.996 57.1263C117.669 55.0824 119.399 53.5079 121.668 52.655C122.402 52.501 122.731 52.7488 123.126 53.5304C123.521 54.3138 124.324 53.8161 124.885 53.7806C125.446 53.7451 125.325 54.8706 126.042 54.3772C126.759 53.8838 127.31 54.3148 128.227 54.7343C129.142 55.1539 129.889 54.411 130.512 53.8555C131.219 53.2261 132.24 53.6571 132.996 54.1448L133.929 54.8478C136.151 56.7423 137.324 59.3233 136.808 61.8672C136.707 62.3689 136.544 62.8472 136.326 63.2971C136.324 63.3016 136.322 63.3061 136.319 63.3102C136.286 63.3654 136.023 63.7538 135.522 63.3347C134.985 62.8851 134.343 61.9564 132.746 63.7412C131.15 65.5259 128.847 65.2294 127.414 63.5766C125.981 61.9238 125.412 62.4254 123.299 63.1898C121.184 63.954 119.608 62.6979 119.398 61.1012C119.189 59.5048 118.167 59.1908 117.496 59.4596C117.298 59.5386 117.145 59.502 117.029 59.4L116.882 58.8571L116.996 57.1263Z" fill="white"/>
<path d="M128.639 59.9016C129.717 59.9016 130.619 59.676 131.134 59.247C131.201 59.1908 131.21 59.0917 131.154 59.0248C131.098 58.9583 130.998 58.9495 130.931 59.0044C130.23 59.5901 128.61 59.7504 126.9 59.4034C125.19 59.0565 123.759 58.2785 123.342 57.4671C123.301 57.3895 123.207 57.3578 123.128 57.3992C123.051 57.4388 123.02 57.5341 123.061 57.6113C123.528 58.5174 125.01 59.3421 126.837 59.7124C127.464 59.8394 128.076 59.9016 128.639 59.9016Z" fill="#E4DAE2"/>
<path fill-rule="evenodd" clip-rule="evenodd" d="M142.322 71.2917L143.487 74.2278L140.066 76.2829L137.853 75.1771L137.138 75.2417C137.138 75.2417 137.532 74.254 137.4 73.5467C137.269 72.8401 136.868 71.0933 136.868 71.0933C136.868 71.0933 142.364 71.3987 142.322 71.2917Z" fill="#FFA89E"/>
<path fill-rule="evenodd" clip-rule="evenodd" d="M112.674 69.6741L111.765 70.2711L111.079 72.1096L115.191 74.0501L116.526 73.1947C116.526 73.1947 116.234 72.2765 116.359 71.8383C116.485 71.4001 117.2 70.0935 117.2 70.0935L112.674 69.6741Z" fill="#FFA89E"/>
<path fill-rule="evenodd" clip-rule="evenodd" d="M131.021 56.3993C131.021 56.3993 132.983 56.5639 133.711 56.5918C134.439 56.6201 135.707 57.3771 136.78 57.9499C137.852 58.5231 138.932 60.2012 140.295 61.9078C140.295 61.9078 140.995 62.7463 141.118 64.6372C141.241 66.5279 142.194 70.338 142.321 71.2918C142.321 71.2918 136.973 74.6603 135.508 68.1856L133.809 66.9823C133.809 66.9823 131.309 66.2909 130.805 66.1149C130.424 65.9813 129.774 64.7912 131.122 64.9872C131.616 65.059 134.31 65.5516 134.31 65.5516L136.709 66.3174L134.659 64.8439L130.891 63.7139C129.751 63.3717 129.732 62.1887 130.901 62.3487C132.022 62.5027 135.488 63.1879 135.488 63.1879L137.431 64.3953L135.578 62.4683L132.308 62.079C132.308 62.079 130.166 62.1666 129.756 62.0363C128.691 61.696 128.758 60.9079 129.584 60.7509C130.589 60.5601 132.278 60.3826 132.278 60.3826L136.335 60.7202L135.112 59.0708L133.196 58.113C133.196 58.113 131.833 58.1619 131.261 57.6915C130.688 57.2205 130.501 56.3427 131.021 56.3993Z" fill="#FFC5B0"/>
<path d="M137.792 68.1265L138.069 67.976L137.428 66.7953C137.204 66.3797 136.794 66.183 136.776 66.1748C136.698 66.1365 136.605 66.1713 136.566 66.2501C136.529 66.328 136.563 66.422 136.642 66.4599C136.644 66.4613 136.977 66.6235 137.151 66.9456L137.792 68.1265ZM138.028 65.3488C138.047 65.3488 138.065 65.3457 138.082 65.3391C138.164 65.3094 138.207 65.2187 138.176 65.1369C138.023 64.7174 137.557 64.2956 137.538 64.278C137.472 64.22 137.373 64.2249 137.314 64.2902C137.257 64.3551 137.261 64.4543 137.326 64.5127C137.33 64.5165 137.755 64.9007 137.881 65.2449C137.904 65.3094 137.964 65.3488 138.028 65.3488ZM138.349 61.1024C138.429 61.1024 138.497 61.043 138.506 60.9622C138.516 60.8752 138.453 60.7977 138.366 60.7877L136.353 60.563C136.263 60.5571 136.188 60.6154 136.179 60.7023C136.169 60.7889 136.231 60.867 136.318 60.8767L138.332 61.1016C138.338 61.1021 138.344 61.1024 138.349 61.1024Z" fill="#ED8E86"/>
<path fill-rule="evenodd" clip-rule="evenodd" d="M123.066 55.3785C123.066 55.3785 121.104 55.5428 120.376 55.5711C119.648 55.5994 118.379 56.3565 117.307 56.9294C116.235 57.5025 115.154 59.1805 113.791 60.8872C113.791 60.8872 113.091 61.7257 112.969 63.6162C112.845 65.5069 111.892 69.3172 111.765 70.2712C111.765 70.2712 117.113 73.6393 118.579 67.1646L120.277 65.9613C120.277 65.9613 122.778 65.2702 123.281 65.0942C123.663 64.9606 124.312 63.7705 122.964 63.9665C122.471 64.0384 119.776 64.5318 119.776 64.5318L117.378 65.2967L119.428 63.8233L123.196 62.6929C124.336 62.351 124.354 61.168 123.185 61.3281C122.064 61.4817 118.599 62.1674 118.599 62.1674L116.655 63.3743L118.509 61.4476L121.779 61.0583C121.779 61.0583 123.921 61.1461 124.331 61.0153C125.395 60.6753 125.329 59.8873 124.502 59.7302C123.497 59.5394 121.809 59.3621 121.809 59.3621L117.751 59.6995L118.975 58.0498L120.891 57.0923C120.891 57.0923 122.253 57.1413 122.826 56.6707C123.399 56.1998 123.585 55.322 123.066 55.3785Z" fill="#FFC5B0"/>
<path d="M116.295 67.1058L116.935 65.9251C117.11 65.6027 117.442 65.4405 117.444 65.4392C117.523 65.4013 117.557 65.3075 117.519 65.2294C117.482 65.1507 117.389 65.1155 117.31 65.1541C117.292 65.1625 116.882 65.3592 116.658 65.7746L116.017 66.9553L116.295 67.1058ZM116.058 64.3281C116.122 64.3281 116.183 64.2883 116.206 64.224C116.332 63.8796 116.755 63.4959 116.76 63.492C116.825 63.4338 116.83 63.3337 116.772 63.2695C116.713 63.2043 116.614 63.1995 116.549 63.257C116.529 63.2751 116.063 63.6973 115.91 64.1162C115.88 64.1981 115.922 64.2884 116.004 64.3185C116.021 64.325 116.039 64.3281 116.058 64.3281ZM115.737 60.0817C115.743 60.0817 115.748 60.0814 115.754 60.081L117.768 59.8561C117.855 59.8461 117.917 59.7683 117.907 59.6818C117.898 59.5952 117.82 59.5352 117.733 59.5421L115.719 59.7671C115.633 59.7771 115.571 59.8547 115.58 59.9412C115.589 60.0224 115.658 60.0817 115.737 60.0817Z" fill="#ED8E86"/>
<path fill-rule="evenodd" clip-rule="evenodd" d="M97.0047 100.491C99.2295 93.9958 103.881 81.4623 104.55 79.6649C105.303 77.6394 107.468 77.1678 107.468 77.1678L109.711 71.3701C109.711 71.3701 110.182 70.4846 111.229 70.7613C112.276 71.0374 116.828 72.3652 119.124 74.3901C119.124 74.3901 119.731 74.674 119.306 75.8525C118.881 77.0298 117.553 80.7765 117.553 80.7765C117.553 80.7765 118.981 82.4731 118.232 84.9854C116.698 90.1303 112.392 101.129 109.552 107.784C106.091 115.897 93.7543 109.981 97.0047 100.491Z" fill="#6D6757"/>
<path fill-rule="evenodd" clip-rule="evenodd" d="M107.468 77.1678L109.711 71.3701C109.711 71.3701 110.182 70.4847 111.229 70.7614C112.276 71.0374 116.828 72.3653 119.124 74.3901C119.124 74.3901 119.731 74.6741 119.306 75.8526C118.881 77.0299 117.553 80.7766 117.553 80.7766C117.553 80.7766 113.798 78.0553 107.468 77.1678Z" fill="white"/>
<path fill-rule="evenodd" clip-rule="evenodd" d="M162.025 102.218C159.199 95.9606 151.762 81.2182 150.928 79.4921C149.986 77.5459 147.787 77.2799 147.787 77.2799L145.009 71.7193C145.009 71.7193 144.456 70.8828 143.44 71.2562C142.423 71.6302 138.016 73.3803 135.922 75.6122C135.922 75.6122 135.343 75.9516 135.877 77.085C136.412 78.2174 138.086 81.822 138.086 81.822C138.086 81.822 136.825 83.6457 137.807 86.0766C139.818 91.0537 146.766 104.301 150.219 110.659C154.429 118.41 166.154 111.36 162.025 102.218Z" fill="#6D6757"/>
<path fill-rule="evenodd" clip-rule="evenodd" d="M147.787 77.2799L145.009 71.7193C145.009 71.7193 144.456 70.8828 143.44 71.2562C142.423 71.6302 138.016 73.3803 135.922 75.6122C135.922 75.6122 135.344 75.9516 135.878 77.085C136.413 78.2174 138.087 81.822 138.087 81.822C142.481 78.432 147.787 77.2799 147.787 77.2799Z" fill="white"/>
<path d="M154.125 113.993C154.197 113.993 154.262 113.944 154.279 113.871C154.299 113.786 154.246 113.701 154.161 113.682C152.574 113.313 151.258 112.241 150.358 110.584C147.2 104.77 140.013 91.1153 137.953 86.0175C137.017 83.6992 138.204 81.929 138.215 81.9113C138.265 81.8396 138.247 81.7412 138.175 81.6919C138.104 81.6426 138.006 81.6606 137.957 81.7323C137.903 81.8092 136.658 83.6543 137.661 86.136C139.725 91.2457 146.92 104.915 150.081 110.734C151.025 112.473 152.412 113.599 154.089 113.989C154.101 113.991 154.114 113.993 154.125 113.993ZM157.828 93.5755C157.851 93.5755 157.874 93.5705 157.897 93.5596C157.975 93.5213 158.008 93.4265 157.969 93.3485C156.001 89.3257 153.918 85.1479 152.54 82.3837C151.794 80.8892 151.26 79.8172 151.07 79.4231C150.102 77.4226 147.899 77.1347 147.806 77.1236C147.721 77.1146 147.641 77.1744 147.631 77.261C147.62 77.3472 147.682 77.426 147.768 77.4367C147.789 77.4389 149.894 77.7182 150.785 79.5604C150.976 79.9553 151.511 81.0284 152.257 82.5245C153.635 85.2885 155.718 89.4658 157.686 93.4875C157.713 93.543 157.769 93.5755 157.828 93.5755Z" fill="#585448"/>
<path d="M104.127 111.766C106.611 111.767 108.627 110.357 109.698 107.846C112.717 100.77 116.927 89.9137 118.383 85.0306C119.147 82.4662 117.735 80.7468 117.674 80.6743C117.618 80.6088 117.519 80.5997 117.452 80.6552C117.386 80.7117 117.376 80.811 117.433 80.8776C117.446 80.8942 118.795 82.5445 118.08 84.9403C116.628 89.8137 112.424 100.654 109.408 107.722C108.331 110.247 106.251 111.595 103.714 111.437C103.63 111.424 103.552 111.498 103.546 111.585C103.54 111.672 103.606 111.747 103.694 111.752C103.839 111.762 103.984 111.766 104.127 111.766ZM101.052 89.3194C101.116 89.3194 101.177 89.2801 101.2 89.2156C102.879 84.6159 104.408 80.499 104.697 79.7198C105.411 77.8022 107.481 77.3266 107.502 77.3216C107.586 77.303 107.641 77.2192 107.622 77.134C107.603 77.0487 107.521 76.9969 107.435 77.0135C107.342 77.0335 105.177 77.528 104.402 79.6102C104.112 80.3889 102.583 84.5069 100.904 89.1076C100.874 89.1898 100.916 89.2802 100.998 89.3099C101.016 89.3168 101.034 89.3194 101.052 89.3194Z" fill="#585448"/>
<path fill-rule="evenodd" clip-rule="evenodd" d="M153.213 115.203C153.213 115.203 153.985 115.251 154.256 115.96C154.527 116.67 155.717 119.988 155.717 119.988C155.717 119.988 155.925 120.591 155.434 121.208C154.944 121.824 153.568 122.659 153.568 122.659C153.568 122.659 152.963 123.014 152.107 122.993C151.251 122.972 145.283 122.283 145.283 122.283C145.283 122.283 144.219 122.158 143.968 121.532C143.718 120.906 143.217 117.608 143.217 117.608C143.217 117.608 142.903 116.294 144.156 116.085C145.408 115.877 153.213 115.203 153.213 115.203Z" fill="#6D6757"/>
<path d="M152.179 123.152C153.03 123.152 153.623 122.81 153.647 122.795C153.707 122.76 155.056 121.937 155.558 121.306C156.096 120.629 155.876 119.965 155.866 119.936C155.853 119.901 154.672 116.606 154.404 115.904C154.099 115.109 153.259 115.048 153.223 115.046C152.88 115.074 145.374 115.722 144.13 115.93C143.729 115.997 143.431 116.174 143.242 116.458C142.906 116.964 143.057 117.618 143.063 117.645C143.082 117.768 143.567 120.955 143.822 121.591C144.104 122.296 145.218 122.434 145.264 122.44C145.509 122.468 151.25 123.13 152.103 123.15L152.179 123.152ZM153.226 115.361C153.23 115.362 153.878 115.414 154.109 116.016C154.376 116.716 155.556 120.008 155.568 120.04C155.575 120.06 155.738 120.573 155.312 121.109C154.845 121.698 153.5 122.516 153.486 122.524C153.483 122.526 152.941 122.835 152.179 122.835L152.111 122.835C151.272 122.815 145.361 122.133 145.301 122.127C145.292 122.125 144.327 122.004 144.115 121.473C143.874 120.871 143.378 117.618 143.373 117.585C143.369 117.567 143.246 117.021 143.507 116.631C143.645 116.424 143.872 116.293 144.182 116.241C145.414 116.036 153.148 115.367 153.226 115.361Z" fill="#585448"/>
<path d="M146.243 127.032C146.254 127.032 146.264 127.031 146.275 127.029C146.36 127.011 146.415 126.927 146.397 126.842L145.438 122.251C145.42 122.166 145.337 122.111 145.251 122.129C145.166 122.147 145.111 122.23 145.129 122.315L146.089 126.907C146.104 126.98 146.17 127.032 146.243 127.032Z" fill="#585448"/>
<path fill-rule="evenodd" clip-rule="evenodd" d="M104.925 115.203C104.925 115.203 104.153 115.251 103.882 115.96C103.611 116.67 102.421 119.988 102.421 119.988C102.421 119.988 102.213 120.59 102.703 121.207C103.193 121.824 104.571 122.659 104.571 122.659C104.571 122.659 105.176 123.013 106.031 122.993C106.887 122.972 112.855 122.283 112.855 122.283C112.855 122.283 113.919 122.158 114.17 121.532C114.42 120.906 114.921 117.608 114.921 117.608C114.921 117.608 115.234 116.294 113.982 116.085C112.73 115.877 104.925 115.203 104.925 115.203Z" fill="#6D6757"/>
<path d="M105.959 123.152L106.035 123.15C106.888 123.13 112.629 122.468 112.874 122.44C112.921 122.435 114.034 122.296 114.317 121.591C114.571 120.955 115.056 117.768 115.076 117.632C115.081 117.618 115.232 116.964 114.896 116.458C114.707 116.174 114.409 115.997 114.008 115.929C112.764 115.722 105.258 115.074 104.938 115.046C104.88 115.048 104.039 115.109 103.734 115.904C103.466 116.606 102.284 119.901 102.273 119.935C102.262 119.965 102.041 120.628 102.58 121.305C103.081 121.937 104.431 122.759 104.488 122.793C104.516 122.81 105.109 123.152 105.959 123.152ZM104.936 115.361C104.99 115.367 112.724 116.036 113.956 116.241C114.267 116.293 114.495 116.424 114.633 116.633C114.894 117.026 114.769 117.566 114.768 117.572C114.76 117.618 114.264 120.871 114.024 121.473C113.811 122.004 112.847 122.125 112.837 122.127C112.778 122.133 106.866 122.815 106.028 122.835L105.959 122.835C105.198 122.835 104.656 122.526 104.65 122.523C104.639 122.516 103.293 121.697 102.826 121.109C102.395 120.566 102.569 120.045 102.57 120.04C102.582 120.008 103.762 116.716 104.03 116.016C104.26 115.414 104.908 115.362 104.936 115.361Z" fill="#585448"/>
<path d="M111.896 127.032C111.969 127.032 112.035 126.98 112.05 126.907L113.01 122.315C113.028 122.23 112.973 122.147 112.888 122.129C112.801 122.111 112.72 122.166 112.702 122.251L111.742 126.842C111.724 126.927 111.778 127.011 111.864 127.029C111.875 127.031 111.885 127.032 111.896 127.032Z" fill="#585448"/>
<path d="M111.787 63.8594C111.797 63.8594 111.807 63.8587 111.818 63.8566C111.903 63.8387 111.958 63.7559 111.941 63.6703C110.934 58.7432 112.88 52.1432 112.9 52.0768C112.907 52.0501 112.908 52.0213 112.901 51.9941C112.632 50.9021 112.438 49.9334 112.324 49.1156C111.681 44.4993 114.123 34.5757 118.119 29.1766C118.17 29.1069 118.156 29.0082 118.085 28.9557C118.016 28.904 117.916 28.9188 117.865 28.9888C113.76 34.5367 111.348 44.3869 112.011 49.1591C112.126 49.9773 112.318 50.9424 112.584 52.0285C112.419 52.6042 110.651 58.9354 111.632 63.7339C111.647 63.808 111.713 63.8594 111.787 63.8594Z" fill="white"/>
<path fill-rule="evenodd" clip-rule="evenodd" d="M9.38199 129.156H214.487C214.861 129.156 215.17 129.48 215.17 129.877C215.17 130.272 214.861 130.597 214.487 130.597H9.38199C9.00661 130.597 8.69801 130.272 8.69801 129.877C8.69801 129.48 9.00661 129.156 9.38199 129.156Z" fill="white"/>
<path fill-rule="evenodd" clip-rule="evenodd" d="M6.65418 129.156H4.73268C4.3663 129.156 4.06687 129.48 4.06687 129.877C4.06687 130.272 4.3663 130.597 4.73268 130.597H6.65418C7.02124 130.597 7.32227 130.272 7.32227 129.877C7.32227 129.48 7.02124 129.156 6.65418 129.156Z" fill="white"/>
<path fill-rule="evenodd" clip-rule="evenodd" d="M47.3369 129.156H43.4227H35.2742V127.877V105.242L35.4717 104.939H50.334V106.993H47.3369V129.156Z" fill="white"/>
<path fill-rule="evenodd" clip-rule="evenodd" d="M35.2742 105.242L39.3479 98.9954H50.334V105.242H35.2742Z" fill="white"/>
<path fill-rule="evenodd" clip-rule="evenodd" d="M46.2598 129.156H54.4072V127.877V106.522V105.242L50.3342 98.9954L46.2598 105.242V127.877V127.876V129.156Z" fill="#FFC7C0"/>
<path fill-rule="evenodd" clip-rule="evenodd" d="M43.9044 112.288H37.6299C37.2028 112.288 36.8543 112.637 36.8543 113.063V119.337C36.8543 119.764 37.2028 120.112 37.6299 120.112H43.9044C44.331 120.112 44.6797 119.764 44.6797 119.337V113.063C44.6797 112.637 44.331 112.288 43.9044 112.288Z" fill="#FFC7C0"/>
<path d="M35.2747 105.463H46.6522C46.7734 105.463 46.873 105.364 46.873 105.242C46.873 105.12 46.7734 105.021 46.6522 105.021H35.2747C35.1525 105.021 35.0539 105.12 35.0539 105.242C35.0539 105.364 35.1525 105.463 35.2747 105.463Z" fill="#FFC7C0"/>
<path d="M39.348 99.2162H50.3328C50.4557 99.2162 50.5537 99.1173 50.5537 98.9954C50.5537 98.8736 50.4557 98.7745 50.3328 98.7745H39.348C39.2261 98.7745 39.1272 98.8736 39.1272 98.9954C39.1272 99.1173 39.2261 99.2162 39.348 99.2162Z" fill="#FFC7C0"/>
<path fill-rule="evenodd" clip-rule="evenodd" d="M90.9798 112.53H72.309C71.9882 112.53 71.7259 112.268 71.7259 111.946V107.665C71.7259 107.343 71.9882 107.081 72.309 107.081H90.9798C91.3012 107.081 91.5635 107.343 91.5635 107.665V111.946C91.5635 112.268 91.3012 112.53 90.9798 112.53ZM85.2853 108.05H78.0038C77.6312 108.05 77.3262 108.355 77.3262 108.728V109.521C77.3262 109.894 77.6312 110.198 78.0038 110.198H85.2853C85.658 110.198 85.9633 109.894 85.9633 109.521V108.728C85.9632 108.355 85.6579 108.05 85.2853 108.05Z" fill="#FFC7C0"/>
<path fill-rule="evenodd" clip-rule="evenodd" d="M89.5089 129.156H74.5194H68.9317V128.279V115.578L69.0667 115.37H91.5635V116.779H89.5089V129.156Z" fill="#FFC7C0"/>
<path fill-rule="evenodd" clip-rule="evenodd" d="M68.9317 115.578L71.726 111.294H91.5635V115.578H68.9317Z" fill="white"/>
<path fill-rule="evenodd" clip-rule="evenodd" d="M88.7695 129.156H94.3574V128.279V116.456V115.578L91.5632 111.294L88.7695 115.578V128.279V129.156Z" fill="#FEA2A3"/>
<path fill-rule="evenodd" clip-rule="evenodd" d="M172.631 113.099H169.767C169.29 113.099 168.901 113.488 168.901 113.963V118.965V120.785C168.901 121.889 169.707 123.978 169.707 125.648C169.707 127.319 169.204 128.314 169.065 128.616C168.925 128.918 169.055 129.156 169.383 129.156C169.711 129.156 172.631 129.156 172.631 129.156C172.631 129.156 175.549 129.156 175.878 129.156C176.206 129.156 176.335 128.918 176.197 128.616C176.057 128.314 175.554 127.319 175.554 125.648C175.554 123.978 176.359 121.889 176.359 120.785V118.965V113.963C176.359 113.488 175.971 113.099 175.495 113.099H172.631Z" fill="#EFE6EC"/>
<path fill-rule="evenodd" clip-rule="evenodd" d="M175.888 116.554C175.888 116.554 175.908 115.709 175.043 115.411C174.178 115.112 172.329 115.649 171.155 117.161C169.982 118.673 173.502 119.19 174.298 118.613C175.093 118.036 175.55 117.837 175.888 116.554Z" fill="#7F5B78"/>
<path fill-rule="evenodd" clip-rule="evenodd" d="M175.708 128.684C174.682 128.684 173.656 128.684 172.63 128.684C171.604 128.684 170.578 128.684 169.551 128.684C169.99 127.69 170.179 126.758 170.179 125.648C170.179 125.026 170.08 124.393 169.958 123.784C169.842 123.205 169.698 122.633 169.569 122.057C169.482 121.666 169.373 121.186 169.373 120.785V117.489C169.373 113.068 173.842 120.781 175.887 116.554V120.785C175.887 121.186 175.778 121.666 175.69 122.057C175.562 122.633 175.418 123.205 175.302 123.784C175.179 124.393 175.081 125.026 175.081 125.648C175.081 126.757 175.27 127.69 175.708 128.684Z" fill="#9E6D82"/>
<path fill-rule="evenodd" clip-rule="evenodd" d="M174.517 119.104C174.295 119.104 174.114 119.285 174.114 119.507C174.114 119.729 174.295 119.91 174.517 119.91C174.739 119.91 174.92 119.729 174.92 119.507C174.92 119.285 174.739 119.104 174.517 119.104Z" fill="#A9778B"/>
<path fill-rule="evenodd" clip-rule="evenodd" d="M170.996 118.414C170.743 118.414 170.539 118.619 170.539 118.872C170.539 119.124 170.743 119.329 170.996 119.329C171.249 119.329 171.453 119.124 171.453 118.872C171.453 118.619 171.249 118.414 170.996 118.414Z" fill="#A9778B"/>
<path fill-rule="evenodd" clip-rule="evenodd" d="M171.076 119.915C170.949 119.915 170.847 120.018 170.847 120.144C170.847 120.27 170.949 120.373 171.076 120.373C171.202 120.373 171.305 120.27 171.305 120.144C171.305 120.018 171.202 119.915 171.076 119.915Z" fill="#A9778B"/>
<path fill-rule="evenodd" clip-rule="evenodd" d="M171.971 119.279C171.845 119.279 171.742 119.382 171.742 119.507C171.742 119.634 171.845 119.736 171.971 119.736C172.097 119.736 172.199 119.634 172.199 119.507C172.199 119.381 172.097 119.279 171.971 119.279Z" fill="#A9778B"/>
<path fill-rule="evenodd" clip-rule="evenodd" d="M170.36 119.589C170.295 119.589 170.242 119.642 170.242 119.707C170.242 119.771 170.295 119.825 170.36 119.825C170.425 119.825 170.478 119.771 170.478 119.707C170.478 119.642 170.425 119.589 170.36 119.589Z" fill="#A9778B"/>
<path fill-rule="evenodd" clip-rule="evenodd" d="M171.722 120.036C171.657 120.036 171.605 120.089 171.605 120.154C171.605 120.219 171.657 120.272 171.722 120.272C171.787 120.272 171.84 120.219 171.84 120.154C171.84 120.089 171.787 120.036 171.722 120.036Z" fill="#A9778B"/>
<path fill-rule="evenodd" clip-rule="evenodd" d="M171.841 118.704C171.776 118.704 171.724 118.756 171.724 118.822C171.724 118.887 171.776 118.94 171.841 118.94C171.906 118.94 171.959 118.887 171.959 118.822C171.959 118.756 171.906 118.704 171.841 118.704Z" fill="#A9778B"/>
<path d="M173.363 126.826C173.11 126.826 172.905 126.622 172.905 126.369C172.905 126.116 173.11 125.911 173.363 125.911C173.615 125.911 173.82 126.116 173.82 126.369C173.82 126.622 173.615 126.826 173.363 126.826Z" fill="#A9778B"/>
<path fill-rule="evenodd" clip-rule="evenodd" d="M173.443 127.413C173.316 127.413 173.214 127.515 173.214 127.642C173.214 127.768 173.316 127.871 173.443 127.871C173.57 127.871 173.672 127.768 173.672 127.642C173.672 127.515 173.57 127.413 173.443 127.413Z" fill="#A9778B"/>
<path fill-rule="evenodd" clip-rule="evenodd" d="M174.337 126.777C174.211 126.777 174.108 126.879 174.108 127.005C174.108 127.131 174.211 127.234 174.337 127.234C174.464 127.234 174.566 127.131 174.566 127.005C174.566 126.879 174.464 126.777 174.337 126.777Z" fill="#A9778B"/>
<path fill-rule="evenodd" clip-rule="evenodd" d="M172.726 127.087C172.661 127.087 172.609 127.139 172.609 127.204C172.609 127.269 172.661 127.322 172.726 127.322C172.791 127.322 172.844 127.269 172.844 127.204C172.844 127.139 172.791 127.087 172.726 127.087Z" fill="#A9778B"/>
<path fill-rule="evenodd" clip-rule="evenodd" d="M174.088 127.534C174.024 127.534 173.971 127.587 173.971 127.652C173.971 127.717 174.024 127.769 174.088 127.769C174.154 127.769 174.206 127.717 174.206 127.652C174.206 127.587 174.154 127.534 174.088 127.534Z" fill="#A9778B"/>
<path fill-rule="evenodd" clip-rule="evenodd" d="M174.209 126.202C174.144 126.202 174.091 126.254 174.091 126.319C174.091 126.384 174.144 126.437 174.209 126.437C174.274 126.437 174.326 126.384 174.326 126.319C174.326 126.254 174.274 126.202 174.209 126.202Z" fill="#A9778B"/>
<path fill-rule="evenodd" clip-rule="evenodd" d="M173.244 121.695C173.497 121.695 173.701 121.899 173.701 122.152C173.701 122.405 173.497 122.61 173.244 122.61C172.991 122.61 172.787 122.405 172.787 122.152C172.787 121.899 172.991 121.695 173.244 121.695Z" fill="#A9778B"/>
<path fill-rule="evenodd" clip-rule="evenodd" d="M173.164 123.196C173.291 123.196 173.394 123.299 173.394 123.425C173.394 123.551 173.291 123.653 173.164 123.653C173.038 123.653 172.935 123.551 172.935 123.425C172.935 123.299 173.038 123.196 173.164 123.196Z" fill="#A9778B"/>
<path fill-rule="evenodd" clip-rule="evenodd" d="M172.27 122.559C172.397 122.559 172.499 122.662 172.499 122.789C172.499 122.915 172.397 123.017 172.27 123.017C172.144 123.017 172.042 122.915 172.042 122.789C172.042 122.662 172.144 122.559 172.27 122.559Z" fill="#A9778B"/>
<path fill-rule="evenodd" clip-rule="evenodd" d="M173.88 122.87C173.946 122.87 173.998 122.923 173.998 122.987C173.998 123.052 173.946 123.105 173.88 123.105C173.815 123.105 173.763 123.052 173.763 122.987C173.763 122.923 173.815 122.87 173.88 122.87Z" fill="#A9778B"/>
<path fill-rule="evenodd" clip-rule="evenodd" d="M172.518 123.317C172.583 123.317 172.636 123.37 172.636 123.435C172.636 123.5 172.583 123.553 172.518 123.553C172.453 123.553 172.401 123.5 172.401 123.435C172.401 123.37 172.453 123.317 172.518 123.317Z" fill="#A9778B"/>
<path fill-rule="evenodd" clip-rule="evenodd" d="M172.399 121.985C172.464 121.985 172.517 122.038 172.517 122.103C172.517 122.168 172.464 122.22 172.399 122.22C172.334 122.22 172.281 122.168 172.281 122.103C172.281 122.038 172.334 121.985 172.399 121.985Z" fill="#A9778B"/>
<path fill-rule="evenodd" clip-rule="evenodd" d="M175.095 120.281C175.006 120.281 174.934 120.353 174.934 120.442C174.934 120.53 175.006 120.602 175.095 120.602C175.184 120.602 175.256 120.53 175.256 120.442C175.256 120.353 175.184 120.281 175.095 120.281Z" fill="#A9778B"/>
<path fill-rule="evenodd" clip-rule="evenodd" d="M170.6 121.972C170.511 121.972 170.439 122.044 170.439 122.132C170.439 122.221 170.511 122.293 170.6 122.293C170.688 122.293 170.76 122.221 170.76 122.132C170.76 122.044 170.688 121.972 170.6 121.972Z" fill="#A9778B"/>
<path fill-rule="evenodd" clip-rule="evenodd" d="M174.121 124.677C174.032 124.677 173.961 124.749 173.961 124.838C173.961 124.926 174.032 124.998 174.121 124.998C174.21 124.998 174.281 124.926 174.281 124.838C174.281 124.749 174.21 124.677 174.121 124.677Z" fill="#A9778B"/>
<path fill-rule="evenodd" clip-rule="evenodd" d="M171.038 127.063C170.949 127.063 170.877 127.135 170.877 127.224C170.877 127.312 170.949 127.384 171.038 127.384C171.127 127.384 171.198 127.312 171.198 127.224C171.198 127.135 171.127 127.063 171.038 127.063Z" fill="#A9778B"/>
<path fill-rule="evenodd" clip-rule="evenodd" d="M130.513 127.264C132.673 127.264 134.424 125.513 134.424 123.354C134.424 121.195 132.673 119.444 130.513 119.444C128.354 119.444 126.603 121.195 126.603 123.354C126.603 125.513 128.354 127.264 130.513 127.264Z" fill="#9E6D82"/>
<path fill-rule="evenodd" clip-rule="evenodd" d="M126.582 123.354H130.514H134.446C134.682 123.354 134.835 123.547 134.784 123.784L133.726 128.726C133.675 128.962 133.44 129.156 133.203 129.156H130.514H127.825C127.588 129.156 127.353 128.962 127.303 128.726L126.244 123.784C126.194 123.547 126.345 123.354 126.582 123.354Z" fill="white"/>
<path fill-rule="evenodd" clip-rule="evenodd" d="M134.135 122.686C134.424 122.686 134.657 122.453 134.657 122.164C134.657 121.876 134.424 121.643 134.135 121.643C133.848 121.643 133.614 121.876 133.614 122.164C133.614 122.452 133.848 122.686 134.135 122.686ZM131.737 122.789C132.026 122.789 132.259 122.555 132.259 122.267C132.259 121.979 132.026 121.745 131.737 121.745C131.449 121.745 131.216 121.979 131.216 122.267C131.216 122.555 131.449 122.789 131.737 122.789ZM130.699 121.101C130.987 121.101 131.22 120.867 131.22 120.579C131.22 120.29 130.987 120.057 130.699 120.057C130.411 120.057 130.177 120.29 130.177 120.579C130.177 120.867 130.411 121.101 130.699 121.101ZM129.256 122.686C129.544 122.686 129.777 122.453 129.777 122.164C129.777 121.876 129.544 121.643 129.256 121.643C128.968 121.643 128.734 121.876 128.734 122.164C128.734 122.452 128.968 122.686 129.256 122.686ZM128.85 120.446C129.138 120.446 129.372 120.213 129.372 119.925C129.372 119.637 129.138 119.403 128.85 119.403C128.562 119.403 128.328 119.637 128.328 119.925C128.328 120.213 128.562 120.446 128.85 120.446ZM126.981 122.686C127.27 122.686 127.503 122.453 127.503 122.164C127.503 121.876 127.27 121.643 126.981 121.643C126.694 121.643 126.461 121.876 126.461 122.164C126.46 122.452 126.694 122.686 126.981 122.686ZM132.694 120.759C132.983 120.759 133.216 120.525 133.216 120.237C133.216 119.949 132.983 119.715 132.694 119.715C132.406 119.715 132.173 119.949 132.173 120.237C132.173 120.525 132.406 120.759 132.694 120.759Z" fill="#735974"/>
<path fill-rule="evenodd" clip-rule="evenodd" d="M98.7999 115.301C100.691 115.301 102.583 115.796 104.19 116.806C105.645 117.723 106.835 119.052 107.421 120.683C107.677 121.393 107.809 122.138 107.809 122.893C107.809 123.187 107.568 123.428 107.273 123.428H90.3252C90.0304 123.428 89.7902 123.187 89.7902 122.893C89.7902 122.138 89.9213 121.393 90.1774 120.683C90.7633 119.052 91.9546 117.723 93.4101 116.806C95.0157 115.796 96.9076 115.301 98.7999 115.301Z" fill="#F9D4C8"/>
<path fill-rule="evenodd" clip-rule="evenodd" d="M97.4805 123.428H90.3252C90.0304 123.428 89.7902 123.187 89.7902 122.893C89.7902 122.138 89.9214 121.393 90.1774 120.683C90.6923 119.249 91.675 118.049 92.8925 117.158C92.8888 117.166 89.7337 123.428 97.4805 123.428Z" fill="#FFC5B0"/>
<path fill-rule="evenodd" clip-rule="evenodd" d="M91.0424 126.016H106.556C106.878 126.016 107.141 126.279 107.141 126.6C107.141 126.922 106.878 127.185 106.556 127.185H91.0424C90.7213 127.185 90.4585 126.922 90.4585 126.6C90.4585 126.279 90.7213 126.016 91.0424 126.016Z" fill="#B2E1D9"/>
<path fill-rule="evenodd" clip-rule="evenodd" d="M90.4969 127.185H107.101C107.363 127.185 107.575 127.399 107.575 127.659V128.171C107.575 128.713 107.132 129.156 106.589 129.156H91.009C90.4664 129.156 90.0234 128.713 90.0234 128.171V127.659C90.0234 127.399 90.236 127.185 90.4969 127.185Z" fill="#FFC5B0"/>
<path fill-rule="evenodd" clip-rule="evenodd" d="M90.4008 126.016H107.196C107.505 126.016 107.759 125.763 107.759 125.453V124.903C107.759 124.593 107.505 124.34 107.196 124.34H90.4008C90.0909 124.34 89.8369 124.593 89.8369 124.903V125.453C89.8369 125.763 90.0909 126.016 90.4008 126.016Z" fill="#EC7C8D"/>
<path fill-rule="evenodd" clip-rule="evenodd" d="M105.253 128.069V128.275C105.253 128.605 105.523 128.876 105.853 128.876C106.184 128.876 106.454 128.605 106.454 128.275V128.069C106.454 127.737 106.184 127.468 105.853 127.468C105.523 127.468 105.253 127.738 105.253 128.069ZM103.554 124.787V125.396C103.554 125.66 103.769 125.875 104.032 125.875H104.034C104.296 125.875 104.513 125.66 104.513 125.396V125.009C104.513 124.804 104.679 124.638 104.883 124.638C105.086 124.638 105.253 124.804 105.253 125.009V126.403C105.253 126.733 105.523 127.003 105.853 127.003C106.184 127.003 106.454 126.733 106.454 126.403V124.787C106.475 124.537 106.685 124.34 106.939 124.34H107.122C107.373 124.34 107.578 124.135 107.578 123.884C107.578 123.633 107.373 123.428 107.122 123.428H90.4749C90.2235 123.428 90.0194 123.633 90.0194 123.884C90.0194 124.135 90.2235 124.34 90.4749 124.34H91.2241V126.027C91.2241 126.45 91.5686 126.794 91.9895 126.794C92.4112 126.794 92.7562 126.449 92.7562 126.027V125.055C92.7888 124.655 93.1256 124.34 93.5322 124.34H103.069C103.323 124.34 103.533 124.537 103.554 124.787Z" fill="white"/>
<path fill-rule="evenodd" clip-rule="evenodd" d="M95.2361 124.756H100.398C100.634 124.756 100.826 124.949 100.826 125.185V125.185C100.826 125.42 100.634 125.613 100.398 125.613H95.2361C95.0001 125.613 94.8076 125.42 94.8076 125.185V125.185C94.8076 124.949 95.0001 124.756 95.2361 124.756Z" fill="#9E6D82"/>
<path fill-rule="evenodd" clip-rule="evenodd" d="M61.1756 110.512H51.9686C51.5207 110.512 51.1543 110.878 51.1543 111.326V111.36C51.1543 111.81 51.5206 112.176 51.9686 112.176H61.1756C61.6241 112.176 61.9912 111.81 61.9912 111.36V111.326C61.9913 110.878 61.6241 110.512 61.1756 110.512Z" fill="#FFC7C0"/>
<path fill-rule="evenodd" clip-rule="evenodd" d="M56.5742 129.156H53.3701C53.3701 129.156 52.4273 128.998 52.239 127.617C52.0501 126.234 50.9648 113.008 50.9648 113.008L54.3439 112.176L56.5742 112.601L58.8027 112.176L62.1816 113.008C62.1816 113.008 61.0952 126.234 60.9069 127.617C60.7193 128.998 59.7764 129.156 59.7764 129.156H56.5742Z" fill="white"/>
<path fill-rule="evenodd" clip-rule="evenodd" d="M50.9648 113.008L54.2712 112.194L54.4467 112.196L56.5742 112.601L58.4889 112.236L59.0699 112.242L62.1816 113.008C62.1816 113.008 62.0775 114.283 61.9276 116.08C59.1001 115.563 52.3066 113.415 50.9855 113.262L50.9648 113.008Z" fill="#FFC7C0"/>
<path fill-rule="evenodd" clip-rule="evenodd" d="M62.1814 111.344H50.9646C50.5161 111.344 50.149 111.711 50.149 112.159V112.194C50.149 112.642 50.5161 113.008 50.9646 113.008H62.1814C62.63 113.008 62.9971 112.642 62.9971 112.194V112.159C62.9971 111.711 62.63 111.344 62.1814 111.344Z" fill="white"/>
<path fill-rule="evenodd" clip-rule="evenodd" d="M17.0103 112.994C18.7234 112.636 20.4439 113.939 20.8543 115.904C20.8924 116.088 20.918 116.27 20.9318 116.451V116.451C20.942 116.592 20.9446 116.731 20.9413 116.869L21.0047 119.725C21.0047 119.725 21.196 121.792 19.8973 122.063L17.9945 122.46C16.6958 122.732 16.0435 120.761 16.0435 120.761L14.9593 118.119C14.9009 117.994 14.8476 117.865 14.8006 117.731C14.7404 117.56 14.6902 117.382 14.653 117.2C14.2422 115.234 15.2981 113.351 17.0103 112.994Z" fill="#83D0CD"/>
<path fill-rule="evenodd" clip-rule="evenodd" d="M19.8019 116.12C19.8351 116.28 19.862 116.44 19.8841 116.6C19.9048 116.759 19.9192 116.919 19.9281 117.079V117.08L20.1689 119.838C20.1821 119.937 20.4312 121.951 19.5446 122.136L18.3463 122.387C17.4594 122.572 16.8813 120.626 16.8537 120.531L15.9711 117.905C15.9152 117.755 15.8645 117.603 15.8205 117.449C15.7756 117.294 15.7371 117.135 15.7032 116.976C15.3493 115.28 15.6473 114.08 16.2195 113.458C16.4479 113.211 16.719 113.055 17.0101 112.994C17.3023 112.933 17.6135 112.968 17.9204 113.104C18.6941 113.444 19.4469 114.424 19.8019 116.12ZM19.6865 116.622C19.6658 116.469 19.6395 116.315 19.6074 116.161C19.2705 114.549 18.5706 113.625 17.8551 113.31C17.5853 113.19 17.3112 113.159 17.0559 113.213C16.8012 113.265 16.5633 113.404 16.3622 113.621C15.8331 114.196 15.5603 115.323 15.8972 116.936C15.9304 117.09 15.9675 117.242 16.0102 117.39C16.0534 117.539 16.1016 117.686 16.1546 117.828L16.1552 117.832L17.0403 120.461V120.462L17.0416 120.466C17.0436 120.472 17.5736 122.32 18.3016 122.168L19.4991 121.918C20.2093 121.77 19.9849 119.949 19.9727 119.858L19.9717 119.85L19.7301 117.09L19.7288 117.081C19.7211 116.929 19.7065 116.777 19.6865 116.622Z" fill="#B2E1D9"/>
<path fill-rule="evenodd" clip-rule="evenodd" d="M26.6928 112.994C24.9799 112.636 23.2595 113.939 22.8488 115.904C22.811 116.088 22.7853 116.27 22.7715 116.451V116.451C22.7613 116.592 22.7585 116.731 22.762 116.869L22.6986 119.725C22.6986 119.725 22.5074 121.792 23.8061 122.063L25.7089 122.46C27.0076 122.732 27.6596 120.761 27.6596 120.761L28.7431 118.119C28.8026 117.994 28.8559 117.865 28.9028 117.731C28.9626 117.56 29.0116 117.382 29.0504 117.2C29.4601 115.234 28.4049 113.351 26.6928 112.994Z" fill="#83D0CD"/>
<path fill-rule="evenodd" clip-rule="evenodd" d="M23.9011 116.12C23.8678 116.28 23.8409 116.44 23.8189 116.6C23.7982 116.759 23.783 116.919 23.7749 117.079V117.08L23.5333 119.838C23.521 119.937 23.2724 121.951 24.1584 122.136L25.3566 122.387C26.2432 122.572 26.8217 120.626 26.8492 120.531L27.7319 117.905C27.7871 117.755 27.8374 117.603 27.8824 117.449C27.9271 117.294 27.9665 117.135 27.9998 116.976C28.3537 115.28 28.055 114.08 27.4828 113.458C27.2551 113.211 26.9839 113.055 26.6925 112.994C26.4006 112.933 26.0894 112.968 25.7821 113.104C25.0085 113.444 24.2558 114.424 23.9011 116.12ZM24.0164 116.622C24.0361 116.469 24.0631 116.315 24.0957 116.161C24.4318 114.549 25.132 113.625 25.8478 113.31C26.119 113.19 26.3917 113.159 26.6464 113.213C26.9017 113.265 27.1396 113.404 27.3405 113.621C27.8699 114.196 28.141 115.323 27.8051 116.936C27.7725 117.09 27.7351 117.242 27.6924 117.39C27.6489 117.539 27.6013 117.686 27.5482 117.828L27.5461 117.832L26.6628 120.461V120.462L26.6615 120.466C26.6595 120.472 26.1294 122.32 25.4012 122.168L24.204 121.918C23.4939 121.77 23.7186 119.949 23.7305 119.858L23.7312 119.85L23.9727 117.09L23.9733 117.081C23.9819 116.929 23.9964 116.777 24.0164 116.622Z" fill="#B2E1D9"/>
<path fill-rule="evenodd" clip-rule="evenodd" d="M22.0499 111.626C24.2271 111.626 25.9912 113.651 25.9912 116.148C25.9912 116.381 25.9767 116.61 25.9462 116.834V116.834C25.9235 117.008 25.8917 117.179 25.8516 117.347L25.2039 120.84C25.2039 120.84 24.9104 123.406 23.2597 123.406H20.8407C19.1893 123.406 18.8974 120.84 18.8974 120.84L18.2487 117.347C18.2086 117.179 18.1762 117.008 18.1541 116.834V116.834C18.1244 116.61 18.1084 116.381 18.1084 116.148C18.1083 113.651 19.8738 111.626 22.0499 111.626Z" fill="#B2E1D9"/>
<path fill-rule="evenodd" clip-rule="evenodd" d="M24.6553 116.144C24.6553 116.347 24.6477 116.549 24.6326 116.749C24.6181 116.948 24.5951 117.146 24.5649 117.343V117.345L24.157 120.766C24.1472 120.889 23.9387 123.406 22.8112 123.406H21.2893C20.1619 123.406 19.9528 120.889 19.943 120.766L19.5357 117.343C19.5061 117.146 19.4828 116.948 19.4674 116.75C19.4529 116.549 19.4446 116.347 19.4446 116.144C19.4446 113.988 20.1134 112.602 20.9691 111.991C21.3093 111.747 21.6793 111.626 22.05 111.626C22.4204 111.626 22.7911 111.747 23.1306 111.991C23.9865 112.602 24.6553 113.988 24.6553 116.144ZM24.3867 116.727C24.4005 116.535 24.4081 116.341 24.4081 116.144C24.4081 114.096 23.7899 112.791 22.9989 112.226C22.6995 112.012 22.3746 111.904 22.0502 111.904C21.7259 111.904 21.4016 112.012 21.1018 112.226C20.3102 112.791 19.692 114.096 19.692 116.144C19.692 116.341 19.7002 116.535 19.714 116.727C19.7285 116.919 19.7505 117.11 19.7781 117.296L19.7788 117.302L20.187 120.729L20.1877 120.736C20.1877 120.742 20.3642 123.128 21.2896 123.128H22.8115C23.7149 123.128 23.9033 120.853 23.9127 120.74L23.9137 120.729L24.321 117.308L24.3223 117.296C24.351 117.11 24.3717 116.919 24.3867 116.727Z" fill="#83D0CD"/>
<path fill-rule="evenodd" clip-rule="evenodd" d="M25.7285 129.169C25.7285 129.169 26.4124 129.152 26.5744 128.305C26.7368 127.459 27.5488 122.626 27.5488 122.626L22.226 121.742L16.3731 122.626C16.3731 122.626 17.1854 127.459 17.3481 128.305C17.5098 129.152 18.1944 129.169 18.1944 129.169H25.7285Z" fill="#9E6D82"/>
<path fill-rule="evenodd" clip-rule="evenodd" d="M27.2935 124.14L27.5488 122.626L22.226 121.742L16.3731 122.626L16.4296 122.962L27.2935 124.14Z" fill="#433B67"/>
<path fill-rule="evenodd" clip-rule="evenodd" d="M16.1088 120.858H27.8133C28.0712 120.858 28.2832 121.07 28.2832 121.328V122.157C28.2832 122.415 28.0712 122.627 27.8133 122.627H16.1088C15.8505 122.627 15.6395 122.415 15.6395 122.157V121.328C15.6395 121.07 15.8504 120.858 16.1088 120.858Z" fill="#9E6D82"/>
<path fill-rule="evenodd" clip-rule="evenodd" d="M181.359 86.5204C184.004 87.664 183.243 97.9055 191.132 98.0765C191.132 98.0765 190.422 86.8566 181.359 86.5204ZM195.117 95.8543C197.701 90.9496 203.243 93.3981 206.728 88.4637C209.421 84.6522 208.851 78.6746 210.741 76.6892C210.741 76.6892 195.936 78.0333 195.117 95.8543ZM198.919 63.1735C196.611 67.9751 206.282 79.1899 192.233 89.2843C192.233 89.2843 185.074 71.514 198.919 63.1735Z" fill="#B2E1D9"/>
<path d="M193.025 103.399C193.028 103.399 193.03 103.399 193.032 103.399C193.043 103.399 193.054 103.396 193.065 103.393C193.074 103.39 193.083 103.386 193.092 103.381C193.092 103.381 193.092 103.381 193.092 103.38C193.102 103.374 193.112 103.367 193.119 103.358C193.129 103.347 193.137 103.334 193.143 103.319C193.146 103.311 193.149 103.303 193.15 103.294C193.217 102.945 197.473 81.1975 210.782 76.8089C210.847 76.7867 210.884 76.7158 210.862 76.6495C210.84 76.5835 210.768 76.5466 210.702 76.569C198.655 80.5418 193.962 98.5218 193.066 102.479C192.548 97.4697 190.137 69.8519 198.995 63.2744C199.051 63.2326 199.062 63.1541 199.021 63.098C198.979 63.0415 198.901 63.0298 198.844 63.0719C190.126 69.5455 192.172 95.9638 192.769 102.04C191.523 98.2902 187.335 87.1336 181.375 86.3946C181.308 86.3821 181.243 86.4345 181.234 86.5043C181.226 86.5733 181.275 86.6364 181.344 86.645C188.173 87.4918 192.822 103.028 192.904 103.306C192.905 103.307 192.905 103.31 192.906 103.311C192.909 103.321 192.913 103.331 192.919 103.339C192.925 103.349 192.932 103.358 192.941 103.366C192.952 103.376 192.966 103.384 192.98 103.39C192.989 103.394 192.998 103.396 193.007 103.397C193.007 103.397 193.007 103.397 193.008 103.397C193.014 103.399 193.02 103.399 193.025 103.399Z" fill="#83D0CD"/>
<path fill-rule="evenodd" clip-rule="evenodd" d="M197.557 128.088C197.147 129.169 196.439 129.168 196.439 129.168H193.208H189.976C189.976 129.168 189.268 129.169 188.858 128.088C183.882 110.522 189.366 102.97 189.366 102.97H193.208H197.049C197.05 102.97 202.533 110.522 197.557 128.088Z" fill="white"/>
<path fill-rule="evenodd" clip-rule="evenodd" d="M188.773 104.023C189.116 103.314 189.366 102.97 189.366 102.97H193.207H197.049C197.049 102.97 197.658 103.809 198.285 105.576L188.773 104.023Z" fill="#FFC7C0"/>
<path fill-rule="evenodd" clip-rule="evenodd" d="M188.816 102.645H197.6C197.864 102.645 198.08 102.861 198.08 103.125C198.08 103.39 197.864 103.606 197.6 103.606H188.816C188.551 103.606 188.335 103.39 188.335 103.125C188.335 102.861 188.551 102.645 188.816 102.645Z" fill="white"/>
<path d="M91.2267 60.6273C93.088 60.6273 94.9563 60.077 96.5849 58.9613L99.331 59.3414C99.5512 59.3728 99.7635 59.2938 99.9113 59.1274C100.06 58.9618 100.114 58.743 100.058 58.5263L99.4019 55.9536C101.497 52.4174 101.047 47.8336 98.2934 44.7742C98.2123 44.6839 98.0726 44.6755 97.9822 44.7583C97.8912 44.8398 97.8836 44.9792 97.9658 45.07C100.61 48.0088 101.026 52.4229 98.9767 55.8046C98.9459 55.8549 98.9369 55.9156 98.9514 55.9737L99.6303 58.636C99.6497 58.7103 99.6333 58.7762 99.5827 58.8334C99.5312 58.8908 99.466 58.9159 99.3908 58.9043L96.5606 58.5125C96.5054 58.5065 96.4489 58.5188 96.4042 58.5505C92.9494 60.9611 88.3393 60.6817 85.1937 57.8716C84.4237 57.183 83.7826 56.3784 83.2876 55.4785C83.2297 55.3716 83.0958 55.3326 82.9889 55.3916C82.8818 55.4502 82.8427 55.5845 82.9011 55.6914C83.4194 56.6348 84.0924 57.4792 84.8999 58.2007C86.6994 59.8091 88.959 60.627 91.2267 60.6273ZM82.1502 53.2523C82.1653 53.2523 82.1807 53.2505 82.1966 53.2475C82.3158 53.2222 82.3924 53.1052 82.3671 52.9859C82.3132 52.7299 82.2698 52.4677 82.2386 52.206C82.2236 52.085 82.115 51.9934 81.9928 52.0131C81.8716 52.0276 81.7851 52.1376 81.8006 52.2588C81.8335 52.5332 81.8785 52.8084 81.935 53.0769C81.9563 53.1812 82.049 53.2523 82.1502 53.2523ZM81.9859 50.5425C82.0999 50.5425 82.1966 50.4555 82.2061 50.3403C82.374 48.3759 83.1584 46.5594 84.4746 45.0853C86.6113 42.6947 89.8927 41.6052 93.0391 42.2465C93.157 42.2725 93.2744 42.1937 93.2994 42.0739C93.3233 41.9543 93.2468 41.8379 93.1268 41.8135C89.8267 41.144 86.3856 42.2841 84.146 44.7913C82.7644 46.3365 81.9419 48.2425 81.7661 50.3026C81.7556 50.424 81.8459 50.531 81.9676 50.5414C81.9744 50.5423 81.98 50.5425 81.9859 50.5425ZM95.371 43.0391C95.4518 43.0391 95.5304 42.9943 95.5685 42.9171C95.6237 42.808 95.5787 42.6755 95.4696 42.6209C95.1827 42.4782 94.8843 42.3477 94.5836 42.2338C94.4702 42.1902 94.3427 42.2479 94.2993 42.3617C94.2556 42.4759 94.3131 42.6036 94.4274 42.6463C94.7147 42.7551 94.9989 42.8796 95.273 43.0156C95.3039 43.0316 95.3378 43.0391 95.371 43.0391Z" fill="#F9D4C8"/>
<path d="M37.4459 86.9034H76.0642C76.5345 86.9034 76.916 86.5218 76.916 86.0517V76.6844C76.916 76.2148 76.5345 75.8331 76.0642 75.8331H37.4459C36.9766 75.8331 36.5942 76.2148 36.5942 76.6844V86.0517C36.5942 86.5218 36.9766 86.9034 37.4459 86.9034ZM76.0642 76.2748C76.2906 76.2748 76.4744 76.4584 76.4744 76.6844V86.0517C76.4744 86.2782 76.2906 86.4617 76.0642 86.4617H37.4459C37.2196 86.4617 37.0358 86.2782 37.0358 86.0517V76.6844C37.0358 76.4583 37.2196 76.2748 37.4459 76.2748H76.0642ZM50.9598 83.7792H64.7968C64.9198 83.7792 65.0177 83.6798 65.0177 83.5584C65.0177 83.4365 64.9198 83.3376 64.7968 83.3376H50.9598C50.8377 83.3376 50.739 83.4365 50.739 83.5584C50.739 83.6798 50.8376 83.7792 50.9598 83.7792ZM39.7785 81.5894H64.7968C64.9197 81.5894 65.0176 81.49 65.0176 81.3686C65.0176 81.2465 64.9197 81.1478 64.7968 81.1478H39.7785C39.6569 81.1478 39.5576 81.2465 39.5576 81.3686C39.5576 81.49 39.6569 81.5894 39.7785 81.5894ZM39.7785 79.3989H64.7968C64.9197 79.3989 65.0176 79.2999 65.0176 79.178C65.0176 79.0563 64.9197 78.9572 64.7968 78.9572H39.7785C39.6569 78.9572 39.5576 79.0563 39.5576 79.178C39.5576 79.3 39.6569 79.3989 39.7785 79.3989Z" fill="#F9D4C8"/>
<path fill-rule="evenodd" clip-rule="evenodd" d="M73.9201 78.0142H68.8214C68.3791 78.0142 68.0172 78.3762 68.0172 78.8192V83.9172C68.0172 84.3599 68.3791 84.7219 68.8214 84.7219H73.9201C74.3631 84.7219 74.7246 84.3598 74.7246 83.9172V78.8192C74.7246 78.3762 74.3631 78.0142 73.9201 78.0142Z" fill="#F9D4C8"/>
<path d="M170.274 53.402C173.279 53.4029 176.268 52.3194 178.654 50.1889C179.725 49.2318 180.615 48.1138 181.299 46.8649C181.358 46.7583 181.319 46.6244 181.213 46.5654C181.106 46.5064 180.972 46.5453 180.913 46.6526C180.251 47.8577 179.393 48.9363 178.359 49.859C174.143 53.6256 167.966 54.0001 163.336 50.7691C163.291 50.7374 163.234 50.7257 163.18 50.7312L159.409 51.253C159.284 51.2694 159.174 51.2296 159.09 51.1357C159.005 51.041 158.978 50.9265 159.008 50.8044L159.914 47.2585C159.928 47.2008 159.919 47.1402 159.888 47.0894C157.142 42.5578 157.699 36.6422 161.244 32.7038C161.325 32.6128 161.318 32.4733 161.228 32.3919C161.137 32.3097 160.997 32.318 160.915 32.408C157.262 36.4671 156.671 42.5525 159.463 47.2387L158.581 50.6949C158.514 50.9588 158.579 51.2266 158.761 51.4295C158.941 51.6325 159.199 51.7269 159.47 51.69L163.155 51.1799C165.317 52.6685 167.801 53.402 170.274 53.402ZM182.364 43.5793C182.467 43.5793 182.559 43.5078 182.58 43.4036C182.655 43.0482 182.715 42.6837 182.759 42.3201C182.773 42.1987 182.687 42.0889 182.566 42.0745C182.44 42.0585 182.335 42.1461 182.32 42.2669C182.278 42.6182 182.22 42.9704 182.148 43.3133C182.124 43.4322 182.2 43.5492 182.319 43.5744C182.335 43.5774 182.35 43.5793 182.364 43.5793ZM182.584 39.9696C182.59 39.9696 182.596 39.9688 182.602 39.9684C182.725 39.9581 182.814 39.8511 182.804 39.73C182.571 37.0012 181.481 34.4775 179.653 32.4316C179.652 32.4316 179.652 32.4313 179.652 32.4313C176.685 29.1105 172.127 27.6011 167.758 28.4872C167.639 28.5114 167.561 28.6281 167.585 28.7473C167.609 28.8671 167.726 28.9434 167.846 28.9202C172.062 28.0625 176.46 29.5207 179.322 32.7246C179.323 32.7246 179.323 32.7253 179.323 32.7253C181.087 34.6994 182.139 37.1345 182.364 39.7674C182.374 39.8825 182.471 39.9696 182.584 39.9696ZM164.754 29.9745C164.788 29.9745 164.821 29.9669 164.853 29.951C165.219 29.7681 165.599 29.6015 165.985 29.4562C166.099 29.4133 166.156 29.2857 166.113 29.1718C166.07 29.0576 165.942 29.0001 165.829 29.0435C165.43 29.194 165.035 29.3665 164.656 29.5563C164.547 29.6109 164.502 29.7434 164.557 29.8525C164.596 29.9296 164.674 29.9745 164.754 29.9745Z" fill="#F9D4C8"/>
<path fill-rule="evenodd" clip-rule="evenodd" d="M164.298 36.6473C165.67 35.2752 167.915 35.2752 169.287 36.6473L170.251 37.612L171.217 36.6473C172.588 35.2752 174.833 35.2752 176.205 36.6473C177.577 38.0192 177.577 40.2635 176.205 41.6357L175.24 42.6003L170.251 47.5892L165.263 42.6003L164.298 41.6357C162.927 40.2636 162.927 38.0192 164.298 36.6473Z" fill="#F9D4C8"/>
<path d="M11.58 94.3805H13.23H13.2307H23.5375C23.6246 94.3805 23.6949 94.3098 23.6949 94.2228C23.6949 94.1358 23.6246 94.0648 23.5375 94.0648H19.6991V91.7066H22.5273C22.614 91.7066 22.6848 91.6359 22.6848 91.5489C22.6848 91.462 22.614 91.3913 22.5273 91.3913H16.4824C16.3954 91.3913 16.325 91.462 16.325 91.5489C16.325 91.6359 16.3954 91.7066 16.4824 91.7066H19.383V94.0648H13.3881V91.7066H14.539C14.626 91.7066 14.6964 91.6359 14.6964 91.5489C14.6964 91.462 14.626 91.3913 14.539 91.3913H13.2307H13.23H10.4596C10.3729 91.3913 10.3022 91.462 10.3022 91.5489C10.3022 91.6359 10.3729 91.7066 10.4596 91.7066H13.0726V94.0648H11.58C11.4929 94.0648 11.4219 94.1358 11.4219 94.2228C11.4219 94.3098 11.4928 94.3805 11.58 94.3805ZM24.6992 94.3805H25.2339C25.3222 94.3805 25.3926 94.3098 25.3926 94.2228C25.3926 94.1358 25.3222 94.0648 25.2339 94.0648H24.6992C24.6121 94.0648 24.5418 94.1358 24.5418 94.2228C24.5418 94.3098 24.6121 94.3805 24.6992 94.3805Z" fill="#FFC7C0"/>
<path d="M94.2651 28.4374H104.583C104.67 28.4374 104.741 28.3666 104.741 28.2797C104.741 28.1928 104.67 28.122 104.583 28.122H97.4091V25.7639H107.678V28.122H106.527C106.44 28.122 106.369 28.1928 106.369 28.2797C106.369 28.3666 106.44 28.4374 106.527 28.4374H110.607C110.694 28.4374 110.765 28.3666 110.765 28.2797C110.765 28.1928 110.694 28.122 110.607 28.122H107.994V25.7639H109.486C109.574 25.7639 109.644 25.6927 109.644 25.6058C109.644 25.5189 109.574 25.4481 109.486 25.4481H95.0317V23.7403C95.0317 23.6534 94.9614 23.5828 94.8736 23.5828C94.7859 23.5828 94.7155 23.6534 94.7155 23.7403V25.4481H93.2551C93.1684 25.4481 93.0974 25.5189 93.0974 25.6058C93.0974 25.6927 93.1684 25.7639 93.2551 25.7639H97.0939V28.122H94.265C94.178 28.122 94.107 28.1928 94.107 28.2797C94.107 28.3666 94.178 28.4374 94.2651 28.4374ZM91.5575 25.7639H92.0925C92.1796 25.7639 92.2506 25.6927 92.2506 25.6058C92.2506 25.5189 92.1796 25.4481 92.0925 25.4481H91.5575C91.4708 25.4481 91.4004 25.5189 91.4004 25.6058C91.4004 25.6927 91.4708 25.7639 91.5575 25.7639Z" fill="#FFC7C0"/>
<path d="M168.491 68.1713H180.449C180.535 68.1713 180.607 68.1008 180.607 68.0139C180.607 67.927 180.535 67.8559 180.449 67.8559H176.61V65.4978H179.439C179.526 65.4978 179.597 65.4266 179.597 65.3401C179.597 65.2531 179.526 65.1823 179.439 65.1823H173.395C173.308 65.1823 173.237 65.2531 173.237 65.3401C173.237 65.4266 173.308 65.4978 173.395 65.4978H176.295V67.8559H170.299V65.4978H171.451C171.538 65.4978 171.609 65.4266 171.609 65.3401C171.609 65.2531 171.538 65.1823 171.451 65.1823H167.371C167.284 65.1823 167.213 65.2531 167.213 65.3401C167.213 65.4266 167.284 65.4978 167.371 65.4978H169.984V67.8559H168.491C168.405 67.8559 168.333 67.927 168.333 68.0139C168.333 68.1008 168.405 68.1713 168.491 68.1713ZM181.611 68.1713H182.146C182.233 68.1713 182.304 68.1008 182.304 68.0139C182.304 67.927 182.233 67.8559 182.146 67.8559H181.611C181.525 67.8559 181.453 67.927 181.453 68.0139C181.453 68.1008 181.525 68.1713 181.611 68.1713Z" fill="#FFC7C0"/>
<path d="M11.5631 56.1514H23.5209C23.6077 56.1514 23.6783 56.0807 23.6783 55.9936C23.6783 55.9067 23.6077 55.836 23.5209 55.836H19.6825V53.4778H22.5104C22.5981 53.4778 22.6691 53.4068 22.6691 53.3199C22.6691 53.2328 22.5981 53.1622 22.5104 53.1622H16.4672C16.3801 53.1622 16.3084 53.2328 16.3084 53.3199C16.3084 53.4068 16.3801 53.4778 16.4672 53.4778H19.3664V55.836H13.3712V53.4778H14.5224C14.6109 53.4778 14.6812 53.4068 14.6812 53.3199C14.6812 53.2328 14.6109 53.1622 14.5224 53.1622H10.4439C10.3568 53.1622 10.2857 53.2328 10.2857 53.3199C10.2857 53.4068 10.3568 53.4778 10.4439 53.4778H13.0558V55.836H11.5632C11.4764 55.836 11.4058 55.9067 11.4058 55.9936C11.4057 56.0808 11.4763 56.1514 11.5631 56.1514ZM24.6836 56.1514H25.2186C25.3053 56.1514 25.376 56.0807 25.376 55.9936C25.376 55.9067 25.3053 55.836 25.2186 55.836H24.6836C24.5969 55.836 24.5248 55.9067 24.5248 55.9936C24.5249 56.0808 24.5969 56.1514 24.6836 56.1514Z" fill="#FFC7C0"/>
<path d="M155.94 20.1752C156.027 20.1752 156.097 20.1042 156.097 20.0171V18.3094H157.558C157.646 18.3094 157.716 18.2387 157.716 18.1518C157.716 18.0649 157.646 17.9937 157.558 17.9937H155.951C155.943 17.9931 155.936 17.9931 155.928 17.9937H153.72V15.6357H156.549C156.635 15.6357 156.706 15.5652 156.706 15.4783C156.706 15.3914 156.635 15.3202 156.549 15.3202H146.231C146.143 15.3202 146.073 15.3914 146.073 15.4783C146.073 15.5652 146.143 15.6357 146.231 15.6357H153.404V17.9937H143.135V15.6357H144.286C144.373 15.6357 144.444 15.5652 144.444 15.4783C144.444 15.3914 144.373 15.3202 144.286 15.3202H140.207C140.12 15.3202 140.049 15.3914 140.049 15.4783C140.049 15.5652 140.12 15.6357 140.207 15.6357H142.82V17.9937H141.327C141.24 17.9937 141.169 18.0649 141.169 18.1518C141.169 18.2387 141.24 18.3094 141.327 18.3094H155.782V20.0171C155.782 20.1043 155.853 20.1752 155.94 20.1752ZM158.72 18.3095H159.255C159.343 18.3095 159.413 18.2388 159.413 18.1519C159.413 18.065 159.343 17.9938 159.255 17.9938H158.72C158.633 17.9938 158.562 18.065 158.562 18.1519C158.562 18.2388 158.633 18.3095 158.72 18.3095Z" fill="#FFC7C0"/>
<path d="M66.188 67.8363H78.1459C78.233 67.8363 78.3033 67.7655 78.3033 67.6787C78.3033 67.5917 78.233 67.5205 78.1459 67.5205H74.3076V65.1625H77.1357C77.2231 65.1625 77.2934 65.092 77.2934 65.0051C77.2934 64.9182 77.2231 64.847 77.1357 64.847H71.0915C71.0044 64.847 70.9334 64.9182 70.9334 65.0051C70.9334 65.092 71.0044 65.1625 71.0915 65.1625H73.9914V67.5205H67.9961V65.1625H69.1474C69.2358 65.1625 69.3061 65.092 69.3061 65.0051C69.3061 64.9182 69.2358 64.847 69.1474 64.847H65.0688C64.9817 64.847 64.9107 64.9182 64.9107 65.0051C64.9107 65.092 64.9817 65.1625 65.0688 65.1625H67.6811V67.5205H66.1881C66.1014 67.5205 66.03 67.5917 66.03 67.6787C66.03 67.7655 66.1012 67.8363 66.188 67.8363ZM79.3072 67.8363H79.8436C79.9306 67.8363 80.001 67.7655 80.001 67.6787C80.001 67.5917 79.9306 67.5205 79.8436 67.5205H79.3072C79.2206 67.5205 79.1498 67.5917 79.1498 67.6787C79.1498 67.7655 79.2206 67.8363 79.3072 67.8363Z" fill="#FFC7C0"/>
<path d="M82.1717 98.5567H82.9973H88.6293C88.7164 98.5567 88.7867 98.4857 88.7867 98.3988C88.7867 98.3117 88.7164 98.241 88.6293 98.241H86.2307V95.8829H87.6191C87.7075 95.8829 87.7778 95.8121 87.7778 95.7252C87.7778 95.6383 87.7075 95.5671 87.6191 95.5671H85.2897C85.203 95.5671 85.1316 95.6383 85.1316 95.7252C85.1316 95.8121 85.203 95.8829 85.2897 95.8829H85.9151V98.241H83.1553V95.8829H84.3058C84.3932 95.8829 84.464 95.8121 84.464 95.7252C84.464 95.6383 84.3932 95.5671 84.3058 95.5671H82.9972H81.0517C80.965 95.5671 80.8936 95.6383 80.8936 95.7252C80.8936 95.8121 80.965 95.8829 81.0517 95.8829H82.8384V98.241H82.1716C82.0849 98.241 82.0139 98.3117 82.0139 98.3988C82.014 98.4857 82.0849 98.5567 82.1717 98.5567ZM89.7917 98.5567H90.327C90.414 98.5567 90.4844 98.4857 90.4844 98.3988C90.4844 98.3117 90.414 98.241 90.327 98.241H89.7917C89.7046 98.241 89.6342 98.3117 89.6342 98.3988C89.6342 98.4857 89.7046 98.5567 89.7917 98.5567Z" fill="#FFC7C0"/>
<path d="M171.82 100.727H178.278C178.366 100.727 178.436 100.656 178.436 100.569C178.436 100.482 178.366 100.411 178.278 100.411H175.88V98.0529H177.268C177.355 98.0529 177.426 97.9827 177.426 97.8957C177.426 97.8088 177.355 97.7376 177.268 97.7376H174.938C174.851 97.7376 174.781 97.8088 174.781 97.8957C174.781 97.9827 174.851 98.0529 174.938 98.0529H175.564V100.411H172.803V98.0529H173.955C174.042 98.0529 174.112 97.9827 174.112 97.8957C174.112 97.8088 174.042 97.7376 173.955 97.7376H170.7C170.613 97.7376 170.543 97.8088 170.543 97.8957C170.543 97.9827 170.613 98.0529 170.7 98.0529H172.488V100.411H171.82C171.733 100.411 171.662 100.482 171.662 100.569C171.662 100.656 171.733 100.727 171.82 100.727ZM179.441 100.727H179.975C180.062 100.727 180.133 100.656 180.133 100.569C180.133 100.482 180.062 100.411 179.975 100.411H179.441C179.353 100.411 179.283 100.482 179.283 100.569C179.283 100.656 179.353 100.727 179.441 100.727Z" fill="#FFC7C0"/>
<path fill-rule="evenodd" clip-rule="evenodd" d="M69.5053 79.8152C69.9358 79.3852 70.6392 79.3852 71.0693 79.8152L71.3713 80.1175L71.6744 79.8152C72.1036 79.3852 72.8069 79.3852 73.2376 79.8152C73.6669 80.2451 73.6669 80.9483 73.2376 81.3783L72.9346 81.6807L71.3713 83.2441L69.8084 81.6807L69.5053 81.3783C69.0762 80.9482 69.0762 80.2451 69.5053 79.8152Z" fill="#FEA2A3"/>
<path d="M194.434 48.8869C194.521 48.8869 194.592 48.8162 194.592 48.7292V48.3477C194.592 48.2606 194.521 48.1896 194.434 48.1896C194.347 48.1896 194.276 48.2606 194.276 48.3477V48.7292C194.276 48.8161 194.347 48.8869 194.434 48.8869ZM193.426 47.879H193.808C193.895 47.879 193.965 47.8078 193.965 47.7209C193.965 47.634 193.895 47.5628 193.808 47.5628H193.426C193.34 47.5628 193.268 47.634 193.268 47.7209C193.268 47.8078 193.34 47.879 193.426 47.879ZM195.06 47.879H195.442C195.529 47.879 195.6 47.8078 195.6 47.7209C195.6 47.634 195.529 47.5628 195.442 47.5628H195.06C194.973 47.5628 194.902 47.634 194.902 47.7209C194.902 47.8078 194.973 47.879 195.06 47.879ZM194.434 47.253C194.521 47.253 194.592 47.1823 194.592 47.0954V46.7134C194.592 46.6265 194.521 46.5553 194.434 46.5553C194.347 46.5553 194.276 46.6265 194.276 46.7134V47.0954C194.276 47.1823 194.347 47.253 194.434 47.253Z" fill="white"/>
<path d="M149.86 35.1977C149.947 35.1977 150.018 35.1268 150.018 35.0399V34.6579C150.018 34.5712 149.947 34.5002 149.86 34.5002C149.773 34.5002 149.703 34.5712 149.703 34.6579V35.0399C149.703 35.1268 149.773 35.1977 149.86 35.1977ZM148.852 34.1898H149.234C149.321 34.1898 149.392 34.119 149.392 34.0321C149.392 33.9452 149.321 33.8743 149.234 33.8743H148.852C148.765 33.8743 148.694 33.9452 148.694 34.0321C148.694 34.119 148.765 34.1898 148.852 34.1898ZM150.486 34.1898H150.868C150.955 34.1898 151.025 34.119 151.025 34.0321C151.025 33.9452 150.955 33.8743 150.868 33.8743H150.486C150.4 33.8743 150.328 33.9452 150.328 34.0321C150.328 34.119 150.4 34.1898 150.486 34.1898ZM149.86 33.5637C149.947 33.5637 150.018 33.4927 150.018 33.4056V33.0238C150.018 32.9367 149.947 32.866 149.86 32.866C149.773 32.866 149.703 32.9367 149.703 33.0238V33.4056C149.703 33.4927 149.773 33.5637 149.86 33.5637Z" fill="white"/>
<path d="M206.455 104.819C206.542 104.819 206.612 104.749 206.612 104.662V104.28C206.612 104.193 206.542 104.122 206.455 104.122C206.368 104.122 206.296 104.193 206.296 104.28V104.662C206.296 104.749 206.368 104.819 206.455 104.819ZM205.447 103.811H205.828C205.915 103.811 205.986 103.741 205.986 103.654C205.986 103.567 205.915 103.496 205.828 103.496H205.447C205.36 103.496 205.289 103.567 205.289 103.654C205.289 103.741 205.36 103.811 205.447 103.811ZM207.081 103.811H207.462C207.549 103.811 207.62 103.741 207.62 103.654C207.62 103.567 207.549 103.496 207.462 103.496H207.081C206.994 103.496 206.923 103.567 206.923 103.654C206.923 103.741 206.994 103.811 207.081 103.811ZM206.455 103.186C206.542 103.186 206.612 103.114 206.612 103.027V102.646C206.612 102.559 206.542 102.488 206.455 102.488C206.368 102.488 206.296 102.559 206.296 102.646V103.027C206.296 103.114 206.368 103.186 206.455 103.186Z" fill="white"/>
<path d="M172.231 83.9511C172.318 83.9511 172.388 83.8806 172.388 83.7937V83.4117C172.388 83.3248 172.318 83.2541 172.231 83.2541C172.144 83.2541 172.073 83.3248 172.073 83.4117V83.7937C172.073 83.8806 172.144 83.9511 172.231 83.9511ZM171.223 82.9435H171.604C171.691 82.9435 171.762 82.8727 171.762 82.7858C171.762 82.6989 171.691 82.628 171.604 82.628H171.223C171.136 82.628 171.065 82.6989 171.065 82.7858C171.065 82.8727 171.136 82.9435 171.223 82.9435ZM172.857 82.9435H173.238C173.325 82.9435 173.396 82.8727 173.396 82.7858C173.396 82.6989 173.325 82.628 173.238 82.628H172.857C172.77 82.628 172.699 82.6989 172.699 82.7858C172.699 82.8727 172.77 82.9435 172.857 82.9435ZM172.231 82.3175C172.318 82.3175 172.388 82.2465 172.388 82.1594V81.7776C172.388 81.6905 172.318 81.6198 172.231 81.6198C172.144 81.6198 172.073 81.6905 172.073 81.7776V82.1594C172.073 82.2465 172.144 82.3175 172.231 82.3175Z" fill="white"/>
<path d="M90.5945 79.9445C90.6829 79.9445 90.7532 79.8739 90.7532 79.7869V79.4052C90.7532 79.3183 90.6829 79.2471 90.5945 79.2471C90.5074 79.2471 90.4371 79.3183 90.4371 79.4052V79.7869C90.4371 79.8739 90.5074 79.9445 90.5945 79.9445ZM89.5875 78.9365H89.9697C90.0568 78.9365 90.1271 78.8662 90.1271 78.7793C90.1271 78.6924 90.0568 78.6212 89.9697 78.6212H89.5875C89.5004 78.6212 89.4294 78.6924 89.4294 78.7793C89.4294 78.8662 89.5004 78.9365 89.5875 78.9365ZM91.2218 78.9365H91.6033C91.6904 78.9365 91.7607 78.8662 91.7607 78.7793C91.7607 78.6924 91.6904 78.6212 91.6033 78.6212H91.2218C91.1347 78.6212 91.0637 78.6924 91.0637 78.7793C91.0637 78.8662 91.1347 78.9365 91.2218 78.9365ZM90.5945 78.3107C90.6829 78.3107 90.7532 78.2398 90.7532 78.1529V77.7711C90.7532 77.684 90.6829 77.613 90.5945 77.613C90.5074 77.613 90.4371 77.684 90.4371 77.7711V78.1529C90.4371 78.2398 90.5074 78.3107 90.5945 78.3107Z" fill="white"/>
<path d="M23.1496 104.819C23.2374 104.819 23.3077 104.749 23.3077 104.662V104.28C23.3077 104.193 23.2374 104.122 23.1496 104.122C23.0626 104.122 22.9922 104.193 22.9922 104.28V104.662C22.9922 104.749 23.0626 104.819 23.1496 104.819ZM22.1428 103.811H22.5236C22.6114 103.811 22.6817 103.741 22.6817 103.654C22.6817 103.567 22.6114 103.496 22.5236 103.496H22.1428C22.0557 103.496 21.984 103.567 21.984 103.654C21.984 103.741 22.0556 103.811 22.1428 103.811ZM23.7764 103.811H24.1579C24.245 103.811 24.3154 103.741 24.3154 103.654C24.3154 103.567 24.245 103.496 24.1579 103.496H23.7764C23.6893 103.496 23.6183 103.567 23.6183 103.654C23.6183 103.741 23.6893 103.811 23.7764 103.811ZM23.1496 103.186C23.2374 103.186 23.3077 103.114 23.3077 103.027V102.646C23.3077 102.559 23.2374 102.488 23.1496 102.488C23.0626 102.488 22.9922 102.559 22.9922 102.646V103.027C22.9922 103.114 23.0626 103.186 23.1496 103.186Z" fill="white"/>
<path d="M24.8187 79.7778C24.9061 79.7778 24.9768 79.7068 24.9768 79.6197V79.2382C24.9768 79.1513 24.9061 79.0801 24.8187 79.0801C24.7316 79.0801 24.6613 79.1513 24.6613 79.2382V79.6197C24.6613 79.7068 24.7316 79.7778 24.8187 79.7778ZM23.8111 78.7699H24.1927C24.2804 78.7699 24.3507 78.6992 24.3507 78.6122C24.3507 78.5252 24.2804 78.4542 24.1927 78.4542H23.8111C23.7241 78.4542 23.6531 78.5252 23.6531 78.6122C23.6531 78.6992 23.724 78.7699 23.8111 78.7699ZM25.4444 78.7699H25.827C25.9138 78.7699 25.9844 78.6992 25.9844 78.6122C25.9844 78.5252 25.9138 78.4542 25.827 78.4542H25.4444C25.3577 78.4542 25.2874 78.5252 25.2874 78.6122C25.2873 78.6992 25.3576 78.7699 25.4444 78.7699ZM24.8187 78.1437C24.9061 78.1437 24.9768 78.0732 24.9768 77.9863V77.6039C24.9768 77.517 24.9061 77.4459 24.8187 77.4459C24.7316 77.4459 24.6613 77.517 24.6613 77.6039V77.9863C24.6613 78.0732 24.7316 78.1437 24.8187 78.1437Z" fill="white"/>
<path d="M74.5691 44.0516C74.6565 44.0516 74.7268 43.9808 74.7268 43.8939V43.5119C74.7268 43.4253 74.6565 43.3546 74.5691 43.3546C74.4821 43.3546 74.4118 43.4253 74.4118 43.5119V43.8939C74.4118 43.9808 74.4821 44.0516 74.5691 44.0516ZM73.5622 43.0441H73.9437C74.0308 43.0441 74.1011 42.9729 74.1011 42.886C74.1011 42.7991 74.0308 42.7283 73.9437 42.7283H73.5622C73.4752 42.7283 73.4034 42.7991 73.4034 42.886C73.4034 42.9729 73.4752 43.0441 73.5622 43.0441ZM75.1954 43.0441H75.5773C75.664 43.0441 75.7344 42.9729 75.7344 42.886C75.7344 42.7991 75.664 42.7283 75.5773 42.7283H75.1954C75.1087 42.7283 75.0374 42.7991 75.0374 42.886C75.0374 42.9729 75.1087 43.0441 75.1954 43.0441ZM74.5691 42.418C74.6565 42.418 74.7268 42.347 74.7268 42.2599V41.8777C74.7268 41.7907 74.6565 41.7203 74.5691 41.7203C74.4821 41.7203 74.4118 41.7907 74.4118 41.8777V42.2599C74.4118 42.347 74.4821 42.418 74.5691 42.418Z" fill="white"/>
<path d="M29.1589 29.8612C29.247 29.8612 29.3177 29.7905 29.3177 29.7034V29.3219C29.3177 29.235 29.247 29.1642 29.1589 29.1642C29.0718 29.1642 29.0015 29.235 29.0015 29.3219V29.7034C29.0015 29.7905 29.0718 29.8612 29.1589 29.8612ZM28.152 28.8536H28.5329C28.6206 28.8536 28.6909 28.7826 28.6909 28.6956C28.6909 28.6087 28.6206 28.5383 28.5329 28.5383H28.152C28.0649 28.5383 27.9939 28.6087 27.9939 28.6956C27.9939 28.7826 28.0649 28.8536 28.152 28.8536ZM29.7863 28.8536H30.1679C30.2545 28.8536 30.3252 28.7826 30.3252 28.6956C30.3252 28.6087 30.2545 28.5383 30.1679 28.5383H29.7863C29.6993 28.5383 29.6275 28.6087 29.6275 28.6956C29.6275 28.7826 29.6993 28.8536 29.7863 28.8536ZM29.1589 28.2277C29.247 28.2277 29.3177 28.1565 29.3177 28.0696V27.6876C29.3177 27.6007 29.247 27.53 29.1589 27.53C29.0718 27.53 29.0015 27.6007 29.0015 27.6876V28.0696C29.0015 28.1566 29.0718 28.2277 29.1589 28.2277Z" fill="white"/>
<path d="M118.308 12.8331C118.396 12.8331 118.466 12.7621 118.466 12.6752V12.2935C118.466 12.2065 118.396 12.1357 118.308 12.1357C118.221 12.1357 118.15 12.2065 118.15 12.2935V12.6752C118.15 12.7621 118.221 12.8331 118.308 12.8331ZM117.3 11.8254H117.682C117.769 11.8254 117.84 11.7544 117.84 11.6675C117.84 11.5805 117.769 11.5098 117.682 11.5098H117.3C117.214 11.5098 117.143 11.5805 117.143 11.6675C117.143 11.7545 117.214 11.8254 117.3 11.8254ZM118.935 11.8254H119.317C119.403 11.8254 119.474 11.7544 119.474 11.6675C119.474 11.5805 119.403 11.5098 119.317 11.5098H118.935C118.848 11.5098 118.777 11.5805 118.777 11.6675C118.777 11.7545 118.848 11.8254 118.935 11.8254ZM118.308 11.1996C118.396 11.1996 118.466 11.1284 118.466 11.0415V10.6592C118.466 10.5723 118.396 10.5016 118.308 10.5016C118.221 10.5016 118.15 10.5723 118.15 10.6592V11.0415C118.15 11.1284 118.221 11.1996 118.308 11.1996Z" fill="white"/>
<path d="M87.0308 56.4871H95.1062C95.54 56.4871 95.8936 56.1335 95.8936 55.7001V47.3332C95.8936 46.8994 95.54 46.5457 95.1062 46.5457H87.0308C86.5977 46.5457 86.2434 46.8994 86.2434 47.3332V55.7001C86.2433 56.1335 86.5976 56.4871 87.0308 56.4871ZM95.1062 46.9873C95.2965 46.9873 95.4519 47.1426 95.4519 47.3331V55.7C95.4519 55.8902 95.2964 56.0454 95.1062 56.0454H87.0308C86.8405 56.0454 86.6851 55.8901 86.6851 55.7V47.3331C86.6851 47.1425 86.8406 46.9873 87.0308 46.9873H95.1062Z" fill="#F9D4C8"/>
<path d="M89.2147 49.9287C89.2174 49.9287 89.2203 49.9287 89.2223 49.9287H92.9152C93.0022 49.9287 93.0732 49.8575 93.0732 49.7706C93.0732 48.6657 92.1741 47.7665 91.0683 47.7665C89.9808 47.7665 89.0932 48.6378 89.0649 49.7195C89.0599 49.7354 89.0567 49.753 89.0567 49.7706C89.0567 49.8575 89.1276 49.9287 89.2147 49.9287ZM92.7494 49.6129H89.3879C89.4665 48.7555 90.1911 48.0823 91.0682 48.0823C91.9463 48.0822 92.6703 48.7554 92.7494 49.6129Z" fill="#F9D4C8"/>
<path d="M88.5594 49.9287H93.5773C93.6644 49.9287 93.7354 49.8575 93.7354 49.7706C93.7354 49.6837 93.6644 49.6129 93.5773 49.6129H88.5594C88.4723 49.6129 88.4013 49.6837 88.4013 49.7706C88.4013 49.8575 88.4723 49.9287 88.5594 49.9287Z" fill="#F9D4C8"/>
<path d="M91.0681 49.9287C91.0898 49.9287 91.1118 49.9246 91.1325 49.9152C91.2117 49.8801 91.2485 49.7869 91.213 49.7072L90.8627 48.9114C90.8265 48.8317 90.7342 48.7954 90.6541 48.8307C90.5742 48.8659 90.5384 48.9587 90.5736 49.0384L90.9242 49.8341C90.95 49.8935 91.0083 49.9287 91.0681 49.9287Z" fill="#F9D4C8"/>
<path d="M89.1188 54.9058H93.7984C94.1077 54.9058 94.3506 54.6636 94.3506 54.3536V51.5304C94.3506 51.222 94.1001 50.9711 93.7915 50.9711H88.3459C88.0373 50.9711 87.7868 51.222 87.7868 51.5304V53.979C87.7868 54.0659 87.8571 54.1369 87.9442 54.1369C88.0316 54.1369 88.103 54.0659 88.103 53.979V51.5304C88.103 51.3958 88.2111 51.2868 88.3459 51.2868H93.7915C93.9263 51.2868 94.0351 51.3959 94.0351 51.5304V54.3537C94.0351 54.4866 93.9309 54.5905 93.7984 54.5905H89.1188C89.0317 54.5905 88.9607 54.6615 88.9607 54.7485C88.9607 54.8354 89.0317 54.9058 89.1188 54.9058Z" fill="#F9D4C8"/>
</svg>
