<svg width="210" height="127" viewBox="0 0 210 127" fill="none" xmlns="http://www.w3.org/2000/svg">
<path fill-rule="evenodd" clip-rule="evenodd" d="M199.695 115.033C199.59 115.222 199.658 115.461 199.847 115.566C200.036 115.671 200.275 115.603 200.38 115.414C203.876 109.105 206.507 102.293 208.126 95.1388C209.692 88.2174 210.312 80.9744 209.852 73.5553C208.513 51.9477 198.287 32.9271 182.836 19.6428C167.39 6.36288 146.72 -1.18371 124.49 0.152015C108.561 1.10886 93.9909 6.49822 81.9745 15.0078C69.5701 23.7917 59.8863 35.899 54.2347 49.8878L54.2069 49.9455L54.1981 49.9651C54.1869 49.9885 54.1754 50.0136 54.1611 50.0465C52.358 54.1938 50.3704 57.4683 47.894 59.7968C45.4393 62.1057 42.4893 63.4906 38.7433 63.8813C38.5276 63.903 38.3706 64.0957 38.3933 64.3114C38.4153 64.5265 38.6077 64.6828 38.8227 64.6611C42.7529 64.2507 45.85 62.7952 48.4312 60.3677C50.9924 57.9598 53.0354 54.6001 54.8795 50.3596L54.9029 50.3084L54.9168 50.2833L54.9443 50.2253L54.9433 50.2249L54.9531 50.2026C60.5477 36.343 70.1389 24.3473 82.4263 15.6471C94.326 7.22069 108.756 1.88391 124.536 0.935199C146.556 -0.387633 167.029 7.08637 182.327 20.2394C197.622 33.3883 207.744 52.2146 209.07 73.6014C209.525 80.9472 208.912 88.117 207.362 94.9665C205.759 102.048 203.155 108.79 199.695 115.033Z" fill="#C4DDFF"/>
<path fill-rule="evenodd" clip-rule="evenodd" d="M128.761 2.16174C96.6444 2.16174 68.9626 21.1267 56.2879 48.4663C56.2624 48.5162 56.2356 48.562 56.2102 48.6125C52.0725 56.9613 47.3903 61.676 39.7189 62.0223C18.0668 63.0002 0 72.9435 0 97.6173C0 108.069 4.49797 117.471 11.6616 123.995C73.3229 123.995 134.512 123.995 196.695 123.995C204.249 111.797 208.614 97.4165 208.614 82.0144C208.613 37.9128 172.863 2.16174 128.761 2.16174Z" fill="#C4DDFF"/>
<path fill-rule="evenodd" clip-rule="evenodd" d="M27.461 56.2324C42.4307 56.2324 54.6401 44.0227 54.6401 29.053C54.6401 14.0833 42.4307 1.87421 27.461 1.87421C12.4916 1.87421 0.282227 14.0833 0.282227 29.053C0.282566 44.0227 12.492 56.2324 27.461 56.2324Z" fill="#C4DDFF"/>
<path fill-rule="evenodd" clip-rule="evenodd" d="M176.724 64.3216C176.17 64.3216 175.639 64.4213 175.149 64.6038C174.927 64.3596 174.607 64.2059 174.251 64.2059C174.086 64.2059 173.928 64.2395 173.784 64.2992C173.705 63.2558 172.833 62.4337 171.769 62.4337C171.307 62.4337 170.882 62.589 170.541 62.8498C170.323 62.5503 169.97 62.3553 169.571 62.3553C169.505 62.3553 169.439 62.3607 169.376 62.3712C169.511 62.0561 169.585 61.7098 169.585 61.3459C169.585 59.905 168.418 58.7375 166.977 58.7375C166.709 58.7375 166.45 58.7779 166.207 58.8535C166.017 58.4506 165.608 58.1711 165.133 58.1711L165.099 58.1714C165.105 58.0775 165.108 57.9828 165.108 57.8875C165.108 55.2985 163.009 53.2 160.42 53.2C157.832 53.2 155.733 55.2985 155.733 57.8875C155.733 57.9235 155.734 57.9598 155.735 57.9957C155.509 57.9387 155.271 57.9082 155.028 57.9082C154.543 57.9082 154.086 58.0283 153.685 58.2403C153.002 57.3082 151.899 56.7027 150.655 56.7027C148.581 56.7027 146.9 58.3838 146.9 60.4575C146.9 60.8649 146.965 61.2577 147.086 61.6254C147.049 61.623 147.011 61.6216 146.972 61.6216C145.951 61.6216 145.123 62.4493 145.123 63.4706C145.123 63.5906 145.135 63.708 145.157 63.8213C145.144 63.8209 145.131 63.8206 145.118 63.8206C144.541 63.8206 144.071 64.2792 144.052 64.8514C143.892 64.8209 143.727 64.8046 143.558 64.8046C142.891 64.8046 142.267 65.0366 141.819 65.4612C140.617 66.5972 141.929 66.8923 143.192 66.8923H144.84H146.133H172.645H174.714H178.113C179.43 66.8923 181.312 67.1087 180.005 65.7312C179.18 64.8629 178.015 64.3216 176.724 64.3216Z" fill="white"/>
<path fill-rule="evenodd" clip-rule="evenodd" d="M7.94081 123.998H207.097C207.505 123.998 207.84 124.486 207.84 125.082C207.84 125.678 207.505 126.166 207.097 126.166H7.94081C7.53209 126.166 7.19629 125.678 7.19629 125.082C7.19595 124.485 7.53209 123.998 7.94081 123.998Z" fill="white"/>
<path fill-rule="evenodd" clip-rule="evenodd" d="M4.97463 123.998H2.88421C2.48533 123.998 2.15869 124.486 2.15869 125.082C2.15869 125.678 2.48499 126.166 2.88421 126.166H4.97463C5.37351 126.166 5.70049 125.678 5.70049 125.082C5.70015 124.486 5.37351 123.998 4.97463 123.998Z" fill="white"/>
<path fill-rule="evenodd" clip-rule="evenodd" d="M104.496 95.0068C104.496 95.0068 94.8918 98.8226 91.9476 100.08C89.0031 101.338 87.1169 104.196 86.7451 106.454C86.3737 108.712 86.9168 110.97 86.9168 110.97C86.9168 110.97 88.1745 120.574 94.0628 122.747C94.0628 122.747 97.2355 123.992 99.3795 123.992C101.523 123.992 109.385 123.992 109.385 123.992L105.382 95.5922L104.496 95.0068Z" fill="#E2EDF8"/>
<path fill-rule="evenodd" clip-rule="evenodd" d="M86.6401 108.943C86.7124 110.121 86.9162 110.971 86.9162 110.971C86.9162 110.971 88.1739 120.575 94.0622 122.748C94.0622 122.748 97.235 123.993 99.379 123.993C101.523 123.993 109.384 123.993 109.384 123.993L106.305 102.145L99.3207 105.486C99.6524 106.152 99.995 108.385 99.8233 111.601C99.6521 114.816 98.4513 116.317 97.0793 115.631C95.9661 115.074 89.1651 110.608 86.6401 108.943Z" fill="#9CC2F7"/>
<path d="M90.7242 106.318C90.6676 106.318 90.6123 106.286 90.5868 106.23C90.5516 106.154 90.5848 106.064 90.6608 106.029C94.5808 104.211 98.6307 103.653 98.6711 103.648C98.7514 103.634 98.8301 103.695 98.8413 103.778C98.8522 103.861 98.7942 103.937 98.7111 103.948C98.6714 103.954 94.6652 104.506 90.788 106.304C90.7676 106.313 90.7459 106.318 90.7242 106.318ZM93.0968 102.802C93.0358 102.802 92.9785 102.765 92.9554 102.704C92.9259 102.626 92.9652 102.539 93.0436 102.509C96.2611 101.296 101.779 98.8977 101.834 98.8736C101.91 98.84 102.001 98.875 102.033 98.952C102.067 99.0286 102.032 99.1175 101.955 99.1511C101.9 99.1751 96.3751 101.576 93.1504 102.792C93.1328 102.799 93.1148 102.802 93.0968 102.802Z" fill="#C4DDFF"/>
<path d="M105.617 124.143C105.61 124.143 105.604 124.143 105.596 124.142C105.527 124.133 98.5977 123.142 93.8138 117.902C93.7575 117.84 93.7622 117.745 93.8239 117.688C93.8857 117.632 93.9817 117.636 94.0376 117.698C98.7486 122.857 105.569 123.833 105.637 123.842C105.72 123.853 105.778 123.929 105.767 124.012C105.757 124.088 105.692 124.143 105.617 124.143Z" fill="#C4DDFF"/>
<path fill-rule="evenodd" clip-rule="evenodd" d="M123.264 17.5512C123.264 17.5512 120.379 19.8953 120.596 23.2974C120.813 26.7001 122.069 28.7244 122.585 29.5503C123.102 30.3762 123.076 31.211 121.688 32.9707C121.688 32.9707 121.524 33.2647 121.861 33.5937C122.198 33.9221 123.022 34.5231 123.315 34.6439C123.315 34.6439 123.573 35.6909 124.202 36.4575C124.832 37.2244 126.495 39.5855 127.055 40.3304C127.616 41.0752 128.534 41.2886 129.827 40.7303C131.121 40.1716 134.431 36.4599 136.424 33.9808C138.417 31.502 137.062 28.3469 136.189 26.6702C136.098 26.4966 138.229 28.0382 138.293 27.7295C141.639 11.4801 130.138 10.8482 123.264 17.5512Z" fill="#F6C1AE"/>
<path fill-rule="evenodd" clip-rule="evenodd" d="M121.497 19.707C120.966 20.6302 120.536 21.8086 120.589 23.1596C121.265 22.8611 123.047 22.5148 125.981 24.962C129.818 28.1623 130.804 35.7729 130.804 35.7729C130.804 35.7729 133.763 30.2422 133.763 29.985C133.763 29.7276 125.102 18.3228 125.102 18.3228L121.497 19.707Z" fill="#EE8B83"/>
<path fill-rule="evenodd" clip-rule="evenodd" d="M120.595 23.2977C120.595 23.2977 120.098 22.9911 119.955 22.3049C119.812 21.619 121.284 13.2889 128.68 10.7223C136.077 8.15532 145.795 12.5 146.938 14.1579C148.082 15.8162 148.825 19.1603 146.338 23.9337C146.338 23.9337 146.467 24.6198 146.124 25.0913C146.124 25.0913 152.098 40.7272 153.527 44.1001C154.956 47.473 156.901 51.475 156.901 57.478C156.901 63.2187 158.317 93.8325 161.113 109.056C162.943 119.017 176.539 123.992 165.705 123.992C154.872 123.992 111.025 123.992 108.109 123.992C105.194 123.992 103.593 121.105 101.592 117.96C99.5914 114.816 101.421 110.128 100.392 107.613C99.3632 105.098 97.8765 104.125 99.1915 101.839C100.507 99.5522 103.851 97.8657 104.509 96.7223C105.166 95.5789 103.766 94.8778 103.766 94.8778C103.766 94.8778 103.69 94.7991 103.744 94.7205C103.8 94.6421 114.14 47.6415 114.14 47.6415C114.14 47.6415 114.364 46.6213 115.262 46.5382C116.159 46.4551 116.96 47.2698 116.96 47.2698C116.96 47.2698 117.859 47.0632 118.46 47.6738C119.061 48.2843 121.505 51.0429 121.505 51.0429C121.505 51.0429 122.249 48.963 124.211 49.9952C126.172 51.0276 127.222 51.5666 127.222 51.5666L130.624 41.6382C130.624 41.6382 129.094 41.4313 128.637 41.374C128.181 41.3167 128.109 41.0084 128.109 41.0084C128.109 41.0084 129.154 41.0857 129.543 40.1404C129.931 39.1947 129.444 34.2555 129.93 30.7371C129.93 30.7371 126.951 22.4107 120.631 22.1994C120.631 22.1994 120.584 22.9022 120.595 23.2977Z" fill="white"/>
<path fill-rule="evenodd" clip-rule="evenodd" d="M143.243 20.3306C143.08 18.439 140.284 15.0139 140.284 15.0139C140.761 16.0375 141.377 17.8569 141.342 20.3927C141.334 20.9669 141.251 21.8227 141.109 22.8881C141.484 22.9651 141.906 23.0543 142.344 23.1486L143.243 20.3306ZM103.883 94.9445C103.813 94.9007 103.767 94.878 103.767 94.878C103.767 94.878 103.691 94.7993 103.746 94.7206C103.749 94.7152 103.804 94.4808 103.898 94.0616C104.76 93.701 106.157 92.9572 106.749 91.7527C107.635 89.952 110.379 78.1184 110.379 78.1184C110.379 78.1184 110.493 77.8538 110.694 77.961C110.893 78.0682 110.865 78.2609 110.829 78.6184C110.794 78.9759 109.85 88.8584 109.735 89.7162C109.621 90.5737 112.68 87.2863 113.48 80.4835C114.28 73.6801 113.766 71.1647 113.766 71.1647L115.31 85.514L115.224 88.0729C115.224 88.0729 114.966 89.2729 115.024 90.3875C115.081 91.5024 115.51 94.7325 115.51 95.8471C115.51 96.9623 115.653 99.5917 115.195 101.307C115.195 101.307 115.109 97.6482 113.566 97.3907C112.022 97.1336 109.993 96.5617 109.05 94.5612C109.05 94.5612 107.491 93.546 106.205 93.932C105.268 94.2122 104.559 94.7973 103.883 94.9445ZM100.793 115.889C101.993 115.321 103.668 115.028 105.865 115.736C111.01 117.395 115.155 117.223 116.841 116.88C118.527 116.536 120.386 115.164 121.243 114.221C122.101 113.278 123.415 111.963 124.901 108.99C124.901 108.99 130.903 104.531 132.161 96.5271C133.419 88.5237 134.105 76.7471 136.88 71.6887C136.88 71.6887 134.993 73.9752 133.507 80.3784C132.021 86.7809 128.648 101.417 126.704 104.618C126.704 104.618 129.848 94.0416 130.648 88.6682C131.449 83.2941 134.078 72.5462 134.078 72.5462L137.651 61.2553C137.651 61.2553 133.306 68.1147 129.761 83.3215C126.217 98.5283 122.215 107.733 116.27 107.847C116.27 107.847 115.812 110.677 116.898 113.306C116.898 113.306 113.24 114.136 109.18 112.02C105.785 110.251 101.83 107.602 99.3892 105.611C99.7016 106.185 100.07 106.823 100.393 107.613C101.214 109.618 100.217 113.005 100.793 115.889ZM152.917 47.5057C152.888 47.4494 150.172 43.7617 145.656 44.5622C141.14 45.3627 138.396 50.479 138.396 50.479C139.539 47.1346 141.912 45.5479 142.455 44.9194C142.998 44.2902 142.54 43.8472 142.54 43.8472C142.54 43.8472 141.611 43.0043 141.025 42.618C140.439 42.232 140.311 42.6753 140.311 42.6753C140.311 42.6753 139.596 44.9906 139.496 45.2477C139.396 45.5051 139.354 45.5906 139.196 45.5906C139.039 45.5906 139.025 45.3908 139.025 45.3908L140.654 36.5011C140.622 36.7209 140.605 36.9322 140.603 37.1357C140.934 35.0843 141.703 30.8261 142.739 28.3324C144.14 24.9599 143.053 24.0736 143.053 24.0736C143.053 24.0736 145.354 22.5588 146.756 18.3569C146.756 18.3569 146.842 20.1719 146.355 21.5439C145.934 22.7338 146.018 23.1062 146.765 23.0635C146.635 23.348 146.494 23.6377 146.34 23.9331C146.34 23.9331 146.469 24.6193 146.126 25.0908L146.568 26.2467C146.321 26.3502 146.069 26.573 146.027 27.0459C146.027 27.0459 147.77 36.7646 150.143 41.5668C150.143 41.5668 147.656 37.4793 146.627 34.0491C145.598 30.6189 144.997 32.191 145.169 35.3641C145.169 35.3641 144.454 30.276 144.312 29.1329C144.176 28.0505 141.787 32.5271 140.611 37.4701C140.928 42.656 150.793 42.5183 152.917 47.5057ZM167.416 123.937C166.931 123.973 166.364 123.992 165.706 123.992H161.801L161.68 123.929L161.327 123.992H129.607C133.184 122.423 138.876 118.861 141.656 111.423C145.886 100.104 149.602 72.4909 153.547 61.8577C153.547 61.8577 151.374 75.9778 150.631 83.7526C149.887 91.5272 149.001 106.02 148.659 108.993C148.315 111.965 147.372 117.51 146.857 118.997C146.343 120.484 148.63 119.74 149.487 117.482C150.345 115.224 155.318 70.603 155.318 70.603L152.802 98.2441C152.802 98.2441 152.002 113.394 152.345 115.566C152.688 117.738 157.119 117.567 157.119 117.567C157.119 117.567 156.776 114.908 156.718 113.136C156.661 111.364 157.204 80.0928 157.22 80.18C157.22 80.18 158.306 108.307 159.278 114.252C160.124 119.424 163.564 122.864 167.416 123.937ZM161.227 109.594H161.223C161.223 109.594 162.538 116.912 163.624 119.084C164.697 121.23 167.86 123.291 169.508 121.911C168.07 119.649 162.594 115.545 161.227 109.594ZM125.043 52.3272C125.043 52.3272 127.215 54.8142 128.858 55.2286C130.502 55.6431 132.417 54.4712 132.904 53.7708C133.389 53.0707 131.46 56.272 131.46 56.272L130.359 57.873L127.401 62.3462C127.401 62.3462 122.827 70.3924 122.17 72.2213C121.512 74.0512 121.055 74.6658 121.055 74.6658C121.055 74.6658 122.084 67.8766 122.37 63.2457C122.37 63.2457 122.449 62.6168 122.691 62.4384C122.934 62.2597 124.106 62.6742 124.878 62.9313C125.65 63.1887 126.622 62.7885 127.165 61.4164C127.708 60.0441 126.693 57.2719 126.693 57.2719C126.693 57.2719 127.951 58.5439 128.165 58.7436C128.38 58.9441 128.994 58.63 128.423 57.6722C127.851 56.7143 125.007 52.255 125.043 52.3272ZM120.692 50.1269C120.673 51.4274 118.594 53.8488 118.083 53.4432C117.526 52.9998 117.941 51.6278 117.941 51.6278C117.941 51.6278 117.012 52.9429 116.754 52.2998C116.497 51.6567 116.168 49.9271 116.168 49.9271C116.168 49.9271 116.168 51.0278 116.197 52.7712C116.225 54.515 116.597 58.2023 116.597 58.2023C116.912 54.6578 118.627 54.5438 118.827 56.2876C119.027 58.0313 119.512 58.5171 119.341 56.9449C119.17 55.3728 119.656 54.2867 120.342 53.2006C120.928 52.273 121.346 51.2618 121.456 50.9868C121.344 50.8606 121.053 50.5326 120.692 50.1269ZM130.719 13.1117C130.719 13.1117 132.12 21.687 130.719 23.6594C130.719 23.6594 132.834 23.7164 132.349 25.6315C132.349 25.6315 132.806 24.4738 132.806 23.9162C132.806 23.3589 132.706 22.8732 132.706 22.8732C132.706 22.8732 132.148 15.8703 130.719 13.1117ZM127.245 51.5033C127.731 51.7883 128.637 52.2753 129.462 52.4714C130.663 52.7577 131.121 52.6576 131.849 52.3004C132.578 51.9426 133.607 50.2561 133.607 50.2561C133.193 50.7995 131.878 51.7286 131.049 51.1279C130.22 50.5278 130.763 49.1697 130.763 49.1697C132.364 46.6543 133.778 41.9243 133.807 41.424C133.836 40.9237 133.693 40.1948 133.693 40.1948C132.635 41.8382 130.591 41.5807 130.591 41.5807L130.543 41.6265L130.625 41.6374L127.245 51.5033ZM140.973 23.8521C140.636 26.1178 140.093 29.0796 139.45 32.2242L142.048 24.0783C141.669 23.9969 141.304 23.9203 140.973 23.8521Z" fill="#E2EDF8"/>
<path d="M143.292 124.167C143.226 124.167 143.165 124.124 143.146 124.057C143.123 123.976 143.171 123.893 143.251 123.87C147.858 122.584 148.802 107.742 149.635 94.6474C149.943 89.8066 150.234 85.2343 150.688 81.4808C152.384 67.4609 153.762 59.5975 153.776 59.5198C153.791 59.4377 153.868 59.3824 153.951 59.397C154.034 59.4116 154.089 59.4899 154.074 59.5727C154.061 59.6504 152.683 67.507 150.988 81.5175C150.535 85.2628 150.244 89.8306 149.937 94.6668C149.056 108.507 148.145 122.818 143.332 124.162C143.32 124.166 143.306 124.167 143.292 124.167ZM154.669 124.167C153.777 124.167 153.096 123.898 152.589 123.345C150.931 121.534 151.05 116.675 151.946 106.467C153.076 93.5817 155.353 69.322 155.376 69.0788C155.383 68.9953 155.46 68.9377 155.54 68.9421C155.624 68.9499 155.685 69.0238 155.677 69.1073C155.654 69.3508 153.377 93.6092 152.247 106.494C151.378 116.406 151.241 121.425 152.813 123.141C153.259 123.628 153.866 123.865 154.669 123.865C154.753 123.865 154.821 123.933 154.821 124.016C154.821 124.1 154.753 124.167 154.669 124.167ZM160.129 122.582C160.106 122.582 160.081 122.576 160.059 122.564C159.266 122.148 156.672 120.247 156.547 113.286C156.435 106.953 157.056 79.3148 157.062 79.0363C157.064 78.9529 157.137 78.8949 157.217 78.8878C157.3 78.8898 157.367 78.9593 157.365 79.0428C157.359 79.3209 156.738 106.954 156.851 113.28C156.972 120.075 159.444 121.898 160.2 122.296C160.274 122.335 160.303 122.426 160.263 122.5C160.237 122.553 160.184 122.582 160.129 122.582ZM168.488 122.486C167.129 122.486 164.847 121.784 163.681 119.411C161.975 115.943 160.716 107.672 160.704 107.588C160.691 107.506 160.748 107.428 160.831 107.416C160.915 107.405 160.991 107.461 161.003 107.543C161.016 107.626 162.267 115.851 163.952 119.278C165.309 122.038 168.232 122.413 169.168 122.097C169.333 122.041 169.378 121.98 169.375 121.966C169.359 121.884 169.412 121.804 169.495 121.788C169.577 121.772 169.656 121.825 169.673 121.907C169.691 122.003 169.69 122.24 169.264 122.384C169.074 122.448 168.806 122.486 168.488 122.486ZM113.947 121.454C110.631 121.454 107.019 120.287 103.144 117.957C103.073 117.914 103.049 117.821 103.092 117.75C103.136 117.678 103.228 117.655 103.3 117.698C109.569 121.466 115.128 122.154 119.824 119.737C127.961 115.552 131.744 102.947 132.571 92.5479C133.93 75.4365 137.26 70.7103 137.401 70.5176C137.451 70.4501 137.545 70.4359 137.613 70.4851C137.68 70.5342 137.695 70.6289 137.646 70.6964C137.612 70.7432 134.224 75.5749 132.873 92.572C132.039 103.053 128.21 115.764 119.962 120.007C118.086 120.971 116.078 121.454 113.947 121.454ZM114.692 117.167C114.376 117.167 114.055 117.152 113.727 117.122C113.644 117.114 113.582 117.04 113.59 116.957C113.598 116.873 113.676 116.815 113.755 116.82C124.094 117.794 128.116 102.67 130.914 86.1888C134.082 67.5175 139.788 55.7365 139.845 55.6198C139.882 55.5445 139.973 55.5137 140.048 55.5503C140.123 55.5873 140.154 55.6778 140.117 55.7531C140.06 55.8698 134.372 67.6152 131.212 86.2397C128.479 102.349 124.569 117.167 114.692 117.167ZM117.513 114.665C117.467 114.665 117.422 114.644 117.392 114.603C117.366 114.568 114.851 111.045 116.626 105.322C118.481 99.3384 117.792 96.0995 117.114 94.1834C116.299 91.8858 116.044 90.916 116.564 87.479C116.795 85.953 116.809 85.0688 116.763 84.5637C116.63 85.2421 116.353 85.8577 116.065 86.4998C115.645 87.4353 115.21 88.4023 115.193 89.6678C115.183 90.3947 115.243 91.1993 115.324 92.0513C115.325 92.0571 115.326 92.0625 115.326 92.0683C115.357 92.3908 115.391 92.7212 115.426 93.0563C115.843 97.0679 116.361 102.061 112.936 106.99C112.888 107.059 112.794 107.077 112.725 107.028C112.657 106.98 112.639 106.886 112.687 106.817C116.047 101.98 115.536 97.0492 115.125 93.0872C115.114 92.9797 115.103 92.8718 115.092 92.7653C114.52 94.2581 113.833 95.1325 112.954 95.4958C112.064 95.8638 110.967 95.7037 109.605 95.0077C109.47 94.9388 109.334 94.8666 109.197 94.7943C108.469 94.408 107.718 94.0152 106.985 94.0335C106.146 94.0623 105.385 94.4704 104.93 94.7143C104.81 94.7787 104.71 94.8326 104.633 94.8666C104.076 95.1142 103.759 95.0331 103.725 95.0236C103.645 95.0002 103.599 94.9157 103.622 94.8357C103.646 94.7556 103.729 94.7099 103.808 94.7319C103.819 94.7346 104.065 94.7882 104.51 94.5898C104.581 94.5576 104.675 94.5077 104.787 94.447C105.265 94.1906 106.065 93.7615 106.975 93.731C107.791 93.7065 108.575 94.1217 109.339 94.5267C109.474 94.5983 109.608 94.6695 109.742 94.738C111.021 95.392 112.034 95.5487 112.838 95.2156C113.743 94.8418 114.437 93.8381 115.02 92.0577C114.939 91.205 114.88 90.3981 114.89 89.6638C114.897 89.1892 114.958 88.7568 115.054 88.3535C115.178 87.6005 115.21 86.0836 114.985 84.5098C114.885 83.8084 114.568 81.1196 114.249 77.8526C114.139 81.0891 113.753 85.8279 112.493 88.4206C112.456 88.4956 112.366 88.5268 112.29 88.4905C112.215 88.4542 112.184 88.3633 112.22 88.2884C113.915 84.8008 113.995 77.086 113.984 74.9885C113.685 71.5416 113.444 67.915 113.468 65.4783C113.483 64.0819 113.548 62.3527 113.641 60.5235C112.945 64.2379 111.425 71.9008 109.137 81.0938C109.117 81.1749 109.035 81.2258 108.954 81.2041C108.873 81.1837 108.823 81.1016 108.843 81.0206C112.009 68.297 113.704 58.5097 113.779 58.0759C113.987 54.6118 114.255 51.1524 114.432 49.1712C114.432 49.1535 114.433 49.143 114.433 49.1396C114.433 49.1284 114.435 49.1172 114.437 49.1067C114.513 48.2588 114.572 47.6933 114.6 47.5309C114.772 46.5421 115.406 46.3915 115.433 46.3854C115.514 46.3685 115.595 46.419 115.613 46.5007C115.631 46.5818 115.58 46.6622 115.5 46.6809C115.481 46.6856 115.034 46.8053 114.898 47.5831C114.87 47.7459 114.811 48.3174 114.734 49.1742C114.713 49.8655 114.281 64.4214 115.887 75.7174C115.898 75.8001 115.841 75.8768 115.758 75.8887C115.677 75.8988 115.598 75.8425 115.587 75.7598C114.512 68.203 114.348 59.1945 114.364 53.8326C114.267 55.1728 114.169 56.6242 114.082 58.0772C114.082 58.0888 114.082 58.1006 114.079 58.1125C114.079 58.1128 114.079 58.1139 114.079 58.1149C113.918 60.7962 113.792 63.4798 113.772 65.4814C113.748 67.7638 113.96 71.0932 114.233 74.3393C114.262 74.366 114.281 74.4037 114.282 74.4468C114.283 74.4966 114.287 74.6896 114.289 74.9959C114.675 79.4356 115.157 83.5713 115.285 84.4664C115.424 85.4399 115.468 86.3801 115.453 87.148C115.56 86.8845 115.675 86.6287 115.789 86.3753C116.161 85.5484 116.512 84.7659 116.54 83.8521C116.523 83.8117 116.527 83.7643 116.551 83.7219C116.589 83.6533 116.679 83.6306 116.751 83.6618C116.758 83.6649 116.764 83.6679 116.771 83.6717C116.923 83.7629 117.35 84.308 116.863 87.5235C116.354 90.8892 116.603 91.8369 117.399 94.0817C118.093 96.0384 118.797 99.3415 116.915 105.411C115.188 110.98 117.611 114.39 117.636 114.423C117.685 114.491 117.671 114.586 117.603 114.635C117.576 114.656 117.544 114.665 117.513 114.665ZM126.323 82.0449C126.3 82.0449 126.276 82.0395 126.254 82.0276C123.021 80.3503 120.894 76.0264 120.879 75.9857L120.836 75.8741C120.725 75.5912 120.573 75.2038 120.79 74.9376C120.933 74.7612 121.173 74.2894 121.254 74.1225C123.439 68.6582 125.916 64.4404 128.162 60.9576H128.162C128.174 60.9356 128.455 60.4105 128.053 59.7576C127.596 59.0147 126.281 56.8853 126.281 56.8853L126.539 56.7262C126.539 56.7262 127.854 58.8553 128.311 59.5992C128.476 59.8661 128.546 60.1174 128.565 60.3359C129.102 59.5134 129.624 58.7325 130.122 57.9853C132.193 54.8841 133.981 52.2059 134.969 49.4415C137.283 42.9606 141.136 24.346 141.191 20.3914C141.246 16.3812 139.636 14.1599 139.62 14.1375C139.57 14.0707 139.584 13.9757 139.651 13.9258C139.718 13.8766 139.813 13.8902 139.863 13.957C139.932 14.0496 141.551 16.275 141.494 20.3952C141.473 21.8896 140.913 25.4664 140.099 29.693L143.503 19.0184C143.528 18.9387 143.613 18.8936 143.693 18.92C143.772 18.9451 143.817 19.0306 143.792 19.1103L139.589 32.2878C139.586 32.2966 139.582 32.3054 139.579 32.3132C138.26 38.7642 136.526 45.9821 135.254 49.5429C134.254 52.3426 132.456 55.0354 130.375 58.1532C127.699 62.16 124.37 67.1475 121.531 74.2446C121.514 74.2799 121.219 74.8887 121.025 75.1285C120.92 75.2578 121.035 75.5498 121.118 75.7632L121.164 75.8809C121.304 76.2618 123.481 80.2476 126.394 81.759C126.468 81.797 126.497 81.8886 126.458 81.9632C126.431 82.0151 126.378 82.0449 126.323 82.0449ZM128.458 76.2743C128.445 76.2743 128.432 76.2726 128.418 76.2685C128.338 76.2465 128.291 76.1641 128.312 76.084C128.365 75.888 130.309 70.793 133.05 63.6175C134.688 59.3265 136.236 55.2735 136.283 55.1249C138.51 47.9949 143.054 43.7686 147.852 44.355C152.297 44.8991 155.425 49.5562 155.821 56.2198C155.826 56.3033 155.763 56.3752 155.68 56.3799C155.601 56.3881 155.524 56.3213 155.519 56.2378C155.132 49.7271 152.109 45.181 147.815 44.6556C143.165 44.0867 138.753 48.2316 136.572 55.2152C136.523 55.3695 135.045 59.2417 133.332 63.7254C131.255 69.1649 128.67 75.9341 128.604 76.1634C128.585 76.2302 128.524 76.2743 128.458 76.2743ZM117.205 62.1763C117.136 62.1763 117.074 62.1288 117.058 62.059C116.836 61.0994 116.658 60.093 116.515 59.0812C116.513 59.0738 116.512 59.0656 116.511 59.0575C116.51 59.0487 116.509 59.0405 116.508 59.0317C115.811 54.0494 115.97 48.9677 115.972 48.9066C115.975 48.8228 116.046 48.7502 116.129 48.7604C116.212 48.7631 116.278 48.833 116.275 48.9164C116.273 48.9666 116.167 52.3789 116.511 56.3375C116.843 52.968 118.275 50.5785 118.293 50.5486C118.337 50.4774 118.43 50.4543 118.501 50.4981C118.572 50.5418 118.595 50.6348 118.551 50.7063C118.53 50.7426 116.349 54.3872 116.809 59.0002C116.952 60.016 117.13 61.0275 117.353 61.9901C117.371 62.0718 117.32 62.1529 117.239 62.1719C117.229 62.175 117.217 62.1763 117.205 62.1763ZM122.703 59.2837C122.701 59.2837 122.698 59.2837 122.697 59.2834C122.613 59.28 122.548 59.2098 122.551 59.1263C122.647 56.6659 122.208 53.8119 121.972 52.2788C121.929 52.0014 121.893 51.7649 121.867 51.5787C121.691 50.3231 122.006 50.0239 122.071 49.9764C122.139 49.9269 122.234 49.9421 122.283 50.01C122.33 50.0751 122.318 50.1653 122.257 50.2159C122.241 50.2318 122.02 50.491 122.166 51.5373C122.192 51.7222 122.228 51.9573 122.271 52.2334C122.508 53.7767 122.951 56.6493 122.853 59.1386C122.851 59.2196 122.784 59.2837 122.703 59.2837ZM129.237 58.2767C128.955 58.2767 128.625 58.1685 128.361 57.8106C127.867 57.1417 124.357 51.4966 123.808 50.5958C123.32 49.7943 122.746 49.9079 122.723 49.9126C122.641 49.9306 122.561 49.8791 122.543 49.798C122.524 49.7169 122.574 49.6365 122.655 49.6175C122.688 49.6097 123.46 49.4412 124.067 50.438C124.598 51.3094 128.127 56.983 128.605 57.6305C129.009 58.178 129.549 57.911 129.572 57.8998C129.646 57.8622 129.737 57.8917 129.775 57.966C129.814 58.0403 129.784 58.1315 129.71 58.1695C129.599 58.2261 129.429 58.2767 129.237 58.2767ZM119.459 55.2498C119.451 55.2498 119.443 55.2491 119.435 55.2477C119.352 55.2345 119.296 55.1568 119.309 55.0741C119.429 54.3194 119.932 53.5124 120.418 52.7323C120.776 52.1564 121.146 51.5604 121.365 50.9889C121.395 50.9109 121.482 50.8712 121.561 50.9014C121.638 50.9312 121.678 51.0187 121.648 51.0967C121.42 51.6954 121.041 52.3039 120.675 52.8917C120.184 53.6817 119.72 54.4272 119.609 55.1219C119.596 55.1969 119.532 55.2498 119.459 55.2498ZM130.665 52.8022C130.402 52.8022 130.132 52.7601 129.854 52.676C129.487 52.5644 129.021 52.4013 128.58 52.2408C128.554 52.2385 128.53 52.2296 128.508 52.2147C128.328 52.1492 128.155 52.0848 127.995 52.0244C127.992 52.0237 127.99 52.0227 127.988 52.0217C127.521 51.8464 127.175 51.7107 127.167 51.7076C127.09 51.6771 127.051 51.5889 127.082 51.5112C127.113 51.4336 127.2 51.3949 127.278 51.4261C127.285 51.4288 127.571 51.5407 127.972 51.6927C128.279 51.1012 129.66 48.429 130.752 46.188C131.436 44.0895 131.316 42.2721 131.261 41.7487C130.903 41.7955 130.652 41.7915 130.621 41.7901C130.538 41.7881 130.472 41.7185 130.474 41.6351C130.475 41.5513 130.542 41.4804 130.628 41.4876C130.649 41.4855 132.785 41.5238 133.603 40.0915C133.479 38.6923 132.983 36.6948 131.501 34.3032C131.456 34.2323 131.478 34.1387 131.549 34.0946C131.621 34.0502 131.714 34.0729 131.758 34.1438C133.609 37.129 133.966 39.4908 133.954 40.9082C136.07 34.6126 138.302 26.8221 138.333 26.7129C138.356 26.6325 138.441 26.586 138.52 26.6087C138.601 26.6318 138.648 26.7156 138.625 26.796C138.591 26.9137 136.025 35.8709 133.781 42.3532C133.776 42.3694 133.773 42.3803 133.771 42.3857C133.768 42.3935 133.765 42.4013 133.762 42.4084C133.083 44.3659 132.435 46.093 131.896 47.2775C130.976 49.2984 129.959 50.8939 128.871 52.0248C129.25 52.1604 129.633 52.2924 129.943 52.3867C131.569 52.8815 132.969 51.6995 134.104 48.8734C134.135 48.7957 134.224 48.758 134.3 48.7892C134.378 48.8205 134.416 48.9083 134.385 48.986C133.366 51.5231 132.117 52.8022 130.665 52.8022ZM128.258 51.7995C128.355 51.8355 128.456 51.8731 128.559 51.9108C129.332 51.1279 130.469 49.6789 131.62 47.1517C132.159 45.9672 132.808 44.2353 133.488 42.2731C133.52 42.1574 133.668 41.5612 133.634 40.5812C133.346 40.9377 132.983 41.1891 132.61 41.3668C132.698 41.6242 132.76 42.1937 132.374 43.3327C131.871 44.8143 128.806 50.744 128.258 51.7995ZM131.562 41.7006C131.608 42.1062 131.697 43.2836 131.417 44.7963C131.734 44.118 131.976 43.561 132.087 43.235C132.448 42.1693 132.389 41.6744 132.33 41.4855C132.063 41.5876 131.799 41.6555 131.562 41.7006ZM116.092 48.1814C116.081 48.1814 116.068 48.1801 116.057 48.1774C115.976 48.158 115.925 48.0763 115.945 47.9949C116.108 47.3101 116.895 47.1296 116.929 47.1221C117.01 47.1055 117.091 47.1557 117.109 47.2371C117.127 47.3189 117.075 47.3996 116.994 47.4179C116.988 47.4193 116.358 47.5665 116.239 48.0651C116.222 48.1346 116.161 48.1814 116.092 48.1814ZM151.079 43.9562C151.021 43.9562 150.965 43.9222 150.94 43.8656C146.515 33.7829 145.732 26.8061 145.597 24.9081C145.591 24.8246 145.654 24.7524 145.738 24.7463C145.819 24.7388 145.893 24.8029 145.899 24.8867C146.033 26.7726 146.812 33.7056 151.217 43.7438C151.251 43.8205 151.217 43.9097 151.14 43.9436C151.12 43.9521 151.099 43.9562 151.079 43.9562ZM140.117 39.7828C140.109 39.7828 140.101 39.7821 140.093 39.7808C140.01 39.7675 139.954 39.6899 139.967 39.6074C141.499 30.0105 143.283 26.3045 144.716 23.3264C145.562 21.5681 146.293 20.0495 146.772 17.7057C146.788 17.6237 146.868 17.5704 146.95 17.5877C147.032 17.6043 147.084 17.6844 147.068 17.7661C146.582 20.1469 145.844 21.681 144.989 23.4577C143.564 26.4178 141.791 30.1017 140.266 39.6549C140.254 39.7292 140.19 39.7828 140.117 39.7828ZM145.605 38.7819C145.53 38.7819 145.465 38.7262 145.455 38.6496L145.445 38.5641C144.981 34.9911 144.016 27.5561 145.075 24.305C145.362 23.4238 145.774 22.5711 146.173 21.7461C146.605 20.8497 147.053 19.923 147.347 18.9492C147.371 18.8695 147.456 18.824 147.536 18.8481C147.616 18.8722 147.662 18.9567 147.637 19.0371C147.336 20.0336 146.883 20.9711 146.445 21.8781C146.051 22.6938 145.644 23.5374 145.363 24.3993C144.325 27.5856 145.284 34.9745 145.744 38.5254L145.756 38.6112C145.767 38.694 145.708 38.77 145.625 38.7808C145.618 38.7815 145.611 38.7819 145.605 38.7819ZM129.931 30.8886C129.923 30.8886 129.914 30.8879 129.906 30.8862C129.823 30.872 129.768 30.794 129.783 30.7116C129.79 30.6658 129.92 29.9314 130.344 28.9203C130.311 28.0052 130.038 26.1488 129.223 25.4355C128.972 25.2154 128.696 25.1234 128.377 25.1567C128.335 25.1601 128.29 25.1465 128.258 25.117C128.226 25.0875 128.209 25.0454 128.21 25.002C128.225 24.4183 127.983 24.207 127.973 24.1985C127.927 24.1598 127.906 24.0957 127.923 24.038C128.175 23.1874 127.814 22.7013 127.194 22.2329C123.791 19.6659 120.569 19.6591 120.532 19.6605C120.435 19.6703 120.38 19.594 120.379 19.5102C120.378 19.4264 120.445 19.3583 120.529 19.3576C120.557 19.3664 123.884 19.3562 127.376 21.9917C127.954 22.4279 128.503 23.0117 128.238 24.0394C128.334 24.1551 128.49 24.4081 128.511 24.8484C128.846 24.8511 129.153 24.9718 129.423 25.2086C130.167 25.8605 130.497 27.2919 130.607 28.3437C130.783 27.9838 130.993 27.6022 131.245 27.2132C131.291 27.1433 131.385 27.123 131.455 27.1687C131.525 27.2142 131.545 27.3078 131.5 27.3784C130.374 29.1153 130.084 30.7475 130.081 30.7638C130.067 30.8367 130.004 30.8886 129.931 30.8886ZM132.066 26.3757C132.044 26.3757 132.02 26.3706 131.998 26.3598C131.923 26.3228 131.893 26.2319 131.93 26.1569C132.8 24.4037 132.628 23.5893 132.626 23.5811C132.622 23.5642 132.621 23.5455 132.623 23.5282C132.704 22.8509 132.533 22.7166 132.531 22.7155C132.48 22.6921 132.458 22.6487 132.455 22.5917C132.359 20.658 131.26 12.5901 129.221 11.172C128.928 10.9681 128.636 10.9169 128.328 11.0129C128.247 11.038 128.163 10.9936 128.138 10.9138C128.113 10.8341 128.158 10.749 128.237 10.7239C128.634 10.5981 129.023 10.6656 129.394 10.923C131.662 12.5009 132.662 21.0671 132.753 22.5066C132.862 22.6138 133.001 22.8824 132.926 23.5401C132.956 23.7121 133.046 24.5889 132.201 26.2913C132.175 26.3449 132.121 26.3757 132.066 26.3757Z" fill="#C4DDFF"/>
<path fill-rule="evenodd" clip-rule="evenodd" d="M126.591 25.5579C126.336 25.6376 126.064 25.4948 125.984 25.239C125.904 24.9833 126.047 24.7109 126.303 24.6312C126.313 24.6278 130.042 23.4885 132.518 22.6062C132.577 22.5859 132.637 22.5771 132.695 22.5788C133.132 22.5662 138.563 22.418 140.139 22.6999C141.732 22.9844 146.434 24.0586 146.448 24.062C146.709 24.1217 146.872 24.3819 146.813 24.6427C146.752 24.9036 146.492 25.0671 146.232 25.0077C146.218 25.0046 141.576 23.944 139.969 23.6567C138.515 23.3972 133.464 23.5268 132.772 23.5461C130.276 24.4324 126.602 25.5545 126.591 25.5579Z" fill="#C4DDFF"/>
<path fill-rule="evenodd" clip-rule="evenodd" d="M119.103 57.1518C119.732 57.1518 120.246 56.638 120.246 56.0088C120.246 55.3792 119.732 54.8654 119.103 54.8654C118.473 54.8654 117.959 55.3792 117.959 56.0088C117.959 56.6383 118.473 57.1518 119.103 57.1518Z" fill="#403965"/>
<path fill-rule="evenodd" clip-rule="evenodd" d="M118.702 59.2104C119.332 59.2104 119.846 58.6965 119.846 58.067C119.846 57.4371 119.332 56.924 118.702 56.924C118.073 56.924 117.559 57.4371 117.559 58.067C117.559 58.6965 118.073 59.2104 118.702 59.2104Z" fill="#403965"/>
<path fill-rule="evenodd" clip-rule="evenodd" d="M118.417 61.211C119.047 61.211 119.561 60.6978 119.561 60.0679C119.561 59.4384 119.047 58.9245 118.417 58.9245C117.788 58.9245 117.274 59.4384 117.274 60.0679C117.274 60.6978 117.787 61.211 118.417 61.211Z" fill="#403965"/>
<path fill-rule="evenodd" clip-rule="evenodd" d="M118.245 63.2124C118.875 63.2124 119.389 62.6985 119.389 62.0693C119.389 61.4398 118.875 60.9259 118.245 60.9259C117.616 60.9259 117.102 61.4398 117.102 62.0693C117.102 62.6985 117.615 63.2124 118.245 63.2124Z" fill="#403965"/>
<path fill-rule="evenodd" clip-rule="evenodd" d="M118.188 65.3842C118.817 65.3842 119.331 64.8706 119.331 64.2411C119.331 63.6112 118.817 63.0974 118.188 63.0974C117.558 63.0974 117.044 63.6109 117.044 64.2411C117.044 64.8706 117.558 65.3842 118.188 65.3842Z" fill="#403965"/>
<path fill-rule="evenodd" clip-rule="evenodd" d="M118.017 67.3855C118.647 67.3855 119.16 66.8717 119.16 66.2421C119.16 65.6122 118.647 65.0991 118.017 65.0991C117.388 65.0991 116.874 65.6122 116.874 66.2421C116.874 66.8717 117.388 67.3855 118.017 67.3855Z" fill="#403965"/>
<path fill-rule="evenodd" clip-rule="evenodd" d="M118.432 68.5009C118.81 68.5009 119.118 68.1926 119.118 67.8144C119.118 67.4362 118.81 67.1275 118.432 67.1275C118.054 67.1275 117.745 67.4362 117.745 67.8144C117.745 68.1926 118.053 68.5009 118.432 68.5009Z" fill="#403965"/>
<path d="M118.86 69.2144C119.168 69.2144 119.417 68.965 119.417 68.6574C119.417 68.3498 119.168 68.1005 118.86 68.1005C118.553 68.1005 118.303 68.3498 118.303 68.6574C118.303 68.965 118.553 69.2144 118.86 69.2144Z" fill="#403965"/>
<path fill-rule="evenodd" clip-rule="evenodd" d="M117.617 73.7884C118.247 73.7884 118.76 73.2745 118.76 72.6446C118.76 72.0155 118.247 71.5016 117.617 71.5016C116.988 71.5016 116.474 72.0155 116.474 72.6446C116.474 73.2745 116.988 73.7884 117.617 73.7884Z" fill="#403965"/>
<path fill-rule="evenodd" clip-rule="evenodd" d="M117.217 75.8464C117.846 75.8464 118.36 75.3325 118.36 74.7026C118.36 74.0734 117.846 73.5592 117.217 73.5592C116.587 73.5592 116.074 74.0734 116.074 74.7026C116.073 75.3325 116.587 75.8464 117.217 75.8464Z" fill="#403965"/>
<path fill-rule="evenodd" clip-rule="evenodd" d="M116.931 77.8469C117.56 77.8469 118.074 77.333 118.074 76.7038C118.074 76.0743 117.56 75.5601 116.931 75.5601C116.301 75.5601 115.788 76.0743 115.788 76.7038C115.788 77.3333 116.3 77.8469 116.931 77.8469Z" fill="#403965"/>
<path fill-rule="evenodd" clip-rule="evenodd" d="M116.76 79.8484C117.389 79.8484 117.903 79.3345 117.903 78.705C117.903 78.0751 117.389 77.5619 116.76 77.5619C116.13 77.5619 115.617 78.0751 115.617 78.705C115.617 79.3345 116.13 79.8484 116.76 79.8484Z" fill="#403965"/>
<path fill-rule="evenodd" clip-rule="evenodd" d="M116.702 82.0204C117.332 82.0204 117.846 81.5065 117.846 80.8774C117.846 80.2478 117.332 79.7339 116.702 79.7339C116.073 79.7339 115.559 80.2478 115.559 80.8774C115.559 81.5065 116.073 82.0204 116.702 82.0204Z" fill="#403965"/>
<path fill-rule="evenodd" clip-rule="evenodd" d="M116.53 84.0211C117.16 84.0211 117.674 83.5073 117.674 82.8777C117.674 82.2485 117.16 81.7347 116.53 81.7347C115.901 81.7347 115.387 82.2485 115.387 82.8777C115.387 83.5076 115.901 84.0211 116.53 84.0211Z" fill="#403965"/>
<path fill-rule="evenodd" clip-rule="evenodd" d="M118.231 72.0168C118.609 72.0168 118.918 71.7088 118.918 71.3306C118.918 70.9524 118.609 70.6441 118.231 70.6441C117.853 70.6441 117.545 70.9524 117.545 71.3306C117.545 71.7088 117.853 72.0168 118.231 72.0168Z" fill="#403965"/>
<path fill-rule="evenodd" clip-rule="evenodd" d="M118.659 71.0442C118.967 71.0442 119.217 70.7939 119.217 70.4863C119.217 70.1796 118.967 69.9293 118.659 69.9293C118.353 69.9293 118.103 70.1793 118.103 70.4863C118.103 70.7936 118.353 71.0442 118.659 71.0442Z" fill="#403965"/>
<path fill-rule="evenodd" clip-rule="evenodd" d="M118.774 70.1292C119.082 70.1292 119.332 69.8788 119.332 69.5719C119.332 69.2649 119.082 69.0146 118.774 69.0146C118.468 69.0146 118.217 69.2646 118.217 69.5719C118.217 69.8788 118.468 70.1292 118.774 70.1292Z" fill="#403965"/>
<path fill-rule="evenodd" clip-rule="evenodd" d="M119.102 56.6098C119.433 56.6098 119.703 56.3398 119.703 56.0088C119.703 55.6774 119.433 55.4074 119.102 55.4074C118.772 55.4074 118.501 55.6774 118.501 56.0088C118.501 56.3398 118.771 56.6098 119.102 56.6098Z" fill="#4C4571"/>
<path d="M119.167 56.1463C119.366 56.1463 119.526 55.9856 119.526 55.7874C119.526 55.5893 119.366 55.4286 119.167 55.4286C118.969 55.4286 118.809 55.5893 118.809 55.7874C118.809 55.9856 118.969 56.1463 119.167 56.1463Z" fill="#4C4571"/>
<path fill-rule="evenodd" clip-rule="evenodd" d="M118.825 58.299C119.059 58.299 119.25 58.1081 119.25 57.8744C119.25 57.6397 119.059 57.449 118.825 57.449C118.591 57.449 118.4 57.6397 118.4 57.8744C118.4 58.1081 118.591 58.299 118.825 58.299Z" fill="#4C4571"/>
<path fill-rule="evenodd" clip-rule="evenodd" d="M118.596 60.5263C118.922 60.5263 119.19 60.2593 119.19 59.932C119.19 59.6047 118.922 59.3378 118.596 59.3378C118.268 59.3378 118.001 59.6047 118.001 59.932C118.001 60.2593 118.268 60.5263 118.596 60.5263Z" fill="#4C4571"/>
<path fill-rule="evenodd" clip-rule="evenodd" d="M118.482 62.5556C118.808 62.5556 119.075 62.2883 119.075 61.9613C119.075 61.634 118.808 61.3671 118.482 61.3671C118.154 61.3671 117.887 61.634 117.887 61.9613C117.887 62.2886 118.154 62.5556 118.482 62.5556Z" fill="#4C4571"/>
<path d="M118.281 64.5356C118.519 64.5356 118.711 64.3429 118.711 64.1052C118.711 63.8675 118.519 63.6747 118.281 63.6747C118.043 63.6747 117.851 63.8675 117.851 64.1052C117.851 64.3429 118.043 64.5356 118.281 64.5356Z" fill="#4C4571"/>
<path d="M116.495 83.5439C116.693 83.5439 116.854 83.3832 116.854 83.185C116.854 82.9868 116.693 82.8262 116.495 82.8262C116.297 82.8262 116.136 82.9868 116.136 83.185C116.136 83.3832 116.297 83.5439 116.495 83.5439Z" fill="#4C4571"/>
<path fill-rule="evenodd" clip-rule="evenodd" d="M116.638 81.3666C116.88 81.3666 117.078 81.1692 117.078 80.9267C117.078 80.6842 116.88 80.4868 116.638 80.4868C116.396 80.4868 116.198 80.6842 116.198 80.9267C116.198 81.1692 116.396 81.3666 116.638 81.3666Z" fill="#4C4571"/>
<path fill-rule="evenodd" clip-rule="evenodd" d="M116.565 79.1665C116.87 79.1665 117.12 78.9172 117.12 78.6116C117.12 78.306 116.871 78.0574 116.565 78.0574C116.261 78.0574 116.011 78.3057 116.011 78.6116C116.011 78.9172 116.261 79.1665 116.565 79.1665Z" fill="#4C4571"/>
<path fill-rule="evenodd" clip-rule="evenodd" d="M116.794 77.234C117.153 77.234 117.446 76.9416 117.446 76.5821C117.446 76.2226 117.153 75.9302 116.794 75.9302C116.435 75.9302 116.143 76.2226 116.143 76.5821C116.143 76.9416 116.436 77.234 116.794 77.234Z" fill="#4C4571"/>
<path fill-rule="evenodd" clip-rule="evenodd" d="M117.009 75.0782C117.251 75.0782 117.45 74.8805 117.45 74.6383C117.45 74.3958 117.251 74.1984 117.009 74.1984C116.767 74.1984 116.569 74.3958 116.569 74.6383C116.569 74.8805 116.767 75.0782 117.009 75.0782Z" fill="#4C4571"/>
<path d="M117.295 72.8536C117.493 72.8536 117.654 72.693 117.654 72.4948C117.654 72.2966 117.493 72.1359 117.295 72.1359C117.097 72.1359 116.936 72.2966 116.936 72.4948C116.936 72.693 117.097 72.8536 117.295 72.8536Z" fill="#4C4571"/>
<path fill-rule="evenodd" clip-rule="evenodd" d="M118.718 69.7893C118.718 69.7893 119.69 69.4962 119.647 70.9256C119.604 72.3549 117.517 81.9736 120.147 85.1752C120.147 85.1752 120.276 85.261 120.433 85.1752C121.165 84.7756 122.036 83.3602 121.802 83.0732C121.28 82.4318 120.047 81.4465 120.219 77.3281C120.419 72.5265 121.262 69.2893 118.768 69.3823C118.768 69.3823 118.697 69.7893 118.718 69.7893Z" fill="#403965"/>
<path fill-rule="evenodd" clip-rule="evenodd" d="M69.2714 80.2304C69.7334 80.2304 70.176 80.3135 70.5848 80.4658C70.77 80.262 71.0369 80.1338 71.3337 80.1338C71.4717 80.1338 71.6037 80.1619 71.7237 80.2118C71.7895 79.3411 72.5168 78.6559 73.4044 78.6559C73.7897 78.6559 74.1445 78.7851 74.4284 79.0026C74.6102 78.7526 74.905 78.5901 75.2377 78.5901C75.2934 78.5901 75.348 78.5949 75.4009 78.603C75.2886 78.3408 75.2265 78.0511 75.2265 77.7479C75.2265 76.5462 76.2 75.572 77.4017 75.572C77.6256 75.572 77.841 75.6059 78.0445 75.669C78.2022 75.3329 78.5438 75.0999 78.94 75.0999H78.9685C78.964 75.0219 78.961 74.9428 78.961 74.8635C78.961 72.7045 80.7112 70.954 82.8705 70.954C85.0294 70.954 86.7796 72.7045 86.7796 74.8635C86.7796 74.8936 86.7793 74.9235 86.7786 74.9537C86.9675 74.9062 87.1649 74.8808 87.3688 74.8808C87.7731 74.8808 88.154 74.9808 88.4884 75.1579C89.0586 74.3801 89.9778 73.8751 91.0157 73.8751C92.7452 73.8751 94.1471 75.2773 94.1471 77.0068C94.1471 77.347 94.0925 77.6743 93.9924 77.9809C94.0236 77.9786 94.0555 77.9772 94.0871 77.9772C94.9388 77.9772 95.629 78.6681 95.629 79.5198C95.629 79.6199 95.6195 79.7179 95.6012 79.8125C95.6121 79.8119 95.6229 79.8115 95.6338 79.8115C96.1151 79.8115 96.5068 80.1938 96.5228 80.671C96.6564 80.6456 96.7941 80.6327 96.9352 80.6327C97.4915 80.6327 98.0115 80.8257 98.3859 81.1798C99.3876 82.1272 98.294 82.3738 97.2405 82.3738H95.8661H94.7872H72.6752H70.9497H68.1144C67.0162 82.3738 65.4464 82.5539 66.5365 81.4054C67.2227 80.6819 68.1942 80.2304 69.2714 80.2304Z" fill="white"/>
<path fill-rule="evenodd" clip-rule="evenodd" d="M29.9311 18.9578C34.6482 21.8331 36.1417 27.988 33.2664 32.7054C30.3907 37.4225 24.2355 38.9159 19.5184 36.0406C17.5579 34.8453 16.0797 33.032 15.3067 30.8694C15.2663 30.7561 15.3142 30.6319 15.4207 30.5746C15.5268 30.518 15.6568 30.5464 15.729 30.6441C16.3382 31.4646 17.0986 32.1552 17.9714 32.6867C21.7177 34.9705 26.6064 33.7847 28.8902 30.038C31.1736 26.2913 29.9878 21.403 26.2408 19.1189C25.3684 18.587 24.4058 18.2278 23.3974 18.062C23.2783 18.0423 23.1928 17.9405 23.1949 17.8201C23.1966 17.699 23.2847 17.5996 23.4045 17.584C25.6808 17.2795 27.9699 17.7628 29.9311 18.9578Z" fill="white"/>
<path fill-rule="evenodd" clip-rule="evenodd" d="M85.4121 27.4628C85.8826 27.4628 86.333 27.5476 86.7495 27.7023C86.9378 27.495 87.2095 27.3648 87.5117 27.3648C87.6525 27.3648 87.7868 27.3929 87.9089 27.4438C87.976 26.5579 88.7165 25.8598 89.6197 25.8598C90.0122 25.8598 90.3734 25.9917 90.6624 26.2129C90.8476 25.9585 91.1474 25.793 91.4863 25.793C91.5429 25.793 91.5986 25.7977 91.6525 25.8066C91.5382 25.5393 91.4748 25.2449 91.4748 24.9355C91.4748 23.7124 92.4666 22.7206 93.69 22.7206C93.9173 22.7206 94.1374 22.7549 94.344 22.8193C94.5047 22.4767 94.8524 22.2397 95.2557 22.2397L95.2849 22.2403C95.2801 22.1603 95.2774 22.0799 95.2774 21.9992C95.2774 19.8009 97.0598 18.0188 99.2578 18.0188C101.456 18.0188 103.238 19.8009 103.238 21.9992C103.238 22.0297 103.238 22.0606 103.237 22.0911C103.429 22.0426 103.631 22.0165 103.838 22.0165C104.249 22.0165 104.637 22.1189 104.977 22.299C105.558 21.5073 106.494 20.9931 107.551 20.9931C109.312 20.9931 110.74 22.4204 110.74 24.1815C110.74 24.5278 110.684 24.8612 110.582 25.1736C110.614 25.1716 110.646 25.1702 110.679 25.1702C111.546 25.1702 112.248 25.873 112.248 26.7403C112.248 26.8424 112.238 26.9418 112.22 27.0381C112.231 27.0378 112.242 27.0378 112.253 27.0378C112.743 27.0378 113.142 27.4269 113.158 27.9129C113.294 27.8871 113.434 27.8732 113.578 27.8732C114.144 27.8732 114.674 28.0703 115.055 28.4308C116.075 29.3958 114.961 29.6462 113.889 29.6462H112.489H111.391H88.8773H87.1199H84.2328C83.1145 29.6462 81.5162 29.83 82.6264 28.6601C83.3261 27.9224 84.3155 27.4628 85.4121 27.4628Z" fill="white"/>
<path fill-rule="evenodd" clip-rule="evenodd" d="M186.062 114.162L186.473 114.507H188.26C188.26 114.507 188.834 107.81 191.086 101.472C193.338 95.1341 200.702 90.75 196.977 75.3275C191.401 92.6061 187.558 81.7036 186.062 114.162Z" fill="#E2EDF8"/>
<path fill-rule="evenodd" clip-rule="evenodd" d="M183.778 114.506H185.597C185.597 114.506 187.753 104.072 189.528 98.896C191.304 93.72 194.38 81.8813 186.15 70.1332C186.15 70.1332 185.944 69.8863 185.814 70.2034C185.685 70.5202 185.674 74.1644 183.769 81.0306C181.863 87.8965 183.032 92.1214 183.769 96.7696C184.505 101.418 184.541 108.567 183.778 114.506Z" fill="white"/>
<path fill-rule="evenodd" clip-rule="evenodd" d="M189.387 85.6545C194.994 95.341 188.987 108.859 187.143 114.507C187.143 114.507 185.031 114.418 185.009 114.507C184.989 114.589 186.819 110.28 185.939 103.129C184.723 93.2503 188.687 93.4076 189.387 85.6545Z" fill="#C4DDFF"/>
<path fill-rule="evenodd" clip-rule="evenodd" d="M185.73 114.162L185.318 114.507H183.532C183.532 114.507 182.958 107.81 180.706 101.472C178.453 95.1341 171.09 90.75 174.815 75.3275C180.39 92.6061 184.234 81.7036 185.73 114.162Z" fill="#E2EDF8"/>
<path fill-rule="evenodd" clip-rule="evenodd" d="M184.302 113.633L183.532 114.506H182.429C182.429 114.506 181.368 109.011 178.899 106.423C176.43 103.835 172.572 100.771 171.448 94.9083C172.411 98.3389 183.361 93.7022 184.302 113.633Z" fill="white"/>
<path fill-rule="evenodd" clip-rule="evenodd" d="M187.49 113.633L188.259 114.506H189.363C189.363 114.506 190.424 109.011 192.893 106.423C195.361 103.835 199.219 100.771 200.344 94.9083C199.381 98.3389 188.431 93.7022 187.49 113.633Z" fill="white"/>
<path fill-rule="evenodd" clip-rule="evenodd" d="M180.863 123.995C181.729 123.995 185.896 123.995 185.896 123.995C185.896 123.995 190.062 123.995 190.928 123.995C196.025 119.491 193.06 111.558 192.868 111.045C192.675 110.533 192.163 110.421 192.163 110.421H185.896H179.629C179.629 110.421 179.116 110.533 178.924 111.045C178.732 111.558 175.766 119.491 180.863 123.995Z" fill="#403965"/>
<path fill-rule="evenodd" clip-rule="evenodd" d="M193.647 113.975C193.563 113.5 193.466 113.065 193.37 112.683H178.421C178.325 113.065 178.228 113.499 178.144 113.975H193.647Z" fill="#C4DDFF"/>
<path fill-rule="evenodd" clip-rule="evenodd" d="M35.1431 62.3722C35.1638 62.7073 35.174 63.0448 35.174 63.3857C35.174 67.9413 33.3275 72.0658 30.3416 75.0517C27.3564 78.0366 23.2319 79.8831 18.6762 79.8831C14.2424 79.8831 10.2176 78.1342 7.25342 75.2888C7.31786 75.2111 7.38197 75.1324 7.44743 75.0554C10.3587 77.8571 14.3163 79.5802 18.6762 79.5802C23.1481 79.5802 27.197 77.7676 30.1276 74.837C33.0581 71.9064 34.8711 67.8575 34.8711 63.3857C34.8711 63.0563 34.8609 62.729 34.8416 62.4048C34.942 62.3936 35.0427 62.383 35.1431 62.3722Z" fill="white"/>
<path fill-rule="evenodd" clip-rule="evenodd" d="M73.7582 24.1387C73.8268 24.2049 73.8946 24.272 73.9621 24.3389C77.7206 28.0981 80.0458 33.2907 80.0458 39.0267C80.0458 44.7624 77.721 49.955 73.9621 53.7139C70.2032 57.4728 65.0102 59.7976 59.2749 59.7976C55.9577 59.7976 52.8222 59.0201 50.0405 57.6373C50.1179 57.5633 50.1945 57.4884 50.2708 57.4127C52.9881 58.7457 56.0438 59.4947 59.2746 59.4947C64.9265 59.4947 70.0438 57.2034 73.7477 53.4999C77.4517 49.7956 79.7429 44.6786 79.7429 39.0267C79.7429 33.3745 77.4517 28.2575 73.7477 24.5536C73.6785 24.484 73.6087 24.4159 73.5381 24.3473C73.611 24.2778 73.6846 24.2079 73.7582 24.1387Z" fill="white"/>
<path fill-rule="evenodd" clip-rule="evenodd" d="M181.022 21.6383C178.653 22.2773 176.161 22.6185 173.59 22.6185C165.73 22.6185 158.614 19.4325 153.463 14.2813C150.642 11.4602 148.41 8.04903 146.968 4.24945C147.089 4.2776 147.207 4.30847 147.327 4.33662C148.756 8.01783 150.935 11.3246 153.678 14.0672C158.774 19.1632 165.814 22.3153 173.59 22.3153C176.061 22.3153 178.457 21.9964 180.741 21.3988C180.834 21.4795 180.929 21.5572 181.022 21.6383Z" fill="white"/>
<path fill-rule="evenodd" clip-rule="evenodd" d="M204.333 56.1626C204.2 56.1643 204.066 56.1656 203.932 56.1656C196.072 56.1656 188.956 52.9796 183.805 47.8291C178.654 42.6782 175.469 35.5623 175.469 27.7023C175.469 24.4445 176.017 21.3144 177.025 18.3991C177.109 18.4632 177.193 18.5283 177.278 18.5931C176.301 21.4501 175.771 24.5143 175.771 27.702C175.771 35.4782 178.924 42.5188 184.019 47.6144C189.115 52.7103 196.155 55.8624 203.932 55.8624C204.03 55.8624 204.128 55.8617 204.227 55.8607C204.262 55.9614 204.299 56.0615 204.333 56.1626Z" fill="white"/>
<path fill-rule="evenodd" clip-rule="evenodd" d="M63.0176 93.273H81.2136L83.6873 95.9692H63.0176V93.273Z" fill="#E2EDF8"/>
<path d="M61.7345 96.7452H39.3237V104.89H61.7345V96.7452Z" fill="#E2EDF8"/>
<path fill-rule="evenodd" clip-rule="evenodd" d="M63.8411 106.785L84.6764 123.994H79.3881L60.5859 108.464H63.8411V106.785Z" fill="#403965"/>
<path fill-rule="evenodd" clip-rule="evenodd" d="M84.6776 95.6237H79.3889L45.0391 123.994H50.3277L84.6776 95.6237Z" fill="#403965"/>
<path fill-rule="evenodd" clip-rule="evenodd" d="M84.6773 95.6237H66.1943L49.0195 109.809H67.5022L84.6773 95.6237Z" fill="#403965"/>
<path fill-rule="evenodd" clip-rule="evenodd" d="M54.6561 115.894L70.5213 115.841L62.8027 109.323L49.7681 109.191L54.6561 115.894Z" fill="#403965"/>
<path fill-rule="evenodd" clip-rule="evenodd" d="M40.3403 115.894H55.2975L47.4453 109.538L40.3403 115.894Z" fill="#4C4571"/>
<path fill-rule="evenodd" clip-rule="evenodd" d="M34.0352 96.7452H39.3238L51.293 106.631L48.6759 108.838L34.0352 96.7452Z" fill="white"/>
<path fill-rule="evenodd" clip-rule="evenodd" d="M66.0651 93.273H60.7768L44.6938 106.632L47.311 108.838L66.0651 93.273Z" fill="white"/>
<path fill-rule="evenodd" clip-rule="evenodd" d="M28.0522 95.6237H33.3405L67.6904 123.994H62.4018L28.0522 95.6237Z" fill="#4C4571"/>
<path fill-rule="evenodd" clip-rule="evenodd" d="M67.6904 95.6237H62.4021L28.0522 123.994H33.3405L67.6904 95.6237Z" fill="#4C4571"/>
<path fill-rule="evenodd" clip-rule="evenodd" d="M16.9708 85.3356C16.9121 85.3943 16.8157 85.3943 16.7567 85.3356C16.698 85.2763 16.698 85.1803 16.7567 85.1209L17.7997 84.0779C17.8591 84.0193 17.9551 84.0193 18.0144 84.0779L18.0168 84.081L21.8622 87.9264C21.9212 87.9857 21.9212 88.0817 21.8622 88.1407C21.8028 88.2001 21.7068 88.2001 21.6481 88.1407L17.9072 84.3998L16.9708 85.3356ZM14.166 88.1407C14.1073 88.2001 14.011 88.2001 13.952 88.1407C13.893 88.0817 13.893 87.9857 13.952 87.9264L15.5197 86.359C15.5791 86.2996 15.6751 86.2996 15.7337 86.359C15.7931 86.418 15.7931 86.514 15.7337 86.573L14.166 88.1407Z" fill="white"/>
<path fill-rule="evenodd" clip-rule="evenodd" d="M24.4521 90.9458C24.3931 90.8864 24.3931 90.7904 24.4521 90.7314C24.5115 90.6721 24.6075 90.6721 24.6665 90.7314L25.7095 91.7744C25.7689 91.8334 25.7689 91.9294 25.7095 91.9885L25.7065 91.9912L21.8614 95.8365C21.8021 95.8959 21.7061 95.8959 21.6474 95.8365C21.588 95.7779 21.588 95.6819 21.6474 95.6222L25.3883 91.8813L24.4521 90.9458ZM21.6471 88.1407C21.5877 88.0817 21.5877 87.9857 21.6471 87.9263C21.7057 87.8677 21.8021 87.8677 21.8611 87.9263L23.4291 89.4944C23.4878 89.5531 23.4878 89.6491 23.4291 89.7084C23.3698 89.7678 23.2738 89.7678 23.2144 89.7084L21.6471 88.1407Z" fill="white"/>
<path fill-rule="evenodd" clip-rule="evenodd" d="M18.8419 98.4279C18.9006 98.3685 18.9969 98.3685 19.056 98.4279C19.1146 98.4869 19.1146 98.5826 19.056 98.6419L18.013 99.6846C17.9536 99.7439 17.8576 99.7439 17.7983 99.6846L17.7959 99.6822L13.9505 95.8365C13.8915 95.7778 13.8915 95.6818 13.9505 95.6221C14.0099 95.5635 14.1059 95.5635 14.1645 95.6221L17.9054 99.363L18.8419 98.4279ZM21.6467 95.6225C21.7054 95.5638 21.8017 95.5638 21.8607 95.6225C21.9197 95.6822 21.9197 95.7782 21.8607 95.8368L20.293 97.4049C20.2336 97.4643 20.1376 97.4643 20.0786 97.4049C20.0199 97.3455 20.0199 97.2496 20.0786 97.1905L21.6467 95.6225Z" fill="white"/>
<path fill-rule="evenodd" clip-rule="evenodd" d="M11.3605 92.8178C11.4195 92.8764 11.4195 92.9724 11.3605 93.0318C11.3015 93.0911 11.2051 93.0911 11.1461 93.0318L10.1031 91.9888C10.0438 91.9298 10.0438 91.8338 10.1031 91.7748L10.1062 91.7717L13.9512 87.9263C14.0106 87.8677 14.1065 87.8677 14.1652 87.9263C14.2246 87.9857 14.2246 88.0817 14.1652 88.1407L10.4243 91.8813L11.3605 92.8178ZM14.1656 95.6225C14.2249 95.6822 14.2249 95.7782 14.1656 95.8369C14.1069 95.8962 14.0106 95.8962 13.9515 95.8369L12.3835 94.2691C12.3248 94.2101 12.3248 94.1141 12.3835 94.0555C12.4428 93.9961 12.5388 93.9961 12.5982 94.0555L14.1656 95.6225Z" fill="white"/>
<path fill-rule="evenodd" clip-rule="evenodd" d="M12.3125 97.3234V97.3197V86.4392C12.3125 86.3558 12.38 86.288 12.4638 86.288H12.4675H23.348C23.4314 86.288 23.4993 86.3558 23.4993 86.4392V86.4436V97.3234C23.4993 97.4072 23.4314 97.4751 23.348 97.4751H23.3442H12.4638C12.3803 97.4751 12.3125 97.4072 12.3125 97.3234ZM12.6154 86.5909V97.1725H23.1964V86.5909H12.6154Z" fill="white"/>
<path fill-rule="evenodd" clip-rule="evenodd" d="M17.1351 93.4904C16.9207 93.8977 16.5354 94.3658 15.8977 94.3658H14.9687C14.7157 94.3658 14.3982 94.2539 14.1753 93.9378C14.0176 93.7139 13.9077 93.3873 13.9077 92.9253C13.9077 92.8422 13.9756 92.774 14.0593 92.774C14.1428 92.774 14.2103 92.8422 14.2103 92.9253C14.2103 93.3177 14.2974 93.5867 14.4226 93.7641C14.5783 93.9849 14.796 94.0633 14.9684 94.0633H15.8974C16.7199 94.0633 17.0259 92.9982 17.0659 92.8432V89.0599C17.0659 88.9765 17.1337 88.9086 17.2172 88.9086C17.3006 88.9086 17.3688 88.9765 17.3688 89.0599V92.8615C17.3688 94.5358 18.8195 94.5761 19.2615 94.5497C19.3256 93.548 20.0864 92.9962 20.7468 92.7035H18.2999V92.7031C18.2805 92.7031 18.2615 92.6997 18.2429 92.6919C18.1655 92.66 18.1289 92.5722 18.1605 92.4949C18.3755 91.9756 18.9046 91.5248 19.4572 91.1557C19.4561 91.1503 19.4545 91.1452 19.4534 91.1391C19.4528 91.1354 19.2194 89.893 19.5969 89.5215C19.7 89.4205 19.8523 89.3764 20.0246 89.3764C20.2091 89.3764 20.4252 89.4272 20.6257 89.51C20.8258 89.5931 21.0144 89.7094 21.1429 89.8407C21.2606 89.9608 21.3339 90.0968 21.3339 90.2389C21.3339 90.2644 21.3339 90.2915 21.3125 90.3349L21.3122 90.3356L21.3125 90.3359C21.2498 90.4611 20.9774 90.6141 20.6094 90.8196C19.952 91.1866 18.9599 91.7415 18.5481 92.4012H21.7545C21.8383 92.4012 21.9061 92.4687 21.9061 92.5525C21.9061 92.6322 21.8444 92.6977 21.766 92.7031C21.5924 92.7319 19.5593 93.103 19.5593 94.6877C19.5593 94.7684 19.4958 94.8349 19.4158 94.8387C19.2574 94.8587 17.5048 95.0449 17.1351 93.4904ZM19.8092 89.7369C19.5979 89.9435 19.6909 90.6965 19.7343 90.9777C19.9927 90.8183 20.2454 90.6771 20.4632 90.5554C20.7515 90.3939 20.9727 90.2705 21.0293 90.2159C21.0208 90.1653 20.9835 90.1087 20.9275 90.0524C20.8275 89.9503 20.6755 89.8573 20.511 89.7892C20.3462 89.7213 20.1715 89.6793 20.0246 89.6793C19.9283 89.6789 19.8503 89.6962 19.8092 89.7369Z" fill="white"/>
<path fill-rule="evenodd" clip-rule="evenodd" d="M18.0581 84.1855C18.0581 84.2689 17.9899 84.3371 17.9065 84.3371C17.8231 84.3371 17.7549 84.2689 17.7549 84.1855V79.7123C17.7549 79.6289 17.8231 79.5607 17.9065 79.5607C17.9899 79.5607 18.0581 79.6289 18.0581 79.7123V84.1855Z" fill="white"/>
<path fill-rule="evenodd" clip-rule="evenodd" d="M166.425 31.2187C166.425 31.3021 166.358 31.3699 166.274 31.3699C166.19 31.3699 166.123 31.3021 166.123 31.2187V21.5277C166.123 21.4439 166.19 21.3761 166.274 21.3761C166.358 21.3761 166.425 21.4439 166.425 21.5277V31.2187Z" fill="white"/>
<path fill-rule="evenodd" clip-rule="evenodd" d="M169.173 36.5245C169.173 36.4411 169.241 36.3732 169.324 36.3732C169.408 36.3732 169.475 36.4411 169.475 36.5245V41.304C169.475 41.3874 169.408 41.4556 169.324 41.4556C169.241 41.4556 169.173 41.3874 169.173 41.304V36.5245Z" fill="white"/>
<path fill-rule="evenodd" clip-rule="evenodd" d="M165.708 36.5245C165.708 36.4411 165.776 36.3732 165.859 36.3732C165.943 36.3732 166.011 36.4411 166.011 36.5245V40.3909C166.011 40.6005 166.096 40.7908 166.234 40.9289C166.373 41.0669 166.563 41.1527 166.772 41.1527C166.982 41.1527 167.172 41.0672 167.311 40.9289C167.448 40.7908 167.534 40.6005 167.534 40.3909V36.5245C167.534 36.4411 167.602 36.3732 167.686 36.3732C167.769 36.3732 167.837 36.4411 167.837 36.5245V40.3909C167.837 40.6823 167.718 40.9472 167.527 41.1398L167.524 41.1425L167.524 41.1429C167.331 41.3355 167.064 41.4553 166.772 41.4553C166.481 41.4553 166.215 41.3362 166.023 41.1453L166.02 41.1429L166.02 41.1425C165.827 40.9495 165.707 40.6833 165.707 40.3909V36.5245H165.708Z" fill="white"/>
<path fill-rule="evenodd" clip-rule="evenodd" d="M165.707 36.5245C165.707 36.4411 165.775 36.3732 165.859 36.3732C165.942 36.3732 166.01 36.4411 166.01 36.5245V40.3909C166.01 40.6833 165.89 40.9492 165.697 41.1425L165.697 41.1429L165.694 41.1453C165.502 41.3362 165.236 41.4553 164.945 41.4553C164.652 41.4553 164.386 41.3355 164.193 41.1429L164.185 41.1344C163.997 40.9421 163.881 40.6792 163.881 40.3909V37.5882C163.881 37.5048 163.948 37.4366 164.032 37.4366C164.116 37.4366 164.184 37.5048 164.184 37.5882V40.3909C164.184 40.5971 164.266 40.785 164.401 40.9224L164.408 40.9289C164.546 41.0666 164.736 41.1527 164.946 41.1527C165.155 41.1527 165.346 41.0672 165.484 40.9289C165.622 40.7908 165.707 40.6005 165.707 40.3909V36.5245ZM164.185 41.1347L164.193 40.9292C164.137 40.9855 164.134 41.075 164.185 41.1347Z" fill="white"/>
<path fill-rule="evenodd" clip-rule="evenodd" d="M164.145 38.0495C164.2 38.1119 164.195 38.2072 164.133 38.2629C164.07 38.3185 163.975 38.3127 163.919 38.2503C163.918 38.25 163.673 37.9474 163.318 38.0963C163.105 38.1862 162.835 38.4599 162.64 38.7594C162.469 39.021 162.359 39.2916 162.403 39.4521C162.426 39.5338 162.503 39.6189 162.613 39.6837C162.691 39.7302 162.787 39.7641 162.89 39.7797C162.995 39.7946 163.109 39.7902 163.224 39.7584C163.456 39.6946 163.698 39.5189 163.902 39.1719C163.944 39.1 164.036 39.0762 164.109 39.118C164.18 39.1604 164.204 39.2526 164.162 39.3245C163.913 39.7485 163.604 39.9663 163.304 40.049C163.146 40.0928 162.991 40.0992 162.847 40.0785C162.704 40.0575 162.571 40.0087 162.459 39.9435C162.282 39.8394 162.155 39.6892 162.111 39.5325C162.042 39.2808 162.173 38.9209 162.386 38.5946C162.611 38.2493 162.934 37.9288 163.201 37.8168C163.765 37.5804 164.144 38.0482 164.145 38.0495Z" fill="white"/>
<path fill-rule="evenodd" clip-rule="evenodd" d="M165.338 32.3684C165.279 32.4274 165.183 32.4274 165.124 32.3684C165.065 32.3094 165.065 32.2134 165.124 32.1544L166.167 31.1114C166.226 31.052 166.322 31.052 166.381 31.1114L166.384 31.1141L170.229 34.9594C170.288 35.0185 170.288 35.1144 170.229 35.1735C170.17 35.2321 170.074 35.2321 170.015 35.1735L166.274 31.4326L165.338 32.3684ZM162.533 35.1735C162.474 35.2321 162.378 35.2321 162.318 35.1735C162.259 35.1141 162.259 35.0181 162.318 34.9594L163.886 33.3914C163.945 33.332 164.041 33.332 164.1 33.3914C164.16 33.4507 164.16 33.5464 164.1 33.6054L162.533 35.1735Z" fill="white"/>
<path fill-rule="evenodd" clip-rule="evenodd" d="M172.821 37.9785C172.761 37.9198 172.761 37.8235 172.821 37.7645C172.879 37.7051 172.975 37.7051 173.035 37.7645L174.077 38.8075C174.136 38.8668 174.136 38.9628 174.077 39.0218L174.074 39.0245L170.229 42.8696C170.17 42.9289 170.074 42.9289 170.015 42.8696C169.956 42.8106 169.956 42.7146 170.015 42.6555L173.756 38.9146L172.821 37.9785ZM170.015 35.1734C169.956 35.114 169.956 35.0181 170.015 34.9594C170.074 34.9 170.17 34.9 170.23 34.9594L171.797 36.5271C171.856 36.5865 171.856 36.6824 171.797 36.7415C171.738 36.8001 171.642 36.8001 171.583 36.7415L170.015 35.1734Z" fill="white"/>
<path fill-rule="evenodd" clip-rule="evenodd" d="M167.209 45.4609C167.269 45.4015 167.365 45.4015 167.423 45.4609C167.483 45.5196 167.483 45.6159 167.423 45.6749L166.381 46.7179C166.322 46.7766 166.226 46.7766 166.167 46.7179L166.164 46.7149L162.318 42.8695C162.259 42.8105 162.259 42.7145 162.318 42.6555C162.378 42.5961 162.474 42.5961 162.533 42.6555L166.273 46.3964L167.209 45.4609ZM170.015 42.6558C170.074 42.5965 170.17 42.5965 170.229 42.6558C170.288 42.7148 170.288 42.8108 170.229 42.8698L168.661 44.4379C168.602 44.4969 168.506 44.4969 168.447 44.4379C168.388 44.3786 168.388 44.2826 168.447 44.2239L170.015 42.6558Z" fill="white"/>
<path fill-rule="evenodd" clip-rule="evenodd" d="M159.728 39.8501C159.787 39.9095 159.787 40.0055 159.728 40.0641C159.669 40.1235 159.573 40.1235 159.514 40.0641L158.471 39.0215C158.412 38.9625 158.412 38.8661 158.471 38.8071L158.474 38.8047L162.319 34.9594C162.378 34.9 162.474 34.9 162.533 34.9594C162.592 35.0184 162.592 35.1144 162.533 35.1734L158.793 38.9143L159.728 39.8501ZM162.533 42.6555C162.592 42.7146 162.592 42.8106 162.533 42.8696C162.474 42.9289 162.378 42.9289 162.319 42.8696L160.751 41.3015C160.692 41.2428 160.692 41.1465 160.751 41.0875C160.81 41.0285 160.906 41.0285 160.965 41.0875L162.533 42.6555Z" fill="white"/>
<path fill-rule="evenodd" clip-rule="evenodd" d="M160.681 44.3567V44.3529V33.4725C160.681 33.389 160.749 33.3209 160.832 33.3209H160.836H171.717C171.8 33.3209 171.868 33.389 171.868 33.4725V33.4762V44.3567C171.868 44.4401 171.8 44.508 171.717 44.508H171.712H160.832C160.749 44.508 160.681 44.4401 160.681 44.3567ZM160.984 33.6241V44.2051H171.565V33.6241H160.984Z" fill="white"/>
<path fill-rule="evenodd" clip-rule="evenodd" d="M91.7943 56.008C91.7943 55.8808 91.8977 55.777 92.0249 55.777C92.1521 55.777 92.2552 55.8804 92.2552 56.008V56.4788C92.2552 56.606 92.1521 56.7098 92.0249 56.7098C91.8977 56.7098 91.7943 56.6063 91.7943 56.4788V56.008ZM91.3774 55.1295C91.5053 55.1295 91.6077 55.2329 91.6077 55.3601C91.6077 55.4873 91.5053 55.5911 91.3774 55.5911H90.9066C90.7791 55.5911 90.6753 55.4877 90.6753 55.3601C90.6753 55.2326 90.7787 55.1295 90.9066 55.1295H91.3774ZM93.1439 55.1295C93.2711 55.1295 93.3742 55.2329 93.3742 55.3601C93.3742 55.4873 93.2711 55.5911 93.1439 55.5911H92.6724C92.5452 55.5911 92.4421 55.4877 92.4421 55.3601C92.4421 55.2326 92.5452 55.1295 92.6724 55.1295H93.1439ZM91.7943 54.2411C91.7943 54.114 91.8977 54.0105 92.0249 54.0105C92.1521 54.0105 92.2552 54.114 92.2552 54.2411V54.7123C92.2552 54.8395 92.1521 54.9426 92.0249 54.9426C91.8977 54.9426 91.7943 54.8395 91.7943 54.7123V54.2411Z" fill="white"/>
<path fill-rule="evenodd" clip-rule="evenodd" d="M116.018 13.7988C116.018 13.6716 116.121 13.5682 116.249 13.5682C116.376 13.5682 116.479 13.6716 116.479 13.7988V14.2696C116.479 14.3971 116.376 14.5002 116.249 14.5002C116.121 14.5002 116.018 14.3971 116.018 14.2696V13.7988ZM115.601 12.9206C115.728 12.9206 115.831 13.0238 115.831 13.151C115.831 13.2781 115.728 13.3819 115.601 13.3819H115.13C115.002 13.3819 114.899 13.2785 114.899 13.151C114.899 13.0238 115.002 12.9206 115.13 12.9206H115.601ZM117.367 12.9206C117.495 12.9206 117.598 13.0238 117.598 13.151C117.598 13.2781 117.495 13.3819 117.367 13.3819H116.896C116.769 13.3819 116.665 13.2785 116.665 13.151C116.665 13.0238 116.769 12.9206 116.896 12.9206H117.367ZM116.018 12.0326C116.018 11.9055 116.121 11.802 116.249 11.802C116.376 11.802 116.479 11.9055 116.479 12.0326V12.5034C116.479 12.6306 116.376 12.7341 116.249 12.7341C116.121 12.7341 116.018 12.6306 116.018 12.5034V12.0326Z" fill="white"/>
<path fill-rule="evenodd" clip-rule="evenodd" d="M179.035 54.8415C179.035 54.7143 179.138 54.6105 179.265 54.6105C179.393 54.6105 179.496 54.714 179.496 54.8415V55.3127C179.496 55.4399 179.393 55.543 179.265 55.543C179.138 55.543 179.035 55.4399 179.035 55.3127V54.8415ZM178.618 53.9634C178.745 53.9634 178.849 54.0665 178.849 54.1944C178.849 54.3212 178.745 54.4247 178.618 54.4247H178.147C178.02 54.4247 177.916 54.3212 177.916 54.1944C177.916 54.0668 178.02 53.9634 178.147 53.9634H178.618ZM180.384 53.9634C180.511 53.9634 180.615 54.0665 180.615 54.1944C180.615 54.3212 180.511 54.4247 180.384 54.4247H179.913C179.786 54.4247 179.682 54.3212 179.682 54.1944C179.682 54.0668 179.786 53.9634 179.913 53.9634H180.384ZM179.035 53.0754C179.035 52.9482 179.138 52.8447 179.265 52.8447C179.393 52.8447 179.496 52.9482 179.496 53.0754V53.5462C179.496 53.6734 179.393 53.7772 179.265 53.7772C179.138 53.7772 179.035 53.6737 179.035 53.5462V53.0754Z" fill="white"/>
<path fill-rule="evenodd" clip-rule="evenodd" d="M166.428 95.226C166.428 95.0985 166.531 94.995 166.659 94.995C166.786 94.995 166.89 95.0985 166.89 95.226V95.6971C166.89 95.8243 166.786 95.9275 166.659 95.9275C166.531 95.9275 166.428 95.8243 166.428 95.6971V95.226ZM166.011 94.3479C166.138 94.3479 166.241 94.4506 166.241 94.5785C166.241 94.7057 166.138 94.8092 166.011 94.8092H165.54C165.412 94.8092 165.309 94.7057 165.309 94.5785C165.309 94.4506 165.412 94.3479 165.54 94.3479H166.011ZM167.777 94.3479C167.905 94.3479 168.008 94.4506 168.008 94.5785C168.008 94.7057 167.905 94.8092 167.777 94.8092H167.306C167.179 94.8092 167.075 94.7057 167.075 94.5785C167.075 94.4506 167.179 94.3479 167.306 94.3479H167.777ZM166.428 93.4595C166.428 93.3323 166.531 93.2289 166.659 93.2289C166.786 93.2289 166.89 93.3323 166.89 93.4595V93.9303C166.89 94.0579 166.786 94.1613 166.659 94.1613C166.531 94.1613 166.428 94.0579 166.428 93.9303V93.4595Z" fill="white"/>
<path fill-rule="evenodd" clip-rule="evenodd" d="M22.6248 112.961C22.6248 112.834 22.7283 112.73 22.8555 112.73C22.9827 112.73 23.0858 112.834 23.0858 112.961V113.432C23.0858 113.559 22.9827 113.663 22.8555 113.663C22.7283 113.663 22.6248 113.559 22.6248 113.432V112.961ZM22.2083 112.083C22.3355 112.083 22.4383 112.186 22.4383 112.314C22.4383 112.441 22.3355 112.544 22.2083 112.544H21.7372C21.6097 112.544 21.5059 112.441 21.5059 112.314C21.5059 112.186 21.6093 112.083 21.7372 112.083H22.2083ZM23.9745 112.083C24.1017 112.083 24.2048 112.186 24.2048 112.314C24.2048 112.441 24.1017 112.544 23.9745 112.544H23.5033C23.3758 112.544 23.2727 112.441 23.2727 112.314C23.2727 112.186 23.3758 112.083 23.5033 112.083H23.9745ZM22.6248 111.195C22.6248 111.068 22.7283 110.964 22.8555 110.964C22.9827 110.964 23.0858 111.068 23.0858 111.195V111.666C23.0858 111.793 22.9827 111.897 22.8555 111.897C22.7283 111.897 22.6248 111.793 22.6248 111.666V111.195Z" fill="white"/>
<path fill-rule="evenodd" clip-rule="evenodd" d="M21.3429 28.1319C21.3429 28.0047 21.4464 27.9012 21.5736 27.9012C21.7014 27.9012 21.8045 28.0047 21.8045 28.1319V28.6027C21.8045 28.7302 21.7014 28.8333 21.5736 28.8333C21.4464 28.8333 21.3429 28.7302 21.3429 28.6027V28.1319ZM20.9264 27.2534C21.0536 27.2534 21.1564 27.3568 21.1564 27.484C21.1564 27.6112 21.0536 27.715 20.9264 27.715H20.4553C20.3277 27.715 20.2246 27.6116 20.2246 27.484C20.2246 27.3568 20.3277 27.2534 20.4553 27.2534H20.9264ZM22.6925 27.2534C22.8197 27.2534 22.9228 27.3568 22.9228 27.484C22.9228 27.6112 22.8197 27.715 22.6925 27.715H22.2214C22.0942 27.715 21.9908 27.6116 21.9908 27.484C21.9908 27.3568 22.0942 27.2534 22.2214 27.2534H22.6925ZM21.3429 26.3654C21.3429 26.2385 21.4464 26.1351 21.5736 26.1351C21.7014 26.1351 21.8045 26.2385 21.8045 26.3654V26.8365C21.8045 26.9637 21.7014 27.0672 21.5736 27.0672C21.4464 27.0672 21.3429 26.9637 21.3429 26.8365V26.3654Z" fill="white"/>
<path fill-rule="evenodd" clip-rule="evenodd" d="M48.4796 34.3287C48.4796 34.2015 48.5831 34.0977 48.7103 34.0977C48.8382 34.0977 48.9413 34.2011 48.9413 34.3287V34.7995C48.9413 34.927 48.8382 35.0305 48.7103 35.0305C48.5831 35.0305 48.4796 34.9273 48.4796 34.7995V34.3287ZM48.0631 33.4498C48.1903 33.4498 48.2934 33.5533 48.2934 33.6808C48.2934 33.8084 48.1903 33.9115 48.0631 33.9115H47.592C47.4644 33.9115 47.3613 33.808 47.3613 33.6808C47.3613 33.5536 47.4644 33.4498 47.592 33.4498H48.0631ZM49.8293 33.4498C49.9565 33.4498 50.0596 33.5533 50.0596 33.6808C50.0596 33.8084 49.9565 33.9115 49.8293 33.9115H49.3581C49.2309 33.9115 49.1275 33.808 49.1275 33.6808C49.1275 33.5536 49.2309 33.4498 49.3581 33.4498H49.8293ZM48.4796 32.5619C48.4796 32.435 48.5831 32.3315 48.7103 32.3315C48.8382 32.3315 48.9413 32.435 48.9413 32.5619V33.033C48.9413 33.1602 48.8382 33.264 48.7103 33.264C48.5831 33.264 48.4796 33.1605 48.4796 33.033V32.5619Z" fill="white"/>
<path fill-rule="evenodd" clip-rule="evenodd" d="M57.8815 78.1319C57.8815 78.0047 57.9849 77.9012 58.1121 77.9012C58.2397 77.9012 58.3431 78.0047 58.3431 78.1319V78.603C58.3431 78.7305 58.24 78.8336 58.1121 78.8336C57.9849 78.8336 57.8815 78.7305 57.8815 78.603V78.1319ZM57.465 77.2537C57.5922 77.2537 57.6949 77.3568 57.6949 77.4847C57.6949 77.6116 57.5922 77.7153 57.465 77.7153H56.9938C56.8663 77.7153 56.7632 77.6116 56.7632 77.4847C56.7632 77.3568 56.8663 77.2537 56.9938 77.2537H57.465ZM59.2311 77.2537C59.3583 77.2537 59.4614 77.3568 59.4614 77.4847C59.4614 77.6116 59.3583 77.7153 59.2311 77.7153H58.76C58.6328 77.7153 58.5293 77.6116 58.5293 77.4847C58.5293 77.3568 58.6328 77.2537 58.76 77.2537H59.2311ZM57.8815 76.3657C57.8815 76.2385 57.9849 76.1351 58.1121 76.1351C58.2397 76.1351 58.3431 76.2385 58.3431 76.3657V76.8365C58.3431 76.9637 58.24 77.0675 58.1121 77.0675C57.9849 77.0675 57.8815 76.9637 57.8815 76.8365V76.3657Z" fill="white"/>
<path d="M21.6336 46.1632C21.7811 46.1632 21.9006 46.0436 21.9006 45.8962C21.9006 45.7488 21.7811 45.6293 21.6336 45.6293C21.4862 45.6293 21.3667 45.7488 21.3667 45.8962C21.3667 46.0436 21.4862 46.1632 21.6336 46.1632Z" fill="white"/>
<path d="M43.9626 21.0568C44.1102 21.0568 44.2299 20.9372 44.2299 20.7896C44.2299 20.6419 44.1102 20.5223 43.9626 20.5223C43.815 20.5223 43.6953 20.6419 43.6953 20.7896C43.6953 20.9372 43.815 21.0568 43.9626 21.0568Z" fill="white"/>
<path d="M11.8587 18.1187C12.0062 18.1187 12.1257 17.9992 12.1257 17.8518C12.1257 17.7044 12.0062 17.5848 11.8587 17.5848C11.7113 17.5848 11.5918 17.7044 11.5918 17.8518C11.5918 17.9992 11.7113 18.1187 11.8587 18.1187Z" fill="white"/>
<path d="M72.7023 45.9495C72.85 45.9495 72.9696 45.8299 72.9696 45.6823C72.9696 45.5346 72.85 45.415 72.7023 45.415C72.5547 45.415 72.4351 45.5346 72.4351 45.6823C72.4351 45.8299 72.5547 45.9495 72.7023 45.9495Z" fill="white"/>
<path d="M43.216 71.5905C43.3636 71.5905 43.4833 71.4708 43.4833 71.3232C43.4833 71.1756 43.3636 71.0559 43.216 71.0559C43.0684 71.0559 42.9487 71.1756 42.9487 71.3232C42.9487 71.4708 43.0684 71.5905 43.216 71.5905Z" fill="white"/>
<path d="M64.5829 71.1625C64.7303 71.1625 64.8498 71.043 64.8498 70.8956C64.8498 70.7482 64.7303 70.6287 64.5829 70.6287C64.4354 70.6287 64.3159 70.7482 64.3159 70.8956C64.3159 71.043 64.4354 71.1625 64.5829 71.1625Z" fill="white"/>
<path d="M47.489 84.8385C47.6366 84.8385 47.7562 84.7189 47.7562 84.5712C47.7562 84.4236 47.6366 84.304 47.489 84.304C47.3413 84.304 47.2217 84.4236 47.2217 84.5712C47.2217 84.7189 47.3413 84.8385 47.489 84.8385Z" fill="white"/>
<path d="M92.7873 90.8209C92.9349 90.8209 93.0546 90.7013 93.0546 90.5537C93.0546 90.406 92.9349 90.2864 92.7873 90.2864C92.6397 90.2864 92.52 90.406 92.52 90.5537C92.52 90.7013 92.6397 90.8209 92.7873 90.8209Z" fill="white"/>
<path d="M29.9675 107.916C30.1151 107.916 30.2348 107.796 30.2348 107.648C30.2348 107.501 30.1151 107.381 29.9675 107.381C29.8199 107.381 29.7002 107.501 29.7002 107.648C29.7002 107.796 29.8199 107.916 29.9675 107.916Z" fill="white"/>
<path d="M7.74531 102.787C7.89292 102.787 8.01259 102.668 8.01259 102.52C8.01259 102.372 7.89292 102.253 7.74531 102.253C7.59769 102.253 7.47803 102.372 7.47803 102.52C7.47803 102.668 7.59769 102.787 7.74531 102.787Z" fill="white"/>
<path d="M18.429 72.8725C18.5765 72.8725 18.696 72.753 18.696 72.6056C18.696 72.4581 18.5765 72.3386 18.429 72.3386C18.2816 72.3386 18.1621 72.4581 18.1621 72.6056C18.1621 72.753 18.2816 72.8725 18.429 72.8725Z" fill="white"/>
<path d="M108.172 42.5303C108.32 42.5303 108.439 42.4108 108.439 42.2634C108.439 42.116 108.32 41.9965 108.172 41.9965C108.025 41.9965 107.905 42.116 107.905 42.2634C107.905 42.4108 108.025 42.5303 108.172 42.5303Z" fill="white"/>
<path d="M101.762 66.4623C101.91 66.4623 102.029 66.3426 102.029 66.195C102.029 66.0474 101.91 65.9277 101.762 65.9277C101.614 65.9277 101.495 66.0474 101.495 66.195C101.495 66.3426 101.614 66.4623 101.762 66.4623Z" fill="white"/>
<path d="M91.0785 37.8298C91.2259 37.8298 91.3454 37.7103 91.3454 37.5629C91.3454 37.4155 91.2259 37.296 91.0785 37.296C90.931 37.296 90.8115 37.4155 90.8115 37.5629C90.8115 37.7103 90.931 37.8298 91.0785 37.8298Z" fill="white"/>
<path d="M85.5231 22.8728C85.6708 22.8728 85.7904 22.7531 85.7904 22.6055C85.7904 22.4579 85.6708 22.3383 85.5231 22.3383C85.3755 22.3383 85.2559 22.4579 85.2559 22.6055C85.2559 22.7531 85.3755 22.8728 85.5231 22.8728Z" fill="white"/>
<path d="M106.464 13.0432C106.611 13.0432 106.731 12.9237 106.731 12.7763C106.731 12.6289 106.611 12.5093 106.464 12.5093C106.316 12.5093 106.197 12.6289 106.197 12.7763C106.197 12.9237 106.316 13.0432 106.464 13.0432Z" fill="white"/>
<path d="M123.13 6.2057C123.277 6.2057 123.397 6.08618 123.397 5.93876C123.397 5.79133 123.277 5.67181 123.13 5.67181C122.982 5.67181 122.863 5.79133 122.863 5.93876C122.863 6.08618 122.982 6.2057 123.13 6.2057Z" fill="white"/>
<path d="M163.996 13.4337C164.144 13.4337 164.263 13.3141 164.263 13.1667C164.263 13.0193 164.144 12.8998 163.996 12.8998C163.849 12.8998 163.729 13.0193 163.729 13.1667C163.729 13.3141 163.849 13.4337 163.996 13.4337Z" fill="white"/>
<path d="M154.326 25.6509C154.473 25.6509 154.593 25.5312 154.593 25.3836C154.593 25.236 154.473 25.1163 154.326 25.1163C154.178 25.1163 154.059 25.236 154.059 25.3836C154.059 25.5312 154.178 25.6509 154.326 25.6509Z" fill="white"/>
<path d="M169.497 26.078C169.645 26.078 169.765 25.9583 169.765 25.8107C169.765 25.6631 169.645 25.5434 169.497 25.5434C169.35 25.5434 169.23 25.6631 169.23 25.8107C169.23 25.9583 169.35 26.078 169.497 26.078Z" fill="white"/>
<path d="M159.455 49.3689C159.602 49.3689 159.722 49.2492 159.722 49.1016C159.722 48.954 159.602 48.8343 159.455 48.8343C159.307 48.8343 159.188 48.954 159.188 49.1016C159.188 49.2492 159.307 49.3689 159.455 49.3689Z" fill="white"/>
<path d="M175.48 48.9409C175.628 48.9409 175.747 48.8212 175.747 48.6736C175.747 48.526 175.628 48.4063 175.48 48.4063C175.333 48.4063 175.213 48.526 175.213 48.6736C175.213 48.8212 175.333 48.9409 175.48 48.9409Z" fill="white"/>
<path d="M190.223 67.3167C190.371 67.3167 190.49 67.1972 190.49 67.0497C190.49 66.9023 190.371 66.7828 190.223 66.7828C190.076 66.7828 189.957 66.9023 189.957 67.0497C189.957 67.1972 190.076 67.3167 190.223 67.3167Z" fill="white"/>
<path d="M184.454 35.0518C184.602 35.0518 184.722 34.9321 184.722 34.7845C184.722 34.6369 184.602 34.5172 184.454 34.5172C184.307 34.5172 184.187 34.6369 184.187 34.7845C184.187 34.9321 184.307 35.0518 184.454 35.0518Z" fill="white"/>
<path d="M200.054 63.2572C200.201 63.2572 200.321 63.1377 200.321 62.9903C200.321 62.8428 200.201 62.7233 200.054 62.7233C199.906 62.7233 199.787 62.8428 199.787 62.9903C199.787 63.1377 199.906 63.2572 200.054 63.2572Z" fill="white"/>
<path d="M167.147 78.6423C167.294 78.6423 167.414 78.5226 167.414 78.375C167.414 78.2274 167.294 78.1077 167.147 78.1077C166.999 78.1077 166.879 78.2274 166.879 78.375C166.879 78.5226 166.999 78.6423 167.147 78.6423Z" fill="white"/>
<path d="M202.19 92.531C202.337 92.531 202.457 92.4114 202.457 92.2637C202.457 92.1161 202.337 91.9965 202.19 91.9965C202.042 91.9965 201.922 92.1161 201.922 92.2637C201.922 92.4114 202.042 92.531 202.19 92.531Z" fill="white"/>
<path d="M169.924 108.984C170.072 108.984 170.191 108.864 170.191 108.716C170.191 108.569 170.072 108.449 169.924 108.449C169.776 108.449 169.657 108.569 169.657 108.716C169.657 108.864 169.776 108.984 169.924 108.984Z" fill="white"/>
<path d="M199.411 105.992C199.559 105.992 199.679 105.873 199.679 105.725C199.679 105.577 199.559 105.458 199.411 105.458C199.264 105.458 199.144 105.577 199.144 105.725C199.144 105.873 199.264 105.992 199.411 105.992Z" fill="white"/>
<path d="M81.2502 112.83C81.3978 112.83 81.5175 112.711 81.5175 112.563C81.5175 112.415 81.3978 112.296 81.2502 112.296C81.1026 112.296 80.9829 112.415 80.9829 112.563C80.9829 112.711 81.1026 112.83 81.2502 112.83Z" fill="white"/>
<path d="M45.1374 119.454C45.285 119.454 45.4047 119.334 45.4047 119.187C45.4047 119.039 45.285 118.919 45.1374 118.919C44.9898 118.919 44.8701 119.039 44.8701 119.187C44.8701 119.334 44.9898 119.454 45.1374 119.454Z" fill="white"/>
<path d="M29.9675 85.4792C30.1151 85.4792 30.2348 85.3595 30.2348 85.2119C30.2348 85.0643 30.1151 84.9446 29.9675 84.9446C29.8199 84.9446 29.7002 85.0643 29.7002 85.2119C29.7002 85.3595 29.8199 85.4792 29.9675 85.4792Z" fill="white"/>
<path d="M61.8055 51.5049C61.9529 51.5049 62.0725 51.3854 62.0725 51.2379C62.0725 51.0905 61.9529 50.971 61.8055 50.971C61.6581 50.971 61.5386 51.0905 61.5386 51.2379C61.5386 51.3854 61.6581 51.5049 61.8055 51.5049Z" fill="white"/>
<path d="M69.7113 34.1975C69.8587 34.1975 69.9782 34.0779 69.9782 33.9305C69.9782 33.7831 69.8587 33.6636 69.7113 33.6636C69.5638 33.6636 69.4443 33.7831 69.4443 33.9305C69.4443 34.0779 69.5638 34.1975 69.7113 34.1975Z" fill="white"/>
<path fill-rule="evenodd" clip-rule="evenodd" d="M118.215 32.2743C118.362 32.2743 118.482 32.1543 118.482 32.0071C118.482 31.8598 118.362 31.7401 118.215 31.7401C118.068 31.7401 117.948 31.8598 117.948 32.0071C117.948 32.1543 118.068 32.2743 118.215 32.2743Z" fill="white"/>
<path d="M124.199 46.5901C124.346 46.5901 124.466 46.4706 124.466 46.3232C124.466 46.1757 124.346 46.0562 124.199 46.0562C124.051 46.0562 123.932 46.1757 123.932 46.3232C123.932 46.4706 124.051 46.5901 124.199 46.5901Z" fill="white"/>
<path d="M194.925 47.4452C195.072 47.4452 195.192 47.3257 195.192 47.1783C195.192 47.0308 195.072 46.9113 194.925 46.9113C194.777 46.9113 194.658 47.0308 194.658 47.1783C194.658 47.3257 194.777 47.4452 194.925 47.4452Z" fill="white"/>
</svg>
