<svg width="220" height="133" viewBox="0 0 220 133" fill="none" xmlns="http://www.w3.org/2000/svg">
<path fill-rule="evenodd" clip-rule="evenodd" d="M209.204 120.511C209.094 120.709 209.165 120.959 209.364 121.069C209.561 121.179 209.812 121.108 209.922 120.91C213.585 114.3 216.341 107.164 218.037 99.6692C219.678 92.4182 220.326 84.8302 219.845 77.0579C218.442 54.4214 207.729 34.495 191.543 20.5781C175.361 6.66587 153.707 -1.24007 130.418 0.159254C113.731 1.16167 98.4666 6.80765 85.878 15.7224C72.8829 24.9246 62.738 37.6085 56.8173 52.2634L56.7882 52.3238L56.7789 52.3444C56.7672 52.3689 56.7551 52.3952 56.7402 52.4297C54.8512 56.7744 52.7689 60.2049 50.1746 62.6443C47.603 65.0631 44.5126 66.5139 40.5882 66.9233C40.3622 66.946 40.1977 67.1478 40.2215 67.3738C40.2446 67.5991 40.4461 67.7629 40.6714 67.7402C44.7887 67.3102 48.0333 65.7855 50.7374 63.2423C53.4206 60.7197 55.5608 57.2001 57.4928 52.7577L57.5173 52.704L57.5319 52.6777L57.5607 52.6169L57.5596 52.6166L57.5699 52.5931C63.4309 38.0736 73.4788 25.5067 86.3513 16.3922C98.8177 7.56453 113.935 1.97362 130.466 0.979732C153.535 -0.406091 174.982 7.42381 191.009 21.2032C207.033 34.9783 217.637 54.701 219.025 77.1062C219.502 84.8018 218.86 92.313 217.237 99.4887C215.557 106.907 212.829 113.971 209.204 120.511Z" fill="#C4DDFF"/>
<path fill-rule="evenodd" clip-rule="evenodd" d="M134.893 2.26471C101.247 2.26471 72.2466 22.1328 58.9682 50.7742C58.9416 50.8265 58.9135 50.8744 58.8869 50.9274C54.5521 59.6737 49.647 64.6129 41.6103 64.9757C18.9272 66.0002 0 76.4169 0 102.266C0 113.215 4.71216 123.065 12.2169 129.899C76.8144 129.899 140.917 129.899 206.061 129.899C213.975 117.12 218.548 102.055 218.548 85.9198C218.547 39.7182 181.094 2.26471 134.893 2.26471Z" fill="#C4DDFF"/>
<path fill-rule="evenodd" clip-rule="evenodd" d="M28.7689 58.9101C44.4514 58.9101 57.2422 46.119 57.2422 30.4364C57.2422 14.7539 44.4514 1.96344 28.7689 1.96344C13.0867 1.96344 0.295898 14.7539 0.295898 30.4364C0.296254 46.119 13.0871 58.9101 28.7689 58.9101Z" fill="#C4DDFF"/>
<path fill-rule="evenodd" clip-rule="evenodd" d="M185.139 67.3845C184.559 67.3845 184.003 67.489 183.489 67.6801C183.257 67.4243 182.922 67.2633 182.548 67.2633C182.375 67.2633 182.21 67.2985 182.059 67.361C181.976 66.268 181.062 65.4067 179.948 65.4067C179.464 65.4067 179.019 65.5694 178.662 65.8427C178.434 65.5289 178.063 65.3246 177.646 65.3246C177.576 65.3246 177.508 65.3303 177.441 65.3413C177.582 65.0112 177.66 64.6484 177.66 64.2671C177.66 62.7576 176.437 61.5345 174.928 61.5345C174.647 61.5345 174.376 61.5768 174.121 61.6561C173.923 61.2339 173.494 60.9411 172.997 60.9411L172.96 60.9415C172.967 60.8431 172.97 60.7439 172.97 60.6441C172.97 57.9318 170.771 55.7333 168.059 55.7333C165.348 55.7333 163.149 57.9318 163.149 60.6441C163.149 60.6817 163.149 60.7198 163.151 60.7574C162.913 60.6977 162.665 60.6657 162.41 60.6657C161.902 60.6657 161.423 60.7915 161.003 61.0136C160.288 60.0371 159.132 59.4029 157.829 59.4029C155.656 59.4029 153.895 61.1639 153.895 63.3365C153.895 63.7632 153.964 64.1747 154.09 64.5599C154.051 64.5574 154.011 64.556 153.971 64.556C152.901 64.556 152.034 65.423 152.034 66.493C152.034 66.6187 152.046 66.7417 152.069 66.8604C152.056 66.86 152.042 66.8597 152.028 66.8597C151.424 66.8597 150.932 67.3401 150.912 67.9395C150.744 67.9076 150.571 67.8905 150.394 67.8905C149.695 67.8905 149.042 68.1336 148.572 68.5784C147.313 69.7685 148.687 70.0776 150.011 70.0776H151.737H153.092H180.866H183.033H186.594C187.975 70.0776 189.946 70.3043 188.576 68.8613C187.713 67.9516 186.492 67.3845 185.139 67.3845Z" fill="white"/>
<path fill-rule="evenodd" clip-rule="evenodd" d="M8.31903 129.902H216.958C217.386 129.902 217.738 130.413 217.738 131.038C217.738 131.663 217.386 132.173 216.958 132.173H8.31903C7.89085 132.173 7.53906 131.662 7.53906 131.038C7.53871 130.413 7.89085 129.902 8.31903 129.902Z" fill="white"/>
<path fill-rule="evenodd" clip-rule="evenodd" d="M5.21174 129.903H3.02179C2.60391 129.903 2.26172 130.414 2.26172 131.039C2.26172 131.663 2.60356 132.174 3.02179 132.174H5.21174C5.62962 132.174 5.97217 131.663 5.97217 131.039C5.97182 130.413 5.62962 129.903 5.21174 129.903Z" fill="white"/>
<path fill-rule="evenodd" clip-rule="evenodd" d="M109.471 99.5309C109.471 99.5309 99.4104 103.528 96.326 104.846C93.2413 106.163 91.2653 109.158 90.8758 111.524C90.4867 113.889 91.0556 116.255 91.0556 116.255C91.0556 116.255 92.3732 126.316 98.5419 128.592C98.5419 128.592 101.866 129.896 104.112 129.896C106.358 129.896 114.593 129.896 114.593 129.896L110.401 100.144L109.471 99.5309Z" fill="#E2EDF8"/>
<path fill-rule="evenodd" clip-rule="evenodd" d="M90.7656 114.131C90.8413 115.365 91.0549 116.255 91.0549 116.255C91.0549 116.255 92.3725 126.316 98.5412 128.593C98.5412 128.593 101.865 129.897 104.111 129.897C106.357 129.897 114.593 129.897 114.593 129.897L111.367 107.009L104.05 110.51C104.398 111.206 104.756 113.546 104.577 116.915C104.397 120.284 103.139 121.856 101.702 121.137C100.536 120.554 93.4108 115.875 90.7656 114.131Z" fill="#9CC2F7"/>
<path d="M95.0444 111.381C94.9851 111.381 94.9272 111.347 94.9005 111.289C94.8636 111.209 94.8984 111.115 94.978 111.078C99.0846 109.173 103.327 108.589 103.37 108.583C103.454 108.569 103.536 108.633 103.548 108.72C103.559 108.806 103.499 108.886 103.412 108.898C103.37 108.904 99.1731 109.482 95.1112 111.366C95.0899 111.376 95.0672 111.381 95.0444 111.381ZM97.53 107.697C97.4661 107.697 97.406 107.659 97.3818 107.595C97.3509 107.513 97.3922 107.421 97.4742 107.39C100.845 106.119 106.625 103.607 106.684 103.582C106.763 103.547 106.858 103.583 106.892 103.664C106.927 103.744 106.89 103.837 106.81 103.873C106.752 103.898 100.964 106.412 97.5862 107.687C97.5677 107.694 97.5489 107.697 97.53 107.697Z" fill="#C4DDFF"/>
<path d="M110.646 130.055C110.639 130.055 110.632 130.055 110.624 130.054C110.552 130.044 103.293 129.006 98.281 123.516C98.222 123.452 98.227 123.352 98.2916 123.292C98.3563 123.234 98.4569 123.238 98.5155 123.302C103.451 128.708 110.596 129.729 110.667 129.739C110.754 129.751 110.815 129.83 110.803 129.917C110.792 129.997 110.725 130.055 110.646 130.055Z" fill="#C4DDFF"/>
<path fill-rule="evenodd" clip-rule="evenodd" d="M129.134 18.387C129.134 18.387 126.112 20.8427 126.339 24.4068C126.566 27.9715 127.881 30.0922 128.423 30.9574C128.964 31.8227 128.936 32.6972 127.482 34.5407C127.482 34.5407 127.311 34.8488 127.664 35.1934C128.017 35.5374 128.88 36.1671 129.187 36.2936C129.187 36.2936 129.457 37.3905 130.117 38.1936C130.777 38.997 132.518 41.4705 133.106 42.2508C133.693 43.0312 134.654 43.2547 136.01 42.6698C137.365 42.0845 140.832 38.1961 142.92 35.5989C145.008 33.0021 143.589 29.6967 142.674 27.9403C142.579 27.7583 144.812 29.3733 144.878 29.05C148.384 12.0267 136.336 11.3647 129.134 18.387Z" fill="#F6C1AE"/>
<path fill-rule="evenodd" clip-rule="evenodd" d="M127.283 20.6454C126.727 21.6126 126.276 22.8471 126.331 24.2624C127.04 23.9497 128.906 23.5869 131.98 26.1507C136 29.5033 137.033 37.4764 137.033 37.4764C137.033 37.4764 140.132 31.6822 140.132 31.4129C140.132 31.1432 131.059 19.1953 131.059 19.1953L127.283 20.6454Z" fill="#EE8B83"/>
<path fill-rule="evenodd" clip-rule="evenodd" d="M126.338 24.4071C126.338 24.4071 125.817 24.0859 125.667 23.367C125.517 22.6485 127.059 13.9217 134.808 11.2329C142.556 8.54368 152.737 13.0952 153.935 14.8321C155.133 16.5694 155.912 20.0727 153.306 25.0734C153.306 25.0734 153.442 25.7922 153.082 26.2861C153.082 26.2861 159.34 42.6666 160.838 46.2001C162.335 49.7336 164.372 53.9262 164.372 60.215C164.372 66.2291 165.856 98.3006 168.785 114.249C170.702 124.685 184.945 129.896 173.596 129.896C162.247 129.896 116.312 129.896 113.257 129.896C110.203 129.896 108.526 126.872 106.43 123.577C104.334 120.283 106.251 115.373 105.173 112.737C104.095 110.102 102.537 109.084 103.915 106.688C105.293 104.293 108.797 102.526 109.485 101.328C110.174 100.13 108.707 99.3958 108.707 99.3958C108.707 99.3958 108.627 99.3134 108.685 99.2309C108.743 99.1488 119.575 49.9102 119.575 49.9102C119.575 49.9102 119.81 48.8413 120.75 48.7542C121.691 48.6672 122.53 49.5207 122.53 49.5207C122.53 49.5207 123.471 49.3043 124.101 49.9439C124.73 50.5835 127.291 53.4735 127.291 53.4735C127.291 53.4735 128.07 51.2946 130.125 52.3759C132.18 53.4575 133.28 54.0222 133.28 54.0222L136.845 43.621C136.845 43.621 135.242 43.4043 134.763 43.3442C134.284 43.2842 134.209 42.9611 134.209 42.9611C134.209 42.9611 135.305 43.0422 135.712 42.0518C136.118 41.0611 135.608 35.8867 136.118 32.2008C136.118 32.2008 132.996 23.4779 126.376 23.2565C126.376 23.2565 126.326 23.9928 126.338 24.4071Z" fill="white"/>
<path fill-rule="evenodd" clip-rule="evenodd" d="M150.064 21.2988C149.893 19.317 146.964 15.7288 146.964 15.7288C147.464 16.8012 148.11 18.7073 148.073 21.3638C148.064 21.9654 147.978 22.8619 147.828 23.978C148.221 24.0587 148.664 24.1522 149.122 24.2509L150.064 21.2988ZM108.83 99.4656C108.756 99.4198 108.708 99.396 108.708 99.396C108.708 99.396 108.628 99.3135 108.686 99.2311C108.69 99.2254 108.747 98.9799 108.846 98.5407C109.748 98.163 111.212 97.3837 111.832 96.1219C112.76 94.2354 115.635 81.8383 115.635 81.8383C115.635 81.8383 115.755 81.5611 115.965 81.6734C116.174 81.7857 116.144 81.9876 116.107 82.3621C116.07 82.7366 115.081 93.0898 114.961 93.9884C114.842 94.8867 118.046 91.4428 118.884 84.3161C119.722 77.1887 119.183 74.5535 119.183 74.5535L120.801 89.5861L120.711 92.2668C120.711 92.2668 120.441 93.524 120.501 94.6916C120.561 95.8596 121.011 99.2435 121.011 100.411C121.011 101.58 121.16 104.334 120.681 106.131C120.681 106.131 120.591 102.298 118.974 102.028C117.357 101.759 115.231 101.16 114.242 99.0641C114.242 99.0641 112.61 98.0006 111.263 98.4049C110.281 98.6984 109.538 99.3114 108.83 99.4656ZM105.593 121.408C106.85 120.813 108.605 120.506 110.906 121.248C116.296 122.985 120.639 122.805 122.405 122.445C124.172 122.086 126.118 120.648 127.017 119.66C127.915 118.672 129.291 117.294 130.849 114.18C130.849 114.18 137.137 109.509 138.455 101.124C139.773 92.7391 140.491 80.4017 143.398 75.1025C143.398 75.1025 141.422 77.4978 139.865 84.2059C138.308 90.9133 134.774 106.246 132.737 109.6C132.737 109.6 136.031 98.5197 136.87 92.8904C137.708 87.2604 140.463 76.0008 140.463 76.0008L144.206 64.1723C144.206 64.1723 139.654 71.3583 135.941 87.2892C132.227 103.22 128.035 112.863 121.807 112.982C121.807 112.982 121.327 115.947 122.465 118.702C122.465 118.702 118.632 119.571 114.38 117.354C110.823 115.501 106.679 112.726 104.122 110.64C104.449 111.241 104.836 111.91 105.174 112.737C106.034 114.838 104.989 118.386 105.593 121.408ZM160.199 49.7679C160.168 49.7089 157.323 45.8456 152.592 46.6842C147.861 47.5228 144.986 52.8828 144.986 52.8828C146.184 49.3791 148.67 47.7168 149.238 47.0584C149.807 46.3992 149.328 45.9352 149.328 45.9352C149.328 45.9352 148.355 45.0521 147.741 44.6474C147.127 44.243 146.993 44.7075 146.993 44.7075C146.993 44.7075 146.244 47.133 146.139 47.4024C146.034 47.6721 145.99 47.7616 145.825 47.7616C145.66 47.7616 145.645 47.5523 145.645 47.5523L147.352 38.2392C147.318 38.4695 147.301 38.6909 147.299 38.9041C147.645 36.755 148.451 32.294 149.536 29.6816C151.004 26.1484 149.865 25.2199 149.865 25.2199C149.865 25.2199 152.276 23.633 153.745 19.2311C153.745 19.2311 153.834 21.1325 153.325 22.5698C152.884 23.8164 152.971 24.2065 153.754 24.1617C153.618 24.4599 153.469 24.7633 153.308 25.0728C153.308 25.0728 153.444 25.7917 153.084 26.2856L153.547 27.4966C153.288 27.605 153.025 27.8384 152.981 28.3338C152.981 28.3338 154.807 38.5153 157.293 43.5462C157.293 43.5462 154.687 39.264 153.609 35.6705C152.531 32.0769 151.902 33.7239 152.082 37.0481C152.082 37.0481 151.333 31.7177 151.184 30.5202C151.042 29.3863 148.539 34.0761 147.306 39.2544C147.639 44.6872 157.974 44.5429 160.199 49.7679ZM175.389 129.838C174.88 129.877 174.287 129.896 173.597 129.896H169.506L169.379 129.83L169.009 129.896H135.779C139.526 128.253 145.489 124.521 148.401 116.729C152.833 104.871 156.726 75.9429 160.858 64.8033C160.858 64.8033 158.582 79.5958 157.804 87.7409C157.025 95.8856 156.096 111.069 155.738 114.183C155.378 117.297 154.39 123.106 153.851 124.663C153.311 126.221 155.708 125.442 156.606 123.076C157.504 120.711 162.714 73.9651 162.714 73.9651L160.079 102.922C160.079 102.922 159.24 118.793 159.599 121.069C159.959 123.345 164.6 123.165 164.6 123.165C164.6 123.165 164.241 120.379 164.181 118.523C164.121 116.667 164.69 83.9067 164.707 83.9981C164.707 83.9981 165.845 113.465 166.863 119.693C167.749 125.11 171.353 128.715 175.389 129.838ZM168.904 114.813H168.9C168.9 114.813 170.278 122.479 171.416 124.755C172.539 127.003 175.853 129.162 177.58 127.716C176.073 125.347 170.336 121.047 168.904 114.813ZM130.997 54.819C130.997 54.819 133.273 57.4244 134.995 57.8586C136.716 58.2928 138.723 57.0651 139.232 56.3313C139.741 55.5979 137.72 58.9516 137.72 58.9516L136.567 60.6288L133.467 65.315C133.467 65.315 128.676 73.7444 127.987 75.6604C127.299 77.5774 126.82 78.2213 126.82 78.2213C126.82 78.2213 127.898 71.1088 128.197 66.2574C128.197 66.2574 128.279 65.5986 128.534 65.4117C128.788 65.2244 130.016 65.6586 130.825 65.928C131.633 66.1977 132.652 65.7784 133.22 64.341C133.789 62.9033 132.726 59.9991 132.726 59.9991C132.726 59.9991 134.044 61.3317 134.268 61.541C134.493 61.751 135.137 61.4219 134.538 60.4184C133.939 59.415 130.96 54.7433 130.997 54.819ZM126.439 52.5139C126.419 53.8763 124.241 56.4131 123.707 55.9881C123.123 55.5236 123.557 54.0863 123.557 54.0863C123.557 54.0863 122.584 55.464 122.314 54.7902C122.045 54.1165 121.7 52.3046 121.7 52.3046C121.7 52.3046 121.7 53.4577 121.731 55.2841C121.76 57.1109 122.15 60.9738 122.15 60.9738C122.479 57.2605 124.275 57.1411 124.485 58.9679C124.695 60.7947 125.203 61.3036 125.024 59.6566C124.845 58.0096 125.354 56.8718 126.072 55.734C126.686 54.7622 127.125 53.7029 127.24 53.4147C127.123 53.2825 126.818 52.9389 126.439 52.5139ZM136.944 13.7361C136.944 13.7361 138.412 22.7198 136.944 24.7861C136.944 24.7861 139.16 24.8458 138.651 26.852C138.651 26.852 139.13 25.6392 139.13 25.0551C139.13 24.4712 139.025 23.9624 139.025 23.9624C139.025 23.9624 138.441 16.6261 136.944 13.7361ZM133.304 53.9559C133.813 54.2544 134.763 54.7646 135.627 54.97C136.885 55.2699 137.364 55.1651 138.128 54.7909C138.891 54.4161 139.97 52.6493 139.97 52.6493C139.535 53.2186 138.158 54.1918 137.29 53.5625C136.421 52.9339 136.99 51.5112 136.99 51.5112C138.667 48.876 140.149 43.9207 140.179 43.3966C140.209 42.8725 140.059 42.1089 140.059 42.1089C138.951 43.8305 136.81 43.5608 136.81 43.5608L136.76 43.6088L136.845 43.6201L133.304 53.9559ZM147.686 24.9879C147.333 27.3616 146.764 30.4644 146.09 33.7587L148.812 25.2249C148.415 25.1396 148.032 25.0593 147.686 24.9879Z" fill="#E2EDF8"/>
<path d="M150.116 130.08C150.046 130.08 149.982 130.034 149.962 129.964C149.939 129.88 149.988 129.793 150.073 129.769C154.898 128.421 155.888 112.872 156.761 99.1544C157.083 94.083 157.388 89.2931 157.864 85.3609C159.64 70.6733 161.084 62.4354 161.099 62.3541C161.114 62.2681 161.195 62.2102 161.282 62.2254C161.369 62.2407 161.426 62.3228 161.411 62.4095C161.397 62.4909 159.954 70.7216 158.178 85.3993C157.704 89.3229 157.399 94.1083 157.077 99.1747C156.154 113.674 155.2 128.666 150.157 130.075C150.144 130.078 150.13 130.08 150.116 130.08ZM162.034 130.08C161.099 130.08 160.387 129.798 159.855 129.218C158.118 127.321 158.243 122.231 159.181 111.537C160.365 98.038 162.751 72.623 162.774 72.3682C162.783 72.2808 162.863 72.2204 162.947 72.225C163.035 72.2332 163.099 72.3107 163.09 72.3981C163.067 72.6532 160.681 98.0667 159.497 111.565C158.586 121.949 158.443 127.207 160.09 129.004C160.557 129.515 161.193 129.763 162.034 129.763C162.122 129.763 162.193 129.834 162.193 129.922C162.193 130.009 162.122 130.08 162.034 130.08ZM167.755 128.419C167.73 128.419 167.704 128.413 167.681 128.401C166.851 127.964 164.133 125.973 164.002 118.681C163.884 112.046 164.534 83.0917 164.541 82.7999C164.543 82.7125 164.619 82.6518 164.703 82.6443C164.791 82.6464 164.861 82.7193 164.859 82.8067C164.852 83.0981 164.202 112.047 164.32 118.675C164.447 125.793 167.037 127.703 167.828 128.119C167.906 128.16 167.936 128.256 167.895 128.333C167.867 128.389 167.811 128.419 167.755 128.419ZM176.512 128.319C175.088 128.319 172.697 127.583 171.475 125.097C169.688 121.464 168.369 112.799 168.356 112.712C168.343 112.625 168.403 112.544 168.49 112.531C168.578 112.519 168.657 112.578 168.67 112.664C168.683 112.751 169.994 121.368 171.76 124.957C173.181 127.85 176.243 128.242 177.223 127.911C177.396 127.852 177.444 127.789 177.441 127.773C177.424 127.688 177.479 127.604 177.566 127.587C177.653 127.571 177.735 127.626 177.752 127.712C177.772 127.812 177.77 128.061 177.325 128.212C177.125 128.279 176.845 128.319 176.512 128.319ZM119.373 127.237C115.9 127.237 112.115 126.015 108.056 123.574C107.981 123.529 107.957 123.432 108.001 123.357C108.047 123.282 108.144 123.257 108.219 123.303C114.786 127.25 120.611 127.97 125.53 125.439C134.055 121.054 138.018 107.85 138.884 96.9549C140.308 79.0287 143.797 74.0774 143.944 73.8756C143.996 73.8049 144.095 73.79 144.166 73.8415C144.236 73.893 144.252 73.9922 144.201 74.0629C144.165 74.1119 140.615 79.1737 139.2 96.9801C138.327 107.96 134.316 121.276 125.675 125.721C123.71 126.732 121.605 127.237 119.373 127.237ZM120.153 122.747C119.822 122.747 119.486 122.731 119.142 122.699C119.055 122.691 118.991 122.613 119 122.526C119.008 122.439 119.089 122.378 119.172 122.383C130.004 123.403 134.217 107.559 137.148 90.293C140.467 70.7326 146.445 58.3906 146.505 58.2684C146.543 58.1895 146.639 58.1572 146.717 58.1955C146.796 58.2343 146.828 58.3291 146.79 58.408C146.73 58.5303 140.771 70.835 137.46 90.3463C134.597 107.223 130.501 122.747 120.153 122.747ZM123.109 120.126C123.061 120.126 123.013 120.103 122.982 120.06C122.955 120.024 120.321 116.333 122.179 110.337C124.123 104.069 123.401 100.676 122.69 98.6683C121.838 96.2613 121.57 95.2454 122.114 91.6447C122.357 90.046 122.371 89.1197 122.323 88.5906C122.184 89.3012 121.894 89.9462 121.592 90.6188C121.152 91.5989 120.697 92.6119 120.678 93.9377C120.668 94.6992 120.73 95.5421 120.816 96.4347C120.817 96.4407 120.817 96.4464 120.818 96.4524C120.85 96.7904 120.886 97.1365 120.923 97.4876C121.359 101.69 121.902 106.921 118.314 112.085C118.264 112.157 118.165 112.176 118.093 112.125C118.021 112.075 118.003 111.976 118.053 111.904C121.574 106.837 121.038 101.671 120.607 97.5199C120.596 97.4072 120.584 97.2942 120.572 97.1827C119.973 98.7465 119.253 99.6626 118.333 100.043C117.4 100.429 116.252 100.261 114.824 99.5318C114.682 99.4597 114.54 99.384 114.397 99.3083C113.635 98.9036 112.848 98.4921 112.08 98.5113C111.201 98.5415 110.403 98.969 109.927 99.2244C109.801 99.292 109.696 99.3485 109.616 99.384C109.032 99.6434 108.7 99.5585 108.664 99.5485C108.581 99.524 108.532 99.4355 108.557 99.3517C108.581 99.2678 108.668 99.2198 108.751 99.2429C108.763 99.2458 109.021 99.3019 109.487 99.094C109.561 99.0603 109.659 99.008 109.777 98.9444C110.278 98.6758 111.116 98.2263 112.069 98.1943C112.924 98.1687 113.745 98.6037 114.545 99.0279C114.687 99.1029 114.828 99.1775 114.968 99.2493C116.308 99.9344 117.369 100.099 118.211 99.7496C119.159 99.3581 119.886 98.3066 120.498 96.4414C120.413 95.5481 120.351 94.7027 120.361 93.9334C120.368 93.4363 120.432 92.9833 120.532 92.5608C120.663 91.7719 120.696 90.1828 120.46 88.5341C120.355 87.7992 120.024 84.9824 119.69 81.5598C119.574 84.9505 119.17 89.9149 117.85 92.6311C117.812 92.7096 117.717 92.7423 117.637 92.7043C117.558 92.6663 117.526 92.5711 117.564 92.4925C119.34 88.8389 119.424 80.7567 119.412 78.5593C119.099 74.9484 118.846 71.1491 118.872 68.5963C118.887 67.1334 118.955 65.3219 119.053 63.4055C118.323 67.2968 116.731 75.3247 114.334 84.9554C114.313 85.0404 114.227 85.0937 114.142 85.0709C114.057 85.0496 114.005 84.9636 114.026 84.8787C117.343 71.5492 119.118 61.2959 119.197 60.8414C119.415 57.2123 119.696 53.5882 119.881 51.5127C119.881 51.4942 119.882 51.4832 119.882 51.4796C119.882 51.4679 119.884 51.4562 119.887 51.4451C119.966 50.5568 120.028 49.9644 120.057 49.7942C120.238 48.7584 120.902 48.6007 120.93 48.5943C121.014 48.5765 121.1 48.6294 121.118 48.7151C121.137 48.8 121.084 48.8842 121 48.9038C120.98 48.9087 120.512 49.0342 120.37 49.849C120.34 50.0195 120.278 50.6183 120.198 51.5159C120.175 52.24 119.723 67.4891 121.405 79.3229C121.417 79.4096 121.357 79.49 121.27 79.5024C121.186 79.5131 121.103 79.4541 121.091 79.3674C119.965 71.4508 119.793 62.0133 119.81 56.3961C119.708 57.8 119.606 59.3205 119.514 60.8428C119.515 60.8549 119.514 60.8673 119.512 60.8798C119.512 60.8801 119.512 60.8812 119.512 60.8823C119.343 63.6912 119.211 66.5027 119.189 68.5995C119.165 70.9906 119.386 74.4786 119.673 77.8792C119.703 77.9073 119.723 77.9467 119.724 77.9918C119.725 78.0441 119.729 78.2463 119.732 78.5671C120.136 83.2182 120.641 87.5508 120.775 88.4886C120.921 89.5084 120.967 90.4934 120.951 91.2979C121.063 91.0218 121.184 90.7539 121.303 90.4884C121.693 89.6221 122.061 88.8023 122.089 87.8451C122.072 87.8028 122.076 87.753 122.101 87.7086C122.141 87.6368 122.235 87.613 122.311 87.6457C122.318 87.6489 122.325 87.6521 122.331 87.656C122.491 87.7516 122.938 88.3226 122.428 91.6912C121.895 95.2173 122.156 96.2101 122.989 98.5617C123.716 100.612 124.454 104.072 122.483 110.43C120.674 116.265 123.212 119.837 123.238 119.872C123.29 119.943 123.274 120.042 123.203 120.094C123.175 120.116 123.142 120.126 123.109 120.126ZM132.339 85.9518C132.315 85.9518 132.29 85.9461 132.266 85.9337C128.879 84.1765 126.651 79.6467 126.635 79.604L126.591 79.4871C126.474 79.1908 126.314 78.785 126.542 78.506C126.692 78.3213 126.943 77.827 127.028 77.6521C129.317 71.9276 131.912 67.509 134.265 63.8604H134.265C134.278 63.8373 134.572 63.2872 134.151 62.6032C133.672 61.825 132.295 59.5941 132.295 59.5941L132.564 59.4275C132.564 59.4275 133.942 61.658 134.422 62.4372C134.594 62.7169 134.667 62.9802 134.687 63.209C135.25 62.3473 135.796 61.5293 136.319 60.7465C138.488 57.4976 140.361 54.6919 141.396 51.7959C143.82 45.0064 147.857 25.5054 147.914 21.3625C147.972 17.1613 146.286 14.8342 146.268 14.8107C146.216 14.7407 146.231 14.6412 146.301 14.589C146.372 14.5375 146.471 14.5517 146.523 14.6217C146.596 14.7187 148.291 17.0501 148.232 21.3664C148.209 22.932 147.623 26.6791 146.77 31.1069L150.337 19.9241C150.363 19.8405 150.451 19.7933 150.536 19.821C150.619 19.8473 150.665 19.9368 150.639 20.0203L146.236 33.8253C146.233 33.8345 146.229 33.8438 146.225 33.8519C144.844 40.6101 143.027 48.1718 141.695 51.9021C140.647 54.8351 138.763 57.6561 136.583 60.9224C133.78 65.12 130.293 70.3449 127.318 77.7801C127.301 77.817 126.992 78.4549 126.788 78.7061C126.678 78.8415 126.798 79.1474 126.886 79.3709L126.934 79.4942C127.081 79.8933 129.361 84.0689 132.413 85.6523C132.49 85.6921 132.521 85.788 132.48 85.8662C132.452 85.9205 132.397 85.9518 132.339 85.9518ZM134.575 79.9064C134.561 79.9064 134.547 79.9046 134.533 79.9004C134.449 79.8773 134.4 79.7909 134.422 79.7071C134.478 79.5017 136.514 74.1641 139.385 66.6469C141.102 62.1515 142.724 57.9056 142.772 57.7499C145.106 50.2803 149.866 45.8528 154.892 46.4672C159.549 47.0372 162.827 51.916 163.241 58.897C163.247 58.9844 163.18 59.0597 163.093 59.0647C163.011 59.0732 162.93 59.0032 162.925 58.9158C162.52 52.0951 159.352 47.3324 154.854 46.782C149.982 46.1861 145.36 50.5284 143.075 57.8445C143.024 58.0061 141.475 62.0627 139.681 66.7599C137.505 72.4585 134.797 79.55 134.728 79.7902C134.708 79.8602 134.645 79.9064 134.575 79.9064ZM122.786 65.1371C122.714 65.1371 122.649 65.0873 122.632 65.0141C122.399 64.0089 122.213 62.9546 122.063 61.8946C122.061 61.8868 122.06 61.8783 122.059 61.8697C122.058 61.8605 122.057 61.852 122.056 61.8427C121.326 56.6232 121.493 51.2995 121.495 51.2355C121.498 51.1477 121.573 51.0717 121.659 51.0823C121.746 51.0852 121.815 51.1584 121.812 51.2458C121.81 51.2984 121.699 54.8731 122.059 59.0203C122.407 55.4903 123.907 52.987 123.926 52.9557C123.972 52.8811 124.069 52.8569 124.144 52.9027C124.219 52.9486 124.242 53.046 124.197 53.1209C124.174 53.1589 121.889 56.9771 122.371 61.8097C122.521 62.8739 122.707 63.9336 122.941 64.942C122.96 65.0276 122.907 65.1126 122.822 65.1325C122.811 65.1357 122.798 65.1371 122.786 65.1371ZM128.546 62.1068C128.544 62.1068 128.541 62.1068 128.539 62.1064C128.452 62.1028 128.384 62.0293 128.387 61.9419C128.488 59.3642 128.027 56.3744 127.78 54.7683C127.735 54.4776 127.697 54.2299 127.67 54.0349C127.486 52.7194 127.816 52.406 127.884 52.3562C127.955 52.3044 128.054 52.3203 128.106 52.3914C128.156 52.4596 128.143 52.5542 128.078 52.6071C128.062 52.6238 127.831 52.8953 127.984 53.9915C128.011 54.1852 128.049 54.4314 128.093 54.7207C128.342 56.3375 128.806 59.3468 128.703 61.9547C128.701 62.0396 128.631 62.1068 128.546 62.1068ZM135.391 61.0518C135.096 61.0518 134.75 60.9384 134.473 60.5635C133.956 59.8628 130.279 53.9489 129.704 53.0051C129.193 52.1654 128.591 52.2845 128.567 52.2894C128.481 52.3083 128.397 52.2543 128.378 52.1693C128.359 52.0844 128.411 52.0002 128.496 51.9803C128.53 51.9721 129.339 51.7955 129.975 52.8399C130.531 53.7527 134.228 59.6965 134.729 60.3748C135.153 60.9483 135.718 60.6687 135.742 60.657C135.82 60.6175 135.915 60.6484 135.955 60.7263C135.995 60.8041 135.964 60.8997 135.886 60.9395C135.77 60.9988 135.593 61.0518 135.391 61.0518ZM125.148 57.8807C125.139 57.8807 125.131 57.88 125.122 57.8786C125.036 57.8647 124.977 57.7833 124.991 57.6966C125.117 56.906 125.643 56.0606 126.152 55.2434C126.527 54.64 126.915 54.0157 127.144 53.4169C127.176 53.3352 127.267 53.2936 127.349 53.3252C127.431 53.3565 127.472 53.4482 127.441 53.5299C127.201 54.1571 126.805 54.7946 126.421 55.4104C125.907 56.238 125.421 57.019 125.304 57.7467C125.291 57.8253 125.224 57.8807 125.148 57.8807ZM136.887 55.3166C136.611 55.3166 136.328 55.2725 136.038 55.1844C135.654 55.0675 135.165 54.8966 134.703 54.7285C134.676 54.726 134.65 54.7168 134.627 54.7011C134.439 54.6325 134.257 54.565 134.09 54.5018C134.087 54.5011 134.085 54.5 134.083 54.4989C133.593 54.3152 133.231 54.1731 133.223 54.1699C133.142 54.1379 133.101 54.0455 133.134 53.9641C133.166 53.8828 133.257 53.8423 133.339 53.875C133.347 53.8778 133.646 53.9951 134.066 54.1543C134.387 53.5345 135.835 50.7352 136.979 48.3875C137.695 46.189 137.569 44.2851 137.512 43.7368C137.136 43.7858 136.873 43.7815 136.841 43.7801C136.754 43.778 136.685 43.7051 136.687 43.6177C136.689 43.53 136.758 43.4557 136.849 43.4632C136.871 43.461 139.108 43.5012 139.966 42.0006C139.835 40.5348 139.316 38.4422 137.762 35.9367C137.716 35.8624 137.739 35.7644 137.814 35.7182C137.889 35.6716 137.986 35.6954 138.033 35.7697C139.971 38.897 140.345 41.3713 140.332 42.8562C142.55 36.2608 144.888 28.0993 144.92 27.9849C144.944 27.9007 145.033 27.852 145.117 27.8758C145.201 27.9 145.25 27.9878 145.226 28.072C145.19 28.1953 142.503 37.5791 140.151 44.37C140.146 44.387 140.143 44.3984 140.141 44.4041C140.138 44.4123 140.135 44.4204 140.132 44.4279C139.421 46.4786 138.741 48.288 138.176 49.5288C137.213 51.6459 136.148 53.3174 135.008 54.5021C135.404 54.6443 135.806 54.7825 136.13 54.8813C137.835 55.3997 139.301 54.1614 140.49 51.2007C140.522 51.1193 140.616 51.0799 140.695 51.1125C140.777 51.1452 140.817 51.2373 140.784 51.3186C139.717 53.9766 138.409 55.3166 136.887 55.3166ZM134.365 54.2662C134.467 54.3038 134.573 54.3433 134.681 54.3827C135.491 53.5626 136.682 52.0446 137.888 49.397C138.453 48.1561 139.133 46.3418 139.845 44.2861C139.878 44.165 140.033 43.5403 139.998 42.5137C139.696 42.8872 139.315 43.1505 138.924 43.3367C139.017 43.6064 139.082 44.203 138.677 45.3962C138.15 46.9483 134.939 53.1604 134.365 54.2662ZM137.826 43.6863C137.875 44.1113 137.968 45.3447 137.675 46.9295C138.007 46.2188 138.26 45.6353 138.377 45.2939C138.755 44.1774 138.693 43.659 138.632 43.461C138.352 43.568 138.075 43.6391 137.826 43.6863ZM121.62 50.4758C121.608 50.4758 121.596 50.4744 121.584 50.4715C121.498 50.4513 121.446 50.3656 121.466 50.2803C121.637 49.5629 122.462 49.3739 122.497 49.3661C122.582 49.3486 122.667 49.4012 122.685 49.4865C122.705 49.5722 122.65 49.6567 122.565 49.6759C122.559 49.6773 121.899 49.8315 121.774 50.3539C121.757 50.4267 121.692 50.4758 121.62 50.4758ZM158.273 46.0493C158.212 46.0493 158.154 46.0138 158.128 45.9544C153.492 35.3916 152.672 28.0826 152.53 26.0942C152.524 26.0068 152.59 25.9311 152.678 25.9247C152.762 25.9169 152.841 25.984 152.847 26.0718C152.987 28.0475 153.803 35.3106 158.418 45.8269C158.454 45.9072 158.418 46.0006 158.337 46.0362C158.316 46.0451 158.294 46.0493 158.273 46.0493ZM146.789 41.6772C146.781 41.6772 146.772 41.6765 146.764 41.6751C146.677 41.6612 146.619 41.5799 146.632 41.4935C148.237 31.4395 150.106 27.5571 151.607 24.4372C152.493 22.5951 153.259 21.0043 153.761 18.5489C153.778 18.4629 153.862 18.4071 153.948 18.4252C154.033 18.4426 154.089 18.5265 154.072 18.6121C153.562 21.1063 152.789 22.7135 151.893 24.5747C150.4 27.6758 148.543 31.5351 146.946 41.5433C146.933 41.6211 146.866 41.6772 146.789 41.6772ZM152.539 40.6286C152.46 40.6286 152.392 40.5703 152.382 40.49L152.37 40.4005C151.885 36.6573 150.873 28.8683 151.984 25.4624C152.284 24.5392 152.716 23.6459 153.133 22.7817C153.586 21.8425 154.056 20.8717 154.364 19.8516C154.389 19.7681 154.478 19.7204 154.562 19.7457C154.645 19.7709 154.693 19.8594 154.668 19.9436C154.352 20.9876 153.878 21.9697 153.419 22.9199C153.006 23.7745 152.579 24.6582 152.285 25.5612C151.197 28.8992 152.202 36.6399 152.685 40.36L152.696 40.4499C152.708 40.5366 152.647 40.6162 152.56 40.6275C152.552 40.6283 152.545 40.6286 152.539 40.6286ZM136.119 32.3595C136.11 32.3595 136.101 32.3588 136.092 32.357C136.005 32.3421 135.947 32.2604 135.963 32.174C135.97 32.1261 136.107 31.3567 136.551 30.2975C136.516 29.3388 136.23 27.394 135.376 26.6467C135.113 26.4161 134.824 26.3198 134.49 26.3546C134.446 26.3582 134.399 26.344 134.366 26.3131C134.332 26.2821 134.314 26.2381 134.315 26.1926C134.331 25.5811 134.078 25.3597 134.067 25.3508C134.019 25.3103 133.997 25.2431 134.015 25.1827C134.278 24.2915 133.9 23.7823 133.25 23.2916C129.686 20.6024 126.31 20.5953 126.271 20.5967C126.17 20.607 126.112 20.5271 126.111 20.4393C126.11 20.3515 126.181 20.2801 126.268 20.2794C126.298 20.2886 129.783 20.278 133.441 23.039C134.047 23.4959 134.622 24.1075 134.344 25.1841C134.445 25.3053 134.609 25.5704 134.631 26.0316C134.982 26.0345 135.303 26.161 135.586 26.409C136.366 27.092 136.711 28.5915 136.826 29.6934C137.011 29.3164 137.231 28.9166 137.495 28.5091C137.543 28.4359 137.641 28.4145 137.715 28.4625C137.788 28.5101 137.809 28.6082 137.762 28.6821C136.583 30.5018 136.278 32.2117 136.275 32.2287C136.261 32.3051 136.194 32.3595 136.119 32.3595ZM138.354 27.6317C138.331 27.6317 138.307 27.6264 138.284 27.615C138.206 27.5763 138.174 27.4811 138.213 27.4025C139.124 25.5658 138.944 24.7126 138.942 24.7041C138.938 24.6863 138.937 24.6668 138.939 24.6486C139.023 23.939 138.844 23.7983 138.842 23.7973C138.788 23.7727 138.766 23.7273 138.763 23.6676C138.661 21.6418 137.511 13.1897 135.374 11.704C135.068 11.4904 134.761 11.4368 134.439 11.5373C134.354 11.5636 134.266 11.5171 134.24 11.4336C134.213 11.3501 134.261 11.2609 134.344 11.2346C134.759 11.1028 135.167 11.1735 135.556 11.4432C137.932 13.0962 138.98 22.0703 139.075 23.5784C139.189 23.6906 139.334 23.9721 139.256 24.6611C139.288 24.8412 139.382 25.7598 138.497 27.5432C138.469 27.5994 138.413 27.6317 138.354 27.6317Z" fill="#C4DDFF"/>
<path fill-rule="evenodd" clip-rule="evenodd" d="M132.619 26.7749C132.351 26.8584 132.066 26.7088 131.983 26.4409C131.899 26.173 132.049 25.8876 132.317 25.8041C132.328 25.8006 136.234 24.607 138.828 23.6828C138.89 23.6614 138.953 23.6522 139.013 23.654C139.471 23.6408 145.161 23.4855 146.813 23.7808C148.481 24.079 153.407 25.2043 153.421 25.2079C153.695 25.2704 153.866 25.543 153.804 25.8162C153.74 26.0895 153.468 26.2607 153.195 26.1986C153.181 26.1954 148.318 25.0842 146.634 24.7832C145.111 24.5114 139.819 24.6471 139.094 24.6674C136.479 25.5959 132.63 26.7714 132.619 26.7749Z" fill="#C4DDFF"/>
<path fill-rule="evenodd" clip-rule="evenodd" d="M124.774 59.8733C125.434 59.8733 125.972 59.335 125.972 58.6758C125.972 58.0163 125.434 57.478 124.774 57.478C124.114 57.478 123.577 58.0163 123.577 58.6758C123.577 59.3353 124.114 59.8733 124.774 59.8733Z" fill="#403965"/>
<path fill-rule="evenodd" clip-rule="evenodd" d="M124.355 62.0299C125.014 62.0299 125.553 61.4916 125.553 60.8321C125.553 60.1722 125.014 59.6346 124.355 59.6346C123.695 59.6346 123.157 60.1722 123.157 60.8321C123.157 61.4916 123.695 62.0299 124.355 62.0299Z" fill="#403965"/>
<path fill-rule="evenodd" clip-rule="evenodd" d="M124.056 64.1257C124.716 64.1257 125.254 63.5881 125.254 62.9283C125.254 62.2687 124.716 61.7304 124.056 61.7304C123.397 61.7304 122.859 62.2687 122.859 62.9283C122.859 63.5881 123.396 64.1257 124.056 64.1257Z" fill="#403965"/>
<path fill-rule="evenodd" clip-rule="evenodd" d="M123.876 66.2224C124.536 66.2224 125.074 65.6841 125.074 65.0249C125.074 64.3654 124.536 63.8271 123.876 63.8271C123.216 63.8271 122.678 64.3654 122.678 65.0249C122.678 65.6841 123.216 66.2224 123.876 66.2224Z" fill="#403965"/>
<path fill-rule="evenodd" clip-rule="evenodd" d="M123.816 68.4976C124.476 68.4976 125.014 67.9596 125.014 67.3001C125.014 66.6403 124.476 66.1019 123.816 66.1019C123.157 66.1019 122.618 66.6399 122.618 67.3001C122.618 67.9596 123.156 68.4976 123.816 68.4976Z" fill="#403965"/>
<path fill-rule="evenodd" clip-rule="evenodd" d="M123.637 70.5943C124.297 70.5943 124.835 70.056 124.835 69.3965C124.835 68.7366 124.297 68.199 123.637 68.199C122.978 68.199 122.439 68.7366 122.439 69.3965C122.439 70.056 122.977 70.5943 123.637 70.5943Z" fill="#403965"/>
<path fill-rule="evenodd" clip-rule="evenodd" d="M124.072 71.7628C124.468 71.7628 124.791 71.4398 124.791 71.0436C124.791 70.6474 124.468 70.324 124.072 70.324C123.675 70.324 123.352 70.6474 123.352 71.0436C123.352 71.4398 123.675 71.7628 124.072 71.7628Z" fill="#403965"/>
<path d="M124.52 72.5103C124.842 72.5103 125.103 72.249 125.103 71.9268C125.103 71.6045 124.842 71.3433 124.52 71.3433C124.198 71.3433 123.937 71.6045 123.937 71.9268C123.937 72.249 124.198 72.5103 124.52 72.5103Z" fill="#403965"/>
<path fill-rule="evenodd" clip-rule="evenodd" d="M123.218 77.3021C123.877 77.3021 124.415 76.7637 124.415 76.1039C124.415 75.4447 123.877 74.9064 123.218 74.9064C122.558 74.9064 122.02 75.4447 122.02 76.1039C122.02 76.7637 122.558 77.3021 123.218 77.3021Z" fill="#403965"/>
<path fill-rule="evenodd" clip-rule="evenodd" d="M122.799 79.4581C123.458 79.4581 123.996 78.9197 123.996 78.2599C123.996 77.6007 123.458 77.062 122.799 77.062C122.139 77.062 121.601 77.6007 121.601 78.2599C121.601 78.9197 122.139 79.4581 122.799 79.4581Z" fill="#403965"/>
<path fill-rule="evenodd" clip-rule="evenodd" d="M122.499 81.5538C123.158 81.5538 123.697 81.0155 123.697 80.3563C123.697 79.6968 123.158 79.1581 122.499 79.1581C121.839 79.1581 121.301 79.6968 121.301 80.3563C121.301 81.0158 121.839 81.5538 122.499 81.5538Z" fill="#403965"/>
<path fill-rule="evenodd" clip-rule="evenodd" d="M122.32 83.6506C122.979 83.6506 123.517 83.1123 123.517 82.4527C123.517 81.7929 122.979 81.2552 122.32 81.2552C121.66 81.2552 121.122 81.7929 121.122 82.4527C121.122 83.1123 121.66 83.6506 122.32 83.6506Z" fill="#403965"/>
<path fill-rule="evenodd" clip-rule="evenodd" d="M122.26 85.9261C122.919 85.9261 123.458 85.3878 123.458 84.7286C123.458 84.0691 122.919 83.5308 122.26 83.5308C121.6 83.5308 121.062 84.0691 121.062 84.7286C121.062 85.3878 121.6 85.9261 122.26 85.9261Z" fill="#403965"/>
<path fill-rule="evenodd" clip-rule="evenodd" d="M122.079 88.0221C122.739 88.0221 123.278 87.4838 123.278 86.8243C123.278 86.1651 122.739 85.6268 122.079 85.6268C121.42 85.6268 120.882 86.1651 120.882 86.8243C120.882 87.4841 121.42 88.0221 122.079 88.0221Z" fill="#403965"/>
<path fill-rule="evenodd" clip-rule="evenodd" d="M123.861 75.4461C124.257 75.4461 124.58 75.1235 124.58 74.7273C124.58 74.3311 124.257 74.0081 123.861 74.0081C123.465 74.0081 123.142 74.3311 123.142 74.7273C123.142 75.1235 123.465 75.4461 123.861 75.4461Z" fill="#403965"/>
<path fill-rule="evenodd" clip-rule="evenodd" d="M124.31 74.4273C124.632 74.4273 124.895 74.165 124.895 73.8427C124.895 73.5215 124.632 73.2593 124.31 73.2593C123.989 73.2593 123.727 73.5212 123.727 73.8427C123.727 74.1647 123.989 74.4273 124.31 74.4273Z" fill="#403965"/>
<path fill-rule="evenodd" clip-rule="evenodd" d="M124.43 73.4686C124.752 73.4686 125.014 73.2064 125.014 72.8848C125.014 72.5632 124.753 72.301 124.43 72.301C124.109 72.301 123.846 72.5629 123.846 72.8848C123.847 73.2064 124.109 73.4686 124.43 73.4686Z" fill="#403965"/>
<path fill-rule="evenodd" clip-rule="evenodd" d="M124.774 59.3055C125.12 59.3055 125.403 59.0227 125.403 58.6759C125.403 58.3287 125.12 58.0458 124.774 58.0458C124.427 58.0458 124.144 58.3287 124.144 58.6759C124.144 59.0227 124.427 59.3055 124.774 59.3055Z" fill="#4C4571"/>
<path d="M124.842 58.8199C125.049 58.8199 125.218 58.6516 125.218 58.4439C125.218 58.2363 125.049 58.068 124.842 58.068C124.634 58.068 124.466 58.2363 124.466 58.4439C124.466 58.6516 124.634 58.8199 124.842 58.8199Z" fill="#4C4571"/>
<path fill-rule="evenodd" clip-rule="evenodd" d="M124.483 61.0752C124.728 61.0752 124.928 60.8751 124.928 60.6303C124.928 60.3844 124.728 60.1847 124.483 60.1847C124.238 60.1847 124.038 60.3844 124.038 60.6303C124.038 60.8751 124.237 61.0752 124.483 61.0752Z" fill="#4C4571"/>
<path fill-rule="evenodd" clip-rule="evenodd" d="M124.243 63.4084C124.585 63.4084 124.865 63.1288 124.865 62.7859C124.865 62.443 124.585 62.1633 124.243 62.1633C123.899 62.1633 123.62 62.443 123.62 62.7859C123.62 63.1288 123.899 63.4084 124.243 63.4084Z" fill="#4C4571"/>
<path fill-rule="evenodd" clip-rule="evenodd" d="M124.123 65.5344C124.466 65.5344 124.745 65.2544 124.745 64.9119C124.745 64.569 124.466 64.2893 124.123 64.2893C123.78 64.2893 123.5 64.569 123.5 64.9119C123.5 65.2548 123.78 65.5344 124.123 65.5344Z" fill="#4C4571"/>
<path d="M123.913 67.6087C124.162 67.6087 124.364 67.4068 124.364 67.1578C124.364 66.9087 124.162 66.7068 123.913 66.7068C123.664 66.7068 123.462 66.9087 123.462 67.1578C123.462 67.4068 123.664 67.6087 123.913 67.6087Z" fill="#4C4571"/>
<path d="M122.042 87.5222C122.25 87.5222 122.418 87.3538 122.418 87.1462C122.418 86.9386 122.25 86.7703 122.042 86.7703C121.834 86.7703 121.666 86.9386 121.666 87.1462C121.666 87.3538 121.834 87.5222 122.042 87.5222Z" fill="#4C4571"/>
<path fill-rule="evenodd" clip-rule="evenodd" d="M122.192 85.2411C122.445 85.2411 122.653 85.0343 122.653 84.7803C122.653 84.5262 122.445 84.3194 122.192 84.3194C121.938 84.3194 121.73 84.5262 121.73 84.7803C121.73 85.0343 121.938 85.2411 122.192 85.2411Z" fill="#4C4571"/>
<path fill-rule="evenodd" clip-rule="evenodd" d="M122.116 82.9363C122.435 82.9363 122.697 82.6751 122.697 82.355C122.697 82.0348 122.436 81.7744 122.116 81.7744C121.797 81.7744 121.535 82.0345 121.535 82.355C121.535 82.6751 121.796 82.9363 122.116 82.9363Z" fill="#4C4571"/>
<path fill-rule="evenodd" clip-rule="evenodd" d="M122.356 80.9118C122.732 80.9118 123.039 80.6055 123.039 80.2289C123.039 79.8522 122.732 79.5459 122.356 79.5459C121.98 79.5459 121.673 79.8522 121.673 80.2289C121.673 80.6055 121.98 80.9118 122.356 80.9118Z" fill="#4C4571"/>
<path fill-rule="evenodd" clip-rule="evenodd" d="M122.58 78.6533C122.834 78.6533 123.042 78.4462 123.042 78.1924C123.042 77.9384 122.834 77.7316 122.58 77.7316C122.327 77.7316 122.12 77.9384 122.12 78.1924C122.12 78.4462 122.327 78.6533 122.58 78.6533Z" fill="#4C4571"/>
<path d="M122.88 76.3228C123.087 76.3228 123.256 76.1545 123.256 75.9469C123.256 75.7392 123.087 75.5709 122.88 75.5709C122.672 75.5709 122.504 75.7392 122.504 75.9469C122.504 76.1545 122.672 76.3228 122.88 76.3228Z" fill="#4C4571"/>
<path fill-rule="evenodd" clip-rule="evenodd" d="M124.371 73.1125C124.371 73.1125 125.39 72.8055 125.344 74.3029C125.299 75.8003 123.113 85.877 125.869 89.2311C125.869 89.2311 126.003 89.321 126.167 89.2311C126.934 88.8125 127.847 87.3297 127.602 87.0291C127.055 86.3571 125.764 85.3248 125.944 81.0103C126.153 75.9801 127.037 72.5888 124.424 72.6861C124.424 72.6861 124.349 73.1125 124.371 73.1125Z" fill="#403965"/>
<path fill-rule="evenodd" clip-rule="evenodd" d="M72.5701 84.0509C73.054 84.0509 73.5178 84.1379 73.946 84.2975C74.14 84.0839 74.4196 83.9496 74.7305 83.9496C74.8752 83.9496 75.0134 83.9791 75.1392 84.0313C75.2081 83.1192 75.97 82.4014 76.8999 82.4014C77.3036 82.4014 77.6752 82.5368 77.9727 82.7646C78.1631 82.5027 78.4719 82.3325 78.8205 82.3325C78.8788 82.3325 78.936 82.3374 78.9914 82.346C78.8738 82.0713 78.8088 81.7678 78.8088 81.4502C78.8088 80.1912 79.8286 79.1707 81.0876 79.1707C81.3221 79.1707 81.5477 79.2062 81.7609 79.2723C81.9262 78.9201 82.284 78.676 82.699 78.676H82.7289C82.7243 78.5943 82.7211 78.5115 82.7211 78.4283C82.7211 76.1666 84.5546 74.3327 86.8167 74.3327C89.0784 74.3327 90.912 76.1666 90.912 78.4283C90.912 78.46 90.9116 78.4912 90.9109 78.5229C91.1088 78.4731 91.3157 78.4465 91.5292 78.4465C91.9528 78.4465 92.3518 78.5513 92.7022 78.7368C93.2995 77.922 94.2625 77.3929 95.3498 77.3929C97.1617 77.3929 98.6303 78.8619 98.6303 80.6737C98.6303 81.0301 98.5731 81.373 98.4683 81.6943C98.501 81.6918 98.5344 81.6904 98.5674 81.6904C99.4597 81.6904 100.183 82.4142 100.183 83.3064C100.183 83.4113 100.173 83.514 100.154 83.6131C100.165 83.6124 100.176 83.612 100.188 83.612C100.692 83.612 101.102 84.0125 101.119 84.5125C101.259 84.4858 101.403 84.4723 101.551 84.4723C102.134 84.4723 102.679 84.6745 103.071 85.0455C104.12 86.0379 102.975 86.2963 101.871 86.2963H100.431H99.3008H76.1359H74.3283H71.358C70.2074 86.2963 68.5629 86.485 69.705 85.2818C70.4238 84.5238 71.4415 84.0509 72.5701 84.0509Z" fill="white"/>
<path fill-rule="evenodd" clip-rule="evenodd" d="M31.3562 19.8605C36.2979 22.8727 37.8625 29.3207 34.8503 34.2627C31.8377 39.2044 25.3894 40.769 20.4477 37.7568C18.3938 36.5046 16.8452 34.6049 16.0354 32.3393C15.9931 32.2206 16.0432 32.0905 16.1548 32.0305C16.266 31.9712 16.4021 32.001 16.4778 32.1033C17.116 32.9629 17.9127 33.6864 18.827 34.2432C22.7517 36.6357 27.8732 35.3934 30.2657 31.4683C32.6578 27.5433 31.4156 22.4221 27.4901 20.0293C26.5762 19.4721 25.5678 19.0958 24.5113 18.922C24.3866 18.9014 24.2971 18.7948 24.2992 18.6687C24.301 18.5418 24.3934 18.4377 24.5188 18.4213C26.9035 18.1023 29.3017 18.6086 31.3562 19.8605Z" fill="white"/>
<path fill-rule="evenodd" clip-rule="evenodd" d="M89.4792 28.7705C89.972 28.7705 90.4439 28.8594 90.8803 29.0214C91.0775 28.8043 91.3621 28.6679 91.6787 28.6679C91.8262 28.6679 91.9669 28.6973 92.0948 28.7506C92.1652 27.8225 92.9409 27.0912 93.8871 27.0912C94.2983 27.0912 94.6767 27.2294 94.9795 27.4611C95.1735 27.1946 95.4876 27.0212 95.8426 27.0212C95.9019 27.0212 95.9602 27.0262 96.0167 27.0354C95.8969 26.7554 95.8305 26.447 95.8305 26.1229C95.8305 24.8416 96.8695 23.8025 98.1512 23.8025C98.3893 23.8025 98.6199 23.8384 98.8363 23.906C99.0047 23.5471 99.369 23.2987 99.7915 23.2987L99.822 23.2994C99.817 23.2155 99.8142 23.1313 99.8142 23.0467C99.8142 20.7438 101.682 18.8768 103.984 18.8768C106.287 18.8768 108.154 20.7438 108.154 23.0467C108.154 23.0787 108.154 23.1111 108.153 23.143C108.354 23.0922 108.565 23.0649 108.782 23.0649C109.213 23.0649 109.62 23.1722 109.976 23.3609C110.584 22.5315 111.565 21.9928 112.673 21.9928C114.517 21.9928 116.013 23.4881 116.013 25.333C116.013 25.6958 115.954 26.0451 115.847 26.3724C115.881 26.3702 115.915 26.3688 115.949 26.3688C116.857 26.3688 117.593 27.1051 117.593 28.0137C117.593 28.1206 117.583 28.2247 117.564 28.3257C117.575 28.3253 117.587 28.3253 117.599 28.3253C118.111 28.3253 118.53 28.7329 118.546 29.2421C118.688 29.2151 118.836 29.2005 118.986 29.2005C119.579 29.2005 120.134 29.407 120.533 29.7847C121.602 30.7956 120.436 31.0579 119.312 31.0579H117.845H116.695H93.1093H91.2683H88.2436C87.0721 31.0579 85.3977 31.2505 86.5607 30.0249C87.2938 29.252 88.3303 28.7705 89.4792 28.7705Z" fill="white"/>
<path fill-rule="evenodd" clip-rule="evenodd" d="M194.921 119.598L195.353 119.959H197.224C197.224 119.959 197.826 112.944 200.185 106.304C202.545 99.6642 210.259 95.0714 206.356 78.9145C200.515 97.0158 196.489 85.5942 194.921 119.598Z" fill="#E2EDF8"/>
<path fill-rule="evenodd" clip-rule="evenodd" d="M192.53 119.959H194.435C194.435 119.959 196.693 109.028 198.553 103.605C200.414 98.1828 203.636 85.7804 195.014 73.4728C195.014 73.4728 194.799 73.2141 194.663 73.5464C194.527 73.8783 194.516 77.696 192.52 84.8892C190.523 92.0819 191.748 96.5081 192.52 101.378C193.291 106.247 193.329 113.737 192.53 119.959Z" fill="white"/>
<path fill-rule="evenodd" clip-rule="evenodd" d="M198.405 89.7332C204.28 99.881 197.987 114.042 196.055 119.959C196.055 119.959 193.842 119.867 193.819 119.959C193.798 120.045 195.715 115.531 194.793 108.04C193.52 97.6907 197.673 97.8556 198.405 89.7332Z" fill="#C4DDFF"/>
<path fill-rule="evenodd" clip-rule="evenodd" d="M194.575 119.598L194.143 119.959H192.272C192.272 119.959 191.671 112.944 189.311 106.304C186.951 99.6642 179.237 95.0714 183.14 78.9145C188.98 97.0158 193.007 85.5942 194.575 119.598Z" fill="#E2EDF8"/>
<path fill-rule="evenodd" clip-rule="evenodd" d="M193.078 119.044L192.272 119.959H191.116C191.116 119.959 190.004 114.202 187.418 111.49C184.832 108.779 180.79 105.57 179.612 99.4277C180.621 103.022 192.092 98.1641 193.078 119.044Z" fill="white"/>
<path fill-rule="evenodd" clip-rule="evenodd" d="M196.417 119.044L197.224 119.959H198.38C198.38 119.959 199.492 114.202 202.078 111.49C204.664 108.779 208.705 105.57 209.884 99.4277C208.875 103.022 197.403 98.1641 196.417 119.044Z" fill="white"/>
<path fill-rule="evenodd" clip-rule="evenodd" d="M189.476 129.899C190.383 129.899 194.748 129.899 194.748 129.899C194.748 129.899 199.113 129.899 200.02 129.899C205.36 125.181 202.253 116.871 202.052 116.333C201.85 115.796 201.313 115.679 201.313 115.679H194.748H188.183C188.183 115.679 187.646 115.796 187.444 116.333C187.243 116.871 184.136 125.181 189.476 129.899Z" fill="#403965"/>
<path fill-rule="evenodd" clip-rule="evenodd" d="M202.868 119.402C202.78 118.904 202.679 118.449 202.578 118.049H186.917C186.816 118.449 186.715 118.904 186.626 119.402H202.868Z" fill="#C4DDFF"/>
<path fill-rule="evenodd" clip-rule="evenodd" d="M36.8169 65.3423C36.8386 65.6934 36.8492 66.0469 36.8492 66.404C36.8492 71.1766 34.9148 75.4975 31.7867 78.6256C28.6594 81.7526 24.3385 83.687 19.5659 83.687C14.9209 83.687 10.7044 81.8549 7.59912 78.874C7.66664 78.7926 7.73379 78.7101 7.80237 78.6295C10.8523 81.5646 14.9984 83.3697 19.5659 83.3697C24.2507 83.3697 28.4924 81.4708 31.5625 78.4007C34.6326 75.3305 36.5319 71.0888 36.5319 66.404C36.5319 66.059 36.5213 65.7161 36.501 65.3764C36.6062 65.3647 36.7117 65.3537 36.8169 65.3423Z" fill="white"/>
<path fill-rule="evenodd" clip-rule="evenodd" d="M77.2709 25.2882C77.3427 25.3575 77.4138 25.4279 77.4845 25.4979C81.422 29.4361 83.8579 34.876 83.8579 40.8851C83.8579 46.8939 81.4224 52.3338 77.4845 56.2717C73.5466 60.2095 68.1064 62.645 62.0979 62.645C58.6227 62.645 55.338 61.8306 52.4238 60.3819C52.5048 60.3044 52.5852 60.2259 52.6651 60.1467C55.5117 61.5431 58.713 62.3277 62.0976 62.3277C68.0186 62.3277 73.3796 59.9274 77.2599 56.0475C81.1402 52.1668 83.5406 46.8061 83.5406 40.8851C83.5406 34.9637 81.1402 29.6031 77.2599 25.7228C77.1874 25.6499 77.1142 25.5785 77.0403 25.5067C77.1167 25.4339 77.1938 25.3607 77.2709 25.2882Z" fill="white"/>
<path fill-rule="evenodd" clip-rule="evenodd" d="M189.643 22.6687C187.16 23.3381 184.55 23.6956 181.856 23.6956C173.622 23.6956 166.167 20.3579 160.771 14.9614C157.815 12.006 155.478 8.43236 153.967 4.45184C154.093 4.48134 154.217 4.51367 154.343 4.54317C155.839 8.39967 158.122 11.8639 160.996 14.7371C166.334 20.0758 173.71 23.3779 181.857 23.3779C184.445 23.3779 186.955 23.0439 189.348 22.4178C189.445 22.5024 189.545 22.5837 189.643 22.6687Z" fill="white"/>
<path fill-rule="evenodd" clip-rule="evenodd" d="M214.064 58.837C213.924 58.8388 213.784 58.8402 213.643 58.8402C205.409 58.8402 197.954 55.5025 192.558 50.1066C187.162 44.7105 183.825 37.2558 183.825 29.0215C183.825 25.6085 184.399 22.3294 185.455 19.2753C185.543 19.3424 185.631 19.4107 185.72 19.4785C184.697 22.4715 184.142 25.6817 184.142 29.0212C184.142 37.1677 187.444 44.5435 192.782 49.8817C198.121 55.2203 205.496 58.5225 213.643 58.5225C213.746 58.5225 213.849 58.5218 213.952 58.5207C213.989 58.6263 214.027 58.7311 214.064 58.837Z" fill="white"/>
<path fill-rule="evenodd" clip-rule="evenodd" d="M66.0181 97.7145H85.0806L87.6721 100.539H66.0181V97.7145Z" fill="#E2EDF8"/>
<path d="M64.6738 101.352H41.1958V109.884H64.6738V101.352Z" fill="#E2EDF8"/>
<path fill-rule="evenodd" clip-rule="evenodd" d="M66.8809 111.87L88.7083 129.899H83.1682L63.4707 113.629H66.8809V111.87Z" fill="#403965"/>
<path fill-rule="evenodd" clip-rule="evenodd" d="M88.7096 100.177H83.1692L47.1836 129.899H52.724L88.7096 100.177Z" fill="#403965"/>
<path fill-rule="evenodd" clip-rule="evenodd" d="M88.7093 100.177H69.3461L51.3535 115.038H70.7163L88.7093 100.177Z" fill="#403965"/>
<path fill-rule="evenodd" clip-rule="evenodd" d="M57.2585 121.413L73.8791 121.357L65.793 114.529L52.1377 114.391L57.2585 121.413Z" fill="#403965"/>
<path fill-rule="evenodd" clip-rule="evenodd" d="M42.2607 121.413H57.9301L49.704 114.754L42.2607 121.413Z" fill="#4C4571"/>
<path fill-rule="evenodd" clip-rule="evenodd" d="M35.6553 101.352H41.1957L53.7349 111.709L50.9931 114.021L35.6553 101.352Z" fill="white"/>
<path fill-rule="evenodd" clip-rule="evenodd" d="M69.2106 97.7145H63.6706L46.8218 111.709L49.5636 114.021L69.2106 97.7145Z" fill="white"/>
<path fill-rule="evenodd" clip-rule="evenodd" d="M29.3877 100.177H34.9278L70.9134 129.899H65.3729L29.3877 100.177Z" fill="#4C4571"/>
<path fill-rule="evenodd" clip-rule="evenodd" d="M70.9134 100.177H65.3733L29.3877 129.899H34.9278L70.9134 100.177Z" fill="#4C4571"/>
<path fill-rule="evenodd" clip-rule="evenodd" d="M17.7787 89.3992C17.7172 89.4607 17.6163 89.4607 17.5545 89.3992C17.493 89.337 17.493 89.2365 17.5545 89.1743L18.6472 88.0816C18.7094 88.0202 18.8099 88.0202 18.8721 88.0816L18.8746 88.0848L22.9031 92.1133C22.9649 92.1755 22.9649 92.2761 22.9031 92.3379C22.8409 92.4001 22.7403 92.4001 22.6788 92.3379L18.7598 88.4188L17.7787 89.3992ZM14.8404 92.3379C14.7789 92.4001 14.678 92.4001 14.6162 92.3379C14.5544 92.2761 14.5544 92.1755 14.6162 92.1133L16.2586 90.4713C16.3208 90.4091 16.4213 90.4091 16.4828 90.4713C16.545 90.5331 16.545 90.6337 16.4828 90.6955L14.8404 92.3379Z" fill="white"/>
<path fill-rule="evenodd" clip-rule="evenodd" d="M25.6166 95.2765C25.5548 95.2143 25.5548 95.1137 25.6166 95.0519C25.6788 94.9897 25.7794 94.9897 25.8412 95.0519L26.9339 96.1446C26.9961 96.2064 26.9961 96.307 26.9339 96.3688L26.9307 96.3716L22.9026 100.4C22.8404 100.462 22.7398 100.462 22.6783 100.4C22.6162 100.339 22.6162 100.238 22.6783 100.176L26.5974 96.2565L25.6166 95.2765ZM22.678 92.3378C22.6158 92.276 22.6158 92.1754 22.678 92.1132C22.7395 92.0518 22.8404 92.0518 22.9022 92.1132L24.5449 93.756C24.6064 93.8175 24.6064 93.918 24.5449 93.9802C24.4828 94.0424 24.3822 94.0424 24.32 93.9802L22.678 92.3378Z" fill="white"/>
<path fill-rule="evenodd" clip-rule="evenodd" d="M19.7391 103.115C19.8006 103.053 19.9015 103.053 19.9633 103.115C20.0248 103.177 20.0248 103.277 19.9633 103.339L18.8706 104.431C18.8084 104.494 18.7079 104.494 18.6457 104.431L18.6432 104.429L14.6147 100.4C14.5529 100.339 14.5529 100.238 14.6147 100.175C14.6769 100.114 14.7775 100.114 14.8389 100.175L18.758 104.095L19.7391 103.115ZM22.6774 100.176C22.7389 100.114 22.8398 100.114 22.9016 100.176C22.9634 100.238 22.9634 100.339 22.9016 100.4L21.2592 102.043C21.197 102.105 21.0965 102.105 21.0346 102.043C20.9732 101.981 20.9732 101.88 21.0346 101.819L22.6774 100.176Z" fill="white"/>
<path fill-rule="evenodd" clip-rule="evenodd" d="M11.9015 97.2376C11.9633 97.2991 11.9633 97.3996 11.9015 97.4618C11.8397 97.524 11.7387 97.524 11.6769 97.4618L10.5842 96.3692C10.5221 96.3073 10.5221 96.2068 10.5842 96.1449L10.5874 96.1417L14.6156 92.1132C14.6777 92.0518 14.7783 92.0518 14.8398 92.1132C14.902 92.1754 14.902 92.276 14.8398 92.3378L10.9207 96.2565L11.9015 97.2376ZM14.8401 100.176C14.9023 100.238 14.9023 100.339 14.8401 100.4C14.7787 100.463 14.6777 100.463 14.6159 100.4L12.9732 98.7581C12.9117 98.6963 12.9117 98.5957 12.9732 98.5342C13.0354 98.472 13.1359 98.472 13.1981 98.5342L14.8401 100.176Z" fill="white"/>
<path fill-rule="evenodd" clip-rule="evenodd" d="M12.8989 101.958V101.954V90.5553C12.8989 90.4679 12.9696 90.3969 13.0574 90.3969H13.0613H24.4599C24.5473 90.3969 24.6184 90.4679 24.6184 90.5553V90.5599V101.958C24.6184 102.046 24.5473 102.117 24.4599 102.117H24.456H13.0574C12.97 102.117 12.8989 102.046 12.8989 101.958ZM13.2162 90.7142V101.8H24.3011V90.7142H13.2162Z" fill="white"/>
<path fill-rule="evenodd" clip-rule="evenodd" d="M17.9509 97.9423C17.7263 98.369 17.3226 98.8594 16.6546 98.8594H15.6813C15.4162 98.8594 15.0836 98.7421 14.8502 98.4109C14.685 98.1764 14.5698 97.8342 14.5698 97.3503C14.5698 97.2632 14.6409 97.1918 14.7287 97.1918C14.8161 97.1918 14.8868 97.2632 14.8868 97.3503C14.8868 97.7614 14.9781 98.0432 15.1092 98.229C15.2723 98.4603 15.5005 98.5424 15.681 98.5424H16.6542C17.5159 98.5424 17.8365 97.4267 17.8784 97.2643V93.3008C17.8784 93.2134 17.9495 93.1423 18.0369 93.1423C18.1243 93.1423 18.1957 93.2134 18.1957 93.3008V97.2835C18.1957 99.0374 19.7155 99.0797 20.1785 99.052C20.2457 98.0027 21.0427 97.4245 21.7345 97.1179H19.1711V97.1175C19.1509 97.1175 19.131 97.114 19.1114 97.1058C19.0304 97.0724 18.992 96.9804 19.0251 96.8993C19.2504 96.3553 19.8047 95.8831 20.3835 95.4965C20.3825 95.4908 20.3807 95.4854 20.3796 95.479C20.3789 95.4751 20.1344 94.1735 20.5299 93.7844C20.638 93.6785 20.7975 93.6323 20.978 93.6323C21.1713 93.6323 21.3977 93.6856 21.6077 93.7723C21.8173 93.8594 22.0149 93.9813 22.1496 94.1188C22.2729 94.2446 22.3496 94.3871 22.3496 94.536C22.3496 94.5626 22.3496 94.591 22.3272 94.6365L22.3269 94.6372L22.3272 94.6376C22.2615 94.7687 21.9762 94.929 21.5906 95.1443C20.902 95.5288 19.8626 96.1101 19.4312 96.8013H22.7902C22.878 96.8013 22.9491 96.872 22.9491 96.9597C22.9491 97.0432 22.8844 97.1118 22.8023 97.1175C22.6204 97.1477 20.4905 97.5365 20.4905 99.1966C20.4905 99.2812 20.424 99.3508 20.3402 99.3547C20.1742 99.3757 18.3382 99.5708 17.9509 97.9423ZM20.7524 94.0101C20.531 94.2265 20.6284 95.0153 20.6738 95.3099C20.9446 95.1429 21.2093 94.9951 21.4375 94.8675C21.7395 94.6984 21.9712 94.569 22.0305 94.5118C22.0216 94.4589 21.9826 94.3995 21.9239 94.3405C21.8191 94.2336 21.6599 94.1362 21.4876 94.0648C21.3149 93.9937 21.1319 93.9497 20.978 93.9497C20.8771 93.9493 20.7954 93.9674 20.7524 94.0101Z" fill="white"/>
<path fill-rule="evenodd" clip-rule="evenodd" d="M18.9183 88.1943C18.9183 88.2817 18.8468 88.3531 18.7594 88.3531C18.672 88.3531 18.6006 88.2817 18.6006 88.1943V83.5081C18.6006 83.4207 18.672 83.3492 18.7594 83.3492C18.8468 83.3492 18.9183 83.4207 18.9183 83.5081V88.1943Z" fill="white"/>
<path fill-rule="evenodd" clip-rule="evenodd" d="M174.35 32.7053C174.35 32.7927 174.279 32.8638 174.192 32.8638C174.104 32.8638 174.033 32.7927 174.033 32.7053V22.5529C174.033 22.4651 174.104 22.394 174.192 22.394C174.279 22.394 174.35 22.4651 174.35 22.5529V32.7053Z" fill="white"/>
<path fill-rule="evenodd" clip-rule="evenodd" d="M177.229 38.2638C177.229 38.1764 177.3 38.1053 177.387 38.1053C177.475 38.1053 177.546 38.1764 177.546 38.2638V43.2709C177.546 43.3583 177.475 43.4298 177.387 43.4298C177.3 43.4298 177.229 43.3583 177.229 43.2709V38.2638Z" fill="white"/>
<path fill-rule="evenodd" clip-rule="evenodd" d="M173.599 38.2638C173.599 38.1764 173.67 38.1053 173.758 38.1053C173.845 38.1053 173.916 38.1764 173.916 38.2638V42.3143C173.916 42.5339 174.006 42.7333 174.15 42.8779C174.295 43.0225 174.495 43.1124 174.714 43.1124C174.934 43.1124 175.133 43.0229 175.278 42.8779C175.422 42.7333 175.512 42.5339 175.512 42.3143V38.2638C175.512 38.1764 175.583 38.1053 175.671 38.1053C175.758 38.1053 175.829 38.1764 175.829 38.2638V42.3143C175.829 42.6196 175.705 42.8971 175.505 43.0989L175.502 43.1018L175.501 43.1021C175.299 43.304 175.02 43.4294 174.714 43.4294C174.409 43.4294 174.131 43.3047 173.929 43.1046L173.926 43.1021L173.926 43.1018C173.724 42.8996 173.598 42.6206 173.598 42.3143V38.2638H173.599Z" fill="white"/>
<path fill-rule="evenodd" clip-rule="evenodd" d="M173.598 38.2638C173.598 38.1764 173.67 38.1053 173.757 38.1053C173.844 38.1053 173.916 38.1764 173.916 38.2638V42.3143C173.916 42.6206 173.79 42.8992 173.588 43.1018L173.588 43.1021L173.585 43.1046C173.383 43.3047 173.105 43.4294 172.8 43.4294C172.493 43.4294 172.214 43.304 172.012 43.1021L172.004 43.0932C171.807 42.8918 171.685 42.6164 171.685 42.3143V39.3782C171.685 39.2908 171.756 39.2193 171.844 39.2193C171.931 39.2193 172.002 39.2908 172.002 39.3782V42.3143C172.002 42.5304 172.089 42.7272 172.23 42.8712L172.237 42.8779C172.382 43.0222 172.581 43.1124 172.8 43.1124C173.02 43.1124 173.22 43.0229 173.364 42.8779C173.509 42.7333 173.598 42.5339 173.598 42.3143V38.2638ZM172.004 43.0936L172.012 42.8783C171.953 42.9372 171.951 43.0311 172.004 43.0936Z" fill="white"/>
<path fill-rule="evenodd" clip-rule="evenodd" d="M171.962 39.8615C172.02 39.9268 172.014 40.0267 171.949 40.085C171.883 40.1432 171.783 40.1372 171.725 40.0718C171.724 40.0715 171.467 39.7545 171.095 39.9105C170.872 40.0047 170.589 40.2914 170.385 40.6052C170.205 40.8791 170.09 41.1627 170.136 41.3308C170.16 41.4164 170.241 41.5056 170.356 41.5735C170.439 41.6222 170.539 41.6577 170.647 41.674C170.757 41.6897 170.876 41.685 170.997 41.6516C171.24 41.5848 171.493 41.4008 171.707 41.0373C171.751 40.9619 171.848 40.9371 171.923 40.9808C171.999 41.0252 172.023 41.1218 171.979 41.1972C171.719 41.6413 171.395 41.8695 171.081 41.9562C170.914 42.002 170.752 42.0088 170.602 41.9871C170.451 41.9651 170.313 41.9139 170.196 41.8457C170.01 41.7366 169.876 41.5792 169.831 41.415C169.759 41.1513 169.896 40.7743 170.119 40.4325C170.354 40.0707 170.692 39.7349 170.972 39.6177C171.564 39.37 171.961 39.86 171.962 39.8615Z" fill="white"/>
<path fill-rule="evenodd" clip-rule="evenodd" d="M173.211 33.9098C173.15 33.9716 173.049 33.9716 172.987 33.9098C172.925 33.848 172.925 33.7474 172.987 33.6856L174.08 32.5929C174.142 32.5307 174.242 32.5307 174.304 32.5929L174.307 32.5957L178.335 36.6242C178.397 36.6861 178.397 36.7866 178.335 36.8484C178.273 36.9099 178.173 36.9099 178.111 36.8484L174.192 32.9294L173.211 33.9098ZM170.272 36.8484C170.211 36.9099 170.11 36.9099 170.048 36.8484C169.986 36.7863 169.986 36.6857 170.048 36.6242L171.69 34.9815C171.752 34.9193 171.853 34.9193 171.915 34.9815C171.977 35.0437 171.977 35.1439 171.915 35.2057L170.272 36.8484Z" fill="white"/>
<path fill-rule="evenodd" clip-rule="evenodd" d="M181.051 39.787C180.988 39.7256 180.988 39.6246 181.051 39.5628C181.112 39.5006 181.213 39.5006 181.275 39.5628L182.367 40.6555C182.429 40.7177 182.429 40.8182 182.367 40.88L182.364 40.8829L178.336 44.911C178.274 44.9732 178.173 44.9732 178.111 44.911C178.049 44.8492 178.049 44.7486 178.111 44.6868L182.03 40.7678L181.051 39.787ZM178.112 36.8484C178.05 36.7862 178.05 36.6856 178.112 36.6242C178.173 36.562 178.274 36.562 178.336 36.6242L179.979 38.2665C180.04 38.3287 180.04 38.4293 179.979 38.4911C179.917 38.5526 179.816 38.5526 179.754 38.4911L178.112 36.8484Z" fill="white"/>
<path fill-rule="evenodd" clip-rule="evenodd" d="M175.172 47.6257C175.234 47.5635 175.335 47.5635 175.396 47.6257C175.458 47.6872 175.458 47.7881 175.396 47.8499L174.304 48.9426C174.242 49.0041 174.142 49.0041 174.08 48.9426L174.076 48.9394L170.048 44.9109C169.986 44.8491 169.986 44.7485 170.048 44.6867C170.11 44.6245 170.211 44.6245 170.272 44.6867L174.191 48.6057L175.172 47.6257ZM178.111 44.6871C178.173 44.6249 178.273 44.6249 178.335 44.6871C178.397 44.7489 178.397 44.8495 178.335 44.9113L176.693 46.554C176.631 46.6159 176.531 46.6159 176.468 46.554C176.406 46.4918 176.406 46.3913 176.468 46.3298L178.111 44.6871Z" fill="white"/>
<path fill-rule="evenodd" clip-rule="evenodd" d="M167.335 41.7478C167.397 41.81 167.397 41.9105 167.335 41.972C167.272 42.0342 167.172 42.0342 167.11 41.972L166.018 40.8797C165.956 40.8179 165.956 40.717 166.018 40.6551L166.021 40.6526L170.049 36.6242C170.111 36.562 170.212 36.562 170.273 36.6242C170.335 36.686 170.335 36.7865 170.273 36.8484L166.354 40.7674L167.335 41.7478ZM170.273 44.6868C170.335 44.7486 170.335 44.8492 170.273 44.911C170.211 44.9732 170.111 44.9732 170.049 44.911L168.406 43.2683C168.344 43.2068 168.344 43.1059 168.406 43.0441C168.468 42.9822 168.569 42.9822 168.631 43.0441L170.273 44.6868Z" fill="white"/>
<path fill-rule="evenodd" clip-rule="evenodd" d="M168.333 46.4689V46.465V35.0664C168.333 34.979 168.404 34.9076 168.492 34.9076H168.495H179.894C179.981 34.9076 180.052 34.979 180.052 35.0664V35.0703V46.4689C180.052 46.5563 179.981 46.6274 179.894 46.6274H179.889H168.492C168.404 46.6274 168.333 46.5563 168.333 46.4689ZM168.65 35.2253V46.3101H179.735V35.2253H168.65Z" fill="white"/>
<path fill-rule="evenodd" clip-rule="evenodd" d="M96.1659 58.6749C96.1659 58.5417 96.2743 58.4329 96.4075 58.4329C96.5408 58.4329 96.6488 58.5413 96.6488 58.6749V59.1681C96.6488 59.3014 96.5408 59.4101 96.4075 59.4101C96.2743 59.4101 96.1659 59.3018 96.1659 59.1681V58.6749ZM95.7292 57.7546C95.8632 57.7546 95.9705 57.863 95.9705 57.9962C95.9705 58.1295 95.8632 58.2382 95.7292 58.2382H95.236C95.1024 58.2382 94.9937 58.1298 94.9937 57.9962C94.9937 57.8626 95.102 57.7546 95.236 57.7546H95.7292ZM97.5798 57.7546C97.7131 57.7546 97.8211 57.863 97.8211 57.9962C97.8211 58.1295 97.7131 58.2382 97.5798 58.2382H97.0859C96.9526 58.2382 96.8446 58.1298 96.8446 57.9962C96.8446 57.8626 96.9526 57.7546 97.0859 57.7546H97.5798ZM96.1659 56.824C96.1659 56.6907 96.2743 56.5823 96.4075 56.5823C96.5408 56.5823 96.6488 56.6907 96.6488 56.824V57.3175C96.6488 57.4508 96.5408 57.5588 96.4075 57.5588C96.2743 57.5588 96.1659 57.4508 96.1659 57.3175V56.824Z" fill="white"/>
<path fill-rule="evenodd" clip-rule="evenodd" d="M121.543 14.4558C121.543 14.3226 121.651 14.2142 121.785 14.2142C121.918 14.2142 122.026 14.3226 122.026 14.4558V14.949C122.026 15.0827 121.918 15.1907 121.785 15.1907C121.651 15.1907 121.543 15.0827 121.543 14.949V14.4558ZM121.106 13.5359C121.239 13.5359 121.347 13.6439 121.347 13.7771C121.347 13.9104 121.239 14.0191 121.106 14.0191H120.613C120.479 14.0191 120.371 13.9107 120.371 13.7771C120.371 13.6439 120.479 13.5359 120.613 13.5359H121.106ZM122.956 13.5359C123.09 13.5359 123.198 13.6439 123.198 13.7771C123.198 13.9104 123.09 14.0191 122.956 14.0191H122.462C122.329 14.0191 122.221 13.9107 122.221 13.7771C122.221 13.6439 122.329 13.5359 122.462 13.5359H122.956ZM121.543 12.6056C121.543 12.4723 121.651 12.364 121.785 12.364C121.918 12.364 122.026 12.4723 122.026 12.6056V13.0988C122.026 13.232 121.918 13.3404 121.785 13.3404C121.651 13.3404 121.543 13.232 121.543 13.0988V12.6056Z" fill="white"/>
<path fill-rule="evenodd" clip-rule="evenodd" d="M187.56 57.453C187.56 57.3197 187.668 57.211 187.802 57.211C187.936 57.211 188.044 57.3194 188.044 57.453V57.9465C188.044 58.0798 187.936 58.1878 187.802 58.1878C187.668 58.1878 187.56 58.0798 187.56 57.9465V57.453ZM187.124 56.533C187.257 56.533 187.365 56.641 187.365 56.775C187.365 56.9079 187.257 57.0163 187.124 57.0163H186.63C186.497 57.0163 186.388 56.9079 186.388 56.775C186.388 56.6414 186.497 56.533 186.63 56.533H187.124ZM188.974 56.533C189.107 56.533 189.216 56.641 189.216 56.775C189.216 56.9079 189.107 57.0163 188.974 57.0163H188.48C188.347 57.0163 188.238 56.9079 188.238 56.775C188.238 56.6414 188.347 56.533 188.48 56.533H188.974ZM187.56 55.6027C187.56 55.4695 187.668 55.3611 187.802 55.3611C187.936 55.3611 188.044 55.4695 188.044 55.6027V56.0959C188.044 56.2292 187.936 56.3379 187.802 56.3379C187.668 56.3379 187.56 56.2295 187.56 56.0959V55.6027Z" fill="white"/>
<path fill-rule="evenodd" clip-rule="evenodd" d="M174.353 99.7605C174.353 99.6269 174.461 99.5185 174.595 99.5185C174.729 99.5185 174.837 99.6269 174.837 99.7605V100.254C174.837 100.387 174.729 100.495 174.595 100.495C174.461 100.495 174.353 100.387 174.353 100.254V99.7605ZM173.917 98.8405C174.05 98.8405 174.158 98.9482 174.158 99.0822C174.158 99.2154 174.05 99.3238 173.917 99.3238H173.423C173.289 99.3238 173.181 99.2154 173.181 99.0822C173.181 98.9482 173.289 98.8405 173.423 98.8405H173.917ZM175.767 98.8405C175.9 98.8405 176.008 98.9482 176.008 99.0822C176.008 99.2154 175.9 99.3238 175.767 99.3238H175.273C175.14 99.3238 175.031 99.2154 175.031 99.0822C175.031 98.9482 175.14 98.8405 175.273 98.8405H175.767ZM174.353 97.9099C174.353 97.7766 174.461 97.6683 174.595 97.6683C174.729 97.6683 174.837 97.7766 174.837 97.9099V98.4031C174.837 98.5367 174.729 98.6451 174.595 98.6451C174.461 98.6451 174.353 98.5367 174.353 98.4031V97.9099Z" fill="white"/>
<path fill-rule="evenodd" clip-rule="evenodd" d="M23.7025 118.34C23.7025 118.207 23.8109 118.098 23.9442 118.098C24.0774 118.098 24.1854 118.207 24.1854 118.34V118.833C24.1854 118.967 24.0774 119.075 23.9442 119.075C23.8109 119.075 23.7025 118.967 23.7025 118.833V118.34ZM23.2662 117.42C23.3994 117.42 23.5071 117.528 23.5071 117.662C23.5071 117.795 23.3994 117.904 23.2662 117.904H22.7726C22.639 117.904 22.5303 117.795 22.5303 117.662C22.5303 117.528 22.6387 117.42 22.7726 117.42H23.2662ZM25.1164 117.42C25.2497 117.42 25.3577 117.528 25.3577 117.662C25.3577 117.795 25.2497 117.904 25.1164 117.904H24.6229C24.4893 117.904 24.3812 117.795 24.3812 117.662C24.3812 117.528 24.4893 117.42 24.6229 117.42H25.1164ZM23.7025 116.49C23.7025 116.356 23.8109 116.248 23.9442 116.248C24.0774 116.248 24.1854 116.356 24.1854 116.49V116.983C24.1854 117.116 24.0774 117.225 23.9442 117.225C23.8109 117.225 23.7025 117.116 23.7025 116.983V116.49Z" fill="white"/>
<path fill-rule="evenodd" clip-rule="evenodd" d="M22.3595 29.4714C22.3595 29.3381 22.4679 29.2298 22.6012 29.2298C22.7351 29.2298 22.8432 29.3381 22.8432 29.4714V29.9646C22.8432 30.0982 22.7351 30.2062 22.6012 30.2062C22.4679 30.2062 22.3595 30.0982 22.3595 29.9646V29.4714ZM21.9232 28.5511C22.0564 28.5511 22.1641 28.6594 22.1641 28.7927C22.1641 28.926 22.0564 29.0347 21.9232 29.0347H21.4296C21.296 29.0347 21.188 28.9263 21.188 28.7927C21.188 28.6594 21.296 28.5511 21.4296 28.5511H21.9232ZM23.7734 28.5511C23.9067 28.5511 24.0147 28.6594 24.0147 28.7927C24.0147 28.926 23.9067 29.0347 23.7734 29.0347H23.2799C23.1466 29.0347 23.0382 28.9263 23.0382 28.7927C23.0382 28.6594 23.1466 28.5511 23.2799 28.5511H23.7734ZM22.3595 27.6208C22.3595 27.4879 22.4679 27.3795 22.6012 27.3795C22.7351 27.3795 22.8432 27.4879 22.8432 27.6208V28.1144C22.8432 28.2476 22.7351 28.356 22.6012 28.356C22.4679 28.356 22.3595 28.2476 22.3595 28.1144V27.6208Z" fill="white"/>
<path fill-rule="evenodd" clip-rule="evenodd" d="M50.7883 35.9633C50.7883 35.8301 50.8966 35.7213 51.0299 35.7213C51.1638 35.7213 51.2719 35.8297 51.2719 35.9633V36.4565C51.2719 36.5902 51.1638 36.6985 51.0299 36.6985C50.8966 36.6985 50.7883 36.5905 50.7883 36.4565V35.9633ZM50.3519 35.0426C50.4851 35.0426 50.5932 35.151 50.5932 35.2846C50.5932 35.4182 50.4851 35.5263 50.3519 35.5263H49.8583C49.7247 35.5263 49.6167 35.4179 49.6167 35.2846C49.6167 35.1514 49.7247 35.0426 49.8583 35.0426H50.3519ZM52.2021 35.0426C52.3354 35.0426 52.4434 35.151 52.4434 35.2846C52.4434 35.4182 52.3354 35.5263 52.2021 35.5263H51.7086C51.5753 35.5263 51.467 35.4179 51.467 35.2846C51.467 35.1514 51.5753 35.0426 51.7086 35.0426H52.2021ZM50.7883 34.1124C50.7883 33.9795 50.8966 33.8711 51.0299 33.8711C51.1638 33.8711 51.2719 33.9795 51.2719 34.1124V34.6059C51.2719 34.7392 51.1638 34.8479 51.0299 34.8479C50.8966 34.8479 50.7883 34.7395 50.7883 34.6059V34.1124Z" fill="white"/>
<path fill-rule="evenodd" clip-rule="evenodd" d="M60.6379 81.8524C60.6379 81.7191 60.7462 81.6108 60.8795 81.6108C61.0131 81.6108 61.1215 81.7191 61.1215 81.8524V82.3459C61.1215 82.4796 61.0135 82.5876 60.8795 82.5876C60.7462 82.5876 60.6379 82.4796 60.6379 82.3459V81.8524ZM60.2015 80.9324C60.3348 80.9324 60.4424 81.0404 60.4424 81.1744C60.4424 81.3073 60.3348 81.416 60.2015 81.416H59.7079C59.5743 81.416 59.4663 81.3073 59.4663 81.1744C59.4663 81.0404 59.5743 80.9324 59.7079 80.9324H60.2015ZM62.0518 80.9324C62.185 80.9324 62.293 81.0404 62.293 81.1744C62.293 81.3073 62.185 81.416 62.0518 81.416H61.5582C61.4249 81.416 61.3166 81.3073 61.3166 81.1744C61.3166 81.0404 61.4249 80.9324 61.5582 80.9324H62.0518ZM60.6379 80.0021C60.6379 79.8689 60.7462 79.7605 60.8795 79.7605C61.0131 79.7605 61.1215 79.8689 61.1215 80.0021V80.4953C61.1215 80.6286 61.0135 80.7373 60.8795 80.7373C60.7462 80.7373 60.6379 80.6286 60.6379 80.4953V80.0021Z" fill="white"/>
<path d="M22.6639 48.3614C22.8184 48.3614 22.9436 48.2362 22.9436 48.0817C22.9436 47.9273 22.8184 47.8021 22.6639 47.8021C22.5095 47.8021 22.3843 47.9273 22.3843 48.0817C22.3843 48.2362 22.5095 48.3614 22.6639 48.3614Z" fill="white"/>
<path d="M46.0564 22.0595C46.211 22.0595 46.3364 21.9342 46.3364 21.7795C46.3364 21.6249 46.211 21.4995 46.0564 21.4995C45.9017 21.4995 45.7764 21.6249 45.7764 21.7795C45.7764 21.9342 45.9017 22.0595 46.0564 22.0595Z" fill="white"/>
<path d="M12.4237 18.9815C12.5781 18.9815 12.7033 18.8563 12.7033 18.7018C12.7033 18.5474 12.5781 18.4222 12.4237 18.4222C12.2692 18.4222 12.144 18.5474 12.144 18.7018C12.144 18.8563 12.2692 18.9815 12.4237 18.9815Z" fill="white"/>
<path d="M76.1648 48.1376C76.3194 48.1376 76.4448 48.0122 76.4448 47.8576C76.4448 47.7029 76.3194 47.5776 76.1648 47.5776C76.0101 47.5776 75.8848 47.7029 75.8848 47.8576C75.8848 48.0122 76.0101 48.1376 76.1648 48.1376Z" fill="white"/>
<path d="M45.2741 74.9995C45.4288 74.9995 45.5542 74.8741 45.5542 74.7195C45.5542 74.5648 45.4288 74.4395 45.2741 74.4395C45.1195 74.4395 44.9941 74.5648 44.9941 74.7195C44.9941 74.8741 45.1195 74.9995 45.2741 74.9995Z" fill="white"/>
<path d="M67.6586 74.5512C67.813 74.5512 67.9382 74.426 67.9382 74.2715C67.9382 74.1171 67.813 73.9919 67.6586 73.9919C67.5041 73.9919 67.3789 74.1171 67.3789 74.2715C67.3789 74.426 67.5041 74.5512 67.6586 74.5512Z" fill="white"/>
<path d="M49.7507 88.8784C49.9054 88.8784 50.0307 88.753 50.0307 88.5984C50.0307 88.4437 49.9054 88.3184 49.7507 88.3184C49.5961 88.3184 49.4707 88.4437 49.4707 88.5984C49.4707 88.753 49.5961 88.8784 49.7507 88.8784Z" fill="white"/>
<path d="M97.2063 95.1457C97.3609 95.1457 97.4863 95.0203 97.4863 94.8657C97.4863 94.7111 97.3609 94.5857 97.2063 94.5857C97.0516 94.5857 96.9263 94.7111 96.9263 94.8657C96.9263 95.0203 97.0516 95.1457 97.2063 95.1457Z" fill="white"/>
<path d="M31.3948 113.055C31.5494 113.055 31.6748 112.929 31.6748 112.775C31.6748 112.62 31.5494 112.495 31.3948 112.495C31.2401 112.495 31.1147 112.62 31.1147 112.775C31.1147 112.929 31.2401 113.055 31.3948 113.055Z" fill="white"/>
<path d="M8.11448 107.682C8.26912 107.682 8.39449 107.556 8.39449 107.402C8.39449 107.247 8.26912 107.122 8.11448 107.122C7.95984 107.122 7.83447 107.247 7.83447 107.402C7.83447 107.556 7.95984 107.682 8.11448 107.682Z" fill="white"/>
<path d="M19.307 76.3426C19.4614 76.3426 19.5866 76.2174 19.5866 76.0629C19.5866 75.9085 19.4614 75.7833 19.307 75.7833C19.1525 75.7833 19.0273 75.9085 19.0273 76.0629C19.0273 76.2174 19.1525 76.3426 19.307 76.3426Z" fill="white"/>
<path d="M113.324 44.5556C113.478 44.5556 113.603 44.4304 113.603 44.2759C113.603 44.1215 113.478 43.9963 113.324 43.9963C113.169 43.9963 113.044 44.1215 113.044 44.2759C113.044 44.4304 113.169 44.5556 113.324 44.5556Z" fill="white"/>
<path d="M106.608 69.6272C106.763 69.6272 106.888 69.5018 106.888 69.3471C106.888 69.1925 106.763 69.0671 106.608 69.0671C106.453 69.0671 106.328 69.1925 106.328 69.3471C106.328 69.5018 106.453 69.6272 106.608 69.6272Z" fill="white"/>
<path d="M95.4159 39.6313C95.5703 39.6313 95.6955 39.5061 95.6955 39.3516C95.6955 39.1972 95.5703 39.072 95.4159 39.072C95.2614 39.072 95.1362 39.1972 95.1362 39.3516C95.1362 39.5061 95.2614 39.6313 95.4159 39.6313Z" fill="white"/>
<path d="M89.5959 23.962C89.7506 23.962 89.8759 23.8366 89.8759 23.682C89.8759 23.5273 89.7506 23.402 89.5959 23.402C89.4413 23.402 89.3159 23.5273 89.3159 23.682C89.3159 23.8366 89.4413 23.962 89.5959 23.962Z" fill="white"/>
<path d="M111.534 13.6643C111.688 13.6643 111.813 13.5391 111.813 13.3846C111.813 13.2302 111.688 13.105 111.534 13.105C111.379 13.105 111.254 13.2302 111.254 13.3846C111.254 13.5391 111.379 13.6643 111.534 13.6643Z" fill="white"/>
<path d="M128.994 6.5012C129.148 6.5012 129.273 6.376 129.273 6.22155C129.273 6.0671 129.148 5.94189 128.994 5.94189C128.839 5.94189 128.714 6.0671 128.714 6.22155C128.714 6.376 128.839 6.5012 128.994 6.5012Z" fill="white"/>
<path d="M171.806 14.0733C171.96 14.0733 172.086 13.9481 172.086 13.7937C172.086 13.6392 171.96 13.514 171.806 13.514C171.652 13.514 171.526 13.6392 171.526 13.7937C171.526 13.9481 171.652 14.0733 171.806 14.0733Z" fill="white"/>
<path d="M161.675 26.8723C161.83 26.8723 161.955 26.747 161.955 26.5923C161.955 26.4377 161.83 26.3123 161.675 26.3123C161.52 26.3123 161.395 26.4377 161.395 26.5923C161.395 26.747 161.52 26.8723 161.675 26.8723Z" fill="white"/>
<path d="M177.569 27.3197C177.723 27.3197 177.849 27.1944 177.849 27.0397C177.849 26.8851 177.723 26.7597 177.569 26.7597C177.414 26.7597 177.289 26.8851 177.289 27.0397C177.289 27.1944 177.414 27.3197 177.569 27.3197Z" fill="white"/>
<path d="M167.048 51.7197C167.203 51.7197 167.328 51.5944 167.328 51.4397C167.328 51.2851 167.203 51.1597 167.048 51.1597C166.893 51.1597 166.768 51.2851 166.768 51.4397C166.768 51.5944 166.893 51.7197 167.048 51.7197Z" fill="white"/>
<path d="M183.837 51.2714C183.991 51.2714 184.117 51.146 184.117 50.9914C184.117 50.8367 183.991 50.7114 183.837 50.7114C183.682 50.7114 183.557 50.8367 183.557 50.9914C183.557 51.146 183.682 51.2714 183.837 51.2714Z" fill="white"/>
<path d="M199.282 70.5222C199.437 70.5222 199.562 70.397 199.562 70.2425C199.562 70.0881 199.437 69.9629 199.282 69.9629C199.128 69.9629 199.002 70.0881 199.002 70.2425C199.002 70.397 199.128 70.5222 199.282 70.5222Z" fill="white"/>
<path d="M193.238 36.7209C193.393 36.7209 193.518 36.5955 193.518 36.4409C193.518 36.2863 193.393 36.1609 193.238 36.1609C193.083 36.1609 192.958 36.2863 192.958 36.4409C192.958 36.5955 193.083 36.7209 193.238 36.7209Z" fill="white"/>
<path d="M209.58 66.2695C209.734 66.2695 209.86 66.1442 209.86 65.9898C209.86 65.8353 209.734 65.7101 209.58 65.7101C209.426 65.7101 209.3 65.8353 209.3 65.9898C209.3 66.1442 209.426 66.2695 209.58 66.2695Z" fill="white"/>
<path d="M175.106 82.3871C175.261 82.3871 175.386 82.2617 175.386 82.1071C175.386 81.9524 175.261 81.8271 175.106 81.8271C174.952 81.8271 174.826 81.9524 174.826 82.1071C174.826 82.2617 174.952 82.3871 175.106 82.3871Z" fill="white"/>
<path d="M211.818 96.9372C211.973 96.9372 212.098 96.8118 212.098 96.6572C212.098 96.5026 211.973 96.3772 211.818 96.3772C211.663 96.3772 211.538 96.5026 211.538 96.6572C211.538 96.8118 211.663 96.9372 211.818 96.9372Z" fill="white"/>
<path d="M178.016 114.173C178.17 114.173 178.296 114.048 178.296 113.893C178.296 113.739 178.17 113.613 178.016 113.613C177.861 113.613 177.736 113.739 177.736 113.893C177.736 114.048 177.861 114.173 178.016 114.173Z" fill="white"/>
<path d="M208.907 111.04C209.062 111.04 209.187 110.914 209.187 110.76C209.187 110.605 209.062 110.48 208.907 110.48C208.753 110.48 208.627 110.605 208.627 110.76C208.627 110.914 208.753 111.04 208.907 111.04Z" fill="white"/>
<path d="M85.1194 118.203C85.274 118.203 85.3994 118.078 85.3994 117.923C85.3994 117.768 85.274 117.643 85.1194 117.643C84.9647 117.643 84.8394 117.768 84.8394 117.923C84.8394 118.078 84.9647 118.203 85.1194 118.203Z" fill="white"/>
<path d="M47.2873 125.142C47.442 125.142 47.5673 125.017 47.5673 124.862C47.5673 124.708 47.442 124.582 47.2873 124.582C47.1327 124.582 47.0073 124.708 47.0073 124.862C47.0073 125.017 47.1327 125.142 47.2873 125.142Z" fill="white"/>
<path d="M31.3948 89.5496C31.5494 89.5496 31.6748 89.4242 31.6748 89.2696C31.6748 89.1149 31.5494 88.9896 31.3948 88.9896C31.2401 88.9896 31.1147 89.1149 31.1147 89.2696C31.1147 89.4242 31.2401 89.5496 31.3948 89.5496Z" fill="white"/>
<path d="M64.7489 53.9575C64.9033 53.9575 65.0285 53.8323 65.0285 53.6778C65.0285 53.5234 64.9033 53.3982 64.7489 53.3982C64.5944 53.3982 64.4692 53.5234 64.4692 53.6778C64.4692 53.8323 64.5944 53.9575 64.7489 53.9575Z" fill="white"/>
<path d="M73.0311 35.8259C73.1856 35.8259 73.3108 35.7007 73.3108 35.5463C73.3108 35.3918 73.1856 35.2666 73.0311 35.2666C72.8767 35.2666 72.7515 35.3918 72.7515 35.5463C72.7515 35.7007 72.8767 35.8259 73.0311 35.8259Z" fill="white"/>
<path fill-rule="evenodd" clip-rule="evenodd" d="M123.844 33.8112C123.999 33.8112 124.125 33.6854 124.125 33.5312C124.125 33.377 123.999 33.2515 123.844 33.2515C123.69 33.2515 123.565 33.377 123.565 33.5312C123.565 33.6854 123.69 33.8112 123.844 33.8112Z" fill="white"/>
<path d="M130.113 48.8086C130.268 48.8086 130.393 48.6834 130.393 48.529C130.393 48.3745 130.268 48.2493 130.113 48.2493C129.959 48.2493 129.833 48.3745 129.833 48.529C129.833 48.6834 129.959 48.8086 130.113 48.8086Z" fill="white"/>
<path d="M204.207 49.7044C204.361 49.7044 204.487 49.5792 204.487 49.4248C204.487 49.2703 204.361 49.1451 204.207 49.1451C204.052 49.1451 203.927 49.2703 203.927 49.4248C203.927 49.5792 204.052 49.7044 204.207 49.7044Z" fill="white"/>
</svg>
