<svg width="220" height="132" viewBox="0 0 220 132" fill="none" xmlns="http://www.w3.org/2000/svg">
<path fill-rule="evenodd" clip-rule="evenodd" d="M10.7966 120.511C10.906 120.709 10.8349 120.959 10.6367 121.069C10.4387 121.18 10.1889 121.107 10.0788 120.909C6.41558 114.3 3.65991 107.164 1.96317 99.6687C0.322207 92.418 -0.326643 84.83 0.155553 77.0577C1.55843 54.4211 12.2709 34.4944 28.4569 20.5782C44.6388 6.66595 66.2928 -1.24036 89.5818 0.159324C106.269 1.16174 121.533 6.80773 134.122 15.7221C147.117 24.9244 157.262 37.6086 163.183 52.2639L163.211 52.3236L163.22 52.3442C163.232 52.3687 163.244 52.395 163.259 52.4298C165.149 56.7745 167.23 60.2046 169.825 62.644C172.397 65.0628 175.487 66.5133 179.412 66.9234C179.637 66.9458 179.802 67.1476 179.778 67.3736C179.755 67.5989 179.553 67.7624 179.328 67.74C175.21 67.3097 171.967 65.7849 169.262 63.2421C166.579 60.7199 164.439 57.2002 162.507 52.7574L162.482 52.7038L162.468 52.6775L162.439 52.6171L162.441 52.6164L162.43 52.5929C156.57 38.0734 146.521 25.5068 133.649 16.392C121.183 7.56425 106.065 1.97333 89.5345 0.979447C66.4659 -0.406022 45.0179 7.42354 28.9917 21.2029C12.968 34.978 2.36399 54.7011 0.975322 77.1064C0.497745 84.802 1.14056 92.3135 2.76446 99.4889C4.44308 106.907 7.17067 113.97 10.7966 120.511Z" fill="#4AABA3"/>
<path fill-rule="evenodd" clip-rule="evenodd" d="M85.1066 2.26471C118.753 2.26471 147.753 22.1325 161.032 50.7739C161.058 50.8258 161.086 50.8738 161.113 50.9271C165.448 59.673 170.353 64.6123 178.39 64.9751C201.073 65.9999 220 76.4167 220 102.265C220 113.215 215.288 123.065 207.783 129.898C143.186 129.898 79.0829 129.898 13.9381 129.898C6.02431 117.12 1.45215 102.055 1.45215 85.9195C1.45215 39.7179 38.905 2.26471 85.1066 2.26471Z" fill="#4AABA3"/>
<path fill-rule="evenodd" clip-rule="evenodd" d="M180.571 58.5811C180.571 58.5811 184.604 59.0341 190.523 59.9502C214.334 63.6358 211.515 42.1814 201.177 33.4817C192.331 26.0373 152.658 50.4815 180.571 58.5811Z" fill="#4AABA3"/>
<path fill-rule="evenodd" clip-rule="evenodd" d="M95.0742 82.8895L97.0329 82.0438C97.0329 82.0438 97.2987 81.9546 97.967 81.0204C98.634 80.0859 99.2019 77.6493 99.5018 77.1596C99.8024 76.6703 101.449 75.1459 102.149 74.4893C102.85 73.8333 103.017 75.9021 101.994 77.2257C101.994 77.2257 103.974 75.6576 104.887 75.1125C105.799 74.5674 106.222 74.4449 106.901 74.3336C107.579 74.2224 109.871 73.8553 110.738 73.7331C111.606 73.6105 111.529 74.657 111.106 75.1577C110.683 75.6576 109.492 76.0584 107.501 76.5591L106.922 76.9258C106.922 76.9258 108.09 76.9258 108.213 78.4723C108.213 78.4723 109.381 78.7953 109.181 80.4192C109.181 80.4192 109.904 81.0311 109.704 81.9436C109.504 82.8554 108.313 85.0027 108.057 85.5258C107.801 86.0485 106.889 86.2272 106.489 85.492C106.489 85.492 105.054 86.7492 103.697 87.2499C102.339 87.7509 100.815 87.2055 100.059 87.4389C99.3021 87.6724 98.9684 87.995 97.8562 88.7295L95.0742 82.8895Z" fill="#FFC5B0"/>
<path fill-rule="evenodd" clip-rule="evenodd" d="M104.379 86.9443C104.154 87.0609 103.925 87.1661 103.697 87.2499C102.34 87.7509 100.816 87.2055 100.059 87.4389C99.3026 87.6724 98.969 87.9951 97.8568 88.7295L95.6807 84.1606C96.364 83.2975 96.9777 82.5516 96.9777 82.5516L97.6702 82.0858C97.6702 82.0858 98.7821 83.0974 99.9785 84.9441C101.174 86.7905 103.239 87.4112 104.379 86.9443Z" fill="#FFA89E"/>
<path fill-rule="evenodd" clip-rule="evenodd" d="M78.7637 70.2398L82.3544 83.5661C82.3544 83.5661 83.6909 83.5643 84.2747 84.6747C84.2747 84.6747 88.375 84.1567 89.2857 83.6151C90.1961 83.0746 91.0535 81.8782 92.2396 82.7253L96.3289 81.2816C96.3289 81.2816 96.8363 81.169 97.3146 81.622C97.7936 82.0751 100.491 86.5324 99.7483 88.463C99.7483 88.463 98.4822 89.276 97.8298 89.7177C97.1771 90.1594 95.986 90.794 95.986 90.794C95.986 90.794 95.6082 92.682 93.3401 93.3759C91.072 94.0706 90.1964 94.281 87.337 96.1387C84.4779 97.9964 81.1768 100.168 77.7293 97.2395C74.2815 94.3112 69.5071 84.9704 63.7666 77.5178C63.7666 77.5175 68.3082 63.8881 78.7637 70.2398Z" fill="white"/>
<path fill-rule="evenodd" clip-rule="evenodd" d="M78.8017 70.3794L79.5362 73.1045C79.5362 73.1045 74.1442 78.6062 73.1368 81.0826C72.1298 83.5593 72.8853 86.245 75.8651 91.2396C78.8454 96.2346 82.3711 96.0666 85.099 95.0592C87.8273 94.0521 89.8524 93.9182 92.995 93.4815C90.9749 94.0969 90.0468 94.378 87.3373 96.1387C84.4782 97.9964 81.1771 100.168 77.7296 97.2395C74.6463 94.6214 70.5027 86.8757 65.5557 79.9377C65.8396 77.7868 67.8863 73.473 69.6112 72.8568C71.3744 72.2265 78.8017 70.3794 78.8017 70.3794Z" fill="#D8EDEE"/>
<path d="M95.9868 90.9529C95.9022 90.9529 95.8315 90.8857 95.8286 90.7997C95.6168 85.0685 92.1921 82.8817 92.1576 82.8604C92.0826 82.8138 92.0603 82.7168 92.1057 82.6418C92.1516 82.5676 92.2489 82.5456 92.3239 82.59C92.3598 82.6124 95.9274 84.8777 96.1456 90.788C96.1484 90.8754 96.0802 90.949 95.9928 90.9525C95.9914 90.9529 95.9889 90.9529 95.9868 90.9529ZM85.1411 90.0866C85.0672 90.0866 85.0014 90.0347 84.9858 89.9604C84.7118 88.6371 84.1159 87.5793 83.5392 86.5563C83.0296 85.6519 82.5027 84.717 82.2028 83.6077C82.18 83.5231 82.2298 83.436 82.314 83.4133C82.4 83.3891 82.4856 83.4399 82.5084 83.5245C82.7987 84.5955 83.2922 85.4721 83.8153 86.4006C84.4037 87.4446 85.0121 88.5245 85.2967 89.8954C85.3148 89.9817 85.2598 90.0656 85.1734 90.083C85.1627 90.0852 85.1521 90.0866 85.1411 90.0866ZM85.6766 86.2987C85.6435 86.2987 85.6108 86.2887 85.5824 86.2677C84.6557 85.5855 84.1614 84.7906 84.1411 84.7575C84.0946 84.6829 84.1184 84.5852 84.193 84.5394C84.268 84.4939 84.3661 84.5173 84.4116 84.5912C84.4158 84.5987 84.8959 85.3687 85.77 86.0119C85.8411 86.0638 85.8557 86.1633 85.8045 86.2336C85.7729 86.2763 85.7249 86.2987 85.6766 86.2987Z" fill="#D8EDEE"/>
<path fill-rule="evenodd" clip-rule="evenodd" d="M38.8045 109.891L35.939 111.414C35.939 111.414 36.9201 112.403 36.7751 115.062C36.6301 117.72 30.3964 129.898 40.3029 129.898C50.2102 129.898 82.2028 129.898 96.7973 129.898C114.505 129.898 112.339 113.542 105.466 108.43C103.934 107.29 101.99 106.364 99.6006 105.735C90.4183 103.318 75.6155 99.8161 75.6155 99.8161L65.2883 100.709L38.8045 109.891Z" fill="#4F5E66"/>
<path fill-rule="evenodd" clip-rule="evenodd" d="M70.7451 129.898H96.7972C107.003 129.898 110.606 124.465 110.513 118.883C108.942 126.068 100.482 126.48 94.3937 126.48C88.3053 126.48 84.1294 126.48 80.3016 126.48C76.4743 126.48 75.3962 124.31 75.3962 124.31L71.777 128.626L70.7451 129.898Z" fill="#43525A"/>
<path fill-rule="evenodd" clip-rule="evenodd" d="M38.8045 109.891L35.939 111.414C35.939 111.414 36.9201 112.403 36.7751 115.062C36.6301 117.72 30.3964 129.898 40.3029 129.898H45.4223C45.2294 124.408 45.4117 119.868 52.8713 119.868C60.331 119.868 73.2845 110.3 76.1262 104.094C76.9182 102.364 77.8098 101.252 78.6839 100.547C76.7906 100.094 75.6155 99.8157 75.6155 99.8157L65.2883 100.709L38.8045 109.891Z" fill="#43525A"/>
<path fill-rule="evenodd" clip-rule="evenodd" d="M65.8194 32.2252C65.8194 41.0681 65.1922 42.3559 63.5484 48.7239C63.1618 50.2221 61.8573 50.2221 60.6247 50.2221C59.392 50.2221 60.0689 50.2221 58.9574 50.2221C57.8463 50.2221 55.0735 49.0604 53.6657 46.6217C52.2578 44.1831 54.4393 36.4249 54.4393 36.4249L65.8194 32.2252Z" fill="#FFC5B0"/>
<path fill-rule="evenodd" clip-rule="evenodd" d="M55.3447 48.58C54.7108 48.0563 54.1177 47.4049 53.6657 46.6218C52.3254 44.3 54.2382 37.1552 54.4247 36.4768C54.5768 36.4043 54.7342 36.3308 54.8941 36.2565L58.8373 34.8014L63.0055 36.5767L63.0637 39.2438L62.5059 40.2018C62.5059 40.2018 62.2521 38.6643 60.7441 39.5342C59.2367 40.4037 61.6104 43.4433 61.6104 43.4433C61.6104 43.4433 59.5846 43.1011 59.5846 44.7825C59.5846 46.4644 60.7142 48.1185 60.7142 48.1185C60.7142 48.1185 57.0375 48.6959 55.3447 48.58Z" fill="#FFA89E"/>
<path fill-rule="evenodd" clip-rule="evenodd" d="M48.0586 32.4615L45.7894 34.0562C45.7894 34.0562 45.5207 35.3127 45.0385 35.9893C45.0385 35.9893 44.9174 36.1886 45.1103 36.2789C45.3036 36.3698 45.8778 36.2973 46.1497 36.0195C46.1497 36.0195 44.6331 44.6215 48.0888 44.6215C51.5441 44.6215 51.4716 44.6215 54.0571 44.6215C56.6425 44.6215 58.938 43.8245 58.841 41.5049C58.7447 39.1852 59.2038 36.7927 60.8472 36.7927C62.49 36.7927 62.5095 39.1227 62.5095 40.7896C62.5095 40.7896 62.5035 41.0376 62.7455 41.0376C64.2301 41.0376 63.9433 38.2393 63.9433 37.0983C63.9433 36.1318 64.6387 33.9901 65.4496 33.3946L59.8939 31.0479L48.0586 32.4615Z" fill="white"/>
<path fill-rule="evenodd" clip-rule="evenodd" d="M48.0586 32.4614L45.7894 34.0562C45.7894 34.0562 45.5207 35.3127 45.0385 35.9893C45.0385 35.9893 44.9174 36.1886 45.1103 36.2789C45.3036 36.3698 45.8778 36.2973 46.1497 36.0195C46.1497 36.0195 45.487 39.78 46.037 42.3282C45.2176 38.0232 49.3875 38.2254 52.5444 39.7022C55.7044 41.1811 57.1254 38.8903 57.4157 37.0059C57.7053 35.1212 59.2152 34.0488 59.2152 34.0488L57.27 33.2652C57.27 33.2652 55.3384 32.5439 53.3279 31.8318L48.0586 32.4614Z" fill="#D8EDEE"/>
<path fill-rule="evenodd" clip-rule="evenodd" d="M62.5758 41.9817C62.5758 41.9817 62.4429 42.1267 62.4308 42.5133C62.4184 42.8996 62.3825 43.4553 61.3673 43.4553C60.3528 43.4553 59.9904 41.9693 59.9904 41.0873C59.9904 41.0873 59.1806 40.2057 59.6158 38.7922C59.6158 38.7922 59.338 37.3179 59.7605 36.291C60.1833 35.264 61.3314 34.8899 61.9838 35.4094C62.6362 35.9285 62.3463 37.6686 61.2589 38.9979C61.6491 40.2598 60.5849 41.5329 62.5758 41.9817Z" fill="#FFC5B0"/>
<path fill-rule="evenodd" clip-rule="evenodd" d="M65.8159 33.321C65.8159 33.321 63.0404 34.0562 58.4014 34.0562C53.7625 34.0562 45.7886 34.0562 45.7886 34.0562C45.7886 34.0562 45.4258 33.972 45.4742 33.4163C45.5225 32.8609 47.1293 24.8501 47.1293 24.8501C47.1293 24.8501 47.2015 23.9564 48.41 23.5456C49.6178 23.1345 51.9136 22.4825 51.9136 22.4825C51.9136 22.4825 54.277 22.1545 54.8271 22.1545C57.3944 22.1545 62.9423 22.4181 63.417 23.9369C63.712 24.8792 65.9737 32.206 65.9737 32.206C65.9737 32.206 66.3486 33.1544 65.8159 33.321Z" fill="#4F5E66"/>
<path fill-rule="evenodd" clip-rule="evenodd" d="M59.2144 34.0491C58.9504 34.0537 58.6789 34.0566 58.4014 34.0566C53.7621 34.0566 45.7886 34.0566 45.7886 34.0566C45.7886 34.0566 45.4258 33.9724 45.4742 33.4166C45.5225 32.8612 47.1293 24.8504 47.1293 24.8504C47.1293 24.8504 47.2015 23.9568 48.41 23.546C48.7273 23.4376 49.1207 23.3129 49.5275 23.1878C49.5275 23.1878 48.5542 23.8001 50.3381 23.8001C52.1211 23.8001 52.6716 23.8001 54.2816 23.8001C55.8906 23.8001 56.543 24.3945 56.8045 26.265C57.0163 27.787 57.1524 32.2308 59.2144 34.0491Z" fill="#43525A"/>
<path fill-rule="evenodd" clip-rule="evenodd" d="M45.5898 32.7223C45.619 32.5606 45.6531 32.3769 45.6911 32.1743H55.9061C58.0633 32.1743 59.786 32.1669 61.3815 32.0521C62.8455 31.9466 64.2118 31.7508 65.722 31.3869L65.8829 31.9093C64.3226 32.287 62.9205 32.4895 61.4199 32.5976C59.796 32.7148 58.0676 32.7223 55.9057 32.7223H45.5898ZM45.7942 31.6303H55.9061C58.0669 31.6303 59.7935 31.6229 61.4103 31.5067C62.8128 31.4057 64.1286 31.2217 65.5681 30.8887L65.4871 30.6272C64.0728 30.9534 62.7748 31.1336 61.3907 31.2334C59.7885 31.3492 58.0648 31.3563 55.9057 31.3563H45.846L45.7942 31.6303Z" fill="white"/>
<path fill-rule="evenodd" clip-rule="evenodd" d="M45.5898 32.7223C45.619 32.5606 45.6531 32.3769 45.6911 32.1744H55.9061C56.6327 32.1744 57.31 32.1737 57.9503 32.1676C58.0296 32.3552 58.1141 32.5375 58.2065 32.7134C57.4902 32.7212 56.7297 32.7219 55.9061 32.7219H45.5898V32.7223ZM57.6529 31.3521C57.6821 31.4438 57.7119 31.5351 57.7435 31.6254C57.164 31.6293 56.5546 31.6303 55.9064 31.6303H45.7945L45.8468 31.3564H55.9064C56.5208 31.3564 57.1011 31.3557 57.6529 31.3521Z" fill="#6DD6CD"/>
<path fill-rule="evenodd" clip-rule="evenodd" d="M34.6348 92.2282C34.6348 92.2282 35.7459 94.4516 35.0697 98.3656C34.3931 102.28 34.8764 105.663 36.2299 107.016C36.2299 107.016 33.7624 110.831 35.9396 111.414C38.1171 111.998 45.7018 113.733 49.3259 114.362C52.9504 114.991 57.0105 113.83 62.0844 111.559C67.1587 109.287 72.1849 106.243 71.46 102.908C71.46 102.908 73.7314 100.009 75.6161 99.8158C75.6161 99.8158 75.6641 98.1723 74.0217 97.6894C74.0217 97.6894 75.2775 95.4174 73.1031 92.5668C70.9285 89.716 69.5274 84.5447 70.1073 79.905C70.6865 75.2657 41.4974 79.905 34.6348 92.2282Z" fill="white"/>
<path fill-rule="evenodd" clip-rule="evenodd" d="M70.967 88.2946C70.1309 85.7262 69.755 82.7186 70.1064 79.9053C70.369 77.8017 64.5108 77.6063 57.3888 79.1691C48.5003 89.0685 39.754 100.06 40.8548 101.223C42.8842 103.368 44.2757 106.616 45.2038 106.209C46.1313 105.804 46.7691 103.368 49.437 100.99C52.1049 98.6122 65.8778 88.7249 67.8781 87.6517C69.879 86.5793 70.967 88.2949 70.967 88.2946Z" fill="#D8EDEE"/>
<path fill-rule="evenodd" clip-rule="evenodd" d="M33.4409 129.898C33.4409 129.898 32.3777 129.754 32.1119 128.013C31.8461 126.273 32.0398 122.697 32.5952 120.426C33.151 118.155 34.045 114.555 34.3833 113.515C34.7219 112.476 35.3619 111.381 36.1713 111.476L39.2308 112.219C39.2308 112.219 40.9556 113.49 41.0523 117.357C41.1493 121.223 41.6809 123.06 42.3571 125.863C43.0337 128.666 42.188 129.898 40.0616 129.898C37.9352 129.898 33.4409 129.898 33.4409 129.898Z" fill="#FFC5B0"/>
<path fill-rule="evenodd" clip-rule="evenodd" d="M44.7974 129.898C44.7974 129.898 43.7584 129.427 43.601 128.581C43.4443 127.735 43.203 123.47 48.2048 124.195C48.2048 124.195 49.0988 122.624 52.8199 122.914C56.5411 123.204 58.3533 123.711 60.0209 122.576C60.9025 121.975 62.5207 120.59 64.3692 119.576C67.2688 117.985 71.945 117.193 73.3351 121.537H74.157C74.157 121.537 77.1291 125.235 74.4715 129.898H44.7974Z" fill="#FFC5B0"/>
<path d="M71.9183 119.462C71.8941 119.462 71.8693 119.456 71.8465 119.444C71.7687 119.405 71.7371 119.309 71.7772 119.231C71.8216 119.144 72.9079 117.091 76.5011 117.091H90.4919L96.4854 113.518C96.5611 113.473 96.6585 113.497 96.7025 113.572C96.748 113.648 96.7231 113.745 96.6478 113.79L91.1113 117.091H97.5525C97.6399 117.091 97.7113 117.162 97.7113 117.25C97.7113 117.337 97.6399 117.408 97.5525 117.408H90.5381C90.5363 117.408 90.5342 117.408 90.5328 117.408H76.5011C73.1009 117.408 72.07 119.355 72.0601 119.375C72.0316 119.43 71.9759 119.462 71.9183 119.462Z" fill="#43525A"/>
<path fill-rule="evenodd" clip-rule="evenodd" d="M46.4414 43.7787C50.5509 39.2353 64.9859 49.4951 67.3368 56.3826C71.0537 57.9234 73.847 63.7765 76.4666 65.6428C79.0858 67.5087 79.4397 72.7488 79.4397 72.7488H79.4408C77.9046 73.8468 76.0913 75.4064 74.0073 77.6223C66.3717 85.7418 62.312 90.0905 52.5497 95.3101C42.7878 100.529 41.5313 104.395 41.5313 104.395C41.5313 104.395 41.4343 104.674 41.1447 104.589C40.8548 104.505 39.5983 101.109 35.7802 96.8086C31.9624 92.5075 33.8478 87.9641 30.6579 84.678C30.6579 84.678 29.933 84.1464 30.0176 83.1436C30.1015 82.1412 32.3621 69.4193 32.8937 63.4265C33.4253 57.4337 38.862 55.1382 38.862 55.1382C38.862 55.1382 41.8589 47.599 46.7882 46.6811C46.7882 46.6811 46.9574 45.9385 46.3654 45.123C45.8711 44.4418 45.9976 44.2698 46.4414 43.7787Z" fill="#4F5E66"/>
<path fill-rule="evenodd" clip-rule="evenodd" d="M59.0019 91.4483C57.1147 92.7293 55.0143 93.9918 52.5496 95.3097C42.7877 100.529 41.5312 104.395 41.5312 104.395C41.5312 104.395 41.7437 98.3674 40.9236 95.3854C40.1031 92.4031 37.5518 83.4727 41.2637 75.2952C41.2637 75.2952 41.5821 74.9768 41.7704 75.4843C41.9473 75.9604 41.5973 91.784 59.0019 91.4483ZM33.6498 93.085C32.6275 90.0059 32.9331 87.0222 30.6582 84.678C30.6582 84.678 32.8837 85.9085 33.8691 80.6889C34.8548 75.4697 35.435 68.714 35.6667 67.6696C35.8988 66.6256 36.2765 66.481 36.1891 69.0036C36.102 71.5265 36.4161 82.5168 33.6498 93.085Z" fill="#43525A"/>
<path fill-rule="evenodd" clip-rule="evenodd" d="M79.4408 72.7485C77.9046 73.8465 76.0913 75.4061 74.0073 77.622C66.3717 85.7415 62.312 90.0901 52.5497 95.3097C42.7878 100.529 41.5313 104.395 41.5313 104.395C41.5313 104.395 41.4343 104.673 41.1447 104.589C40.8548 104.504 39.5983 101.109 35.7802 96.8082C31.9624 92.5071 33.8478 87.9638 30.6579 84.6776C30.6579 84.6776 29.933 84.146 30.0176 83.1432C30.0457 82.8124 30.3101 81.2056 30.6714 78.985C30.8843 80.1278 31.413 80.5393 33.0074 82.3665C34.6022 84.1933 34.6022 86.8608 35.5012 90.0215C36.4002 93.1823 40.9237 95.3858 40.9237 95.3858C41.9378 93.3852 44.2003 91.036 49.303 88.5426C54.406 86.0485 70.4123 72.1892 74.1821 68.7093C75.392 67.5921 76.4275 66.8676 77.2746 66.3982C79.1618 68.6336 79.4397 72.7488 79.4397 72.7488H79.4408V72.7485Z" fill="#FFA89E"/>
<path fill-rule="evenodd" clip-rule="evenodd" d="M59.0019 91.4482C57.1147 92.7292 55.0143 93.9918 52.5496 95.3097C42.7877 100.529 41.5312 104.395 41.5312 104.395C41.5312 104.395 41.7437 98.3674 40.9236 95.3854C41.8891 93.4819 43.9831 91.2635 48.5791 88.9051C51.0362 90.4945 54.3974 91.5371 59.0019 91.4482ZM33.6498 93.0849C32.6275 90.0059 32.9331 87.0221 30.6582 84.678C30.6582 84.678 32.2213 85.5422 33.3083 82.7463C34.1924 83.9776 34.5005 85.5386 34.8718 87.3412C34.5524 89.2341 34.1523 91.1658 33.6498 93.0849Z" fill="#EE8B83"/>
<path d="M39.6865 130.057C39.5987 130.057 39.528 129.985 39.528 129.898V127.367H37.9464V129.898C37.9464 129.985 37.8757 130.057 37.7876 130.057C37.6998 130.057 37.6291 129.985 37.6291 129.898V127.367H36.062V129.898C36.062 129.985 35.991 130.057 35.9032 130.057C35.8158 130.057 35.7451 129.985 35.7451 129.898V127.367H34.4172V129.898C34.4172 129.985 34.3461 130.057 34.2587 130.057C34.1713 130.057 34.1002 129.985 34.1002 129.898V127.367H33.1973C33.1095 127.367 33.0381 127.296 33.0381 127.209C33.0381 127.121 33.1095 127.05 33.1973 127.05H40.3158C40.4032 127.05 40.4743 127.121 40.4743 127.209C40.4743 127.296 40.4032 127.367 40.3158 127.367H39.8464V129.898C39.8453 129.985 39.7746 130.057 39.6865 130.057Z" fill="#EE8B83"/>
<path d="M46.3437 130.057C46.2875 130.057 46.2325 130.026 46.2037 129.973C46.1628 129.898 45.2016 128.098 45.8114 126.517C46.1319 125.686 46.8273 125.077 47.8773 124.709C47.9587 124.68 48.0504 124.724 48.0795 124.806C48.1083 124.889 48.0653 124.98 47.9822 125.008C47.0242 125.344 46.3924 125.89 46.1074 126.631C45.5499 128.076 46.4734 129.804 46.483 129.822C46.5249 129.899 46.4965 129.995 46.419 130.037C46.3956 130.051 46.3693 130.057 46.3437 130.057ZM50.2044 130.057C50.1522 130.057 50.1003 130.031 50.0698 129.983C50.0357 129.928 49.229 128.63 49.6124 127.512C49.8022 126.959 50.2464 126.553 50.9329 126.305C51.0153 126.275 51.1063 126.318 51.1358 126.401C51.166 126.483 51.1237 126.574 51.0406 126.603C50.4493 126.817 50.0698 127.158 49.9127 127.615C49.578 128.591 50.3306 129.801 50.3381 129.814C50.3853 129.888 50.3622 129.986 50.2883 130.032C50.2627 130.049 50.2332 130.057 50.2044 130.057ZM48.3972 130.057C48.345 130.057 48.2931 130.031 48.2625 129.983C48.2206 129.916 47.2335 128.326 47.7011 126.962C47.9317 126.289 48.4732 125.796 49.3104 125.493C49.3929 125.462 49.4838 125.506 49.5137 125.589C49.5432 125.67 49.5005 125.762 49.4181 125.791C48.6761 126.06 48.1996 126.488 48.0017 127.064C47.5817 128.284 48.5212 129.798 48.5304 129.813C48.5773 129.887 48.555 129.985 48.4811 130.032C48.4551 130.049 48.426 130.057 48.3972 130.057ZM72.6452 125.859C72.6157 125.859 72.5855 125.851 72.5589 125.833C72.4853 125.785 72.4647 125.687 72.5127 125.614C73.6778 123.838 73.1857 121.595 73.1804 121.573C73.1612 121.487 73.2148 121.402 73.3005 121.382C73.3843 121.364 73.47 121.416 73.4899 121.502C73.5119 121.599 74.019 123.897 72.7781 125.788C72.7476 125.834 72.6967 125.859 72.6452 125.859Z" fill="#EE8B83"/>
<path d="M59.6267 108.925C59.5599 108.925 59.4973 108.882 59.4757 108.815C59.4487 108.731 59.4949 108.642 59.578 108.615C68.6342 105.71 71.3142 102.831 71.3408 102.803C71.3991 102.738 71.4997 102.732 71.5647 102.791C71.6297 102.85 71.635 102.95 71.5764 103.015C71.4684 103.135 68.8314 105.98 59.6754 108.917C59.659 108.922 59.6427 108.925 59.6267 108.925ZM43.4484 108.452C39.2853 108.452 36.2087 107.181 36.1668 107.162C36.0861 107.128 36.0488 107.036 36.0829 106.955C36.1167 106.874 36.2105 106.836 36.2901 106.871C36.3459 106.894 41.9691 109.216 48.2764 107.512C48.361 107.488 48.4481 107.539 48.4715 107.623C48.4939 107.708 48.4441 107.795 48.3596 107.818C46.6401 108.282 44.9721 108.452 43.4484 108.452Z" fill="#D8EDEE"/>
<path d="M52.0878 59.6311C52.0256 59.6311 51.9663 59.5942 51.941 59.533C51.9076 59.452 51.9456 59.3596 52.0267 59.3259C62.1052 55.1211 67.1606 56.1801 67.3709 56.2273C67.4566 56.2465 67.5099 56.3314 67.4911 56.4167C67.4722 56.5024 67.3855 56.5553 67.302 56.5368C67.2508 56.5258 62.119 55.4591 52.1485 59.6187C52.129 59.6272 52.108 59.6311 52.0878 59.6311ZM42.5192 58.2396C42.5174 58.2396 42.5163 58.2396 42.5149 58.2393C40.9916 58.1963 39.8978 57.7858 39.2639 57.0183C38.5465 56.1502 38.6986 55.1542 38.7057 55.1123C38.7203 55.0259 38.8009 54.9698 38.8873 54.9815C38.9736 54.9957 39.0322 55.0771 39.0194 55.1631C39.0173 55.1723 38.8851 56.0656 39.5127 56.8207C40.0862 57.5115 41.0996 57.8821 42.5242 57.9226C42.6116 57.9251 42.6805 57.9983 42.678 58.0857C42.6748 58.1714 42.6048 58.2396 42.5192 58.2396ZM61.4243 51.5123C61.3881 51.5123 61.3515 51.4995 61.3216 51.4743C54.05 45.2821 46.8948 46.8197 46.8231 46.8357C46.7371 46.8538 46.6529 46.8016 46.6333 46.7163C46.6141 46.631 46.6674 46.5457 46.7524 46.5265C46.8248 46.5098 54.1299 44.9328 61.5274 51.2327C61.5942 51.2895 61.602 51.3894 61.5455 51.4565C61.5142 51.4931 61.4695 51.5123 61.4243 51.5123Z" fill="#43525A"/>
<path d="M61.3678 43.6141C60.2709 43.6141 59.8491 42.1246 59.8328 41.1456C59.6647 40.9349 59.0727 40.0728 59.4536 38.7826C59.4113 38.5342 59.2127 37.2067 59.6149 36.2305C59.8541 35.6496 60.3341 35.215 60.8991 35.0682C61.3373 34.9556 61.7687 35.0341 62.0835 35.2846C62.1514 35.3394 62.1631 35.4396 62.1087 35.5074C62.0536 35.5764 61.9531 35.587 61.8856 35.5327C61.6493 35.3443 61.3177 35.2868 60.9787 35.3752C60.5097 35.4968 60.1096 35.8613 59.9074 36.3506C59.5073 37.3229 59.7692 38.7478 59.772 38.7623C59.777 38.7872 59.7756 38.8135 59.7674 38.838C59.3637 40.1496 60.1 40.9715 60.1074 40.9797C60.1341 41.0088 60.149 41.0472 60.149 41.087C60.149 41.808 60.4468 43.2961 61.3675 43.2961C62.2473 43.2961 62.2604 42.8772 62.2725 42.5073C62.2754 42.4199 62.3358 42.3438 62.4363 42.3538C62.5238 42.3562 62.592 42.4298 62.5895 42.5172C62.5785 42.874 62.555 43.6141 61.3678 43.6141Z" fill="#EE8B83"/>
<path fill-rule="evenodd" clip-rule="evenodd" d="M75.5134 124.981C75.6929 126.356 75.5241 128.051 74.4712 129.898H50.7715C50.7715 129.898 55.0338 129.826 57.2234 128.608C59.4123 127.39 63.095 124.026 64.139 123.418C65.183 122.809 63.2979 125.999 63.2404 127.013C63.1821 128.028 65.183 128.376 68.4596 128.376C71.7362 128.376 71.5617 128.376 72.7503 128.376C73.849 128.376 75.4175 126.917 75.5134 124.981Z" fill="#FFA89E"/>
<path fill-rule="evenodd" clip-rule="evenodd" d="M73.7182 70.739C75.1922 69.2121 76.6988 68.1912 78.0196 67.5097C77.8047 67.1103 77.558 66.7329 77.2745 66.3978C76.4274 66.8672 75.3919 67.5918 74.182 68.709C70.4125 72.1888 54.4062 86.0485 49.3029 88.5422C44.2002 91.0357 41.9377 93.3848 40.9236 95.3854C40.9236 95.3854 36.4005 93.1819 35.5011 90.0212C34.6024 86.8604 34.6024 84.1929 33.0073 82.3661C31.4129 80.5389 30.8838 80.1274 30.6713 78.9847C30.5239 79.8926 30.3924 80.6971 30.2861 81.3544C30.5441 82.2598 31.1169 82.7616 32.5436 84.3958C34.1384 86.2229 34.1384 88.8901 35.0374 92.0505C35.9364 95.2113 41.3294 97.9079 41.3294 97.9079C42.3442 95.9074 43.7361 93.0654 48.8398 90.5716C53.9425 88.0785 69.6588 74.9437 73.7182 70.739Z" fill="white"/>
<path fill-rule="evenodd" clip-rule="evenodd" d="M48.5791 88.9051C43.9831 91.2638 41.8891 93.4819 40.9236 95.3854C41.1159 96.0865 41.2516 96.9549 41.3465 97.8746C42.3603 95.8754 43.7646 93.0519 48.8396 90.5716C49.235 90.3787 49.6956 90.1203 50.209 89.808C49.6263 89.533 49.0826 89.2316 48.5791 88.9051ZM34.8719 87.3409C34.5005 85.5386 34.1924 83.9772 33.3084 82.746C33.0305 83.4609 32.7221 83.9371 32.415 84.2491L32.5437 84.3955C33.706 85.7269 34.0212 87.5057 34.4547 89.5955C34.6075 88.84 34.7461 88.0874 34.8719 87.3409Z" fill="#FAE4E4"/>
<path d="M106.489 85.6193C106.455 85.6193 106.421 85.6054 106.395 85.5784C106.348 85.5265 106.352 85.4462 106.403 85.3989C106.415 85.3876 107.624 84.2796 108.178 83.5416C108.22 83.4858 108.3 83.4748 108.355 83.5164C108.412 83.5583 108.423 83.6379 108.381 83.694C107.812 84.4512 106.625 85.54 106.574 85.5859C106.55 85.6082 106.52 85.6193 106.489 85.6193ZM107.835 81.1075C107.792 81.1075 107.751 81.0862 107.727 81.0482C107.69 80.9888 107.707 80.9103 107.767 80.8733C108.711 80.2821 109.165 80.2909 109.185 80.292C109.255 80.2948 109.311 80.3538 109.308 80.4235C109.305 80.4931 109.248 80.539 109.178 80.5457H109.177C109.167 80.5457 108.759 80.551 107.902 81.0883C107.881 81.1018 107.858 81.1075 107.835 81.1075ZM106.733 79.5721C106.699 79.5721 106.666 79.5593 106.641 79.5326C106.592 79.4811 106.595 79.4012 106.646 79.3532C107.424 78.6201 108.141 78.3629 108.171 78.3526C108.236 78.3295 108.31 78.3632 108.333 78.4304C108.356 78.4965 108.321 78.569 108.256 78.5924C108.248 78.5942 107.556 78.844 106.82 79.5376C106.795 79.5607 106.764 79.5721 106.733 79.5721ZM99.9495 78.7434C99.9086 78.7434 99.8685 78.7239 99.8439 78.688C99.8049 78.6301 99.8201 78.5508 99.8777 78.5114L101.923 77.1213C101.981 77.0822 102.061 77.0975 102.099 77.1551C102.138 77.2126 102.123 77.2919 102.066 77.3313L100.02 78.7214C99.9981 78.7363 99.974 78.7434 99.9495 78.7434ZM105.142 78.037C105.103 78.037 105.066 78.0203 105.041 77.9873C104.998 77.9315 105.009 77.8519 105.065 77.8092C106.362 76.8225 106.862 76.8065 106.924 76.799C106.994 76.7997 107.05 76.8569 107.05 76.9266C107.049 76.9962 106.993 77.052 106.924 77.0524C106.908 77.0534 106.429 77.0897 105.219 78.0111C105.195 78.0285 105.169 78.037 105.142 78.037Z" fill="#EE8B83"/>
<path fill-rule="evenodd" clip-rule="evenodd" d="M211.977 129.793H1.56888C1.04582 129.793 0.616211 130.253 0.616211 130.817C0.616211 131.381 1.04582 131.841 1.56888 131.841H211.977C212.501 131.841 212.931 131.381 212.931 130.817C212.93 130.253 212.5 129.793 211.977 129.793Z" fill="white"/>
<path fill-rule="evenodd" clip-rule="evenodd" d="M215.777 129.793H218.454C218.965 129.793 219.383 130.253 219.383 130.817C219.383 131.381 218.965 131.841 218.454 131.841H215.777C215.266 131.841 214.848 131.381 214.848 130.817C214.847 130.253 215.266 129.793 215.777 129.793Z" fill="white"/>
<path fill-rule="evenodd" clip-rule="evenodd" d="M141.316 123.917C139.65 124.192 131.353 121.314 130.636 121.362C129.093 121.464 126.648 121.695 126.027 121.9C125.406 122.105 124.842 122.438 124.767 123.284C124.692 124.13 125.199 124.719 126.008 124.565C126.817 124.411 127.569 124.104 127.758 124.181C127.758 124.181 127.842 124.462 127.734 124.578C127.626 124.693 126.116 124.456 125.449 124.79C124.781 125.123 125.063 126.596 125.722 126.429C126.38 126.262 127.509 125.904 127.697 125.904C127.697 125.904 127.876 125.879 127.927 125.929C127.979 125.981 127.984 126.192 127.946 126.256C127.908 126.321 127.481 126.371 127.029 126.365C126.578 126.359 126.103 126.326 125.896 126.647C125.69 126.967 125.962 127.947 126.667 127.857C127.372 127.768 128.247 127.281 128.407 127.281C128.567 127.281 128.581 127.55 128.501 127.646C128.421 127.743 127.457 127.723 127.284 127.813C127.11 127.903 126.973 127.98 127.001 128.454C127.03 128.928 127.472 129.222 128.092 129.018C128.712 128.812 129.164 128.454 129.277 128.466C129.39 128.479 129.343 128.697 129.07 128.774C128.797 128.851 128.553 128.876 128.458 129.068C128.365 129.261 128.327 129.884 129.004 129.884C129.681 129.884 135.14 129.884 136.795 129.884C137.935 129.884 140.548 129.904 141.316 129.897V123.917Z" fill="#FFA89E"/>
<path fill-rule="evenodd" clip-rule="evenodd" d="M144.928 83.6311C144.928 83.6311 141.744 85.8843 139.588 90.9141C137.432 95.944 135.995 98.9782 135.995 98.9782C135.995 98.9782 134.798 99.4171 134.758 100.455L127.021 105.882L130.087 107.92L138.269 106.577L142.608 103.905L146.487 97.0356L144.928 83.6311Z" fill="white"/>
<path fill-rule="evenodd" clip-rule="evenodd" d="M147.63 79.2665C147.63 79.2665 148.788 79.7057 149.087 80.4846C149.387 81.2624 149.764 82.3803 149.805 82.5605C149.847 82.7399 150.784 84.0174 153.179 83.9776C155.574 83.9374 158.256 82.553 158.376 80.6764C157.074 78.758 157.085 78.2296 156.695 76.2322C156.652 76.0076 156.485 75.0024 156.253 75.1143L147.63 79.2665Z" fill="#FFC5B0"/>
<path fill-rule="evenodd" clip-rule="evenodd" d="M147.63 79.2665C147.63 79.2665 148.788 79.7057 149.087 80.4846C149.156 80.6637 149.229 80.8609 149.301 81.0602C152.01 81.4237 155.013 80.2284 156.933 77.4667C156.861 77.1145 156.791 76.7169 156.696 76.2322C156.652 76.0076 156.486 75.0024 156.254 75.1143L147.63 79.2665Z" fill="#EE8B83"/>
<path fill-rule="evenodd" clip-rule="evenodd" d="M158.944 70.6225C158.944 70.6225 159.856 70.0135 160.342 70.1755C160.826 70.3375 161.193 71.5418 160.937 72.3281C160.68 73.1138 159.091 75.6801 157.709 74.2402C156.326 72.8007 158.944 70.6225 158.944 70.6225Z" fill="#FFC5B0"/>
<path fill-rule="evenodd" clip-rule="evenodd" d="M158.112 71.3765C158.043 71.4181 158.004 71.5091 158.027 71.5777C158.047 71.6402 158.109 71.6647 158.171 71.6384C158.171 71.6384 158.035 74.21 158.491 73.9108C158.946 73.6116 159.418 73.3306 159.718 72.7414C160.019 72.1512 159.596 71.4458 159.835 71.33C160.064 71.2188 160.213 71.5109 160.226 71.5375L160.226 71.5389L160.227 71.54C160.339 71.7895 160.356 72.0556 160.356 72.0574C160.362 72.1345 160.425 72.1771 160.498 72.1523C160.57 72.1277 160.624 72.0446 160.619 71.9675C160.618 71.9643 160.556 70.9615 159.861 70.8318C159.197 70.7071 158.116 71.3744 158.112 71.3765Z" fill="#EE8B83"/>
<path fill-rule="evenodd" clip-rule="evenodd" d="M144.057 69.4811C144.057 69.4811 143.397 68.6354 142.897 68.6372C142.397 68.6393 141.686 69.6446 141.684 70.453C141.681 71.2617 142.369 74.1322 144.095 73.22C145.82 72.3075 144.057 69.4811 144.057 69.4811Z" fill="#FFC5B0"/>
<path fill-rule="evenodd" clip-rule="evenodd" d="M144.597 70.4363C144.649 70.4964 144.657 70.592 144.615 70.6499C144.577 70.7018 144.512 70.7053 144.461 70.6616V70.662C144.461 70.662 143.8 73.0921 143.468 72.6735C143.136 72.2553 142.785 71.8509 142.687 71.2106C142.589 70.5707 143.198 70.0455 143.011 69.8642C142.834 69.6912 142.606 69.9161 142.585 69.9378L142.584 69.9385L142.583 69.9392C142.402 70.1371 142.306 70.3791 142.305 70.3798C142.276 70.4498 142.204 70.4701 142.144 70.4246C142.084 70.3791 142.059 70.286 142.088 70.216C142.09 70.2135 142.456 69.301 143.141 69.3938C143.796 69.4822 144.595 70.4338 144.597 70.4363Z" fill="#EE8B83"/>
<path fill-rule="evenodd" clip-rule="evenodd" d="M152.611 58.0495C142.188 57.2465 143.21 65.4818 143.285 72.1061C143.405 82.5008 156.244 82.751 158.615 72.7045C160.137 66.2558 163.006 59.1557 152.611 58.0495Z" fill="#FFC5B0"/>
<path fill-rule="evenodd" clip-rule="evenodd" d="M145.719 60.6435C144.871 61.8506 144.454 63.3764 144.261 65.0401C144.455 64.9932 144.656 64.9438 144.865 64.8901C150.886 63.3508 157.275 67.6174 157.275 67.6174C157.275 67.6174 158.729 63.3373 159.104 62.8714C159.479 62.4063 150.658 59.0594 149.912 58.8423C149.541 58.7335 147.69 59.586 145.719 60.6435Z" fill="#F2A195"/>
<path fill-rule="evenodd" clip-rule="evenodd" d="M160.864 64.7338C160.551 65.3663 161.208 67.9614 160.952 68.7008C160.862 68.9624 160.525 69.7939 160.207 70.1499C159.031 70.2121 158.834 72.2301 158.615 72.7037C157.544 72.4003 157.519 70.4011 157.519 70.4011C155.756 69.6674 155.504 66.1104 155.479 64.6041L160.864 64.7338Z" fill="#43525A"/>
<path fill-rule="evenodd" clip-rule="evenodd" d="M143.125 64.8959C143.125 64.8959 142.366 67.2173 143.232 69.2218L143.439 66.815C143.439 66.815 144.822 64.7125 144.739 63.5395C144.656 62.3669 143.125 64.8959 143.125 64.8959Z" fill="#43525A"/>
<path fill-rule="evenodd" clip-rule="evenodd" d="M160.952 68.7015C160.952 68.7015 161.506 68.5594 161.659 68.052C161.812 67.5442 162.722 59.2843 159.402 57.0954C156.081 54.9062 147.799 53.5495 145.68 56.9416C143.562 60.3333 142.55 64.2395 143.125 64.8958C143.125 64.8958 151.122 61.2277 160.952 68.7015Z" fill="white"/>
<path fill-rule="evenodd" clip-rule="evenodd" d="M160.953 68.7015C160.953 68.7015 161.506 68.5594 161.659 68.052C161.812 67.5442 162.723 59.2843 159.402 57.0954C158.815 56.7084 158.073 56.3478 157.237 56.0344C157.27 56.0564 158.027 56.5745 158.06 58.2343C158.093 59.9314 157.801 62.5897 157.587 63.7271C157.374 64.8642 156.766 65.728 155.73 65.6058H155.728C157.381 66.32 159.136 67.32 160.953 68.7015Z" fill="#D8EDEE"/>
<path fill-rule="evenodd" clip-rule="evenodd" d="M144.928 83.6311L149.143 82.0154L152.097 83.8983L158.318 79.9885C158.318 79.9885 164.36 81.6202 168.013 82.9574C168.013 82.9574 174.079 98.8208 172.164 109.92C172.164 109.92 159.724 121.429 147.247 115.855C147.247 115.855 146.806 110.897 148.083 108.062C148.083 108.062 147.723 106.386 148.242 105.268C146.913 99.1492 144.687 89.7124 144.928 83.6311Z" fill="white"/>
<path fill-rule="evenodd" clip-rule="evenodd" d="M172.325 101.048C172.622 104.088 172.641 107.152 172.163 109.92C172.163 109.92 168.02 113.753 162.118 115.923L161.666 115.74C164.16 114.182 161.878 113.137 161.878 113.137C161.878 113.137 159.372 111.773 157.717 111.146C156.062 110.52 154.518 111.862 154.518 111.862L149.162 116.58C148.525 116.38 147.886 116.142 147.247 115.856C147.247 115.856 146.805 110.897 148.082 108.062C148.082 108.062 148.03 107.817 147.994 107.45C155.553 105.46 171.61 101.202 171.743 100.901C171.783 100.813 172.001 100.881 172.325 101.048Z" fill="#D8EDEE"/>
<path fill-rule="evenodd" clip-rule="evenodd" d="M159.207 102.553C159.207 102.553 158.812 102.666 158.831 103.489C158.85 104.311 159.246 108.458 159.242 108.509C159.238 108.56 159.394 109.295 160.154 109.829C160.915 110.364 162.196 108.939 162.196 108.939L161.747 102.638C161.747 102.638 159.998 102.403 159.207 102.553Z" fill="#C7E5E5"/>
<path d="M152.824 116.67C152.752 116.67 152.686 116.62 152.669 116.547C151.549 111.702 153.945 106.002 154.289 105.221C150.52 100.398 149.587 91.1327 149.279 88.0768C149.232 87.6134 149.199 87.2787 149.171 87.1014C148.933 85.578 149.602 85.1868 149.631 85.1708L152.016 83.7619C152.092 83.7164 152.189 83.742 152.233 83.8173C152.278 83.893 152.253 83.99 152.178 84.0344L149.789 85.4459C149.782 85.4501 149.284 85.7703 149.485 87.0524C149.513 87.2375 149.548 87.5768 149.595 88.0448C149.902 91.0933 150.836 100.371 154.597 105.099C154.635 105.147 154.642 105.211 154.617 105.265C154.589 105.326 151.804 111.396 152.979 116.475C152.999 116.56 152.945 116.645 152.86 116.666C152.848 116.668 152.836 116.67 152.824 116.67Z" fill="#C7E5E5"/>
<path fill-rule="evenodd" clip-rule="evenodd" d="M152.239 98.63L145.82 109.516L145.658 109.703L145.48 109.62L145.537 109.353L151.756 98.3489C152.212 97.5793 152.666 97.8937 152.239 98.63Z" fill="#EE8B83"/>
<path fill-rule="evenodd" clip-rule="evenodd" d="M151.724 99.6911C151.709 99.7067 151.693 99.7195 151.678 99.7284C151.659 99.7404 151.636 99.7468 151.61 99.7472V99.7468C151.538 99.7483 151.431 99.7063 151.336 99.6505C151.24 99.5955 151.152 99.5248 151.116 99.469C151.103 99.4484 151.095 99.4278 151.095 99.4075C151.094 99.3894 151.096 99.3673 151.102 99.3442L151.102 99.3414C151.107 99.3211 151.114 99.2991 151.125 99.2739L151.126 99.2735C151.146 99.2298 151.667 98.2463 152.361 96.945C153.572 94.6708 155.305 91.4216 155.784 90.5251C155.962 90.191 156.248 90.056 156.513 90.0692C156.623 90.0745 156.729 90.1058 156.823 90.1591C156.916 90.2124 156.996 90.2884 157.054 90.3826C157.191 90.6043 157.204 90.9266 156.972 91.3001C156.381 92.2499 154.482 95.2973 153.149 97.4325C152.376 98.6716 151.793 99.6036 151.765 99.6427C151.753 99.6605 151.74 99.6751 151.727 99.6882L151.724 99.6911Z" fill="#FFA89E"/>
<path fill-rule="evenodd" clip-rule="evenodd" d="M148.71 82.1814L149.263 80.959L151.381 82.0392L152.097 83.8984L148.71 82.1814Z" fill="white"/>
<path fill-rule="evenodd" clip-rule="evenodd" d="M158.319 79.9885L157.449 78.7122L152.564 81.8715L152.098 83.8983L158.319 79.9885Z" fill="white"/>
<path fill-rule="evenodd" clip-rule="evenodd" d="M131.383 114.148L131.705 110.78L144.888 116.491C144.977 116.456 146.913 115.33 148.832 116.16C148.832 116.16 155.917 116.958 160.116 116.611L165.501 113.583C165.638 113.618 165.775 113.654 165.913 113.691C175.337 116.243 153.905 125.744 149.552 125.911C145.2 126.076 131.383 114.148 131.383 114.148Z" fill="#43525A"/>
<path fill-rule="evenodd" clip-rule="evenodd" d="M151.824 123.349C151.824 123.349 151.008 121.627 151.921 121.212C152.308 121.036 155.887 118.999 160.128 116.604L165.805 113.413C169.822 111.168 173.468 109.173 174.734 108.62C177.96 107.209 180.952 108.661 183.05 110.943C185.149 113.225 186.066 117.66 185.071 120.527C184.077 123.395 181.884 129.898 178.232 129.898C174.578 129.898 156.721 129.898 156.721 129.898L151.824 123.349Z" fill="#4F5E66"/>
<path fill-rule="evenodd" clip-rule="evenodd" d="M168.163 129.898H163.308H156.72C156.818 129.823 156.186 128.369 156.246 128.248C156.307 128.127 165.654 128.21 165.654 128.21L173.477 124.197L168.163 129.898Z" fill="#43525A"/>
<path fill-rule="evenodd" clip-rule="evenodd" d="M149.802 122.572C150.4 123.14 151.512 122.333 152.912 122.748C155.535 123.526 156.312 123.618 158.162 123.082V129.898H141.855L140.106 125.569C140.106 125.569 142.244 122.582 143.215 122.208C144.187 121.835 147.794 120.882 149.802 122.572Z" fill="#FFC5B0"/>
<path fill-rule="evenodd" clip-rule="evenodd" d="M148.005 129.898H141.855L140.106 125.569C140.106 125.569 142.244 122.582 143.215 122.208C144.187 121.834 147.794 120.882 149.802 122.571C149.802 122.571 146.462 121.92 145.073 125.158C143.686 128.398 144.997 129.898 148.005 129.898Z" fill="#FFA89E"/>
<path fill-rule="evenodd" clip-rule="evenodd" d="M149.801 122.572C149.801 122.572 149.627 121.991 148.947 121.597C148.266 121.203 129.818 109.594 129.818 109.594C119.878 103.716 116.525 117.534 121.955 120.883C125.453 123.04 136.626 128.304 137.937 128.688C139.249 129.072 140.145 129.898 141.663 129.898H142.456C141.323 125.821 146.545 120.472 149.801 122.572Z" fill="#4F5E66"/>
<path fill-rule="evenodd" clip-rule="evenodd" d="M122.425 121.165C126.355 123.466 136.679 128.319 137.936 128.688C139.248 129.072 140.144 129.898 141.663 129.898H142.455C142.045 128.419 142.47 126.772 143.335 125.375V125.374C141.422 127.243 139.05 126.804 139.05 126.804L122.425 121.165Z" fill="#43525A"/>
<path d="M165.654 128.368C165.597 128.368 165.541 128.337 165.513 128.282C165.474 128.204 165.504 128.109 165.582 128.068L173.684 123.913C173.688 123.91 173.692 123.908 173.697 123.906L179.039 121.166L179.728 119.991C179.773 119.915 179.87 119.89 179.945 119.934C180.02 119.979 180.046 120.076 180.001 120.152L179.565 120.897L180.801 120.262C180.878 120.223 180.975 120.253 181.015 120.331C181.055 120.409 181.024 120.504 180.947 120.545L174.549 123.826L178.686 123.481C178.771 123.481 178.85 123.539 178.857 123.626C178.864 123.714 178.799 123.79 178.712 123.797L173.807 124.206L165.727 128.35C165.704 128.363 165.679 128.368 165.654 128.368ZM149.802 122.73C149.734 122.73 149.671 122.686 149.65 122.618C149.648 122.613 149.48 122.09 148.867 121.734C148.192 121.343 130.487 110.202 129.733 109.728C129.659 109.681 129.637 109.583 129.684 109.509C129.731 109.435 129.829 109.413 129.902 109.459C130.087 109.575 148.356 121.072 149.026 121.46C149.752 121.881 149.945 122.5 149.953 122.526C149.978 122.61 149.931 122.698 149.847 122.723C149.833 122.728 149.817 122.73 149.802 122.73ZM155.611 119.088C155.6 119.088 155.588 119.087 155.576 119.084C154.194 118.772 153.11 118.236 151.962 117.668C150.892 117.139 149.787 116.593 148.304 116.143C148.221 116.117 148.173 116.029 148.199 115.945C148.223 115.86 148.312 115.812 148.396 115.839C149.904 116.296 151.021 116.849 152.102 117.383C153.233 117.942 154.301 118.472 155.646 118.775C155.731 118.794 155.785 118.879 155.765 118.964C155.749 119.038 155.683 119.088 155.611 119.088ZM156.124 118.788C156.051 118.788 155.985 118.738 155.969 118.663C155.79 117.853 155.764 117.337 155.78 116.666C155.783 116.579 155.862 116.511 155.943 116.511C156.031 116.514 156.1 116.586 156.098 116.674C156.082 117.319 156.107 117.816 156.279 118.595C156.298 118.68 156.243 118.765 156.158 118.784C156.146 118.787 156.135 118.788 156.124 118.788ZM147.095 117.835C147.07 117.835 147.044 117.829 147.02 117.816L144.813 116.632C144.736 116.59 144.707 116.494 144.749 116.417C144.79 116.339 144.886 116.311 144.964 116.352L147.17 117.536C147.247 117.577 147.276 117.674 147.235 117.751C147.206 117.805 147.151 117.835 147.095 117.835Z" fill="#43525A"/>
<path fill-rule="evenodd" clip-rule="evenodd" d="M148.221 123.917C149.887 124.192 156.786 121.314 157.504 121.362C159.046 121.464 161.492 121.695 162.112 121.9C162.733 122.105 163.297 122.438 163.373 123.284C163.448 124.13 162.94 124.719 162.131 124.565C161.323 124.411 160.57 124.104 160.382 124.181C160.382 124.181 160.298 124.462 160.406 124.578C160.514 124.693 162.023 124.456 162.69 124.79C163.358 125.123 163.077 126.596 162.418 126.429C161.759 126.262 160.631 125.904 160.443 125.904C160.443 125.904 160.264 125.879 160.212 125.929C160.16 125.981 160.156 126.192 160.194 126.256C160.231 126.321 160.659 126.371 161.11 126.365C161.562 126.359 162.036 126.326 162.243 126.647C162.45 126.967 162.177 127.947 161.472 127.857C160.767 127.768 159.892 127.281 159.732 127.281C159.572 127.281 159.559 127.55 159.638 127.646C159.718 127.743 160.682 127.723 160.856 127.813C161.03 127.903 161.166 127.98 161.138 128.454C161.11 128.928 160.668 129.222 160.047 129.018C159.426 128.812 158.975 128.454 158.862 128.466C158.749 128.479 158.796 128.697 159.069 128.774C159.342 128.851 159.586 128.876 159.68 129.068C159.775 129.261 159.812 129.884 159.135 129.884C158.458 129.884 153 129.884 151.345 129.884C150.203 129.884 148.988 129.904 148.221 129.897V123.917H148.221Z" fill="#FFC5B0"/>
<path fill-rule="evenodd" clip-rule="evenodd" d="M145.922 103.501C145.922 103.501 147.605 101.575 148.771 101.092C149.936 100.609 151.212 101.037 152.182 101.6C153.151 102.163 154.871 103.291 154.871 103.291C154.871 103.291 161.195 102.72 161.106 102.833C161.017 102.945 162.961 105.07 162.961 105.07L162.655 107.938L161.335 108.706C161.335 108.706 156.092 108.34 155.56 108.302C155.028 108.264 154.202 108.741 153.284 108.99C152.366 109.238 145.922 103.501 145.922 103.501Z" fill="#FFC5B0"/>
<path fill-rule="evenodd" clip-rule="evenodd" d="M140.017 102.822H156.053L158.233 105.198H140.017V102.822Z" fill="#D8EDEE"/>
<path d="M138.885 105.883H119.134V113.061H138.885V105.883Z" fill="#D8EDEE"/>
<path fill-rule="evenodd" clip-rule="evenodd" d="M140.744 114.731L159.107 129.898H154.446L137.875 116.211H140.744V114.731Z" fill="#9B5672"/>
<path fill-rule="evenodd" clip-rule="evenodd" d="M159.107 104.894H154.446L124.173 129.898H128.833L159.107 104.894Z" fill="#9B5672"/>
<path fill-rule="evenodd" clip-rule="evenodd" d="M159.107 104.894H142.817L127.68 117.396H143.97L159.107 104.894Z" fill="#9B5672"/>
<path fill-rule="evenodd" clip-rule="evenodd" d="M132.647 122.759L146.63 122.712L139.827 116.967L128.339 116.852L132.647 122.759Z" fill="#9B5672"/>
<path fill-rule="evenodd" clip-rule="evenodd" d="M120.029 122.759H133.212L126.291 117.157L120.029 122.759Z" fill="#C27389"/>
<path fill-rule="evenodd" clip-rule="evenodd" d="M114.474 105.883H119.135L129.684 114.596L127.377 116.54L114.474 105.883Z" fill="white"/>
<path fill-rule="evenodd" clip-rule="evenodd" d="M142.703 102.822H138.042L123.867 114.596L126.174 116.54L142.703 102.822Z" fill="white"/>
<path fill-rule="evenodd" clip-rule="evenodd" d="M109.2 104.894H113.861L144.135 129.898H139.474L109.2 104.894Z" fill="#C27389"/>
<path fill-rule="evenodd" clip-rule="evenodd" d="M144.135 104.894H139.474L109.2 129.898H113.861L144.135 104.894Z" fill="#C27389"/>
<path fill-rule="evenodd" clip-rule="evenodd" d="M171.366 86.633C172.576 89.6214 172.864 92.7406 173.443 94.158C174.021 95.5751 176.851 104.036 173.886 106.478C170.92 108.921 162.661 110.109 160.725 110.148C160.725 110.148 160.326 110.109 160.156 109.829C160.156 109.829 160.735 109.899 161.184 109.16C161.634 108.422 161.747 102.44 159.208 102.553C159.208 102.553 163.894 101.226 165.929 100.886C165.929 100.886 166.089 100.188 166.727 99.9885C166.727 99.9885 164.579 93.8685 163.741 92.2918C159.57 84.4466 168.118 78.6098 171.366 86.633Z" fill="white"/>
<path d="M159.208 102.711C159.139 102.711 159.075 102.666 159.055 102.596C159.031 102.512 159.08 102.425 159.164 102.4C159.211 102.387 163.735 101.108 165.805 100.746C165.873 100.545 166.07 100.109 166.526 99.8961C166.183 98.9409 165.722 97.8717 165.236 96.7424C164.22 94.3858 163.068 91.7147 162.511 89.0124C162.493 88.9267 162.548 88.8422 162.634 88.8251C162.719 88.808 162.804 88.8621 162.821 88.9484C163.372 91.6191 164.516 94.2746 165.527 96.617C166.014 97.748 166.476 98.8187 166.822 99.7806C167.221 99.6431 168.368 99.3528 170.552 99.551C170.639 99.5585 170.703 99.6356 170.695 99.723C170.687 99.8101 170.609 99.8755 170.523 99.8662C167.899 99.6296 166.817 100.121 166.797 100.13C166.789 100.133 166.782 100.137 166.775 100.138C166.452 100.239 166.27 100.492 166.174 100.683C167.216 100.524 170.878 100.119 172.826 101.918C172.89 101.977 172.895 102.078 172.835 102.142C172.776 102.207 172.676 102.211 172.611 102.151C170.5 100.201 166.042 101.026 165.959 101.041C165.958 101.042 165.956 101.042 165.954 101.042C163.951 101.376 159.298 102.692 159.251 102.705C159.236 102.709 159.222 102.711 159.208 102.711Z" fill="#C7E5E5"/>
<path d="M137.253 101.411C137.211 101.411 137.169 101.395 137.139 101.362C136.139 100.32 134.806 100.607 134.792 100.61C134.705 100.629 134.622 100.575 134.603 100.49C134.583 100.405 134.637 100.32 134.722 100.3C134.784 100.287 136.244 99.9725 137.367 101.143C137.428 101.206 137.426 101.306 137.362 101.367C137.332 101.396 137.292 101.411 137.253 101.411ZM139.557 99.8009C139.526 99.8009 139.496 99.7924 139.468 99.7735C137.623 98.5213 136.07 99.1197 136.055 99.1257C135.972 99.1577 135.881 99.119 135.849 99.038C135.816 98.9566 135.855 98.8646 135.935 98.8319C136.006 98.8034 137.654 98.1592 139.646 99.5113C139.719 99.5603 139.738 99.6587 139.688 99.7316C139.658 99.7767 139.608 99.8009 139.557 99.8009ZM146.487 97.1952C146.414 97.1952 146.349 97.1451 146.332 97.0715C146.321 97.0211 145.172 91.95 145.105 86.5147C145.104 86.4266 145.174 86.3552 145.261 86.3534C145.262 86.3534 145.263 86.3534 145.263 86.3534C145.35 86.3534 145.42 86.4234 145.422 86.5101C145.489 91.9109 146.629 96.9503 146.641 97.0004C146.661 97.0857 146.607 97.171 146.522 97.1909C146.51 97.1937 146.498 97.1952 146.487 97.1952ZM152.098 84.0572C152.073 84.0572 152.049 84.0511 152.026 84.0398L148.64 82.3231C148.561 82.2833 148.53 82.1878 148.57 82.1092C148.609 82.031 148.705 82.0005 148.783 82.0396L152.09 83.7161L158.235 79.8542C158.309 79.8073 158.406 79.8297 158.453 79.9043C158.5 79.9782 158.477 80.0763 158.403 80.1225L152.183 84.0327C152.157 84.0487 152.127 84.0572 152.098 84.0572Z" fill="#C7E5E5"/>
<path fill-rule="evenodd" clip-rule="evenodd" d="M211.733 97.5662C209.499 98.5625 210.242 107.251 203.545 107.473C203.545 107.473 204.04 97.9378 211.733 97.5662Z" fill="#6DD6CD"/>
<path fill-rule="evenodd" clip-rule="evenodd" d="M196.6 77.9081C198.606 81.9632 190.499 91.5787 202.526 100.017C202.526 100.016 208.436 84.8582 196.6 77.9081Z" fill="#6DD6CD"/>
<path fill-rule="evenodd" clip-rule="evenodd" d="M200.139 105.623C197.898 101.483 193.216 103.615 190.209 99.4583C187.885 96.2468 188.312 91.1654 186.688 89.4971C186.688 89.4971 199.274 90.4977 200.139 105.623Z" fill="#6DD6CD"/>
<path fill-rule="evenodd" clip-rule="evenodd" d="M201.9 110.593C202.378 105.075 203.762 83.3636 196.475 78.0783C196.381 78.0104 196.36 77.8775 196.428 77.7837C196.496 77.6892 196.628 77.6682 196.723 77.7364C203.926 82.961 202.886 103.567 202.372 109.997C203.664 106.236 207.01 97.9925 211.705 97.3558C211.821 97.3416 211.927 97.4222 211.942 97.5381C211.957 97.6532 211.876 97.7598 211.761 97.7747C205.949 98.5622 202.2 111.922 202.189 111.961C202.157 112.073 202.041 112.138 201.929 112.107C201.845 112.083 201.788 112.012 201.777 111.932C201.667 111.393 197.922 93.2843 186.625 89.6996C186.513 89.6641 186.451 89.5451 186.486 89.4342C186.521 89.3226 186.641 89.2611 186.752 89.2963C196.617 92.4265 200.82 106.303 201.9 110.593Z" fill="#5EC7BE"/>
<path fill-rule="evenodd" clip-rule="evenodd" d="M205.151 129.093C204.845 129.898 204.318 129.898 204.318 129.898H199.5C199.5 129.898 198.972 129.898 198.667 129.093C194.958 116.002 199.045 110.373 199.045 110.373H204.772C204.772 110.373 208.859 116.002 205.151 129.093Z" fill="white"/>
<path fill-rule="evenodd" clip-rule="evenodd" d="M198.343 111.744C198.724 110.817 199.046 110.373 199.046 110.373H204.773C204.773 110.373 205.356 111.177 205.882 112.883L198.343 111.744Z" fill="#D8EDEE"/>
<path fill-rule="evenodd" clip-rule="evenodd" d="M198.59 110.132H205.23C205.549 110.132 205.809 110.391 205.809 110.711C205.809 111.029 205.549 111.29 205.23 111.29H198.59C198.271 111.29 198.011 111.03 198.011 110.711C198.011 110.392 198.271 110.132 198.59 110.132Z" fill="white"/>
<path fill-rule="evenodd" clip-rule="evenodd" d="M30.8402 97.5662C28.6051 98.5625 29.3485 107.251 22.6514 107.473C22.6517 107.473 23.1471 97.9378 30.8402 97.5662Z" fill="#6DD6CD"/>
<path fill-rule="evenodd" clip-rule="evenodd" d="M15.707 77.9081C17.7129 81.9632 9.60693 91.5787 21.6338 100.017C21.6334 100.016 27.5431 84.8582 15.707 77.9081Z" fill="#6DD6CD"/>
<path fill-rule="evenodd" clip-rule="evenodd" d="M19.2459 105.623C17.0054 101.483 12.3231 103.615 9.31625 99.4583C6.99304 96.2468 7.4198 91.1654 5.7959 89.4971C5.79554 89.4971 18.381 90.4977 19.2459 105.623Z" fill="#6DD6CD"/>
<path fill-rule="evenodd" clip-rule="evenodd" d="M21.0056 110.593C21.4846 105.075 22.869 83.3636 15.5817 78.0783C15.4872 78.0104 15.4662 77.8775 15.5345 77.7837C15.6031 77.6892 15.7352 77.6682 15.8301 77.7364C23.0332 82.961 21.9924 103.567 21.4786 109.997C22.7699 106.236 26.1165 97.9925 30.8119 97.3558C30.9274 97.3416 31.034 97.4222 31.049 97.5381C31.0642 97.6532 30.9832 97.7598 30.867 97.7747C25.0558 98.5622 21.3073 111.922 21.2967 111.961C21.264 112.073 21.1478 112.138 21.0351 112.107C20.9516 112.083 20.8944 112.012 20.883 111.932C20.7736 111.393 17.0283 93.2843 5.731 89.6996C5.61907 89.6641 5.55795 89.5451 5.59278 89.4342C5.62795 89.3226 5.74735 89.2611 5.85857 89.2963C15.7235 92.4265 19.9268 106.303 21.0056 110.593Z" fill="#5EC7BE"/>
<path fill-rule="evenodd" clip-rule="evenodd" d="M24.2585 129.093C23.9532 129.898 23.4256 129.898 23.4256 129.898H18.6079C18.6079 129.898 18.0805 129.898 17.7746 129.093C14.0656 116.002 18.1527 110.373 18.1527 110.373H23.8797C23.8804 110.373 27.9668 116.002 24.2585 129.093Z" fill="white"/>
<path fill-rule="evenodd" clip-rule="evenodd" d="M17.4502 111.744C17.8315 110.817 18.1534 110.373 18.1534 110.373H23.8804C23.8804 110.373 24.4632 111.177 24.9894 112.883L17.4502 111.744Z" fill="#D8EDEE"/>
<path fill-rule="evenodd" clip-rule="evenodd" d="M17.6958 110.132H24.336C24.6544 110.132 24.9152 110.391 24.9152 110.711C24.9152 111.029 24.6547 111.29 24.336 111.29H17.6958C17.3774 111.29 17.1162 111.03 17.1162 110.711C17.1162 110.392 17.3777 110.132 17.6958 110.132Z" fill="white"/>
<g opacity="0.2">
<path opacity="0.2" fill-rule="evenodd" clip-rule="evenodd" d="M200.833 62.3992H169.003C168.042 62.3992 167.257 63.1852 167.257 64.1454V72.3043C167.257 73.2652 168.042 74.0505 169.003 74.0505H171.426L173.5 76.2568C173.733 76.5052 174.115 76.5055 174.347 76.2575L176.422 74.0505H200.833C201.793 74.0505 202.579 73.2652 202.579 72.3043V64.1454C202.579 63.1849 201.793 62.3992 200.833 62.3992Z" fill="#D8EDEE"/>
</g>
<path d="M12.9211 69.1194C12.8333 69.1194 12.7619 69.0484 12.7619 68.9606V67.2436H11.2929C11.2055 67.2436 11.1344 67.1725 11.1344 67.0851C11.1344 66.9977 11.2055 66.9263 11.2929 66.9263H15.153V64.5547H12.3088C12.2211 64.5547 12.15 64.4837 12.15 64.3963C12.15 64.3081 12.2211 64.2374 12.3088 64.2374H22.6844C22.7725 64.2374 22.8436 64.3081 22.8436 64.3963C22.8436 64.4837 22.7725 64.5547 22.6844 64.5547H15.4703V66.9263H25.7975V64.5547H24.6398C24.5524 64.5547 24.481 64.4837 24.481 64.3963C24.481 64.3081 24.5524 64.2374 24.6398 64.2374H25.9557C25.9557 64.2374 25.9557 64.2374 25.956 64.2374H28.7422C28.83 64.2374 28.9007 64.3081 28.9007 64.3963C28.9007 64.4837 28.83 64.5547 28.7422 64.5547H26.1148V66.9263H27.6162C27.7036 66.9263 27.7743 66.9977 27.7743 67.0851C27.7743 67.1725 27.7036 67.2436 27.6162 67.2436H25.956C25.9557 67.2436 25.9557 67.2436 25.9557 67.2436H13.0792V68.9606C13.0792 69.0484 13.0085 69.1194 12.9211 69.1194ZM10.1242 67.2436H9.58586C9.49845 67.2436 9.42773 67.1725 9.42773 67.0851C9.42773 66.9977 9.49845 66.9263 9.58586 66.9263H10.1242C10.2123 66.9263 10.283 66.9977 10.283 67.0851C10.283 67.1725 10.2123 67.2436 10.1242 67.2436Z" fill="#5EC7BE"/>
<path d="M109.515 100.176C109.427 100.176 109.356 100.105 109.356 100.018V98.2999H107.887C107.8 98.2999 107.729 98.2292 107.729 98.1418C107.729 98.0544 107.8 97.983 107.887 97.983H111.747V95.6114H108.903C108.815 95.6114 108.744 95.5404 108.744 95.453C108.744 95.3655 108.815 95.2941 108.903 95.2941H119.279C119.366 95.2941 119.437 95.3655 119.437 95.453C119.437 95.5404 119.366 95.6114 119.279 95.6114H112.064V97.983H122.391V95.6114H121.234C121.147 95.6114 121.075 95.5404 121.075 95.453C121.075 95.3655 121.147 95.2941 121.234 95.2941H122.55C122.55 95.2941 122.55 95.2941 122.55 95.2941H125.336C125.424 95.2941 125.495 95.3655 125.495 95.453C125.495 95.5404 125.424 95.6114 125.336 95.6114H122.709V97.983H124.21C124.297 97.983 124.368 98.0544 124.368 98.1418C124.368 98.2292 124.297 98.2999 124.21 98.2999H122.55C122.55 98.2999 122.55 98.2999 122.55 98.2999H109.673V100.018C109.673 100.105 109.603 100.176 109.515 100.176ZM106.718 98.2996H106.18C106.093 98.2996 106.021 98.2289 106.021 98.1415C106.021 98.0541 106.093 97.9826 106.18 97.9826H106.718C106.806 97.9826 106.877 98.0541 106.877 98.1415C106.877 98.2289 106.806 98.2996 106.718 98.2996Z" fill="#5EC7BE"/>
<path d="M189.409 107.902C189.321 107.902 189.25 107.83 189.25 107.743V106.026H177.903C177.816 106.026 177.745 105.954 177.745 105.867C177.745 105.779 177.816 105.708 177.903 105.708H179.405V103.337H176.778C176.69 103.337 176.619 103.266 176.619 103.179C176.619 103.091 176.69 103.02 176.778 103.02H180.88C180.967 103.02 181.039 103.091 181.039 103.179C181.039 103.266 180.967 103.337 180.88 103.337H179.722V105.708H186.86V103.337H182.835C182.747 103.337 182.676 103.266 182.676 103.179C182.676 103.091 182.747 103.02 182.835 103.02H190.021C190.109 103.02 190.18 103.091 190.18 103.179C190.18 103.266 190.109 103.337 190.021 103.337H187.177V105.708H191.037C191.124 105.708 191.196 105.779 191.196 105.867C191.196 105.954 191.124 106.026 191.037 106.026H189.568V107.743C189.568 107.83 189.496 107.902 189.409 107.902ZM192.744 106.025H192.205C192.118 106.025 192.047 105.954 192.047 105.867C192.047 105.779 192.118 105.708 192.205 105.708H192.744C192.831 105.708 192.902 105.779 192.902 105.867C192.902 105.954 192.831 106.025 192.744 106.025Z" fill="#5EC7BE"/>
<path d="M80.2433 18.5855C80.1559 18.5855 80.0849 18.5141 80.0849 18.4267V16.7093H78.6152C78.5278 16.7093 78.4567 16.6379 78.4567 16.5505C78.4567 16.4627 78.5278 16.392 78.6152 16.392H82.4752V14.0204H79.6311C79.5437 14.0204 79.4726 13.949 79.4726 13.8616C79.4726 13.7738 79.5437 13.7031 79.6311 13.7031H90.007C90.0948 13.7031 90.1659 13.7738 90.1659 13.8616C90.1659 13.949 90.0948 14.0204 90.007 14.0204H82.7926V16.392H93.1198V14.0204H91.9621C91.8747 14.0204 91.8036 13.949 91.8036 13.8616C91.8036 13.7738 91.8747 13.7031 91.9621 13.7031H93.2779C93.2779 13.7031 93.2779 13.7031 93.2786 13.7031H96.0645C96.1523 13.7031 96.223 13.7738 96.223 13.8616C96.223 13.949 96.1523 14.0204 96.0645 14.0204H93.4371V16.392H94.9384C95.0258 16.392 95.0966 16.4627 95.0966 16.5505C95.0966 16.6379 95.0258 16.7093 94.9384 16.7093H93.2786C93.2779 16.7093 93.2779 16.7093 93.2779 16.7093H80.4018V18.4267C80.4018 18.5144 80.3308 18.5855 80.2433 18.5855ZM77.4465 16.7093H76.9081C76.8207 16.7093 76.75 16.6379 76.75 16.5505C76.75 16.4627 76.8207 16.392 76.9081 16.392H77.4465C77.5346 16.392 77.6053 16.4627 77.6053 16.5505C77.6053 16.6382 77.5346 16.7093 77.4465 16.7093Z" fill="#5EC7BE"/>
<path d="M125.465 48.0712C125.378 48.0712 125.307 47.9998 125.307 47.9124V46.195H123.837C123.749 46.195 123.678 46.1236 123.678 46.0362C123.678 45.9484 123.749 45.8777 123.837 45.8777H127.697V43.5062H124.853C124.765 43.5062 124.694 43.4347 124.694 43.3473C124.694 43.2596 124.765 43.1888 124.853 43.1888H135.229C135.316 43.1888 135.388 43.2596 135.388 43.3473C135.388 43.4347 135.316 43.5062 135.229 43.5062H128.014V45.8777H138.341V43.5062H137.184C137.096 43.5062 137.025 43.4347 137.025 43.3473C137.025 43.2596 137.096 43.1888 137.184 43.1888H141.286C141.374 43.1888 141.445 43.2596 141.445 43.3473C141.445 43.4347 141.374 43.5062 141.286 43.5062H138.659V45.8777H140.16C140.248 45.8777 140.319 45.9484 140.319 46.0362C140.319 46.1236 140.248 46.195 140.16 46.195H125.624V47.9124C125.624 47.9998 125.553 48.0712 125.465 48.0712ZM122.668 46.195H122.131C122.043 46.195 121.972 46.1236 121.972 46.0362C121.972 45.9484 122.043 45.8777 122.131 45.8777H122.668C122.756 45.8777 122.827 45.9484 122.827 46.0362C122.827 46.1236 122.756 46.195 122.668 46.195Z" fill="#5EC7BE"/>
<path d="M98.2227 64.5967H95.4368H94.1207C94.0325 64.5967 93.9618 64.5256 93.9618 64.4382C93.9618 64.3501 94.0325 64.2793 94.1207 64.2793H95.278V61.9078H84.9508V64.2793H92.1656C92.253 64.2793 92.3244 64.3501 92.3244 64.4382C92.3244 64.5256 92.253 64.5967 92.1656 64.5967H81.7896C81.7019 64.5967 81.6312 64.5256 81.6312 64.4382C81.6312 64.3501 81.7019 64.2793 81.7896 64.2793H84.6338V61.9078H82.4101C82.4047 61.9078 82.3987 61.9078 82.3934 61.9078H80.7737C80.686 61.9078 80.6145 61.8367 80.6145 61.7493C80.6145 61.6612 80.686 61.5905 80.7737 61.5905H82.2427V59.8731C82.2427 59.7857 82.3138 59.7143 82.4015 59.7143C82.4893 59.7143 82.56 59.7857 82.56 59.8731V61.5905H95.4365H97.0963C97.184 61.5905 97.2551 61.6612 97.2551 61.7493C97.2551 61.8367 97.184 61.9078 97.0963 61.9078H95.5953V64.2793H98.2223C98.3105 64.2793 98.3815 64.3501 98.3815 64.4382C98.3822 64.5252 98.3108 64.5967 98.2227 64.5967ZM79.605 61.9078H79.067C78.9793 61.9078 78.9082 61.8367 78.9082 61.7493C78.9082 61.6612 78.9793 61.5905 79.067 61.5905H79.605C79.6924 61.5905 79.7635 61.6612 79.7635 61.7493C79.7635 61.8367 79.6924 61.9078 79.605 61.9078Z" fill="#5EC7BE"/>
<path d="M121.847 78.0147C121.76 78.0147 121.689 77.9436 121.689 77.8562V76.1388H120.22C120.133 76.1388 120.061 76.0674 120.061 75.98C120.061 75.8926 120.133 75.8219 120.22 75.8219H124.08V73.4503H121.236C121.149 73.4503 121.077 73.3789 121.077 73.2915C121.077 73.2041 121.149 73.133 121.236 73.133H131.612C131.699 73.133 131.77 73.2041 131.77 73.2915C131.77 73.3789 131.699 73.4503 131.612 73.4503H124.397V75.8219H134.724V73.4503H133.567C133.479 73.4503 133.408 73.3789 133.408 73.2915C133.408 73.2041 133.479 73.133 133.567 73.133H134.883C134.883 73.133 134.883 73.133 134.883 73.133H137.669C137.756 73.133 137.827 73.2041 137.827 73.2915C137.827 73.3789 137.756 73.4503 137.669 73.4503H135.042V75.8219H136.543C136.63 75.8219 136.701 75.8926 136.701 75.98C136.701 76.0674 136.63 76.1388 136.543 76.1388H134.883C134.883 76.1388 134.883 76.1388 134.883 76.1388H122.006V77.8562C122.006 77.9436 121.935 78.0147 121.847 78.0147ZM119.051 76.1388H118.513C118.426 76.1388 118.354 76.0674 118.354 75.98C118.354 75.8926 118.426 75.8219 118.513 75.8219H119.051C119.139 75.8219 119.21 75.8926 119.21 75.98C119.21 76.0674 119.139 76.1388 119.051 76.1388Z" fill="#5EC7BE"/>
<path d="M56.0593 16.839C55.9712 16.839 55.9001 16.7683 55.9001 16.6802V16.2964C55.9001 16.209 55.9712 16.1375 56.0593 16.1375C56.1464 16.1375 56.2175 16.209 56.2175 16.2964V16.6802C56.2175 16.7683 56.1464 16.839 56.0593 16.839ZM57.0728 15.8256H56.689C56.6012 15.8256 56.5298 15.7548 56.5298 15.6667C56.5298 15.5793 56.6012 15.5082 56.689 15.5082H57.0728C57.1602 15.5082 57.2309 15.5793 57.2309 15.6667C57.2309 15.7545 57.1602 15.8256 57.0728 15.8256ZM55.4297 15.8256H55.0459C54.9581 15.8256 54.8867 15.7548 54.8867 15.6667C54.8867 15.5793 54.9581 15.5082 55.0459 15.5082H55.4297C55.5171 15.5082 55.5878 15.5793 55.5878 15.6667C55.5878 15.7545 55.5171 15.8256 55.4297 15.8256ZM56.0593 15.1959C55.9712 15.1959 55.9001 15.1252 55.9001 15.0374V14.6533C55.9001 14.5655 55.9712 14.4948 56.0593 14.4948C56.1464 14.4948 56.2175 14.5655 56.2175 14.6533V15.0374C56.2175 15.1248 56.1464 15.1959 56.0593 15.1959Z" fill="white"/>
<path d="M123.886 27.5841C123.798 27.5841 123.727 27.5127 123.727 27.4253V27.0415C123.727 26.9534 123.798 26.8826 123.886 26.8826C123.973 26.8826 124.044 26.9534 124.044 27.0415V27.4253C124.044 27.5127 123.973 27.5841 123.886 27.5841ZM124.899 26.5699H124.515C124.428 26.5699 124.357 26.4992 124.357 26.4115C124.357 26.324 124.428 26.2526 124.515 26.2526H124.899C124.987 26.2526 125.058 26.324 125.058 26.4115C125.058 26.4992 124.987 26.5699 124.899 26.5699ZM123.256 26.5699H122.872C122.785 26.5699 122.714 26.4992 122.714 26.4115C122.714 26.324 122.785 26.2526 122.872 26.2526H123.256C123.344 26.2526 123.415 26.324 123.415 26.4115C123.415 26.4992 123.344 26.5699 123.256 26.5699ZM123.886 25.9406C123.798 25.9406 123.727 25.8699 123.727 25.7818V25.398C123.727 25.3099 123.798 25.2392 123.886 25.2392C123.973 25.2392 124.044 25.3099 124.044 25.398V25.7818C124.044 25.8699 123.973 25.9406 123.886 25.9406Z" fill="white"/>
<path d="M37.4236 47.5979C37.3358 47.5979 37.2644 47.5268 37.2644 47.4394V47.0553C37.2644 46.9675 37.3358 46.8968 37.4236 46.8968C37.511 46.8968 37.5817 46.9675 37.5817 47.0553V47.4394C37.5817 47.5268 37.511 47.5979 37.4236 47.5979ZM38.4367 46.5841H38.0529C37.9651 46.5841 37.8937 46.5134 37.8937 46.4253C37.8937 46.3378 37.9651 46.2664 38.0529 46.2664H38.4367C38.5241 46.2664 38.5948 46.3378 38.5948 46.4253C38.5952 46.5134 38.5241 46.5841 38.4367 46.5841ZM36.7939 46.5841H36.4095C36.3217 46.5841 36.251 46.5134 36.251 46.4253C36.251 46.3378 36.3217 46.2664 36.4095 46.2664H36.7939C36.8813 46.2664 36.9521 46.3378 36.9521 46.4253C36.9524 46.5134 36.8813 46.5841 36.7939 46.5841ZM37.4236 45.9544C37.3358 45.9544 37.2644 45.8837 37.2644 45.7956V45.4118C37.2644 45.3244 37.3358 45.253 37.4236 45.253C37.511 45.253 37.5817 45.3244 37.5817 45.4118V45.7956C37.5817 45.8837 37.511 45.9544 37.4236 45.9544Z" fill="white"/>
<path d="M27.6036 93.5419C27.5158 93.5419 27.4447 93.4709 27.4447 93.3835V92.9997C27.4447 92.9123 27.5158 92.8409 27.6036 92.8409C27.6913 92.8409 27.762 92.9123 27.762 92.9997V93.3835C27.762 93.4705 27.6913 93.5419 27.6036 93.5419ZM28.617 92.5282H28.2329C28.1454 92.5282 28.0747 92.4571 28.0747 92.3697C28.0747 92.2823 28.1454 92.2112 28.2329 92.2112H28.617C28.7051 92.2112 28.7758 92.2823 28.7758 92.3697C28.7758 92.4571 28.7051 92.5282 28.617 92.5282ZM26.9735 92.5282H26.5898C26.5024 92.5282 26.4316 92.4571 26.4316 92.3697C26.4316 92.2823 26.5024 92.2112 26.5898 92.2112H26.9735C27.0617 92.2112 27.1327 92.2823 27.1327 92.3697C27.1327 92.4571 27.0617 92.5282 26.9735 92.5282ZM27.6036 91.8988C27.5158 91.8988 27.4447 91.8278 27.4447 91.7404V91.3566C27.4447 91.2692 27.5158 91.1981 27.6036 91.1981C27.6913 91.1981 27.762 91.2692 27.762 91.3566V91.7404C27.762 91.8274 27.6913 91.8988 27.6036 91.8988Z" fill="white"/>
<path d="M87.9164 77.848C87.829 77.848 87.7576 77.7766 87.7576 77.6895V77.3057C87.7576 77.2183 87.829 77.1469 87.9164 77.1469C88.0038 77.1469 88.0749 77.2183 88.0749 77.3057V77.6895C88.0752 77.7762 88.0042 77.848 87.9164 77.848ZM88.9298 76.8342H88.5461C88.4583 76.8342 88.3869 76.7631 88.3869 76.6757C88.3869 76.5883 88.4583 76.5172 88.5461 76.5172H88.9298C89.0172 76.5172 89.088 76.5883 89.088 76.6757C89.088 76.7631 89.0172 76.8342 88.9298 76.8342ZM87.2867 76.8342H86.903C86.8152 76.8342 86.7441 76.7631 86.7441 76.6757C86.7441 76.5883 86.8152 76.5172 86.903 76.5172H87.2867C87.3742 76.5172 87.4449 76.5883 87.4449 76.6757C87.4449 76.7631 87.3742 76.8342 87.2867 76.8342ZM87.9164 76.2049C87.829 76.2049 87.7576 76.1338 87.7576 76.0464V75.6626C87.7576 75.5752 87.829 75.5042 87.9164 75.5042C88.0038 75.5042 88.0749 75.5752 88.0749 75.6626V76.0464C88.0752 76.1335 88.0042 76.2049 87.9164 76.2049Z" fill="white"/>
<path d="M127.411 86.212C127.323 86.212 127.252 86.1409 127.252 86.0535V85.6697C127.252 85.5823 127.323 85.5112 127.411 85.5112C127.498 85.5112 127.569 85.5823 127.569 85.6697V86.0535C127.569 86.1409 127.498 86.212 127.411 86.212ZM128.424 85.1985H128.04C127.953 85.1985 127.882 85.1275 127.882 85.0397C127.882 84.9523 127.953 84.8816 128.04 84.8816H128.424C128.511 84.8816 128.583 84.9523 128.583 85.0397C128.583 85.1275 128.511 85.1985 128.424 85.1985ZM126.781 85.1985H126.397C126.309 85.1985 126.238 85.1275 126.238 85.0397C126.238 84.9523 126.309 84.8816 126.397 84.8816H126.781C126.869 84.8816 126.94 84.9523 126.94 85.0397C126.94 85.1275 126.869 85.1985 126.781 85.1985ZM127.411 84.5692C127.323 84.5692 127.252 84.4982 127.252 84.4104V84.0263C127.252 83.9389 127.323 83.8678 127.411 83.8678C127.498 83.8678 127.569 83.9389 127.569 84.0263V84.4104C127.569 84.4978 127.498 84.5692 127.411 84.5692Z" fill="white"/>
<path d="M149.908 53.6419C149.821 53.6419 149.749 53.5708 149.749 53.4834V53.0993C149.749 53.0115 149.821 52.9408 149.908 52.9408C149.995 52.9408 150.067 53.0115 150.067 53.0993V53.4834C150.067 53.5708 149.995 53.6419 149.908 53.6419ZM150.921 52.6281H150.538C150.45 52.6281 150.379 52.5574 150.379 52.4693C150.379 52.3819 150.45 52.3108 150.538 52.3108H150.921C151.009 52.3108 151.08 52.3819 151.08 52.4693C151.08 52.5574 151.009 52.6281 150.921 52.6281ZM149.278 52.6281H148.894C148.806 52.6281 148.735 52.5574 148.735 52.4693C148.735 52.3819 148.806 52.3108 148.894 52.3108H149.278C149.366 52.3108 149.437 52.3819 149.437 52.4693C149.437 52.5574 149.366 52.6281 149.278 52.6281ZM149.908 51.9984C149.821 51.9984 149.749 51.9277 149.749 51.84V51.4558C149.749 51.3684 149.821 51.2974 149.908 51.2974C149.995 51.2974 150.067 51.3684 150.067 51.4558V51.84C150.067 51.9277 149.995 51.9984 149.908 51.9984Z" fill="white"/>
<path d="M188.858 52.6349C188.77 52.6349 188.699 52.5634 188.699 52.476V52.0923C188.699 52.0041 188.77 51.9334 188.858 51.9334C188.945 51.9334 189.016 52.0041 189.016 52.0923V52.476C189.016 52.5634 188.945 52.6349 188.858 52.6349ZM189.871 51.6214H189.487C189.4 51.6214 189.329 51.55 189.329 51.4626C189.329 51.3748 189.4 51.3038 189.487 51.3038H189.871C189.958 51.3038 190.03 51.3748 190.03 51.4626C190.03 51.55 189.958 51.6214 189.871 51.6214ZM188.228 51.6214H187.844C187.757 51.6214 187.686 51.55 187.686 51.4626C187.686 51.3748 187.757 51.3038 187.844 51.3038H188.228C188.315 51.3038 188.387 51.3748 188.387 51.4626C188.387 51.55 188.315 51.6214 188.228 51.6214ZM188.858 50.9918C188.77 50.9918 188.699 50.9207 188.699 50.8333V50.4488C188.699 50.3614 188.77 50.29 188.858 50.29C188.945 50.29 189.016 50.3614 189.016 50.4488V50.8333C189.016 50.9204 188.945 50.9918 188.858 50.9918Z" fill="white"/>
<path d="M210.011 87.8906C209.924 87.8906 209.853 87.8196 209.853 87.7321V87.3484C209.853 87.261 209.924 87.1899 210.011 87.1899C210.099 87.1899 210.17 87.261 210.17 87.3484V87.7321C210.17 87.8196 210.099 87.8906 210.011 87.8906ZM211.025 86.8776H210.641C210.554 86.8776 210.483 86.8061 210.483 86.7191C210.483 86.6317 210.554 86.5606 210.641 86.5606H211.025C211.112 86.5606 211.183 86.6317 211.183 86.7191C211.183 86.8061 211.112 86.8776 211.025 86.8776ZM209.382 86.8776H208.998C208.91 86.8776 208.839 86.8061 208.839 86.7191C208.839 86.6317 208.91 86.5606 208.998 86.5606H209.382C209.469 86.5606 209.541 86.6317 209.541 86.7191C209.541 86.8061 209.469 86.8776 209.382 86.8776ZM210.011 86.2479C209.924 86.2479 209.853 86.1765 209.853 86.089V85.7049C209.853 85.6175 209.924 85.5464 210.011 85.5464C210.099 85.5464 210.17 85.6175 210.17 85.7049V86.089C210.17 86.1765 210.099 86.2479 210.011 86.2479Z" fill="white"/>
<path d="M180.463 95.6139C180.376 95.6139 180.304 95.5425 180.304 95.4551V95.0713C180.304 94.9839 180.376 94.9128 180.463 94.9128C180.55 94.9128 180.622 94.9839 180.622 95.0713V95.4551C180.622 95.5425 180.55 95.6139 180.463 95.6139ZM181.476 94.6005H181.093C181.005 94.6005 180.934 94.529 180.934 94.4416C180.934 94.3542 181.005 94.2828 181.093 94.2828H181.476C181.564 94.2828 181.635 94.3542 181.635 94.4416C181.635 94.529 181.564 94.6005 181.476 94.6005ZM179.833 94.6005H179.449C179.362 94.6005 179.291 94.529 179.291 94.4416C179.291 94.3542 179.362 94.2828 179.449 94.2828H179.833C179.921 94.2828 179.992 94.3542 179.992 94.4416C179.992 94.529 179.921 94.6005 179.833 94.6005ZM180.463 93.9708C180.376 93.9708 180.304 93.8997 180.304 93.8123V93.4282C180.304 93.3408 180.376 93.2697 180.463 93.2697C180.55 93.2697 180.622 93.3408 180.622 93.4282V93.8123C180.622 93.8994 180.55 93.9708 180.463 93.9708Z" fill="white"/>
<path d="M122.249 64.9207C122.161 64.9207 122.09 64.8496 122.09 64.7619V64.3777C122.09 64.2903 122.161 64.2193 122.249 64.2193C122.336 64.2193 122.408 64.2907 122.408 64.3777V64.7619C122.408 64.8496 122.336 64.9207 122.249 64.9207ZM123.262 63.9073H122.878C122.791 63.9073 122.72 63.8359 122.72 63.7484C122.72 63.6603 122.791 63.5896 122.878 63.5896H123.262C123.35 63.5896 123.421 63.6603 123.421 63.7484C123.421 63.8359 123.35 63.9073 123.262 63.9073ZM121.619 63.9073H121.235C121.148 63.9073 121.076 63.8359 121.076 63.7484C121.076 63.6603 121.148 63.5896 121.235 63.5896H121.619C121.706 63.5896 121.777 63.6603 121.777 63.7484C121.777 63.8359 121.706 63.9073 121.619 63.9073ZM122.249 63.2776C122.161 63.2776 122.09 63.2062 122.09 63.1188V62.735C122.09 62.6469 122.161 62.5762 122.249 62.5762C122.336 62.5762 122.408 62.6469 122.408 62.735V63.1188C122.408 63.2062 122.336 63.2776 122.249 63.2776Z" fill="white"/>
<path d="M113.178 75.2373C113.165 75.2373 113.152 75.2363 113.139 75.2345L112.511 75.1588C112.337 75.1375 112.212 74.9797 112.234 74.8056C112.255 74.6318 112.417 74.506 112.587 74.5291L113.216 74.6052C113.39 74.6261 113.514 74.7843 113.492 74.958C113.473 75.119 113.336 75.2373 113.178 75.2373ZM112.212 73.7854C112.089 73.7854 111.973 73.714 111.921 73.5946C111.851 73.434 111.925 73.2471 112.085 73.1774L112.95 72.8C113.112 72.7304 113.298 72.8032 113.368 72.9642C113.438 73.1252 113.364 73.3121 113.204 73.3817L112.339 73.7588C112.297 73.7765 112.254 73.7854 112.212 73.7854ZM111.339 72.5556C111.273 72.5556 111.204 72.5339 111.147 72.4898C111.008 72.3832 110.981 72.1842 111.088 72.045L111.436 71.5901C111.543 71.4512 111.742 71.4238 111.881 71.5311C112.02 71.6374 112.047 71.8364 111.94 71.9757L111.592 72.4305C111.529 72.5129 111.435 72.5556 111.339 72.5556Z" fill="white"/>
<path d="M23.6903 50.4608H18.377C18.3123 50.4608 18.2536 50.4213 18.2298 50.3616C17.5071 48.5668 17.0945 46.5801 17.0021 44.4562C17 44.4132 17.016 44.371 17.0462 44.34C17.0761 44.3088 17.1169 44.291 17.1606 44.291H21.0189C21.9609 44.291 22.8318 44.0426 23.6054 43.553C23.6545 43.522 23.7166 43.5206 23.7667 43.5476C23.8176 43.5757 23.8485 43.629 23.8485 43.6866V50.3019C23.8492 50.3897 23.7785 50.4608 23.6903 50.4608ZM18.4846 50.1431H23.5319V43.9659C22.7693 44.3923 21.9254 44.6083 21.0193 44.6083H17.3269C17.4293 46.594 17.8184 48.4552 18.4846 50.1431Z" fill="white"/>
<path d="M23.6897 57.0759C23.6634 57.0759 23.6375 57.0691 23.6133 57.0563C23.5622 57.0283 23.5312 56.9749 23.5312 56.9174V50.302C23.5312 50.2146 23.602 50.1432 23.6897 50.1432H29.0031C29.0554 50.1432 29.1048 50.1695 29.1342 50.2132C29.1637 50.2569 29.1701 50.3123 29.1499 50.3614C28.5792 51.7795 27.8088 53.0882 26.8594 54.2506C26.1263 55.1481 25.3094 55.9356 24.431 56.5912C24.2377 56.7351 24.0088 56.9021 23.775 57.0506C23.7487 57.0673 23.7196 57.0759 23.6897 57.0759ZM23.8486 50.4605V56.6207C23.9879 56.5244 24.1218 56.4263 24.2412 56.3371C25.099 55.6971 25.8971 54.9275 26.6138 54.0498C27.4944 52.9717 28.2171 51.7653 28.7665 50.4605H23.8486Z" fill="white"/>
<path fill-rule="evenodd" clip-rule="evenodd" d="M23.6895 43.6863C24.4872 44.1916 25.3805 44.4493 26.3609 44.4493C27.6469 44.4493 28.9328 44.4493 30.2192 44.4493C30.1318 46.4782 29.7455 48.4571 29.0028 50.3017H23.6895V43.6863Z" fill="#6DD6CD"/>
<path d="M29.0031 50.4605H23.6897C23.602 50.4605 23.5312 50.3895 23.5312 50.3017V43.6863C23.5312 43.6288 23.5625 43.5751 23.6133 43.5474C23.6641 43.5204 23.726 43.5215 23.7743 43.5527C24.5479 44.0424 25.4185 44.2908 26.3608 44.2908H30.2191C30.2628 44.2908 30.3037 44.3082 30.3335 44.3398C30.3637 44.3707 30.3801 44.4134 30.3776 44.456C30.2852 46.5795 29.8726 48.5662 29.1495 50.3614C29.1261 50.4211 29.0674 50.4605 29.0031 50.4605ZM23.8482 50.1428H28.8955C29.5617 48.4546 29.9508 46.5937 30.0532 44.6077H26.3608C25.4543 44.6077 24.6108 44.3917 23.8482 43.9653V50.1428Z" fill="white"/>
<path fill-rule="evenodd" clip-rule="evenodd" d="M23.6894 56.9171C23.4659 56.7749 23.2491 56.6175 23.0437 56.464C22.1525 55.7995 21.3452 55.0107 20.6427 54.15C19.674 52.9639 18.9271 51.6698 18.376 50.3017H23.6894V56.9171Z" fill="#6DD6CD"/>
<path d="M23.6897 57.0759C23.6605 57.0759 23.6307 57.0677 23.6044 57.051C23.3695 56.9014 23.141 56.7348 22.9484 56.5916C22.0697 55.9356 21.2528 55.1482 20.52 54.2509C19.5713 53.0886 18.8002 51.7802 18.2295 50.3617C18.2093 50.3127 18.2157 50.2573 18.2452 50.2136C18.2746 50.1699 18.324 50.1436 18.3763 50.1436H23.6897C23.7774 50.1436 23.8482 50.215 23.8482 50.3024V56.9178C23.8482 56.9753 23.8169 57.029 23.7664 57.0567C23.7423 57.0691 23.7163 57.0759 23.6897 57.0759ZM18.6133 50.4605C19.1626 51.766 19.8861 52.9721 20.7659 54.0498C21.4827 54.9275 22.2807 55.6968 23.1385 56.3371C23.2586 56.4263 23.3915 56.5248 23.5312 56.6214V50.4609H18.6133V50.4605Z" fill="white"/>
<path d="M189.898 70.6111H186.184C185.06 70.6111 184.146 69.6964 184.146 68.5729V67.6703C184.146 67.4955 184.288 67.353 184.463 67.353C184.639 67.353 184.781 67.4951 184.781 67.6703V68.5729C184.781 69.3468 185.41 69.9764 186.184 69.9764H189.898C190.672 69.9764 191.302 69.3468 191.302 68.5729V67.6703C191.302 67.4955 191.444 67.353 191.619 67.353C191.795 67.353 191.937 67.4951 191.937 67.6703V68.5729C191.936 69.6964 191.022 70.6111 189.898 70.6111Z" fill="white"/>
<path d="M198.305 71.4507C198.13 71.4507 197.987 71.3086 197.987 71.1331V65.4459C197.987 65.2707 198.129 65.1285 198.305 65.1285C198.481 65.1285 198.622 65.2707 198.622 65.4459V71.1331C198.622 71.3083 198.48 71.4507 198.305 71.4507Z" fill="white"/>
<path fill-rule="evenodd" clip-rule="evenodd" d="M187.549 71.7698L187.896 71.423L187.901 71.4184C187.94 71.3815 187.991 71.363 188.041 71.363C188.093 71.363 188.146 71.3825 188.186 71.423L188.533 71.7698C188.572 71.8089 188.593 71.8619 188.593 71.9141C188.593 71.9663 188.572 72.0189 188.533 72.0584H188.533L188.533 72.0591L188.186 72.4059L188.184 72.407L188.181 72.4105C188.141 72.4475 188.092 72.4656 188.041 72.4656C187.989 72.4656 187.936 72.445 187.896 72.4059L187.549 72.0591C187.51 72.0189 187.489 71.9667 187.489 71.9141C187.489 71.8626 187.51 71.8089 187.549 71.7698Z" fill="white"/>
<path d="M176.966 70.6111H173.252C172.129 70.6111 171.214 69.6964 171.214 68.5729V67.6703C171.214 67.4955 171.356 67.353 171.532 67.353C171.707 67.353 171.849 67.4951 171.849 67.6703V68.5729C171.849 69.3468 172.479 69.9764 173.252 69.9764H176.967C177.741 69.9764 178.37 69.3468 178.37 68.5729V67.6703C178.37 67.4955 178.512 67.353 178.688 67.353C178.863 67.353 179.005 67.4951 179.005 67.6703V68.5729C179.005 69.6964 178.09 70.6111 176.966 70.6111Z" fill="white"/>
<path fill-rule="evenodd" clip-rule="evenodd" d="M173.846 66.481L174.193 66.1342L174.198 66.1302C174.237 66.0933 174.288 66.0741 174.338 66.0741C174.39 66.0741 174.443 66.0944 174.483 66.1342L174.83 66.481C174.869 66.5204 174.89 66.5733 174.89 66.6256C174.89 66.6778 174.869 66.7304 174.83 66.7699H174.829H174.83L174.483 67.1174L174.481 67.1188L174.478 67.122C174.439 67.1582 174.388 67.1771 174.338 67.1771C174.286 67.1771 174.233 67.1565 174.193 67.1174L173.846 66.7699C173.806 66.7304 173.786 66.6778 173.786 66.6256C173.786 66.5733 173.806 66.5208 173.846 66.481Z" fill="white"/>
<path fill-rule="evenodd" clip-rule="evenodd" d="M175.389 66.481L175.735 66.1342L175.74 66.1302C175.779 66.0933 175.83 66.0741 175.88 66.0741C175.933 66.0741 175.985 66.0944 176.025 66.1342L176.372 66.481C176.411 66.5204 176.432 66.5733 176.432 66.6256C176.432 66.6778 176.411 66.7304 176.372 66.7699H176.371H176.372L176.025 67.1174L176.023 67.1188L176.02 67.122C175.981 67.1582 175.93 67.1771 175.88 67.1771C175.828 67.1771 175.775 67.1565 175.735 67.1174L175.389 66.7699C175.348 66.7304 175.328 66.6778 175.328 66.6256C175.328 66.5733 175.348 66.5208 175.389 66.481Z" fill="white"/>
<path d="M173.925 76.6654C173.702 76.6654 173.494 76.5744 173.339 76.4085L171.33 74.2725H169.003C167.918 74.2725 167.035 73.3895 167.035 72.3043V64.1454C167.035 63.0601 167.918 62.1771 169.003 62.1771H200.834C201.919 62.1771 202.802 63.0601 202.802 64.1454V72.3043C202.802 73.3895 201.919 74.2725 200.834 74.2725H176.519L174.509 76.4099C174.354 76.5748 174.147 76.6654 173.925 76.6654ZM169.003 62.6213C168.163 62.6213 167.479 63.305 167.479 64.1454V72.3043C167.479 73.1447 168.163 73.8284 169.003 73.8284H171.426C171.488 73.8284 171.546 73.8539 171.588 73.8984L173.662 76.1047C173.803 76.255 174.046 76.2546 174.186 76.1061L176.261 73.8984C176.303 73.8539 176.361 73.8284 176.423 73.8284H200.834C201.674 73.8284 202.357 73.1447 202.357 72.3043V64.1454C202.357 63.305 201.674 62.6213 200.834 62.6213H169.003Z" fill="white"/>
<g opacity="0.2">
<path opacity="0.2" fill-rule="evenodd" clip-rule="evenodd" d="M109.167 26.452C115.823 33.0958 115.833 43.8765 109.189 50.5316C103.304 56.4278 94.1711 57.1068 87.5366 52.5656L82.5885 53.541C82.3177 53.5943 82.0604 53.5161 81.8654 53.321C81.6703 53.1267 81.5917 52.8694 81.6443 52.5986L82.6492 47.4505C78.5902 40.8905 79.4011 32.1705 85.0883 26.4737C91.7317 19.8185 102.512 19.8093 109.167 26.452Z" fill="#D8EDEE"/>
</g>
<path d="M97.1397 55.846C93.6705 55.846 90.33 54.8287 87.4688 52.9027L82.6507 53.8526C82.273 53.9268 81.908 53.8113 81.6423 53.5459C81.374 53.278 81.2613 52.9106 81.3338 52.5382L82.3149 47.5112C78.1457 40.6648 79.1854 31.9391 84.8648 26.2498C88.1418 22.9668 92.5011 21.1588 97.1397 21.1588C101.767 21.1588 106.118 22.959 109.392 26.2277C112.672 29.5008 114.479 33.8544 114.483 38.487C114.488 43.1202 112.687 47.4767 109.415 50.7554C106.138 54.0377 101.779 55.8453 97.1408 55.8457C97.1408 55.846 97.1404 55.846 97.1397 55.846ZM87.5373 52.2486C87.6006 52.2486 87.6631 52.2674 87.7164 52.3036C90.4959 54.2061 93.7544 55.2117 97.1397 55.2117C97.1408 55.2117 97.1408 55.2117 97.1411 55.2117C101.61 55.2114 105.809 53.4699 108.965 50.3077C112.118 47.1487 113.853 42.9511 113.849 38.4884C113.845 34.025 112.103 29.8302 108.944 26.6772C105.789 23.5282 101.597 21.7938 97.1393 21.7938C92.6702 21.7938 88.4705 23.5357 85.3136 26.6982C79.8137 32.2077 78.8294 40.673 82.92 47.2841C82.962 47.3516 82.9769 47.433 82.9613 47.5119L81.9564 52.66C81.924 52.8263 81.9702 52.9777 82.09 53.0971C82.2119 53.2179 82.3632 53.2627 82.5278 53.23L87.4755 52.2546C87.4961 52.2503 87.5171 52.2486 87.5373 52.2486Z" fill="white"/>
<path d="M101.864 50.2548C101.782 50.2548 101.7 50.2438 101.62 50.2225L87.2607 46.3748C87.0219 46.3109 86.8211 46.1577 86.6939 45.9435C86.6922 45.9406 86.6904 45.9378 86.6893 45.9353C86.5635 45.7171 86.5301 45.4634 86.5944 45.2214L91.4121 27.2419C91.4779 26.9989 91.6335 26.7956 91.852 26.6702C92.066 26.5469 92.3268 26.5121 92.5666 26.5757L106.926 30.4236C107.169 30.4887 107.372 30.645 107.498 30.8636C107.623 31.081 107.657 31.3347 107.592 31.5774L102.774 49.5573C102.709 49.7996 102.554 50.0022 102.335 50.1283C102.329 50.1322 102.323 50.1354 102.317 50.139C102.171 50.2164 102.018 50.2548 101.864 50.2548ZM87.2355 45.6119C87.2383 45.6162 87.2415 45.6212 87.2433 45.6258C87.282 45.6915 87.3474 45.7413 87.4252 45.7622L101.786 49.6102C101.863 49.6312 101.945 49.6198 102.015 49.5804C102.017 49.5793 102.019 49.5779 102.022 49.5765C102.092 49.5349 102.141 49.4699 102.162 49.3927L106.98 31.4125C107.001 31.3337 106.99 31.2512 106.948 31.1798C106.907 31.108 106.842 31.0569 106.763 31.0359L92.4025 27.1879C92.325 27.1666 92.2401 27.179 92.1694 27.2188C92.0976 27.2604 92.0468 27.3265 92.0262 27.4054L87.2085 45.3852C87.1875 45.4616 87.1974 45.5416 87.2355 45.6119Z" fill="white"/>
<path d="M100.029 47.5468C100.009 47.5468 99.9901 47.5443 99.9706 47.539L90.0317 44.876C89.9749 44.8608 89.9259 44.8235 89.8964 44.7723C89.8672 44.7211 89.8594 44.6607 89.874 44.6039C89.9447 44.3413 89.9081 44.0659 89.7709 43.8281C89.6334 43.5908 89.4134 43.4209 89.1508 43.3509C89.094 43.3356 89.0453 43.2983 89.0162 43.2475C88.9863 43.1964 88.9789 43.1356 88.9938 43.0787L92.4189 30.2961C92.4342 30.2392 92.4711 30.1909 92.5227 30.1614C92.5735 30.1319 92.6339 30.1245 92.6911 30.139C92.7771 30.1621 92.8652 30.1742 92.9537 30.1742C93.4171 30.1742 93.8239 29.8626 93.9433 29.4159C93.9593 29.3591 93.9959 29.3107 94.0471 29.2812C94.0982 29.2518 94.1583 29.2432 94.2155 29.2589L104.155 31.9218C104.212 31.9371 104.261 31.9744 104.29 32.0255C104.32 32.0767 104.327 32.1371 104.312 32.194C104.166 32.7387 104.491 33.3012 105.035 33.4469C105.154 33.4785 105.224 33.6004 105.193 33.7191L101.768 46.5017C101.752 46.5586 101.715 46.6069 101.664 46.6364C101.613 46.6659 101.553 46.6741 101.495 46.6588C100.958 46.5149 100.384 46.8507 100.242 47.3819C100.216 47.4814 100.126 47.5468 100.029 47.5468ZM90.3448 44.5001L99.8874 47.0571C100.14 46.4836 100.752 46.1176 101.392 46.189L104.71 33.8026C104.125 33.5464 103.771 32.9334 103.842 32.2988L94.2994 29.7418C94.068 30.2677 93.5428 30.6187 92.954 30.6187C92.9011 30.6187 92.8482 30.6163 92.7949 30.6102L89.4763 42.9967C89.7603 43.1207 89.9969 43.3317 90.1557 43.6068C90.3139 43.8814 90.3786 44.1924 90.3448 44.5001Z" fill="white"/>
<path d="M95.5088 44.6987H95.5071C95.4975 44.6987 95.4708 44.6973 95.4616 44.6962C95.4513 44.6944 95.4204 44.6891 95.4101 44.6862C95.4026 44.6841 95.3738 44.6749 95.3671 44.6717C95.3422 44.6653 95.3354 44.6592 95.3141 44.645C95.1922 44.5697 92.6377 42.9508 93.2336 41.0852C93.0328 41.0298 92.8612 40.9086 92.7503 40.743C92.6306 40.5661 92.594 40.361 92.6462 40.166C92.6899 40.0007 92.7983 39.8568 92.9479 39.7612C92.788 39.5057 92.6871 39.2321 92.6462 38.9429C92.6032 38.6369 92.6267 38.3107 92.718 37.9728L93.0904 36.5817C93.1814 36.2434 93.3239 35.9484 93.5136 35.7061C93.6938 35.4758 93.9183 35.2889 94.1841 35.1486C94.1013 34.9894 94.08 34.8142 94.1248 34.6465C94.1767 34.4546 94.3138 34.2915 94.5029 34.1987C94.6809 34.112 94.8952 34.0925 95.0935 34.1437C95.5103 32.2341 98.5317 32.1058 98.6653 32.1012C98.6874 32.0973 98.6895 32.1005 98.7119 32.1019L98.7122 32.3261L98.757 32.1086C98.7659 32.1108 98.794 32.1182 98.8029 32.1214C98.8096 32.1236 98.822 32.1289 98.8327 32.1332C98.8412 32.1367 98.8494 32.1406 98.8576 32.1449C98.8711 32.152 98.8832 32.1598 98.8952 32.1694C98.9944 32.2302 101.545 33.8548 100.953 35.7143C101.154 35.7694 101.326 35.8909 101.437 36.0565C101.556 36.2341 101.593 36.4392 101.541 36.6335C101.496 36.8009 101.389 36.9427 101.238 37.0383C101.399 37.2945 101.5 37.5677 101.541 37.8566C101.584 38.1618 101.56 38.4884 101.469 38.8267L101.096 40.2178C101.006 40.5554 100.863 40.85 100.673 41.093C100.493 41.3244 100.267 41.5113 100.002 41.6513C100.086 41.8151 100.106 41.9881 100.062 42.153C100.009 42.3481 99.8756 42.5073 99.6841 42.6008C99.5061 42.6878 99.2922 42.7077 99.0935 42.6555C98.6767 44.5647 95.6538 44.6937 95.5202 44.6987C95.5174 44.698 95.5113 44.6987 95.5088 44.6987ZM94.8703 34.5583C94.8092 34.5583 94.7498 34.5719 94.6987 34.5967C94.6241 34.6337 94.5725 34.6916 94.5541 34.7605C94.5356 34.8295 94.5505 34.9052 94.5971 34.9745C94.618 35.0061 94.6432 35.0334 94.6734 35.0576C94.7335 35.1052 94.7641 35.1798 94.7552 35.2555C94.7474 35.3312 94.7001 35.3973 94.6315 35.4311C94.2915 35.565 94.0466 35.7434 93.8629 35.979C93.7101 36.1744 93.5946 36.4154 93.5193 36.6961L93.1462 38.0872C93.0712 38.3672 93.0506 38.6341 93.0854 38.8804C93.1266 39.1763 93.25 39.4532 93.4518 39.7026C93.4564 39.7083 93.4745 39.7357 93.4788 39.7417C93.52 39.8053 93.5268 39.8852 93.4955 39.9542C93.4649 40.0231 93.401 40.0718 93.3263 40.0832C93.2883 40.0889 93.2517 40.1002 93.2176 40.1166C93.1437 40.1528 93.0925 40.2115 93.0741 40.2804C93.0556 40.3493 93.0709 40.425 93.1171 40.4936C93.17 40.5728 93.2549 40.6311 93.3544 40.6574L93.5872 40.7199C93.6511 40.737 93.7034 40.7811 93.7307 40.8404C93.7584 40.8997 93.7584 40.9687 93.7307 41.028C93.0076 42.5766 95.3148 44.1173 95.5252 44.2534C95.915 44.2328 98.5431 44.0374 98.6891 42.357C98.6955 42.292 98.7293 42.2323 98.7833 42.1942C98.837 42.1566 98.9052 42.1456 98.9684 42.1619L99.2008 42.2241C99.3 42.2511 99.4044 42.2426 99.4879 42.2014C99.5626 42.1644 99.6137 42.1065 99.6326 42.0375C99.6503 41.9707 99.6365 41.8965 99.5928 41.8297C99.5693 41.7927 99.5427 41.765 99.5121 41.7405C99.4531 41.6929 99.4226 41.6186 99.4307 41.5433C99.4382 41.4683 99.4847 41.4022 99.5526 41.3684C99.559 41.3656 99.5882 41.3514 99.5942 41.3493C99.8934 41.2334 100.139 41.0554 100.323 40.8194C100.476 40.624 100.592 40.3827 100.667 40.1027L101.04 38.7116C101.115 38.4312 101.135 38.164 101.1 37.9184C101.059 37.6224 100.936 37.3456 100.734 37.0958C100.684 37.0336 100.664 36.9398 100.693 36.8656C100.722 36.7917 100.78 36.7284 100.859 36.716C100.898 36.7099 100.934 36.6986 100.968 36.6822C101.045 36.6424 101.094 36.5852 101.112 36.5184C101.13 36.4498 101.115 36.3738 101.068 36.3045C101.016 36.2256 100.932 36.1677 100.831 36.141L100.599 36.0785C100.535 36.0614 100.483 36.0174 100.456 35.958C100.427 35.8987 100.427 35.8294 100.456 35.7701C101.184 34.2101 98.8906 32.6918 98.6596 32.5439C98.4965 32.5517 95.6485 32.6896 95.4968 34.4418C95.4911 34.5068 95.457 34.5669 95.403 34.6045C95.3493 34.6422 95.2807 34.6539 95.2178 34.6369L94.9847 34.5743C94.9474 34.5637 94.9087 34.5583 94.8703 34.5583Z" fill="white"/>
<path d="M98.6164 37.6786C98.6029 37.6786 98.5894 37.6768 98.5752 37.6729C98.4906 37.6502 98.4405 37.5631 98.4636 37.4789L98.642 36.8126C98.6644 36.7281 98.7518 36.6776 98.836 36.7003C98.9209 36.7231 98.9707 36.8101 98.948 36.8947L98.7696 37.561C98.7507 37.632 98.6861 37.6786 98.6164 37.6786Z" fill="white"/>
<path d="M99.0386 37.4348C99.025 37.4348 99.0115 37.433 98.9973 37.4291L98.3311 37.2507C98.2465 37.228 98.1964 37.1409 98.2195 37.0567C98.2419 36.9718 98.3289 36.9221 98.4135 36.9444L99.0798 37.1228C99.1647 37.1456 99.2144 37.2326 99.1917 37.3172C99.1729 37.3879 99.1086 37.4348 99.0386 37.4348Z" fill="white"/>
<path d="M97.5957 41.162C97.0727 41.162 96.5596 41.0131 96.1079 40.7242C95.4836 40.3255 95.0515 39.7073 94.8927 38.9838C94.5629 37.4903 95.5106 36.0075 97.0041 35.6777C97.1249 35.6514 97.2429 35.7271 97.2692 35.8468C97.2951 35.9666 97.2194 36.0849 97.1 36.1116C95.8453 36.3884 95.0494 37.6338 95.3262 38.8882C95.4598 39.4962 95.8222 40.0153 96.3464 40.3508C96.8712 40.6855 97.4945 40.7971 98.1021 40.6624C98.2218 40.6368 98.3405 40.7118 98.3672 40.8312C98.3931 40.9509 98.3171 41.0696 98.1977 41.0963C97.998 41.14 97.7961 41.162 97.5957 41.162Z" fill="white"/>
<path d="M97.2751 39.2233C97.2616 39.2233 97.2474 39.2215 97.2339 39.2176C97.1497 39.1949 97.0989 39.1078 97.1216 39.0236L97.3 38.3573C97.3228 38.2731 97.4105 38.2226 97.4947 38.2454C97.579 38.2681 97.6298 38.3552 97.607 38.4394L97.4287 39.1057C97.4091 39.1767 97.3455 39.2233 97.2751 39.2233Z" fill="white"/>
<path d="M97.6973 38.9795C97.6838 38.9795 97.6695 38.9777 97.656 38.9742L96.9898 38.7958C96.9056 38.773 96.8548 38.686 96.8775 38.6014C96.9002 38.5172 96.9877 38.4674 97.0722 38.4895L97.7385 38.6678C97.8227 38.6906 97.8735 38.7777 97.8508 38.8619C97.8312 38.9326 97.7676 38.9795 97.6973 38.9795Z" fill="white"/>
</svg>
