<svg width="142" height="180" viewBox="0 0 142 180" fill="none" xmlns="http://www.w3.org/2000/svg">
<g opacity="0.2">
<g opacity="0.2">
<path opacity="0.2" d="M72.2201 180C33.9137 180 2.86015 172.553 2.86015 163.367C2.86015 154.181 33.9137 146.734 72.2201 146.734C110.527 146.734 141.58 154.181 141.58 163.367C141.58 172.553 110.527 180 72.2201 180Z" fill="#2E3349"/>
</g>
</g>
<path d="M41.2707 150.063C64.2968 167.538 100.276 159.109 100.276 159.109C100.276 159.109 102.125 165.482 112.076 163.223C122.028 160.96 121.451 152.532 121.451 152.532C121.451 152.532 128.646 153.147 130.909 145.952C133.171 138.756 127.209 131.561 127.209 131.561L129.157 127.048L131.113 122.514C133.999 112.773 133.157 101.955 130.437 93.5567V93.5484L130.434 93.5456C128.765 88.3892 126.39 84.1459 123.733 81.6242C123.322 81.2297 122.905 80.8821 122.48 80.5759C113.638 74.2027 91.2682 75.6401 91.2682 75.6401C80.4118 76.454 73.8152 80.4324 69.9224 84.2453C65.9357 88.1492 64.777 91.882 64.777 91.882L58.9529 110.59C53.6999 113.087 51.214 118.015 50.1077 121.251C49.4759 123.08 49.2883 124.366 49.2883 124.366C49.2883 124.366 43.7594 125.831 39.1024 128.835C32.7181 132.952 27.9616 139.962 41.2707 150.063Z" fill="white"/>
<path d="M108.144 163.848C109.3 163.848 110.615 163.704 112.109 163.365C121.3 161.276 121.613 153.88 121.602 152.685C122.693 152.716 128.968 152.614 131.049 145.996C133.19 139.186 127.984 132.306 127.378 131.538L131.247 122.572C133.863 113.747 133.612 102.9 130.584 93.5337V93.4964L130.565 93.4742C128.882 88.2872 126.492 84.0417 123.834 81.5187C123.425 81.126 122.998 80.7687 122.566 80.4578C113.783 74.1271 91.4838 75.4804 91.2598 75.4946C79.9731 76.3407 73.3719 80.6638 69.8215 84.141C65.8544 88.026 64.6504 91.8011 64.6388 91.8386L58.8337 110.486C53.6941 112.956 51.1776 117.674 49.9708 121.204C49.4385 122.745 49.2172 123.918 49.1606 124.25C48.4187 124.457 43.3213 125.94 39.0243 128.713C34.9061 131.368 32.7552 134.357 32.6312 137.597C32.4809 141.525 35.3583 145.757 41.1837 150.179C53.1101 159.23 68.5533 161.214 79.4083 161.284C90.4018 161.361 99.0401 159.532 100.183 159.28C100.469 160.038 102.207 163.848 108.144 163.848ZM121.295 152.372L121.307 152.542C121.312 152.625 121.754 160.873 112.045 163.081C102.354 165.28 100.435 159.131 100.417 159.068L100.378 158.936L100.244 158.967C100.154 158.988 91.1196 161.071 79.403 160.993C68.5946 160.922 53.2205 158.948 41.3599 149.947L41.2718 150.063L41.3599 149.947C35.6146 145.587 32.7759 141.435 32.9222 137.608C33.0424 134.469 35.1486 131.559 39.1822 128.958C43.7655 126.001 49.2715 124.521 49.3266 124.507L49.4195 124.482L49.4334 124.387C49.4352 124.374 49.627 123.092 50.2463 121.299C51.4396 117.808 53.9297 113.14 59.0164 110.722L59.074 110.695L64.917 91.9254C64.9284 91.8884 66.1144 88.1793 70.0252 84.3495C73.541 80.9061 80.0825 76.6249 91.2802 75.7856C91.5019 75.7705 113.697 74.4249 122.396 80.6941C122.817 80.9974 123.233 81.3459 123.633 81.7294C126.262 84.2246 128.628 88.4367 130.297 93.5908L130.299 93.6018C133.317 102.919 133.569 113.712 130.974 122.473L127.041 131.585L127.098 131.654C127.157 131.725 132.983 138.873 130.771 145.908C128.571 152.905 121.536 152.393 121.464 152.387L121.295 152.372Z" fill="#2E3349"/>
<g opacity="0.2">
<g opacity="0.2">
<path opacity="0.2" d="M39.1032 128.835V132.728L44.8969 138.583C44.8969 138.583 62.3087 142.594 65.738 142.616C69.1646 142.638 90.6815 143.863 90.6815 143.863L104.981 129.759L131.114 122.514C134 112.773 133.158 101.955 130.438 93.5566C130.512 94.1195 133.544 116.941 123.734 116.034C117.936 115.497 118.129 113.732 119.295 112.356C120.385 111.069 120.485 109.215 119.514 107.836L114.008 100.007C114.008 100.007 115.368 117.374 96.8284 122.003C84.5206 125.077 69.952 121.177 73.334 99.1543C73.334 99.1543 69.3328 126.406 50.1086 121.251C49.4768 123.08 49.2892 124.366 49.2892 124.366C49.2892 124.366 43.7603 125.831 39.1032 128.835Z" fill="#2E3349"/>
</g>
</g>
<path d="M34.6171 143.372C35.958 145.428 38.1017 147.66 41.2717 150.063C64.2978 167.538 100.277 159.109 100.277 159.109C100.277 159.109 102.126 165.482 112.077 163.223C122.029 160.96 121.452 152.532 121.452 152.532C121.452 152.532 128.647 153.147 130.91 145.952C131.172 145.119 131.323 144.288 131.384 143.469C131.872 137.189 127.21 131.561 127.21 131.561L129.158 127.048L49.2892 124.366C49.2892 124.366 43.7603 125.831 39.1032 128.835C34.2392 131.972 30.3188 136.789 34.6171 143.372Z" fill="#4DD175"/>
<g opacity="0.2">
<g opacity="0.2">
<path opacity="0.2" d="M33.7115 143.372C35.0525 145.428 37.1961 147.66 40.3662 150.063C63.3923 167.538 99.3715 159.109 99.3715 159.109C99.3715 159.109 101.22 165.482 111.171 163.223C121.123 160.96 120.546 152.532 120.546 152.532C120.546 152.532 127.742 153.147 130.004 145.952C130.266 145.119 130.418 144.288 130.479 143.469C127.217 145.977 121.741 147.511 112.808 143.863C112.808 143.863 69.2384 167.943 37.4886 139.948C37.4886 139.948 35.7973 141.48 33.7115 143.372Z" fill="#2E3349"/>
</g>
</g>
<path d="M100.275 158.971C100.275 158.971 100.339 159.192 100.507 159.534C100.532 159.584 100.557 159.636 100.584 159.688C100.777 160.053 101.07 160.519 101.497 160.999C101.547 161.054 101.597 161.109 101.649 161.162C101.682 161.198 101.718 161.233 101.754 161.269C101.826 161.341 101.9 161.413 101.977 161.484C102.016 161.52 102.057 161.556 102.099 161.592C102.179 161.664 102.264 161.733 102.353 161.805C102.405 161.846 102.457 161.887 102.513 161.926C102.595 161.992 102.684 162.056 102.775 162.116C102.874 162.183 102.973 162.246 103.081 162.312C103.293 162.442 103.522 162.566 103.765 162.685C103.887 162.74 104.011 162.795 104.14 162.85C104.336 162.93 104.54 163.007 104.753 163.076C105.779 163.41 107.029 163.609 108.546 163.562C108.546 163.562 108.546 163.562 108.549 163.562C108.996 163.545 109.465 163.512 109.959 163.454H109.962C110.293 163.413 110.632 163.363 110.983 163.303C110.985 163.303 110.985 163.303 110.985 163.303C111.338 163.239 111.7 163.168 112.075 163.082C113.049 162.861 113.924 162.58 114.707 162.254C115.157 162.067 115.573 161.865 115.965 161.653C116.062 161.598 116.158 161.545 116.252 161.49C116.534 161.324 116.801 161.153 117.055 160.977C117.392 160.742 117.703 160.497 117.99 160.243C119.177 159.203 119.96 158.039 120.473 156.932C121.571 154.576 121.456 152.482 121.45 152.394C121.45 152.391 121.45 152.391 121.45 152.391C121.45 152.391 116.194 152.496 112.765 150.542C112.765 150.543 110.96 156.347 100.275 158.971Z" fill="#FFB185"/>
<path d="M100.276 160.213C100.363 160.213 100.451 160.203 100.539 160.181C108.911 158.126 112.15 154.141 113.28 152.167C116.828 153.706 121.268 153.64 121.474 153.634C122.083 153.622 122.567 153.119 122.555 152.509C122.544 151.907 122.052 151.427 121.452 151.427C121.439 151.427 121.459 151.428 121.333 151.428C120.62 151.428 116.187 151.36 113.313 149.722C113.022 149.556 112.673 149.531 112.361 149.654C112.05 149.777 111.812 150.034 111.713 150.353C111.698 150.396 109.859 155.621 100.013 158.038C99.4213 158.183 99.0593 158.781 99.2045 159.373C99.3282 159.876 99.7792 160.213 100.276 160.213Z" fill="#2E3349"/>
<path d="M113.606 150.926C113.789 150.627 113.888 150.304 113.963 149.975C114.039 149.645 114.069 149.302 114.094 148.957C114.135 148.265 114.145 147.564 114.025 146.825C114.012 146.75 113.941 146.699 113.866 146.711C113.833 146.716 113.805 146.732 113.785 146.755C113.285 147.313 112.916 147.909 112.578 148.514C112.414 148.818 112.254 149.123 112.14 149.442C112.026 149.76 111.935 150.085 111.928 150.435C111.919 150.935 112.316 151.349 112.816 151.358C113.149 151.365 113.443 151.19 113.606 150.926Z" fill="#2E3349"/>
<path d="M108.135 164.807C109.364 164.807 110.753 164.654 112.322 164.298C120.747 162.383 122.254 156.252 122.509 153.645C125.519 153.492 130.208 151.863 131.962 146.283C134.032 139.695 129.868 133.288 128.479 131.402L132.128 122.952C132.145 122.912 132.16 122.871 132.173 122.828C134.498 114.981 134.64 105.844 132.574 97.1023C130.68 89.0929 127.148 82.5796 123.125 79.6795C114.068 73.1497 92.1267 74.4794 91.197 74.5395C91.1932 74.5397 91.1894 74.54 91.1855 74.5403C79.5055 75.4148 72.6794 79.9472 69.0096 83.5955C64.9839 87.5977 63.7735 91.3953 63.7239 91.5548L58.0397 109.811C50.9571 113.44 48.8329 121.101 48.33 123.492C45.2991 124.399 33.3688 128.44 31.8307 136.221C30.9114 140.873 33.8635 145.826 40.6051 150.943C52.7414 160.153 68.4016 162.172 79.4018 162.243C89.2651 162.313 97.0849 160.9 99.6451 160.375C100.496 161.924 102.797 164.807 108.135 164.807ZM121.456 151.428C121.166 151.428 120.885 151.541 120.678 151.747C120.449 151.972 120.329 152.286 120.351 152.606C120.369 152.908 120.701 160.13 111.833 162.145C103.094 164.132 101.401 159.012 101.333 158.793C101.162 158.24 100.588 157.903 100.025 158.035C99.9356 158.056 90.9758 160.118 79.3632 160.036C68.7145 159.961 53.5779 158.018 41.9394 149.185C35.9266 144.621 33.2541 140.404 33.9961 136.649C35.4581 129.252 49.4319 125.469 49.5729 125.432C50.0001 125.319 50.3186 124.962 50.3823 124.525C50.3959 124.433 51.8515 115.186 59.4263 111.588C59.7045 111.455 59.915 111.213 60.0066 110.919L65.8317 92.2103C65.8421 92.1775 66.9738 88.6931 70.6577 85.0702C74.0607 81.7232 80.412 77.562 91.3445 76.7419C91.8036 76.7137 113.466 75.4367 121.834 81.4703C125.385 84.0301 128.677 90.2146 130.426 97.6103C132.4 105.96 132.275 114.668 130.075 122.139L126.195 131.123C126.031 131.504 126.094 131.946 126.359 132.265C126.413 132.332 131.907 139.097 129.856 145.621C127.896 151.858 121.801 151.451 121.542 151.431C121.513 151.429 121.484 151.428 121.456 151.428Z" fill="#2E3349"/>
<path d="M106.134 128.932C106.142 128.965 106.154 128.995 106.17 129.026C106.854 130.259 110.146 133.001 114.257 129.026C114.257 129.026 112.816 139.126 118.163 136.795C118.163 136.795 120.288 139.579 123.438 137.661C123.438 137.661 126.592 139.99 129.058 137.25C129.058 137.25 134.286 138.605 133.39 131.779C133.323 131.249 133.216 130.67 133.067 130.038C133.023 129.842 132.973 129.644 132.918 129.437C130.429 119.979 123.438 118.746 123.438 118.746C117.41 117.239 112.201 121.761 112.201 121.761C112.201 121.761 107.79 125.723 106.482 127.881C106.214 128.322 106.076 128.692 106.134 128.932Z" fill="#FFB185"/>
<g opacity="0.2">
<g opacity="0.2">
<path opacity="0.2" d="M106.134 128.932C106.142 128.965 106.154 128.995 106.17 129.026C106.854 130.259 110.146 133.001 114.257 129.026C114.257 129.026 112.816 139.126 118.163 136.795C118.163 136.795 120.288 139.579 123.438 137.661C123.438 137.661 126.592 139.99 129.058 137.25C129.058 137.25 134.286 138.605 133.39 131.779C122.57 139.92 117.454 131.358 115.897 127.798C115.566 127.042 114.718 126.659 113.934 126.917C111.162 127.828 108.283 128.233 106.482 127.881C106.214 128.322 106.076 128.692 106.134 128.932Z" fill="#2E3349"/>
</g>
</g>
<g opacity="0.6">
<g opacity="0.6">
<path opacity="0.6" d="M106.135 128.932C109.349 126.67 115.399 119.764 122.73 121.088C126.522 121.773 130.904 127.169 133.067 130.038C133.023 129.842 132.974 129.644 132.918 129.437C130.43 119.979 123.439 118.746 123.439 118.746C117.41 117.239 112.202 121.761 112.202 121.761C112.202 121.761 105.795 127.514 106.135 128.932Z" fill="white"/>
</g>
</g>
<path d="M126.225 139.69C127.281 139.69 128.411 139.359 129.441 138.427C130.35 138.52 132.008 138.482 133.234 137.251C134.746 135.734 134.998 133.01 133.984 129.156C131.423 119.418 124.366 117.803 123.676 117.667C117.177 116.062 111.707 120.728 111.477 120.928C104.093 127.558 104.872 128.962 105.205 129.561C105.788 130.609 107.269 131.865 109.145 132.144C110.107 132.286 111.44 132.213 112.966 131.371C112.922 133.526 113.208 136.386 114.845 137.632C115.438 138.084 116.416 138.484 117.854 138.078C118.975 139.098 120.998 140.061 123.396 138.936C124.139 139.343 125.144 139.69 126.225 139.69ZM129.064 136.147C128.753 136.147 128.45 136.276 128.239 136.511C126.514 138.427 124.334 136.944 124.091 136.769C123.731 136.509 123.245 136.486 122.866 136.717C120.707 138.031 119.296 136.449 119.035 136.119C118.724 135.725 118.182 135.583 117.722 135.783C116.666 136.244 116.302 135.967 116.183 135.876C115.086 135.043 115.037 131.388 115.349 129.18C115.415 128.714 115.178 128.256 114.758 128.042C114.338 127.828 113.828 127.904 113.49 128.232C112.105 129.57 110.752 130.152 109.47 129.961C108.409 129.803 107.627 129.141 107.279 128.7C107.74 127.662 110.475 124.794 112.938 122.582C112.971 122.554 117.789 118.47 123.172 119.816C123.195 119.822 123.219 119.827 123.242 119.832C123.503 119.881 129.588 121.117 131.85 129.717C132.625 132.665 132.564 134.784 131.679 135.685C130.841 136.537 129.344 136.183 129.329 136.179C129.241 136.157 129.152 136.147 129.064 136.147ZM123.439 118.746H123.437H123.439Z" fill="#2E3349"/>
<path d="M119.036 136.829C119.146 136.318 119.171 135.804 119.172 135.289C119.173 134.773 119.122 134.256 119.07 133.739C119.018 133.222 118.947 132.704 118.863 132.185C118.772 131.666 118.674 131.147 118.528 130.626C118.508 130.556 118.435 130.516 118.366 130.535C118.324 130.547 118.292 130.579 118.278 130.616C118.092 131.124 117.953 131.634 117.823 132.145C117.698 132.655 117.588 133.166 117.496 133.678C117.404 134.189 117.312 134.701 117.274 135.215C117.234 135.729 117.22 136.243 117.29 136.761C117.355 137.247 117.802 137.587 118.287 137.522C118.668 137.471 118.959 137.184 119.036 136.829Z" fill="#2E3349"/>
<path d="M124.313 137.66C124.403 137.089 124.409 136.518 124.389 135.947C124.371 135.376 124.299 134.805 124.227 134.233C124.155 133.662 124.064 133.091 123.96 132.52C123.849 131.949 123.731 131.378 123.564 130.807C123.544 130.738 123.472 130.699 123.403 130.719C123.359 130.731 123.327 130.766 123.315 130.807C123.148 131.378 123.029 131.949 122.919 132.52C122.815 133.091 122.724 133.662 122.652 134.233C122.58 134.805 122.508 135.376 122.49 135.947C122.47 136.518 122.476 137.089 122.565 137.66C122.641 138.143 123.094 138.472 123.577 138.396C123.966 138.335 124.255 138.029 124.313 137.66Z" fill="#2E3349"/>
<path d="M129.929 137.17C129.97 136.625 129.927 136.088 129.859 135.553C129.792 135.018 129.673 134.487 129.552 133.957C129.432 133.427 129.293 132.898 129.141 132.371C128.982 131.844 128.815 131.317 128.601 130.796C128.573 130.729 128.497 130.697 128.43 130.724C128.389 130.741 128.361 130.778 128.352 130.818C128.235 131.37 128.165 131.917 128.104 132.464C128.048 133.01 128.007 133.555 127.983 134.099C127.96 134.642 127.937 135.185 127.968 135.724C127.996 136.262 128.051 136.799 128.189 137.327C128.312 137.801 128.796 138.084 129.27 137.961C129.645 137.863 129.901 137.536 129.929 137.17Z" fill="#2E3349"/>
<path d="M112.459 93.9735C112.64 95.3029 112.862 96.6228 113.064 97.9473C113.279 99.2691 113.497 100.59 113.73 101.907C113.958 103.226 114.196 104.542 114.44 105.857C114.677 107.174 114.933 108.486 115.185 109.799L115.271 109.089C114.736 110.07 114.262 111.042 113.801 112.041C113.334 113.033 112.923 114.052 112.53 115.085C112.335 115.601 112.163 116.131 111.986 116.657C111.825 117.193 111.664 117.726 111.534 118.28C111.277 119.383 111.052 120.511 111.097 121.761C111.12 122.37 111.632 122.846 112.241 122.824C112.81 122.803 113.262 122.356 113.302 121.801L113.305 121.761C113.367 120.852 113.591 119.855 113.855 118.874C114.121 117.888 114.442 116.895 114.799 115.909C115.14 114.917 115.529 113.936 115.917 112.952C116.31 111.974 116.728 110.985 117.149 110.037L117.187 109.953C117.278 109.748 117.289 109.527 117.235 109.327C116.887 108.036 116.544 106.744 116.181 105.456C115.826 104.167 115.464 102.879 115.092 101.594C114.726 100.307 114.344 99.0236 113.959 97.7413C113.562 96.4616 113.184 95.1774 112.766 93.9027C112.739 93.8196 112.649 93.7744 112.566 93.8016C112.492 93.8258 112.448 93.8992 112.459 93.9735Z" fill="#2E3349"/>
<path d="M74.0107 93.9155C73.3437 97.0144 72.6549 100.107 71.9574 103.193C71.2609 106.28 70.5501 109.36 69.793 112.425C69.0353 115.488 68.25 118.542 67.4107 121.569C66.5719 124.596 65.6895 127.602 64.7063 130.551L64.7024 130.563C64.5095 131.141 64.8221 131.766 65.4005 131.959C65.952 132.143 66.5474 131.864 66.7688 131.337C68.013 128.353 68.9165 125.274 69.7243 122.185C70.5355 119.095 71.1499 115.968 71.7385 112.842C72.322 109.715 72.8113 106.574 73.2509 103.428C73.68 100.28 74.0536 97.1274 74.3227 93.9608C74.33 93.8739 74.2656 93.7974 74.1787 93.7901C74.0985 93.7832 74.027 93.8388 74.0107 93.9155Z" fill="#2E3349"/>
<path d="M58.9537 111.695C59.0997 111.695 59.2481 111.665 59.3907 111.604L63.9138 109.651C64.4732 109.409 64.7309 108.76 64.4894 108.2C64.2479 107.641 63.5989 107.382 63.0387 107.625L58.5157 109.578C57.9562 109.819 57.6985 110.469 57.94 111.028C58.12 111.445 58.5265 111.695 58.9537 111.695Z" fill="#2E3349"/>
<path d="M79.2767 81.3186C79.2767 85.7926 84.4415 89.1346 91.2694 89.4224C92.152 89.4576 93.0603 89.4448 93.9909 89.3744C102.117 88.7732 108.705 84.1872 108.705 79.1343C108.705 77.3018 107.838 75.6612 106.348 74.3404C106.348 74.3404 106.348 74.3404 106.345 74.3404C103.723 72.0186 99.1685 70.6946 93.9909 71.0784C85.9638 71.6732 79.4398 76.1537 79.2831 81.1331C79.2767 81.1938 79.2767 81.2578 79.2767 81.3186Z" fill="#FFB185"/>
<path d="M92.2143 89.5868C92.8123 89.5868 93.4104 89.5644 94.0017 89.52C102.189 88.9141 108.851 84.255 108.851 79.1343C108.851 77.3218 108.019 75.6266 106.445 74.2315L106.4 74.1948C103.639 71.7798 99.0014 70.5625 93.98 70.9331C85.9539 71.528 79.2955 76.1017 79.1375 81.1286C79.1313 81.1837 79.131 81.2532 79.131 81.3186C79.131 85.8021 84.2333 89.2717 91.2632 89.5682C91.5795 89.5806 91.897 89.5868 92.2143 89.5868ZM106.293 74.4861C107.776 75.8171 108.559 77.4234 108.559 79.1343C108.559 84.1057 102.019 88.6344 93.9801 89.2293C93.0856 89.2967 92.1758 89.313 91.2751 89.2768C84.4072 88.9872 79.4223 85.6405 79.4223 81.3185C79.4223 81.2628 79.422 81.2042 79.4278 81.1484C79.5821 76.2553 86.1195 71.8079 94.0016 71.2238C98.9723 70.854 103.551 72.061 106.248 74.4493L106.293 74.4861Z" fill="#2E3349"/>
<path d="M92.2147 90.5448C92.837 90.5448 93.4589 90.5214 94.0739 90.475C102.896 89.8221 109.809 84.8405 109.809 79.1343C109.809 77.0399 108.865 75.0966 107.08 73.5146C107.062 73.4984 107.043 73.4827 107.023 73.4676C104.073 70.8916 99.1788 69.5886 93.9093 69.9778C85.282 70.6174 78.3829 75.4844 78.181 81.066C78.1745 81.15 78.1731 81.2361 78.1731 81.3186C78.1731 86.3344 83.6612 90.2063 91.2227 90.5252C91.5529 90.5382 91.8839 90.5448 92.2147 90.5448ZM105.663 75.2078C106.559 76.0149 107.602 77.3403 107.602 79.1343C107.602 83.5393 101.331 87.7249 93.9094 88.274C93.0501 88.3388 92.1773 88.3542 91.3134 88.3198C84.9793 88.0526 80.3802 85.1082 80.3802 81.3186C80.3802 81.2938 80.3795 81.2679 80.381 81.2429C80.3839 81.2161 80.3853 81.1948 80.3862 81.1678C80.5247 76.7603 86.6643 72.7279 94.0724 72.1792C98.7907 71.8292 103.105 72.9461 105.613 75.1665C105.629 75.181 105.646 75.1947 105.663 75.2078Z" fill="#2E3349"/>
<path d="M91.2694 89.4224C92.152 89.4576 93.0603 89.4448 93.9909 89.3744C102.117 88.7732 108.705 84.1872 108.705 79.1342C108.705 77.3017 107.838 75.6612 106.348 74.3404C106.348 74.3404 106.348 74.3404 106.345 74.3404C106.335 74.334 106.332 74.3307 106.332 74.3307C102.587 82.1308 93.6966 83.0422 93.6966 83.0422L91.2694 89.4224Z" fill="white"/>
<path d="M92.2143 89.5868C92.8122 89.5868 93.4103 89.5643 94.0017 89.52C102.189 88.9141 108.851 84.255 108.851 79.1342C108.851 77.3218 108.019 75.6265 106.445 74.2314L106.279 74.0732L106.201 74.2678C102.536 81.9017 93.7698 82.8883 93.6816 82.8974L93.5924 82.9065L91.0611 89.5598L91.2635 89.5681C91.5796 89.5805 91.897 89.5868 92.2143 89.5868ZM106.38 74.5653C107.806 75.8808 108.559 77.4571 108.559 79.1342C108.559 84.1056 102.019 88.6343 93.98 89.2292C93.1525 89.2915 92.3119 89.3103 91.4778 89.2841L93.8014 83.1759C94.7448 83.0507 102.801 81.7762 106.38 74.5653Z" fill="#2E3349"/>
<path d="M92.2142 90.4608C92.8343 90.4608 93.4543 90.4377 94.0676 90.3914C102.847 89.7416 109.725 84.7969 109.725 79.1343C109.725 77.0646 108.791 75.1432 107.024 73.5774C106.973 73.5316 106.917 73.4914 106.858 73.4576C106.651 73.333 106.404 73.2849 106.161 73.3259C105.835 73.3813 105.556 73.5916 105.413 73.8897C101.969 81.0625 93.6744 82.0192 93.5908 82.0281C93.2088 82.0684 92.8802 82.3205 92.7435 82.6798L90.3163 89.06C90.1997 89.3664 90.2377 89.7106 90.4185 89.9843C90.5993 90.258 90.9007 90.4281 91.2286 90.4412C91.5562 90.4542 91.8854 90.4608 92.2142 90.4608ZM106.565 76.0484C107.302 76.9943 107.685 78.0435 107.685 79.1342C107.685 83.5816 101.38 87.8053 93.9155 88.3578C93.5269 88.3871 93.1353 88.4065 92.7432 88.4156L94.4363 83.9651C96.4959 83.6137 102.965 82.059 106.565 76.0484Z" fill="#2E3349"/>
<path d="M79.2759 81.3186C79.2759 85.7926 84.4407 89.1346 91.2686 89.4224L87.6676 82.9719L79.2823 81.1331C79.2759 81.1938 79.2759 81.2578 79.2759 81.3186Z" fill="white"/>
<path d="M91.5234 89.5788L87.7634 82.8436L79.1551 80.9557L79.1382 81.1176C79.1312 81.1836 79.1309 81.2527 79.1309 81.3184C79.1309 85.8019 84.2333 89.2715 91.2632 89.568L91.5234 89.5788ZM87.573 83.1002L91.0142 89.2642C84.2808 88.902 79.4223 85.5855 79.4223 81.3185C79.4223 81.3165 79.4223 81.3145 79.4223 81.3128L87.573 83.1002Z" fill="#2E3349"/>
<path d="M91.2696 90.4419C91.6225 90.4419 91.9517 90.259 92.1377 89.9569C92.3313 89.6425 92.3397 89.248 92.1597 88.9254L88.5587 82.4749C88.4165 82.22 88.1718 82.0385 87.8868 81.976L79.5015 80.137C79.2182 80.0747 78.9216 80.1364 78.6866 80.3063C78.4513 80.4758 78.2996 80.7378 78.2691 81.0263C78.2591 81.1222 78.2572 81.2229 78.2572 81.3185C78.2572 86.2876 83.7115 90.1242 91.2266 90.4411C91.2409 90.4417 91.2553 90.4419 91.2696 90.4419ZM87.0019 83.8695L89.443 88.2421C84.6374 87.6051 81.1393 85.3497 80.4291 82.4283L87.0019 83.8695Z" fill="#2E3349"/>
<path d="M90.2501 89.3941C90.094 91.1552 90.0445 92.9191 90.017 94.6838C89.9881 96.4484 90.0234 98.2148 90.0569 99.9811C90.0924 101.747 90.1492 103.514 90.2219 105.282C90.302 107.049 90.3915 108.817 90.5366 110.587C90.5432 110.667 90.614 110.727 90.6946 110.721C90.7643 110.715 90.8186 110.661 90.8278 110.595C91.0708 108.836 91.2581 107.076 91.436 105.316C91.6066 103.555 91.7613 101.794 91.8945 100.032C92.0259 98.2704 92.1591 96.5087 92.228 94.7452C92.2984 92.9818 92.3467 91.2178 92.2885 89.4507C92.2699 88.8869 91.7978 88.4449 91.234 88.4635C90.7119 88.4806 90.2945 88.8867 90.2501 89.3941Z" fill="#2E3349"/>
<g opacity="0.2">
<g opacity="0.2">
<path opacity="0.2" d="M69.9231 84.2454C76.3791 86.5463 84.7973 89.2557 93.9487 89.2557C106.193 89.2557 117.004 85.451 123.733 81.6244C123.322 81.2299 122.906 80.8823 122.481 80.576C113.638 74.2028 91.269 75.6402 91.269 75.6402C80.4125 76.4541 73.816 80.4325 69.9231 84.2454Z" fill="#2E3349"/>
</g>
</g>
<g opacity="0.2">
<g opacity="0.2">
<path opacity="0.2" d="M100.275 158.971C100.275 158.971 100.339 159.192 100.507 159.534C100.532 159.584 100.557 159.636 100.584 159.688C100.777 160.053 101.07 160.519 101.497 160.999C101.547 161.054 101.597 161.109 101.649 161.162C101.682 161.198 101.718 161.233 101.754 161.269C101.826 161.341 101.9 161.413 101.978 161.484C102.016 161.52 102.058 161.556 102.099 161.592C102.179 161.664 102.264 161.733 102.353 161.805C102.405 161.846 102.458 161.887 102.513 161.926C107.153 161.184 111.532 158.72 114.451 155.026C114.451 155.186 119.373 156.753 119.844 156.83C120.043 156.863 120.253 156.899 120.473 156.932C121.571 154.576 121.456 152.482 121.45 152.394C121.45 152.391 121.45 152.391 121.45 152.391C121.45 152.391 116.194 152.496 112.765 150.542C112.765 150.543 110.961 156.347 100.275 158.971Z" fill="#2E3349"/>
</g>
</g>
<path d="M55.8053 40.4831C55.8274 40.5769 55.8494 40.668 55.8715 40.759C56.106 41.7136 56.3626 42.6296 56.6275 43.5014C58.2359 48.8124 60.1865 52.4072 60.1865 52.4072C58.6415 54.2861 58.1035 56.0297 58.1449 57.5775C58.2553 61.7904 62.653 64.5382 62.653 64.5382C62.653 64.5382 64.5042 82.0134 86.2971 81.8092C108.087 81.6023 115.282 63.305 115.282 63.305C115.282 63.305 124.017 63.1256 127.044 56.4656C127.267 55.9717 127.46 55.4448 127.618 54.8764C127.993 53.508 128.103 52.2775 128.023 51.1767C127.626 45.6506 122.478 43.3634 122.478 43.3634C122.569 43.0626 122.654 42.7564 122.734 42.4446C122.872 41.9204 122.994 41.3797 123.101 40.8252C123.239 40.1217 123.352 39.3933 123.441 38.6511C123.466 38.4387 123.49 38.2235 123.51 38.0083C125.262 20.0974 111.522 -5.0614 78.0728 2.65534C52.8615 8.47393 52.8367 28.1424 55.8053 40.4831Z" fill="#FFB185"/>
<g opacity="0.6">
<g opacity="0.6">
<path opacity="0.6" d="M112.284 52.6583C112.284 52.6583 115.523 45.1595 121.28 46.4369C125.507 47.375 127.223 51.9796 127.044 56.4656C127.267 55.9717 127.46 55.4448 127.618 54.8765C127.993 53.508 128.103 52.2775 128.023 51.1767C127.626 45.6506 122.478 43.3634 122.478 43.3634C122.569 43.0627 122.654 42.7565 122.734 42.4447C119.846 43.0213 116.99 43.7414 115.983 44.2656C113.831 45.3857 112.181 50.0787 112.284 52.6583Z" fill="white"/>
</g>
</g>
<path d="M85.9235 82.9131C86.0509 82.9131 86.1783 82.9125 86.3071 82.9114C97.9412 82.8021 105.476 77.5988 109.749 73.2528C113.424 69.5149 115.352 65.8169 116.028 64.3555C118.505 64.1097 126.604 62.7305 128.683 55.17C130.679 47.9193 125.819 44.0776 123.778 42.8236C124.112 41.5536 124.367 40.1983 124.538 38.7822C125.863 27.7208 121.444 15.8386 113.281 8.50999C107.173 3.02595 96.0641 -2.62677 77.8263 1.58103C68.2166 3.79863 61.3272 8.20359 57.3494 14.674C52.0163 23.3485 53.0205 33.7901 54.8021 41.022C56.153 46.508 58.107 50.7269 58.8842 52.2868C57.3754 54.3425 56.787 56.4611 57.1349 58.5933C57.6927 62.0148 60.5267 64.3726 61.632 65.1752C61.8609 66.5145 62.7018 70.2072 65.4137 73.9029C68.4402 78.0275 74.4499 82.9131 85.9235 82.9131ZM89.8905 2.32685C100.494 2.32685 107.496 6.2815 111.807 10.1522C119.451 17.0155 123.588 28.15 122.346 38.519C122.152 40.1331 121.841 41.6563 121.423 43.0457C121.262 43.5783 121.523 44.1469 122.031 44.3725C122.295 44.4917 128.532 47.4023 126.555 54.5842C124.543 61.9 115.638 62.1919 115.26 62.2007C114.816 62.211 114.419 62.4866 114.257 62.9C114.24 62.9432 112.452 67.3809 108.111 71.7703C102.33 77.6168 94.9868 80.6226 86.2864 80.7043C77.6694 80.782 71.2656 78.0848 67.2527 72.6781C64.2431 68.6228 63.7554 64.4616 63.7508 64.4197C63.7138 64.084 63.5249 63.7816 63.2384 63.6027C63.2063 63.5822 59.8242 61.4153 59.3114 58.2271C59.0417 56.5517 59.6233 54.83 61.0398 53.1097C61.3254 52.7629 61.3721 52.277 61.158 51.8819C61.1321 51.8344 58.5577 47.0422 56.9451 40.4939C55.2644 33.6713 54.2963 23.854 59.2297 15.8298C62.8865 9.88174 69.3102 5.81132 78.3226 3.73175C82.5835 2.7485 86.4292 2.32685 89.8905 2.32685Z" fill="#2E3349"/>
<path d="M62.6525 65.5585C62.6657 65.5585 62.6789 65.5582 62.6923 65.5577C63.255 65.536 63.6937 65.0624 63.6721 64.4997L63.4932 59.8497C63.4251 58.0779 63.0297 56.3559 62.3176 54.7318L61.1199 51.9998C60.8937 51.4844 60.2928 51.2488 59.7766 51.4755C59.2609 51.7014 59.0262 52.3028 59.2522 52.8186L60.4499 55.5506C61.059 56.9397 61.3973 58.4128 61.4555 59.9282L61.6342 64.5782C61.6554 65.1276 62.1075 65.5585 62.6525 65.5585Z" fill="#2E3349"/>
<path d="M112.612 50.0787C114.668 40.759 122.481 43.3635 122.481 43.3635L123.141 40.1189L123.438 38.6539C117.501 34.601 108.005 32.1429 105.627 31.569C105.268 31.4834 105.072 31.4393 105.072 31.4393C100.55 48.9834 112.612 50.0787 112.612 50.0787Z" fill="#6D6D6D"/>
<g opacity="0.2">
<g opacity="0.2">
<path opacity="0.2" d="M112.613 50.0787C114.668 40.759 122.481 43.3635 122.481 43.3635L123.141 40.1189C110.507 47.3612 106.631 36.0246 105.627 31.569C105.268 31.4834 105.072 31.4393 105.072 31.4393C100.551 48.9834 112.613 50.0787 112.613 50.0787Z" fill="#2E3349"/>
</g>
</g>
<path d="M112.612 51.1825C113.125 51.1825 113.577 50.8264 113.689 50.3169C114.278 47.6478 115.416 45.8183 117.073 44.8783C119.438 43.5372 122.104 44.401 122.131 44.41C122.43 44.5093 122.758 44.4766 123.032 44.3185C123.305 44.1606 123.498 43.8929 123.561 43.5834L124.52 38.8737C124.608 38.4385 124.427 37.9926 124.061 37.7423C117.137 33.0138 105.791 30.4677 105.312 30.3615C104.732 30.2333 104.153 30.5877 104.005 31.1638C102.269 37.8976 102.681 43.1464 105.23 46.7639C108.024 50.7274 112.33 51.1615 112.512 51.178C112.545 51.1811 112.579 51.1825 112.612 51.1825ZM120.092 41.9254C118.877 41.9254 117.404 42.1535 115.984 42.9587C114.004 44.0818 112.6 46.0408 111.801 48.7898C110.614 48.4626 108.511 47.6075 107.013 45.4621C104.999 42.578 104.621 38.3113 105.885 32.7697C108.743 33.488 116.803 35.7122 122.208 39.1638L121.622 42.0437C121.194 41.9774 120.672 41.9254 120.092 41.9254Z" fill="#2E3349"/>
<path d="M55.8725 40.7589C89.1839 15.2664 123.439 38.6539 123.439 38.6539L123.442 38.6512C124.027 33.7761 123.483 28.2831 121.692 23.0384C116.892 8.97612 103.128 -3.33155 78.0737 2.65536C62.745 6.32201 56.7278 14.9795 55.0365 23.9764C53.9303 29.8584 54.6724 35.8867 55.8725 40.7589Z" fill="white"/>
<g opacity="0.2">
<g opacity="0.2">
<path opacity="0.2" d="M55.8725 41.3416C89.1839 15.8491 123.439 39.2366 123.439 39.2366L123.442 39.2338C124.027 34.3588 123.483 28.8657 121.692 23.621C114.925 31.1474 105.681 23.6944 85.2745 23.6348C74.1024 23.6022 65.2718 30.8621 60.187 29.5323C58.013 28.9639 56.2482 28.3499 55.0366 24.5591C53.9303 30.441 54.6724 36.4693 55.8725 41.3416Z" fill="#2E3349"/>
</g>
</g>
<path d="M55.8726 41.8614C56.1118 41.8614 56.3481 41.7837 56.5435 41.6343C70.0917 31.2662 85.3589 27.7645 101.921 31.2264C114.291 33.8121 122.732 39.5078 122.816 39.5649C123.269 39.8742 123.881 39.8036 124.251 39.3991C124.408 39.2289 124.509 39.0105 124.537 38.7812C125.892 27.4697 121.467 15.4394 113.265 8.13321C107.198 2.72968 96.1237 -2.79334 77.817 1.58289C68.1714 3.88864 61.27 8.35682 57.3047 14.8636C52.0383 23.5054 53.0364 33.8585 54.8012 41.0218C54.8902 41.3834 55.1555 41.6756 55.5067 41.799C55.6259 41.8409 55.7497 41.8614 55.8726 41.8614ZM89.9333 27.7523C86.6709 27.7523 83.4517 28.0308 80.2912 28.5878C71.9053 30.0666 63.9334 33.5202 56.5703 38.8618C55.1652 32.2307 54.6978 23.3826 59.1894 16.0121C62.8374 10.0259 69.2773 5.89353 78.3302 3.7297C92.0877 0.440476 103.66 2.53374 111.797 9.78128C120.474 17.5111 122.97 28.7463 122.5 36.7659C119.45 34.9592 112.157 31.1112 102.373 29.066C98.1845 28.1906 94.0252 27.7523 89.9333 27.7523Z" fill="#2E3349"/>
<path d="M111.662 49.7083C111.599 49.8356 111.579 49.8741 111.546 49.9506C111.521 50.0136 111.491 50.0803 111.471 50.1415C111.429 50.2673 111.392 50.3879 111.363 50.5105C111.309 50.7522 111.277 50.9929 111.266 51.2297C111.238 51.7042 111.29 52.1706 111.368 52.6256C111.445 53.0817 111.558 53.5273 111.695 53.9656C111.843 54.4025 112.01 54.8318 112.238 55.2485C112.281 55.3256 112.377 55.3538 112.455 55.3116C112.49 55.2921 112.515 55.2611 112.528 55.2257L112.529 55.2237C112.687 54.7782 112.798 54.3448 112.908 53.9176C113.018 53.4916 113.111 53.0725 113.21 52.6639C113.301 52.2544 113.403 51.8565 113.469 51.4714C113.502 51.2782 113.533 51.0908 113.552 50.9064C113.564 50.8167 113.568 50.725 113.576 50.6405L113.581 50.5171C113.578 50.4898 113.587 50.4244 113.562 50.4501C113.767 49.9256 113.507 49.3343 112.983 49.1295C112.458 48.9246 111.867 49.1837 111.662 49.7083Z" fill="#2E3349"/>
<g opacity="0.2">
<g opacity="0.2">
<path opacity="0.2" d="M55.8055 40.4831C55.8275 40.5769 55.8496 40.668 55.8717 40.759C56.1062 41.7136 56.3628 42.6296 56.6276 43.5014C63.3208 37.7656 85.7206 22.9501 123.101 40.8252C123.239 40.1217 123.353 39.3934 123.441 38.6512C123.466 38.4388 123.49 38.2236 123.51 38.0084C112.56 32.0077 83.53 19.8546 55.8055 40.4831Z" fill="#2E3349"/>
</g>
</g>
<g opacity="0.2">
<g opacity="0.2">
<path opacity="0.2" d="M58.145 57.5775C58.2554 61.7904 62.6531 64.5383 62.6531 64.5383C62.6531 64.5383 64.5043 82.0134 86.2972 81.8092C108.087 81.6023 115.283 63.305 115.283 63.305C115.283 63.305 125.358 63.0981 127.618 54.8764C127.993 53.508 128.103 52.2775 128.023 51.1767C124.395 61.1779 113.748 60.2832 113.748 60.2832C113.748 60.2832 108.705 76.211 85.1715 77.8998C66.8843 79.212 62.4737 59.8894 62.4737 59.8894C61.8088 60.1157 59.861 58.8465 58.145 57.5775Z" fill="#2E3349"/>
</g>
</g>
<path d="M27.0074 150.371L12.8964 164.755C12.1024 165.564 12.5714 166.933 13.6949 167.085L18.5806 167.746L37.0812 157.055L57.0827 174.506C57.7069 175.051 58.5073 175.351 59.3357 175.351H67.3028L77.172 169.799C77.172 169.799 71.6201 165.482 74.9109 163.707C78.1985 161.932 83.1331 166.099 83.1331 166.099L91.164 161.75C92.0342 161.279 92.1392 160.072 91.3632 159.457L83.1331 152.942L109.245 138.583L106.994 133.927L102.871 125.394C86.4238 118.608 61.754 124.982 61.754 124.982C61.754 124.982 49.416 114.498 38.7282 114.086C28.0371 113.673 3.57204 122.721 3.57204 122.721L2.005 129.759L1.10316 133.802L27.0074 150.371Z" fill="#D1BABA"/>
<g opacity="0.2">
<g opacity="0.2">
<path opacity="0.2" d="M27.0074 150.371L12.8964 164.755C12.1024 165.564 12.5714 166.933 13.6949 167.085L18.5806 167.746L37.0812 157.055L57.0827 174.506C57.7069 175.051 58.5073 175.351 59.3357 175.351H67.3028L77.172 169.799C77.172 169.799 71.6201 165.482 74.9109 163.707C78.1985 161.932 83.1331 166.099 83.1331 166.099L91.164 161.75C92.0342 161.279 92.1392 160.072 91.3632 159.457L83.1331 152.942L109.245 138.583L106.994 133.927L102.871 125.394C86.4238 118.608 61.754 124.982 61.754 124.982C61.754 124.982 49.416 114.498 38.7282 114.086C28.0371 113.673 3.57204 122.721 3.57204 122.721L2.005 129.759L1.10316 133.802L27.0074 150.371Z" fill="#2E3349"/>
</g>
</g>
<path d="M59.3364 176.454H67.3034C67.493 176.454 67.6794 176.406 67.8445 176.313L77.7137 170.761C78.0357 170.58 78.2457 170.249 78.2732 169.881C78.3007 169.512 78.1418 169.154 77.8502 168.928C76.5956 167.949 74.8976 166.105 74.9747 165.189C74.9817 165.107 74.9979 164.914 75.4355 164.678C77.5896 163.515 81.2091 165.918 82.4218 166.942C82.769 167.235 83.2599 167.286 83.6593 167.069L91.6901 162.721C92.4259 162.322 92.9086 161.587 92.981 160.753C93.0534 159.919 92.7051 159.111 92.0488 158.592L85.1218 153.108L109.777 139.55C110.292 139.267 110.495 138.631 110.239 138.102L103.866 124.914C103.748 124.67 103.544 124.477 103.293 124.374C87.8655 118.008 65.874 122.85 62.0295 123.776C59.6808 121.867 48.6934 113.366 38.7714 112.983C27.9896 112.562 4.19753 121.313 3.19005 121.685C2.83861 121.815 2.57707 122.115 2.49562 122.48L0.0268478 133.561C-0.0741272 134.014 0.118553 134.481 0.509262 134.731L25.2686 150.568L12.1093 163.982C11.4477 164.656 11.2271 165.63 11.5333 166.524C11.8396 167.417 12.6114 168.051 13.5473 168.178L18.4332 168.839C18.6751 168.873 18.9215 168.824 19.1334 168.701L36.9509 158.405L56.3577 175.337C57.1831 176.058 58.2409 176.454 59.3364 176.454ZM67.0143 174.247H59.3364C58.7746 174.247 58.2322 174.044 57.8088 173.674L37.8074 156.223C37.4517 155.913 36.9384 155.863 36.5297 156.099L18.3553 166.602L13.8434 165.991C13.705 165.972 13.6461 165.881 13.6213 165.808C13.5962 165.735 13.587 165.627 13.6848 165.528L27.7957 151.144C28.0286 150.906 28.142 150.577 28.1046 150.246C28.067 149.916 27.8826 149.62 27.6026 149.441L2.34908 133.288L4.51839 123.551C8.22571 122.215 29.2249 114.821 38.6863 115.188C48.863 115.582 60.9197 125.72 61.0404 125.823C61.3137 126.055 61.6826 126.14 62.0307 126.05C62.272 125.988 86.1498 119.947 102.064 126.257L107.796 138.12L82.6021 151.975C82.278 152.153 82.0648 152.482 82.0341 152.85C82.0033 153.218 82.1591 153.578 82.4487 153.807L90.6788 160.322C90.7748 160.399 90.7881 160.495 90.7822 160.562C90.7764 160.629 90.7468 160.722 90.6393 160.78L83.2421 164.785C81.7047 163.652 77.572 161.015 74.3873 162.736C73.156 163.4 72.8311 164.337 72.7753 165.006C72.6345 166.695 74.1105 168.477 75.272 169.602L67.0143 174.247Z" fill="#2E3349"/>
<path d="M3.57175 122.72C22.1427 124.364 36.7053 144.751 36.7053 144.751C51.9185 137.213 75.3199 140.674 75.3199 140.674L102.871 125.394C86.4235 118.608 61.7537 124.982 61.7537 124.982C61.7537 124.982 49.4157 114.498 38.7279 114.086C28.0368 113.673 3.57175 122.72 3.57175 122.72Z" fill="#B3E667"/>
<path d="M36.7983 145.815C36.9564 145.815 37.1162 145.781 37.267 145.71C54.4372 137.639 74.8936 141.713 75.098 141.755C75.356 141.809 75.6253 141.767 75.856 141.639L103.407 126.359C103.778 126.154 103.998 125.754 103.974 125.331C103.949 124.907 103.685 124.535 103.293 124.374C87.8657 118.009 65.8738 122.85 62.0292 123.776C59.6806 121.867 48.6932 113.366 38.7712 112.983C27.9893 112.563 4.19729 121.313 3.18981 121.685C2.7057 121.864 2.4103 122.355 2.47876 122.867C2.54716 123.378 2.96101 123.774 3.47529 123.82C21.3179 125.399 35.7585 145.157 35.9023 145.357C36.1154 145.652 36.4525 145.815 36.7983 145.815ZM62.3404 138.44C55.0982 138.44 45.8489 139.447 37.1454 143.338C35.9041 141.729 32.6277 137.704 27.8803 133.506C23.1253 129.301 16.087 124.275 7.99496 122.335C15.3576 119.822 30.916 114.892 38.6861 115.188C48.8628 115.582 60.9196 125.72 61.0402 125.823C61.3137 126.055 61.6835 126.14 62.0305 126.05C62.2626 125.99 84.384 120.395 100.233 125.596L75.1367 139.514C73.6993 139.247 68.8232 138.44 62.3404 138.44Z" fill="#2E3349"/>
<path d="M36.7967 145.585C36.8349 145.585 36.8736 145.583 36.9128 145.578C37.3911 145.514 37.7276 145.075 37.6642 144.597C36.8212 138.24 55.0197 128.861 62.103 125.783C62.5456 125.591 62.7486 125.076 62.5563 124.633C62.364 124.191 61.8495 123.987 61.4066 124.18C61.3409 124.209 54.7603 127.08 48.4039 130.948C39.6159 136.296 35.4195 140.965 35.9314 144.826C35.9897 145.266 36.3651 145.585 36.7967 145.585Z" fill="#2E3349"/>
<path d="M27.0078 150.372L12.8972 164.754C12.1032 165.563 12.5723 166.932 13.6958 167.084L18.5792 167.745L37.0807 157.054L57.0832 174.506C57.7074 175.051 58.5078 175.351 59.3363 175.351H67.3021L77.1708 169.8C77.1708 169.8 71.6198 165.482 74.9112 163.705C78.1971 161.931 83.1328 166.098 83.1328 166.098L91.1628 161.751C92.0332 161.28 92.1383 160.073 91.3623 159.458L83.1328 152.943L109.246 138.583L107.823 135.636L106.995 133.926L79.7089 148.211L37.0806 150.818L2.00353 129.76L1.55107 131.787L1.10407 133.801L27.0078 150.372Z" fill="#BA6B32"/>
<path d="M59.3363 175.497H67.3403L77.4332 169.82L77.2603 169.685C77.2264 169.659 73.8605 167.016 74.0194 165.11C74.0639 164.576 74.3782 164.159 74.9803 163.834C78.1406 162.126 82.9903 166.168 83.039 166.209L83.1148 166.273L91.2322 161.879C91.6842 161.635 91.9807 161.183 92.0252 160.671C92.0697 160.159 91.8558 159.663 91.453 159.344L83.3953 152.965L109.438 138.644L107.061 133.727L79.6691 148.068L37.117 150.67L1.9055 129.531L0.939972 133.869L26.7785 150.398L12.7933 164.652C12.3871 165.066 12.2516 165.664 12.4398 166.213C12.6278 166.761 13.1016 167.15 13.6765 167.228L18.6092 167.896L18.6522 167.871L37.0635 157.232L56.9877 174.616C57.6385 175.184 58.4726 175.497 59.3363 175.497ZM67.264 175.205H59.3363C58.543 175.205 57.7769 174.918 57.179 174.396L37.0982 156.875L18.5497 167.594L13.7154 166.94C13.2436 166.875 12.8696 166.568 12.7153 166.118C12.5608 165.668 12.6677 165.196 13.0011 164.856L27.2376 150.345L27.0865 150.249L1.26857 133.734L2.10178 129.988L37.0446 150.967L37.0898 150.964L79.749 148.354L79.7767 148.34L106.929 134.124L109.055 138.521L82.8704 152.921L91.272 159.572C91.5979 159.83 91.771 160.231 91.735 160.646C91.6991 161.06 91.4592 161.425 91.0937 161.623L83.15 165.922C82.4847 165.38 77.9904 161.877 74.8421 163.577C74.156 163.947 73.7815 164.455 73.729 165.086C73.5771 166.91 76.2022 169.196 76.9117 169.779L67.264 175.205Z" fill="#2E3349"/>
<g opacity="0.6">
<g opacity="0.6">
<path opacity="0.6" d="M0.968811 131.205L35.7617 152.953C36.1058 153.168 36.5097 153.268 36.9144 153.237L80.3765 149.96L107.24 135.053L106.413 133.343L79.1267 147.629L36.4983 150.236L1.42129 129.177L0.968811 131.205Z" fill="white"/>
</g>
</g>
<path d="M18.3754 167.745L36.874 157.055L32.1479 153.868H32.1451L18.3754 167.745Z" fill="#823823"/>
<path d="M44.2314 156.416L67.3017 175.351L77.1704 169.8C77.1704 169.8 71.6167 165.482 74.908 163.708C78.1967 161.931 83.1297 166.1 83.1297 166.1L91.1625 161.751C92.0328 161.28 92.1378 160.073 91.3617 159.458L83.1297 152.943L44.2314 156.416Z" fill="#823823"/>
<path d="M59.3364 176.454H67.3034C67.493 176.454 67.6794 176.406 67.8445 176.313L77.7137 170.761C78.0357 170.58 78.2457 170.249 78.2732 169.881C78.3007 169.512 78.1418 169.154 77.8502 168.928C76.5956 167.949 74.8976 166.105 74.9747 165.189C74.9817 165.107 74.9979 164.914 75.4355 164.678C77.5894 163.515 81.209 165.918 82.4218 166.942C82.7687 167.234 83.2599 167.285 83.6593 167.069L91.6901 162.721C92.4259 162.322 92.9086 161.587 92.981 160.753C93.0534 159.919 92.7051 159.111 92.0488 158.592L85.1218 153.108L109.777 139.55C110.292 139.267 110.495 138.631 110.239 138.102L107.988 133.446C107.858 133.177 107.624 132.972 107.34 132.879C107.057 132.785 106.747 132.81 106.482 132.949L79.4057 147.125L37.3562 149.696L2.57381 128.813C2.26939 128.631 1.89651 128.606 1.57058 128.745C1.24472 128.885 1.00584 129.173 0.928635 129.519L0.0267868 133.561C-0.0741806 134.014 0.118492 134.481 0.509209 134.731L25.2685 150.568L12.1092 163.982C11.4476 164.656 11.227 165.63 11.5332 166.524C11.8395 167.417 12.6113 168.051 13.5473 168.178L18.4331 168.839C18.675 168.873 18.9215 168.823 19.1333 168.701L36.9508 158.405L56.3576 175.337C57.1831 176.058 58.2409 176.454 59.3364 176.454ZM67.0143 174.247H59.3364C58.7746 174.247 58.2322 174.044 57.8088 173.674L37.8074 156.223C37.4517 155.913 36.9384 155.863 36.5297 156.099L18.3553 166.602L13.8434 165.991C13.705 165.972 13.6461 165.881 13.6213 165.808C13.5962 165.735 13.587 165.627 13.6848 165.528L27.7957 151.144C28.0286 150.906 28.142 150.577 28.1046 150.246C28.067 149.916 27.8826 149.62 27.6026 149.441L2.34908 133.288L2.74958 131.493L36.5139 151.765C36.705 151.88 36.9274 151.934 37.1493 151.92L79.776 149.314C79.9312 149.304 80.0827 149.262 80.2205 149.19L106.497 135.433L107.796 138.121L82.6021 151.975C82.278 152.153 82.0648 152.482 82.0341 152.85C82.0033 153.219 82.1591 153.578 82.4487 153.807L90.6788 160.322C90.7748 160.399 90.7881 160.495 90.7822 160.562C90.7764 160.629 90.7468 160.722 90.6393 160.78L83.2421 164.785C81.7047 163.652 77.572 161.015 74.3873 162.736C73.156 163.4 72.8311 164.337 72.7753 165.006C72.6345 166.695 74.1105 168.478 75.272 169.602L67.0143 174.247Z" fill="#2E3349"/>
<path d="M37.0816 158.158C37.1142 158.158 37.147 158.157 37.1798 158.154L83.2317 154.041C83.8388 153.987 84.2871 153.451 84.2329 152.844C84.1786 152.237 83.6441 151.789 83.0355 151.843L37.3737 155.921L28.2424 149.765C27.7368 149.425 27.051 149.558 26.7104 150.064C26.3697 150.569 26.5033 151.255 27.0086 151.596L36.4648 157.97C36.6476 158.093 36.8626 158.158 37.0816 158.158Z" fill="#2E3349"/>
<path d="M18.5808 168.849C18.8646 168.849 19.1484 168.741 19.3642 168.523L33.1368 154.645C33.5661 154.212 33.5634 153.514 33.1308 153.084C32.6985 152.655 31.9998 152.658 31.5702 153.09L17.7975 166.968C17.3682 167.401 17.3708 168.1 17.8034 168.529C18.0187 168.743 18.2997 168.849 18.5808 168.849Z" fill="#2E3349"/>
<path d="M67.3021 176.454C67.6212 176.454 67.9375 176.317 68.1557 176.051C68.5424 175.58 68.4738 174.885 68.0027 174.498L44.9318 155.563C44.4606 155.176 43.7655 155.245 43.3786 155.716C42.9919 156.187 43.0604 156.882 43.5315 157.269L66.6025 176.204C66.8078 176.373 67.0557 176.454 67.3021 176.454Z" fill="#2E3349"/>
<path d="M79.7088 149.232C79.8829 149.232 80.0593 149.187 80.2207 149.093C80.7073 148.81 80.8722 148.186 80.589 147.699L76.2013 140.161C75.918 139.675 75.294 139.509 74.8072 139.793C74.3206 140.076 74.1557 140.7 74.439 141.187L78.8266 148.725C79.0159 149.05 79.3577 149.232 79.7088 149.232Z" fill="#2E3349"/>
<path d="M55.7676 124.571C55.6883 124.571 42.599 130.738 36.3971 137.214C36.3971 137.214 27.6254 125.29 15.5984 122.104C15.5984 122.104 34.7181 116.553 39.8579 117.478C44.9976 118.403 55.7676 124.571 55.7676 124.571Z" fill="white"/>
<path d="M36.3968 137.904C36.5843 137.904 36.7645 137.828 36.895 137.692C42.5978 131.737 54.7157 125.754 55.9962 125.221C56.2068 125.147 56.3739 124.973 56.4337 124.748C56.5142 124.446 56.3813 124.127 56.11 123.972C55.666 123.718 45.177 117.734 39.9798 116.799C34.7425 115.856 16.1927 121.213 15.4057 121.441C15.1081 121.528 14.9047 121.802 14.9083 122.112C14.9119 122.422 15.1217 122.691 15.4214 122.771C27.0666 125.856 35.7549 137.506 35.8413 137.623C35.9621 137.787 36.1491 137.89 36.3523 137.903C36.3672 137.904 36.382 137.904 36.3968 137.904ZM54.2524 124.515C50.6471 126.232 41.5577 131.177 36.4616 136.168C34.5766 133.791 27.5462 125.566 18.0262 122.141C23.1974 120.725 35.8332 117.456 39.7353 118.157C43.717 118.873 51.3382 122.914 54.2524 124.515Z" fill="#2E3349"/>
<path d="M44.232 138.6C44.2965 138.6 44.3621 138.591 44.4269 138.572C44.5952 138.523 61.3678 133.674 73.3465 137.865C73.5311 137.93 73.7348 137.913 73.9063 137.819C81.4322 133.686 93.8033 127.037 94.961 126.794C95.3037 126.745 95.5517 126.45 95.5478 126.104C95.544 125.758 95.279 125.469 94.9354 125.428C94.75 125.405 76.223 123.235 62.8974 127.095C62.8507 127.109 62.8053 127.127 62.7623 127.15L43.905 137.303C43.5941 137.471 43.4598 137.846 43.5942 138.173C43.7028 138.437 43.9587 138.6 44.232 138.6ZM92.1567 126.552C87.1261 129.014 76.564 134.787 73.5097 136.463C65.2217 133.672 55.1242 134.881 49.1514 136.045L63.3513 128.4C73.4517 125.495 86.6321 126.114 92.1567 126.552Z" fill="#2E3349"/>
<path d="M63.089 127.757L44.2318 137.91C44.2318 137.91 61.2387 132.897 73.5741 137.215C73.5741 137.215 93.4134 126.318 94.8525 126.113C94.8525 126.113 76.4336 123.892 63.089 127.757Z" fill="white"/>
<path d="M44.232 138.6C44.2965 138.6 44.3621 138.591 44.4269 138.572C44.5952 138.523 61.3678 133.674 73.3465 137.865C73.5311 137.93 73.7348 137.913 73.9063 137.819C81.4322 133.686 93.8033 127.037 94.961 126.794C95.3037 126.745 95.5517 126.45 95.5478 126.104C95.544 125.758 95.279 125.469 94.9354 125.428C94.75 125.405 76.223 123.235 62.8974 127.095C62.8507 127.109 62.8053 127.127 62.7623 127.15L43.905 137.303C43.5941 137.471 43.4598 137.846 43.5942 138.173C43.7028 138.437 43.9587 138.6 44.232 138.6ZM92.1567 126.552C87.1261 129.014 76.564 134.787 73.5097 136.463C65.2217 133.672 55.1242 134.881 49.1514 136.045L63.3513 128.4C73.4517 125.495 86.6321 126.114 92.1567 126.552Z" fill="#2E3349"/>
</svg>
