<svg width="79" height="55" viewBox="0 0 79 55" fill="none" xmlns="http://www.w3.org/2000/svg">
<path d="M34.8513 7.34389C37.3306 14.3623 33.8563 22.1518 26.8833 24.955C19.7227 27.8337 11.5838 24.3623 8.70478 17.2009C6.10445 10.7327 8.68435 3.46688 14.4847 0C10.9292 3.32897 9.58763 8.62161 11.5132 13.4115C14.017 19.6395 21.0967 22.6591 27.3247 20.1554C32.5667 18.048 35.5353 12.6989 34.8513 7.34389Z" fill="white"/>
<path d="M76.0309 53.139H3.21889C3.07319 53.139 2.95508 53.0209 2.95508 52.8752C2.95508 52.7295 3.07319 52.6113 3.21889 52.6113H76.0309C76.1766 52.6113 76.2947 52.7295 76.2947 52.8752C76.2947 53.0209 76.1766 53.139 76.0309 53.139Z" fill="#2E3349"/>
<g opacity="0.3">
<g opacity="0.3">
<path opacity="0.3" d="M78.8266 53.4097C78.8266 54.2887 61.181 55 39.4133 55C17.6457 55 0 54.2887 0 53.4097C0 53.2218 0.806249 53.0424 2.28578 52.8746H76.5408C78.0204 53.0424 78.8266 53.2218 78.8266 53.4097Z" fill="#2E3349"/>
</g>
</g>
<path d="M69.4418 13.9482C69.2515 13.9482 69.0783 14.0197 68.9462 14.1366C68.9654 14.0148 68.9723 13.8888 68.9615 13.7592C68.8994 13.0166 68.3018 12.4141 67.5597 12.3459C67.2866 12.3208 67.0267 12.3669 66.7958 12.467C66.5736 11.2278 65.4501 10.3013 64.1275 10.3921C62.908 10.4759 61.9111 11.4423 61.7889 12.6586C61.7767 12.7794 61.7733 12.8987 61.7778 13.0158C61.7854 13.2084 61.6025 13.3581 61.4188 13.3C61.2924 13.2601 61.156 13.2424 61.0144 13.2516C60.4638 13.2875 60.0166 13.7434 59.9905 14.2944C59.9606 14.9254 60.4634 15.4464 61.0879 15.4464H66.399H66.4694H67.5521H69.4418C69.8556 15.4464 70.191 15.111 70.191 14.6973C70.191 14.2836 69.8556 13.9482 69.4418 13.9482Z" fill="white"/>
<path d="M57.6404 4.96292C57.4543 4.95272 57.2768 4.9843 57.1162 5.04911C56.8007 5.17644 56.4476 4.9977 56.333 4.67734C55.8252 3.25643 54.2809 1.85333 51.6276 2.84167C51.4165 2.92031 51.1782 2.83153 51.0736 2.63197C50.5286 1.59179 49.439 0.881958 48.1832 0.881958C46.3818 0.881958 44.9215 2.34225 44.9215 4.14364C44.9215 4.22578 44.9256 4.30693 44.9315 4.38752C44.8684 4.37952 44.8046 4.37403 44.7393 4.37403C43.8839 4.37403 43.194 5.08267 43.2246 5.94494C43.2538 6.76627 43.9538 7.40532 44.7756 7.40532H51.4611H52.0722H57.5718C58.2663 7.40532 58.8254 6.82609 58.7926 6.12439C58.765 5.53536 58.2293 4.9952 57.6404 4.96292Z" fill="white"/>
<path d="M9.77971 52.8304C7.47314 50.6249 9.93646 49.119 13.4747 50.2459C12.6013 49.1092 13.5755 47.7938 15.0647 48.7119C13.0716 45.8791 16.565 43.5949 18.6477 45.5318V52.8304H9.77971V52.8304Z" fill="#51CE51"/>
<g opacity="0.55">
<g opacity="0.55">
<path opacity="0.55" d="M9.77964 52.8305H9.82734C8.49622 51.0759 10.3398 49.9252 13.1545 50.5309C13.4486 50.5942 13.7073 50.3437 13.6622 50.0464C13.5614 49.3821 14.0261 48.8324 14.7691 48.9172C15.0343 48.9474 15.2445 48.6925 15.1492 48.4433C14.293 46.2039 16.7725 44.5774 18.6476 45.6629V45.5319C16.565 43.5951 13.0715 45.8792 15.0648 48.7116C13.5754 47.7939 12.6012 49.1093 13.4746 50.2461C9.93619 49.1187 7.47331 50.6249 9.77964 52.8305Z" fill="white"/>
</g>
</g>
<path d="M18.6477 53.1469H9.77971C9.69819 53.1469 9.61983 53.1155 9.56091 53.0592C9.09551 52.6142 8.78919 52.1724 8.65045 51.746C8.50889 51.311 8.54461 50.8949 8.75379 50.5425C9.05749 50.0308 9.70778 49.6899 10.5849 49.5826C11.2706 49.4987 12.0531 49.5574 12.879 49.7522C12.8491 49.6374 12.8322 49.5217 12.8288 49.4063C12.8184 49.0596 12.9322 48.7361 13.1494 48.4953C13.3731 48.2474 13.694 48.1028 14.0528 48.088C14.1568 48.0838 14.2637 48.0904 14.3725 48.1075C14.1941 47.6642 14.1236 47.2186 14.167 46.7901C14.2292 46.1748 14.5286 45.6046 15.0101 45.1846C15.5145 44.7444 16.1688 44.4999 16.8523 44.4959C16.858 44.4958 16.8638 44.4958 16.8695 44.4958C17.6084 44.4958 18.2974 44.7736 18.8633 45.2999C18.9277 45.3598 18.9643 45.4438 18.9643 45.5318V52.8303C18.9643 53.0052 18.8225 53.1469 18.6477 53.1469ZM9.90904 52.5138H18.3311V45.6744C17.3629 44.8633 16.1262 45.0511 15.4263 45.6617C14.7911 46.2159 14.4306 47.2603 15.3236 48.5297C15.4101 48.6526 15.3982 48.8194 15.2952 48.9288C15.1922 49.0383 15.0265 49.0602 14.8985 48.9813C14.3695 48.6552 13.8795 48.6314 13.6196 48.9195C13.414 49.1473 13.3671 49.5862 13.7258 50.0529C13.8101 50.1627 13.8133 50.3145 13.7339 50.4277C13.6544 50.541 13.5105 50.5896 13.3786 50.5475C12.4003 50.2359 11.4355 50.1165 10.6618 50.2111C9.99366 50.2929 9.49666 50.5314 9.29829 50.8657C9.05289 51.2791 9.27553 51.8757 9.90904 52.5138Z" fill="#2E3349"/>
<path d="M27.6736 7.37494C27.3701 8.00815 26.7233 8.44493 25.9746 8.44493C24.935 8.44493 24.0918 7.60174 24.0918 6.56212C24.0918 5.52164 24.935 4.67932 25.9746 4.67932C26.1331 4.67932 26.2874 4.6987 26.4342 4.7358C25.8153 4.91118 25.3625 5.48033 25.3625 6.15573C25.3625 6.97108 26.0235 7.63296 26.8389 7.63296C27.1483 7.63294 27.4358 7.53767 27.6736 7.37494Z" fill="#FEB71F"/>
<g opacity="0.3">
<g opacity="0.3">
<path opacity="0.3" d="M27.1787 8.00974C26.8524 8.28126 26.4324 8.44482 25.9746 8.44482C24.935 8.44482 24.0918 7.60163 24.0918 6.562C24.0918 5.80989 24.5328 5.16148 25.1694 4.85962C24.7529 5.20447 24.4881 5.72555 24.4881 6.30904C24.4881 7.34869 25.3313 8.19185 26.3709 8.19185C26.6601 8.19188 26.9341 8.12608 27.1787 8.00974Z" fill="#2E3349"/>
</g>
</g>
<g opacity="0.55">
<g opacity="0.55">
<path opacity="0.55" d="M27.6099 7.40299C27.4261 7.78662 27.1158 8.09861 26.7338 8.28326C26.9539 8.10703 27.1343 7.88275 27.2574 7.62473C27.0197 7.78747 26.7321 7.88275 26.4227 7.88275C25.6073 7.88275 24.9463 7.22087 24.9463 6.4055C24.9463 5.80431 25.3046 5.28743 25.8207 5.05725C25.5011 5.32792 25.2987 5.7318 25.2987 6.18373C25.2987 6.99908 25.9598 7.66099 26.7751 7.66099C27.0846 7.66099 27.3721 7.56572 27.6099 7.40299Z" fill="white"/>
</g>
</g>
<path d="M25.9748 8.70869C24.7911 8.70869 23.8281 7.74571 23.8281 6.56204C23.8281 5.37839 24.7911 4.41541 25.9748 4.41541C26.1533 4.41541 26.3296 4.43713 26.499 4.47993C26.6147 4.5092 26.6964 4.61258 26.6981 4.73196C26.6998 4.85133 26.6211 4.95699 26.5062 4.98954C25.9882 5.13634 25.6264 5.61586 25.6264 6.15563C25.6264 6.8247 26.1704 7.36904 26.839 7.36904C27.0851 7.36904 27.3222 7.29576 27.5248 7.15714C27.6233 7.08969 27.7549 7.09684 27.8455 7.17459C27.9362 7.25233 27.9633 7.38123 27.9117 7.48891C27.5565 8.22991 26.7962 8.70869 25.9748 8.70869ZM25.5365 5.00331C24.856 5.19487 24.3558 5.82115 24.3558 6.56204C24.3558 7.45475 25.082 8.18104 25.9747 8.18104C26.3062 8.18104 26.6245 8.07768 26.8898 7.89598C26.8729 7.89647 26.856 7.89672 26.839 7.89672C25.8794 7.89672 25.0988 7.11567 25.0988 6.15565C25.0988 5.72142 25.262 5.31439 25.5365 5.00331Z" fill="#2E3349"/>
<path d="M28.9392 16.0803H21.6973V41.3372H28.9392V16.0803Z" fill="#4A83FF"/>
<path d="M28.9394 41.601H21.6974C21.5517 41.601 21.4336 41.4829 21.4336 41.3372V16.0804C21.4336 15.9347 21.5517 15.8165 21.6974 15.8165H28.9394C29.0851 15.8165 29.2032 15.9346 29.2032 16.0804V41.3372C29.2032 41.4829 29.0851 41.601 28.9394 41.601ZM21.9612 41.0734H28.6756V16.3442H21.9612V41.0734Z" fill="#2E3349"/>
<path d="M29.626 15.4998C29.626 16.0535 29.1772 16.5024 28.6235 16.5024H22.0807C21.527 16.5024 21.0781 16.0535 21.0781 15.4998C21.0781 14.9462 21.527 14.4973 22.0807 14.4973H28.6235C29.1772 14.4973 29.626 14.9462 29.626 15.4998Z" fill="#FEB71F"/>
<g opacity="0.55">
<g opacity="0.55">
<path opacity="0.55" d="M29.626 15.135H21.0781C21.0781 14.8435 21.3144 14.6073 21.6058 14.6073H29.0984C29.3898 14.6073 29.626 14.8436 29.626 15.135Z" fill="white"/>
</g>
</g>
<path d="M28.9397 14.497H21.6982C21.6982 13.1715 22.0022 12.1173 22.4855 11.3353C24.3375 8.33297 28.8299 9.32494 28.9376 14.3123V14.3133C28.9387 14.3745 28.9397 14.4347 28.9397 14.497Z" fill="#FEB71F"/>
<g opacity="0.55">
<g opacity="0.55">
<path opacity="0.55" d="M28.9395 14.497H28.7432C28.3443 9.43257 23.1871 8.93025 21.8447 12.9911C22.8736 8.07125 28.9395 8.57359 28.9395 14.497Z" fill="white"/>
</g>
</g>
<g opacity="0.3">
<g opacity="0.3">
<path opacity="0.3" d="M28.9398 32.5428H21.5791V33.4839H28.9398V32.5428Z" fill="#262F6A"/>
</g>
<g opacity="0.3">
<path opacity="0.3" d="M28.9971 33.5414H21.5215V32.4855H28.9971V33.5414ZM21.6364 33.4265H28.8822V32.6004H21.6364V33.4265Z" fill="#2E3349"/>
</g>
</g>
<path d="M28.6227 16.7662H22.0798C21.3816 16.7662 20.8135 16.1982 20.8135 15.4999C20.8135 14.8016 21.3816 14.2335 22.0798 14.2335H28.6227C29.321 14.2335 29.8891 14.8016 29.8891 15.4999C29.8891 16.1982 29.321 16.7662 28.6227 16.7662ZM22.0798 14.7612C21.6725 14.7612 21.3411 15.0926 21.3411 15.4999C21.3411 15.9072 21.6725 16.2386 22.0798 16.2386H28.6227C29.03 16.2386 29.3614 15.9072 29.3614 15.4999C29.3614 15.0926 29.03 14.7612 28.6227 14.7612H22.0798Z" fill="#2E3349"/>
<path d="M29.626 23.4145C29.626 23.9682 29.1772 24.417 28.6235 24.417H22.0807C21.527 24.417 21.0781 23.9682 21.0781 23.4145C21.0781 22.8608 21.527 22.412 22.0807 22.412H28.6235C29.1772 22.412 29.626 22.8608 29.626 23.4145Z" fill="#FEB71F"/>
<path d="M28.6234 24.4746H22.0805C21.496 24.4746 21.0205 23.9991 21.0205 23.4146C21.0205 22.8301 21.496 22.3546 22.0805 22.3546H28.6234C29.2078 22.3546 29.6834 22.8301 29.6834 23.4146C29.6834 23.9991 29.2078 24.4746 28.6234 24.4746ZM22.0805 22.4695C21.5594 22.4695 21.1354 22.8935 21.1354 23.4146C21.1354 23.9357 21.5594 24.3596 22.0805 24.3596H28.6234C29.1445 24.3596 29.5684 23.9357 29.5684 23.4146C29.5684 22.8935 29.1445 22.4695 28.6234 22.4695H22.0805Z" fill="#2E3349"/>
<g opacity="0.55">
<g opacity="0.55">
<path opacity="0.55" d="M29.626 23.0496H21.0781C21.0781 22.7582 21.3144 22.522 21.6058 22.522H29.0984C29.3898 22.522 29.626 22.7582 29.626 23.0496Z" fill="white"/>
</g>
</g>
<path d="M28.6227 24.6809H22.0798C21.3816 24.6809 20.8135 24.1128 20.8135 23.4146C20.8135 22.7163 21.3816 22.1482 22.0798 22.1482H28.6227C29.321 22.1482 29.8891 22.7163 29.8891 23.4146C29.8891 24.1128 29.321 24.6809 28.6227 24.6809ZM22.0798 22.6759C21.6725 22.6759 21.3411 23.0072 21.3411 23.4146C21.3411 23.8219 21.6725 24.1533 22.0798 24.1533H28.6227C29.03 24.1533 29.3614 23.8219 29.3614 23.4146C29.3614 23.0072 29.03 22.6759 28.6227 22.6759H22.0798Z" fill="#2E3349"/>
<path d="M29.626 31.5922C29.626 32.1459 29.1772 32.5948 28.6235 32.5948H22.0807C21.527 32.5948 21.0781 32.1459 21.0781 31.5922C21.0781 31.0386 21.527 30.5897 22.0807 30.5897H28.6235C29.1772 30.5897 29.626 31.0386 29.626 31.5922Z" fill="#FEB71F"/>
<path d="M28.6234 32.6523H22.0805C21.496 32.6523 21.0205 32.1768 21.0205 31.5923C21.0205 31.0078 21.496 30.5323 22.0805 30.5323H28.6234C29.2078 30.5323 29.6834 31.0078 29.6834 31.5923C29.6834 32.1768 29.2078 32.6523 28.6234 32.6523ZM22.0805 30.6473C21.5594 30.6473 21.1354 31.0712 21.1354 31.5923C21.1354 32.1134 21.5594 32.5373 22.0805 32.5373H28.6234C29.1445 32.5373 29.5684 32.1134 29.5684 31.5923C29.5684 31.0712 29.1445 30.6473 28.6234 30.6473H22.0805Z" fill="#2E3349"/>
<g opacity="0.55">
<g opacity="0.55">
<path opacity="0.55" d="M29.626 31.2274H21.0781C21.0781 30.9359 21.3144 30.6997 21.6058 30.6997H29.0984C29.3898 30.6997 29.626 30.936 29.626 31.2274Z" fill="white"/>
</g>
</g>
<path d="M28.6227 32.8587H22.0798C21.3816 32.8587 20.8135 32.2906 20.8135 31.5923C20.8135 30.894 21.3816 30.3259 22.0798 30.3259H28.6227C29.321 30.3259 29.8891 30.894 29.8891 31.5923C29.8891 32.2906 29.321 32.8587 28.6227 32.8587ZM22.0798 30.8536C21.6725 30.8536 21.3411 31.185 21.3411 31.5923C21.3411 31.9996 21.6725 32.331 22.0798 32.331H28.6227C29.03 32.331 29.3614 31.9996 29.3614 31.5923C29.3614 31.185 29.03 30.8536 28.6227 30.8536H22.0798Z" fill="#2E3349"/>
<path d="M28.9399 14.7612H21.6984C21.5527 14.7612 21.4346 14.643 21.4346 14.4973C21.4346 12.9349 21.8472 11.6174 22.6278 10.6872C23.3355 9.84383 24.2913 9.37939 25.3191 9.37939C26.347 9.37939 27.3028 9.84383 28.0105 10.6872C28.7911 11.6174 29.2037 12.9349 29.2037 14.4973C29.2037 14.643 29.0856 14.7612 28.9399 14.7612ZM21.9665 14.2335H28.6718C28.629 12.9135 28.2629 11.8088 27.6063 11.0263C27.0006 10.3045 26.1883 9.90705 25.3191 9.90705C24.4499 9.90705 23.6376 10.3046 23.032 11.0263C22.3754 11.8088 22.0092 12.9135 21.9665 14.2335Z" fill="#2E3349"/>
<path d="M25.8095 41.6801H18.5631C18.0288 41.6801 17.5957 41.247 17.5957 40.7127C17.5957 40.1785 18.0288 39.7454 18.5631 39.7454H25.8095C26.3437 39.7454 26.7768 40.1785 26.7768 40.7127C26.7768 41.247 26.3437 41.6801 25.8095 41.6801Z" fill="#FEB71F"/>
<g opacity="0.55">
<g opacity="0.55">
<path opacity="0.55" d="M27.0405 39.8109H17.8594V40.3365H27.0405V39.8109Z" fill="white"/>
</g>
</g>
<path d="M35.9315 39.7455H26.0645V41.6802H35.9315V39.7455Z" fill="#FEB71F"/>
<path d="M35.9888 41.7376H26.0068V39.688H35.9888V41.7376ZM26.1218 41.6227H35.8739V39.8029H26.1218V41.6227Z" fill="#2E3349"/>
<path d="M25.8266 41.6801H18.3867V49.7355H25.8266V41.6801Z" fill="#4A83FF"/>
<g opacity="0.3">
<g opacity="0.3">
<path opacity="0.3" d="M25.8266 41.6804H18.3867V42.7305H25.8266V41.6804Z" fill="#2E3349"/>
</g>
</g>
<path d="M25.8086 41.9439H18.5622C17.8834 41.9439 17.3311 41.3917 17.3311 40.7128C17.3311 40.0339 17.8834 39.4816 18.5622 39.4816H25.8086C26.4875 39.4816 27.0398 40.0339 27.0398 40.7128C27.0398 41.3917 26.4875 41.9439 25.8086 41.9439ZM18.5622 40.0092C18.1743 40.0092 17.8587 40.3249 17.8587 40.7128C17.8587 41.1007 18.1743 41.4163 18.5622 41.4163H25.8086C26.1966 41.4163 26.5122 41.1007 26.5122 40.7128C26.5122 40.3249 26.1966 40.0092 25.8086 40.0092H18.5622Z" fill="#2E3349"/>
<path d="M35.9307 41.9439H26.0636C25.9179 41.9439 25.7998 41.8258 25.7998 41.6801V39.7454C25.7998 39.5997 25.9179 39.4816 26.0636 39.4816H35.9307C36.0764 39.4816 36.1945 39.5997 36.1945 39.7454V41.6801C36.1945 41.8258 36.0764 41.9439 35.9307 41.9439ZM26.3274 41.4163H35.6668V40.0092H26.3274V41.4163Z" fill="#2E3349"/>
<path d="M25.8267 49.9994H18.3869C18.2412 49.9994 18.123 49.8813 18.123 49.7356V41.6801C18.123 41.5344 18.2412 41.4163 18.3869 41.4163H25.8267C25.9724 41.4163 26.0906 41.5344 26.0906 41.6801V49.7356C26.0905 49.8813 25.9724 49.9994 25.8267 49.9994ZM18.6507 49.4717H25.5629V41.9439H18.6507V49.4717Z" fill="#2E3349"/>
<path d="M25.8267 49.9994H18.3869C18.2412 49.9994 18.123 49.8813 18.123 49.7356V41.6801C18.123 41.5344 18.2412 41.4163 18.3869 41.4163H25.8267C25.9724 41.4163 26.0906 41.5344 26.0906 41.6801V49.7356C26.0905 49.8813 25.9724 49.9994 25.8267 49.9994ZM18.6507 49.4717H25.5629V41.9439H18.6507V49.4717Z" fill="#2E3349"/>
<path d="M26.4071 32.0065H24.3672V49.7355H26.4071V32.0065Z" fill="#4A83FF"/>
<path d="M31.2352 32.0065C31.0928 32.7737 31.0083 33.5599 30.9862 34.3629H28.9399V49.7355H26.4072V32.0065H31.2352Z" fill="#4A83FF"/>
<g opacity="0.55">
<g opacity="0.55">
<path opacity="0.55" d="M26.4071 31.8834H24.3672V32.6929H26.4071V31.8834Z" fill="white"/>
</g>
</g>
<g opacity="0.55">
<g opacity="0.55">
<path opacity="0.55" d="M31.2352 31.8834C31.1856 32.1515 31.1434 32.4206 31.1086 32.6929H26.4072V31.8834H31.2352Z" fill="white"/>
</g>
</g>
<path d="M54.5486 32.0065H45.4023V49.7355H54.5486V32.0065Z" fill="#4A83FF"/>
<path d="M45.4022 32.0065H43.3623V49.7355H45.4022V32.0065Z" fill="#4A83FF"/>
<g opacity="0.55">
<g opacity="0.55">
<path opacity="0.55" d="M45.4022 32.0065H43.3623V32.666H45.4022V32.0065Z" fill="white"/>
</g>
</g>
<path d="M26.4073 49.9994H24.3674C24.2217 49.9994 24.1035 49.8812 24.1035 49.7355V32.0065C24.1035 31.8608 24.2217 31.7427 24.3674 31.7427H26.4073C26.553 31.7427 26.6711 31.8608 26.6711 32.0065V49.7355C26.6711 49.8813 26.553 49.9994 26.4073 49.9994ZM24.6312 49.4717H26.1434V32.2704H24.6312V49.4717Z" fill="#2E3349"/>
<path d="M28.9401 49.9994H26.4074C26.2617 49.9994 26.1436 49.8812 26.1436 49.7355V32.0065C26.1436 31.8608 26.2617 31.7427 26.4074 31.7427H31.2354C31.3138 31.7427 31.3881 31.7776 31.4383 31.8379C31.4884 31.8981 31.5091 31.9776 31.4948 32.0547C31.3538 32.8136 31.2715 33.5927 31.2501 34.3703C31.2461 34.5131 31.1292 34.6268 30.9863 34.6268H29.2039V49.7355C29.2039 49.8813 29.0858 49.9994 28.9401 49.9994ZM26.6712 49.4717H28.6763V34.363C28.6763 34.2173 28.7944 34.0992 28.9401 34.0992H30.7318C30.7589 33.4858 30.8224 32.8729 30.9214 32.2704H26.6712V49.4717Z" fill="#2E3349"/>
<path d="M43.3622 34.363H28.9395V49.7356H43.3622V34.363Z" fill="#4A83FF"/>
<g opacity="0.55">
<g opacity="0.55">
<path opacity="0.55" d="M43.3622 34.363H28.9395V35.0311H43.3622V34.363Z" fill="white"/>
</g>
</g>
<path d="M43.3624 49.9994H28.9396C28.7939 49.9994 28.6758 49.8812 28.6758 49.7355V34.363C28.6758 34.2173 28.7939 34.0991 28.9396 34.0991H43.3624C43.5081 34.0991 43.6262 34.2173 43.6262 34.363V49.7355C43.6262 49.8812 43.5081 49.9994 43.3624 49.9994ZM29.2034 49.4717H43.0986V34.6268H29.2034V49.4717Z" fill="#2E3349"/>
<path d="M40.7246 41.4514V49.7355H39.1416V41.4514C39.1416 40.5037 38.7575 39.6468 38.137 39.0263C37.8679 38.7572 37.5534 38.5314 37.2062 38.3647C36.7545 38.1441 36.2469 38.0217 35.7119 38.0217C33.8176 38.0217 32.2822 39.5572 32.2822 41.4514V49.7355H30.6992V41.4514C30.6992 38.6834 32.9428 36.4387 35.7119 36.4387C37.0954 36.4387 38.3491 37.0001 39.2566 37.9066C40.1631 38.8142 40.7246 40.0669 40.7246 41.4514Z" fill="#FEB71F"/>
<g opacity="0.55">
<g opacity="0.55">
<path opacity="0.55" d="M33.0315 39.1656C32.4891 39.7725 32.1588 40.5723 32.1588 41.4514V49.7355H31.7188V41.8641C31.7188 40.7686 32.2316 39.7935 33.0315 39.1656Z" fill="white"/>
</g>
</g>
<g opacity="0.55">
<g opacity="0.55">
<path opacity="0.55" d="M40.636 41.3547V49.6388H40.196V41.7673C40.196 40.3828 39.6345 39.1301 38.7281 38.2226C37.8205 37.3161 36.5668 36.7547 35.1833 36.7547C33.9655 36.7547 32.849 37.1894 31.9805 37.9113C32.8943 36.9446 34.1882 36.342 35.6233 36.342C37.0069 36.342 38.2605 36.9035 39.1681 37.8099C40.0746 38.7175 40.636 39.9702 40.636 41.3547Z" fill="white"/>
</g>
</g>
<path d="M40.7238 49.9994H39.1408C38.9951 49.9994 38.877 49.8812 38.877 49.7355V41.4514C38.877 40.6059 38.5476 39.8109 37.9496 39.2129C37.6966 38.9599 37.4078 38.7546 37.0912 38.6025C36.66 38.3919 36.1961 38.2855 35.7111 38.2855C33.9654 38.2855 32.5452 39.7057 32.5452 41.4514V49.7355C32.5452 49.8812 32.4271 49.9994 32.2814 49.9994H30.6984C30.5527 49.9994 30.4346 49.8812 30.4346 49.7355V41.4514C30.4346 40.0421 30.9833 38.7171 31.9798 37.7205C32.9763 36.7239 34.3015 36.1749 35.7111 36.1749C37.1196 36.1749 38.4447 36.7237 39.4423 37.72C40.4389 38.7178 40.9876 40.0429 40.9876 41.4514V49.7355C40.9876 49.8812 40.8695 49.9994 40.7238 49.9994ZM39.4046 49.4717H40.4599V41.4514C40.4599 40.1837 39.966 38.991 39.0692 38.0931C38.1715 37.1965 36.9788 36.7026 35.7111 36.7026C33.0926 36.7026 30.9622 38.8329 30.9622 41.4514V49.4717H32.0175V41.4514C32.0175 39.4148 33.6744 37.7579 35.7111 37.7579C36.2771 37.7579 36.8188 37.8823 37.3212 38.1276C37.69 38.3048 38.0275 38.5446 38.3227 38.8398C39.0204 39.5375 39.4046 40.4649 39.4046 41.4514V49.4717Z" fill="#2E3349"/>
<path d="M39.1408 49.9994H32.2814C32.1357 49.9994 32.0176 49.8813 32.0176 49.7356V41.4515C32.0176 39.4148 33.6745 37.7579 35.7111 37.7579C36.2771 37.7579 36.8188 37.8823 37.3212 38.1277C37.6901 38.3048 38.0276 38.5447 38.3228 38.8398C39.0205 39.5375 39.4047 40.465 39.4047 41.4515V49.7355C39.4046 49.8813 39.2865 49.9994 39.1408 49.9994ZM32.5452 49.4718H38.877V41.4515C38.877 40.606 38.5477 39.811 37.9496 39.213C37.6967 38.96 37.4079 38.7546 37.0912 38.6025C36.66 38.392 36.1962 38.2856 35.7111 38.2856C33.9654 38.2856 32.5452 39.7058 32.5452 41.4515V49.4718H32.5452Z" fill="#2E3349"/>
<path d="M39.1417 41.4513V49.7354H32.2822V41.4513C32.2822 41.3775 32.2843 41.3046 32.2885 41.2318C32.4025 39.4399 33.8916 38.0216 35.7119 38.0216C36.247 38.0216 36.7546 38.144 37.2062 38.3646C37.5534 38.5313 37.8679 38.7571 38.137 39.0262C38.3575 39.2468 38.5475 39.4969 38.7005 39.7702C38.9823 40.2662 39.1417 40.8403 39.1417 41.4513Z" fill="#4A83FF"/>
<path d="M39.199 49.793H32.2246V41.4514C32.2246 41.3762 32.2267 41.3032 32.231 41.2286C32.3475 39.3979 33.8764 37.9642 35.7118 37.9642C36.2462 37.9642 36.7574 38.0816 37.2313 38.313C37.5804 38.4806 37.8989 38.707 38.1775 38.9857C38.4029 39.2111 38.5957 39.4656 38.7506 39.7422C39.0439 40.2586 39.199 40.8497 39.199 41.4514V49.793H39.199ZM32.3395 49.678H39.084V41.4514C39.084 40.8695 38.9341 40.298 38.6504 39.7987C38.5005 39.5309 38.3141 39.2848 38.0962 39.067C37.8267 38.7975 37.5189 38.5786 37.1812 38.4165C36.7228 38.1926 36.2285 38.0792 35.7118 38.0792C33.9369 38.0792 32.4584 39.4656 32.3458 41.2355C32.3416 41.3077 32.3396 41.3784 32.3396 41.4514V49.678H32.3395Z" fill="#2E3349"/>
<path d="M39.1408 49.9994H32.2814C32.1357 49.9994 32.0176 49.8813 32.0176 49.7356V41.4515C32.0176 39.4148 33.6745 37.7579 35.7111 37.7579C36.2771 37.7579 36.8188 37.8823 37.3212 38.1277C37.6901 38.3048 38.0276 38.5447 38.3228 38.8398C39.0205 39.5375 39.4047 40.465 39.4047 41.4515V49.7355C39.4046 49.8813 39.2865 49.9994 39.1408 49.9994ZM32.5452 49.4718H38.877V41.4515C38.877 40.606 38.5477 39.811 37.9496 39.213C37.6967 38.96 37.4079 38.7546 37.0912 38.6025C36.66 38.392 36.1962 38.2856 35.7111 38.2856C33.9654 38.2856 32.5452 39.7058 32.5452 41.4515V49.4718H32.5452Z" fill="#2E3349"/>
<path d="M39.1403 41.4514V49.7355H35.2705V41.4514C35.2705 40.0932 36.0599 38.9197 37.2049 38.3646C37.5521 38.5314 37.8666 38.7572 38.1357 39.0263C38.7562 39.6468 39.1403 40.5037 39.1403 41.4514Z" fill="white"/>
<path d="M39.1986 49.793H35.2139V41.4514C35.2139 40.7841 35.403 40.1355 35.7607 39.576C36.109 39.0312 36.6 38.5945 37.1807 38.313L37.2056 38.3009L37.2306 38.3129C37.58 38.4807 37.8984 38.707 38.1771 38.9858C38.8358 39.6444 39.1986 40.5201 39.1986 41.4515V49.793H39.1986ZM35.3288 49.6781H39.0836V41.4514C39.0836 40.5508 38.7328 39.704 38.0958 39.067C37.833 38.8042 37.5337 38.5895 37.2058 38.4286C36.0646 38.9937 35.3288 40.1771 35.3288 41.4514V49.6781H35.3288Z" fill="#2E3349"/>
<path d="M39.1414 49.9993H35.2716C35.1259 49.9993 35.0078 49.8812 35.0078 49.7355V41.4514C35.0078 40.7446 35.2082 40.0576 35.5872 39.4647C35.956 38.8879 36.476 38.4254 37.0909 38.1272C37.1633 38.0922 37.2477 38.092 37.3202 38.1268C37.6907 38.3047 38.0282 38.5446 38.3234 38.8398C39.0211 39.5374 39.4053 40.4649 39.4053 41.4514V49.7355C39.4052 49.8812 39.2871 49.9993 39.1414 49.9993ZM35.5354 49.4717H38.8776V41.4514C38.8776 40.6059 38.5482 39.8109 37.9502 39.2129C37.7281 38.9907 37.4783 38.8053 37.2064 38.6605C36.1724 39.213 35.5354 40.2709 35.5354 41.4514V49.4717Z" fill="#2E3349"/>
<path d="M54.5491 32.0065H43.3629V34.3629H30.9863C31.0011 33.8406 31.0412 33.3245 31.1087 32.8169C31.1425 32.5447 31.1858 32.2745 31.2354 32.0065C31.5836 30.1291 32.2791 28.3752 33.251 26.8165C33.2521 26.8165 33.2521 26.8165 33.2521 26.8165C33.461 26.4798 33.6837 26.1527 33.919 25.8361L33.9211 25.833C36.6153 22.1922 40.9125 19.8357 45.7542 19.8357C50.2498 19.8357 54.2747 21.8661 56.9847 25.071C57.3065 25.452 57.6094 25.8498 57.8933 26.2625C58.7502 27.5098 59.4245 28.8965 59.8762 30.3813V30.3823C60.2603 31.6455 60.484 32.9816 60.522 34.3629H54.5491V32.0065H54.5491Z" fill="#FEB71F"/>
<g opacity="0.55">
<g opacity="0.55">
<path opacity="0.55" d="M60.5219 34.3629H60.3425C60.2496 33.3182 60.0491 32.303 59.7536 31.3321V31.3311C59.302 29.8463 58.6276 28.4596 57.7707 27.2122C57.4868 26.7996 57.184 26.4018 56.8621 26.0208C54.1521 22.8159 50.1272 20.7855 45.6316 20.7855C40.7899 20.7855 36.4927 23.142 33.7985 26.7828L33.7965 26.7859C33.5611 27.1025 33.3385 27.4297 33.1295 27.7663C33.1295 27.7663 33.1295 27.7663 33.1284 27.7663C32.1565 29.325 31.4611 31.0789 31.1128 32.9563C31.0917 33.0702 31.0716 33.1842 31.0537 33.2982C31.0685 33.1367 31.0875 32.9763 31.1086 32.8169C31.1424 32.5447 31.1856 32.2745 31.2352 32.0065C31.5835 30.1291 32.2789 28.3752 33.2508 26.8165C33.2519 26.8165 33.2519 26.8165 33.2519 26.8165C33.4608 26.4798 33.6835 26.1527 33.9188 25.8361L33.921 25.833C36.6151 22.1922 40.9123 19.8357 45.754 19.8357C50.2496 19.8357 54.2745 21.8661 56.9845 25.071C57.3064 25.452 57.6093 25.8498 57.8931 26.2625C58.75 27.5098 59.4243 28.8965 59.876 30.3813V30.3823C60.2602 31.6456 60.4839 32.9816 60.5219 34.3629Z" fill="white"/>
</g>
</g>
<g opacity="0.55">
<g opacity="0.55">
<path opacity="0.55" d="M54.5486 32.0065H45.4023V32.666H54.5486V32.0065Z" fill="white"/>
</g>
</g>
<path d="M60.5212 34.6268H54.5483C54.4025 34.6268 54.2844 34.5086 54.2844 34.3629V32.2703H43.6259V34.3629C43.6259 34.5086 43.5078 34.6268 43.3621 34.6268H30.9855C30.9143 34.6268 30.8461 34.598 30.7964 34.5469C30.7467 34.4958 30.7198 34.4269 30.7218 34.3557C30.744 33.5507 30.8292 32.7442 30.9752 31.9583C31.2974 30.2227 31.9122 28.5708 32.8026 27.0484C33.6744 25.5577 34.783 24.2365 36.0977 23.1215C37.4225 21.9978 38.9126 21.1212 40.5265 20.516C42.1971 19.8896 43.9556 19.5719 45.7534 19.5719C47.7492 19.5719 49.6878 19.9611 51.5155 20.7287C53.2805 21.47 54.8726 22.5331 56.2474 23.8885C57.6203 25.2419 58.7112 26.8223 59.4899 28.5856C60.2943 30.4074 60.73 32.3487 60.785 34.3558C60.7869 34.427 60.76 34.4959 60.7103 34.5469C60.6607 34.598 60.5925 34.6268 60.5212 34.6268ZM54.8121 34.0991H60.2477C59.8945 26.2266 53.5783 20.0996 45.7534 20.0996C38.777 20.0996 32.78 25.1274 31.494 32.0547C31.3694 32.7254 31.2906 33.4119 31.2592 34.0992H43.0982V32.0065C43.0982 31.8608 43.2164 31.7427 43.3621 31.7427H54.5483C54.694 31.7427 54.8121 31.8608 54.8121 32.0065V34.0991Z" fill="#2E3349"/>
<path d="M54.5488 49.9994H45.4025C45.2568 49.9994 45.1387 49.8812 45.1387 49.7355V32.0065C45.1387 31.8608 45.2568 31.7427 45.4025 31.7427H54.5488C54.6945 31.7427 54.8126 31.8608 54.8126 32.0065V49.7355C54.8126 49.8813 54.6945 49.9994 54.5488 49.9994ZM45.6663 49.4717H54.285V32.2704H45.6663V49.4717Z" fill="#2E3349"/>
<path d="M45.4024 49.9994H43.3625C43.2168 49.9994 43.0986 49.8812 43.0986 49.7355V32.0065C43.0986 31.8608 43.2168 31.7427 43.3625 31.7427H45.4024C45.5481 31.7427 45.6662 31.8608 45.6662 32.0065V49.7355C45.6662 49.8813 45.5481 49.9994 45.4024 49.9994ZM43.6263 49.4717H45.1385V32.2704H43.6263V49.4717Z" fill="#2E3349"/>
<path d="M62.6388 34.363H54.5488V49.7356H62.6388V34.363Z" fill="#4A83FF"/>
<g opacity="0.55">
<g opacity="0.55">
<path opacity="0.55" d="M62.6388 34.363H54.5488V35.0226H62.6388V34.363Z" fill="white"/>
</g>
</g>
<path d="M62.6389 49.9994H54.549C54.4033 49.9994 54.2852 49.8812 54.2852 49.7355V34.363C54.2852 34.2173 54.4033 34.0991 54.549 34.0991H62.6389C62.7846 34.0991 62.9027 34.2173 62.9027 34.363V49.7355C62.9027 49.8812 62.7846 49.9994 62.6389 49.9994ZM54.8128 49.4717H62.3751V34.6268H54.8128V49.4717Z" fill="#2E3349"/>
<path d="M44.3822 49.7356H15.4844V51.0547H44.3822V49.7356Z" fill="#8EA5B2"/>
<path d="M68.25 49.7356H44.3828V51.0547H68.25V49.7356Z" fill="#8EA5B2"/>
<g opacity="0.55">
<g opacity="0.55">
<path opacity="0.55" d="M44.3816 49.7762H15.4844V50.2163H44.3816V49.7762Z" fill="white"/>
</g>
</g>
<g opacity="0.55">
<g opacity="0.55">
<path opacity="0.55" d="M68.2495 49.7762H44.3818V50.2163H68.2495V49.7762Z" fill="white"/>
</g>
</g>
<path d="M42.7988 51.0547H14.2354V52.8751H42.7988V51.0547Z" fill="#8EA5B2"/>
<g opacity="0.55">
<g opacity="0.55">
<path opacity="0.55" d="M23.0299 47.5542C23.0299 47.9039 22.7464 48.1874 22.3967 48.1874H20.9984C20.6487 48.1874 20.3652 47.9039 20.3652 47.5542H23.0299Z" fill="white"/>
</g>
</g>
<g opacity="0.55">
<g opacity="0.55">
<path opacity="0.55" d="M26.5503 29.0339C26.5503 29.3837 26.2883 29.6671 25.9651 29.6671H24.673C24.3498 29.6671 24.0879 29.3837 24.0879 29.0339H26.5503Z" fill="white"/>
</g>
</g>
<g opacity="0.55">
<g opacity="0.55">
<path opacity="0.55" d="M26.5503 21.1018C26.5503 21.4515 26.2883 21.735 25.9651 21.735H24.673C24.3498 21.735 24.0879 21.4515 24.0879 21.1018H26.5503Z" fill="white"/>
</g>
</g>
<path d="M69.6738 51.0547H42.7988V52.8751H69.6738V51.0547Z" fill="#8EA5B2"/>
<g opacity="0.55">
<g opacity="0.55">
<path opacity="0.55" d="M42.799 51.0547H14.2363V51.6288H42.799V51.0547Z" fill="white"/>
</g>
</g>
<g opacity="0.55">
<g opacity="0.55">
<path opacity="0.55" d="M69.6741 51.0547H42.7988V51.6288H69.6741V51.0547Z" fill="white"/>
</g>
</g>
<path d="M44.3823 51.3185H15.4845C15.3388 51.3185 15.2207 51.2003 15.2207 51.0546V49.7355C15.2207 49.5898 15.3388 49.4717 15.4845 49.4717H44.3823C44.528 49.4717 44.6462 49.5898 44.6462 49.7355V51.0546C44.6461 51.2003 44.528 51.3185 44.3823 51.3185ZM15.7484 50.7908H44.1185V49.9994H15.7484V50.7908Z" fill="#2E3349"/>
<path d="M68.2492 51.3185H44.382C44.2363 51.3185 44.1182 51.2003 44.1182 51.0546V49.7355C44.1182 49.5898 44.2363 49.4717 44.382 49.4717H68.2492C68.3949 49.4717 68.513 49.5898 68.513 49.7355V51.0546C68.513 51.2003 68.3949 51.3185 68.2492 51.3185ZM44.6458 50.7908H67.9853V49.9994H44.6458V50.7908Z" fill="#2E3349"/>
<path d="M42.799 53.1388H14.2355C14.0898 53.1388 13.9717 53.0207 13.9717 52.875V51.0546C13.9717 50.9089 14.0898 50.7908 14.2355 50.7908H42.799C42.9447 50.7908 43.0628 50.9089 43.0628 51.0546V52.875C43.0628 53.0207 42.9447 53.1388 42.799 53.1388ZM14.4993 52.6112H42.5351V51.3185H14.4993V52.6112Z" fill="#2E3349"/>
<path d="M69.6739 53.1388H42.799C42.6533 53.1388 42.5352 53.0207 42.5352 52.875V51.0546C42.5352 50.9089 42.6533 50.7908 42.799 50.7908H69.6739C69.8197 50.7908 69.9378 50.9089 69.9378 51.0546V52.875C69.9378 53.0207 69.8197 53.1388 69.6739 53.1388ZM43.0628 52.6112H69.4101V51.3185H43.0628V52.6112Z" fill="#2E3349"/>
<path d="M23.0299 47.5546H20.3652V45.1934C20.3652 44.4576 20.9617 43.8611 21.6976 43.8611C22.4334 43.8611 23.0299 44.4576 23.0299 45.1934V47.5546Z" fill="white"/>
<path d="M23.03 47.8184H20.3654C20.2197 47.8184 20.1016 47.7002 20.1016 47.5545V45.1933C20.1016 44.3132 20.8176 43.5972 21.6977 43.5972C22.5778 43.5972 23.2938 44.3132 23.2938 45.1933V47.5545C23.2938 47.7003 23.1757 47.8184 23.03 47.8184ZM20.6292 47.2907H22.7662V45.1933C22.7662 44.6042 22.2869 44.1249 21.6977 44.1249C21.1085 44.1249 20.6292 44.6042 20.6292 45.1933V47.2907Z" fill="#2E3349"/>
<path d="M26.3525 29.122H24.2852V26.8667C24.2852 26.2958 24.748 25.833 25.3189 25.833C25.8897 25.833 26.3525 26.2958 26.3525 26.8667V29.122Z" fill="white"/>
<path d="M26.3527 29.3859H24.2853C24.1396 29.3859 24.0215 29.2677 24.0215 29.122V26.8667C24.0215 26.1513 24.6036 25.5692 25.319 25.5692C26.0345 25.5692 26.6165 26.1513 26.6165 26.8667V29.122C26.6165 29.2677 26.4984 29.3859 26.3527 29.3859ZM24.5491 28.8582H26.0889V26.8667C26.0889 26.4422 25.7435 26.0969 25.319 26.0969C24.8945 26.0969 24.5491 26.4422 24.5491 26.8667V28.8582Z" fill="#2E3349"/>
<path d="M26.3525 21.1016H24.2852V18.8463C24.2852 18.2754 24.748 17.8126 25.3189 17.8126C25.8897 17.8126 26.3525 18.2754 26.3525 18.8463V21.1016Z" fill="white"/>
<path d="M26.4099 21.1592H24.2275V18.8464C24.2275 18.2447 24.717 17.7552 25.3187 17.7552C25.9204 17.7552 26.4099 18.2447 26.4099 18.8464V21.1592ZM24.3425 21.0443H26.295V18.8464C26.295 18.3081 25.857 17.8702 25.3187 17.8702C24.7804 17.8702 24.3425 18.3081 24.3425 18.8464V21.0443Z" fill="#2E3349"/>
<path d="M26.3527 21.3656H24.2853C24.1396 21.3656 24.0215 21.2475 24.0215 21.1018V18.8465C24.0215 18.131 24.6036 17.549 25.319 17.549C26.0345 17.549 26.6165 18.131 26.6165 18.8465V21.1018C26.6165 21.2475 26.4984 21.3656 26.3527 21.3656ZM24.5491 20.838H26.0889V18.8465C26.0889 18.422 25.7435 18.0766 25.319 18.0766C24.8945 18.0766 24.5491 18.422 24.5491 18.8465V20.838Z" fill="#2E3349"/>
<path d="M58.1628 40.7121C58.1628 40.9802 58.0541 41.2218 57.8789 41.397C57.7037 41.5712 57.4621 41.6798 57.1951 41.6798H48.8202C48.2863 41.6798 47.8525 41.2472 47.8525 40.7121C47.8525 40.5507 47.8926 40.3976 47.9633 40.2636C48.0087 40.176 48.0678 40.0969 48.1364 40.0283C48.3116 39.8531 48.5532 39.7455 48.8202 39.7455H57.1951C57.5676 39.7455 57.8905 39.9555 58.052 40.2636C58.1227 40.3976 58.1628 40.5507 58.1628 40.7121Z" fill="#FEB71F"/>
<path d="M57.195 41.7374H48.8201C48.2548 41.7374 47.7949 41.2776 47.7949 40.7123C47.7949 40.547 47.8355 40.3826 47.9123 40.2369C47.9593 40.1463 48.021 40.0623 48.0956 39.9878C48.2889 39.7945 48.5461 39.6881 48.8201 39.6881H57.195C57.5775 39.6881 57.9254 39.8985 58.1028 40.2371C58.1795 40.3826 58.2201 40.5469 58.2201 40.7123C58.2201 40.9862 58.1133 41.2438 57.9194 41.4378C57.725 41.6311 57.4677 41.7374 57.195 41.7374ZM48.8201 39.8031C48.5768 39.8031 48.3484 39.8975 48.1769 40.069C48.1107 40.1353 48.056 40.2097 48.0142 40.2902C47.9459 40.4197 47.9099 40.5655 47.9099 40.7122C47.9099 41.2141 48.3182 41.6225 48.8201 41.6225H57.195C57.4372 41.6225 57.6657 41.528 57.8383 41.3564C58.0104 41.1843 58.1052 40.9555 58.1052 40.7122C58.1052 40.5655 58.0692 40.4197 58.001 40.2905C57.8435 39.9898 57.5346 39.803 57.195 39.803H48.8201V39.8031Z" fill="#2E3349"/>
<g opacity="0.55">
<g opacity="0.55">
<path opacity="0.55" d="M58.0525 40.2637H47.9639C48.0093 40.1761 48.0683 40.097 48.1369 40.0284C48.3121 39.8532 48.5538 39.7456 48.8208 39.7456H57.1956C57.5682 39.7456 57.8911 39.9556 58.0525 40.2637Z" fill="white"/>
</g>
</g>
<path d="M56.0346 41.6805H48.5947V49.7356H56.0346V41.6805Z" fill="#4A83FF"/>
<path d="M56.0919 49.7931H48.5371V41.623H56.0919V49.7931ZM48.6521 49.6781H55.977V41.738H48.6521V49.6781Z" fill="#2E3349"/>
<path d="M65.954 41.6801H56.0342V49.7355H65.954V41.6801Z" fill="#4A83FF"/>
<path d="M66.0113 49.7931H55.9766V41.6227H66.0113V49.7931ZM56.0915 49.6781H65.8964V41.7376H56.0915V49.6781Z" fill="#2E3349"/>
<g opacity="0.3">
<g opacity="0.3">
<path opacity="0.3" d="M65.954 49.5635V49.7355H56.0342V41.6804H56.0363C56.4613 47.1877 59.6822 49.9004 65.954 49.5635Z" fill="#2E3349"/>
</g>
</g>
<g opacity="0.3">
<g opacity="0.3">
<path opacity="0.3" d="M56.0346 41.6804H48.5947V42.7178H56.0346V41.6804Z" fill="#2E3349"/>
</g>
</g>
<g opacity="0.3">
<g opacity="0.3">
<path opacity="0.3" d="M65.954 41.6804H56.0342V42.7178H65.954V41.6804Z" fill="#2E3349"/>
</g>
</g>
<path d="M58.1623 41.9439H48.8201C48.1412 41.9439 47.5889 41.3917 47.5889 40.7128C47.5889 40.0339 48.1412 39.4816 48.8201 39.4816H58.1623C58.308 39.4816 58.4261 39.5997 58.4261 39.7454V41.6801C58.4261 41.8258 58.308 41.9439 58.1623 41.9439ZM48.8201 40.0092C48.4321 40.0092 48.1165 40.3249 48.1165 40.7128C48.1165 41.1007 48.4321 41.4163 48.8201 41.4163H57.8984V40.0093H48.8201V40.0092Z" fill="#2E3349"/>
<g opacity="0.55">
<g opacity="0.55">
<path opacity="0.55" d="M53.5015 47.5542C53.5015 47.9039 53.2181 48.1874 52.8684 48.1874H51.4701C51.1204 48.1874 50.8369 47.9039 50.8369 47.5542H53.5015Z" fill="white"/>
</g>
</g>
<path d="M56.0347 49.9994H48.5949C48.4492 49.9994 48.3311 49.8813 48.3311 49.7356V41.6801C48.3311 41.5344 48.4492 41.4163 48.5949 41.4163H56.0347C56.1805 41.4163 56.2986 41.5344 56.2986 41.6801V49.7356C56.2986 49.8813 56.1805 49.9994 56.0347 49.9994ZM48.8587 49.4717H55.7709V41.9439H48.8587V49.4717Z" fill="#2E3349"/>
<path d="M65.9542 49.9994H56.0343C55.8886 49.9994 55.7705 49.8813 55.7705 49.7356V41.6801C55.7705 41.5344 55.8886 41.4163 56.0343 41.4163H65.9542C66.0999 41.4163 66.218 41.5344 66.218 41.6801V49.7356C66.218 49.8813 66.0999 49.9994 65.9542 49.9994ZM56.2982 49.4717H65.6903V41.9439H56.2982V49.4717Z" fill="#2E3349"/>
<path d="M53.5015 47.5546H50.8369V45.1934C50.8369 44.4576 51.4334 43.8611 52.1692 43.8611H52.1693C52.9051 43.8611 53.5015 44.4576 53.5015 45.1934V47.5546Z" fill="white"/>
<path d="M53.5017 47.8184H50.8371C50.6914 47.8184 50.5732 47.7002 50.5732 47.5545V45.1933C50.5732 44.3132 51.2893 43.5972 52.1694 43.5972C53.0495 43.5972 53.7655 44.3132 53.7655 45.1933V47.5545C53.7655 47.7003 53.6474 47.8184 53.5017 47.8184ZM51.1009 47.2907H53.2379V45.1933C53.2379 44.6042 52.7586 44.1249 52.1694 44.1249C51.5802 44.1249 51.1009 44.6042 51.1009 45.1933V47.2907Z" fill="#2E3349"/>
<path d="M60.2338 47.5546H57.9121V45.0219C57.9121 44.3808 58.4318 43.8611 59.0729 43.8611C59.714 43.8611 60.2338 44.3808 60.2338 45.0219V47.5546Z" fill="white"/>
<path d="M64.433 47.5546H62.1113V45.0219C62.1113 44.3808 62.631 43.8611 63.2722 43.8611C63.9133 43.8611 64.433 44.3808 64.433 45.0219V47.5546Z" fill="white"/>
<g opacity="0.55">
<g opacity="0.55">
<path opacity="0.55" d="M60.2338 47.5542C60.2338 47.9039 59.9503 48.1874 59.6006 48.1874H58.5453C58.1956 48.1874 57.9121 47.9039 57.9121 47.5542H60.2338Z" fill="white"/>
</g>
</g>
<g opacity="0.55">
<g opacity="0.55">
<path opacity="0.55" d="M64.433 47.5542C64.433 47.9039 64.1495 48.1874 63.7998 48.1874H62.7445C62.3948 48.1874 62.1113 47.9039 62.1113 47.5542H64.433Z" fill="white"/>
</g>
</g>
<path d="M60.2339 47.8184H57.9123C57.7666 47.8184 57.6484 47.7002 57.6484 47.5545V45.0218C57.6484 44.2363 58.2875 43.5972 59.0731 43.5972C59.8587 43.5972 60.4978 44.2363 60.4978 45.0218V47.5545C60.4978 47.7003 60.3796 47.8184 60.2339 47.8184ZM58.1761 47.2907H59.9701V45.0219C59.9701 44.5272 59.5677 44.1248 59.0731 44.1248C58.5785 44.1248 58.176 44.5272 58.176 45.0219V47.2907H58.1761Z" fill="#2E3349"/>
<path d="M64.4332 47.8184H62.1115C61.9658 47.8184 61.8477 47.7002 61.8477 47.5545V45.0218C61.8477 44.2363 62.4868 43.5972 63.2723 43.5972C64.0579 43.5972 64.697 44.2363 64.697 45.0218V47.5545C64.697 47.7003 64.5789 47.8184 64.4332 47.8184ZM62.3753 47.2907H64.1693V45.0219C64.1693 44.5272 63.7669 44.1248 63.2723 44.1248C62.7777 44.1248 62.3753 44.5272 62.3753 45.0219V47.2907H62.3753Z" fill="#2E3349"/>
<g opacity="0.3">
<g opacity="0.3">
<path opacity="0.3" d="M54.0559 49.7356H48.5947V44.1667C48.6464 47.7041 50.337 49.6849 54.0559 49.7356Z" fill="#2E3349"/>
</g>
</g>
<g opacity="0.3">
<g opacity="0.3">
<path opacity="0.3" d="M23.8079 49.7356H18.3467V44.1667C18.3984 47.7041 20.089 49.6849 23.8079 49.7356Z" fill="#2E3349"/>
</g>
</g>
<g opacity="0.3">
<g opacity="0.3">
<path opacity="0.3" d="M47.8032 39.8422L45.4023 43.8787V49.7356H48.4891V41.6805H47.9086L47.8032 39.8422Z" fill="#2E3349"/>
</g>
</g>
<g opacity="0.3">
<g opacity="0.3">
<path opacity="0.3" d="M32.2822 43.3773H35.2719L35.3517 40.7127C35.7201 39.5842 36.2932 38.7391 37.2062 38.3646C34.6092 37.5066 32.968 38.496 32.2849 41.3371L32.2822 43.3773Z" fill="#2E3349"/>
</g>
</g>
<g opacity="0.3">
<g opacity="0.3">
<path opacity="0.3" d="M28.9395 43.8787C29.1861 45.8567 29.5349 47.6083 30.6986 47.5543V49.6388H28.9395V43.8787Z" fill="#2E3349"/>
</g>
</g>
<g opacity="0.3">
<g opacity="0.3">
<path opacity="0.3" d="M40.6367 45.708C41.2168 47.4492 42.0668 48.1702 43.1867 47.8709V49.5069H40.7247L40.6367 45.708Z" fill="#2E3349"/>
</g>
</g>
<g opacity="0.3">
<g opacity="0.3">
<path opacity="0.3" d="M28.9398 34.363L26.3525 39.1657V47.282C25.3737 47.3149 24.694 46.6449 24.3672 45.145V49.7356H28.9398V34.363Z" fill="#2E3349"/>
</g>
</g>
<g opacity="0.3">
<g opacity="0.3">
<path opacity="0.3" d="M43.3629 32.4793V34.363H30.9863C31.0011 33.8406 31.0412 33.3246 31.1087 32.817C31.1425 32.5447 31.1858 32.2745 31.2354 32.0065C31.5836 30.1291 32.2791 28.3752 33.251 26.8165C33.2521 26.8165 33.2521 26.8165 33.2521 26.8165C32.9186 29.3081 37.736 31.3892 43.3629 32.4793Z" fill="#2E3349"/>
</g>
</g>
<g opacity="0.3">
<g opacity="0.3">
<path opacity="0.3" d="M60.5218 34.363H54.5488V33.1505C57.529 32.8244 59.6649 31.9496 59.876 30.3824C60.2601 31.6456 60.4838 32.9817 60.5218 34.363Z" fill="#2E3349"/>
</g>
</g>
<g opacity="0.3">
<g opacity="0.3">
<path opacity="0.3" d="M28.9398 24.4171H21.5791V25.3581H28.9398V24.4171Z" fill="#262F6A"/>
</g>
<g opacity="0.3">
<path opacity="0.3" d="M28.9971 25.4157H21.5215V24.3597H28.9971V25.4157ZM21.6364 25.3007H28.8822V24.4747H21.6364V25.3007Z" fill="#2E3349"/>
</g>
</g>
<g opacity="0.3">
<g opacity="0.3">
<path opacity="0.3" d="M28.9398 16.5024H21.5791V17.4434H28.9398V16.5024Z" fill="#2E3349"/>
</g>
</g>
<g opacity="0.3">
<g opacity="0.3">
<path opacity="0.3" d="M28.9397 14.3123C28.9397 14.3123 28.9387 14.3123 28.9376 14.3134C28.9175 14.3208 28.7424 14.3883 28.4553 14.497H21.6982C21.6982 13.1715 22.0022 12.1173 22.4855 11.3353C22.877 13.7076 25.4023 14.4052 28.9376 14.3123C28.9387 14.3123 28.9387 14.3123 28.9397 14.3123Z" fill="#2E3349"/>
</g>
</g>
<g opacity="0.3">
<g opacity="0.3">
<path opacity="0.3" d="M43.3623 46.2179C43.7945 47.5858 44.4686 48.0705 45.4022 47.6074V49.6388H43.3623V46.2179Z" fill="#2E3349"/>
</g>
</g>
<path d="M25.259 9.90878C25.1133 9.90878 24.9951 9.79066 24.9951 9.64494V8.28325C24.9951 8.13754 25.1133 8.01941 25.259 8.01941C25.4047 8.01941 25.5228 8.13752 25.5228 8.28325V9.64494C25.5228 9.79064 25.4047 9.90878 25.259 9.90878Z" fill="#2E3349"/>
<path d="M45.7541 20.0996C45.6083 20.0996 45.4902 19.9815 45.4902 19.8358V18.0628C45.4902 17.9171 45.6083 17.799 45.7541 17.799C45.8998 17.799 46.0179 17.9171 46.0179 18.0628V19.8358C46.0179 19.9815 45.8998 20.0996 45.7541 20.0996Z" fill="#2E3349"/>
<path d="M48.4702 17.2915C48.0903 18.084 47.2809 18.6307 46.3438 18.6307C45.0426 18.6307 43.9873 17.5754 43.9873 16.2742C43.9873 14.972 45.0426 13.9177 46.3438 13.9177C46.5422 13.9177 46.7353 13.942 46.9189 13.9884C46.1444 14.2079 45.5776 14.9203 45.5776 15.7656C45.5776 16.786 46.405 17.6144 47.4255 17.6144C47.8128 17.6144 48.1726 17.4952 48.4702 17.2915Z" fill="#FEB71F"/>
<g opacity="0.3">
<g opacity="0.3">
<path opacity="0.3" d="M47.8508 18.086C47.4424 18.4258 46.9168 18.6306 46.3438 18.6306C45.0426 18.6306 43.9873 17.5753 43.9873 16.2741C43.9873 15.3328 44.5392 14.5212 45.336 14.1434C44.8147 14.5751 44.4833 15.2272 44.4833 15.9575C44.4833 17.2587 45.5386 18.314 46.8398 18.314C47.2018 18.314 47.5447 18.2317 47.8508 18.086Z" fill="#2E3349"/>
</g>
</g>
<g opacity="0.55">
<g opacity="0.55">
<path opacity="0.55" d="M48.3913 17.3266C48.1613 17.8068 47.7729 18.1972 47.2948 18.4283C47.5703 18.2078 47.7961 17.9271 47.9502 17.6041C47.6526 17.8078 47.2927 17.927 46.9054 17.927C45.885 17.927 45.0576 17.0986 45.0576 16.0782C45.0576 15.3257 45.5061 14.6788 46.152 14.3907C45.752 14.7295 45.4987 15.235 45.4987 15.8006C45.4987 16.8211 46.3261 17.6495 47.3466 17.6495C47.7339 17.6495 48.0937 17.5303 48.3913 17.3266Z" fill="white"/>
</g>
</g>
<path d="M46.3439 18.8945C44.8991 18.8945 43.7236 17.7191 43.7236 16.2742C43.7236 14.8294 44.8991 13.6539 46.3439 13.6539C46.5618 13.6539 46.7771 13.6804 46.9838 13.7327C47.0995 13.762 47.1812 13.8653 47.1829 13.9847C47.1846 14.1041 47.1058 14.2097 46.991 14.2423C46.3143 14.4341 45.8416 15.0605 45.8416 15.7656C45.8416 16.6396 46.5522 17.3506 47.4256 17.3506C47.747 17.3506 48.0567 17.2549 48.3214 17.0738C48.4199 17.0064 48.5514 17.0135 48.6421 17.0913C48.7327 17.169 48.7599 17.2979 48.7082 17.4056C48.4977 17.8449 48.1693 18.2166 47.7587 18.4803C47.3368 18.7513 46.8476 18.8945 46.3439 18.8945ZM45.9991 14.21C45.0087 14.3748 44.2513 15.2377 44.2513 16.2742C44.2513 17.4281 45.19 18.3669 46.3439 18.3669C46.8507 18.3669 47.3336 18.18 47.7077 17.8596C47.6148 17.872 47.5206 17.8783 47.4256 17.8783C46.2612 17.8783 45.3139 16.9305 45.3139 15.7656C45.314 15.1619 45.574 14.6015 45.9991 14.21Z" fill="#2E3349"/>
<path d="M66.8514 40.7121C66.8514 40.9802 66.7427 41.2218 66.5686 41.397C66.3934 41.5712 66.1518 41.6798 65.8837 41.6798H57.9521C57.4171 41.6798 56.9844 41.2472 56.9844 40.7121C56.9844 40.5507 57.0245 40.3976 57.0952 40.2636C57.1405 40.176 57.1986 40.0969 57.2672 40.0283C57.4424 39.8531 57.684 39.7455 57.9521 39.7455H65.8837C66.2562 39.7455 66.5802 39.9555 66.7406 40.2636C66.8113 40.3976 66.8514 40.5507 66.8514 40.7121Z" fill="#FEB71F"/>
<path d="M65.8836 41.7374H57.952C57.3866 41.7374 56.9268 41.2776 56.9268 40.7123C56.9268 40.547 56.9674 40.3826 57.0442 40.2369C57.0919 40.1448 57.1533 40.0609 57.2264 39.9878C57.4196 39.7945 57.6773 39.6881 57.952 39.6881H65.8836C66.2672 39.6881 66.6151 39.8985 66.7914 40.2372C66.8681 40.3826 66.9087 40.547 66.9087 40.7123C66.9087 40.9857 66.8024 41.2433 66.6092 41.4377C66.4147 41.6311 66.1571 41.7374 65.8836 41.7374ZM57.952 39.8031C57.708 39.8031 57.4792 39.8975 57.3077 40.069C57.2429 40.1338 57.1885 40.2082 57.1461 40.2902C57.0777 40.4197 57.0417 40.5655 57.0417 40.7122C57.0417 41.2141 57.45 41.6225 57.952 41.6225H65.8836C66.1265 41.6225 66.3553 41.528 66.5279 41.3564C66.6993 41.184 66.7938 40.9551 66.7938 40.7122C66.7938 40.5655 66.7578 40.4197 66.6896 40.2905C66.533 39.9897 66.2242 39.803 65.8836 39.803H57.952V39.8031Z" fill="#2E3349"/>
<g opacity="0.55">
<g opacity="0.55">
<path opacity="0.55" d="M66.7402 40.2637H57.0947C57.1401 40.1761 57.1981 40.097 57.2667 40.0284C57.4419 39.8532 57.6836 39.7456 57.9516 39.7456H65.8833C66.2558 39.7456 66.5798 39.9556 66.7402 40.2637Z" fill="white"/>
</g>
</g>
<path d="M65.8842 41.9439H57.9519C57.273 41.9439 56.7207 41.3917 56.7207 40.7128C56.7207 40.0339 57.273 39.4816 57.9519 39.4816H65.8842C66.5631 39.4816 67.1155 40.0339 67.1155 40.7128C67.1155 41.3917 66.5631 41.9439 65.8842 41.9439ZM57.9519 40.0092C57.564 40.0092 57.2484 40.3249 57.2484 40.7128C57.2484 41.1007 57.564 41.4163 57.9519 41.4163H65.8842C66.2722 41.4163 66.5878 41.1007 66.5878 40.7128C66.5878 40.3249 66.2722 40.0092 65.8842 40.0092H57.9519Z" fill="#2E3349"/>
<g opacity="0.2">
<g opacity="0.2">
<path opacity="0.2" d="M54.2151 27.1604C53.8222 28.1101 52.5524 27.0855 50.7684 26.3475C48.9844 25.6096 47.3618 25.4379 47.7546 24.4881C48.1474 23.5384 49.9121 23.3667 51.6961 24.1047C53.4802 24.8426 54.6079 26.2107 54.2151 27.1604Z" fill="white"/>
</g>
</g>
<path d="M69.3185 40.256C66.2282 39.1373 64.2171 40.7685 63.5029 45.7049L69.3185 40.256Z" fill="#36D877"/>
<g opacity="0.55">
<g opacity="0.55">
<g opacity="0.55">
<path opacity="0.55" d="M63.5029 45.7051L64.3972 44.8669C64.8876 42.1106 65.8307 40.5093 67.1812 39.9462C65.2927 40.1772 64.0349 42.0198 63.5029 45.7051Z" fill="white"/>
</g>
</g>
</g>
<path d="M63.502 45.9687C63.4605 45.9687 63.4187 45.9589 63.3801 45.9388C63.2807 45.887 63.225 45.778 63.241 45.6671C63.4494 44.227 63.7746 43.0321 64.2079 42.1157C64.6454 41.1901 65.2075 40.5169 65.8786 40.1147C66.8341 39.5421 68.0214 39.5061 69.4075 40.0079C69.4938 40.0391 69.5576 40.113 69.5761 40.2028C69.5946 40.2927 69.5651 40.3857 69.4981 40.4485L63.6825 45.8974C63.6324 45.9443 63.5676 45.9687 63.502 45.9687ZM67.6028 40.1853C67.0603 40.1853 66.5746 40.3127 66.1498 40.5673C65.0749 41.2115 64.3157 42.6946 63.8888 44.981L68.8113 40.3689C68.3821 40.2466 67.9787 40.1853 67.6028 40.1853Z" fill="#2E3349"/>
<path d="M68.819 40.2597C69.8662 36.9711 68.3296 34.8343 63.6875 34.082L68.819 40.2597Z" fill="#36D877"/>
<g opacity="0.55">
<g opacity="0.55">
<g opacity="0.55">
<path opacity="0.55" d="M63.751 34.0819L68.8835 40.26C68.9592 40.0212 69.0214 39.7876 69.0702 39.5606L64.666 34.2571C64.3756 34.1922 64.0706 34.1338 63.751 34.0819Z" fill="white"/>
</g>
</g>
</g>
<path d="M68.8191 40.5235C68.7416 40.5235 68.6669 40.4893 68.6162 40.4283L63.4847 34.2506C63.4144 34.166 63.404 34.0467 63.4586 33.9512C63.5132 33.8557 63.6213 33.8041 63.7299 33.8216C65.0266 34.0318 66.1138 34.3562 66.9612 34.7858C67.8151 35.2188 68.453 35.7719 68.8573 36.43C69.4946 37.4673 69.5663 38.7828 69.0705 40.3398C69.0413 40.4316 68.9642 40.5002 68.8696 40.5186C68.8528 40.522 68.8359 40.5235 68.8191 40.5235ZM64.3561 34.4739L68.7019 39.7057C68.996 38.5109 68.8975 37.5036 68.4077 36.7062C67.7594 35.6511 66.3982 34.9016 64.3561 34.4739Z" fill="#2E3349"/>
<path d="M68.9903 40.3515C67.6589 37.1813 63.6525 36.1825 59.874 40.0398L68.9903 40.3515Z" fill="#36D877"/>
<g opacity="0.55">
<g opacity="0.55">
<g opacity="0.55">
<path opacity="0.55" d="M59.874 40.0395L60.8354 40.072C64.1282 37.1886 67.4685 37.8465 68.9643 40.2939C67.6101 37.1691 63.6292 36.2063 59.874 40.0395Z" fill="white"/>
</g>
</g>
</g>
<path d="M68.9905 40.6153C68.9875 40.6153 68.9844 40.6153 68.9814 40.6152L59.8652 40.3034C59.7607 40.2999 59.6681 40.2349 59.6293 40.1378C59.5904 40.0407 59.6125 39.9299 59.6857 39.8551C60.689 38.831 61.7483 38.0984 62.8342 37.6778C63.8491 37.2846 64.8437 37.177 65.7905 37.3578C67.3305 37.652 68.5855 38.7059 69.2337 40.2493C69.2685 40.3322 69.2587 40.4272 69.2076 40.5012C69.1583 40.5728 69.077 40.6153 68.9905 40.6153ZM60.5037 39.7973L68.5681 40.0731C67.9547 38.9037 66.9253 38.1118 65.6915 37.8761C64.0282 37.5585 62.2034 38.2386 60.5037 39.7973Z" fill="#2E3349"/>
<path d="M68.9033 40.05C72.1454 39.6454 73.7903 41.689 73.5153 46.675L68.9033 40.05Z" fill="#36D877"/>
<path d="M73.5154 46.9388C73.4306 46.9388 73.3491 46.8978 73.2989 46.8257L68.6869 40.2007C68.6342 40.1249 68.6249 40.027 68.6625 39.9426C68.7001 39.8582 68.7791 39.7996 68.8708 39.7882C70.3186 39.6076 71.468 39.9036 72.2873 40.6682C72.8664 41.2087 73.2851 41.991 73.5317 42.9936C73.7762 43.9874 73.8593 45.2309 73.7789 46.6895C73.7727 46.8019 73.6958 46.898 73.5875 46.9287C73.5636 46.9356 73.5394 46.9388 73.5154 46.9388ZM69.3796 40.2722L73.2795 45.8743C73.311 43.5416 72.8573 41.9219 71.9273 41.054C71.3103 40.4782 70.4547 40.216 69.3796 40.2722Z" fill="#2E3349"/>
<path d="M69.2084 40.1558C68.4347 36.7916 70.1415 34.7892 74.8294 34.4237L69.2084 40.1558Z" fill="#36D877"/>
<g opacity="0.55">
<g opacity="0.55">
<g opacity="0.55">
<path opacity="0.55" d="M69.0304 38.745C69.3522 36.871 70.9407 35.6931 73.9673 35.3042L74.8305 34.4232C70.8395 34.7352 69.0099 36.2316 69.0304 38.745Z" fill="white"/>
</g>
</g>
</g>
<path d="M69.2083 40.4196C69.1844 40.4196 69.1603 40.4164 69.1367 40.4098C69.0439 40.3836 68.9728 40.3089 68.9512 40.2149C68.5848 38.6219 68.7644 37.3167 69.485 36.3354C69.942 35.7132 70.6232 35.2148 71.5097 34.8541C72.3894 34.4961 73.4993 34.2628 74.8087 34.1607C74.9184 34.1521 75.0218 34.2126 75.0683 34.3122C75.1148 34.4119 75.0946 34.53 75.0176 34.6085L69.3967 40.3405C69.3463 40.3918 69.2781 40.4196 69.2083 40.4196ZM74.1311 34.7589C72.0612 35.0161 70.643 35.6502 69.9103 36.6478C69.3564 37.402 69.1756 38.398 69.3707 39.6134L74.1311 34.7589Z" fill="#2E3349"/>
<path d="M69.2051 40.2164C71.1318 37.4137 75.2461 37.3307 78.18 41.9451L69.2051 40.2164Z" fill="#36D877"/>
<g opacity="0.55">
<g opacity="0.55">
<g opacity="0.55">
<path opacity="0.55" d="M69.2051 40.2161L69.8968 40.3497C71.8366 38.2021 75.3051 38.2696 77.9928 41.9082L78.1794 41.9445C75.2453 37.3314 71.1314 37.4131 69.2051 40.2161Z" fill="white"/>
</g>
</g>
</g>
<path d="M78.1793 42.2089C78.1627 42.2089 78.146 42.2073 78.1293 42.2041L69.1544 40.4755C69.0669 40.4587 68.9939 40.3989 68.9602 40.3166C68.9264 40.2342 68.9364 40.1404 68.9868 40.067C69.8918 38.7507 71.266 38.001 72.7673 38.001C72.7944 38.001 72.8214 38.0012 72.8485 38.0017C73.8078 38.019 74.7988 38.3461 75.7143 38.9479C76.7082 39.6011 77.6124 40.5619 78.4018 41.8035C78.4584 41.8924 78.4566 42.0064 78.3974 42.0935C78.3477 42.1665 78.2655 42.2089 78.1793 42.2089ZM69.6691 40.0373L77.6064 41.5661C76.2297 39.6329 74.5535 38.5601 72.839 38.5292C71.6158 38.5067 70.481 39.0522 69.6691 40.0373Z" fill="#2E3349"/>
<path d="M68.0189 40.8654C66.9209 44.2825 66.9209 48.6513 66.9209 52.847H70.2149C69.5212 48.3093 69.0202 43.9854 69.6049 40.8654C69.9514 39.4436 68.5679 39.265 68.0189 40.8654Z" fill="#FEB71F"/>
<g opacity="0.3">
<g opacity="0.3">
<path opacity="0.3" d="M66.9219 52.8163V52.8474H70.2159C69.5217 48.3096 69.0203 43.9858 69.6059 40.8649C69.8279 39.9527 69.3374 39.5517 68.8129 39.8061C69.0813 39.9371 69.2252 40.32 69.0605 40.9078C68.4969 43.4421 68.6323 46.8082 68.9959 50.4468C69.1252 51.7431 68.148 52.863 66.9231 52.8162H66.9219V52.8163Z" fill="#2E3349"/>
</g>
</g>
<g opacity="0.55">
<g opacity="0.55">
<g opacity="0.55">
<path opacity="0.55" d="M67.106 52.8756L67.7769 52.8605C67.6947 48.735 67.5566 44.3397 68.568 40.9591C68.769 40.3316 68.827 40.0002 69.4884 39.9724C69.1876 39.4535 68.343 39.6906 67.9651 40.8712C66.9354 44.3131 67.0224 48.68 67.106 52.8756Z" fill="white"/>
</g>
</g>
</g>
<path d="M70.215 53.1107H66.9211C66.7753 53.1107 66.6572 52.9926 66.6572 52.8469C66.6572 48.616 66.6572 44.2411 67.7679 40.7846C67.7684 40.783 67.7689 40.7814 67.7695 40.7797C68.1255 39.7418 68.8264 39.3494 69.3346 39.4982C69.7104 39.6082 70.0736 40.0467 69.8631 40.9207C69.2811 44.037 69.8136 48.4751 70.4758 52.807C70.4875 52.8831 70.4653 52.9604 70.4152 53.0188C70.3651 53.0771 70.292 53.1107 70.215 53.1107ZM67.1849 52.5831H69.908C69.6314 50.755 69.3116 48.4583 69.1674 46.3425C69.0136 44.0852 69.0719 42.2777 69.3457 40.8167C69.3466 40.8121 69.3476 40.8075 69.3487 40.8028C69.4493 40.3903 69.3825 40.062 69.1863 40.0046C68.9692 39.9411 68.5279 40.1972 68.2694 40.9485C67.2076 44.255 67.1853 48.4765 67.1849 52.5831Z" fill="#2E3349"/>
<g opacity="0.3">
<g opacity="0.3">
<path opacity="0.3" d="M72.6882 41.5826C72.6882 41.5826 70.6573 41.2649 70.5886 42.4709L69.4883 40.7139L69.6501 40.2908L72.098 40.8534L72.6882 41.5826Z" fill="#2E3349"/>
</g>
</g>
<g opacity="0.3">
<g opacity="0.3">
<path opacity="0.3" d="M66.9212 42.2062C66.9212 42.2062 67.3703 40.4822 66.2702 40.3516L65.0908 40.0001C65.0908 40.0001 67.0022 39.6326 67.5309 38.5295L68.6682 39.7123L67.8048 41.7239L66.9212 42.2062Z" fill="#2E3349"/>
</g>
</g>
<g opacity="0.3">
<g opacity="0.3">
<path opacity="0.3" d="M67.3154 38.6971C67.3154 38.6971 68.9566 37.7702 68.6682 36.6278L69.6499 37.4512C69.6499 37.4512 70.7909 37.9205 71.7652 37.1708L70.2148 39.2486L69.07 39.5605L67.3154 38.6971Z" fill="#2E3349"/>
</g>
</g>
<path d="M11.4431 47.7365L11.0114 49.0153L11.739 52.8217H10.4655L10.167 48.5606L10.2859 48.2205C10.687 48.2218 11.0726 48.059 11.4431 47.7365Z" fill="#FDA14C"/>
<path d="M6.50757 52.8218H7.46919L6.28697 49.6129C6.95269 49.428 7.43351 48.8726 7.82793 48.144L7.2089 47.8838C6.92046 48.5241 6.32251 48.9473 5.5332 49.2362L6.50757 52.8218Z" fill="#FDA14C"/>
<g opacity="0.3">
<g opacity="0.3">
<path opacity="0.3" d="M6.50757 52.8218H7.46919L6.28697 49.6129C6.95269 49.428 7.43351 48.8726 7.82793 48.144L7.2089 47.8838C6.92046 48.5241 6.32251 48.9473 5.5332 49.2362L6.50757 52.8218Z" fill="#2E3349"/>
</g>
</g>
<path d="M4.51172 48.8854L4.9342 52.8218H6.26557L5.29121 49.2361C6.03562 48.9103 6.66233 48.5307 6.92499 47.9812C7.6546 48.1978 8.45979 48.3031 9.31332 48.335L9.3445 48.6383L9.29305 52.8217H10.5917L10.2884 49.445C10.2619 49.1465 10.276 48.8471 10.3305 48.5556C10.3422 48.4909 10.3563 48.427 10.3726 48.3631C10.4217 48.3475 10.4693 48.3311 10.5168 48.314C10.8068 48.2103 11.0718 48.0801 11.3111 47.9234C12.174 47.3607 12.6908 46.4603 12.7329 45.2522C12.7516 44.7081 12.6745 44.1024 12.4897 43.4375C12.7625 43.4289 13.0213 43.2972 13.2684 43.0587C13.5677 43.0298 13.8834 43.0555 14.2201 43.1467C15.2522 43.8381 15.5094 42.1708 14.5998 41.8606C14.1173 41.7398 13.7345 41.6922 13.5412 41.428C13.1959 41.0889 12.7602 40.9564 12.3697 41.0445C12.3424 41.0008 11.8466 40.1029 11.6705 40.5191C11.5107 40.8956 11.453 41.1778 11.4366 42.1038C11.3813 42.9574 11.4351 43.8 11.5918 44.6309C11.6027 44.6878 11.6066 44.7463 11.5949 44.8032C11.5458 45.0378 11.3361 45.1376 11.0859 45.0729C10.8895 45.0214 10.7289 44.8788 10.6369 44.6979C9.82859 43.1132 8.8176 42.6214 8.11216 43.9598C8.01862 44.1367 7.85182 44.2661 7.65616 44.3098C7.65304 44.3105 7.64993 44.3113 7.64759 44.3121C7.3732 44.3721 7.09258 44.2583 6.93281 44.0276C6.3521 43.1912 5.52194 43.3167 5.38243 44.5397C5.30836 44.8538 5.1439 45.1259 4.95291 45.3613C4.6154 45.7775 4.49068 46.331 4.6536 46.8415C4.78611 47.2562 4.99268 47.6483 5.20703 48.0022C5.0488 48.3312 4.81728 48.6258 4.51172 48.8854Z" fill="#FDA14C"/>
<g opacity="0.55">
<g opacity="0.55">
<path opacity="0.55" d="M11.2651 45.0082C11.1903 44.9887 11.1209 44.956 11.0586 44.9131C11.0695 44.9318 11.0788 44.9513 11.089 44.9708C11.181 45.1516 11.3415 45.2943 11.538 45.3457C11.7882 45.4104 11.9979 45.3106 12.047 45.076C12.0587 45.0191 12.0548 44.9607 12.0439 44.9037C11.8872 44.0728 11.8334 43.2302 11.8887 42.3767C11.9051 41.4514 11.9628 41.1685 12.1226 40.792C12.1896 40.6337 12.3034 40.6657 12.4196 40.7686C12.2535 40.516 11.9729 40.1629 11.8497 40.4544C11.6899 40.8309 11.6323 41.1131 11.6159 42.0391C11.5606 42.8927 11.6144 43.7353 11.771 44.5662C11.7819 44.6231 11.7859 44.6816 11.7742 44.7385C11.7251 44.9731 11.5154 45.0729 11.2651 45.0082Z" fill="white"/>
</g>
</g>
<g opacity="0.55">
<g opacity="0.55">
<path opacity="0.55" d="M4.58496 49.0394L5.00744 52.9758H5.36794L4.98544 49.5362C4.96356 49.3394 5.03737 49.1423 5.18758 49.0133C5.26381 48.9477 5.32631 48.8812 5.40436 48.7597C5.5013 48.6088 5.50447 48.4166 5.41652 48.2603C5.25328 47.9702 5.10365 47.6586 4.99963 47.3331C4.83673 46.8225 4.96142 46.2691 5.29896 45.8528C5.48994 45.6174 5.6544 45.3454 5.72845 45.0313C5.86799 43.8083 6.69812 43.6828 7.27883 44.5192C7.43862 44.7499 7.71924 44.8637 7.99361 44.8037C7.99595 44.8029 7.99908 44.8021 8.00218 44.8013C8.19784 44.7577 8.36464 44.6283 8.45818 44.4513C8.9742 43.4715 9.65468 43.4723 10.2993 44.1653C9.57907 43.1551 8.77542 42.9945 8.18536 44.1138C8.09182 44.2908 7.92499 44.4202 7.72936 44.4638C7.72625 44.4646 7.72313 44.4654 7.72078 44.4662C7.44642 44.5262 7.1658 44.4124 7.00601 44.1817C6.4253 43.3453 5.59514 43.4708 5.45562 44.6938C5.38158 45.0079 5.21712 45.2799 5.02613 45.5153C4.68862 45.9316 4.5639 46.485 4.7268 46.9956C4.8593 47.4103 5.06588 47.8023 5.28025 48.1562C5.12202 48.4851 4.89052 48.7798 4.58496 49.0394Z" fill="white"/>
</g>
</g>
<path d="M10.5921 53.0516H9.29347C9.232 53.0516 9.17311 53.027 9.12991 52.9833C9.08674 52.9396 9.06285 52.8804 9.06359 52.8189L9.11488 48.6487L9.10534 48.5559C8.32677 48.516 7.64679 48.416 7.03767 48.2519C6.71112 48.7671 6.11052 49.1135 5.56494 49.3654L6.48779 52.7614C6.50657 52.8305 6.49206 52.9045 6.44857 52.9613C6.40507 53.0182 6.33756 53.0516 6.26595 53.0516H4.9346C4.81713 53.0516 4.71858 52.963 4.70603 52.8462L4.28355 48.9099C4.27541 48.8342 4.30527 48.7594 4.36327 48.7102C4.60819 48.5021 4.80334 48.2671 4.94465 48.0104C4.70766 47.6066 4.54469 47.2548 4.43499 46.9115C4.25203 46.3381 4.37904 45.7045 4.77474 45.2165C4.97269 44.9725 5.09754 44.7378 5.15605 44.4994C5.23522 43.8345 5.52207 43.3927 5.9443 43.2864C6.34622 43.1853 6.78652 43.4133 7.12201 43.8965C7.2288 44.0507 7.41298 44.1257 7.59284 44.0888C7.59578 44.088 7.59882 44.0873 7.60185 44.0865C7.60339 44.0861 7.60493 44.0858 7.60647 44.0854C7.7359 44.0565 7.84626 43.9716 7.9093 43.8523C8.30212 43.1071 8.75899 42.9528 9.07304 42.9552C9.68572 42.9593 10.2974 43.5258 10.8421 44.5935C10.9084 44.7239 11.0186 44.8175 11.1445 44.8505C11.2159 44.869 11.2796 44.8659 11.3186 44.8416C11.3282 44.8357 11.3574 44.8175 11.3703 44.7561C11.3743 44.7366 11.373 44.7088 11.3664 44.6742C11.2056 43.8212 11.1521 42.9534 11.2073 42.0945C11.2239 41.1472 11.2878 40.8343 11.4592 40.4295C11.5459 40.2247 11.695 40.1854 11.7762 40.1803C11.9261 40.1708 12.1405 40.2351 12.4878 40.7938C12.9132 40.7552 13.3568 40.9242 13.7027 41.264C13.7117 41.2727 13.7198 41.2822 13.7272 41.2922C13.839 41.445 14.0856 41.5026 14.4269 41.5823C14.5003 41.5995 14.5763 41.6173 14.656 41.6372C14.6622 41.6387 14.6684 41.6406 14.6744 41.6426C15.0631 41.7752 15.3338 42.1283 15.3809 42.5643C15.422 42.9438 15.2796 43.2913 15.0182 43.4495C14.873 43.5374 14.5666 43.6397 14.126 43.3595C13.8634 43.2918 13.6139 43.2661 13.3667 43.2815C13.1767 43.4512 12.9791 43.5655 12.7762 43.6234C13.0736 44.8405 13.0235 45.8918 12.6265 46.7513C12.2414 47.5855 11.5313 48.2018 10.5683 48.54C10.5081 48.8302 10.4911 49.1272 10.5178 49.4244L10.8211 52.8011C10.8268 52.8654 10.8053 52.9291 10.7617 52.9768C10.7182 53.0245 10.6566 53.0516 10.5921 53.0516ZM9.52618 52.5919H10.3406L10.0599 49.4656C10.0249 49.0755 10.0552 48.6857 10.15 48.3072C10.1694 48.23 10.2273 48.1683 10.3031 48.1441C12.2033 47.5377 12.9197 45.8446 12.2686 43.499C12.2497 43.431 12.2631 43.3581 12.305 43.3013C12.3468 43.2444 12.4124 43.21 12.4829 43.2078C12.6919 43.2012 12.8968 43.0983 13.1092 42.8933C13.1466 42.8572 13.1951 42.8349 13.2468 42.8299C13.5811 42.7977 13.9289 42.8296 14.2807 42.9249C14.3048 42.9314 14.3277 42.9418 14.3485 42.9558C14.4544 43.0267 14.6514 43.1341 14.7801 43.0562C14.886 42.9921 14.9451 42.8102 14.9238 42.6138C14.9134 42.5171 14.8545 42.1951 14.5344 42.0807C14.4617 42.0627 14.3909 42.0461 14.3223 42.0301C13.9257 41.9375 13.5822 41.8573 13.3687 41.5805C13.0906 41.3138 12.7373 41.1974 12.4207 41.2687C12.3254 41.2902 12.2269 41.2492 12.1752 41.1663C12.1729 41.1627 12.1681 41.1547 12.1612 41.1429C12.0144 40.8912 11.9099 40.7623 11.8462 40.6976C11.7339 40.9842 11.6815 41.2603 11.6669 42.1078C11.6668 42.1114 11.6667 42.1151 11.6664 42.1187C11.6131 42.9411 11.6641 43.772 11.818 44.5883C11.8362 44.683 11.837 44.7687 11.8204 44.8494C11.786 45.014 11.6939 45.1497 11.5611 45.2322C11.4138 45.3236 11.2247 45.3462 11.0287 45.2954C10.7752 45.229 10.558 45.0493 10.4323 44.8022C9.99071 43.9364 9.48133 43.4177 9.06991 43.4149C9.06885 43.4149 9.06775 43.4149 9.06669 43.4149C8.73026 43.4149 8.47281 43.7692 8.31585 44.067C8.19044 44.3042 7.97045 44.4737 7.71153 44.533C7.70675 44.5344 7.7019 44.5356 7.69702 44.5367C7.3325 44.6163 6.95847 44.4679 6.74413 44.1584C6.52572 43.8438 6.26213 43.6804 6.05648 43.7322C5.83066 43.7891 5.66418 44.1007 5.61112 44.5657C5.61009 44.5747 5.60855 44.5836 5.60646 44.5924C5.53301 44.904 5.37772 45.2029 5.13175 45.5061C4.834 45.8733 4.73722 46.3464 4.8729 46.7716C4.9812 47.1105 5.14996 47.4637 5.40395 47.8831C5.44421 47.9495 5.44816 48.0318 5.41448 48.1018C5.25908 48.4249 5.03692 48.7195 4.75329 48.9791L5.14104 52.5918H5.96517L5.06966 49.2963C5.0398 49.1864 5.09494 49.0711 5.19933 49.0255C6.04938 48.6534 6.51769 48.3008 6.7179 47.882C6.76666 47.78 6.88234 47.7285 6.99075 47.7608C7.65769 47.9588 8.42033 48.0715 9.32223 48.1053C9.43674 48.1096 9.5306 48.1975 9.54232 48.3115L9.57349 48.6147C9.57439 48.6234 9.57478 48.6322 9.57469 48.641L9.52618 52.5919ZM7.72114 44.53C7.719 44.5308 7.71686 44.5315 7.71472 44.5321C7.71693 44.5315 7.71918 44.5307 7.72114 44.53ZM11.8873 40.599C11.8873 40.599 11.8873 40.599 11.8873 40.599C11.8873 40.599 11.8873 40.599 11.8873 40.599Z" fill="#2E3349"/>
<path d="M6.71785 47.882C6.7956 47.761 6.85208 47.6244 6.88202 47.4752C6.91075 47.3259 6.91234 47.1655 6.89314 47.0035C6.87388 46.8414 6.83464 46.6777 6.78238 46.5164C6.72896 46.3555 6.66323 46.1969 6.59082 46.0403C6.69585 46.1769 6.79629 46.3185 6.88691 46.4687C6.97638 46.6194 7.05578 46.7789 7.11673 46.9501C7.1773 47.121 7.21912 47.3049 7.22608 47.498C7.23201 47.6907 7.20084 47.8912 7.13259 48.0804L7.13061 48.0858C7.08721 48.2062 6.95443 48.2685 6.83411 48.2251C6.71376 48.1817 6.65139 48.049 6.6948 47.9286C6.70068 47.9123 6.70893 47.896 6.71785 47.882Z" fill="#2E3349"/>
<path d="M12.4991 43.6673C12.4515 43.6584 12.4147 43.6446 12.3852 43.629C12.3694 43.6216 12.3556 43.6133 12.342 43.605C12.3282 43.5969 12.3157 43.588 12.3032 43.5793C12.2538 43.544 12.2111 43.5055 12.1722 43.4642C12.1336 43.4228 12.0989 43.3789 12.071 43.331C12.0434 43.2834 12.022 43.2311 12.0186 43.1805C12.0567 43.2136 12.1004 43.2305 12.1441 43.2422C12.1879 43.2537 12.233 43.2585 12.277 43.2596C12.3209 43.2605 12.3645 43.2574 12.404 43.2495C12.4138 43.2474 12.4235 43.2455 12.4323 43.2425C12.4413 43.2398 12.45 43.2371 12.4572 43.2333C12.4733 43.2272 12.4831 43.2166 12.4819 43.2079L12.4991 43.6673Z" fill="#2E3349"/>
<path d="M10.1504 48.307C10.3161 47.9625 10.5347 47.6578 10.7873 47.4043C10.6638 47.7403 10.6012 48.0856 10.5963 48.4192C10.5944 48.5496 10.4871 48.6537 10.3567 48.6518C10.2263 48.6499 10.1221 48.5427 10.124 48.4122C10.1246 48.3772 10.1327 48.3441 10.1468 48.3144L10.1504 48.307Z" fill="#2E3349"/>
<path d="M9.15013 46.7285L9.54252 48.3118C9.57337 48.4362 9.49749 48.5621 9.37298 48.593C9.2485 48.6238 9.12259 48.5479 9.09174 48.4234C9.08643 48.402 9.08439 48.3794 9.0851 48.3584L9.15013 46.7285Z" fill="#2E3349"/>
<path d="M11.7391 53.0516H10.4662C10.3392 53.0516 10.2363 52.9486 10.2363 52.8217C10.2363 52.6947 10.3392 52.5918 10.4662 52.5918H11.4611L10.786 49.0586C10.7786 49.0197 10.7814 48.9795 10.7941 48.9419L11.183 47.7906C11.2237 47.6703 11.3541 47.6058 11.4744 47.6464C11.5947 47.6871 11.6592 47.8175 11.6186 47.9378L11.249 49.0318L11.9649 52.7786C11.9778 52.8459 11.9599 52.9154 11.9162 52.9682C11.8726 53.021 11.8076 53.0516 11.7391 53.0516Z" fill="#2E3349"/>
<path d="M7.469 53.0516H6.33427C6.2073 53.0516 6.10439 52.9487 6.10439 52.8217C6.10439 52.6948 6.2073 52.5918 6.33427 52.5918H7.1393L6.07082 49.6921C6.04859 49.6318 6.05264 49.5649 6.08195 49.5077C6.11126 49.4505 6.16319 49.4082 6.22512 49.3911C6.75427 49.2443 7.19493 48.8212 7.61189 48.0594C7.67286 47.948 7.81256 47.9071 7.92392 47.9681C8.03529 48.029 8.07617 48.1688 8.0152 48.2801C7.59337 49.0508 7.13364 49.5255 6.58335 49.7532L7.68472 52.7422C7.71072 52.8127 7.70058 52.8915 7.6576 52.9532C7.61456 53.0149 7.54415 53.0516 7.469 53.0516Z" fill="#2E3349"/>
<path d="M12.7949 42.168C12.9626 42.168 13.0986 42.0121 13.0986 41.8197C13.0986 41.6274 12.9626 41.4714 12.7949 41.4714C12.6272 41.4714 12.4912 41.6274 12.4912 41.8197C12.4912 42.0121 12.6272 42.168 12.7949 42.168Z" fill="#2E3349"/>
<path d="M12.7327 41.8922C12.7867 41.8922 12.8305 41.8419 12.8305 41.7799C12.8305 41.7179 12.7867 41.6676 12.7327 41.6676C12.6786 41.6676 12.6348 41.7179 12.6348 41.7799C12.6348 41.8419 12.6786 41.8922 12.7327 41.8922Z" fill="white"/>
<g opacity="0.3">
<g opacity="0.3">
<path opacity="0.3" d="M10.2267 48.6905L10.3311 48.5557L10.5174 48.314L10.5276 48.3008L11.3117 47.9235C12.1746 47.3608 12.6914 46.4604 12.7335 45.2522C12.7327 45.2515 12.7327 45.2515 12.7327 45.2515C12.7327 45.2515 12.0142 46.626 11.0989 46.9464C10.4675 47.1673 10.052 47.7856 10.165 48.4449C10.1785 48.5237 10.1988 48.6056 10.2267 48.6905Z" fill="#2E3349"/>
</g>
</g>
<g opacity="0.3">
<g opacity="0.3">
<path opacity="0.3" d="M9.17873 47.0107C8.31345 47.0068 7.50792 46.8719 6.82422 46.4696C6.82422 46.4696 7.181 47.1419 6.96716 47.8837L7.23401 48.1058L9.302 48.2205L9.17873 47.0107Z" fill="#2E3349"/>
</g>
</g>
<path d="M14.0219 43.2312C13.9574 43.2312 13.8956 43.1949 13.8661 43.1329C13.5198 42.4058 13.7025 41.5507 13.7105 41.5146C13.731 41.4216 13.823 41.3628 13.916 41.3834C14.0089 41.4039 14.0677 41.4958 14.0472 41.5888C14.0444 41.602 13.884 42.3685 14.1774 42.9846C14.2184 43.0706 14.1818 43.1735 14.0959 43.2144C14.072 43.2258 14.0467 43.2312 14.0219 43.2312Z" fill="#2E3349"/>
<path d="M12.5351 43.7271C12.5125 43.7271 12.4894 43.7238 12.4667 43.7167C11.6988 43.4777 11.3511 42.7157 11.2122 42.2827C11.1734 42.1618 11.24 42.0324 11.3609 41.9936C11.4818 41.9548 11.6112 42.0214 11.65 42.1422C11.7617 42.4902 12.034 43.1005 12.6033 43.2777C12.7245 43.3155 12.7922 43.4443 12.7545 43.5655C12.7239 43.664 12.6331 43.7271 12.5351 43.7271Z" fill="#2E3349"/>
<path d="M11.3715 47.0952C10.8349 47.0952 10.2712 46.9419 9.72799 46.6422C8.87733 46.1727 8.13703 45.3861 7.58713 44.3674C7.54191 44.2836 7.57315 44.179 7.65697 44.1338C7.74076 44.0885 7.84536 44.1198 7.89057 44.2036C8.40901 45.164 9.10199 45.9029 9.89461 46.3402C10.6195 46.7402 11.3775 46.8523 12.0288 46.6558C13.2935 46.2742 13.9384 44.8411 13.754 42.8222C13.7454 42.7273 13.8152 42.6435 13.9101 42.6348C14.0048 42.6259 14.0888 42.696 14.0974 42.7908C14.2016 43.9306 14.0626 44.886 13.6845 45.6305C13.3368 46.315 12.7988 46.7837 12.1285 46.9859C11.8863 47.059 11.632 47.0952 11.3715 47.0952Z" fill="#2E3349"/>
<path d="M4.37897 46.3674C4.38327 46.3698 4.38156 46.369 4.38216 46.3694C4.38216 46.3694 4.38189 46.3695 4.38161 46.3695L4.37899 46.369L4.37177 46.3672C4.36653 46.3658 4.36081 46.3646 4.35511 46.3635C4.34363 46.3615 4.3323 46.3595 4.32179 46.3591C4.30065 46.3581 4.28368 46.36 4.27182 46.3638C4.25984 46.368 4.25184 46.3723 4.24168 46.3799C4.23166 46.3876 4.22016 46.4001 4.20708 46.4187C4.18009 46.4552 4.156 46.5164 4.13637 46.5848C4.11699 46.6539 4.10492 46.7315 4.09511 46.8116C4.09062 46.8517 4.08669 46.8926 4.08382 46.9341C4.08074 46.9754 4.0792 47.0171 4.07708 47.0628L4.06692 47.3321C4.06058 47.5124 4.05609 47.6938 4.04695 47.876C4.0295 48.2402 4.00674 48.6083 3.93635 48.9764C3.89938 49.1599 3.85233 49.3449 3.76522 49.52C3.72189 49.607 3.66702 49.6917 3.59384 49.7624C3.52164 49.8334 3.4272 49.8852 3.32925 49.904C3.30424 49.9088 3.28005 49.8924 3.27525 49.8674C3.27097 49.8451 3.28352 49.8235 3.30398 49.8156L3.30444 49.8155C3.38125 49.786 3.44327 49.7337 3.49118 49.6699C3.53918 49.6059 3.57295 49.5299 3.59925 49.4506C3.62555 49.3711 3.64281 49.2872 3.65619 49.2021C3.66959 49.117 3.67805 49.0303 3.68368 48.9431C3.69391 48.7683 3.69566 48.5914 3.69074 48.4136C3.686 48.2358 3.67846 48.0572 3.66787 47.8778L3.63642 47.337L3.62205 47.064C3.61989 47.0193 3.61784 46.9706 3.61757 46.9215C3.61683 46.8727 3.6178 46.8232 3.62047 46.7733C3.62527 46.6732 3.63817 46.5711 3.66274 46.4648C3.67513 46.4116 3.69148 46.3573 3.71435 46.3022C3.73706 46.2471 3.76527 46.1908 3.80439 46.1351C3.84302 46.0796 3.89444 46.0254 3.95814 45.9806C4.02152 45.9357 4.09821 45.9032 4.17481 45.8894C4.25154 45.8749 4.32646 45.8771 4.39453 45.8899C4.42869 45.8963 4.46147 45.9047 4.4932 45.916C4.50908 45.9216 4.52474 45.9278 4.54055 45.9347C4.54841 45.9381 4.55648 45.9417 4.56464 45.9457L4.57745 45.9522L4.59529 45.9618C4.70731 46.0215 4.7497 46.1607 4.68998 46.2728C4.63025 46.3848 4.49101 46.4272 4.37897 46.3674Z" fill="#2E3349"/>
<path d="M3.76023 49.8321C3.96692 49.5307 3.92498 49.3433 3.78197 49.2452C3.63896 49.1472 3.44903 49.1755 3.24234 49.4769C3.03566 49.7783 3.02246 50.3527 3.02246 50.3527C3.02246 50.3527 3.55354 50.1335 3.76023 49.8321Z" fill="#2E3349"/>
<g opacity="0.3">
<g opacity="0.3">
<path opacity="0.3" d="M11.4431 47.7365L11.0114 49.0153L11.739 52.8217H10.4655L10.167 48.5606L10.2859 48.2205C10.687 48.2218 11.0726 48.059 11.4431 47.7365Z" fill="#2E3349"/>
</g>
</g>
</svg>
