<svg width="96" height="55" viewBox="0 0 96 55" fill="none" xmlns="http://www.w3.org/2000/svg">
<path d="M21.1463 33.5928C21.1463 28.9506 20.0708 22.5787 13.866 22.5787C8.14796 22.5787 7.08203 28.9506 7.08203 33.5928C7.08203 34.4827 7.08203 44.066 7.08203 44.066C7.08203 44.765 8.05986 45.3315 8.85785 45.3315H19.2051C20.0031 45.3315 21.1464 44.7649 21.1464 44.066C21.1463 44.0661 21.1463 34.6886 21.1463 33.5928Z" fill="#65DB4D"/>
<g opacity="0.6">
<path opacity="0.6" d="M7.52905 36.2986C7.29738 20.0832 17.4363 23.8379 17.4363 23.8379L17.0811 23.3231C16.2026 22.8527 15.1447 22.5787 13.866 22.5787C8.14796 22.5787 7.08203 28.9506 7.08203 33.5928C7.08203 33.7834 7.08203 34.3731 7.08203 35.1811L7.52905 36.2986Z" fill="white"/>
</g>
<g opacity="0.29">
<path opacity="0.29" d="M21.1464 44.0659C21.1464 44.0659 21.1464 42.663 21.1464 40.8805C14.3153 44.7627 9.77289 42.7779 7.08203 40.2369C7.08203 42.3129 7.08203 44.0659 7.08203 44.0659C7.08203 44.7649 8.05986 45.3314 8.85785 45.3314H19.2051C20.0031 45.3314 21.1464 44.7649 21.1464 44.0659Z" fill="#2E3349"/>
</g>
<path d="M19.2046 45.8828H8.85736C7.7589 45.8828 6.53027 45.1059 6.53027 44.0661V33.5928C6.53027 26.1349 9.13531 22.0275 13.8655 22.0275C16.8539 22.0275 19.0286 23.3998 20.3293 26.1061C21.2368 27.9946 21.6971 30.5135 21.6971 33.5928V44.066C21.6971 45.175 20.2208 45.8828 19.2046 45.8828ZM13.8655 23.1301C8.71414 23.1301 7.63276 28.8197 7.63276 33.5928V44.066C7.63276 44.361 8.26611 44.7802 8.85736 44.7802H19.2046C19.8583 44.7802 20.5946 44.3143 20.5946 44.066V33.5928C20.5946 28.8197 19.4271 23.1301 13.8655 23.1301Z" fill="#2E3349"/>
<path d="M13.7896 54.2255C13.4852 54.2255 13.2383 53.9787 13.2383 53.6743V31.8001C13.2383 31.4958 13.4852 31.2489 13.7896 31.2489C14.094 31.2489 14.3408 31.4958 14.3408 31.8001V53.6743C14.3408 53.9787 14.094 54.2255 13.7896 54.2255Z" fill="#2E3349"/>
<path d="M13.6251 44.0392C13.482 44.0392 13.3391 43.9838 13.2311 43.8736L10.293 40.8712C10.0801 40.6536 10.0838 40.3046 10.3015 40.0916C10.519 39.8784 10.8681 39.8823 11.081 40.1L14.0191 43.1023C14.232 43.32 14.2283 43.6689 14.0106 43.8819C13.9034 43.9869 13.7642 44.0392 13.6251 44.0392Z" fill="#2E3349"/>
<path d="M13.8696 39.3212C13.7305 39.3212 13.5914 39.2689 13.4841 39.1639C13.2664 38.9509 13.2627 38.6019 13.4756 38.3843L16.4138 35.3819C16.6268 35.1642 16.9758 35.1606 17.1933 35.3736C17.4109 35.5866 17.4146 35.9355 17.2018 36.1532L14.2636 39.1555C14.1556 39.2658 14.0126 39.3212 13.8696 39.3212Z" fill="#2E3349"/>
<path d="M13.3801 36.5332C13.2371 36.5332 13.0941 36.4778 12.9861 36.3675L10.0479 33.3653C9.83498 33.1477 9.83869 32.7987 10.0564 32.5857C10.2738 32.3729 10.6229 32.3765 10.8358 32.5941L13.774 35.5963C13.987 35.8139 13.9832 36.1629 13.7656 36.3759C13.6584 36.4809 13.5192 36.5332 13.3801 36.5332Z" fill="#2E3349"/>
<path d="M89.5798 35.4466C89.5798 31.2328 88.6036 25.449 82.9714 25.449C77.781 25.449 76.8135 31.2328 76.8135 35.4466C76.8135 36.2543 76.8135 44.9532 76.8135 44.9532C76.8135 45.5876 77.7011 46.1019 78.4254 46.1019H87.8177C88.542 46.1019 89.5798 45.5876 89.5798 44.9532C89.5798 44.9532 89.5798 36.4412 89.5798 35.4466Z" fill="#65DB4D"/>
<g opacity="0.6">
<path opacity="0.6" d="M86.6856 26.8522L86.6296 26.6049C85.7093 25.8862 84.5165 25.449 82.9714 25.449C77.781 25.449 76.8135 31.2328 76.8135 35.4466C76.8135 35.7151 76.8135 36.8573 76.8135 38.2605L77.2823 38.448C77.2823 38.448 76.7482 23.4907 86.6856 26.8522Z" fill="white"/>
</g>
<g opacity="0.29">
<path opacity="0.29" d="M76.8135 39.6863C76.8135 42.2277 76.8135 44.9529 76.8135 44.9529C76.8135 45.5873 77.7011 46.1017 78.4254 46.1017H87.8177C88.542 46.1017 89.5798 45.5874 89.5798 44.9529C89.5798 44.9529 89.5798 43.9195 89.5798 42.5317C83.4225 46.6436 78.9267 42.4898 76.8135 39.6863Z" fill="#2E3349"/>
</g>
<path d="M87.8172 46.6529H78.4249C77.4038 46.6529 76.2617 45.926 76.2617 44.953V35.4464C76.2617 28.6439 78.6444 24.8975 82.9709 24.8975C85.7046 24.8975 87.6942 26.1529 88.884 28.6287C89.7112 30.3496 90.1306 32.6434 90.1306 35.4464V44.953C90.1306 45.9908 88.7604 46.6529 87.8172 46.6529ZM82.9708 26C78.3369 26 77.3642 31.137 77.3642 35.4464V44.953C77.3642 45.1723 77.8883 45.5504 78.4249 45.5504H87.8171C88.3946 45.5504 89.0281 45.131 89.0281 44.953V35.4464C89.0281 31.137 87.9772 26 82.9708 26Z" fill="#2E3349"/>
<path d="M82.9018 54.2258C82.5974 54.2258 82.3506 53.979 82.3506 53.6746V33.8193C82.3506 33.5149 82.5974 33.2681 82.9018 33.2681C83.2062 33.2681 83.453 33.5149 83.453 33.8193V53.6746C83.453 53.979 83.2062 54.2258 82.9018 54.2258Z" fill="#2E3349"/>
<path d="M82.7515 44.9793C82.6085 44.9793 82.4655 44.9239 82.3575 44.8137L79.6905 42.0885C79.4776 41.8709 79.4813 41.5219 79.6989 41.3089C79.9164 41.096 80.2654 41.0996 80.4784 41.3173L83.1454 44.0424C83.3584 44.2601 83.3546 44.6091 83.137 44.822C83.0298 44.927 82.8906 44.9793 82.7515 44.9793Z" fill="#2E3349"/>
<path d="M82.9751 40.6967C82.8359 40.6967 82.6968 40.6445 82.5895 40.5394C82.3719 40.3264 82.3682 39.9774 82.5811 39.7598L85.2481 37.0347C85.461 36.817 85.81 36.8131 86.0276 37.0263C86.2452 37.2393 86.2489 37.5882 86.036 37.8059L83.369 40.5311C83.2611 40.6414 83.1181 40.6967 82.9751 40.6967Z" fill="#2E3349"/>
<path d="M82.5298 38.1664C82.3867 38.1664 82.2438 38.1109 82.1358 38.0007L79.4688 35.2754C79.2559 35.0578 79.2596 34.7088 79.4773 34.4958C79.6946 34.2828 80.0439 34.2867 80.2567 34.5042L82.9237 37.2295C83.1367 37.4471 83.133 37.7961 82.9153 38.0091C82.8082 38.1141 82.6689 38.1664 82.5298 38.1664Z" fill="#2E3349"/>
<path d="M18.6213 28.5037H17.4561V49.2461H18.6213V28.5037Z" fill="#4892B9"/>
<path d="M18.6219 49.6871H17.4566C17.2131 49.6871 17.0156 49.4898 17.0156 49.2461V28.5037C17.0156 28.2602 17.213 28.0627 17.4566 28.0627H18.6219C18.8654 28.0627 19.0629 28.2601 19.0629 28.5037V49.2461C19.0629 49.4898 18.8654 49.6871 18.6219 49.6871ZM17.8976 48.8051H18.1809V28.9448H17.8976V48.8051Z" fill="#2E3349"/>
<path d="M80.0325 28.6201H78.8672V49.3625H80.0325V28.6201Z" fill="#4892B9"/>
<path d="M80.033 49.8037H78.8677C78.6242 49.8037 78.4268 49.6063 78.4268 49.3627V28.6202C78.4268 28.3766 78.6242 28.1792 78.8677 28.1792H80.033C80.2766 28.1792 80.474 28.3766 80.474 28.6202V49.3627C80.474 49.6063 80.2765 49.8037 80.033 49.8037ZM79.3087 48.9217H79.592V29.0612H79.3087V48.9217Z" fill="#2E3349"/>
<path d="M73.9102 21.6003H23.2539V49.665H73.9102V21.6003Z" fill="#00C3FF"/>
<g opacity="0.29">
<path opacity="0.29" d="M73.9102 45.7345H23.2539V49.6651H73.9102V45.7345Z" fill="#2E3349"/>
</g>
<g opacity="0.29">
<path opacity="0.29" d="M71.2858 44.585H63.6284C62.9756 44.585 62.4463 44.0557 62.4463 43.4029V34.3303H72.4679V43.4029C72.4679 44.0557 71.9386 44.585 71.2858 44.585Z" fill="#2E3349"/>
</g>
<g opacity="0.29">
<path opacity="0.29" d="M58.235 44.585H50.5777C49.9248 44.585 49.3955 44.0557 49.3955 43.4029V34.3303H59.4171V43.4029C59.4171 44.0557 58.8879 44.585 58.235 44.585Z" fill="#2E3349"/>
</g>
<g opacity="0.29">
<path opacity="0.29" d="M23.2539 48.0808V49.665H73.9101V48.0808" fill="#2E3349"/>
</g>
<path d="M37.2759 35.8452H28.1865V49.5958H37.2759V35.8452Z" fill="#DB5684"/>
<path d="M35.8529 37.1272H29.6094V49.596H35.8529V37.1272Z" fill="#DB5684"/>
<g opacity="0.6">
<path opacity="0.6" d="M32.4386 38.9102H30.9534C30.7995 38.9102 30.6747 39.0413 30.6747 39.203V43.3092H30.4541V38.6787H32.4386V38.9102Z" fill="white"/>
</g>
<g opacity="0.6">
<path opacity="0.6" d="M35.0851 38.9102H33.5999C33.4459 38.9102 33.3211 39.0413 33.3211 39.203V43.3092H33.1006V38.6787H35.0851V38.9102Z" fill="white"/>
</g>
<g opacity="0.6">
<path opacity="0.6" d="M35.0851 44.2021H33.5999C33.4459 44.2021 33.3211 44.3332 33.3211 44.4948V48.6011H33.1006V43.9706H35.0851V44.2021Z" fill="white"/>
</g>
<g opacity="0.6">
<path opacity="0.6" d="M32.4386 44.2021H30.9534C30.7995 44.2021 30.6747 44.3332 30.6747 44.4948V48.6011H30.4541V43.9706H32.4386V44.2021Z" fill="white"/>
</g>
<path d="M32.5495 43.3692H30.4472C30.3863 43.3692 30.3369 43.3199 30.3369 43.259V38.6784C30.3369 38.6174 30.3863 38.5681 30.4472 38.5681H32.5495C32.6103 38.5681 32.6597 38.6175 32.6597 38.6784V43.259C32.6597 43.3199 32.6103 43.3692 32.5495 43.3692ZM30.5574 43.1486H32.4392V38.7887H30.5574V43.1486Z" fill="#2E3349"/>
<path d="M35.1959 43.3692H33.0937C33.0328 43.3692 32.9834 43.3199 32.9834 43.259V38.6784C32.9834 38.6174 33.0328 38.5681 33.0937 38.5681H35.1959C35.2568 38.5681 35.3062 38.6175 35.3062 38.6784V43.259C35.3062 43.3199 35.2568 43.3692 35.1959 43.3692ZM33.2039 43.1486H35.0858V38.7887H33.2039V43.1486Z" fill="#2E3349"/>
<path d="M32.5495 48.6621H30.4472C30.3863 48.6621 30.3369 48.6127 30.3369 48.5518V43.9712C30.3369 43.9103 30.3863 43.861 30.4472 43.861H32.5495C32.6103 43.861 32.6597 43.9103 32.6597 43.9712V48.5518C32.6597 48.6127 32.6103 48.6621 32.5495 48.6621ZM30.5574 48.4415H32.4392V44.0815H30.5574V48.4415Z" fill="#2E3349"/>
<path d="M35.1959 48.6619H33.0937C33.0328 48.6619 32.9834 48.6126 32.9834 48.5517V43.9711C32.9834 43.9101 33.0328 43.8608 33.0937 43.8608H35.1959C35.2568 43.8608 35.3062 43.9102 35.3062 43.9711V48.5517C35.3062 48.6126 35.2568 48.6619 35.1959 48.6619ZM33.2039 48.4414H35.0858V44.0814H33.2039V48.4414Z" fill="#2E3349"/>
<g opacity="0.6">
<path opacity="0.6" d="M35.7823 37.6416H30.6589C30.3022 37.6416 30.0132 37.9306 30.0132 38.2872V49.0419H29.623V37.135H35.7461L35.7823 37.6416Z" fill="white"/>
</g>
<g opacity="0.29">
<path opacity="0.29" d="M37.2759 47.64C32.389 49.5529 29.3832 48.1467 28.1865 47.322V49.5958H37.2759V47.64Z" fill="#2E3349"/>
</g>
<g opacity="0.29">
<path opacity="0.29" d="M73.9102 26.406H23.2539V31.9995H73.9102V26.406Z" fill="#2E3349"/>
</g>
<path d="M37.2755 50.0369H28.1861C27.9426 50.0369 27.7451 49.8395 27.7451 49.5959V35.8452C27.7451 35.6016 27.9425 35.4042 28.1861 35.4042H37.2755C37.5191 35.4042 37.7165 35.6015 37.7165 35.8452V49.5959C37.7165 49.8395 37.519 50.0369 37.2755 50.0369ZM28.6271 49.1549H36.8345V36.2862H28.6271V49.1549Z" fill="#2E3349"/>
<path d="M35.8537 49.8162H29.6102C29.4883 49.8162 29.3896 49.7175 29.3896 49.5958V37.1269C29.3896 37.0052 29.4883 36.9065 29.6102 36.9065H35.8537C35.9755 36.9065 36.0742 37.0052 36.0742 37.1269V49.5958C36.0742 49.7175 35.9755 49.8162 35.8537 49.8162ZM29.8307 49.3754H35.6332V37.3473H29.8307V49.3754Z" fill="#2E3349"/>
<path d="M73.9105 50.3266H23.2543C22.8889 50.3266 22.5928 50.0304 22.5928 49.665V21.6004C22.5928 21.235 22.8889 20.939 23.2543 20.939H73.9105C74.2759 20.939 74.572 21.235 74.572 21.6004V49.665C74.572 50.0304 74.2759 50.3266 73.9105 50.3266ZM23.9157 49.0034H73.249V22.2618H23.9157V49.0034Z" fill="#2E3349"/>
<path d="M71.4632 11.4661H25.7031L13.2744 29.2849H83.8918L71.4632 11.4661Z" fill="#DB3733"/>
<g opacity="0.6">
<path opacity="0.6" d="M71.6877 12.4392H26.265L16.8281 25.4696L26.1648 11.3912L71.4672 11.5572L71.6877 12.4392Z" fill="white"/>
</g>
<g opacity="0.29">
<path opacity="0.29" d="M52.284 28.5354C23.9629 30.1486 17.4502 26.7429 17.0042 24.3459L13.2744 29.2846H83.8918L80.7283 25.8894C77.4054 27.8115 69.3007 27.5661 52.284 28.5354Z" fill="#2E3349"/>
</g>
<path d="M83.8912 29.9462H13.2738C13.0273 29.9462 12.8013 29.8092 12.6873 29.5906C12.5733 29.3721 12.5903 29.1083 12.7313 28.9062L25.16 11.0874C25.2836 10.9101 25.4863 10.8044 25.7025 10.8044H71.4626C71.6788 10.8044 71.8815 10.9101 72.0051 11.0874L84.4338 28.9062C84.5748 29.1083 84.5917 29.3721 84.4777 29.5906C84.3637 29.8092 84.1377 29.9462 83.8912 29.9462ZM14.5417 28.6232H82.6233L71.1175 12.1274H26.0476L14.5417 28.6232Z" fill="#2E3349"/>
<path d="M80.8785 49.4424H16.2871V53.6743H80.8785V49.4424Z" fill="#FBF6F2"/>
<g opacity="0.29">
<path opacity="0.29" d="M80.8786 49.5508L80.8585 49.4792C79.6932 52.7421 78.5279 52.0429 78.5279 52.0429C78.5279 52.0429 24.4579 52.509 20.9619 52.509C17.466 52.509 16.3757 49.9554 16.3757 49.9554L16.2871 50.0429V53.6744H80.8785V49.5508H80.8786Z" fill="#2E3349"/>
</g>
<path d="M80.8779 54.3357H16.2865C15.9212 54.3357 15.625 54.0397 15.625 53.6743V49.4423C15.625 49.077 15.9212 48.7808 16.2865 48.7808H80.8779C81.2433 48.7808 81.5394 49.077 81.5394 49.4423V53.6743C81.5394 54.0397 81.2433 54.3357 80.8779 54.3357ZM16.948 53.0129H80.2165V50.104H16.948V53.0129Z" fill="#2E3349"/>
<path d="M48.5817 0.661377L25.7109 21.4787L26.935 22.9264L48.5817 3.33418L70.2283 22.9264L71.4524 21.4787L48.5817 0.661377Z" fill="#D73735"/>
<path d="M48.6473 3.31006L33.0322 17.591V25.1641H46.9506H48.5821H64.1972V17.591L48.6473 3.31006Z" fill="#00C3FF"/>
<g opacity="0.29">
<g opacity="0.29">
<path opacity="0.29" d="M54.6422 22.9766H42.523C42.2795 22.9766 42.082 22.7792 42.082 22.5356C42.082 22.2921 42.2795 22.0946 42.523 22.0946H54.6422C54.8858 22.0946 55.0832 22.292 55.0832 22.5356C55.0832 22.7792 54.8858 22.9766 54.6422 22.9766Z" fill="#2E3349"/>
</g>
</g>
<g opacity="0.29">
<path opacity="0.29" d="M64.1898 22.1413C52.283 25.8898 33.1304 22.6994 33.0995 22.5823L33.0322 21.8298V25.1643H46.9506H48.582H64.1971L64.1898 22.1413Z" fill="#2E3349"/>
</g>
<g opacity="0.29">
<path opacity="0.29" d="M33.0322 17.591V19.5057L48.5821 5.43162L64.1971 19.5647V17.591L48.6473 3.31006L33.0322 17.591Z" fill="#2E3349"/>
</g>
<path d="M64.1975 25.8259H33.0326C32.6672 25.8259 32.3711 25.5297 32.3711 25.1644V17.5913C32.3711 17.4057 32.4491 17.2284 32.5862 17.1031L48.2013 2.82214C48.4543 2.59073 48.8425 2.59101 49.0951 2.82306L64.6449 17.104C64.7814 17.2293 64.859 17.4061 64.859 17.5913V25.1644C64.859 25.5297 64.5629 25.8259 64.1975 25.8259ZM33.6941 24.5029H63.536V17.8819L48.6467 4.20764L33.6941 17.8827V24.5029Z" fill="#2E3349"/>
<path d="M70.2288 23.5881C70.0652 23.5881 69.9069 23.5275 69.7849 23.4171L48.5821 4.22653L27.3792 23.4171C27.2464 23.5373 27.072 23.5982 26.8913 23.5866C26.7124 23.5747 26.546 23.4906 26.4303 23.3537L25.2061 21.9058C24.9763 21.6341 25.0029 21.2291 25.2661 20.9895L48.1368 0.172158C48.3891 -0.0573861 48.775 -0.0573861 49.0273 0.172158L71.898 20.9895C72.1612 21.2291 72.1878 21.6341 71.958 21.9058L70.7338 23.3537C70.6181 23.4905 70.4517 23.5747 70.2728 23.5866C70.2581 23.5875 70.2434 23.5881 70.2288 23.5881ZM48.5821 2.67288C48.7411 2.67288 48.9 2.72984 49.026 2.84382L70.1654 21.977L70.536 21.5387L48.5821 1.55595L26.6282 21.5387L26.9988 21.977L48.1381 2.84382C48.2642 2.7298 48.4232 2.67288 48.5821 2.67288Z" fill="#2E3349"/>
<path d="M53.0669 11.6068H43.9775V22.0945H53.0669V11.6068Z" fill="#F4CB00"/>
<g opacity="0.6">
<path opacity="0.6" d="M48.3592 12.2603H45.2722C44.6906 12.2603 44.8312 12.7318 44.8312 13.3135V16.4498L47.9182 16.6703L48.3592 17.5523H45.2722C44.726 17.5523 44.8312 17.995 44.8312 18.5412V21.7417L44.0147 21.7565L43.978 12.5176L43.9492 11.3783L48.5797 11.5988L48.3592 12.2603Z" fill="white"/>
</g>
<g opacity="0.6">
<path opacity="0.6" d="M52.3177 12.2603H49.7013C49.2083 12.2603 49.3276 12.7318 49.3276 13.3135V16.4498L51.9439 16.6703L52.3177 17.5523H49.7013C49.2385 17.5523 49.3276 17.995 49.3276 18.5412V21.7417L48.6355 21.7565L48.6045 12.5176L48.5801 11.3783L52.5046 11.5988L52.3177 12.2603Z" fill="white"/>
</g>
<path d="M53.0664 22.5356H43.9771C43.7336 22.5356 43.5361 22.3383 43.5361 22.0946V11.6069C43.5361 11.3633 43.7336 11.1659 43.9771 11.1659H53.0664C53.31 11.1659 53.5074 11.3633 53.5074 11.6069V22.0946C53.5074 22.3382 53.31 22.5356 53.0664 22.5356ZM44.4181 21.6536H52.6254V12.0479H44.4181V21.6536Z" fill="#2E3349"/>
<g opacity="0.29">
<path opacity="0.29" d="M53.0669 20.2316C48.9292 22.6772 44.7341 21.0458 43.9775 18.7239V22.0945H53.0669V20.2316Z" fill="#2E3349"/>
</g>
<path d="M54.6422 22.5357H42.523C42.2795 22.5357 42.082 22.3383 42.082 22.0947C42.082 21.851 42.2795 21.6537 42.523 21.6537H54.6422C54.8857 21.6537 55.0832 21.851 55.0832 22.0947C55.0832 22.3383 54.8857 22.5357 54.6422 22.5357Z" fill="#2E3349"/>
<path d="M48.5221 22.5354C48.2785 22.5354 48.0811 22.3381 48.0811 22.0944V11.8398C48.0811 11.5962 48.2785 11.3988 48.5221 11.3988C48.7656 11.3988 48.9631 11.5962 48.9631 11.8398V22.0944C48.9631 22.3381 48.7656 22.5354 48.5221 22.5354Z" fill="#2E3349"/>
<path d="M52.8914 17.4083H44.2681C44.0246 17.4083 43.8271 17.2109 43.8271 16.9673C43.8271 16.7236 44.0246 16.5262 44.2681 16.5262H52.8914C53.1349 16.5262 53.3324 16.7236 53.3324 16.9673C53.3324 17.2109 53.1349 17.4083 52.8914 17.4083Z" fill="#2E3349"/>
<path d="M71.9448 33.2816H62.8555V43.7693H71.9448V33.2816Z" fill="#F4CB00"/>
<g opacity="0.6">
<path opacity="0.6" d="M67.0574 34.0481H63.9704C63.3888 34.0481 63.5294 34.5197 63.5294 35.1013V38.2376L66.6164 38.4581L67.0574 39.3401H63.9704C63.4243 39.3401 63.5294 39.7828 63.5294 40.329V43.5296L62.7129 43.5443L62.6763 34.3054L62.6475 33.1661L67.2779 33.3867L67.0574 34.0481Z" fill="white"/>
</g>
<g opacity="0.6">
<path opacity="0.6" d="M71.6873 34.0481H68.6003C68.0187 34.0481 68.1593 34.5197 68.1593 35.1013V38.2376L71.2463 38.4581L71.6873 39.3401H68.6003C68.0542 39.3401 68.1593 39.7828 68.1593 40.329V43.5296L67.3428 43.5443L67.3062 34.3054L67.2773 33.1661L71.9078 33.3867L71.6873 34.0481Z" fill="white"/>
</g>
<path d="M71.9435 44.2104H62.8541C62.6105 44.2104 62.4131 44.0131 62.4131 43.7694V33.2817C62.4131 33.0381 62.6105 32.8407 62.8541 32.8407H71.9435C72.187 32.8407 72.3844 33.0381 72.3844 33.2817V43.7694C72.3844 44.013 72.187 44.2104 71.9435 44.2104ZM63.295 43.3284H71.5024V33.7227H63.295V43.3284Z" fill="#2E3349"/>
<path d="M71.9435 44.2104H62.8541C62.6105 44.2104 62.4131 44.0131 62.4131 43.7694V33.2817C62.4131 33.0381 62.6105 32.8407 62.8541 32.8407H71.9435C72.187 32.8407 72.3844 33.0381 72.3844 33.2817V43.7694C72.3844 44.013 72.187 44.2104 71.9435 44.2104ZM63.295 43.3284H71.5024V33.7227H63.295V43.3284Z" fill="#2E3349"/>
<path d="M67.4 44.2104C67.1564 44.2104 66.959 44.013 66.959 43.7694V33.5146C66.959 33.271 67.1564 33.0736 67.4 33.0736C67.6435 33.0736 67.841 33.2709 67.841 33.5146V43.7694C67.841 44.013 67.6435 44.2104 67.4 44.2104Z" fill="#2E3349"/>
<path d="M71.7683 39.0827H63.1451C62.9016 39.0827 62.7041 38.8854 62.7041 38.6417C62.7041 38.3981 62.9015 38.2007 63.1451 38.2007H71.7683C72.0119 38.2007 72.2093 38.3981 72.2093 38.6417C72.2093 38.8854 72.0119 39.0827 71.7683 39.0827Z" fill="#2E3349"/>
<path d="M58.8921 33.2816H49.8027V43.7693H58.8921V33.2816Z" fill="#F4CB00"/>
<g opacity="0.6">
<path opacity="0.6" d="M58.6775 34.0481H55.5905C55.0089 34.0481 55.1495 34.5197 55.1495 35.1013V38.2376L58.2365 38.4581L58.6775 39.3401H55.5905C55.0444 39.3401 55.1495 39.7828 55.1495 40.329V43.5296L54.333 43.5443L54.2964 34.3054L54.2676 33.1661L58.898 33.3867L58.6775 34.0481Z" fill="white"/>
</g>
<g opacity="0.6">
<path opacity="0.6" d="M54.0476 34.0481H50.9607C50.379 34.0481 50.5197 34.5197 50.5197 35.1013V38.2376L53.6066 38.4581L54.0476 39.3401H50.9607C50.4145 39.3401 50.5197 39.7828 50.5197 40.329V43.5296L49.7032 43.5443L49.6665 34.3054L49.6377 33.1661L54.2682 33.3867L54.0476 34.0481Z" fill="white"/>
</g>
<path d="M58.8927 44.2104H49.8033C49.5598 44.2104 49.3623 44.0131 49.3623 43.7694V33.2817C49.3623 33.0381 49.5598 32.8407 49.8033 32.8407H58.8927C59.1362 32.8407 59.3337 33.0381 59.3337 33.2817V43.7694C59.3337 44.013 59.1363 44.2104 58.8927 44.2104ZM50.2443 43.3284H58.4517V33.7227H50.2443V43.3284Z" fill="#2E3349"/>
<path d="M54.3482 44.2104C54.1047 44.2104 53.9072 44.013 53.9072 43.7694V33.5146C53.9072 33.271 54.1047 33.0736 54.3482 33.0736C54.5918 33.0736 54.7892 33.2709 54.7892 33.5146V43.7694C54.7892 44.013 54.5918 44.2104 54.3482 44.2104Z" fill="#2E3349"/>
<path d="M58.7176 39.0827H50.0943C49.8508 39.0827 49.6533 38.8854 49.6533 38.6417C49.6533 38.3981 49.8507 38.2007 50.0943 38.2007H58.7176C58.9611 38.2007 59.1586 38.3981 59.1586 38.6417C59.1585 38.8854 58.9611 39.0827 58.7176 39.0827Z" fill="#2E3349"/>
<path d="M38.443 53.8822H26.3238C26.0803 53.8822 25.8828 53.6849 25.8828 53.4413V51.1107C25.8828 50.867 26.0802 50.6697 26.3238 50.6697H38.443C38.6865 50.6697 38.884 50.867 38.884 51.1107V53.4413C38.884 53.6849 38.6865 53.8822 38.443 53.8822ZM26.7648 53.0003H38.002V51.5516H26.7648V53.0003Z" fill="#2E3349"/>
<g opacity="0.29">
<path opacity="0.29" d="M58.9517 41.5567C54.814 44.0023 50.6189 42.3708 49.8623 40.049V43.4196H58.9517V41.5567Z" fill="#2E3349"/>
</g>
<g opacity="0.29">
<path opacity="0.29" d="M71.77 41.5567C67.6323 44.0023 63.4372 42.3708 62.6807 40.049V43.4196H71.77V41.5567Z" fill="#2E3349"/>
</g>
<path d="M0.197142 54.0169C2.18261 53.6447 4.16887 53.5417 6.15528 53.4971C8.14164 53.4404 10.1282 53.4618 12.1149 53.4838L15.0947 53.4977L18.0745 53.4905L24.034 53.4734L47.8723 53.4052L71.7106 53.3369L83.6297 53.3027L86.6095 53.2934C87.6027 53.2912 88.5959 53.2556 89.5891 53.2377C90.5824 53.2195 91.5757 53.2405 92.5691 53.2973C93.5626 53.3649 94.5562 53.4794 95.5502 53.7434C95.6816 53.7783 95.7597 53.9131 95.7249 54.0444C95.7016 54.1321 95.6333 54.1962 95.5516 54.2186C94.5592 54.4885 93.5662 54.6089 92.5732 54.6824C91.5801 54.7451 90.5869 54.7717 89.5936 54.7592C88.6003 54.747 87.6069 54.7171 86.6137 54.7205L83.6339 54.7283L71.7147 54.7624L47.8765 54.8307L24.0382 54.8989L18.0786 54.916L15.0988 54.926L12.1191 54.9568C10.1326 54.9903 8.1462 55.023 6.15953 54.9777C4.17289 54.9444 2.18606 54.8529 0.198504 54.4921C0.0671954 54.4683 -0.0199212 54.3425 0.00393295 54.2112C0.0223066 54.11 0.101789 54.035 0.197142 54.0169Z" fill="#2E3349"/>
<path d="M64.5875 24.7504H32.8111L19.4502 30.2516H77.7154L64.5875 24.7504Z" fill="#DB3733"/>
<g opacity="0.6">
<path opacity="0.6" d="M64.0976 24.7504H32.8123L20.9971 29.6151L22.9586 30.0791L33.1014 25.6691H65.0738L64.0976 24.7504Z" fill="white"/>
</g>
<path d="M77.7168 30.9132H19.4516C19.1357 30.9132 18.8639 30.6898 18.8027 30.38C18.7414 30.0702 18.9076 29.7602 19.1998 29.64L32.5607 24.1388C32.6405 24.1058 32.7261 24.089 32.8125 24.089H64.5889C64.6767 24.089 64.7637 24.1063 64.8446 24.1403L77.9725 29.6416C78.2631 29.7633 78.4274 30.0731 78.3653 30.382C78.3032 30.6909 78.0319 30.9132 77.7168 30.9132ZM22.7955 29.5902H74.4267L64.456 25.4119H32.9433L22.7955 29.5902Z" fill="#2E3349"/>
<path d="M13.006 39.9389C13.006 36.7126 12.2 32.2843 7.55038 32.2843C3.26555 32.2843 2.4668 36.7126 2.4668 39.9389C2.4668 40.5573 2.4668 47.2175 2.4668 47.2175C2.4668 47.7033 3.19956 48.097 3.79749 48.097H11.5513C12.1492 48.097 13.006 47.7033 13.006 47.2175C13.006 47.2175 13.006 40.7004 13.006 39.9389Z" fill="#65DB4D"/>
<g opacity="0.6">
<path opacity="0.6" d="M10.6167 33.3587L10.5705 33.1693C9.81076 32.6191 8.82599 32.2843 7.55041 32.2843C3.26558 32.2843 2.4668 36.7126 2.4668 39.9389C2.4668 40.1444 2.4668 41.019 2.4668 42.0933L2.85388 42.2369C2.85388 42.2369 2.41288 30.785 10.6167 33.3587Z" fill="white"/>
</g>
<g opacity="0.29">
<path opacity="0.29" d="M2.4668 43.1849C2.4668 45.1308 2.4668 47.2173 2.4668 47.2173C2.4668 47.7031 3.19956 48.0968 3.79753 48.0968H11.5513C12.1493 48.0968 13.006 47.7031 13.006 47.2173C13.006 47.2173 13.006 46.426 13.006 45.3635C7.92286 48.5118 4.21138 45.3315 2.4668 43.1849Z" fill="#2E3349"/>
</g>
<path d="M11.5527 48.6482H3.79893C2.90879 48.6482 1.91699 48.0606 1.91699 47.2174V39.9388C1.91699 34.6472 3.91811 31.733 7.55182 31.733C11.4253 31.733 13.5586 34.6472 13.5586 39.9388V47.2174C13.5586 48.1039 12.3902 48.6482 11.5527 48.6482ZM7.55182 32.8356C3.80574 32.8356 3.01941 36.6983 3.01941 39.9388V47.2174C3.0516 47.3051 3.41334 47.5456 3.79893 47.5456H11.5527C11.9411 47.5456 12.3743 47.3169 12.4561 47.1891V39.9388C12.456 35.2254 10.8061 32.8356 7.55182 32.8356Z" fill="#2E3349"/>
<path d="M7.49454 54.4461C7.19014 54.4461 6.94336 54.1993 6.94336 53.8949V38.6928C6.94336 38.3884 7.19014 38.1415 7.49454 38.1415C7.79894 38.1415 8.04572 38.3884 8.04572 38.6928V53.8949C8.04575 54.1993 7.79897 54.4461 7.49454 54.4461Z" fill="#2E3349"/>
<path d="M7.3701 47.3668C7.23398 47.3668 7.09763 47.3167 6.99097 47.2157L4.78923 45.1292C4.56827 44.9198 4.5589 44.5708 4.76836 44.3499C4.97772 44.1288 5.3266 44.1194 5.54765 44.3288L7.74939 46.4154C7.97038 46.6248 7.97973 46.9737 7.77027 47.1947C7.66193 47.3091 7.51611 47.3668 7.3701 47.3668Z" fill="#2E3349"/>
<path d="M7.55427 44.0882C7.40823 44.0882 7.26245 44.0305 7.15407 43.9161C6.94465 43.6952 6.95402 43.3462 7.17495 43.1368L9.37669 41.0501C9.59758 40.8406 9.94662 40.85 10.156 41.0711C10.3654 41.292 10.3561 41.641 10.1351 41.8504L7.93337 43.9371C7.82677 44.0381 7.69036 44.0882 7.55427 44.0882Z" fill="#2E3349"/>
<path d="M7.18748 42.1504C7.05136 42.1504 6.91502 42.1002 6.80835 41.9992L4.60661 39.9128C4.38566 39.7033 4.37628 39.3543 4.58574 39.1335C4.7951 38.9123 5.14392 38.9031 5.36504 39.1124L7.56677 41.1989C7.78776 41.4083 7.79711 41.7573 7.58765 41.9782C7.47931 42.0927 7.33349 42.1504 7.18748 42.1504Z" fill="#2E3349"/>
</svg>
