<svg width="44" height="55" viewBox="0 0 44 55" fill="none" xmlns="http://www.w3.org/2000/svg">
<path d="M11.3424 48.7135V52.2152C11.3424 53.5841 10.5607 54.6927 9.59552 54.6927H6.32991C5.3647 54.6927 4.58301 53.5841 4.58301 52.2152V48.7135C4.58301 47.346 5.3647 46.236 6.32991 46.236H9.59552C10.5607 46.236 11.3424 47.346 11.3424 48.7135Z" fill="#686868"/>
<path d="M38.7252 48.7135V52.2152C38.7252 53.5841 37.9426 54.6927 36.9784 54.6927H33.7117C32.7475 54.6927 31.9648 53.5841 31.9648 52.2152V48.7135C31.9648 47.346 32.7475 46.236 33.7117 46.236H36.9784C37.9426 46.236 38.7252 47.346 38.7252 48.7135Z" fill="#686868"/>
<path d="M9.26222 55H6.66312C5.34656 55 4.27539 53.9289 4.27539 52.6123V48.3169C4.27539 47.0003 5.34656 45.9292 6.66312 45.9292H9.26222C10.5789 45.9292 11.65 47.0003 11.65 48.3169V52.6123C11.65 53.9289 10.5789 55 9.26222 55ZM6.66312 46.5436C5.6853 46.5436 4.88986 47.3391 4.88986 48.3169V52.6123C4.88986 53.5901 5.68532 54.3856 6.66312 54.3856H9.26222C10.24 54.3856 11.0356 53.5901 11.0356 52.6123V48.3169C11.0356 47.3391 10.24 46.5436 9.26222 46.5436H6.66312Z" fill="#2E3349"/>
<path d="M36.6442 55H34.0451C32.7284 55 31.6572 53.9289 31.6572 52.6123V48.3169C31.6572 47.0003 32.7284 45.9292 34.0451 45.9292H36.6442C37.9607 45.9292 39.0319 47.0003 39.0319 48.3169V52.6123C39.0319 53.9289 37.9607 55 36.6442 55ZM34.0451 46.5436C33.0673 46.5436 32.2717 47.3391 32.2717 48.3169V52.6123C32.2717 53.5901 33.0673 54.3856 34.0451 54.3856H36.6442C37.622 54.3856 38.4174 53.5901 38.4174 52.6123V48.3169C38.4174 47.3391 37.622 46.5436 36.6442 46.5436H34.0451Z" fill="#2E3349"/>
<g opacity="0.35">
<g opacity="0.35">
<path opacity="0.35" d="M38.7252 49.6139V52.8117H31.9648V49.6139C31.9648 48.2464 32.7475 47.1364 33.7117 47.1364H36.9784C37.9426 47.1364 38.7252 48.2464 38.7252 49.6139Z" fill="#2E3349"/>
</g>
</g>
<path d="M33.9451 48.5258C33.9552 48.6408 33.957 48.7608 33.936 48.8828C33.9172 49.0049 33.8699 49.1244 33.8286 49.225C33.787 49.325 33.7559 49.4083 33.7413 49.4969C33.7266 49.585 33.7223 49.6779 33.7255 49.7743C33.7306 49.8708 33.7444 49.9621 33.7667 50.0455C33.7895 50.1296 33.8255 50.2051 33.8758 50.3005C33.9273 50.3961 33.9841 50.5189 34.0148 50.6467C34.0469 50.7744 34.0572 50.9011 34.0595 51.0229C34.0597 51.1447 34.0482 51.2717 34.0162 51.3995C33.9852 51.5274 33.9281 51.6502 33.8788 51.7468C33.8293 51.8425 33.7926 51.9172 33.7699 52.001C33.7466 52.084 33.7368 52.1754 33.73 52.2714C33.7265 52.3675 33.7298 52.4604 33.7458 52.5478C33.7601 52.6359 33.7897 52.7195 33.832 52.8191C33.8733 52.9199 33.9193 53.0402 33.9383 53.1625C33.9586 53.2849 33.9564 53.405 33.9451 53.52C33.9389 53.5836 33.8823 53.6301 33.8187 53.6239C33.7644 53.6185 33.7225 53.5765 33.7154 53.5247L33.7147 53.52C33.7006 53.4185 33.6815 53.3213 33.6503 53.233C33.6193 53.144 33.5759 53.0652 33.5207 52.9723C33.4665 52.8784 33.4067 52.7628 33.371 52.6396C33.3355 52.5163 33.3217 52.3919 33.3155 52.2715C33.3115 52.151 33.3186 52.0251 33.3469 51.8974C33.3741 51.7699 33.4267 51.6455 33.4738 51.5475C33.5209 51.4505 33.5533 51.3742 33.5723 51.2908C33.5918 51.2079 33.5974 51.1176 33.6004 51.0229C33.5999 50.9281 33.5933 50.8376 33.5739 50.7546C33.5546 50.6711 33.5221 50.5948 33.477 50.4967C33.4308 50.3985 33.3774 50.2749 33.3502 50.1476C33.3209 50.0204 33.3176 49.8944 33.3199 49.7744C33.3259 49.6543 33.3385 49.5299 33.3754 49.4073C33.4108 49.2846 33.4691 49.1688 33.524 49.0751C33.5792 48.9821 33.6213 48.9025 33.6526 48.8133C33.6831 48.7246 33.7018 48.6273 33.7147 48.5258L33.7153 48.5213C33.7233 48.458 33.7812 48.4132 33.8446 48.4212C33.8995 48.4282 33.9405 48.4728 33.9451 48.5258Z" fill="#2E3349"/>
<path d="M37.0274 48.5258C37.0173 48.6408 37.0156 48.7608 37.0366 48.8828C37.0554 49.0049 37.1026 49.1244 37.1439 49.225C37.1856 49.325 37.2166 49.4083 37.2313 49.4969C37.2459 49.585 37.2502 49.6779 37.247 49.7743C37.2419 49.8708 37.2282 49.9621 37.2059 50.0455C37.1831 50.1296 37.1471 50.2051 37.0968 50.3005C37.0453 50.3961 36.9885 50.5189 36.9578 50.6467C36.9257 50.7744 36.9154 50.9011 36.9131 51.0229C36.9129 51.1447 36.9244 51.2717 36.9564 51.3995C36.9874 51.5274 37.0444 51.6502 37.0938 51.7468C37.1433 51.8425 37.1799 51.9172 37.2027 52.001C37.226 52.084 37.2358 52.1754 37.2426 52.2714C37.246 52.3675 37.2428 52.4604 37.2268 52.5478C37.2125 52.6359 37.1829 52.7195 37.1406 52.8191C37.0992 52.9199 37.0533 53.0402 37.0343 53.1625C37.014 53.2849 37.0161 53.405 37.0274 53.52C37.0337 53.5836 37.0903 53.6301 37.1539 53.6239C37.2082 53.6185 37.25 53.5765 37.2572 53.5247L37.2578 53.52C37.2719 53.4185 37.291 53.3213 37.3223 53.233C37.3532 53.144 37.3966 53.0652 37.4519 52.9723C37.5061 52.8784 37.5659 52.7628 37.6015 52.6396C37.6371 52.5163 37.6509 52.3919 37.6571 52.2715C37.6611 52.151 37.654 52.0251 37.6257 51.8974C37.5985 51.7699 37.5458 51.6455 37.4988 51.5475C37.4516 51.4505 37.4193 51.3742 37.4003 51.2908C37.3807 51.2079 37.3752 51.1176 37.3722 51.0229C37.3727 50.9281 37.3793 50.8376 37.3987 50.7546C37.418 50.6711 37.4505 50.5948 37.4955 50.4967C37.5418 50.3985 37.5952 50.2749 37.6224 50.1476C37.6517 50.0204 37.655 49.8944 37.6526 49.7744C37.6467 49.6543 37.634 49.5299 37.5971 49.4073C37.5618 49.2846 37.5035 49.1688 37.4486 49.0751C37.3934 48.9821 37.3512 48.9025 37.32 48.8133C37.2895 48.7246 37.2707 48.6273 37.2579 48.5258L37.2573 48.5213C37.2492 48.458 37.1914 48.4132 37.128 48.4212C37.0731 48.4282 37.032 48.4728 37.0274 48.5258Z" fill="#2E3349"/>
<path d="M35.4865 53.6245C35.6166 53.6245 35.7221 52.579 35.7221 51.2892C35.7221 49.9995 35.6166 48.954 35.4865 48.954C35.3564 48.954 35.251 49.9995 35.251 51.2892C35.251 52.579 35.3564 53.6245 35.4865 53.6245Z" fill="#2E3349"/>
<path d="M6.42173 48.5258C6.43183 48.6408 6.4336 48.7608 6.41256 48.8828C6.39378 49.0049 6.34654 49.1244 6.30519 49.225C6.26357 49.325 6.23251 49.4083 6.21789 49.4969C6.20323 49.585 6.19894 49.6779 6.20213 49.7743C6.20725 49.8708 6.22096 49.9621 6.24327 50.0455C6.26607 50.1296 6.30206 50.2051 6.35237 50.3005C6.40386 50.3961 6.46075 50.5189 6.49137 50.6467C6.52346 50.7744 6.53381 50.9011 6.53611 51.0229C6.53634 51.1447 6.52481 51.2717 6.4928 51.3995C6.46179 51.5274 6.40477 51.6502 6.35541 51.7468C6.30587 51.8425 6.26921 51.9172 6.24648 52.001C6.22317 52.084 6.21339 52.1754 6.20657 52.2714C6.20315 52.3675 6.20638 52.4604 6.22243 52.5478C6.2367 52.6359 6.26625 52.7195 6.30862 52.8191C6.3499 52.9199 6.39587 53.0402 6.41491 53.1625C6.43519 53.2849 6.43305 53.405 6.42173 53.52C6.4155 53.5836 6.35886 53.6301 6.29526 53.6239C6.24097 53.6185 6.19913 53.5765 6.19195 53.5247L6.19131 53.52C6.17718 53.4185 6.1581 53.3213 6.12683 53.233C6.0959 53.144 6.05251 53.0652 5.99728 52.9723C5.94307 52.8784 5.88326 52.7628 5.84759 52.6396C5.81202 52.5163 5.79828 52.3919 5.79205 52.2715C5.78803 52.151 5.79518 52.0251 5.82342 51.8974C5.85062 51.7699 5.90329 51.6455 5.95032 51.5475C5.99751 51.4505 6.02984 51.3742 6.04885 51.2908C6.06842 51.2079 6.07393 51.1176 6.07695 51.0229C6.07645 50.9281 6.0699 50.8376 6.05044 50.7546C6.03115 50.6711 5.99868 50.5948 5.95361 50.4967C5.90734 50.3985 5.85395 50.2749 5.82676 50.1476C5.79748 50.0204 5.7942 49.8944 5.79651 49.7744C5.80247 49.6543 5.81512 49.5299 5.85203 49.4073C5.88734 49.2846 5.94565 49.1688 6.0006 49.0751C6.0558 48.9821 6.09793 48.9025 6.12914 48.8133C6.15967 48.7246 6.17841 48.6273 6.19131 48.5258L6.19188 48.5213C6.19995 48.458 6.2578 48.4132 6.32114 48.4212C6.37612 48.4282 6.41712 48.4728 6.42173 48.5258Z" fill="#2E3349"/>
<path d="M9.50401 48.5258C9.49391 48.6408 9.49214 48.7608 9.51316 48.8828C9.53194 49.0049 9.57918 49.1244 9.62053 49.225C9.66215 49.325 9.69323 49.4083 9.70785 49.4969C9.72249 49.585 9.72678 49.6779 9.72361 49.7743C9.71849 49.8708 9.7048 49.9621 9.68247 50.0455C9.65965 50.1296 9.62367 50.2051 9.57335 50.3005C9.5219 50.3961 9.46501 50.5189 9.43435 50.6467C9.40228 50.7744 9.39193 50.9011 9.38965 51.0229C9.38941 51.1447 9.40091 51.2717 9.43294 51.3995C9.46391 51.5274 9.52097 51.6502 9.57033 51.7468C9.61987 51.8425 9.65651 51.9172 9.67926 52.001C9.70258 52.084 9.71233 52.1754 9.71915 52.2714C9.72259 52.3675 9.71934 52.4604 9.70333 52.5478C9.68904 52.6359 9.65947 52.7195 9.61713 52.8191C9.57584 52.9199 9.52989 53.0402 9.51085 53.1625C9.49055 53.2849 9.49269 53.405 9.50401 53.52C9.51026 53.5836 9.5669 53.6301 9.6305 53.6239C9.68479 53.6185 9.72659 53.5765 9.73379 53.5247L9.73444 53.52C9.74854 53.4185 9.76764 53.3213 9.79892 53.233C9.82983 53.144 9.87323 53.0652 9.92846 52.9723C9.98267 52.8784 10.0425 52.7628 10.0782 52.6396C10.1137 52.5163 10.1275 52.3919 10.1337 52.2715C10.1377 52.151 10.1305 52.0251 10.1023 51.8974C10.0751 51.7699 10.0224 51.6455 9.97542 51.5475C9.92825 51.4505 9.8959 51.3742 9.87687 51.2908C9.8573 51.2079 9.85181 51.1176 9.84877 51.0229C9.84927 50.9281 9.85584 50.8376 9.8753 50.7546C9.89457 50.6711 9.92706 50.5948 9.97211 50.4967C10.0184 50.3985 10.0718 50.2749 10.099 50.1476C10.1283 50.0204 10.1316 49.8944 10.1292 49.7744C10.1232 49.6543 10.1106 49.5299 10.0737 49.4073C10.0384 49.2846 9.98009 49.1688 9.92516 49.0751C9.86994 48.9821 9.82781 48.9025 9.79662 48.8133C9.76607 48.7246 9.74733 48.6273 9.73445 48.5258L9.73387 48.5213C9.72582 48.458 9.66794 48.4132 9.6046 48.4212C9.54964 48.4282 9.50864 48.4728 9.50401 48.5258Z" fill="#2E3349"/>
<path d="M7.96211 53.6245C8.0922 53.6245 8.19766 52.579 8.19766 51.2892C8.19766 49.9995 8.0922 48.954 7.96211 48.954C7.83202 48.954 7.72656 49.9995 7.72656 51.2892C7.72656 52.579 7.83202 53.6245 7.96211 53.6245Z" fill="#2E3349"/>
<path d="M31.0785 23.7588V34.7817C31.0785 36.6326 29.5639 38.1472 27.713 38.1472H15.3177C13.4667 38.1472 11.9521 36.6326 11.9521 34.7817V23.7588C11.9521 22.745 12.4068 21.8318 13.1219 21.2136C13.7125 20.7028 14.4805 20.3933 15.3177 20.3933H27.713C28.5486 20.3933 29.3151 20.7021 29.9057 21.2105C30.6223 21.8295 31.0785 22.7435 31.0785 23.7588Z" fill="white"/>
<path d="M27.7133 20.3932C29.5646 20.3932 31.0791 21.9078 31.0791 23.759V34.7814C31.0791 36.6326 29.5646 38.1472 27.7133 38.1472H15.3181C13.4669 38.1472 11.9523 36.6326 11.9523 34.7814V23.759C11.9523 21.9078 13.4669 20.3932 15.3181 20.3932H27.7133ZM27.7133 19.7788H15.3181C13.1234 19.7788 11.3379 21.5643 11.3379 23.759V34.7814C11.3379 36.9761 13.1234 38.7616 15.3181 38.7616H27.7133C29.908 38.7616 31.6935 36.9761 31.6935 34.7814V23.759C31.6935 21.5643 29.908 19.7788 27.7133 19.7788Z" fill="#2E3349"/>
<path d="M30.9244 41.6664H11.8147C11.8147 41.6664 11.7938 39.2577 12.1704 35.6809C12.2246 35.1585 12.2878 34.611 12.3614 34.042C12.3781 33.9121 12.3955 33.7807 12.4136 33.648C12.5129 32.9074 12.6289 32.1341 12.7644 31.3358C12.9582 30.1936 13.191 29.0007 13.471 27.78C13.7482 26.5718 14.0727 25.3371 14.4506 24.0977C14.5535 23.7586 14.6612 23.4189 14.773 23.0798C14.7793 23.0611 14.7855 23.0416 14.7925 23.0229C14.9696 22.4844 15.1586 21.9473 15.3587 21.4117C15.5234 20.9719 15.695 20.5335 15.8756 20.0986C16.0069 19.7797 16.1431 19.4621 16.2834 19.1467H26.4563C26.5967 19.4621 26.7329 19.7797 26.8642 20.0986C27.0469 20.5384 27.2206 20.9823 27.3866 21.4277C27.5833 21.9543 27.7695 22.4837 27.9453 23.0138C27.9814 23.1215 28.0168 23.2299 28.0515 23.3376C28.1453 23.6287 28.2364 23.9191 28.3232 24.2096C28.6734 25.3671 28.9763 26.5197 29.2382 27.6501C29.5328 28.9208 29.776 30.1624 29.9768 31.3484C30.1116 32.1425 30.2269 32.9116 30.3255 33.6474C30.3457 33.7954 30.3645 33.9427 30.3832 34.0879C30.4541 34.6423 30.5159 35.1773 30.5694 35.6872C30.9453 39.2611 30.9244 41.6664 30.9244 41.6664Z" fill="white"/>
<path d="M31.2286 41.9736H11.5097L11.507 41.6691C11.5068 41.6448 11.4904 39.2017 11.8645 35.6488C11.9209 35.1042 11.9856 34.5501 12.0564 34.0025C12.0731 33.8722 12.0906 33.74 12.1089 33.6066C12.2129 32.8302 12.3315 32.0488 12.4612 31.2844C12.6681 30.0651 12.907 28.863 13.1712 27.7113C13.4619 26.4447 13.7933 25.1988 14.1563 24.0081C14.2581 23.6723 14.3674 23.3275 14.4809 22.9836L14.4844 22.9733C14.4899 22.9562 14.4957 22.9389 14.5019 22.9219C14.677 22.3899 14.8683 21.8457 15.0706 21.3042C15.2472 20.8323 15.4176 20.3995 15.5916 19.9807C15.7213 19.6656 15.8596 19.3427 16.0024 19.0218L16.0836 18.8395H26.6555L26.7367 19.0218C26.8783 19.3399 27.0166 19.6628 27.1479 19.9815C27.3228 20.4026 27.5 20.8533 27.6741 21.3204C27.8693 21.8432 28.0585 22.3804 28.2365 22.9171C28.2726 23.025 28.3084 23.1344 28.3435 23.2432C28.4464 23.5628 28.536 23.85 28.6172 24.1215C28.9527 25.2307 29.2623 26.3948 29.5371 27.5807C29.8152 28.7801 30.0649 30.0305 30.2792 31.2971C30.4078 32.0546 30.5257 32.8316 30.6296 33.6065C30.6457 33.7243 30.6609 33.8424 30.676 33.9593L30.6875 34.0484C30.7561 34.5851 30.819 35.1255 30.8746 35.6552C31.2479 39.2053 31.2314 41.6449 31.2312 41.6692L31.2286 41.9736ZM12.1228 41.3593H30.6155C30.6073 40.6056 30.5572 38.5114 30.2635 35.7193C30.2084 35.1942 30.1461 34.6584 30.0781 34.1268L30.0667 34.0379C30.0517 33.9225 30.0367 33.8059 30.0208 33.6889C29.9177 32.9203 29.8009 32.1504 29.6735 31.3997C29.4612 30.1451 29.2139 28.9069 28.9386 27.7194C28.6668 26.5466 28.3607 25.3956 28.0288 24.2984C27.9486 24.0302 27.8604 23.747 27.7587 23.4318C27.7244 23.3253 27.6893 23.218 27.6536 23.1114C27.4778 22.581 27.291 22.051 27.0985 21.5351C26.9269 21.075 26.7525 20.6313 26.5801 20.2164C26.4758 19.9629 26.3671 19.7074 26.2559 19.4539H16.4833C16.3713 19.7092 16.2626 19.9646 16.1593 20.2154C15.9878 20.6284 15.82 21.0546 15.646 21.5194C15.446 22.0548 15.2569 22.593 15.0839 23.1188L15.0801 23.1297C15.0757 23.1413 15.0719 23.1533 15.0681 23.165L15.0643 23.1763C14.9524 23.5153 14.8447 23.8554 14.7442 24.1868C14.3851 25.3642 14.0575 26.5961 13.7701 27.8486C13.5085 28.9889 13.2719 30.1795 13.0669 31.3872C12.9384 32.1445 12.821 32.9189 12.7177 33.6888C12.6997 33.8214 12.6823 33.9519 12.6658 34.0811C12.5955 34.6238 12.5316 35.1726 12.4756 35.7126C12.1812 38.5079 12.1309 40.605 12.1228 41.3593Z" fill="#2E3349"/>
<g opacity="0.35">
<g opacity="0.35">
<path opacity="0.35" d="M30.3821 34.0879C29.2698 34.2143 27.7656 34.29 26.6234 33.9906V34.5652C26.6234 35.36 25.9738 36.0103 25.1797 36.0103H17.2926C16.4978 36.0103 15.8481 35.36 15.8481 34.5652V34.1066C14.7552 34.2727 13.4727 34.1865 12.5208 34.0712C12.4659 34.0643 12.4125 34.0545 12.3604 34.042C12.377 33.9121 12.3944 33.7808 12.4125 33.6481C12.5118 32.9074 12.6278 32.1342 12.7633 31.3359C13.638 31.3762 14.8289 31.4012 15.8481 31.3129V30.2826C15.8481 29.4885 16.4977 28.8381 17.2926 28.8381H25.1797C25.814 28.8381 26.3566 29.2536 26.5491 29.8254C26.597 29.9692 26.6234 30.1228 26.6234 30.2826V31.2483C27.635 31.3949 28.9585 31.388 29.9757 31.3484C30.1105 32.1425 30.2258 32.9116 30.3245 33.6474C30.3446 33.7953 30.3634 33.9426 30.3821 34.0879Z" fill="#2E3349"/>
</g>
</g>
<path d="M17.2948 32.9301C16.1895 33.3775 14.4791 33.2839 13.3129 33.1428C12.6135 33.0582 12.1226 32.4128 12.2256 31.7158C12.3196 31.0798 12.8794 30.6174 13.5216 30.6475C14.6123 30.6986 16.2484 30.7225 17.2845 30.4927" fill="white"/>
<g opacity="0.35">
<g opacity="0.35">
<path opacity="0.35" d="M17.2953 32.9298C16.19 33.3772 14.4788 33.2842 13.3129 33.1426C12.6139 33.0584 12.1227 32.4128 12.2255 31.7154C12.2473 31.5673 12.2943 31.4281 12.3631 31.3027C12.5492 31.6474 12.8938 31.899 13.3129 31.95C14.4772 32.0908 16.1852 32.1846 17.2904 31.7388L17.2953 32.9298Z" fill="#2E3349"/>
</g>
</g>
<path d="M15.0969 33.5665C14.4569 33.5665 13.8207 33.5137 13.2759 33.4478C12.8551 33.3969 12.4818 33.1832 12.2246 32.8462C11.967 32.5086 11.8593 32.0912 11.9215 31.6709C12.0391 30.8748 12.7341 30.3024 13.5357 30.3406C15.1413 30.4157 16.4489 30.3634 17.2178 30.1928C17.3764 30.1576 17.7692 30.1559 17.999 30.8953C18.2309 31.6408 18.2039 32.8934 17.4099 33.2148C16.7599 33.478 15.9252 33.5665 15.0969 33.5665ZM13.4618 30.9532C12.995 30.9532 12.5984 31.2932 12.5293 31.7607C12.4916 32.0157 12.5569 32.2688 12.7131 32.4735C12.8689 32.6776 13.0949 32.807 13.3497 32.8378C15.015 33.0393 16.375 32.971 17.1794 32.6453C17.4059 32.5536 17.4755 32.1858 17.4949 32.0319C17.5655 31.4711 17.3981 30.9424 17.2893 30.8058C16.2366 31.0252 14.6572 31.0081 13.507 30.9543C13.4919 30.9536 13.4768 30.9532 13.4618 30.9532Z" fill="#2E3349"/>
<path d="M25.748 32.9301C26.8533 33.3775 28.5638 33.2839 29.7299 33.1428C30.4293 33.0582 30.9203 32.4128 30.8173 31.7158C30.7233 31.0798 30.1634 30.6174 29.5213 30.6475C28.4305 30.6986 26.7945 30.7225 25.7584 30.4927" fill="white"/>
<g opacity="0.35">
<g opacity="0.35">
<path opacity="0.35" d="M29.7304 33.1427C28.5637 33.2843 26.8533 33.3773 25.748 32.9299L25.7529 31.7413C26.8581 32.1871 28.5653 32.0933 29.7304 31.9525C30.1495 31.9015 30.495 31.6483 30.6811 31.3036C30.7482 31.4282 30.796 31.5674 30.8178 31.7154C30.9205 32.4129 30.4294 33.0585 29.7304 33.1427Z" fill="#2E3349"/>
</g>
</g>
<path d="M27.9459 33.5665C27.1174 33.5665 26.2829 33.478 25.6329 33.2148C24.8389 32.8934 24.8119 31.6408 25.0437 30.8954C25.2737 30.1559 25.6665 30.1576 25.8251 30.1927C26.5937 30.3632 27.9014 30.4157 29.507 30.3406C30.3081 30.303 31.0035 30.8749 31.1213 31.6709C31.1834 32.0912 31.0758 32.5087 30.8181 32.8463C30.5609 33.1833 30.1877 33.3969 29.767 33.4478C29.2222 33.5137 28.5858 33.5665 27.9459 33.5665ZM25.7536 30.8058C25.6447 30.9424 25.4773 31.471 25.5479 32.0318C25.5673 32.1857 25.6369 32.5536 25.8635 32.6453H25.8635C26.6677 32.9708 28.0275 33.0392 29.6932 32.8378C29.9479 32.807 30.1739 32.6776 30.3296 32.4735C30.4858 32.2688 30.5511 32.0157 30.5135 31.7607C30.4423 31.2783 30.0248 30.9319 29.5358 30.9543C28.3853 31.0082 26.8059 31.0252 25.7536 30.8058Z" fill="#2E3349"/>
<path d="M26.1757 29.687V33.5934C26.1757 34.3183 25.5826 34.9113 24.8585 34.9113H17.6648C16.9399 34.9113 16.3477 34.3183 16.3477 33.5934V29.687C16.3477 28.9629 16.9399 28.3699 17.6648 28.3699H24.8585C25.437 28.3699 25.9322 28.7485 26.1077 29.2704C26.1514 29.4014 26.1757 29.5414 26.1757 29.687Z" fill="white"/>
<g opacity="0.35">
<g opacity="0.35">
<path opacity="0.35" d="M26.1757 29.6871V33.5934C26.1757 34.3183 25.5826 34.9113 24.8585 34.9113H17.6648C16.9399 34.9113 16.3477 34.3183 16.3477 33.5934V32.2786C17.5888 32.9655 20.4947 34.0969 21.8302 33.4241C22.6739 32.9991 22.6739 31.6404 22.6739 31.6404C22.6739 31.6404 24.4411 30.342 24.8813 31.4086C25.7487 33.5099 25.9915 29.6816 26.1077 29.2704C26.1514 29.4015 26.1757 29.5414 26.1757 29.6871Z" fill="#2E3349"/>
</g>
</g>
<path d="M24.8583 35.2181H17.6645C16.7687 35.2181 16.04 34.4894 16.04 33.5937V29.6871C16.04 28.7913 16.7687 28.0626 17.6645 28.0626H24.8583C25.754 28.0626 26.4827 28.7913 26.4827 29.6871V33.5937C26.4827 34.4894 25.754 35.2181 24.8583 35.2181ZM17.6645 28.677C17.1076 28.677 16.6545 29.1301 16.6545 29.6871V33.5937C16.6545 34.1506 17.1076 34.6037 17.6645 34.6037H24.8582C25.4152 34.6037 25.8682 34.1506 25.8682 33.5937V29.6871C25.8682 29.1301 25.4152 28.677 24.8582 28.677H17.6645Z" fill="#2E3349"/>
<path d="M23.8098 32.7764C24.4372 32.7764 24.9458 32.2678 24.9458 31.6404C24.9458 31.013 24.4372 30.5044 23.8098 30.5044C23.1824 30.5044 22.6738 31.013 22.6738 31.6404C22.6738 32.2678 23.1824 32.7764 23.8098 32.7764Z" fill="#22A7F0"/>
<g opacity="0.5">
<g opacity="0.5">
<path opacity="0.5" d="M24.9457 31.6402C24.9457 31.7361 24.9339 31.8292 24.9117 31.9181C24.7873 31.4256 24.3413 31.0601 23.8098 31.0601C23.2783 31.0601 22.8323 31.4256 22.7079 31.9181C22.6857 31.8292 22.6738 31.7361 22.6738 31.6402C22.6738 31.0129 23.1824 30.5043 23.8098 30.5043C24.4372 30.5043 24.9457 31.0129 24.9457 31.6402Z" fill="white"/>
</g>
</g>
<g opacity="0.35">
<g opacity="0.35">
<path opacity="0.35" d="M24.9458 31.6401C24.9458 32.268 24.4368 32.7761 23.8098 32.7761C23.1828 32.7761 22.6738 32.268 22.6738 31.6401C22.6738 31.535 22.6884 31.4322 22.7151 31.3359C22.8486 31.8149 23.2888 32.1669 23.8098 32.1669C24.3308 32.1669 24.771 31.8149 24.9045 31.3359C24.9312 31.4322 24.9458 31.535 24.9458 31.6401Z" fill="#2E3349"/>
</g>
</g>
<path d="M23.8097 33.0068C23.0562 33.0068 22.4434 32.3938 22.4434 31.6404C22.4434 30.8869 23.0562 30.2739 23.8097 30.2739C24.5631 30.2739 25.1761 30.8869 25.1761 31.6404C25.1761 32.3938 24.5631 33.0068 23.8097 33.0068ZM23.8097 30.7348C23.3104 30.7348 22.9041 31.141 22.9041 31.6404C22.9041 32.1397 23.3104 32.5459 23.8097 32.5459C24.309 32.5459 24.7154 32.1397 24.7154 31.6404C24.7154 31.1411 24.309 30.7348 23.8097 30.7348Z" fill="#2E3349"/>
<path d="M20.5907 35.2181C20.4211 35.2181 20.2835 35.0805 20.2835 34.9109V33.0259C20.2835 32.5581 20.0603 32.1108 19.6865 31.8294C19.1594 31.4325 18.8447 30.8018 18.8447 30.1421V28.3698C18.8447 28.2002 18.9823 28.0626 19.152 28.0626C19.3216 28.0626 19.4592 28.2002 19.4592 28.3698V30.1421C19.4592 30.6098 19.6824 31.0571 20.0561 31.3385C20.5832 31.7354 20.898 32.3661 20.898 33.0259V34.9109C20.8979 35.0805 20.7604 35.2181 20.5907 35.2181Z" fill="#2E3349"/>
<path d="M21.7561 38.9281C20.0788 38.9281 18.4014 38.2897 17.1246 37.0128C15.8874 35.7756 15.2061 34.1307 15.2061 32.3812C15.2061 30.6316 15.8874 28.9867 17.1246 27.7496C19.6783 25.1958 23.834 25.1958 26.3877 27.7496C27.6249 28.9867 28.3062 30.6316 28.3062 32.3812C28.3062 34.1307 27.6249 35.7756 26.3877 37.0128C25.1108 38.2897 23.4335 38.9281 21.7561 38.9281ZM21.7561 27.0625C20.3933 27.0625 19.031 27.581 17.9934 28.6185C16.9885 29.6236 16.4349 30.9598 16.4349 32.3812C16.4349 33.8025 16.9884 35.1388 17.9934 36.1438C20.0683 38.2185 23.444 38.2185 25.5189 36.1438C26.5239 35.1388 27.0774 33.8025 27.0774 32.3812C27.0774 30.9598 26.5238 29.6236 25.5189 28.6185C24.4816 27.5813 23.1186 27.0625 21.7561 27.0625Z" fill="#2E3349"/>
<path d="M17.5588 36.9623C17.4606 36.9623 17.3623 36.9248 17.2873 36.8498C17.1373 36.6999 17.1373 36.4567 17.2873 36.3067L25.6816 27.9125C25.8316 27.7626 26.0747 27.7625 26.2247 27.9125C26.3747 28.0625 26.3747 28.3056 26.2247 28.4556L17.8304 36.8498C17.7554 36.9248 17.6571 36.9623 17.5588 36.9623Z" fill="#2E3349"/>
<path d="M25.9531 36.9623C25.8548 36.9623 25.7566 36.9249 25.6816 36.8499L17.2873 28.4556C17.1373 28.3057 17.1373 28.0625 17.2873 27.9125C17.4373 27.7625 17.6804 27.7625 17.8304 27.9125L26.2247 36.3068C26.3747 36.4567 26.3747 36.6999 26.2247 36.8499C26.1497 36.9248 26.0514 36.9623 25.9531 36.9623Z" fill="#2E3349"/>
<path d="M15.3461 21.074C8.05186 27.9652 8.38022 34.3805 10.7058 35.8692C13.216 37.476 15.6567 35.8299 16.8165 34.7555C17.4749 34.1456 19.0851 34.1526 19.3318 31.9181C19.744 28.1841 16.8959 28.5564 15.7684 28.8381C14.9068 29.0534 13.5456 29.9711 13.5456 29.9711C13.5456 29.9711 14.2062 26.018 14.9332 24.6762C14.9332 24.6762 16.8322 25.169 17.1534 23.0522C17.4746 20.9354 15.3461 21.074 15.3461 21.074Z" fill="white"/>
<path d="M15.4166 21.1484C15.1983 21.4659 14.9528 21.752 14.716 22.045C14.4772 22.336 14.2323 22.6192 13.9915 22.9054C13.5046 23.4731 13.0345 24.0524 12.581 24.6438C11.6718 25.8246 10.908 27.1181 10.351 28.4902C10.0766 29.1772 9.85232 29.884 9.7115 30.605C9.57113 31.325 9.50594 32.0589 9.55394 32.7805C9.58125 33.1408 9.6384 33.4961 9.72744 33.8404C9.82061 34.1831 9.95333 34.5115 10.1289 34.8075C10.3046 35.1028 10.5278 35.3638 10.7941 35.5536C10.8561 35.603 10.9338 35.6481 11.0102 35.6935C11.085 35.7412 11.164 35.78 11.2419 35.8212C11.3982 35.9026 11.5604 35.9695 11.7245 36.0296C12.0542 36.1461 12.3991 36.2106 12.747 36.2282C13.0952 36.2463 13.4464 36.2065 13.791 36.1309C14.4803 35.9707 15.1369 35.6459 15.7336 35.233C16.0317 35.0256 16.3175 34.7975 16.5855 34.5505L16.6118 34.5269L16.6456 34.4992L16.7136 34.4441C16.7364 34.4265 16.7593 34.4065 16.7822 34.3911L16.8509 34.3469C16.9435 34.2845 17.0329 34.2393 17.1232 34.19C17.2993 34.1 17.4733 34.0202 17.6324 33.938C17.9568 33.7763 18.2359 33.5876 18.4523 33.3415C18.6696 33.0975 18.8184 32.7962 18.9121 32.4671C18.9322 32.3833 18.9589 32.3021 18.9744 32.2164L19.0151 31.9565C19.0318 31.8717 19.034 31.7784 19.0434 31.6893L19.0548 31.5542L19.0594 31.4199C19.0727 31.0621 19.0516 30.7067 18.9727 30.3762C18.8963 30.0452 18.7515 29.745 18.536 29.5179C18.324 29.2863 18.031 29.1392 17.7091 29.0576C17.3859 28.9759 17.0328 28.9666 16.6811 28.9946C16.5048 29.0092 16.3278 29.0344 16.1518 29.0682C16.0638 29.0853 15.9759 29.1038 15.8886 29.1252C15.8433 29.1352 15.8052 29.1475 15.7649 29.1589C15.7251 29.17 15.685 29.1814 15.644 29.1972C15.3171 29.3101 14.9866 29.477 14.6642 29.6524C14.3429 29.8302 14.0208 30.0247 13.7175 30.2258L13.123 30.6201L13.2427 29.9205C13.3209 29.4633 13.4065 29.0134 13.4975 28.5616C13.5897 28.1106 13.6786 27.6585 13.7752 27.2068C13.8711 26.7551 13.9975 26.308 14.1553 25.8688C14.1965 25.7591 14.2375 25.6501 14.285 25.5424C14.3333 25.4346 14.3849 25.3283 14.4384 25.2232C14.494 25.1178 14.558 25.0157 14.6202 24.9146C14.6883 24.8148 14.7642 24.7177 14.8433 24.6274C14.8814 24.5839 14.9475 24.5796 14.9909 24.6176C15.0188 24.642 15.0306 24.678 15.0255 24.7121L15.0234 24.725C15.0049 24.8414 14.9757 24.9478 14.9523 25.0575C14.9302 25.169 14.9071 25.2783 14.8807 25.3863C14.8593 25.4974 14.836 25.6072 14.8093 25.7154C14.7847 25.8247 14.7616 25.9353 14.7343 26.0439C14.6307 26.4812 14.5223 26.9187 14.4096 27.3576C14.2958 27.7961 14.1886 28.2377 14.0997 28.6834C14.0101 29.1283 13.9248 29.5772 13.8487 30.0217L13.3739 29.7164C13.7012 29.4994 14.0274 29.3028 14.368 29.114C14.7099 28.9288 15.0564 28.751 15.445 28.6158C15.5391 28.5818 15.6495 28.552 15.7445 28.5279C15.8409 28.5043 15.9381 28.4837 16.0359 28.4648C16.2313 28.4272 16.4293 28.3989 16.63 28.3823C17.0307 28.3509 17.4448 28.3583 17.8571 28.4613C18.2654 28.5627 18.6794 28.7663 18.9819 29.0953C19.2886 29.4179 19.4764 29.828 19.5698 30.2315C19.6666 30.6376 19.6877 31.0447 19.6734 31.4418L19.6681 31.5911L19.6558 31.7387C19.6456 31.8376 19.6432 31.9342 19.6244 32.0354L19.5771 32.3362C19.5587 32.4363 19.5276 32.5361 19.5029 32.6359C19.3907 33.0325 19.1993 33.4272 18.9121 33.7489C18.6282 34.073 18.264 34.3099 17.9129 34.4846C17.7358 34.5759 17.5658 34.6537 17.405 34.736C17.3294 34.7775 17.2498 34.8178 17.1858 34.8621L17.1349 34.8942C17.1186 34.9051 17.1064 34.9172 17.0918 34.9284L17.0493 34.9623L17.0279 34.979L17.0014 35.0028C16.7129 35.2685 16.4062 35.5136 16.0832 35.7382C15.4375 36.1845 14.7154 36.5465 13.928 36.7299C13.5344 36.8167 13.1269 36.8628 12.7189 36.842C12.3116 36.8218 11.9053 36.7451 11.5213 36.6095C11.3302 36.5399 11.1423 36.4618 10.9629 36.3686C10.8735 36.3216 10.7829 36.2764 10.6978 36.2226C10.6116 36.1712 10.5254 36.1215 10.438 36.0543C10.0876 35.8043 9.81186 35.4758 9.60141 35.1227C9.39113 34.7682 9.23971 34.3881 9.13433 34.0009C9.03345 33.6128 8.9708 33.2187 8.94099 32.8243C8.88847 32.0352 8.9599 31.2494 9.10879 30.4855C9.25833 29.7207 9.49423 28.9787 9.78089 28.261C10.069 27.5433 10.4167 26.8531 10.8025 26.1875C11.1879 25.5219 11.6036 24.8739 12.0577 24.2548C12.167 24.0967 12.2852 23.9456 12.4036 23.7946C12.5224 23.644 12.639 23.4914 12.7627 23.345L13.1392 22.9103C13.2632 22.7641 13.3998 22.6295 13.5303 22.4895C13.663 22.3515 13.7934 22.2113 13.9339 22.0811C14.075 21.9516 14.2157 21.8218 14.3599 21.6959C14.433 21.634 14.5031 21.5692 14.5785 21.5099L14.8061 21.3337C14.9601 21.2189 15.1135 21.104 15.2759 20.9995C15.3243 20.9684 15.3887 20.9823 15.4199 21.0307C15.4433 21.0671 15.4412 21.1125 15.4182 21.1461L15.4166 21.1484Z" fill="#2E3349"/>
<path d="M27.6854 21.074C34.9796 27.9652 34.6512 34.3805 32.3256 35.8692C29.8154 37.476 27.3748 35.8299 26.215 34.7555C25.5565 34.1456 23.9464 34.1526 23.6996 31.9181C23.2874 28.1841 26.1355 28.5564 27.2631 28.8381C28.1247 29.0534 29.4859 29.9711 29.4859 29.9711C29.4859 29.9711 28.8253 26.018 28.0982 24.6762C28.0982 24.6762 26.1993 25.169 25.8781 23.0522C25.5569 20.9354 27.6854 21.074 27.6854 21.074Z" fill="white"/>
<g opacity="0.35">
<g opacity="0.35">
<path opacity="0.35" d="M29.4859 29.9707C29.4859 29.9707 29.0381 27.2903 28.4736 25.5952C30.1188 27.374 31.0788 30.771 31.0788 30.771C31.0788 30.771 30.1418 30.7203 29.4859 29.9707Z" fill="#2E3349"/>
</g>
</g>
<g opacity="0.35">
<g opacity="0.35">
<path opacity="0.35" d="M32.3253 35.8693C29.8154 37.4761 27.3746 35.8302 26.2148 34.7557C25.5566 34.1459 23.9461 34.1528 23.6995 31.9178C23.6288 31.2757 23.6542 30.7542 23.751 30.3341C24.1185 33.396 25.314 33.2055 26.1759 33.5933C28.0286 34.4267 30.0118 35.8608 32.5217 34.2541C33.2383 33.7956 33.5687 32.5599 33.7416 31.2965C34.0096 33.5437 33.3683 35.2019 32.3253 35.8693Z" fill="#2E3349"/>
</g>
</g>
<g opacity="0.35">
<g opacity="0.35">
<path opacity="0.35" d="M13.545 29.9707C13.545 29.9707 13.9928 27.2903 14.5573 25.5952C12.9122 27.374 11.9521 30.771 11.9521 30.771C11.9521 30.771 12.8891 30.7203 13.545 29.9707Z" fill="#2E3349"/>
</g>
</g>
<g opacity="0.35">
<g opacity="0.35">
<path opacity="0.35" d="M10.7058 35.8693C13.2157 37.4761 15.6565 35.8302 16.8162 34.7557C17.4745 34.1459 19.085 34.1528 19.3316 31.9178C19.4022 31.2757 19.3769 30.7542 19.2801 30.3341C18.9126 33.396 17.7171 33.2055 16.8552 33.5933C15.0025 34.4267 13.0193 35.8608 10.5094 34.2541C9.79281 33.7956 9.46231 32.5599 9.28951 31.2965C9.02146 33.5437 9.66277 35.2019 10.7058 35.8693Z" fill="#2E3349"/>
</g>
</g>
<path d="M27.7551 20.9996C27.9175 21.1041 28.0709 21.219 28.2249 21.3338L28.4525 21.51C28.5279 21.5693 28.598 21.6341 28.6711 21.696C28.8153 21.8219 28.9559 21.9517 29.0971 22.0812C29.2376 22.2114 29.368 22.3516 29.5007 22.4896C29.6312 22.6296 29.7678 22.7642 29.8918 22.9104L30.2683 23.3451C30.392 23.4915 30.5085 23.6441 30.6274 23.7947C30.7457 23.9457 30.8639 24.0968 30.9733 24.2549C31.4273 24.874 31.8431 25.522 32.2285 26.1876C32.6142 26.8532 32.962 27.5434 33.2501 28.2611C33.5368 28.9788 33.7726 29.7208 33.9222 30.4856C34.0711 31.2495 34.1425 32.0353 34.09 32.8244C34.0602 33.2188 33.9975 33.6128 33.8966 34.001C33.7913 34.3882 33.6398 34.7683 33.4295 35.1228C33.2191 35.4759 32.9434 35.8045 32.5929 36.0544C32.5055 36.1216 32.4193 36.1713 32.3331 36.2227C32.2481 36.2765 32.1575 36.3217 32.0681 36.3687C31.8887 36.4619 31.7008 36.54 31.5096 36.6096C31.1257 36.7452 30.7194 36.8219 30.312 36.8421C29.9041 36.8629 29.4966 36.8168 29.1029 36.73C28.3155 36.5466 27.5935 36.1846 26.9477 35.7383C26.6248 35.5137 26.3181 35.2686 26.0296 35.0029L26.0031 34.9791L25.9816 34.9624L25.9392 34.9285C25.9246 34.9173 25.9124 34.9052 25.8961 34.8943L25.8451 34.8622C25.7812 34.8179 25.7016 34.7776 25.626 34.7361C25.4652 34.6538 25.2952 34.5759 25.1181 34.4847C24.7669 34.31 24.4028 34.0731 24.1189 33.749C23.8317 33.4273 23.6403 33.0327 23.5281 32.636C23.5034 32.5362 23.4722 32.4364 23.4539 32.3363L23.4066 32.0355C23.3878 31.9343 23.3854 31.8377 23.3752 31.7388L23.3629 31.5912L23.3575 31.442C23.3433 31.0448 23.3644 30.6377 23.4612 30.2316C23.5545 29.8281 23.7424 29.418 24.049 29.0954C24.3516 28.7665 24.7656 28.5628 25.1739 28.4614C25.5861 28.3584 26.0003 28.351 26.401 28.3824C26.6016 28.399 26.7997 28.4273 26.9951 28.4649C27.0928 28.4838 27.1901 28.5044 27.2865 28.528C27.3815 28.5521 27.4919 28.5819 27.586 28.6159C27.9746 28.7511 28.3211 28.9289 28.663 29.1141C29.0036 29.3028 29.3298 29.4995 29.6571 29.7165L29.1823 30.0218C29.1062 29.5773 29.0209 29.1284 28.9312 28.6835C28.8424 28.2378 28.7353 27.7962 28.6214 27.3577C28.5087 26.9188 28.4003 26.4813 28.2967 26.044C28.2694 25.9354 28.2463 25.8248 28.2216 25.7155C28.1951 25.6073 28.1718 25.4975 28.1503 25.3864C28.1239 25.2784 28.1009 25.1691 28.0787 25.0576C28.0553 24.948 28.0261 24.8415 28.0076 24.7251L28.0057 24.7129C27.9966 24.6558 28.0355 24.6022 28.0926 24.5931C28.1292 24.5873 28.1648 24.6018 28.1877 24.6275C28.2668 24.7178 28.3427 24.8149 28.4108 24.9147C28.473 25.0158 28.537 25.1179 28.5926 25.2233C28.6461 25.3284 28.6978 25.4347 28.746 25.5425C28.7936 25.6502 28.8345 25.7592 28.8757 25.8689C29.0335 26.3081 29.16 26.7552 29.2559 27.2069C29.3524 27.6586 29.4413 28.1107 29.5335 28.5617C29.6245 29.0136 29.7101 29.4634 29.7883 29.9206L29.9081 30.6202L29.3136 30.2259C29.0102 30.0248 28.6881 29.8303 28.3668 29.6525C28.0445 29.4772 27.7139 29.3103 27.387 29.1973C27.3459 29.1816 27.3059 29.1701 27.2661 29.159C27.2259 29.1476 27.1877 29.1353 27.1424 29.1253C27.0551 29.1039 26.9672 29.0854 26.8792 29.0683C26.7032 29.0345 26.5262 29.0093 26.3499 28.9947C25.9981 28.9667 25.6451 28.9761 25.3219 29.0578C25 29.1393 24.7071 29.2864 24.495 29.518C24.2795 29.7451 24.1347 30.0453 24.0583 30.3763C23.9793 30.7068 23.9583 31.0622 23.9716 31.42L23.9763 31.5543L23.9876 31.6894C23.9971 31.7785 23.9992 31.8718 24.016 31.9567L24.0565 32.2165C24.0721 32.3022 24.0989 32.3834 24.1189 32.4672C24.2126 32.7963 24.3614 33.0976 24.5788 33.3416C24.7952 33.5877 25.0742 33.7764 25.3987 33.9381C25.5577 34.0203 25.7318 34.1002 25.9078 34.1901C25.9981 34.2394 26.0875 34.2846 26.1801 34.347L26.2488 34.3912C26.2717 34.4066 26.2946 34.4266 26.3174 34.4443L26.3854 34.4993L26.4193 34.527L26.4455 34.5506C26.7135 34.7976 26.9993 35.0257 27.2975 35.2331C27.894 35.646 28.5507 35.9708 29.2401 36.131C29.5846 36.2066 29.9358 36.2464 30.284 36.2283C30.6319 36.2107 30.9768 36.1462 31.3065 36.0297C31.4707 35.9696 31.6328 35.9027 31.7891 35.8213C31.867 35.7801 31.9461 35.7413 32.0209 35.6936C32.0972 35.6482 32.1748 35.6031 32.2369 35.5537C32.5031 35.3639 32.7264 35.1029 32.9021 34.8076C33.0776 34.5116 33.2104 34.1832 33.3036 33.8405C33.3926 33.4961 33.4498 33.1408 33.4771 32.7806C33.5251 32.059 33.4599 31.3251 33.3195 30.6051C33.1787 29.8841 32.9544 29.1773 32.68 28.4903C32.123 27.1182 31.3592 25.8247 30.45 24.6439C29.9965 24.0525 29.5264 23.4732 29.0396 22.9055C28.7987 22.6193 28.5538 22.3361 28.3149 22.0451C28.0782 21.7521 27.8328 21.466 27.6144 21.1485L27.6129 21.1462C27.5803 21.0988 27.5923 21.0339 27.6397 21.0013C27.6754 20.9769 27.7209 20.9776 27.7551 20.9996Z" fill="#2E3349"/>
<path d="M33.363 16.3995C33.2253 16.3996 33.1136 16.2881 33.1136 16.1504L33.1104 8.97069C33.1103 8.83301 33.2218 8.72137 33.3595 8.72131C34.8037 8.72067 35.975 9.8909 35.9756 11.3351L35.9767 13.7834C35.9774 15.2276 34.8071 16.3989 33.363 16.3995Z" fill="white"/>
<path d="M33.3626 16.459C33.1925 16.459 33.0541 16.3206 33.0539 16.1505L33.0508 8.9708C33.0508 8.88834 33.0828 8.81084 33.1411 8.75247C33.1997 8.69388 33.2787 8.65962 33.3605 8.66198C34.0745 8.66198 34.7456 8.93983 35.2507 9.44441C35.756 9.94931 36.0345 10.6208 36.0349 11.3351L36.036 13.7834C36.0363 14.4978 35.7585 15.1695 35.2536 15.6748C34.7486 16.1802 34.0772 16.4586 33.3628 16.459H33.3626V16.459ZM33.3605 8.78078C33.3129 8.77831 33.2613 8.80022 33.2251 8.83645C33.1893 8.87234 33.1695 8.92003 33.1696 8.97072L33.1728 16.1504C33.1728 16.2551 33.2579 16.3402 33.3626 16.3402H33.3627C34.0454 16.3399 34.687 16.0738 35.1694 15.5909C35.6519 15.108 35.9175 14.4661 35.9171 13.7836L35.916 11.3353C35.9157 10.6526 35.6497 10.0109 35.1668 9.52848C34.6841 9.04627 34.0427 8.78078 33.3605 8.78078Z" fill="#2E3349"/>
<g opacity="0.35">
<g opacity="0.35">
<path opacity="0.35" d="M35.9756 12.6354L35.9764 13.7837C35.9769 15.2274 34.8067 16.3989 33.3622 16.4001C33.2246 16.4003 33.113 16.288 33.1128 16.1504L33.1113 14.2418C33.15 14.3288 33.2372 14.3888 33.3382 14.3896L33.5085 14.389C34.6497 14.3887 35.6205 13.6567 35.9756 12.6354Z" fill="#2E3349"/>
</g>
</g>
<path d="M33.3623 16.7301C33.0428 16.7302 32.7828 16.4702 32.7824 16.1506L32.7793 8.97083C32.7792 8.81601 32.8395 8.67037 32.949 8.56079C33.0584 8.4512 33.204 8.3908 33.3589 8.39075C33.3593 8.39075 33.3599 8.39075 33.3602 8.39075C34.9839 8.39075 36.305 9.71117 36.3058 11.335L36.3069 13.7833C36.3072 14.57 36.0011 15.3099 35.4451 15.8664C34.8889 16.423 34.1494 16.7298 33.3626 16.7301H33.3626C33.3626 16.7301 33.3624 16.7301 33.3623 16.7301ZM33.4405 9.05327L33.4436 16.0676C34.0233 16.0471 34.5652 15.8116 34.9773 15.3992C35.4086 14.9675 35.646 14.3938 35.6457 13.7836L35.6445 11.3353C35.6443 10.7251 35.4065 10.1515 34.9747 9.72028C34.5624 9.30823 34.0202 9.07321 33.4405 9.05327Z" fill="#2E3349"/>
<path d="M9.66068 8.73193C9.79836 8.73186 9.91 8.84341 9.91006 8.98108L9.91327 16.1608C9.91332 16.2985 9.80178 16.4101 9.66412 16.4102C8.21992 16.4108 7.04864 15.2406 7.04798 13.7964L7.04688 11.3481C7.04625 9.90386 8.21649 8.73258 9.66068 8.73193Z" fill="white"/>
<path d="M9.6628 16.4696C8.18862 16.4697 6.98915 15.2707 6.98842 13.7965L6.9873 11.3482C6.98666 9.87353 8.18585 8.67325 9.66058 8.67261C9.66058 8.67261 9.66067 8.67261 9.66075 8.67261C9.74308 8.67261 9.82058 8.70466 9.87879 8.76291C9.9371 8.82118 9.96929 8.89868 9.96929 8.98111L9.97253 16.1608C9.97263 16.331 9.83421 16.4695 9.664 16.4696C9.66373 16.4696 9.66318 16.4696 9.6628 16.4696ZM9.66058 8.79135C8.97796 8.79169 8.33632 9.05776 7.85385 9.54069C7.37139 10.0236 7.10578 10.6654 7.10616 11.348L7.10728 13.7963C7.10783 15.2051 8.25428 16.3508 9.66282 16.3508C9.66328 16.3508 9.66356 16.3508 9.66402 16.3508C9.76869 16.3507 9.85379 16.2655 9.85371 16.1609L9.85047 8.98111C9.85047 8.93036 9.83072 8.8827 9.79493 8.84687C9.75904 8.81108 9.71139 8.79133 9.66077 8.79133C9.66067 8.79135 9.66067 8.79135 9.66058 8.79135Z" fill="#2E3349"/>
<g opacity="0.35">
<g opacity="0.35">
<path opacity="0.35" d="M9.91209 14.1691L9.91275 16.1609C9.91296 16.2985 9.80067 16.4101 9.66308 16.4103C8.90508 16.4103 8.2215 16.0882 7.74349 15.5725C7.31182 15.1068 7.04783 14.4826 7.04739 13.7969L7.04688 12.7653C7.45724 13.6702 8.37091 14.3003 9.42977 14.3L9.69178 14.2999C9.78742 14.2996 9.86872 14.2467 9.91209 14.1691Z" fill="#2E3349"/>
</g>
</g>
<path d="M9.6626 16.7408C8.03888 16.7409 6.71768 15.4204 6.71694 13.7966L6.71582 11.3483C6.71554 10.5615 7.02157 9.82171 7.57765 9.26513C8.13372 8.70858 8.87336 8.40187 9.66008 8.40149C9.66017 8.40149 9.66027 8.40149 9.66046 8.40149C9.8152 8.40149 9.96075 8.46172 10.0702 8.57118C10.1798 8.68065 10.2402 8.82626 10.2402 8.98118L10.2434 16.1608C10.2435 16.3156 10.1833 16.4612 10.0738 16.5708C9.96438 16.6804 9.81883 16.7408 9.66391 16.7409C9.66353 16.7408 9.66298 16.7408 9.6626 16.7408ZM9.57908 9.06407C8.99937 9.08447 8.45749 9.32 8.04539 9.73241C7.61411 10.1641 7.37677 10.7378 7.37706 11.348L7.37818 13.7963C7.37873 15.0287 8.36025 16.0358 9.58223 16.0783L9.57908 9.06407Z" fill="#2E3349"/>
<g opacity="0.35">
<g opacity="0.35">
<path opacity="0.35" d="M30.5441 21.8048C28.1094 24.9122 24.5269 26.7377 20.6502 26.4179C17.3933 26.1493 14.5248 24.4155 12.4844 21.8081C13.1199 21.2586 13.9463 20.9255 14.8471 20.9255H28.1846C29.0838 20.9255 29.9085 21.2577 30.5441 21.8048Z" fill="#2E3349"/>
</g>
</g>
<path d="M21.5122 24.8006C28.2693 24.8006 33.747 19.3229 33.747 12.5658C33.747 5.80865 28.2693 0.330933 21.5122 0.330933C14.7551 0.330933 9.27734 5.80865 9.27734 12.5658C9.27734 19.3229 14.7551 24.8006 21.5122 24.8006Z" fill="white"/>
<path d="M21.5209 24.8603C21.2307 24.8603 20.9397 24.8501 20.6459 24.8294C13.8836 24.3516 8.77089 18.4614 9.24872 11.6992C9.72654 4.93692 15.6168 -0.175961 22.3789 0.30209C25.6546 0.533521 28.6442 2.0268 30.7968 4.50673C32.9494 6.9867 34.0075 10.1565 33.776 13.4322C33.3189 19.9006 27.9085 24.8603 21.5209 24.8603ZM21.5039 0.389924C15.1775 0.389924 9.81984 5.30135 9.36722 11.7076C8.89403 18.4045 13.9573 24.2377 20.6542 24.7109C27.3505 25.1846 33.1843 20.1207 33.6575 13.4239C33.8867 10.1798 32.8389 7.04061 30.7071 4.5846C28.5753 2.12857 25.6146 0.649778 22.3705 0.420549C22.0799 0.400025 21.7909 0.389924 21.5039 0.389924Z" fill="#2E3349"/>
<g opacity="0.35">
<g opacity="0.35">
<path opacity="0.35" d="M33.7198 11.7304C33.7586 12.2877 33.7581 12.8544 33.7177 13.4282C33.2405 20.1682 27.3907 25.2461 20.6505 24.7705C13.9105 24.2934 8.83262 18.4435 9.3082 11.7034C9.32176 11.5095 9.33999 11.3159 9.36277 11.1255C9.76579 17.1246 14.5402 22.0588 20.7073 22.4948C27.2536 22.9569 32.9591 18.1806 33.7198 11.7304Z" fill="#2E3349"/>
</g>
</g>
<path d="M21.5212 25.1315C21.2245 25.1315 20.9271 25.1211 20.6268 25.0999C17.2788 24.8633 14.2233 23.3371 12.0232 20.8025C9.82312 18.2679 8.74177 15.0281 8.97827 11.6801C9.46667 4.7687 15.4895 -0.456483 22.398 0.0315929C25.746 0.268188 28.8016 1.79437 31.0017 4.32899C33.2017 6.86366 34.2831 10.1034 34.0466 13.4514C33.5794 20.0624 28.0497 25.1315 21.5212 25.1315ZM21.5041 0.661122C15.3186 0.661122 10.0803 5.46315 9.63779 11.7267C9.41361 14.8986 10.4381 17.9678 12.5224 20.3691C14.6068 22.7704 17.5015 24.2163 20.6733 24.4404C27.2201 24.9038 32.9244 19.9525 33.387 13.4048C33.6112 10.233 32.5867 7.16369 30.5024 4.7624C28.418 2.36109 25.5233 0.915204 22.3515 0.691121C22.0673 0.671014 21.7848 0.661122 21.5041 0.661122Z" fill="#2E3349"/>
<path d="M33.6555 13.7388C33.5229 16.1293 32.6237 18.3056 31.1947 20.0682C30.1234 21.3896 25.8997 23.572 20.8467 23.3371C16.1615 23.1193 12.0393 20.3861 11.1207 18.9543C9.89552 17.0444 9.24267 14.782 9.37533 12.3915C9.72636 6.06554 15.3069 3.74466 22.012 4.11675C28.7171 4.48882 34.0066 7.41289 33.6555 13.7388Z" fill="#371A45"/>
<path d="M21.6263 23.6858C21.3644 23.6858 21.0998 23.6797 20.8318 23.6673C15.973 23.4414 11.809 20.6385 10.843 19.1328C9.53507 17.0939 8.91354 14.7565 9.04576 12.3731C9.2182 9.26547 10.5974 6.93844 13.1452 5.45661C15.3663 4.1648 18.4382 3.58727 22.0308 3.78669C25.6228 3.98596 28.6126 4.89985 30.6771 6.42942C33.0452 8.18403 34.1586 10.6495 33.986 13.7571L33.656 13.7388L33.986 13.7571C33.8538 16.1404 32.9776 18.3947 31.452 20.2764C30.4466 21.5165 26.6038 23.6858 21.6263 23.6858ZM20.7309 4.41174C16.7837 4.41174 10.0922 5.44873 9.70586 12.4098C9.58146 14.6534 10.1671 16.8547 11.3995 18.7757C12.2744 20.1395 16.2955 22.7946 20.8626 23.0068C21.1152 23.0186 21.3663 23.0243 21.6137 23.0243C26.3226 23.0245 30.0319 20.9781 30.9384 19.86C32.3759 18.087 33.2014 15.9641 33.326 13.7205C33.4854 10.8489 32.4617 8.57453 30.2835 6.96065C28.3232 5.50823 25.4568 4.63894 21.9941 4.44681C21.6209 4.42605 21.1946 4.41174 20.7309 4.41174Z" fill="#2E3349"/>
<g opacity="0.5">
<g opacity="0.5">
<path opacity="0.5" d="M30.2592 10.5565C29.4164 10.355 28.5078 11.1345 28.2298 12.2975C27.9518 13.4606 28.4096 14.5667 29.2524 14.7682C30.0951 14.9696 31.0037 14.1901 31.2817 13.0271C31.5597 11.8641 31.1019 10.7579 30.2592 10.5565Z" fill="white"/>
</g>
</g>
<g opacity="0.5">
<g opacity="0.5">
<path opacity="0.5" d="M27.965 15.9115C27.5264 15.7398 27.0086 16.0148 26.8085 16.5258C26.6083 17.0369 26.8016 17.5904 27.2401 17.7622C27.6787 17.934 28.1965 17.659 28.3966 17.1479C28.5968 16.6369 28.4035 16.0833 27.965 15.9115Z" fill="white"/>
</g>
</g>
<g opacity="0.35">
<g opacity="0.35">
<path opacity="0.35" d="M31.6225 7.70618C33.028 9.20472 33.7967 11.1977 33.6561 13.7384C33.5234 16.1294 32.6238 18.3055 31.1957 20.0682C30.1241 21.3896 25.9 23.5718 20.8471 23.3374C19.0629 23.255 17.361 22.8072 15.8857 22.2047C22.1031 22.3604 27.2495 19.6799 28.578 18.0409C30.3919 15.8038 31.5329 13.0414 31.7008 10.008C31.7463 9.19731 31.7171 8.43045 31.6225 7.70618Z" fill="#111A28"/>
</g>
</g>
<path d="M32.9192 8.46403C32.8412 8.46403 32.7627 8.4365 32.6997 8.38057C32.6924 8.37402 32.6838 8.36568 32.6771 8.35851L32.6554 8.33546L32.6385 8.30872C30.744 5.31434 26.865 3.44205 21.9961 3.17175C17.1007 2.90047 13.0391 4.38554 10.8535 7.24705L10.83 7.27458C10.705 7.40743 10.4959 7.41389 10.3627 7.28873C10.2353 7.16871 10.2242 6.97129 10.334 6.83808C12.6558 3.80483 16.919 2.22791 22.0327 2.51163C27.1099 2.79347 31.1745 4.77185 33.1879 7.94062C33.2762 8.06345 33.2712 8.2353 33.1664 8.35308C33.1011 8.42654 33.0103 8.46403 32.9192 8.46403ZM32.9179 8.13207H32.9188H32.9179ZM10.5738 7.03339L10.5893 7.04799L10.5738 7.03339Z" fill="#2E3349"/>
<g opacity="0.5">
<g opacity="0.5">
<path opacity="0.5" d="M11.8934 16.3061C11.8934 16.3061 10.2804 9.95678 13.7817 7.65656C17.2829 5.35632 22.1211 5.63486 21.9907 5.9389C21.9907 5.9389 16.5619 6.93848 14.2309 11.0571C12.4335 14.2331 11.8934 16.3061 11.8934 16.3061Z" fill="white"/>
</g>
</g>
<path d="M31.116 31.0778C30.2945 31.0778 29.3889 30.2958 29.2819 30.2008C29.155 30.0881 29.1436 29.894 29.2563 29.7671C29.3689 29.6403 29.5629 29.6289 29.6898 29.7413C29.9254 29.9499 30.7089 30.5285 31.1992 30.4578C31.3686 30.4334 31.5229 30.5497 31.5474 30.7176C31.5719 30.8855 31.4556 31.0414 31.2877 31.0658C31.2311 31.074 31.1737 31.0778 31.116 31.0778Z" fill="#2E3349"/>
<path d="M11.9161 31.0779C11.8583 31.0779 11.8011 31.074 11.7445 31.0658C11.5766 31.0414 11.4602 30.8855 11.4847 30.7176C11.5092 30.5497 11.6653 30.433 11.8329 30.4578C12.3262 30.529 13.1072 29.9501 13.3421 29.7415C13.469 29.6288 13.6633 29.6403 13.7758 29.7671C13.8885 29.894 13.877 30.0882 13.7502 30.2008C13.6432 30.2959 12.7376 31.0779 11.9161 31.0779Z" fill="#2E3349"/>
<path d="M31.8966 36.4198C31.8419 36.4198 31.7866 36.4053 31.7365 36.3747C31.5918 36.2861 31.5462 36.0969 31.6349 35.9522C33.0413 33.6542 30.4464 30.9198 30.4201 30.8924C30.3023 30.7703 30.3058 30.5758 30.428 30.4581C30.55 30.3403 30.7445 30.3437 30.8624 30.466C30.9835 30.5916 33.8106 33.5742 32.1589 36.273C32.1009 36.3677 32 36.4198 31.8966 36.4198Z" fill="#2E3349"/>
<path d="M11.1343 36.4199C11.0309 36.42 10.9299 36.3677 10.872 36.2731C9.22028 33.5742 12.0474 30.5916 12.1685 30.466C12.2864 30.3439 12.4808 30.3404 12.6029 30.4581C12.725 30.5759 12.7286 30.7703 12.6109 30.8925C12.5761 30.9287 9.99524 33.6635 11.396 35.9523C11.4846 36.097 11.4391 36.2861 11.2944 36.3747C11.2443 36.4053 11.189 36.4199 11.1343 36.4199Z" fill="#2E3349"/>
<path d="M38.8311 33.2004V36.6238C38.8311 37.345 39.4213 37.9352 40.1425 37.9352H41.8963C41.9389 37.9352 41.9816 37.9332 42.0243 37.9282C42.6859 37.8638 43.2067 37.3023 43.2067 36.6238V33.2004C43.2067 32.4793 42.6175 31.889 41.8963 31.889H40.1424C39.4213 31.889 38.8311 32.4793 38.8311 33.2004Z" fill="#008CFF"/>
<g opacity="0.35">
<g opacity="0.35">
<path opacity="0.35" d="M38.9912 32.7937C39.1837 32.6816 39.4078 32.6171 39.6459 32.6171H41.3998C42.1209 32.6171 42.7102 33.2074 42.7102 33.9286V37.3519C42.7102 37.4938 42.6873 37.6307 42.6457 37.7586C43.0375 37.5305 43.3014 37.1069 43.3014 36.6238V33.2004C43.3014 32.4793 42.7121 31.889 41.991 31.889H40.2371C39.6579 31.889 39.1628 32.27 38.9912 32.7937Z" fill="white"/>
</g>
</g>
<g opacity="0.35">
<g opacity="0.35">
<path opacity="0.35" d="M38.8311 33.8062V36.7187C38.8311 37.4399 39.4213 38.0301 40.1425 38.0301H41.8963C41.9389 38.0301 41.9816 38.0282 42.0243 38.0232V35.1107C42.0243 34.3895 41.434 33.7993 40.7128 33.7993H38.959C38.9164 33.7993 38.8737 33.8013 38.8311 33.8062Z" fill="#2E3349"/>
</g>
</g>
<path d="M41.8956 38.3374H40.1418C39.2494 38.3374 38.5234 37.6114 38.5234 36.7191V33.2951C38.5234 32.4027 39.2494 31.6768 40.1418 31.6768H41.8956C42.7879 31.6768 43.5139 32.4027 43.5139 33.2951V36.7191C43.5139 37.6114 42.7879 38.3374 41.8956 38.3374ZM40.1418 32.2911C39.5882 32.2911 39.1379 32.7415 39.1379 33.2951V36.7191C39.1379 37.2726 39.5882 37.723 40.1418 37.723H41.8956C42.4491 37.723 42.8994 37.2726 42.8994 36.7191V33.2951C42.8994 32.7415 42.4491 32.2911 41.8956 32.2911H40.1418Z" fill="#2E3349"/>
<path d="M40.841 36.5219L38.2681 39.4751L36.5645 37.0866L39.8397 35.1722C40.0207 35.0664 40.236 35.0356 40.4394 35.0865C40.8164 35.1807 41.0717 35.5316 41.0454 35.9193L41.0366 36.049C41.0248 36.2237 40.9561 36.3898 40.841 36.5219Z" fill="#DBDBDB"/>
<g opacity="0.35">
<g opacity="0.35">
<path opacity="0.35" d="M37.7334 38.7255L38.2681 39.4754L40.8413 36.5223C40.9564 36.3894 41.0248 36.2237 41.0367 36.0491L41.0456 35.9192C41.0466 35.9013 41.0476 35.8834 41.0476 35.8656C41.0476 35.4996 40.7986 35.1772 40.4395 35.0869C40.4316 35.0849 40.4247 35.0829 40.4167 35.0819C40.4236 35.1246 40.4276 35.1692 40.4276 35.2138C40.4276 35.2317 40.4266 35.2496 40.4256 35.2674L40.4167 35.3964C40.4048 35.572 40.3363 35.7376 40.2213 35.8695L37.7334 38.7255Z" fill="#2E3349"/>
</g>
</g>
<path d="M38.2441 39.9703L36.1191 36.9911L39.6848 34.9069C39.9363 34.7598 40.2305 34.7177 40.514 34.7884C41.0359 34.9189 41.3884 35.4032 41.352 35.94L41.3432 36.0697C41.3269 36.31 41.2309 36.5423 41.0728 36.7237L38.2441 39.9703ZM37.0101 37.1821L38.2924 38.9797L40.6095 36.32C40.6801 36.2391 40.7229 36.1354 40.7302 36.0281L40.739 35.8985C40.7553 35.6589 40.5979 35.4427 40.365 35.3845C40.2387 35.353 40.1072 35.3716 39.995 35.4373L37.0101 37.1821Z" fill="#2E3349"/>
<path d="M4.68327 33.2954V36.7188C4.68327 37.4399 4.09305 38.0302 3.37187 38.0302H1.61803C1.57537 38.0302 1.53273 38.0282 1.49006 38.0232C0.828389 37.9587 0.307617 37.3973 0.307617 36.7188V33.2954C0.307617 32.5743 0.896855 31.984 1.61803 31.984H3.37187C4.09305 31.984 4.68327 32.5743 4.68327 33.2954Z" fill="#008CFF"/>
<g opacity="0.35">
<g opacity="0.35">
<path opacity="0.35" d="M4.61781 32.7937C4.42536 32.6816 4.20118 32.6171 3.9631 32.6171H2.20927C1.48811 32.6171 0.898849 33.2074 0.898849 33.9286V37.3519C0.898849 37.4938 0.921652 37.6307 0.963328 37.7586C0.571496 37.5305 0.307617 37.1069 0.307617 36.6238V33.2004C0.307617 32.4793 0.896855 31.889 1.61803 31.889H3.37187C3.95118 31.889 4.44618 32.27 4.61781 32.7937Z" fill="white"/>
</g>
</g>
<g opacity="0.35">
<g opacity="0.35">
<path opacity="0.35" d="M4.68345 33.8062V36.7187C4.68345 37.4399 4.09322 38.0301 3.37204 38.0301H1.61821C1.57554 38.0301 1.5329 38.0282 1.49023 38.0232V35.1107C1.49023 34.3895 2.08046 33.7993 2.80166 33.7993H4.55547C4.59812 33.7993 4.6408 33.8013 4.68345 33.8062Z" fill="#2E3349"/>
</g>
</g>
<path d="M3.37211 38.3374H1.61833C0.725981 38.3374 0 37.6114 0 36.7191V33.2951C0 32.4027 0.726 31.6768 1.61833 31.6768H3.37211C4.26445 31.6768 4.99043 32.4027 4.99043 33.2951V36.7191C4.99043 37.6114 4.26443 38.3374 3.37211 38.3374ZM1.61833 32.2911C1.06476 32.2911 0.614453 32.7415 0.614453 33.2951V36.7191C0.614453 37.2726 1.06474 37.723 1.61833 37.723H3.37211C3.92569 37.723 4.37598 37.2726 4.37598 36.7191V33.2951C4.37598 32.7415 3.92569 32.2911 3.37211 32.2911H1.61833Z" fill="#2E3349"/>
<path d="M2.67305 36.5219L5.24596 39.4751L6.94959 37.0866L3.67438 35.1722C3.49334 35.0664 3.2781 35.0356 3.07468 35.0865C2.69767 35.1807 2.44237 35.5316 2.46865 35.9193L2.47744 36.049C2.48927 36.2237 2.55799 36.3898 2.67305 36.5219Z" fill="#DBDBDB"/>
<g opacity="0.35">
<g opacity="0.35">
<path opacity="0.35" d="M5.78006 38.7255L5.24537 39.4754L2.67215 36.5223C2.55707 36.3894 2.4886 36.2237 2.47674 36.0491L2.4678 35.9192C2.46681 35.9013 2.46582 35.8834 2.46582 35.8656C2.46582 35.4996 2.71481 35.1772 3.07391 35.0869C3.08185 35.0849 3.08878 35.0829 3.09674 35.0819C3.08979 35.1246 3.08582 35.1692 3.08582 35.2138C3.08582 35.2317 3.08681 35.2496 3.08779 35.2674L3.09674 35.3964C3.10862 35.572 3.17707 35.7376 3.29215 35.8695L5.78006 38.7255Z" fill="#2E3349"/>
</g>
</g>
<path d="M5.26965 39.9703L2.44091 36.7236C2.28273 36.542 2.18669 36.3097 2.17057 36.0695L2.16176 35.9401C2.12534 35.4033 2.47772 34.9189 2.99977 34.7884C3.28309 34.7177 3.57725 34.7598 3.82905 34.9069L7.39465 36.9911L5.26965 39.9703ZM2.90415 36.32L5.22142 38.9797L6.50368 37.182L3.5189 35.4373C3.40645 35.3716 3.27507 35.3529 3.14879 35.3845C2.91581 35.4427 2.7585 35.6589 2.77471 35.8984L2.78352 36.028C2.79078 36.1354 2.83361 36.239 2.90415 36.32Z" fill="#2E3349"/>
<g opacity="0.35">
<g opacity="0.35">
<path opacity="0.35" d="M11.3424 49.6139V52.8117H4.58301V49.6139C4.58301 48.2464 5.3647 47.1364 6.32991 47.1364H9.59552C10.5607 47.1364 11.3424 48.2464 11.3424 49.6139Z" fill="#2E3349"/>
</g>
</g>
<g opacity="0.35">
<g opacity="0.35">
<path opacity="0.35" d="M35.1064 36.1524L34.3844 33.3339C33.6704 30.5462 30.9 28.3853 27.3882 27.8769L27.3881 27.8768C23.5963 27.3278 19.7113 27.3278 15.9194 27.8768V27.8769C12.4075 28.3853 9.63723 30.5462 8.92313 33.3339L8.20117 36.1524" fill="white"/>
</g>
</g>
<path d="M8.20102 36.4597C8.1758 36.4597 8.15021 36.4566 8.12463 36.4501C7.96026 36.408 7.86115 36.2406 7.90323 36.0762L8.62526 33.2578C9.37425 30.3336 12.22 28.1021 15.8751 27.5729C19.7094 27.0177 23.5977 27.0177 27.4319 27.5729C31.087 28.1021 33.9327 30.3336 34.6818 33.2578L35.4037 36.0763C35.4458 36.2406 35.3467 36.408 35.1823 36.4501C35.0181 36.4923 34.8505 36.3931 34.8085 36.2287L34.0866 33.4102C33.3993 30.7272 30.7526 28.6746 27.3439 28.181C23.5679 27.6343 19.7388 27.6344 15.9632 28.181C12.5544 28.6746 9.90773 30.7272 9.22048 33.4102L8.49846 36.2287C8.46292 36.3675 8.33804 36.4597 8.20102 36.4597Z" fill="#2E3349"/>
<path d="M40.608 44.5268C40.608 45.5145 40.5351 46.5714 40.3692 47.6282C40.3606 47.6832 40.3517 47.7381 40.3426 47.7931C40.1699 48.8362 39.3692 49.6623 38.3315 49.865C35.9803 50.3244 30.8912 51.0229 21.6829 51.0229H21.6245C14.7644 51.0229 10.1908 50.635 7.33138 50.2472C6.35274 50.1147 5.5751 49.982 4.97553 49.8649C3.9387 49.6624 3.13842 48.8377 2.96461 47.7956C2.95531 47.7398 2.94625 47.684 2.93746 47.6282C2.40984 44.2619 2.82686 40.8948 3.52195 39.7735C4.0834 38.868 5.3153 38.3096 5.3153 38.3096C5.85369 36.7674 6.54111 36.2367 7.6463 35.7674C10.4926 34.5601 19.0762 34.5601 21.6537 34.5601C24.2305 34.5601 32.814 34.5601 35.6604 35.7674C36.7655 36.2367 37.4537 36.7674 37.9914 38.3096C37.9914 38.3096 39.2233 38.868 39.7847 39.7735C40.2616 40.543 40.608 42.3687 40.608 44.5268Z" fill="#008CFF"/>
<g opacity="0.35">
<g opacity="0.35">
<path opacity="0.35" d="M40.6081 44.5271C40.6081 44.6953 40.6058 44.8658 40.6012 45.0379C40.5528 43.1016 40.2241 41.4964 39.7848 40.7876C39.2233 39.8821 37.9914 39.3237 37.9914 39.3237C37.4538 37.7815 36.7656 37.2507 35.6604 36.7815C32.8141 35.5741 24.2305 35.5741 21.6538 35.5741C19.0762 35.5741 10.4927 35.5741 7.64633 36.7815C6.54114 37.2507 5.85372 37.7815 5.31533 39.3237C5.31533 39.3237 4.08343 39.882 3.52198 40.7876C3.08267 41.4957 2.75472 43.1001 2.70555 45.034C2.6464 42.6585 3.00818 40.6025 3.52198 39.7738C4.08343 38.8682 5.31533 38.3099 5.31533 38.3099C5.85372 36.7676 6.54114 36.2369 7.64633 35.7677C10.4927 34.5603 19.0762 34.5603 21.6538 34.5603C24.2305 34.5603 32.8141 34.5603 35.6604 35.7677C36.7656 36.2369 37.4537 36.7676 37.9914 38.3099C37.9914 38.3099 39.2233 38.8682 39.7848 39.7738C40.2617 40.5433 40.6081 42.369 40.6081 44.5271Z" fill="white"/>
</g>
</g>
<g opacity="0.35">
<g opacity="0.35">
<path opacity="0.35" d="M40.6078 44.527C40.6078 45.5148 40.5348 46.5716 40.3689 47.6284C40.3605 47.6829 40.3513 47.7382 40.342 47.7927C40.1692 48.8365 39.369 49.6621 38.3313 49.8649C35.9796 50.3242 30.8906 51.0231 21.6826 51.0231H21.6243C14.7642 51.0231 10.1905 50.6352 7.33113 50.2474C6.35267 50.1145 5.57464 49.9824 4.97557 49.8649C3.93873 49.6621 3.13843 48.838 2.9641 47.7958C2.95487 47.7397 2.94566 47.6837 2.93719 47.6284C2.69604 46.0877 2.65226 44.547 2.74288 43.2214C2.78051 43.8013 2.84425 44.3934 2.93719 44.9863C2.94564 45.0416 2.95485 45.0977 2.9641 45.1538C3.13843 46.1952 3.93873 47.0201 4.97557 47.2229C5.57464 47.3404 6.35267 47.4725 7.33113 47.6054C10.1905 47.9932 14.7642 48.3811 21.6243 48.3811H21.6826C30.8906 48.3811 35.9796 47.6821 38.3313 47.2229C39.369 47.0201 40.1692 46.1945 40.342 45.1507C40.3513 45.0962 40.3605 45.0409 40.3689 44.9863C40.4619 44.3934 40.5256 43.8005 40.564 43.2198C40.5924 43.6361 40.6078 44.0747 40.6078 44.527Z" fill="#2E3349"/>
</g>
</g>
<path d="M21.6828 51.3301H21.6245C14.5207 51.3301 9.90838 50.9068 7.29008 50.5516C6.42148 50.434 5.62288 50.3044 4.91662 50.1665C3.76165 49.9409 2.85541 49.0084 2.66147 47.8462C2.65211 47.7894 2.64283 47.7328 2.63394 47.6761C2.08889 44.1987 2.53502 40.7826 3.26076 39.6117C3.76351 38.8008 4.72833 38.2604 5.06821 38.0882C5.63512 36.5396 6.37523 35.9734 7.52621 35.4847C10.4301 34.2529 18.8777 34.2529 21.6537 34.2529C24.4295 34.2529 32.8765 34.2529 35.7803 35.4847C36.9321 35.9737 37.6723 36.5398 38.2385 38.0883C38.5783 38.2605 39.5431 38.8008 40.0458 39.6117C40.574 40.464 40.9153 42.3934 40.9153 44.5269C40.9153 45.5911 40.8336 46.6506 40.6727 47.6759C40.6639 47.7317 40.655 47.7875 40.6457 47.8433C40.453 49.0071 39.5465 49.9407 38.3903 50.1666C36.1661 50.6011 31.0381 51.3301 21.6828 51.3301ZM21.6537 34.8673C14.2892 34.8673 9.6168 35.2653 7.76623 36.0503C6.72529 36.4922 6.10526 36.9787 5.60537 38.4109L5.56199 38.5352L5.4421 38.5894C5.43088 38.5946 4.28723 39.1222 3.78297 39.9354C3.11213 41.0177 2.73425 44.348 3.24092 47.5806C3.24954 47.6353 3.25844 47.6903 3.26761 47.7453C3.41956 48.656 4.12954 49.3867 5.03438 49.5634C5.72905 49.6991 6.5157 49.8267 7.37259 49.9428C9.97216 50.2954 14.5549 50.7157 21.6245 50.7157H21.6828C30.9863 50.7157 36.0701 49.9938 38.2725 49.5636C39.1783 49.3866 39.8884 48.6549 40.0395 47.7429C40.0485 47.6889 40.0572 47.6348 40.0656 47.5806C40.2217 46.5867 40.3008 45.5593 40.3008 44.5269C40.3008 42.2215 39.9104 40.5597 39.5235 39.9353C39.0194 39.1222 37.8757 38.5946 37.8642 38.5893L37.7447 38.5349L37.7012 38.4108C37.2021 36.979 36.5819 36.4925 35.5403 36.0502C33.6898 35.2653 29.0177 34.8673 21.6537 34.8673Z" fill="#2E3349"/>
<path d="M40.3692 47.6282C40.3606 47.6832 40.3518 47.7382 40.3427 47.7932C40.1699 48.8363 39.3692 49.6623 38.3315 49.8651C35.9803 50.3245 30.8913 51.023 21.6829 51.023H21.6246C14.7645 51.023 10.1908 50.6351 7.33142 50.2473C6.35278 50.1147 5.57514 49.9821 4.97557 49.865C3.93873 49.6625 3.13846 48.8377 2.96465 47.7957C2.95535 47.7399 2.94629 47.6841 2.9375 47.6283C3.82842 47.8471 5.08953 48.1183 5.78845 48.0952C8.01728 48.023 8.20392 46.8641 10.6555 46.6859C12.6432 46.5407 16.9441 47.2819 21.6537 47.2274C26.3625 47.2819 30.6635 46.5407 32.6512 46.6859C35.1028 46.8641 35.2902 48.023 37.519 48.0952C38.2172 48.1183 39.4783 47.8471 40.3692 47.6282Z" fill="#E5E5E5"/>
<g opacity="0.7">
<g opacity="0.7">
<path opacity="0.7" d="M40.3692 47.6284C40.3608 47.6829 40.3516 47.7382 40.3423 47.7927C40.3177 47.9387 40.2817 48.0807 40.2333 48.2167C39.3539 48.4287 38.1826 48.6729 37.519 48.6506C35.2902 48.5784 35.1028 47.4194 32.6512 47.2413C30.6635 47.0961 26.3625 47.8373 21.6538 47.7827C16.9442 47.8373 12.6432 47.0961 10.6555 47.2413C8.20393 47.4194 8.0173 48.5784 5.78847 48.6506C5.1241 48.6729 3.95286 48.4287 3.07345 48.2167C3.02507 48.0815 2.98897 47.941 2.9644 47.7958C2.95518 47.7397 2.94597 47.6837 2.9375 47.6284C3.82842 47.8473 5.08953 48.1184 5.78845 48.0954C8.01728 48.0232 8.20392 46.8642 10.6555 46.686C12.6432 46.5408 16.9441 47.282 21.6537 47.2275C26.3625 47.282 30.6635 46.5408 32.6512 46.686C35.1028 46.8642 35.2902 48.0232 37.519 48.0954C38.2172 48.1184 39.4783 47.8473 40.3692 47.6284Z" fill="white"/>
</g>
</g>
<g opacity="0.35">
<g opacity="0.35">
<path opacity="0.35" d="M40.3692 47.6284C40.3608 47.6829 40.3516 47.7382 40.3424 47.7928C40.1695 48.8366 39.3693 49.6622 38.3316 49.8649C35.9799 50.3242 30.8909 51.0231 21.683 51.0231H21.6246C14.7645 51.0231 10.1908 50.6353 7.33144 50.2474C6.35297 50.1146 5.57495 49.9824 4.97587 49.8649C3.93904 49.6622 3.13874 48.8381 2.9644 47.7958C2.95518 47.7398 2.94597 47.6837 2.9375 47.6284C3.108 47.6707 3.29233 47.7144 3.48358 47.7575C3.84993 48.2175 4.37297 48.5455 4.97586 48.663C5.57493 48.7805 6.35295 48.9126 7.33142 49.0454C10.1908 49.4333 14.7645 49.8212 21.6246 49.8212H21.6829C30.8909 49.8212 35.9799 49.1222 38.3316 48.663C38.9345 48.5455 39.4576 48.2167 39.8232 47.7575C40.0144 47.7144 40.1987 47.6707 40.3692 47.6284Z" fill="#2E3349"/>
</g>
</g>
<path d="M21.6834 51.3301H21.6251C14.5213 51.3301 9.90898 50.9068 7.29067 50.5516C6.42208 50.434 5.62347 50.3044 4.91721 50.1665C3.76224 49.9409 2.856 49.0084 2.66207 47.8462C2.65271 47.7893 2.64342 47.7327 2.63454 47.6761L2.5625 47.2196L3.01131 47.3299C4.2829 47.6423 5.26414 47.8049 5.77888 47.7881C6.82323 47.7543 7.36699 47.478 7.99658 47.158C8.62822 46.837 9.34412 46.4732 10.6338 46.3794C11.5601 46.3117 12.9201 46.4269 14.6415 46.5727C16.6253 46.7406 19.0929 46.9499 21.6508 46.9201C24.213 46.9498 26.6825 46.7407 28.6662 46.5727C30.3876 46.4269 31.7475 46.3117 32.6742 46.3794C33.9636 46.4732 34.6797 46.837 35.3115 47.158C35.9414 47.478 36.4853 47.7543 37.5295 47.7881C38.043 47.8041 39.0245 47.6423 40.2964 47.3299L40.7447 47.2197L40.6733 47.6758C40.6645 47.7316 40.6556 47.7874 40.6463 47.8432C40.4536 49.007 39.5471 49.9406 38.3909 50.1665C36.1667 50.6011 31.0386 51.3301 21.6834 51.3301ZM3.33819 48.0391C3.57885 48.8102 4.22977 49.4062 5.03495 49.5634C5.72962 49.6991 6.51627 49.8267 7.37317 49.9427C9.97273 50.2953 14.5554 50.7157 21.6251 50.7157H21.6834C30.9869 50.7157 36.0707 49.9938 38.2731 49.5635C39.0785 49.4062 39.7292 48.8103 39.9698 48.039C39.1122 48.2357 38.1188 48.4227 37.5094 48.4022C36.3288 48.364 35.6702 48.0293 35.0332 47.7057C34.4247 47.3966 33.7956 47.0769 32.6295 46.9922C31.7511 46.9282 30.3455 47.0471 28.718 47.1849C26.7213 47.3539 24.2363 47.5643 21.6508 47.5344C19.0712 47.5644 16.5864 47.3539 14.5896 47.1849C12.9622 47.0471 11.5567 46.9281 10.6783 46.9922C9.51215 47.0769 8.8831 47.3966 8.27485 47.7057C7.63813 48.0293 6.9797 48.364 5.79887 48.4022C5.18726 48.4227 4.19556 48.2357 3.33819 48.0391Z" fill="#2E3349"/>
<path d="M21.6833 51.3303H21.6249C18.4394 51.3303 15.4813 51.246 12.8331 51.0794L12.1748 51.038L12.6301 50.5607C12.7697 50.4144 12.872 50.2581 12.9905 50.0771C13.1275 49.8678 13.2828 49.6304 13.5228 49.3756C14.6835 48.1423 17.0757 48.1549 20.3893 48.1724C20.797 48.1746 21.2189 48.1768 21.6542 48.1768C22.0893 48.1768 22.5111 48.1746 22.9187 48.1724C26.2312 48.1549 28.6247 48.1422 29.7855 49.3757C30.0249 49.6303 30.1799 49.8673 30.3166 50.0764C30.4351 50.2576 30.5375 50.4142 30.6774 50.5607L31.1327 51.038L30.4744 51.0794C27.8262 51.2459 24.8684 51.3303 21.6833 51.3303ZM13.4473 50.5008C15.9335 50.6436 18.6812 50.716 21.6249 50.716H21.6832C24.6265 50.716 27.374 50.6436 29.8602 50.5008C29.8407 50.4713 29.8215 50.4419 29.8024 50.4127C29.6735 50.2156 29.5402 50.0117 29.338 49.7966C28.3604 48.7581 26.0786 48.7702 22.9219 48.7868C22.5133 48.789 22.0904 48.7912 21.6541 48.7912C21.2177 48.7912 20.7948 48.789 20.3861 48.7868C17.2296 48.7703 14.9476 48.7581 13.9701 49.7967C13.7672 50.0122 13.6337 50.2162 13.5045 50.4136C13.4856 50.4426 13.4666 50.4716 13.4473 50.5008Z" fill="#2E3349"/>
<path d="M30.4552 50.7727C28.0735 50.9225 25.1741 51.0231 21.6834 51.0231H21.625C18.1335 51.0231 15.2342 50.9225 12.8525 50.7727C13.1874 50.4217 13.3249 50.0338 13.7465 49.5861C14.9508 48.3065 17.7695 48.4839 21.6542 48.4839C25.5382 48.4839 28.3576 48.3065 29.5619 49.5861C29.9828 50.0338 30.1203 50.4217 30.4552 50.7727Z" fill="#686868"/>
<g opacity="0.7">
<g opacity="0.7">
<path opacity="0.7" d="M30.4551 50.7727C30.3161 50.7811 30.1748 50.7904 30.0319 50.7988C29.906 50.6053 29.7678 50.401 29.5619 50.1821C28.3576 48.9025 25.5382 49.0799 21.6542 49.0799C17.7695 49.0799 14.9508 48.9025 13.7465 50.1821C13.5407 50.401 13.4024 50.6053 13.2765 50.7988C13.1336 50.7904 12.9923 50.7811 12.8525 50.7727C13.1874 50.4217 13.3249 50.0338 13.7465 49.5861C14.9508 48.3065 17.7695 48.4839 21.6542 48.4839C25.5382 48.4839 28.3576 48.3065 29.5619 49.5861C29.9828 50.0338 30.1203 50.4217 30.4551 50.7727Z" fill="white"/>
</g>
</g>
<g opacity="0.35">
<g opacity="0.35">
<path opacity="0.35" d="M30.4552 50.7727C28.0735 50.9225 25.1741 51.0231 21.6834 51.0231H21.625C18.1335 51.0231 15.2342 50.9225 12.8525 50.7727C13.1052 50.5078 13.245 50.2221 13.48 49.9056C15.738 50.0347 18.4346 50.1184 21.625 50.1184H21.6834C24.8738 50.1184 27.5696 50.0347 29.8284 49.9056C30.0627 50.2221 30.2025 50.5078 30.4552 50.7727Z" fill="#2E3349"/>
</g>
</g>
<path d="M21.6833 51.3303H21.6249C18.4394 51.3303 15.4813 51.246 12.8331 51.0794L12.1748 51.038L12.6301 50.5607C12.7697 50.4144 12.872 50.2581 12.9905 50.0771C13.1275 49.8678 13.2828 49.6304 13.5228 49.3756C14.6835 48.1423 17.0757 48.1549 20.3893 48.1724C20.797 48.1746 21.2189 48.1768 21.6542 48.1768C22.0893 48.1768 22.5111 48.1746 22.9187 48.1724C26.2312 48.1549 28.6247 48.1422 29.7855 49.3757C30.0249 49.6303 30.1799 49.8673 30.3166 50.0764C30.4351 50.2576 30.5375 50.4142 30.6774 50.5607L31.1327 51.038L30.4744 51.0794C27.8262 51.2459 24.8684 51.3303 21.6833 51.3303ZM13.4473 50.5008C15.9335 50.6436 18.6812 50.716 21.6249 50.716H21.6832C24.6265 50.716 27.374 50.6436 29.8602 50.5008C29.8407 50.4713 29.8215 50.4419 29.8024 50.4127C29.6735 50.2156 29.5402 50.0117 29.338 49.7966C28.3604 48.7581 26.0786 48.7702 22.9219 48.7868C22.5133 48.789 22.0904 48.7912 21.6541 48.7912C21.2177 48.7912 20.7948 48.789 20.3861 48.7868C17.2296 48.7703 14.9476 48.7581 13.9701 49.7967C13.7672 50.0122 13.6337 50.2162 13.5045 50.4136C13.4856 50.4426 13.4666 50.4716 13.4473 50.5008Z" fill="#2E3349"/>
<g opacity="0.35">
<g opacity="0.35">
<path opacity="0.35" d="M21.7567 46.6288C15.6069 46.6288 12.4862 45.093 13.2961 43.3331C13.8488 42.1328 20.8588 42.2645 21.7567 42.2645C22.6546 42.2645 29.6645 42.1328 30.2173 43.3331C31.0271 45.093 27.9064 46.6288 21.7567 46.6288Z" fill="#2E3349"/>
</g>
</g>
<path d="M21.7567 46.0349C15.6069 46.0349 12.4862 44.4991 13.2961 42.7392C13.8488 41.5389 20.8588 41.6706 21.7567 41.6706C22.6546 41.6706 29.6645 41.5389 30.2173 42.7392C31.0271 44.4991 27.9064 46.0349 21.7567 46.0349Z" fill="#E5E5E5"/>
<g opacity="0.7">
<g opacity="0.7">
<path opacity="0.7" d="M30.2985 43.5924C30.2786 43.5187 30.2517 43.4442 30.2171 43.3697C29.6641 42.1693 22.6543 42.3006 21.7564 42.3006C20.8586 42.3006 13.8488 42.1693 13.2958 43.3697C13.2612 43.4442 13.2343 43.5187 13.2144 43.5917C13.1353 43.3175 13.1614 43.0318 13.2958 42.7392C13.8488 41.5387 20.8586 41.6708 21.7564 41.6708C22.6543 41.6708 29.6641 41.5387 30.2171 42.7392C30.3515 43.0317 30.3776 43.3182 30.2985 43.5924Z" fill="white"/>
</g>
</g>
<g opacity="0.35">
<g opacity="0.35">
<path opacity="0.35" d="M21.7571 46.0347C15.7418 46.0347 12.6252 44.5654 13.2496 42.8542C13.7611 44.1799 16.7587 45.1945 21.7571 45.1945C26.7555 45.1945 29.7531 44.1799 30.2654 42.855C30.889 44.5662 27.7716 46.0347 21.7571 46.0347Z" fill="#2E3349"/>
</g>
</g>
<path d="M21.7573 46.3422C17.2432 46.3422 14.0128 45.5065 13.1161 44.1067C12.8166 43.6391 12.7825 43.1218 13.0177 42.6109C13.2748 42.0522 14.4341 41.3137 21.5058 41.3623C21.6136 41.363 21.6986 41.3636 21.7573 41.3636C21.8159 41.3636 21.901 41.363 22.0088 41.3623C29.078 41.3135 30.2396 42.0522 30.4969 42.6108C30.7321 43.1218 30.698 43.6391 30.3984 44.1067C29.5018 45.5065 26.2714 46.3422 21.7573 46.3422ZM20.8879 41.9746C14.3276 41.9746 13.6461 42.7153 13.5758 42.8678C13.4285 43.1879 13.4474 43.4847 13.6335 43.7753C14.2382 44.7192 16.6898 45.7278 21.7573 45.7278C26.8248 45.7278 29.2764 44.7192 29.8811 43.7753C30.0672 43.4847 30.0861 43.1879 29.9388 42.8678C29.8664 42.7107 29.1459 41.93 22.0129 41.9767C21.9034 41.9774 21.8169 41.9779 21.7573 41.9779C21.6977 41.9779 21.6112 41.9774 21.5017 41.9767C21.2919 41.9753 21.0867 41.9746 20.8879 41.9746Z" fill="#2E3349"/>
<g opacity="0.35">
<g opacity="0.35">
<path opacity="0.35" d="M39.2987 42.5307C39.3248 43.8578 38.8809 44.9153 37.0186 45.033C35.9953 45.0976 34.4217 44.9535 33.2764 44.9195C32.2167 44.8882 31.6918 44.9953 31.5686 44.5671C31.3249 43.7201 36.6607 41.566 37.9426 39.4751C38.7656 40.4785 39.2789 41.5654 39.2987 42.5307Z" fill="#2E3349"/>
</g>
</g>
<g opacity="0.35">
<g opacity="0.35">
<path opacity="0.35" d="M4.09384 42.5307C4.06777 43.8578 4.51166 44.9153 6.37392 45.033C7.39723 45.0976 8.97084 44.9535 10.1161 44.9195C11.1758 44.8882 11.7007 44.9953 11.8239 44.5671C12.0676 43.7201 6.73178 41.566 5.44996 39.4751C4.62695 40.4785 4.1136 41.5654 4.09384 42.5307Z" fill="#2E3349"/>
</g>
</g>
<path d="M38.4941 42.4127C38.5164 43.5509 37.5878 44.481 36.4496 44.481H31.7822C32.4374 40.9757 36.6838 41.6216 37.7798 39.8282C38.3098 40.637 38.4772 41.5847 38.4941 42.4127Z" fill="#EAEAEA"/>
<g opacity="0.35">
<g opacity="0.35">
<path opacity="0.35" d="M38.4941 42.4127C38.5164 43.5509 37.5878 44.481 36.4496 44.481H31.7822C31.8444 44.1492 31.9382 43.8551 32.0587 43.5924H36.4496C37.4557 43.5924 38.2983 42.8658 38.4642 41.9104C38.4818 42.0809 38.491 42.2491 38.4941 42.4127Z" fill="#2E3349"/>
</g>
</g>
<path d="M36.2522 43.6835C36.9778 43.6835 37.566 43.0953 37.566 42.3698C37.566 41.6442 36.9778 41.056 36.2522 41.056C35.5267 41.056 34.9385 41.6442 34.9385 42.3698C34.9385 43.0953 35.5267 43.6835 36.2522 43.6835Z" fill="white"/>
<path d="M36.2519 43.9683C35.3704 43.9683 34.6533 43.2512 34.6533 42.3698C34.6533 41.4883 35.3705 40.7712 36.2519 40.7712C37.1334 40.7712 37.8505 41.4884 37.8505 42.3698C37.8505 43.2512 37.1334 43.9683 36.2519 43.9683ZM36.2519 41.3408C35.6845 41.3408 35.2229 41.8025 35.2229 42.3698C35.2229 42.9371 35.6846 43.3987 36.2519 43.3987C36.8193 43.3987 37.2809 42.9371 37.2809 42.3698C37.2809 41.8024 36.8193 41.3408 36.2519 41.3408Z" fill="#2E3349"/>
<path d="M36.2524 43.0313C35.8876 43.0313 35.5908 42.7346 35.5908 42.3698C35.5908 42.005 35.8876 41.7083 36.2524 41.7083C36.6172 41.7083 36.914 42.005 36.914 42.3698C36.914 42.7346 36.6172 43.0313 36.2524 43.0313ZM36.2524 42.0155C36.057 42.0155 35.8981 42.1744 35.8981 42.3698C35.8981 42.5652 36.057 42.7241 36.2524 42.7241C36.4478 42.7241 36.6068 42.5652 36.6068 42.3698C36.6068 42.1744 36.4478 42.0155 36.2524 42.0155Z" fill="#2E3349"/>
<path d="M33.6763 44.0368C34.1366 44.0368 34.5098 43.6636 34.5098 43.2033C34.5098 42.7429 34.1366 42.3698 33.6763 42.3698C33.2159 42.3698 32.8428 42.7429 32.8428 43.2033C32.8428 43.6636 33.2159 44.0368 33.6763 44.0368Z" fill="#FFDA22"/>
<g opacity="0.35">
<g opacity="0.35">
<path opacity="0.35" d="M34.5102 43.203C34.5102 43.6638 34.1369 44.0371 33.6769 44.0371C33.216 44.0371 32.8428 43.6638 32.8428 43.203C32.8428 43.1024 32.8604 43.0056 32.8934 42.9165C33.011 43.2352 33.3174 43.4626 33.6769 43.4626C34.0363 43.4626 34.342 43.2352 34.4595 42.9165C34.4925 43.0056 34.5102 43.1024 34.5102 43.203Z" fill="#2E3349"/>
</g>
</g>
<path d="M33.6764 44.2741C33.0859 44.2741 32.6055 43.7937 32.6055 43.2033C32.6055 42.6128 33.0859 42.1324 33.6764 42.1324C34.2668 42.1324 34.7471 42.6128 34.7471 43.2033C34.7471 43.7937 34.2668 44.2741 33.6764 44.2741ZM33.6764 42.6071C33.3476 42.6071 33.0801 42.8745 33.0801 43.2033C33.0801 43.532 33.3476 43.7994 33.6764 43.7994C34.0051 43.7994 34.2725 43.532 34.2725 43.2033C34.2725 42.8745 34.0051 42.6071 33.6764 42.6071Z" fill="#2E3349"/>
<path d="M36.4496 44.7183H31.7822C31.7117 44.7183 31.6448 44.6869 31.5997 44.6326C31.5545 44.5783 31.536 44.5067 31.549 44.4374C31.9699 42.1853 33.7581 41.5536 35.336 40.9964C36.288 40.6601 37.1874 40.3425 37.5773 39.7044C37.6197 39.635 37.6947 39.5921 37.7761 39.5909C37.7773 39.5908 37.7786 39.5908 37.7798 39.5908C37.8597 39.5908 37.9344 39.6311 37.9783 39.6981C38.4561 40.4271 38.7095 41.3388 38.7313 42.4078C38.7313 42.4078 38.7313 42.4079 38.7314 42.408C38.7433 43.0175 38.5136 43.5942 38.0844 44.0317C37.6503 44.4745 37.0696 44.7183 36.4496 44.7183ZM32.0785 44.2437H36.4496C36.9411 44.2437 37.4013 44.0503 37.7456 43.6994C38.0846 43.3536 38.2663 42.8983 38.2568 42.4173C38.2396 41.5811 38.0712 40.8553 37.7552 40.2541C37.2317 40.8303 36.3841 41.1296 35.494 41.444C34.0408 41.9572 32.5406 42.487 32.0785 44.2437Z" fill="#2E3349"/>
<path d="M37.7792 40.0656C37.7367 40.0656 37.6938 40.0542 37.6551 40.0304C37.5433 39.9617 37.5086 39.8155 37.5772 39.7039C37.7936 39.3522 37.8525 38.9092 37.7574 38.3496C37.7354 38.2204 37.8224 38.0978 37.9516 38.0758C38.0809 38.0541 38.2034 38.1409 38.2254 38.2701C38.3406 38.9481 38.2608 39.4985 37.9815 39.9526C37.9367 40.0255 37.8588 40.0656 37.7792 40.0656Z" fill="#2E3349"/>
<path d="M11.557 44.481H6.88961C5.7514 44.481 4.82283 43.5509 4.84512 42.4127C4.86202 41.5847 5.02944 40.637 5.55941 39.8282C6.65535 41.6216 10.9018 40.9757 11.557 44.481Z" fill="#EAEAEA"/>
<g opacity="0.35">
<g opacity="0.35">
<path opacity="0.35" d="M11.557 44.481H6.88961C5.7514 44.481 4.82283 43.5509 4.84512 42.4127C4.8482 42.2491 4.8574 42.0809 4.87506 41.9104C5.04097 42.8658 5.88349 43.5924 6.88961 43.5924H11.2805C11.401 43.8551 11.4948 44.1492 11.557 44.481Z" fill="#2E3349"/>
</g>
</g>
<path d="M11.5571 44.7184H6.88972C6.26957 44.7184 5.68905 44.4745 5.25487 44.0318C4.82573 43.5942 4.59599 43.0176 4.60786 42.408C4.62964 41.3392 4.88302 40.4275 5.36094 39.6981C5.40554 39.6302 5.48407 39.5883 5.56315 39.5909C5.64454 39.5922 5.71954 39.6351 5.7619 39.7045C6.15193 40.3425 7.05122 40.6602 8.00334 40.9965C9.58117 41.5537 11.3694 42.1853 11.7903 44.4374C11.8033 44.5068 11.7848 44.5784 11.7396 44.6327C11.6946 44.6869 11.6276 44.7184 11.5571 44.7184ZM5.58399 40.2541C5.26805 40.8555 5.09951 41.5814 5.08244 42.4175C5.07309 42.8983 5.2547 43.3537 5.59373 43.6995C5.93796 44.0504 6.39817 44.2437 6.88972 44.2437H11.2609C10.7987 42.487 9.29849 41.9573 7.84527 41.444C6.95507 41.1297 6.10752 40.8303 5.58399 40.2541Z" fill="#2E3349"/>
<path d="M5.55961 40.0657C5.47996 40.0657 5.40209 40.0255 5.35721 39.9527C5.07795 39.4986 4.99823 38.9483 5.11348 38.2701C5.13535 38.141 5.258 38.0539 5.38725 38.0759C5.51647 38.0979 5.60345 38.2204 5.58146 38.3497C5.48634 38.9093 5.54522 39.3523 5.76159 39.7039C5.83019 39.8156 5.79543 39.9618 5.68371 40.0305C5.64499 40.0543 5.60206 40.0657 5.55961 40.0657Z" fill="#2E3349"/>
<path d="M10.3279 49.586C10.8644 49.586 11.2994 49.1511 11.2994 48.6145C11.2994 48.078 10.8644 47.6431 10.3279 47.6431C9.79138 47.6431 9.35645 48.078 9.35645 48.6145C9.35645 49.1511 9.79138 49.586 10.3279 49.586Z" fill="#FFDA22"/>
<path d="M32.9793 49.586C33.5158 49.586 33.9507 49.1511 33.9507 48.6145C33.9507 48.078 33.5158 47.6431 32.9793 47.6431C32.4428 47.6431 32.0078 48.078 32.0078 48.6145C32.0078 49.1511 32.4428 49.586 32.9793 49.586Z" fill="#FFDA22"/>
<path d="M10.3286 49.8931C9.62349 49.8931 9.0498 49.3195 9.0498 48.6145C9.0498 47.9094 9.62349 47.3358 10.3286 47.3358C11.0336 47.3358 11.6072 47.9094 11.6072 48.6145C11.6072 49.3195 11.0336 49.8931 10.3286 49.8931ZM10.3286 47.9502C9.96226 47.9502 9.6643 48.2482 9.6643 48.6145C9.6643 48.9807 9.96226 49.2787 10.3286 49.2787C10.6948 49.2787 10.9927 48.9807 10.9927 48.6145C10.9927 48.2482 10.6948 47.9502 10.3286 47.9502Z" fill="#2E3349"/>
<path d="M32.9798 49.8931C32.2748 49.8931 31.7012 49.3195 31.7012 48.6145C31.7012 47.9094 32.2748 47.3358 32.9798 47.3358C33.6849 47.3358 34.2586 47.9094 34.2586 48.6145C34.2586 49.3195 33.6849 49.8931 32.9798 49.8931ZM32.9798 47.9502C32.6136 47.9502 32.3157 48.2482 32.3157 48.6145C32.3157 48.9807 32.6136 49.2787 32.9798 49.2787C33.3461 49.2787 33.6441 48.9807 33.6441 48.6145C33.6441 48.2482 33.3461 47.9502 32.9798 47.9502Z" fill="#2E3349"/>
<path d="M14.9701 42.595C15.0233 42.9985 15.0338 43.4019 15.0327 43.8054C15.0296 44.2089 15.0168 44.6124 14.9701 45.0159C14.962 45.0858 14.8988 45.1359 14.8289 45.1278C14.769 45.1209 14.7236 45.0733 14.717 45.0159C14.6702 44.6124 14.6575 44.2089 14.6544 43.8054C14.6533 43.4019 14.6638 42.9985 14.717 42.595C14.7262 42.5251 14.7903 42.4759 14.8602 42.4851C14.9187 42.4929 14.9627 42.5392 14.9701 42.595Z" fill="#2E3349"/>
<path d="M15.9427 42.5714C15.9959 43.0031 16.0065 43.4347 16.0053 43.8664C16.0022 44.2981 15.9895 44.7298 15.9427 45.1614C15.9351 45.2313 15.8721 45.2817 15.8022 45.274C15.7418 45.2674 15.696 45.2194 15.6896 45.1614C15.6429 44.7298 15.6301 44.2981 15.627 43.8664C15.6259 43.4347 15.6364 43.0031 15.6896 42.5714C15.6984 42.5015 15.7621 42.452 15.8321 42.4607C15.8911 42.4682 15.9357 42.5149 15.9427 42.5714Z" fill="#2E3349"/>
<path d="M16.9154 42.5479C16.9686 43.0078 16.9791 43.4676 16.978 43.9275C16.9749 44.3874 16.9621 44.8472 16.9154 45.307C16.9081 45.377 16.8455 45.4277 16.7755 45.4203C16.7147 45.414 16.6683 45.3656 16.6623 45.307C16.6155 44.8472 16.6028 44.3874 16.5997 43.9275C16.5986 43.4676 16.6091 43.0078 16.6623 42.5479C16.6706 42.478 16.734 42.4281 16.8039 42.4365C16.8635 42.4436 16.9086 42.4908 16.9154 42.5479Z" fill="#2E3349"/>
<path d="M17.889 42.5243C17.9422 43.0124 17.9528 43.5004 17.9516 43.9884C17.9485 44.4765 17.9358 44.9645 17.889 45.4526C17.8821 45.5225 17.8198 45.5735 17.7499 45.5666C17.6885 45.5605 17.6417 45.5117 17.6359 45.4526C17.5892 44.9645 17.5764 44.4765 17.5733 43.9884C17.5722 43.5004 17.5827 43.0124 17.6359 42.5243C17.6438 42.4544 17.7069 42.4042 17.7768 42.4121C17.837 42.4189 17.8826 42.4666 17.889 42.5243Z" fill="#2E3349"/>
<path d="M18.8617 42.5007C18.9148 43.0169 18.9254 43.5332 18.9243 44.0494C18.9212 44.5656 18.9084 45.0819 18.8617 45.5981C18.8551 45.668 18.7931 45.7194 18.7232 45.7128C18.6614 45.707 18.6141 45.6578 18.6085 45.5981C18.5618 45.0819 18.5491 44.5656 18.546 44.0494C18.5448 43.5332 18.5554 43.0169 18.6085 42.5007C18.616 42.4308 18.6788 42.3802 18.7486 42.3877C18.8093 42.3942 18.8555 42.4424 18.8617 42.5007Z" fill="#2E3349"/>
<path d="M19.8343 42.4773C19.8875 43.0217 19.8981 43.5661 19.8969 44.1105C19.8938 44.6549 19.8811 45.1994 19.8343 45.7438C19.8281 45.8137 19.7665 45.8653 19.6965 45.8591C19.6343 45.8536 19.5865 45.804 19.5812 45.7438C19.5345 45.1993 19.5217 44.6549 19.5186 44.1105C19.5175 43.5661 19.528 43.0217 19.5812 42.4773C19.5883 42.4073 19.6506 42.3564 19.7205 42.3634C19.7818 42.3696 19.8285 42.4183 19.8343 42.4773Z" fill="#2E3349"/>
<path d="M20.807 42.4537C20.8601 43.0263 20.8707 43.5989 20.8695 44.1715C20.8665 44.7441 20.8537 45.3167 20.807 45.8893C20.8012 45.9592 20.7398 46.0112 20.6699 46.0054C20.6071 46.0002 20.5588 45.9501 20.5538 45.8893C20.5071 45.3167 20.4944 44.7441 20.4913 44.1715C20.4901 43.5989 20.5007 43.0263 20.5538 42.4537C20.5605 42.3838 20.6225 42.3324 20.6924 42.3391C20.7542 42.3449 20.8014 42.3941 20.807 42.4537Z" fill="#2E3349"/>
<path d="M21.7796 42.4301C21.8328 43.0309 21.8433 43.6317 21.8422 44.2325C21.8391 44.8333 21.8263 45.4341 21.7796 46.0349C21.7742 46.1048 21.7131 46.1571 21.6432 46.1516C21.58 46.1467 21.5312 46.0962 21.5265 46.0349C21.4797 45.4341 21.467 44.8333 21.4639 44.2325C21.4628 43.6317 21.4733 43.0309 21.5265 42.4301C21.5327 42.3602 21.5944 42.3085 21.6642 42.3147C21.7266 42.3202 21.7744 42.3699 21.7796 42.4301Z" fill="#2E3349"/>
<path d="M28.5902 42.595C28.6434 42.9985 28.6539 43.4019 28.6528 43.8054C28.6497 44.2089 28.6369 44.6124 28.5902 45.0159C28.5821 45.0858 28.5189 45.1359 28.449 45.1278C28.3891 45.1209 28.3437 45.0733 28.3371 45.0159C28.2903 44.6124 28.2775 44.2089 28.2745 43.8054C28.2734 43.4019 28.2839 42.9985 28.3371 42.595C28.3463 42.5251 28.4104 42.4759 28.4803 42.4851C28.5388 42.4929 28.5828 42.5392 28.5902 42.595Z" fill="#2E3349"/>
<path d="M27.6175 42.5715C27.6707 43.0032 27.6812 43.4349 27.6801 43.8665C27.677 44.2982 27.6643 44.7299 27.6175 45.1615C27.6099 45.2314 27.5469 45.2819 27.477 45.2741C27.4166 45.2675 27.3708 45.2195 27.3644 45.1615C27.3177 44.7299 27.3049 44.2982 27.3018 43.8665C27.3007 43.4349 27.3112 43.0032 27.3644 42.5715C27.3732 42.5016 27.437 42.4521 27.5069 42.4608C27.5659 42.4683 27.6105 42.5151 27.6175 42.5715Z" fill="#2E3349"/>
<path d="M26.6449 42.5479C26.6981 43.0078 26.7086 43.4676 26.7075 43.9275C26.7044 44.3874 26.6916 44.8472 26.6449 45.307C26.6376 45.377 26.5749 45.4277 26.505 45.4203C26.4442 45.414 26.3978 45.3656 26.3918 45.307C26.345 44.8472 26.3322 44.3874 26.3292 43.9275C26.328 43.4676 26.3386 43.0078 26.3918 42.5479C26.4001 42.478 26.4635 42.4281 26.5334 42.4365C26.593 42.4436 26.6381 42.4908 26.6449 42.5479Z" fill="#2E3349"/>
<path d="M25.6713 42.5244C25.7244 43.0125 25.735 43.5005 25.7338 43.9885C25.7307 44.4766 25.718 44.9646 25.6713 45.4527C25.6644 45.5226 25.602 45.5736 25.5321 45.5667C25.4708 45.5606 25.4239 45.5118 25.4181 45.4527C25.3714 44.9646 25.3586 44.4766 25.3556 43.9885C25.3544 43.5005 25.365 43.0125 25.4181 42.5244C25.4261 42.4545 25.4891 42.4043 25.559 42.4122C25.6192 42.419 25.6648 42.4667 25.6713 42.5244Z" fill="#2E3349"/>
<path d="M24.6986 42.5009C24.7518 43.0171 24.7623 43.5333 24.7612 44.0495C24.7581 44.5657 24.7454 45.082 24.6986 45.5982C24.6921 45.6681 24.63 45.7195 24.5601 45.7129C24.4983 45.7071 24.451 45.6579 24.4455 45.5982C24.3987 45.082 24.3859 44.5657 24.3829 44.0495C24.3817 43.5333 24.3923 43.0171 24.4455 42.5009C24.453 42.4309 24.5157 42.3803 24.5856 42.3878C24.6463 42.3943 24.6924 42.4425 24.6986 42.5009Z" fill="#2E3349"/>
<path d="M23.726 42.4773C23.7791 43.0217 23.7896 43.5661 23.7885 44.1105C23.7854 44.6549 23.7727 45.1994 23.726 45.7438C23.7198 45.8137 23.6581 45.8653 23.5881 45.8591C23.5259 45.8536 23.478 45.804 23.4728 45.7438C23.4261 45.1993 23.4133 44.6549 23.4102 44.1105C23.4091 43.5661 23.4196 43.0217 23.4728 42.4773C23.4798 42.4073 23.5422 42.3564 23.6121 42.3634C23.6734 42.3696 23.7201 42.4183 23.726 42.4773Z" fill="#2E3349"/>
<path d="M22.7533 42.4537C22.8065 43.0263 22.817 43.5989 22.8159 44.1715C22.8128 44.7441 22.8 45.3167 22.7533 45.8893C22.7475 45.9592 22.6861 46.0112 22.6162 46.0054C22.5534 46.0002 22.5051 45.9501 22.5001 45.8893C22.4534 45.3167 22.4406 44.7441 22.4376 44.1715C22.4364 43.5989 22.447 43.0263 22.5001 42.4537C22.5068 42.3838 22.5688 42.3324 22.6387 42.3391C22.7005 42.3449 22.7477 42.3941 22.7533 42.4537Z" fill="#2E3349"/>
<path d="M21.7806 42.4302C21.8338 43.031 21.8443 43.6318 21.8432 44.2326C21.8401 44.8334 21.8274 45.4342 21.7806 46.035C21.7752 46.1049 21.7141 46.1572 21.6442 46.1518C21.581 46.1468 21.5322 46.0963 21.5275 46.035C21.4808 45.4342 21.468 44.8334 21.4649 44.2326C21.4638 43.6318 21.4743 43.031 21.5275 42.4302C21.5337 42.3603 21.5954 42.3086 21.6653 42.3148C21.7276 42.3204 21.7754 42.37 21.7806 42.4302Z" fill="#2E3349"/>
<path d="M7.22194 43.6835C7.9475 43.6835 8.53568 43.0953 8.53568 42.3698C8.53568 41.6442 7.9475 41.056 7.22194 41.056C6.49638 41.056 5.9082 41.6442 5.9082 42.3698C5.9082 43.0953 6.49638 43.6835 7.22194 43.6835Z" fill="white"/>
<path d="M7.22251 43.9683C6.34112 43.9683 5.62402 43.2512 5.62402 42.3698C5.62402 41.4883 6.34114 40.7712 7.22251 40.7712C8.10398 40.7712 8.82109 41.4884 8.82109 42.3698C8.82109 43.2512 8.10398 43.9683 7.22251 43.9683ZM7.22251 41.3408C6.65522 41.3408 6.19363 41.8025 6.19363 42.3698C6.19363 42.9371 6.65524 43.3987 7.22251 43.3987C7.7899 43.3987 8.25148 42.9371 8.25148 42.3698C8.25148 41.8024 7.7899 41.3408 7.22251 41.3408Z" fill="#2E3349"/>
<path d="M9.79737 44.0368C10.2577 44.0368 10.6309 43.6636 10.6309 43.2033C10.6309 42.7429 10.2577 42.3698 9.79737 42.3698C9.33704 42.3698 8.96387 42.7429 8.96387 43.2033C8.96387 43.6636 9.33704 44.0368 9.79737 44.0368Z" fill="#FFDA22"/>
<path d="M9.79744 44.2741C9.20699 44.2741 8.72656 43.7937 8.72656 43.2033C8.72656 42.6128 9.20699 42.1324 9.79744 42.1324C10.3879 42.1324 10.8682 42.6128 10.8682 43.2033C10.8682 43.7937 10.3879 44.2741 9.79744 44.2741ZM9.79744 42.6071C9.4687 42.6071 9.20123 42.8745 9.20123 43.2033C9.20123 43.532 9.4687 43.7994 9.79744 43.7994C10.1262 43.7994 10.3936 43.532 10.3936 43.2033C10.3936 42.8745 10.1262 42.6071 9.79744 42.6071Z" fill="#2E3349"/>
<path d="M7.22203 43.0313C6.85731 43.0313 6.56055 42.7346 6.56055 42.3698C6.56055 42.005 6.85729 41.7083 7.22203 41.7083C7.58685 41.7083 7.88361 42.005 7.88361 42.3698C7.88361 42.7346 7.58685 43.0313 7.22203 43.0313ZM7.22203 42.0155C7.02668 42.0155 6.86779 42.1744 6.86779 42.3698C6.86779 42.5652 7.0267 42.7241 7.22203 42.7241C7.41746 42.7241 7.57637 42.5652 7.57637 42.3698C7.57637 42.1744 7.41746 42.0155 7.22203 42.0155Z" fill="#2E3349"/>
<path d="M30.9633 43.4025C31.0133 43.0767 31.0951 42.7662 31.1888 42.455C31.2842 42.1453 31.3981 41.8408 31.5295 41.5427C31.6626 41.2455 31.8097 40.9531 31.9808 40.6728C32.1571 40.3915 32.3395 40.1308 32.5287 39.8708C32.7186 39.6118 32.9129 39.3559 33.1126 39.1063L33.7063 38.3661C33.8967 38.1195 34.073 37.8701 34.221 37.6014C34.3718 37.3342 34.4951 37.0488 34.613 36.757L34.6135 36.7558C34.6381 36.6949 34.7074 36.6655 34.7684 36.6901C34.8234 36.7123 34.8527 36.7709 34.8399 36.8269C34.7679 37.1424 34.6686 37.4553 34.5354 37.758C34.4012 38.0601 34.2309 38.3473 34.045 38.6137C33.6724 39.1461 33.2775 39.634 32.912 40.149C32.7273 40.404 32.5414 40.6629 32.3767 40.9191C32.2113 41.1792 32.06 41.4499 31.9193 41.7272C31.6386 42.2808 31.3971 42.8653 31.1948 43.4548L31.1933 43.4591C31.172 43.5212 31.1043 43.5543 31.0422 43.533C30.987 43.514 30.9547 43.4583 30.9633 43.4025Z" fill="#2E3349"/>
<path d="M12.1579 43.4548C11.9556 42.8652 11.7141 42.2808 11.4333 41.7271C11.2926 41.4499 11.1413 41.1792 10.9759 40.9191C10.8112 40.6629 10.6253 40.404 10.4407 40.149C10.0752 39.634 9.68025 39.1461 9.30765 38.6137C9.12177 38.3473 8.9514 38.0601 8.81722 37.758C8.68403 37.4553 8.58471 37.1424 8.51276 36.8268C8.49816 36.7628 8.5383 36.699 8.60236 36.6844C8.66012 36.6712 8.71769 36.7025 8.73916 36.7558L8.73956 36.757C8.85749 37.0487 8.98085 37.3341 9.13164 37.6013C9.27959 37.87 9.4559 38.1195 9.64632 38.3661L10.2401 39.1063C10.4397 39.3559 10.6341 39.6118 10.824 39.8708C11.0132 40.1308 11.1956 40.3914 11.3718 40.6728C11.5429 40.9531 11.6901 41.2455 11.8231 41.5427C11.9546 41.8407 12.0684 42.1452 12.1639 42.455C12.2576 42.7662 12.3394 43.0767 12.3894 43.4025C12.3993 43.4674 12.3548 43.5281 12.2899 43.5381C12.2321 43.5469 12.1776 43.5126 12.1593 43.4592L12.1579 43.4548Z" fill="#2E3349"/>
<path d="M23.5454 38.5891L23.047 39.106C22.9975 39.157 22.964 39.2204 22.9485 39.2878C22.936 39.341 22.9354 39.3975 22.9466 39.4527L22.9689 39.5612L23.0899 40.1561C23.1545 40.4708 22.8297 40.723 22.5402 40.5825L21.8944 40.2687C21.7796 40.213 21.645 40.2171 21.5338 40.2803L20.9089 40.6338C20.6292 40.7924 20.2893 40.5613 20.3336 40.243L20.4328 39.5319C20.4501 39.4052 20.4044 39.2783 20.3104 39.1922L19.7807 38.7078C19.5536 38.4998 19.6489 38.1291 19.9355 38.0483C19.9482 38.0449 19.9614 38.0419 19.9748 38.0394L20.6818 37.9137C20.8071 37.8912 20.9139 37.8084 20.9667 37.6925L21.2056 37.1681L21.2642 37.0393C21.3975 36.7463 21.8083 36.7335 21.9599 37.017L22.2977 37.6507C22.3577 37.763 22.4694 37.8388 22.5962 37.8533L23.3096 37.9341C23.629 37.9706 23.768 38.3571 23.5454 38.5891Z" fill="#FFDA22"/>
<g opacity="0.6">
<g opacity="0.6">
<path opacity="0.6" d="M23.5448 38.5891L23.0465 39.1061C22.9969 39.157 22.9634 39.2204 22.948 39.2878C22.924 39.2737 22.9005 39.2585 22.877 39.2433C22.828 39.211 22.7775 39.1761 22.7514 39.1241C22.7191 39.0598 22.7305 38.9799 22.7665 38.9183C22.803 38.8561 22.8603 38.8095 22.9209 38.7706C23.0181 38.7085 23.1393 38.6455 23.1544 38.5306C23.1657 38.4458 23.1084 38.3637 23.0343 38.3208C22.9603 38.2779 22.8722 38.2671 22.7871 38.2613C22.6665 38.2524 22.5449 38.2519 22.4239 38.259C22.3403 38.264 22.2545 38.2726 22.1734 38.2525C21.994 38.2078 21.8765 38.0349 21.8137 37.8617C21.7503 37.6881 21.7244 37.5008 21.6399 37.3368C21.6209 37.2996 21.5974 37.2625 21.5638 37.2378C21.5309 37.2146 21.4905 37.2041 21.451 37.1955C21.3686 37.1784 21.2869 37.17 21.2051 37.1681L21.2636 37.0393C21.397 36.7463 21.8078 36.7335 21.9593 37.017L22.2972 37.6507C22.3572 37.763 22.4688 37.8388 22.5957 37.8533L23.309 37.9341C23.6284 37.9706 23.7675 38.3572 23.5448 38.5891Z" fill="white"/>
</g>
</g>
<path d="M23.0899 40.1561C23.1545 40.4708 22.8297 40.723 22.5402 40.5825L21.8944 40.2687C21.7796 40.213 21.645 40.2171 21.5338 40.2803L20.9089 40.6338C20.6292 40.7924 20.2893 40.5613 20.3336 40.243L20.4328 39.5319C20.4501 39.4052 20.4044 39.2783 20.3104 39.1922L19.7807 38.7078C19.5536 38.4998 19.6489 38.1291 19.9355 38.0483C19.9403 38.0624 19.9457 38.077 19.9536 38.0933C20.0044 38.2031 20.0951 38.2967 20.1941 38.3645C20.3849 38.4957 20.616 38.5761 20.7647 38.7528C20.9742 39.0021 20.9598 39.3611 20.9795 39.6861C20.9833 39.743 20.9908 39.8059 21.0335 39.8441C21.0743 39.8803 21.1354 39.883 21.1887 39.8731C21.3677 39.839 21.5158 39.6896 21.6978 39.6841C21.9468 39.6765 22.4813 40.2301 22.6787 40.0741C22.8359 39.9498 22.5867 39.5289 22.9689 39.5611L23.0899 40.1561Z" fill="#FFAA00"/>
<path d="M20.7167 40.9224C20.5942 40.9224 20.4721 40.8859 20.3657 40.8136C20.1673 40.6789 20.0646 40.4477 20.0976 40.2101L20.1966 39.4991C20.2035 39.45 20.1858 39.4007 20.1492 39.3672L19.6196 38.8826C19.4427 38.7208 19.3744 38.4772 19.4412 38.2469C19.5081 38.0167 19.6962 37.8476 19.9323 37.8057L20.6391 37.6801C20.688 37.6714 20.7293 37.6393 20.7498 37.5942L21.0472 36.9407C21.1465 36.7225 21.3571 36.5822 21.5967 36.5747C21.8344 36.5669 22.0552 36.6939 22.1681 36.9054L22.5059 37.5388C22.5293 37.5825 22.5727 37.612 22.6219 37.6175L23.3352 37.6984C23.5734 37.7254 23.7719 37.8823 23.8531 38.1078C23.9343 38.3334 23.8815 38.5808 23.7152 38.7535L23.2172 39.2705C23.1828 39.3062 23.1681 39.3566 23.178 39.4051L23.3216 40.1085C23.3695 40.3435 23.2817 40.5808 23.0922 40.7277C22.9027 40.8745 22.6511 40.9007 22.4356 40.796L21.79 40.4821C21.7453 40.4604 21.693 40.462 21.6498 40.4865L21.0252 40.8405C20.9286 40.8952 20.8225 40.9224 20.7167 40.9224ZM21.6164 37.049C21.6147 37.049 21.6131 37.049 21.6116 37.0491C21.5835 37.05 21.5143 37.0603 21.4793 37.1373L21.1819 37.7907C21.0968 37.978 20.9249 38.1114 20.7222 38.1474L20.0154 38.273C19.9321 38.2878 19.9049 38.3522 19.8971 38.3793C19.8892 38.4063 19.8777 38.4754 19.94 38.5324L20.4697 39.0171C20.6215 39.156 20.6952 39.3607 20.6669 39.5646L20.5678 40.2756C20.5562 40.3593 20.6091 40.4051 20.6324 40.4209C20.6556 40.4368 20.718 40.469 20.7913 40.4274L21.4159 40.0735C21.5948 39.9719 21.8122 39.965 21.9976 40.0552L22.6431 40.369C22.7195 40.406 22.7792 40.3698 22.8013 40.3526C22.8236 40.3353 22.8735 40.2862 22.8567 40.2033L22.7131 39.5001C22.6718 39.2986 22.7324 39.0896 22.8753 38.9413L23.3733 38.4242C23.4319 38.3633 23.4161 38.2951 23.4065 38.2687C23.3971 38.2422 23.3657 38.1795 23.2818 38.17L22.5685 38.0892C22.3641 38.066 22.1842 37.9438 22.0872 37.7622L21.7493 37.1287C21.7116 37.0581 21.647 37.049 21.6164 37.049Z" fill="#2E3349"/>
</svg>
