<svg width="60" height="53" viewBox="0 0 60 53" fill="none" xmlns="http://www.w3.org/2000/svg">
<path d="M44.8547 22.4331H59.3346C59.8155 22.4331 60.07 21.8428 59.7376 21.4879C59.4508 21.1817 59.0017 21.0499 58.4679 21.1826C58.3135 19.9763 57.3793 19.0495 56.2494 19.0495C55.7614 19.0495 55.3088 19.2232 54.9403 19.5184C54.6393 17.8416 53.3059 16.5776 51.7064 16.5776C50.1048 16.5776 48.7707 17.844 48.4712 19.5232C47.9888 19.1639 47.4074 18.9547 46.7827 18.9547C45.4341 18.9547 44.2915 19.6261 43.8958 21.1582C43.7295 21.802 44.2027 22.4331 44.8547 22.4331Z" fill="white"/>
<path d="M9.99245 13.8555H24.4723C24.9532 13.8555 25.2077 13.2652 24.8753 12.9103C24.5885 12.6041 24.1394 12.4722 23.6056 12.605C23.4512 11.3987 22.517 10.4718 21.3871 10.4718C20.899 10.4718 20.4465 10.6455 20.078 10.9408C19.777 9.26395 18.4436 8 16.8441 8C15.2425 8 13.9084 9.26633 13.6088 10.9455C13.1264 10.5863 12.5451 10.3771 11.9204 10.3771C10.5718 10.3771 9.42923 11.0485 9.03353 12.5806C8.86722 13.2244 9.34038 13.8555 9.99245 13.8555Z" fill="white"/>
<path d="M43.9924 49.8555H58.4723C58.9532 49.8555 59.2077 49.2652 58.8753 48.9103C58.5885 48.6041 58.1394 48.4722 57.6056 48.605C57.4512 47.3987 56.517 46.4718 55.3871 46.4718C54.899 46.4718 54.4465 46.6455 54.078 46.9408C53.777 45.2639 52.4436 44 50.8441 44C49.2425 44 47.9084 45.2663 47.6088 46.9455C47.1264 46.5863 46.5451 46.3771 45.9204 46.3771C44.5718 46.3771 43.4292 47.0485 43.0335 48.5806C42.8672 49.2244 43.3404 49.8555 43.9924 49.8555Z" fill="white"/>
<path d="M14.0609 39.3524H0.517861C0.0680632 39.3524 -0.169961 38.8002 0.140945 38.4683C0.409263 38.1819 0.829267 38.0586 1.32847 38.1828C1.47287 37.0545 2.34665 36.1876 3.40344 36.1876C3.85995 36.1876 4.28321 36.3501 4.62792 36.6262C4.9094 35.0579 6.15652 33.8757 7.65251 33.8757C9.15051 33.8757 10.3983 35.0601 10.6785 36.6307C11.1296 36.2947 11.6734 36.099 12.2576 36.099C13.519 36.099 14.5876 36.727 14.9577 38.1599C15.1133 38.7621 14.6707 39.3524 14.0609 39.3524Z" fill="white"/>
<path d="M26.1423 18.0175L26.109 19.3488L26.0885 20.1715L26.0734 20.7672L26.0091 23.311C25.6041 23.5259 25.1046 23.6349 24.5438 23.6576C24.484 23.6599 24.4235 23.6614 24.3629 23.6622C21.4709 23.6841 17.1107 21.5399 15.6386 19.4964C14.3254 17.6739 15.9474 15.9989 16.8314 15.7916C18.7273 15.3465 20.8821 16.8822 23.0967 17.6678C23.354 17.7594 23.6121 17.8404 23.871 17.907C24.5695 18.0879 25.2719 18.1628 25.9712 18.0493C26.028 18.0402 26.0855 18.0296 26.1423 18.0175Z" fill="white"/>
<g opacity="0.35">
<g opacity="0.35">
<path opacity="0.35" d="M26.0734 20.7671L26.0091 23.3109C25.6042 23.5259 25.1047 23.6349 24.5438 23.6576C21.6557 23.7741 17.1417 21.583 15.6386 19.4964C15.1081 18.7599 15.0566 18.0477 15.242 17.4468C15.2852 17.6368 15.3457 17.8343 15.4237 18.0379C16.1775 20.0042 21.1296 22.5374 23.4267 22.0243C25.1766 21.633 24.9896 20.8678 26.0265 20.6453L26.0734 20.7671Z" fill="#2E3349"/>
</g>
</g>
<path d="M24.3066 23.9657C23.2153 23.9658 21.8931 23.679 20.4541 23.1146C18.234 22.2438 16.2946 20.9252 15.3928 19.6732C14.6793 18.6828 14.7868 17.7873 15.0026 17.2106C15.3493 16.2841 16.1679 15.636 16.762 15.4967C18.2009 15.1591 19.6994 15.846 21.2864 16.5732C22.8692 17.2986 24.5059 18.0485 26.0802 17.7209C26.2431 17.6865 26.4041 17.7917 26.4382 17.9556C26.4723 18.1192 26.3673 18.2796 26.2035 18.3136C24.4353 18.6825 22.7059 17.8898 21.0341 17.1236C19.5442 16.4408 18.137 15.7958 16.9003 16.0861C16.5332 16.1722 15.8564 16.6566 15.5697 17.4227C15.3311 18.0604 15.4369 18.6985 15.8841 19.3194C17.6281 21.7405 23.5874 24.2529 25.8673 23.0435C26.0153 22.9652 26.1984 23.0214 26.2767 23.169C26.355 23.3168 26.2988 23.5 26.1511 23.5784C25.6624 23.8375 25.0361 23.9657 24.3066 23.9657Z" fill="#2E3349"/>
<path d="M44.9434 34.9372C44.9434 34.9372 48.8105 24.5677 52.9725 24.5677C58.6312 24.5677 57.1237 34.9372 52.4919 34.9372C48.2752 34.9372 44.9434 34.9372 44.9434 34.9372Z" fill="#FFDA22"/>
<g opacity="0.6">
<g opacity="0.6">
<path opacity="0.6" d="M56.3439 27.0993C55.7581 26.1661 54.8045 25.5493 53.424 25.5493C50.0529 25.5493 46.8749 32.3527 45.7888 34.9374C45.2476 34.9374 44.9434 34.9374 44.9434 34.9374C44.9434 34.9374 48.8109 24.5676 52.9729 24.5676C54.7946 24.5676 55.8732 25.6424 56.3439 27.0993Z" fill="white"/>
</g>
</g>
<g opacity="0.35">
<g opacity="0.35">
<path opacity="0.35" d="M45.1906 34.311C46.281 34.311 48.9911 34.311 52.2235 34.311C55.395 34.311 57.1008 29.4507 56.0455 26.3852C56.0669 26.426 56.0874 26.4674 56.1076 26.5092C55.967 26.2182 55.7973 25.9494 55.5958 25.7112C56.3753 28.781 54.6823 33.2245 51.6503 33.2245H45.6529C45.2684 34.0939 45.0255 34.7206 44.9609 34.89C44.9939 34.8035 45.0721 34.6012 45.1906 34.311Z" fill="#2E3349"/>
</g>
</g>
<path d="M52.4923 35.24H44.5078L44.6601 34.8315C44.821 34.4001 48.6505 24.265 52.973 24.265C54.2588 24.265 55.3076 24.7762 56.0059 25.7432C56.6104 26.5802 56.93 27.7123 56.93 29.0172C56.93 32.0099 55.2334 35.24 52.4923 35.24ZM45.3874 34.6346H52.4923C54.7846 34.6346 56.3245 31.73 56.3245 29.0172C56.3245 27.8572 56.037 26.8204 55.515 26.0976C54.927 25.2834 54.0718 24.8705 52.973 24.8705C51.3871 24.8705 49.5511 26.6086 47.6638 29.8969C46.5484 31.8404 45.7198 33.8057 45.3874 34.6346Z" fill="#2E3349"/>
<path d="M52.2074 36.4731C52.2074 41.892 36.345 46.5625 18.2691 46.5625C15.1671 46.5625 9.43652 46.5625 9.43652 36.4731C9.43652 26.3838 15.1672 26.3838 18.2691 26.3838C36.345 26.3838 52.2074 31.0543 52.2074 36.4731Z" fill="#008CFF"/>
<g opacity="0.4">
<g opacity="0.4">
<path opacity="0.4" d="M52.2074 36.4728C52.2074 36.5886 52.1998 36.7044 52.1855 36.8195C51.284 34.6049 47.7752 32.5697 42.6574 31C41.6674 32.5485 39.6458 33.8942 36.6426 34.6102C32.1574 35.6796 26.0397 34.2 22.4992 32.6689C19.5663 31.4004 18.3939 29.0654 18.0049 27.8583C14.8291 27.881 9.6439 28.3487 9.6439 37.9465C9.6439 38.7207 9.67795 39.4352 9.74154 40.0952C9.54551 39.0621 9.43652 37.8632 9.43652 36.4728C9.43652 26.8645 14.6339 26.4066 17.8089 26.3854C17.9679 26.3839 18.1215 26.3839 18.2691 26.3839C19.0577 26.3839 19.8426 26.393 20.6222 26.4104C20.7054 26.6208 20.7864 26.8615 20.8659 27.1355C20.9416 27.3966 21.0475 27.6486 21.1845 27.8916C22.1291 29.5786 24.52 30.8441 28.243 31.6668C32.5018 32.6083 35.088 32.2375 37.4176 31.5555C38.453 31.2528 39.1584 30.7427 39.6587 30.1788C40.0121 29.7815 40.2634 29.3569 40.4549 28.9603C41.423 29.2146 42.3448 29.4848 43.216 29.7686C48.747 31.5737 52.2074 33.9419 52.2074 36.4728Z" fill="white"/>
</g>
</g>
<g opacity="0.35">
<g opacity="0.35">
<path opacity="0.35" d="M9.43955 36.0977C9.56785 45.8456 15.2021 45.847 18.2691 45.847C35.9456 45.847 51.5047 41.3806 52.1839 36.1155C52.1914 36.1735 52.197 36.2316 52.201 36.2898C52.1751 35.8982 52.0671 35.5106 51.8804 35.1281C51.3643 35.9554 50.4856 36.7523 49.298 37.5047L46.0617 36.0114C46.0617 36.0114 46.1162 37.6341 47.2424 38.6218C42.4924 40.8651 34.8874 42.565 26.2032 43.2137L22.8473 39.8918C22.8473 39.8918 21.3888 41.7219 21.7286 43.4491C20.6547 43.4824 19.5693 43.4997 18.4764 43.4997C15.3756 43.4997 9.64993 43.4997 9.6439 33.4259C9.50994 34.3228 9.43652 35.3332 9.43652 36.4731C9.43649 36.3461 9.43774 36.2214 9.43955 36.0977Z" fill="#2E3349"/>
</g>
</g>
<path d="M18.2691 46.8652C16.7345 46.8652 14.4154 46.8652 12.5172 45.5502C10.2721 43.9948 9.13379 40.9409 9.13379 36.4732C9.13379 32.0055 10.2721 28.9515 12.5172 27.3961C14.4154 26.0811 16.7345 26.0811 18.2691 26.0811C26.9291 26.0811 35.6162 27.1837 42.1028 29.1061C48.8141 31.0953 52.5102 33.7116 52.5102 36.4732C52.5102 39.2348 48.8141 41.8511 42.1028 43.8402C35.6162 45.7626 26.9291 46.8652 18.2691 46.8652ZM18.2691 26.6865C16.7226 26.6865 14.6046 26.6865 12.862 27.8938C10.79 29.3294 9.7393 32.2159 9.7393 36.4732C9.7393 40.7305 10.79 43.6169 12.862 45.0524C14.6046 46.2598 16.7226 46.2598 18.2691 46.2598C26.8734 46.2598 35.4977 45.1663 41.9307 43.2597C48.2693 41.3811 51.9047 38.9075 51.9047 36.4732C51.9047 34.0389 48.2693 31.5653 41.9307 29.6867C35.4976 27.7801 26.8732 26.6865 18.2691 26.6865Z" fill="#2E3349"/>
<g opacity="0.4">
<g opacity="0.4">
<path opacity="0.4" d="M10.5002 48.6893C15.2811 48.6893 19.1567 43.0807 19.1567 36.1622C19.1567 29.2436 15.2811 23.635 10.5002 23.635C5.71939 23.635 1.84375 29.2436 1.84375 36.1622C1.84375 43.0807 5.71939 48.6893 10.5002 48.6893Z" fill="white"/>
</g>
</g>
<g opacity="0.4">
<g opacity="0.4">
<g opacity="0.4">
<path opacity="0.4" d="M10.5005 26.8855C11.0067 26.8052 11.5472 26.8403 12.0609 26.9884C12.5743 27.1378 13.0594 27.388 13.4982 27.6969C13.9371 28.0077 14.3253 28.3808 14.6715 28.7851C14.8461 28.9863 15.0055 29.1991 15.1572 29.4163C15.3098 29.6333 15.4513 29.8572 15.5811 30.087C16.1103 31.0028 16.4747 31.9978 16.7212 33.0129C16.8406 33.5217 16.935 34.0363 16.9941 34.5543C17.0494 35.0726 17.0832 35.5929 17.086 36.1134C17.0816 36.6337 17.0592 37.1547 17.0014 37.6732L16.9531 38.0615L16.8925 38.4485C16.8483 38.7061 16.8003 38.963 16.7368 39.2172C16.501 40.2362 16.1352 41.2328 15.6156 42.157C15.487 42.3886 15.3448 42.6133 15.1948 42.8332C15.0458 43.0536 14.8848 43.267 14.7116 43.4713C14.3676 43.8811 13.9796 44.2602 13.5395 44.578C13.0999 44.8947 12.6114 45.1533 12.0913 45.3113C11.5707 45.4678 11.0198 45.5118 10.5004 45.4379C10.3827 45.4212 10.3009 45.3122 10.3176 45.1945C10.331 45.1 10.4038 45.0286 10.4929 45.0128L10.5004 45.0115C10.9623 44.9299 11.3889 44.7711 11.7746 44.5521C12.1582 44.3264 12.5024 44.0459 12.8084 43.7259C13.4199 43.0834 13.8836 42.2986 14.2415 41.4692C14.4226 41.0544 14.5718 40.6242 14.7037 40.1882C14.8295 39.7499 14.9361 39.3049 15.019 38.8546C15.1874 37.9543 15.2652 37.0344 15.2702 36.1134C15.2686 35.6528 15.2541 35.1924 15.213 34.7343C15.179 34.2755 15.1153 33.8202 15.0346 33.3689C14.9584 32.9164 14.8501 32.471 14.729 32.03L14.6297 31.7022C14.5952 31.5934 14.5564 31.4865 14.5201 31.3782C14.445 31.1631 14.3654 30.9493 14.276 30.7404C13.9224 29.9044 13.4632 29.1102 12.8497 28.4528C12.543 28.1251 12.1953 27.8361 11.8051 27.6018C11.4126 27.3745 10.9755 27.2067 10.5005 27.1186L10.4975 27.1181C10.4334 27.1062 10.3911 27.0446 10.403 26.9805C10.4123 26.9301 10.4526 26.8932 10.5005 26.8855Z" fill="white"/>
</g>
</g>
</g>
<path d="M10.5002 48.992C8.08558 48.992 5.8233 47.6426 4.13011 45.1923C2.46051 42.7761 1.54102 39.5691 1.54102 36.1621C1.54102 32.7551 2.46053 29.5482 4.13011 27.132C5.8233 24.6817 8.08564 23.3323 10.5002 23.3323C12.9149 23.3323 15.1772 24.6818 16.8704 27.132C18.54 29.5482 19.4595 32.7551 19.4595 36.1621C19.4595 39.5691 18.54 42.7761 16.8704 45.1923C15.1771 47.6426 12.9149 48.992 10.5002 48.992ZM10.5002 23.9378C5.894 23.9378 2.14649 29.4216 2.14649 36.1621C2.14649 42.9027 5.89398 48.3866 10.5002 48.3866C15.1065 48.3866 18.854 42.9027 18.854 36.1621C18.854 29.4216 15.1065 23.9378 10.5002 23.9378Z" fill="#2E3349"/>
<path d="M10.5003 39.4102C11.7399 39.4102 12.7447 37.956 12.7447 36.1621C12.7447 34.3683 11.7399 32.9141 10.5003 32.9141C9.26073 32.9141 8.25586 34.3683 8.25586 36.1621C8.25586 37.956 9.26073 39.4102 10.5003 39.4102Z" fill="#FFDA22"/>
<g opacity="0.35">
<g opacity="0.35">
<path opacity="0.35" d="M10.5009 38.694C11.6557 38.694 12.6053 37.4329 12.7303 35.8102C12.7096 35.5331 12.6661 35.2657 12.5997 35.0143C12.2802 36.2414 11.4615 37.1142 10.5009 37.1142C9.5404 37.1142 8.72161 36.2415 8.40106 35.0143C8.33466 35.2657 8.29116 35.5331 8.27051 35.8102C8.39555 37.4328 9.34616 38.694 10.5009 38.694Z" fill="#2E3349"/>
</g>
</g>
<path d="M10.5003 39.7129C9.09577 39.7129 7.95312 38.12 7.95312 36.162C7.95312 34.2042 9.09577 32.6113 10.5003 32.6113C11.9048 32.6113 13.0475 34.2042 13.0475 36.162C13.0475 38.12 11.9048 39.7129 10.5003 39.7129ZM10.5003 33.2168C9.42967 33.2168 8.55862 34.5381 8.55862 36.162C8.55862 37.7861 9.42967 39.1074 10.5003 39.1074C11.571 39.1074 12.442 37.7861 12.442 36.162C12.442 34.5381 11.571 33.2168 10.5003 33.2168Z" fill="#2E3349"/>
<path d="M23.5698 44.1846C26.3117 46.0874 33.9381 50.9923 40.9044 51.9059C42.5106 52.1166 44.3426 52.1652 45.903 51.6341C47.4095 51.1213 47.8667 49.842 47.1036 48.8191L40.3069 40.8991C39.4127 39.9066 38.1113 39.3359 36.7421 39.3359H24.5278C23.4165 39.3359 22.5156 40.491 22.5156 41.9159C22.5156 42.8631 22.9201 43.7338 23.5698 44.1846Z" fill="#FFDA22"/>
<g opacity="0.35">
<g opacity="0.35">
<path opacity="0.35" d="M45.9026 50.9187C44.3427 51.4493 42.5104 51.4008 40.9043 51.1904C33.9381 50.2769 26.3113 45.3717 23.5699 43.4689C23.2452 43.2434 22.9811 42.9134 22.7987 42.5206C22.617 42.1278 22.5156 41.6737 22.5156 41.1999C22.5156 40.3794 22.8146 39.6483 23.28 39.176C23.2354 39.391 23.2119 39.6165 23.2119 39.8496C23.2119 40.3234 23.6895 41.0839 24.401 41.8996C26.5702 44.3862 34.4422 48.9259 41.2918 49.8402C42.8714 50.0506 44.6719 50.099 46.2068 49.5677C46.7533 49.3785 47.1597 49.0856 47.4163 48.739C47.6419 49.6071 47.1083 50.5085 45.9026 50.9187Z" fill="#2E3349"/>
</g>
</g>
<path d="M43.0293 52.3589C42.3609 52.3589 41.6412 52.3079 40.8651 52.2061C33.8904 51.2913 26.3259 46.4657 23.3973 44.4334C22.6667 43.9264 22.2129 42.9617 22.2129 41.9159C22.2129 40.3264 23.2514 39.0332 24.5278 39.0332H36.742C38.1982 39.0332 39.5795 39.6394 40.5318 40.6964L47.3462 48.638C47.7485 49.1772 47.8698 49.7972 47.6878 50.3836C47.4755 51.0677 46.8606 51.6279 46.0006 51.9206C45.141 52.2132 44.1585 52.3589 43.0293 52.3589ZM23.7424 43.9359C26.6347 45.943 34.1007 50.7083 40.9439 51.6057C42.9089 51.8635 44.5448 51.7765 45.8054 51.3475C46.48 51.1178 46.9553 50.7012 47.1095 50.2042C47.2317 49.8104 47.1455 49.3859 46.8668 49.008L40.0772 41.0962C39.2443 40.1719 38.027 39.6387 36.742 39.6387H24.5278C23.5853 39.6387 22.8184 40.6602 22.8184 41.9159C22.8184 42.7663 23.1725 43.5404 23.7424 43.9359Z" fill="#2E3349"/>
<path d="M46.8163 37.0531C48.086 37.7403 51.6175 39.5118 54.8435 39.8418C55.5872 39.9179 56.4356 39.9355 57.1582 39.7436C57.8558 39.5584 58.0675 39.0964 57.7141 38.7269L54.5668 35.8664C54.1527 35.508 53.5501 35.3019 52.916 35.3019H47.2599C46.7453 35.3019 46.3281 35.7191 46.3281 36.2337C46.3281 36.5758 46.5154 36.8903 46.8163 37.0531Z" fill="#FFDA22"/>
<g opacity="0.35">
<g opacity="0.35">
<path opacity="0.35" d="M46.3467 35.8719C46.3673 35.9791 46.4045 36.0816 46.4598 36.1738C46.5438 36.3153 46.6656 36.4349 46.8163 36.5159C48.0863 37.2032 51.6178 38.975 54.8435 39.3049C55.5875 39.3814 56.436 39.3988 57.1587 39.2066C57.5244 39.1097 57.7564 38.9361 57.8434 38.7398C57.8868 38.8411 57.8929 38.9446 57.8631 39.0437C57.8945 38.9398 57.887 38.8311 57.8377 38.7251C57.8051 38.7357 57.7718 38.7455 57.737 38.7546C57.0142 38.9468 56.1658 38.9294 55.4225 38.853C52.196 38.523 48.6645 36.7512 47.3953 36.0639C47.2447 35.983 47.1228 35.8634 47.038 35.7218C46.954 35.5803 46.9071 35.4161 46.9071 35.245C46.9071 35.2268 46.9079 35.2094 46.9086 35.192C46.5973 35.3186 46.3708 35.6085 46.334 35.9556C46.3371 35.9274 46.3412 35.8994 46.3467 35.8719Z" fill="#2E3349"/>
</g>
</g>
<path d="M55.8271 40.1988C55.5132 40.1988 55.1759 40.1801 54.8127 40.143C51.5593 39.8102 48.036 38.0575 46.6723 37.3194C46.2733 37.1035 46.0254 36.6875 46.0254 36.2337C46.0254 35.553 46.5792 34.9991 47.26 34.9991H52.916C53.6224 34.9991 54.2963 35.2318 54.765 35.6376L57.9329 38.5177C58.1507 38.7454 58.2327 39.0291 58.1576 39.2961C58.062 39.6364 57.726 39.9062 57.2358 40.0363C56.8271 40.1448 56.3612 40.1988 55.8271 40.1988ZM46.9604 36.787C48.2923 37.5077 51.7294 39.219 54.8743 39.5407C55.7692 39.6323 56.5116 39.6021 57.0805 39.451C57.4033 39.3654 57.5485 39.2258 57.5748 39.1322C57.5905 39.0761 57.566 39.0125 57.5018 38.9431L54.3632 36.0905C54.0084 35.7835 53.4789 35.6047 52.916 35.6047H47.26C46.9131 35.6047 46.6309 35.8869 46.6309 36.2337C46.6309 36.4649 46.7571 36.6769 46.9604 36.787Z" fill="#2E3349"/>
<path d="M33.232 46.6456C32.8545 46.4771 32.4825 46.2976 32.1116 46.1153C31.9259 46.0247 31.7453 45.9248 31.5621 45.8292C31.3794 45.7329 31.1966 45.6365 31.0158 45.5365C30.2947 45.133 29.5839 44.7092 28.8936 44.2514C28.2002 43.7989 27.5301 43.3074 26.8914 42.7751C26.5734 42.5076 26.2644 42.2275 25.9682 41.934C25.6759 41.6337 25.3903 41.3342 25.1487 40.9762C25.1182 40.931 25.1302 40.8698 25.1753 40.8392C25.2132 40.8137 25.2625 40.818 25.2954 40.8468L25.3023 40.8528C25.9071 41.3824 26.5677 41.871 27.2259 42.3471C27.8859 42.8243 28.5518 43.2947 29.2284 43.7528C29.3962 43.8692 29.5645 43.9849 29.736 44.0963L30.2444 44.4397C30.4136 44.5545 30.5878 44.6621 30.758 44.776L31.2695 45.1165C31.6151 45.3368 31.9559 45.5655 32.2985 45.7923C32.643 46.016 32.9863 46.2423 33.3242 46.4798L33.3256 46.4808C33.3686 46.511 33.379 46.5704 33.3488 46.6135C33.3221 46.6514 33.2728 46.6639 33.232 46.6456Z" fill="#2E3349"/>
<path d="M51.9742 37.9918C51.7879 37.9518 51.6021 37.908 51.4177 37.8592C51.3257 37.834 51.2346 37.806 51.143 37.7791C51.0514 37.7522 50.9596 37.7259 50.8698 37.6935C50.6891 37.6321 50.5077 37.5718 50.3308 37.4996C50.242 37.4642 50.152 37.4319 50.0642 37.3941L49.8014 37.2791C49.4515 37.1241 49.1112 36.9466 48.7834 36.7477C48.6211 36.6453 48.4602 36.5408 48.3067 36.4248C48.1527 36.3093 48.0033 36.1897 47.8665 36.049C47.8475 36.0294 47.8479 35.998 47.8675 35.979C47.8838 35.9631 47.9083 35.9607 47.927 35.9717L47.9293 35.9731C48.2523 36.1622 48.5841 36.3406 48.9169 36.5113C49.2489 36.6849 49.5872 36.8458 49.9254 37.008C50.2659 37.1652 50.6095 37.3169 50.9561 37.4639L51.4778 37.6825C51.6526 37.7539 51.8283 37.8237 52.0021 37.9011L52.0035 37.9017C52.0275 37.9124 52.0384 37.9406 52.0277 37.9646C52.0184 37.9855 51.9958 37.9964 51.9742 37.9918Z" fill="#2E3349"/>
<path d="M45.4103 50.0677C44.8836 50.24 44.3475 50.2728 43.8125 50.283C43.2775 50.29 42.744 50.2526 42.2164 50.1852C41.9516 50.1566 41.6908 50.1054 41.4281 50.0653C41.2973 50.0419 41.1679 50.012 41.0379 49.9856C40.908 49.9586 40.778 49.9321 40.6491 49.9005C40.3918 49.8361 40.1354 49.7683 39.8808 49.6948C39.628 49.6138 39.3752 49.5342 39.1267 49.4401C39.0902 49.4263 39.0718 49.3855 39.0856 49.3491C39.0971 49.3187 39.1273 49.3009 39.1581 49.3038L39.1598 49.3039C39.4242 49.3284 39.6844 49.3674 39.9445 49.405C40.0742 49.4249 40.2046 49.4412 40.3345 49.4595L40.7227 49.5195C41.2412 49.5912 41.7566 49.6728 42.2734 49.7363C42.7895 49.808 43.3067 49.8585 43.8239 49.9001C44.339 49.9361 44.8652 49.9661 45.3716 49.9259L45.3817 49.9251C45.4221 49.9219 45.4574 49.952 45.4605 49.9923C45.4633 50.0267 45.4418 50.0574 45.4103 50.0677Z" fill="#2E3349"/>
<path d="M56.7436 38.7369C56.4311 38.8423 56.1099 38.8612 55.7904 38.8661C55.4707 38.8687 55.1518 38.8446 54.8368 38.8014C54.6785 38.7832 54.5228 38.7509 54.366 38.7256C54.2105 38.6933 54.0552 38.6604 53.901 38.6232C53.7476 38.5832 53.5945 38.5418 53.4426 38.4969C53.2918 38.4477 53.141 38.3992 52.9926 38.3435C52.9744 38.3366 52.9651 38.3163 52.972 38.2981C52.9779 38.2825 52.9937 38.2734 53.0096 38.2756L53.0105 38.2757C53.1676 38.2968 53.3223 38.3251 53.4771 38.3526C53.6319 38.3792 53.7869 38.4041 53.9407 38.4333C54.25 38.4831 54.5579 38.5367 54.8671 38.5771C55.1758 38.6224 55.4856 38.653 55.7956 38.6747C56.1042 38.6929 56.4199 38.7053 56.722 38.6666L56.7273 38.6659C56.7473 38.6634 56.7657 38.6775 56.7682 38.6976C56.7704 38.7151 56.7598 38.7314 56.7436 38.7369Z" fill="#2E3349"/>
<g opacity="0.6">
<g opacity="0.6">
<g opacity="0.6">
<path opacity="0.6" d="M9.16259 34.9064C9.18014 34.741 9.2296 34.5923 9.29461 34.4423C9.32927 34.369 9.36844 34.2969 9.41289 34.2264C9.45829 34.1567 9.51132 34.0907 9.56914 34.0272C9.68375 33.8991 9.83227 33.7924 10.0001 33.7194C10.1692 33.6487 10.3565 33.6179 10.5357 33.629C10.7156 33.6371 10.8937 33.6873 11.0504 33.7658C11.2083 33.8436 11.3445 33.9507 11.4605 34.069C11.6899 34.3102 11.8472 34.5909 11.9264 34.9013C11.9368 34.9423 11.9121 34.9839 11.8711 34.9944C11.8413 35.002 11.8111 34.9909 11.7928 34.9686L11.7884 34.9631C11.6064 34.7389 11.4076 34.5276 11.193 34.3712C10.9786 34.2126 10.7477 34.1165 10.5128 34.1087C10.2761 34.0973 10.0602 34.1764 9.85898 34.3341C9.66077 34.4917 9.48409 34.7192 9.3294 34.958L9.32546 34.964C9.29878 35.0052 9.24381 35.017 9.20264 34.9903C9.17361 34.9715 9.15923 34.9386 9.16259 34.9064Z" fill="white"/>
</g>
</g>
</g>
<g opacity="0.6">
<g opacity="0.6">
<path opacity="0.6" d="M28.4048 41.9403C30.4626 43.294 34.6486 45.9176 37.481 46.8198C37.8063 46.9234 38.0187 46.4501 37.7109 46.3025C36.582 45.7615 35.0197 45.0115 33.7595 43.93C33.2564 43.4982 32.0658 42.5804 31.3187 41.9246C30.8531 41.5158 30.2637 41.276 29.6449 41.243L28.6523 41.19C28.2352 41.1677 28.0559 41.7108 28.4048 41.9403Z" fill="white"/>
</g>
</g>
<g opacity="0.6">
<g opacity="0.6">
<path opacity="0.6" d="M49.5445 36.1197C50.3653 36.5771 52.0351 37.4635 53.1649 37.7683C53.2946 37.8033 53.3794 37.6434 53.2565 37.5936C52.8063 37.4108 52.1831 37.1574 51.6804 36.792C51.4797 36.6461 51.0048 36.336 50.7068 36.1144C50.5211 35.9763 50.286 35.8953 50.0392 35.8841L49.6432 35.8662C49.4769 35.8587 49.4053 36.0422 49.5445 36.1197Z" fill="white"/>
</g>
</g>
<path d="M41.0559 29.1068C40.7707 29.3996 40.3539 29.6271 39.8783 29.8034C38.2112 30.4216 35.82 30.4146 35.82 30.4146L33.4313 19.3325L33.0957 17.7748C33.2714 17.8178 37.411 17.6987 39.7005 18.7356C41.6099 19.6006 42.4434 27.6828 41.0559 29.1068Z" fill="white"/>
<g opacity="0.35">
<g opacity="0.35">
<path opacity="0.35" d="M41.0552 29.1068C40.77 29.3995 40.3532 29.6271 39.8777 29.8033C39.8562 29.8112 39.8348 29.8191 39.8133 29.8265C39.783 29.8376 39.7528 29.8482 39.722 29.8583C39.6874 29.8704 39.6522 29.8821 39.6165 29.8933C39.5946 29.9002 39.5726 29.9071 39.5506 29.9145C39.4593 29.9423 39.3664 29.9692 39.2721 29.9946C39.2315 30.0054 39.1904 30.0162 39.1493 30.0265C39.1376 30.0293 39.1258 30.0325 39.1141 30.0352C39.0862 30.0423 39.0583 30.0494 39.03 30.056C39.0206 30.0582 39.0109 30.0604 39.0011 30.0626C38.9546 30.0735 38.9081 30.084 38.8611 30.0945C38.7676 30.1149 38.6741 30.1339 38.58 30.1519C38.5565 30.1564 38.533 30.1609 38.51 30.1654C38.463 30.1739 38.4159 30.1824 38.3694 30.1904C38.3464 30.1944 38.3228 30.1984 38.2993 30.2024C38.2763 30.2065 38.2527 30.21 38.2297 30.214C38.1738 30.2232 38.1184 30.2314 38.0635 30.2396C38.0365 30.2437 38.01 30.2478 37.9831 30.2514C37.8816 30.2661 37.7815 30.2794 37.6829 30.2911C37.6603 30.2941 37.6382 30.2966 37.6161 30.2991C37.6053 30.3003 37.5946 30.3016 37.5838 30.3028C37.5661 30.3052 37.5484 30.3071 37.5307 30.309C37.492 30.3134 37.4537 30.3177 37.4159 30.3216C37.3771 30.3255 37.3388 30.3294 37.301 30.3332C37.194 30.3437 37.0904 30.353 36.9907 30.3609C36.9519 30.3642 36.9136 30.3672 36.8762 30.3695C36.8374 30.3729 36.7996 30.3753 36.7628 30.3776C36.7343 30.3798 36.7063 30.3815 36.6792 30.3831C36.638 30.3861 36.5977 30.388 36.5583 30.3904C36.5421 30.3913 36.5254 30.3922 36.5097 30.3931C36.0885 30.4155 35.8193 30.4146 35.8193 30.4146L33.4307 19.3325C33.5828 19.3338 33.725 19.3363 33.855 19.339C34.3542 19.3497 34.6755 19.3671 34.6755 19.3671C34.6755 19.3671 37.17 18.8396 37.6073 19.7523C38.3103 21.2185 38.5922 22.2393 39.2696 24.4856C39.3385 24.7144 39.4036 24.9423 39.4641 25.168C39.6102 25.7136 40.2953 25.906 40.6917 25.5037C40.6943 25.5011 40.6968 25.4985 40.6993 25.496C41.1699 25.0128 41.3849 23.7626 41.3889 22.2877C41.9214 24.95 41.8943 28.2456 41.0552 29.1068Z" fill="#2E3349"/>
</g>
</g>
<path d="M35.8301 30.7173C35.8254 30.7173 35.8217 30.7173 35.819 30.7173C35.6519 30.7167 35.5168 30.5808 35.5172 30.4137C35.5178 30.2468 35.6533 30.1118 35.82 30.1118C35.8207 30.1118 35.821 30.1118 35.8221 30.1118C35.9091 30.1118 39.6654 30.1002 40.8388 28.8956C41.516 28.2004 41.6474 25.2796 41.1258 22.5174C40.7686 20.6262 40.1747 19.2828 39.5756 19.0116C37.7228 18.1725 34.5284 18.1116 33.4787 18.0916C33.1544 18.0854 33.0837 18.0837 33.0242 18.0692C32.8617 18.0296 32.7621 17.8658 32.8016 17.7034C32.8397 17.5471 32.9926 17.4495 33.1487 17.4769C33.1906 17.4805 33.3429 17.4834 33.4903 17.4862C34.6851 17.509 37.859 17.5695 39.8254 18.4601C40.9199 18.9556 41.4828 21.1444 41.7208 22.405C42.2156 25.0253 42.2267 28.3386 41.2725 29.3182C39.9351 30.691 36.1128 30.7173 35.8301 30.7173ZM33.1529 17.4777C33.1578 17.4786 33.1625 17.4797 33.1674 17.4808C33.1637 17.4799 33.1589 17.4787 33.1529 17.4777Z" fill="#2E3349"/>
<path d="M39.9816 19.1789C39.899 19.1726 39.7928 19.1739 39.6959 19.1767C39.5966 19.1805 39.4964 19.1862 39.3961 19.1961C39.1955 19.215 38.9938 19.2431 38.7932 19.2819C38.5931 19.3221 38.3919 19.367 38.1943 19.4262C37.9953 19.4821 37.7999 19.5513 37.6045 19.6246C37.7794 19.5117 37.9579 19.4011 38.1436 19.3025C38.3281 19.2006 38.5198 19.1117 38.7146 19.0264C38.91 18.9427 39.1105 18.8686 39.3157 18.8034C39.4182 18.7702 39.5224 18.7412 39.628 18.714C39.7363 18.6875 39.8359 18.6631 39.9603 18.6448L39.9629 18.6444C40.11 18.6227 40.2467 18.7243 40.2684 18.8713C40.29 19.0183 40.1885 19.1551 40.0414 19.1768C40.0217 19.1797 40.0007 19.1802 39.9816 19.1789Z" fill="#2E3349"/>
<path d="M41.6397 24.4727L39.6293 24.8645C39.4498 24.8995 39.3164 25.0508 39.3052 25.2333C39.264 25.9016 39.2492 27.4502 39.9451 27.8788C40.5228 28.2345 41.3748 28.0842 41.8272 27.5995C42.3332 27.0572 42.2115 25.5545 42.1149 24.8149C42.0849 24.585 41.8673 24.4284 41.6397 24.4727Z" fill="white"/>
<g opacity="0.35">
<g opacity="0.35">
<path opacity="0.35" d="M39.3053 25.2336C39.2638 25.9017 39.2493 27.4503 39.9453 27.8787C40.523 28.2346 41.3748 28.0842 41.8275 27.5994C42.1384 27.2657 42.2122 26.5688 42.2003 25.9099C42.1474 26.246 42.0351 26.5272 41.8771 26.7216C40.9721 27.8356 40.0707 26.7546 40.0707 26.7546C40.0707 26.7546 39.9718 27.0546 39.8681 27.0832C39.4347 27.2027 39.3628 25.8101 39.3424 25.0887C39.3214 25.1329 39.3083 25.1818 39.3053 25.2336Z" fill="#2E3349"/>
</g>
</g>
<path d="M40.6787 28.3425C40.3685 28.3425 40.0626 28.2663 39.8046 28.1075C39.0125 27.6197 38.984 26.0871 39.0374 25.217C39.0562 24.9128 39.2785 24.6596 39.578 24.6011L41.5885 24.2093C41.7695 24.1742 41.959 24.2157 42.1086 24.3234C42.258 24.431 42.3574 24.5975 42.3813 24.7802C42.5181 25.8284 42.5671 27.2002 42.0236 27.7827C41.6834 28.1471 41.1755 28.3425 40.6787 28.3425ZM41.6912 24.7362L39.6809 25.128C39.6213 25.1396 39.577 25.1899 39.5732 25.25C39.4971 26.4888 39.6936 27.4087 40.0861 27.6504C40.5429 27.9315 41.2504 27.8245 41.6311 27.4165C41.9348 27.091 42.0163 26.1315 41.849 24.8498C41.8424 24.8 41.8122 24.7715 41.7948 24.7589C41.7773 24.7463 41.7403 24.7266 41.6912 24.7362Z" fill="#2E3349"/>
<path d="M40.895 28.2968C40.8409 28.2726 40.8173 28.2564 40.7833 28.2354C40.7525 28.2154 40.7228 28.1948 40.6953 28.1731C40.6391 28.1303 40.5877 28.0845 40.5399 28.0362C40.445 27.9393 40.3602 27.836 40.2922 27.7244C40.1518 27.5039 40.0606 27.2643 40.0069 27.0234C39.9537 26.7814 39.9357 26.5399 39.9296 26.3039C39.9265 26.0672 39.9282 25.8264 39.9864 25.5975C39.9727 25.8315 40.0158 26.062 40.0624 26.2884C40.1121 26.5159 40.1732 26.7369 40.2611 26.9408C40.3495 27.1448 40.4675 27.3308 40.6112 27.4816C40.681 27.5589 40.7612 27.6233 40.8423 27.6794C40.883 27.7072 40.9252 27.7318 40.9672 27.7522C40.9882 27.7631 41.009 27.7717 41.0294 27.7799C41.0468 27.7866 41.0756 27.7964 41.0758 27.7938C41.2147 27.8437 41.2868 27.9968 41.2369 28.1357C41.1869 28.2746 41.0339 28.3467 40.895 28.2968Z" fill="#2E3349"/>
<g opacity="0.35">
<g opacity="0.35">
<path opacity="0.35" d="M37.5342 10.8024C37.5607 10.7913 37.5866 10.7809 37.6106 10.771C37.6106 10.771 37.5625 10.8074 37.5342 10.8024Z" fill="#2E3349"/>
</g>
</g>
<path d="M38.7132 32.3161C38.7132 32.3161 35.3437 33.6588 30.8071 33.4719C23.246 33.1593 20.9346 29.1358 20.9346 29.1358C20.9346 29.1358 22.5944 26.8569 23.9855 24.36C24.1141 24.1292 24.2413 23.8953 24.3632 23.6622C24.4547 23.4896 24.5433 23.3171 24.6288 23.1453C24.6379 23.1263 24.6477 23.1082 24.656 23.0893C25.1086 22.1757 25.5249 21.0904 25.8867 20.0232C25.8988 19.9892 25.9102 19.9551 25.9215 19.9211C25.9858 19.7288 26.0487 19.5381 26.1092 19.3489C26.3007 18.7509 26.4733 18.1712 26.6231 17.6459C27.0129 16.2722 27.2437 15.2701 27.2437 15.2701L36.13 16.7559C36.13 16.7559 36.5122 18.044 36.9868 19.9369C36.9898 19.9513 36.9936 19.9657 36.9974 19.9808C37.4682 21.8639 38.0267 24.3335 38.39 26.7229C38.7057 28.7899 38.8729 30.7979 38.7132 32.3161Z" fill="white"/>
<g opacity="0.35">
<g opacity="0.35">
<path opacity="0.35" d="M39.4319 31.4729C39.4319 31.4729 36.2092 33.1373 31.6756 33.3923C24.1199 33.8177 21.4277 30.0379 21.4277 30.0379C21.4277 30.0379 22.8582 27.6084 23.9995 24.9882C24.0298 25.8714 24.3984 27.1452 26.1014 27.8158C28.6913 28.836 36.7072 29.1251 38.5661 25.938C39.0807 27.9641 39.4433 29.9463 39.4319 31.4729Z" fill="#2E3349"/>
</g>
</g>
<path d="M27.2934 14.9715L36.1843 16.4316L36.3873 16.465L36.4452 16.6622C36.8193 17.9391 37.1567 19.2165 37.4741 20.5038C37.7899 21.7905 38.0756 23.085 38.3291 24.3874C38.5805 25.6901 38.7966 27.0016 38.9469 28.3261C39.0191 28.9888 39.0749 29.6548 39.101 30.3252C39.1262 30.9956 39.1242 31.6709 39.0535 32.3518L39.032 32.5592L38.8402 32.6335C38.6364 32.7123 38.4479 32.774 38.2514 32.8384C38.0564 32.8997 37.8613 32.9595 37.6651 33.0137C37.4695 33.0714 37.2719 33.1188 37.0752 33.1709C36.8775 33.2182 36.6798 33.2655 36.4815 33.3095C35.6874 33.4815 34.8854 33.6155 34.0776 33.7009C33.2698 33.7859 32.4577 33.8255 31.6451 33.8287C30.8322 33.8188 30.0203 33.7774 29.2119 33.6793C27.5975 33.4857 25.9915 33.0864 24.5013 32.3911C23.758 32.0425 23.044 31.6223 22.3908 31.1147C22.0642 30.8612 21.7519 30.5876 21.4606 30.2899C21.3157 30.1403 21.1752 29.9856 21.0414 29.8235C20.9749 29.7419 20.9095 29.659 20.8464 29.573C20.8151 29.5297 20.7836 29.4865 20.7532 29.4411C20.7215 29.3948 20.6945 29.3537 20.6591 29.2944L20.5547 29.1196L20.6777 28.949C21.1587 28.2823 21.6267 27.5939 22.0787 26.9013C22.5308 26.2075 22.9686 25.5045 23.3847 24.7904C23.801 24.0768 24.1939 23.3496 24.5514 22.6112C24.7278 22.2447 24.8766 21.8683 25.0314 21.4811C25.193 21.0994 25.3723 20.7246 25.6072 20.3685L25.6089 20.3659C25.656 20.2946 25.752 20.2749 25.8233 20.322C25.8748 20.3559 25.8994 20.4155 25.8914 20.4729C25.8316 20.8956 25.7163 21.2997 25.5832 21.6969C25.5173 21.8953 25.442 22.0906 25.3598 22.287C25.2786 22.4831 25.1926 22.679 25.1017 22.8715C24.7362 23.6336 24.3392 24.3739 23.919 25.1004C23.4992 25.8268 23.0587 26.5395 22.6041 27.2426C22.1483 27.9463 21.6824 28.6374 21.1914 29.3232L21.2101 28.9778C21.2262 29.0041 21.2536 29.0471 21.2788 29.083C21.3041 29.1206 21.3318 29.1581 21.3591 29.1957C21.4146 29.2708 21.4733 29.3448 21.5334 29.418C21.6548 29.5639 21.7839 29.705 21.9176 29.8423C22.1869 30.1154 22.4784 30.3693 22.7845 30.6049C23.3967 31.0773 24.0712 31.4717 24.7769 31.7995C26.1917 32.4537 27.7315 32.8331 29.2908 33.0143C30.0713 33.1062 30.8592 33.1435 31.6461 33.1503C32.4334 33.1447 33.2205 33.1022 34.0038 33.0189C34.7872 32.9366 35.5656 32.8069 36.3351 32.6407C36.5272 32.5982 36.7185 32.5524 36.9098 32.5069C37.0998 32.4565 37.2913 32.4109 37.4794 32.3554C37.6688 32.3032 37.8561 32.2458 38.0427 32.1873C38.2263 32.1275 38.418 32.0641 38.5872 31.9986L38.3739 32.2802C38.4401 31.6473 38.4434 30.9987 38.4192 30.3504C38.3942 29.7016 38.3403 29.0511 38.2698 28.4014C38.1231 27.1019 37.9105 25.8059 37.6624 24.5161C37.4129 23.2263 37.1275 21.9421 36.8182 20.6634C36.5093 19.3857 36.1777 18.1081 35.8149 16.8493L36.0758 17.0799L27.1935 15.5686C27.0287 15.5406 26.9178 15.3842 26.9458 15.2194C26.9739 15.0551 27.1293 14.9445 27.2934 14.9715Z" fill="#2E3349"/>
<g opacity="0.35">
<g opacity="0.35">
<path opacity="0.35" d="M36.9867 19.9369C35.2262 21.3144 32.9587 22.0493 30.5572 21.8306C28.886 21.6785 27.3609 21.0843 26.0887 20.1716C26.0206 20.1239 25.9532 20.0739 25.8866 20.0232C25.104 19.4298 24.4236 18.7138 23.8711 17.907C24.5697 18.0879 25.272 18.1628 25.9714 18.0493C26.0281 18.0403 26.0857 18.0296 26.1424 18.0175L26.3386 18.2902C26.5301 17.6923 26.4732 18.1712 26.623 17.6459C27.0128 16.2722 27.2437 15.2701 27.2437 15.2701L36.13 16.7559C36.1299 16.7559 36.5121 18.044 36.9867 19.9369Z" fill="#2E3349"/>
</g>
</g>
<path d="M41.2118 14.421C41.0993 14.4104 41.0167 14.3107 41.0273 14.1982L41.5777 8.33181C41.5882 8.21933 41.688 8.1367 41.8005 8.14727C42.9805 8.25798 43.8473 9.30434 43.7366 10.4844L43.5489 12.4848C43.4382 13.6649 42.3918 14.5317 41.2118 14.421Z" fill="white"/>
<path d="M41.4143 14.4905C41.3456 14.4905 41.2764 14.4873 41.2067 14.4808C41.1362 14.4741 41.0727 14.4405 41.0276 14.386C40.9825 14.3316 40.9614 14.2629 40.968 14.1926L41.5184 8.32615C41.525 8.25581 41.5586 8.19221 41.613 8.14712C41.6674 8.10212 41.7362 8.08098 41.8065 8.08744C42.3932 8.1425 42.9233 8.4227 43.2992 8.87651C43.6751 9.33023 43.8519 9.9032 43.7968 10.4899L43.6092 12.4904C43.5019 13.6317 42.5385 14.4905 41.4143 14.4905ZM41.2178 14.3612C42.3642 14.4691 43.3821 13.6243 43.4896 12.4792L43.6773 10.4788C43.7293 9.92394 43.5622 9.38215 43.2068 8.95306C42.8513 8.52396 42.35 8.25897 41.7952 8.20699C41.7563 8.20297 41.7192 8.21494 41.6895 8.23958C41.6598 8.26422 41.6415 8.2989 41.6379 8.33735L41.0875 14.2038C41.0838 14.2422 41.0954 14.2798 41.12 14.3095C41.1446 14.3393 41.1794 14.3576 41.2178 14.3612Z" fill="#2E3349"/>
<g opacity="0.35">
<g opacity="0.35">
<path opacity="0.35" d="M43.6371 11.5468L43.5492 12.485C43.4384 13.6646 42.3921 14.5317 41.2118 14.4214C41.0993 14.4109 41.0168 14.3106 41.0273 14.1982L41.1731 12.6386C41.198 12.7127 41.2645 12.7684 41.347 12.7768L41.4862 12.7895C42.4187 12.8772 43.2682 12.3538 43.6371 11.5468Z" fill="#2E3349"/>
</g>
</g>
<path d="M41.4141 14.7644C41.3369 14.7644 41.2591 14.7608 41.1807 14.7535H41.1806C41.0374 14.74 40.9079 14.6715 40.8161 14.5608C40.7244 14.45 40.6813 14.3101 40.6948 14.1669L41.2453 8.30052C41.2586 8.1574 41.327 8.02791 41.4378 7.93609C41.5486 7.84435 41.6881 7.80171 41.8318 7.81465C42.4913 7.87651 43.0872 8.19156 43.5098 8.70164C43.9324 9.2118 44.1311 9.85591 44.0692 10.5155L43.8816 12.516C43.761 13.799 42.678 14.7644 41.4141 14.7644ZM41.3723 14.0959C41.3861 14.0963 41.4 14.0964 41.4136 14.0964C42.3371 14.0964 43.1285 13.3911 43.2165 12.4536L43.4041 10.4531C43.4494 9.97116 43.3042 9.5005 42.9954 9.12784C42.7143 8.7885 42.3283 8.56735 41.8978 8.49633L41.3723 14.0959ZM41.2431 14.0884C41.2431 14.0884 41.2434 14.0884 41.2435 14.0885C41.2434 14.0884 41.2432 14.0884 41.2431 14.0884H41.2431Z" fill="#2E3349"/>
<path d="M22.4367 6.33033C22.5492 6.34087 22.6318 6.44063 22.6212 6.55309L22.0708 12.4195C22.0602 12.532 21.9605 12.6146 21.848 12.604C20.668 12.4933 19.8011 11.447 19.9119 10.2669L20.0996 8.26648C20.2103 7.08645 21.2567 6.2196 22.4367 6.33033Z" fill="white"/>
<path d="M21.8679 12.6649C21.8597 12.6649 21.8514 12.6646 21.843 12.6638C21.2563 12.6088 20.7262 12.3286 20.3502 11.8747C19.9743 11.421 19.7976 10.848 19.8526 10.2613L20.0404 8.26085C20.0954 7.67424 20.3756 7.14406 20.8295 6.76818C21.2833 6.39223 21.8568 6.21599 22.4428 6.27061C22.5132 6.27716 22.5767 6.3108 22.6219 6.36523C22.667 6.41966 22.6881 6.48834 22.6816 6.55868L22.1311 12.4251C22.1182 12.562 22.0027 12.6649 21.8679 12.6649ZM22.2329 6.38078C21.7486 6.38078 21.2836 6.54766 20.906 6.86055C20.4769 7.21606 20.2119 7.71731 20.1599 8.27205L19.9722 10.2725C19.9201 10.8273 20.0872 11.3691 20.4427 11.7982C20.7981 12.2273 21.2994 12.4923 21.8542 12.5443C21.9343 12.5524 22.0042 12.4933 22.0116 12.4139L22.5621 6.5475C22.5657 6.50906 22.5541 6.47148 22.5295 6.44178C22.5048 6.41207 22.4701 6.39372 22.4317 6.39014H22.4316C22.3651 6.38384 22.2988 6.38078 22.2329 6.38078Z" fill="#2E3349"/>
<g opacity="0.35">
<g opacity="0.35">
<path opacity="0.35" d="M22.2238 10.7922L22.0709 12.4196C22.0604 12.532 21.9601 12.6146 21.8477 12.6041C21.2283 12.5458 20.6946 12.2299 20.3438 11.7718C20.027 11.358 19.8594 10.8277 19.9119 10.2674L19.9909 9.42444C20.2565 10.1954 20.9544 10.7807 21.8196 10.862L22.0337 10.882C22.1118 10.8892 22.1824 10.8523 22.2238 10.7922Z" fill="#2E3349"/>
</g>
</g>
<path d="M21.8677 12.939C21.8509 12.939 21.834 12.9382 21.8169 12.9366C21.1574 12.8748 20.5614 12.5597 20.1388 12.0496C19.7163 11.5395 19.5176 10.8954 19.5794 10.2358L19.7672 8.23532C19.8291 7.57584 20.1441 6.97987 20.6542 6.55726C21.1644 6.13473 21.8088 5.93603 22.468 5.99789C22.6112 6.01133 22.7407 6.07967 22.8324 6.19047C22.9242 6.30125 22.9674 6.44114 22.9539 6.58444L22.4035 12.4508C22.3773 12.7294 22.1421 12.939 21.8677 12.939ZM22.233 6.65483C21.8124 6.65483 21.4084 6.79986 21.0803 7.0716C20.7077 7.38037 20.4775 7.81584 20.4323 8.2977L20.2445 10.2982C20.1993 10.7801 20.3445 11.2508 20.6533 11.6235C20.9343 11.9628 21.3204 12.1839 21.7509 12.255L22.2764 6.65537C22.2619 6.65501 22.2474 6.65483 22.233 6.65483ZM22.4058 6.66295H22.4058H22.4058Z" fill="#2E3349"/>
<path d="M31.8259 20.4165C37.3712 20.4165 41.8666 15.9211 41.8666 10.3758C41.8666 4.83047 37.3712 0.335083 31.8259 0.335083C26.2805 0.335083 21.7852 4.83047 21.7852 10.3758C21.7852 15.9211 26.2805 20.4165 31.8259 20.4165Z" fill="white"/>
<path d="M31.8473 20.4789C31.2911 20.4789 30.731 20.433 30.1713 20.34C27.5097 19.8981 25.1796 18.4461 23.61 16.2517C22.0406 14.0571 21.4195 11.3828 21.8616 8.72124C22.7737 3.227 27.9863 -0.501091 33.4803 0.411513C36.1418 0.853437 38.472 2.3054 40.0415 4.49984C41.611 6.69438 42.232 9.36876 41.79 12.0302L41.7309 12.0204L41.79 12.0302C41.3481 14.6918 39.8961 17.022 37.7017 18.5915C35.9686 19.831 33.9363 20.4789 31.8473 20.4789ZM31.8203 0.394138C27.0295 0.394138 22.7899 3.86256 21.9798 8.74081C21.5433 11.3708 22.1568 14.0134 23.7076 16.1819C25.2586 18.3503 27.561 19.785 30.1909 20.2217C32.8212 20.6581 35.4634 20.0446 37.6319 18.4939C39.8003 16.943 41.235 14.6405 41.6717 12.0106V12.0106C42.1083 9.38064 41.4948 6.73817 39.9439 4.56967C38.3931 2.40127 36.0906 0.966526 33.4608 0.529845C32.9099 0.438443 32.3612 0.394138 31.8203 0.394138Z" fill="#2E3349"/>
<g opacity="0.35">
<g opacity="0.35">
<path opacity="0.35" d="M41.8635 10.6335C41.8523 11.0919 41.8082 11.5549 41.731 12.0206C40.8219 17.4907 35.6512 21.189 30.1808 20.2812C24.7107 19.3721 21.0125 14.2014 21.9202 8.73102C21.9462 8.5737 21.976 8.41686 22.0093 8.26306C21.8765 13.1957 25.3973 17.5949 30.4025 18.4262C35.7155 19.308 40.7451 15.8451 41.8635 10.6335Z" fill="#2E3349"/>
</g>
</g>
<path d="M31.8476 20.7529C31.2762 20.7529 30.7009 20.7058 30.1261 20.6104C27.3923 20.1565 24.9989 18.6651 23.3869 16.4111C21.7748 14.157 21.137 11.4101 21.5908 8.67634C22.5278 3.03296 27.8811 -0.79621 33.5249 0.141212C36.2586 0.595108 38.6519 2.08647 40.264 4.3405C41.8761 6.59454 42.5139 9.34144 42.06 12.0751L41.7305 12.0204L42.06 12.0751C41.6061 14.8089 40.1147 17.2023 37.8607 18.8143C36.0806 20.0875 33.9932 20.7529 31.8476 20.7529ZM31.8202 0.66815C27.1608 0.66815 23.0376 4.04143 22.2498 8.78573C21.3731 14.0658 24.9555 19.0747 30.2355 19.9514C32.7936 20.3762 35.3633 19.7793 37.4721 18.271C39.5811 16.7627 40.9763 14.5235 41.4011 11.9657C41.8258 9.40801 41.229 6.83795 39.7207 4.72903C38.2124 2.62012 35.9732 1.22488 33.4155 0.800171C32.8799 0.711221 32.3461 0.66815 31.8202 0.66815Z" fill="#2E3349"/>
<path d="M41.6568 12.2696C41.3642 14.2125 40.462 15.9214 39.1587 17.2514C38.1815 18.2485 34.5625 19.7062 30.452 19.1251C26.6408 18.5863 23.4833 16.0356 22.8431 14.7949C21.9892 13.1401 21.6301 11.2413 21.9226 9.29838C22.6967 4.15685 27.435 2.69047 32.8847 3.51097C38.3344 4.3315 42.4309 7.12803 41.6568 12.2696Z" fill="#371A45"/>
<path d="M32.3829 19.5947C31.7464 19.5947 31.085 19.552 30.4054 19.4559C26.4314 18.8941 23.225 16.2631 22.5465 14.9481C21.6287 13.1698 21.2988 11.1989 21.5925 9.24877C21.9761 6.70081 23.2943 4.88968 25.5103 3.86585C27.4357 2.97622 30.0027 2.73918 32.9346 3.18077C35.8662 3.62215 38.2499 4.60449 39.8279 6.0215C41.6443 7.65247 42.3708 9.77143 41.9872 12.3194C41.6935 14.2696 40.798 16.0559 39.3973 17.4852C38.5753 18.3241 35.8514 19.5947 32.3829 19.5947ZM30.2009 3.63815C27.0277 3.63815 22.9679 4.60037 22.253 9.34818C21.9804 11.1585 22.2872 12.9891 23.1401 14.6418C23.7446 15.8134 26.8048 18.2721 30.4989 18.7944C31.1408 18.8852 31.7678 18.9255 32.3711 18.9255C35.6168 18.9257 38.1927 17.7601 38.9202 17.0177C40.2219 15.6893 41.054 14.0303 41.3266 12.2199C41.6747 9.90816 41.0203 7.9899 39.3817 6.51845C37.901 5.1889 35.6373 4.2632 32.8352 3.84128C32.1404 3.73671 31.2156 3.63815 30.2009 3.63815Z" fill="#2E3349"/>
<g opacity="0.5">
<g opacity="0.5">
<path opacity="0.5" d="M39.1267 9.40626C38.4537 9.17671 37.6512 9.74361 37.3345 10.6725C37.0177 11.6013 37.3065 12.5404 37.9796 12.7699C38.6526 12.9995 39.455 12.4326 39.7718 11.5037C40.0886 10.5749 39.7998 9.6358 39.1267 9.40626Z" fill="white"/>
</g>
</g>
<g opacity="0.5">
<g opacity="0.5">
<path opacity="0.5" d="M36.8385 13.605C36.4934 13.4308 36.0491 13.6157 35.8462 14.0178C35.6433 14.42 35.7585 14.8871 36.1036 15.0613C36.4488 15.2354 36.893 15.0506 37.0959 14.6484C37.2989 14.2463 37.1836 13.7791 36.8385 13.605Z" fill="white"/>
</g>
</g>
<g opacity="0.35">
<g opacity="0.35">
<path opacity="0.35" d="M40.4599 7.18408C41.4928 8.51671 41.9673 10.2042 41.6567 12.2693C41.3641 14.2126 40.4615 15.9213 39.1589 17.2515C38.1815 18.2486 34.5621 19.7062 30.4517 19.1255C29.0003 18.9207 27.6443 18.4237 26.4854 17.8178C31.5532 18.4239 35.9645 16.6302 37.1763 15.3935C38.8306 13.7054 39.9756 11.5363 40.3465 9.07081C40.4461 8.41194 40.4813 7.78313 40.4599 7.18408Z" fill="#111A28"/>
</g>
</g>
<path d="M41.4859 7.8795C41.4176 7.8795 41.3497 7.85119 41.3012 7.79561L41.2808 7.77239L41.2656 7.74347C39.9448 5.14389 36.9131 3.31056 32.9478 2.71344C28.9605 2.11292 25.5199 3.0167 23.5083 5.19236L23.4883 5.21176C23.3858 5.30159 23.2299 5.29135 23.1402 5.18852C23.0544 5.09056 23.0601 4.94387 23.1502 4.85274C25.2752 2.55851 28.8727 1.60091 33.0213 2.22537C37.1438 2.84614 40.3077 4.77384 41.703 7.51481C41.7565 7.61397 41.737 7.74084 41.6487 7.81807C41.6017 7.85924 41.5436 7.8795 41.4859 7.8795Z" fill="#2E3349"/>
<g opacity="0.5">
<g opacity="0.5">
<path opacity="0.5" d="M23.6775 12.6907C23.6775 12.6907 22.8487 7.37882 25.8866 5.76913C28.9245 4.15945 32.856 4.75974 32.7261 4.9981C32.7261 4.9981 28.2135 5.39661 25.9917 8.58215C24.2785 11.0386 23.6775 12.6907 23.6775 12.6907Z" fill="white"/>
</g>
</g>
<g opacity="0.35">
<g opacity="0.35">
<path opacity="0.35" d="M22.9354 27.1078C23.3102 25.8583 23.5145 24.6796 23.6098 23.6182C23.4976 24.2231 23.3495 24.8536 23.1541 25.5043C22.9256 26.2674 22.7741 27.0765 22.7334 27.8862C22.7912 27.6232 22.8593 27.3629 22.9354 27.1078Z" fill="#2E3349"/>
</g>
</g>
<path d="M23.7188 29.4652L29.6152 30.6105C30.3131 30.7463 30.9956 30.2862 31.1315 29.5874L31.7408 26.4496C31.8597 25.8378 31.5213 25.2389 30.9664 25.0083C30.8879 24.9751 30.8047 24.9504 30.7177 24.9333L24.8221 23.7881C24.1234 23.6522 23.4409 24.1123 23.3059 24.8112L22.8226 27.2963L22.6956 27.9489C22.5597 28.6476 23.0209 29.3294 23.7188 29.4652Z" fill="white"/>
<g opacity="0.35">
<g opacity="0.35">
<path opacity="0.35" d="M23.7188 29.4651L29.6152 30.6105C30.3131 30.7463 30.9956 30.2861 31.1315 29.5874L31.7408 26.4495C31.8597 25.8378 31.5214 25.2389 30.9664 25.0083C30.5884 25.1656 30.3481 25.2666 30.3481 25.2666C29.5718 27.7295 28.6106 28.8462 25.473 28.2897C24.1187 28.0492 23.3065 27.6777 22.8226 27.2963L22.6956 27.9489C22.5597 28.6476 23.0209 29.3293 23.7188 29.4651Z" fill="#2E3349"/>
</g>
</g>
<path d="M29.8625 30.8584C29.766 30.8584 29.669 30.8491 29.5723 30.8303L23.6763 29.6849C23.2799 29.6079 22.9364 29.38 22.7092 29.0433C22.4821 28.7065 22.3993 28.3027 22.4763 27.9063L23.086 24.7681C23.2455 23.9468 24.0433 23.4086 24.8645 23.5682L30.7605 24.7135C31.1569 24.7906 31.5004 25.0185 31.7275 25.3552C31.9548 25.6919 32.0375 26.0957 31.9605 26.4921L31.3508 29.6303C31.2738 30.0267 31.046 30.3701 30.7092 30.5973C30.4545 30.7692 30.1616 30.8584 29.8625 30.8584ZM29.6576 30.3912C30.237 30.5034 30.7992 30.1241 30.9117 29.5451L31.5213 26.4068C31.5756 26.1277 31.5171 25.8431 31.3567 25.6054C31.1964 25.3677 30.9543 25.2069 30.6752 25.1527L24.7792 24.0073C24.2007 23.8945 23.6376 24.2743 23.5251 24.8534L22.9154 27.9916C22.8612 28.2708 22.9197 28.5554 23.08 28.7931C23.2404 29.0308 23.4824 29.1916 23.7615 29.2457L29.6576 30.3912Z" fill="#2E3349"/>
<path d="M23.4863 29.3959C23.5597 29.4266 23.6367 29.4496 23.7185 29.4651L29.615 30.6104C30.1264 30.7095 30.6294 30.4896 30.9151 30.0886C31.0192 29.9431 31.0946 29.7737 31.1303 29.5872L31.4017 28.1933L31.4912 27.7334L31.7406 26.4495C31.8765 25.7507 31.4153 25.069 30.7174 24.9332L29.4433 24.686C30.009 24.9108 30.3557 25.5153 30.236 26.1334L29.9073 27.8284L29.6266 29.2721C29.4908 29.9699 28.8082 30.431 28.1103 30.2952L23.4863 29.3959Z" fill="white"/>
<g opacity="0.35">
<g opacity="0.35">
<path opacity="0.35" d="M23.4863 29.3959C23.5597 29.4266 23.6367 29.4497 23.7185 29.4651L29.615 30.6105C30.3128 30.7462 30.9954 30.2861 31.1304 29.5872L31.4912 27.7334C31.2792 28.0322 30.9347 28.3825 30.5002 28.3419C30.2617 28.3201 30.0642 28.1071 29.9073 27.8284L29.6266 29.2721C29.4908 29.97 28.8082 30.431 28.1103 30.2952L23.4863 29.3959Z" fill="#2E3349"/>
</g>
</g>
<path d="M29.8632 30.8585C29.7666 30.8585 29.6695 30.8492 29.5727 30.8304L23.6763 29.6847C23.5829 29.6671 23.49 29.6396 23.4014 29.6031L23.5291 29.1767L28.1537 30.0756C28.4326 30.1297 28.7168 30.0714 28.9547 29.911C29.1924 29.7505 29.3532 29.5085 29.4072 29.2295L30.0168 26.0912C30.1147 25.5873 29.8391 25.0837 29.3615 24.8935L29.4869 24.4662L30.7605 24.7134C31.582 24.8734 32.1203 25.6714 31.9604 26.4923L31.3508 29.6303C31.274 30.0267 31.0461 30.3703 30.7093 30.5975C30.4547 30.7693 30.1619 30.8585 29.8632 30.8585ZM29.1799 30.2984L29.6581 30.3912C29.9371 30.4455 30.2213 30.3871 30.459 30.2267C30.6969 30.0663 30.8576 29.8242 30.9116 29.5451V29.545L31.5212 26.4068C31.634 25.8279 31.2544 25.2653 30.675 25.1525L30.243 25.0686C30.448 25.388 30.5325 25.7822 30.4559 26.1765L29.8463 29.3146C29.7696 29.7109 29.5418 30.0545 29.2049 30.2818C29.1966 30.2874 29.1883 30.2929 29.1799 30.2984Z" fill="#2E3349"/>
<path d="M27.6015 27.2766C27.5797 27.3928 27.5664 28.3613 27.5664 28.3613C27.5664 28.3613 27.8635 28.4172 28.2282 28.4859C28.684 28.5717 29.1423 28.1694 29.2519 27.5874C29.3615 27.0053 29.0809 26.4639 28.6252 26.378C28.3176 26.3201 27.9633 26.2534 27.9633 26.2534C27.9633 26.2534 27.6372 27.0873 27.6015 27.2766Z" fill="#22A7F0"/>
<g opacity="0.35">
<g opacity="0.35">
<path opacity="0.35" d="M27.6015 27.2766C27.5797 27.3928 27.5664 28.3613 27.5664 28.3613C27.5664 28.3613 27.8635 28.4172 28.2282 28.4859C28.684 28.5717 29.1423 28.1694 29.2519 27.5874C29.3615 27.0053 29.0809 26.4639 28.6252 26.378C28.3176 26.3201 27.9633 26.2534 27.9633 26.2534C27.9633 26.2534 27.6372 27.0873 27.6015 27.2766Z" fill="#2E3349"/>
</g>
</g>
<path d="M28.3533 28.6766C28.3006 28.6766 28.2477 28.6717 28.195 28.6618L27.7353 28.5753C27.5318 28.5369 27.3869 28.359 27.3907 28.1523C27.4049 27.3533 27.4205 27.2706 27.4256 27.2434C27.4465 27.1324 27.5465 26.8419 27.7227 26.3801C27.7956 26.1889 27.9945 26.078 28.1961 26.1152L28.6581 26.2022C28.9338 26.2541 29.1651 26.436 29.3092 26.7143C29.446 26.9781 29.488 27.2999 29.4276 27.6205C29.3672 27.9412 29.211 28.2257 28.9878 28.4216C28.7972 28.5889 28.5766 28.6766 28.3533 28.6766ZM27.7773 27.3094C27.7702 27.3526 27.7584 27.6007 27.7486 28.1587C27.748 28.1904 27.7702 28.2176 27.8015 28.2235L28.2612 28.3101C28.4267 28.3416 28.6006 28.2853 28.7517 28.1526C28.9151 28.0092 29.0302 27.7967 29.0758 27.5543C29.1215 27.3119 29.0916 27.0721 28.9915 26.879C28.899 26.7005 28.7571 26.5851 28.5919 26.554L28.1299 26.467C28.0985 26.4608 28.0682 26.4783 28.0571 26.5077C27.898 26.9245 27.7935 27.2241 27.7773 27.3094ZM27.6014 27.2766H27.6023H27.6014Z" fill="#2E3349"/>
<path d="M27.9654 26.2531C27.5097 26.1673 27.0514 26.5696 26.9418 27.1516C26.8321 27.7337 27.1127 28.2751 27.5684 28.3609C28.0241 28.4468 28.4824 28.0445 28.5921 27.4625C28.7017 26.8804 28.4211 26.339 27.9654 26.2531Z" fill="#22A7F0"/>
<g opacity="0.6">
<g opacity="0.6">
<path opacity="0.6" d="M28.5902 27.463C28.5769 27.5328 28.5589 27.6004 28.536 27.6644C28.5534 27.1658 28.288 26.7364 27.8867 26.661C27.4854 26.5855 27.0826 26.8878 26.917 27.3586C26.9193 27.2904 26.9262 27.2219 26.9395 27.1521C27.0494 26.5699 27.5074 26.1678 27.9633 26.2536C28.4193 26.3394 28.6995 26.8807 28.5902 27.463Z" fill="white"/>
</g>
</g>
<g opacity="0.35">
<g opacity="0.35">
<path opacity="0.35" d="M28.5903 27.463C28.4805 28.0452 28.0225 28.4473 27.5665 28.3615C27.1106 28.2757 26.8304 27.7344 26.9396 27.1521C26.953 27.0823 26.971 27.0147 26.9939 26.9507C27.0614 27.3271 27.2983 27.6222 27.6243 27.6838C28.025 27.7592 28.4277 27.4569 28.5938 26.9868C28.6207 27.1358 28.6216 27.2979 28.5903 27.463Z" fill="#2E3349"/>
</g>
</g>
<path d="M27.6917 28.552C27.6389 28.552 27.5859 28.5471 27.5332 28.5372C26.9813 28.4332 26.6362 27.7969 26.7638 27.1189C26.8242 26.7983 26.9805 26.5138 27.2037 26.3178C27.4392 26.1111 27.7204 26.0259 27.9964 26.0776C28.2721 26.1295 28.5033 26.3114 28.6475 26.5897C28.7843 26.8535 28.8263 27.1753 28.7659 27.496C28.7055 27.8165 28.5493 28.101 28.3261 28.297C28.1355 28.4643 27.9149 28.552 27.6917 28.552ZM27.8399 26.4209C27.7028 26.4209 27.5636 26.4781 27.4398 26.5867C27.2764 26.7302 27.1612 26.9427 27.1156 27.1852C27.0244 27.6693 27.2414 28.118 27.5995 28.1855C27.7651 28.2172 27.9388 28.1607 28.09 28.028C28.2534 27.8846 28.3685 27.6721 28.4141 27.4297C28.4598 27.1873 28.4299 26.9475 28.3298 26.7544C28.2373 26.5759 28.0954 26.4605 27.9302 26.4294C27.9003 26.4237 27.8702 26.4209 27.8399 26.4209ZM26.9397 27.152H26.9406H26.9397Z" fill="#2E3349"/>
<path d="M25.5563 30.0222C25.543 30.0222 25.5296 30.0211 25.5161 30.0186C25.3945 29.9965 25.3139 29.8802 25.3359 29.7586L25.6843 27.8405C25.7386 27.5412 25.6386 27.2383 25.4167 27.0303C25.0836 26.7181 24.9334 26.2634 25.0149 25.8139L25.3629 23.8978C25.3852 23.7762 25.5021 23.6958 25.623 23.7177C25.7446 23.7398 25.8251 23.8562 25.8031 23.9777L25.4551 25.8938C25.4008 26.1931 25.5008 26.4959 25.7227 26.7039C26.0558 27.0162 26.206 27.4709 26.1245 27.9204L25.7761 29.8384C25.7565 29.9466 25.6624 30.0222 25.5563 30.0222Z" fill="#2E3349"/>
<path d="M18.9538 26.7433C19.0357 27.3576 19.8837 30.2793 23.1931 31.7104C26.4189 33.1054 31.992 34.4536 36.0782 33.4792C40.1644 32.5048 42.2553 30.2507 42.201 28.0141C42.1872 27.4471 41.7636 27.0089 41.4822 26.8738C40.9561 26.621 40.1444 26.8985 39.8816 27.5604C39.5103 28.4959 38.9076 30.0749 36.7848 30.6961C34.6621 31.3172 32.3062 31.655 28.4259 30.7974C24.5456 29.9398 22.2529 28.5546 21.7054 26.6694C21.1349 24.7049 20.468 24.6301 19.808 24.8187C18.8086 25.1042 18.872 26.1291 18.9538 26.7433Z" fill="#FFDA22"/>
<g opacity="0.6">
<g opacity="0.6">
<path opacity="0.6" d="M42.1798 27.8191C42.0739 27.717 41.9634 27.6405 41.8688 27.5959C41.3253 27.3416 40.489 27.6163 40.2203 28.2778C39.8404 29.2118 39.2243 30.7898 37.037 31.4044C34.8496 32.0189 32.4209 32.3489 28.4156 31.4778C24.411 30.6074 22.0421 29.214 21.4706 27.3264C20.8757 25.3593 20.1878 25.2829 19.5081 25.4691C19.2644 25.5357 19.082 25.6447 18.9473 25.7794C19.026 25.3624 19.2538 24.9771 19.8078 24.819C20.4678 24.6305 21.1346 24.7047 21.7053 26.6695C22.2525 28.5548 24.5458 29.9399 28.4254 30.7974C32.3058 31.6549 34.6619 31.3174 36.7849 30.696C38.9072 30.0746 39.5104 28.4958 39.8813 27.5603C40.1439 26.8988 40.956 26.621 41.482 26.8738C41.7303 26.9934 42.089 27.3484 42.1798 27.8191Z" fill="white"/>
</g>
</g>
<g opacity="0.35">
<g opacity="0.35">
<path opacity="0.35" d="M36.0784 33.4796C31.9918 34.4534 26.4188 33.1054 23.1929 31.7103C19.8839 30.2791 19.0353 27.3573 18.954 26.7436C18.9031 26.3613 18.8589 25.8202 19.0738 25.3976C19.0773 25.4286 19.0814 25.4591 19.085 25.4882C19.1664 26.1025 20.1544 28.7375 23.3239 30.4555C26.5786 32.2198 30.9983 33.5677 36.2095 32.2241C39.6102 31.3474 41.6476 29.6999 42.1866 27.8545C42.1945 27.9067 42.1997 27.96 42.2007 28.0141C42.2554 30.2505 40.1643 32.505 36.0784 33.4796Z" fill="#2E3349"/>
</g>
</g>
<path d="M32.6496 34.1459C29.1182 34.1459 25.3026 33.1958 23.049 31.9767C19.9001 30.2731 18.8408 27.8196 18.6983 27.018C18.4617 25.6856 18.8362 24.7778 19.7259 24.5273C21.0385 24.1574 21.6906 25.4272 22.1127 26.5741C22.7723 28.3671 24.978 29.7252 28.4913 30.5018C32.4363 31.3736 34.768 30.9709 36.6998 30.4054C38.6597 29.8319 39.1454 28.5999 39.4999 27.7003L39.5107 27.6729C39.8923 26.7053 40.9051 26.3993 41.6253 26.6708C42.0496 26.8308 42.4875 27.3412 42.5037 28.0068C42.5336 29.2389 41.9789 30.4263 40.8996 31.4406C39.7801 32.4927 38.1372 33.2995 36.1485 33.7736C35.0681 34.0313 33.8759 34.1459 32.6496 34.1459ZM19.2946 26.9121C19.2995 26.9396 19.8541 29.5598 23.3372 31.4441C26.2753 33.0338 31.9552 34.1512 36.008 33.1847C39.6414 32.3183 41.9534 30.2916 41.8984 28.0215C41.8876 27.58 41.5941 27.3062 41.4116 27.2373C41.0329 27.0946 40.3462 27.205 40.074 27.895L40.0633 27.9223C39.6854 28.8809 39.1144 30.3297 36.8698 30.9865C34.8605 31.5747 32.4392 31.9944 28.3606 31.093C24.5827 30.2579 22.2893 28.8079 21.5444 26.7831C20.8313 24.845 20.1956 25.0241 19.89 25.11C19.1314 25.3237 19.1913 26.3308 19.2946 26.9121Z" fill="#2E3349"/>
<path d="M39.0748 27.6703C38.4171 28.9867 34.5079 29.9263 31.1217 29.378C31.1217 29.378 30.4481 28.993 30.4541 28.0878C30.4594 27.1833 31.1921 26.9075 31.1921 26.9075C31.1921 26.9075 34.2952 26.9598 36.5022 26.3981C37.163 26.2302 37.7435 26.0074 38.1363 25.7112C38.1363 25.7112 38.8954 26.017 39.1505 26.6387C39.2663 26.9184 39.2791 27.2618 39.0748 27.6703Z" fill="white"/>
<g opacity="0.35">
<g opacity="0.35">
<path opacity="0.35" d="M39.0748 27.6703C38.4171 28.9867 34.5079 29.9263 31.1217 29.378C31.1217 29.378 30.4481 28.993 30.4541 28.0878C30.4594 27.1833 31.1921 26.9075 31.1921 26.9075C31.1921 26.9075 34.2952 26.9598 36.5022 26.3981C36.3062 26.7926 36.0201 27.4865 36.2487 27.8248C36.5605 28.2857 38.4254 27.9902 39.1505 26.6387C39.2663 26.9184 39.2791 27.2618 39.0748 27.6703Z" fill="#2E3349"/>
</g>
</g>
<path d="M33.1727 29.8393C32.4674 29.8393 31.7575 29.7875 31.0739 29.6767C31.0382 29.6709 31.0037 29.6588 30.9723 29.6408C30.9385 29.6215 30.1446 29.1562 30.1514 28.0863C30.1584 26.9858 31.0475 26.6384 31.0853 26.6241C31.1211 26.6107 31.1606 26.6032 31.1971 26.6048C31.2486 26.6054 36.3533 26.6768 37.9544 25.4695C38.0392 25.4056 38.1513 25.3909 38.2499 25.4305C38.2868 25.4454 39.1593 25.8046 39.446 26.5614C39.5953 26.9555 39.5615 27.3743 39.3457 27.8061C38.7459 29.0061 36.0007 29.8393 33.1727 29.8393ZM31.2343 29.0892C34.5768 29.6112 38.2408 28.6621 38.8042 27.5354C38.9432 27.2571 38.968 27.0087 38.8797 26.7759C38.7438 26.4168 38.3695 26.1725 38.1636 26.061C36.3679 27.2179 31.8978 27.217 31.2566 27.2111C31.1261 27.2798 30.7605 27.5228 30.7569 28.0901C30.7531 28.6882 31.1111 28.9997 31.2343 29.0892Z" fill="#2E3349"/>
<path d="M25.7953 29.6247C25.5947 29.6247 25.3927 29.5979 25.1937 29.5439C23.9812 29.2139 23.2631 27.9592 23.5928 26.7466L24.4489 23.5993C24.5137 23.3609 24.7594 23.2203 24.998 23.285C25.2363 23.3499 25.3771 23.5957 25.3123 23.8341L24.4562 26.9815C24.2558 27.7179 24.6921 28.4801 25.4286 28.6805C25.7854 28.7775 26.1586 28.7298 26.4794 28.5461C26.8003 28.3625 27.0305 28.0648 27.1274 27.7081L27.9836 24.5607C28.0483 24.3224 28.294 24.1818 28.5327 24.2465C28.771 24.3114 28.9118 24.5572 28.8469 24.7956L27.9909 27.9429C27.8311 28.5302 27.4521 29.0202 26.9239 29.3226C26.5744 29.5226 26.1874 29.6247 25.7953 29.6247Z" fill="#2E3349"/>
<path d="M34.8004 21.6256C34.8004 21.6256 33.6668 23.5684 30.2756 24.0274C27.2633 24.4351 26.7115 26.5032 27.5663 27.7142C28.4211 28.9252 35.6218 30.5635 37.3254 24.7486" fill="white"/>
<g opacity="0.35">
<g opacity="0.35">
<path opacity="0.35" d="M37.3253 24.7487C35.6216 30.5636 28.4209 28.925 27.5664 27.7141C27.1698 27.1525 27.0759 26.407 27.39 25.7281C27.4392 25.834 27.547 25.9162 27.5664 26.0331C28.0149 28.7422 34.3896 28.1937 36.984 24.6159C37.099 24.4573 37.3491 24.5542 37.3253 24.7487Z" fill="#2E3349"/>
</g>
</g>
<path d="M34.841 21.649C34.7619 21.8915 34.6333 22.1066 34.4857 22.3075C34.3391 22.5102 34.1652 22.6894 33.9823 22.8595C33.6114 23.195 33.1759 23.4473 32.7294 23.6609L32.5617 23.7418C32.5055 23.7682 32.4473 23.7892 32.3902 23.8132C32.2754 23.8594 32.1608 23.9072 32.0447 23.9501L31.6916 24.0629C31.6326 24.0812 31.5741 24.1015 31.5146 24.118L31.3352 24.1624L30.976 24.2504C30.8553 24.2741 30.7339 24.2926 30.6128 24.3138L30.2551 24.3736C30.1437 24.3905 30.0325 24.4084 29.9231 24.4316C29.7028 24.4735 29.4873 24.5303 29.2791 24.6017C29.0702 24.6718 28.8686 24.7571 28.6804 24.8611C28.3034 25.0665 27.9758 25.3478 27.7646 25.6962C27.6573 25.8691 27.5851 26.0597 27.5461 26.2559C27.5056 26.452 27.503 26.6548 27.5364 26.8522C27.5672 27.0502 27.6389 27.241 27.7382 27.4155C27.762 27.4592 27.7923 27.5019 27.8183 27.5417C27.8315 27.5559 27.8441 27.5703 27.8564 27.585C27.8687 27.5998 27.8789 27.6151 27.899 27.6302C27.9364 27.6597 27.9647 27.6929 28.0081 27.7214L28.1344 27.8081C28.4988 28.0273 28.9301 28.1894 29.3683 28.307C29.8079 28.4259 30.261 28.5055 30.7168 28.5489C31.1727 28.5918 31.6322 28.5998 32.0873 28.5651C32.5417 28.5263 32.9917 28.4477 33.4237 28.317C33.8552 28.1857 34.2711 28.0127 34.6589 27.7929C35.0471 27.5736 35.4069 27.3091 35.7374 27.0061C36.07 26.7039 36.3522 26.3463 36.6094 25.9659L36.7975 25.6748C36.8526 25.5731 36.9072 25.4707 36.9652 25.3689C36.9932 25.3176 37.0239 25.2672 37.05 25.2147L37.1249 25.0554C37.1748 24.9488 37.2279 24.8426 37.2812 24.7355L37.2823 24.7334C37.2938 24.7102 37.3219 24.7009 37.345 24.7124C37.3637 24.7217 37.3734 24.7419 37.3703 24.7615C37.2199 25.7095 36.8192 26.6537 36.1449 27.4024C35.8113 27.7768 35.4162 28.0998 34.9836 28.3579C34.5485 28.613 34.0759 28.7935 33.5959 28.923C32.6337 29.1816 31.6365 29.2441 30.6597 29.1517C30.1708 29.105 29.6858 29.0201 29.2091 28.8912C28.7323 28.7613 28.264 28.5919 27.8136 28.3215C27.7575 28.2853 27.702 28.2454 27.6464 28.207C27.5908 28.1697 27.5363 28.1165 27.4819 28.0711C27.4546 28.0498 27.4279 28.0185 27.4015 27.9881L27.3237 27.8964C27.2837 27.838 27.2453 27.7834 27.2112 27.7235C27.0733 27.4876 26.9737 27.2277 26.928 26.9568C26.828 26.4159 26.9443 25.8411 27.2198 25.3743C27.4938 24.9027 27.9091 24.5418 28.3581 24.2861C28.5831 24.1565 28.8185 24.0513 29.0588 23.9685C29.2986 23.8835 29.5426 23.8169 29.788 23.7673C29.9106 23.74 30.0339 23.7216 30.1571 23.703L30.5017 23.6462C30.6144 23.6267 30.7278 23.61 30.8399 23.5885L31.1734 23.5122L31.3403 23.4746C31.3955 23.4605 31.4494 23.4426 31.504 23.4269L31.8311 23.3296L32.151 23.2134C32.204 23.1935 32.2585 23.1764 32.3105 23.1542L32.466 23.0859C32.8829 22.9075 33.2751 22.6813 33.6551 22.4352C33.8427 22.309 34.0335 22.1831 34.2158 22.0432C34.4006 21.9061 34.5841 21.7599 34.7607 21.6021L34.7643 21.599C34.7838 21.5815 34.8138 21.5832 34.8311 21.6027C34.8429 21.6158 34.846 21.6335 34.841 21.649Z" fill="#2E3349"/>
<path d="M19.9201 22.831C19.8339 22.831 19.7493 22.7897 19.6974 22.713C19.6144 22.5902 19.6467 22.4233 19.7694 22.3402C22.0095 20.8252 21.5197 17.2044 21.5144 17.168C21.4935 17.0213 21.5953 16.8852 21.7421 16.8642C21.8878 16.843 22.0249 16.9451 22.0458 17.0919C22.0691 17.2541 22.5855 21.0837 20.0702 22.7849C20.0241 22.8161 19.9718 22.831 19.9201 22.831Z" fill="#2E3349"/>
<path d="M33.9617 28.7446C33.9355 28.7446 33.909 28.7407 33.8827 28.7326C33.7411 28.6891 33.6615 28.5389 33.7051 28.3972C34.4531 25.9637 32.3054 23.6369 32.2836 23.6137C32.1823 23.5056 32.1876 23.3358 32.2955 23.2344C32.4034 23.1329 32.5731 23.138 32.6747 23.2459C32.7724 23.3498 35.0589 25.8203 34.2181 28.555C34.1826 28.6704 34.0764 28.7446 33.9617 28.7446Z" fill="#2E3349"/>
</svg>
