<svg width="40" height="55" viewBox="0 0 40 55" fill="none" xmlns="http://www.w3.org/2000/svg">
<path d="M27.8369 23.3516C27.8369 23.3516 35.3776 22.7097 36.6772 25.024C38.4684 28.2136 39.2264 36.7102 37.8805 38.6306C36.2428 40.9675 28.7129 41.7556 28.7129 41.7556" fill="white"/>
<path d="M27.8369 23.3516C27.8369 23.3516 35.3776 22.7097 36.6772 25.024C38.4684 28.2136 39.2264 36.7102 37.8805 38.6306C36.2428 40.9675 28.7129 41.7556 28.7129 41.7556L27.8369 23.3516Z" fill="white"/>
<g opacity="0.35">
<path opacity="0.35" d="M23.7373 24.8407C23.7373 24.8407 31.278 24.1989 32.5776 26.5131C34.3688 29.7027 35.1267 38.1993 33.7809 40.1198C32.1432 42.4566 24.6133 43.2447 24.6133 43.2447L23.7373 24.8407Z" fill="#2E3349"/>
</g>
<g opacity="0.35">
<path opacity="0.35" d="M37.8803 38.6307C36.2425 40.9677 28.713 41.7555 28.713 41.7555L28.5586 38.5204C30.0117 38.2742 35.8596 37.3755 37.1915 35.4761C38.0269 34.2844 38.0517 30.5613 37.5232 27.1445C38.6708 31.0088 38.9888 37.049 37.8803 38.6307Z" fill="#2E3349"/>
</g>
<path d="M28.713 42.0731C28.6374 42.0731 28.564 42.0462 28.5062 41.9965C28.4399 41.9396 28.4 41.858 28.3958 41.7708L27.5199 23.3668C27.5118 23.1962 27.64 23.0498 27.8101 23.0353C27.8292 23.0337 29.7423 22.8743 31.7897 23.0031C34.6215 23.1813 36.359 23.8089 36.9541 24.8686C38.8221 28.195 39.5539 36.7961 38.1406 38.8129C36.4394 41.2402 29.0593 42.0386 28.746 42.0714C28.735 42.0726 28.724 42.0731 28.713 42.0731ZM28.1688 23.6447L29.0139 41.4C30.474 41.2155 36.274 40.3699 37.6206 38.4484C38.1928 37.6319 38.3963 35.2308 38.1391 32.3313C37.8754 29.3601 37.2092 26.6196 36.4005 25.1795C35.4625 23.5092 30.4053 23.4927 28.1688 23.6447Z" fill="#2E3349"/>
<path d="M37.0754 32.3647L34.0275 32.883C33.7554 32.9292 33.5485 33.1528 33.525 33.4277C33.4387 34.4348 33.3601 36.771 34.3948 37.443C35.2536 38.0008 36.5447 37.8048 37.2449 37.0897C38.0282 36.2898 37.899 34.0178 37.7801 32.8983C37.7432 32.5502 37.4204 32.306 37.0754 32.3647Z" fill="white"/>
<g opacity="0.35">
<path opacity="0.35" d="M33.5252 33.4281C33.4384 34.4348 33.3603 36.7711 34.395 37.4428C35.254 38.0008 36.5447 37.8048 37.2454 37.0895C37.7267 36.5972 37.8633 35.5483 37.8693 34.5536C37.7772 35.0589 37.5976 35.4791 37.3522 35.7668C35.9461 37.415 34.625 35.7511 34.625 35.7511C34.625 35.7511 34.4649 36.2002 34.3075 36.2396C33.6491 36.4041 33.5911 34.3002 33.5864 33.2108C33.5531 33.2768 33.5316 33.3499 33.5252 33.4281Z" fill="#2E3349"/>
</g>
<path d="M35.555 38.0833C35.0795 38.0834 34.6107 37.9616 34.222 37.7092C33.0826 36.9692 33.0981 34.6921 33.2088 33.4005C33.2446 32.982 33.5594 32.6405 33.9743 32.5699L37.0223 32.0516C37.2732 32.0091 37.5328 32.0726 37.7353 32.2258C37.9377 32.3791 38.0691 32.6119 38.096 32.8646C38.2625 34.4326 38.2894 36.4769 37.4719 37.3117C36.9778 37.8164 36.2591 38.0833 35.555 38.0833ZM37.1784 32.6734C37.1619 32.6734 37.1454 32.6747 37.1287 32.6775L34.0809 33.1958C33.9511 33.2179 33.8526 33.3244 33.8415 33.4548C33.6763 35.3826 33.9479 36.774 34.5679 37.1767C35.2794 37.6388 36.4016 37.4971 37.0182 36.8675C37.5065 36.3688 37.6733 34.8976 37.4646 32.9317C37.456 32.8515 37.416 32.7806 37.3519 32.732C37.3011 32.6935 37.2408 32.6734 37.1784 32.6734ZM37.0755 32.3646H37.0765H37.0755Z" fill="#2E3349"/>
<path d="M35.8569 37.9932C35.788 37.9621 35.7513 37.9389 35.704 37.9101C35.6601 37.8823 35.6174 37.8536 35.5776 37.823C35.4963 37.7629 35.421 37.6981 35.3507 37.6292C35.211 37.491 35.0841 37.3426 34.9814 37.1805C34.769 36.8606 34.6256 36.5074 34.5373 36.1485C34.4968 35.9683 34.4594 35.7883 34.4409 35.6066C34.4142 35.4248 34.4068 35.2486 34.396 35.0686C34.3873 34.8894 34.3848 34.7095 34.3916 34.5291C34.4009 34.3464 34.41 34.173 34.4583 33.9801C34.4695 33.9354 34.5149 33.9082 34.5596 33.9194C34.6017 33.9299 34.6282 33.9706 34.622 34.0127L34.6203 34.0235C34.5969 34.1765 34.6001 34.3584 34.6084 34.5276C34.6179 34.6998 34.6363 34.8723 34.6608 35.0441C34.687 35.2146 34.711 35.3903 34.7517 35.5549C34.7844 35.7225 34.8347 35.8844 34.8862 36.0444C34.9962 36.362 35.153 36.6587 35.3559 36.9094C35.4541 37.0374 35.5702 37.148 35.6906 37.2471C35.7511 37.2963 35.8146 37.341 35.8791 37.3798C35.9113 37.4002 35.9438 37.4176 35.9761 37.4341C36.0054 37.449 36.0467 37.467 36.0591 37.4703C36.2093 37.5108 36.2982 37.6654 36.2578 37.8155C36.2173 37.9657 36.0628 38.0547 35.9126 38.0143C35.8982 38.0104 35.8844 38.0055 35.8712 37.9996L35.8569 37.9932Z" fill="#2E3349"/>
<path d="M31.9811 25.0625C32.3551 24.9753 32.727 24.899 33.1024 24.8273C33.4774 24.7561 33.854 24.6909 34.2334 24.6365C34.6128 24.582 34.994 24.5335 35.3809 24.5055C35.7681 24.4777 36.1581 24.4603 36.5637 24.49C36.7387 24.5029 36.8702 24.6552 36.8573 24.8301C36.8445 25.0052 36.6922 25.1366 36.5172 25.1238C36.5102 25.1232 36.5032 25.1225 36.4964 25.1215L36.4931 25.121C36.1444 25.0712 35.7745 25.0611 35.4049 25.063C35.0344 25.0647 34.6604 25.0866 34.2867 25.1147C33.9127 25.1427 33.5383 25.1816 33.1644 25.2267C32.7911 25.2721 32.4158 25.3231 32.0463 25.3832L32.0445 25.3835C31.9553 25.3981 31.8712 25.3375 31.8566 25.2482C31.8428 25.1629 31.8982 25.082 31.9811 25.0625Z" fill="#2E3349"/>
<path d="M36.2198 46.2491C36.2198 46.2491 7.89984 35.4101 8.41816 35.4148C8.58881 35.4148 9.22059 34.2608 9.99368 32.709C10.25 32.1931 10.5223 31.6336 10.7993 31.0573C11.4835 29.6294 12.1923 28.1007 12.7455 26.8943C13.3487 25.5783 13.7662 24.6465 13.7662 24.6465L28.4453 22.3899C28.9263 22.9749 29.3858 23.6075 29.8232 24.2789C31.0138 26.1061 32.0432 28.2229 32.9068 30.4692C33.125 31.0351 33.3322 31.6097 33.5283 32.19C35.1483 36.9666 36.0547 42.1289 36.2198 46.2491Z" fill="white"/>
<path d="M36.2192 46.5667C36.181 46.5667 36.1425 46.5599 36.1058 46.5457C36.0361 46.5191 29.0653 43.8507 22.1881 41.1953C18.1486 39.6354 14.9313 38.3853 12.6256 37.4792C11.2557 36.941 10.1962 36.5198 9.47643 36.2271C9.0879 36.0691 8.79 35.9453 8.59109 35.8589C8.24112 35.7071 8.04837 35.6234 8.09875 35.3579C8.11925 35.2498 8.19671 35.1622 8.29543 35.1217C8.86314 34.5471 11.7605 28.3433 13.4763 24.5164C13.5204 24.4181 13.6113 24.3488 13.7178 24.3325L28.3967 22.0758C28.5075 22.0592 28.6189 22.1014 28.6901 22.188C30.9434 24.9287 32.8973 28.9041 34.3405 33.6843C35.581 37.7931 36.3814 42.3682 36.5365 46.2365C36.5408 46.3432 36.4911 46.4448 36.4044 46.5071C36.3497 46.5465 36.2848 46.5667 36.2192 46.5667ZM8.93428 35.3171C11.6162 36.4625 28.5868 42.9868 35.8795 45.7792C35.4877 38.405 32.806 28.3094 28.3134 22.7311L13.9848 24.9339C13.7074 25.55 12.658 27.8722 11.5732 30.1681C10.0521 33.3874 9.32862 34.7451 8.93428 35.3171Z" fill="#2E3349"/>
<g opacity="0.35">
<path opacity="0.35" d="M29.8228 24.2789C27.6615 26.7609 24.6597 28.3428 21.4395 28.7603C21.1855 28.792 20.9308 28.8182 20.6744 28.8365C19.9711 28.8865 19.26 28.8809 18.548 28.8166C17.9575 28.7627 17.3654 28.6706 16.7764 28.5357C16.093 28.3801 15.4136 28.169 14.7429 27.8991C14.5207 27.8086 14.3016 27.7142 14.0881 27.6142C13.6492 27.4102 13.2261 27.184 12.8182 26.9387C12.7936 26.9236 12.7689 26.9093 12.7451 26.8943C13.3483 25.5783 13.7658 24.6465 13.7658 24.6465L28.4449 22.3899C28.9259 22.9749 29.3855 23.6074 29.8228 24.2789Z" fill="#2E3349"/>
</g>
<path d="M7.59781 20.3236C8.70406 22.2667 10.3002 23.9415 12.2992 25.1451C12.707 25.3904 13.13 25.6161 13.5692 25.8202C13.7826 25.9201 14.0014 26.0143 14.2236 26.1051C14.8944 26.3749 15.5738 26.5863 16.2574 26.7414C16.8462 26.8766 17.4385 26.9691 18.0286 27.0223C18.7413 27.087 19.4524 27.0923 20.1554 27.0429C20.4117 27.024 20.6668 26.9984 20.9205 26.9661C25.5635 26.3647 29.7542 23.3415 31.6254 18.6888C34.3832 11.8356 31.0624 4.04496 24.2103 1.28708C22.8902 0.756854 21.5343 0.449604 20.1872 0.352969C20.0299 0.34017 19.8716 0.331896 19.7133 0.326975C19.2901 0.310922 18.8686 0.315029 18.4498 0.339218C17.4812 0.395473 16.5265 0.557908 15.6035 0.818188C14.6805 1.0774 13.7869 1.43562 12.9417 1.88457C12.6728 2.02716 12.4087 2.1786 12.1493 2.34005C11.7607 2.58213 11.3839 2.84301 11.02 3.12599C9.20448 4.52948 7.72669 6.42002 6.80852 8.7033C5.22187 12.6455 5.64719 16.8972 7.59781 20.3236Z" fill="white"/>
<path d="M19.2173 27.1078C18.8179 27.1078 18.4196 27.09 18.0259 27.0541C17.4256 27 16.8282 26.9052 16.2504 26.7726C15.5606 26.616 14.8746 26.4014 14.2119 26.1347C13.9679 26.035 13.7534 25.9416 13.5558 25.8492C13.1251 25.649 12.6968 25.4213 12.283 25.1725C10.3308 23.9972 8.70116 22.3259 7.57027 20.3394C5.53031 16.7561 5.24191 12.5105 6.77907 8.69142C7.66746 6.48224 9.12723 4.54895 11.0006 3.10073C11.3549 2.82527 11.7358 2.56023 12.1326 2.31296C12.3869 2.15464 12.6541 2.00103 12.9268 1.85638C13.7743 1.40632 14.672 1.04666 15.5951 0.787492C16.5267 0.524731 17.4867 0.36321 18.4481 0.307352C18.8659 0.283243 19.292 0.279016 19.7147 0.295109C19.8838 0.300387 20.0393 0.308899 20.19 0.321162C21.5641 0.419742 22.9209 0.73473 24.2223 1.25745C31.0806 4.01783 34.4149 11.8428 31.6551 18.7008C29.8475 23.1954 25.7358 26.3746 20.9247 26.9978C20.6716 27.03 20.4137 27.0559 20.1579 27.0748C19.8449 27.0968 19.5307 27.1078 19.2173 27.1078ZM7.62581 20.3078C8.75132 22.2847 10.3732 23.948 12.3159 25.1177C12.7279 25.3654 13.1541 25.5921 13.5829 25.7913C13.7795 25.8833 13.9931 25.9763 14.2359 26.0755C14.8954 26.3408 15.578 26.5544 16.2647 26.7103C16.8397 26.8423 17.4342 26.9366 18.0317 26.9906C18.731 27.054 19.4447 27.0608 20.1534 27.011C20.4079 26.9922 20.6647 26.9664 20.9167 26.9345C25.7048 26.3143 29.7969 23.1501 31.5959 18.6769C34.3425 11.8517 31.024 4.06393 24.1985 1.31675C22.9033 0.796542 21.553 0.483002 20.1852 0.384859C20.0352 0.372635 19.8807 0.364202 19.7125 0.358943C19.2917 0.343009 18.8676 0.347217 18.4518 0.371207C17.495 0.426708 16.5397 0.587515 15.6124 0.849026C14.6937 1.10698 13.8003 1.46491 12.9568 1.91287C12.6854 2.05679 12.4195 2.20968 12.1664 2.36721C11.7714 2.61333 11.3924 2.8771 11.0398 3.15125C9.17533 4.59259 7.72256 6.51653 6.83842 8.71523C5.30854 12.5162 5.59559 16.7415 7.62581 20.3078Z" fill="#2E3349"/>
<g opacity="0.35">
<path opacity="0.35" d="M31.6249 18.6886C29.7542 23.3417 25.5629 26.3652 20.9198 26.9658C20.6661 26.9985 20.4112 27.0241 20.1553 27.0428C19.4521 27.0925 18.7411 27.0867 18.0285 27.0225C17.4383 26.9688 16.8458 26.8767 16.2574 26.7417C15.5734 26.5867 14.8943 26.3754 14.223 26.1055C14.0014 26.014 13.7825 25.9203 13.5687 25.8208C13.1294 25.6164 12.7069 25.3899 12.2989 25.145C10.2999 23.9413 8.70341 22.2671 7.59727 20.3233C6.98936 19.2559 6.52933 18.1076 6.23242 16.9139C7.33032 18.7443 8.87097 20.3207 10.778 21.4691C11.1855 21.7151 11.6085 21.9405 12.0478 22.1449C12.2608 22.2448 12.4797 22.3384 12.7021 22.4296C13.3734 22.6995 14.0526 22.9109 14.7357 23.0662C15.3249 23.2009 15.9167 23.2933 16.5069 23.347C17.2194 23.4112 17.9312 23.4167 18.6336 23.3673C18.8904 23.3483 19.1452 23.3226 19.3989 23.29C24.042 22.6894 28.2325 19.6662 30.104 15.0127C31.1965 12.2984 31.3343 9.43723 30.6778 6.80042C32.7627 10.2717 33.253 14.6437 31.6249 18.6886Z" fill="#2E3349"/>
</g>
<path d="M19.2166 27.3219C18.8106 27.3219 18.406 27.3038 18.006 27.2675C17.3961 27.2124 16.7891 27.1161 16.202 26.9814C15.5015 26.8223 14.8046 26.6043 14.1313 26.3335C13.883 26.2319 13.6653 26.1372 13.4645 26.0432C13.0274 25.8401 12.5924 25.6089 12.1721 25.3561C10.1884 24.1617 8.53265 22.4637 7.38358 20.4454C5.31112 16.8049 5.01811 12.4916 6.57984 8.6115C7.4824 6.36706 8.96558 4.40286 10.8691 2.93136C11.2287 2.65173 11.6157 2.38237 12.0188 2.13125C12.2773 1.97031 12.5489 1.81418 12.826 1.66724C13.6868 1.21006 14.5988 0.844692 15.5366 0.581355C16.483 0.314467 17.4583 0.150345 18.4351 0.093614C18.8598 0.0690087 19.2928 0.0648426 19.7222 0.0811734C19.8935 0.0864913 20.0525 0.0952216 20.2068 0.107762C21.6011 0.207751 22.9795 0.527779 24.3016 1.05878C31.2695 3.86331 34.6571 11.8133 31.8532 18.7808C30.0167 23.3472 25.8395 26.5772 20.9517 27.2103C20.6943 27.243 20.4326 27.2693 20.173 27.2884C19.8546 27.3108 19.5352 27.3219 19.2166 27.3219ZM7.81133 20.2018C8.91873 22.147 10.5144 23.7834 12.4258 24.9343C12.8312 25.1781 13.2506 25.401 13.6725 25.597C13.8664 25.6879 14.0768 25.7795 14.3163 25.8773C14.9641 26.1379 15.6359 26.3481 16.3115 26.5015C16.8776 26.6314 17.4625 26.7242 18.0503 26.7773C18.7382 26.8398 19.4404 26.8465 20.1377 26.7974C20.3877 26.779 20.6408 26.7536 20.889 26.722C25.5999 26.1118 29.6264 22.9986 31.3966 18.5971C34.0991 11.8813 30.834 4.21858 24.1179 1.51546C22.8434 1.00359 21.5148 0.695056 20.1692 0.5985C20.0209 0.586435 19.8698 0.578201 19.7052 0.573062C19.2898 0.557267 18.8726 0.561393 18.4636 0.585026C17.5223 0.639674 16.5823 0.797842 15.6699 1.05513C14.7657 1.30902 13.8865 1.66121 13.0567 2.10202C12.7894 2.24372 12.5279 2.39409 12.2789 2.54907C11.8903 2.79119 11.5174 3.05072 11.1706 3.3203C9.33579 4.7387 7.90642 6.63174 7.03644 8.79519C5.53117 12.5351 5.8136 16.6928 7.81133 20.2018Z" fill="#2E3349"/>
<path d="M19.2167 27.3933C18.8086 27.3933 18.4018 27.375 17.9996 27.3385C17.3867 27.2832 16.7764 27.1864 16.1861 27.0509C15.4821 26.8911 14.7817 26.6719 14.1049 26.3996C13.855 26.2975 13.6362 26.2023 13.4344 26.1078C12.9952 25.9037 12.5579 25.6713 12.1354 25.4172C10.1413 24.2166 8.47677 22.5096 7.3217 20.4806C5.23833 16.8211 4.94388 12.4852 6.51374 8.58481C7.42102 6.32852 8.91204 4.35409 10.8256 2.87481C11.1869 2.59381 11.576 2.32307 11.9811 2.07061C12.2411 1.90877 12.5141 1.75182 12.7926 1.6041C13.6579 1.14454 14.5747 0.777246 15.5174 0.51254C16.4687 0.244303 17.4491 0.0793075 18.4311 0.0222787C18.8581 -0.00242582 19.2933 -0.00655233 19.7251 0.00973878C19.8971 0.0151162 20.0573 0.0238864 20.2127 0.0365263C21.6137 0.136991 22.9994 0.458726 24.3283 0.992483C31.3328 3.81174 34.7381 11.8034 31.9196 18.8074C30.0735 23.3977 25.8744 26.6445 20.961 27.281C20.7022 27.3139 20.4392 27.3403 20.1784 27.3595C19.8582 27.3821 19.5371 27.3933 19.2167 27.3933ZM7.8735 20.1665C8.97488 22.101 10.5618 23.7286 12.4628 24.8731C12.8659 25.1156 13.2831 25.3373 13.7027 25.5323C13.8958 25.6227 14.1051 25.7138 14.3435 25.8112C14.9875 26.0702 15.6555 26.2793 16.3274 26.4319C16.8906 26.5612 17.4722 26.6534 18.0569 26.7061C18.741 26.7685 19.4395 26.7751 20.1328 26.7262C20.3814 26.7079 20.6332 26.6827 20.8801 26.6512C25.5653 26.0444 29.57 22.948 31.3305 18.5704C34.0184 11.8912 30.7709 4.27011 24.0914 1.58166C22.8239 1.07255 21.5025 0.765697 20.1643 0.669697C20.0165 0.657692 19.8666 0.649477 19.7032 0.644358C19.2894 0.628821 18.8746 0.632729 18.4678 0.656282C17.5317 0.710652 16.5969 0.867948 15.6894 1.12388C14.79 1.37638 13.9157 1.72667 13.0903 2.16507C12.8245 2.30603 12.5643 2.45559 12.3168 2.60969C11.9303 2.85052 11.5595 3.10858 11.2146 3.37672C9.38964 4.78748 7.96805 6.67024 7.10282 8.82186C5.60574 12.5415 5.88662 16.6765 7.8735 20.1665Z" fill="#2E3349"/>
<path d="M9.661 23.0602C17.6111 28.3689 28.1857 24.2404 28.5483 14.7791C28.7949 8.34217 22.6828 3.13092 16.4854 3.28992C11.9748 3.40565 7.62175 5.49184 5.88757 12.5415C5.88757 12.5415 5.60182 15.7809 6.52334 17.914C7.44485 20.0472 8.70113 21.9663 8.70113 21.9663L9.661 23.0602Z" fill="#371A45"/>
<path d="M28.5481 14.7792C28.1858 24.2403 17.6109 28.3687 9.66116 23.0606L9.4668 22.8386C18.1196 24.1949 26.6004 18.8521 27.1449 9.29285C28.0953 10.9231 28.6239 12.7928 28.5481 14.7792Z" fill="#220F2D"/>
<path d="M17.191 27.0895C16.8738 27.0895 16.5557 27.0791 16.2364 27.0583C16.2198 27.0573 16.2032 27.0548 16.1869 27.0511C15.4821 26.8911 14.7817 26.6719 14.1049 26.3997C13.855 26.2976 13.6362 26.2023 13.4344 26.1078C12.9952 25.9038 12.5579 25.6713 12.1354 25.4172C10.1413 24.2167 8.47677 22.5096 7.3217 20.4807C5.23833 16.8211 4.94388 12.4853 6.51374 8.58486C7.42102 6.32857 8.91204 4.35413 10.8256 2.87485C10.8429 2.86144 10.8616 2.84985 10.8813 2.84031C12.4682 2.07163 14.321 1.655 16.3882 1.60196C20.0697 1.50822 23.8882 3.0918 26.6016 5.83975C29.0946 8.3646 30.3982 11.563 30.2723 14.8458C30.1352 18.4143 28.7426 21.4901 26.2452 23.7411C23.8564 25.8942 20.5993 27.0895 17.191 27.0895ZM16.3029 26.4263C19.8747 26.6532 23.3413 25.5037 25.8201 23.2694C28.1873 21.1359 29.5074 18.2147 29.6378 14.8215C29.7569 11.7159 28.5182 8.68467 26.1498 6.28596C23.5573 3.6604 19.9131 2.14689 16.4045 2.2367C14.4413 2.28708 12.6863 2.67765 11.1878 3.3975C9.37607 4.8055 7.96394 6.6804 7.10286 8.82186C5.60576 12.5416 5.88664 16.6765 7.87352 20.1666C8.97491 22.1011 10.5618 23.7286 12.4628 24.8732C12.8659 25.1156 13.2832 25.3374 13.7027 25.5323C13.8958 25.6227 14.1051 25.7138 14.3435 25.8113C14.9796 26.0672 15.6393 26.2742 16.3029 26.4263Z" fill="#2E3349"/>
<path d="M17.2203 25.7198C14.5665 25.7198 11.8612 24.9114 9.48457 23.3243C9.46146 23.3089 9.44052 23.2905 9.42221 23.2697L8.46232 22.1758C8.4525 22.1646 8.44349 22.1527 8.43536 22.1403C8.4226 22.1209 7.15342 20.1737 6.23173 18.04C5.28919 15.8582 5.55917 12.6493 5.57114 12.5138C5.57254 12.4976 5.5752 12.4816 5.57909 12.4658C7.09258 6.31329 10.7592 3.11932 16.4771 2.9727C19.7618 2.88666 23.1687 4.30165 25.5894 6.75309C27.8142 9.00627 28.9776 11.8609 28.8654 14.7914C28.7032 19.0234 26.5122 22.5213 22.854 24.3881C21.1064 25.2799 19.1772 25.7198 17.2203 25.7198ZM9.87181 22.8193C13.804 25.4283 18.6641 25.8134 22.5654 23.8225C26.0128 22.0632 28.0778 18.7626 28.2308 14.7671C28.3363 12.0138 27.2378 9.32617 25.1376 7.19924C22.8378 4.87031 19.6058 3.52825 16.4934 3.6074C11.1046 3.74561 7.64215 6.76857 6.20181 12.5927C6.17919 12.8856 5.97635 15.8477 6.81464 17.7881C7.66698 19.7612 8.82539 21.5739 8.95483 21.7743L9.87181 22.8193Z" fill="#2E3349"/>
<path d="M31.4051 19.2747C29.4968 19.522 27.7742 17.5911 27.5572 14.9611C27.5479 14.8479 27.5416 14.7356 27.5385 14.624C27.4589 12.1353 28.7931 9.9882 30.6195 9.75181C32.527 9.50449 34.2496 11.4354 34.4673 14.0654C34.4704 14.106 34.4736 14.1466 34.4759 14.1864C34.6421 16.7656 33.283 19.0313 31.4051 19.2747Z" fill="white"/>
<g opacity="0.35">
<path opacity="0.35" d="M31.4046 19.2746C29.4963 19.5219 27.7737 17.591 27.5568 14.961C27.5474 14.8479 27.5412 14.7355 27.5381 14.624C28.0101 15.0983 28.7926 15.5149 29.5049 14.1863H34.4754C34.6416 16.7656 33.2825 19.0312 31.4046 19.2746Z" fill="#2E3349"/>
</g>
<path d="M31.0708 19.6136C30.3759 19.6136 29.6998 19.3615 29.096 18.8734C28.0507 18.0284 27.3742 16.612 27.2402 14.9872C27.0098 12.1955 28.5071 9.7056 30.5777 9.43702C31.403 9.33005 32.2151 9.57759 32.9268 10.153C33.9722 10.998 34.6486 12.4144 34.7826 14.0392C35.013 16.8309 33.5158 19.3208 31.4451 19.5894C31.3199 19.6056 31.1951 19.6136 31.0708 19.6136ZM30.948 10.0481C30.852 10.0481 30.7558 10.0543 30.6594 10.0668C28.9201 10.2924 27.6701 12.4763 27.8729 14.9351C27.991 16.3664 28.5975 17.654 29.4952 18.3795C30.0687 18.8432 30.7148 19.0437 31.3634 18.9596C33.1027 18.7341 34.3527 16.5502 34.1498 14.0913C34.0317 12.66 33.4253 11.3724 32.5276 10.6469C32.0393 10.2522 31.4984 10.0481 30.948 10.0481Z" fill="#2E3349"/>
<path d="M34.8591 15.9628C34.3838 17.9619 32.7904 19.0702 31.3003 18.4382C29.8102 17.8062 28.9875 15.6733 29.4628 13.6742C29.9381 11.6751 31.5314 10.5668 33.0216 11.1988C34.5117 11.8308 35.3344 13.9637 34.8591 15.9628Z" fill="white"/>
<path d="M32.1563 18.6505C31.8651 18.6505 31.5734 18.59 31.2877 18.4688C29.7857 17.8318 28.9527 15.6775 29.4309 13.6666C29.6986 12.5406 30.3268 11.6549 31.1545 11.2363C31.7635 10.9284 32.4137 10.9049 33.0349 11.1684C34.5368 11.8052 35.3698 13.9596 34.8917 15.9705C34.624 17.0965 33.9957 17.9822 33.168 18.4008C32.8391 18.5671 32.4981 18.6505 32.1563 18.6505ZM32.1663 11.0533C31.8345 11.0533 31.5037 11.1342 31.1845 11.2956C30.3742 11.7052 29.7587 12.575 29.4955 13.6819C29.0245 15.6628 29.8401 17.7828 31.3136 18.4078C31.9161 18.6632 32.547 18.6405 33.1381 18.3415C33.9483 17.9319 34.5639 17.0621 34.8271 15.9552L34.8594 15.9629L34.8271 15.9552C35.298 13.9743 34.4824 11.8544 33.0089 11.2294C32.7318 11.112 32.4487 11.0533 32.1663 11.0533Z" fill="#2E3349"/>
<g opacity="0.35">
<path opacity="0.35" d="M29.6274 16.6412C29.3953 15.9604 29.349 15.2135 29.4596 14.4995C30.1196 16.0072 31.583 16.5237 32.8487 15.6408C33.6668 15.0706 34.2135 14.0463 34.384 12.9413C34.4263 13.0361 34.4645 13.1363 34.4999 13.2395C35.0901 14.9733 34.478 17.1404 33.1322 18.0797C31.7864 19.0189 30.2175 18.374 29.6274 16.6412Z" fill="#2E3349"/>
</g>
<path d="M32.226 18.9363C31.7146 18.9363 31.2143 18.7493 30.7641 18.3869C29.9208 17.708 29.3525 16.4802 29.2443 15.1026C29.0631 12.7968 30.218 10.7415 31.8188 10.5211C32.4297 10.4367 33.0356 10.62 33.5704 11.0506C34.4138 11.7295 34.982 12.9573 35.0902 14.3349C35.2714 16.6407 34.1165 18.6959 32.5157 18.9163C32.419 18.9297 32.3223 18.9363 32.226 18.9363ZM32.1045 11.1365C32.0381 11.1365 31.9718 11.141 31.9055 11.1501C30.6318 11.3255 29.722 13.0763 29.8773 15.0529C29.9722 16.2595 30.4526 17.3209 31.1623 17.8923C31.5576 18.2104 31.9955 18.3467 32.4291 18.2873C33.7027 18.112 34.6125 16.3612 34.4572 14.3847C34.3624 13.1781 33.8821 12.1166 33.1723 11.5452C32.8375 11.2758 32.4719 11.1365 32.1045 11.1365Z" fill="#2E3349"/>
<g opacity="0.7">
<path opacity="0.7" d="M19.7294 5.56079C19.7294 5.56079 13.6771 6.10306 10.4322 9.67857C10.4288 9.68232 10.4254 9.68609 10.422 9.68984C9.73966 10.4429 9.27356 11.3673 9.06555 12.362C8.79046 13.6775 8.79358 14.6243 8.8285 15.4577C8.93582 17.9923 9.46024 19.1599 9.46024 19.1599C7.96192 17.8817 7.08522 16.3958 6.97491 14.2855C6.96457 14.0774 6.96162 13.8625 6.96553 13.6418C6.96626 13.591 6.96812 13.5406 6.97076 13.4898C6.96963 13.4894 6.97009 13.4882 6.97134 13.4868C7.01071 13.0403 7.0846 12.4556 7.22307 11.803C7.63945 9.83444 8.63761 7.24754 11.0303 5.96539C15.5042 3.56798 19.9269 5.28725 19.7294 5.56079Z" fill="white"/>
</g>
<g opacity="0.7">
<path opacity="0.7" d="M23.8798 9.62496C22.9376 9.9203 22.4528 11.0498 22.7969 12.1477C23.1411 13.2456 24.1839 13.8963 25.126 13.6009C26.0682 13.3056 26.553 12.1761 26.2089 11.0782C25.8647 9.98026 24.8219 9.32962 23.8798 9.62496Z" fill="white"/>
</g>
<g opacity="0.7">
<path opacity="0.7" d="M25.3089 14.4244C24.9315 14.5787 24.7714 15.0603 24.9512 15.5001C25.1311 15.9399 25.5828 16.1713 25.9602 16.017C26.3376 15.8627 26.4978 15.381 26.3179 14.9412C26.1381 14.5015 25.6863 14.27 25.3089 14.4244Z" fill="white"/>
</g>
<path d="M13.5394 33.6422C13.5111 33.6422 13.4823 33.6383 13.4537 33.6304C13.2848 33.5831 13.1863 33.4079 13.2335 33.239C13.7364 31.4409 13.7424 27.422 13.7424 27.3816C13.7424 27.2062 13.8846 27.0641 14.0599 27.0641C14.2353 27.0641 14.3774 27.2062 14.3774 27.3816C14.3774 27.55 14.3714 31.5281 13.845 33.4101C13.8058 33.5504 13.6782 33.6422 13.5394 33.6422Z" fill="#2E3349"/>
<path d="M27.0297 31.8572C26.971 31.8572 26.9117 31.841 26.8587 31.807C26.711 31.7123 26.668 31.516 26.7626 31.3684C27.0823 30.8696 26.6681 29.4275 26.332 28.6356C26.2635 28.4743 26.3387 28.2879 26.5 28.2194C26.6615 28.1508 26.8477 28.2259 26.9164 28.3873C27.0189 28.6283 27.9006 30.7696 27.2973 31.711C27.2366 31.8055 27.1343 31.8572 27.0297 31.8572Z" fill="#2E3349"/>
<path d="M14.1212 34.4878C14.8488 34.4878 15.4387 33.8979 15.4387 33.1703C15.4387 32.4426 14.8488 31.8528 14.1212 31.8528C13.3936 31.8528 12.8037 32.4426 12.8037 33.1703C12.8037 33.8979 13.3936 34.4878 14.1212 34.4878Z" fill="white"/>
<g opacity="0.35">
<path opacity="0.35" d="M12.8046 33.2174C12.8306 33.9445 13.4408 34.5135 14.1679 34.4875C14.8951 34.4614 15.4641 33.8502 15.438 33.1231C15.4309 32.9222 15.379 32.7323 15.2913 32.5647C15.0958 33.0169 14.6528 33.3418 14.1276 33.3606C13.6024 33.3794 13.1372 33.087 12.911 32.6499C12.8355 32.8234 12.7974 33.0164 12.8046 33.2174Z" fill="#2E3349"/>
</g>
<path d="M14.1198 34.8053C13.7053 34.8053 13.3123 34.651 13.0073 34.3671C12.6876 34.0695 12.503 33.6653 12.4874 33.2288C12.4718 32.7923 12.627 32.3759 12.9246 32.0563C13.2221 31.7366 13.6264 31.552 14.0628 31.5364C14.9632 31.5078 15.7229 32.2108 15.7552 33.1118C15.7875 34.0127 15.0807 34.7719 14.1798 34.8043C14.1598 34.8049 14.1397 34.8053 14.1198 34.8053ZM14.1218 32.1703C14.1098 32.1703 14.0976 32.1705 14.0855 32.171C13.8186 32.1805 13.5713 32.2935 13.3893 32.4889C13.2073 32.6844 13.1124 32.9391 13.1219 33.2062C13.1315 33.4731 13.2444 33.7202 13.4399 33.9023C13.6355 34.0844 13.8912 34.1803 14.157 34.1696C14.7081 34.1499 15.1404 33.6856 15.1207 33.1345C15.1014 32.5955 14.6568 32.1703 14.1218 32.1703Z" fill="#2E3349"/>
<path d="M15.6109 36.3874L22.574 36.5519C23.3981 36.5716 24.089 35.9131 24.1087 35.0879L24.196 31.3825C24.2131 30.6601 23.7101 30.0412 23.0309 29.8853C22.9347 29.8626 22.8348 29.8504 22.732 29.8478L15.77 29.6833C14.9448 29.6636 14.2539 30.3221 14.2353 31.1473L14.1654 34.082L14.1469 34.8527C14.1272 35.6779 14.7868 36.3677 15.6109 36.3874Z" fill="white"/>
<g opacity="0.35">
<path opacity="0.35" d="M15.6109 36.3875L22.574 36.552C23.3981 36.5717 24.089 35.9132 24.1087 35.088L24.196 31.3826C24.2131 30.6602 23.7101 30.0412 23.0309 29.8854C22.6293 30.1386 22.3742 30.3007 22.3742 30.3007C21.9649 33.267 21.0829 34.7302 17.3881 34.7032C15.7932 34.6912 14.7926 34.4242 14.1654 34.0821L14.1469 34.8528C14.1272 35.6779 14.7868 36.3677 15.6109 36.3875Z" fill="#2E3349"/>
</g>
<path d="M22.6098 36.8701C22.5952 36.8701 22.5806 36.87 22.566 36.8697L15.6034 36.7051C15.1198 36.6936 14.6685 36.4935 14.3327 36.1413C13.9969 35.7892 13.8182 35.3289 13.8296 34.8454L13.9172 31.1394C13.9287 30.6557 14.1289 30.2044 14.481 29.8686C14.8331 29.5328 15.293 29.3555 15.777 29.3656L22.7395 29.5303C23.2231 29.5417 23.6744 29.7419 24.0102 30.094C24.3461 30.4461 24.5247 30.9063 24.5133 31.39L24.4257 35.0958C24.4143 35.5795 24.214 36.0308 23.8619 36.3666C23.5205 36.6924 23.0774 36.8701 22.6098 36.8701ZM15.7335 30.0001C15.4298 30.0001 15.1417 30.116 14.9192 30.3282C14.6899 30.5469 14.5595 30.8403 14.5521 31.1544L14.4644 34.8603C14.457 35.1744 14.5734 35.4737 14.7922 35.703C15.0109 35.9325 15.3044 36.0629 15.6184 36.0703L22.581 36.2349C22.8966 36.2401 23.1943 36.126 23.4237 35.9072C23.653 35.6884 23.7834 35.395 23.7909 35.0809L23.8785 31.375C23.886 31.0609 23.7696 30.7617 23.5508 30.5322C23.332 30.3029 23.0386 30.1725 22.7245 30.1651L15.7619 30.0005C15.7525 30.0003 15.743 30.0001 15.7335 30.0001Z" fill="#2E3349"/>
<path d="M15.332 36.3535C15.4218 36.3744 15.5144 36.3857 15.6109 36.3875L22.5739 36.552C23.1779 36.566 23.7101 36.2169 23.9589 35.7031C24.0496 35.5165 24.1029 35.3082 24.1076 35.088L24.1471 33.4419L24.1602 32.8988L24.196 31.3826C24.2157 30.5575 23.5561 29.8676 22.732 29.8479L21.2274 29.8127C21.9178 29.9598 22.4315 30.5836 22.4147 31.3134L22.368 33.3149L22.3274 35.0198C22.3077 35.8439 21.6168 36.5035 20.7927 36.4838L15.332 36.3535Z" fill="white"/>
<g opacity="0.35">
<path opacity="0.35" d="M15.332 36.3534C15.4218 36.3743 15.5144 36.3856 15.6109 36.3874L22.5739 36.5519C23.3981 36.5716 24.089 35.9131 24.1076 35.088L24.1602 32.8987C23.9759 33.2814 23.65 33.7488 23.1454 33.7867C22.8685 33.8081 22.6014 33.6029 22.3679 33.3148L22.3273 35.0197C22.3076 35.8438 21.6168 36.5034 20.7926 36.4837L15.332 36.3534Z" fill="#2E3349"/>
</g>
<path d="M22.6104 36.8701C22.5955 36.8701 22.5806 36.87 22.5657 36.8696L15.6028 36.7048C15.4897 36.7028 15.3741 36.689 15.2614 36.6636C15.1022 36.6278 14.9961 36.477 15.0161 36.315C15.036 36.1531 15.1717 36.0303 15.3387 36.0365L20.7999 36.1661C21.1141 36.1768 21.4127 36.0573 21.6421 35.8385C21.8715 35.6196 22.0018 35.3263 22.009 35.0123L22.0966 31.3063C22.1101 30.7392 21.7165 30.2415 21.1609 30.1226C21.0007 30.0884 20.8929 29.9378 20.912 29.775C20.9312 29.6125 21.0699 29.4905 21.2348 29.4947L22.7387 29.53C23.7411 29.5542 24.5367 30.3887 24.5125 31.3902L24.4249 35.0956C24.4138 35.5793 24.2137 36.0307 23.8614 36.3667C23.5201 36.6924 23.0774 36.8701 22.6104 36.8701ZM22.1531 36.2247L22.5809 36.2348C22.8928 36.2445 23.1937 36.1261 23.4231 35.9073C23.6525 35.6884 23.7828 35.3951 23.7901 35.0811C23.7901 35.081 23.7901 35.0809 23.7901 35.0809L23.8777 31.3751C23.8934 30.7234 23.3757 30.1806 22.7235 30.1648L22.3427 30.1559C22.5966 30.4786 22.7417 30.8867 22.7314 31.3213L22.6438 35.027C22.6335 35.4762 22.4601 35.8976 22.1531 36.2247Z" fill="#2E3349"/>
<path d="M19.625 33.1317C19.6226 33.2688 19.7955 34.3785 19.7955 34.3785C19.7955 34.3785 20.1459 34.3848 20.5763 34.3925C21.1139 34.4021 21.5597 33.8533 21.572 33.1666C21.5843 32.4799 21.1584 31.9154 20.6208 31.9058C20.2579 31.8993 19.84 31.8918 19.84 31.8918C19.84 31.8918 19.629 32.9085 19.625 33.1317Z" fill="#22A7F0"/>
<g opacity="0.35">
<path opacity="0.35" d="M19.625 33.1317C19.6226 33.2688 19.7955 34.3785 19.7955 34.3785C19.7955 34.3785 20.1459 34.3848 20.5763 34.3925C21.1139 34.4021 21.5597 33.8533 21.572 33.1666C21.5843 32.4799 21.1584 31.9154 20.6208 31.9058C20.2579 31.8993 19.84 31.8918 19.84 31.8918C19.84 31.8918 19.629 32.9085 19.625 33.1317Z" fill="#2E3349"/>
</g>
<path d="M20.5898 34.6308C20.5837 34.6308 20.5778 34.6307 20.5718 34.6306L19.791 34.6166C19.6753 34.6146 19.5778 34.5296 19.5599 34.4152C19.507 34.0754 19.3842 33.2697 19.3868 33.1275C19.3909 32.8936 19.5706 32.0169 19.6065 31.8435C19.6298 31.7314 19.7287 31.6544 19.844 31.6538L20.6248 31.6678C20.9596 31.6737 21.2678 31.841 21.4925 32.1388C21.704 32.4192 21.8168 32.7858 21.8098 33.1708C21.7954 33.9803 21.2498 34.6308 20.5898 34.6308ZM20.0001 34.1441L20.5803 34.1544C20.5835 34.1544 20.5868 34.1545 20.59 34.1545C20.9912 34.1545 21.3238 33.7121 21.3337 33.1623C21.3387 32.8832 21.2601 32.6216 21.1123 32.4257C20.9777 32.2473 20.8016 32.1472 20.6163 32.1439L20.0336 32.1335C19.9572 32.5152 19.8655 33.0097 19.8629 33.1352C19.864 33.2138 19.9292 33.6785 20.0001 34.1441ZM19.6248 33.1318H19.6258H19.6248Z" fill="#2E3349"/>
<path d="M19.8416 31.8935C19.304 31.8838 18.8582 32.4327 18.8459 33.1193C18.8336 33.806 19.2594 34.3704 19.7971 34.38C20.3347 34.3897 20.7805 33.8408 20.7928 33.1542C20.8051 32.4675 20.3792 31.9031 19.8416 31.8935Z" fill="#22A7F0"/>
<g opacity="0.35">
<path opacity="0.35" d="M20.7913 33.1522C20.7793 33.8395 20.3331 34.3883 19.7954 34.3789C19.2577 34.3687 18.832 33.8045 18.844 33.118C18.8466 32.9949 18.8628 32.8761 18.891 32.765C19.0133 33.2548 19.3697 33.6112 19.7954 33.619C20.2365 33.6267 20.6169 33.2582 20.7451 32.7462C20.7776 32.8736 20.7939 33.0103 20.7913 33.1522Z" fill="#2E3349"/>
</g>
<g opacity="0.7">
<path opacity="0.7" d="M20.7912 33.1522C20.7895 33.2317 20.7827 33.3086 20.7699 33.383C20.6776 32.8334 20.2997 32.4196 19.8398 32.4111C19.3637 32.4017 18.9602 32.8308 18.8653 33.4061C18.85 33.3138 18.8423 33.2172 18.844 33.118C18.8568 32.4307 19.3022 31.882 19.8399 31.8922C20.3775 31.9016 20.8032 32.4658 20.7912 33.1522Z" fill="white"/>
</g>
<path d="M19.8088 34.6168C19.8027 34.6168 19.7968 34.6167 19.7908 34.6166C19.456 34.6107 19.1478 34.4434 18.9231 34.1456C18.7116 33.8651 18.5988 33.4986 18.6058 33.1135C18.6126 32.7285 18.7384 32.3663 18.9599 32.0936C19.1951 31.8039 19.5102 31.6478 19.8438 31.6539C20.1786 31.6598 20.4867 31.8271 20.7114 32.1249C20.923 32.4053 21.0357 32.7719 21.0289 33.1569C21.0144 33.9664 20.4687 34.6168 19.8088 34.6168ZM19.8257 32.1299C19.6439 32.1299 19.468 32.2234 19.3295 32.3938C19.1748 32.5843 19.0869 32.8429 19.0819 33.122C19.0769 33.4012 19.1555 33.6629 19.3033 33.8587C19.4379 34.0371 19.6141 34.1372 19.7993 34.1405C20.202 34.1436 20.5428 33.7027 20.5527 33.1484C20.5577 32.8692 20.479 32.6076 20.3313 32.4118C20.1967 32.2333 20.0205 32.1333 19.8353 32.13C19.8321 32.13 19.8289 32.1299 19.8257 32.1299ZM18.8438 33.1178H18.8448H18.8438Z" fill="#2E3349"/>
<path d="M17.7761 36.65C17.6445 36.65 17.538 36.5433 17.538 36.4119V33.9683L16.4699 33.261C16.4019 33.2159 16.3617 33.1392 16.3633 33.0576L16.431 29.7018C16.4337 29.5704 16.5418 29.4704 16.6738 29.4686C16.8053 29.4712 16.9098 29.58 16.9071 29.7115L16.8421 32.9363L17.9075 33.6419C17.9741 33.686 18.0142 33.7606 18.0142 33.8404V36.4119C18.0142 36.5433 17.9076 36.65 17.7761 36.65Z" fill="#2E3349"/>
<g opacity="0.35">
<path opacity="0.35" d="M33.5278 32.19L20.3107 34.9275C19.39 35.3665 18.4868 35.5546 17.6017 35.4895C17.6002 35.4895 17.5978 35.4895 17.5962 35.4879C16.7104 35.4236 15.8421 35.1061 14.992 34.537L9.99316 32.7091C10.2495 32.1932 10.5218 31.6336 10.7988 31.0574L11.1853 31.1987C15.4875 32.7718 20.1434 33.1129 24.6289 32.1838L32.9063 30.4692C33.1245 31.0352 33.3317 31.6098 33.5278 32.19Z" fill="#2E3349"/>
</g>
<path d="M38.5104 32.1805L27.3205 34.4982L20.6303 35.884L19.723 36.0721C18.8031 36.511 17.8998 36.6992 17.0141 36.6341C17.0125 36.6341 17.0101 36.634 17.0085 36.6325C16.1235 36.5682 15.2552 36.2507 14.4051 35.6816L11.6581 34.6775L5.2694 32.3408L0.317383 30.5303L1.93179 29.4564C2.10405 29.3429 2.31994 29.3167 2.51359 29.3874L6.39647 30.8066L13.6011 33.4409L17.1799 34.7498L20.708 34.0188L28.3762 32.4305L36.4904 30.7494C36.6896 30.7089 36.8967 30.7629 37.0483 30.8978L38.5104 32.1805Z" fill="white"/>
<path d="M17.3524 36.69C17.2379 36.69 17.124 36.6859 17.0105 36.6775C17.0074 36.6773 17.0039 36.6766 17.0003 36.6755C16.1152 36.6103 15.2353 36.2891 14.3849 35.7207L0.302039 30.5712C0.286641 30.5656 0.275689 30.5517 0.273744 30.5354C0.271799 30.5191 0.27922 30.5031 0.292892 30.4941L1.9073 29.4202C2.09091 29.299 2.32291 29.2718 2.52817 29.3465L17.1829 34.7046L36.4812 30.7067C36.6942 30.6635 36.9168 30.7228 37.077 30.8652L38.5388 32.1478C38.5512 32.1587 38.5564 32.1757 38.5522 32.1917C38.5479 32.2077 38.535 32.2199 38.5188 32.2231L19.7367 36.1136C18.9323 36.4968 18.1319 36.69 17.3524 36.69ZM17.0221 36.5911C17.8954 36.6534 18.7966 36.4657 19.704 36.0328C19.7071 36.0313 19.7104 36.0301 19.7138 36.0295L38.4156 32.1556L37.0193 30.9306C36.8792 30.806 36.6848 30.7541 36.4987 30.7921L17.1884 34.7924C17.1805 34.7942 17.1723 34.7935 17.1646 34.7906L2.4983 29.4283C2.31906 29.3631 2.11601 29.3871 1.95544 29.4928L0.412804 30.519L14.4198 35.6406C14.423 35.6418 14.4261 35.6434 14.429 35.6453C15.2696 36.2081 16.1384 36.5256 17.0114 36.589C17.015 36.5892 17.0186 36.59 17.0221 36.5911Z" fill="#102770"/>
<path d="M17.3547 36.9637C17.2328 36.9637 17.1114 36.9593 16.9905 36.9504C16.9843 36.9499 16.978 36.9492 16.9718 36.9484C16.0515 36.8788 15.1397 36.5487 14.2604 35.9664L0.208462 30.8282C0.0960715 30.787 0.0163228 30.6863 0.00221447 30.5674C-0.0118741 30.4485 0.042039 30.3318 0.14175 30.2656L1.75606 29.1923C2.01179 29.023 2.33535 28.9844 2.62201 29.0892L17.2035 34.4201L36.426 30.4383C36.723 30.3782 37.0338 30.4609 37.2586 30.6596L38.7192 31.9417C38.8097 32.0212 38.8475 32.145 38.8168 32.2614C38.786 32.3778 38.6921 32.4669 38.5742 32.4913L19.8245 36.3751C18.9933 36.7664 18.1644 36.9637 17.3547 36.9637ZM17.0509 36.3181C17.8712 36.3768 18.7238 36.1969 19.5861 35.7855C19.6092 35.7744 19.6335 35.7663 19.6585 35.7611L37.8216 31.9987L36.8389 31.1361C36.7616 31.0677 36.6555 31.0397 36.5536 31.0604L17.2438 35.0603C17.1861 35.0722 17.1259 35.0678 17.0704 35.0476L2.40413 29.6857C2.30595 29.6497 2.195 29.6631 2.10716 29.7215L1.01556 30.4471L14.514 35.383C14.5378 35.3917 14.5605 35.4033 14.5816 35.4174C15.3824 35.9538 16.2068 36.2562 17.0317 36.3161C17.0381 36.3166 17.0445 36.3172 17.0509 36.3181Z" fill="#2E3349"/>
<path d="M0.317383 30.53L14.4048 35.6812L15.5873 53.7175L2.12151 48.7937C1.744 48.6557 1.48288 48.307 1.45663 47.9064L0.317383 30.53Z" fill="#4A83FF"/>
<path d="M38.8275 50.3955L20.9053 54.1085L20.8553 53.3497L19.7227 36.072L38.51 32.1804L38.5846 33.321L39.6347 49.3351C39.6673 49.8407 39.3236 50.2931 38.8275 50.3955Z" fill="#4A83FF"/>
<g opacity="0.35">
<path opacity="0.35" d="M38.8277 50.3956L20.9055 54.1086L20.8555 53.3498C24.3097 52.7053 30.8579 51.1536 33.9447 48.2446C38.076 44.353 35.8695 37.981 38.5848 33.321L39.6349 49.3351C39.6674 49.8408 39.3237 50.2932 38.8277 50.3956Z" fill="#2E3349"/>
</g>
<g opacity="0.55">
<path opacity="0.55" d="M38.5018 32.0504L38.5716 33.116L19.7847 37.0076L19.7148 35.942L38.5018 32.0504Z" fill="white"/>
</g>
<path d="M19.7233 36.072L20.9058 54.1082C19.9855 54.5474 19.0825 54.7355 18.1968 54.6699C18.1955 54.67 18.1929 54.6702 18.1915 54.669C17.3059 54.6047 16.4375 54.2866 15.5878 53.7174L14.4053 35.6812C15.255 36.2504 16.1234 36.5684 17.009 36.6327C17.0104 36.6339 17.013 36.6338 17.0143 36.6337C17.9001 36.6993 18.803 36.5112 19.7233 36.072Z" fill="#3AB4FF"/>
<path d="M18.537 54.7261C18.4218 54.7261 18.3073 54.7219 18.1932 54.7134C18.191 54.7133 18.1886 54.7129 18.186 54.7123C17.2984 54.6475 16.4159 54.325 15.5632 53.7537C15.5519 53.7461 15.5448 53.7338 15.5439 53.7202L14.3614 35.684C14.3603 35.6675 14.3687 35.6518 14.3832 35.6435C14.3974 35.6352 14.4153 35.6359 14.4291 35.645C15.27 36.2082 16.1389 36.5259 17.0118 36.5894C17.0146 36.5896 17.0174 36.5901 17.0201 36.5907C17.8949 36.6542 18.7961 36.466 19.7041 36.0327C19.7171 36.0264 19.7325 36.0271 19.7449 36.0344C19.7574 36.0417 19.7654 36.0547 19.7663 36.0692L20.9488 54.1055C20.95 54.1232 20.9402 54.14 20.9241 54.1476C20.1185 54.5321 19.3171 54.7261 18.537 54.7261ZM18.2037 54.6273C19.071 54.6892 19.9621 54.5055 20.86 54.0817L19.6836 36.1387C18.7786 36.5604 17.8799 36.7423 17.0107 36.6772C17.0085 36.6771 17.006 36.6767 17.0034 36.6761C16.1415 36.6131 15.2841 36.307 14.4541 35.766L15.6294 53.6931C16.4646 54.2489 17.3274 54.5626 18.1943 54.6256C18.1975 54.6258 18.2007 54.6264 18.2037 54.6273Z" fill="#102770"/>
<g opacity="0.55">
<path opacity="0.55" d="M14.4048 35.6809L14.4754 36.7582L1.8445 32.1392C1.57704 32.0414 1.29733 32.2509 1.31594 32.5351L2.38824 48.8905L2.12149 48.7934C1.744 48.6554 1.48288 48.3067 1.45661 47.9061L0.317383 30.5297L14.4048 35.6809Z" fill="white"/>
</g>
<path d="M19.7233 36.072L20.9058 54.1082C19.9855 54.5474 19.0825 54.7355 18.1968 54.6699C18.1955 54.67 18.1929 54.6702 18.1915 54.669C17.3059 54.6047 16.4375 54.2866 15.5878 53.7174L14.4053 35.6812C15.255 36.2504 16.1234 36.5684 17.009 36.6327C17.0104 36.6339 17.013 36.6338 17.0143 36.6337C17.9001 36.6993 18.803 36.5112 19.7233 36.072Z" fill="#3AB4FF"/>
<path d="M18.537 54.7261C18.4218 54.7261 18.3073 54.7219 18.1932 54.7134C18.191 54.7133 18.1886 54.7129 18.186 54.7123C17.2984 54.6475 16.4159 54.325 15.5632 53.7537C15.5519 53.7461 15.5448 53.7338 15.5439 53.7202L14.3614 35.684C14.3603 35.6675 14.3687 35.6518 14.3832 35.6435C14.3974 35.6352 14.4153 35.6359 14.4291 35.645C15.27 36.2082 16.1389 36.5259 17.0118 36.5894C17.0146 36.5896 17.0174 36.5901 17.0201 36.5907C17.8949 36.6542 18.7961 36.466 19.7041 36.0327C19.7171 36.0264 19.7325 36.0271 19.7449 36.0344C19.7574 36.0417 19.7654 36.0547 19.7663 36.0692L20.9488 54.1055C20.95 54.1232 20.9402 54.14 20.9241 54.1476C20.1185 54.5321 19.3171 54.7261 18.537 54.7261ZM18.2037 54.6273C19.071 54.6892 19.9621 54.5055 20.86 54.0817L19.6836 36.1387C18.7786 36.5604 17.8799 36.7423 17.0107 36.6772C17.0085 36.6771 17.006 36.6767 17.0034 36.6761C16.1415 36.6131 15.2841 36.307 14.4541 35.766L15.6294 53.6931C16.4646 54.2489 17.3274 54.5626 18.1943 54.6256C18.1975 54.6258 18.2007 54.6264 18.2037 54.6273Z" fill="#102770"/>
<path d="M19.7233 36.072L20.9058 54.1082C19.9855 54.5474 19.0825 54.7355 18.1968 54.6699C18.1955 54.67 18.1929 54.6702 18.1915 54.669C17.3059 54.6047 16.4375 54.2866 15.5878 53.7174L14.4053 35.6812C15.255 36.2504 16.1234 36.5684 17.009 36.6327C17.0104 36.6339 17.013 36.6338 17.0143 36.6337C17.9001 36.6993 18.803 36.5112 19.7233 36.072Z" fill="#F92323"/>
<path d="M15.5874 54.035C15.5507 54.035 15.5138 54.0286 15.4784 54.0157L2.01256 49.092C1.517 48.9108 1.17447 48.4537 1.13991 47.9272L0.000681601 30.5508C-0.00634282 30.4437 0.0412804 30.3402 0.127181 30.2759C0.213061 30.2117 0.32571 30.1952 0.426572 30.2318L14.514 35.3831C14.632 35.4263 14.7135 35.5351 14.7218 35.6605L15.9043 53.6967C15.9113 53.8038 15.8637 53.9073 15.7778 53.9716C15.7221 54.0133 15.655 54.035 15.5874 54.035ZM0.666216 30.9956L1.77357 47.8857C1.79165 48.1613 1.97103 48.4007 2.2306 48.4955L15.2387 53.2519L14.1017 35.9084L0.666216 30.9956Z" fill="#2E3349"/>
<path d="M20.1377 42.3961C19.2174 42.8353 18.3145 43.0233 17.4288 42.9578C17.4275 42.9578 17.4249 42.958 17.4235 42.9568C16.5379 42.8925 15.6695 42.5744 14.8197 42.0052L14.6836 39.9288C15.5333 40.498 16.4017 40.8161 17.2874 40.8804C17.2887 40.8816 17.2913 40.8815 17.2927 40.8814C18.1784 40.947 19.0813 40.7589 20.0016 40.3197L20.1377 42.3961Z" fill="#FFCE00"/>
<path d="M20.5518 49.6228C19.6315 50.062 18.7285 50.2501 17.8428 50.1845C17.8415 50.1846 17.8389 50.1847 17.8375 50.1835C16.9519 50.1192 16.0835 49.8011 15.2338 49.2319L15.0977 47.1555C15.9474 47.7248 16.8158 48.0428 17.7014 48.1071C17.7028 48.1083 17.7054 48.1081 17.7067 48.1081C18.5924 48.1737 19.4953 47.9856 20.4157 47.5464L20.5518 49.6228Z" fill="#FFCE00"/>
<path d="M18.2512 50.6348C18.1293 50.6348 18.0079 50.6304 17.8869 50.6215V50.6214C17.8807 50.621 17.8746 50.6203 17.8685 50.6195C16.9368 50.5492 16.0137 50.2116 15.1246 49.616C15.0427 49.5612 14.991 49.4715 14.9845 49.373L14.8483 47.2967C14.8405 47.1761 14.9018 47.0614 15.0066 47.0009C15.1114 46.9406 15.2414 46.9448 15.3419 47.0122C16.1426 47.5486 16.9669 47.8509 17.792 47.9109C17.7984 47.9113 17.8048 47.9119 17.8111 47.9128C18.6307 47.971 19.4841 47.7917 20.3464 47.3803C20.4414 47.3349 20.5528 47.3396 20.6437 47.3929C20.7345 47.4461 20.7931 47.541 20.8 47.6461L20.9361 49.7225C20.9446 49.8521 20.8733 49.9738 20.7561 50.0297C19.9132 50.432 19.0723 50.6348 18.2512 50.6348ZM17.9472 49.9892C18.7051 50.0433 19.492 49.8938 20.2881 49.5455L20.1959 48.139C19.3705 48.4678 18.5498 48.6039 17.7507 48.5451V48.5451C17.7446 48.5446 17.7385 48.544 17.7325 48.5432C16.9856 48.4869 16.2445 48.2589 15.5218 47.8639L15.6077 49.1733C16.3676 49.6568 17.1475 49.9305 17.928 49.9872C17.9344 49.9877 17.9408 49.9883 17.9472 49.9892Z" fill="#2E3349"/>
<path d="M20.9053 54.4258C20.8364 54.4258 20.7687 54.4033 20.713 54.361C20.6399 54.3053 20.5944 54.2207 20.5884 54.129L19.406 36.0927C19.3956 35.9347 19.5033 35.7932 19.6584 35.7611L38.4453 31.8695C38.5353 31.8512 38.6288 31.8722 38.702 31.9277C38.7751 31.9835 38.8205 32.068 38.8265 32.1597L39.9512 49.3145C39.9945 49.974 39.5392 50.5725 38.8922 50.7067L20.9697 54.4192C20.9483 54.4236 20.9267 54.4258 20.9053 54.4258ZM20.0577 36.3268L21.1982 53.7233L38.7633 50.0849C39.1019 50.0147 39.3402 49.7014 39.3176 49.356L38.2167 32.5653L20.0577 36.3268Z" fill="#2E3349"/>
<path d="M18.5378 55.0001C18.4159 55.0001 18.2945 54.9955 18.1735 54.9866V54.9865C18.1674 54.9861 18.1612 54.9854 18.1551 54.9847C17.2234 54.9143 16.3003 54.5767 15.4112 53.9812C15.3293 53.9263 15.2775 53.8366 15.2711 53.7382L14.0886 35.702C14.0807 35.5814 14.142 35.4666 14.2468 35.4062C14.3516 35.3458 14.4816 35.3502 14.5821 35.4174C15.3829 35.9539 16.2073 36.2562 17.0322 36.3162C17.0386 36.3166 17.045 36.3172 17.0514 36.3181C17.8714 36.3767 18.7243 36.1971 19.5866 35.7855C19.6817 35.74 19.793 35.7447 19.8839 35.7981C19.9748 35.8513 20.0333 35.9461 20.0402 36.0513L21.2227 54.0876C21.2312 54.2171 21.1599 54.3389 21.0427 54.3948C20.1998 54.7971 19.3589 55.0001 18.5378 55.0001ZM18.2337 54.3543C18.9919 54.4085 19.7786 54.259 20.5748 53.9107L19.4361 36.5442C18.6106 36.873 17.7902 37.0093 16.9909 36.9504C16.9847 36.9499 16.9785 36.9493 16.9723 36.9485C16.2258 36.8921 15.4846 36.6641 14.7621 36.2692L15.8943 53.5384C16.6542 54.022 17.4341 54.2957 18.2147 54.3524C18.221 54.3529 18.2275 54.3534 18.2337 54.3543Z" fill="#2E3349"/>
<path d="M17.6337 41.2114C17.5117 41.2115 17.3903 41.207 17.2693 41.1981V41.198C17.2632 41.1976 17.2571 41.1969 17.251 41.1961C16.3192 41.1258 15.3961 40.7882 14.507 40.1926C14.3613 40.0951 14.3224 39.8979 14.42 39.7522C14.5175 39.6065 14.7147 39.5674 14.8604 39.6652C15.6611 40.2015 16.4854 40.5038 17.3105 40.5638C17.3169 40.5643 17.3233 40.5649 17.3296 40.5658C18.149 40.624 19.0026 40.4447 19.865 40.0333C20.0233 39.9576 20.2127 40.0248 20.2883 40.183C20.3638 40.3413 20.2967 40.5308 20.1385 40.6063C19.2956 41.0085 18.4547 41.2114 17.6337 41.2114Z" fill="#2E3349"/>
<path d="M17.7697 43.2878C17.6476 43.2878 17.5262 43.2833 17.405 43.2743V43.2742C17.3995 43.2738 17.3939 43.2732 17.3883 43.2726C16.4562 43.2025 15.5325 42.865 14.6428 42.2689C14.4971 42.1713 14.4581 41.9741 14.5557 41.8284C14.6533 41.6829 14.8504 41.6437 14.9961 41.7414C15.797 42.2778 16.6213 42.5802 17.4463 42.6402C17.4521 42.6406 17.458 42.6411 17.4638 42.6419C18.2843 42.7008 19.1376 42.5213 20.0007 42.1095C20.1591 42.0338 20.3485 42.1011 20.424 42.2593C20.4995 42.4175 20.4325 42.607 20.2742 42.6825C19.4313 43.0848 18.5905 43.2878 17.7697 43.2878Z" fill="#2E3349"/>
<path d="M18.1151 48.5618C17.9932 48.5619 17.8718 48.5574 17.7508 48.5484V48.5483C17.7447 48.5479 17.7385 48.5473 17.7324 48.5465C16.8007 48.4761 15.8775 48.1386 14.9885 47.543C14.8428 47.4454 14.8038 47.2483 14.9014 47.1025C14.999 46.9569 15.1961 46.9177 15.3418 47.0155C16.1426 47.5519 16.9669 47.8542 17.792 47.9142C17.7984 47.9147 17.8048 47.9153 17.8111 47.9161C18.6304 47.9744 19.4841 47.7951 20.3464 47.3836C20.5047 47.3078 20.6941 47.3752 20.7697 47.5334C20.8452 47.6916 20.7782 47.8811 20.6199 47.9566C19.7771 48.3589 18.9362 48.5618 18.1151 48.5618Z" fill="#2E3349"/>
<path d="M18.2517 50.6383C18.1299 50.6383 18.0084 50.6338 17.8875 50.6249C17.8813 50.6244 17.875 50.6237 17.8688 50.6229C16.9374 50.5526 16.0143 50.215 15.1252 49.6196C14.9795 49.5219 14.9405 49.3247 15.0381 49.179C15.1357 49.0335 15.3328 48.9943 15.4786 49.0919C16.2794 49.6284 17.1037 49.9307 17.9287 49.9906C17.9351 49.9911 17.9415 49.9917 17.9478 49.9926C18.7679 50.0512 19.6208 49.8716 20.4831 49.46C20.6414 49.3841 20.8309 49.4515 20.9064 49.6098C20.9819 49.768 20.9149 49.9575 20.7566 50.033C19.9136 50.4353 19.0727 50.6383 18.2517 50.6383Z" fill="#2E3349"/>
<g opacity="0.35">
<path opacity="0.35" d="M13.601 33.4409C13.5804 33.4719 13.551 33.498 13.5129 33.5179C12.3866 34.1132 12.0136 33.8449 11.658 34.6775C11.604 34.8045 11.5501 34.9577 11.4937 35.1434C10.2746 39.1826 4.20022 34.8624 5.22412 32.444C5.23922 32.409 5.25349 32.3749 5.26936 32.3408C5.57574 31.6534 5.96069 31.1542 6.39644 30.8065L13.601 33.4409Z" fill="#2E3349"/>
</g>
<path d="M12.7194 32.7245C11.4204 33.4106 11.1232 32.9486 10.7002 34.3498C9.4808 38.3888 3.4067 34.0688 4.43006 31.6506C6.74775 26.1739 13.8903 32.1061 12.7194 32.7245Z" fill="white"/>
<g opacity="0.35">
<path opacity="0.35" d="M12.7191 32.7241C11.4206 33.4107 11.1229 32.9488 10.6999 34.3497C9.54104 38.1881 3.99768 34.4767 4.32868 32.0233C5.56926 34.1394 9.38309 35.9816 10.3213 32.8734C10.6888 31.6566 12.027 32.0305 12.835 32.4011C12.8691 32.5503 12.835 32.6631 12.7191 32.7241Z" fill="#2E3349"/>
</g>
<path d="M8.66433 36.3226C7.27338 36.3226 5.71362 35.3191 4.84368 34.2489C4.06697 33.2934 3.80945 32.3013 4.13717 31.5269C5.10313 29.2443 6.81036 28.9236 8.07216 29.0564C10.3655 29.2978 12.9506 31.3222 13.1508 32.3604C13.2051 32.6417 13.099 32.8828 12.8671 33.0052C12.8671 33.0052 12.8671 33.0053 12.8671 33.0053C12.4437 33.2289 12.126 33.3354 11.8707 33.421C11.3681 33.5896 11.2487 33.6296 11.0036 34.4415C10.6131 35.735 9.79239 36.1522 9.17263 36.2744C9.00694 36.307 8.83691 36.3226 8.66433 36.3226ZM7.57694 29.6621C6.27426 29.6621 5.31656 30.3693 4.72188 31.7744C4.48877 32.3253 4.71274 33.0812 5.33642 33.8484C6.20954 34.9224 7.83706 35.8907 9.04982 35.6514C9.7026 35.5226 10.1554 35.0539 10.3957 34.258C10.7212 33.1797 11.0386 33.0303 11.6688 32.819C11.8934 32.7437 12.1708 32.6507 12.5278 32.4661C12.452 31.9983 10.6785 30.2869 8.61026 29.7929C8.24491 29.7056 7.90016 29.6621 7.57694 29.6621ZM12.7188 32.7245H12.7198H12.7188Z" fill="#2E3349"/>
<g opacity="0.35">
<path opacity="0.35" d="M28.482 32.8465C27.7899 33.791 27.351 33.8021 27.32 34.4982C27.3113 34.676 27.3303 34.8982 27.3772 35.1911C28.0129 39.151 21.402 38.2358 20.6297 35.884C20.5885 35.7618 20.5647 35.6356 20.5575 35.5062C20.5281 34.9387 20.5837 34.4458 20.7075 34.0188L28.3757 32.4305C28.5288 32.575 28.5757 32.7187 28.482 32.8465Z" fill="#2E3349"/>
</g>
<path d="M27.6889 32.386C26.8208 33.571 26.3515 33.2855 26.5838 34.7305C27.2536 38.8961 19.9019 37.6674 19.7647 35.0452C19.4539 29.1064 28.4715 31.3177 27.6889 32.386Z" fill="white"/>
<g opacity="0.35">
<path opacity="0.35" d="M27.6882 32.386C26.8198 33.571 26.3508 33.2853 26.5833 34.7306C27.2524 38.8961 19.901 37.6674 19.7637 35.045C19.7637 35.0442 19.7637 35.0442 19.7637 35.0434C21.4614 36.5237 25.2903 36.6737 25.8007 33.4059C25.9983 32.1391 26.6404 32.0431 27.5358 31.9288C27.7255 32.0876 27.7906 32.2463 27.6882 32.386Z" fill="#2E3349"/>
</g>
<path d="M23.8338 37.7574C22.9354 37.7574 22.0032 37.5409 21.2726 37.2009C20.1563 36.6812 19.4908 35.9016 19.4469 35.0618C19.3174 32.5867 20.7123 31.5517 21.9053 31.1193C24.0735 30.3334 27.2834 31.0237 27.9174 31.8696C28.0893 32.099 28.0993 32.3621 27.9443 32.5736C27.6612 32.96 27.4221 33.1948 27.23 33.3834C26.8518 33.7547 26.7619 33.8429 26.8965 34.6802C27.111 36.0142 26.5553 36.7483 26.0515 37.1292C25.4651 37.5725 24.6639 37.7574 23.8338 37.7574ZM24.0927 31.4033C23.6357 31.4033 23.1672 31.4454 22.7113 31.5464C20.8664 31.9554 19.9815 33.1271 20.081 35.0287C20.1122 35.626 20.6443 36.208 21.5406 36.6252C22.7955 37.2091 24.6826 37.3679 25.6686 36.6228C26.1993 36.2214 26.4016 35.6018 26.2696 34.781C26.0908 33.6691 26.3109 33.3958 26.7852 32.9303C26.9542 32.7643 27.163 32.5594 27.4034 32.2372C27.1906 31.9347 25.7163 31.4033 24.0927 31.4033ZM27.6882 32.386H27.6892H27.6882Z" fill="#2E3349"/>
<g opacity="0.35">
<path opacity="0.35" d="M19.7827 36.9791L20.9057 54.1079C20.2177 54.4369 19.5374 54.6247 18.8686 54.6711C18.979 54.6261 19.089 54.5773 19.1988 54.5245L18.2196 39.5885C18.1472 38.4851 18.7669 37.4623 19.7655 36.9873C19.7712 36.9846 19.7769 36.9818 19.7827 36.9791Z" fill="#2E3349"/>
</g>
<path d="M34.5321 41.6618L33.8242 42.7895C33.7536 42.9008 33.7169 43.0287 33.7145 43.1568C33.7119 43.2582 33.7323 43.3609 33.7738 43.457L33.8554 43.6453L34.3011 44.6791C34.538 45.2257 34.0444 45.8068 33.4656 45.662L32.1742 45.3379C31.9448 45.2804 31.7021 45.3391 31.5241 45.496L30.5245 46.3752C30.0771 46.7695 29.3724 46.4792 29.3317 45.8846L29.2415 44.5564C29.2246 44.3198 29.0934 44.1068 28.8902 43.9863L27.7446 43.3085C27.2533 43.0173 27.2854 42.3085 27.7749 42.0528C27.7965 42.0417 27.8194 42.0312 27.8426 42.0217L29.078 41.5248C29.297 41.4363 29.4594 41.2455 29.5111 41.0149L29.7454 39.9724L29.8027 39.7163C29.9333 39.134 30.674 38.9545 31.0568 39.4114L31.9109 40.433C32.0625 40.614 32.294 40.7092 32.5298 40.6873L33.8551 40.5628C34.4487 40.5076 34.848 41.1563 34.5321 41.6618Z" fill="white"/>
<path d="M33.5031 41.8554L32.8523 42.8921C32.7874 42.9944 32.7536 43.1119 32.7514 43.2297C32.7491 43.323 32.7678 43.4174 32.8059 43.5057L32.8809 43.6789L33.2907 44.6293C33.5085 45.1317 33.0547 45.666 32.5225 45.5329L31.3354 45.2349C31.1244 45.1821 30.9013 45.236 30.7377 45.3803L29.8187 46.1886C29.4073 46.551 28.7595 46.2842 28.7221 45.7375L28.6391 44.5164C28.6237 44.2989 28.503 44.1031 28.3162 43.9924L27.263 43.3692C26.8114 43.1015 26.8409 42.4499 27.2908 42.2148C27.3107 42.2046 27.3318 42.195 27.3531 42.1862L28.4889 41.7294C28.6902 41.648 28.8395 41.4726 28.887 41.2607L29.1024 40.3022L29.155 40.0667C29.2752 39.5314 29.9561 39.3664 30.308 39.7865L31.0932 40.7257C31.2326 40.8921 31.4454 40.9795 31.6622 40.9594L32.8806 40.845C33.4264 40.7942 33.7935 41.3906 33.5031 41.8554Z" fill="#FFCE00"/>
<g opacity="0.6">
<path opacity="0.6" d="M33.5032 41.8554L32.8524 42.8921C32.7875 42.9944 32.7537 43.1119 32.7515 43.2297C32.7067 43.2146 32.6621 43.1975 32.6175 43.1804C32.5244 43.1436 32.4281 43.103 32.3663 43.0253C32.2899 42.9293 32.2811 42.792 32.3196 42.6767C32.3587 42.5602 32.438 42.4624 32.5256 42.3764C32.666 42.2386 32.8462 42.0913 32.8312 41.8942C32.8204 41.7487 32.6962 41.6319 32.5576 41.5861C32.419 41.5404 32.2683 41.5531 32.1243 41.5733C31.92 41.6007 31.717 41.6423 31.5175 41.6964C31.3798 41.7339 31.2396 41.7782 31.0972 41.7731C30.7823 41.7613 30.5258 41.5138 30.3605 41.2468C30.194 40.9792 30.0853 40.6759 29.887 40.4317C29.8422 40.3763 29.7902 40.3225 29.7254 40.2931C29.6624 40.266 29.5913 40.2624 29.5224 40.262C29.3789 40.2623 29.2397 40.2768 29.1025 40.3022L29.1552 40.0667C29.2753 39.5314 29.9563 39.3664 30.3082 39.7865L31.0934 40.7257C31.2327 40.8921 31.4455 40.9795 31.6623 40.9594L32.8808 40.845C33.4265 40.7942 33.7936 41.3906 33.5032 41.8554Z" fill="white"/>
</g>
<path d="M33.2907 44.6293C33.5085 45.1317 33.0547 45.666 32.5225 45.533L31.3354 45.2349C31.1244 45.1821 30.9013 45.2361 30.7377 45.3803L29.8187 46.1886C29.4073 46.551 28.7595 46.2842 28.7221 45.7375L28.6391 44.5164C28.6237 44.2989 28.503 44.1031 28.3162 43.9924L27.263 43.3693C26.8114 43.1015 26.8409 42.4499 27.2908 42.2148C27.3037 42.2367 27.3178 42.2591 27.3366 42.2837C27.4599 42.449 27.6439 42.5735 27.8328 42.652C28.197 42.8042 28.6107 42.8576 28.9205 43.1004C29.3573 43.4433 29.4588 44.0472 29.605 44.5826C29.6314 44.6763 29.6658 44.7787 29.7504 44.8274C29.8312 44.8736 29.9341 44.8567 30.0196 44.8216C30.3063 44.7022 30.5011 44.4011 30.8029 44.3283C31.2158 44.2287 32.3012 44.9655 32.5759 44.6363C32.7948 44.3739 32.2319 43.7586 32.8809 43.6789L33.2907 44.6293Z" fill="#E2AC40"/>
<path d="M29.3841 46.6721C29.2583 46.6721 29.1314 46.6476 29.0097 46.5976C28.6626 46.4548 28.4311 46.1334 28.4056 45.7589L28.3222 44.538C28.3145 44.425 28.2518 44.3232 28.1544 44.2656L27.1013 43.642C26.7783 43.4506 26.5954 43.0993 26.624 42.7251C26.6526 42.3508 26.8867 42.0314 27.2349 41.8914L28.3703 41.4349C28.4754 41.3927 28.5528 41.3015 28.5776 41.191L28.8452 39.9968C28.9273 39.6305 29.2049 39.3481 29.5697 39.2595C29.9345 39.1711 30.3107 39.295 30.5514 39.583L31.3364 40.5217C31.4091 40.6085 31.5199 40.6539 31.6324 40.6435L32.8509 40.529C33.225 40.4936 33.579 40.6706 33.7759 40.9902C33.9727 41.3098 33.9712 41.7058 33.7717 42.0237L33.1215 43.0604C33.0613 43.1564 33.0522 43.2757 33.0971 43.3796L33.5825 44.503C33.7314 44.8477 33.6729 45.2393 33.4298 45.5253C33.1867 45.8114 32.8095 45.9321 32.4455 45.8407L31.2586 45.5427C31.1487 45.5151 31.0325 45.5434 30.9475 45.6182L30.0291 46.4269C29.8462 46.588 29.6172 46.6721 29.3841 46.6721ZM29.8036 39.8665C29.7759 39.8665 29.7477 39.8697 29.7193 39.8766C29.5892 39.9082 29.4941 40.005 29.4648 40.1356L29.1972 41.3299C29.1268 41.6443 28.9062 41.9039 28.6072 42.024L27.4717 42.4806C27.3475 42.5306 27.2673 42.6399 27.2571 42.7735C27.2469 42.9069 27.3096 43.0273 27.4248 43.0955L28.4779 43.7191C28.7551 43.8832 28.9338 44.1732 28.9557 44.4948L29.039 45.7157C29.0481 45.8493 29.1275 45.9594 29.2513 46.0103C29.3749 46.0614 29.5089 46.0389 29.6094 45.9504L30.5279 45.1416C30.7697 44.9288 31.1005 44.8483 31.4132 44.9268L32.6001 45.2249C32.7302 45.2576 32.8593 45.216 32.9459 45.114C33.0327 45.0121 33.0527 44.8778 32.9996 44.755L32.5142 43.6315C32.3864 43.3357 32.4123 42.9961 32.5835 42.7231L33.2337 41.6864C33.3049 41.5729 33.3055 41.4372 33.2352 41.3232C33.165 41.2093 33.0427 41.1487 32.9102 41.1611L31.6918 41.2756C31.3706 41.3061 31.056 41.1762 30.8494 40.9291L30.0643 39.9903H30.0642C29.997 39.91 29.9035 39.8665 29.8036 39.8665Z" fill="#2E3349"/>
<path d="M11.448 40.4475C11.4394 40.2086 11.4347 39.9666 11.3527 39.7349C11.3282 39.712 11.3054 39.6884 11.2809 39.6655C11.2092 39.6513 11.1383 39.6293 11.0649 39.6222C10.5478 39.5685 10.0354 39.5938 9.52937 39.7152C8.86959 39.8736 8.28704 40.1724 7.82354 40.6769C7.65561 40.859 7.50743 41.0584 7.3545 41.2531C7.3135 41.3059 7.27961 41.3304 7.20788 41.3099C7.03917 41.2618 6.86418 41.2555 6.68995 41.2728C6.22329 41.3217 5.8323 41.5337 5.48312 41.8341C5.10473 42.1604 4.82096 42.5632 4.56397 42.9873C4.45442 43.1671 4.53324 43.3373 4.74214 43.3744C4.87378 43.3964 5.00544 43.4177 5.13706 43.4398C5.45238 43.4918 5.7669 43.5431 6.08143 43.5951C6.0822 43.6046 6.08379 43.6093 6.083 43.614C6.08143 43.6203 6.07986 43.6274 6.0767 43.6337C5.9758 43.8134 6.0286 43.9577 6.18155 44.0775C6.19808 44.0909 6.21307 44.1075 6.22805 44.1224C6.31083 44.2028 6.39516 44.284 6.48267 44.3676C6.39439 44.4598 6.30609 44.5402 6.2312 44.6325C6.19336 44.679 6.16342 44.7428 6.15554 44.8027C6.14135 44.8997 6.20362 44.9872 6.29349 45.0234C6.38888 45.0629 6.47872 45.0471 6.55125 44.9761C6.64346 44.8871 6.73019 44.7925 6.8232 44.6963C6.94222 44.8122 7.05496 44.9217 7.16767 45.0297C7.29695 45.1527 7.37499 45.1653 7.53582 45.0936C7.56497 45.0794 7.59412 45.0684 7.62882 45.0542C7.63672 45.0896 7.6438 45.118 7.64932 45.1448C7.73602 45.5752 7.82116 46.0064 7.91024 46.4352C7.95201 46.6386 8.12859 46.7111 8.30043 46.5953C8.45572 46.4912 8.61022 46.3824 8.76077 46.2689C9.1076 46.0064 9.41349 45.7029 9.63735 45.3269C9.9172 44.8539 10.0362 44.355 9.86358 43.8126C9.8565 43.7914 9.86908 43.7512 9.88644 43.737C10.0386 43.603 10.1962 43.4753 10.3484 43.3405C10.692 43.0346 10.9498 42.6657 11.1311 42.244C11.3779 41.6709 11.4709 41.0687 11.448 40.4475ZM6.2675 43.1473C5.9033 43.0867 5.5257 43.0236 5.13787 42.959C5.45869 42.4954 5.80948 42.08 6.33133 41.8483C6.55677 41.7482 6.82951 41.7127 6.9998 41.7537C6.7578 42.2156 6.51502 42.6775 6.2675 43.1473ZM9.45607 44.4914C9.41033 44.7862 9.27633 45.0408 9.09977 45.2765C8.87983 45.5666 8.60786 45.7991 8.30912 46.019C8.22949 45.6233 8.15068 45.2363 8.07343 44.8571C8.53533 44.5922 8.98702 44.3337 9.44109 44.0736C9.47972 44.2036 9.47815 44.3479 9.45607 44.4914ZM10.8655 41.5487C10.7638 41.9452 10.6078 42.3157 10.3547 42.6413C10.1592 42.8912 9.92668 43.1032 9.67759 43.2979C9.00202 43.8261 8.25396 44.2328 7.48143 44.5978C7.44361 44.6152 7.41916 44.6167 7.38761 44.5844C7.31904 44.5127 7.24417 44.4449 7.17242 44.3747C7.16769 44.3708 7.16533 44.3637 7.15743 44.3503C7.17557 44.3306 7.19528 44.3109 7.21496 44.2904C7.62329 43.8663 8.03398 43.443 8.44233 43.0181C8.56057 42.8967 8.54007 42.7217 8.40135 42.6397C8.30438 42.5822 8.19088 42.6003 8.10258 42.6902C7.85662 42.944 7.61148 43.1978 7.36632 43.4525C7.18343 43.6416 7.00212 43.83 6.81215 44.0271C6.72386 43.942 6.63953 43.8647 6.56149 43.782C6.54808 43.767 6.55282 43.7236 6.56462 43.7008C6.75538 43.2964 6.94378 42.8904 7.14559 42.4908C7.34503 42.0943 7.58309 41.7198 7.85424 41.3683C8.10809 41.0364 8.39187 40.7345 8.75841 40.5248C8.99333 40.39 9.24083 40.2852 9.50254 40.2166C9.52617 40.2095 9.56481 40.2284 9.58531 40.2481C9.90849 40.5571 10.2285 40.8669 10.5494 41.1775C10.6456 41.2697 10.7409 41.3643 10.8395 41.455C10.8687 41.4825 10.8758 41.5085 10.8655 41.5487ZM10.9522 41.0355C10.6322 40.7257 10.32 40.4246 10.0071 40.1219C10.0063 40.114 10.0071 40.1046 10.0071 40.0959C10.3169 40.0864 10.6275 40.0778 10.9412 40.0683C10.9853 40.401 10.9822 40.7124 10.9522 41.0355Z" fill="#2E3349"/>
<path d="M10.8388 41.4549C10.7403 41.3642 10.6449 41.2696 10.5487 41.1774C10.2279 40.8668 9.90785 40.557 9.58467 40.248C9.56417 40.2283 9.52556 40.2094 9.5019 40.2165C9.24019 40.2851 8.99269 40.3899 8.75777 40.5247C8.39121 40.7344 8.10745 41.0363 7.8536 41.3681C7.58245 41.7197 7.34439 42.0942 7.14495 42.4906C6.94315 42.8903 6.75474 43.2963 6.56398 43.7007C6.55218 43.7235 6.54744 43.7669 6.56085 43.7819C6.63889 43.8646 6.72322 43.9419 6.81151 44.027C7.00148 43.8299 7.18279 43.6415 7.36568 43.4523C7.61082 43.1977 7.85598 42.9439 8.10194 42.6901C8.19022 42.6002 8.30374 42.5821 8.40071 42.6396C8.53943 42.7216 8.55993 42.8966 8.44169 43.018C8.03336 43.4429 7.62267 43.8662 7.21432 44.2903C7.19464 44.3108 7.17493 44.3305 7.15679 44.3502C7.16467 44.3636 7.16705 44.3707 7.17178 44.3746C7.24351 44.4448 7.3184 44.5126 7.38698 44.5843C7.41853 44.6166 7.44295 44.615 7.48079 44.5977C8.25332 44.2327 9.00138 43.826 9.67696 43.2978C9.92604 43.1031 10.1586 42.8911 10.3541 42.6412C10.6071 42.3156 10.7632 41.9451 10.8649 41.5486C10.8751 41.5085 10.868 41.4824 10.8388 41.4549ZM10.1089 42.1115C9.79594 42.4308 9.28668 42.441 8.96904 42.1328C8.64978 41.8254 8.64191 41.3161 8.9509 40.9937C9.2544 40.6776 9.7644 40.6705 10.0845 40.978C10.4013 41.2838 10.4132 41.8001 10.1089 42.1115Z" fill="white"/>
<path d="M10.9522 41.0352C10.6321 40.726 10.3198 40.4244 10.007 40.1218C10.0066 40.1136 10.0071 40.1048 10.0069 40.0958C10.3168 40.0867 10.6274 40.0779 10.9415 40.0682C10.9856 40.4005 10.9821 40.7122 10.9522 41.0352Z" fill="#DB2C2C"/>
<path d="M6.99992 41.7538C6.75738 42.2153 6.51466 42.6776 6.26758 43.1478C5.90274 43.0865 5.52529 43.0237 5.1377 42.9593C5.45879 42.4952 5.80934 42.0797 6.33133 41.8484C6.55651 41.7479 6.82901 41.7126 6.99992 41.7538Z" fill="#DB2C2C"/>
<path d="M9.09926 45.2766C8.87938 45.5667 8.60785 45.7995 8.30876 46.019C8.22899 45.6236 8.15043 45.2365 8.07324 44.8571C8.53527 44.5924 8.98677 44.3341 9.44136 44.0732C9.47989 44.2037 9.47779 44.3477 9.45618 44.4917C9.41048 44.7865 9.2765 45.0409 9.09926 45.2766Z" fill="#DB2C2C"/>
<path d="M10.0848 40.978C9.76474 40.6705 9.25473 40.6776 8.95123 40.9937C8.64224 41.3161 8.65012 41.8254 8.96937 42.1328C9.28704 42.441 9.79627 42.4308 10.1092 42.1115C10.4135 41.8001 10.4017 41.2838 10.0848 40.978ZM9.82701 41.8537C9.66856 42.0161 9.40054 42.0201 9.23422 41.8624C9.06238 41.7 9.06079 41.4234 9.23027 41.2531C9.38871 41.0923 9.66227 41.0907 9.82385 41.2499C9.99254 41.4155 9.99333 41.6835 9.82701 41.8537Z" fill="#2E3349"/>
<path d="M9.82708 41.8538C9.66866 42.0162 9.40062 42.0201 9.23403 41.8623C9.06287 41.7 9.06102 41.4236 9.2303 41.2533C9.38913 41.0927 9.66233 41.0909 9.82373 41.2499C9.99245 41.4155 9.99388 41.6838 9.82708 41.8538Z" fill="#22A7F0"/>
</svg>
