<svg width="46" height="55" viewBox="0 0 46 55" fill="none" xmlns="http://www.w3.org/2000/svg">
<g opacity="0.2">
<g opacity="0.2">
<g opacity="0.2">
<g opacity="0.2">
<path opacity="0.2" d="M36.0486 52.4668C32.2646 52.4668 29.0088 52.7242 27.5565 53.0935C26.1288 52.4236 20.913 51.9269 14.6961 51.9269C7.37953 51.9269 1.44824 52.6148 1.44824 53.4635C1.44824 54.3121 7.37953 55 14.6961 55C20.6762 55 25.73 54.5404 27.3771 53.9092C28.7261 54.3046 32.0997 54.5849 36.0486 54.5849C41.1848 54.5849 45.3486 54.1107 45.3486 53.5258C45.3486 52.9409 41.1848 52.4668 36.0486 52.4668Z" fill="#2E3349"/>
</g>
</g>
</g>
</g>
<path d="M20.0531 44.4515H14.7373V50.1826H20.0531V44.4515Z" fill="#FFC099"/>
<path d="M20.0992 50.2291H14.6904V44.405H20.0992V50.2291ZM14.7834 50.1361H20.0062V44.498H14.7834V50.1361Z" fill="#2E3349"/>
<g opacity="0.2">
<g opacity="0.2">
<g opacity="0.2">
<g opacity="0.2">
<path opacity="0.2" d="M20.0531 44.4515V46.2024C18.7275 46.7689 16.862 47.17 14.7373 47.3071V44.4516H20.0531V44.4515Z" fill="#2E3349"/>
</g>
</g>
</g>
</g>
<path d="M20.0532 50.5149H14.7375C14.554 50.5149 14.4053 50.3661 14.4053 50.1827V44.4516C14.4053 44.2681 14.554 44.1194 14.7375 44.1194H20.0532C20.2368 44.1194 20.3855 44.2681 20.3855 44.4516V50.1827C20.3855 50.3661 20.2368 50.5149 20.0532 50.5149ZM15.0697 49.8504H19.721V44.7838H15.0697V49.8504Z" fill="#2E3349"/>
<path d="M20.0531 47.4857V50.1826H14.7373V47.5389C15.7108 47.7864 17.6228 48.0796 20.0531 47.4857Z" fill="white"/>
<path d="M20.0992 50.2291H14.6904V47.4791L14.7484 47.4938C15.6773 47.73 17.6002 48.0372 20.0416 47.4406L20.0992 47.4265V50.2291ZM14.7834 50.1361H20.0062V47.5448C17.622 48.1156 15.7337 47.8325 14.7834 47.5985V50.1361Z" fill="#2E3349"/>
<g opacity="0.2">
<g opacity="0.2">
<g opacity="0.2">
<g opacity="0.2">
<path opacity="0.2" d="M20.0531 48.578H14.7373V50.0041H20.0531V48.578Z" fill="#2E3349"/>
</g>
</g>
</g>
</g>
<path d="M20.0528 50.4616H14.737C14.5829 50.4616 14.458 50.3367 14.458 50.1826V47.5388C14.458 47.4527 14.4978 47.3714 14.5658 47.3186C14.6337 47.2657 14.7223 47.2472 14.8057 47.2684C15.7137 47.4993 17.5941 47.7993 19.9865 47.2146C20.0698 47.1943 20.1577 47.2133 20.225 47.2662C20.2924 47.3191 20.3317 47.4 20.3317 47.4857V50.1826C20.3317 50.3367 20.2068 50.4616 20.0528 50.4616ZM15.016 49.9036H19.7738V47.836C17.6947 48.2833 16.0088 48.0993 15.016 47.8899V49.9036Z" fill="#2E3349"/>
<path d="M22.7499 51.9002C22.7449 53.3222 20.6344 53.5124 18.2373 53.5049C16.018 53.4974 14.1525 53.5631 13.895 51.7241C13.8759 51.5888 13.8659 51.4426 13.8651 51.2848C13.8643 51.2723 13.8643 51.2598 13.8643 51.2474C13.8726 48.729 14.7447 48.759 15.0769 48.8428C15.591 48.9732 15.753 49.8154 16.5686 49.7615C17.7639 49.6826 17.9782 48.9508 19.1999 48.7581C20.0787 48.6186 21.2067 49.2449 21.9525 50.1037C22.1261 50.303 22.2789 50.5157 22.4035 50.7341C22.6211 51.117 22.7507 51.5182 22.7499 51.9002Z" fill="#4A83FF"/>
<path d="M22.7061 51.9609C22.5915 53.2766 20.5333 53.4635 18.2035 53.4635C16.2143 53.4635 14.5099 53.5208 13.9883 52.2101C15.6719 52.4244 18.907 52.6486 22.7061 51.9609Z" fill="white"/>
<g opacity="0.2">
<g opacity="0.2">
<g opacity="0.2">
<g opacity="0.2">
<path opacity="0.2" d="M22.7494 51.9003C22.7444 53.3223 20.6339 53.5125 18.2369 53.505C16.0175 53.4975 14.152 53.5632 13.8945 51.7242C17.6912 52.6387 20.3939 51.7633 21.2984 51.3455C21.8009 51.1138 21.9437 50.593 21.952 50.1038C22.1257 50.3031 22.2785 50.5157 22.4031 50.7342C22.6207 51.1171 22.7503 51.5182 22.7494 51.9003Z" fill="#2E3349"/>
</g>
</g>
</g>
</g>
<path d="M17.7696 53.8376C16.2345 53.8376 14.9184 53.8021 14.1527 53.0373C13.7358 52.6209 13.5332 52.0403 13.5332 51.2624C13.5332 49.9239 13.7692 49.089 14.2548 48.7099C14.5101 48.5105 14.8198 48.4487 15.1504 48.5314C15.4579 48.6083 15.6592 48.8333 15.8369 49.0319C16.0806 49.3043 16.2339 49.4574 16.5418 49.4359C17.0816 49.3984 17.3855 49.2112 17.7374 48.9944C18.0894 48.7776 18.4883 48.5318 19.1396 48.4266C19.8987 48.3039 20.8501 48.6548 21.6845 49.3652C22.5614 50.1118 23.0849 51.0539 23.0849 51.8854C23.0849 52.3213 22.9256 52.6902 22.6115 52.9818C22.3461 53.2282 21.9778 53.4137 21.4857 53.5488C20.56 53.803 19.3281 53.8372 18.2451 53.8372C18.1648 53.8372 18.0849 53.8373 18.0056 53.8374C17.9265 53.8375 17.8477 53.8376 17.7696 53.8376ZM14.8728 49.1606C14.7717 49.1606 14.7069 49.1999 14.6637 49.2336C14.5236 49.343 14.1977 49.7597 14.1977 51.2624C14.1977 51.855 14.3366 52.2818 14.6222 52.5671C15.232 53.1762 16.5168 53.1747 18.0049 53.1729C18.0844 53.1728 18.1645 53.1727 18.2451 53.1727C19.223 53.1727 20.4553 53.1427 21.3097 52.9081C22.3053 52.6347 22.4205 52.1934 22.4205 51.8853C22.4205 51.2556 21.9734 50.4838 21.2538 49.8711C20.576 49.2941 19.8066 48.9918 19.2456 49.0825C18.7246 49.1667 18.4144 49.3578 18.0859 49.5602C17.695 49.8009 17.2909 50.0499 16.5879 50.0988C15.9401 50.1438 15.5943 49.7572 15.3417 49.475C15.2113 49.3292 15.0987 49.2034 14.9892 49.176C14.9458 49.1652 14.9072 49.1606 14.8728 49.1606Z" fill="#2E3349"/>
<path d="M21.1041 49.6014C21.0982 49.6032 21.0858 49.6047 21.076 49.6062L21.0438 49.6112L20.9782 49.6205L20.8456 49.6389C20.7569 49.6514 20.6682 49.664 20.5797 49.678C20.4029 49.7063 20.2261 49.737 20.0531 49.7843C19.9663 49.8073 19.8813 49.8354 19.7968 49.8663C19.7121 49.8973 19.6297 49.9337 19.5482 49.9744C19.466 50.0141 19.3881 50.0619 19.3099 50.1128C19.2316 50.1639 19.1583 50.223 19.083 50.2852L19.0818 50.2862C19.0674 50.2981 19.046 50.2961 19.0341 50.2816C19.0256 50.2714 19.0242 50.2575 19.0293 50.2461C19.0397 50.2232 19.0508 50.2007 19.0618 50.1777C19.0674 50.1663 19.0729 50.1547 19.079 50.1436L19.0982 50.1108C19.1113 50.0891 19.1235 50.0662 19.1377 50.045L19.1815 49.9818C19.2424 49.8992 19.3105 49.8199 19.3866 49.7491C19.5376 49.6055 19.7134 49.4876 19.8994 49.3933C19.9458 49.3697 19.993 49.3471 20.0409 49.327C20.0887 49.3059 20.137 49.2868 20.1858 49.2687C20.2835 49.2331 20.3833 49.2044 20.4843 49.1818C20.5854 49.1592 20.6876 49.1432 20.7908 49.1346C20.8425 49.1308 20.8942 49.1277 20.9465 49.1279C20.9726 49.1279 20.9988 49.1283 21.0254 49.1297C21.0386 49.1301 21.0521 49.1313 21.0656 49.1323C21.0799 49.1334 21.0916 49.1345 21.1098 49.1365C21.2365 49.1499 21.3284 49.2634 21.315 49.3901C21.305 49.485 21.2388 49.5603 21.153 49.5866L21.1041 49.6014Z" fill="#2E3349"/>
<path d="M21.8256 50.2904C21.8193 50.2925 21.8063 50.2946 21.7959 50.2966L21.7622 50.3031L21.6932 50.3156L21.5538 50.3408C21.4605 50.3579 21.367 50.3751 21.2737 50.3937C21.1804 50.4123 21.0874 50.4326 20.9943 50.4538C20.9478 50.4646 20.9015 50.4761 20.855 50.4877C20.8091 50.5005 20.7627 50.5128 20.7169 50.5266C20.6253 50.5543 20.5337 50.5841 20.4439 50.6188C20.4211 50.627 20.3987 50.636 20.3766 50.6454C20.3543 50.6545 20.3314 50.663 20.3094 50.6728C20.2653 50.6926 20.2202 50.7113 20.1767 50.733C19.9998 50.816 19.8307 50.9183 19.6623 51.0356L19.6617 51.036C19.6463 51.0467 19.6252 51.0429 19.6145 51.0276C19.6066 51.0163 19.6066 51.002 19.6131 50.9909C19.7203 50.81 19.8603 50.6443 20.0222 50.5029C20.1025 50.4311 20.1884 50.3654 20.2779 50.3048C20.367 50.2434 20.4605 50.1888 20.5563 50.1384C20.748 50.0377 20.9501 49.9563 21.1593 49.9016C21.2638 49.8741 21.3699 49.8531 21.4775 49.8394C21.5312 49.8327 21.5853 49.8274 21.64 49.825C21.6674 49.8236 21.6948 49.8228 21.7227 49.8229C21.7365 49.8227 21.7507 49.8232 21.7649 49.8236C21.7799 49.824 21.7923 49.8246 21.8113 49.8257C21.9387 49.8331 22.036 49.9423 22.0287 50.0696C22.0231 50.1669 21.958 50.2467 21.8708 50.2757L21.8256 50.2904Z" fill="#2E3349"/>
<path d="M13.8646 44.9084H8.54883V50.6395H13.8646V44.9084Z" fill="#FFC099"/>
<path d="M13.9117 50.686H8.50293V44.8619H13.9117V50.686ZM8.59593 50.593H13.8187V44.9549H8.59593V50.593Z" fill="#2E3349"/>
<g opacity="0.2">
<g opacity="0.2">
<g opacity="0.2">
<g opacity="0.2">
<path opacity="0.2" d="M8.54883 44.9084H13.8646V47.3479C13.6179 47.3553 13.3687 47.3587 13.1171 47.3587C11.4501 47.3587 9.88859 47.1984 8.54885 46.9176V44.9084H8.54883Z" fill="#2E3349"/>
</g>
</g>
</g>
</g>
<path d="M13.8648 50.9717H8.54901C8.36554 50.9717 8.2168 50.8229 8.2168 50.6395V44.9084C8.2168 44.7249 8.36554 44.5762 8.54901 44.5762H13.8648C14.0483 44.5762 14.197 44.7249 14.197 44.9084V50.6395C14.197 50.8229 14.0483 50.9717 13.8648 50.9717ZM8.88125 50.3072H13.5325V45.2407H8.88125V50.3072Z" fill="#2E3349"/>
<path d="M13.8646 47.9425V50.6394H8.54883V47.9957C9.52228 48.2432 11.4343 48.5364 13.8646 47.9425Z" fill="white"/>
<path d="M13.9117 50.6859H8.50293V47.9359L8.5609 47.9506C9.48977 48.1868 11.4127 48.4939 13.8541 47.8974L13.9117 47.8833V50.6859ZM8.59593 50.5929H13.8187V48.0016C11.4345 48.5724 9.54618 48.2893 8.59593 48.0552V50.5929Z" fill="#2E3349"/>
<g opacity="0.2">
<g opacity="0.2">
<g opacity="0.2">
<g opacity="0.2">
<path opacity="0.2" d="M13.8646 49.0348H8.54883V50.4609H13.8646V49.0348Z" fill="#2E3349"/>
</g>
</g>
</g>
</g>
<path d="M13.8653 50.7325H8.5495C8.39544 50.7325 8.27051 50.6075 8.27051 50.4535V47.8097C8.27051 47.7236 8.31029 47.6423 8.37827 47.5894C8.44622 47.5366 8.53477 47.5181 8.61826 47.5393C9.52618 47.7702 11.4065 48.0701 13.799 47.4855C13.8823 47.4652 13.9702 47.4842 14.0375 47.5371C14.1049 47.5899 14.1442 47.6709 14.1442 47.7565V50.4534C14.1443 50.6075 14.0193 50.7325 13.8653 50.7325ZM8.8285 50.1745H13.5863V48.1069C11.5073 48.5542 9.82134 48.3702 8.8285 48.1608V50.1745Z" fill="#2E3349"/>
<path d="M16.5641 52.3422C16.5641 52.3821 16.5624 52.4211 16.5591 52.4593C16.4444 53.775 14.3863 53.9618 12.0565 53.9618C10.0672 53.9618 8.36284 54.0192 7.84122 52.7085C7.73408 52.4402 7.67676 52.1146 7.67676 51.7192C7.67676 49.2009 8.54887 49.2275 8.88112 49.3105C9.3961 49.4393 9.56053 50.2807 10.3762 50.2242C11.5706 50.1411 11.7824 49.4085 13.0041 49.2117C14.446 48.9783 16.5641 50.8056 16.5641 52.3422Z" fill="#4A83FF"/>
<path d="M16.5596 52.4592C16.445 53.7749 14.3868 53.9618 12.057 53.9618C10.0678 53.9618 8.36342 54.0191 7.8418 52.7084C9.52541 52.9227 12.7605 53.1469 16.5596 52.4592Z" fill="white"/>
<path d="M11.5812 54.2944C10.046 54.2944 8.72991 54.2589 7.96419 53.494C7.54735 53.0777 7.34473 52.4971 7.34473 51.7192C7.34473 50.3807 7.58072 49.5457 8.0663 49.1666C8.32165 48.9672 8.63136 48.9055 8.96187 48.9882C9.26932 49.065 9.47072 49.2901 9.64838 49.4886C9.89213 49.7611 10.0454 49.9141 10.3533 49.8927C10.8931 49.8552 11.197 49.6679 11.5489 49.4512C11.9009 49.2344 12.2999 48.9886 12.9511 48.8833C13.7102 48.7607 14.6616 49.1116 15.4961 49.822C16.3729 50.5685 16.8964 51.5106 16.8964 52.3421C16.8964 52.778 16.7372 53.1469 16.423 53.4386C16.1576 53.685 15.7894 53.8705 15.2972 54.0056C14.3715 54.2597 13.1396 54.294 12.0566 54.294C11.9763 54.294 11.8965 54.2941 11.8171 54.2942C11.738 54.2943 11.6592 54.2944 11.5812 54.2944ZM8.68431 49.6174C8.58318 49.6174 8.5184 49.6566 8.47523 49.6904C8.33512 49.7998 8.00918 50.2165 8.00918 51.7192C8.00918 52.3118 8.14808 52.7385 8.43375 53.0239C9.04356 53.633 10.3284 53.6314 11.8164 53.6297C11.8959 53.6296 11.976 53.6295 12.0566 53.6295C13.0346 53.6295 14.2668 53.5994 15.1212 53.3648C16.1169 53.0915 16.232 52.6502 16.232 52.3421C16.232 51.7124 15.785 50.9406 15.0653 50.3279C14.3875 49.7508 13.6179 49.4486 13.0572 49.5393C12.5361 49.6235 12.2259 49.8146 11.8974 50.017C11.5065 50.2577 11.1024 50.5067 10.3994 50.5556C9.75161 50.6007 9.40581 50.214 9.1532 49.9317C9.02282 49.786 8.91024 49.6602 8.80072 49.6328C8.75735 49.6219 8.71872 49.6174 8.68431 49.6174Z" fill="#2E3349"/>
<path d="M15.1237 50.1828C15.1178 50.1846 15.1054 50.1861 15.0955 50.1877L15.0634 50.1926L14.9978 50.2019L14.8651 50.2203C14.7764 50.2328 14.6877 50.2455 14.5993 50.2594C14.4224 50.2877 14.2456 50.3184 14.0726 50.3657C13.9858 50.3887 13.9008 50.4168 13.8163 50.4478C13.7317 50.4787 13.6492 50.5152 13.5678 50.5558C13.4855 50.5955 13.4076 50.6433 13.3294 50.6942C13.2511 50.7453 13.1778 50.8044 13.1026 50.8666L13.1014 50.8676C13.0869 50.8795 13.0656 50.8775 13.0536 50.863C13.0451 50.8528 13.0438 50.8389 13.0489 50.8275C13.0592 50.8046 13.0703 50.7821 13.0814 50.7591C13.0869 50.7477 13.0924 50.7361 13.0986 50.725L13.1177 50.6922C13.1308 50.6705 13.1431 50.6477 13.1573 50.6264L13.2011 50.5632C13.2619 50.4806 13.3301 50.4013 13.4061 50.3305C13.5571 50.1869 13.7329 50.069 13.9189 49.9747C13.9653 49.9511 14.0125 49.9286 14.0604 49.9084C14.1082 49.8873 14.1565 49.8682 14.2053 49.8502C14.303 49.8145 14.4028 49.7858 14.5039 49.7632C14.6049 49.7406 14.7072 49.7246 14.8103 49.716C14.862 49.7122 14.9137 49.7091 14.966 49.7094C14.9922 49.7093 15.0183 49.7098 15.0449 49.7111C15.0581 49.7115 15.0717 49.7128 15.0851 49.7138C15.0994 49.7149 15.1111 49.7159 15.1293 49.7179C15.256 49.7313 15.3479 49.8448 15.3345 49.9715C15.3245 50.0664 15.2583 50.1418 15.1725 50.168L15.1237 50.1828Z" fill="#2E3349"/>
<path d="M15.8451 50.8719C15.8388 50.874 15.8259 50.876 15.8155 50.8781L15.7817 50.8845L15.7128 50.8971L15.5733 50.9223C15.48 50.9393 15.3866 50.9566 15.2933 50.9752C15.1999 50.9938 15.1069 51.014 15.0139 51.0352C14.9673 51.046 14.921 51.0575 14.8746 51.0691C14.8286 51.0819 14.7822 51.0942 14.7364 51.108C14.6448 51.1358 14.5533 51.1655 14.4634 51.2003C14.4406 51.2084 14.4183 51.2174 14.3961 51.2268C14.3738 51.236 14.351 51.2444 14.3289 51.2542C14.2849 51.274 14.2397 51.2927 14.1962 51.3144C14.0194 51.3974 13.8502 51.4997 13.6818 51.617L13.6812 51.6174C13.6658 51.6281 13.6447 51.6244 13.634 51.609C13.6262 51.5978 13.6261 51.5834 13.6327 51.5723C13.7398 51.3914 13.8798 51.2257 14.0417 51.0843C14.122 51.0125 14.2079 50.9468 14.2974 50.8863C14.3865 50.8249 14.4801 50.7702 14.5758 50.7198C14.7675 50.6191 14.9697 50.5377 15.1788 50.483C15.2833 50.4556 15.3895 50.4345 15.497 50.4208C15.5508 50.4141 15.6048 50.4088 15.6596 50.4064C15.6869 50.405 15.7143 50.4042 15.7422 50.4043C15.7561 50.4042 15.7703 50.4047 15.7844 50.4051C15.7994 50.4055 15.8118 50.406 15.8309 50.4071C15.9582 50.4145 16.0555 50.5237 16.0482 50.6511C16.0426 50.7484 15.9775 50.8281 15.8904 50.8571L15.8451 50.8719Z" fill="#2E3349"/>
<path d="M17.8329 26.5809C17.8329 26.5809 19.7117 28.2645 21.0537 28.9532C21.0537 28.9532 21.9663 29.0297 22.9862 29.3358C23.8413 29.5924 24.9723 30.3306 25.9386 30.4071C25.9386 30.4071 27.1732 29.1062 27.4953 29.3358C27.8174 29.5654 27.4953 30.2541 27.4953 30.2541C27.4953 30.2541 29.3204 29.948 29.213 30.7132C29.213 30.7132 29.8035 31.0193 29.5351 31.555C29.5351 31.555 29.7498 31.8611 29.3204 32.2437C29.3204 32.2437 29.5351 32.7029 28.6762 33.009C28.6762 33.009 27.549 34.0803 25.8312 33.4681C25.8312 33.4681 21.9662 33.9273 20.8389 33.162C20.8389 33.162 17.8865 34.1568 15.9004 30.0245" fill="#FFC099"/>
<path d="M26.8816 33.7024C26.5655 33.7024 26.2106 33.6514 25.8257 33.5155C25.7159 33.5281 24.7929 33.6306 23.7585 33.6485C22.299 33.6737 21.3143 33.5272 20.8316 33.213C20.6991 33.2529 20.0084 33.4338 19.1022 33.1878C18.5226 33.0304 17.9766 32.7293 17.4792 32.293C16.8595 31.7494 16.3142 30.9929 15.8584 30.0447L15.9422 30.0044C16.9606 32.1232 18.236 32.8562 19.1266 33.098C20.0882 33.3591 20.8168 33.1204 20.824 33.1179L20.8459 33.1106L20.865 33.1235C21.9652 33.8704 25.7872 33.4265 25.8256 33.4219L25.8365 33.4206L25.8467 33.4243C26.7189 33.7351 27.4323 33.5969 27.8772 33.4262C28.3607 33.2407 28.6414 32.9779 28.6442 32.9752L28.6513 32.9685L28.6605 32.9652C28.9824 32.8505 29.1921 32.6968 29.2669 32.5207C29.328 32.3769 29.2802 32.2677 29.2781 32.2631L29.264 32.232L29.2894 32.209C29.6802 31.8608 29.5045 31.5927 29.4968 31.5815L29.4814 31.5589L29.4935 31.5342C29.7379 31.0464 29.2139 30.7662 29.1915 30.7545L29.1624 30.7393L29.1669 30.7068C29.1824 30.5968 29.1548 30.5091 29.0826 30.4388C28.733 30.0985 27.5152 30.2979 27.5029 30.2999L27.4157 30.3145L27.4531 30.2344C27.4561 30.2278 27.755 29.5781 27.4682 29.3737C27.4166 29.3368 27.2312 29.3067 26.6267 29.8204C26.2836 30.1119 25.9753 30.4359 25.9722 30.4392L25.9569 30.4553L25.9348 30.4535C25.3251 30.4052 24.6663 30.1041 24.0292 29.813C23.6503 29.6398 23.2924 29.4763 22.9727 29.3803C21.9691 29.0791 21.0588 29.0002 21.0497 28.9995L21.0406 28.9987L21.0324 28.9945C19.7005 28.311 17.8206 26.6324 17.8018 26.6155L17.8638 26.5463C17.8826 26.563 19.7461 28.227 21.0668 28.9076C21.1662 28.9168 22.0413 29.0036 22.9995 29.2912C23.3253 29.389 23.686 29.5538 24.0678 29.7284C24.6898 30.0126 25.3328 30.3065 25.9203 30.3589C25.9875 30.2892 26.2632 30.0072 26.566 29.7499C27.0541 29.3351 27.3669 29.1872 27.5222 29.2979C27.807 29.5009 27.647 30.0013 27.5704 30.1957C27.8607 30.1552 28.817 30.0504 29.1475 30.3721C29.2339 30.4563 29.2726 30.5626 29.2625 30.6882C29.3799 30.7602 29.8134 31.0674 29.5874 31.5534C29.6299 31.6378 29.7312 31.924 29.3745 32.2573C29.39 32.3104 29.4091 32.4216 29.3538 32.5541C29.269 32.7571 29.0494 32.9238 28.7008 33.0495C28.652 33.0939 28.3758 33.3337 27.9146 33.5115C27.6529 33.6123 27.3015 33.7024 26.8816 33.7024Z" fill="#2E3349"/>
<path d="M26.8809 33.9816C26.5534 33.9816 26.1884 33.9315 25.794 33.7998C25.5438 33.8271 24.7099 33.9111 23.7628 33.9274C22.3463 33.9519 21.3474 33.8122 20.789 33.5118C20.5017 33.5777 19.8398 33.6772 19.0286 33.457C18.4076 33.2884 17.8243 32.9673 17.2947 32.5027C16.6466 31.9341 16.0786 31.1478 15.6064 30.1655C15.5285 30.0035 15.5968 29.809 15.7588 29.7311C15.9209 29.6532 16.1153 29.7214 16.1931 29.8835C16.9631 31.4853 18.0025 32.5038 19.1992 32.8287C20.0799 33.0678 20.728 32.8557 20.7344 32.8535C20.8309 32.821 20.937 32.8355 21.0212 32.8926C21.2521 33.0494 21.9129 33.3078 23.7464 33.2766C24.825 33.2583 25.7827 33.146 25.7923 33.1448C25.842 33.1389 25.8926 33.1446 25.9399 33.1614C26.5672 33.385 27.1779 33.3892 27.7549 33.1739C28.1935 33.0103 28.4501 32.7742 28.4526 32.7719C28.4856 32.7405 28.5235 32.7176 28.5664 32.7023C28.9216 32.5757 29.0309 32.4293 29.0176 32.3645C28.9669 32.2379 29.0006 32.0922 29.1033 32.0006C29.2581 31.8627 29.2738 31.7649 29.2581 31.7269C29.1986 31.6311 29.1926 31.5107 29.2435 31.4091C29.2955 31.3054 29.2909 31.2316 29.2271 31.1459C29.1725 31.0724 29.0905 31.0177 29.0615 31.0016C28.9365 30.9391 28.8707 30.8065 28.8901 30.668C28.892 30.6544 28.8916 30.6461 28.8911 30.6427C28.8816 30.6322 28.7646 30.5174 28.233 30.5191C27.8805 30.5204 27.5516 30.5745 27.5484 30.5751C27.429 30.5949 27.3086 30.5471 27.2355 30.4508C27.1624 30.3545 27.1486 30.2256 27.1999 30.1162C27.2717 29.9605 27.3125 29.7755 27.313 29.6696C27.2134 29.7196 27.0247 29.8386 26.7051 30.1211C26.4171 30.3758 26.1764 30.6286 26.174 30.6312C26.1064 30.7024 26.0103 30.7393 25.9123 30.7315C25.2534 30.6793 24.5718 30.3679 23.9127 30.0667C23.5427 29.8976 23.1933 29.7379 22.892 29.6475C21.9194 29.3556 21.0346 29.2782 21.0257 29.2774C20.9835 29.2739 20.9422 29.262 20.9045 29.2427C19.5408 28.5428 17.6931 26.8931 17.615 26.8233C17.4812 26.7033 17.4699 26.4975 17.5899 26.3637C17.7098 26.2298 17.9156 26.2185 18.0495 26.3384C18.0677 26.3548 19.8617 27.9563 21.1472 28.6352C21.381 28.6592 22.1855 28.7558 23.0791 29.024C23.4232 29.1273 23.7924 29.296 24.1833 29.4746C24.737 29.7276 25.3079 29.9885 25.8167 30.0655C25.9413 29.9404 26.1533 29.734 26.3847 29.5373C26.8253 29.1629 27.3243 28.8146 27.6836 29.0707C27.9609 29.2684 27.9883 29.597 27.9454 29.878C28.0133 29.8738 28.0852 29.8705 28.159 29.869C28.7334 29.8574 29.12 29.9566 29.3415 30.1722C29.4444 30.2724 29.5093 30.3968 29.5326 30.5345C29.7992 30.7437 30.0299 31.1119 29.886 31.5543C29.9427 31.7582 29.9276 32.0534 29.6689 32.3527C29.6717 32.4409 29.6586 32.5467 29.6107 32.6615C29.4991 32.9288 29.2414 33.1412 28.8443 33.2935C28.7292 33.3897 28.4402 33.6077 28.0143 33.7718C27.7269 33.8825 27.3411 33.9815 26.8809 33.9816ZM29.0246 32.3808C29.0248 32.3811 29.0249 32.3813 29.025 32.3816C29.0249 32.3813 29.0248 32.3811 29.0246 32.3808ZM29.0243 32.3802C29.0244 32.3804 29.0245 32.3806 29.0246 32.3808C29.0245 32.3806 29.0244 32.3804 29.0243 32.3802ZM29.2677 31.7413C29.2678 31.7415 29.2679 31.7417 29.2681 31.7419C29.2679 31.7417 29.2678 31.7415 29.2677 31.7413ZM29.2673 31.7408C29.2674 31.741 29.2675 31.7411 29.2677 31.7413C29.2675 31.7411 29.2674 31.7409 29.2673 31.7408ZM29.267 31.7404C29.2671 31.7405 29.2671 31.7405 29.2672 31.7406C29.2671 31.7405 29.2671 31.7405 29.267 31.7404Z" fill="#2E3349"/>
<path d="M27.8598 31.1207C27.7497 31.1207 27.6579 31.0341 27.6526 30.9229C27.6471 30.8083 27.7356 30.711 27.8501 30.7056L29.3771 30.6329C29.4914 30.6275 29.589 30.7159 29.5944 30.8305C29.5999 30.945 29.5114 31.0423 29.3969 31.0478L27.8699 31.1204C27.8665 31.1206 27.8632 31.1207 27.8598 31.1207Z" fill="#2E3349"/>
<path d="M29.563 31.722H27.9018C27.7991 31.722 27.7158 31.6387 27.7158 31.536C27.7158 31.4332 27.7991 31.35 27.9018 31.35H29.563C29.6657 31.35 29.749 31.4332 29.749 31.536C29.749 31.6387 29.6657 31.722 29.563 31.722Z" fill="#2E3349"/>
<path d="M29.397 32.4911H27.902C27.7873 32.4911 27.6943 32.3981 27.6943 32.2835C27.6943 32.1688 27.7873 32.0758 27.902 32.0758H29.397C29.5117 32.0758 29.6047 32.1688 29.6047 32.2835C29.6047 32.3981 29.5117 32.4911 29.397 32.4911Z" fill="#2E3349"/>
<path d="M17.7792 26.4279C17.7792 26.4279 20.9924 28.0062 21.161 28.6471C21.4831 29.8714 21.2684 33.0089 20.5168 33.8507C19.7653 34.6925 17.0813 33.0089 15.9004 30.4071" fill="#22A7F0"/>
<path d="M19.9581 34.3949C19.8776 34.3949 19.7908 34.3885 19.6974 34.3742C19.0646 34.2777 18.2733 33.8357 17.5266 33.1615C16.7246 32.4375 16.0416 31.5071 15.6034 30.5417C15.5291 30.378 15.6016 30.185 15.7652 30.1107C15.929 30.0364 16.1219 30.1089 16.1962 30.2726C16.5983 31.1585 17.2257 32.0129 17.9628 32.6783C18.6078 33.2606 19.2929 33.654 19.7955 33.7307C19.9527 33.7547 20.1633 33.7574 20.2734 33.6339C20.5589 33.3142 20.8056 32.4425 20.9172 31.359C21.0213 30.3479 20.9929 29.2937 20.8466 28.7335C20.8299 28.6946 20.6606 28.3914 19.2065 27.5577C18.4146 27.1037 17.6428 26.7238 17.6351 26.72C17.4737 26.6408 17.4072 26.4457 17.4864 26.2843C17.5657 26.123 17.7607 26.0564 17.9221 26.1357C17.9302 26.1397 18.7446 26.5405 19.5687 27.0151C21.1254 27.9114 21.406 28.3012 21.4752 28.5643C21.6429 29.2018 21.6781 30.325 21.5647 31.4257C21.4891 32.16 21.2839 33.4797 20.7591 34.0675C20.6185 34.225 20.371 34.3949 19.9581 34.3949Z" fill="#2E3349"/>
<path d="M22.1607 37.0237C22.1607 37.0935 22.1598 37.1624 22.1582 37.2305C22.125 38.6159 21.723 39.7613 20.9248 40.9216V44.6593C20.9248 44.6593 13.1173 48.3969 7.55233 45.2407V42.2506C7.55233 42.2506 5.72505 41.1708 5.55893 38.3468C5.55393 38.2621 5.5498 38.1799 5.54646 38.0993C5.54313 38.0046 5.54065 37.9124 5.53983 37.8227C5.51991 36.6873 5.67355 35.9614 5.84133 35.512C6.02406 35.0178 6.22341 34.8583 6.22341 34.8583C6.22341 34.8583 6.00497 29.6165 6.47257 28.2136C7.01244 26.594 8.30152 24.947 12.785 24.8082C15.1281 24.736 18.5161 24.5591 20.5095 30.124C20.8434 31.0551 21.1275 31.9023 21.3617 32.6805C21.8866 34.4223 22.1582 35.816 22.1607 37.0237Z" fill="#22A7F0"/>
<g opacity="0.2">
<g opacity="0.2">
<g opacity="0.2">
<g opacity="0.2">
<path opacity="0.2" d="M22.1607 37.0237C14.163 43.5305 7.31643 39.434 5.54646 38.0993C5.54313 38.0046 5.54065 37.9124 5.53983 37.8227C5.51991 36.6873 5.67355 35.9614 5.84133 35.512C6.32972 37.3916 7.01246 37.3916 7.01246 37.3916C13.9063 41.0462 14.9861 36.3119 15.4844 35.8966C15.7668 35.6615 21.3766 34.3882 21.3617 32.6805C21.8866 34.4223 22.1582 35.816 22.1607 37.0237Z" fill="#2E3349"/>
</g>
</g>
</g>
</g>
<g opacity="0.6">
<g opacity="0.6">
<g opacity="0.6">
<g opacity="0.6">
<g opacity="0.6">
<path opacity="0.6" d="M6.597 28.9612C7.13687 27.3415 8.42595 25.6945 12.9095 25.5558C15.2526 25.4835 18.6405 25.3066 20.6339 30.8715C21.6389 33.6769 22.1998 35.7215 22.2757 37.4008C22.2783 37.3442 22.2813 37.2879 22.2826 37.2305C22.3258 35.4439 21.7569 33.2586 20.6339 30.124C18.6405 24.5591 15.2526 24.736 12.9095 24.8082C8.42595 24.947 7.13689 26.594 6.597 28.2136C6.33469 29.0006 6.28828 30.9953 6.29806 32.5953C6.30727 31.1671 6.37436 29.6291 6.597 28.9612Z" fill="white"/>
</g>
</g>
</g>
</g>
</g>
<path d="M12.8381 46.8326C12.5437 46.8326 12.2543 46.8238 11.9698 46.8063C10.245 46.6998 8.70484 46.2684 7.3921 45.5238C7.29019 45.466 7.2272 45.3579 7.2272 45.2407V42.4221C7.03661 42.2816 6.70142 42.0011 6.35997 41.5557C5.89651 40.9512 5.32498 39.9071 5.23434 38.3659C5.22299 38.1728 5.21639 37.9917 5.2147 37.8274C5.18001 35.8659 5.65298 35.0316 5.89323 34.7359C5.86146 33.8812 5.72065 29.4412 6.16412 28.1107C6.52222 27.0364 7.09607 26.2655 7.9701 25.6845C9.08812 24.9414 10.6599 24.5484 12.7753 24.4829L12.8634 24.4802C15.2145 24.4068 18.7678 24.2958 20.8162 30.0143C22.0421 33.4361 22.5253 35.5291 22.4839 37.2384V37.2383C22.4665 37.9629 22.3531 38.6258 22.137 39.2647C21.9365 39.8577 21.6462 40.4335 21.2506 41.0218V44.6593C21.2506 44.7846 21.1787 44.8987 21.0657 44.9528C20.9845 44.9917 19.047 45.9108 16.3908 46.4525C15.151 46.7053 13.9599 46.8325 12.8381 46.8326ZM7.87818 45.0486C10.6291 46.5264 13.9355 46.287 16.2458 45.8177C18.368 45.3866 20.056 44.6889 20.5996 44.4494V40.9216C20.5996 40.8558 20.6196 40.7914 20.657 40.7372C21.4394 39.5997 21.8021 38.5159 21.8332 37.2227C21.8332 37.2227 21.8332 37.2227 21.8332 37.2227C21.8724 35.5994 21.4002 33.5746 20.2034 30.2338C18.3148 24.9613 15.1757 25.0593 12.8838 25.1309L12.7954 25.1336C8.35991 25.2708 7.25167 26.9067 6.7817 28.3166C6.656 28.6938 6.50481 29.6495 6.49846 32.0607C6.49465 33.5225 6.54842 34.8318 6.54894 34.8448C6.5535 34.9538 6.51887 35.0459 6.43134 35.1095C6.38179 35.1597 5.82923 35.7681 5.86561 37.8169C5.86565 37.8178 5.86567 37.8186 5.86567 37.8194C5.86721 37.9735 5.87344 38.1446 5.88421 38.3277C6.03838 40.9484 7.7015 41.9604 7.71824 41.9703C7.81736 42.0289 7.87818 42.1355 7.87818 42.2505V45.0486ZM20.9251 44.6593H20.9253H20.9251Z" fill="#2E3349"/>
<path d="M22.1584 37.2305C22.1542 37.3999 22.1451 37.566 22.1293 37.7296C22.1202 37.8268 22.1094 37.9232 22.0961 38.0179C21.9524 39.0644 21.567 39.988 20.925 40.9216V44.6592C20.925 44.6592 13.6158 48.3969 7.55254 45.2406V42.2505C7.55254 42.2505 6.08988 41.3867 5.66295 39.1823C5.61727 38.9448 5.58321 38.6914 5.56413 38.4215C5.56245 38.3966 5.5608 38.3717 5.55914 38.3468C5.54833 38.1632 5.54169 37.988 5.54004 37.8227C6.60983 38.9315 9.12318 40.7496 13.865 40.3402C18.3884 39.949 20.959 38.282 22.1584 37.2305Z" fill="#636599"/>
<path d="M13.0574 46.5535C12.7669 46.5535 12.4801 46.5449 12.197 46.5277C10.4896 46.424 8.91974 46.0048 7.53091 45.2819L7.50587 45.2689V42.2764C7.41849 42.2207 7.09707 42.0011 6.7323 41.5732C6.34636 41.1205 5.83961 40.3398 5.61714 39.1912C5.56951 38.9436 5.53603 38.6858 5.51756 38.4248L5.51254 38.3499C5.50139 38.1604 5.49496 37.9833 5.49336 37.8232L5.49219 37.7063L5.5733 37.7904C6.64402 38.9002 9.14428 40.7011 13.8608 40.2939C18.4294 39.8988 21.0012 38.1831 22.1275 37.1955L22.2073 37.1256L22.2047 37.2316C22.2003 37.4112 22.1907 37.5756 22.1754 37.7341C22.1655 37.8394 22.1546 37.9344 22.1419 38.0244C22.001 39.051 21.6289 39.9767 20.9713 40.9361V44.6877L20.946 44.7007C20.9277 44.71 19.0835 45.6441 16.5218 46.1791C15.329 46.4281 14.1673 46.5535 13.0574 46.5535ZM7.59887 45.2124C10.7114 46.8217 14.1561 46.5778 16.5003 46.0885C18.8879 45.5902 20.6487 44.7439 20.8783 44.6305V40.9071L20.8865 40.8952C21.5407 39.944 21.9103 39.0277 22.0499 38.0115C22.0623 37.9228 22.0731 37.8293 22.0829 37.7253C22.0949 37.6004 22.1034 37.472 22.1085 37.335C21.5456 37.8163 20.6161 38.4866 19.2767 39.0755C17.6924 39.7721 15.8729 40.2131 13.8688 40.3865C9.23022 40.7871 6.71329 39.0642 5.58831 37.9383C5.59123 38.0651 5.59698 38.2011 5.60539 38.344L5.61033 38.4184C5.62854 38.6755 5.66154 38.9296 5.70843 39.1735C5.92666 40.3002 6.4226 41.0658 6.80024 41.5096C7.20973 41.9908 7.57242 42.2083 7.57603 42.2105L7.59885 42.224L7.59887 42.2505V45.2124Z" fill="#2E3349"/>
<g opacity="0.2">
<g opacity="0.2">
<g opacity="0.2">
<g opacity="0.2">
<path opacity="0.2" d="M22.1297 37.7296C22.0208 38.8966 21.6255 39.9033 20.9253 40.9216V44.6592C20.9253 44.6592 13.6161 48.3968 7.55286 45.2406V42.2505C7.55286 42.2505 5.75798 41.1898 5.56445 38.4215C6.81613 40.2264 8.59111 41.5445 8.59111 41.5445V44.6177C10.0862 45.6974 14.5713 45.3652 14.5713 45.3652L15.568 42.9565L17.6611 41.4465C17.9269 42.1791 16.5647 43.4549 16.5647 43.4549V44.9499L19.6379 43.9532V41.1292C20.2509 40.9623 21.4237 39.0021 22.1297 37.7296Z" fill="#2E3349"/>
</g>
</g>
</g>
</g>
<path d="M13.0577 46.8392C12.7614 46.8392 12.4688 46.8305 12.18 46.8129C10.4324 46.7067 8.82395 46.2769 7.39935 45.5353C7.28947 45.4781 7.22054 45.3645 7.22054 45.2406V42.4254C7.02905 42.2839 6.69489 42.0035 6.35469 41.5598C5.89067 40.9545 5.31845 39.9091 5.22768 38.3662C5.2163 38.1725 5.20968 37.9907 5.20802 37.826C5.20668 37.6899 5.28841 37.5668 5.41433 37.5152C5.54019 37.4637 5.68486 37.494 5.77935 37.592C6.81475 38.6651 9.23835 40.4063 13.8366 40.0092C18.324 39.6211 20.8395 37.9451 21.9396 36.9806C22.0387 36.8937 22.1799 36.8736 22.2994 36.9295C22.4188 36.9854 22.4939 37.1066 22.4908 37.2384C22.4734 37.9637 22.3598 38.6272 22.1435 39.2668C21.943 39.8598 21.6527 40.4355 21.2574 41.0238V44.6592C21.2574 44.7839 21.1875 44.8982 21.0765 44.955C21.0002 44.994 19.1796 45.9159 16.5806 46.4587C15.3686 46.7118 14.1874 46.8392 13.0577 46.8392ZM7.88497 45.0367C10.8832 46.5215 14.1841 46.2804 16.4448 45.8082C18.4991 45.3792 20.0763 44.6919 20.593 44.4505V40.9215C20.593 40.8543 20.6134 40.7886 20.6515 40.7333C21.2775 39.8232 21.6346 38.9475 21.7679 37.9712C21.1934 38.3977 20.4071 38.8908 19.3922 39.337C17.7791 40.0463 15.9292 40.4951 13.8939 40.6711C9.76006 41.0281 7.26034 39.7291 5.91488 38.6197C6.01642 39.5871 6.33449 40.4303 6.86229 41.1295C7.29644 41.7047 7.71877 41.9626 7.72295 41.9652C7.82411 42.0249 7.88499 42.133 7.88499 42.2505V45.0367H7.88497Z" fill="#2E3349"/>
<path d="M15.2009 46.2792C15.1822 45.9988 15.1745 45.7185 15.1708 45.4381C15.1675 45.1578 15.1687 44.8774 15.1738 44.5971C15.1792 44.3168 15.1878 44.0364 15.1996 43.7561C15.2118 43.4757 15.225 43.1954 15.24 42.915L15.2419 42.8785C15.2479 42.7667 15.3254 42.6754 15.4274 42.6463C15.4368 42.6436 15.4524 42.6384 15.4655 42.634L15.5074 42.6197C15.5355 42.61 15.564 42.5998 15.5923 42.5892C15.6492 42.5682 15.7061 42.546 15.7627 42.5227C15.8759 42.476 15.989 42.4271 16.1002 42.3741C16.2115 42.321 16.3221 42.2659 16.4307 42.2067C16.4851 42.1774 16.5389 42.147 16.5928 42.1165C16.646 42.085 16.6996 42.0538 16.752 42.0208C16.8052 41.9889 16.8567 41.9546 16.9088 41.9209C16.96 41.8861 17.0118 41.8517 17.0621 41.8154C17.1134 41.7801 17.162 41.7417 17.2124 41.705C17.2611 41.6665 17.3113 41.629 17.3586 41.5886C17.455 41.5094 17.5472 41.4251 17.6376 41.3379C17.7279 41.2506 17.8125 41.1574 17.8964 41.0619L17.8976 41.0605C17.9146 41.0412 17.9441 41.0393 17.9635 41.0563C17.9801 41.0709 17.9839 41.0948 17.9738 41.1135L17.9273 41.1996L17.9036 41.2426L17.8785 41.2846C17.8616 41.3126 17.8451 41.3411 17.8274 41.3686L17.7729 41.4505C17.7551 41.4782 17.7357 41.5046 17.7166 41.5313C17.6972 41.5578 17.6788 41.5853 17.6584 41.611C17.6179 41.6628 17.5774 41.715 17.5345 41.7649C17.4928 41.8162 17.4481 41.8645 17.4043 41.9141C17.3591 41.962 17.3139 42.0105 17.2667 42.0566C17.1736 42.1505 17.0752 42.239 16.9747 42.3252C16.7732 42.4969 16.5586 42.6532 16.3352 42.7965C16.2232 42.8677 16.1093 42.9364 15.9922 43.0004C15.9338 43.0326 15.8746 43.0639 15.8145 43.0943C15.7845 43.1096 15.7542 43.1245 15.7233 43.1393L15.6765 43.1612C15.6601 43.1687 15.6459 43.1752 15.6254 43.1838L15.8128 42.915C15.8277 43.1954 15.8409 43.4757 15.8532 43.756C15.865 44.0364 15.8736 44.3167 15.879 44.5971C15.8841 44.8774 15.8853 45.1578 15.882 45.4381C15.8782 45.7185 15.8705 45.9988 15.8519 46.2792C15.8399 46.4589 15.6845 46.595 15.5047 46.583C15.3396 46.572 15.2114 46.4399 15.2009 46.2792Z" fill="#2E3349"/>
<path d="M21.0685 19.0497C20.5228 19.1253 19.9821 18.8155 19.5684 18.2632C19.2221 17.803 18.9646 17.1751 18.8657 16.4625C18.649 14.8943 19.2827 13.5114 20.2827 13.3735C21.1598 13.2514 22.027 14.1285 22.3725 15.4043C22.4207 15.5829 22.4589 15.7689 22.4855 15.9608C22.7022 17.5289 22.0685 18.9119 21.0685 19.0497Z" fill="#FFC099"/>
<g opacity="0.2">
<g opacity="0.2">
<g opacity="0.2">
<g opacity="0.2">
<path opacity="0.2" d="M21.0684 19.0497C20.5227 19.1253 19.982 18.8155 19.5684 18.2632C21.2885 17.6627 22.0427 16.3811 22.3724 15.4043C22.4206 15.5829 22.4588 15.7689 22.4854 15.9608C22.7022 17.5289 22.0684 18.9119 21.0684 19.0497Z" fill="#2E3349"/>
</g>
</g>
</g>
</g>
<path d="M17.2706 21.4858V25.6554C17.2706 25.7908 17.2473 25.922 17.2033 26.0441C17.0821 26.3871 16.8022 26.6604 16.4383 26.7684C15.734 26.976 14.6144 27.2169 13.2007 27.2169C11.7281 27.2169 10.6093 26.9727 9.92075 26.7634C9.45228 26.6205 9.13086 26.1911 9.13086 25.7019V21.4859H17.2706V21.4858Z" fill="#FFC099"/>
<path d="M13.2004 27.2634C11.7167 27.2634 10.5905 27.0157 9.90683 26.8078C9.41465 26.6577 9.08398 26.2133 9.08398 25.7019V21.4393H17.3167V25.6554C17.3167 25.7949 17.2932 25.931 17.2467 26.0599C17.1189 26.4214 16.8215 26.7031 16.4512 26.8129C15.7542 27.0184 14.6244 27.2634 13.2004 27.2634ZM9.17698 21.5323V25.7019C9.17698 26.1721 9.48118 26.5808 9.93395 26.7189C10.6115 26.9248 11.7282 27.1704 13.2004 27.1704C14.6133 27.1704 15.7337 26.9275 16.4248 26.7237C16.7665 26.6223 17.0411 26.3624 17.1591 26.0286C17.202 25.9096 17.2237 25.7841 17.2237 25.6554V21.5323H9.17698V21.5323Z" fill="#2E3349"/>
<g opacity="0.2">
<g opacity="0.2">
<g opacity="0.2">
<g opacity="0.2">
<path opacity="0.2" d="M17.2706 21.4858V25.6554C17.2706 25.7908 17.2473 25.922 17.2033 26.0441C16.2523 26.1845 15.2091 26.2617 14.1144 26.2617C12.2306 26.2617 10.4988 26.0333 9.13086 25.6496V21.4858H17.2706Z" fill="#1A1A5A"/>
</g>
</g>
</g>
<g opacity="0.2">
<g opacity="0.2">
<g opacity="0.2">
<path opacity="0.2" d="M14.114 26.3082C12.2772 26.3082 10.5496 26.0959 9.11791 25.6943L9.08398 25.6848V21.4393H17.3167V25.6554C17.3167 25.7949 17.2932 25.931 17.2467 26.0599L17.2373 26.086L17.2097 26.0901C16.2292 26.2348 15.1876 26.3082 14.114 26.3082ZM9.17698 25.6143C10.594 26.0075 12.3001 26.2152 14.114 26.2152C15.1729 26.2152 16.2003 26.1435 17.1683 26.0022C17.2051 25.8912 17.2237 25.7747 17.2237 25.6554V21.5323H9.17698V25.6143Z" fill="#2E3349"/>
</g>
</g>
</g>
</g>
<path d="M13.2004 27.4959C11.6887 27.4959 10.5381 27.2426 9.83911 27.0301C9.24844 26.8506 8.85156 26.3169 8.85156 25.7021V21.4859C8.85156 21.3318 8.97648 21.2069 9.13056 21.2069H17.2703C17.4244 21.2069 17.5493 21.3318 17.5493 21.4859V25.6558C17.5493 25.9689 17.4501 26.2668 17.2625 26.5174C17.0751 26.7677 16.8173 26.9469 16.5171 27.0357C15.8069 27.2456 14.6551 27.4959 13.2004 27.4959ZM9.40957 21.7649V25.7021C9.40957 26.0695 9.64742 26.3886 10.0014 26.4963C10.6642 26.6978 11.7573 26.938 13.2004 26.938C14.5883 26.938 15.684 26.7001 16.3589 26.5006C16.7372 26.3887 16.9913 26.0492 16.9913 25.6558V21.7649H9.40957Z" fill="#2E3349"/>
<path d="M18.8066 14.5919C20.114 14.5919 21.1738 13.1974 21.1738 11.4772C21.1738 9.75704 20.114 8.36255 18.8066 8.36255C17.4993 8.36255 16.4395 9.75704 16.4395 11.4772C16.4395 13.1974 17.4993 14.5919 18.8066 14.5919Z" fill="#5D5D5D"/>
<path d="M18.8068 14.9243C18.0682 14.9243 17.3798 14.5537 16.8685 13.8808C16.3777 13.2351 16.1074 12.3815 16.1074 11.4773C16.1074 10.5732 16.3777 9.71963 16.8685 9.07387C17.3798 8.40097 18.0682 8.0304 18.8068 8.0304C19.5454 8.0304 20.2338 8.40097 20.7452 9.07387C21.2359 9.71963 21.5062 10.5732 21.5062 11.4773C21.5062 12.3815 21.2359 13.235 20.7452 13.8808C20.2338 14.5537 19.5454 14.9243 18.8068 14.9243ZM18.8068 8.69487C18.2808 8.69487 17.7803 8.97226 17.3975 9.47594C16.9941 10.0068 16.7719 10.7175 16.7719 11.4773C16.7719 12.2371 16.9941 12.9479 17.3975 13.4787C17.7803 13.9824 18.2808 14.2598 18.8068 14.2598C19.3328 14.2598 19.8333 13.9824 20.2161 13.4787C20.6196 12.9479 20.8418 12.2371 20.8418 11.4773C20.8418 10.7175 20.6196 10.0068 20.2161 9.47594C19.8333 8.97226 19.3328 8.69487 18.8068 8.69487Z" fill="#2E3349"/>
<path d="M20.903 19.387C20.3767 19.387 19.8592 19.1155 19.4262 18.6068C18.9705 18.0714 18.6571 17.3256 18.5438 16.5067C18.4304 15.6879 18.5295 14.885 18.8227 14.2459C19.1384 13.5578 19.6413 13.1334 20.2388 13.0507C20.8361 12.968 21.4355 13.2399 21.9262 13.8164C22.382 14.3518 22.6954 15.0976 22.8087 15.9165C22.922 16.7353 22.8229 17.5382 22.5297 18.1773C22.214 18.8653 21.7112 19.2898 21.1137 19.3725C21.0434 19.3822 20.9731 19.387 20.903 19.387ZM20.4457 13.6875C20.4063 13.6875 20.367 13.6901 20.328 13.6955C19.5216 13.8071 18.9999 15.0536 19.1886 16.4175C19.3773 17.7813 20.218 18.8393 21.0244 18.7276C21.3939 18.6765 21.7184 18.3846 21.938 17.9058C22.1802 17.378 22.2603 16.7032 22.1638 16.0057C22.0673 15.3082 21.8068 14.6805 21.4304 14.2383C21.1251 13.8795 20.7796 13.6875 20.4457 13.6875Z" fill="#2E3349"/>
<path d="M21.6724 21.3198C21.3808 21.8297 19.762 25.5557 14.2802 25.5557C8.79831 25.5557 6.14042 22.7317 6.14042 22.7317C4.63873 20.7226 3.8887 18.784 3.59635 17.0198C2.78985 12.1484 5.47597 8.61178 5.47597 8.61178C5.47597 8.61178 14.9446 5.62167 17.6025 7.3659C18.5444 7.98386 19.2147 9.24801 19.6881 10.6235C20.3468 12.5355 20.6242 14.6626 20.7181 15.563C20.7471 15.8395 20.8435 16.1053 20.9963 16.3379C22.5827 18.7408 22.0046 20.7384 21.6724 21.3198Z" fill="#FFC099"/>
<g opacity="0.2">
<g opacity="0.2">
<g opacity="0.2">
<g opacity="0.2">
<path opacity="0.2" d="M19.6881 10.6235C17.8284 12.4964 15.2354 14.3013 8.42453 13.9691C8.42453 13.9691 8.12803 17.3745 6.15787 17.8728C6.15787 17.8728 5.00503 17.4957 3.59635 17.0198C2.78985 12.1484 5.47597 8.61178 5.47597 8.61178C5.47597 8.61178 14.9446 5.62167 17.6025 7.3659C18.5444 7.98386 19.2147 9.24801 19.6881 10.6235Z" fill="#2E3349"/>
</g>
</g>
</g>
</g>
<path d="M14.2802 25.8813C13.0022 25.8813 11.7687 25.7293 10.6139 25.4296C9.68752 25.1891 8.80934 24.8536 8.00375 24.4322C6.62139 23.7091 5.93211 22.9853 5.90345 22.9548C5.895 22.9459 5.8871 22.9365 5.87973 22.9266C4.56189 21.163 3.70551 19.3033 3.33441 17.3991C3.03673 15.8717 3.04924 14.3145 3.37161 12.7709C3.92019 10.144 5.16411 8.4843 5.21678 8.41492C5.25748 8.36133 5.31382 8.32166 5.37799 8.30141C5.40183 8.29387 7.79365 7.54228 10.4799 7.01536C14.1488 6.2957 16.6052 6.32211 17.7812 7.09377C18.8105 7.76931 19.6434 9.20094 20.2567 11.3489C20.7337 13.0196 20.9532 14.6852 21.0416 15.5294C21.0649 15.7516 21.1432 15.9691 21.2681 16.1583C21.9896 17.2515 22.3634 18.3782 22.3793 19.5073C22.3918 20.3935 22.1683 21.108 21.955 21.4812C21.9403 21.507 21.9185 21.5483 21.8933 21.5961C21.6774 22.005 21.1039 23.0911 19.9198 24.0586C18.4394 25.268 16.542 25.8813 14.2802 25.8813ZM6.38854 22.52C6.48109 22.6132 7.13147 23.2459 8.33421 23.8703C9.52911 24.4907 11.5306 25.2303 14.2802 25.2303C16.542 25.2303 19.599 24.5471 21.3176 21.2922C21.3467 21.237 21.3697 21.1935 21.3898 21.1583C21.5526 20.8734 21.739 20.2724 21.7283 19.5165C21.7143 18.5138 21.3766 17.5046 20.7247 16.5169C20.5426 16.2409 20.4283 15.9229 20.3941 15.5972C20.308 14.7741 20.0942 13.1509 19.6307 11.5276C19.0695 9.5622 18.3065 8.21721 17.424 7.63805C16.8748 7.27765 15.9239 7.11343 14.598 7.15005C13.5008 7.18033 12.1592 7.34959 10.6107 7.65312C8.2727 8.11139 6.15973 8.74252 5.67688 8.89038C5.42851 9.24824 4.45184 10.7562 4.00309 12.9316C3.31829 16.2515 4.12071 19.4773 6.38854 22.52Z" fill="#2E3349"/>
<path d="M1.98735 8.61181C1.98735 8.61181 -3.0792 12.7648 4.47912 19.4925C4.47912 19.4925 8.88124 16.5854 7.05396 12.5986C7.05396 12.5986 15.609 14.2598 19.2636 9.52545C22.5337 5.28911 19.8185 1.65128 17.8424 0.397277C17.5686 0.2235 17.2041 0.379625 17.1403 0.697604C17.0297 1.24825 16.6918 1.99941 15.692 2.29933C14.0308 2.7977 1.73817 0.887358 1.98735 8.61181Z" fill="#5D5D5D"/>
<g opacity="0.2">
<g opacity="0.2">
<g opacity="0.2">
<g opacity="0.2">
<path opacity="0.2" d="M18.5132 0.896118C19.8131 2.66178 20.5 5.36188 18.1837 8.3626C14.5291 13.0969 5.68334 11.4773 5.68334 11.4773C7.51062 15.4641 3.39921 18.3296 3.39921 18.3296C3.10876 18.0711 2.83912 17.8168 2.58496 17.566C3.10391 18.1819 3.72826 18.8242 4.47898 19.4925C4.47898 19.4925 8.8811 16.5854 7.05382 12.5986C7.05382 12.5986 15.6088 14.2598 19.2634 9.52541C22.1734 5.75573 20.3439 2.46005 18.5132 0.896118Z" fill="#2E3349"/>
</g>
</g>
</g>
</g>
<g opacity="0.6">
<g opacity="0.6">
<g opacity="0.6">
<g opacity="0.6">
<path opacity="0.6" d="M2.65231 9.4424C2.40313 1.71794 14.6958 3.62829 16.357 3.12993C17.3567 2.83001 17.6946 2.07885 17.8052 1.52819C17.8691 1.21021 18.2335 1.05408 18.5073 1.22786C18.906 1.48083 19.3347 1.83093 19.7383 2.26326C19.1762 1.43805 18.4722 0.796629 17.8429 0.397276C17.569 0.2235 17.2046 0.379625 17.1407 0.697604C17.0301 1.24825 16.6922 1.99941 15.6925 2.29933C14.0313 2.79769 1.73866 0.887339 1.98783 8.61179C1.98783 8.61179 -2.18674 12.0343 2.69767 17.6985C-1.11564 12.5322 2.65231 9.4424 2.65231 9.4424Z" fill="white"/>
</g>
</g>
</g>
</g>
<path d="M4.4795 19.8179C4.40166 19.8179 4.32428 19.7901 4.26298 19.7356C2.71348 18.3563 1.57044 16.9747 0.865647 15.6289C0.27005 14.4917 -0.0207922 13.3677 0.00115534 12.2881C0.0275296 10.9914 0.506023 9.99622 0.902753 9.38974C1.20107 8.93371 1.49801 8.62329 1.65896 8.47012C1.64075 6.92566 2.1145 5.64244 3.06829 4.65409C5.52637 2.10697 10.5675 2.09021 13.5795 2.0802C14.5075 2.07712 15.309 2.07446 15.5988 1.98754C16.2701 1.78614 16.6814 1.33058 16.8214 0.63349C16.8726 0.378805 17.046 0.165728 17.2854 0.0635045C17.5245 -0.0386074 17.7981 -0.0165845 18.0171 0.12241C18.6786 0.542204 19.3237 1.15062 19.8335 1.83556C20.45 2.66403 20.8631 3.59773 21.0279 4.53569C21.1717 5.35372 21.134 6.1862 20.9159 7.01001C20.6732 7.92686 20.2041 8.84009 19.5215 9.72429C18.6511 10.8518 17.4434 11.7206 15.9319 12.3064C14.737 12.7695 13.3504 13.0574 11.8106 13.1621C9.976 13.2869 8.38199 13.1239 7.56708 13.0102C7.8338 13.8062 7.89301 14.6136 7.74274 15.4175C7.59621 16.2014 7.25115 16.9792 6.71719 17.7293C5.82021 18.9894 4.70576 19.733 4.65876 19.764C4.60413 19.8002 4.54165 19.8179 4.4795 19.8179ZM2.1945 8.86311C2.18536 8.87074 1.80794 9.18831 1.43225 9.76969C0.93067 10.5459 0.6681 11.4018 0.651807 12.3136C0.613771 14.4402 1.90888 16.714 4.50183 19.0747C4.85095 18.8098 5.58859 18.1972 6.19758 17.3368C7.27304 15.8173 7.46172 14.2688 6.75837 12.7342C6.70754 12.6233 6.723 12.4933 6.79838 12.3974C6.87384 12.3015 6.9965 12.2558 7.1163 12.2791C7.13729 12.2831 9.2555 12.6855 11.7812 12.5116C14.0776 12.3536 17.1952 11.6727 19.0062 9.32652C20.1968 7.78418 20.6613 6.21023 20.3868 4.64838C20.0581 2.77819 18.717 1.3375 17.6683 0.672066C17.6157 0.638661 17.566 0.651551 17.5411 0.66219C17.516 0.672903 17.4721 0.700076 17.4597 0.76166C17.2741 1.68615 16.6796 2.34296 15.7859 2.61108C15.4057 2.72513 14.6406 2.72768 13.5817 2.73119C12.1383 2.73599 10.1615 2.74256 8.2796 3.04977C6.10704 3.40442 4.51128 4.09629 3.53675 5.10616C2.67861 5.99539 2.26689 7.17131 2.31299 8.60126C2.31627 8.70222 2.27247 8.79896 2.1945 8.86311Z" fill="#2E3349"/>
<path d="M7.01254 22.6072C6.92863 22.6744 6.20022 23.1612 6.10138 23.2085C5.03906 23.7218 3.54484 22.8256 2.76492 21.2085C2.55893 20.7815 2.42273 20.3463 2.3546 19.9285C2.16356 18.7632 2.49497 17.7291 3.27654 17.3521C3.98504 17.0099 4.88539 17.2947 5.63791 18.0007C5.73175 18.0888 5.82397 18.1835 5.91282 18.2848L7.01254 22.6072Z" fill="#FFC099"/>
<g opacity="0.6">
<g opacity="0.6">
<g opacity="0.6">
<g opacity="0.6">
<path opacity="0.6" d="M5.63782 18.0007C5.63782 18.0007 3.0702 17.2675 2.48195 20.119C2.29091 18.9537 2.49486 17.7292 3.27645 17.3521C3.98495 17.0099 4.8853 17.2948 5.63782 18.0007Z" fill="white"/>
</g>
</g>
</g>
</g>
<g opacity="0.2">
<g opacity="0.2">
<g opacity="0.2">
<g opacity="0.2">
<g opacity="0.2">
<path opacity="0.2" d="M21.5119 17.4408C21.663 18.6016 21.374 19.4694 21.1736 19.8205C20.8823 20.3306 19.2652 24.0574 13.7833 24.0599C9.34704 24.0619 6.7601 22.2141 5.93437 21.509C5.7786 21.6112 5.6425 21.6979 5.60376 21.7166C4.54098 22.2298 3.04648 21.3351 2.26567 19.7181C2.25514 19.6963 2.24553 19.6744 2.23535 19.6526C2.28243 20.1544 2.42875 20.6893 2.68165 21.213C3.46244 22.8299 4.95696 23.7247 6.01972 23.2115C6.05848 23.1928 6.19458 23.1061 6.35033 23.0038C7.17608 23.709 9.763 25.5568 14.1993 25.5547C19.6811 25.5522 21.2983 21.8255 21.5896 21.3154C21.8689 20.8259 22.3217 19.3333 21.5119 17.4408Z" fill="#2E3349"/>
</g>
</g>
</g>
</g>
</g>
<path d="M5.45212 23.6801C5.03653 23.6801 4.59616 23.548 4.16023 23.2867C3.47606 22.8767 2.87646 22.1889 2.4719 21.3502C2.06736 20.5114 1.9024 19.614 2.00743 18.8233C2.11913 17.9827 2.51993 17.356 3.13602 17.0589C4.04666 16.6196 5.23292 17.0167 6.15814 18.0704C6.27675 18.2055 6.2634 18.4111 6.12831 18.5297C5.9932 18.6484 5.78758 18.635 5.66896 18.4999C5.30678 18.0874 4.89677 17.7897 4.48325 17.6389C4.21017 17.5393 3.80379 17.4595 3.41881 17.6452C3.00666 17.844 2.73462 18.2928 2.65275 18.909C2.56425 19.5752 2.70823 20.3417 3.05826 21.0673C3.40823 21.793 3.91843 22.3828 4.49487 22.7283C5.02807 23.0478 5.54867 23.1144 5.96082 22.9156C6.02908 22.8826 6.17116 22.8141 6.22813 22.7685C6.36839 22.6561 6.57325 22.6786 6.68566 22.8189C6.79808 22.9592 6.7755 23.1641 6.63522 23.2765C6.52939 23.3613 6.38372 23.4343 6.24361 23.5019C5.99674 23.621 5.72996 23.6801 5.45212 23.6801Z" fill="#2E3349"/>
<path d="M28.234 32.7819C28.234 32.7819 28.5662 33.1141 27.9018 33.5294C27.9018 33.5294 28.234 34.0277 26.9051 34.36C26.9051 34.36 25.1608 35.5228 22.5029 34.8583C22.5029 34.8583 16.5227 35.3567 14.7785 34.5261C14.7785 34.5261 10.4179 36.3119 7.34473 31.8267L8.4735 30.0243L9.87801 27.7983C9.87801 27.7983 13.0342 29.2103 15.1107 29.9579C15.1107 29.9579 16.5227 30.0409 18.1008 30.3732C19.4239 30.6514 21.174 31.4529 22.6691 31.536C22.6691 31.536 24.5794 30.124 25.0777 30.3732C25.5761 30.6223 25.0777 31.3699 25.0777 31.3699C25.0777 31.3699 27.9017 31.0376 27.7356 31.8682C27.7356 31.8682 28.3229 32.0825 28.3411 32.467C28.3461 32.5618 28.3162 32.6664 28.234 32.7819Z" fill="#FFC099"/>
<path d="M24.1282 35.1086C23.6407 35.1086 23.0932 35.0532 22.499 34.9053C22.3804 34.9149 20.9277 35.0304 19.2953 35.0502C17.0337 35.0776 15.5135 34.9183 14.7766 34.5766C14.6416 34.628 13.8155 34.9232 12.6944 34.9233C12.5384 34.9233 12.3768 34.9175 12.2104 34.9047C11.3477 34.8378 10.5301 34.5945 9.78024 34.1814C8.84377 33.6654 8.01141 32.882 7.30628 31.8529L7.28906 31.8278L8.43402 29.9996L9.8601 27.7394L9.89691 27.7559C9.92846 27.77 13.069 29.1728 15.1201 29.9118C15.2285 29.9187 16.6024 30.0101 18.1103 30.3276C18.6124 30.4332 19.1699 30.6119 19.76 30.8011C20.7311 31.1124 21.735 31.4343 22.655 31.4886C22.737 31.4286 23.1774 31.1105 23.6627 30.8211C24.3936 30.3854 24.8767 30.2206 25.0985 30.3315C25.2191 30.3918 25.2966 30.4839 25.3288 30.6053C25.3956 30.8567 25.2479 31.1677 25.1659 31.3135C25.5907 31.2703 27.2895 31.1282 27.6963 31.569C27.7673 31.646 27.7978 31.7365 27.7871 31.8385C27.9198 31.8937 28.3705 32.1071 28.3875 32.4648C28.3929 32.5674 28.3607 32.6731 28.2918 32.7793C28.3244 32.8244 28.3753 32.9173 28.361 33.043C28.3413 33.2164 28.207 33.3855 27.9616 33.5462C27.9818 33.5975 28.0033 33.6908 27.9596 33.804C27.8634 34.0528 27.5149 34.2544 26.9239 34.4031C26.8633 34.4422 26.4368 34.7075 25.7128 34.9031C25.3114 35.0117 24.7724 35.1085 24.1282 35.1086ZM22.5067 34.8113L22.5141 34.8132C23.8754 35.1535 24.9895 35.0018 25.6844 34.8145C26.4378 34.6115 26.8749 34.3241 26.8792 34.3213L26.8859 34.3168L26.8937 34.3149C27.5941 34.1397 27.8122 33.9235 27.8719 33.7729C27.9213 33.6481 27.8652 33.5586 27.8628 33.5549L27.8373 33.5152L27.877 33.4899C28.1152 33.3411 28.2505 33.1835 28.2684 33.0343C28.2843 32.9017 28.2042 32.818 28.2008 32.8145L28.1737 32.7867L28.196 32.7549C28.2662 32.6563 28.2994 32.5603 28.2946 32.4695C28.278 32.1196 27.7252 31.9139 27.7196 31.9119L27.6821 31.8982L27.6899 31.8591C27.7076 31.7708 27.6873 31.6965 27.6279 31.6321C27.2038 31.1726 25.1042 31.4135 25.0831 31.416L24.9833 31.4278L25.0389 31.3441C25.0417 31.3399 25.3167 30.9219 25.2389 30.6291C25.2134 30.5334 25.1539 30.4633 25.0569 30.4148C24.6689 30.2208 23.2216 31.1854 22.6966 31.5734L22.6831 31.5834L22.6664 31.5824C21.73 31.5304 20.7141 31.2047 19.7316 30.8897C19.1438 30.7013 18.5885 30.5233 18.0912 30.4187C16.5348 30.091 15.122 30.0051 15.1079 30.0043L15.1012 30.0039L15.0949 30.0017C13.1609 29.3054 10.2559 28.0176 9.89578 27.8572L8.51277 30.0492L7.40027 31.8255C8.97411 34.1065 10.8874 34.709 12.2176 34.812C13.6641 34.9241 14.75 34.4875 14.7608 34.4831L14.7798 34.4753L14.7984 34.4842C16.5113 35.2999 22.4394 34.817 22.499 34.812L22.5067 34.8113Z" fill="#2E3349"/>
<g opacity="0.6">
<g opacity="0.6">
<g opacity="0.6">
<g opacity="0.6">
<path opacity="0.6" d="M28.3412 32.467C27.7739 31.9056 26.5547 31.9002 25.1432 31.9075C24.907 31.9086 24.7708 31.6419 24.9083 31.4498C25.2846 30.924 25.4735 30.368 22.7107 32.325C22.7107 32.325 13.0153 30.065 8.47363 30.0243L9.87814 27.7983C9.87814 27.7983 13.0344 29.2103 15.1108 29.9579C15.1108 29.9579 16.5228 30.0409 18.101 30.3732C19.4241 30.6514 21.1741 31.4529 22.6692 31.536C22.6692 31.536 24.5795 30.124 25.0779 30.3732C25.5762 30.6223 25.0779 31.3699 25.0779 31.3699C25.0779 31.3699 27.9019 31.0376 27.7358 31.8682C27.7358 31.8682 28.323 32.0825 28.3412 32.467Z" fill="white"/>
</g>
</g>
</g>
</g>
<g opacity="0.2">
<g opacity="0.2">
<g opacity="0.2">
<g opacity="0.2">
<g opacity="0.2">
<path opacity="0.2" d="M25.3637 30.6852C25.3454 30.6258 25.3129 30.5712 25.2623 30.5248C25.2107 30.6325 25.1621 30.7053 25.1621 30.7053C25.1621 30.7053 25.2384 30.6964 25.3637 30.6852Z" fill="#1A1A5A"/>
</g>
</g>
</g>
<g opacity="0.2">
<g opacity="0.2">
<g opacity="0.2">
<path opacity="0.2" d="M25.0674 30.7632L25.123 30.6796C25.1235 30.6789 25.1705 30.6079 25.2199 30.5047L25.2471 30.4481L25.2933 30.4906C25.3475 30.5404 25.386 30.6013 25.4077 30.6716L25.4246 30.7264L25.3674 30.7316C25.2443 30.7426 25.1678 30.7515 25.1671 30.7515L25.0674 30.7632ZM25.2729 30.6065C25.2647 30.622 25.2569 30.6363 25.2496 30.6493C25.2639 30.6479 25.2795 30.6464 25.2966 30.6447C25.2896 30.6314 25.2817 30.6187 25.2729 30.6065Z" fill="#2E3349"/>
</g>
</g>
</g>
</g>
<g opacity="0.2">
<g opacity="0.2">
<g opacity="0.2">
<g opacity="0.2">
<path opacity="0.2" d="M28.3925 32.1608C28.3646 32.2865 28.2605 32.444 27.9857 32.6157C27.9857 32.6157 28.318 33.114 26.989 33.4462C26.989 33.4462 25.2448 34.6091 22.5869 33.9446C22.5869 33.9446 16.6067 34.4429 14.8625 33.6124C14.8625 33.6124 10.7333 35.3025 7.67934 31.2603L7.42871 31.6605C10.5019 36.1457 14.8625 34.3599 14.8625 34.3599C16.6067 35.1905 22.5869 34.6921 22.5869 34.6921C25.2448 35.3566 26.989 34.1938 26.989 34.1938C28.318 33.8616 27.9857 33.3632 27.9857 33.3632C28.6502 32.9479 28.318 32.6157 28.318 32.6157C28.443 32.4407 28.4471 32.2884 28.3925 32.1608Z" fill="#1A1A5A"/>
</g>
</g>
</g>
<g opacity="0.2">
<g opacity="0.2">
<g opacity="0.2">
<path opacity="0.2" d="M24.2122 34.9424C23.7247 34.9424 23.1772 34.887 22.583 34.7391C22.4644 34.7487 21.0117 34.8642 19.3792 34.884C17.1172 34.9114 15.5975 34.7521 14.8607 34.4105C14.7256 34.4618 13.8994 34.7571 12.7784 34.7571C12.6224 34.7571 12.4608 34.7514 12.2944 34.7385C11.4317 34.6717 10.6141 34.4283 9.86424 34.0152C8.92777 33.4993 8.0954 32.7159 7.39029 31.6868L7.37305 31.6616L7.67568 31.1783L7.71638 31.2322C9.28205 33.3046 11.1356 33.8298 12.4147 33.9055C13.803 33.9877 14.8345 33.5735 14.8448 33.5693L14.8638 33.5616L14.8824 33.5704C16.5953 34.3861 22.5233 33.9033 22.583 33.8983L22.5907 33.8976L22.5981 33.8995C23.9594 34.2399 25.0735 34.0881 25.7683 33.9008C26.5218 33.6978 26.9588 33.4105 26.9631 33.4076L26.9698 33.4031L26.9776 33.4012C27.6781 33.2261 27.8962 33.0098 27.9558 32.8592C28.0053 32.7344 27.9492 32.6449 27.9467 32.6412L27.9212 32.6016L27.961 32.5763C28.1856 32.4359 28.3155 32.2927 28.347 32.1508L28.3783 32.0098L28.4351 32.1426C28.5003 32.2946 28.4803 32.4528 28.3758 32.6133C28.4084 32.6584 28.4593 32.7512 28.445 32.8769C28.4252 33.0503 28.2909 33.2195 28.0455 33.3801C28.0658 33.4314 28.0873 33.5247 28.0435 33.6379C27.9473 33.8867 27.5989 34.0883 27.0078 34.237C26.9473 34.2761 26.5208 34.5414 25.7967 34.7371C25.3954 34.8455 24.8564 34.9424 24.2122 34.9424ZM22.5907 34.6452L22.5981 34.647C23.9594 34.9874 25.0735 34.8356 25.7683 34.6484C26.5218 34.4454 26.9588 34.158 26.9631 34.1551L26.9698 34.1506L26.9776 34.1487C27.6781 33.9736 27.8962 33.7573 27.9558 33.6068C28.0053 33.482 27.9492 33.3924 27.9467 33.3887L27.9212 33.3491L27.961 33.3238C28.1992 33.1749 28.3345 33.0173 28.3524 32.8681C28.3683 32.7355 28.2882 32.6519 28.2848 32.6484L28.2576 32.6205L28.28 32.5887C28.3482 32.4932 28.3812 32.4024 28.3795 32.3138C28.3144 32.4229 28.2027 32.5296 28.0455 32.6326C28.0658 32.6839 28.0873 32.7772 28.0435 32.8904C27.9473 33.1392 27.5989 33.3407 27.0078 33.4895C26.9473 33.5286 26.5208 33.7938 25.7967 33.9895C25.0917 34.1801 23.9623 34.3349 22.583 33.9916C22.4644 34.0012 21.0117 34.1167 19.3792 34.1365C17.1172 34.1639 15.5975 34.0046 14.8607 33.663C14.7114 33.7197 13.7164 34.0749 12.4134 33.9986C11.586 33.9502 10.7973 33.7403 10.0692 33.3747C9.17725 32.9269 8.37475 32.2432 7.68299 31.3419L7.48425 31.6593C9.05689 33.9386 10.9686 34.5416 12.2975 34.6455C13.7446 34.7586 14.8339 34.3213 14.8448 34.3169L14.8638 34.3091L14.8824 34.3179C16.5953 35.1336 22.5233 34.6508 22.583 34.6458L22.5907 34.6452Z" fill="#2E3349"/>
</g>
</g>
</g>
</g>
</g>
<path d="M24.1285 35.3875C23.6327 35.3875 23.0776 35.3325 22.4767 35.1869C22.1927 35.2091 20.8233 35.3106 19.2992 35.3291C17.0921 35.3558 15.5668 35.2026 14.7607 34.8735C14.4118 34.9776 13.3905 35.2318 12.0982 35.099C11.1737 35.004 10.3009 34.73 9.50415 34.2845C8.51274 33.7302 7.64008 32.9093 6.91051 31.8445C6.80892 31.6962 6.84677 31.4936 6.99507 31.392C7.14333 31.2904 7.34593 31.3282 7.44756 31.4765C8.65942 33.2452 10.2373 34.2451 12.1375 34.4486C13.5678 34.6017 14.6589 34.2232 14.6698 34.2194C14.7511 34.1906 14.841 34.1951 14.9188 34.2322C15.3847 34.454 16.521 34.7115 19.2875 34.6782C20.9699 34.6579 22.4615 34.5351 22.4763 34.5339C22.5119 34.5309 22.5477 34.5338 22.5823 34.5425C23.874 34.8654 24.9299 34.7257 25.5883 34.5515C26.3052 34.3619 26.7216 34.0912 26.7257 34.0885C26.7568 34.0678 26.7903 34.0532 26.8265 34.0441C27.465 33.8845 27.5911 33.71 27.6107 33.6742C27.578 33.6085 27.5683 33.5333 27.5839 33.4608C27.6025 33.3747 27.655 33.2999 27.7296 33.2533C27.9492 33.116 27.9929 33.0169 27.9919 32.9997C27.9919 32.9994 27.9917 32.9989 27.9914 32.9984C27.8907 32.8856 27.8807 32.717 27.9695 32.5926C28.0083 32.5383 28.0233 32.4956 28.014 32.4654C27.9815 32.359 27.7625 32.2253 27.6237 32.1736C27.4755 32.1197 27.3888 31.9681 27.4152 31.8136C27.3693 31.775 27.1369 31.6297 26.2413 31.6297C26.2398 31.6297 26.2385 31.6297 26.237 31.6297C25.6591 31.63 25.1216 31.6924 25.1162 31.693C24.99 31.7078 24.867 31.6481 24.8007 31.5399C24.7344 31.4317 24.7369 31.2948 24.8073 31.1892C24.9057 31.0397 24.9969 30.8017 24.9697 30.7005C24.9672 30.6912 24.9648 30.6823 24.9423 30.6694C24.9009 30.6655 24.6348 30.6674 23.7949 31.1759C23.3002 31.4754 22.8672 31.7945 22.8629 31.7977C22.8019 31.8427 22.7271 31.8651 22.6514 31.8609C21.679 31.8069 20.6454 31.4755 19.6457 31.155C19.0654 30.969 18.5171 30.7933 18.0342 30.6916C16.5001 30.3686 15.1059 30.2835 15.0919 30.2827C15.0609 30.2809 15.0302 30.2746 15.0009 30.264C12.9449 29.5239 9.17647 28.0751 9.13862 28.0605C8.97083 27.996 8.88713 27.8077 8.95167 27.6399C9.01618 27.4721 9.20448 27.3884 9.37228 27.4529C9.4098 27.4674 13.1194 28.8936 15.178 29.6359C15.4426 29.6537 16.7277 29.7513 18.1683 30.0546C18.684 30.1632 19.2477 30.3439 19.8444 30.5352C20.7643 30.8301 21.7142 31.1346 22.5739 31.2032C22.7437 31.0818 23.1124 30.8246 23.5202 30.5815C23.8491 30.3854 24.136 30.2391 24.3731 30.1465C24.7483 29.9999 25.0186 29.9794 25.2237 30.082C25.4162 30.1782 25.546 30.3344 25.5989 30.5337C25.6402 30.6893 25.6283 30.8514 25.5929 30.9996C25.773 30.9886 25.9832 30.9797 26.202 30.9788C26.2152 30.9787 26.2285 30.9787 26.2416 30.9787C27.397 30.9787 27.7424 31.207 27.9018 31.3797C27.9761 31.4603 28.0263 31.5533 28.0509 31.6536C28.2546 31.761 28.5391 31.9609 28.6357 32.2722C28.6744 32.397 28.6934 32.576 28.606 32.7825C28.6343 32.8623 28.6517 32.9605 28.6387 33.0746C28.6141 33.2902 28.4884 33.4903 28.2641 33.6714C28.2641 33.7449 28.2514 33.824 28.2203 33.9046C28.0904 34.2404 27.7024 34.4887 27.0349 34.6628C26.8914 34.7494 26.4545 34.9918 25.786 35.1725C25.366 35.286 24.8019 35.3874 24.1285 35.3875ZM27.6269 33.7031C27.6283 33.7052 27.6298 33.7075 27.6313 33.7099C27.6298 33.7076 27.6284 33.7054 27.6269 33.7031ZM28.0036 33.0113C28.0038 33.0115 28.004 33.0117 28.0042 33.0119C28.004 33.0117 28.0038 33.0115 28.0036 33.0113ZM28.003 33.0107C28.0032 33.0109 28.0034 33.0111 28.0035 33.0113C28.0034 33.0111 28.0032 33.0109 28.003 33.0107ZM28.0025 33.0102C28.0026 33.0103 28.0027 33.0104 28.0028 33.0105C28.0027 33.0104 28.0026 33.0103 28.0025 33.0102Z" fill="#2E3349"/>
<path d="M26.1995 32.3449C26.1022 32.3449 26.0204 32.2693 26.0141 32.1708C26.0075 32.0683 26.0853 31.9798 26.1878 31.9733L28.0388 31.8546C28.1414 31.8481 28.2298 31.9258 28.2363 32.0284C28.2429 32.1309 28.1651 32.2193 28.0626 32.2259L26.2116 32.3445C26.2075 32.3448 26.2035 32.3449 26.1995 32.3449Z" fill="#2E3349"/>
<path d="M26.1995 33.0925C26.1022 33.0925 26.0204 33.0168 26.0141 32.9184C26.0075 32.8158 26.0853 32.7274 26.1878 32.7209L28.0388 32.6022C28.1414 32.5956 28.2298 32.6734 28.2363 32.7759C28.2429 32.8784 28.1651 32.9669 28.0626 32.9734L26.2116 33.0921C26.2075 33.0923 26.2035 33.0925 26.1995 33.0925Z" fill="#2E3349"/>
<path d="M26.1987 33.7786C26.0901 33.7786 25.9987 33.6941 25.9916 33.5842C25.9843 33.4698 26.0711 33.371 26.1856 33.3637L28.0367 33.2451C28.1509 33.2378 28.2498 33.3245 28.2571 33.439C28.2645 33.5535 28.1776 33.6522 28.0632 33.6595L26.2121 33.7782C26.2077 33.7784 26.2031 33.7786 26.1987 33.7786Z" fill="#2E3349"/>
<path d="M9.17262 27.6737C9.17262 27.6737 15.0166 28.93 15.2774 29.6256C15.7758 30.9545 15.4436 34.3599 14.2808 35.2736C13.1179 36.1872 8.96498 34.3599 7.1377 31.5359" fill="#22A7F0"/>
<g opacity="0.6">
<g opacity="0.6">
<g opacity="0.6">
<g opacity="0.6">
<path opacity="0.6" d="M15.2663 30.5049C15.3867 30.8293 15.4602 31.2583 15.488 31.7343C15.5323 30.9009 15.462 30.1197 15.2768 29.6256C15.0159 28.93 9.17196 27.6737 9.17196 27.6737L9.14941 27.7165C10.3404 28.1442 15.028 29.8631 15.2663 30.5049Z" fill="white"/>
</g>
</g>
</g>
</g>
<g opacity="0.2">
<g opacity="0.2">
<g opacity="0.2">
<g opacity="0.2">
<path opacity="0.2" d="M14.28 35.0244C13.1985 35.8741 9.53229 34.3533 7.55469 31.8657C9.62118 33.9704 13.1761 34.9538 14.2484 34.0069C14.9768 33.3641 15.388 31.8275 15.4801 30.4396C15.5997 32.0193 15.1994 34.3018 14.28 35.0244Z" fill="#1A1A5A"/>
</g>
</g>
</g>
<g opacity="0.2">
<g opacity="0.2">
<g opacity="0.2">
<path opacity="0.2" d="M13.4106 35.3078C13.2957 35.3078 13.1739 35.3004 13.0458 35.2853C12.5163 35.223 11.89 35.0341 11.2346 34.7389C9.79444 34.0904 8.44002 33.0537 7.51855 31.8946L7.58814 31.8331C8.54544 32.8081 9.89408 33.6111 11.2882 34.0361C11.926 34.2306 12.5317 34.3293 13.0403 34.3213C13.5611 34.3131 13.9683 34.1924 14.2178 33.972C14.9872 33.293 15.3539 31.6431 15.434 30.4364L15.5268 30.436C15.5883 31.2491 15.5093 32.2315 15.3153 33.064C15.1583 33.7376 14.8562 34.6308 14.3089 35.0609C14.1011 35.2243 13.7944 35.3078 13.4106 35.3078ZM8.14622 32.4664C9.00885 33.3553 10.1127 34.1317 11.2728 34.6541C12.6072 35.2551 13.7486 35.3829 14.2515 34.9878C14.6619 34.6653 15.0075 33.9745 15.2247 33.0428C15.3629 32.4498 15.4422 31.78 15.453 31.1512C15.3842 31.6363 15.2798 32.1054 15.1474 32.5169C14.9241 33.2103 14.624 33.7377 14.2794 34.0418C13.7504 34.5089 12.622 34.54 11.261 34.1251C10.1339 33.7815 9.03589 33.193 8.14622 32.4664Z" fill="#2E3349"/>
</g>
</g>
</g>
</g>
<path d="M13.4081 35.8423C13.2214 35.8423 13.0203 35.8246 12.8061 35.7889C11.8732 35.6333 10.73 35.1457 9.66952 34.4511C8.8445 33.9107 7.68701 32.9976 6.85802 31.7165C6.75835 31.5624 6.80243 31.3567 6.95647 31.2571C7.11055 31.1574 7.31622 31.2015 7.4159 31.3555C8.71477 33.3628 11.2321 34.8527 12.9154 35.1335C13.4502 35.2227 13.8619 35.1796 14.0747 35.0124C14.5259 34.6579 14.899 33.74 15.0726 32.5571C15.2304 31.4818 15.1901 30.3636 14.973 29.7623C14.9229 29.71 14.6075 29.453 12.9192 28.9562C11.8663 28.6463 10.6807 28.3584 9.87159 28.1715C9.40861 28.0645 9.10508 27.9992 9.10207 27.9986C8.92265 27.96 8.80853 27.7833 8.8471 27.6039C8.88562 27.4245 9.06232 27.3103 9.24173 27.3489C9.2448 27.3496 9.55281 27.4159 10.0212 27.5241C10.8815 27.7228 12.1367 28.0284 13.2304 28.3554C13.8511 28.541 14.35 28.7132 14.7133 28.8673C15.2487 29.0943 15.502 29.2802 15.5878 29.5089C15.8514 30.2119 15.9073 31.4463 15.73 32.6536C15.6121 33.457 15.2935 34.8998 14.4853 35.5348C14.2258 35.7387 13.8593 35.8423 13.4081 35.8423ZM14.9797 29.7699C14.9797 29.77 14.9797 29.7699 14.9797 29.7699V29.7699Z" fill="#2E3349"/>
<path d="M29 26.9999H28V29.9999H29V26.9999Z" fill="#73EAFF"/>
<path d="M30.5447 29.9448C30.9 29.9448 31.1881 29.6568 31.1881 29.3014C31.1881 28.9461 30.9 28.6581 30.5447 28.6581C30.1894 28.6581 29.9014 28.9461 29.9014 29.3014C29.9014 29.6568 30.1894 29.9448 30.5447 29.9448Z" fill="#73EAFF"/>
<path d="M26.2785 27.7425C26.4658 27.7425 26.6176 27.5907 26.6176 27.4034C26.6176 27.2161 26.4658 27.0643 26.2785 27.0643C26.0913 27.0643 25.9395 27.2161 25.9395 27.4034C25.9395 27.5907 26.0913 27.7425 26.2785 27.7425Z" fill="#73EAFF"/>
<path d="M30.884 31.7491C31.0713 31.7491 31.2231 31.5973 31.2231 31.41C31.2231 31.2227 31.0713 31.0709 30.884 31.0709C30.6967 31.0709 30.5449 31.2227 30.5449 31.41C30.5449 31.5973 30.6967 31.7491 30.884 31.7491Z" fill="white"/>
<path d="M31.0463 50.4318H41.9804V53.0066H29.3555V52.1226C29.3555 51.1888 30.1125 50.4318 31.0463 50.4318Z" fill="#7A7A7A"/>
<g opacity="0.6">
<g opacity="0.6">
<g opacity="0.6">
<g opacity="0.6">
<path opacity="0.6" d="M31.0463 50.5149C30.1125 50.5149 29.3555 51.2719 29.3555 52.2057V52.8702C29.3555 51.9364 30.1125 51.1794 31.0463 51.1794H41.9804V50.5149H31.0463Z" fill="white"/>
</g>
</g>
</g>
</g>
<g opacity="0.2">
<g opacity="0.2">
<g opacity="0.2">
<g opacity="0.2">
<path opacity="0.2" d="M29.3555 52.1227V53.0066H41.9804V51.9269H29.3677C29.3603 51.9912 29.3555 52.0564 29.3555 52.1227Z" fill="#2E3349"/>
</g>
</g>
</g>
</g>
<path d="M41.9807 53.3321H29.3558C29.176 53.3321 29.0303 53.1864 29.0303 53.0066V52.1227C29.0303 51.0108 29.9348 50.1063 31.0466 50.1063H41.9807C42.1604 50.1063 42.3062 50.2521 42.3062 50.4318V53.0066C42.3062 53.1864 42.1604 53.3321 41.9807 53.3321ZM29.6813 52.6811H41.6552V50.7573H31.0466C30.2937 50.7573 29.6813 51.3698 29.6813 52.1226V52.6811Z" fill="#2E3349"/>
<path d="M34.5157 19.1885L35.2213 18.8037C35.6472 18.5714 36.1666 18.8796 36.1666 19.3648V20.0918C36.1666 20.5636 35.673 20.8728 35.2485 20.667L34.543 20.3249C34.0752 20.0981 34.0594 19.4375 34.5157 19.1885Z" fill="white"/>
<path d="M32.7505 19.1885L32.0449 18.8037C31.619 18.5714 31.0996 18.8796 31.0996 19.3648V20.0918C31.0996 20.5636 31.5932 20.8728 32.0177 20.667L32.7232 20.3249C33.191 20.0981 33.2068 19.4375 32.7505 19.1885Z" fill="white"/>
<path d="M31.739 20.778C31.6126 20.778 31.4869 20.7427 31.3754 20.6729C31.1739 20.5467 31.0537 20.3294 31.0537 20.0918V19.3648C31.0537 19.1204 31.1792 18.9 31.3894 18.7752C31.5996 18.6504 31.8531 18.6458 32.0678 18.7629L32.7733 19.1477C33.0032 19.2731 33.1367 19.5043 33.1305 19.7661C33.1242 20.0279 32.9798 20.2524 32.7441 20.3667L32.0386 20.7088C31.9431 20.7551 31.8408 20.778 31.739 20.778ZM31.7392 18.7714C31.6349 18.7714 31.5309 18.7993 31.4368 18.8552C31.2551 18.963 31.1467 19.1535 31.1467 19.3648V20.0918C31.1467 20.2972 31.2506 20.485 31.4247 20.594C31.5988 20.7031 31.8131 20.7147 31.998 20.6251L32.7035 20.283C32.9072 20.1842 33.032 19.9902 33.0375 19.7639C33.0429 19.5376 32.9275 19.3377 32.7287 19.2293L32.0232 18.8445C31.9337 18.7957 31.8364 18.7714 31.7392 18.7714Z" fill="#2E3349"/>
<g opacity="0.6">
<g opacity="0.6">
<g opacity="0.6">
<g opacity="0.6">
<path opacity="0.6" d="M35.2219 18.8037L34.5583 19.1656C34.4585 19.0362 34.3024 18.9525 34.1263 18.9525H33.1415C32.9654 18.9525 32.8093 19.0362 32.7095 19.1656L32.0459 18.8037C31.6199 18.5714 31.1006 18.8796 31.1006 19.3648V19.8987C31.1006 19.4134 31.6199 19.1052 32.0459 19.3375L32.7095 19.6994C32.8093 19.57 32.9654 19.4863 33.1415 19.4863H34.1263C34.3024 19.4863 34.4585 19.57 34.5583 19.6995L35.2219 19.3375C35.6478 19.1052 36.1672 19.4134 36.1672 19.8987V19.3648C36.1672 18.8796 35.6478 18.5714 35.2219 18.8037Z" fill="white"/>
</g>
</g>
</g>
</g>
<path d="M31.7389 21.0107C31.5697 21.0107 31.4013 20.9635 31.252 20.8699C30.9823 20.7009 30.8213 20.41 30.8213 20.0918V19.3649C30.8213 19.0375 30.9893 18.7424 31.2708 18.5753C31.5522 18.4082 31.8918 18.402 32.1792 18.5588L32.8847 18.9436C33.188 19.109 33.3712 19.4263 33.363 19.7717C33.3547 20.117 33.1565 20.4252 32.8456 20.5759L32.1401 20.918C32.0122 20.98 31.8753 21.0107 31.7389 21.0107ZM31.7392 19.0035C31.6763 19.0035 31.6136 19.0207 31.5556 19.0551C31.4436 19.1216 31.3793 19.2345 31.3793 19.3649V20.0918C31.3793 20.2185 31.4409 20.3298 31.5483 20.3971C31.6556 20.4643 31.7826 20.4712 31.8966 20.4159L32.6022 20.0739C32.726 20.0138 32.8019 19.8959 32.8051 19.7583C32.8085 19.6208 32.7383 19.4994 32.6175 19.4335L31.912 19.0487C31.8567 19.0185 31.7979 19.0035 31.7392 19.0035Z" fill="#2E3349"/>
<path d="M35.5276 21.0107C35.3912 21.0107 35.2543 20.98 35.1265 20.918L34.4209 20.5759C34.1101 20.4252 33.9118 20.117 33.9036 19.7717C33.8953 19.4263 34.0786 19.109 34.3818 18.9436L35.0874 18.5588C35.3747 18.402 35.7143 18.4082 35.9958 18.5753C36.2772 18.7424 36.4453 19.0375 36.4453 19.3649V20.0918C36.4453 20.41 36.2842 20.7009 36.0146 20.8699C35.8652 20.9634 35.6968 21.0107 35.5276 21.0107ZM35.5274 19.0034C35.4687 19.0034 35.4098 19.0185 35.3546 19.0486L34.649 19.4334C34.5283 19.4993 34.4581 19.6208 34.4614 19.7583C34.4647 19.8958 34.5406 20.0138 34.6644 20.0738L35.3699 20.4159C35.4839 20.4712 35.6109 20.4643 35.7183 20.397C35.8257 20.3297 35.8873 20.2185 35.8873 20.0917V19.3648C35.8873 19.2345 35.823 19.1216 35.7109 19.0551C35.653 19.0207 35.5903 19.0034 35.5274 19.0034ZM34.5154 19.1885H34.5156H34.5154Z" fill="#2E3349"/>
<path d="M34.1254 20.5306H33.1405C32.8391 20.5306 32.5947 20.2863 32.5947 19.9848V19.4983C32.5947 19.1969 32.8391 18.9525 33.1405 18.9525H34.1254C34.4268 18.9525 34.6712 19.1969 34.6712 19.4983V19.9848C34.6712 20.2863 34.4268 20.5306 34.1254 20.5306Z" fill="white"/>
<path d="M31.349 22.9393H29.7709H28.7C28.0529 22.9393 27.5283 23.4639 27.5283 24.1111V24.7666V26.76H29.1895V25.1152C29.1895 24.9227 29.3456 24.7666 29.538 24.7666H31.349V22.9393Z" fill="#4BE288"/>
<g opacity="0.6">
<g opacity="0.6">
<g opacity="0.6">
<g opacity="0.6">
<path opacity="0.6" d="M28.022 25.3127V24.6571C28.022 24.01 28.5465 23.4854 29.1937 23.4854H30.2645H31.349V22.9393H29.7709H28.7C28.0529 22.9393 27.5283 23.4639 27.5283 24.1111V24.7666V26.76H28.022V25.3127Z" fill="white"/>
</g>
</g>
</g>
</g>
<g opacity="0.2">
<g opacity="0.2">
<g opacity="0.2">
<g opacity="0.2">
<path opacity="0.2" d="M31.266 22.9393V24.7666H29.4553C29.2626 24.7666 29.1065 24.9228 29.1065 25.1155V26.76H27.4453V25.7633H28.6081V24.1188C28.6081 23.9261 28.7643 23.7699 28.957 23.7699H30.7677V22.9393H31.266Z" fill="#2E3349"/>
</g>
</g>
</g>
</g>
<path d="M29.1898 27.0856H27.5286C27.3489 27.0856 27.2031 26.9398 27.2031 26.7601V24.1111C27.2031 23.2855 27.8748 22.6139 28.7003 22.6139H31.3493C31.5291 22.6139 31.6748 22.7596 31.6748 22.9394V24.7667C31.6748 24.9465 31.5291 25.0922 31.3493 25.0922H29.5383C29.5256 25.0922 29.5153 25.1025 29.5153 25.1152V26.7601C29.5153 26.9398 29.3696 27.0856 29.1898 27.0856ZM27.8541 26.4346H28.8643V25.1152C28.8643 24.7436 29.1667 24.4412 29.5383 24.4412H31.0238V23.2649H28.7003C28.2337 23.2649 27.8541 23.6445 27.8541 24.1111V26.4346Z" fill="#2E3349"/>
<path d="M34.1735 20.5306H33.0938V22.6902H34.1735V20.5306Z" fill="#51AFC9"/>
<path d="M34.1732 22.9692H33.0934C32.9394 22.9692 32.8145 22.8443 32.8145 22.6902V20.5307C32.8145 20.3766 32.9394 20.2517 33.0934 20.2517H34.1732C34.3273 20.2517 34.4522 20.3766 34.4522 20.5307V22.6902C34.4522 22.8443 34.3273 22.9692 34.1732 22.9692ZM33.3724 22.4112H33.8942V20.8097H33.3724V22.4112Z" fill="#2E3349"/>
<path d="M34.1261 20.8097H33.1412C32.6864 20.8097 32.3164 20.4397 32.3164 19.9849V19.4984C32.3164 19.0436 32.6864 18.6736 33.1412 18.6736H34.1261C34.5809 18.6736 34.9509 19.0436 34.9509 19.4984V19.9849C34.9508 20.4397 34.5809 20.8097 34.1261 20.8097ZM33.1412 19.2316C32.9941 19.2316 32.8744 19.3513 32.8744 19.4984V19.9849C32.8744 20.132 32.9941 20.2517 33.1412 20.2517H34.1261C34.2732 20.2517 34.3929 20.132 34.3929 19.9849V19.4984C34.3929 19.3513 34.2732 19.2316 34.1261 19.2316H33.1412Z" fill="#2E3349"/>
<path d="M32.121 26.0956H34.8975C35.4611 26.0956 35.918 25.6388 35.918 25.0752V23.0462C35.918 22.4826 35.4611 22.0258 34.8975 22.0258H32.121C31.5574 22.0258 31.1006 22.4826 31.1006 23.0462V25.0752C31.1006 25.6388 31.5574 26.0956 32.121 26.0956Z" fill="#4BE288"/>
<g opacity="0.6">
<g opacity="0.6">
<g opacity="0.6">
<g opacity="0.6">
<path opacity="0.6" d="M35.0216 22.063H32.245C31.6815 22.063 31.2246 22.5199 31.2246 23.0834V23.8159C31.2246 23.2523 31.6815 22.7955 32.245 22.7955H35.0216C35.5851 22.7955 36.042 23.2523 36.042 23.8159V23.0834C36.042 22.5199 35.5851 22.063 35.0216 22.063Z" fill="white"/>
</g>
</g>
</g>
</g>
<g opacity="0.2">
<g opacity="0.2">
<g opacity="0.2">
<g opacity="0.2">
<path opacity="0.2" d="M35.918 24.0781V25.0748C35.918 25.6388 35.4612 26.0956 34.8972 26.0956H32.1214C31.5574 26.0956 31.1006 25.6388 31.1006 25.0748V24.0781C31.1006 24.6421 31.5574 25.0989 32.1214 25.0989H34.8972C35.4612 25.0989 35.918 24.6421 35.918 24.0781Z" fill="#2E3349"/>
</g>
</g>
</g>
</g>
<path d="M34.8969 26.4211H32.1203C31.3782 26.4211 30.7744 25.8173 30.7744 25.0751V23.0461C30.7744 22.304 31.3782 21.7002 32.1203 21.7002H34.8969C35.639 21.7002 36.2428 22.304 36.2428 23.0461V25.0751C36.2428 25.8173 35.639 26.4211 34.8969 26.4211ZM32.1203 22.3512C31.7371 22.3512 31.4254 22.6629 31.4254 23.0461V25.0751C31.4254 25.4583 31.7371 25.7701 32.1203 25.7701H34.8969C35.2801 25.7701 35.5918 25.4583 35.5918 25.0751V23.0461C35.5918 22.6629 35.28 22.3512 34.8969 22.3512H32.1203Z" fill="#2E3349"/>
<path d="M42.0223 24.3513V52.9651H39.1153V25.3065H35.876V22.7317H40.4027C41.2972 22.7317 42.0223 23.4568 42.0223 24.3513Z" fill="#B3B3B3"/>
<g opacity="0.6">
<g opacity="0.6">
<g opacity="0.6">
<g opacity="0.6">
<path opacity="0.6" d="M40.3617 22.6902H35.835V23.5208H39.8633C40.7579 23.5208 41.483 24.2459 41.483 25.1404V52.9235H41.9813V24.3098C41.9813 23.4153 41.2562 22.6902 40.3617 22.6902Z" fill="white"/>
</g>
</g>
</g>
</g>
<g opacity="0.2">
<g opacity="0.2">
<g opacity="0.2">
<g opacity="0.2">
<path opacity="0.2" d="M40.3196 25.1048V52.9651H39.1153V25.3066H35.876V24.0192H39.2339C39.8335 24.0192 40.3196 24.5052 40.3196 25.1048Z" fill="#2E3349"/>
</g>
</g>
</g>
</g>
<path d="M42.0226 53.2906H39.1156C38.9358 53.2906 38.7901 53.1449 38.7901 52.9651V25.6321H35.8763C35.6965 25.6321 35.5508 25.4863 35.5508 25.3066V22.7317C35.5508 22.552 35.6965 22.4062 35.8763 22.4062H40.403C41.4755 22.4062 42.3481 23.2788 42.3481 24.3514V52.9651C42.3481 53.1449 42.2024 53.2906 42.0226 53.2906ZM39.4411 52.6396H41.6971V24.3514C41.6971 23.6378 41.1166 23.0573 40.403 23.0573H36.2018V24.9811H39.1155C39.2953 24.9811 39.441 25.1268 39.441 25.3066V52.6396H39.4411Z" fill="#2E3349"/>
<g opacity="0.2">
<g opacity="0.2">
<g opacity="0.2">
<g opacity="0.2">
<path opacity="0.2" d="M39.0231 38.4714H26.8318C25.198 38.4714 23.874 37.1474 23.874 35.5137V38.0885C23.874 39.7223 25.198 41.0462 26.8318 41.0462H39.0231C40.6569 41.0462 41.9808 39.7223 41.9808 38.0885V35.5137C41.9808 37.1474 40.6568 38.4714 39.0231 38.4714Z" fill="#2E3349"/>
</g>
</g>
</g>
</g>
<g opacity="0.2">
<g opacity="0.2">
<g opacity="0.2">
<g opacity="0.2">
<path opacity="0.2" d="M35.2491 19.998L34.5504 19.6593C34.4503 19.7827 34.2976 19.8617 34.1263 19.8617H33.1414C32.9702 19.8617 32.8175 19.7827 32.7174 19.6593L32.0187 19.998C31.5942 20.2038 31.1006 19.8946 31.1006 19.4229V20.0918C31.1006 20.5635 31.5942 20.8728 32.0187 20.6669L32.7174 20.3282C32.8175 20.4516 32.9702 20.5307 33.1414 20.5307H34.1263C34.2976 20.5307 34.4503 20.4516 34.5504 20.3282L35.2491 20.6669C35.6736 20.8728 36.1671 20.5635 36.1671 20.0918V19.4229C36.1671 19.8946 35.6736 20.2038 35.2491 19.998Z" fill="#2E3349"/>
</g>
</g>
</g>
</g>
<path d="M6.07455 21.4276C6.16296 21.5686 6.23977 21.7102 6.31538 21.849L6.53417 22.258C6.60559 22.3909 6.67973 22.5184 6.74323 22.641C6.77554 22.7021 6.80686 22.7607 6.83524 22.8172C6.86338 22.8739 6.89069 22.9266 6.91025 22.9779L6.93097 23.0322C6.99549 23.2012 6.91074 23.3906 6.74168 23.4551C6.62746 23.4987 6.50363 23.4738 6.41565 23.4012C6.33344 23.333 6.27353 23.2546 6.22248 23.1761C6.17203 23.0971 6.13173 23.0159 6.09948 22.9342C6.06676 22.8527 6.04143 22.7699 6.02125 22.6871C6.01161 22.6457 6.00283 22.604 5.99528 22.5625C5.99147 22.5418 5.98727 22.5211 5.98386 22.5004L5.97428 22.4382C5.95007 22.2726 5.93826 22.1072 5.93848 21.9416C5.93885 21.8588 5.94158 21.776 5.94863 21.693C5.95553 21.6099 5.96554 21.5272 5.98286 21.443C5.98838 21.4161 6.01477 21.3987 6.04174 21.4042C6.05558 21.4071 6.06689 21.4154 6.07388 21.4265L6.07455 21.4276Z" fill="#2E3349"/>
<g opacity="0.2">
<g opacity="0.2">
<g opacity="0.2">
<g opacity="0.2">
<path opacity="0.2" d="M16.5209 52.3156C16.5159 53.7376 14.4054 53.9278 12.0083 53.9203C9.78901 53.9128 7.92351 53.9784 7.66602 52.1395C11.4626 53.054 14.1654 52.1786 15.0698 51.7608C15.5724 51.529 15.7152 51.0083 15.7235 50.519C15.8971 50.7184 16.05 50.931 16.1745 51.1495C16.3922 51.5324 16.5217 51.9335 16.5209 52.3156Z" fill="#2E3349"/>
</g>
</g>
</g>
</g>
</svg>
