<svg width="72" height="55" viewBox="0 0 72 55" fill="none" xmlns="http://www.w3.org/2000/svg">
<path d="M50.8415 31.5658V46.9077C50.8415 48.7001 49.7725 50.2551 48.2404 50.967C47.67 51.2324 47.0362 51.3802 46.369 51.3802H27.3456C26.6784 51.3802 26.0435 51.2324 25.4742 50.967C23.941 50.2551 22.8721 48.7001 22.8721 46.9077V31.5658C22.8721 30.7873 23.074 30.0524 23.4289 29.4133C23.5757 29.1479 23.7485 28.8981 23.9452 28.6692C24.7654 27.7054 25.9873 27.0923 27.3456 27.0923H46.369C48.4486 27.0923 50.2086 28.5318 50.703 30.4636C50.7936 30.8164 50.8415 31.1859 50.8415 31.5658Z" fill="white"/>
<path d="M46.3687 51.7969H27.3453C24.6494 51.7969 22.4561 49.6035 22.4561 46.9075V31.5654C22.4561 28.8693 24.6494 26.676 27.3453 26.676H46.3687C49.0646 26.676 51.2579 28.8693 51.2579 31.5654V46.9075C51.2579 49.6035 49.0646 51.7969 46.3687 51.7969ZM27.3453 27.5087C25.1086 27.5087 23.2887 29.3285 23.2887 31.5654V46.9075C23.2887 49.1444 25.1086 50.9642 27.3453 50.9642H46.3687C48.6054 50.9642 50.4253 49.1444 50.4253 46.9075V31.5654C50.4253 29.3285 48.6054 27.5087 46.3687 27.5087H27.3453Z" fill="#2E3349"/>
<g opacity="0.35">
<path opacity="0.35" d="M30.9054 50.9671H15.0576C15.0576 50.9671 16.01 38.8215 24.6573 32.3912C16.7698 38.3261 20.9696 50.9671 30.9054 50.9671Z" fill="#2E3349"/>
</g>
<path d="M15.0584 51.3839C15.0474 51.3839 15.0364 51.3835 15.0254 51.3826C14.7962 51.3646 14.6249 51.1643 14.6429 50.935C14.6611 50.7021 15.1244 45.1668 18.1319 39.538C19.9059 36.2179 22.1997 33.5703 24.9497 31.6688C28.3894 29.2904 32.5466 28.0845 37.3059 28.0845C42.0653 28.0845 46.2203 29.2905 49.6554 31.6689C52.4018 33.5705 54.6905 36.2183 56.4579 39.5385C59.4543 45.1675 59.9065 50.7029 59.9243 50.9358C59.9418 51.165 59.7702 51.365 59.5411 51.3825C59.3127 51.3996 59.1117 51.2287 59.094 50.9993C59.0898 50.9438 58.6326 45.3828 55.7104 39.9065C51.8194 32.6145 45.6272 28.9171 37.3059 28.9171C28.9749 28.9171 22.7709 32.6225 18.8662 39.9304C15.9401 45.4069 15.4773 50.9447 15.4729 51C15.4559 51.2182 15.2735 51.3839 15.0584 51.3839Z" fill="#2E3349"/>
<path d="M49.1877 50.0147C48.9678 50.0147 48.784 49.8424 48.7723 49.6203C48.3708 42.0236 46.2787 35.7922 46.2576 35.7302C46.1836 35.5125 46.3002 35.276 46.5179 35.202C46.7355 35.1281 46.9722 35.2446 47.0461 35.4623C47.0674 35.5254 49.1963 41.8661 49.6038 49.5764C49.6159 49.8059 49.4396 50.002 49.21 50.0141C49.2025 50.0145 49.1951 50.0147 49.1877 50.0147Z" fill="#2E3349"/>
<path d="M25.528 50.0147C25.5206 50.0147 25.5131 50.0145 25.5057 50.0141C25.276 50.002 25.0998 49.806 25.1119 49.5764C25.5195 41.8661 27.6484 35.5255 27.6697 35.4623C27.7439 35.2446 27.9804 35.1284 28.1979 35.2021C28.4156 35.276 28.5321 35.5124 28.4582 35.7301C28.4371 35.7922 26.3446 42.03 25.9434 49.6203C25.9317 49.8425 25.7479 50.0147 25.528 50.0147Z" fill="#2E3349"/>
<path d="M31.5199 47.7921C29.714 48.5256 26.9177 48.3758 25.0111 48.1473C23.8676 48.0103 23.0639 46.9561 23.231 45.8167V45.8166C23.3835 44.7768 24.2977 44.0198 25.3475 44.0677C27.1306 44.1492 29.8052 44.1853 31.4985 43.8076" fill="white"/>
<g opacity="0.35">
<path opacity="0.35" d="M31.52 47.7917C29.7135 48.5262 26.9171 48.375 25.0108 48.1479C23.8674 48.0107 23.0636 46.9559 23.2311 45.8172C23.2642 45.5846 23.3372 45.3664 23.4405 45.1672C23.7421 45.7417 24.3126 46.1646 25.0086 46.2482C26.9118 46.4769 29.7033 46.6266 31.5098 45.8968L31.52 47.7917Z" fill="#2E3349"/>
</g>
<path d="M27.908 48.7509C26.8728 48.7509 25.8435 48.6663 24.9612 48.5606C24.2967 48.481 23.7066 48.1443 23.2998 47.6124C22.8923 47.0795 22.7213 46.4203 22.8187 45.7562C23.0033 44.4986 24.0949 43.5931 25.3663 43.6518C27.2277 43.7368 29.7875 43.7625 31.4076 43.4012C31.6436 43.3488 32.2295 43.3494 32.5855 44.4902C32.9562 45.6778 32.9238 47.6711 31.6763 48.1777C30.6198 48.6068 29.259 48.7509 27.908 48.7509ZM25.2521 44.4818C24.4459 44.4818 23.761 45.0696 23.6426 45.877C23.578 46.3169 23.6912 46.7536 23.9611 47.1065C24.2303 47.4584 24.6207 47.6812 25.0603 47.7338C26.9964 47.9658 29.6616 48.0973 31.3629 47.4062C31.8253 47.2184 31.9261 46.4673 31.9479 46.1531C32.0152 45.1862 31.7112 44.3813 31.5378 44.2251C29.8269 44.5947 27.2216 44.57 25.3282 44.4836C25.3027 44.4824 25.2774 44.4818 25.2521 44.4818Z" fill="#2E3349"/>
<path d="M45.3389 47.7761C47.1465 48.5055 49.9424 48.3492 51.8485 48.1163C52.9916 47.9767 53.793 46.9207 53.6232 45.7816C53.4684 44.7421 52.5524 43.9872 51.5027 44.0375C49.7197 44.1232 47.0453 44.1654 45.3511 43.7916" fill="white"/>
<g opacity="0.35">
<path opacity="0.35" d="M51.8488 48.117C49.943 48.3485 47.147 48.5062 45.3389 47.7758L45.3446 45.8634C47.1528 46.589 49.944 46.4329 51.8466 46.1998C52.5392 46.1162 53.1056 45.6952 53.4075 45.1232C53.5144 45.3237 53.5894 45.5449 53.6248 45.7822C53.7933 46.9205 52.9919 47.9771 51.8488 48.117Z" fill="#2E3349"/>
</g>
<path d="M48.9094 48.7267C47.5727 48.7267 46.2295 48.5842 45.1834 48.1622C43.9347 47.6584 43.8977 45.6652 44.2657 44.4767C44.6191 43.3354 45.2046 43.333 45.4411 43.385C47.0616 43.7425 49.6209 43.7109 51.4829 43.6217C52.7489 43.5606 53.8479 44.4629 54.0353 45.7202C54.1343 46.384 53.9649 47.0436 53.5587 47.5774C53.153 48.1102 52.5637 48.4484 51.8993 48.5296C51.005 48.6388 49.9592 48.7267 48.9094 48.7267ZM45.4948 47.39C47.1977 48.0771 49.8625 47.9394 51.7981 47.703C52.2377 47.6493 52.6276 47.4256 52.896 47.073C53.1651 46.7195 53.2773 46.2826 53.2116 45.8429C53.0877 45.0106 52.3661 44.4126 51.5228 44.4534C49.6293 44.5443 47.0239 44.5749 45.3127 44.2092C45.1396 44.3658 44.8374 45.1714 44.9069 46.1382C44.9296 46.4524 45.0321 47.2032 45.4948 47.39Z" fill="#2E3349"/>
<path d="M46.0317 42.4741L46.0391 48.8594C46.0404 50.0442 45.0718 51.015 43.8871 51.0164L32.1276 51.03C30.9445 51.0313 29.9736 50.0627 29.9722 48.878L29.9648 42.4927C29.9635 41.308 30.9321 40.3387 32.1152 40.3373L43.8748 40.3237C44.5722 40.3229 45.1952 40.6582 45.5907 41.1752C45.8666 41.5364 46.0311 41.9869 46.0317 42.4741Z" fill="white"/>
<g opacity="0.35">
<path opacity="0.35" d="M46.031 42.474L46.0383 48.8593C46.0397 50.044 45.0711 51.0149 43.8864 51.0163L32.1269 51.0298C30.9437 51.0312 29.9729 50.0626 29.9715 48.8779L29.9688 46.4894C32.4247 48.3082 37.7812 49.5663 41.1252 46.8364C43.7771 44.6709 45.0246 42.5071 45.59 41.1752C45.8659 41.5363 46.0304 41.9867 46.031 42.474Z" fill="#2E3349"/>
</g>
<path d="M32.1249 51.4458C31.442 51.4458 30.7981 51.1787 30.3118 50.6935C29.8247 50.2075 29.556 49.5632 29.5553 48.8792L29.5479 42.493C29.5463 41.0761 30.6977 39.922 32.1145 39.9205L43.8744 39.9069C43.8753 39.9069 43.8764 39.9069 43.8773 39.9069C45.2929 39.9069 46.4453 41.0576 46.4469 42.4735L46.4543 48.8597C46.4551 49.5437 46.1879 50.1886 45.7019 50.6757C45.216 51.1628 44.5716 51.4315 43.8876 51.4323L32.1279 51.4459C32.1269 51.4458 32.1258 51.4458 32.1249 51.4458ZM43.8773 40.7395C43.8766 40.7395 43.876 40.7395 43.8753 40.7395L32.1155 40.7531C31.1578 40.7542 30.3794 41.5343 30.3805 42.4921L30.388 48.8782C30.3884 49.3399 30.5703 49.7752 30.8999 50.104C31.2291 50.4324 31.6641 50.6132 32.1249 50.6132C32.1256 50.6132 32.1262 50.6132 32.1269 50.6132L43.8866 50.5996C44.3483 50.5991 44.7836 50.4173 45.1125 50.0876C45.4413 49.758 45.6222 49.3223 45.6216 48.8606L45.6143 42.4745C45.6131 41.5174 44.834 40.7395 43.8773 40.7395Z" fill="#2E3349"/>
<path d="M42.1676 47.5286C43.1931 47.5286 44.0246 46.6972 44.0246 45.6716C44.0246 44.646 43.1931 43.8146 42.1676 43.8146C41.142 43.8146 40.3105 44.646 40.3105 45.6716C40.3105 46.6972 41.142 47.5286 42.1676 47.5286Z" fill="#22A7F0"/>
<g opacity="0.75">
<path opacity="0.75" d="M44.0243 45.6691C44.0243 45.8076 44.0097 45.9418 43.9806 46.0709C43.7995 45.2351 43.0552 44.6095 42.1654 44.6106C41.2775 44.6126 40.5364 45.2351 40.3543 46.0688C40.3251 45.9418 40.3105 45.8096 40.3105 45.6733C40.3095 44.6481 41.1391 43.8154 42.1653 43.8143C43.1905 43.8133 44.0232 44.6439 44.0243 45.6691Z" fill="white"/>
</g>
<g opacity="0.35">
<path opacity="0.35" d="M44.0239 45.669C44.0251 46.6945 43.1949 47.5266 42.1694 47.5278C41.1439 47.529 40.3118 46.6988 40.3105 45.6733C40.3103 45.436 40.3546 45.2099 40.4372 45.0012C40.7055 45.6935 41.3796 46.1832 42.1678 46.1823C42.956 46.1814 43.629 45.6902 43.8957 44.9972C43.9788 45.2057 44.0237 45.4317 44.0239 45.669Z" fill="#2E3349"/>
</g>
<path d="M42.1674 47.8408C40.9723 47.8408 39.9995 46.8693 39.998 45.674C39.9975 45.0946 40.2224 44.5496 40.6317 44.1395C41.041 43.7293 41.5854 43.503 42.1649 43.5023C42.1657 43.5023 42.1667 43.5023 42.1675 43.5023C42.7459 43.5023 43.2899 43.7273 43.6995 44.1359C44.1097 44.5451 44.3359 45.0896 44.3366 45.6691C44.3379 46.8652 43.3659 47.8394 42.1699 47.8408C42.169 47.8408 42.1681 47.8408 42.1674 47.8408ZM42.1675 44.1268C42.1668 44.1268 42.1662 44.1268 42.1656 44.1268C41.753 44.1273 41.3652 44.2884 41.0738 44.5805C40.7824 44.8726 40.6222 45.2607 40.6227 45.6733C40.6232 46.086 40.7842 46.4737 41.0763 46.7651C41.3681 47.0561 41.7555 47.2163 42.1673 47.2163C42.168 47.2163 42.1686 47.2163 42.1692 47.2163C42.5817 47.2158 42.9695 47.0547 43.2609 46.7626C43.5523 46.4705 43.7125 46.0824 43.712 45.6698C43.7116 45.2571 43.5505 44.8694 43.2584 44.578C42.9668 44.2871 42.5794 44.1268 42.1675 44.1268Z" fill="#2E3349"/>
<path d="M36.9108 51.3363C36.7386 51.3363 36.5988 51.1967 36.5985 51.0244L36.5936 46.6269L34.3643 44.9526C34.2859 44.8937 34.2396 44.8014 34.2395 44.7033L34.2344 40.3343C34.2343 40.1619 34.3738 40.0219 34.5463 40.0217C34.5464 40.0217 34.5466 40.0217 34.5467 40.0217C34.7189 40.0217 34.8587 40.1613 34.859 40.3336L34.8638 44.5467L37.0931 46.221C37.1715 46.2799 37.2178 46.3722 37.2179 46.4703L37.2231 51.0236C37.2233 51.1961 37.0837 51.3361 36.9112 51.3363C36.9111 51.3363 36.911 51.3363 36.9108 51.3363Z" fill="#2E3349"/>
<g opacity="0.35">
<path opacity="0.35" d="M35.9705 55C55.8365 55 71.9411 54.1898 71.9411 53.1903C71.9411 52.1908 55.8365 51.3806 35.9705 51.3806C16.1046 51.3806 0 52.1908 0 53.1903C0 54.1898 16.1046 55 35.9705 55Z" fill="#2E3349"/>
</g>
<path d="M64.5613 51.0899C64.5613 51.4677 64.4084 51.8112 64.1606 52.0589C63.9129 52.3066 63.5695 52.4596 63.1916 52.4596H8.75061C7.9939 52.4596 7.38086 51.8466 7.38086 51.0899C7.38086 50.712 7.53385 50.3696 7.78157 50.1219C8.03032 49.8742 8.37171 49.7212 8.75059 49.7212H63.1916C63.9483 49.7212 64.5613 50.3342 64.5613 51.0899Z" fill="#FF8A30"/>
<g opacity="0.35">
<path opacity="0.35" d="M64.5607 51.0899C64.5607 51.4677 64.4077 51.8112 64.16 52.0589C63.9123 52.3066 63.5688 52.4596 63.191 52.4596H23.3467C25.7514 52.3853 28.4394 51.838 30.9052 51.7565C43.0428 51.3553 54.8012 51.352 57.7183 50.9671C58.6675 50.8422 59.2972 50.38 59.6958 49.7212H63.191C63.9477 49.7212 64.5607 50.3342 64.5607 51.0899Z" fill="#2E3349"/>
</g>
<g opacity="0.75">
<path opacity="0.75" d="M64.5214 50.6281C64.2816 50.4183 63.9651 50.29 63.6211 50.29H9.17861C8.80102 50.29 8.45812 50.4435 8.20997 50.6904C7.96301 50.9386 7.80956 51.2802 7.80956 51.659C7.80956 51.8221 7.83831 51.978 7.88986 52.1218C7.60215 51.8713 7.41992 51.502 7.41992 51.0896C7.41992 50.712 7.57338 50.3691 7.82034 50.121C8.06849 49.874 8.41015 49.7206 8.78897 49.7206H63.2315C63.8249 49.7206 64.3308 50.0994 64.5214 50.6281Z" fill="white"/>
</g>
<path d="M63.191 52.7531H8.74937C7.76487 52.7531 6.96387 51.9521 6.96387 50.9676C6.96387 49.983 7.76487 49.182 8.74937 49.182H63.1911C64.1756 49.182 64.9766 49.983 64.9766 50.9676C64.9765 51.9521 64.1755 52.7531 63.191 52.7531ZM8.74937 50.0147C8.22393 50.0147 7.79653 50.4421 7.79653 50.9676C7.79653 51.493 8.22396 51.9205 8.74937 51.9205H63.1911C63.7165 51.9205 64.1439 51.493 64.1439 50.9676C64.1439 50.4421 63.7165 50.0147 63.1911 50.0147H8.74937Z" fill="#2E3349"/>
<path d="M2.83938 52.2154C4.21982 52.0268 5.60028 51.9817 6.98072 51.9585C7.67098 51.9458 8.36119 51.9432 9.05142 51.9465C9.74165 51.9456 10.4319 51.9542 11.1221 51.9604C12.5025 51.9715 13.883 51.9743 15.2634 51.9726H19.4048H35.9701H52.5356H60.8182L62.8889 51.9719L63.9242 51.9632L64.9596 51.9481C66.34 51.9438 67.7205 51.9547 69.1009 52.2155C69.1679 52.2281 69.2121 52.2927 69.1994 52.3598C69.1897 52.4112 69.1493 52.4491 69.1009 52.4583C67.7205 52.719 66.34 52.7299 64.9596 52.7257L63.9242 52.7106L62.8889 52.7019L60.8182 52.7012H52.5356H35.9701H19.4048H15.2634C13.883 52.6994 12.5025 52.7022 11.1221 52.7133C10.4319 52.7195 9.74163 52.7281 9.0514 52.7272C8.36116 52.7305 7.67096 52.728 6.9807 52.7152C5.60026 52.6921 4.2198 52.6469 2.83935 52.4584C2.77228 52.4491 2.72534 52.3874 2.73455 52.3203C2.74219 52.2645 2.78623 52.2227 2.83938 52.2154Z" fill="#2E3349"/>
<path d="M30.4034 49.4827H13.6664C12.8553 49.4827 12.2404 48.5892 12.3659 47.6025C13.0991 41.8398 17.1489 37.4316 22.0349 37.4316C26.921 37.4316 30.9707 41.8399 31.7039 47.6025C31.8295 48.5892 31.2146 49.4827 30.4034 49.4827Z" fill="#F8BF71"/>
<path d="M30.4038 49.7949H13.6668C13.2445 49.7949 12.8452 49.6056 12.5425 49.2619C12.1584 48.8259 11.9767 48.1907 12.0566 47.5631C12.4219 44.6916 13.6151 42.0561 15.4162 40.1421C17.2503 38.1928 19.601 37.1194 22.0353 37.1194C24.4696 37.1194 26.8203 38.1928 28.6545 40.1421C30.4555 42.0561 31.6487 44.6916 32.014 47.563C32.094 48.1907 31.9122 48.8258 31.5281 49.2619C31.2253 49.6056 30.8261 49.7949 30.4038 49.7949ZM22.0353 37.7439C17.3419 37.7439 13.4058 41.9066 12.676 47.6419C12.6185 48.0943 12.7438 48.5456 13.0111 48.8491C13.1401 48.9957 13.3587 49.1704 13.6668 49.1704H30.4038C30.7117 49.1704 30.9303 48.9956 31.0594 48.8491C31.3268 48.5456 31.4521 48.0943 31.3946 47.6418C30.6648 41.9066 26.7287 37.7439 22.0353 37.7439Z" fill="#611940"/>
<g opacity="0.16">
<path opacity="0.16" d="M30.4034 49.4827H13.6664C12.8553 49.4827 12.2404 48.5892 12.3659 47.6025C13.0991 41.8398 17.1489 37.4316 22.0349 37.4316C26.921 37.4316 30.9707 41.8399 31.7039 47.6025C31.8295 48.5892 31.2146 49.4827 30.4034 49.4827Z" fill="#6B184E"/>
<path opacity="0.16" d="M30.4038 49.7949H13.6668C13.2445 49.7949 12.8452 49.6056 12.5425 49.2619C12.1584 48.8259 11.9767 48.1907 12.0566 47.5631C12.4219 44.6916 13.6151 42.0561 15.4162 40.1421C17.2503 38.1928 19.601 37.1194 22.0353 37.1194C24.4696 37.1194 26.8203 38.1928 28.6545 40.1421C30.4555 42.0561 31.6487 44.6916 32.014 47.563C32.094 48.1907 31.9122 48.8258 31.5281 49.2619C31.2253 49.6056 30.8261 49.7949 30.4038 49.7949ZM22.0353 37.7439C17.3419 37.7439 13.4058 41.9066 12.676 47.6419C12.6185 48.0943 12.7438 48.5456 13.0111 48.8491C13.1401 48.9957 13.3587 49.1704 13.6668 49.1704H30.4038C30.7117 49.1704 30.9303 48.9956 31.0594 48.8491C31.3268 48.5456 31.4521 48.0943 31.3946 47.6418C30.6648 41.9066 26.7287 37.7439 22.0353 37.7439Z" fill="#611940"/>
</g>
<path d="M30.4038 49.7949H13.6668C13.2445 49.7949 12.8452 49.6056 12.5425 49.2619C12.1584 48.8259 11.9767 48.1907 12.0566 47.5631C12.4219 44.6916 13.6151 42.0561 15.4162 40.1421C17.2503 38.1928 19.601 37.1194 22.0353 37.1194C24.4696 37.1194 26.8203 38.1928 28.6545 40.1421C30.4555 42.0561 31.6487 44.6916 32.014 47.563C32.094 48.1907 31.9122 48.8258 31.5281 49.2619C31.2253 49.6056 30.8261 49.7949 30.4038 49.7949ZM22.0353 37.7439C17.3419 37.7439 13.4058 41.9066 12.676 47.6419C12.6185 48.0943 12.7438 48.5456 13.0111 48.8491C13.1401 48.9957 13.3587 49.1704 13.6668 49.1704H30.4038C30.7117 49.1704 30.9303 48.9956 31.0594 48.8491C31.3268 48.5456 31.4521 48.0943 31.3946 47.6418C30.6648 41.9066 26.7287 37.7439 22.0353 37.7439Z" fill="#2E3349"/>
<path d="M23.8749 39.01C25.0668 39.01 26.033 38.0437 26.033 36.8518C26.033 35.6599 25.0668 34.6937 23.8749 34.6937C22.683 34.6937 21.7168 35.6599 21.7168 36.8518C21.7168 38.0437 22.683 39.01 23.8749 39.01Z" fill="#EC1C24"/>
<g opacity="0.65">
<path opacity="0.65" d="M25.9879 37.2947C25.9865 37.2142 25.9809 37.1332 25.9704 37.0513C25.8186 35.8693 24.7369 35.0339 23.5549 35.1857C22.6188 35.3059 21.9004 36.009 21.7171 36.8833C21.6999 35.7996 22.5001 34.8526 23.6001 34.7113C24.7821 34.5595 25.8638 35.3949 26.0156 36.5769C26.0472 36.8228 26.0358 37.0646 25.9879 37.2947Z" fill="white"/>
</g>
<path d="M23.8731 39.3224C22.6499 39.3224 21.5845 38.4113 21.4246 37.1666C21.251 35.8155 22.2091 34.5751 23.5601 34.4016C24.9104 34.2277 26.1514 35.186 26.325 36.5371C26.4986 37.8882 25.5405 39.1286 24.1895 39.3021C24.0833 39.3157 23.9776 39.3224 23.8731 39.3224ZM23.876 35.0058C23.7979 35.0058 23.7191 35.0108 23.6397 35.021C22.6301 35.1506 21.9144 36.0774 22.044 37.087C22.1738 38.0965 23.1015 38.8123 24.11 38.6827C25.1195 38.553 25.8353 37.6262 25.7056 36.6167C25.5861 35.6867 24.7899 35.0058 23.876 35.0058Z" fill="#2E3349"/>
<path d="M20.9115 41.6665L18.1448 41.0471C17.6249 40.9307 17.2977 40.4149 17.4141 39.8949L18.1855 36.4494C18.3019 35.9294 18.8178 35.6023 19.3377 35.7187L22.1044 36.3381C22.6243 36.4545 22.9515 36.9704 22.8351 37.4903L22.0637 40.9358C21.9473 41.4558 21.4315 41.7829 20.9115 41.6665Z" fill="#FEBF06"/>
<g opacity="0.65">
<path opacity="0.65" d="M19.8269 35.8283C19.3076 35.7131 18.7931 36.0403 18.6768 36.5595L17.9053 40.0048C17.7887 40.5248 18.1159 41.041 18.6362 41.1569L18.1449 41.0469C17.6252 40.9308 17.2979 40.4146 17.414 39.8948L18.1855 36.4495C18.3021 35.9296 18.8178 35.6025 19.3376 35.7186L19.8269 35.8283Z" fill="white"/>
</g>
<path d="M21.1249 42.0025C21.0312 42.0025 20.937 41.9921 20.8434 41.9712L18.0767 41.3519C17.7438 41.2773 17.4599 41.0777 17.2772 40.7896C17.0945 40.5015 17.0349 40.1596 17.1094 39.8267L17.8808 36.3812C18.0346 35.694 18.7185 35.2599 19.406 35.414L22.1727 36.0334C22.5056 36.1079 22.7894 36.3076 22.9721 36.5957C23.1548 36.8837 23.2144 37.2257 23.1399 37.5586L22.3685 41.0041C22.2939 41.337 22.0942 41.6209 21.8062 41.8035C21.5991 41.9348 21.3642 42.0025 21.1249 42.0025ZM19.1258 36.0074C19.0034 36.0074 18.8834 36.042 18.7776 36.1091C18.6303 36.2024 18.5283 36.3475 18.4903 36.5176L17.7189 39.9632C17.6808 40.1332 17.7113 40.308 17.8047 40.4551C17.8979 40.6023 18.043 40.7044 18.2132 40.7425L20.9799 41.3618C21.1501 41.3999 21.3247 41.3694 21.4718 41.2761C21.619 41.1828 21.721 41.0377 21.7591 40.8676L22.5304 37.4221C22.5686 37.252 22.5381 37.0773 22.4448 36.9301C22.3514 36.7829 22.2064 36.6809 22.0363 36.6428L19.2696 36.0234C19.2217 36.0127 19.1736 36.0074 19.1258 36.0074Z" fill="#611940"/>
<path d="M21.1249 42.0025C21.0312 42.0025 20.937 41.9921 20.8434 41.9712L18.0767 41.3519C17.7438 41.2773 17.4599 41.0777 17.2772 40.7896C17.0945 40.5015 17.0349 40.1596 17.1094 39.8267L17.8808 36.3812C18.0346 35.694 18.7185 35.2599 19.406 35.414L22.1727 36.0334C22.5056 36.1079 22.7894 36.3076 22.9721 36.5957C23.1548 36.8837 23.2144 37.2257 23.1399 37.5586L22.3685 41.0041C22.2939 41.337 22.0942 41.6209 21.8062 41.8035C21.5991 41.9348 21.3642 42.0025 21.1249 42.0025ZM19.1258 36.0074C19.0034 36.0074 18.8834 36.042 18.7776 36.1091C18.6303 36.2024 18.5283 36.3475 18.4903 36.5176L17.7189 39.9632C17.6808 40.1332 17.7113 40.308 17.8047 40.4551C17.8979 40.6023 18.043 40.7044 18.2132 40.7425L20.9799 41.3618C21.1501 41.3999 21.3247 41.3694 21.4718 41.2761C21.619 41.1828 21.721 41.0377 21.7591 40.8676L22.5304 37.4221C22.5686 37.252 22.5381 37.0773 22.4448 36.9301C22.3514 36.7829 22.2064 36.6809 22.0363 36.6428L19.2696 36.0234C19.2217 36.0127 19.1736 36.0074 19.1258 36.0074Z" fill="#2E3349"/>
<path d="M15.5125 43.8065C14.9742 43.5763 14.1622 43.9332 14.1048 44.6615C13.8894 44.5726 13.6241 44.6206 13.4534 44.7794C13.2828 44.9381 13.2158 45.1993 13.289 45.4206C10.1555 45.6778 10.7177 49.469 13.4748 49.469L15.6435 49.4735L17.8119 47.2439L17.6245 43.5544L15.5125 43.8065Z" fill="#C3522B"/>
<g opacity="0.25">
<path opacity="0.25" d="M17.7861 44.4611C17.762 44.1553 17.6999 43.8609 17.6035 43.5819L17.7406 43.5653L17.7861 44.4611Z" fill="#6B184E"/>
<path opacity="0.25" d="M17.7856 44.7733C17.624 44.7733 17.4876 44.649 17.4747 44.4856C17.453 44.2104 17.397 43.9407 17.3082 43.684C17.2773 43.5948 17.2885 43.4965 17.3386 43.4164C17.3885 43.3364 17.4721 43.2833 17.5657 43.2719L17.7028 43.2554C17.7883 43.2452 17.8753 43.2707 17.9414 43.3265C18.0077 43.3822 18.0478 43.463 18.0522 43.5495L18.0978 44.4452C18.1065 44.6157 17.9765 44.7616 17.8061 44.7726C17.7993 44.7731 17.7924 44.7733 17.7856 44.7733Z" fill="#611940"/>
</g>
<g opacity="0.35">
<path opacity="0.35" d="M17.6946 47.2548L15.6023 49.4842L13.5094 49.4799C11.8857 49.4799 11.0513 48.0675 11.3349 46.9083C11.9668 47.7789 12.9721 48.3411 14.1041 48.3411C16.0177 48.3411 17.5691 46.7333 17.5691 44.7496C17.5691 44.7249 17.5691 44.7008 17.5681 44.6768L17.6946 47.2548Z" fill="#2E3349"/>
</g>
<g opacity="0.65">
<path opacity="0.65" d="M15.7576 43.837C15.7191 43.9044 15.6795 43.974 15.6404 44.0431C15.204 44.019 14.7184 44.284 14.5733 44.7552C14.5412 44.859 14.4438 44.927 14.3345 44.9222C14.1701 44.9147 14.0026 44.9715 13.8821 45.0834C13.7616 45.1953 13.6931 45.358 13.6883 45.5219C13.6851 45.637 13.6021 45.7339 13.488 45.7505C11.2409 46.0787 11.1183 48.3521 12.4558 49.3286C10.6327 48.5427 10.5915 45.7018 13.2889 45.4806C13.216 45.259 13.283 44.9982 13.4538 44.8392C13.624 44.6807 13.8896 44.6326 14.1048 44.7214C14.1621 43.9933 14.9743 43.6362 15.5124 43.8664L15.7576 43.837Z" fill="white"/>
</g>
<path d="M15.6433 49.7856C15.643 49.7856 15.6428 49.7856 15.6427 49.7856L13.4739 49.7813C11.8341 49.7813 10.8998 48.5791 10.8534 47.448C10.8126 46.4523 11.4501 45.3926 12.9513 45.1472C12.9723 44.9229 13.0732 44.7064 13.2404 44.5507C13.4097 44.3933 13.6364 44.3081 13.8644 44.3052C13.9637 44.0292 14.1576 43.7929 14.4238 43.6319C14.7726 43.4209 15.1961 43.3684 15.5509 43.4874L17.5873 43.2443C17.6729 43.2343 17.7595 43.2599 17.8256 43.3157C17.8917 43.3714 17.9318 43.4521 17.9361 43.5386L18.1235 47.228C18.1279 47.3146 18.096 47.3993 18.0355 47.4615L15.8671 49.6911C15.8083 49.7516 15.7276 49.7856 15.6433 49.7856ZM13.8757 44.9293C13.799 44.9293 13.7206 44.957 13.6658 45.008C13.5841 45.0841 13.5501 45.2165 13.5851 45.3226C13.6151 45.4135 13.6019 45.5131 13.549 45.593C13.4961 45.6728 13.4096 45.7239 13.3142 45.7317C11.9121 45.8469 11.4484 46.7145 11.4774 47.4224C11.5127 48.2843 12.2101 49.1568 13.4745 49.1568L15.5116 49.1609L17.4929 47.1237L17.3294 43.9041L15.5492 44.1166C15.4951 44.1231 15.4397 44.1151 15.3894 44.0936C15.2037 44.014 14.9515 44.0426 14.747 44.1663C14.6332 44.2351 14.4388 44.3942 14.4158 44.686C14.408 44.7856 14.353 44.8754 14.2679 44.9277C14.1827 44.98 14.0779 44.9882 13.9854 44.9502C13.9513 44.9361 13.9137 44.9293 13.8757 44.9293Z" fill="#2E3349"/>
<path d="M16.8091 44.6114C18.4225 44.6114 19.7304 43.3035 19.7304 41.6901C19.7304 40.0766 18.4225 38.7687 16.8091 38.7687C15.1956 38.7687 13.8877 40.0766 13.8877 41.6901C13.8877 43.3035 15.1956 44.6114 16.8091 44.6114Z" fill="#D93440"/>
<path d="M16.8098 44.9237C15.0268 44.9237 13.5762 43.4731 13.5762 41.69C13.5762 39.907 15.0268 38.4564 16.8098 38.4564C18.5929 38.4564 20.0435 39.907 20.0435 41.69C20.0435 43.4731 18.5929 44.9237 16.8098 44.9237ZM16.8098 39.0809C15.3711 39.0809 14.2008 40.2514 14.2008 41.69C14.2008 43.1288 15.3711 44.2992 16.8098 44.2992C18.2486 44.2992 19.4189 43.1288 19.4189 41.69C19.4189 40.2514 18.2486 39.0809 16.8098 39.0809Z" fill="#611940"/>
<path d="M16.81 44.6114C18.4235 44.6114 19.7314 43.3035 19.7314 41.6901C19.7314 40.0766 18.4235 38.7687 16.81 38.7687C15.1966 38.7687 13.8887 40.0766 13.8887 41.6901C13.8887 43.3035 15.1966 44.6114 16.81 44.6114Z" fill="#EC1C24"/>
<g opacity="0.25">
<path opacity="0.25" d="M19.7311 41.6902C19.7311 43.3034 18.4231 44.6115 16.8099 44.6115C15.1967 44.6115 13.8887 43.3034 13.8887 41.6902C13.8887 41.3808 13.9369 41.082 14.0263 40.802C14.3936 41.996 15.5051 42.8639 16.819 42.8639C18.1227 42.8639 19.2267 42.0104 19.6031 40.8315C19.6861 41.1029 19.7311 41.3915 19.7311 41.6902Z" fill="#611940"/>
</g>
<g opacity="0.65">
<path opacity="0.65" d="M19.5694 42.649C19.5816 42.5407 19.588 42.431 19.588 42.3191C19.588 40.7059 18.2798 39.3977 16.6666 39.3977C15.389 39.3977 14.3031 40.2179 13.9062 41.36C14.0701 39.9022 15.3078 38.7686 16.8091 38.7686C18.4223 38.7686 19.7305 40.0768 19.7305 41.6899C19.7305 42.0256 19.6735 42.3484 19.5694 42.649Z" fill="white"/>
</g>
<path d="M16.8098 44.9237C15.0268 44.9237 13.5762 43.4731 13.5762 41.69C13.5762 39.907 15.0268 38.4564 16.8098 38.4564C18.5929 38.4564 20.0435 39.907 20.0435 41.69C20.0435 43.4731 18.5929 44.9237 16.8098 44.9237ZM16.8098 39.0809C15.3711 39.0809 14.2008 40.2514 14.2008 41.69C14.2008 43.1288 15.3711 44.2992 16.8098 44.2992C18.2486 44.2992 19.4189 43.1288 19.4189 41.69C19.4189 40.2514 18.2486 39.0809 16.8098 39.0809Z" fill="#2E3349"/>
<g opacity="0.3">
<path opacity="0.3" d="M12.9667 48.3094C13.109 48.3094 13.2243 48.2315 13.2243 48.1355C13.2243 48.0394 13.109 47.9615 12.9667 47.9615C12.8244 47.9615 12.709 48.0394 12.709 48.1355C12.709 48.2315 12.8244 48.3094 12.9667 48.3094Z" fill="#611940"/>
</g>
<g opacity="0.3">
<path opacity="0.3" d="M13.4973 46.7271C13.5437 46.7271 13.5814 46.6894 13.5814 46.6429C13.5814 46.5964 13.5437 46.5587 13.4973 46.5587C13.4508 46.5587 13.4131 46.5964 13.4131 46.6429C13.4131 46.6894 13.4508 46.7271 13.4973 46.7271Z" fill="#611940"/>
</g>
<g opacity="0.3">
<path opacity="0.3" d="M15.3873 45.0165C15.4167 45.0165 15.4406 44.9926 15.4406 44.9632C15.4406 44.9338 15.4167 44.9099 15.3873 44.9099C15.3578 44.9099 15.334 44.9338 15.334 44.9632C15.334 44.9926 15.3578 45.0165 15.3873 45.0165Z" fill="#611940"/>
</g>
<g opacity="0.3">
<path opacity="0.3" d="M14.1529 47.5961C14.1823 47.5961 14.2062 47.5722 14.2062 47.5428C14.2062 47.5134 14.1823 47.4895 14.1529 47.4895C14.1235 47.4895 14.0996 47.5134 14.0996 47.5428C14.0996 47.5722 14.1235 47.5961 14.1529 47.5961Z" fill="#611940"/>
</g>
<g opacity="0.3">
<path opacity="0.3" d="M15.0587 46.5629C15.1984 46.5629 15.3117 46.4631 15.3117 46.34C15.3117 46.2169 15.1984 46.1171 15.0587 46.1171C14.919 46.1171 14.8057 46.2169 14.8057 46.34C14.8057 46.4631 14.919 46.5629 15.0587 46.5629Z" fill="#611940"/>
</g>
<g opacity="0.3">
<path opacity="0.3" d="M15.1392 48.3411C15.2037 48.3411 15.256 48.295 15.256 48.2382C15.256 48.1814 15.2037 48.1354 15.1392 48.1354C15.0747 48.1354 15.0225 48.1814 15.0225 48.2382C15.0225 48.295 15.0747 48.3411 15.1392 48.3411Z" fill="#611940"/>
</g>
<g opacity="0.3">
<path opacity="0.3" d="M16.3794 47.3828C16.4552 47.3828 16.5166 47.3287 16.5166 47.2619C16.5166 47.1951 16.4552 47.141 16.3794 47.141C16.3036 47.141 16.2422 47.1951 16.2422 47.2619C16.2422 47.3287 16.3036 47.3828 16.3794 47.3828Z" fill="#611940"/>
</g>
<g opacity="0.3">
<path opacity="0.3" d="M16.7963 45.6448C16.8532 45.6448 16.8993 45.6042 16.8993 45.5541C16.8993 45.504 16.8532 45.4634 16.7963 45.4634C16.7395 45.4634 16.6934 45.504 16.6934 45.5541C16.6934 45.6042 16.7395 45.6448 16.7963 45.6448Z" fill="#6B184E"/>
<path opacity="0.3" d="M16.7961 45.9571C16.5672 45.9571 16.3809 45.7763 16.3809 45.5541C16.3809 45.3319 16.5672 45.1511 16.7961 45.1511C17.0252 45.1511 17.2115 45.3319 17.2115 45.5541C17.2115 45.7763 17.0252 45.9571 16.7961 45.9571ZM16.7961 45.3326C16.6808 45.3326 16.5869 45.432 16.5869 45.5541C16.5869 45.6763 16.6808 45.7756 16.7961 45.7756C16.9115 45.7756 17.0055 45.6763 17.0055 45.5541C17.0055 45.432 16.9115 45.3326 16.7961 45.3326Z" fill="#611940"/>
</g>
<g opacity="0.25">
<path opacity="0.25" d="M17.7968 44.6768L17.7861 44.4611C17.792 44.5322 17.7958 44.604 17.7968 44.6768Z" fill="#6B184E"/>
<path opacity="0.25" d="M17.7964 44.9891C17.6306 44.9891 17.4928 44.8589 17.4846 44.6922L17.474 44.4764C17.4656 44.3062 17.5953 44.1607 17.7653 44.1494C17.9361 44.1399 18.0829 44.2655 18.0971 44.4352C18.1036 44.515 18.1076 44.5947 18.1087 44.6723C18.1112 44.8426 17.9767 44.9834 17.8064 44.9889C17.8031 44.989 17.7997 44.9891 17.7964 44.9891Z" fill="#611940"/>
</g>
<path d="M33.6792 40.6476C33.7297 41.1781 33.0609 41.6577 32.9511 42.1512C32.8372 42.6626 33.2334 43.3802 32.9721 43.8218C32.7083 44.2678 31.8865 44.2661 31.4983 44.6093C31.1139 44.9492 31.0155 45.7663 30.5347 45.9747C30.0708 46.1757 29.4098 45.6938 28.8793 45.7442C28.3487 45.7948 27.7905 46.3927 27.2969 46.2829C26.7855 46.169 26.5347 45.3851 26.0931 45.1238C25.6471 44.86 24.8403 45.0167 24.4971 44.6285C24.1572 44.2442 24.4109 43.4648 24.2026 42.984C24.0016 42.5201 23.2544 42.1753 23.2039 41.6448C23.1534 41.1143 23.8221 40.6347 23.932 40.1412C24.0458 39.6298 23.6496 38.9122 23.9109 38.4706C24.1747 38.0246 24.9966 38.0264 25.3848 37.6831C25.7691 37.3433 25.8675 36.5261 26.3483 36.3177C26.8122 36.1167 27.4733 36.5987 28.0038 36.5482C28.5343 36.4977 29.0926 35.8997 29.5861 36.0095C30.0976 36.1234 30.3484 36.9073 30.7899 37.1686C31.2359 37.4324 32.0427 37.2757 32.3859 37.6639C32.7258 38.0482 32.4721 38.8277 32.6804 39.3084C32.8814 39.7723 33.6286 40.1171 33.6792 40.6476Z" fill="#71A78D"/>
<path d="M27.4222 46.6085C27.3587 46.6085 27.2946 46.602 27.2299 46.5877C26.8257 46.4976 26.5705 46.1511 26.3454 45.8454C26.2107 45.6625 26.0713 45.4733 25.935 45.3925C25.7953 45.3099 25.5598 45.2785 25.3322 45.2481C24.9585 45.1982 24.5348 45.1416 24.2641 44.8353C23.9958 44.532 23.9915 44.1069 23.9877 43.7318C23.9854 43.5002 23.983 43.2607 23.917 43.1081C23.8559 42.9674 23.6881 42.8084 23.5259 42.6546C23.2484 42.3916 22.9339 42.0936 22.8938 41.6744C22.8539 41.2551 23.1066 40.903 23.3295 40.5924C23.4599 40.4108 23.5947 40.223 23.628 40.0734C23.6642 39.911 23.6213 39.6753 23.5799 39.4474C23.5129 39.0784 23.4369 38.6601 23.643 38.3116C23.8512 37.9597 24.2565 37.8243 24.6142 37.7047C24.832 37.6319 25.0573 37.5566 25.1788 37.4491C25.2976 37.3441 25.3987 37.1321 25.4964 36.9271C25.6598 36.5843 25.845 36.1958 26.2251 36.0312C26.5907 35.8729 26.9925 35.9988 27.347 36.1102C27.5713 36.1807 27.803 36.2536 27.9751 36.2373C28.1465 36.2209 28.3608 36.1056 28.5679 35.994C28.895 35.8178 29.2656 35.6182 29.6548 35.7047C30.0591 35.7947 30.3143 36.1412 30.5393 36.447C30.674 36.6299 30.8134 36.8191 30.9498 36.8998C31.0894 36.9825 31.3249 37.0139 31.5526 37.0443C31.9263 37.0942 32.35 37.1507 32.6207 37.4569C32.889 37.7604 32.8933 38.1855 32.897 38.5606C32.8994 38.7922 32.9017 39.0317 32.9679 39.1843C33.0288 39.3249 33.1965 39.4839 33.3588 39.6376C33.6363 39.9006 33.951 40.1987 33.9909 40.6179C34.0308 41.0372 33.7781 41.3893 33.5552 41.7C33.4248 41.8816 33.29 42.0693 33.2567 42.2189C33.2207 42.3812 33.2634 42.6168 33.3049 42.8447C33.3719 43.2138 33.4479 43.6321 33.2417 43.9807C33.0336 44.3325 32.6283 44.468 32.2708 44.5876C32.0529 44.6604 31.8277 44.7357 31.7061 44.8432C31.5872 44.9482 31.4861 45.1603 31.3883 45.3654C31.2249 45.7081 31.0398 46.0965 30.6597 46.2611C30.2941 46.4197 29.8922 46.2934 29.5379 46.1821C29.3133 46.1116 29.081 46.039 28.9097 46.055C28.7381 46.0714 28.524 46.1867 28.3168 46.2983C28.0441 46.4453 27.741 46.6085 27.4222 46.6085ZM26.6078 36.5807C26.5569 36.5807 26.5114 36.5878 26.4733 36.6042C26.308 36.6758 26.182 36.9402 26.0601 37.1958C25.9354 37.4573 25.8065 37.7277 25.5925 37.917C25.3758 38.1087 25.0892 38.2044 24.8121 38.297C24.5457 38.3861 24.2701 38.4782 24.1805 38.6296C24.0929 38.7777 24.1445 39.0613 24.1943 39.3357C24.2469 39.6248 24.3012 39.9236 24.2375 40.2091C24.1766 40.4833 24.0039 40.7238 23.837 40.9565C23.6703 41.1888 23.4978 41.429 23.5156 41.6151C23.5333 41.8013 23.7479 42.0047 23.9554 42.2013C24.1634 42.3983 24.3783 42.6019 24.49 42.8598C24.6063 43.1281 24.6092 43.4318 24.6122 43.7255C24.615 44.0044 24.6179 44.2927 24.7319 44.4216C24.8484 44.5534 25.1364 44.5918 25.4148 44.629C25.7045 44.6677 26.0038 44.7077 26.2529 44.855C26.4987 45.0005 26.6764 45.2417 26.8482 45.475C27.0161 45.7031 27.1898 45.9389 27.3656 45.978C27.5266 46.0145 27.7782 45.8791 28.0205 45.7485C28.2824 45.6075 28.5532 45.4617 28.8505 45.4334C29.1477 45.4044 29.4411 45.4972 29.7249 45.5863C29.9875 45.6688 30.2588 45.7543 30.4114 45.6881C30.5766 45.6165 30.7027 45.3522 30.8245 45.0966C30.9492 44.835 31.0782 44.5646 31.2924 44.3753C31.509 44.1836 31.7956 44.0879 32.0727 43.9952C32.3391 43.9061 32.6147 43.8141 32.7042 43.6627C32.7918 43.5146 32.7403 43.2308 32.6904 42.9564C32.6378 42.6675 32.5836 42.3687 32.6471 42.0833C32.7081 41.809 32.8808 41.5685 33.0477 41.3358C33.2144 41.1035 33.3869 40.8633 33.3691 40.6772C33.3691 40.6772 33.3691 40.6772 33.3691 40.6771C33.3513 40.491 33.1368 40.2876 32.9292 40.0909C32.7213 39.894 32.5064 39.6904 32.3947 39.4325C32.2785 39.1642 32.2755 38.8606 32.2725 38.5668C32.2697 38.2879 32.2669 37.9996 32.1529 37.8706C32.0364 37.7389 31.7484 37.7005 31.47 37.6633C31.1804 37.6246 30.8809 37.5847 30.6318 37.4373C30.386 37.2918 30.2083 37.0506 30.0365 36.8173C29.8686 36.5892 29.695 36.3534 29.5191 36.3143C29.3578 36.278 29.1064 36.4132 28.864 36.5438C28.6023 36.6848 28.3315 36.8307 28.0343 36.8589C27.7366 36.8872 27.4437 36.7951 27.1599 36.706C26.9629 36.6442 26.7607 36.5807 26.6078 36.5807Z" fill="#611940"/>
<path d="M27.4222 46.6085C27.3587 46.6085 27.2946 46.602 27.2299 46.5877C26.8257 46.4976 26.5705 46.1511 26.3454 45.8454C26.2107 45.6625 26.0713 45.4733 25.935 45.3925C25.7953 45.3099 25.5598 45.2785 25.3322 45.2481C24.9585 45.1982 24.5348 45.1416 24.2641 44.8353C23.9958 44.532 23.9915 44.1069 23.9877 43.7318C23.9854 43.5002 23.983 43.2607 23.917 43.1081C23.8559 42.9674 23.6881 42.8084 23.5259 42.6546C23.2484 42.3916 22.9339 42.0936 22.8938 41.6744C22.8539 41.2551 23.1066 40.903 23.3295 40.5924C23.4599 40.4108 23.5947 40.223 23.628 40.0734C23.6642 39.911 23.6213 39.6753 23.5799 39.4474C23.5129 39.0784 23.4369 38.6601 23.643 38.3116C23.8512 37.9597 24.2565 37.8243 24.6142 37.7047C24.832 37.6319 25.0573 37.5566 25.1788 37.4491C25.2976 37.3441 25.3987 37.1321 25.4964 36.9271C25.6598 36.5843 25.845 36.1958 26.2251 36.0312C26.5907 35.8729 26.9925 35.9988 27.347 36.1102C27.5713 36.1807 27.803 36.2536 27.9751 36.2373C28.1465 36.2209 28.3608 36.1056 28.5679 35.994C28.895 35.8178 29.2656 35.6182 29.6548 35.7047C30.0591 35.7947 30.3143 36.1412 30.5393 36.447C30.674 36.6299 30.8134 36.8191 30.9498 36.8998C31.0894 36.9825 31.3249 37.0139 31.5526 37.0443C31.9263 37.0942 32.35 37.1507 32.6207 37.4569C32.889 37.7604 32.8933 38.1855 32.897 38.5606C32.8994 38.7922 32.9017 39.0317 32.9679 39.1843C33.0288 39.3249 33.1965 39.4839 33.3588 39.6376C33.6363 39.9006 33.951 40.1987 33.9909 40.6179C34.0308 41.0372 33.7781 41.3893 33.5552 41.7C33.4248 41.8816 33.29 42.0693 33.2567 42.2189C33.2207 42.3812 33.2634 42.6168 33.3049 42.8447C33.3719 43.2138 33.4479 43.6321 33.2417 43.9807C33.0336 44.3325 32.6283 44.468 32.2708 44.5876C32.0529 44.6604 31.8277 44.7357 31.7061 44.8432C31.5872 44.9482 31.4861 45.1603 31.3883 45.3654C31.2249 45.7081 31.0398 46.0965 30.6597 46.2611C30.2941 46.4197 29.8922 46.2934 29.5379 46.1821C29.3133 46.1116 29.081 46.039 28.9097 46.055C28.7381 46.0714 28.524 46.1867 28.3168 46.2983C28.0441 46.4453 27.741 46.6085 27.4222 46.6085ZM26.6078 36.5807C26.5569 36.5807 26.5114 36.5878 26.4733 36.6042C26.308 36.6758 26.182 36.9402 26.0601 37.1958C25.9354 37.4573 25.8065 37.7277 25.5925 37.917C25.3758 38.1087 25.0892 38.2044 24.8121 38.297C24.5457 38.3861 24.2701 38.4782 24.1805 38.6296C24.0929 38.7777 24.1445 39.0613 24.1943 39.3357C24.2469 39.6248 24.3012 39.9236 24.2375 40.2091C24.1766 40.4833 24.0039 40.7238 23.837 40.9565C23.6703 41.1888 23.4978 41.429 23.5156 41.6151C23.5333 41.8013 23.7479 42.0047 23.9554 42.2013C24.1634 42.3983 24.3783 42.6019 24.49 42.8598C24.6063 43.1281 24.6092 43.4318 24.6122 43.7255C24.615 44.0044 24.6179 44.2927 24.7319 44.4216C24.8484 44.5534 25.1364 44.5918 25.4148 44.629C25.7045 44.6677 26.0038 44.7077 26.2529 44.855C26.4987 45.0005 26.6764 45.2417 26.8482 45.475C27.0161 45.7031 27.1898 45.9389 27.3656 45.978C27.5266 46.0145 27.7782 45.8791 28.0205 45.7485C28.2824 45.6075 28.5532 45.4617 28.8505 45.4334C29.1477 45.4044 29.4411 45.4972 29.7249 45.5863C29.9875 45.6688 30.2588 45.7543 30.4114 45.6881C30.5766 45.6165 30.7027 45.3522 30.8245 45.0966C30.9492 44.835 31.0782 44.5646 31.2924 44.3753C31.509 44.1836 31.7956 44.0879 32.0727 43.9952C32.3391 43.9061 32.6147 43.8141 32.7042 43.6627C32.7918 43.5146 32.7403 43.2308 32.6904 42.9564C32.6378 42.6675 32.5836 42.3687 32.6471 42.0833C32.7081 41.809 32.8808 41.5685 33.0477 41.3358C33.2144 41.1035 33.3869 40.8633 33.3691 40.6772C33.3691 40.6772 33.3691 40.6772 33.3691 40.6771C33.3513 40.491 33.1368 40.2876 32.9292 40.0909C32.7213 39.894 32.5064 39.6904 32.3947 39.4325C32.2785 39.1642 32.2755 38.8606 32.2725 38.5668C32.2697 38.2879 32.2669 37.9996 32.1529 37.8706C32.0364 37.7389 31.7484 37.7005 31.47 37.6633C31.1804 37.6246 30.8809 37.5847 30.6318 37.4373C30.386 37.2918 30.2083 37.0506 30.0365 36.8173C29.8686 36.5892 29.695 36.3534 29.5191 36.3143C29.3578 36.278 29.1064 36.4132 28.864 36.5438C28.6023 36.6848 28.3315 36.8307 28.0343 36.8589C27.7366 36.8872 27.4437 36.7951 27.1599 36.706C26.9629 36.6442 26.7607 36.5807 26.6078 36.5807Z" fill="#611940"/>
<path d="M33.6801 40.6475C33.7306 41.178 33.0619 41.6576 32.952 42.1511C32.8382 42.6625 33.2343 43.3801 32.9731 43.8217C32.7093 44.2677 31.8874 44.2659 31.4992 44.6092C31.1149 44.949 31.0165 45.7662 30.5357 45.9745C30.0718 46.1756 29.4107 45.6936 28.8802 45.7441C28.3497 45.7946 27.7914 46.3926 27.2979 46.2828C26.7864 46.1689 26.5356 45.385 26.0941 45.1237C25.6481 44.8599 24.8413 45.0166 24.4981 44.6284C24.1582 44.2441 24.4119 43.4646 24.2036 42.9838C24.0026 42.5199 23.2554 42.1752 23.2049 41.6447C23.1544 41.1142 23.8231 40.6346 23.9329 40.1411C24.0468 39.6296 23.6506 38.9121 23.9119 38.4705C24.1757 38.0245 24.9975 38.0262 25.3857 37.683C25.7701 37.3431 25.8685 36.526 26.3493 36.3176C26.8132 36.1166 27.4742 36.5985 28.0048 36.5481C28.5353 36.4975 29.0935 35.8996 29.5871 36.0094C30.0985 36.1233 30.3493 36.9072 30.7909 37.1685C31.2369 37.4323 32.0437 37.2756 32.3869 37.6638C32.7268 38.0481 32.4731 38.8275 32.6814 39.3083C32.8824 39.7722 33.6296 40.117 33.6801 40.6475Z" fill="#3CCE54"/>
<g opacity="0.65">
<path opacity="0.65" d="M33.5566 41.1297C33.4367 40.65 32.7631 40.3186 32.5736 39.8817C32.3653 39.4009 32.6191 38.6214 32.2791 38.2375C31.9359 37.8493 31.129 38.0056 30.6831 37.7422C30.2419 37.481 29.9908 36.6966 29.4795 36.5831C28.9858 36.4733 28.4274 37.0708 27.8968 37.1217C27.3667 37.172 26.7055 36.6901 26.2413 36.8909C25.761 37.0997 25.6625 37.9168 25.2781 38.2567C24.9012 38.5903 24.1141 38.5978 23.8282 39.0068C23.8089 38.8082 23.8207 38.623 23.9112 38.4704C24.1752 38.0244 24.997 38.026 25.3852 37.6828C25.7696 37.3433 25.8682 36.5257 26.3484 36.3175C26.8126 36.1167 27.4738 36.5986 28.0039 36.5483C28.5345 36.4974 29.0929 35.8993 29.5866 36.0096C30.0979 36.1231 30.349 36.907 30.7902 37.1683C31.2361 37.4322 32.0431 37.2753 32.3862 37.6635C32.7262 38.0479 32.4724 38.8275 32.6807 39.3083C32.882 39.7725 33.6289 40.1168 33.6792 40.6474C33.6953 40.8122 33.6412 40.9724 33.5566 41.1297Z" fill="white"/>
</g>
<path d="M27.4222 46.6085C27.3587 46.6085 27.2946 46.602 27.2299 46.5877C26.8257 46.4976 26.5705 46.1511 26.3454 45.8454C26.2107 45.6625 26.0713 45.4733 25.935 45.3925C25.7953 45.3099 25.5598 45.2785 25.3322 45.2481C24.9585 45.1982 24.5348 45.1416 24.2641 44.8353C23.9958 44.532 23.9915 44.1069 23.9877 43.7318C23.9854 43.5002 23.983 43.2607 23.917 43.1081C23.8559 42.9674 23.6881 42.8084 23.5259 42.6546C23.2484 42.3916 22.9339 42.0936 22.8938 41.6744C22.8539 41.2551 23.1066 40.903 23.3295 40.5924C23.4599 40.4108 23.5947 40.223 23.628 40.0734C23.6642 39.911 23.6213 39.6753 23.5799 39.4474C23.5129 39.0784 23.4369 38.6601 23.643 38.3116C23.8512 37.9597 24.2565 37.8243 24.6142 37.7047C24.832 37.6319 25.0573 37.5566 25.1788 37.4491C25.2976 37.3441 25.3987 37.1321 25.4964 36.9271C25.6598 36.5843 25.845 36.1958 26.2251 36.0312C26.5907 35.8729 26.9925 35.9988 27.347 36.1102C27.5713 36.1807 27.803 36.2536 27.9751 36.2373C28.1465 36.2209 28.3608 36.1056 28.5679 35.994C28.895 35.8178 29.2656 35.6182 29.6548 35.7047C30.0591 35.7947 30.3143 36.1412 30.5393 36.447C30.674 36.6299 30.8134 36.8191 30.9498 36.8998C31.0894 36.9825 31.3249 37.0139 31.5526 37.0443C31.9263 37.0942 32.35 37.1507 32.6207 37.4569C32.889 37.7604 32.8933 38.1855 32.897 38.5606C32.8994 38.7922 32.9017 39.0317 32.9679 39.1843C33.0288 39.3249 33.1965 39.4839 33.3588 39.6376C33.6363 39.9006 33.951 40.1987 33.9909 40.6179C34.0308 41.0372 33.7781 41.3893 33.5552 41.7C33.4248 41.8816 33.29 42.0693 33.2567 42.2189C33.2207 42.3812 33.2634 42.6168 33.3049 42.8447C33.3719 43.2138 33.4479 43.6321 33.2417 43.9807C33.0336 44.3325 32.6283 44.468 32.2708 44.5876C32.0529 44.6604 31.8277 44.7357 31.7061 44.8432C31.5872 44.9482 31.4861 45.1603 31.3883 45.3654C31.2249 45.7081 31.0398 46.0965 30.6597 46.2611C30.2941 46.4197 29.8922 46.2934 29.5379 46.1821C29.3133 46.1116 29.081 46.039 28.9097 46.055C28.7381 46.0714 28.524 46.1867 28.3168 46.2983C28.0441 46.4453 27.741 46.6085 27.4222 46.6085ZM26.6078 36.5807C26.5569 36.5807 26.5114 36.5878 26.4733 36.6042C26.308 36.6758 26.182 36.9402 26.0601 37.1958C25.9354 37.4573 25.8065 37.7277 25.5925 37.917C25.3758 38.1087 25.0892 38.2044 24.8121 38.297C24.5457 38.3861 24.2701 38.4782 24.1805 38.6296C24.0929 38.7777 24.1445 39.0613 24.1943 39.3357C24.2469 39.6248 24.3012 39.9236 24.2375 40.2091C24.1766 40.4833 24.0039 40.7238 23.837 40.9565C23.6703 41.1888 23.4978 41.429 23.5156 41.6151C23.5333 41.8013 23.7479 42.0047 23.9554 42.2013C24.1634 42.3983 24.3783 42.6019 24.49 42.8598C24.6063 43.1281 24.6092 43.4318 24.6122 43.7255C24.615 44.0044 24.6179 44.2927 24.7319 44.4216C24.8484 44.5534 25.1364 44.5918 25.4148 44.629C25.7045 44.6677 26.0038 44.7077 26.2529 44.855C26.4987 45.0005 26.6764 45.2417 26.8482 45.475C27.0161 45.7031 27.1898 45.9389 27.3656 45.978C27.5266 46.0145 27.7782 45.8791 28.0205 45.7485C28.2824 45.6075 28.5532 45.4617 28.8505 45.4334C29.1477 45.4044 29.4411 45.4972 29.7249 45.5863C29.9875 45.6688 30.2588 45.7543 30.4114 45.6881C30.5766 45.6165 30.7027 45.3522 30.8245 45.0966C30.9492 44.835 31.0782 44.5646 31.2924 44.3753C31.509 44.1836 31.7956 44.0879 32.0727 43.9952C32.3391 43.9061 32.6147 43.8141 32.7042 43.6627C32.7918 43.5146 32.7403 43.2308 32.6904 42.9564C32.6378 42.6675 32.5836 42.3687 32.6471 42.0833C32.7081 41.809 32.8808 41.5685 33.0477 41.3358C33.2144 41.1035 33.3869 40.8633 33.3691 40.6772C33.3691 40.6772 33.3691 40.6772 33.3691 40.6771C33.3513 40.491 33.1368 40.2876 32.9292 40.0909C32.7213 39.894 32.5064 39.6904 32.3947 39.4325C32.2785 39.1642 32.2755 38.8606 32.2725 38.5668C32.2697 38.2879 32.2669 37.9996 32.1529 37.8706C32.0364 37.7389 31.7484 37.7005 31.47 37.6633C31.1804 37.6246 30.8809 37.5847 30.6318 37.4373C30.386 37.2918 30.2083 37.0506 30.0365 36.8173C29.8686 36.5892 29.695 36.3534 29.5191 36.3143C29.3578 36.278 29.1064 36.4132 28.864 36.5438C28.6023 36.6848 28.3315 36.8307 28.0343 36.8589C27.7366 36.8872 27.4437 36.7951 27.1599 36.706C26.9629 36.6442 26.7607 36.5807 26.6078 36.5807Z" fill="#2E3349"/>
<path d="M15.6069 44.6151C15.8025 45.1108 16.616 45.2349 16.9377 45.6249C17.2712 46.0291 17.2435 46.8483 17.6766 47.1234C18.114 47.4012 18.8457 47.027 19.3473 47.1569C19.844 47.2854 20.3023 47.9691 20.8253 47.9367C21.3299 47.9055 21.7005 47.1762 22.1962 46.9806C22.692 46.785 23.4607 47.0648 23.8507 46.743C24.2549 46.4096 24.123 45.5972 24.398 45.1641C24.6759 44.7267 25.4659 44.5005 25.5958 43.9988C25.7244 43.5021 25.1448 42.9225 25.1124 42.3995C25.0812 41.8949 25.5908 41.2488 25.3952 40.7531C25.1996 40.2573 24.3861 40.1332 24.0644 39.7432C23.7309 39.339 23.7586 38.5198 23.3255 38.2448C22.8881 37.9669 22.1564 38.3412 21.6547 38.2113C21.1581 38.0827 20.6998 37.399 20.1768 37.4314C19.6722 37.4627 19.3016 38.192 18.8059 38.3876C18.3101 38.5832 17.5413 38.3034 17.1514 38.6251C16.7471 38.9586 16.8791 39.771 16.6041 40.2041C16.3262 40.6415 15.5362 40.8677 15.4063 41.3693C15.2777 41.866 15.8573 42.4456 15.8897 42.9686C15.9209 43.4732 15.4113 44.1193 15.6069 44.6151Z" fill="#71A78D"/>
<path d="M20.7883 48.2501C20.3999 48.2502 20.0761 48.0012 19.7887 47.7804C19.6086 47.642 19.4223 47.4989 19.2688 47.4591C19.1116 47.4184 18.8769 47.4535 18.6496 47.4874C18.2769 47.543 17.8541 47.6061 17.5089 47.387C17.1671 47.1699 17.0451 46.7626 16.9376 46.4032C16.8712 46.1813 16.8025 45.9518 16.6967 45.8236C16.5992 45.7054 16.3938 45.5992 16.1954 45.4964C15.8557 45.3206 15.4707 45.1215 15.3162 44.7298C15.3162 44.7297 15.3162 44.7297 15.3162 44.7297C15.1616 44.338 15.3069 43.9296 15.435 43.5694C15.5098 43.3588 15.5873 43.1409 15.5778 42.988C15.5676 42.822 15.4611 42.6075 15.358 42.4C15.1913 42.064 15.0022 41.6832 15.1038 41.2912C15.2062 40.8954 15.5581 40.6529 15.8686 40.4388C16.0577 40.3086 16.2533 40.1738 16.3404 40.0368C16.4253 39.903 16.4636 39.6713 16.5007 39.4471C16.5627 39.0725 16.6329 38.6479 16.9525 38.3843C17.2598 38.1308 17.6807 38.1407 18.0523 38.1492C18.2878 38.1549 18.5308 38.1605 18.6909 38.0972C18.8513 38.034 19.0251 37.8637 19.1932 37.699C19.4587 37.4391 19.7595 37.1445 20.1573 37.1199C20.5696 37.0935 20.9119 37.3565 21.213 37.5879C21.393 37.7263 21.5793 37.8694 21.7328 37.9091C21.8894 37.9496 22.1246 37.9147 22.3519 37.8808C22.7248 37.8251 23.1475 37.762 23.4927 37.9812C23.8346 38.1984 23.9565 38.6057 24.0641 38.965C24.1304 39.1869 24.1992 39.4164 24.305 39.5446C24.4025 39.6629 24.6078 39.7691 24.8063 39.8719C25.146 40.0476 25.5309 40.2468 25.6855 40.6385C25.84 41.0303 25.6948 41.4386 25.5667 41.7989C25.4918 42.0095 25.4144 42.2273 25.4238 42.3803C25.4341 42.5462 25.5406 42.7607 25.6437 42.9683C25.8104 43.3042 25.9994 43.6851 25.8979 44.0771C25.7954 44.4728 25.4435 44.7154 25.1331 44.9294C24.944 45.0597 24.7483 45.1945 24.6613 45.3315C24.5764 45.4653 24.538 45.697 24.5009 45.9211C24.439 46.2957 24.3687 46.7204 24.0492 46.9839C23.7419 47.2374 23.3207 47.2277 22.9494 47.2191C22.714 47.2136 22.4709 47.2078 22.3107 47.2711C22.1504 47.3343 21.9766 47.5045 21.8084 47.6693C21.543 47.9292 21.2422 48.2238 20.8444 48.2484C20.8256 48.2496 20.8068 48.2501 20.7883 48.2501ZM19.0956 46.8161C19.2071 46.8161 19.3177 46.8267 19.4254 46.8546C19.7019 46.9262 19.9395 47.1087 20.1692 47.2852C20.3938 47.4578 20.6292 47.6375 20.8058 47.6251C20.9714 47.6148 21.1747 47.4157 21.3715 47.2231C21.584 47.015 21.8037 46.7997 22.0815 46.6902C22.359 46.5806 22.6668 46.5877 22.9639 46.5947C23.2389 46.6011 23.5237 46.6079 23.6518 46.5022C23.7907 46.3876 23.8386 46.0986 23.8849 45.8191C23.9321 45.5334 23.9811 45.2379 24.1341 44.9968C24.2894 44.7525 24.5382 44.581 24.7787 44.4152C25.01 44.2557 25.2492 44.0908 25.2934 43.9206C25.3364 43.754 25.2082 43.4958 25.0843 43.2459C24.9537 42.9828 24.8186 42.7108 24.8005 42.4189C24.7832 42.1385 24.8824 41.8594 24.9784 41.5897C25.0741 41.3203 25.1732 41.0417 25.1046 40.8677C25.036 40.6938 24.7733 40.5579 24.5193 40.4264C24.2651 40.2949 24.002 40.1588 23.8233 39.9421C23.6372 39.7164 23.55 39.4255 23.4659 39.1441C23.3859 38.8769 23.3032 38.6006 23.1579 38.5084C23.0092 38.414 22.7219 38.457 22.4442 38.4984C22.155 38.5416 21.8564 38.5862 21.5763 38.5137C21.2998 38.4421 21.0622 38.2596 20.8325 38.083C20.608 37.9105 20.3747 37.7314 20.1959 37.7432C20.0303 37.7535 19.827 37.9526 19.6302 38.1452C19.4177 38.3533 19.198 38.5686 18.9202 38.6781C18.6426 38.7877 18.335 38.7804 18.0377 38.7736C17.7629 38.7669 17.4779 38.7604 17.3499 38.866C17.211 38.9807 17.1631 39.2697 17.1168 39.5491C17.0696 39.8349 17.0206 40.1304 16.8676 40.3715C16.7123 40.6158 16.4637 40.7872 16.223 40.953C15.9917 41.1125 15.7525 41.2774 15.7083 41.4477C15.6653 41.6142 15.7935 41.8725 15.9174 42.1223C16.048 42.3854 16.1831 42.6575 16.2012 42.9493C16.2185 43.2298 16.1193 43.5088 16.0233 43.7786C15.9276 44.048 15.8285 44.3266 15.8971 44.5005C15.9658 44.6744 16.2284 44.8103 16.4824 44.9418C16.7366 45.0734 16.9997 45.2095 17.1784 45.4262C17.3645 45.6518 17.4517 45.9428 17.5358 46.2241C17.6158 46.4913 17.6985 46.7676 17.8438 46.8598C17.9923 46.9541 18.2795 46.9111 18.5575 46.8698C18.7353 46.8432 18.9169 46.8161 19.0956 46.8161Z" fill="#611940"/>
<path d="M20.7883 48.2501C20.3999 48.2502 20.0761 48.0012 19.7887 47.7804C19.6086 47.642 19.4223 47.4989 19.2688 47.4591C19.1116 47.4184 18.8769 47.4535 18.6496 47.4874C18.2769 47.543 17.8541 47.6061 17.5089 47.387C17.1671 47.1699 17.0451 46.7626 16.9376 46.4032C16.8712 46.1813 16.8025 45.9518 16.6967 45.8236C16.5992 45.7054 16.3938 45.5992 16.1954 45.4964C15.8557 45.3206 15.4707 45.1215 15.3162 44.7298C15.3162 44.7297 15.3162 44.7297 15.3162 44.7297C15.1616 44.338 15.3069 43.9296 15.435 43.5694C15.5098 43.3588 15.5873 43.1409 15.5778 42.988C15.5676 42.822 15.4611 42.6075 15.358 42.4C15.1913 42.064 15.0022 41.6832 15.1038 41.2912C15.2062 40.8954 15.5581 40.6529 15.8686 40.4388C16.0577 40.3086 16.2533 40.1738 16.3404 40.0368C16.4253 39.903 16.4636 39.6713 16.5007 39.4471C16.5627 39.0725 16.6329 38.6479 16.9525 38.3843C17.2598 38.1308 17.6807 38.1407 18.0523 38.1492C18.2878 38.1549 18.5308 38.1605 18.6909 38.0972C18.8513 38.034 19.0251 37.8637 19.1932 37.699C19.4587 37.4391 19.7595 37.1445 20.1573 37.1199C20.5696 37.0935 20.9119 37.3565 21.213 37.5879C21.393 37.7263 21.5793 37.8694 21.7328 37.9091C21.8894 37.9496 22.1246 37.9147 22.3519 37.8808C22.7248 37.8251 23.1475 37.762 23.4927 37.9812C23.8346 38.1984 23.9565 38.6057 24.0641 38.965C24.1304 39.1869 24.1992 39.4164 24.305 39.5446C24.4025 39.6629 24.6078 39.7691 24.8063 39.8719C25.146 40.0476 25.5309 40.2468 25.6855 40.6385C25.84 41.0303 25.6948 41.4386 25.5667 41.7989C25.4918 42.0095 25.4144 42.2273 25.4238 42.3803C25.4341 42.5462 25.5406 42.7607 25.6437 42.9683C25.8104 43.3042 25.9994 43.6851 25.8979 44.0771C25.7954 44.4728 25.4435 44.7154 25.1331 44.9294C24.944 45.0597 24.7483 45.1945 24.6613 45.3315C24.5764 45.4653 24.538 45.697 24.5009 45.9211C24.439 46.2957 24.3687 46.7204 24.0492 46.9839C23.7419 47.2374 23.3207 47.2277 22.9494 47.2191C22.714 47.2136 22.4709 47.2078 22.3107 47.2711C22.1504 47.3343 21.9766 47.5045 21.8084 47.6693C21.543 47.9292 21.2422 48.2238 20.8444 48.2484C20.8256 48.2496 20.8068 48.2501 20.7883 48.2501ZM19.0956 46.8161C19.2071 46.8161 19.3177 46.8267 19.4254 46.8546C19.7019 46.9262 19.9395 47.1087 20.1692 47.2852C20.3938 47.4578 20.6292 47.6375 20.8058 47.6251C20.9714 47.6148 21.1747 47.4157 21.3715 47.2231C21.584 47.015 21.8037 46.7997 22.0815 46.6902C22.359 46.5806 22.6668 46.5877 22.9639 46.5947C23.2389 46.6011 23.5237 46.6079 23.6518 46.5022C23.7907 46.3876 23.8386 46.0986 23.8849 45.8191C23.9321 45.5334 23.9811 45.2379 24.1341 44.9968C24.2894 44.7525 24.5382 44.581 24.7787 44.4152C25.01 44.2557 25.2492 44.0908 25.2934 43.9206C25.3364 43.754 25.2082 43.4958 25.0843 43.2459C24.9537 42.9828 24.8186 42.7108 24.8005 42.4189C24.7832 42.1385 24.8824 41.8594 24.9784 41.5897C25.0741 41.3203 25.1732 41.0417 25.1046 40.8677C25.036 40.6938 24.7733 40.5579 24.5193 40.4264C24.2651 40.2949 24.002 40.1588 23.8233 39.9421C23.6372 39.7164 23.55 39.4255 23.4659 39.1441C23.3859 38.8769 23.3032 38.6006 23.1579 38.5084C23.0092 38.414 22.7219 38.457 22.4442 38.4984C22.155 38.5416 21.8564 38.5862 21.5763 38.5137C21.2998 38.4421 21.0622 38.2596 20.8325 38.083C20.608 37.9105 20.3747 37.7314 20.1959 37.7432C20.0303 37.7535 19.827 37.9526 19.6302 38.1452C19.4177 38.3533 19.198 38.5686 18.9202 38.6781C18.6426 38.7877 18.335 38.7804 18.0377 38.7736C17.7629 38.7669 17.4779 38.7604 17.3499 38.866C17.211 38.9807 17.1631 39.2697 17.1168 39.5491C17.0696 39.8349 17.0206 40.1304 16.8676 40.3715C16.7123 40.6158 16.4637 40.7872 16.223 40.953C15.9917 41.1125 15.7525 41.2774 15.7083 41.4477C15.6653 41.6142 15.7935 41.8725 15.9174 42.1223C16.048 42.3854 16.1831 42.6575 16.2012 42.9493C16.2185 43.2298 16.1193 43.5088 16.0233 43.7786C15.9276 44.048 15.8285 44.3266 15.8971 44.5005C15.9658 44.6744 16.2284 44.8103 16.4824 44.9418C16.7366 45.0734 16.9997 45.2095 17.1784 45.4262C17.3645 45.6518 17.4517 45.9428 17.5358 46.2241C17.6158 46.4913 17.6985 46.7676 17.8438 46.8598C17.9923 46.9541 18.2795 46.9111 18.5575 46.8698C18.7353 46.8432 18.9169 46.8161 19.0956 46.8161Z" fill="#611940"/>
<path d="M15.6059 44.6151C15.8015 45.1108 16.615 45.2349 16.9367 45.6249C17.2702 46.0291 17.2425 46.8483 17.6756 47.1234C18.113 47.4012 18.8447 47.027 19.3464 47.1569C19.843 47.2854 20.3013 47.9691 20.8243 47.9367C21.3289 47.9055 21.6995 47.1762 22.1953 46.9806C22.691 46.785 23.4597 47.0648 23.8497 46.743C24.254 46.4096 24.122 45.5972 24.397 45.1641C24.6749 44.7267 25.465 44.5005 25.5948 43.9988C25.7234 43.5021 25.1438 42.9225 25.1115 42.3995C25.0802 41.8949 25.5898 41.2488 25.3942 40.7531C25.1986 40.2573 24.3851 40.1332 24.0634 39.7432C23.7299 39.339 23.7576 38.5198 23.3245 38.2448C22.8871 37.9669 22.1554 38.3412 21.6538 38.2113C21.1571 38.0827 20.6988 37.399 20.1758 37.4314C19.6712 37.4627 19.3006 38.192 18.8049 38.3876C18.3091 38.5832 17.5404 38.3034 17.1504 38.6251C16.7462 38.9586 16.8782 39.771 16.6031 40.2041C16.3253 40.6415 15.5352 40.8677 15.4053 41.3693C15.2767 41.866 15.8563 42.4456 15.8887 42.9686C15.9199 43.4732 15.4103 44.1193 15.6059 44.6151Z" fill="#3CCE54"/>
<g opacity="0.65">
<path opacity="0.65" d="M15.9723 45.0297C15.8616 44.5478 16.3116 43.947 16.2824 43.4716C16.25 42.9486 15.6703 42.3689 15.7991 41.8726C15.929 41.371 16.719 41.1444 16.997 40.7074C17.2717 40.2744 17.1398 39.4615 17.544 39.1284C17.9342 38.8067 18.7029 39.086 19.1988 38.8907C19.6941 38.6951 20.0649 37.9658 20.5696 37.9342C21.0924 37.9025 21.5507 38.586 22.0475 38.7146C22.5347 38.841 23.2396 38.4907 23.6799 38.7256C23.607 38.5398 23.5125 38.3801 23.3627 38.2851C22.9251 38.0073 22.1934 38.3815 21.6918 38.2517C21.1952 38.1235 20.7366 37.4395 20.2141 37.4717C19.7094 37.5033 19.3386 38.2326 18.8434 38.4281C18.3474 38.6234 17.5785 38.3437 17.1885 38.6659C16.7843 38.9989 16.916 39.8114 16.6413 40.2444C16.3635 40.6819 15.5732 40.908 15.4434 41.4096C15.3147 41.9064 15.8945 42.4861 15.9269 43.0091C15.958 43.5141 15.4485 44.1597 15.6443 44.6554C15.7047 44.8097 15.8255 44.9278 15.9723 45.0297Z" fill="white"/>
</g>
<path d="M20.7883 48.2501C20.3999 48.2502 20.0761 48.0012 19.7887 47.7804C19.6086 47.642 19.4223 47.4989 19.2688 47.4591C19.1116 47.4184 18.8769 47.4535 18.6496 47.4874C18.2769 47.543 17.8541 47.6061 17.5089 47.387C17.1671 47.1699 17.0451 46.7626 16.9376 46.4032C16.8712 46.1813 16.8025 45.9518 16.6967 45.8236C16.5992 45.7054 16.3938 45.5992 16.1954 45.4964C15.8557 45.3206 15.4707 45.1215 15.3162 44.7298C15.3162 44.7297 15.3162 44.7297 15.3162 44.7297C15.1616 44.338 15.3069 43.9296 15.435 43.5694C15.5098 43.3588 15.5873 43.1409 15.5778 42.988C15.5676 42.822 15.4611 42.6075 15.358 42.4C15.1913 42.064 15.0022 41.6832 15.1038 41.2912C15.2062 40.8954 15.5581 40.6529 15.8686 40.4388C16.0577 40.3086 16.2533 40.1738 16.3404 40.0368C16.4253 39.903 16.4636 39.6713 16.5007 39.4471C16.5627 39.0725 16.6329 38.6479 16.9525 38.3843C17.2598 38.1308 17.6807 38.1407 18.0523 38.1492C18.2878 38.1549 18.5308 38.1605 18.6909 38.0972C18.8513 38.034 19.0251 37.8637 19.1932 37.699C19.4587 37.4391 19.7595 37.1445 20.1573 37.1199C20.5696 37.0935 20.9119 37.3565 21.213 37.5879C21.393 37.7263 21.5793 37.8694 21.7328 37.9091C21.8894 37.9496 22.1246 37.9147 22.3519 37.8808C22.7248 37.8251 23.1475 37.762 23.4927 37.9812C23.8346 38.1984 23.9565 38.6057 24.0641 38.965C24.1304 39.1869 24.1992 39.4164 24.305 39.5446C24.4025 39.6629 24.6078 39.7691 24.8063 39.8719C25.146 40.0476 25.5309 40.2468 25.6855 40.6385C25.84 41.0303 25.6948 41.4386 25.5667 41.7989C25.4918 42.0095 25.4144 42.2273 25.4238 42.3803C25.4341 42.5462 25.5406 42.7607 25.6437 42.9683C25.8104 43.3042 25.9994 43.6851 25.8979 44.0771C25.7954 44.4728 25.4435 44.7154 25.1331 44.9294C24.944 45.0597 24.7483 45.1945 24.6613 45.3315C24.5764 45.4653 24.538 45.697 24.5009 45.9211C24.439 46.2957 24.3687 46.7204 24.0492 46.9839C23.7419 47.2374 23.3207 47.2277 22.9494 47.2191C22.714 47.2136 22.4709 47.2078 22.3107 47.2711C22.1504 47.3343 21.9766 47.5045 21.8084 47.6693C21.543 47.9292 21.2422 48.2238 20.8444 48.2484C20.8256 48.2496 20.8068 48.2501 20.7883 48.2501ZM19.0956 46.8161C19.2071 46.8161 19.3177 46.8267 19.4254 46.8546C19.7019 46.9262 19.9395 47.1087 20.1692 47.2852C20.3938 47.4578 20.6292 47.6375 20.8058 47.6251C20.9714 47.6148 21.1747 47.4157 21.3715 47.2231C21.584 47.015 21.8037 46.7997 22.0815 46.6902C22.359 46.5806 22.6668 46.5877 22.9639 46.5947C23.2389 46.6011 23.5237 46.6079 23.6518 46.5022C23.7907 46.3876 23.8386 46.0986 23.8849 45.8191C23.9321 45.5334 23.9811 45.2379 24.1341 44.9968C24.2894 44.7525 24.5382 44.581 24.7787 44.4152C25.01 44.2557 25.2492 44.0908 25.2934 43.9206C25.3364 43.754 25.2082 43.4958 25.0843 43.2459C24.9537 42.9828 24.8186 42.7108 24.8005 42.4189C24.7832 42.1385 24.8824 41.8594 24.9784 41.5897C25.0741 41.3203 25.1732 41.0417 25.1046 40.8677C25.036 40.6938 24.7733 40.5579 24.5193 40.4264C24.2651 40.2949 24.002 40.1588 23.8233 39.9421C23.6372 39.7164 23.55 39.4255 23.4659 39.1441C23.3859 38.8769 23.3032 38.6006 23.1579 38.5084C23.0092 38.414 22.7219 38.457 22.4442 38.4984C22.155 38.5416 21.8564 38.5862 21.5763 38.5137C21.2998 38.4421 21.0622 38.2596 20.8325 38.083C20.608 37.9105 20.3747 37.7314 20.1959 37.7432C20.0303 37.7535 19.827 37.9526 19.6302 38.1452C19.4177 38.3533 19.198 38.5686 18.9202 38.6781C18.6426 38.7877 18.335 38.7804 18.0377 38.7736C17.7629 38.7669 17.4779 38.7604 17.3499 38.866C17.211 38.9807 17.1631 39.2697 17.1168 39.5491C17.0696 39.8349 17.0206 40.1304 16.8676 40.3715C16.7123 40.6158 16.4637 40.7872 16.223 40.953C15.9917 41.1125 15.7525 41.2774 15.7083 41.4477C15.6653 41.6142 15.7935 41.8725 15.9174 42.1223C16.048 42.3854 16.1831 42.6575 16.2012 42.9493C16.2185 43.2298 16.1193 43.5088 16.0233 43.7786C15.9276 44.048 15.8285 44.3266 15.8971 44.5005C15.9658 44.6744 16.2284 44.8103 16.4824 44.9418C16.7366 45.0734 16.9997 45.2095 17.1784 45.4262C17.3645 45.6518 17.4517 45.9428 17.5358 46.2241C17.6158 46.4913 17.6985 46.7676 17.8438 46.8598C17.9923 46.9541 18.2795 46.9111 18.5575 46.8698C18.7353 46.8432 18.9169 46.8161 19.0956 46.8161Z" fill="#2E3349"/>
<g opacity="0.3">
<path opacity="0.3" d="M27.3099 45.9847C27.5366 45.9847 27.7204 45.8606 27.7204 45.7076C27.7204 45.5546 27.5366 45.4305 27.3099 45.4305C27.0832 45.4305 26.8994 45.5546 26.8994 45.7076C26.8994 45.8606 27.0832 45.9847 27.3099 45.9847Z" fill="#E66E5F"/>
<path opacity="0.3" d="M27.3098 46.2969C26.9044 46.2969 26.5869 46.038 26.5869 45.7076C26.5869 45.3771 26.9044 45.1183 27.3098 45.1183C27.715 45.1183 28.0325 45.3771 28.0325 45.7076C28.0325 46.038 27.715 46.2969 27.3098 46.2969ZM27.4295 45.7736H27.4307H27.4295Z" fill="#611940"/>
</g>
<path d="M35.1984 46.3923C35.2041 46.8046 35.1387 47.1979 35.016 47.5573C34.9769 47.6724 34.9319 47.7843 34.881 47.8919C34.8612 47.9347 34.8398 47.9771 34.8179 48.0188C34.7301 48.1864 34.6283 48.3428 34.5148 48.4868C34.4934 48.5146 34.471 48.5414 34.4484 48.5681C34.427 48.5939 34.4051 48.6185 34.3826 48.6431C34.3596 48.6683 34.3366 48.6929 34.313 48.717C34.3055 48.725 34.2975 48.7326 34.2894 48.7406C34.2578 48.7727 34.2252 48.8037 34.192 48.8338C34.1256 48.8937 34.0571 48.9505 33.9859 49.0029C33.95 49.0292 33.9141 49.0549 33.8772 49.079C33.8156 49.1202 33.7524 49.1582 33.6876 49.1925C33.656 49.2101 33.6239 49.2267 33.5918 49.2428C33.3948 49.3386 33.186 49.4077 32.9681 49.4463C32.9247 49.4538 32.8808 49.4602 32.8363 49.4655C32.748 49.4757 32.6586 49.4811 32.5676 49.4811H17.0171L17.0176 49.4843H13.7334C13.758 49.4843 13.7827 49.4838 13.8073 49.4832C13.8218 49.4827 13.8357 49.4822 13.8501 49.4811C13.9272 49.4768 14.0032 49.4688 14.0782 49.4564C14.0969 49.4538 14.1157 49.4505 14.1339 49.4468C14.151 49.4436 14.1682 49.4404 14.1848 49.4366C14.1864 49.4366 14.188 49.4361 14.1896 49.4356C14.2078 49.4318 14.2265 49.4275 14.2447 49.4227C14.2651 49.4179 14.2849 49.4125 14.3047 49.4072C14.3197 49.4034 14.3347 49.3986 14.3502 49.3943C14.423 49.3724 14.4948 49.3467 14.5644 49.3178C14.5815 49.3108 14.5986 49.3033 14.6158 49.2958C14.7474 49.2369 14.8738 49.1657 14.9938 49.0827C15.0077 49.0736 15.0211 49.064 15.0345 49.0538C15.0478 49.0447 15.0612 49.0345 15.0746 49.0244C15.088 49.0147 15.1014 49.0045 15.1148 48.9938C15.1276 48.9837 15.141 48.9735 15.1538 48.9628C15.1667 48.9521 15.1795 48.9414 15.1924 48.9307C15.2181 48.9093 15.2433 48.8873 15.2679 48.8643C15.27 48.8627 15.2716 48.8611 15.2732 48.8595C15.2963 48.8386 15.3193 48.8166 15.3418 48.7941C15.3594 48.777 15.3771 48.7594 15.3932 48.7417C15.4039 48.7315 15.414 48.7208 15.4231 48.7101C15.4355 48.6978 15.4473 48.6854 15.4574 48.6726C15.4713 48.6581 15.4842 48.6437 15.497 48.6287C15.5099 48.6137 15.5227 48.5987 15.5351 48.5832C15.5463 48.5704 15.557 48.5575 15.5672 48.5446C15.5784 48.5307 15.5891 48.5173 15.6004 48.5029C15.6159 48.4831 15.6314 48.4627 15.6459 48.4418C15.739 48.316 15.8231 48.1816 15.8981 48.0397C15.9115 48.0157 15.9238 47.9915 15.9355 47.9669C15.9436 47.9524 15.9505 47.9374 15.9575 47.9225C15.9666 47.9043 15.9752 47.8861 15.9832 47.8673C15.9891 47.8556 15.9944 47.8432 15.9998 47.8315C16.0122 47.8047 16.0234 47.7779 16.0346 47.7506C16.0373 47.7447 16.0394 47.7388 16.0416 47.7335C16.0534 47.7067 16.0641 47.6794 16.0737 47.6521C16.0796 47.6376 16.0849 47.6232 16.0903 47.6082C16.0989 47.5863 16.1069 47.5638 16.1144 47.5413C16.1144 47.5408 16.1149 47.5402 16.1149 47.5397C16.1685 47.3855 16.2118 47.2265 16.2445 47.0626C16.2455 47.0594 16.2461 47.0557 16.2466 47.0524C16.26 46.9882 16.2707 46.924 16.2804 46.8581V46.857C16.4624 45.8478 16.7473 44.8862 17.1204 43.9894L17.1209 43.9888C18.7427 40.0948 22.036 37.4301 25.8353 37.4301C30.0121 37.4301 33.451 40.7764 34.9828 45.1871C35.076 45.4564 35.1375 45.723 35.1702 45.9848C35.1798 46.0609 35.1873 46.1364 35.1916 46.2113V46.2145C35.1953 46.2741 35.1976 46.3334 35.1984 46.3923Z" fill="#FFBF31"/>
<g opacity="0.65">
<path opacity="0.65" d="M35.1988 46.3922C35.2004 46.5196 35.1955 46.6454 35.1838 46.7691C35.18 46.7295 35.1752 46.6899 35.1704 46.6503C35.1377 46.3884 35.0762 46.1218 34.983 45.8525C33.5973 41.8621 30.6504 38.7433 27.0091 38.1849C26.7269 38.8215 24.943 38.8199 24.6667 38.1811C21.3686 38.6635 18.5743 41.1655 17.1211 44.6542L17.1206 44.6548C17.096 44.7137 17.0719 44.7725 17.0484 44.832C16.9755 44.8261 16.8942 44.8191 16.8096 44.8116C16.9048 44.5321 17.0087 44.2575 17.1206 43.9892L17.1211 43.9887C18.7429 40.0947 22.0362 37.4299 25.8355 37.4299C30.0123 37.4299 33.4512 40.7763 34.983 45.187C35.0762 45.4563 35.1377 45.7229 35.1704 45.9847C35.18 46.0608 35.1875 46.1363 35.1918 46.2112V46.2144C35.1956 46.2739 35.1977 46.3333 35.1988 46.3922Z" fill="white"/>
</g>
<g opacity="0.35">
<path opacity="0.35" d="M35.016 47.5574C34.9769 47.6725 34.9319 47.7844 34.8811 47.892C34.8607 47.9348 34.8398 47.9771 34.8179 48.0189C34.7301 48.1865 34.6283 48.3428 34.5148 48.4868C34.4934 48.5141 34.471 48.5414 34.4484 48.5682C34.427 48.5939 34.4051 48.6185 34.3826 48.6432C34.3601 48.6683 34.3366 48.693 34.313 48.7171C34.3055 48.7251 34.2975 48.7326 34.2894 48.7406C34.2578 48.7728 34.2252 48.8038 34.192 48.8338C34.1256 48.8938 34.0571 48.9505 33.9859 49.003C33.95 49.0292 33.9141 49.0549 33.8772 49.079C33.8156 49.1203 33.7524 49.1583 33.6876 49.1925C33.656 49.2107 33.6239 49.2268 33.5918 49.2429C33.3948 49.3387 33.186 49.4078 32.9681 49.4463C32.9247 49.4538 32.8808 49.4602 32.8363 49.4656C32.748 49.4758 32.6586 49.4811 32.5676 49.4811H17.0171L17.0176 49.4843H13.7334C13.758 49.4843 13.7827 49.4838 13.8073 49.4833C13.8218 49.4827 13.8362 49.4822 13.8501 49.4811C13.9272 49.4768 14.0032 49.4688 14.0782 49.4565C14.0969 49.4538 14.1157 49.4506 14.1339 49.4469C14.151 49.4436 14.1676 49.4404 14.1848 49.4367C14.1864 49.4367 14.188 49.4362 14.1896 49.4356C14.2078 49.4319 14.2265 49.4276 14.2447 49.4228C14.2651 49.418 14.2849 49.4126 14.3047 49.4072C14.3197 49.403 14.3352 49.3987 14.3502 49.3944C14.423 49.3725 14.4948 49.3467 14.5644 49.3178C14.5815 49.3109 14.5986 49.3034 14.6158 49.2959C14.7474 49.237 14.8738 49.1658 14.9938 49.0828C15.0077 49.0732 15.0211 49.064 15.0345 49.0539C15.0484 49.0442 15.0618 49.0346 15.0746 49.0244C15.088 49.0148 15.1014 49.0046 15.1148 48.9939C15.1276 48.9837 15.141 48.9735 15.1538 48.9629C15.1667 48.9522 15.1795 48.9414 15.1924 48.9307C15.2181 48.9093 15.2433 48.8868 15.2679 48.8643C15.27 48.8627 15.2716 48.8611 15.2732 48.8595C15.2963 48.8381 15.3193 48.8167 15.3418 48.7942C15.3594 48.7771 15.3771 48.7594 15.3932 48.7417C15.4039 48.7316 15.414 48.7209 15.4231 48.7101C15.4355 48.6978 15.4467 48.6855 15.4574 48.6726C15.4713 48.6582 15.4842 48.6438 15.497 48.6288C15.5099 48.6138 15.5227 48.5988 15.5351 48.5833C15.5463 48.5704 15.557 48.5575 15.5672 48.5447C15.5784 48.5308 15.5891 48.5169 15.6004 48.5029C15.6159 48.4831 15.6314 48.4622 15.6459 48.4419C15.739 48.3161 15.8231 48.1817 15.8981 48.0398C15.9109 48.0157 15.9238 47.9916 15.9355 47.967C15.9431 47.9525 15.9505 47.9375 15.9575 47.9225C15.9666 47.9043 15.9752 47.8861 15.9832 47.8674C15.9891 47.8556 15.9945 47.8433 15.9998 47.8315C16.0122 47.8048 16.0234 47.7775 16.0346 47.7507C16.0373 47.7448 16.0394 47.7389 16.0416 47.7335C16.0528 47.7068 16.0635 47.6795 16.0737 47.6522C16.0796 47.6377 16.0849 47.6233 16.0903 47.6083C16.0989 47.5863 16.1064 47.5638 16.1144 47.5413C16.1144 47.5408 16.1149 47.5403 16.1149 47.5398C16.1685 47.3855 16.2118 47.2265 16.2445 47.0627C16.2456 47.0595 16.2461 47.0557 16.2466 47.0525C16.26 46.9882 16.2707 46.924 16.2804 46.8582V46.8571C16.4624 45.8478 16.7473 44.8862 17.1204 43.9894L17.1209 43.9889C16.6926 45.4302 17.2853 46.8962 19.0752 46.871L19.0559 46.893H33.2935C34.0281 46.893 35.1241 46.2912 34.9828 45.1873C34.7687 44.7366 35.1868 46.1364 35.1916 46.2114V46.2146C35.2216 46.6916 35.1562 47.1462 35.016 47.5574Z" fill="#2E3349"/>
</g>
<path d="M17.0175 49.7966H13.7332C13.5607 49.7966 13.4209 49.6568 13.4209 49.4844C13.4209 49.3119 13.5607 49.1721 13.7332 49.1721C14.7746 49.1721 15.6811 48.2802 15.938 47.0027C15.9387 46.9978 15.9396 46.9927 15.9406 46.9885C15.9522 46.933 15.9616 46.8775 15.97 46.8206C15.9707 46.8143 15.9716 46.8079 15.9727 46.8017C16.4589 44.1063 17.6934 41.6552 19.4489 39.9002C21.2435 38.106 23.5113 37.1179 25.8348 37.1179C29.8902 37.1179 33.5967 40.2451 35.2775 45.0847C35.6975 46.2941 35.54 47.59 34.8562 48.5515C34.2948 49.3408 33.4605 49.7934 32.567 49.7934H17.0613C17.0469 49.7955 17.0323 49.7966 17.0175 49.7966ZM15.3908 49.1721H16.9729C16.9873 49.17 17.0019 49.1689 17.0167 49.1689H32.567C33.2557 49.1689 33.9046 48.8119 34.3473 48.1895C34.9142 47.3925 35.0415 46.3084 34.6876 45.2896C33.0953 40.7048 29.6204 37.7424 25.8348 37.7424C21.4374 37.7424 17.5503 41.5945 16.589 46.903C16.5787 46.9738 16.567 47.0428 16.5527 47.1118C16.552 47.1157 16.5512 47.12 16.5503 47.1241L16.5505 47.1242C16.3785 47.9812 15.9565 48.6975 15.3908 49.1721Z" fill="#2E3349"/>
<g opacity="0.3">
<path opacity="0.3" d="M20.3031 45.819C20.5298 45.819 20.7135 45.695 20.7135 45.542C20.7135 45.3889 20.5298 45.2649 20.3031 45.2649C20.0764 45.2649 19.8926 45.3889 19.8926 45.542C19.8926 45.695 20.0764 45.819 20.3031 45.819Z" fill="#611940"/>
</g>
<g opacity="0.3">
<path opacity="0.3" d="M30.6908 43.5654C30.9175 43.5654 31.1013 43.4413 31.1013 43.2883C31.1013 43.1353 30.9175 43.0112 30.6908 43.0112C30.4641 43.0112 30.2803 43.1353 30.2803 43.2883C30.2803 43.4413 30.4641 43.5654 30.6908 43.5654Z" fill="#611940"/>
</g>
<g opacity="0.3">
<path opacity="0.3" d="M24.7406 41.4232C24.9673 41.4232 25.1511 41.2991 25.1511 41.1461C25.1511 40.9931 24.9673 40.869 24.7406 40.869C24.5139 40.869 24.3301 40.9931 24.3301 41.1461C24.3301 41.2991 24.5139 41.4232 24.7406 41.4232Z" fill="#611940"/>
</g>
<g opacity="0.3">
<path opacity="0.3" d="M30.6906 45.9306C30.7819 45.9306 30.8559 45.8807 30.8559 45.8191C30.8559 45.7575 30.7819 45.7075 30.6906 45.7075C30.5994 45.7075 30.5254 45.7575 30.5254 45.8191C30.5254 45.8807 30.5994 45.9306 30.6906 45.9306Z" fill="#611940"/>
</g>
<g opacity="0.3">
<path opacity="0.3" d="M28.1438 41.913C28.235 41.913 28.309 41.8631 28.309 41.8015C28.309 41.7399 28.235 41.6899 28.1438 41.6899C28.0525 41.6899 27.9785 41.7399 27.9785 41.8015C27.9785 41.8631 28.0525 41.913 28.1438 41.913Z" fill="#611940"/>
</g>
<g opacity="0.3">
<path opacity="0.3" d="M22.244 43.0112C22.3589 43.0112 22.452 42.9484 22.452 42.8709C22.452 42.7934 22.3589 42.7306 22.244 42.7306C22.1292 42.7306 22.0361 42.7934 22.0361 42.8709C22.0361 42.9484 22.1292 43.0112 22.244 43.0112Z" fill="#611940"/>
</g>
<g opacity="0.3">
<path opacity="0.3" d="M33.077 45.3278C33.1918 45.3278 33.2849 45.265 33.2849 45.1875C33.2849 45.11 33.1918 45.0471 33.077 45.0471C32.9622 45.0471 32.8691 45.11 32.8691 45.1875C32.8691 45.265 32.9622 45.3278 33.077 45.3278Z" fill="#611940"/>
</g>
<g opacity="0.3">
<path opacity="0.3" d="M26.2354 44.4562C26.3007 44.4562 26.3537 44.413 26.3537 44.3598C26.3537 44.3066 26.3007 44.2634 26.2354 44.2634C26.1701 44.2634 26.1172 44.3066 26.1172 44.3598C26.1172 44.413 26.1701 44.4562 26.2354 44.4562Z" fill="#611940"/>
</g>
<g opacity="0.3">
<path opacity="0.3" d="M30.2804 41.2424C30.3457 41.2424 30.3986 41.1993 30.3986 41.146C30.3986 41.0928 30.3457 41.0497 30.2804 41.0497C30.215 41.0497 30.1621 41.0928 30.1621 41.146C30.1621 41.1993 30.215 41.2424 30.2804 41.2424Z" fill="#611940"/>
</g>
<g opacity="0.3">
<path opacity="0.3" d="M23.8067 45.5269C23.872 45.5269 23.925 45.4837 23.925 45.4305C23.925 45.3773 23.872 45.3341 23.8067 45.3341C23.7414 45.3341 23.6885 45.3773 23.6885 45.4305C23.6885 45.4837 23.7414 45.5269 23.8067 45.5269Z" fill="#611940"/>
</g>
<g opacity="0.25">
<path opacity="0.25" d="M22.3377 40.5782C22.786 40.9317 22.0181 41.4686 21.3329 42.3376C20.6477 43.2065 20.3047 44.0785 19.8564 43.725C19.4081 43.3714 19.6001 42.3804 20.2853 41.5115C20.9705 40.6425 21.8894 40.2247 22.3377 40.5782Z" fill="white"/>
</g>
<path d="M54.3169 22.6334C54.1271 22.6327 53.9739 22.4783 53.9746 22.2886L54.0119 12.3929C54.0126 12.2032 54.167 12.0499 54.3567 12.0507H54.3567C56.3472 12.0582 57.9548 13.6779 57.9473 15.6684L57.9346 19.0428C57.9271 21.0334 56.3074 22.6409 54.3169 22.6334Z" fill="white"/>
<path d="M54.3304 22.7083C54.3257 22.7083 54.3209 22.7083 54.3162 22.7083C54.0855 22.7074 53.8985 22.519 53.8994 22.2883L53.9367 12.3927C53.9376 12.1626 54.1251 11.976 54.3549 11.976C54.3554 11.976 54.356 11.976 54.3565 11.976C56.3851 11.9836 58.0293 13.6402 58.0216 15.6688L58.0088 19.0432C58.0052 20.0259 57.6191 20.9483 56.9216 21.6405C56.2276 22.3294 55.3077 22.7083 54.3304 22.7083ZM54.3549 12.1255C54.2072 12.1255 54.0868 12.2455 54.0862 12.3933L54.0489 22.2889C54.0484 22.4371 54.1685 22.5581 54.3167 22.5587C54.3213 22.5587 54.3259 22.5587 54.3304 22.5587C55.268 22.5587 56.1504 22.1952 56.8162 21.5343C57.4853 20.8702 57.8558 19.9853 57.8594 19.0426L57.8721 15.6682C57.8793 13.7221 56.302 12.1329 54.356 12.1255C54.3556 12.1255 54.3553 12.1255 54.3549 12.1255Z" fill="#2E3349"/>
<g opacity="0.35">
<path opacity="0.35" d="M57.9398 17.4606L57.9342 19.0432C57.9265 21.033 56.3069 22.6409 54.3159 22.6342C54.1263 22.6337 53.9731 22.4783 53.9736 22.2886L53.9827 19.658C54.0355 19.7781 54.1552 19.8613 54.2945 19.863L54.5292 19.8632C56.1021 19.8694 57.4444 18.8661 57.9398 17.4606Z" fill="#2E3349"/>
</g>
<path d="M54.3303 23.0498C54.325 23.0498 54.3199 23.0498 54.3147 23.0498C53.8957 23.0482 53.5561 22.7061 53.5576 22.2871L53.5949 12.3914C53.5965 11.9734 53.9371 11.6344 54.3547 11.6344C54.3557 11.6344 54.3566 11.6344 54.3576 11.6344C56.5745 11.6427 58.3712 13.4531 58.363 15.67L58.3502 19.0445C58.3462 20.1184 57.9242 21.1264 57.162 21.8829C56.4035 22.6357 55.3983 23.0498 54.3303 23.0498ZM54.4274 12.4682L54.3906 22.2166C55.2149 22.2014 55.9883 21.8746 56.5755 21.2919C57.1798 20.6921 57.5144 19.8928 57.5176 19.0414L57.5303 15.6669C57.5368 13.9335 56.1514 12.5135 54.4274 12.4682Z" fill="#2E3349"/>
<path d="M21.6929 11.9278C21.8827 11.9285 22.0359 12.0829 22.0352 12.2726L21.9979 22.1682C21.9972 22.358 21.8428 22.5112 21.6531 22.5105C19.6626 22.503 18.055 20.8833 18.0625 18.8928L18.0752 15.5184C18.0827 13.5278 19.7024 11.9203 21.6929 11.9278Z" fill="white"/>
<path d="M21.6549 22.5853C21.6544 22.5853 21.6539 22.5853 21.6534 22.5853C19.6248 22.5776 17.9806 20.921 17.9883 18.8925L18.0011 15.518C18.0047 14.5353 18.3908 13.6129 19.0883 12.9207C19.7823 12.2318 20.7021 11.8529 21.6795 11.8529C21.6842 11.8529 21.689 11.8529 21.6937 11.8529H21.6938C21.9244 11.8538 22.1114 12.0422 22.1105 12.2728L22.0731 22.1685C22.0723 22.3987 21.8848 22.5853 21.6549 22.5853ZM21.6795 12.0024C20.7419 12.0024 19.8595 12.3659 19.1937 13.0268C18.5246 13.6909 18.154 14.5758 18.1505 15.5186L18.1378 18.8931C18.1305 20.8392 19.7079 22.4283 21.6538 22.4357C21.6542 22.4357 21.6545 22.4357 21.6549 22.4357C21.8026 22.4357 21.923 22.3158 21.9236 22.1679L21.9609 12.2722C21.9614 12.1241 21.8413 12.0031 21.693 12.0025C21.6886 12.0025 21.684 12.0024 21.6795 12.0024Z" fill="#2E3349"/>
<g opacity="0.35">
<path opacity="0.35" d="M22.0097 19.4229L21.999 22.1682C21.9985 22.3579 21.8431 22.511 21.6535 22.5105C20.6087 22.5061 19.6684 22.0582 19.0126 21.3446C18.4203 20.7003 18.0601 19.8384 18.0635 18.8933L18.0688 17.4714C18.6292 18.7211 19.8848 19.5949 21.3442 19.6007L21.7053 19.602C21.8371 19.6022 21.9494 19.5297 22.0097 19.4229Z" fill="#2E3349"/>
</g>
<path d="M21.6547 22.9269C21.6538 22.9269 21.6529 22.9269 21.6519 22.9269C19.435 22.9185 17.6383 21.1082 17.6465 18.8913L17.6593 15.5168C17.6633 14.4429 18.0853 13.4348 18.8474 12.6783C19.6059 11.9254 20.6112 11.5114 21.6792 11.5114C21.6846 11.5114 21.6951 11.5119 21.6949 11.5114C22.1138 11.5131 22.4534 11.8553 22.4518 12.2741L22.4145 22.1699C22.413 22.5879 22.0724 22.9269 21.6547 22.9269ZM21.619 12.3446C20.7946 12.3599 20.0212 12.6866 19.434 13.2693C18.8297 13.8691 18.4951 14.6684 18.4919 15.5199L18.4792 18.8944C18.4727 20.6278 19.8581 22.0477 21.5821 22.0931L21.619 12.3446ZM21.6914 12.3441C21.6915 12.3441 21.6915 12.3441 21.6916 12.3441C21.6914 12.3441 21.6914 12.3441 21.6914 12.3441Z" fill="#2E3349"/>
<g opacity="0.35">
<path opacity="0.35" d="M50.7032 30.4635C50.5387 30.6498 50.3722 30.833 50.2004 31.0121C46.8354 34.5301 41.9809 36.5701 36.7476 36.1788C32.119 35.8322 28.067 33.6475 25.2526 30.3938C24.7811 29.8484 24.3429 29.2718 23.9453 28.6692C24.7655 27.7054 25.9874 27.0923 27.3457 27.0923H46.3691C48.4487 27.0923 50.2088 28.5318 50.7032 30.4635Z" fill="#2E3349"/>
</g>
<path d="M38.0067 34.1439C47.3199 34.1439 54.8698 26.594 54.8698 17.2807C54.8698 7.96748 47.3199 0.417603 38.0067 0.417603C28.6934 0.417603 21.1436 7.96748 21.1436 17.2807C21.1436 26.594 28.6934 34.1439 38.0067 34.1439Z" fill="white"/>
<path d="M38.019 34.2191C37.5959 34.2191 37.1705 34.2034 36.7419 34.1713C27.4283 33.4738 20.4188 25.3292 21.1162 16.0156C21.4541 11.504 23.5288 7.39403 26.9579 4.44272C30.3871 1.49144 34.7588 0.0516537 39.2718 0.390096C43.7835 0.727982 47.8935 2.80257 50.8449 6.2317C53.7961 9.66091 55.2353 14.034 54.8975 18.5457C54.2321 27.4306 46.7885 34.2191 38.019 34.2191ZM37.9806 0.491295C33.9672 0.491295 30.1291 1.91084 27.0555 4.55615C23.6567 7.48135 21.6003 11.5551 21.2655 16.0269C20.574 25.2581 27.5218 33.3307 36.753 34.0221C37.1774 34.0539 37.6 34.0696 38.0189 34.0696C46.7116 34.07 54.0887 27.3415 54.7483 18.5345C55.0833 14.0627 53.6567 9.72816 50.7314 6.32935C47.8063 2.93046 43.7325 0.874181 39.2608 0.539269C38.8327 0.507181 38.4054 0.491295 37.9806 0.491295Z" fill="#2E3349"/>
<g opacity="0.35">
<path opacity="0.35" d="M54.8362 16.2003C54.8863 16.9686 54.8823 17.7497 54.8233 18.5403C54.1265 27.8272 46.0343 34.7919 36.7473 34.0973C27.4604 33.4005 20.4957 25.3083 21.1903 16.0213C21.2101 15.7542 21.2364 15.4874 21.2689 15.2251C21.7895 23.4959 28.3413 30.3243 36.8387 30.961C45.8586 31.6359 53.7501 25.086 54.8362 16.2003Z" fill="#2E3349"/>
</g>
<path d="M38.0189 34.5607C37.5872 34.5607 37.1533 34.5446 36.7161 34.5118C27.2147 33.8002 20.0638 25.4914 20.7754 15.9901C21.12 11.3875 23.2365 7.19461 26.7348 4.18382C30.2332 1.173 34.694 -0.29539 39.297 0.0494117C43.8997 0.394189 48.0926 2.51059 51.1034 6.00893C54.1141 9.50717 55.5825 13.9686 55.2377 18.5712C54.5589 27.6353 46.9653 34.5607 38.0189 34.5607ZM37.9809 0.832791C34.049 0.832791 30.289 2.22353 27.278 4.81493C23.9483 7.68068 21.9338 11.6715 21.6057 16.0523C20.9284 25.0958 27.7348 33.0042 36.7782 33.6815C37.1938 33.7126 37.608 33.7279 38.0183 33.728C46.5342 33.7285 53.7612 27.1368 54.4074 18.509C54.7356 14.1282 53.338 9.88179 50.4723 6.55207C47.6066 3.22237 43.6157 1.20792 39.235 0.8798C38.8156 0.848412 38.397 0.832791 37.9809 0.832791Z" fill="#2E3349"/>
<path d="M54.7369 18.9679C54.5402 22.262 53.2883 25.2562 51.3085 27.6773C49.8242 29.4924 43.9901 32.4757 37.027 32.1226C30.5708 31.7953 24.9052 28.0042 23.6475 26.0254C21.9699 23.3859 21.0832 20.2639 21.2799 16.9699C21.8005 8.25305 29.5055 5.08667 38.7448 5.63844C47.9841 6.19021 55.2575 10.2511 54.7369 18.9679Z" fill="#371A45"/>
<path d="M38.1996 32.5687C37.8068 32.5687 37.409 32.5589 37.0062 32.5385C30.3242 32.1996 24.615 28.3235 23.2964 26.2488C21.51 23.438 20.6691 20.2208 20.8647 16.9452C21.1196 12.677 23.0275 9.48831 26.5354 7.46772C29.5975 5.70398 33.8283 4.92762 38.7699 5.22285C43.7118 5.51798 47.82 6.79222 50.6504 8.90787C53.8929 11.3315 55.4078 14.7247 55.1528 18.9928L54.7372 18.9681L55.1528 18.9928C54.9572 22.2685 53.7394 25.3628 51.6311 27.9409C50.2492 29.6308 44.9982 32.5687 38.1996 32.5687ZM36.8461 5.99807C31.377 5.99807 22.2661 7.44663 21.696 16.9948C21.5108 20.0946 22.3073 23.1401 23.9992 25.8022C25.201 27.6929 30.7418 31.3871 37.0485 31.707C44.0379 32.0604 49.6605 29.0354 50.9865 27.4138C52.9833 24.9721 54.1365 22.043 54.3217 18.9433C54.5589 14.9722 53.1559 11.8203 50.1519 9.57481C47.4523 7.55695 43.4993 6.33952 38.7203 6.0541C38.1703 6.02122 37.5367 5.99807 36.8461 5.99807Z" fill="#2E3349"/>
<g opacity="0.7">
<path opacity="0.7" d="M50.0758 14.5617C48.9154 14.2791 47.6586 15.3482 47.2687 16.9496C46.8787 18.5509 47.5033 20.0781 48.6636 20.3607C49.824 20.6432 51.0808 19.5742 51.4707 17.9728C51.8607 16.3715 51.2361 14.8443 50.0758 14.5617Z" fill="white"/>
</g>
<g opacity="0.7">
<path opacity="0.7" d="M46.878 21.9284C46.2745 21.6891 45.5593 22.0652 45.2804 22.7685C45.0016 23.4717 45.2648 24.2358 45.8682 24.4751C46.4717 24.7143 47.187 24.3382 47.4658 23.635C47.7447 22.9318 47.4815 22.1677 46.878 21.9284Z" fill="white"/>
</g>
<g opacity="0.35">
<path opacity="0.35" d="M51.9691 10.6416C53.8976 12.7151 54.9455 15.4664 54.7369 18.9674C54.5402 22.2621 53.2877 25.2561 51.3091 27.6773C49.8244 29.4924 43.9898 32.4755 37.0268 32.1232C34.5682 31.9992 32.2251 31.3721 30.1953 30.5332C38.7637 30.7838 45.8723 27.1192 47.713 24.868C50.226 21.7952 51.8147 17.9944 52.0637 13.8146C52.1311 12.6975 52.0953 11.6404 51.9691 10.6416Z" fill="#111A28"/>
</g>
<path d="M53.7532 11.6538C53.6545 11.6538 53.5556 11.6187 53.4764 11.5474C53.4739 11.5452 53.4691 11.5409 53.4668 11.5386C53.4411 11.5143 53.4186 11.4869 53.3998 11.457C50.7994 7.30803 45.4527 4.69818 38.7308 4.2967C31.9706 3.89324 26.3531 5.92239 23.3161 9.86407C23.3053 9.87824 23.2934 9.89171 23.2807 9.90438C23.1198 10.0653 22.858 10.0683 22.6949 9.90941C22.5376 9.75639 22.526 9.51001 22.6654 9.34436C25.8753 5.18819 31.7493 3.04682 38.7804 3.46547C45.7702 3.88303 51.3531 6.63124 54.1002 11.0065C54.2038 11.1629 54.1922 11.3756 54.0598 11.5192C53.9776 11.6083 53.8655 11.6538 53.7532 11.6538Z" fill="#2E3349"/>
<g opacity="0.7">
<path opacity="0.7" d="M24.727 22.3799C24.727 22.3799 22.5407 13.6195 27.3798 10.4695C32.2188 7.31942 38.8856 7.73143 38.7041 8.14971C38.7041 8.14971 31.2159 9.49592 27.9793 15.1589C25.4834 19.5259 24.727 22.3799 24.727 22.3799Z" fill="white"/>
</g>
<path d="M58.5666 34.12H46.8918C46.547 34.12 46.2676 33.8404 46.2676 33.4957V33.4696C46.2676 33.1248 46.5471 32.8453 46.8918 32.8453H58.5666C58.9114 32.8453 59.1909 33.1248 59.1909 33.4696V33.4957C59.1909 33.8405 58.9114 34.12 58.5666 34.12Z" fill="#FEBF06"/>
<g opacity="0.3">
<path opacity="0.3" d="M59.1913 33.4692V33.4958C59.1913 33.841 58.9119 34.1204 58.5668 34.1204H55.9824C56.3265 34.1204 56.6059 33.841 56.6059 33.4958V33.4692C56.6059 33.1251 56.3265 32.8457 55.9824 32.8457H58.5668C58.9119 32.8457 59.1913 33.1251 59.1913 33.4692Z" fill="#611940"/>
</g>
<path d="M53.2732 31.801L51.9062 31.6062L52.6567 26.9416C52.6956 26.6681 52.894 26.4442 53.1608 26.3724L57.4553 25.2161C57.6894 25.1531 57.9302 25.2918 57.9932 25.5259L58.1239 26.0116C58.1869 26.2456 58.0483 26.4864 57.8142 26.5495L53.9595 27.5873L53.2732 31.801Z" fill="white"/>
<path d="M53.2733 32.1133C53.2587 32.1133 53.2438 32.1122 53.2289 32.1101L51.862 31.9152C51.779 31.9034 51.7043 31.8587 51.6546 31.7913C51.6049 31.7238 51.5844 31.6392 51.5977 31.5565L52.3482 26.8919C52.4038 26.4999 52.6912 26.1753 53.0793 26.0708L57.3737 24.9145C57.774 24.807 58.1867 25.0447 58.2945 25.4446L58.4252 25.9304C58.4773 26.124 58.4509 26.3265 58.3508 26.5004C58.2507 26.6743 58.0888 26.7988 57.895 26.8509L54.235 27.8364L53.5811 31.8511C53.5562 32.0041 53.424 32.1133 53.2733 32.1133ZM52.2648 31.3419L53.014 31.4486L53.651 27.5371C53.6707 27.416 53.7595 27.3176 53.878 27.2857L57.7327 26.2479C57.7768 26.236 57.7998 26.2057 57.8095 26.1888C57.8193 26.1718 57.834 26.1368 57.8221 26.0927L57.6914 25.6069C57.6733 25.5395 57.6035 25.499 57.5361 25.5176L53.2418 26.6738C53.0952 26.7132 52.987 26.8356 52.9656 26.9855L52.2648 31.3419Z" fill="#611940"/>
<path d="M53.273 32.2173C53.2535 32.2173 53.2337 32.2159 53.2137 32.2131L51.8468 32.0183C51.7363 32.0025 51.6366 31.9429 51.5704 31.853C51.5042 31.7631 51.4768 31.6502 51.4946 31.54L52.245 26.8754C52.3062 26.4439 52.6234 26.0856 53.0518 25.9702L57.3463 24.814C57.8017 24.692 58.2718 24.9621 58.3945 25.4175L58.5252 25.9032C58.5846 26.1237 58.5546 26.3543 58.4406 26.5522C58.3266 26.7502 58.1423 26.892 57.9216 26.9514L54.3264 27.9193L53.6834 31.8679C53.6502 32.0718 53.4738 32.2173 53.273 32.2173ZM52.384 31.2537L52.9272 31.3312L53.5478 27.5202C53.5741 27.3587 53.6925 27.2277 53.8505 27.1852L57.7052 26.1473C57.7156 26.1445 57.724 26.13 57.7212 26.1198L57.5905 25.6339C57.5873 25.6219 57.5749 25.6149 57.5627 25.618L53.2684 26.7743C53.1622 26.8029 53.0837 26.8915 53.0683 27L52.384 31.2537Z" fill="#2E3349"/>
<path d="M57.1646 31.3229H48.2955C47.9602 31.3229 47.6708 31.5579 47.6021 31.8861L47.4014 32.8453H58.0587L57.8579 31.8861C57.7892 31.5579 57.4998 31.3229 57.1646 31.3229Z" fill="#FEBF06"/>
<g opacity="0.3">
<path opacity="0.3" d="M58.0582 32.8457H56.3768L56.176 31.8865C56.107 31.5583 55.8181 31.3225 55.4824 31.3225H57.1639C57.4995 31.3225 57.7884 31.5583 57.8575 31.8865L58.0582 32.8457Z" fill="#611940"/>
</g>
<g opacity="0.55">
<path opacity="0.55" d="M47.7058 34.1204H46.8921C46.5469 34.1204 46.2676 33.841 46.2676 33.4958V33.4692C46.2676 33.1251 46.5469 32.8457 46.8921 32.8457H47.7058C47.3616 32.8457 47.0823 33.1251 47.0823 33.4692V33.4958C47.0823 33.841 47.3616 34.1204 47.7058 34.1204Z" fill="white"/>
</g>
<g opacity="0.55">
<path opacity="0.55" d="M49.1094 31.3225C48.7737 31.3225 48.4848 31.5583 48.4157 31.8865L48.215 32.8457H47.4014L47.6021 31.8865C47.6701 31.5583 47.9601 31.3225 48.2947 31.3225H49.1094Z" fill="white"/>
</g>
<path d="M58.567 34.5362H46.8921C46.3183 34.5362 45.8516 34.0694 45.8516 33.4956V33.4695C45.8516 32.8957 46.3183 32.429 46.8921 32.429H58.567C59.1408 32.429 59.6075 32.8958 59.6075 33.4695V33.4956C59.6075 34.0694 59.1408 34.5362 58.567 34.5362ZM46.8921 33.2616C46.7775 33.2616 46.6842 33.3549 46.6842 33.4695V33.4956C46.6842 33.6103 46.7774 33.7036 46.8921 33.7036H58.567C58.6816 33.7036 58.7749 33.6103 58.7749 33.4956V33.4695C58.7749 33.3549 58.6816 33.2616 58.567 33.2616H46.8921Z" fill="#2E3349"/>
<path d="M58.058 33.2616H47.4007C47.2753 33.2616 47.1566 33.2051 47.0775 33.1078C46.9985 33.0105 46.9675 32.8827 46.9932 32.7601L47.194 31.8008C47.3025 31.2825 47.7654 30.9065 48.2949 30.9065H57.1639C57.6932 30.9065 58.1562 31.2826 58.2647 31.8008L58.4654 32.7601C58.4912 32.8827 58.4601 33.0105 58.3811 33.1078C58.302 33.2051 58.1834 33.2616 58.058 33.2616ZM47.9131 32.429H57.5455L57.4498 31.9713C57.4216 31.8368 57.3014 31.7391 57.1639 31.7391H48.2949C48.1574 31.7391 48.0372 31.8368 48.0089 31.9714L47.9131 32.429Z" fill="#2E3349"/>
<path d="M58.0576 34.1204L57.8525 37.1006L57.7362 38.7837L57.7075 39.2081L57.5732 41.1526L57.4977 42.2459L57.1069 47.9006C57.0446 48.8105 56.2881 49.5166 55.377 49.5166H50.0819C49.1708 49.5166 48.4143 48.8105 48.352 47.9006L48.3041 47.2077L48.1542 45.0439L48.0475 43.5058L48.02 43.1031L47.7946 39.8195L47.7742 39.5318L47.4014 34.1204H58.0576V34.1204Z" fill="#EC1C24"/>
<path d="M57.749 35.5962L57.7202 38.2229L57.586 40.1673L48.3168 46.2225L48.167 41.8564L57.749 35.5962Z" fill="white"/>
<g opacity="0.3">
<path opacity="0.3" d="M58.0579 34.1204L57.1073 47.9012C57.0446 48.8105 56.2883 49.5168 55.3769 49.5168H53.3662C54.2786 49.5168 55.0349 48.8105 55.0976 47.9012L56.0482 34.1204H58.0579Z" fill="#611940"/>
</g>
<g opacity="0.55">
<path opacity="0.55" d="M50.7196 49.5168H50.0823C49.171 49.5168 48.4147 48.8105 48.352 47.9012L47.4014 34.1204H48.0387L48.9893 47.9012C49.052 48.8105 49.8083 49.5168 50.7196 49.5168Z" fill="white"/>
</g>
<path d="M55.3767 49.9329H50.082C48.9563 49.9329 48.0136 49.0531 47.9361 47.9299L46.9854 34.1486C46.9774 34.0334 47.0176 33.9202 47.0964 33.8359C47.1751 33.7515 47.2854 33.7036 47.4007 33.7036H58.058C58.1734 33.7036 58.2837 33.7515 58.3624 33.8359C58.4412 33.9202 58.4813 34.0334 58.4734 34.1486L57.5227 47.9299C57.4452 49.053 56.5026 49.9329 55.3767 49.9329ZM47.8468 34.5363L48.7668 47.8726C48.8143 48.561 49.392 49.1002 50.0821 49.1002H55.3767C56.0667 49.1002 56.6444 48.561 56.6919 47.8726L57.6119 34.5363H47.8468Z" fill="#2E3349"/>
</svg>
