<svg width="57" height="55" viewBox="0 0 57 55" fill="none" xmlns="http://www.w3.org/2000/svg">
<g opacity="0.3">
<g opacity="0.3">
<path opacity="0.3" d="M34.6717 55C45.7179 55 54.6726 53.7851 54.6726 52.2864C54.6726 50.7878 45.7179 49.5729 34.6717 49.5729C23.6256 49.5729 14.6709 50.7878 14.6709 52.2864C14.6709 53.7851 23.6256 55 34.6717 55Z" fill="#2E3349"/>
</g>
</g>
<path d="M43.4155 50.4758L32.55 36.2814L31.5791 37.7453L42.4615 51.9608L43.4155 50.4758Z" fill="#798CEF"/>
<path d="M42.4656 52.0605L31.5088 37.7477L32.5467 36.1826L32.5956 36.2465L43.4855 50.4728L42.4656 52.0605ZM31.6496 37.7429L42.4574 51.8611L43.3455 50.4786L32.5534 36.3801L31.6496 37.7429Z" fill="#2E3349"/>
<g opacity="0.3">
<g opacity="0.3">
<path opacity="0.3" d="M43.4155 50.4758L32.55 36.2814L31.5791 37.7453L42.4615 51.9608L43.4155 50.4758Z" fill="#2E3349"/>
</g>
</g>
<path d="M45.1385 49.9761L43.415 50.4757L42.4609 51.9607L44.1844 51.4611L45.1385 49.9761Z" fill="#798CEF"/>
<path d="M42.3301 52.0584L43.3784 50.4266L43.399 50.4206L45.2694 49.8784L44.2211 51.5102L44.2004 51.5162L42.3301 52.0584ZM43.4516 50.5248L42.5919 51.8631L44.1478 51.4121L45.0076 50.0738L43.4516 50.5248Z" fill="#2E3349"/>
<g opacity="0.3">
<g opacity="0.3">
<path opacity="0.3" d="M45.1385 49.9761L43.415 50.4757L42.4609 51.9607L44.1844 51.4611L45.1385 49.9761Z" fill="#2E3349"/>
</g>
</g>
<path d="M45.1388 49.9761L34.4108 35.9613L32.5498 36.2813L43.4153 50.4757L45.1388 49.9761Z" fill="#798CEF"/>
<path d="M43.3933 50.5417L32.4463 36.2409L34.4349 35.8989L34.456 35.9265L45.2351 50.0078L43.3933 50.5417ZM32.6527 36.3218L43.4367 50.4097L45.042 49.9443L34.386 36.0237L32.6527 36.3218Z" fill="#2E3349"/>
<g opacity="0.3">
<g opacity="0.3">
<path opacity="0.3" d="M45.1388 49.9761L34.4108 35.9613L32.5498 36.2813L43.4153 50.4757L45.1388 49.9761Z" fill="#2E3349"/>
</g>
</g>
<path d="M42.4611 52.2476C42.372 52.2476 42.2878 52.2062 42.2334 52.1351L31.351 37.9196C31.2767 37.8225 31.2721 37.6888 31.3398 37.5868L32.3106 36.1229C32.3618 36.0457 32.4472 35.9979 32.5399 35.9948C32.6323 35.9919 32.7209 36.0335 32.7773 36.1071L43.6428 50.3015C43.7163 50.3974 43.7217 50.5291 43.6564 50.6308L42.7024 52.1158C42.6519 52.1944 42.5663 52.2435 42.4729 52.2473C42.469 52.2475 42.465 52.2476 42.4611 52.2476ZM31.9308 37.7334L42.4405 51.4622L43.065 50.4902L32.5663 36.775L31.9308 37.7334Z" fill="#2E3349"/>
<path d="M42.4606 52.2475C42.3716 52.2475 42.2858 52.206 42.2307 52.1322C42.1593 52.0364 42.1547 51.9063 42.2193 51.8058L43.1734 50.3207C43.2108 50.2624 43.2681 50.2196 43.3347 50.2003L45.0583 49.7007C45.1731 49.6674 45.2965 49.7088 45.3679 49.8046C45.4394 49.9004 45.444 50.0305 45.3794 50.1311L44.4253 51.6161C44.3878 51.6745 44.3305 51.7172 44.2639 51.7366L42.5404 52.2362C42.514 52.2438 42.4872 52.2475 42.4606 52.2475ZM43.5978 50.7212L43.1151 51.4724L44.0009 51.2157L44.4836 50.4644L43.5978 50.7212Z" fill="#2E3349"/>
<path d="M43.415 50.7625C43.3272 50.7625 43.2425 50.7221 43.1873 50.65L32.3218 36.4556C32.2608 36.3759 32.2458 36.2701 32.2825 36.1767C32.3191 36.0832 32.4019 36.0157 32.5009 35.9987L34.3619 35.6787C34.4669 35.6607 34.5733 35.7023 34.6382 35.787L45.3662 49.8018C45.4238 49.877 45.4405 49.9757 45.4109 50.0657C45.3814 50.1556 45.3093 50.2252 45.2183 50.2515L43.4948 50.7512C43.4685 50.7588 43.4416 50.7625 43.415 50.7625ZM33.0654 36.4836L43.5235 50.1457L44.6559 49.8174L34.2881 36.2733L33.0654 36.4836Z" fill="#2E3349"/>
<path d="M31.5024 50.8014L20.6369 36.6071L19.666 38.071L30.5484 52.2865L31.5024 50.8014Z" fill="#798CEF"/>
<path d="M30.5525 52.3862L19.5957 38.0734L20.6336 36.5083L20.6825 36.5722L31.5725 50.7985L30.5525 52.3862ZM19.7365 38.0686L30.5443 52.1868L31.4324 50.8043L20.6402 36.7058L19.7365 38.0686Z" fill="#2E3349"/>
<path d="M33.2254 50.3018L31.5019 50.8014L30.5479 52.2865L32.2714 51.7868L33.2254 50.3018Z" fill="#798CEF"/>
<path d="M30.417 52.3841L31.4653 50.7523L31.4859 50.7463L33.3563 50.2041L32.308 51.8359L32.2874 51.8419L30.417 52.3841ZM31.5385 50.8505L30.6788 52.1888L32.2348 51.7377L33.0945 50.3994L31.5385 50.8505Z" fill="#2E3349"/>
<g opacity="0.3">
<g opacity="0.3">
<path opacity="0.3" d="M33.2254 50.3018L31.5019 50.8014L30.5479 52.2865L32.2714 51.7868L33.2254 50.3018Z" fill="#2E3349"/>
</g>
</g>
<path d="M33.2248 50.3018L22.4967 36.287L20.6357 36.607L31.5013 50.8014L33.2248 50.3018Z" fill="#798CEF"/>
<path d="M31.4802 50.8674L20.5332 36.5666L22.5218 36.2246L22.5429 36.2521L33.3219 50.3335L31.4802 50.8674ZM20.7396 36.6475L31.5236 50.7354L33.1289 50.2701L22.4729 36.3494L20.7396 36.6475Z" fill="#2E3349"/>
<g opacity="0.3">
<g opacity="0.3">
<path opacity="0.3" d="M33.2258 50.3018L22.4977 36.287L20.6367 36.607L31.5023 50.8014L33.2258 50.3018Z" fill="#2E3349"/>
</g>
</g>
<path d="M30.548 52.5732C30.459 52.5732 30.3747 52.5318 30.3203 52.4608L19.438 38.2452C19.3636 38.1481 19.3591 38.0144 19.4267 37.9124L20.3976 36.4485C20.4488 36.3713 20.5342 36.3235 20.6268 36.3204C20.719 36.317 20.8079 36.3591 20.8642 36.4327L31.7298 50.6271C31.8032 50.723 31.8086 50.8547 31.7433 50.9564L30.7893 52.4414C30.7388 52.5201 30.6532 52.5691 30.5598 52.573C30.5559 52.5731 30.5519 52.5732 30.548 52.5732ZM20.0177 38.059L30.5275 51.7878L31.1519 50.8158L20.6532 37.1006L20.0177 38.059Z" fill="#2E3349"/>
<path d="M30.5485 52.5732C30.4595 52.5732 30.3737 52.5317 30.3186 52.4579C30.2472 52.3621 30.2426 52.232 30.3072 52.1314L31.2612 50.6464C31.2987 50.588 31.356 50.5453 31.4226 50.5259L33.1462 50.0263C33.2609 49.9932 33.3844 50.0344 33.4558 50.1303C33.5273 50.2261 33.5319 50.3562 33.4673 50.4567L32.5132 51.9418C32.4758 52.0001 32.4184 52.0429 32.3518 52.0622L30.6283 52.5618C30.6019 52.5695 30.5751 52.5732 30.5485 52.5732ZM31.6856 51.0468L31.203 51.7981L32.0888 51.5413L32.5714 50.79L31.6856 51.0468Z" fill="#2E3349"/>
<path d="M31.5019 51.0882C31.4141 51.0882 31.3294 51.0477 31.2742 50.9757L20.4087 36.7813C20.3477 36.7016 20.3328 36.5958 20.3694 36.5024C20.406 36.4089 20.4889 36.3414 20.5878 36.3244L22.4488 36.0044C22.5537 35.9864 22.6603 36.028 22.7251 36.1127L33.4531 50.1275C33.5107 50.2026 33.5274 50.3014 33.4978 50.3913C33.4683 50.4813 33.3962 50.5508 33.3052 50.5772L31.5817 51.0768C31.5554 51.0845 31.5285 51.0882 31.5019 51.0882ZM21.1523 36.8093L31.6104 50.4714L32.7428 50.1431L22.375 36.599L21.1523 36.8093Z" fill="#2E3349"/>
<path d="M24.1783 25.0799C21.7652 33.1828 17.2339 38.9856 14.0584 38.0388C13.8246 37.97 13.6064 37.8661 13.3999 37.7297C12.6428 37.2284 12.0752 36.2881 11.7077 35.0205C11.2713 33.5218 11.1154 31.5658 11.2544 29.3359C11.3297 28.1332 11.4894 26.8513 11.7388 25.5201C11.9181 24.5617 12.1427 23.5785 12.4142 22.5797C12.4973 22.2733 12.5856 21.9641 12.6778 21.655C14.9208 14.1222 18.995 8.57656 22.1081 8.59342C22.1094 8.59342 22.112 8.59475 22.1146 8.59342C22.3483 8.59601 22.5756 8.6285 22.7977 8.69473C25.9732 9.64025 26.5914 16.9769 24.1783 25.0799Z" fill="#FFEBCC"/>
<g opacity="0.65">
<g opacity="0.65">
<path opacity="0.65" d="M24.1777 25.0793C23.3122 27.9875 22.1736 30.5992 20.9216 32.709C21.8693 30.8801 22.7255 28.7651 23.411 26.4637C25.8237 18.3613 25.2054 11.0248 22.0305 10.0788C21.8086 10.0128 21.581 9.97997 21.3467 9.9777C21.3453 9.97875 21.3427 9.97829 21.3414 9.97809C19.4294 9.9676 17.1561 12.0536 15.165 15.4102C17.3196 11.2528 19.9446 8.58184 22.1081 8.59365C22.1094 8.59388 22.112 8.59432 22.1134 8.59326C22.3477 8.59556 22.5753 8.62834 22.7972 8.69439C25.9721 9.64041 26.5904 16.9769 24.1777 25.0793Z" fill="white"/>
</g>
</g>
<path d="M27.963 26.3287C27.8721 26.6332 27.7788 26.9361 27.6837 27.2346C27.6354 27.3844 27.587 27.5342 27.5377 27.6825L27.5353 27.6887C27.2006 28.7011 26.8383 29.6757 26.4561 30.6047C26.4329 30.6626 26.4082 30.7216 26.3837 30.7793L26.3835 30.7806C26.3703 30.8113 26.3586 30.8409 26.3456 30.8703C26.3092 30.9589 26.2717 31.046 26.2342 31.1331C26.1164 31.4106 25.9951 31.6848 25.8735 31.9537C25.8018 32.1087 25.7319 32.2614 25.6595 32.4136C25.4258 32.911 25.1858 33.3914 24.9411 33.8539C24.9093 33.9156 24.8763 33.9771 24.8448 34.0375C24.7111 34.2846 24.577 34.5264 24.4427 34.7615C24.3935 34.8479 24.3443 34.9342 24.2941 35.0191C24.1779 35.2178 24.0614 35.4112 23.9444 35.6005C23.8615 35.7364 23.7781 35.8683 23.6935 35.9987C23.6811 36.0176 23.6686 36.0365 23.6561 36.0554C23.6181 36.1148 23.5804 36.1728 23.5414 36.2307C23.3772 36.479 23.213 36.7195 23.0467 36.9491C22.9737 37.0511 22.9012 37.1506 22.8275 37.2486C22.7076 37.4084 22.5884 37.5644 22.4674 37.7148C22.4167 37.7799 22.3648 37.8434 22.3131 37.9056C22.2114 38.0291 22.1088 38.1497 22.0069 38.2665C21.969 38.31 21.9314 38.3523 21.8938 38.3946C21.8789 38.4118 21.863 38.4275 21.8497 38.4436C21.7717 38.529 21.6938 38.613 21.6167 38.6933C21.5731 38.7398 21.5299 38.7837 21.4867 38.8276C21.3137 39.0047 21.1415 39.1699 20.9676 39.3217C20.9253 39.3605 20.8819 39.3978 20.8388 39.4339C20.7954 39.4712 20.7523 39.5072 20.7107 39.5422C20.5817 39.6478 20.4538 39.7469 20.3258 39.8394L20.3256 39.8407C20.2833 39.8716 20.2413 39.9012 20.1995 39.9296C20.1784 39.9444 20.1561 39.959 20.1354 39.9725C19.9906 40.0701 19.8462 40.1585 19.7035 40.2366C19.6596 40.2619 19.6161 40.2847 19.5741 40.3065C19.48 40.3547 19.3882 40.3982 19.2959 40.4363C19.2687 40.4487 19.2403 40.4609 19.212 40.4718C19.0887 40.5217 18.9655 40.5636 18.8436 40.5979C17.8146 40.4199 16.0323 39.6371 14.3949 38.4891C14.0538 38.2509 13.7195 37.9967 13.3994 37.7291C13.605 37.8661 13.8243 37.97 14.0575 38.0393C14.2568 38.0988 14.462 38.1317 14.6716 38.1389C17.5513 38.2391 21.2803 33.5065 23.6162 26.8156C23.8142 26.2502 24.0014 25.671 24.1776 25.0793C26.5902 16.9768 25.972 9.64038 22.797 8.6944C22.5751 8.62835 22.3475 8.59555 22.1133 8.59327C24.0018 8.35058 25.7992 8.67338 27.7267 9.00553C27.7767 9.04448 27.8251 9.08449 27.8731 9.12707C27.8926 9.14363 27.9119 9.16148 27.93 9.1791C27.9504 9.19844 27.9707 9.2178 27.9896 9.23818C28.0178 9.26548 28.0448 9.29255 28.0703 9.32067C28.097 9.34903 28.1235 9.37864 28.1485 9.40934C28.1706 9.43423 28.1937 9.46066 28.214 9.48789C28.2826 9.57094 28.3476 9.65995 28.4118 9.7541C28.4486 9.80792 28.4849 9.86431 28.5209 9.92322C28.5978 10.0499 28.6709 10.1838 28.7411 10.3264L28.7409 10.3277C28.7574 10.3622 28.7738 10.3967 28.79 10.4324C28.8048 10.4614 28.8181 10.4913 28.8313 10.5213C28.9406 10.7656 29.0385 11.0303 29.1264 11.3144C29.1438 11.3662 29.1597 11.419 29.1741 11.4729C29.2279 11.6575 29.2767 11.8478 29.3216 12.0454C29.3403 12.1277 29.3585 12.2126 29.3755 12.2973C29.3795 12.3124 29.3822 12.3274 29.3849 12.3424C29.3952 12.3969 29.4056 12.4514 29.4159 12.5059C29.4277 12.5673 29.4382 12.6284 29.4485 12.6908C29.4685 12.8037 29.4868 12.9188 29.5034 13.0364C29.5106 13.0864 29.5175 13.1377 29.5242 13.1902C29.5305 13.2375 29.5369 13.2847 29.5432 13.3319C29.5727 13.573 29.5983 13.8212 29.6174 14.0763C29.6238 14.1459 29.6287 14.2166 29.6336 14.2873C29.647 14.4992 29.6583 14.716 29.6661 14.9375C29.6734 15.1391 29.6773 15.3454 29.6794 15.554C29.6799 15.5738 29.6792 15.5935 29.6797 15.6134C29.6799 15.6885 29.6796 15.7662 29.6793 15.844C29.6788 16.0758 29.675 16.3111 29.6664 16.5508C29.6592 16.7829 29.649 17.0171 29.6354 17.2559C29.6115 17.6762 29.5778 18.1066 29.5348 18.546C29.5273 18.6198 29.5198 18.6937 29.5123 18.7675C29.5089 18.8025 29.5044 18.836 29.501 18.871C29.4862 19.0095 29.47 19.149 29.4538 19.2885C29.4414 19.3905 29.429 19.4925 29.4151 19.5956C29.4037 19.6845 29.3923 19.7735 29.3796 19.8622C29.3541 20.0476 29.3271 20.2341 29.2984 20.4229C29.2868 20.5052 29.2737 20.5886 29.2606 20.672C28.9747 22.4692 28.5445 24.3771 27.963 26.3287Z" fill="#FFEBCC"/>
<g opacity="0.65">
<g opacity="0.65">
<path opacity="0.65" d="M28.9048 10.6909C28.7697 10.5344 28.6252 10.3948 28.4728 10.2775C27.0226 10.0279 25.6467 9.78329 24.2501 9.78024C23.8487 9.23628 23.3635 8.86372 22.797 8.69452C22.5751 8.62848 22.3475 8.59567 22.1133 8.5934C24.0018 8.3507 25.7992 8.67351 27.7267 9.00565C28.2057 9.37583 28.5995 9.94877 28.9048 10.6909Z" fill="white"/>
</g>
</g>
<path d="M34.1729 26.6859C35.1061 28.9101 33.7172 31.0344 32.4965 31.6141C32.1002 31.8025 31.6254 32.0328 31.1887 32.3777C31.1873 32.3787 31.187 32.38 31.187 32.38C30.7618 32.7124 30.3732 33.1527 30.1227 33.763C29.8348 34.4593 29.7275 35.3765 29.9516 36.6108C30.5763 40.0469 28.079 40.5784 26.734 40.5434C25.3891 40.5084 25.0545 41.2994 24.0419 42.7717C23.0293 44.2441 20.5207 42.9969 19.9766 41.068L19.9772 41.0642C22.5302 41.3543 25.9197 37.342 28.4605 31.3179C28.4607 31.3166 28.4607 31.3166 28.4607 31.3166C29.0661 29.8818 29.6227 28.3332 30.1095 26.7C32.74 17.8642 32.2981 9.93479 29.1232 8.98879C31.7613 7.34686 34.5241 7.262 34.1497 10.5306C34.0344 11.54 32.5211 14.1542 34.6659 15.6456C36.9802 17.2546 36.4106 19.8462 35.1432 21.0768C33.8759 22.3074 33.2398 24.4605 34.1729 26.6859Z" fill="#FFEBCC"/>
<g opacity="0.3">
<g opacity="0.3">
<path opacity="0.3" d="M25.5011 43.0994C25.4957 43.1077 25.4905 43.1147 25.4851 43.123C24.99 43.0136 24.5082 42.896 24.042 42.7719C24.0457 42.7659 24.0508 42.7589 24.0545 42.7529C24.5222 42.876 25.0058 42.9913 25.5011 43.0994Z" fill="#6B184E"/>
</g>
<g opacity="0.3">
<path opacity="0.3" d="M25.5111 43.1874L25.4724 43.1789C24.9871 43.0717 24.5007 42.9534 24.0268 42.8272L23.9521 42.8073L23.9928 42.7416C23.995 42.738 23.9977 42.7341 24.0003 42.7301C24.002 42.7276 24.0038 42.725 24.0053 42.7227L24.0276 42.6865L24.0687 42.6973C24.5218 42.8166 25.0077 42.933 25.5129 43.0433L25.5939 43.061L25.5488 43.1305C25.5457 43.1352 25.5427 43.1396 25.5397 43.1439C25.5374 43.1472 25.5351 43.1506 25.5327 43.1542L25.5111 43.1874Z" fill="#2E3349"/>
</g>
</g>
<path d="M30.1093 26.7C29.6225 28.3332 29.0659 29.8818 28.4605 31.3166C28.4605 31.3166 28.4605 31.3166 28.4603 31.3179C25.9195 37.342 22.53 41.3543 19.977 41.0642C19.8464 41.0495 19.7191 41.0236 19.5938 40.9861C19.3244 40.9052 19.0741 40.7749 18.8438 40.598C18.9657 40.5637 19.0889 40.5218 19.2122 40.4719C19.2405 40.461 19.2689 40.4488 19.2961 40.4363C19.3884 40.3983 19.4802 40.3548 19.5743 40.3065C19.6176 40.285 19.6598 40.262 19.7037 40.2367C19.8464 40.1585 19.9908 40.0702 20.1355 39.9726C20.1563 39.9591 20.1786 39.9445 20.1996 39.9297C20.2415 39.9013 20.2835 39.8717 20.3258 39.8408L20.326 39.8395C20.454 39.747 20.5819 39.6479 20.7108 39.5423C20.7525 39.5073 20.7956 39.4713 20.839 39.434C20.8821 39.3979 20.9255 39.3606 20.9678 39.3218C21.1406 39.1685 21.3126 39.0045 21.4869 38.8277C21.5301 38.7838 21.5733 38.7399 21.6169 38.6934C21.694 38.6131 21.7719 38.5291 21.8499 38.4437C21.8632 38.4276 21.8791 38.4118 21.894 38.3946C21.9316 38.3524 21.9692 38.3101 22.0071 38.2666C22.109 38.1498 22.2116 38.0291 22.3133 37.9057C22.365 37.8435 22.4169 37.78 22.4676 37.7149C22.5885 37.5645 22.7078 37.4085 22.8277 37.2487C22.9013 37.1507 22.9739 37.0512 23.0469 36.9492C23.2132 36.7196 23.3773 36.4791 23.5416 36.2308C23.5806 36.1729 23.6183 36.1149 23.6563 36.0555C23.6688 36.0366 23.6813 36.0177 23.6937 35.9987C23.7783 35.8684 23.8617 35.7365 23.9446 35.6006C24.0616 35.4113 24.1781 35.2179 24.2942 35.0192C24.3445 34.9343 24.3937 34.8479 24.4429 34.7615C24.5772 34.5264 24.7113 34.2847 24.845 34.0376C24.8765 33.9772 24.9095 33.9157 24.9413 33.8539C25.186 33.3915 25.426 32.911 25.6597 32.4137C25.7321 32.2615 25.802 32.1088 25.8737 31.9538C25.9953 31.6849 26.1166 31.4106 26.2344 31.1332C26.2719 31.0461 26.3094 30.959 26.3458 30.8704C26.3588 30.841 26.3705 30.8114 26.3837 30.7807L26.3839 30.7794C26.4084 30.7217 26.4331 30.6627 26.4563 30.6048C26.8385 29.6758 27.2008 28.7012 27.5355 27.6888L27.5378 27.6826C27.5872 27.5343 27.6356 27.3845 27.6839 27.2347C27.779 26.9361 27.8723 26.6333 27.9632 26.3288C28.5447 24.3772 28.9749 22.4693 29.2608 20.6721C29.2739 20.5887 29.287 20.5053 29.2986 20.423C29.3273 20.2342 29.3543 20.0478 29.3798 19.8623C29.3925 19.7736 29.4039 19.6846 29.4153 19.5957C29.4292 19.4926 29.4416 19.3906 29.454 19.2887C29.4702 19.1491 29.4864 19.0096 29.5012 18.8711C29.5046 18.8361 29.5091 18.8026 29.5125 18.7676C29.52 18.6938 29.5275 18.6199 29.535 18.5461C29.578 18.1067 29.6116 17.6763 29.6356 17.256C29.6492 17.0172 29.6596 16.7817 29.6666 16.551C29.6751 16.3112 29.6789 16.076 29.6795 15.8441C29.6811 15.7666 29.6811 15.6901 29.6799 15.6135C29.6794 15.5936 29.6801 15.574 29.6796 15.5541C29.6775 15.3455 29.6736 15.1392 29.6663 14.9376C29.6585 14.7162 29.6472 14.4993 29.6338 14.2875C29.6289 14.2168 29.624 14.146 29.6176 14.0764C29.5985 13.8213 29.5729 13.5731 29.5434 13.332C29.5371 13.2848 29.5307 13.2376 29.5244 13.1904C29.5177 13.1378 29.5107 13.0865 29.5036 13.0365C29.487 12.919 29.4687 12.8038 29.4487 12.6909C29.4384 12.6285 29.4279 12.5674 29.4161 12.506C29.4058 12.4515 29.3954 12.397 29.3851 12.3425C29.3824 12.3275 29.3797 12.3126 29.3757 12.2974C29.3588 12.2127 29.3405 12.1278 29.3218 12.0455C29.2769 11.848 29.2281 11.6576 29.1743 11.473C29.1597 11.4204 29.1427 11.366 29.1266 11.3145C29.0387 11.0304 28.9408 10.7657 28.8315 10.5214C28.8182 10.4914 28.805 10.4615 28.7902 10.4325C28.774 10.3968 28.7575 10.3623 28.7411 10.3278L28.7413 10.3265C28.6711 10.1839 28.5981 10.05 28.5211 9.92334C28.4862 9.86592 28.4499 9.80953 28.412 9.75422C28.3478 9.66007 28.2828 9.57108 28.2142 9.48801C28.1938 9.46077 28.1707 9.43435 28.1487 9.40946C28.1237 9.37876 28.0972 9.34914 28.0705 9.32079C28.0437 9.29246 28.017 9.2641 27.9898 9.23829C27.9709 9.2179 27.9506 9.19856 27.9301 9.17922C27.9121 9.1616 27.8928 9.14375 27.8733 9.12719C27.8253 9.08463 27.7768 9.0446 27.7269 9.00564C28.2161 8.86751 28.6842 8.85889 29.123 8.98883C32.2979 9.93481 32.7398 17.8642 30.1093 26.7Z" fill="#4A83FF"/>
<g opacity="0.65">
<g opacity="0.65">
<path opacity="0.65" d="M31.518 12.6413C31.0657 11.5074 30.4129 10.7552 29.5642 10.5029C29.3133 10.4292 29.0522 10.3998 28.7833 10.4153C28.77 10.3853 28.7552 10.3564 28.7417 10.3277L28.742 10.3264C28.4632 9.75887 28.1251 9.31287 27.7275 9.00552C28.2167 8.86739 28.6848 8.85877 29.1236 8.98871C30.3069 9.34106 31.1114 10.6638 31.518 12.6413Z" fill="white"/>
</g>
</g>
<path d="M14.7615 38.4847C14.4868 38.4847 14.2191 38.4464 13.9596 38.3691C13.696 38.2908 13.4434 38.1718 13.2089 38.0154C12.5105 37.553 11.9538 36.7626 11.5552 35.6669C11.18 34.6355 10.9541 33.3615 10.8836 31.8804C10.7405 28.8711 11.2604 25.2046 12.3475 21.5562C13.4376 17.8954 15.0144 14.534 16.7875 12.0911C17.6604 10.8884 18.5498 9.94664 19.431 9.29192C20.362 8.60019 21.2579 8.24951 22.0941 8.24951C22.0955 8.24951 22.0969 8.24951 22.0983 8.24951C22.1045 8.24924 22.1107 8.24905 22.117 8.24919C22.3851 8.25181 22.647 8.29065 22.8955 8.36461C24.5762 8.86537 25.6524 10.9286 25.9259 14.1743C26.1902 17.311 25.6865 21.2187 24.5077 25.1775C23.3288 29.1371 21.6126 32.684 19.6754 35.1648C17.9802 37.3358 16.2668 38.4847 14.7615 38.4847ZM22.094 8.93777C21.409 8.93777 20.6512 9.24273 19.8415 9.84437C19.0164 10.4574 18.1763 11.3493 17.3445 12.4954C15.6159 14.8769 14.0755 18.1645 13.0071 21.7526C11.9416 25.3287 11.4316 28.9139 11.5711 31.8478C11.6383 33.2596 11.8505 34.4654 12.202 35.4317C12.5491 36.3859 13.016 37.0623 13.5898 37.4422C13.7679 37.561 13.9581 37.6507 14.1559 37.7095C14.837 37.9124 15.6137 37.7601 16.4646 37.2569C17.3323 36.7439 18.2301 35.8975 19.1329 34.7413C21.0185 32.3265 22.6931 28.8603 23.8481 24.9812C25.003 21.1027 25.4973 17.2852 25.2401 14.2321C25.1169 12.7703 24.8286 11.5706 24.3831 10.6664C23.9461 9.77949 23.3796 9.22702 22.6991 9.02424C22.518 8.97033 22.3262 8.94121 22.1288 8.9377C22.1179 8.93823 22.107 8.93826 22.0959 8.9378C22.0953 8.93777 22.0947 8.93777 22.094 8.93777ZM21.9167 8.31111C21.9164 8.31127 21.9162 8.31143 21.916 8.31159C21.9162 8.31143 21.9164 8.31127 21.9167 8.31111Z" fill="#2E3349"/>
<path d="M20.2426 41.4231C20.1402 41.4231 20.0389 41.4174 19.9386 41.4061C19.789 41.3893 19.6398 41.3588 19.4955 41.3157C19.1884 41.2234 18.8988 41.0738 18.6345 40.8708C18.5312 40.7914 18.4815 40.6604 18.5063 40.5325C18.5311 40.4045 18.626 40.3015 18.7515 40.2664C19.1764 40.1478 19.6319 39.9152 20.1057 39.5753C20.1119 39.5702 20.1183 39.5652 20.1248 39.5605C21.4415 38.6093 22.8332 36.8881 24.1494 34.5826C25.5122 32.1959 26.717 29.3078 27.6337 26.2304C28.6038 22.972 29.1837 19.7385 29.3104 16.8799C29.433 14.1158 29.1294 11.9025 28.4324 10.4791C28.4292 10.4725 28.4262 10.4658 28.4233 10.459C28.1667 9.94182 27.8617 9.54445 27.5168 9.27781C27.414 9.19831 27.3647 9.06769 27.3894 8.94006C27.4141 8.81246 27.5086 8.70969 27.6337 8.67438C28.1907 8.51712 28.7248 8.51184 29.221 8.65876C30.9067 9.16103 31.9421 11.3656 32.1371 14.8665C32.3256 18.2504 31.7227 22.4878 30.4395 26.7981C30.4395 26.7981 30.4395 26.7982 30.4395 26.7982C29.21 30.9259 27.4778 34.6903 25.5621 37.3979C24.6191 38.7308 23.6709 39.7547 22.7437 40.4411C21.8623 41.0937 21.0225 41.4231 20.2426 41.4231ZM19.6628 40.647C19.6728 40.6502 19.683 40.6533 19.6931 40.6564C19.7993 40.6882 19.9049 40.7097 20.0158 40.7222C20.7017 40.8 21.4815 40.5192 22.3342 39.8879C23.2026 39.245 24.0996 38.2735 25.0003 37.0004C26.8738 34.3524 28.5712 30.6594 29.7799 26.6017V26.6017C31.041 22.3655 31.6341 18.2114 31.45 14.9048C31.3617 13.3196 31.0999 12.0232 30.6719 11.0513C30.254 10.1026 29.7 9.51958 29.0251 9.3185C28.8442 9.26496 28.6542 9.23963 28.4577 9.24096C28.6768 9.50536 28.8751 9.81745 29.0506 10.1747C29.0541 10.1819 29.0574 10.1893 29.0604 10.1967C29.8009 11.7236 30.1251 14.0444 29.998 16.9104C29.8688 19.8244 29.2793 23.1152 28.2934 26.4269C27.3618 29.5539 26.1356 32.4921 24.7472 34.9239C23.3889 37.3027 21.9372 39.0933 20.5475 40.1041C20.5411 40.1095 20.5345 40.1147 20.5277 40.1196C20.2354 40.3309 19.9463 40.5071 19.6628 40.647ZM30.1097 26.6999H30.1099H30.1097Z" fill="#2E3349"/>
<path d="M18.8439 40.9421C18.8243 40.9421 18.8047 40.9404 18.7853 40.937C17.509 40.7162 15.1104 39.6094 13.1789 37.993C13.0388 37.8757 13.0148 37.6693 13.1242 37.523C13.2338 37.3766 13.4386 37.3415 13.5906 37.4428C13.7679 37.561 13.9582 37.6507 14.156 37.7095C14.8369 37.9124 15.6136 37.7601 16.4647 37.2569C17.3324 36.7439 18.2301 35.8975 19.133 34.7413C21.0185 32.3266 22.6931 28.8603 23.8481 24.9812C25.003 21.1027 25.4973 17.2853 25.2401 14.2322C25.1169 12.7704 24.8286 11.5707 24.3831 10.6664C23.9462 9.77952 23.3796 9.22705 22.6991 9.02428C22.5123 8.96867 22.3142 8.93946 22.1103 8.93746C21.9294 8.9357 21.7808 8.79422 21.7702 8.61367C21.7595 8.43312 21.8904 8.2751 22.0698 8.25205C23.9681 8.00809 25.7604 8.31725 27.658 8.6445L27.7855 8.66648C27.8408 8.676 27.8929 8.69888 27.9373 8.73313C28.6042 9.24754 29.1224 10.1053 29.4774 11.2824C29.8125 12.3932 29.9954 13.7605 30.0212 15.3465C30.0738 18.5723 29.4601 22.5074 28.2932 26.4269V26.4269C26.0207 34.0575 22.1733 40.021 18.937 40.9292C18.9065 40.9378 18.8753 40.9421 18.8439 40.9421ZM14.9903 38.476C16.4125 39.4068 17.9071 40.0641 18.8256 40.2446C20.2139 39.8163 21.8364 38.2467 23.4048 35.8119C25.0542 33.2515 26.5559 29.8487 27.6335 26.2305C28.7809 22.3766 29.3845 18.5152 29.333 15.3577C29.3082 13.8353 29.1351 12.531 28.8184 11.4812C28.5179 10.485 28.102 9.76177 27.5813 9.32967L27.541 9.32272C26.2764 9.10461 25.0598 8.89482 23.8414 8.85864C24.9796 9.75048 25.7078 11.5866 25.9258 14.1744C26.1901 17.311 25.6865 21.2187 24.5077 25.1776C23.3287 29.1371 21.6126 32.684 19.6753 35.1649C18.0655 37.2266 16.4391 38.3665 14.9903 38.476ZM27.9633 26.3287H27.9636H27.9633Z" fill="#2E3349"/>
<path d="M22.7884 43.7614C22.6651 43.7614 22.5384 43.7509 22.4093 43.7296C21.8305 43.6339 21.2343 43.33 20.7307 42.8737C20.2093 42.4013 19.824 41.7932 19.6458 41.1614C19.6317 41.1116 19.629 41.0594 19.638 41.0085L19.6387 41.0047C19.6701 40.8255 19.8355 40.7015 20.0164 40.7222C20.7018 40.7999 21.4818 40.5192 22.3345 39.8879C23.2028 39.245 24.0998 38.2735 25.0006 37.0004C26.8741 34.3524 28.5715 30.6594 29.7801 26.6017C31.0413 22.3655 31.6344 18.2114 31.4502 14.9048C31.3619 13.3196 31.1001 12.0231 30.6721 11.0514C30.2543 10.1026 29.7002 9.51957 29.0253 9.31849C28.8956 9.27983 28.8006 9.1687 28.7826 9.03454C28.7645 8.90036 28.8269 8.76808 28.9418 8.69657C30.8196 7.52781 32.5525 7.21711 33.5773 7.86543C34.0982 8.19492 34.6796 8.93156 34.492 10.5697C34.4637 10.8178 34.3701 11.123 34.2616 11.4763C33.8915 12.6828 33.3845 14.3351 34.8628 15.363C36.167 16.2698 36.5167 17.3885 36.5803 18.1673C36.6735 19.3068 36.2148 20.5163 35.3834 21.3237C34.3719 22.3058 33.5313 24.2646 34.4906 26.5528C34.9417 27.628 34.9303 28.8181 34.4584 29.9038C34.0666 30.8052 33.3716 31.5796 32.6446 31.9249C31.4735 32.481 29.7037 33.3215 30.2906 36.5492C30.5415 37.9294 30.3387 39.0144 29.6877 39.7741C28.7872 40.825 27.3161 40.9026 26.7255 40.8873C25.7373 40.8613 25.4274 41.3252 24.6783 42.4451C24.5676 42.6105 24.4532 42.7816 24.3259 42.9667C23.9711 43.4825 23.4235 43.7614 22.7884 43.7614ZM20.4755 41.4135C20.8757 42.2429 21.6907 42.9133 22.5214 43.0505C22.8947 43.1122 23.4125 43.0801 23.7588 42.5767C23.8836 42.3952 23.9968 42.226 24.1063 42.0624C24.4968 41.4786 24.8053 41.0174 25.1857 40.6969C25.6141 40.3359 26.0947 40.1821 26.7434 40.1993C27.2358 40.2125 28.4569 40.1527 29.1651 39.3262C29.6746 38.7316 29.8255 37.8386 29.6134 36.6722C29.4596 35.8258 29.4472 35.06 29.5767 34.3959C29.6913 33.808 29.9203 33.2827 30.2574 32.8343C30.8862 31.9979 31.7667 31.5798 32.3493 31.3031C33.3633 30.8216 34.7339 28.9114 33.856 26.819C33.856 26.819 33.8559 26.8189 33.8559 26.8189C33.392 25.7124 33.2677 24.5434 33.4964 23.4384C33.7038 22.4362 34.2037 21.5098 34.9039 20.8298C35.5917 20.162 35.9712 19.1632 35.8944 18.2233C35.8204 17.3182 35.3278 16.5245 34.4699 15.928C32.5793 14.6134 33.2205 12.5232 33.6037 11.2744C33.7021 10.9536 33.7871 10.6765 33.8082 10.4914C33.9263 9.46086 33.7248 8.77306 33.2094 8.44702C32.831 8.2076 32.2689 8.15732 31.5839 8.30141C31.0529 8.41311 30.4689 8.63644 29.8696 8.95514C31.1717 9.78128 31.9687 11.8393 32.1374 14.8664C32.3259 18.2503 31.723 22.4877 30.4397 26.7981C29.2102 30.9259 27.4781 34.6903 25.5624 37.3979C24.6194 38.7307 23.6711 39.7546 22.744 40.441C21.9495 41.0293 21.1888 41.355 20.4755 41.4135Z" fill="#2E3349"/>
<path d="M55.0611 33.1782C54.6644 34.6108 54.1997 35.9328 53.6778 37.129L53.6763 37.13C51.2719 42.6321 47.6328 45.4664 43.6621 44.1982C45.3446 43.9581 47.1267 42.6926 48.7211 40.7067C49.9343 39.1952 51.0391 37.2656 51.9088 35.0502C52.1819 34.3554 52.431 33.6314 52.6538 32.8844C54.4087 26.9918 53.9363 21.4178 51.739 18.9196C56.1983 20.1286 57.0881 25.8578 55.0611 33.1782Z" fill="#4A83FF"/>
<g opacity="0.65">
<g opacity="0.65">
<path opacity="0.65" d="M56.0474 25.2994C55.5874 23.2269 54.5558 21.6935 52.9071 20.9153C52.5991 20.1279 52.2085 19.4527 51.7393 18.9194C54.4033 19.6413 55.7933 21.9762 56.0474 25.2994Z" fill="white"/>
</g>
</g>
<path d="M19.9414 37.7891C20.3752 38.0568 20.9954 37.8386 21.3267 37.3017C21.658 36.7649 21.5748 36.1126 21.141 35.8449C20.7072 35.5772 20.0869 35.7954 19.7557 36.3323C19.4244 36.8692 19.5075 37.5214 19.9414 37.7891Z" fill="#2E3349"/>
<path d="M25.26 28.637C25.7486 28.7825 26.2906 28.4103 26.4707 27.8056C26.6507 27.201 26.4006 26.5929 25.912 26.4474C25.4234 26.3019 24.8814 26.6741 24.7013 27.2788C24.5213 27.8834 24.7714 28.4915 25.26 28.637Z" fill="#2E3349"/>
<path d="M27.5285 17.3809C28.0354 17.4349 28.5006 16.9701 28.5674 16.3428C28.6342 15.7154 28.2774 15.1631 27.7704 15.1091C27.2635 15.0551 26.7984 15.5199 26.7316 16.1472C26.6648 16.7746 27.0216 17.3269 27.5285 17.3809Z" fill="#2E3349"/>
<path d="M52.6539 32.8842C52.431 33.6312 52.1819 34.3552 51.9088 35.05C51.8454 35.2105 51.7823 35.3696 51.7156 35.5267C50.8793 37.5423 49.8467 39.3051 48.7212 40.7066C47.1386 42.6774 45.3717 43.9389 43.7002 44.1915C43.6878 44.1946 43.6743 44.1962 43.6622 44.1981C39.8956 44.8434 31.7254 44.5213 25.4851 43.1228C24.99 43.0134 24.5082 42.8958 24.042 42.7716C24.0457 42.7657 24.0508 42.7587 24.0545 42.7527C24.1797 42.5701 24.2952 42.3976 24.4021 42.2369C24.4021 42.2369 24.4034 42.2371 24.4036 42.2358C24.4163 42.2156 24.4288 42.1967 24.4426 42.178C24.4553 42.1578 24.4693 42.1378 24.482 42.1176C24.5154 42.0693 24.5473 42.0221 24.5777 41.976C24.6022 41.9407 24.6251 41.9077 24.6479 41.8748C24.6656 41.8488 24.6833 41.8229 24.7007 41.7982C24.7505 41.7238 24.8009 41.6534 24.8509 41.5856C24.8956 41.5248 24.9387 41.4664 24.9839 41.4109C25.0061 41.3818 25.0293 41.3542 25.051 41.3276C25.1431 41.2144 25.237 41.1133 25.3341 41.0247C25.359 41.0026 25.3826 40.9803 25.4073 40.9596C25.4088 40.9585 25.4103 40.9575 25.412 40.9551C25.4442 40.9291 25.4764 40.903 25.5094 40.8797C25.5159 40.8729 25.5232 40.8689 25.5307 40.8636C25.5577 40.8446 25.5845 40.8268 25.6124 40.8106C25.6527 40.7833 25.6936 40.76 25.7353 40.7396C25.7514 40.7305 25.7673 40.7227 25.7844 40.7151C25.8176 40.6984 25.8531 40.6835 25.8884 40.6698C25.9477 40.6471 26.0091 40.6274 26.0729 40.6095C26.1364 40.5928 26.2033 40.5793 26.2736 40.569C26.2845 40.567 26.2952 40.5662 26.3061 40.5641C26.3668 40.5562 26.4285 40.5497 26.4937 40.5465C26.5695 40.5425 26.6502 40.5406 26.7341 40.5433C28.079 40.5782 30.5764 40.0468 29.9517 36.6106C29.7276 35.3764 29.8349 34.4591 30.1227 33.7629C30.1362 33.7309 30.1496 33.699 30.1641 33.6686C30.1732 33.6464 30.1836 33.6245 30.1938 33.6039C30.2067 33.5745 30.221 33.5453 30.2363 33.5176C30.2424 33.5055 30.2485 33.4934 30.2545 33.4813L30.256 33.4802C30.2871 33.4223 30.3182 33.3644 30.3514 33.3095C30.3807 33.2619 30.4114 33.2145 30.4418 33.1683C30.4842 33.1058 30.5275 33.0461 30.5731 32.9881C30.6069 32.9452 30.6417 32.9037 30.6766 32.8623C30.7641 32.7602 30.8567 32.6668 30.9523 32.5792C30.9867 32.5482 31.0197 32.517 31.0551 32.4876C31.0985 32.4503 31.1429 32.4144 31.1871 32.3799C31.1871 32.3799 31.1873 32.3787 31.1888 32.3776C31.6255 32.0327 32.1002 31.8024 32.4966 31.614C33.7172 31.0343 35.1062 28.91 34.173 26.6858C33.2399 24.4604 33.876 22.3073 35.1433 21.0767C36.4107 19.8461 36.9803 17.2545 34.666 15.6455C32.5212 14.1541 34.0345 11.54 34.1498 10.5305C34.5827 10.6186 35.0279 10.7193 35.4846 10.83C41.2049 12.2242 48.5254 15.3478 51.3922 18.5628L51.3966 18.5676C51.5148 18.6763 51.629 18.7936 51.7391 18.9194C53.9363 21.4177 54.4087 26.9917 52.6539 32.8842Z" fill="#FEB71F"/>
<g opacity="0.65">
<g opacity="0.65">
<path opacity="0.65" d="M53.2531 30.5049C53.9346 26.0242 53.2768 22.1012 51.5322 20.1176C51.4221 19.9918 51.308 19.8745 51.1897 19.7657L51.1853 19.761C48.0899 16.2902 39.8031 12.9243 33.9429 11.7287C33.9012 12.0997 33.6706 12.6859 33.501 13.3538C33.5786 12.2956 34.0533 11.2733 34.1165 10.7253C39.9766 11.921 48.2635 15.2869 51.3588 18.7577L51.3633 18.7624C51.4815 18.8712 51.5957 18.9885 51.7057 19.1143C53.5793 21.2441 54.1985 25.6112 53.2531 30.5049Z" fill="white"/>
</g>
</g>
<g opacity="0.65">
<g opacity="0.65">
<path opacity="0.65" d="M53.4246 25.6859C49.9169 22.3124 41.135 19.2443 35.5371 17.748L36.0984 16.9099C42.1116 18.2132 47.8504 21.0513 53.4686 24.5634L53.4246 25.6859Z" fill="white"/>
</g>
</g>
<g opacity="0.65">
<g opacity="0.65">
<path opacity="0.65" d="M53.2036 31.3725C49.4315 29.7521 41.1701 27.1943 33.6689 25.3425L34.0838 24.4395L50.8022 29.4443L53.2411 30.6006L53.2036 31.3725Z" fill="white"/>
</g>
</g>
<path d="M38.7475 44.8597C37.475 44.8597 36.1014 44.815 34.6915 44.7241C30.7357 44.4692 26.9223 43.8939 23.9539 43.1042C23.8458 43.0755 23.7584 42.996 23.7196 42.891C23.6808 42.7861 23.6954 42.6689 23.7588 42.5767C23.8836 42.3952 23.9968 42.226 24.1063 42.0624C24.4968 41.4786 24.8053 41.0174 25.1857 40.6969C25.6142 40.3359 26.0945 40.1826 26.7434 40.1993C27.2358 40.2122 28.457 40.1527 29.1651 39.3263C29.6747 38.7316 29.8255 37.8386 29.6135 36.6723C29.4596 35.8258 29.4472 35.06 29.5767 34.396C29.6914 33.8081 29.9204 33.2827 30.2574 32.8344C30.8863 31.998 31.7667 31.5798 32.3494 31.3032C33.3633 30.8217 34.7339 28.9114 33.856 26.819C33.392 25.7124 33.2677 24.5435 33.4964 23.4385C33.7038 22.4363 34.2037 21.5099 34.904 20.8299C35.5917 20.162 35.9713 19.1633 35.8944 18.2234C35.8204 17.3183 35.3278 16.5245 34.4699 15.9281C32.5793 14.6134 33.2205 12.5233 33.6037 11.2744C33.7021 10.9537 33.7871 10.6766 33.8083 10.4915C33.8192 10.3956 33.8699 10.3087 33.948 10.252C34.0261 10.1953 34.1245 10.1741 34.219 10.1933C37.2545 10.8127 40.8008 11.9739 43.9484 13.3793C45.6285 14.1294 47.1263 14.9171 48.4002 15.7206C49.7886 16.5963 50.8789 17.4724 51.6412 18.3247C51.7642 18.4386 51.8843 18.5624 51.9984 18.6929C52.5713 19.3441 53.037 20.1935 53.3822 21.2167C53.7179 22.2118 53.9332 23.3517 54.0222 24.6046C54.2056 27.1889 53.8467 30.086 52.984 32.9825V32.9824C52.5227 34.532 51.9371 36.0112 51.2435 37.3791C50.5716 38.7044 49.8133 39.8964 48.9899 40.9221C48.1679 41.946 47.3038 42.7761 46.4216 43.3896C45.5078 44.025 44.5975 44.4114 43.7159 44.5381C42.4714 44.7508 40.7326 44.8597 38.7475 44.8597ZM24.601 42.5605C28.9024 43.6389 34.4665 44.1718 38.7946 44.1718C40.7134 44.1718 42.3887 44.0672 43.6044 43.8589C43.6075 43.8584 43.6107 43.8578 43.6139 43.8574C45.1701 43.6353 46.8887 42.4398 48.4532 40.4912C50.0696 38.4778 51.4445 35.7413 52.3244 32.7861C52.3244 32.786 52.3244 32.786 52.3244 32.786C53.1636 29.9681 53.5133 27.1559 53.3356 24.6533C53.1663 22.2697 52.5077 20.3141 51.481 19.1467C51.3791 19.0302 51.2726 18.9208 51.1639 18.8209C51.158 18.8154 51.1522 18.8096 51.1466 18.8037L51.1421 18.799C51.1399 18.7967 51.1378 18.7943 51.1357 18.7919C49.7501 17.2383 47.0979 15.5392 43.6678 14.0078C40.6801 12.6738 37.3307 11.5634 34.4188 10.9383C34.3765 11.1021 34.3213 11.2819 34.2616 11.4763C33.8915 12.6828 33.3846 14.3351 34.8628 15.363C36.167 16.2698 36.5167 17.3885 36.5803 18.1673C36.6735 19.3068 36.2149 20.5162 35.3834 21.3236C34.3719 22.3057 33.5313 24.2645 34.4906 26.5528C34.9417 27.628 34.9303 28.8181 34.4584 29.9038C34.0666 30.8052 33.3716 31.5796 32.6446 31.9249C31.4735 32.481 29.7037 33.3214 30.2906 36.5491C30.5415 37.9293 30.3387 39.0144 29.6877 39.7741C28.7872 40.825 27.3161 40.9026 26.7255 40.8873C25.7375 40.862 25.4274 41.3252 24.6783 42.445C24.6528 42.4832 24.627 42.5217 24.601 42.5605Z" fill="#2E3349"/>
<path d="M45.5302 44.8417C44.8766 44.8417 44.2156 44.7361 43.5578 44.5259C43.405 44.4771 43.3062 44.3292 43.3196 44.1693C43.333 44.0095 43.4551 43.8801 43.6139 43.8574C45.17 43.6354 46.8887 42.4399 48.4532 40.4912C50.0696 38.4778 51.4444 35.7414 52.3244 32.7861C53.1636 29.9681 53.5132 27.1559 53.3356 24.6534C53.1663 22.2697 52.5077 20.3141 51.481 19.1467C51.3807 19.0327 51.367 18.8664 51.4473 18.7375C51.5276 18.6086 51.6829 18.5476 51.8294 18.5873C53.3404 18.997 54.5048 19.9037 55.2904 21.2823C56.0471 22.6101 56.4326 24.3453 56.4361 26.4394C56.4395 28.4599 56.0886 30.7581 55.3931 33.27C53.9053 38.6424 51.4812 42.469 48.5673 44.0447C47.7821 44.4693 46.9641 44.7272 46.136 44.8111C45.9351 44.8315 45.7329 44.8417 45.5302 44.8417ZM45.0982 44.1368C46.1709 44.2223 47.223 43.9893 48.24 43.4393C50.9877 41.9534 53.2926 38.2767 54.7299 33.0863C56.0995 28.1399 56.0862 24.0688 54.6925 21.623C54.1926 20.7459 53.5193 20.0859 52.683 19.6515C52.953 20.1148 53.1869 20.6379 53.3822 21.2167C53.7179 22.2118 53.9332 23.3517 54.0221 24.6046C54.2056 27.1889 53.8467 30.0859 52.984 32.9825C52.5226 34.532 51.9371 36.0112 51.2435 37.3791C50.5715 38.7044 49.8133 39.8964 48.9899 40.922C48.1679 41.9459 47.3037 42.7761 46.4215 43.3896C45.9786 43.6976 45.5366 43.947 45.0982 44.1368ZM55.0615 33.1782H55.0617H55.0615Z" fill="#2E3349"/>
<path d="M53.6877 25.1116C53.6018 25.1116 53.5159 25.0797 53.4492 25.0155C50.1414 21.8342 41.8266 18.7966 35.7114 17.1621C35.5278 17.113 35.4187 16.9244 35.4678 16.7408C35.5169 16.5571 35.7056 16.4483 35.8891 16.4972C39.1787 17.3765 42.7397 18.5718 45.6591 19.7765C49.536 21.3764 52.3174 22.9722 53.9262 24.5195C54.0632 24.6512 54.0674 24.869 53.9357 25.006C53.8682 25.0762 53.778 25.1116 53.6877 25.1116Z" fill="#2E3349"/>
<g opacity="0.3">
<g opacity="0.3">
<path opacity="0.3" d="M53.5541 37.0758C51.1824 42.5031 47.6082 45.3354 43.7004 44.1915C43.6475 44.1771 43.5936 44.1612 43.5399 44.1439C39.8005 44.7848 31.7235 44.4722 25.5013 43.0992C25.0059 42.9911 24.5224 42.8758 24.0547 42.7527C24.0864 42.7068 24.1165 42.6619 24.1465 42.6184C24.2103 42.5239 24.2723 42.4319 24.3309 42.3445C24.3792 42.2711 24.427 42.2003 24.4732 42.1318C24.4753 42.1269 24.4788 42.1223 24.4822 42.1176C24.557 42.0053 24.6294 41.8992 24.7009 41.7982C24.7507 41.7238 24.8011 41.6534 24.851 41.5856C24.8958 41.5249 24.9389 41.4664 24.9841 41.4109C25.0062 41.3818 25.0295 41.3542 25.0512 41.3277C25.0746 41.2987 25.0981 41.2698 25.1226 41.2425C25.1699 41.19 25.2155 41.1399 25.2632 41.0928C25.2857 41.069 25.3093 41.0468 25.3343 41.0247C25.3592 41.0026 25.3828 40.9804 25.4075 40.9596C25.5541 40.836 25.7107 40.7379 25.8886 40.6698C25.9479 40.6471 26.0093 40.6274 26.073 40.6095C26.1366 40.5928 26.2035 40.5793 26.2738 40.5691C26.309 40.5633 26.3441 40.5588 26.3817 40.5548C26.4193 40.5507 26.4567 40.548 26.4938 40.5465C26.5712 40.5414 26.6504 40.5406 26.7343 40.5433C28.0792 40.5783 30.5766 40.0468 29.9519 36.6107C29.7278 35.3764 29.8351 34.4592 30.1229 33.7629C30.1454 33.7089 30.1693 33.655 30.1939 33.6039C30.2132 33.5611 30.2348 33.52 30.2562 33.4802C30.2873 33.4223 30.3184 33.3644 30.3516 33.3095C30.3809 33.2619 30.4116 33.2145 30.4419 33.1683C30.4844 33.1058 30.5277 33.0461 30.5733 32.9881C30.6071 32.9452 30.6419 32.9037 30.6768 32.8623C30.7643 32.7602 30.8569 32.6668 30.9525 32.5792C30.9869 32.5482 31.0199 32.517 31.0553 32.4876C31.0987 32.4503 31.1431 32.4144 31.1873 32.3799C31.1873 32.3799 31.1875 32.3787 31.189 32.3776C31.6256 32.0327 32.1004 31.8024 32.4968 31.614C33.7174 31.0343 35.1064 28.91 34.1732 26.6858C33.2401 24.4604 33.8762 22.3073 35.1435 21.0767C36.4108 19.8461 36.9805 17.2545 34.6662 15.6455C32.5214 14.1541 34.0347 11.54 34.15 10.5305C34.5829 10.6186 35.0281 10.7193 35.4848 10.83C35.479 10.9094 35.4717 10.9898 35.4624 11.0739C35.3471 12.0833 33.8338 14.6975 35.9786 16.1889C38.2928 17.7979 37.7232 20.3895 36.4559 21.6201C35.1885 22.8507 34.5524 25.0037 35.4855 27.2292C36.4188 29.4534 35.0298 31.5777 33.8092 32.1574C33.7145 32.2016 33.6167 32.2493 33.5143 32.3001C39.9278 33.6719 47.1908 35.8629 51.7866 34.9959C51.7866 34.9959 51.7477 35.2133 51.7158 35.5267C51.6012 36.6233 51.5662 38.8908 53.5541 37.0758Z" fill="#2E3349"/>
</g>
</g>
<g opacity="0.3">
<g opacity="0.3">
<path opacity="0.3" d="M32.3563 31.5687C31.9643 31.7553 31.4963 31.984 31.0659 32.3234C31.0644 32.3245 31.0642 32.3258 31.0642 32.3258L29.9998 33.7088L30.2555 33.4802C30.2072 33.5694 30.163 33.6645 30.1223 33.7629C29.8344 34.4591 29.7271 35.3764 29.9512 36.6106C30.5759 40.0468 28.0786 40.5782 26.7336 40.5433C25.394 40.5079 25.0567 41.2918 24.054 42.7527C24.0086 42.7409 23.9645 42.7293 23.9191 42.7175C23.4576 43.389 22.684 43.495 21.9289 43.2273C21.8667 43.206 21.8062 43.1824 21.7449 43.1559C21.713 43.1425 21.68 43.1276 21.6485 43.1116C21.6131 43.0949 21.5778 43.0783 21.5429 43.059C20.7865 42.6619 20.107 41.9117 19.8537 41.0138L19.8544 41.01C19.7238 40.9953 19.5965 40.9693 19.4712 40.9318C19.2018 40.851 18.9515 40.7207 18.7211 40.5437C17.6922 40.3657 15.9099 39.5829 14.2725 38.435L14.5492 38.0848C17.4289 38.1849 21.1579 33.4524 23.4938 26.7615C23.4938 26.7615 24.9626 28.2137 27.4152 27.6284L27.4129 27.6346L26.2501 30.5769C26.2501 30.5769 26.2478 30.6358 26.2613 30.7252L26.2611 30.7265C26.3159 31.08 26.6255 31.8888 28.3379 31.2624C28.3379 31.2624 28.3379 31.2624 28.3377 31.2637C28.3301 31.3151 28.1385 32.6738 29.7957 32.1077C29.7957 32.1077 29.8002 32.1045 29.8079 32.098C29.9403 32.0035 31.1055 31.1955 32.3563 31.5687Z" fill="#2E3349"/>
</g>
</g>
<g opacity="0.3">
<g opacity="0.3">
<path opacity="0.3" d="M22.0522 43.2815C21.9898 43.2614 21.9295 43.2365 21.8682 43.2101C21.9295 43.2365 21.99 43.2601 22.0522 43.2815Z" fill="#262F6A"/>
</g>
<g opacity="0.3">
<path opacity="0.3" d="M22.0339 43.3361C21.9721 43.3163 21.9136 43.2925 21.8447 43.2628L21.8901 43.1575C21.9521 43.1842 22.011 43.207 22.0701 43.2273L22.0339 43.3361Z" fill="#2E3349"/>
</g>
</g>
<path d="M45.0375 40.9198C43.4767 40.9198 41.6408 40.8208 39.7151 40.6324C35.6543 40.2352 31.8719 39.5225 29.844 38.7724C29.6657 38.7064 29.5747 38.5085 29.6406 38.3303C29.7066 38.152 29.9044 38.061 30.0827 38.1269C32.0293 38.847 35.8366 39.5616 39.7821 39.9475C43.9712 40.3572 47.4273 40.3223 49.0271 39.8541C49.2096 39.8007 49.4007 39.9053 49.4541 40.0877C49.5074 40.2701 49.4029 40.4613 49.2204 40.5147C48.3286 40.7756 46.9735 40.9118 45.1928 40.9195C45.1414 40.9197 45.0895 40.9198 45.0375 40.9198Z" fill="#2E3349"/>
<path d="M53.2664 30.7527C53.2211 30.7527 53.175 30.7437 53.1307 30.7247C49.3165 29.0862 41.1234 26.5577 33.6494 24.7126C33.4649 24.6671 33.3522 24.4806 33.3978 24.2961C33.4434 24.1115 33.6299 23.9988 33.8144 24.0444C41.3201 25.8974 49.558 28.4409 53.4024 30.0924C53.577 30.1674 53.6577 30.3697 53.5827 30.5444C53.5268 30.6747 53.3998 30.7527 53.2664 30.7527Z" fill="#2E3349"/>
<path d="M51.6764 35.9666C51.6736 35.9666 51.6708 35.9666 51.668 35.9665C50.0858 35.9282 46.8173 35.4744 43.1381 34.7821C39.0017 34.0038 35.0429 33.0665 31.9906 32.1429C31.8087 32.0879 31.7059 31.8958 31.7609 31.7139C31.816 31.532 32.008 31.4292 32.19 31.4842C38.9995 33.5447 48.7107 35.2065 51.6846 35.2784C51.8746 35.2831 52.0249 35.4408 52.0203 35.6308C52.0158 35.8179 51.8626 35.9666 51.6764 35.9666Z" fill="#2E3349"/>
<g opacity="0.3">
<g opacity="0.3">
<path opacity="0.3" d="M16.9352 25.5448C16.6027 26.4292 15.8689 27.0422 15.0182 27.2565C14.8818 27.2915 14.7415 27.315 14.6 27.3279L14.048 28.7968L11.7077 35.0204C11.2713 33.5217 11.1154 31.5658 11.2544 29.3358L12.0817 27.1344L12.3298 26.4759C12.2324 26.372 12.1427 26.2616 12.0622 26.1447C11.9284 25.9512 11.8194 25.7408 11.7388 25.52C11.9181 24.5616 12.1427 23.5784 12.4142 22.5797C13.1597 21.8575 14.2805 21.5874 15.3156 21.977C16.7494 22.516 17.4741 24.1135 16.9352 25.5448Z" fill="#2E3349"/>
</g>
</g>
<path d="M34.8344 37.7719L23.9689 51.9663L22.998 50.5024L33.8804 36.2869L34.8344 37.7719Z" fill="#798CEF"/>
<path d="M23.9656 52.065L22.9277 50.5L22.9526 50.4675L33.8846 36.1871L34.9045 37.7748L34.88 37.8068L23.9656 52.065ZM23.0685 50.5048L23.9723 51.8676L34.7645 37.769L33.8764 36.3866L23.0685 50.5048Z" fill="#2E3349"/>
<path d="M36.5574 38.2717L34.8339 37.772L33.8799 36.287L35.6034 36.7866L36.5574 38.2717Z" fill="#798CEF"/>
<path d="M36.6884 38.3692L34.7973 37.821L33.749 36.1892L35.6401 36.7374L36.6884 38.3692ZM34.8706 37.7229L36.4265 38.1739L35.5668 36.8356L34.0108 36.3845L34.8706 37.7229Z" fill="#2E3349"/>
<g opacity="0.3">
<g opacity="0.3">
<path opacity="0.3" d="M36.5574 38.2717L34.8339 37.772L33.8799 36.287L35.6034 36.7866L36.5574 38.2717Z" fill="#2E3349"/>
</g>
</g>
<path d="M36.5568 38.2717L25.8287 52.2865L23.9678 51.9665L34.8333 37.7721L36.5568 38.2717Z" fill="#798CEF"/>
<path d="M25.8539 52.3488L23.8652 52.0069L34.8123 37.7061L36.654 38.2399L25.8539 52.3488ZM24.0716 51.926L25.805 52.2241L36.461 38.3034L34.8557 37.8381L24.0716 51.926Z" fill="#2E3349"/>
<g opacity="0.3">
<g opacity="0.3">
<path opacity="0.3" d="M36.5578 38.2716L25.8297 52.2864L23.9688 51.9663L34.8343 37.772L36.5578 38.2716Z" fill="#2E3349"/>
</g>
</g>
<path d="M23.9686 52.2532C23.9653 52.2532 23.9621 52.2531 23.9588 52.253C23.8662 52.2499 23.7808 52.2021 23.7296 52.1249L22.7587 50.661C22.6911 50.559 22.6956 50.4253 22.77 50.3281L33.6523 36.1126C33.7092 36.0385 33.7985 35.9971 33.8919 36.0004C33.9852 36.0043 34.0708 36.0534 34.1213 36.132L35.0753 37.617C35.1406 37.7187 35.1352 37.8504 35.0618 37.9463L24.1962 52.1407C24.1419 52.2117 24.0576 52.2532 23.9686 52.2532ZM23.3497 50.5144L23.9853 51.4728L34.484 37.7576L33.8595 36.7855L23.3497 50.5144Z" fill="#2E3349"/>
<path d="M36.558 38.5584C36.5314 38.5584 36.5046 38.5547 36.4782 38.547L34.7547 38.0474C34.6881 38.0281 34.6307 37.9853 34.5933 37.927L33.6392 36.4419C33.5747 36.3414 33.5792 36.2113 33.6507 36.1155C33.7221 36.0197 33.8454 35.9781 33.9603 36.0115L35.6839 36.5111C35.7505 36.5305 35.8078 36.5732 35.8453 36.6316L36.7993 38.1166C36.8639 38.2172 36.8593 38.3473 36.7879 38.4431C36.7328 38.5169 36.647 38.5584 36.558 38.5584ZM35.0176 37.5265L35.9034 37.7833L35.4208 37.032L34.535 36.7752L35.0176 37.5265Z" fill="#2E3349"/>
<path d="M25.8294 52.5732C25.8133 52.5732 25.797 52.5718 25.7808 52.569L23.9198 52.249C23.8209 52.232 23.7381 52.1645 23.7014 52.071C23.6648 51.9776 23.6797 51.8717 23.7407 51.7921L34.6062 37.5977C34.6781 37.5038 34.8002 37.4637 34.9138 37.4965L36.6373 37.9962C36.7282 38.0225 36.8003 38.0921 36.8299 38.182C36.8595 38.272 36.8427 38.3707 36.7852 38.4459L26.0571 52.4607C26.0023 52.5323 25.9178 52.5732 25.8294 52.5732ZM24.4844 51.7641L25.7071 51.9744L36.0749 38.4303L34.9425 38.102L24.4844 51.7641Z" fill="#2E3349"/>
<path d="M46.7475 37.4464L35.882 51.6407L34.9111 50.1769L45.7935 35.9613L46.7475 37.4464Z" fill="#798CEF"/>
<path d="M35.8787 51.7395L34.8408 50.1744L34.8657 50.142L45.7976 35.8616L46.8176 37.4492L46.7931 37.4812L35.8787 51.7395ZM34.9816 50.1792L35.8854 51.542L46.6776 37.4435L45.7894 36.061L34.9816 50.1792Z" fill="#2E3349"/>
<path d="M48.4705 37.9461L46.747 37.4465L45.793 35.9614L47.5165 36.4611L48.4705 37.9461Z" fill="#798CEF"/>
<path d="M48.6015 38.0437L46.7104 37.4955L45.6621 35.8636L47.5532 36.4119L48.6015 38.0437ZM46.7837 37.3973L48.3396 37.8483L47.4799 36.51L45.9239 36.059L46.7837 37.3973Z" fill="#2E3349"/>
<g opacity="0.3">
<g opacity="0.3">
<path opacity="0.3" d="M48.4705 37.9461L46.747 37.4465L45.793 35.9614L47.5165 36.4611L48.4705 37.9461Z" fill="#2E3349"/>
</g>
<g opacity="0.3">
<path opacity="0.3" d="M48.6015 38.0437L46.7104 37.4955L45.6621 35.8636L47.5532 36.4119L48.6015 38.0437ZM46.7837 37.3973L48.3396 37.8483L47.4799 36.51L45.9239 36.059L46.7837 37.3973Z" fill="#6B184E"/>
</g>
</g>
<path d="M48.4709 37.946L37.7428 51.9608L35.8818 51.6408L46.7474 37.4464L48.4709 37.946Z" fill="#798CEF"/>
<path d="M37.767 52.0232L35.7783 51.6812L46.7253 37.3804L48.5671 37.9143L37.767 52.0232ZM35.9847 51.6003L37.7181 51.8984L48.3741 37.9777L46.7688 37.5124L35.9847 51.6003Z" fill="#2E3349"/>
<g opacity="0.3">
<g opacity="0.3">
<path opacity="0.3" d="M48.4709 37.946L37.7428 51.9608L35.8818 51.6408L46.7474 37.4464L48.4709 37.946Z" fill="#2E3349"/>
</g>
<g opacity="0.3">
<path opacity="0.3" d="M37.767 52.0232L35.7783 51.6812L46.7253 37.3804L48.5671 37.9143L37.767 52.0232ZM35.9847 51.6003L37.7181 51.8984L48.3741 37.9777L46.7688 37.5124L35.9847 51.6003Z" fill="#6B184E"/>
</g>
</g>
<path d="M35.8816 51.9275C35.8784 51.9275 35.8752 51.9275 35.8719 51.9274C35.7793 51.9242 35.6938 51.8765 35.6426 51.7992L34.6718 50.3353C34.6042 50.2334 34.6087 50.0997 34.6831 50.0025L45.5654 35.787C45.6222 35.7128 45.7115 35.671 45.8049 35.6748C45.8982 35.6786 45.9839 35.7277 46.0344 35.8063L46.9884 37.2914C47.0537 37.393 47.0483 37.5247 46.9748 37.6207L36.1093 51.8151C36.0549 51.8861 35.9707 51.9275 35.8816 51.9275ZM35.2628 50.1888L35.8983 51.1471L46.3971 37.432L45.7726 36.4599L35.2628 50.1888Z" fill="#2E3349"/>
<path d="M48.4711 38.2328C48.4445 38.2328 48.4177 38.2291 48.3913 38.2214L46.6678 37.7218C46.6012 37.7025 46.5438 37.6597 46.5064 37.6014L45.5523 36.1163C45.4877 36.0157 45.4923 35.8856 45.5637 35.7898C45.6352 35.694 45.7586 35.6527 45.8734 35.6859L47.5969 36.1855C47.6635 36.2049 47.7209 36.2476 47.7584 36.306L48.7124 37.791C48.777 37.8916 48.7725 38.0217 48.701 38.1175C48.6459 38.1912 48.5601 38.2328 48.4711 38.2328ZM46.9308 37.2009L47.8166 37.4577L47.3339 36.7064L46.4481 36.4496L46.9308 37.2009Z" fill="#2E3349"/>
<path d="M37.7425 52.2475C37.7264 52.2475 37.7101 52.2461 37.6939 52.2433L35.8329 51.9233C35.734 51.9063 35.6511 51.8388 35.6145 51.7453C35.5779 51.6519 35.5928 51.5461 35.6538 51.4664L46.5193 37.272C46.5912 37.1781 46.7133 37.138 46.8269 37.1709L48.5504 37.6705C48.6413 37.6968 48.7134 37.7664 48.743 37.8564C48.7726 37.9463 48.7558 38.045 48.6982 38.1202L37.9702 52.135C37.9154 52.2066 37.8308 52.2475 37.7425 52.2475ZM36.3974 51.4385L37.6202 51.6487L47.9879 38.1046L46.8555 37.7763L36.3974 51.4385Z" fill="#2E3349"/>
<path d="M5.12522 27.1177C4.46286 27.2099 3.84982 26.7475 3.75764 26.0839L2.35627 16.0341L2.15625 14.599L4.55767 14.2639L4.87715 16.5549L6.15904 25.7488C6.25124 26.4125 5.78886 27.0242 5.12522 27.1177Z" fill="#4A83FF"/>
<g opacity="0.3">
<g opacity="0.3">
<path opacity="0.3" d="M5.12522 27.1177C4.47972 27.2073 3.88102 26.771 3.7667 26.1346C3.86801 26.1476 3.97191 26.1463 4.07843 26.132C4.74077 26.0398 5.20313 25.4268 5.11092 24.7644L3.98102 16.6602C3.58359 16.6433 3.20565 16.5394 2.86277 16.3653C2.68227 16.2744 2.51214 16.1627 2.35627 16.0341L2.15625 14.599L3.66413 14.3886L4.55767 14.2639L4.87715 16.5549L6.15904 25.7488C6.25124 26.4125 5.78886 27.0242 5.12522 27.1177Z" fill="#2E3349"/>
</g>
</g>
<path d="M4.95461 27.4731C4.61849 27.4731 4.29293 27.3646 4.02 27.1584C3.68827 26.9079 3.47395 26.5432 3.41653 26.1314L1.81482 14.6467C1.80222 14.5563 1.82604 14.4646 1.88105 14.3918C1.93602 14.3189 2.01773 14.2709 2.1081 14.2584L4.50918 13.9235C4.69773 13.8974 4.87126 14.0285 4.89757 14.2168L6.49929 25.7015C6.6178 26.5515 6.02277 27.3394 5.17287 27.4579C5.09992 27.468 5.02703 27.4731 4.95461 27.4731ZM2.54396 14.8924L4.09816 26.0364C4.13019 26.2661 4.24969 26.4695 4.43476 26.6092C4.61973 26.749 4.84802 26.8084 5.07778 26.7762C5.07778 26.7762 5.07778 26.7762 5.0778 26.7762C5.55184 26.7101 5.8837 26.2707 5.81761 25.7966L4.26341 14.6526L2.54396 14.8924Z" fill="#2E3349"/>
<path d="M5.86029 12.3189C5.99071 13.2541 5.63877 14.1437 4.99394 14.7385C4.59322 15.1091 4.07955 15.3656 3.49814 15.4467C2.91672 15.5278 2.35395 15.4227 1.86693 15.1746C1.08415 14.7803 0.502039 14.0195 0.371618 13.0844C0.160306 11.5691 1.21739 10.1694 2.73269 9.95809C4.24922 9.74657 5.64898 10.8037 5.86029 12.3189Z" fill="#F7C414"/>
<g opacity="0.3">
<g opacity="0.3">
<path opacity="0.3" d="M4.99413 14.738C4.59282 15.1094 4.07981 15.3653 3.49797 15.4471C2.91613 15.5276 2.35375 15.4224 1.86671 15.1743C1.3654 14.9224 0.945915 14.5185 0.675781 14.0158C0.745913 14.0613 0.819944 14.1029 0.893953 14.1405C1.381 14.3886 1.94466 14.4938 2.52521 14.412C3.10703 14.3314 3.62133 14.0743 4.02137 13.7041C4.66685 13.1093 5.01881 12.2197 4.88766 11.2845C4.84088 10.9482 4.7357 10.6339 4.58243 10.3521C5.25389 10.7716 5.74222 11.4742 5.86042 12.3184C5.99026 13.2535 5.63832 14.1431 4.99413 14.738Z" fill="#2E3349"/>
</g>
</g>
<g opacity="0.65">
<g opacity="0.65">
<path opacity="0.65" d="M4.91473 10.5949C4.46278 10.3962 3.95105 10.3183 3.42506 10.391C1.90942 10.6027 0.852241 12.0015 1.06392 13.5172C1.16133 14.2159 1.5107 14.8172 2.00683 15.2419C1.96005 15.2198 1.91332 15.1977 1.86654 15.1744C1.0834 14.7809 0.50156 14.0198 0.371712 13.0847C0.159987 11.569 1.21719 10.169 2.73285 9.95858C3.54974 9.84428 4.33289 10.0988 4.91473 10.5949Z" fill="white"/>
</g>
</g>
<path d="M3.1108 15.8177C2.62463 15.8178 2.14743 15.7038 1.71035 15.4811C0.800134 15.0226 0.171612 14.1441 0.0304313 13.1318C-0.0844814 12.308 0.128367 11.4886 0.629679 10.8248C1.13104 10.1609 1.86085 9.73206 2.68476 9.61715C3.50915 9.50214 4.32887 9.7149 4.9929 10.2162C5.65685 10.7175 6.0858 11.4473 6.20071 12.2713C6.34169 13.282 5.97761 14.2989 5.22686 14.9913C4.75915 15.4239 4.17759 15.6993 3.54526 15.7875C3.40025 15.8077 3.2551 15.8177 3.1108 15.8177ZM3.12057 10.2751C3.00752 10.2751 2.89378 10.2829 2.77983 10.2988C2.138 10.3883 1.56942 10.7224 1.17892 11.2396C0.788365 11.7567 0.622568 12.3949 0.712062 13.0368C0.822042 13.8253 1.31149 14.5096 2.02139 14.8672C2.46331 15.0923 2.95684 15.1746 3.45024 15.1058C3.94267 15.0372 4.39556 14.8228 4.75991 14.4858C5.34523 13.9459 5.6289 13.1537 5.51906 12.3664C5.42954 11.7245 5.09543 11.156 4.57822 10.7655C4.15266 10.4442 3.64487 10.2751 3.12057 10.2751Z" fill="#2E3349"/>
<path d="M7.64971 37.3688C7.02378 37.1333 6.70623 36.4343 6.94234 35.8072L10.5134 26.3094L11.0235 24.9531L13.2931 25.8062L12.479 27.9715L9.21196 36.6604C8.97583 37.2874 8.27741 37.6038 7.64971 37.3688Z" fill="#4A83FF"/>
<g opacity="0.3">
<g opacity="0.3">
<path opacity="0.3" d="M7.6494 37.3688C7.03955 37.1391 6.72212 36.4697 6.92579 35.856C7.00858 35.9158 7.10049 35.9643 7.20088 36.0027C7.82678 36.2382 8.52585 35.9206 8.76134 35.2947L11.6412 27.6356C11.3002 27.4309 11.0178 27.159 10.7998 26.8423C10.6846 26.6762 10.5886 26.4968 10.5131 26.3094L11.0231 24.9531L12.4483 25.4888L13.2928 25.8062L12.4787 27.9715L9.21165 36.6603C8.97552 37.2873 8.2771 37.6038 7.6494 37.3688Z" fill="#2E3349"/>
</g>
</g>
<path d="M8.07736 37.791C7.89248 37.791 7.70718 37.7576 7.52898 37.6906C7.13985 37.5443 6.83101 37.2553 6.65929 36.8767C6.48763 36.4981 6.47363 36.0753 6.61991 35.6862L10.7007 24.832C10.7676 24.6541 10.9661 24.5641 11.1439 24.631L13.4132 25.4842C13.4986 25.5163 13.5678 25.581 13.6055 25.6641C13.6432 25.7473 13.6463 25.8419 13.6142 25.9274L9.5334 36.7815C9.38712 37.1706 9.09804 37.4795 8.71946 37.6512C8.51426 37.7443 8.29611 37.791 8.07736 37.791ZM11.2238 25.3964L7.26407 35.9284C7.18249 36.1454 7.19032 36.3813 7.28607 36.5924C7.38185 36.8036 7.55414 36.9648 7.77117 37.0464C7.77117 37.0464 7.77117 37.0464 7.77119 37.0464C8.21916 37.2148 8.72075 36.9874 8.88919 36.5394L12.8488 26.0073L11.2238 25.3964Z" fill="#2E3349"/>
<path d="M15.3665 24.7198C15.0342 25.6036 14.2999 26.217 13.4493 26.4313C12.9202 26.5654 12.3463 26.5453 11.7969 26.3388C11.2474 26.1322 10.8032 25.7709 10.494 25.3203C9.99476 24.5998 9.84692 23.6534 10.1792 22.7696C10.7176 21.3375 12.315 20.6131 13.7471 21.1515C15.1804 21.6903 15.9048 23.2878 15.3665 24.7198Z" fill="#F7C414"/>
<g opacity="0.3">
<g opacity="0.3">
<path opacity="0.3" d="M13.4495 26.4311C12.9194 26.5656 12.3465 26.5453 11.7963 26.3391C11.2467 26.1318 10.8029 25.7707 10.4937 25.3201C10.1737 24.8592 9.99814 24.3039 10.001 23.7333C10.0409 23.8067 10.0861 23.8786 10.1331 23.9471C10.4424 24.3977 10.8873 24.7595 11.4364 24.965C11.986 25.1723 12.5606 25.1921 13.0889 25.0581C13.9401 24.844 14.6744 24.2307 15.006 23.3466C15.1257 23.0287 15.1834 22.7024 15.1835 22.3816C15.5729 23.071 15.6661 23.9215 15.3665 24.7196C15.0338 25.6031 14.2995 26.2164 13.4495 26.4311Z" fill="#2E3349"/>
</g>
</g>
<g opacity="0.65">
<g opacity="0.65">
<path opacity="0.65" d="M15.3591 22.7538C15.0571 22.3633 14.6448 22.0503 14.148 21.8629C12.7154 21.3246 11.1183 22.0482 10.5801 23.4808C10.3318 24.1411 10.3513 24.8363 10.5842 25.4464C10.5537 25.4047 10.5232 25.3629 10.4933 25.3201C9.99337 24.6002 9.8459 23.6536 10.1786 22.7701C10.7169 21.3375 12.3146 20.6128 13.7465 21.1522C14.5188 21.4421 15.0851 22.04 15.3591 22.7538Z" fill="white"/>
</g>
</g>
<path d="M12.7691 26.8607C12.3984 26.8607 12.029 26.7939 11.6753 26.6609C11.0765 26.4358 10.5697 26.0395 10.2098 25.515C9.62929 24.6772 9.49695 23.6052 9.85662 22.6485C10.4609 21.0411 12.2603 20.225 13.8678 20.8294C15.4758 21.434 16.2924 23.2336 15.6881 24.841C15.329 25.7962 14.5233 26.5155 13.5329 26.7651C13.2809 26.8289 13.0247 26.8607 12.7691 26.8607ZM12.7744 21.3183C11.7925 21.3183 10.8663 21.9188 10.5008 22.8907C10.2207 23.6359 10.3237 24.4709 10.7764 25.1243C11.057 25.5333 11.4513 25.8414 11.9175 26.0166C12.383 26.1917 12.8833 26.2197 13.3643 26.0978C14.1364 25.9032 14.7642 25.3429 15.0439 24.5988C15.0439 24.5988 15.0439 24.5988 15.0439 24.5988C15.5147 23.3466 14.8784 21.9446 13.6255 21.4735C13.3453 21.3682 13.0575 21.3183 12.7744 21.3183Z" fill="#2E3349"/>
<path d="M15.6887 5.96018C15.5807 5.96018 15.4744 5.9095 15.4074 5.81457L13.2799 2.80268C13.1702 2.64743 13.2072 2.4327 13.3624 2.32307C13.5176 2.21348 13.7323 2.25034 13.842 2.40561L15.9695 5.4175C16.0791 5.57274 16.0422 5.78747 15.887 5.89711C15.8267 5.93969 15.7573 5.96018 15.6887 5.96018Z" fill="#2E3349"/>
<path d="M22.854 4.27636C22.8171 4.27636 22.7796 4.27037 22.7427 4.25778C22.5629 4.19632 22.4669 4.00072 22.5283 3.82088L23.7163 0.344135C23.7778 0.164299 23.9734 0.0683818 24.1532 0.12975C24.333 0.191209 24.429 0.386805 24.3676 0.566642L23.1796 4.04339C23.1308 4.18641 22.9971 4.27636 22.854 4.27636Z" fill="#2E3349"/>
<path d="M19.2634 4.27631C19.1076 4.27631 18.9664 4.16975 18.9289 4.01155L18.0777 0.423626C18.0339 0.238696 18.1482 0.053239 18.3331 0.00937528C18.5181 -0.0345114 18.7035 0.0798751 18.7474 0.264782L19.5985 3.8527C19.6424 4.03763 19.5281 4.22309 19.3431 4.26695C19.3164 4.27329 19.2897 4.27631 19.2634 4.27631Z" fill="#2E3349"/>
</svg>
