<svg width="66" height="60" viewBox="0 0 66 60" fill="none" xmlns="http://www.w3.org/2000/svg">
<path fill-rule="evenodd" clip-rule="evenodd" d="M37.7372 20.7272C37.7372 18.6651 36.918 16.6874 35.4599 15.2292C34.0017 13.7711 32.0241 12.9519 29.962 12.9519C27.8998 12.9519 25.922 13.7711 24.464 15.2292C23.0057 16.6874 22.1865 18.6651 22.1865 20.7272V48.6931H37.7372V20.7272ZM35.9694 46.9251V20.7272C35.9694 19.134 35.3364 17.6059 34.2099 16.4793C33.0832 15.3527 31.5552 14.7198 29.962 14.7198C28.3687 14.7198 26.8406 15.3527 25.7141 16.4793C24.5874 17.6059 23.9544 19.134 23.9544 20.7272V46.9251H35.9694Z" fill="#A6A6A6"/>
<path fill-rule="evenodd" clip-rule="evenodd" d="M16.8046 20.7272C16.8046 18.6651 15.9854 16.6874 14.5273 15.2292C13.0691 13.7711 11.0915 12.9519 9.02934 12.9519C6.96719 12.9519 4.98944 13.7711 3.53136 15.2292C2.07309 16.6874 1.25391 18.6651 1.25391 20.7272V48.6931H16.8046V20.7272ZM15.0368 46.9251V20.7272C15.0368 19.134 14.4037 17.6059 13.2772 16.4793C12.1506 15.3527 10.6226 14.7198 9.02934 14.7198C7.43606 14.7198 5.90795 15.3527 4.78144 16.4793C3.65476 17.6059 3.02175 19.134 3.02175 20.7272V46.9251H15.0368Z" fill="#A6A6A6"/>
<path fill-rule="evenodd" clip-rule="evenodd" d="M44.008 58.2348H42.4365V13.8759H42.4369C42.4697 9.91779 44.8674 6.51933 48.2849 5.02511C50.3542 4.12211 51.8222 2.22886 52.181 0L52.1812 2.08022e-05C52.5403 2.22892 54.0082 4.12222 56.0775 5.02522C59.495 6.51933 61.8927 9.9178 61.9257 13.8759H61.9259V58.2348H60.3544V13.8979L60.3542 13.8891C60.3266 10.5688 58.3148 7.71853 55.4489 6.46552C54.1351 5.89219 53.0175 4.99615 52.1812 3.88625C51.3452 4.99598 50.2277 5.89188 48.9145 6.46497C46.0478 7.71833 44.0359 10.5688 44.0082 13.8891L44.008 13.8979V58.2348V58.2348Z" fill="#A6A6A6"/>
<path d="M53.2316 0H52.1807V2.54661H53.2316V0Z" fill="#A6A6A6"/>
<path fill-rule="evenodd" clip-rule="evenodd" d="M45.0568 58.2348H43.4854V13.8759H43.4857C43.5185 9.91779 45.9162 6.51933 49.3338 5.02511C51.403 4.12211 52.871 2.22886 53.2298 0L53.23 2.08022e-05C53.5891 2.22892 55.0571 4.12222 57.1263 5.02522C60.5439 6.51933 62.9415 9.9178 62.9745 13.8759H62.9747V58.2348H61.4033V13.8979L61.4031 13.8891C61.3754 10.5688 59.3637 7.71853 56.4977 6.46552C55.184 5.89219 54.0662 4.99615 53.23 3.88625C52.394 4.99598 51.2765 5.89188 49.9634 6.46497C47.0966 7.71833 45.0847 10.5688 45.057 13.8891L45.0568 13.8979V58.2348Z" fill="#BDD7FF"/>
<path fill-rule="evenodd" clip-rule="evenodd" d="M38.7939 20.7272C38.7939 18.6651 37.9747 16.6874 36.5166 15.2292C35.0583 13.7711 33.0807 12.9519 31.0186 12.9519C28.9564 12.9519 26.9787 13.7711 25.5206 15.2292C24.0623 16.6874 23.2432 18.6651 23.2432 20.7272V48.6931H38.7939V20.7272V20.7272ZM37.026 46.9251V20.7272C37.026 19.134 36.393 17.6059 35.2665 16.4793C34.1398 15.3527 32.6119 14.7198 31.0186 14.7198C29.4253 14.7198 27.8972 15.3527 26.7707 16.4793C25.644 17.6059 25.011 19.134 25.011 20.7272V46.9251H37.026Z" fill="#BDD7FF"/>
<path fill-rule="evenodd" clip-rule="evenodd" d="M17.8603 20.7272C17.8603 18.6651 17.0411 16.6874 15.583 15.2292C14.1247 13.7711 12.1472 12.9519 10.085 12.9519C8.02283 12.9519 6.04509 13.7711 4.58701 15.2292C3.12873 16.6874 2.30957 18.6651 2.30957 20.7272V48.6931H17.8603V20.7272ZM16.0924 46.9251V20.7272C16.0924 19.134 15.4594 17.6059 14.3329 16.4793C13.2062 15.3527 11.6783 14.7198 10.085 14.7198C8.49169 14.7198 6.96359 15.3527 5.83709 16.4793C4.71043 17.6059 4.07741 19.134 4.07741 20.7272V46.9251H16.0924Z" fill="#BDD7FF"/>
<path fill-rule="evenodd" clip-rule="evenodd" d="M65.3825 59.1174C65.3825 58.8833 65.2896 58.6587 65.124 58.4934C64.9586 58.3278 64.7341 58.2349 64.5 58.2349H0.882551C0.648491 58.2349 0.424007 58.3278 0.258511 58.4934C0.0929884 58.6587 0 58.8833 0 59.1174C0 59.3515 0.092995 59.5759 0.258511 59.7415C0.424007 59.9069 0.648491 60 0.882551 60H64.5C64.7341 60 64.9586 59.9069 65.124 59.7415C65.2896 59.5759 65.3825 59.3515 65.3825 59.1174Z" fill="#BDD7FF"/>
<path d="M26.4013 52.2128H19.8584V54.7881H26.4013V52.2128Z" fill="#BDD7FF"/>
<path d="M37.0263 2.96558H30.4834V5.54092H37.0263V2.96558Z" fill="#BDD7FF"/>
<path d="M12.4072 6.52087H5.86426V9.09621H12.4072V6.52087Z" fill="#BDD7FF"/>
<path fill-rule="evenodd" clip-rule="evenodd" d="M35.2117 52.1906C35.2117 52.1906 34.4222 53.0641 33.7645 53.7919C33.2033 54.413 32.8926 55.2203 32.8926 56.0575V56.2125C32.8926 56.749 33.1057 57.2635 33.485 57.6426C33.8641 58.0219 34.3786 58.235 34.915 58.235H41.2689V55.4527C41.6769 55.4527 42.0682 55.2905 42.3567 55.0021C42.6451 54.7135 42.8072 54.3223 42.8072 53.9142V49.3256L42.1635 48.3027L35.2117 52.1906Z" fill="#522C36"/>
<path fill-rule="evenodd" clip-rule="evenodd" d="M47.043 55.4081V58.235H52.2593C52.3966 58.235 52.5282 58.1804 52.6252 58.0833C52.7222 57.9863 52.7768 57.8546 52.7768 57.7174V57.6961C52.7768 57.4944 52.6596 57.3112 52.4767 57.2265C52.1249 57.0623 51.5132 56.701 50.9103 55.9817C49.9877 54.8807 49.7834 54.4075 49.1739 54.4075C48.1734 54.4075 48.2882 55.2036 47.043 55.4081Z" fill="#FFDAB4"/>
<path d="M48.119 54.9725H47.043V58.2348H48.119V54.9725Z" fill="#ECAF91"/>
<path fill-rule="evenodd" clip-rule="evenodd" d="M40.9861 52.1905C40.9861 52.1905 40.1966 53.0641 39.539 53.7918C38.9778 54.413 38.667 55.2203 38.667 56.0575V56.2125C38.667 56.749 38.8801 57.2634 39.2595 57.6426C39.6386 58.0219 40.153 58.235 40.6895 58.235H47.0433V55.4079C47.4513 55.4079 47.8426 55.2459 48.1312 54.9575C48.4196 54.6689 48.5816 54.2777 48.5816 53.8697V49.3255L47.9379 48.3027L40.9861 52.1905Z" fill="#693945"/>
<path fill-rule="evenodd" clip-rule="evenodd" d="M47.0441 55.4078H44.1104L47.0441 57.0856V55.4078Z" fill="#522C36"/>
<path d="M44.1043 25.2783L40.9248 25.5762L41.5173 32.7352L44.6968 32.4373L44.1043 25.2783Z" fill="#ECAF91"/>
<path fill-rule="evenodd" clip-rule="evenodd" d="M44.7239 25.2221L43.4834 25.3378L43.7806 28.9122C43.9783 29.0359 44.1555 29.1183 44.403 29.2531C44.7776 28.6679 44.9531 27.9777 44.8955 27.2856L44.7239 25.2221Z" fill="#522C36"/>
<path fill-rule="evenodd" clip-rule="evenodd" d="M43.5205 25.3296L38.3652 25.8147L38.6311 29.0414C38.7469 30.4469 39.9948 31.4775 41.4184 31.3435C42.842 31.2095 43.9022 29.9618 43.7864 28.5563L43.5205 25.3296Z" fill="#522C36"/>
<path fill-rule="evenodd" clip-rule="evenodd" d="M41.3852 32.7506C41.3852 32.7506 39.9061 33.1855 38.9031 33.4803C38.3405 33.6458 37.9017 34.0877 37.7402 34.6513C37.0722 36.983 35.3447 43.0121 35.3447 43.0121L39.0163 43.4761L41.3852 32.7506Z" fill="#BE3F5F"/>
<path fill-rule="evenodd" clip-rule="evenodd" d="M45.1059 31.6813C45.0933 31.5296 44.9575 31.4182 44.8027 31.4326L41.5752 31.7325C41.4204 31.7469 41.3052 31.8815 41.3178 32.0332L41.3777 32.7507L45.1658 32.3987L45.1059 31.6813Z" fill="#7D3648"/>
<path fill-rule="evenodd" clip-rule="evenodd" d="M49.6877 34.5877C49.771 33.729 49.1602 32.9579 48.3051 32.8423C46.943 32.6579 45.1653 32.4173 45.1653 32.4173L41.383 32.7505C41.383 32.7505 40.6379 32.9699 39.9832 33.1621C39.4077 33.3313 39.0124 33.8599 39.0125 34.4598L39.0148 46.9172C39.0149 47.2602 38.8933 47.5917 38.6719 47.8531C37.5846 49.1375 34.2861 53.0334 34.2861 53.0334C37.8335 53.8194 41.7554 53.8311 46.0691 53.0332L47.5946 49.534L48.5802 53.0332L49.4282 52.5081L48.4396 47.446C48.4396 47.4459 49.3274 38.3001 49.6877 34.5877Z" fill="#BE3F5F"/>
<path d="M39.0155 44.7545C39.0101 44.7545 39.0057 44.7502 39.0057 44.7447L39.0039 35.7221C39.0039 35.7167 39.0083 35.7123 39.0137 35.7123C39.0192 35.7123 39.0236 35.7167 39.0236 35.7221L39.0253 44.7447C39.0253 44.7501 39.021 44.7545 39.0155 44.7545Z" fill="#7D3648"/>
<path fill-rule="evenodd" clip-rule="evenodd" d="M35.9284 40.9717L34.7738 39.5525C34.7738 39.5525 34.5581 39.1671 34.4139 38.9098C34.3397 38.7772 34.3662 38.611 34.4779 38.508H34.4781C34.5522 38.4397 34.6524 38.4071 34.7526 38.4187C34.8527 38.4303 34.9429 38.4849 34.9995 38.5683C35.1588 38.8031 35.3438 39.0759 35.3438 39.0759C35.3438 39.0759 35.2912 38.4006 35.246 37.8223C35.2295 37.6129 35.3014 37.4063 35.444 37.2521C35.5866 37.0979 35.787 37.0103 35.997 37.0103H37.0172C37.3767 37.0103 37.6861 37.2642 37.7562 37.6168C37.8725 38.2483 38.0489 39.3262 38.1695 40.627C38.3642 42.7255 37.635 43.6163 37.635 43.6163L35.9284 42.5721V40.9717V40.9717Z" fill="#FFDAB4"/>
<path fill-rule="evenodd" clip-rule="evenodd" d="M35.9277 41.2966C35.9277 41.2966 36.9217 42.5021 38.2019 41.2966L38.5006 43.7536L35.9277 43.6163V41.2966V41.2966Z" fill="#ECAF91"/>
<path fill-rule="evenodd" clip-rule="evenodd" d="M35.3465 44.7448C34.7589 43.2108 35.9404 40.9717 35.9404 40.9717C35.9404 40.9717 35.9468 42.8667 37.1766 42.7255C38.4149 42.5836 38.2171 40.627 38.2171 40.627C38.2171 40.627 39.7113 44.2531 38.7409 45.3478C37.9545 46.2352 35.9176 46.2348 35.3465 44.7448Z" fill="#BE3F5F"/>
<path fill-rule="evenodd" clip-rule="evenodd" d="M38.1709 40.6453L38.1846 40.8168C38.3019 41.1287 38.5694 41.8766 38.7582 42.6931C38.9219 43.4005 39.0281 44.1595 38.9199 44.7263L39.1128 44.7632C39.2254 44.1739 39.1197 43.3842 38.9495 42.649C38.6977 41.5593 38.4426 40.9779 38.3076 40.5901C38.273 40.4909 38.1396 40.3234 38.1396 40.3234L38.1709 40.6453Z" fill="#7D3648"/>
<path fill-rule="evenodd" clip-rule="evenodd" d="M43.6362 27.0636L44.0814 27.0217C44.3299 26.9984 44.5763 27.0734 44.7664 27.2303C44.9564 27.3872 45.0746 27.6132 45.0948 27.8586C45.115 28.1039 45.0357 28.3485 44.8743 28.5385C44.7128 28.7285 44.4824 28.8483 44.2339 28.8717L43.7887 28.9136L43.6362 27.0636Z" fill="#FFDAB4"/>
<path fill-rule="evenodd" clip-rule="evenodd" d="M42.5328 25.416L38.6465 25.7815L38.8971 28.8211C38.9843 29.8804 39.9251 30.6572 40.9983 30.5562C42.0715 30.4553 42.8707 29.5148 42.7833 28.4556L42.5328 25.416L42.5328 25.416Z" fill="#FFDAB4"/>
<path fill-rule="evenodd" clip-rule="evenodd" d="M44.7056 25.1835L38.3438 25.7803L38.3233 25.5326C38.2546 24.7012 38.5238 23.8726 39.0719 23.2288C39.6198 22.585 40.4014 22.179 41.2452 22.0999C42.0889 22.0207 42.9252 22.275 43.5702 22.8068C44.2155 23.3387 44.6164 24.1045 44.6851 24.9358L44.7056 25.1835Z" fill="#BE3F5F"/>
<path fill-rule="evenodd" clip-rule="evenodd" d="M48.5441 32.8743C47.6808 32.7576 46.8613 33.2878 46.6141 34.1233C45.9194 36.4714 44.6259 40.8429 44.6259 40.8429L42.205 39.8055L40.2988 42.5502C40.2988 42.5502 42.5134 44.1999 44.2583 45.4995C44.7331 45.8531 45.3501 45.9541 45.9127 45.7702C46.4755 45.5864 46.9139 45.1404 47.0881 44.5747C47.9175 41.8846 49.2285 37.6312 49.995 35.1445C50.1478 34.6487 50.0749 34.1107 49.7954 33.6734C49.5161 33.2361 49.0584 32.9439 48.5441 32.8743Z" fill="#BE3F5F"/>
<path d="M44.6521 40.761C44.6509 40.761 44.6497 40.7608 44.6486 40.7603L42.2006 39.8147C42.1955 39.8127 42.1931 39.8071 42.195 39.802C42.197 39.7969 42.2027 39.7944 42.2077 39.7964L44.6457 40.7381L46.4305 34.7065C46.432 34.7012 46.4373 34.6984 46.4427 34.6999C46.4479 34.7014 46.4509 34.7068 46.4493 34.7121L44.6616 40.7539C44.6608 40.7566 44.6589 40.7588 44.6565 40.76C44.6551 40.7607 44.6537 40.761 44.6521 40.761Z" fill="#7D3648"/>
<path fill-rule="evenodd" clip-rule="evenodd" d="M40.4333 42.5283L44.3333 45.4332C44.7786 45.7649 45.3573 45.8596 45.8851 45.6871C46.413 45.5147 46.8241 45.0966 46.9877 44.5659C47.7503 42.092 48.5331 39.5525 48.5331 39.5525L49.4695 36.848L49.4294 37.2615C49.4294 37.2615 47.9381 42.1499 47.1755 44.6238C46.993 45.2153 46.5347 45.6816 45.9463 45.8739C45.3577 46.0661 44.7124 45.9606 44.2161 45.5907C42.4686 44.2893 40.2397 42.6291 40.2397 42.6291C40.1972 42.5974 40.1876 42.5377 40.2177 42.4943L40.8072 41.6455L40.9686 41.7575L40.4333 42.5283Z" fill="#7D3648"/>
<path fill-rule="evenodd" clip-rule="evenodd" d="M44.626 40.8428L46.6298 41.7015L45.0078 39.5525L44.626 40.8428Z" fill="#7D3648"/>
<path fill-rule="evenodd" clip-rule="evenodd" d="M42.2047 39.8054C42.2047 39.8054 42.0161 38.2308 41.9305 37.5164C41.9069 37.3191 41.7395 37.1709 41.5412 37.1709H41.5066C41.3117 37.1709 41.1465 37.3136 41.1184 37.5063C41.072 37.8246 41.0092 38.2543 41.0092 38.2543C41.0092 38.2543 40.7546 37.6081 40.5501 37.0891C40.4083 36.7292 40.0125 36.5399 39.6434 36.6556C39.3132 36.7591 38.9158 36.8837 38.5945 36.9842C38.231 37.0982 38.014 37.47 38.0935 37.8424C38.2961 38.7898 38.9272 40.5336 40.888 41.7014L42.2047 39.8054Z" fill="#FFDAB4"/>
</svg>
