<svg width="89" height="50" viewBox="0 0 89 50" fill="none" xmlns="http://www.w3.org/2000/svg">
<path d="M84.7762 50C85.9058 48.1048 91.8759 37.2187 85.3392 28.8897C78.1548 19.7354 64.7369 19.5066 59.0317 14.3573C53.3264 9.20805 42.9725 -4.40892 25.3285 1.42694C7.7882 7.22845 -1.08549 33.7247 9.19082 50H84.7762Z" fill="#E3F8FD"/>
<path d="M83.7633 16.7949C83.7633 16.7949 72.5194 -0.102787 63.2403 2.84673C57.9286 4.53514 57.4533 11.4124 62.8398 13.9144C65.9623 15.3648 72.2101 16.9215 76.0677 19.0754C82.6129 22.7301 86.9879 21.7776 83.7633 16.7949Z" fill="#E3F8FD"/>
<path d="M77.2242 11.5828H74.958V50H77.2242V11.5828Z" fill="#678183"/>
<path d="M74.958 17.6839C75.328 17.7372 75.7062 17.7653 76.0911 17.7653C76.476 17.7653 76.8541 17.7372 77.2242 17.6839V11.5828H74.958V17.6839H74.958Z" fill="#536C6D"/>
<path d="M76.0906 17.1178C80.4413 17.1178 83.9682 13.5908 83.9682 9.2401C83.9682 4.88938 80.4413 1.36243 76.0906 1.36243C71.7398 1.36243 68.2129 4.88938 68.2129 9.2401C68.2129 13.5908 71.7398 17.1178 76.0906 17.1178Z" fill="#79B2AF"/>
<path d="M76.0659 16.0836C79.8318 16.0836 82.8847 13.0308 82.8847 9.26484C82.8847 5.49892 79.8318 2.44604 76.0659 2.44604C72.3 2.44604 69.2471 5.49892 69.2471 9.26484C69.2471 13.0308 72.3 16.0836 76.0659 16.0836Z" fill="#678183"/>
<path d="M80.3006 6.80737H71.7052C71.2056 6.80737 70.7969 7.21607 70.7969 7.71565V9.08279V9.22156V11.1855C70.7969 11.3568 70.937 11.4969 71.1082 11.4969H80.8974C81.0687 11.4969 81.2088 11.3568 81.2088 11.1855V9.22156V9.08279V7.71565C81.2089 7.21607 80.8001 6.80737 80.3006 6.80737Z" fill="#99D8D9"/>
<path d="M72.0897 12.0849C72.4655 12.0849 72.7702 11.7802 72.7702 11.4044C72.7702 11.0286 72.4655 10.7239 72.0897 10.7239C71.7139 10.7239 71.4092 11.0286 71.4092 11.4044C71.4092 11.7802 71.7139 12.0849 72.0897 12.0849Z" fill="#678183"/>
<path d="M73.7411 12.0961C74.1169 12.0961 74.4216 11.7915 74.4216 11.4156C74.4216 11.0398 74.1169 10.7351 73.7411 10.7351C73.3652 10.7351 73.0605 11.0398 73.0605 11.4156C73.0605 11.7915 73.3652 12.0961 73.7411 12.0961Z" fill="#678183"/>
<path d="M78.286 12.0961C78.6618 12.0961 78.9665 11.7915 78.9665 11.4156C78.9665 11.0398 78.6618 10.7351 78.286 10.7351C77.9101 10.7351 77.6055 11.0398 77.6055 11.4156C77.6055 11.7915 77.9101 12.0961 78.286 12.0961Z" fill="#678183"/>
<path d="M79.9364 12.1074C80.3122 12.1074 80.6169 11.8027 80.6169 11.4268C80.6169 11.051 80.3122 10.7463 79.9364 10.7463C79.5605 10.7463 79.2559 11.051 79.2559 11.4268C79.2559 11.8027 79.5605 12.1074 79.9364 12.1074Z" fill="#678183"/>
<path d="M72.0897 11.9839C72.4036 11.9839 72.658 11.7295 72.658 11.4157C72.658 11.1018 72.4036 10.8474 72.0897 10.8474C71.7759 10.8474 71.5215 11.1018 71.5215 11.4157C71.5215 11.7295 71.7759 11.9839 72.0897 11.9839Z" fill="#85C6C5"/>
<path d="M73.744 11.9839C74.0578 11.9839 74.3123 11.7295 74.3123 11.4157C74.3123 11.1018 74.0578 10.8474 73.744 10.8474C73.4302 10.8474 73.1758 11.1018 73.1758 11.4157C73.1758 11.7295 73.4302 11.9839 73.744 11.9839Z" fill="#85C6C5"/>
<path d="M78.286 11.9839C78.5998 11.9839 78.8542 11.7295 78.8542 11.4157C78.8542 11.1018 78.5998 10.8474 78.286 10.8474C77.9722 10.8474 77.7178 11.1018 77.7178 11.4157C77.7178 11.7295 77.9722 11.9839 78.286 11.9839Z" fill="#85C6C5"/>
<path d="M79.9403 11.9839C80.2541 11.9839 80.5085 11.7295 80.5085 11.4157C80.5085 11.1018 80.2541 10.8474 79.9403 10.8474C79.6265 10.8474 79.3721 11.1018 79.3721 11.4157C79.3721 11.7295 79.6265 11.9839 79.9403 11.9839Z" fill="#85C6C5"/>
<path d="M72.5452 9.01343H71.5519C71.4718 9.01343 71.4062 8.94788 71.4062 8.86774V7.79682C71.4062 7.71672 71.4718 7.65112 71.5519 7.65112H72.5452C72.6253 7.65112 72.6909 7.71668 72.6909 7.79682V8.86774C72.6909 8.94788 72.6253 9.01343 72.5452 9.01343Z" fill="#85C6C5"/>
<path d="M74.137 9.01343H73.1437C73.0636 9.01343 72.998 8.94788 72.998 8.86774V7.79682C72.998 7.71672 73.0636 7.65112 73.1437 7.65112H74.137C74.2172 7.65112 74.2827 7.71668 74.2827 7.79682V8.86774C74.2827 8.94788 74.2172 9.01343 74.137 9.01343Z" fill="#85C6C5"/>
<path d="M75.7289 9.01343H74.7355C74.6554 9.01343 74.5898 8.94788 74.5898 8.86774V7.79682C74.5898 7.71672 74.6554 7.65112 74.7355 7.65112H75.7289C75.809 7.65112 75.8745 7.71668 75.8745 7.79682V8.86774C75.8745 8.94788 75.809 9.01343 75.7289 9.01343Z" fill="#85C6C5"/>
<path d="M77.3206 9.01343H76.3273C76.2472 9.01343 76.1816 8.94788 76.1816 8.86774V7.79682C76.1816 7.71672 76.2472 7.65112 76.3273 7.65112H77.3206C77.4007 7.65112 77.4663 7.71668 77.4663 7.79682V8.86774C77.4663 8.94788 77.4007 9.01343 77.3206 9.01343Z" fill="#85C6C5"/>
<path d="M78.9124 9.01343H77.9191C77.839 9.01343 77.7734 8.94788 77.7734 8.86774V7.79682C77.7734 7.71672 77.839 7.65112 77.9191 7.65112H78.9124C78.9926 7.65112 79.0581 7.71668 79.0581 7.79682V8.86774C79.0581 8.94788 78.9926 9.01343 78.9124 9.01343Z" fill="#85C6C5"/>
<path d="M80.5042 9.01343H79.5109C79.4308 9.01343 79.3652 8.94788 79.3652 8.86774V7.79682C79.3652 7.71672 79.4308 7.65112 79.5109 7.65112H80.5042C80.5843 7.65112 80.6499 7.71668 80.6499 7.79682V8.86774C80.6499 8.94788 80.5844 9.01343 80.5042 9.01343Z" fill="#85C6C5"/>
<path d="M72.5012 8.95423C72.2048 8.95423 71.9084 8.95423 71.612 8.95423C71.5341 8.95423 71.4664 8.90724 71.465 8.82336C71.4643 8.78092 71.465 8.73843 71.465 8.69599C71.465 8.50366 71.465 8.3113 71.465 8.11897C71.465 8.04318 71.465 7.9674 71.465 7.89161C71.465 7.83431 71.4639 7.77853 71.5144 7.73826C71.5584 7.70319 71.615 7.71024 71.6675 7.71024C71.7517 7.71024 71.836 7.71024 71.9202 7.71024C72.098 7.71024 72.2759 7.71024 72.4538 7.71024C72.5184 7.71024 72.5826 7.7143 72.6169 7.78075C72.6382 7.82202 72.6314 7.87546 72.6314 7.92064C72.6314 8.10439 72.6314 8.2881 72.6314 8.47181C72.6314 8.55778 72.6314 8.64376 72.6314 8.72969C72.6314 8.76964 72.6371 8.81599 72.6275 8.85521C72.6132 8.9138 72.5605 8.95254 72.5012 8.95423C72.4253 8.95637 72.425 9.07468 72.5012 9.07255C72.641 9.0686 72.7472 8.95927 72.7497 8.8201C72.7506 8.76525 72.7497 8.71028 72.7497 8.6554C72.7497 8.45042 72.7497 8.24541 72.7497 8.04044C72.7497 7.97758 72.75 7.91472 72.7497 7.85186C72.7491 7.73496 72.6771 7.62567 72.5588 7.59873C72.5062 7.58677 72.4481 7.59192 72.3947 7.59192C72.2988 7.59192 72.2029 7.59192 72.107 7.59192C71.9393 7.59192 71.7716 7.59084 71.6039 7.59192C71.4793 7.59273 71.3688 7.67698 71.35 7.80338C71.3429 7.85126 71.3467 7.9016 71.3467 7.9498C71.3467 8.15074 71.3467 8.35168 71.3467 8.55263C71.3467 8.62958 71.3467 8.70654 71.3467 8.78349C71.3467 8.86882 71.3624 8.95009 71.4307 9.00981C71.4952 9.06614 71.5701 9.07251 71.6504 9.07251C71.7352 9.07251 71.8202 9.07251 71.9051 9.07251C72.0915 9.07251 72.278 9.07251 72.4644 9.07251C72.4767 9.07251 72.489 9.07251 72.5012 9.07251C72.5774 9.07255 72.5775 8.95423 72.5012 8.95423Z" fill="#678183"/>
<path d="M74.0931 8.95423C73.7966 8.95423 73.5002 8.95423 73.2038 8.95423C73.126 8.95423 73.0582 8.90724 73.0568 8.82336C73.0561 8.78092 73.0568 8.73843 73.0568 8.69599C73.0568 8.50366 73.0568 8.3113 73.0568 8.11897C73.0568 8.04318 73.0568 7.9674 73.0568 7.89161C73.0568 7.83431 73.0556 7.77853 73.1062 7.73826C73.1502 7.70319 73.2068 7.71024 73.2593 7.71024C73.3435 7.71024 73.4277 7.71024 73.5119 7.71024C73.6899 7.71024 73.8677 7.71024 74.0456 7.71024C74.1101 7.71024 74.1744 7.7143 74.2086 7.78075C74.2299 7.82202 74.2232 7.87546 74.2232 7.92064C74.2232 8.10439 74.2232 8.2881 74.2232 8.47181C74.2232 8.55778 74.2232 8.64376 74.2232 8.72969C74.2232 8.76964 74.2289 8.81599 74.2193 8.85521C74.2051 8.9138 74.1523 8.95254 74.0931 8.95423C74.0171 8.95637 74.0168 9.07468 74.0931 9.07255C74.2328 9.0686 74.339 8.95927 74.3415 8.8201C74.3425 8.76525 74.3415 8.71028 74.3415 8.6554C74.3415 8.45042 74.3415 8.24541 74.3415 8.04044C74.3415 7.97758 74.3418 7.91472 74.3415 7.85186C74.3409 7.73496 74.269 7.62567 74.1506 7.59873C74.0981 7.58677 74.0399 7.59192 73.9865 7.59192C73.8906 7.59192 73.7947 7.59192 73.6988 7.59192C73.5311 7.59192 73.3633 7.59084 73.1957 7.59192C73.0711 7.59273 72.9606 7.67698 72.9418 7.80338C72.9347 7.85126 72.9385 7.9016 72.9385 7.9498C72.9385 8.15074 72.9385 8.35168 72.9385 8.55263C72.9385 8.62958 72.9385 8.70654 72.9385 8.78349C72.9385 8.86882 72.9541 8.95009 73.0225 9.00981C73.087 9.06614 73.1619 9.07251 73.2422 9.07251C73.3271 9.07251 73.412 9.07251 73.4968 9.07251C73.6833 9.07251 73.8698 9.07251 74.0563 9.07251C74.0685 9.07251 74.0808 9.07251 74.0931 9.07251C74.1692 9.07255 74.1693 8.95423 74.0931 8.95423Z" fill="#678183"/>
<path d="M75.6849 8.95423C75.3884 8.95423 75.092 8.95423 74.7956 8.95423C74.7178 8.95423 74.65 8.90724 74.6487 8.82336C74.6479 8.78092 74.6487 8.73843 74.6487 8.69599C74.6487 8.50366 74.6487 8.3113 74.6487 8.11897C74.6487 8.04318 74.6487 7.9674 74.6487 7.89161C74.6487 7.83431 74.6474 7.77853 74.698 7.73826C74.742 7.70319 74.7986 7.71024 74.8511 7.71024C74.9353 7.71024 75.0196 7.71024 75.1038 7.71024C75.2816 7.71024 75.4595 7.71024 75.6374 7.71024C75.702 7.71024 75.7662 7.7143 75.8005 7.78075C75.8217 7.82202 75.815 7.87546 75.815 7.92064C75.815 8.10439 75.815 8.2881 75.815 8.47181C75.815 8.55778 75.815 8.64376 75.815 8.72969C75.815 8.76964 75.8207 8.81599 75.8112 8.85521C75.7968 8.9138 75.7441 8.95254 75.6849 8.95423C75.6089 8.95637 75.6086 9.07468 75.6849 9.07255C75.8246 9.0686 75.9308 8.95927 75.9333 8.8201C75.9343 8.76525 75.9333 8.71028 75.9333 8.6554C75.9333 8.45042 75.9333 8.24541 75.9333 8.04044C75.9333 7.97758 75.9336 7.91472 75.9333 7.85186C75.9327 7.73496 75.8608 7.62567 75.7424 7.59873C75.6899 7.58677 75.6317 7.59192 75.5783 7.59192C75.4824 7.59192 75.3865 7.59192 75.2906 7.59192C75.1229 7.59192 74.9552 7.59084 74.7875 7.59192C74.6629 7.59273 74.5524 7.67698 74.5336 7.80338C74.5265 7.85126 74.5303 7.9016 74.5303 7.9498C74.5303 8.15074 74.5303 8.35168 74.5303 8.55263C74.5303 8.62958 74.5303 8.70654 74.5303 8.78349C74.5303 8.86882 74.546 8.95009 74.6143 9.00981C74.6788 9.06614 74.7537 9.07251 74.834 9.07251C74.9189 9.07251 75.0038 9.07251 75.0887 9.07251C75.2751 9.07251 75.4616 9.07251 75.6481 9.07251C75.6603 9.07251 75.6726 9.07251 75.6849 9.07251C75.761 9.07255 75.7611 8.95423 75.6849 8.95423Z" fill="#678183"/>
<path d="M77.2766 8.95423C76.9802 8.95423 76.6838 8.95423 76.3874 8.95423C76.3096 8.95423 76.2418 8.90724 76.2404 8.82336C76.2397 8.78092 76.2404 8.73843 76.2404 8.69599C76.2404 8.50366 76.2404 8.3113 76.2404 8.11897C76.2404 8.04318 76.2404 7.9674 76.2404 7.89161C76.2404 7.83431 76.2392 7.77853 76.2897 7.73826C76.3338 7.70319 76.3904 7.71024 76.4428 7.71024C76.5271 7.71024 76.6113 7.71024 76.6955 7.71024C76.8734 7.71024 77.0513 7.71024 77.2292 7.71024C77.2937 7.71024 77.358 7.7143 77.3922 7.78075C77.4135 7.82202 77.4068 7.87546 77.4068 7.92064C77.4068 8.10439 77.4068 8.2881 77.4068 8.47181C77.4068 8.55778 77.4068 8.64376 77.4068 8.72969C77.4068 8.76964 77.4125 8.81599 77.4029 8.85521C77.3886 8.9138 77.3359 8.95254 77.2766 8.95423C77.2007 8.95637 77.2004 9.07468 77.2766 9.07255C77.4164 9.0686 77.5225 8.95927 77.5251 8.8201C77.526 8.76525 77.5251 8.71028 77.5251 8.6554C77.5251 8.45042 77.5251 8.24541 77.5251 8.04044C77.5251 7.97758 77.5254 7.91472 77.5251 7.85186C77.5245 7.73496 77.4526 7.62567 77.3342 7.59873C77.2817 7.58677 77.2235 7.59192 77.17 7.59192C77.0742 7.59192 76.9783 7.59192 76.8823 7.59192C76.7147 7.59192 76.5469 7.59084 76.3793 7.59192C76.2547 7.59273 76.1441 7.67698 76.1254 7.80338C76.1183 7.85126 76.1221 7.9016 76.1221 7.9498C76.1221 8.15074 76.1221 8.35168 76.1221 8.55263C76.1221 8.62958 76.1221 8.70654 76.1221 8.78349C76.1221 8.86882 76.1377 8.95009 76.2061 9.00981C76.2706 9.06614 76.3455 9.07251 76.4258 9.07251C76.5107 9.07251 76.5955 9.07251 76.6804 9.07251C76.8669 9.07251 77.0534 9.07251 77.2398 9.07251C77.2521 9.07251 77.2643 9.07251 77.2766 9.07251C77.3527 9.07255 77.3529 8.95423 77.2766 8.95423Z" fill="#678183"/>
<path d="M78.8685 8.95423C78.572 8.95423 78.2756 8.95423 77.9792 8.95423C77.9014 8.95423 77.8336 8.90724 77.8322 8.82336C77.8315 8.78092 77.8322 8.73843 77.8322 8.69599C77.8322 8.50366 77.8322 8.3113 77.8322 8.11897C77.8322 8.04318 77.8322 7.9674 77.8322 7.89161C77.8322 7.83431 77.831 7.77853 77.8816 7.73826C77.9256 7.70319 77.9822 7.71024 78.0347 7.71024C78.1189 7.71024 78.2032 7.71024 78.2873 7.71024C78.4652 7.71024 78.6431 7.71024 78.821 7.71024C78.8856 7.71024 78.9498 7.7143 78.9841 7.78075C79.0053 7.82202 78.9986 7.87546 78.9986 7.92064C78.9986 8.10439 78.9986 8.2881 78.9986 8.47181C78.9986 8.55778 78.9986 8.64376 78.9986 8.72969C78.9986 8.76964 79.0043 8.81599 78.9947 8.85521C78.9804 8.9138 78.9277 8.95254 78.8685 8.95423C78.7925 8.95637 78.7922 9.07468 78.8685 9.07255C79.0082 9.0686 79.1144 8.95927 79.1169 8.8201C79.1179 8.76525 79.1169 8.71028 79.1169 8.6554C79.1169 8.45042 79.1169 8.24541 79.1169 8.04044C79.1169 7.97758 79.1172 7.91472 79.1169 7.85186C79.1163 7.73496 79.0444 7.62567 78.926 7.59873C78.8735 7.58677 78.8153 7.59192 78.7619 7.59192C78.666 7.59192 78.5701 7.59192 78.4742 7.59192C78.3065 7.59192 78.1387 7.59084 77.9711 7.59192C77.8465 7.59273 77.736 7.67698 77.7172 7.80338C77.7101 7.85126 77.7139 7.9016 77.7139 7.9498C77.7139 8.15074 77.7139 8.35168 77.7139 8.55263C77.7139 8.62958 77.7139 8.70654 77.7139 8.78349C77.7139 8.86882 77.7295 8.95009 77.7979 9.00981C77.8624 9.06614 77.9373 9.07251 78.0176 9.07251C78.1025 9.07251 78.1874 9.07251 78.2722 9.07251C78.4587 9.07251 78.6452 9.07251 78.8317 9.07251C78.8439 9.07251 78.8562 9.07251 78.8685 9.07251C78.9446 9.07255 78.9447 8.95423 78.8685 8.95423Z" fill="#678183"/>
<path d="M80.4603 8.95423C80.1638 8.95423 79.8674 8.95423 79.571 8.95423C79.4932 8.95423 79.4254 8.90724 79.424 8.82336C79.4233 8.78092 79.424 8.73843 79.424 8.69599C79.424 8.50366 79.424 8.3113 79.424 8.11897C79.424 8.04318 79.424 7.9674 79.424 7.89161C79.424 7.83431 79.4228 7.77853 79.4734 7.73826C79.5174 7.70319 79.574 7.71024 79.6265 7.71024C79.7107 7.71024 79.795 7.71024 79.8792 7.71024C80.057 7.71024 80.2349 7.71024 80.4128 7.71024C80.4774 7.71024 80.5416 7.7143 80.5759 7.78075C80.5972 7.82202 80.5904 7.87546 80.5904 7.92064C80.5904 8.10439 80.5904 8.2881 80.5904 8.47181C80.5904 8.55778 80.5904 8.64376 80.5904 8.72969C80.5904 8.76964 80.5961 8.81599 80.5865 8.85521C80.5723 8.9138 80.5195 8.95254 80.4603 8.95423C80.3843 8.95637 80.384 9.07468 80.4603 9.07255C80.6 9.0686 80.7062 8.95927 80.7087 8.8201C80.7096 8.76525 80.7087 8.71028 80.7087 8.6554C80.7087 8.45042 80.7087 8.24541 80.7087 8.04044C80.7087 7.97758 80.709 7.91472 80.7087 7.85186C80.7081 7.73496 80.6362 7.62567 80.5178 7.59873C80.4652 7.58677 80.4071 7.59192 80.3537 7.59192C80.2578 7.59192 80.1619 7.59192 80.066 7.59192C79.8983 7.59192 79.7306 7.59084 79.5629 7.59192C79.4383 7.59273 79.3278 7.67698 79.309 7.80338C79.3019 7.85126 79.3057 7.9016 79.3057 7.9498C79.3057 8.15074 79.3057 8.35168 79.3057 8.55263C79.3057 8.62958 79.3057 8.70654 79.3057 8.78349C79.3057 8.86882 79.3214 8.95009 79.3897 9.00981C79.4542 9.06614 79.5291 9.07251 79.6094 9.07251C79.6942 9.07251 79.7792 9.07251 79.8641 9.07251C80.0505 9.07251 80.237 9.07251 80.4234 9.07251C80.4357 9.07251 80.448 9.07251 80.4603 9.07251C80.5364 9.07255 80.5365 8.95423 80.4603 8.95423Z" fill="#678183"/>
<path d="M79.9254 46.599C84.1109 44.7908 84.4454 40.408 84.4454 40.408C80.8228 40.719 78.2876 43.6773 77.501 44.719L79.9254 46.599Z" fill="#6A9D65"/>
<path d="M77.9595 46.5378C78.2254 46.3245 78.5177 46.0442 78.8392 45.6843C82.0494 42.0894 79.8588 37.0166 79.8588 37.0166C76.3448 38.7532 75.5332 43.1441 75.3623 44.5237L77.9595 46.5378Z" fill="#74AC70"/>
<path d="M87.5032 49.9998C87.4714 49.7154 87.3979 49.4138 87.2623 49.105C86.6085 47.6159 84.7249 47.7504 84.7249 47.7504C84.7249 47.7504 85.6668 45.4631 83.245 44.1177C81.1609 42.9599 79.8814 45.3286 79.8814 45.3286C79.8814 45.3286 79.6123 42.0995 76.6523 42.2341C73.2923 42.3868 73.5578 45.4631 73.5578 45.4631C73.5578 45.4631 69.2423 45.1398 69.21 49.9998H87.5032V49.9998Z" fill="#8BCF88"/>
<path d="M5.64669 50C4.9572 47.9482 3.45991 44.823 0.437826 43.1483C0.437826 43.1483 -0.770735 46.5201 0.828035 50H5.64669Z" fill="#6A9D65"/>
<path d="M9.61456 49.9999C9.48051 47.6873 8.46504 43.6365 5.53682 41.0071C5.53682 41.0071 3.02426 45.2476 4.50133 49.9999H9.61456Z" fill="#8BCF88"/>
<path d="M24.466 50C24.4136 44.8563 19.8358 45.1995 19.8358 45.1995C19.8358 45.1995 20.1187 41.9234 16.5404 41.7607C13.3882 41.6174 13.1016 45.0562 13.1016 45.0562C13.1016 45.0562 11.739 42.5336 9.51958 43.7666C6.94054 45.1995 7.94348 47.6352 7.94348 47.6352C7.94348 47.6352 5.93755 47.4919 5.24129 49.0778C5.1018 49.3955 5.02392 49.7062 4.98828 50H24.466V50Z" fill="#74AC70"/>
<path d="M53.5938 26.7428C53.5938 26.7428 52.8351 29.8746 51.6652 30.7174C50.4953 31.5603 49.7676 32.8209 49.7676 32.8209C49.7676 32.8209 51.6747 33.1057 52.3849 34.3646C52.3849 34.3646 55.8819 33.231 56.3098 29.274C56.7378 25.317 53.5938 26.7428 53.5938 26.7428Z" fill="#79B2AF"/>
<path d="M49.2725 34.3045C49.2725 34.3045 50.2615 33.8649 50.8109 34.5243C51.3603 35.1836 52.5691 34.6342 52.4592 33.8649C52.3493 33.0957 51.3603 31.7771 51.3603 31.7771C51.3603 31.7771 50.0417 32.4364 49.2725 34.3045Z" fill="#F0CCC5"/>
<path d="M51.3606 31.7771C51.3606 31.7771 50.4541 31.9144 50.0145 32.2441C49.5749 32.5738 49.1354 33.4803 49.053 33.8924C48.9706 34.3045 48.998 34.9089 49.3277 34.9638C49.6573 35.0187 49.9595 34.8814 51.3606 31.7771Z" fill="#F7DBD4"/>
<path d="M51.2236 32.7111C51.5726 32.7111 51.8554 32.4774 51.8554 32.1891C51.8554 31.9008 51.5726 31.6671 51.2236 31.6671C50.8747 31.6671 50.5918 31.9008 50.5918 32.1891C50.5918 32.4774 50.8747 32.7111 51.2236 32.7111Z" fill="#F7DBD4"/>
<path d="M57.5423 23.0215C57.5423 23.0215 67.0264 23.2373 67.0264 23.615C67.0264 23.9927 68.198 37.8596 70.6527 49.9999H52.5771C52.5771 49.9999 55.3107 27.1762 57.5423 23.0215Z" fill="#79B2AF"/>
<path d="M60.9877 49.9999C67.1774 46.7995 63.9695 42.1384 65.6689 39.6402C66.7062 38.1153 67.7598 37.6664 68.5905 37.6225C67.5371 29.993 67.0264 23.8644 67.0264 23.615C67.0264 23.2373 57.5423 23.0215 57.5423 23.0215C55.3108 27.1762 52.5771 49.9999 52.5771 49.9999H60.9877Z" fill="#71A7A4"/>
<path d="M69.5924 38.3274C69.5924 38.3274 68.2794 38.5612 67.7758 39.8562C67.2722 41.1511 68.4953 47.6259 69.1427 48.1295C69.7902 48.6331 72.1643 48.2734 72.9557 47.9856C73.7471 47.6979 74.3226 47.1943 74.3226 46.4029C74.3226 45.6115 72.4521 39.8562 72.0205 39.1367C71.5888 38.4173 70.5456 38.1655 69.5924 38.3274Z" fill="#7A9797"/>
<path d="M70.9717 39.6807C70.9886 39.7031 70.9773 39.6874 70.9717 39.6807V39.6807Z" fill="#83A1A1"/>
<path d="M70.4913 39.3481C70.4905 39.3478 70.4897 39.3474 70.4888 39.3471C70.481 39.3439 70.4644 39.3396 70.4913 39.3481Z" fill="#83A1A1"/>
<path d="M72.7453 44.3408C72.6797 44.1094 72.6138 43.8781 72.5476 43.6468C72.4568 43.3299 72.3655 43.0131 72.2735 42.6965C72.1745 42.3558 72.0746 42.0152 71.9732 41.6751C71.8806 41.3641 71.7869 41.0535 71.69 40.7439C71.6211 40.5242 71.5521 40.3043 71.4738 40.0878C71.3651 39.7877 71.2051 39.503 70.9427 39.3111C70.7714 39.1859 70.5786 39.1014 70.3737 39.0472C70.147 38.9872 69.9075 38.9582 69.6735 38.9504C69.463 38.9434 69.2521 38.9752 69.0463 39.0162C68.832 39.0589 68.6209 39.1173 68.4127 39.1836C68.3016 39.2191 68.1913 39.2574 68.0815 39.2972C68.0037 39.4027 67.9314 39.5193 67.8672 39.6479C67.9778 39.6037 68.0894 39.5618 68.2013 39.5217C68.3969 39.4516 68.595 39.3877 68.7958 39.3338C68.9012 39.3055 69.0075 39.2799 69.1145 39.2584C69.1388 39.2535 69.1632 39.2488 69.1876 39.2443C69.1945 39.2431 69.2019 39.2422 69.2088 39.2406C69.2215 39.2385 69.2342 39.2364 69.2469 39.2344C69.298 39.2264 69.3493 39.2196 69.4008 39.2142C69.4968 39.2043 69.5936 39.1991 69.6901 39.2028C69.7468 39.2049 69.8035 39.2098 69.8601 39.2147C69.861 39.2148 69.8617 39.2148 69.8626 39.2149C69.8692 39.2156 69.8759 39.2162 69.8825 39.2169C69.8963 39.2184 69.9101 39.2199 69.9238 39.2214C69.9538 39.2249 69.9837 39.2287 70.0136 39.2329C70.1206 39.2481 70.2271 39.2685 70.3314 39.297C70.3814 39.3106 70.431 39.3262 70.4797 39.3439C70.4844 39.3456 70.4891 39.3477 70.494 39.3492C70.4925 39.3487 70.4917 39.3485 70.4904 39.3481C70.5 39.352 70.5096 39.3557 70.5191 39.3597C70.5418 39.3691 70.5641 39.3791 70.5863 39.3897C70.6285 39.4097 70.6697 39.4319 70.7096 39.4561C70.7288 39.4678 70.7475 39.4799 70.766 39.4925C70.7683 39.4941 70.7699 39.4952 70.7713 39.4961C70.7713 39.4962 70.7713 39.4962 70.7713 39.4962C70.7816 39.5039 70.792 39.5115 70.8021 39.5194C70.8382 39.5475 70.8726 39.5777 70.9051 39.6097C70.9211 39.6255 70.9367 39.6417 70.9519 39.6583C70.9583 39.6653 70.9646 39.6725 70.9709 39.6796C70.9711 39.6799 70.9714 39.6803 70.9716 39.6805C70.9707 39.6792 70.97 39.6783 70.9688 39.6768C70.9731 39.6825 70.978 39.6879 70.9825 39.6936C71.0441 39.7704 71.0965 39.8542 71.1411 39.9419C71.146 39.9514 71.1507 39.961 71.1554 39.9706C71.1555 39.9707 71.1555 39.9708 71.1556 39.971C71.1555 39.9707 71.1554 39.9703 71.1554 39.9703C71.1554 39.9703 71.1566 39.973 71.1581 39.9762C71.1598 39.9798 71.1606 39.9816 71.1608 39.9821C71.1617 39.9841 71.1624 39.9856 71.1622 39.9852C71.1702 40.0029 71.178 40.0208 71.1854 40.0388C71.1913 40.053 71.197 40.0674 71.2026 40.0818C71.2765 40.2724 71.3378 40.4681 71.3998 40.6628C71.4928 40.9549 71.5819 41.2481 71.6701 41.5416C71.7709 41.8776 71.8701 42.214 71.9683 42.5507C72.0632 42.8758 72.1574 43.2013 72.2509 43.5269C72.3237 43.7805 72.3961 44.0342 72.4682 44.288C72.5046 44.416 72.5408 44.5439 72.5769 44.6719C72.5785 44.6777 72.5801 44.6834 72.5817 44.6892C72.5996 44.7527 72.6776 44.7942 72.7402 44.7713C72.8061 44.7471 72.8415 44.681 72.8223 44.6128C72.7967 44.5223 72.771 44.4315 72.7453 44.3408ZM69.2028 39.2416C69.2045 39.2413 69.2063 39.241 69.208 39.2407C69.2002 39.2421 69.1849 39.2445 69.2028 39.2416ZM69.2094 39.2405C69.2102 39.2403 69.2111 39.2402 69.2119 39.24C69.2115 39.2401 69.2106 39.2403 69.2094 39.2405Z" fill="#83A1A1"/>
<path d="M71.1553 39.9709C71.1558 39.9733 71.1611 39.9836 71.1605 39.9821C71.1597 39.9803 71.1587 39.9782 71.1578 39.9762C71.157 39.9747 71.1563 39.9732 71.1553 39.9709Z" fill="#83A1A1"/>
<path d="M72.7032 48.065C72.4516 46.5438 71.0599 41.45 70.7254 40.6474C70.3657 39.7841 69.5744 39.6402 68.4233 39.9999C68.1077 40.0985 67.8626 40.2458 67.6728 40.4077C67.5176 42.4194 68.5618 47.6776 69.1427 48.1294C69.7314 48.5873 71.7472 48.3315 72.7032 48.065Z" fill="#749190"/>
<path d="M70.892 37.7732C70.892 37.7732 70.8643 38.6031 70.8431 39.2378C70.822 39.8725 71.7772 40.5397 72.0554 40.9889C72.3337 41.438 72.4769 41.5406 72.7731 41.4527C73.0692 41.3648 73.1169 42.4336 73.405 42.5899C73.693 42.7461 74.1432 42.867 73.7268 39.2363C73.3104 35.6056 70.892 37.7732 70.892 37.7732Z" fill="#F7DBD4"/>
<path d="M72.7725 41.4527C73.0687 41.3648 73.1164 42.4336 73.4044 42.5899C73.6924 42.7461 74.1427 42.8669 73.7262 39.2363C73.7143 39.1322 73.7006 39.0331 73.6855 38.9384C72.9894 38.9465 72.1414 39.0306 72.1094 39.1906C72.0554 39.4604 72.7569 40.2698 72.9727 40.7014C73.1886 41.1331 72.7725 41.4527 72.7725 41.4527Z" fill="#F0CCC5"/>
<path d="M71.0309 25.3236C71.0309 25.3236 73.2432 33.4711 73.7827 36.2229C74.3223 38.9747 74.1604 40.1078 74.1604 40.1078C74.1604 40.1078 71.3007 39.9999 70.3834 38.3272C70.3834 38.3272 69.1964 34.3884 68.8187 33.5251C68.441 32.6617 65.959 28.0754 67.2 26.4028C68.441 24.7301 70.7072 24.2445 71.0309 25.3236Z" fill="#79B2AF"/>
<path d="M62.0741 7.06829C64.693 6.32334 68.9047 7.93516 69.0699 12.1323C69.1622 14.4791 68.7513 16.2903 68.9175 19.8746C68.9993 21.6388 70.5469 21.8883 71.1389 23.4712C72.0632 25.9423 73.1893 30.4856 73.1893 30.4856C73.1893 30.4856 69.5379 38.541 62.9914 38.687C52.4334 38.9225 51.7324 29.2086 51.7324 29.2086C51.7324 29.2086 53.3749 22.9419 54.8259 21.0072C56.3368 18.9928 56.9697 17.0109 57.297 14.6898C57.8186 10.9904 59.4552 7.81323 62.0741 7.06829Z" fill="#446767"/>
<path d="M71.1384 23.4712C70.5464 21.8883 68.9988 21.6388 68.917 19.8746C68.7508 16.2904 69.1618 14.4792 69.0694 12.1324C69.0623 11.9532 69.0478 11.7788 69.0264 11.6089C68.6697 10.2934 67.6869 9.69293 67.8471 11.6546C68.0629 14.2985 67.3326 16.3758 66.9298 16.8885C65.7427 18.3993 64.505 19.6839 61.8039 18.8309C58.7284 17.8597 58.8903 14.2985 59.5377 11.0611C60.1852 7.82371 56.3003 17.2122 60.6169 18.8849L62.991 19.4244C62.991 19.4244 66.2132 18.8502 66.6061 21.6367C67.1996 25.8453 70.2108 25.2931 71.547 24.65C71.4093 24.2272 71.2718 23.8276 71.1384 23.4712Z" fill="#3E5F5F"/>
<path d="M66.284 28.4867C66.1785 30.1297 66.0138 31.7695 65.7768 33.3988C65.5302 35.095 65.2068 36.7813 64.7847 38.4429C64.8785 38.4193 64.9715 38.3941 65.0638 38.3674C65.4186 36.9496 65.7026 35.5142 65.9288 34.0704C66.1876 32.4187 66.3727 30.7556 66.4949 29.0883C66.5977 27.6851 66.6563 26.2786 66.672 24.8718C66.6831 23.8809 66.6734 22.8896 66.6373 21.8992C66.6219 21.476 66.6106 21.0499 66.5722 20.6279C66.5717 20.6224 66.5714 20.6169 66.571 20.6113C66.5643 20.5263 66.496 20.4722 66.4112 20.4897C65.3984 20.6986 64.244 20.7649 63.3081 20.2452C62.8218 19.9753 62.4601 19.5779 62.2358 19.0755C62.2342 19.072 62.233 19.0694 62.2321 19.0674C62.232 19.0671 62.2319 19.0667 62.2315 19.0657C62.2272 19.0554 62.223 19.0451 62.2189 19.0347C62.2113 19.0156 62.204 18.9965 62.1969 18.9772C62.1853 18.9454 62.1744 18.9134 62.1646 18.8811C62.1562 18.8534 62.1479 18.8255 62.1419 18.7972C62.1086 18.6384 61.8653 18.7056 61.8986 18.8643C61.9652 19.1817 62.146 19.4905 62.3414 19.7435C62.8236 20.368 63.5549 20.7254 64.3259 20.8408C64.9927 20.9407 65.6694 20.8875 66.3292 20.7624C66.3492 21.0531 66.3625 21.3443 66.3746 21.6354C66.4131 22.5582 66.4272 23.4822 66.4232 24.4059C66.4175 25.7671 66.3711 27.1282 66.284 28.4867Z" fill="#365353"/>
<path d="M61.7441 11.0034C62.583 10.2543 63.8487 9.5336 64.2947 9.33938C64.8749 9.08673 65.6963 10.8556 66.3705 12.6326C65.4177 11.7596 63.7084 10.581 61.7441 11.0034Z" fill="#557C7F"/>
<path d="M59.2457 14.7388C59.4331 13.9753 60.8322 11.818 61.7444 11.0034C63.7087 10.5809 65.6258 11.4232 66.3708 12.6326C66.3607 12.606 66.3505 12.5795 66.3402 12.553C66.767 13.65 66.9315 16.1181 66.9272 16.5683C66.9153 17.8114 65.3604 20.3353 62.3488 19.8112C60.008 19.4038 58.7811 16.6316 59.2457 14.7388Z" fill="#F7DBD4"/>
<path d="M66.3638 21.1151C66.5675 21.1151 66.7325 20.95 66.7325 20.7464C66.7325 20.5428 66.5675 20.3777 66.3638 20.3777C66.1602 20.3777 65.9951 20.5428 65.9951 20.7464C65.9951 20.95 66.1602 21.1151 66.3638 21.1151Z" fill="#94CDD3"/>
<path d="M62.3673 17.4005C62.7972 17.6793 63.3834 17.6122 63.747 17.2548C63.9123 17.0922 63.6579 16.8379 63.4926 17.0004C63.2394 17.2494 62.8445 17.2816 62.5488 17.0899C62.354 16.9636 62.1735 17.2749 62.3673 17.4005Z" fill="#EBB8AC"/>
<path d="M69.5923 38.3272C69.7258 38.3046 69.8612 38.2903 69.9964 38.2841C69.7452 36.1847 69.3265 31.962 69.5203 28.4352L68.4951 28.3812C68.4951 28.3812 68.5372 34.9917 68.9934 38.5421C69.3292 38.3742 69.5923 38.3272 69.5923 38.3272Z" fill="#627E7D"/>
<path d="M69.6742 20.5468C69.6742 20.5468 70.9618 21.4054 70.9631 22.0088C70.9643 22.6121 69.8783 28.5563 69.8297 29.1556C69.781 29.7548 69.6771 29.7967 69.3653 29.9222C69.0535 30.0476 68.3044 29.9868 68.1951 29.4752C68.0858 28.9637 68.0216 24.1828 69.0425 20.8977C69.0425 20.8977 69.2531 20.1607 69.6742 20.5468Z" fill="#7A9797"/>
<path d="M68.2071 44.0287C68.2071 44.0287 70.2215 44.3884 70.9409 43.597C70.9409 43.597 72.0201 46.259 71.2287 46.9784C70.4373 47.6978 67.4157 48.2733 68.2071 44.0287Z" fill="#83A1A1"/>
<path d="M58.513 27.7338C58.621 25.7374 56.4627 23.5791 53.8818 22.7505C52.7446 25.3469 51.7324 29.2086 51.7324 29.2086C51.7324 29.2086 52.4066 38.5448 62.382 38.6891C62.4366 34.9427 58.2223 33.1135 58.513 27.7338Z" fill="#3E5F5F"/>
<path d="M61.6422 44.2299C61.6422 44.2299 61.6139 44.9656 62.2081 45.3899C62.6621 45.7143 62.8582 45.9318 62.9437 45.8992C63.5378 45.6729 62.6992 45.1287 62.9154 45.2202C63.651 45.5314 64.0592 45.4122 64.33 45.2768C64.4998 45.1919 65.0373 44.9655 64.0754 44.2865C63.7749 44.0744 63.0852 43.5792 63.0852 43.5792C63.0852 43.5792 61.5856 43.8338 61.6422 44.2299Z" fill="#F7DBD4"/>
<path d="M47.7832 44.4395C47.7832 44.4395 47.8096 45.1274 47.254 45.5242C46.8294 45.8274 46.6461 46.0308 46.5662 46.0004C46.0107 45.7887 46.7948 45.2799 46.5927 45.3654C45.9049 45.6565 45.5231 45.545 45.2699 45.4183C45.1112 45.3389 44.6085 45.1273 45.508 44.4924C45.789 44.2941 46.4339 43.8311 46.4339 43.8311C46.4339 43.8311 47.8361 44.0692 47.7832 44.4395Z" fill="#F7DBD4"/>
<path d="M49.6373 34.7842L46.0762 43.9568L47.9107 44.6583L52.4971 36.0252L49.6373 34.7842Z" fill="#557C7F"/>
<path d="M57.6768 37.7519L61.4537 44.8202C61.4537 44.8202 62.9106 44.9282 63.3962 43.6871L60.3746 36.349L57.6768 37.7519Z" fill="#557C7F"/>
<path d="M50.2844 45.5756C50.2844 45.5756 50.2304 48.0577 50.6621 50.0001H62.047C62.047 50.0001 61.0757 47.7878 59.7808 43.9569L50.2844 45.5756Z" fill="#7A9797"/>
<path d="M59.7808 43.9569L50.2844 45.5756C50.2844 45.5756 50.2642 46.5059 50.3476 47.673C51.5968 48.0657 53.3175 48.3643 55.4642 48.1655C57.6902 47.9594 58.6251 46.5882 60.5544 46.1689C60.3152 45.508 60.0553 44.769 59.7808 43.9569Z" fill="#749190"/>
<path d="M51.4712 34.9502C51.4712 34.9502 50.7484 36.8406 50.2846 41.2591C49.9957 44.0111 50.0688 46.2771 50.0688 46.2771C50.0688 46.2771 52.2811 46.9785 56.3818 46.8705C59.7299 46.7824 60.8602 45.8993 60.8602 45.8993C60.8602 45.8993 59.729 42.4598 59.5652 41.2591C59.0796 37.6979 58.9389 35.2013 58.9389 35.2013L51.4712 34.9502Z" fill="#557C7F"/>
<path d="M59.5655 41.2591C59.0799 37.6979 58.9392 35.2013 58.9392 35.2013L51.4715 34.9502C51.4715 34.9502 50.8516 36.572 50.3916 40.3212C51.8237 41.9457 54.3589 43.0082 56.9216 42.9317C58.371 42.8885 59.369 43.0447 60.045 43.2474C59.8231 42.4695 59.6267 41.7079 59.5655 41.2591Z" fill="#4F7676"/>
<path d="M54.5778 23.6405C54.5778 23.6405 51.8478 23.5008 50.8241 27.2303C49.8004 30.9597 50.8248 32.8048 49.9072 33.9496C48.9897 35.0943 48.2881 37.2123 48.2881 37.2123C48.2881 37.2123 50.716 40.5844 53.5219 41.6367C54.3852 41.9604 57.8622 42.9296 61.3364 37.9926C61.3364 37.9926 60.3205 35.3777 59.9428 34.5684C59.2489 33.0813 59.5279 32.4776 59.7809 31.3849C60.4584 28.4597 59.298 23.3799 54.5778 23.6405Z" fill="#79B2AF"/>
<path d="M54.1154 33.1656C54.1154 33.1656 54.8708 33.2195 56.8132 32.626C58.7557 32.0325 58.8096 28.7412 58.4319 27.7159C58.0542 26.6908 57.9463 27.1224 57.9463 27.1224C58.5398 31.0613 55.6261 33.2195 53.3599 32.8958C51.894 32.6864 50.9022 30.8739 50.3846 29.62C50.1821 31.8102 50.603 33.0815 49.9071 33.9497C49.7844 34.1028 49.6656 34.2734 49.5518 34.4539C50.3116 35.5815 51.5802 37.4045 53.1441 39.4246C55.734 42.7699 53.8995 35.108 53.6297 34.3527C53.36 33.5973 54.1154 33.1656 54.1154 33.1656Z" fill="#71A7A4"/>
<path d="M56.352 26.8818C55.3825 25.7017 54.0204 24.8775 52.6514 26.8031C53.3921 26.4659 54.6035 26.2416 56.352 26.8818Z" fill="#557C7F"/>
<path d="M57.7362 29.1917C57.7362 29.1917 57.002 27.8058 56.3516 26.8819C54.603 26.2417 53.3917 26.466 52.6509 26.8032C52.5506 26.9065 52.004 27.8529 51.6554 28.733C51.6554 28.733 50.8998 30.6938 52.1537 32.2748C53.4077 33.8558 56.9564 33.8199 57.7134 31.4603C58.1944 29.9614 57.7362 29.1917 57.7362 29.1917Z" fill="#F7DBD4"/>
<path d="M55.4441 30.6899L53.4432 30.7851C53.4432 30.7851 53.2399 32.1683 54.4717 32.1852C55.7036 32.202 55.4441 30.6899 55.4441 30.6899Z" fill="#EBB8AC"/>
<path d="M49.9076 33.9496C49.9076 33.9496 49.4755 33.9689 49.3916 34.5444C49.3916 34.5444 52.9168 41.247 54.8592 42.6499C54.8592 42.6499 54.6097 42.6706 54.7153 43.2135C54.8806 44.0629 55.2553 45.8307 55.5186 46.0612C55.9503 46.4389 56.8569 46.3528 57.2992 46.2231C57.7489 46.0912 59.9971 45.5756 60.105 45.2519C60.213 44.9281 59.1338 42.3382 59.1338 42.3382L59.5834 41.1392L59.4995 40.4198L58.7561 42.0684C58.7561 42.0684 56.4899 42.2842 56.1122 42.3922C55.7345 42.5001 55.6027 42.4222 55.6027 42.4222C55.6027 42.4222 52.8756 39.4819 49.9076 33.9496Z" fill="#87C4C9"/>
<path d="M59.5829 41.1391L59.4989 40.4197L58.7555 42.0683C58.7555 42.0683 56.4894 42.2841 56.1116 42.3921C55.8872 42.4562 55.7496 42.4547 55.6748 42.443C55.764 42.5292 55.8799 42.5812 55.9767 42.6619C56.1386 42.7968 56.9749 45.3598 57.1368 45.8993C57.1833 46.0544 57.1607 46.1758 57.1049 46.2704C57.1759 46.256 57.2413 46.2399 57.2987 46.2231C57.7484 46.0912 59.9965 45.5756 60.1045 45.2519C60.2124 44.9281 59.1333 42.3382 59.1333 42.3382L59.5829 41.1391Z" fill="#7EB8BD"/>
<path d="M55.6259 42.428C55.6259 42.428 55.8255 42.5396 56.0216 42.8057C56.3755 43.2862 56.859 44.0939 57.1367 44.4064C57.65 44.9839 59.8993 44.5573 60.0324 43.7589C60.0503 43.651 59.8166 43.4892 58.9892 42.1403C58.9892 42.1403 58.8698 41.9659 58.6475 42.0144C57.2446 42.3201 55.518 42.374 55.6259 42.428Z" fill="#94CDD3"/>
<path d="M38.8828 45.8993L38.9907 50H44.3504L44.2066 45.8993H38.8828Z" fill="#7A9797"/>
<path d="M44.29 46.439L45.3221 50.0001H50.0454L48.934 44.7483L44.29 46.439Z" fill="#7A9797"/>
<path d="M44.2066 45.8993H38.8828L38.9325 47.7865C39.8964 47.9973 42.0226 48.4145 44.2996 48.5503L44.2066 45.8993Z" fill="#749190"/>
<path d="M49.6332 48.0523L48.934 44.7483L44.29 46.4389L44.9104 48.5796C46.5834 48.6393 48.2882 48.5265 49.6332 48.0523Z" fill="#749190"/>
<path d="M37.8675 35.5576C37.8675 35.5576 36.5186 43.7051 36.5186 45.162C36.5186 46.6188 38.2452 47.1584 38.6768 47.1584C39.1085 47.1584 44.3962 47.4821 45.2596 47.2663C46.1229 47.0505 45.6912 35.8274 45.0977 35.3418C44.5041 34.8563 38.6768 34.4245 37.8675 35.5576Z" fill="#557C7F"/>
<path d="M39.1125 34.6742C39.1125 34.6742 40.1738 34.8411 40.8892 34.715C41.9174 34.5337 42.9206 34.2104 43.2918 34.0314C43.921 33.7281 45.3722 33.7352 46.3425 35.5995C47.577 37.9715 48.7511 43.0598 49.6043 46.295C49.6043 46.295 45.1528 48.6151 38.3718 47.3915C38.3718 47.3915 38.4901 43.4812 37.6304 37.1184C37.3903 35.3414 37.7531 34.7538 39.1125 34.6742Z" fill="#79B2AF"/>
<path d="M38.0938 41.2499C38.4389 45.1304 38.3706 47.3916 38.3706 47.3916C45.1516 48.6153 49.6031 46.2951 49.6031 46.2951C49.4359 45.6611 49.2563 44.9557 49.0664 44.2137C46.9206 43.5277 43.4934 43.7925 40.997 43.2195C39.7388 42.9308 38.7882 42.1296 38.0938 41.2499Z" fill="#71A7A4"/>
<path d="M47.0192 31.9512C47.0192 31.9512 46.8897 23.0325 46.7349 21.8706C46.5801 20.7086 47.3948 19.6092 47.3464 18.4174C47.298 17.2255 47.0227 16.7627 46.4112 16.403C45.4895 15.8609 44.739 15.9612 44.5046 16.4749C44.2704 16.9887 44.1809 19.0289 44.1809 19.0289C44.1809 19.0289 43.8212 18.2375 43.7133 18.0936C43.2705 17.5032 43.0828 18.3677 43.1737 18.7771C43.3896 19.7483 43.6894 20.3267 44.181 21.1512C44.181 21.1512 42.6053 29.1178 43.7779 33.162C44.9504 37.2061 47.0192 31.9512 47.0192 31.9512Z" fill="#F7DBD4"/>
<path d="M45.3862 27.1033C45.0094 26.6435 43.87 24.8201 43.6783 24.3878C43.3471 27.0603 43.0881 30.7872 43.7766 33.162C44.9492 37.2062 47.018 31.9512 47.018 31.9512C47.018 31.9512 46.9965 30.4684 46.9604 28.6332C46.8103 28.5146 45.5648 27.3212 45.3862 27.1033Z" fill="#EBB8AC"/>
<path d="M47.293 38.1296C47.293 38.1296 47.5628 31.7087 47.4009 30.126C47.4009 30.126 45.8182 29.2536 43.7498 30.4587C43.7498 30.4587 43.4621 33.9029 42.5448 35.5036C41.6275 37.1044 47.293 38.1296 47.293 38.1296Z" fill="#79B2AF"/>
<path d="M42.9944 33.939C42.9944 33.939 47.0411 36.5829 47.9584 40.3599C47.9584 40.3599 48.0124 40.4678 47.9584 39.3347C47.9044 38.2016 45.6383 33.6153 43.5879 32.752C43.5879 32.752 43.2102 32.752 42.9944 33.3455C42.7785 33.939 42.9944 33.939 42.9944 33.939Z" fill="#638A8F"/>
<path d="M35.2045 34.1735C35.2045 34.1735 31.1152 26.2465 30.7041 25.1488C30.293 24.051 29.0563 23.4653 28.5372 22.3913C28.0182 21.3173 28.0429 20.7794 28.4127 20.1739C28.97 19.2614 29.6793 18.9962 30.1281 19.3388C30.5768 19.6814 31.6173 21.4387 31.6173 21.4387C31.6173 21.4387 31.5616 20.5712 31.589 20.3934C31.7013 19.664 32.2743 20.338 32.3869 20.7419C32.6543 21.7002 32.6625 22.3516 32.6176 23.3105C32.6176 23.3105 37.762 29.5941 38.6338 33.7136C39.5057 37.8332 35.2045 34.1735 35.2045 34.1735Z" fill="#F7DBD4"/>
<path d="M34.3588 29.1287C34.4744 28.5456 34.6199 26.4004 34.5852 25.9288C36.1369 28.1298 38.1219 31.2948 38.6338 33.7136C39.5057 37.8332 35.2045 34.1735 35.2045 34.1735C35.2045 34.1735 34.5246 32.8555 33.6914 31.2199C33.7679 31.0447 34.304 29.4052 34.3588 29.1287Z" fill="#EBB8AC"/>
<path d="M38.1914 40.3598C38.1914 40.3598 35.5475 35.1799 34.0098 32.8058C34.0098 32.8058 35.4936 31.2141 37.8137 31.1872C37.5452 30.9396 39.5943 34.1008 41.24 36.5828C41.3243 36.71 38.1914 40.3598 38.1914 40.3598Z" fill="#79B2AF"/>
<path d="M40.327 34.693C40.1604 33.5435 39.8856 32.5661 39.8856 32.5661L42.6047 32.4075C42.6047 32.4075 42.4562 33.4328 42.5873 34.2627C42.9804 34.1427 43.1154 34.1083 43.1154 34.1083C43.1154 34.1083 44.2154 35.4653 42.5306 36.0439C40.5291 36.7312 39.5566 34.7273 39.5566 34.7273C39.9663 34.7439 39.9584 34.7317 40.327 34.693Z" fill="#F7DBD4"/>
<path d="M42.5582 34.032C42.1851 34.15 40.8222 34.6641 40.341 35.6828C39.8155 35.2608 39.5566 34.7273 39.5566 34.7273C39.9663 34.7439 39.9584 34.7317 40.327 34.693C40.1604 33.5435 39.8856 32.5661 39.8856 32.5661L42.6047 32.4075C42.6047 32.4075 42.482 33.2545 42.5582 34.032Z" fill="#EBB8AC"/>
<path d="M38.786 32.752C38.786 32.752 40.027 33.939 40.027 34.7484C40.027 35.5577 39.7032 39.5505 38.2464 41.7088C37.8598 42.2815 37.5913 41.092 37.7608 40.7376C38.3543 39.4965 38.786 32.752 38.786 32.752Z" fill="#638A8F"/>
<path d="M41.303 23.4173C42.2396 22.7951 43.1094 22.4867 43.0643 22.9393C43.034 23.2432 43.0858 23.3929 42.9217 23.7051C46.6267 24.4605 44.1088 28.1655 44.1088 28.1655C42.2105 33.2256 38.2118 35.5915 35.6195 29.8921C33.9899 26.309 37.8166 23.2864 41.303 23.4173Z" fill="#816A4A"/>
<path d="M37.7602 30.2342C37.7602 30.2342 36.6955 29.4833 36.0922 30.4788C35.489 31.4744 37.2001 33.0256 38.2717 31.9673L37.7602 30.2342Z" fill="#F7DBD4"/>
<path d="M43.8096 26.3923C43.8096 26.3923 44.1085 27.9026 44.5544 28.6001C45.3444 29.8358 45.4517 32.2187 43.0271 33.3237C38.3979 35.4334 36.5508 31.1255 36.9236 28.4963C37.2963 25.8671 41.7312 24.5087 43.8096 26.3923Z" fill="#F7DBD4"/>
<path d="M39.4082 25.8167C39.4082 25.8167 42.3793 26.6862 42.456 26.2554C42.5327 25.8247 40.6555 24.8922 40.6555 24.8922C40.6555 24.8922 39.1107 24.7415 39.4082 25.8167Z" fill="#816A4A"/>
<path d="M42.9428 30.2052L40.1242 30.5018C40.1242 30.5018 39.9351 32.3986 41.6757 32.3186C43.4163 32.2386 42.9428 30.2052 42.9428 30.2052Z" fill="#EBB8AC"/>
<path d="M39.0371 25.8274C39.0371 25.8274 37.4184 27.3022 37.8141 28.7051C38.2097 30.108 37.5263 30.4317 36.7349 29.8562C35.9435 29.2806 35.0083 26.1152 39.0371 25.8274Z" fill="#816A4A"/>
<path d="M24.9777 47.5811L17.2763 48.0948C16.2103 48.166 15.28 47.352 15.2089 46.286L14.6909 38.5209C14.6197 37.4549 15.4337 36.5245 16.4997 36.4534L24.201 35.9396C25.267 35.8685 26.1974 36.6825 26.2685 37.7485L26.7865 45.5136C26.8577 46.5796 26.0437 47.51 24.9777 47.5811Z" fill="#87C4C9"/>
<path d="M29.9943 48.7046L18.6434 49.4618C17.5774 49.5329 16.6471 48.7189 16.576 47.653L15.1625 26.4657C15.0914 25.3996 15.9054 24.4693 16.9714 24.3982L28.3223 23.6409C29.3883 23.5698 30.3186 24.3838 30.3897 25.4498L31.8032 46.6371C31.8744 47.7031 31.0603 48.6335 29.9943 48.7046Z" fill="#87C4C9"/>
<path d="M26.8594 47.0865L27.9025 50.0001H36.2119L34.7011 44.1368L26.8594 47.0865Z" fill="#7A9797"/>
<path d="M18.5322 46.6008L18.7343 50.0001H26.4639L26.1608 46.6008H18.5322Z" fill="#7A9797"/>
<path d="M26.3612 48.8483L26.1608 46.6008H18.5322L18.6799 49.0854C21.687 49.1807 24.2266 49.0746 26.3612 48.8483Z" fill="#749190"/>
<path d="M34.7011 44.1368L26.8594 47.0865L27.444 48.7193C31.5433 48.1734 33.9793 47.1811 35.2971 46.4497L34.7011 44.1368Z" fill="#749190"/>
<path d="M12.3807 30.7016L11.2476 31.9425C11.2476 31.9425 7.66846 28.2375 7.39869 28.0217C7.12889 27.8059 7.21881 26.6188 6.57136 26.5109C5.92391 26.403 5.42031 26.2231 5.31238 25.7375C5.20446 25.2519 5.42031 24.2807 4.77282 24.4425C4.12533 24.6044 3.35196 25.2699 3.298 25.9713C3.24404 26.6728 2.83039 28.6512 4.66489 28.8131L5.60015 28.921C5.60015 28.921 8.33399 38.4174 11.1937 37.662C14.0533 36.9066 15.6181 34.7483 15.6181 34.7483C15.6181 34.7483 14.1073 31.0793 12.3807 30.7016Z" fill="#F7DBD4"/>
<path d="M18.4241 23.2016C16.9153 23.6807 16.7449 24.0907 13.6219 28.0578C12.291 29.7484 11.3018 31.0254 11.3018 31.0254C11.3018 31.0254 14.1795 33.3275 15.0428 36.1333C15.0428 36.1333 19.1974 30.7196 19.9888 29.4247C20.7802 28.1297 21.4429 22.2432 18.4241 23.2016Z" fill="#638A8F"/>
<path d="M26.1978 21.2318C26.1978 21.2318 26.241 21.2261 26.3151 21.2176C26.7071 21.1724 27.9656 21.0474 28.2984 21.2591C28.6941 21.5109 29.1617 21.3311 29.7732 22.8419C30.3847 24.3527 35.6365 45.7915 35.6365 45.7915C35.6365 45.7915 30.7444 48.885 18.0466 48.1656C18.0466 48.1656 16.7876 28.3814 16.7156 26.6548C16.6437 24.9282 16.7336 23.975 17.6689 23.4714C18.6041 22.9678 20.7084 22.1944 20.7084 22.1944L26.1978 21.2318Z" fill="#557C7F"/>
<path d="M16.1396 23.6691C16.1396 23.6691 16.3555 23.4173 16.7152 23.2375C17.0749 23.0576 18.6576 22.3742 19.0174 22.662C19.3771 22.9497 20.3379 27.8013 20.2404 30.3238C19.9886 36.8346 17.4706 42.5139 17.4706 42.5139C17.4706 42.5139 17.1109 42.6577 17.0749 42.1182C17.0389 41.5786 16.931 39.8879 16.931 39.8879C16.931 39.8879 17.0029 39.6002 17.1828 39.4563C17.3627 39.3124 18.0461 34.5325 17.9382 30.8994C17.9104 29.9638 16.1396 23.6691 16.1396 23.6691Z" fill="#94CDD3"/>
<path d="M35.6361 45.7914C35.6361 45.7914 33.6287 37.5969 31.9516 30.9833C31.7858 34.6872 34.2333 45.0361 25.816 40.2879C22.3242 38.3182 19.5129 41.6511 17.8916 45.7296C17.9862 47.2222 18.0462 48.1656 18.0462 48.1656C30.744 48.885 35.6361 45.7914 35.6361 45.7914Z" fill="#4F7676"/>
<path d="M21.0124 19.3797L21.3708 21.889L20.4746 22.3073C20.4746 22.3073 22.2595 23.7133 25.0751 22.9645C26.8078 22.5037 26.1978 21.2318 26.1978 21.2318H25.4336L25.1348 19.0809L21.0124 19.3797Z" fill="#F7DBD4"/>
<path d="M21.7873 22.9381C21.8449 22.8749 21.9055 22.8134 21.9695 22.7539C22.3171 22.3797 22.7288 22.1152 23.2046 21.9604C23.6619 21.7201 24.1549 21.61 24.6832 21.6299C25.2452 21.6316 25.7762 21.747 26.2762 21.9757C26.364 21.5786 26.1978 21.2317 26.1978 21.2317H25.4336L25.1348 19.0808L21.0123 19.3795L21.3708 21.8889L20.4746 22.3071C20.4746 22.3072 20.9464 22.6787 21.7873 22.9381Z" fill="#EBB8AC"/>
<path d="M27.9027 14.9641C27.9027 14.9641 29.5214 14.6044 29.5934 10.7195C29.6654 6.83462 27.9747 6.72669 27.9747 6.72669C27.9747 6.72669 28.5682 5.8814 28.0826 5.6116C27.2766 5.1638 28.4063 5.86336 23.7301 6.04324C19.0538 6.22309 15.8164 8.12959 15.8164 11.0432C15.8164 13.9569 16.6797 18.2015 20.2409 19.3526C23.802 20.5037 27.9027 14.9641 27.9027 14.9641Z" fill="#816A4A"/>
<path d="M27.7586 11.2952C27.7586 11.2952 29.4852 17.2664 27.1111 19.4966C24.737 21.7269 21.2838 20.9354 19.773 19.2089C19.773 19.2089 19.3054 18.3815 19.1255 18.3456C18.4165 18.2038 17.9026 17.7145 18.0104 16.7988C18.0824 16.1873 18.8737 16.2952 19.2694 16.511C19.9641 16.89 19.087 14.4101 19.2694 13.2377C19.5212 11.619 20.3845 10.8635 21.3198 10.8635C22.255 10.8635 24.3054 11.9045 24.8449 11.6189C25.4565 11.2952 24.737 10.324 24.737 10.324C24.737 10.324 26.5356 11.511 27.7586 11.2952Z" fill="#F7DBD4"/>
<path d="M18.4849 26.0251L1.81902 27.1216C1.65911 27.1321 1.51966 27.0099 1.50915 26.85L0.568013 12.5458C0.557503 12.3859 0.67972 12.2464 0.83963 12.2359L17.5055 11.1394C17.6654 11.1289 17.8049 11.2511 17.8154 11.411L18.7565 25.7152C18.767 25.8751 18.6448 26.0146 18.4849 26.0251Z" fill="#B59A70"/>
<path d="M18.4847 26.0252L13.0016 26.386C12.8417 26.3965 12.7023 26.2743 12.6918 26.1144L11.7506 11.8102C11.7401 11.6502 11.8623 11.5108 12.0222 11.5003L17.5053 11.1396C17.6653 11.129 17.8047 11.2513 17.8152 11.4112L18.7564 25.7154C18.7669 25.8752 18.6446 26.0147 18.4847 26.0252Z" fill="#A68C66"/>
<path d="M4.66486 28.8131L5.60012 28.921C5.60012 28.921 5.92155 30.0376 6.45926 31.4744C7.32332 30.8661 8.21259 30.294 9.11804 29.749C8.29425 28.9049 7.51875 28.1178 7.3987 28.0217C7.1289 27.8059 7.21882 26.6188 6.57137 26.5109C5.92392 26.403 5.42032 26.2231 5.3124 25.7375C5.20447 25.2519 5.42032 24.2807 4.77283 24.4425C4.12534 24.6044 3.35197 25.2699 3.29801 25.9713C3.24405 26.6728 2.83036 28.6512 4.66486 28.8131Z" fill="#F7DBD4"/>
<path d="M31.1578 32.6439C31.1578 32.6439 30.0247 35.8274 28.46 36.9066C26.8952 37.9857 25.5463 37.4461 24.1974 36.367C22.8485 35.2879 17.7945 29.3346 17.147 28.9569C16.9996 28.871 16.7334 28.3634 15.4923 28.0936C14.2513 27.8238 13.9995 25.4677 13.9456 24.8742C13.8916 24.2807 15.6362 23.6871 16.0139 23.903C16.3916 24.1188 16.8174 25.8526 17.6146 26.1152C17.8737 26.2005 18.6937 25.9533 18.6937 25.9533C18.6937 25.9533 19.0715 26.331 18.9096 27.3022C18.7477 28.2734 22.6866 28.9209 26.0319 32.3742L26.6794 31.2411C26.6794 31.2411 29.1075 29.0828 31.1578 32.6439Z" fill="#F7DBD4"/>
<path d="M18.9454 26.7446C18.9454 26.7446 19.1253 25.8993 18.8015 25.3057C18.4777 24.7122 18.4418 24.1906 18.0281 24.3165C17.6144 24.4424 17.6324 24.9101 17.8482 25.4316C18.064 25.9532 17.2188 26.1511 17.2188 26.7626C17.2188 28.0151 18.9454 26.7446 18.9454 26.7446Z" fill="#F7DBD4"/>
<path d="M26.6793 20.9713C26.6793 20.9713 27.6865 20.9353 27.8663 21.0792C28.0462 21.2231 33.7297 35.5037 33.8016 36.4389C33.8736 37.3742 33.7297 38.0576 33.7297 38.0576C33.7297 38.0576 28.066 24.5765 26.4994 21.4389C26.4435 21.3269 26.2836 21.0073 26.6793 20.9713Z" fill="#94CDD3"/>
<path d="M28.0816 21.1781C28.0816 21.1781 31.6428 21.1422 32.4341 24.1637C33.2255 27.1853 31.6428 33.6601 31.6428 33.6601C31.6428 33.6601 26.7507 33.5163 25.5996 31.5018C25.5996 31.5018 28.1176 24.8112 28.4773 23.4443C28.837 22.0773 28.0816 21.1781 28.0816 21.1781Z" fill="#638A8F"/>
<path d="M22.9547 17.3773C22.8733 17.746 23.0734 18.0993 23.3926 18.284C23.7586 18.4958 24.1969 18.4359 24.5947 18.3772C24.7161 18.3592 24.7829 18.2057 24.7533 18.0978C24.7175 17.9677 24.5957 17.9212 24.4739 17.9392C24.2192 17.9769 23.9238 18.0253 23.6781 17.9212C23.5207 17.8545 23.3519 17.6824 23.3926 17.498C23.4555 17.2132 23.0178 17.0916 22.9547 17.3773Z" fill="#EBB8AC"/>
</svg>
