<svg width="100" height="100" viewBox="0 0 100 100" fill="none" xmlns="http://www.w3.org/2000/svg">
<rect x="16" y="10" width="68" height="80" rx="4" fill="#FFA1A1" stroke="#2E3349" stroke-width="2"/>
<path d="M31 10H80C82.2091 10 84 11.7909 84 14V86C84 88.2091 82.2091 90 80 90H31V10Z" fill="white" stroke="#2E3349" stroke-width="2"/>
<mask id="path-3-outside-1_1321_1427" maskUnits="userSpaceOnUse" x="40.207" y="33.207" width="34" height="34" fill="black">
<rect fill="white" x="40.207" y="33.207" width="34" height="34"/>
<path fill-rule="evenodd" clip-rule="evenodd" d="M46.3934 45.3994C46.3934 45.532 46.3407 45.6592 46.2469 45.7529L42.3535 49.6464C42.1582 49.8416 42.1582 50.1582 42.3535 50.3535L46.2469 54.2469C46.3407 54.3407 46.3934 54.4679 46.3934 54.6005V60.1065C46.3934 60.3827 46.6172 60.6065 46.8934 60.6065H52.3994C52.532 60.6065 52.6592 60.6592 52.753 60.753L56.6464 64.6464C56.8416 64.8416 57.1582 64.8416 57.3535 64.6464L61.2469 60.753C61.3406 60.6592 61.4678 60.6065 61.6004 60.6065H67.1066C67.3827 60.6065 67.6066 60.3827 67.6066 60.1065V54.6004C67.6066 54.4678 67.6593 54.3406 67.753 54.2468L71.6464 50.3535C71.8416 50.1582 71.8416 49.8416 71.6464 49.6464L67.753 45.753C67.6593 45.6593 67.6066 45.5321 67.6066 45.3995V39.8933C67.6066 39.6172 67.3827 39.3933 67.1066 39.3933H61.6004C61.4678 39.3933 61.3406 39.3406 61.2469 39.2469L57.3535 35.3535C57.1582 35.1582 56.8416 35.1582 56.6464 35.3535L52.753 39.2469C52.6592 39.3406 52.532 39.3933 52.3994 39.3933H46.8934C46.6172 39.3933 46.3934 39.6172 46.3934 39.8933V45.3994Z"/>
</mask>
<path fill-rule="evenodd" clip-rule="evenodd" d="M46.3934 45.3994C46.3934 45.532 46.3407 45.6592 46.2469 45.7529L42.3535 49.6464C42.1582 49.8416 42.1582 50.1582 42.3535 50.3535L46.2469 54.2469C46.3407 54.3407 46.3934 54.4679 46.3934 54.6005V60.1065C46.3934 60.3827 46.6172 60.6065 46.8934 60.6065H52.3994C52.532 60.6065 52.6592 60.6592 52.753 60.753L56.6464 64.6464C56.8416 64.8416 57.1582 64.8416 57.3535 64.6464L61.2469 60.753C61.3406 60.6592 61.4678 60.6065 61.6004 60.6065H67.1066C67.3827 60.6065 67.6066 60.3827 67.6066 60.1065V54.6004C67.6066 54.4678 67.6593 54.3406 67.753 54.2468L71.6464 50.3535C71.8416 50.1582 71.8416 49.8416 71.6464 49.6464L67.753 45.753C67.6593 45.6593 67.6066 45.5321 67.6066 45.3995V39.8933C67.6066 39.6172 67.3827 39.3933 67.1066 39.3933H61.6004C61.4678 39.3933 61.3406 39.3406 61.2469 39.2469L57.3535 35.3535C57.1582 35.1582 56.8416 35.1582 56.6464 35.3535L52.753 39.2469C52.6592 39.3406 52.532 39.3933 52.3994 39.3933H46.8934C46.6172 39.3933 46.3934 39.6172 46.3934 39.8933V45.3994Z" fill="#FFA1A1"/>
<path d="M52.753 39.2469L54.1672 40.6611L52.753 39.2469ZM57.3535 35.3535L58.7677 33.9393L57.3535 35.3535ZM56.6464 35.3535L55.2322 33.9393L56.6464 35.3535ZM61.2469 39.2469L59.8327 40.6611L61.2469 39.2469ZM67.753 45.753L66.3388 47.1672L67.753 45.753ZM71.6464 49.6464L73.0606 48.2322L71.6464 49.6464ZM56.6464 64.6464L58.0606 63.2322L56.6464 64.6464ZM57.3535 64.6464L55.9393 63.2322L57.3535 64.6464ZM52.753 60.753L51.3388 62.1672L52.753 60.753ZM46.2469 54.2469L44.8327 55.6611L46.2469 54.2469ZM46.2469 45.7529L44.8327 44.3387L46.2469 45.7529ZM42.3535 49.6464L40.9393 48.2322L42.3535 49.6464ZM42.3535 50.3535L40.9393 51.7677L42.3535 50.3535ZM43.7677 51.0606L47.6611 47.1671L44.8327 44.3387L40.9393 48.2322L43.7677 51.0606ZM47.6611 52.8327L43.7677 48.9393L40.9393 51.7677L44.8327 55.6611L47.6611 52.8327ZM48.3934 60.1065V54.6005H44.3934V60.1065H48.3934ZM52.3994 58.6065H46.8934V62.6065H52.3994V58.6065ZM58.0606 63.2322L54.1672 59.3388L51.3388 62.1672L55.2322 66.0606L58.0606 63.2322ZM59.8327 59.3388L55.9393 63.2322L58.7677 66.0606L62.6611 62.1672L59.8327 59.3388ZM67.1066 58.6065H61.6004V62.6065H67.1066V58.6065ZM65.6066 54.6004V60.1065H69.6066V54.6004H65.6066ZM70.2322 48.9393L66.3388 52.8326L69.1672 55.661L73.0606 51.7677L70.2322 48.9393ZM66.3388 47.1672L70.2322 51.0606L73.0606 48.2322L69.1672 44.3388L66.3388 47.1672ZM65.6066 39.8933V45.3995H69.6066V39.8933H65.6066ZM61.6004 41.3933H67.1066V37.3933H61.6004V41.3933ZM55.9393 36.7677L59.8327 40.6611L62.6611 37.8327L58.7677 33.9393L55.9393 36.7677ZM54.1672 40.6611L58.0606 36.7677L55.2322 33.9393L51.3388 37.8327L54.1672 40.6611ZM46.8934 41.3933H52.3994V37.3933H46.8934V41.3933ZM48.3934 45.3994V39.8933H44.3934V45.3994H48.3934ZM46.8934 37.3933C45.5127 37.3933 44.3934 38.5126 44.3934 39.8933H48.3934C48.3934 40.7217 47.7218 41.3933 46.8934 41.3933V37.3933ZM51.3388 37.8327C51.6201 37.5514 52.0016 37.3933 52.3994 37.3933V41.3933C53.0625 41.3933 53.6983 41.1299 54.1672 40.6611L51.3388 37.8327ZM58.7677 33.9393C57.7914 32.963 56.2085 32.963 55.2322 33.9393L58.0606 36.7677C57.4748 37.3535 56.5251 37.3535 55.9393 36.7677L58.7677 33.9393ZM61.6004 37.3933C61.9983 37.3933 62.3798 37.5514 62.6611 37.8327L59.8327 40.6611C60.3015 41.1299 60.9374 41.3933 61.6004 41.3933V37.3933ZM69.6066 39.8933C69.6066 38.5126 68.4873 37.3933 67.1066 37.3933V41.3933C66.2782 41.3933 65.6066 40.7217 65.6066 39.8933H69.6066ZM69.1672 44.3388C69.4485 44.6201 69.6066 45.0016 69.6066 45.3995H65.6066C65.6066 46.0625 65.87 46.6984 66.3388 47.1672L69.1672 44.3388ZM73.0606 51.7677C74.0369 50.7914 74.0369 49.2085 73.0606 48.2322L70.2322 51.0606C69.6464 50.4748 69.6464 49.525 70.2322 48.9393L73.0606 51.7677ZM69.6066 54.6004C69.6066 54.9982 69.4485 55.3797 69.1672 55.661L66.3388 52.8326C65.87 53.3015 65.6066 53.9373 65.6066 54.6004H69.6066ZM67.1066 62.6065C68.4873 62.6065 69.6066 61.4872 69.6066 60.1065H65.6066C65.6066 59.2781 66.2782 58.6065 67.1066 58.6065V62.6065ZM62.6611 62.1672C62.3798 62.4485 61.9983 62.6065 61.6004 62.6065V58.6065C60.9374 58.6065 60.3015 58.8699 59.8327 59.3388L62.6611 62.1672ZM55.2322 66.0606C56.2085 67.0369 57.7914 67.0369 58.7677 66.0606L55.9393 63.2322C56.5251 62.6464 57.4748 62.6464 58.0606 63.2322L55.2322 66.0606ZM52.3994 62.6065C52.0016 62.6065 51.6201 62.4485 51.3388 62.1672L54.1672 59.3388C53.6983 58.8699 53.0625 58.6065 52.3994 58.6065V62.6065ZM44.3934 60.1065C44.3934 61.4872 45.5127 62.6065 46.8934 62.6065V58.6065C47.7218 58.6065 48.3934 59.2781 48.3934 60.1065H44.3934ZM44.8327 55.6611C44.5514 55.3798 44.3934 54.9983 44.3934 54.6005H48.3934C48.3934 53.9374 48.13 53.3016 47.6611 52.8327L44.8327 55.6611ZM47.6611 47.1671C48.13 46.6983 48.3934 46.0624 48.3934 45.3994H44.3934C44.3934 45.0015 44.5514 44.62 44.8327 44.3387L47.6611 47.1671ZM40.9393 48.2322C39.963 49.2085 39.963 50.7914 40.9393 51.7677L43.7677 48.9393C44.3535 49.5251 44.3535 50.4748 43.7677 51.0606L40.9393 48.2322Z" fill="#2E3349" mask="url(#path-3-outside-1_1321_1427)"/>
</svg>
