<svg width="364" height="281" viewBox="0 0 364 281" fill="none" xmlns="http://www.w3.org/2000/svg">
<rect x="1" y="1" width="316.371" height="225.204" rx="21" fill="#C2FFE9" stroke="#333333" stroke-width="2"/>
<path d="M81.4241 122.866C81.4241 122.93 81.3921 122.962 81.3281 122.962C81.3281 122.962 81.3281 122.994 81.3281 123.058C81.3281 123.122 81.3601 123.154 81.4241 123.154H99.7601C100.272 123.154 100.528 122.866 100.528 122.29V95.6978C100.528 95.6338 100.496 95.6018 100.432 95.6018H100.336L81.4241 122.866ZM74.1281 133.714C72.7201 133.714 71.4721 133.202 70.3841 132.178C69.3601 131.154 68.8481 129.906 68.8481 128.434C68.8481 124.85 69.8721 121.65 71.9201 118.834L97.4561 82.4498C99.5041 79.5058 102.352 78.0338 106 78.0338H108.112C109.584 78.0338 110.864 78.5778 111.952 79.6658C113.04 80.7538 113.584 82.0338 113.584 83.5058V122.29C113.584 122.866 113.84 123.154 114.352 123.154H118.96C120.432 123.154 121.68 123.666 122.704 124.69C123.728 125.714 124.24 126.962 124.24 128.434C124.24 129.906 123.728 131.154 122.704 132.178C121.68 133.202 120.432 133.714 118.96 133.714H114.352C113.84 133.714 113.584 134.002 113.584 134.578V142.642C113.584 144.114 113.04 145.394 111.952 146.482C110.864 147.57 109.584 148.114 108.112 148.114H106C104.528 148.114 103.248 147.57 102.16 146.482C101.072 145.394 100.528 144.114 100.528 142.642V134.578C100.528 134.002 100.272 133.714 99.7601 133.714H74.1281ZM169.71 93.2978C167.534 89.4578 164.206 87.5378 159.726 87.5378C155.246 87.5378 151.918 89.4578 149.742 93.2978C147.566 97.1378 146.478 103.73 146.478 113.074C146.478 122.418 147.566 129.01 149.742 132.85C151.918 136.69 155.246 138.61 159.726 138.61C164.206 138.61 167.534 136.69 169.71 132.85C171.886 129.01 172.974 122.418 172.974 113.074C172.974 103.73 171.886 97.1378 169.71 93.2978ZM179.886 140.53C175.47 146.226 168.75 149.074 159.726 149.074C150.702 149.074 143.95 146.226 139.47 140.53C135.054 134.834 132.846 125.682 132.846 113.074C132.846 100.466 135.054 91.3138 139.47 85.6178C143.95 79.9218 150.702 77.0738 159.726 77.0738C168.75 77.0738 175.47 79.9218 179.886 85.6178C184.366 91.3138 186.606 100.466 186.606 113.074C186.606 125.682 184.366 134.834 179.886 140.53ZM204.237 122.866C204.237 122.93 204.205 122.962 204.141 122.962C204.141 122.962 204.141 122.994 204.141 123.058C204.141 123.122 204.173 123.154 204.237 123.154H222.573C223.085 123.154 223.341 122.866 223.341 122.29V95.6978C223.341 95.6338 223.309 95.6018 223.245 95.6018H223.149L204.237 122.866ZM196.941 133.714C195.533 133.714 194.285 133.202 193.197 132.178C192.173 131.154 191.661 129.906 191.661 128.434C191.661 124.85 192.685 121.65 194.733 118.834L220.269 82.4498C222.317 79.5058 225.165 78.0338 228.813 78.0338H230.925C232.397 78.0338 233.677 78.5778 234.765 79.6658C235.853 80.7538 236.397 82.0338 236.397 83.5058V122.29C236.397 122.866 236.653 123.154 237.165 123.154H241.773C243.245 123.154 244.493 123.666 245.517 124.69C246.541 125.714 247.053 126.962 247.053 128.434C247.053 129.906 246.541 131.154 245.517 132.178C244.493 133.202 243.245 133.714 241.773 133.714H237.165C236.653 133.714 236.397 134.002 236.397 134.578V142.642C236.397 144.114 235.853 145.394 234.765 146.482C233.677 147.57 232.397 148.114 230.925 148.114H228.813C227.341 148.114 226.061 147.57 224.973 146.482C223.885 145.394 223.341 144.114 223.341 142.642V134.578C223.341 134.002 223.085 133.714 222.573 133.714H196.941Z" fill="#267E5F"/>
<path d="M76.4725 173.497V179.281C76.4725 179.393 76.5365 179.465 76.6645 179.497C77.2725 179.577 77.8645 179.617 78.4405 179.617C79.7365 179.617 80.7205 179.337 81.3925 178.777C82.0805 178.201 82.4245 177.385 82.4245 176.329C82.4245 174.201 81.0965 173.137 78.4405 173.137C77.8645 173.137 77.2725 173.177 76.6645 173.257C76.5365 173.289 76.4725 173.369 76.4725 173.497ZM74.5045 188.281C74.1365 188.281 73.8165 188.145 73.5445 187.873C73.2885 187.601 73.1605 187.281 73.1605 186.913V172.249C73.1605 171.865 73.2885 171.521 73.5445 171.217C73.8005 170.913 74.1205 170.745 74.5045 170.713C75.8645 170.585 77.1765 170.521 78.4405 170.521C80.8405 170.521 82.6405 171.001 83.8405 171.961C85.0405 172.905 85.6405 174.281 85.6405 176.089C85.6405 178.089 85.0565 179.601 83.8885 180.625C82.7365 181.649 81.0245 182.161 78.7525 182.161C78.2245 182.161 77.5285 182.129 76.6645 182.065C76.5365 182.065 76.4725 182.129 76.4725 182.257V186.913C76.4725 187.281 76.3365 187.601 76.0645 187.873C75.7925 188.145 75.4725 188.281 75.1045 188.281H74.5045ZM93.402 182.281C91.114 182.281 89.97 182.985 89.97 184.393C89.97 184.905 90.114 185.321 90.402 185.641C90.706 185.961 91.09 186.121 91.554 186.121C92.466 186.121 93.202 185.841 93.762 185.281C94.322 184.705 94.602 183.921 94.602 182.929V182.497C94.602 182.353 94.53 182.281 94.386 182.281H93.402ZM90.69 188.521C89.602 188.521 88.698 188.169 87.978 187.465C87.274 186.745 86.922 185.817 86.922 184.681C86.922 183.289 87.45 182.209 88.506 181.441C89.578 180.673 91.21 180.289 93.402 180.289H94.386C94.53 180.289 94.602 180.217 94.602 180.073V179.881C94.602 179.145 94.426 178.633 94.074 178.345C93.722 178.041 93.098 177.889 92.202 177.889C91.274 177.889 90.138 178.057 88.794 178.393C88.506 178.473 88.242 178.425 88.002 178.249C87.762 178.057 87.642 177.809 87.642 177.505C87.642 177.137 87.754 176.809 87.978 176.521C88.202 176.217 88.49 176.033 88.842 175.969C90.058 175.697 91.202 175.561 92.274 175.561C94.322 175.561 95.754 175.929 96.57 176.665C97.386 177.401 97.794 178.689 97.794 180.529V186.913C97.794 187.281 97.658 187.601 97.386 187.873C97.13 188.145 96.818 188.281 96.45 188.281H96.186C95.802 188.281 95.474 188.153 95.202 187.897C94.93 187.625 94.786 187.297 94.77 186.913V186.577C94.77 186.561 94.762 186.553 94.746 186.553C94.714 186.553 94.698 186.561 94.698 186.577C93.722 187.873 92.386 188.521 90.69 188.521ZM106.063 177.961C104.303 177.961 103.423 179.241 103.423 181.801C103.423 183.129 103.655 184.121 104.119 184.777C104.599 185.433 105.247 185.761 106.063 185.761C106.783 185.761 107.399 185.505 107.911 184.993C108.439 184.481 108.703 183.881 108.703 183.193V180.601C108.703 179.865 108.439 179.241 107.911 178.729C107.399 178.217 106.783 177.961 106.063 177.961ZM105.055 188.161C103.647 188.161 102.495 187.601 101.599 186.481C100.703 185.345 100.255 183.785 100.255 181.801C100.255 179.817 100.679 178.281 101.527 177.193C102.391 176.105 103.567 175.561 105.055 175.561C105.807 175.561 106.471 175.697 107.047 175.969C107.623 176.241 108.191 176.697 108.751 177.337C108.767 177.353 108.783 177.361 108.799 177.361C108.815 177.361 108.823 177.353 108.823 177.337V177.169C108.839 176.785 108.983 176.465 109.255 176.209C109.527 175.937 109.855 175.801 110.239 175.801H110.503C110.871 175.801 111.183 175.937 111.439 176.209C111.711 176.481 111.847 176.801 111.847 177.169V187.321C111.847 191.641 109.687 193.801 105.367 193.801C104.599 193.801 103.791 193.737 102.943 193.609C102.559 193.545 102.239 193.353 101.983 193.033C101.743 192.729 101.623 192.377 101.623 191.977C101.623 191.657 101.751 191.401 102.007 191.209C102.279 191.033 102.575 190.985 102.895 191.065C103.663 191.257 104.463 191.353 105.295 191.353C106.479 191.353 107.343 191.041 107.887 190.417C108.431 189.809 108.703 188.801 108.703 187.393V186.649C108.703 186.633 108.695 186.625 108.679 186.625C108.663 186.625 108.647 186.633 108.631 186.649C107.671 187.657 106.479 188.161 105.055 188.161ZM120.243 177.793C119.427 177.793 118.795 178.025 118.347 178.489C117.915 178.937 117.643 179.665 117.531 180.673C117.531 180.801 117.595 180.865 117.723 180.865H122.427C122.555 180.865 122.619 180.801 122.619 180.673C122.555 178.753 121.763 177.793 120.243 177.793ZM120.843 188.521C118.747 188.521 117.131 187.977 115.995 186.889C114.875 185.785 114.315 184.169 114.315 182.041C114.315 179.929 114.819 178.321 115.827 177.217C116.835 176.113 118.291 175.561 120.195 175.561C123.747 175.561 125.571 177.577 125.667 181.609C125.683 181.993 125.547 182.313 125.259 182.569C124.971 182.825 124.635 182.953 124.251 182.953H117.699C117.555 182.953 117.499 183.025 117.531 183.169C117.643 184.241 117.995 185.025 118.587 185.521C119.195 186.001 120.075 186.241 121.227 186.241C121.947 186.241 122.747 186.121 123.627 185.881C123.915 185.801 124.179 185.849 124.419 186.025C124.675 186.201 124.803 186.441 124.803 186.745C124.803 187.113 124.691 187.441 124.467 187.729C124.259 188.001 123.979 188.169 123.627 188.233C122.731 188.425 121.803 188.521 120.843 188.521ZM136.445 188.281C136.077 188.281 135.757 188.145 135.485 187.873C135.213 187.601 135.077 187.281 135.077 186.913V177.169C135.077 176.801 135.213 176.481 135.485 176.209C135.757 175.937 136.077 175.801 136.445 175.801H136.757C137.141 175.801 137.461 175.937 137.717 176.209C137.989 176.465 138.133 176.785 138.149 177.169V177.337C138.149 177.353 138.157 177.361 138.173 177.361C138.189 177.361 138.205 177.353 138.221 177.337C139.309 176.153 140.581 175.561 142.037 175.561C143.493 175.561 144.549 175.977 145.205 176.809C145.877 177.625 146.213 178.993 146.213 180.913V186.913C146.213 187.281 146.077 187.601 145.805 187.873C145.533 188.145 145.213 188.281 144.845 188.281H144.437C144.069 188.281 143.749 188.145 143.477 187.873C143.221 187.601 143.093 187.281 143.093 186.913V181.153C143.093 179.953 142.933 179.137 142.613 178.705C142.309 178.257 141.757 178.033 140.957 178.033C140.301 178.033 139.693 178.313 139.133 178.873C138.573 179.433 138.293 180.033 138.293 180.673V186.913C138.293 187.281 138.157 187.601 137.885 187.873C137.613 188.145 137.293 188.281 136.925 188.281H136.445ZM156.741 178.897C156.277 178.225 155.573 177.889 154.629 177.889C153.685 177.889 152.973 178.225 152.493 178.897C152.029 179.553 151.797 180.601 151.797 182.041C151.797 183.481 152.029 184.537 152.493 185.209C152.973 185.865 153.685 186.193 154.629 186.193C155.573 186.193 156.277 185.865 156.741 185.209C157.221 184.537 157.461 183.481 157.461 182.041C157.461 180.601 157.221 179.553 156.741 178.897ZM159.093 186.841C158.037 187.961 156.549 188.521 154.629 188.521C152.709 188.521 151.213 187.961 150.141 186.841C149.085 185.705 148.557 184.105 148.557 182.041C148.557 179.977 149.085 178.385 150.141 177.265C151.213 176.129 152.709 175.561 154.629 175.561C156.549 175.561 158.037 176.129 159.093 177.265C160.165 178.385 160.701 179.977 160.701 182.041C160.701 184.105 160.165 185.705 159.093 186.841ZM163.496 178.609C163.176 178.609 162.904 178.497 162.68 178.273C162.456 178.033 162.344 177.753 162.344 177.433C162.344 177.113 162.456 176.841 162.68 176.617C162.904 176.393 163.176 176.281 163.496 176.281H164.648C164.792 176.281 164.864 176.209 164.864 176.065V173.089C164.864 172.721 164.992 172.401 165.248 172.129C165.52 171.857 165.84 171.721 166.208 171.721H166.688C167.056 171.721 167.376 171.857 167.648 172.129C167.92 172.401 168.056 172.721 168.056 173.089V176.065C168.056 176.209 168.128 176.281 168.272 176.281H171.008C171.328 176.281 171.6 176.393 171.824 176.617C172.064 176.841 172.184 177.113 172.184 177.433C172.184 177.753 172.064 178.033 171.824 178.273C171.6 178.497 171.328 178.609 171.008 178.609H168.272C168.128 178.609 168.056 178.673 168.056 178.801V183.649C168.056 184.689 168.168 185.361 168.392 185.665C168.616 185.969 169.08 186.121 169.784 186.121C170.168 186.121 170.456 186.105 170.648 186.073C170.968 186.041 171.248 186.113 171.488 186.289C171.728 186.465 171.848 186.705 171.848 187.009C171.848 187.361 171.728 187.681 171.488 187.969C171.264 188.241 170.984 188.393 170.648 188.425C169.944 188.489 169.416 188.521 169.064 188.521C167.512 188.521 166.424 188.193 165.8 187.537C165.176 186.865 164.864 185.673 164.864 183.961V178.801C164.864 178.673 164.792 178.609 164.648 178.609H163.496ZM182.999 178.609C182.679 178.609 182.407 178.497 182.183 178.273C181.959 178.033 181.847 177.753 181.847 177.433C181.847 177.113 181.959 176.841 182.183 176.617C182.407 176.393 182.679 176.281 182.999 176.281H184.271C184.415 176.281 184.487 176.209 184.487 176.065V175.489C184.487 173.761 184.863 172.505 185.615 171.721C186.367 170.921 187.559 170.521 189.191 170.521C189.735 170.521 190.207 170.553 190.607 170.617C190.943 170.665 191.215 170.833 191.423 171.121C191.647 171.393 191.759 171.705 191.759 172.057C191.759 172.345 191.639 172.577 191.399 172.753C191.159 172.913 190.895 172.969 190.607 172.921C190.287 172.889 190.055 172.873 189.911 172.873C189.095 172.873 188.535 173.049 188.231 173.401C187.943 173.737 187.799 174.401 187.799 175.393V176.065C187.799 176.209 187.871 176.281 188.015 176.281H190.367C190.687 176.281 190.959 176.393 191.183 176.617C191.407 176.841 191.519 177.113 191.519 177.433C191.519 177.753 191.407 178.033 191.183 178.273C190.959 178.497 190.687 178.609 190.367 178.609H188.015C187.871 178.609 187.799 178.673 187.799 178.801V186.913C187.799 187.281 187.663 187.601 187.391 187.873C187.119 188.145 186.799 188.281 186.431 188.281H185.831C185.463 188.281 185.143 188.145 184.871 187.873C184.615 187.601 184.487 187.281 184.487 186.913V178.801C184.487 178.673 184.415 178.609 184.271 178.609H182.999ZM201.343 178.897C200.879 178.225 200.175 177.889 199.231 177.889C198.287 177.889 197.575 178.225 197.095 178.897C196.631 179.553 196.399 180.601 196.399 182.041C196.399 183.481 196.631 184.537 197.095 185.209C197.575 185.865 198.287 186.193 199.231 186.193C200.175 186.193 200.879 185.865 201.343 185.209C201.823 184.537 202.063 183.481 202.063 182.041C202.063 180.601 201.823 179.553 201.343 178.897ZM203.695 186.841C202.639 187.961 201.151 188.521 199.231 188.521C197.311 188.521 195.815 187.961 194.743 186.841C193.687 185.705 193.159 184.105 193.159 182.041C193.159 179.977 193.687 178.385 194.743 177.265C195.815 176.129 197.311 175.561 199.231 175.561C201.151 175.561 202.639 176.129 203.695 177.265C204.767 178.385 205.303 179.977 205.303 182.041C205.303 184.105 204.767 185.705 203.695 186.841ZM211.692 188.521C210.284 188.521 209.26 188.137 208.62 187.369C207.98 186.585 207.66 185.265 207.66 183.409V177.169C207.66 176.801 207.796 176.481 208.068 176.209C208.34 175.937 208.66 175.801 209.028 175.801H209.412C209.78 175.801 210.1 175.937 210.372 176.209C210.644 176.481 210.78 176.801 210.78 177.169V183.073C210.78 184.193 210.932 184.969 211.236 185.401C211.54 185.833 212.052 186.049 212.772 186.049C213.428 186.049 214.036 185.769 214.596 185.209C215.172 184.649 215.46 184.049 215.46 183.409V177.169C215.46 176.801 215.596 176.481 215.868 176.209C216.14 175.937 216.46 175.801 216.828 175.801H217.308C217.676 175.801 217.988 175.937 218.244 176.209C218.516 176.481 218.652 176.801 218.652 177.169V186.913C218.652 187.281 218.516 187.601 218.244 187.873C217.988 188.145 217.676 188.281 217.308 188.281H216.996C216.612 188.281 216.284 188.153 216.012 187.897C215.756 187.625 215.62 187.297 215.604 186.913L215.58 186.745C215.58 186.729 215.572 186.721 215.556 186.721C215.54 186.721 215.524 186.729 215.508 186.745C214.42 187.929 213.148 188.521 211.692 188.521ZM223.328 188.281C222.96 188.281 222.64 188.145 222.368 187.873C222.096 187.601 221.96 187.281 221.96 186.913V177.169C221.96 176.801 222.096 176.481 222.368 176.209C222.64 175.937 222.96 175.801 223.328 175.801H223.64C224.024 175.801 224.344 175.937 224.6 176.209C224.872 176.465 225.016 176.785 225.032 177.169V177.337C225.032 177.353 225.04 177.361 225.056 177.361C225.072 177.361 225.088 177.353 225.104 177.337C226.192 176.153 227.464 175.561 228.92 175.561C230.376 175.561 231.432 175.977 232.088 176.809C232.76 177.625 233.096 178.993 233.096 180.913V186.913C233.096 187.281 232.96 187.601 232.688 187.873C232.416 188.145 232.096 188.281 231.728 188.281H231.32C230.952 188.281 230.632 188.145 230.36 187.873C230.104 187.601 229.976 187.281 229.976 186.913V181.153C229.976 179.953 229.816 179.137 229.496 178.705C229.192 178.257 228.64 178.033 227.84 178.033C227.184 178.033 226.576 178.313 226.016 178.873C225.456 179.433 225.176 180.033 225.176 180.673V186.913C225.176 187.281 225.04 187.601 224.768 187.873C224.496 188.145 224.176 188.281 223.808 188.281H223.328ZM241.488 177.961C239.648 177.961 238.728 179.321 238.728 182.041C238.728 183.401 238.976 184.425 239.472 185.113C239.968 185.785 240.64 186.121 241.488 186.121C242.24 186.121 242.888 185.873 243.432 185.377C243.976 184.881 244.248 184.313 244.248 183.673V180.409C244.248 179.769 243.976 179.201 243.432 178.705C242.888 178.209 242.24 177.961 241.488 177.961ZM240.528 188.521C239.104 188.521 237.92 187.945 236.976 186.793C236.032 185.625 235.56 184.041 235.56 182.041C235.56 179.977 236.008 178.385 236.904 177.265C237.816 176.129 239.024 175.561 240.528 175.561C241.888 175.561 243.088 176.057 244.128 177.049C244.144 177.065 244.16 177.073 244.176 177.073C244.192 177.073 244.2 177.065 244.2 177.049V171.649C244.2 171.281 244.336 170.961 244.608 170.689C244.88 170.417 245.2 170.281 245.568 170.281H246.048C246.416 170.281 246.736 170.417 247.008 170.689C247.28 170.961 247.416 171.281 247.416 171.649V186.913C247.416 187.281 247.28 187.601 247.008 187.873C246.736 188.145 246.416 188.281 246.048 188.281H245.784C245.4 188.281 245.072 188.153 244.8 187.897C244.544 187.625 244.408 187.297 244.392 186.913L244.368 186.745C244.368 186.729 244.36 186.721 244.344 186.721C244.328 186.721 244.312 186.729 244.296 186.745C243.24 187.929 241.984 188.521 240.528 188.521Z" fill="#267E5F"/>
<path d="M316.371 44.9162H317.371V43.9162V22C317.371 10.402 307.969 1 296.371 1H22C10.402 1 1 10.402 1 22V43.9162V44.9162H2H316.371Z" fill="#52D7A7" stroke="black" stroke-width="2"/>
<circle cx="25.054" cy="22.9583" r="5.78743" fill="#FF4747" stroke="#333333"/>
<circle cx="40.7728" cy="22.9583" r="5.78743" fill="#FCFF6E" stroke="#333333"/>
<circle cx="56.4906" cy="22.9583" r="5.78743" fill="#22FC81" stroke="#333333"/>
<rect x="284" y="110" width="79.6407" height="22.006" rx="11.003" fill="#52D7A7"/>
<path d="M309.092 120.303C309.092 118.05 308.269 116.923 306.622 116.923C304.976 116.923 304.152 118.05 304.152 120.303C304.152 122.556 304.976 123.683 306.622 123.683C308.269 123.683 309.092 122.556 309.092 120.303ZM309.781 123.891C309.01 124.749 307.957 125.178 306.622 125.178C305.288 125.178 304.23 124.749 303.45 123.891C302.679 123.033 302.293 121.837 302.293 120.303C302.293 118.769 302.679 117.573 303.45 116.715C304.23 115.857 305.288 115.428 306.622 115.428C307.957 115.428 309.01 115.857 309.781 116.715C310.561 117.573 310.951 118.769 310.951 120.303C310.951 121.837 310.561 123.033 309.781 123.891ZM316.273 119.965C316.022 119.601 315.64 119.419 315.129 119.419C314.618 119.419 314.232 119.601 313.972 119.965C313.721 120.32 313.595 120.888 313.595 121.668C313.595 122.448 313.721 123.02 313.972 123.384C314.232 123.739 314.618 123.917 315.129 123.917C315.64 123.917 316.022 123.739 316.273 123.384C316.533 123.02 316.663 122.448 316.663 121.668C316.663 120.888 316.533 120.32 316.273 119.965ZM317.547 124.268C316.975 124.875 316.169 125.178 315.129 125.178C314.089 125.178 313.279 124.875 312.698 124.268C312.126 123.653 311.84 122.786 311.84 121.668C311.84 120.55 312.126 119.688 312.698 119.081C313.279 118.466 314.089 118.158 315.129 118.158C316.169 118.158 316.975 118.466 317.547 119.081C318.128 119.688 318.418 120.55 318.418 121.668C318.418 122.786 318.128 123.653 317.547 124.268ZM321.476 120.784V122.552C321.476 122.899 321.623 123.206 321.918 123.475C322.221 123.744 322.572 123.878 322.971 123.878C323.43 123.878 323.794 123.692 324.063 123.319C324.332 122.946 324.466 122.396 324.466 121.668C324.466 120.195 323.968 119.458 322.971 119.458C322.572 119.458 322.221 119.592 321.918 119.861C321.623 120.13 321.476 120.437 321.476 120.784ZM320.501 127.908C320.302 127.908 320.128 127.834 319.981 127.687C319.834 127.54 319.76 127.366 319.76 127.167V119.029C319.76 118.83 319.834 118.656 319.981 118.509C320.128 118.362 320.302 118.288 320.501 118.288H320.657C320.865 118.288 321.043 118.362 321.19 118.509C321.337 118.648 321.415 118.821 321.424 119.029V119.12C321.424 119.129 321.428 119.133 321.437 119.133C321.446 119.133 321.454 119.129 321.463 119.12C321.775 118.773 322.087 118.526 322.399 118.379C322.711 118.232 323.075 118.158 323.491 118.158C324.306 118.158 324.956 118.466 325.441 119.081C325.926 119.688 326.169 120.55 326.169 121.668C326.169 122.751 325.913 123.609 325.402 124.242C324.899 124.866 324.262 125.178 323.491 125.178C322.737 125.178 322.083 124.905 321.528 124.359C321.519 124.35 321.511 124.346 321.502 124.346C321.493 124.346 321.489 124.35 321.489 124.359V127.167C321.489 127.366 321.415 127.54 321.268 127.687C321.129 127.834 320.96 127.908 320.761 127.908H320.501ZM329.895 122.318C328.985 122.119 328.335 121.846 327.945 121.499C327.563 121.152 327.373 120.702 327.373 120.147C327.373 119.523 327.602 119.038 328.062 118.691C328.53 118.336 329.219 118.158 330.129 118.158C330.701 118.158 331.268 118.21 331.832 118.314C332.022 118.349 332.174 118.444 332.287 118.6C332.408 118.747 332.469 118.921 332.469 119.12C332.469 119.285 332.404 119.419 332.274 119.523C332.144 119.618 331.996 119.644 331.832 119.601C331.346 119.48 330.835 119.419 330.298 119.419C329.518 119.419 329.128 119.636 329.128 120.069C329.128 120.277 329.201 120.45 329.349 120.589C329.496 120.728 329.747 120.836 330.103 120.914C331.099 121.113 331.78 121.382 332.144 121.72C332.516 122.058 332.703 122.552 332.703 123.202C332.703 123.826 332.469 124.311 332.001 124.658C331.533 125.005 330.852 125.178 329.96 125.178C329.379 125.178 328.785 125.109 328.179 124.97C327.988 124.927 327.832 124.827 327.711 124.671C327.589 124.506 327.529 124.32 327.529 124.112C327.529 123.947 327.594 123.822 327.724 123.735C327.862 123.648 328.01 123.627 328.166 123.67C328.729 123.826 329.262 123.904 329.765 123.904C330.553 123.904 330.948 123.67 330.948 123.202C330.948 122.977 330.87 122.799 330.714 122.669C330.566 122.539 330.293 122.422 329.895 122.318ZM335.17 125.048C334.971 125.048 334.797 124.974 334.65 124.827C334.503 124.68 334.429 124.506 334.429 124.307V123.579C334.429 123.38 334.503 123.206 334.65 123.059C334.797 122.912 334.971 122.838 335.17 122.838H335.768C335.967 122.838 336.141 122.912 336.288 123.059C336.435 123.206 336.509 123.38 336.509 123.579V124.307C336.509 124.506 336.435 124.68 336.288 124.827C336.141 124.974 335.967 125.048 335.768 125.048H335.17ZM339.233 125.048C339.033 125.048 338.86 124.974 338.713 124.827C338.565 124.68 338.492 124.506 338.492 124.307V123.579C338.492 123.38 338.565 123.206 338.713 123.059C338.86 122.912 339.033 122.838 339.233 122.838H339.831C340.03 122.838 340.203 122.912 340.351 123.059C340.498 123.206 340.572 123.38 340.572 123.579V124.307C340.572 124.506 340.498 124.68 340.351 124.827C340.203 124.974 340.03 125.048 339.831 125.048H339.233ZM343.295 125.048C343.096 125.048 342.922 124.974 342.775 124.827C342.628 124.68 342.554 124.506 342.554 124.307V123.579C342.554 123.38 342.628 123.206 342.775 123.059C342.922 122.912 343.096 122.838 343.295 122.838H343.893C344.092 122.838 344.266 122.912 344.413 123.059C344.56 123.206 344.634 123.38 344.634 123.579V124.307C344.634 124.506 344.56 124.68 344.413 124.827C344.266 124.974 344.092 125.048 343.893 125.048H343.295Z" fill="#333333"/>
<path d="M299.719 141.437L305.482 132.006H314.389L299.719 141.437Z" fill="#52D7A7"/>
<circle cx="281" cy="201" r="80" fill="url(#paint0_radial_1535_638)"/>
<path d="M320.846 232.101L321.186 236.521L296.029 252.329L275.972 255.898L264.244 249.779L250.306 234.651L252.005 229.892L297.729 230.912L315.066 229.552L320.846 232.101Z" fill="#CEE4CA"/>
<path d="M297.388 172.611C297.388 172.951 293.139 177.37 292.969 177.54C292.799 177.71 290.419 180.43 289.909 181.11C289.569 181.96 285.49 183.489 285.32 183.489C285.093 183.489 284.526 183.319 283.62 182.98L282.09 181.45C279.484 177.824 278.181 175.104 278.181 173.291C278.181 170.571 290.589 168.022 294.328 168.192C296.935 168.192 298.238 168.532 298.238 169.211C297.671 171.365 297.388 172.498 297.388 172.611Z" fill="#22825F"/>
<path d="M245.037 226.662C245.377 224.793 244.698 223.603 243.848 221.903C246.794 220.996 250.76 220.6 255.746 220.713C258.806 198.503 265.944 184.225 277.163 177.879V177.709L278.183 173.29C279.713 175.33 282.092 176.859 282.772 177.879C283.282 178.899 284.132 181.279 284.812 182.469C284.982 182.809 285.492 182.639 285.662 182.299C286.172 181.109 286.682 179.409 287.021 177.709C287.021 177.483 287.135 177.313 287.361 177.199C293.141 174.593 296.767 171.93 298.24 169.21L299.94 176.179C315.804 181.505 325.606 197.766 329.345 224.962C329.855 228.872 329.515 233.121 319.827 233.121L303.679 232.951C292.914 241.903 281.809 244.793 270.364 241.62C260.165 238.787 251.723 233.801 245.037 226.662V226.662Z" fill="white"/>
<path d="M285.32 183.489C285.094 185.189 284.924 187.228 284.81 189.608C284.641 191.478 284.471 193.687 284.301 195.897C284.131 198.277 283.791 200.656 283.621 203.036C283.451 205.586 283.281 207.965 283.111 210.345C283.111 212.555 282.941 214.764 282.771 216.634C282.771 218.504 282.601 220.034 282.601 221.053C282.487 221.733 282.431 222.3 282.431 222.753C282.431 222.3 282.374 221.733 282.261 221.053C282.261 220.034 282.091 218.504 281.921 216.634C281.921 214.764 281.921 212.555 281.921 210.345C281.921 207.965 282.091 205.416 282.261 203.036C282.431 200.486 282.601 198.107 282.941 195.727C283.281 193.517 283.621 191.308 283.961 189.608C284.414 187.115 284.867 185.075 285.32 183.489V183.489Z" fill="#D7E2F1"/>
<path d="M270.532 154.423C272.742 151.363 280.731 148.983 285.32 149.663C289.626 150.23 293.479 152.609 296.878 156.802C298.578 155.442 301.468 156.802 301.128 160.882C301.014 163.601 299.371 165.414 296.198 166.321C296.085 168.927 294.385 171.647 291.099 174.48C286 178.729 279.541 177.029 275.291 171.25C273.138 168.304 271.495 164.054 270.362 158.502C270.022 156.462 270.079 155.102 270.532 154.423V154.423Z" fill="#F2BB97"/>
<g style="mix-blend-mode:multiply" opacity="0.2">
<g style="mix-blend-mode:multiply" opacity="0.2">
<path d="M301.128 160.882C301.015 163.602 299.372 165.415 296.199 166.321C296.086 168.928 294.386 171.647 291.1 174.48C289.967 175.5 288.72 176.18 287.36 176.52C290.76 174.14 293.479 171.421 293.479 166.661C293.479 160.882 289.74 153.233 288.38 150.514C291.666 151.76 294.499 153.857 296.879 156.803C298.579 155.443 301.468 156.803 301.128 160.882V160.882Z" fill="#F5A28C"/>
</g>
</g>
<path d="M296.54 160.032C296.37 163.942 296.03 163.942 295.18 160.202C294.5 157.143 292.97 153.743 291.44 151.704C294.613 152.497 297.616 153.743 300.449 155.443L300.109 157.313C299.259 156.633 296.88 156.293 296.54 160.032V160.032Z" fill="#4D1C16"/>
<path d="M284.132 257.088C283.679 259.921 281.356 261.677 277.163 262.357C271.214 262.187 241.808 261.847 238.238 259.808C234.839 257.598 228.04 250.459 230.93 244.51C233.649 238.561 240.108 236.861 245.207 236.691C250.477 236.521 268.324 243.66 281.412 248.929C283.565 251.875 284.472 254.595 284.132 257.088Z" fill="#22825F"/>
<path d="M277.163 262.357C271.213 262.187 241.808 261.847 238.238 259.807C234.839 257.597 228.04 250.458 230.759 244.509C258.295 254.708 278.692 257.597 283.792 258.277C282.772 260.43 280.562 261.79 277.163 262.357V262.357Z" fill="#1D7353"/>
<path d="M295.178 246.21C302.147 240.431 312.685 234.821 318.294 234.312C323.054 233.802 327.473 236.351 328.833 237.031C327.473 236.805 326.17 236.691 324.923 236.691C320.504 236.521 307.076 241.451 295.178 246.21V246.21Z" fill="#1D7353"/>
<path d="M245.037 226.662C245.207 224.793 244.528 223.603 243.848 221.903C246.681 220.996 250.647 220.6 255.746 220.713C258.126 203.376 263.905 192.497 268.664 186.038C268.324 186.718 261.015 201.846 260.335 225.133C260.789 228.872 263.848 230.288 269.514 229.382C263.395 230.855 260.392 232.555 260.505 234.481L256.596 234.651L245.037 226.662Z" fill="#EBF7EA"/>
<path d="M245.546 227.003C242.147 228.192 228.889 232.102 231.608 227.513C233.535 224.113 237.614 222.243 243.846 221.903C244.526 223.603 245.206 224.793 245.036 226.663L245.546 227.003Z" fill="#EDA994"/>
<path d="M314.557 222.413C310.478 222.526 306.795 222.64 303.509 222.753C306.569 221.733 306.059 218.334 303.339 216.974C298.41 214.764 299.6 212.725 304.359 208.305C306.965 206.039 307.588 201.959 306.229 196.067L309.628 199.806C310.761 207.285 312.404 214.821 314.557 222.413Z" fill="#F3FAF1"/>
<path d="M302.318 223.092C302.488 223.092 302.828 222.922 302.998 222.922C302.658 223.036 302.432 223.092 302.318 223.092Z" fill="#B6C2DB"/>
<path d="M302.999 222.923C303.226 222.81 303.396 222.753 303.509 222.753C303.396 222.753 303.226 222.81 302.999 222.923Z" fill="#B6C2DB"/>
<path d="M280.221 251.478L290.079 250.458L292.799 257.597L281.071 258.617L280.221 251.478Z" fill="#ECA387"/>
<path d="M288.891 248.929C301.809 243.66 319.656 236.521 324.926 236.691C330.025 236.861 336.484 238.561 339.373 244.51C342.093 250.459 335.294 257.598 331.895 259.808C328.325 261.847 298.919 262.187 292.97 262.357C288.891 261.677 286.568 259.921 286.001 257.088C285.661 254.595 286.624 251.875 288.891 248.929Z" fill="#22825F"/>
<path d="M331.894 259.807C328.325 261.847 298.919 262.187 292.97 262.357C288.891 261.677 286.568 259.921 286.001 257.088C286.001 257.088 286.001 257.031 286.001 256.918C313.027 253.008 334.104 246.549 339.543 244.85C341.753 250.799 335.294 257.598 331.894 259.807V259.807Z" fill="#1D7353"/>
<path d="M222.939 228.702H230.418L253.195 241.79L249.116 244.17L223.789 228.872C223.563 228.759 223.279 228.702 222.939 228.702V228.702Z" fill="#F8CA77"/>
<path d="M259.654 254.878L245.036 264.057H222.939C223.279 264.057 223.563 264 223.789 263.887L249.116 248.589L259.654 254.878Z" fill="#C9A269"/>
<path d="M297.218 263.207C296.708 264.057 295.348 264.057 294.669 264.057H275.461C276.141 264.057 276.651 263.887 276.991 263.207C277.501 262.357 277.331 261.337 276.481 260.827L252.685 246.379H273.422L296.538 260.827C297.388 261.337 297.728 262.357 297.218 263.207V263.207Z" fill="#F8CA77"/>
<path d="M276.482 260.827H296.539C297.389 261.337 297.729 262.357 297.219 263.207C296.709 264.057 295.349 264.057 294.669 264.057H275.462C276.142 264.057 276.652 263.887 276.992 263.207C277.502 262.357 277.332 261.337 276.482 260.827V260.827Z" fill="#C9A269"/>
<path d="M250.645 244C236.367 235.388 228.378 230.572 226.678 229.552C226.338 229.382 226.338 229.212 226.848 229.212C227.188 229.212 227.755 229.212 228.548 229.212L251.835 243.32L250.645 244Z" fill="#BF4F2F"/>
<path d="M273.422 229.553L250.645 243.321L227.528 229.383L230.758 226.663C238.917 228.476 246.226 232.782 252.685 239.581C261.693 231.082 269.342 227.853 272.572 226.833C273.422 226.663 274.102 226.663 274.442 226.663C275.801 226.663 290.589 226.663 292.459 226.663C293.592 227.23 294.612 228.023 295.519 229.043L273.422 229.553Z" fill="#DDC5AF"/>
<path d="M295.519 229.043L275.292 229.553C274.952 228.533 274.045 227.626 272.572 226.833C273.422 226.663 274.102 226.663 274.442 226.663C275.802 226.663 290.59 226.663 292.459 226.663C293.706 227.23 294.726 228.023 295.519 229.043V229.043Z" fill="#F4E0CE"/>
<path d="M298.068 232.102L273.422 246.38H252.685L276.481 232.102C277.331 231.422 277.501 230.402 276.991 229.552C276.764 229.099 276.425 228.815 275.971 228.702H296.028C296.878 228.702 298.068 228.702 298.578 229.552C299.088 230.402 298.918 231.422 298.068 232.102Z" fill="#C9A269"/>
<path d="M276.992 263.207C276.482 264.057 275.462 264.397 274.612 263.887L249.116 248.59L223.789 263.887C222.939 264.397 221.919 264.057 221.24 263.207C220.73 262.358 221.07 261.338 221.919 260.828L245.716 246.38L221.919 232.102C221.07 231.422 220.73 230.402 221.24 229.552C221.919 228.702 222.939 228.362 223.789 228.872L249.116 244.17L274.612 228.872C275.462 228.362 276.482 228.702 276.992 229.552C277.502 230.402 277.332 231.422 276.482 232.102L252.685 246.38L276.482 260.828C277.332 261.338 277.502 262.358 276.992 263.207Z" fill="#E2B771"/>
<path d="M298.069 232.102H276.482C277.331 231.422 277.501 230.402 276.992 229.552C276.765 229.099 276.425 228.815 275.972 228.702H296.029C296.879 228.702 298.069 228.702 298.578 229.552C299.088 230.402 298.918 231.422 298.069 232.102Z" fill="#F8CA77"/>
<path d="M230.759 226.662C238.351 225.982 246.113 226.152 254.045 227.172C258.125 228.532 261.694 231.422 262.374 231.932C259.655 233.801 256.425 236.181 252.686 239.58C246.34 233.235 239.031 228.929 230.759 226.662Z" fill="#F4E0CE"/>
<path d="M234.837 227.342L233.987 227.002H234.837C236.764 226.889 238.633 226.832 240.446 226.832C245.206 226.832 249.795 227.172 253.874 227.682C256.934 228.702 259.654 230.572 261.013 231.591L261.863 232.271C261.75 232.385 261.637 232.441 261.523 232.441L260.673 231.931C259.314 230.911 256.764 229.042 253.874 228.022C249.795 227.512 245.206 227.342 240.446 227.342C238.86 227.342 237.33 227.342 235.857 227.342C244.526 230.911 250.985 236.691 252.855 238.39L253.535 238.9C253.421 239.014 253.308 239.127 253.195 239.24L252.515 238.56C250.645 236.861 243.846 230.911 234.837 227.342V227.342Z" fill="#CEBFB2"/>
<path d="M280.73 224.792C280.73 223.773 281.58 223.263 283.28 223.263L286.17 222.243C287.02 222.073 288.719 223.093 288.719 224.113C288.889 225.302 288.039 226.152 287.02 226.322L282.77 226.662C281.75 226.832 280.9 225.982 280.73 224.792Z" fill="#EDA994"/>
<path d="M236.707 228.022C236.197 227.172 236.537 226.152 237.387 225.643L240.787 223.263C241.637 222.753 242.657 222.923 243.166 223.773C243.676 224.453 243.506 225.473 242.657 226.152L239.257 228.362C238.407 228.872 237.217 228.702 236.707 228.022V228.022Z" fill="#EDA994"/>
<path d="M296.029 231.932L290.93 229.042L292.289 223.603H304.018C305.378 224.396 306.171 225.359 306.397 226.493C306.737 227.512 306.114 229.382 304.528 232.102L297.729 231.762L296.029 231.932Z" fill="#F2BB97"/>
<path d="M329.174 224.963C329.684 228.872 329.344 233.122 319.825 233.122L304.188 232.952C304.301 232.725 304.414 232.442 304.528 232.102C305.661 228.022 305.321 224.906 303.508 222.753C307.474 222.187 310.76 221.903 313.366 221.903C304.301 201.28 302.885 187.965 309.117 181.959C316.426 188.418 325.945 200.996 329.174 224.963Z" fill="white"/>
<path d="M298.578 227.682L296.879 232.271C296.539 233.291 295.009 234.991 294.159 234.821C293.139 234.481 293.989 231.931 294.159 230.402L293.479 232.441C293.139 233.631 291.949 234.991 290.929 234.651C290.08 234.311 289.91 233.291 290.08 232.271L290.25 230.402C289.91 231.762 289.06 234.991 287.19 233.971C285.66 233.291 286.51 230.742 286.51 229.892C285.49 232.611 284.13 233.461 283.281 233.121C282.261 232.781 282.601 230.912 283.111 229.722L285.32 223.093C285.66 221.903 286.51 221.563 287.53 221.563C288.55 221.393 290.759 221.223 292.629 221.563C295.859 222.413 297.219 223.603 298.068 224.283C298.748 224.793 298.918 226.662 298.578 227.682V227.682Z" fill="#F2BB97"/>
<path d="M277.502 178.05C278.522 178.843 279.542 179.58 280.562 180.259C281.411 180.939 282.091 181.279 282.771 181.789C283.111 182.016 283.451 182.186 283.791 182.299C283.451 182.299 283.054 182.186 282.601 181.959C281.921 181.789 281.071 181.279 280.222 180.769C279.542 180.259 278.692 179.58 278.352 179.07C278.012 178.616 277.729 178.276 277.502 178.05V178.05Z" fill="#D7E2F1"/>
<path d="M299.769 176.519C299.429 176.859 298.862 177.312 298.069 177.879C297.049 178.729 295.519 179.579 293.989 180.428C293.083 180.768 292.233 181.108 291.44 181.448C290.76 181.675 290.08 181.902 289.4 182.128C288.72 182.298 288.21 182.298 287.87 182.468C287.53 182.468 287.304 182.468 287.19 182.468C289.457 181.788 291.61 180.938 293.649 179.919C295.803 178.899 297.842 177.766 299.769 176.519V176.519Z" fill="#D7E2F1"/>
<path d="M313.366 221.903C313.819 221.903 314.386 221.96 315.066 222.073C315.916 222.073 317.276 222.243 318.635 222.583C319.825 223.093 321.015 223.603 321.865 223.943C322.318 224.17 322.658 224.396 322.885 224.623C323.111 224.736 323.225 224.793 323.225 224.793C322.885 224.566 322.432 224.34 321.865 224.113C321.015 223.773 319.655 223.263 318.465 222.923C316.766 222.47 315.066 222.13 313.366 221.903V221.903Z" fill="#D7E2F1"/>
<g style="mix-blend-mode:multiply" opacity="0.2">
<g style="mix-blend-mode:multiply" opacity="0.2">
<g style="mix-blend-mode:multiply" opacity="0.2">
<path fill-rule="evenodd" clip-rule="evenodd" d="M270.191 156.122C270.191 155.896 270.248 155.669 270.361 155.442C270.248 155.556 270.191 155.612 270.191 155.612C270.191 155.612 270.191 155.556 270.191 155.442C270.191 155.329 270.191 155.216 270.191 155.102C270.191 155.102 270.135 155.102 270.021 155.102C270.021 154.876 269.965 154.479 269.851 153.913C269.851 153.686 269.795 153.403 269.681 153.063C269.681 152.496 269.681 151.873 269.681 151.193C269.681 151.193 269.681 151.136 269.681 151.023C269.511 149.493 269.681 147.794 270.361 146.094C273.761 138.955 283.109 136.405 290.418 138.615C294.668 139.805 297.557 142.524 299.427 145.414C299.654 145.98 299.88 146.547 300.107 147.114C300.107 147.227 300.107 147.284 300.107 147.284C300.56 148.643 300.844 149.947 300.957 151.193C300.957 152.44 300.844 153.629 300.617 154.763C300.504 154.989 300.447 155.216 300.447 155.442L300.277 156.292C296.708 154.593 278.52 147.114 270.191 156.122V156.122Z" fill="#22825F"/>
</g>
</g>
</g>
<path d="M300.448 155.443C286.057 148.304 275.971 148.36 270.192 155.613C269.172 151.987 269.286 148.7 270.532 145.754C273.592 138.105 282.94 135.556 290.249 137.765C299.428 140.485 302.148 149.664 300.448 155.443Z" fill="#22825F"/>
<g style="mix-blend-mode:screen" opacity="0.2">
<g style="mix-blend-mode:screen" opacity="0.2">
<path d="M300.958 151.193C294.329 137.085 277.161 143.204 275.291 142.184C274.611 141.844 274.611 141.164 274.611 140.315C279.031 137.085 284.98 136.235 290.249 137.765C297.388 139.975 300.618 145.924 300.958 151.193Z" fill="#22825F"/>
</g>
</g>
<g style="mix-blend-mode:multiply" opacity="0.2">
<g style="mix-blend-mode:multiply" opacity="0.2">
<path d="M270.193 155.613C269.74 153.913 269.57 152.043 269.683 150.004C269.853 150.854 270.363 151.873 271.553 151.534C273.593 151.024 278.522 146.944 289.401 150.004C293.99 151.364 297.729 153.063 300.619 154.763C300.506 154.99 300.449 155.216 300.449 155.443C286.058 148.304 275.973 148.361 270.193 155.613Z" fill="#22825F"/>
</g>
</g>
<defs>
<radialGradient id="paint0_radial_1535_638" cx="0" cy="0" r="1" gradientUnits="userSpaceOnUse" gradientTransform="translate(287.5 224.5) rotate(96.5627) scale(56.8727)">
<stop/>
<stop offset="1" stop-color="#C4C4C4" stop-opacity="0"/>
</radialGradient>
</defs>
</svg>
