<svg width="100" height="100" viewBox="0 0 100 100" fill="none" xmlns="http://www.w3.org/2000/svg">
<circle cx="51" cy="28" r="18" stroke="#2E3349" stroke-width="2"/>
<mask id="path-2-inside-1_1321_1450" fill="white">
<path fill-rule="evenodd" clip-rule="evenodd" d="M82.3499 91C82.7762 88.8998 83 86.726 83 84.5C83 66.5507 68.4493 52 50.5 52C32.5507 52 18 66.5507 18 84.5C18 86.726 18.2238 88.8998 18.6501 91H82.3499Z"/>
</mask>
<path d="M82.3499 91V93H83.9847L84.3099 91.3979L82.3499 91ZM18.6501 91L16.6901 91.3979L17.0153 93H18.6501V91ZM81 84.5C81 86.5917 80.7897 88.6321 80.3899 90.6021L84.3099 91.3979C84.7627 89.1674 85 86.8604 85 84.5H81ZM50.5 54C67.3447 54 81 67.6553 81 84.5H85C85 65.4462 69.5538 50 50.5 50V54ZM20 84.5C20 67.6553 33.6553 54 50.5 54V50C31.4462 50 16 65.4462 16 84.5H20ZM20.6101 90.6021C20.2103 88.6321 20 86.5917 20 84.5H16C16 86.8604 16.2373 89.1674 16.6901 91.3979L20.6101 90.6021ZM18.6501 93H82.3499V89H18.6501V93Z" fill="#2E3349" mask="url(#path-2-inside-1_1321_1450)"/>
</svg>
