<svg width="350" height="273" viewBox="0 0 350 273" fill="none" xmlns="http://www.w3.org/2000/svg">
<path fill-rule="evenodd" clip-rule="evenodd" d="M35.9982 272.289C28.3636 272.289 21.0417 269.263 15.6433 263.877C10.2448 258.491 7.21191 251.186 7.21191 243.569V198.556C7.21191 188.916 11.0506 179.67 17.8833 172.853C23.8989 166.852 31.39 159.378 37.4056 153.376C44.2385 146.559 48.077 137.314 48.077 127.673V81.7661C48.077 72.1255 51.9157 62.8798 58.7484 56.0628C71.0933 43.7465 91.2989 23.5881 103.644 11.2718C110.477 4.45476 119.744 0.625 129.407 0.625H212.903C222.566 0.625 231.834 4.45476 238.666 11.2718C253.361 25.9321 279.671 52.1809 294.365 66.8413C301.198 73.6583 305.037 82.904 305.037 92.5446V143.26C305.037 152.9 308.876 162.146 315.708 168.963C320.588 173.831 326.356 179.586 331.236 184.454C338.069 191.271 341.907 200.517 341.907 210.157V243.569C341.907 259.431 329.019 272.289 313.121 272.289H35.9984H35.9982Z" fill="#ACFFE1"/>
<path d="M40.3229 250.877H23.3867V257.956H40.3229V250.877Z" fill="#27A97A"/>
<path d="M61.8756 250.877H44.9395V257.956H61.8756V250.877Z" fill="#27A97A"/>
<path d="M51.0983 240.334H34.1621V247.412H51.0983V240.334Z" fill="#27A97A"/>
<path d="M136.235 13.2871H119.299V20.3655H136.235V13.2871Z" fill="#27A97A"/>
<path d="M157.788 13.2871H140.852V20.3655H157.788V13.2871Z" fill="#27A97A"/>
<path d="M147.01 23.8301H130.074V30.9084H147.01V23.8301Z" fill="#27A97A"/>
<path d="M253.117 97.9111H236.181V104.99H253.117V97.9111Z" fill="#27A97A"/>
<path d="M274.669 97.9111H257.732V104.99H274.669V97.9111Z" fill="#27A97A"/>
<path d="M263.892 87.3682H246.956V94.4465H263.892V87.3682Z" fill="#27A97A"/>
<path fill-rule="evenodd" clip-rule="evenodd" d="M0 155.464C0 157.197 1.04637 158.76 2.65113 159.423C4.25588 160.086 6.1031 159.719 7.33116 158.494C12.6201 153.217 19.7156 146.138 24.9186 140.947C29.3783 136.498 31.8839 130.463 31.8839 124.171V69.4087C31.8839 67.6758 30.8375 66.1134 29.2328 65.4503C27.628 64.7871 25.7808 65.1537 24.5528 66.3789C19.2638 71.6556 12.1683 78.7346 6.96532 83.9255C2.50565 88.375 0 94.4096 0 100.702V155.464Z" fill="#ACFFE1"/>
<path fill-rule="evenodd" clip-rule="evenodd" d="M169.44 94.3587C169.44 72.1524 151.396 54.1504 129.138 54.1504H129.138C106.88 54.1504 88.8359 72.1524 88.8359 94.3587V204.018H169.44V94.3587Z" fill="white"/>
<path d="M178.794 195.82H79.4834V204.017H178.794V195.82Z" fill="white"/>
<path fill-rule="evenodd" clip-rule="evenodd" d="M162.222 95.9307C162.222 87.1768 158.736 78.7814 152.532 72.5914C146.328 66.4015 137.913 62.9238 129.138 62.9238H129.138C120.364 62.9238 111.949 66.4015 105.745 72.5914C99.5402 78.7814 96.0547 87.1766 96.0547 95.9307V195.821H162.222V95.9307Z" fill="#0E153D"/>
<path fill-rule="evenodd" clip-rule="evenodd" d="M114.898 131.741L112.524 129.373L110.15 131.741L112.524 134.11L114.898 131.741Z" fill="white"/>
<path fill-rule="evenodd" clip-rule="evenodd" d="M148.004 147.967L145.631 145.599L143.257 147.967L145.631 150.335L148.004 147.967Z" fill="white"/>
<path fill-rule="evenodd" clip-rule="evenodd" d="M123.073 177.81L120.699 175.441L118.325 177.81L120.699 180.178L123.073 177.81Z" fill="white"/>
<path fill-rule="evenodd" clip-rule="evenodd" d="M145.244 94.9623C145.497 95.5776 145.714 96.2159 145.891 96.8751C148.143 105.259 143.149 113.889 134.745 116.135C126.342 118.381 117.692 113.399 115.44 105.015C113.189 96.6318 118.183 88.0016 126.586 85.7551C127.247 85.5785 127.909 85.4464 128.57 85.3574C123.205 87.6713 120.204 93.6249 121.761 99.4235C123.473 105.798 130.05 109.586 136.439 107.878C142.251 106.324 145.918 100.754 145.244 94.9623ZM132.234 90.9299C132.283 90.7078 132.452 90.5316 132.672 90.4728C132.892 90.414 133.127 90.4822 133.281 90.65C133.831 91.2489 134.523 92.0024 134.861 92.3713C134.991 92.5125 135.18 92.5848 135.371 92.5664C135.87 92.5184 136.889 92.4203 137.7 92.3421C137.926 92.3202 138.147 92.4262 138.271 92.6171C138.395 92.8077 138.402 93.0514 138.29 93.2495C137.889 93.9562 137.384 94.8454 137.137 95.2808C137.043 95.4476 137.032 95.6489 137.109 95.8244C137.309 96.2831 137.718 97.2203 138.042 97.965C138.133 98.1734 138.1 98.4151 137.957 98.5919C137.814 98.7686 137.583 98.8511 137.36 98.8056C136.563 98.6435 135.559 98.4396 135.067 98.3398C134.879 98.3014 134.684 98.3536 134.541 98.4806C134.165 98.8121 133.398 99.4894 132.789 100.028C132.618 100.178 132.377 100.222 132.164 100.14C131.952 100.059 131.802 99.8661 131.776 99.6401C131.684 98.8331 131.569 97.8178 131.512 97.3207C131.49 97.1305 131.38 96.9614 131.215 96.8643C130.783 96.6103 129.9 96.092 129.198 95.6799C129.002 95.5645 128.886 95.3498 128.898 95.1226C128.91 94.8956 129.048 94.6939 129.255 94.5996C129.996 94.263 130.928 93.8394 131.384 93.6322C131.559 93.5528 131.686 93.396 131.728 93.209C131.836 92.7203 132.058 91.7227 132.234 90.9299Z" fill="#FFAA00"/>
<path fill-rule="evenodd" clip-rule="evenodd" d="M127.089 106.531C129.792 108.178 133.14 108.76 136.437 107.879C142.249 106.325 145.917 100.755 145.243 94.9629C145.496 95.5784 145.712 96.2165 145.89 96.8756C148.141 105.259 143.147 113.889 134.744 116.136C127.957 117.95 121.008 115.048 117.4 109.447C119.262 109.861 121.224 109.832 123.179 109.235C125.09 108.652 126.278 107.691 127.089 106.531ZM131.387 97.0177C131.581 96.8234 131.792 96.6374 132.021 96.4608C133.917 94.9966 135.538 95.0447 137.097 95.3638C137.04 95.5118 137.043 95.6774 137.107 95.8245C137.307 96.2832 137.716 97.2204 138.041 97.9651C138.132 98.1735 138.099 98.4152 137.955 98.592C137.812 98.7688 137.582 98.8512 137.359 98.8057C136.561 98.6436 135.557 98.4397 135.066 98.3399C134.878 98.3015 134.683 98.3538 134.539 98.4807C134.163 98.8122 133.397 99.4896 132.787 100.028C132.616 100.179 132.376 100.222 132.163 100.141C131.95 100.059 131.8 99.8662 131.775 99.6402C131.683 98.8333 131.567 97.8179 131.51 97.3208C131.498 97.209 131.454 97.1045 131.387 97.0177Z" fill="#FF8000"/>
<path fill-rule="evenodd" clip-rule="evenodd" d="M285.784 272.289H260.623C256.165 235.556 279.349 200.198 316.209 190.344C316.209 190.344 316.209 190.344 316.209 190.344C316.209 190.344 316.209 190.344 316.209 190.344C318.013 197.059 318.85 203.806 318.806 210.437L309.726 213.567L318.578 215.797C316.791 238.544 304.676 259.42 285.784 272.289Z" fill="#ADC21E"/>
<path fill-rule="evenodd" clip-rule="evenodd" d="M271.174 272.29C271.182 272.047 271.243 271.802 271.313 271.583C275.416 258.728 280.338 246.161 286.267 234.152C290.039 226.512 294.141 218.971 299.897 212.602L300.249 212.318C300.669 212.158 300.673 212.157 301.123 212.134C301.268 212.173 301.413 212.212 301.559 212.251C301.813 212.416 302.073 212.588 302.222 212.847C302.452 213.245 302.472 213.747 302.29 214.155C302.155 214.457 301.912 214.677 301.697 214.92C297.532 219.647 294.284 225.09 291.306 230.661C284.57 243.259 279.307 256.693 274.807 270.193C274.575 270.891 274.344 271.589 274.12 272.29H271.174Z" fill="white"/>
<path fill-rule="evenodd" clip-rule="evenodd" d="M284.208 219.601C284.746 219.666 285.229 220.014 285.424 220.513C285.453 220.586 285.457 220.606 285.479 220.682L288.977 234.407C289.222 235.508 287.93 236.627 286.857 236.013C286.574 235.85 286.349 235.59 286.231 235.286C286.202 235.213 286.198 235.193 286.176 235.117L282.678 221.392C282.607 221.073 282.622 220.968 282.657 220.776C282.77 220.166 283.313 219.662 283.941 219.602C284.113 219.586 284.153 219.598 284.208 219.601Z" fill="white"/>
<path fill-rule="evenodd" clip-rule="evenodd" d="M324.387 272.289H275.607C287.818 244.001 319.299 228.186 350 236.393C350 236.393 350 236.393 350 236.393H350C348.604 241.591 346.597 246.461 344.076 250.949L334.172 251.782L341.21 255.569C336.67 262.223 330.934 267.871 324.387 272.289Z" fill="#55A958"/>
<path fill-rule="evenodd" clip-rule="evenodd" d="M297.51 272.289C297.515 272.062 297.608 271.844 297.704 271.633C297.791 271.443 297.997 271.196 298.16 270.963C300.311 267.89 302.765 265.02 305.36 262.291C312.002 255.303 319.79 249.319 328.318 244.977L328.435 244.919L328.794 244.803C328.92 244.803 329.045 244.803 329.171 244.803C329.485 244.905 329.593 244.9 329.835 245.142C330.271 245.578 330.287 246.392 329.833 246.844C329.574 247.102 329.369 247.145 329.187 247.238C319.003 252.465 309.73 260.198 302.492 269.222C301.69 270.222 300.901 271.234 300.17 272.289H297.51Z" fill="white"/>
<path fill-rule="evenodd" clip-rule="evenodd" d="M310.387 257.942L310.476 257.955L327.488 260.977C328.414 261.177 328.849 262.583 327.929 263.174C327.727 263.304 327.485 263.371 327.244 263.365C327.164 263.363 327.144 263.358 327.065 263.347L310.053 260.325C309.765 260.263 309.693 260.213 309.559 260.116C308.976 259.697 308.921 258.717 309.468 258.236C309.715 258.019 310.042 257.921 310.387 257.942Z" fill="white"/>
<path fill-rule="evenodd" clip-rule="evenodd" d="M317.678 242.838C317.905 242.861 317.966 242.888 318.084 242.941C318.531 243.141 318.829 243.631 318.793 244.126C318.789 244.188 318.785 244.203 318.775 244.265L316.754 254.824C316.558 255.706 315.272 256.14 314.634 255.359C314.441 255.123 314.343 254.814 314.365 254.511C314.37 254.449 314.374 254.434 314.384 254.373L316.405 243.813C316.452 243.603 316.474 243.571 316.52 243.484C316.703 243.132 317.07 242.883 317.467 242.842C317.602 242.828 317.635 242.837 317.678 242.838Z" fill="white"/>
<path fill-rule="evenodd" clip-rule="evenodd" d="M142.326 272.289H167.486C171.944 235.556 148.761 200.198 111.901 190.344H111.9C111.9 190.344 111.9 190.344 111.9 190.344C110.097 197.059 109.259 203.806 109.303 210.437L118.383 213.567L109.532 215.797C111.318 238.544 123.433 259.42 142.326 272.289Z" fill="#ADC21E"/>
<path fill-rule="evenodd" clip-rule="evenodd" d="M156.935 272.29C156.926 272.047 156.866 271.802 156.796 271.583C152.692 258.728 147.77 246.161 141.841 234.152C138.07 226.512 133.967 218.971 128.211 212.602L127.86 212.318C127.44 212.158 127.436 212.157 126.986 212.134C126.841 212.173 126.695 212.212 126.55 212.251C126.296 212.416 126.036 212.588 125.887 212.847C125.657 213.245 125.636 213.747 125.819 214.155C125.954 214.457 126.196 214.677 126.412 214.92C130.577 219.647 133.825 225.09 136.803 230.661C143.539 243.259 148.802 256.693 153.302 270.193C153.534 270.891 153.765 271.589 153.989 272.29H156.935Z" fill="white"/>
<path fill-rule="evenodd" clip-rule="evenodd" d="M143.903 219.601C143.364 219.666 142.881 220.014 142.686 220.513C142.657 220.586 142.654 220.606 142.632 220.682L139.134 234.407C138.889 235.508 140.181 236.627 141.253 236.013C141.537 235.85 141.762 235.59 141.88 235.287C141.909 235.213 141.913 235.193 141.934 235.118L145.433 221.392C145.504 221.073 145.489 220.968 145.453 220.776C145.341 220.166 144.798 219.662 144.169 219.602C143.998 219.586 143.958 219.598 143.903 219.601Z" fill="white"/>
<path fill-rule="evenodd" clip-rule="evenodd" d="M103.722 272.289H152.502C140.292 244.001 108.811 228.186 78.1096 236.393C78.1096 236.393 78.1094 236.393 78.1094 236.393C79.5052 241.591 81.5126 246.461 84.0336 250.949L93.9374 251.782L86.8994 255.569C91.4395 262.223 97.1759 267.871 103.722 272.289Z" fill="#55A958"/>
<path fill-rule="evenodd" clip-rule="evenodd" d="M130.6 272.289C130.595 272.062 130.501 271.844 130.405 271.633C130.319 271.443 130.112 271.196 129.949 270.963C127.798 267.89 125.344 265.02 122.749 262.291C116.107 255.303 108.32 249.319 99.7908 244.977L99.6748 244.919L99.3155 244.803C99.1898 244.803 99.064 244.803 98.9382 244.803C98.6245 244.905 98.516 244.9 98.2742 245.142C97.8382 245.578 97.822 246.392 98.2767 246.844C98.5357 247.102 98.7405 247.145 98.9224 247.238C109.107 252.465 118.38 260.198 125.617 269.222C126.419 270.222 127.208 271.234 127.94 272.289H130.6Z" fill="white"/>
<path fill-rule="evenodd" clip-rule="evenodd" d="M117.724 257.942L117.634 257.955L100.623 260.977C99.6962 261.177 99.2612 262.583 100.181 263.174C100.384 263.304 100.626 263.371 100.866 263.365C100.947 263.363 100.966 263.358 101.045 263.347L118.057 260.325C118.345 260.263 118.418 260.213 118.552 260.116C119.134 259.697 119.19 258.717 118.643 258.236C118.395 258.019 118.069 257.921 117.724 257.942Z" fill="white"/>
<path fill-rule="evenodd" clip-rule="evenodd" d="M110.432 242.838C110.205 242.861 110.143 242.888 110.026 242.941C109.58 243.141 109.28 243.631 109.316 244.126C109.321 244.188 109.325 244.203 109.335 244.265L111.357 254.824C111.552 255.706 112.838 256.14 113.477 255.359C113.669 255.123 113.767 254.814 113.745 254.511C113.74 254.449 113.736 254.434 113.727 254.373L111.705 243.813C111.658 243.603 111.635 243.571 111.59 243.484C111.407 243.132 111.041 242.883 110.643 242.842C110.508 242.828 110.476 242.837 110.432 242.838Z" fill="white"/>
<path fill-rule="evenodd" clip-rule="evenodd" d="M212.948 137.955C212.948 137.955 204.287 141.895 199.039 144.283C196.579 145.402 194.803 147.629 194.263 150.273C191.52 163.71 183.149 204.708 183.149 204.708L172.342 212.064L179.943 226.562L200.532 210.595L212.948 137.955Z" fill="#797F86"/>
<path fill-rule="evenodd" clip-rule="evenodd" d="M168.033 208.67L174.862 212.064L171.12 218.287L159.545 215.532L168.033 208.67Z" fill="#EA7362"/>
<path fill-rule="evenodd" clip-rule="evenodd" d="M261.687 226.563H203.414V272.079H235.28C242.021 272.079 248.44 269.197 252.91 264.162L277.607 242.073L261.687 226.563Z" fill="#0E153D"/>
<path fill-rule="evenodd" clip-rule="evenodd" d="M213.896 112.437H228.946L237.146 133.917L220.304 135.346L213.896 112.437Z" fill="#EA7362"/>
<path fill-rule="evenodd" clip-rule="evenodd" d="M217.909 135.347C217.909 135.347 210.42 138.904 204.835 141.557C201.232 143.269 199.037 146.998 199.294 150.972C200.466 169.169 203.611 219.313 203.166 226.563H261.687C261.687 226.563 265.227 172.96 264.474 146.788C264.26 142.39 260.962 138.755 256.596 138.106C248.923 136.958 238.08 135.347 238.08 135.347H217.909Z" fill="#A1A5AA"/>
<path fill-rule="evenodd" clip-rule="evenodd" d="M238.079 130.607C238.079 130.157 237.863 129.735 237.497 129.472C237.132 129.209 236.662 129.137 236.234 129.278C234.824 129.745 232.846 130.4 231.182 130.951C229.279 131.581 227.994 133.357 227.994 135.358C227.994 136.646 227.994 137.812 227.994 137.812C232.008 138.162 235.419 137.428 238.079 135.346V130.607Z" fill="#393F46"/>
<path fill-rule="evenodd" clip-rule="evenodd" d="M227.994 135.358C227.994 133.357 226.709 131.582 224.805 130.951C223.414 130.49 221.803 129.957 220.488 129.522C219.89 129.323 219.233 129.424 218.722 129.792C218.211 130.16 217.908 130.751 217.908 131.379V135.347C220.305 137.131 223.702 137.919 227.993 137.813V135.358H227.994Z" fill="#393F46"/>
<path fill-rule="evenodd" clip-rule="evenodd" d="M228.481 116.299L231.529 118.988C231.529 118.988 233.542 110.141 227.774 100.334L225.655 105.777L228.481 116.299Z" fill="#0E153D"/>
<path fill-rule="evenodd" clip-rule="evenodd" d="M194.703 103.954C192.353 95.2032 197.558 86.2087 206.329 83.8638C206.329 83.8638 206.329 83.8638 206.329 83.8638C215.1 81.5191 224.116 86.7121 226.466 95.4627C227.225 98.2912 228.995 104.882 228.995 104.882L225.655 105.775C225.655 105.775 227.754 113.593 228.481 116.297C230.831 125.048 229.122 133.727 220.351 136.071C220.351 136.071 220.351 136.071 220.351 136.071C211.58 138.416 202.564 133.223 200.214 124.472C198.467 117.97 196.449 110.457 194.703 103.954Z" fill="#FFD6B6"/>
<path fill-rule="evenodd" clip-rule="evenodd" d="M228.953 101.327L227.627 96.3892C225.215 87.4093 215.23 82.4339 206.229 84.8401C206.229 84.8401 206.229 84.8401 206.229 84.8401C200.469 86.3799 196.207 90.7151 194.518 95.9905C193.964 98.5285 193.993 101.232 194.713 103.914L195.81 107.999C207.286 108.426 228.928 101.335 228.953 101.327Z" fill="#EA7362"/>
<path fill-rule="evenodd" clip-rule="evenodd" d="M216.996 103.335L228.648 100.197L229.971 104.9L225.654 105.775L221.12 107.115C219.476 106.259 218.014 104.895 216.996 103.335Z" fill="#0E153D"/>
<path fill-rule="evenodd" clip-rule="evenodd" d="M228.096 101.537L227.772 100.332L216.996 103.335C217.238 103.705 217.504 104.064 217.793 104.408L228.096 101.537Z" fill="#040616"/>
<path fill-rule="evenodd" clip-rule="evenodd" d="M224.763 102.457L220.21 103.726C220.21 103.726 221.97 110.277 223.933 117.588C224.781 120.744 224.337 124.107 222.7 126.937C221.062 129.767 218.365 131.832 215.202 132.677C215.201 132.677 215.201 132.677 215.201 132.677C212.038 133.523 208.667 133.08 205.831 131.447C202.994 129.813 200.925 127.122 200.077 123.966C200.077 123.966 199.468 121.699 201.588 129.592C202.352 132.436 204.218 134.862 206.774 136.334C209.33 137.807 212.368 138.206 215.22 137.444C217.485 136.838 219.875 136.199 222.14 135.594C224.991 134.831 227.422 132.97 228.898 130.42C230.374 127.869 230.774 124.838 230.01 121.993C227.89 114.101 224.763 102.457 224.763 102.457Z" fill="#0E153D"/>
<path fill-rule="evenodd" clip-rule="evenodd" d="M228.649 100.198L227.307 95.2011C224.895 86.2214 215.643 80.8923 206.643 83.2984C206.642 83.2984 206.642 83.2984 206.642 83.2984C197.642 85.7046 192.3 94.9347 194.712 103.915L195.382 106.412C206.649 107.222 228.649 100.198 228.649 100.198Z" fill="#A1A5AA"/>
<path fill-rule="evenodd" clip-rule="evenodd" d="M234.25 109.116C235.03 112.022 233.302 115.008 230.389 115.787C228.967 116.167 228.48 116.297 228.48 116.297L225.654 105.775C225.654 105.775 226.141 105.645 227.563 105.265C230.476 104.487 233.469 106.211 234.249 109.116C234.249 109.116 234.249 109.116 234.25 109.116Z" fill="#FFD6B6"/>
<path fill-rule="evenodd" clip-rule="evenodd" d="M230.637 110.083C230.966 111.309 230.237 112.569 229.008 112.897C228.408 113.058 227.665 113.256 227.665 113.256L226.473 108.817C226.473 108.817 227.216 108.618 227.816 108.458C229.044 108.129 230.307 108.857 230.637 110.083C230.637 110.083 230.637 110.083 230.637 110.083Z" fill="#EA7362"/>
<path fill-rule="evenodd" clip-rule="evenodd" d="M232.305 135.347H223.684V161.876L227.994 165.837L232.305 161.876V135.347H232.305Z" fill="#393F46"/>
<path d="M227.994 161.593C228.9 161.593 229.636 160.859 229.636 159.955C229.636 159.05 228.9 158.316 227.994 158.316C227.087 158.316 226.352 159.05 226.352 159.955C226.352 160.859 227.087 161.593 227.994 161.593Z" fill="#E4E5E7"/>
<path d="M227.994 152.16C228.9 152.16 229.636 151.427 229.636 150.522C229.636 149.617 228.9 148.884 227.994 148.884C227.087 148.884 226.352 149.617 226.352 150.522C226.352 151.427 227.087 152.16 227.994 152.16Z" fill="#E4E5E7"/>
<path d="M227.994 142.728C228.9 142.728 229.636 141.994 229.636 141.089C229.636 140.185 228.9 139.451 227.994 139.451C227.087 139.451 226.352 140.185 226.352 141.089C226.352 141.994 227.087 142.728 227.994 142.728Z" fill="#E4E5E7"/>
<path d="M227.993 160.721C228.418 160.721 228.762 160.378 228.762 159.954C228.762 159.531 228.418 159.188 227.993 159.188C227.569 159.188 227.225 159.531 227.225 159.954C227.225 160.378 227.569 160.721 227.993 160.721Z" fill="#393F46"/>
<path d="M227.993 151.289C228.418 151.289 228.762 150.946 228.762 150.523C228.762 150.099 228.418 149.756 227.993 149.756C227.569 149.756 227.225 150.099 227.225 150.523C227.225 150.946 227.569 151.289 227.993 151.289Z" fill="#393F46"/>
<path d="M227.993 141.858C228.418 141.858 228.762 141.514 228.762 141.091C228.762 140.668 228.418 140.324 227.993 140.324C227.569 140.324 227.225 140.668 227.225 141.091C227.225 141.514 227.569 141.858 227.993 141.858Z" fill="#393F46"/>
<path fill-rule="evenodd" clip-rule="evenodd" d="M235.103 248.42L213.896 255.643L218.665 272.079L251.151 266.143L235.103 248.42Z" fill="#EA7362"/>
<path fill-rule="evenodd" clip-rule="evenodd" d="M261.687 226.563C261.687 226.563 276.134 230.012 285.53 232.254C290.358 233.407 294.114 237.189 295.225 242.015C295.644 243.837 296.101 245.821 296.555 247.793C297.335 251.182 296.726 254.741 294.863 257.68C293 260.619 290.037 262.693 286.633 263.442C271.199 266.839 247.382 272.079 247.382 272.079C239.974 271.978 231.642 257.842 233.037 249.124L261.687 232.253V226.563H261.687Z" fill="#0E153D"/>
<path fill-rule="evenodd" clip-rule="evenodd" d="M172.186 226.563C172.186 226.563 164.222 224.707 156.759 222.967C153.376 222.178 149.817 222.766 146.869 224.601C143.921 226.436 141.827 229.366 141.05 232.744C140.744 234.074 140.436 235.41 140.139 236.698C138.814 242.456 141.535 248.384 146.771 251.144C160.794 258.535 186.491 272.08 186.491 272.08C193.898 271.978 202.231 257.842 200.836 249.124L172.186 232.253V226.563H172.186Z" fill="#0E153D"/>
<path fill-rule="evenodd" clip-rule="evenodd" d="M249.376 155.947V177.406C249.376 188.506 245.311 199.223 237.945 207.542C230.102 216.401 221.103 226.563 221.103 226.563L208.544 252.798C208.544 252.798 219.418 250.854 224.904 249.873C226.958 249.506 228.963 248.909 230.883 248.094C241.029 243.786 274.428 229.604 274.428 229.604C274.428 229.604 269.631 226.38 266.952 224.58C265.836 223.83 264.449 223.598 263.149 223.944C263.538 223.144 263.743 222.266 263.75 221.377C263.819 211.501 264.246 150.84 264.246 150.84L249.376 155.947Z" fill="#797F86"/>
<path fill-rule="evenodd" clip-rule="evenodd" d="M158.339 246.598H216.75L198.866 272.08H140.455L158.339 246.598Z" fill="#E0A552"/>
<path fill-rule="evenodd" clip-rule="evenodd" d="M162.887 246.598H221.298L203.414 272.08H145.003L162.887 246.598Z" fill="#A37029"/>
<path fill-rule="evenodd" clip-rule="evenodd" d="M216.599 246.598H158.34L176.37 272.288H234.629L216.599 246.598Z" fill="#E0A552"/>
<path fill-rule="evenodd" clip-rule="evenodd" d="M221.104 246.598H162.845L180.875 272.288H239.134L221.104 246.598Z" fill="#CC8C33"/>
<path fill-rule="evenodd" clip-rule="evenodd" d="M185.529 213.807H139.207L136.923 216.085L158.338 246.599H208.543L185.529 213.807Z" fill="#E0A552"/>
<path fill-rule="evenodd" clip-rule="evenodd" d="M189.412 213.807H139.207L162.222 246.599H212.427L189.412 213.807Z" fill="#CC8C33"/>
<path fill-rule="evenodd" clip-rule="evenodd" d="M190.307 215.223H143.985C143.985 215.223 143.821 215.386 143.649 215.558C143.422 215.784 143.39 216.141 143.575 216.404C146.242 220.204 164.766 246.597 164.766 246.597L212.233 246.463L190.307 215.223Z" fill="#98591B"/>
<path fill-rule="evenodd" clip-rule="evenodd" d="M194.191 215.223H143.986L165.699 246.159H215.904L194.191 215.223Z" fill="#B3591A"/>
<path fill-rule="evenodd" clip-rule="evenodd" d="M195.65 211.982H149.328L145.352 215.95L166.767 246.463L218.665 244.774L195.65 211.982Z" fill="#D9D9D9"/>
<path fill-rule="evenodd" clip-rule="evenodd" d="M199.533 211.982H149.328L172.343 244.774H222.548L199.533 211.982Z" fill="white"/>
<path fill-rule="evenodd" clip-rule="evenodd" d="M198.431 213.861C198.46 213.875 198.461 213.876 198.483 213.899L220.111 244.715L220.106 244.839L220.027 244.876H175.817C175.796 244.872 175.774 244.873 175.734 244.832L154.105 214.016L154.111 213.892L154.189 213.855H198.399C198.41 213.857 198.421 213.859 198.431 213.861ZM154.386 214.059L175.87 244.671H219.831L198.346 214.059H154.386Z" fill="#1A1A1A"/>
<path fill-rule="evenodd" clip-rule="evenodd" d="M154.268 213.904L154.297 213.932L175.902 244.715C176.008 244.955 175.8 244.874 175.8 244.874C175.763 244.86 175.763 244.859 175.734 244.832L154.129 214.049C154.075 213.925 154.155 213.907 154.155 213.907C154.196 213.888 154.178 213.869 154.268 213.904Z" fill="#1A1A1A"/>
<path fill-rule="evenodd" clip-rule="evenodd" d="M158.395 213.904L158.424 213.932L180.029 244.715C180.085 244.844 180.068 244.829 179.967 244.873C179.967 244.873 179.927 244.895 179.861 244.832L158.256 214.049C158.239 214.009 158.281 213.907 158.281 213.907C158.323 213.888 158.305 213.869 158.395 213.904Z" fill="#1A1A1A"/>
<path fill-rule="evenodd" clip-rule="evenodd" d="M162.521 213.904L162.55 213.932L184.155 244.715C184.212 244.844 184.194 244.829 184.093 244.873C184.093 244.873 184.053 244.895 183.987 244.832L162.382 214.049C162.328 213.925 162.408 213.907 162.408 213.907C162.45 213.888 162.432 213.869 162.521 213.904Z" fill="#1A1A1A"/>
<path fill-rule="evenodd" clip-rule="evenodd" d="M166.649 213.904L166.678 213.932L188.282 244.715C188.345 244.856 188.257 244.857 188.257 244.857C188.257 244.857 188.213 244.925 188.115 244.832L166.51 214.049C166.493 214.009 166.535 213.907 166.535 213.907C166.577 213.888 166.559 213.869 166.649 213.904Z" fill="#1A1A1A"/>
<path fill-rule="evenodd" clip-rule="evenodd" d="M170.774 213.904L170.803 213.932L192.407 244.715L192.424 244.791C192.357 244.963 192.321 244.91 192.24 244.832L170.635 214.049C170.618 214.009 170.66 213.907 170.66 213.907C170.702 213.888 170.684 213.869 170.774 213.904Z" fill="#1A1A1A"/>
<path fill-rule="evenodd" clip-rule="evenodd" d="M174.901 213.905L174.929 213.932L196.534 244.715C196.591 244.844 196.574 244.829 196.472 244.873L196.366 244.832L174.762 214.049C174.762 214.049 174.726 214.02 174.759 213.936C174.759 213.936 174.786 213.86 174.901 213.905Z" fill="#1A1A1A"/>
<path fill-rule="evenodd" clip-rule="evenodd" d="M179.028 213.904L179.057 213.932L200.662 244.715C200.718 244.844 200.701 244.829 200.6 244.873C200.6 244.873 200.56 244.895 200.494 244.832L178.889 214.049C178.871 214.009 178.914 213.907 178.914 213.907C178.957 213.888 178.938 213.869 179.028 213.904Z" fill="#1A1A1A"/>
<path fill-rule="evenodd" clip-rule="evenodd" d="M183.155 213.905L183.184 213.932L204.789 244.715C204.846 244.844 204.828 244.829 204.727 244.873C204.727 244.873 204.687 244.895 204.621 244.832L183.016 214.049L183.014 213.936C183.014 213.936 183.04 213.86 183.155 213.905Z" fill="#1A1A1A"/>
<path fill-rule="evenodd" clip-rule="evenodd" d="M183.511 210.73L186.186 213.399H240.048L216.749 246.597H158.338L183.511 210.73Z" fill="#E0A552"/>
<path fill-rule="evenodd" clip-rule="evenodd" d="M186.187 213.4H244.598L221.298 246.598H162.888L186.187 213.4Z" fill="#A37029"/>
<path fill-rule="evenodd" clip-rule="evenodd" d="M241.922 210.73H183.512L186.187 213.399H244.597L241.922 210.73Z" fill="#F0C775"/>
<path fill-rule="evenodd" clip-rule="evenodd" d="M265.438 144.517C264.596 141.433 262.024 139.125 258.861 138.615C258.861 138.615 258.861 138.615 258.86 138.615C255.715 138.108 252.526 139.219 250.382 141.569C248.237 143.919 247.426 147.191 248.226 150.268C253.395 170.143 262.26 204.227 262.26 204.227L235.104 212.836L238.08 230.683C238.08 230.683 259.823 224.03 273.72 219.777C280.032 217.845 283.667 211.263 281.931 204.908C277.295 187.933 268.768 156.709 265.438 144.517Z" fill="#A1A5AA"/>
<path fill-rule="evenodd" clip-rule="evenodd" d="M235.103 212.836C235.103 212.836 229.583 209.281 226.257 207.138C224.687 206.127 222.768 205.808 220.954 206.258C219.083 206.721 216.713 207.308 215.223 207.677C214.38 207.885 213.789 208.64 213.789 209.506V209.506C213.789 210.731 214.754 211.74 215.981 211.797C217.734 211.877 219.916 211.978 220.023 211.982L220.031 211.983C220.522 212.004 220.944 212.338 221.078 212.811C221.211 213.283 221.025 213.788 220.617 214.062C220.613 214.065 220.609 214.067 220.605 214.07C218.182 215.698 215.541 216.977 212.76 217.869C211.823 218.17 210.819 218.492 209.851 218.802C208.633 219.193 207.663 220.12 207.221 221.318C206.778 222.515 206.913 223.849 207.585 224.935C209.069 227.331 210.822 230.162 211.988 232.044C212.786 233.334 214.226 234.086 215.743 234.008C217.523 233.916 220.007 233.787 222.28 233.669C226.147 233.469 229.983 232.861 233.721 231.855C235.989 231.245 238.079 230.683 238.079 230.683L235.103 212.836Z" fill="#FFD6B6"/>
<path fill-rule="evenodd" clip-rule="evenodd" d="M248.517 227.489C245.712 221.946 244.386 216.063 244.597 209.826L235.103 212.836C234.077 219.334 235.278 225.226 238.079 230.683L248.517 227.489Z" fill="#393F46"/>
<path fill-rule="evenodd" clip-rule="evenodd" d="M162.376 211.655C161.916 211.175 161.709 210.506 161.821 209.851C161.932 209.197 162.347 208.633 162.94 208.331C163.605 207.994 164.305 207.638 164.914 207.328C165.874 206.841 167.048 207.155 167.634 208.056C168.316 209.105 169.22 210.496 169.98 211.664C170.372 212.266 170.502 213.001 170.341 213.7C170.18 214.399 169.742 215.004 169.127 215.375C169.064 215.413 169.001 215.451 168.938 215.489C167.874 216.131 166.506 215.951 165.645 215.056C164.685 214.057 163.421 212.742 162.376 211.655Z" fill="#FFD6B6"/>
<path d="M251.149 162.596H235.422V165.836H251.149V162.596Z" fill="#393F46"/>
<path d="M61.0146 172.012H59.7041V177.781H61.0146V172.012Z" fill="#085B53"/>
<path d="M61.0146 172.012H59.7041V177.781H61.0146V172.012Z" fill="#3D588F"/>
<path fill-rule="evenodd" clip-rule="evenodd" d="M60.4655 175.906C61.4568 177.895 63.1545 179.439 65.2241 180.236C69.1919 181.767 71.9439 184.98 71.9439 189.655C71.9439 189.656 48.7764 189.656 48.7764 189.655C48.7764 184.98 51.5286 181.767 55.4962 180.235C57.5656 179.439 59.263 177.894 60.2544 175.905C60.3213 175.772 60.3601 175.694 60.3601 175.694C60.3601 175.694 60.3992 175.772 60.4655 175.906Z" fill="#FFAA00"/>
<path fill-rule="evenodd" clip-rule="evenodd" d="M60.3594 175.694V189.656C66.1511 189.656 71.9429 189.656 71.9429 189.655C71.9429 184.98 69.1907 181.767 65.2232 180.235C63.1537 179.439 61.4563 177.894 60.465 175.905C60.3982 175.772 60.3594 175.694 60.3594 175.694Z" fill="#FF8000"/>
<path fill-rule="evenodd" clip-rule="evenodd" d="M60.3607 167.41C61.7594 167.41 62.895 168.543 62.895 169.939C62.895 171.334 61.7594 172.468 60.3607 172.468C58.9618 172.468 57.8262 171.334 57.8262 169.939C57.8262 168.543 58.9618 167.41 60.3607 167.41ZM60.3607 168.616C61.0922 168.616 61.6859 169.209 61.6859 169.939C61.6859 170.669 61.0922 171.261 60.3607 171.261C59.629 171.261 59.0352 170.669 59.0352 169.939C59.0352 169.209 59.6292 168.616 60.3607 168.616Z" fill="#FFAA00"/>
<path fill-rule="evenodd" clip-rule="evenodd" d="M75.0232 190.592C75.0232 190.343 74.9244 190.105 74.7485 189.93C74.5725 189.754 74.3337 189.655 74.0847 189.655C69.6749 189.655 51.0438 189.655 46.6341 189.655C46.3851 189.655 46.1463 189.754 45.9703 189.93C45.7941 190.105 45.6953 190.343 45.6953 190.592C45.6953 191.113 45.6953 191.761 45.6953 192.282C45.6953 192.531 45.7941 192.769 45.9703 192.945C46.1463 193.12 46.3851 193.219 46.6341 193.219C51.0438 193.219 69.6749 193.219 74.0847 193.219C74.3337 193.219 74.5725 193.12 74.7485 192.945C74.9244 192.769 75.0232 192.531 75.0232 192.282C75.0232 191.761 75.0232 191.113 75.0232 190.592Z" fill="#3D588F"/>
<path fill-rule="evenodd" clip-rule="evenodd" d="M75.023 220.573C75.023 220.272 74.9031 219.983 74.6895 219.769C74.4759 219.556 74.1862 219.437 73.884 219.437C69.2074 219.437 51.5111 219.437 46.8346 219.437C46.5324 219.437 46.2427 219.556 46.029 219.769C45.8154 219.983 45.6953 220.272 45.6953 220.573C45.6953 220.986 45.6953 221.451 45.6953 221.864C45.6953 222.165 45.8154 222.454 46.029 222.668C46.2427 222.881 46.5324 223 46.8346 223C51.5111 223 69.2074 223 73.884 223C74.1862 223 74.4759 222.881 74.6895 222.668C74.9031 222.454 75.023 222.165 75.023 221.864C75.023 221.451 75.023 220.986 75.023 220.573Z" fill="#3D588F"/>
<path fill-rule="evenodd" clip-rule="evenodd" d="M71.9439 223H48.7764C48.7764 223.945 49.1527 224.852 49.8225 225.52C50.4924 226.188 51.4009 226.564 52.3482 226.564C56.7028 226.564 64.0176 226.564 68.3719 226.564C69.3192 226.564 70.2277 226.188 70.8976 225.52C71.5676 224.852 71.9439 223.945 71.9439 223Z" fill="#FFAA00"/>
<path fill-rule="evenodd" clip-rule="evenodd" d="M71.943 223C71.943 223.945 71.5667 224.852 70.8968 225.52C70.2269 226.188 69.3184 226.564 68.3711 226.564H60.3594V223H71.943Z" fill="#FF8000"/>
<path d="M71.9439 193.219H48.7764V219.436H71.9439V193.219Z" fill="#3D588F"/>
<path d="M71.9439 193.219H48.7764V195.465H71.9439V193.219Z" fill="#1F2C47"/>
<path fill-rule="evenodd" clip-rule="evenodd" d="M65.539 203.62C65.539 200.978 64.1018 198.51 61.7081 197.042C60.9381 196.57 60.3603 196.216 60.3603 196.216C60.3603 196.216 59.7821 196.57 59.0123 197.042C56.6188 198.51 55.1816 200.978 55.1816 203.62V219.436H65.5392V203.62H65.539Z" fill="white"/>
<path fill-rule="evenodd" clip-rule="evenodd" d="M60.7348 196.445L61.7071 197.042C64.1007 198.509 65.538 200.977 65.538 203.619V219.436H60.3594V196.445H60.7348Z" fill="#FFDD99"/>
<path fill-rule="evenodd" clip-rule="evenodd" d="M70.2489 219.435H67.6113V203.619C67.6113 200.977 68.3432 198.509 69.5623 197.041C69.9545 196.569 70.2489 196.215 70.2489 196.215V219.435Z" fill="#FFDD99"/>
<path fill-rule="evenodd" clip-rule="evenodd" d="M50.4707 219.435H53.1083V203.619C53.1083 200.977 52.3764 198.509 51.1574 197.041C50.7651 196.569 50.4707 196.215 50.4707 196.215V219.435Z" fill="white"/>
<path d="M60.8717 54.1494H59.8486V169.127H60.8717V54.1494Z" fill="white"/>
<path d="M196.142 16.2324H194.94V21.5211H196.142V16.2324Z" fill="#085B53"/>
<path d="M196.142 16.2324H194.94V21.5211H196.142V16.2324Z" fill="#3D588F"/>
<path fill-rule="evenodd" clip-rule="evenodd" d="M195.638 19.8021C196.547 21.6256 198.103 23.0417 200 23.7719C203.638 25.1755 206.161 28.1214 206.161 32.4076C206.161 32.4088 184.921 32.4088 184.921 32.4076C184.921 28.1214 187.444 25.1755 191.082 23.7717C192.979 23.0415 194.535 21.6254 195.444 19.8019C195.505 19.6798 195.541 19.6084 195.541 19.6084C195.541 19.6084 195.577 19.6798 195.638 19.8021Z" fill="#FFAA00"/>
<path fill-rule="evenodd" clip-rule="evenodd" d="M195.542 19.6084V32.4086C200.852 32.4086 206.162 32.4082 206.162 32.4076C206.162 28.1214 203.639 25.1755 200.001 23.7717C198.104 23.0415 196.548 21.6254 195.639 19.8019C195.578 19.6798 195.542 19.6084 195.542 19.6084Z" fill="#FF8000"/>
<path fill-rule="evenodd" clip-rule="evenodd" d="M195.542 12.0137C196.825 12.0137 197.866 13.0525 197.866 14.332C197.866 15.6115 196.825 16.6502 195.542 16.6502C194.26 16.6502 193.219 15.6113 193.219 14.332C193.219 13.0525 194.26 12.0137 195.542 12.0137ZM195.542 13.1197C196.213 13.1197 196.757 13.6629 196.757 14.332C196.757 15.001 196.213 15.5442 195.542 15.5442C194.872 15.5442 194.327 15.001 194.327 14.332C194.327 13.6629 194.872 13.1197 195.542 13.1197Z" fill="#FFAA00"/>
<path fill-rule="evenodd" clip-rule="evenodd" d="M208.986 33.2666C208.986 33.039 208.895 32.8206 208.734 32.6595C208.573 32.4986 208.354 32.4082 208.125 32.4082C204.082 32.4082 187.001 32.4082 182.958 32.4082C182.73 32.4082 182.511 32.4986 182.349 32.6595C182.188 32.8206 182.098 33.0388 182.098 33.2666C182.098 33.7451 182.098 34.3387 182.098 34.817C182.098 35.0446 182.188 35.263 182.349 35.4239C182.511 35.5849 182.729 35.6752 182.958 35.6752C187.001 35.6752 204.082 35.6752 208.125 35.6752C208.353 35.6752 208.573 35.5847 208.734 35.4239C208.895 35.263 208.986 35.0446 208.986 34.817C208.986 34.3387 208.986 33.7451 208.986 33.2666Z" fill="#3D588F"/>
<path fill-rule="evenodd" clip-rule="evenodd" d="M208.985 60.7548C208.985 60.4784 208.876 60.2134 208.68 60.0181C208.484 59.8225 208.218 59.7129 207.941 59.7129C203.654 59.7129 187.429 59.7129 183.142 59.7129C182.865 59.7129 182.599 59.8227 182.403 60.0181C182.208 60.2134 182.098 60.4784 182.098 60.7548C182.098 61.1329 182.098 61.5599 182.098 61.938C182.098 62.2144 182.208 62.4793 182.403 62.6747C182.599 62.8702 182.865 62.9799 183.142 62.9799C187.429 62.9799 203.654 62.9799 207.941 62.9799C208.218 62.9799 208.484 62.87 208.68 62.6747C208.876 62.4793 208.985 62.2144 208.985 61.938C208.985 61.5599 208.985 61.1329 208.985 60.7548Z" fill="#3D588F"/>
<path fill-rule="evenodd" clip-rule="evenodd" d="M206.161 62.9785H184.921C184.921 63.8451 185.266 64.6759 185.88 65.2887C186.494 65.9015 187.327 66.2457 188.196 66.2457C192.188 66.2457 198.894 66.2457 202.886 66.2457C203.755 66.2457 204.588 65.9015 205.202 65.2887C205.816 64.6761 206.161 63.8451 206.161 62.9785Z" fill="#FFAA00"/>
<path fill-rule="evenodd" clip-rule="evenodd" d="M206.161 62.9785C206.161 63.8451 205.816 64.6761 205.202 65.2887C204.588 65.9015 203.755 66.2457 202.886 66.2457H195.541V62.9785H206.161Z" fill="#FF8000"/>
<path d="M206.161 35.6758H184.921V59.7118H206.161V35.6758Z" fill="#3D588F"/>
<path d="M206.161 35.6758H184.921V37.7349H206.161V35.6758Z" fill="#1F2C47"/>
<path fill-rule="evenodd" clip-rule="evenodd" d="M200.289 45.2099C200.289 42.7877 198.971 40.5255 196.777 39.1796C196.071 38.7469 195.541 38.4219 195.541 38.4219C195.541 38.4219 195.011 38.7469 194.305 39.1796C192.111 40.5255 190.793 42.7877 190.793 45.2099V59.7108H200.289V45.2099Z" fill="white"/>
<path fill-rule="evenodd" clip-rule="evenodd" d="M195.886 38.6348L196.778 39.1814C198.972 40.5271 200.29 42.7895 200.29 45.2118V59.7127H195.542V38.6348H195.886Z" fill="#FFDD99"/>
<path fill-rule="evenodd" clip-rule="evenodd" d="M204.608 59.7128H202.189V45.2119C202.189 42.7896 202.86 40.5272 203.978 39.1816C204.338 38.7488 204.608 38.4238 204.608 38.4238V59.7128Z" fill="#FFDD99"/>
<path fill-rule="evenodd" clip-rule="evenodd" d="M186.475 59.7128H188.893V45.2119C188.893 42.7896 188.222 40.5272 187.104 39.1816C186.744 38.7488 186.475 38.4238 186.475 38.4238L186.475 59.7128Z" fill="white"/>
<path d="M196.008 0.720703H195.07V13.5873H196.008V0.720703Z" fill="white"/>
<path d="M276.749 80.5518H275.708V85.1346H276.749V80.5518Z" fill="#085B53"/>
<path d="M276.749 80.5518H275.708V85.1346H276.749V80.5518Z" fill="#3D588F"/>
<path fill-rule="evenodd" clip-rule="evenodd" d="M276.313 83.6446C277.1 85.2248 278.449 86.4518 280.093 87.0846C283.245 88.3009 285.432 90.8536 285.432 94.5676C285.432 94.5688 267.026 94.5688 267.026 94.5676C267.026 90.8536 269.213 88.3009 272.365 87.0842C274.009 86.4514 275.358 85.2244 276.145 83.6442C276.199 83.5384 276.229 83.4766 276.229 83.4766C276.229 83.4766 276.26 83.5386 276.313 83.6446Z" fill="#FFAA00"/>
<path fill-rule="evenodd" clip-rule="evenodd" d="M276.229 83.4775V94.5694C280.83 94.5694 285.431 94.5692 285.431 94.5686C285.431 90.8545 283.245 88.3016 280.093 87.0852C278.449 86.4524 277.1 85.2253 276.312 83.6451C276.259 83.5394 276.229 83.4775 276.229 83.4775Z" fill="#FF8000"/>
<path fill-rule="evenodd" clip-rule="evenodd" d="M276.229 76.8965C277.341 76.8965 278.243 77.7967 278.243 78.9054C278.243 80.014 277.341 80.9143 276.229 80.9143C275.118 80.9143 274.216 80.014 274.216 78.9054C274.216 77.7967 275.118 76.8965 276.229 76.8965ZM276.229 77.8549C276.81 77.8549 277.282 78.3256 277.282 78.9054C277.282 79.4851 276.81 79.9559 276.229 79.9559C275.648 79.9559 275.176 79.4851 275.176 78.9054C275.177 78.3254 275.648 77.8549 276.229 77.8549Z" fill="#FFAA00"/>
<path fill-rule="evenodd" clip-rule="evenodd" d="M287.879 95.3142C287.879 95.1168 287.8 94.9275 287.661 94.7881C287.521 94.6485 287.331 94.5703 287.133 94.5703C283.63 94.5703 268.828 94.5703 265.325 94.5703C265.127 94.5703 264.937 94.6485 264.798 94.7881C264.658 94.9278 264.579 95.1168 264.579 95.3142C264.579 95.7286 264.579 96.243 264.579 96.6576C264.579 96.8548 264.658 97.0442 264.798 97.1836C264.937 97.3231 265.127 97.4014 265.325 97.4014C268.828 97.4014 283.63 97.4014 287.133 97.4014C287.331 97.4014 287.521 97.3231 287.661 97.1836C287.8 97.0442 287.879 96.855 287.879 96.6576C287.879 96.243 287.879 95.7286 287.879 95.3142Z" fill="#3D588F"/>
<path fill-rule="evenodd" clip-rule="evenodd" d="M287.879 119.132C287.879 118.893 287.784 118.663 287.614 118.494C287.444 118.325 287.214 118.229 286.974 118.229C283.259 118.229 269.199 118.229 265.484 118.229C265.244 118.229 265.014 118.325 264.844 118.494C264.675 118.663 264.579 118.893 264.579 119.132C264.579 119.46 264.579 119.83 264.579 120.158C264.579 120.397 264.675 120.627 264.844 120.796C265.014 120.965 265.244 121.06 265.484 121.06C269.199 121.06 283.259 121.06 286.974 121.06C287.214 121.06 287.444 120.965 287.614 120.796C287.784 120.626 287.879 120.397 287.879 120.158C287.879 119.83 287.879 119.46 287.879 119.132Z" fill="#3D588F"/>
<path fill-rule="evenodd" clip-rule="evenodd" d="M285.432 121.06H267.026C267.026 121.81 267.326 122.531 267.858 123.062C268.39 123.592 269.112 123.891 269.864 123.891H282.595C283.347 123.891 284.069 123.592 284.601 123.062C285.133 122.531 285.432 121.81 285.432 121.06Z" fill="#FFAA00"/>
<path fill-rule="evenodd" clip-rule="evenodd" d="M285.431 121.061C285.431 121.811 285.133 122.532 284.6 123.062C284.068 123.593 283.346 123.892 282.594 123.892H276.229V121.061H285.431Z" fill="#FF8000"/>
<path d="M285.432 97.4014H267.026V118.229H285.432V97.4014Z" fill="#3D588F"/>
<path d="M285.432 97.4014H267.026V99.1855H285.432V97.4014Z" fill="#1F2C47"/>
<path fill-rule="evenodd" clip-rule="evenodd" d="M280.343 105.663C280.343 103.564 279.201 101.604 277.299 100.438C276.688 100.063 276.229 99.7812 276.229 99.7812C276.229 99.7812 275.769 100.063 275.158 100.438C273.256 101.604 272.114 103.564 272.114 105.663V118.229H280.343V105.663Z" fill="white"/>
<path fill-rule="evenodd" clip-rule="evenodd" d="M276.527 99.9648L277.299 100.439C279.201 101.605 280.343 103.565 280.343 105.664V118.23H276.229V99.9648H276.527Z" fill="#FFDD99"/>
<path fill-rule="evenodd" clip-rule="evenodd" d="M284.086 118.229H281.99V105.663C281.99 103.564 282.572 101.604 283.54 100.438C283.852 100.063 284.086 99.7812 284.086 99.7812V118.229Z" fill="#FFDD99"/>
<path fill-rule="evenodd" clip-rule="evenodd" d="M268.371 118.229H270.467V105.663C270.467 103.564 269.885 101.604 268.917 100.438C268.605 100.063 268.371 99.7812 268.371 99.7812V118.229Z" fill="white"/>
<path d="M276.635 47.8945H275.822V78.2601H276.635V47.8945Z" fill="white"/>
</svg>
