<svg width="250" height="200" viewBox="0 0 250 200" fill="none" xmlns="http://www.w3.org/2000/svg">
<path d="M51.255 158.051L55.1204 153.575C53.0332 147.724 49.6174 141.161 44.2234 134.261L40.7503 137.349L42.3823 132.012C39.8121 128.944 36.9144 125.832 33.4726 122.668C33.4726 122.668 28.5543 129.353 27.2109 139.61L30.9209 143.607L27.0647 141.098C26.4763 147.467 27.4033 155.072 31.5778 163.284L39.0349 168.165L33.1655 166.235C35.0806 169.457 37.4917 172.732 40.5689 176.065C46.777 182.136 50.7924 185.548 50.7924 185.548L57.352 178.478C57.352 178.478 59.9629 169.374 55.9106 156.055L51.255 158.051Z" fill="#52B567"/>
<path d="M44.8219 177.426C40.8102 174.236 36.9429 172.188 33.3253 170.937L35.3848 174.78L31.2991 170.358C25.1614 168.716 19.7749 169.308 15.6281 170.6L18.1539 173.32L14.5346 170.966C9.60139 172.726 6.65186 175.25 6.65186 175.25C11.4277 179.724 16.013 182.865 20.2819 185.12L22.7429 184.056L21.5328 185.777C27.5873 188.765 32.959 189.92 37.2038 190.198L40.7528 186.908L39.7869 190.281C40.2218 190.277 40.6418 190.264 41.047 190.244C44.7256 190.064 48.1674 188.381 50.671 185.681L52.081 184.162C52.0828 184.162 49.4404 181.497 44.8219 177.426Z" fill="#9DE6AD"/>
<path opacity="0.42" d="M18.9439 176.82C16.47 176.585 10.9595 175.772 10.9595 175.772C10.9595 175.772 15.9852 175.349 18.4129 175.58C38.8468 177.51 50.4636 184.73 50.9928 185.06L50.7985 185.546L50.434 185.938C48.9999 185.084 37.6681 178.661 18.9439 176.82Z" fill="white"/>
<path opacity="0.21" d="M53.1809 182.976L52.4352 183.781C49.8761 180.13 36.346 159.72 34.1847 133.737C33.9997 131.552 34.4771 127.274 34.4771 127.274C34.4771 127.274 35.2764 131.733 35.443 133.796C37.4581 158.799 50.161 178.598 53.1809 182.976Z" fill="white"/>
<path d="M212.672 86.7588H47.5928V87.4064L122.341 147.122C126.618 150.559 133.636 150.559 137.925 147.122L212.674 87.4064V86.7588H212.672Z" fill="#52B567"/>
<path d="M136.582 37.2691C133.026 34.9709 127.239 34.9709 123.666 37.2691L47.5928 86.7579C49.4062 88.0606 52.2132 88.4455 54.5947 88.4455H205.67C208.068 88.4455 210.859 88.0606 212.672 86.7579L136.582 37.2691Z" fill="#7FD291"/>
<path opacity="0.2" d="M189.085 71.419L168.229 57.8538H92.0244L61.8833 77.4624V98.8234L122.339 147.122C126.616 150.559 133.634 150.559 137.924 147.122L189.083 106.249V71.419H189.085Z" fill="#7D7D7D"/>
<path d="M190.052 173.215H68.5564C66.9817 173.215 65.7031 171.938 65.7031 170.363V60.7071C65.7031 59.1305 66.9799 57.8538 68.5564 57.8538H190.052C191.628 57.8538 192.905 59.1305 192.905 60.7071V170.362C192.905 171.936 191.628 173.215 190.052 173.215Z" fill="#EBEBEB"/>
<path d="M123.603 126.43C123.603 125.481 124.373 124.717 125.316 124.717H170.459C171.402 124.717 172.172 125.481 172.172 126.43C172.172 127.381 171.402 128.144 170.459 128.144H125.315C124.373 128.142 123.603 127.38 123.603 126.43Z" fill="#BFBFBF"/>
<path d="M88.1016 126.43C88.1016 125.481 88.8658 124.717 89.8076 124.717H117.379C118.322 124.717 119.092 125.481 119.092 126.43C119.092 127.381 118.322 128.144 117.379 128.144H89.8076C88.8639 128.142 88.1016 127.38 88.1016 126.43Z" fill="#BFBFBF"/>
<path d="M135.752 116.844C135.752 115.895 134.989 115.13 134.046 115.13H89.8082C88.8645 115.13 88.0947 115.895 88.0947 116.844C88.0947 117.788 88.8645 118.557 89.8082 118.557H134.046C134.987 118.557 135.752 117.788 135.752 116.844Z" fill="#BFBFBF"/>
<path d="M172.169 116.844C172.169 115.895 171.405 115.13 170.461 115.13H141.976C141.032 115.13 140.263 115.895 140.263 116.844C140.263 117.788 141.032 118.557 141.976 118.557H170.461C171.405 118.557 172.169 117.788 172.169 116.844Z" fill="#BFBFBF"/>
<path d="M135.752 135.464C135.752 134.515 134.989 133.75 134.046 133.75H89.8082C88.8645 133.75 88.0947 134.515 88.0947 135.464C88.0947 136.408 88.8645 137.177 89.8082 137.177H134.046C134.987 137.177 135.752 136.408 135.752 135.464Z" fill="#BFBFBF"/>
<path d="M172.169 135.464C172.169 134.515 171.405 133.75 170.461 133.75H141.976C141.032 133.75 140.263 134.515 140.263 135.464C140.263 136.408 141.032 137.177 141.976 137.177H170.461C171.405 137.177 172.169 136.408 172.169 135.464Z" fill="#BFBFBF"/>
<path d="M123.603 107.252C123.603 106.308 124.373 105.544 125.316 105.544H170.459C171.402 105.544 172.172 106.308 172.172 107.252C172.172 108.201 171.402 108.965 170.459 108.965H125.315C124.373 108.965 123.603 108.201 123.603 107.252Z" fill="#BFBFBF"/>
<path d="M88.1016 107.252C88.1016 106.308 88.8658 105.544 89.8076 105.544H117.379C118.322 105.544 119.092 106.308 119.092 107.252C119.092 108.201 118.322 108.965 117.379 108.965H89.8076C88.8639 108.965 88.1016 108.201 88.1016 107.252Z" fill="#BFBFBF"/>
<path d="M123.603 97.9063C123.603 96.957 124.373 96.1984 125.316 96.1984H170.459C171.402 96.1984 172.172 96.957 172.172 97.9063C172.172 98.8555 171.402 99.6197 170.459 99.6197H125.315C124.373 99.6197 123.603 98.8555 123.603 97.9063Z" fill="#BFBFBF"/>
<path d="M88.1016 97.9063C88.1016 96.957 88.8658 96.1984 89.8076 96.1984H117.379C118.322 96.1984 119.092 96.957 119.092 97.9063C119.092 98.8555 118.322 99.6197 117.379 99.6197H89.8076C88.8639 99.6197 88.1016 98.8555 88.1016 97.9063Z" fill="#BFBFBF"/>
<path d="M135.752 88.322C135.752 87.3727 134.989 86.6085 134.046 86.6085H89.8082C88.8645 86.6085 88.0947 87.3727 88.0947 88.322C88.0947 89.2712 88.8645 90.0336 89.8082 90.0336H134.046C134.987 90.0336 135.752 89.2694 135.752 88.322Z" fill="#BFBFBF"/>
<path d="M172.169 88.322C172.169 87.3727 171.405 86.6085 170.461 86.6085H141.976C141.032 86.6085 140.263 87.3727 140.263 88.322C140.263 89.2712 141.032 90.0336 141.976 90.0336H170.461C171.405 90.0336 172.169 89.2694 172.169 88.322Z" fill="#BFBFBF"/>
<path d="M123.603 78.7352C123.603 77.7859 124.373 77.0236 125.316 77.0236H170.459C171.402 77.0236 172.172 77.7878 172.172 78.7352C172.172 79.6789 171.402 80.4486 170.459 80.4486H125.315C124.373 80.4486 123.603 79.6789 123.603 78.7352Z" fill="#BFBFBF"/>
<path d="M88.1016 78.7352C88.1016 77.7859 88.8658 77.0236 89.8076 77.0236H117.379C118.322 77.0236 119.092 77.7878 119.092 78.7352C119.092 79.6789 118.322 80.4486 117.379 80.4486H89.8076C88.8639 80.4486 88.1016 79.6789 88.1016 78.7352Z" fill="#BFBFBF"/>
<path d="M122.341 147.121L47.5928 87.4045V179.005C47.5928 184.772 52.3261 189.522 58.116 189.522H202.147C207.928 189.522 212.672 184.774 212.672 179.005V87.4045L137.924 147.121C133.636 150.559 126.616 150.559 122.341 147.121Z" fill="#7FD291"/>
<path d="M136.282 140.73C132.89 138.539 127.374 138.539 123.968 140.73L52.0093 187.515C53.7394 188.757 55.847 189.521 58.1174 189.521H202.149C204.434 189.521 206.527 188.757 208.257 187.515L136.282 140.73Z" fill="#52B567"/>
<path d="M242.077 63.2217C242.077 64.7168 240.848 65.9474 239.35 65.9474H202.031C200.53 65.9474 199.305 64.7168 199.305 63.2217V41.4925C199.305 39.9937 200.53 38.765 202.031 38.765H239.35C240.848 38.765 242.077 39.9937 242.077 41.4925V63.2217Z" fill="#86DE99"/>
<path d="M222.285 53.3063C221.406 52.7382 219.978 52.7382 219.093 53.3063L200.451 65.4283C200.898 65.7502 201.444 65.9482 202.031 65.9482H239.35C239.942 65.9482 240.484 65.7502 240.932 65.4283L222.285 53.3063Z" fill="#52B567"/>
<path opacity="0.2" d="M239.353 38.764H202.034C200.685 38.764 199.562 39.8465 199.353 41.2454L218.83 58.0859C219.854 58.9741 221.532 58.9741 222.559 58.0859L242.036 41.2454C241.827 39.8465 240.702 38.764 239.353 38.764Z" fill="#7D7D7D"/>
<path d="M239.353 38.764H202.034C200.685 38.764 199.562 39.7651 199.353 41.0567L218.83 56.6185C219.854 57.4401 221.532 57.4401 222.559 56.6185L242.036 41.0567C241.827 39.7651 240.702 38.764 239.353 38.764Z" fill="#7FD291"/>
<path opacity="0.2" d="M239.351 38.764H236.931V44.9758C236.931 46.1767 237.766 47.1778 238.885 47.448V49.1133C238.885 49.3816 239.231 49.4926 239.387 49.2743L240.649 47.5238H242.079V41.4878C242.077 39.9927 240.848 38.764 239.351 38.764Z" fill="#7D7D7D"/>
<path d="M245.003 35.6171H238.754C237.344 35.6171 236.205 36.7588 236.205 38.1651V44.4139C236.205 45.6148 237.037 46.6158 238.159 46.886V48.5532C238.159 48.8215 238.503 48.9325 238.66 48.7142L239.92 46.9637H245.005C246.413 46.9637 247.555 45.822 247.555 44.4139V38.1651C247.553 36.7588 246.411 35.6171 245.003 35.6171Z" fill="#E24242"/>
<path d="M241.722 38.3514H242.414V44.1487H241.65V39.4099L240.797 40.2L240.38 39.6227L241.722 38.3514Z" fill="white"/>
<path d="M145.534 23.1938C144.969 23.1938 144.52 23.6546 144.52 24.2134C144.52 24.7778 144.969 25.2237 145.534 25.2237H155.672C156.233 25.2237 156.686 24.7778 156.686 24.2134C156.686 23.6527 156.233 23.1938 155.672 23.1938H145.534Z" fill="#ECD8B9"/>
<path d="M160.016 23.1938C159.458 23.1938 159 23.6546 159 24.2134C159 24.7778 159.458 25.2237 160.016 25.2237H161.876C162.437 25.2237 162.89 24.7778 162.89 24.2134C162.89 23.6527 162.437 23.1938 161.876 23.1938H160.016Z" fill="#ECD8B9"/>
<path d="M1.01402 151.099C0.449647 151.099 0 151.558 0 152.118C0 152.683 0.451498 153.129 1.01402 153.129H11.1523C11.713 153.129 12.1645 152.683 12.1645 152.118C12.1645 151.558 11.7112 151.099 11.1523 151.099H1.01402Z" fill="#ECD8B9"/>
<path d="M15.4964 151.099C14.9395 151.099 14.4824 151.558 14.4824 152.118C14.4824 152.683 14.9395 153.129 15.4964 153.129H17.3561C17.9168 153.129 18.3683 152.683 18.3683 152.118C18.3683 151.558 17.9149 151.099 17.3561 151.099H15.4964Z" fill="#ECD8B9"/>
<path d="M53.8904 28.7358C53.326 28.7358 52.8745 29.1947 52.8745 29.7554C52.8745 30.3198 53.326 30.7657 53.8904 30.7657H64.0287C64.5894 30.7657 65.0409 30.3198 65.0409 29.7554C65.0409 29.1947 64.5875 28.7358 64.0287 28.7358H53.8904Z" fill="#ECD8B9"/>
<path d="M68.3728 28.7358C67.814 28.7358 67.3569 29.1947 67.3569 29.7554C67.3569 30.3198 67.814 30.7657 68.3728 30.7657H70.2306C70.7913 30.7657 71.2446 30.3198 71.2446 29.7554C71.2446 29.1947 70.7913 28.7358 70.2306 28.7358H68.3728Z" fill="#ECD8B9"/>
<path d="M232.645 136.491C232.08 136.491 231.629 136.95 231.629 137.512C231.629 138.077 232.08 138.523 232.645 138.523H242.783C243.344 138.523 243.795 138.077 243.795 137.512C243.795 136.95 243.344 136.491 242.783 136.491H232.645Z" fill="#ECD8B9"/>
<path d="M247.128 136.491C246.569 136.491 246.112 136.95 246.112 137.512C246.112 138.077 246.569 138.523 247.128 138.523H248.987C249.548 138.523 249.999 138.077 249.999 137.512C249.999 136.95 249.548 136.491 248.987 136.491H247.128Z" fill="#ECD8B9"/>
<path d="M181.701 40.9085H178.922V38.1236C178.922 37.5241 178.435 37.043 177.836 37.043C177.234 37.043 176.751 37.5259 176.751 38.1236V40.9085H173.97C173.371 40.9085 172.886 41.3914 172.886 41.9909C172.886 42.5905 173.371 43.0771 173.97 43.0771H176.751V45.8546C176.751 46.4541 177.234 46.9445 177.836 46.9445C178.435 46.9445 178.922 46.4522 178.922 45.8546V43.0771H181.701C182.301 43.0771 182.787 42.5905 182.787 41.9909C182.787 41.3914 182.301 40.9085 181.701 40.9085Z" fill="#ECD8B9"/>
<path d="M8.45361 120.306C8.45361 123.548 11.0904 126.181 14.3268 126.181C17.5668 126.181 20.1999 123.548 20.1999 120.306C20.1999 117.069 17.5687 114.427 14.3268 114.427C11.0904 114.427 8.45361 117.069 8.45361 120.306ZM10.7074 120.306C10.7074 118.309 12.3302 116.681 14.3286 116.681C16.3252 116.681 17.948 118.309 17.948 120.306C17.948 122.308 16.3252 123.925 14.3286 123.925C12.3302 123.925 10.7074 122.308 10.7074 120.306Z" fill="#ECD8B9"/>
<path d="M232.374 97.7221L232.459 106.067L234.682 106.049L234.602 97.6962C239.387 97.1003 243.083 92.9869 243.04 88.0482C242.992 82.7302 238.621 78.4446 233.305 78.4964C227.989 78.5501 223.703 82.9207 223.753 88.2351C223.803 93.1701 227.578 97.2151 232.374 97.7221ZM225.983 88.2129C225.944 84.1253 229.238 80.7669 233.324 80.7299C237.413 80.6836 240.771 83.981 240.81 88.0704C240.849 92.1542 237.555 95.5108 233.466 95.5534C229.382 95.5941 226.024 92.2967 225.983 88.2129Z" fill="#4B72DB"/>
<path d="M230.956 118.761C230.969 120.269 232.209 121.485 233.722 121.472C235.234 121.454 236.446 120.218 236.435 118.708L236.305 105.333C236.289 103.823 235.053 102.609 233.537 102.626C232.031 102.639 230.81 103.88 230.828 105.387L230.956 118.761Z" fill="#FF7E33"/>
<path opacity="0.2" d="M208.942 199.43C229.356 199.43 245.906 197.25 245.906 194.561C245.906 191.873 229.356 189.693 208.942 189.693C188.528 189.693 171.979 191.873 171.979 194.561C171.979 197.25 188.528 199.43 208.942 199.43Z" fill="#606060"/>
<path d="M27.0918 66.3981L25.0989 70.1359C24.0183 69.8713 22.9099 69.7677 21.8071 69.8251L20.5728 65.7561C20.5284 65.6043 20.4193 65.4877 20.2786 65.4119C20.1472 65.3416 19.9752 65.3305 19.8308 65.3693L15.0586 66.8311C14.7459 66.9199 14.5683 67.2549 14.6627 67.5731L15.9024 71.6218C14.9365 72.2102 14.0761 72.9152 13.3304 73.7128L9.61293 71.7328C9.32057 71.5774 8.95789 71.6921 8.80431 71.9808L6.4543 76.3903C6.30442 76.6715 6.41174 77.0324 6.7041 77.1878L10.4197 79.1677C10.1699 80.2373 10.07 81.3345 10.1181 82.4707L6.06017 83.7086C5.7493 83.7974 5.57537 84.1231 5.66789 84.4451L7.11304 89.2228C7.21296 89.5318 7.54048 89.7131 7.8495 89.6188L11.9074 88.3883C12.481 89.3246 13.1879 90.1813 14.0039 90.9437L12.0166 94.6722C11.8612 94.9627 11.9759 95.3217 12.2645 95.4753L16.674 97.8271C16.9664 97.9826 17.3217 97.8752 17.4771 97.5847L19.4644 93.8562C20.558 94.1115 21.6609 94.2189 22.7526 94.1707L24.0016 98.2287C24.0978 98.5395 24.4291 98.7116 24.7344 98.6191L29.5195 97.1592C29.8137 97.0722 30.0043 96.7132 29.9118 96.4227L28.6739 92.3629C29.6527 91.7541 30.5095 91.0528 31.2385 90.2664L34.9745 92.2574C35.2631 92.411 35.6203 92.2981 35.7701 92.0169L38.1202 87.6074C38.2737 87.3187 38.1701 86.9542 37.8833 86.8006L34.1473 84.8096C34.3897 83.7734 34.4971 82.665 34.4564 81.5122L38.5106 80.2872C38.8122 80.1873 38.9991 79.8376 38.9066 79.5434L37.4522 74.7545C37.3578 74.4474 37.0284 74.2716 36.7176 74.3641L32.6467 75.6039C32.0823 74.6583 31.381 73.7979 30.5539 73.0448L32.5468 69.307C32.7022 69.0165 32.593 68.6649 32.2988 68.5076L27.8893 66.1557C27.6062 66.0058 27.2454 66.1058 27.0918 66.3981ZM26.4923 84.2286C25.2543 86.5508 22.3566 87.4261 20.0436 86.1937C17.7325 84.9613 16.8554 82.0747 18.0933 79.7525C19.3275 77.4395 22.2086 76.5642 24.5197 77.7966C26.8327 79.0271 27.7265 81.9137 26.4923 84.2286Z" fill="#048D5C"/>
<path d="M41.0016 76.3534C40.5778 76.2794 40.2633 75.9 40.2836 75.4634L40.4224 72.7044C39.8247 72.4898 39.2585 72.2215 38.733 71.9013L36.6772 73.7573C36.3312 74.07 35.7908 74.0478 35.4633 73.6981L33.0208 70.9872C32.8617 70.8041 32.784 70.5783 32.7988 70.347C32.8154 70.1213 32.9153 69.9159 33.0874 69.766L35.134 67.9119C34.8582 67.3383 34.6418 66.748 34.4919 66.1485L31.7459 66.0115C31.5127 65.9967 31.2981 65.8968 31.1408 65.7247C30.9872 65.5545 30.9113 65.3361 30.9225 65.1104L31.1056 61.4688C31.1149 61.2394 31.2167 61.0266 31.3869 60.8711C31.559 60.7138 31.781 60.6343 32.0105 60.6454L34.7583 60.7823C34.9693 60.1976 35.2431 59.6295 35.5707 59.091L33.7147 57.0464C33.5556 56.8687 33.4779 56.643 33.4908 56.4098C33.5056 56.1804 33.6074 55.9713 33.7795 55.8195L36.4718 53.377C36.6494 53.2253 36.877 53.1457 37.0898 53.155C37.3193 53.1679 37.545 53.2678 37.6931 53.4381L39.5472 55.492C40.1078 55.2182 40.6981 55.0054 41.3087 54.8573L41.4475 52.0984C41.4586 51.8708 41.5567 51.6598 41.7251 51.5063C41.8972 51.3508 42.1211 51.2713 42.3542 51.2805L45.9976 51.4618C46.4621 51.4822 46.8396 51.88 46.8155 52.363L46.6767 55.1256C47.2689 55.3329 47.8351 55.603 48.368 55.9343L50.4256 54.0691C50.7846 53.7563 51.3249 53.7822 51.6395 54.1301L54.0894 56.841C54.3984 57.1777 54.3725 57.7347 54.0339 58.0548L51.9726 59.9145C52.2464 60.4918 52.4574 61.0821 52.6073 61.676L55.3699 61.813C55.6068 61.8222 55.8047 61.9258 55.9583 62.0924C56.1156 62.2663 56.1952 62.4884 56.1822 62.7215L56.0009 66.3649C55.9916 66.5925 55.8917 66.8035 55.7215 66.9571C55.5494 67.1107 55.331 67.1902 55.1016 67.1791L52.3427 67.0404C52.1373 67.614 51.8671 68.1802 51.534 68.7298L53.3955 70.7874C53.5417 70.9447 53.6213 71.1704 53.6102 71.4036C53.5991 71.6367 53.4973 71.8551 53.3326 72.0031L50.6255 74.453C50.2739 74.7658 49.7317 74.7399 49.4153 74.3938L47.5483 72.3417C46.9913 72.6082 46.401 72.8173 45.7885 72.9709L45.6479 75.7261C45.6387 75.9556 45.5387 76.1665 45.3685 76.3201C45.2001 76.4755 44.9762 76.5532 44.7449 76.544L41.1033 76.3608C41.07 76.3608 41.0349 76.3571 41.0016 76.3534ZM38.7589 70.941C38.8162 70.9502 38.8718 70.9724 38.9217 71.0058C39.5527 71.4202 40.2503 71.7515 40.9979 71.9939C41.1829 72.0531 41.305 72.2289 41.2939 72.4232L41.1403 75.5041L44.7912 75.6891L44.9503 72.6063C44.9596 72.4121 45.1002 72.2492 45.2889 72.2085C46.0569 72.0457 46.7822 71.7848 47.4502 71.435C47.6223 71.3444 47.8351 71.3814 47.9665 71.5276L50.0519 73.8183L52.759 71.3684L50.6791 69.0684C50.5496 68.9241 50.5311 68.7113 50.6384 68.5484C51.0751 67.8749 51.4082 67.1754 51.6321 66.4686C51.6913 66.2817 51.869 66.1596 52.0614 66.1688L55.1479 66.3224L55.331 62.6808L52.2464 62.5198C52.041 62.5087 51.8875 62.3699 51.8467 62.1793C51.6932 61.4484 51.4286 60.7194 51.064 60.0107C50.9771 59.8368 51.0141 59.6258 51.1602 59.4963L53.4566 57.4275L51.0067 54.7075L48.7011 56.7929C48.553 56.9242 48.3365 56.9409 48.1719 56.8317C47.539 56.4043 46.8451 56.0712 46.1087 55.8454C45.9218 55.7881 45.7959 55.6104 45.807 55.4143L45.9606 52.326L42.3135 52.1428H42.3061L42.1525 55.2293C42.1433 55.4254 42.0008 55.5901 41.8102 55.629C41.0552 55.7825 40.3317 56.0434 39.6545 56.4043C39.4824 56.4968 39.264 56.4598 39.1327 56.3136L37.0528 54.0099L34.3531 56.4635L36.4274 58.7598C36.5606 58.906 36.5773 59.1207 36.4681 59.2853C36.0406 59.9348 35.7039 60.6324 35.4689 61.3615C35.4097 61.5465 35.2339 61.6686 35.0396 61.6594L31.9698 61.5058L31.7792 65.1566L34.8564 65.3084C35.0636 65.3139 35.2154 65.4601 35.2542 65.6488C35.4097 66.3872 35.6761 67.1144 36.0406 67.8138C36.1313 67.9878 36.0943 68.1987 35.95 68.3301L33.6555 70.4099L36.0943 73.1189L38.3962 71.0465C38.4998 70.9558 38.6312 70.9188 38.7589 70.941ZM42.889 67.7639C40.9738 67.4345 39.5583 65.7099 39.6582 63.7152C39.7655 61.5687 41.5974 59.9108 43.7439 60.0181C44.7782 60.0717 45.7423 60.5214 46.4454 61.2949C47.1486 62.0683 47.5076 63.0657 47.4539 64.1038C47.3466 66.2576 45.5073 67.9211 43.3553 67.8138C43.1961 67.8064 43.0426 67.7916 42.889 67.7639ZM44.0695 60.9174C43.9492 60.897 43.8253 60.8822 43.7013 60.8767C42.0285 60.7934 40.6 62.085 40.5131 63.7577C40.4316 65.4398 41.7306 66.8757 43.396 66.9571C45.078 67.0403 46.5139 65.7414 46.5972 64.0631C46.636 63.2544 46.3585 62.4773 45.8089 61.874C45.3463 61.3633 44.7375 61.0321 44.0695 60.9174Z" fill="#9DE6AD"/>
<path d="M201.339 133.338C199.374 128.007 200.65 122.379 205.754 121.629C207.556 117.632 215.024 118.495 217.557 120.746C221.092 123.888 221.978 128.618 219.865 134.143C217.668 139.885 210.633 143.318 210.633 143.318H208.868C208.866 143.318 203.145 138.928 201.339 133.338Z" fill="#3D2217"/>
<path d="M206.61 191.409C206.61 191.409 196.531 184.959 195.218 182.415C193.904 179.869 218.403 183.114 218.403 183.114L206.61 191.409Z" fill="url(#paint0_linear_1337_3968)"/>
<path d="M182.495 191.634C182.495 191.634 175.526 188.313 172.728 181.414C169.929 174.516 179.824 170.321 189.115 176.217C198.412 182.114 200.808 190.211 210.904 190.907C210.904 190.907 199.812 196.205 199.211 196.205C198.613 196.205 193.114 195.004 193.114 195.004L184.038 192.393L182.495 191.634Z" fill="url(#paint1_linear_1337_3968)"/>
<path d="M205.118 143.239C203.275 142.795 201.069 142.982 199.502 143.159C198.608 143.261 196.282 144.107 195.531 147.643C194.558 152.247 194.13 165.856 194.13 165.856L225.298 174.516C225.298 174.516 225.447 145.484 224.299 144.333C223.148 143.183 218.976 143.413 216.559 143.374C214.735 143.343 207.857 143.983 207.857 143.983L205.118 143.239Z" fill="url(#paint2_linear_1337_3968)"/>
<path d="M207.705 198.406C207.705 198.406 222.098 198.104 234.394 188.612C246.686 179.115 242.487 170.42 236.69 170.918C230.893 171.42 228.397 174.719 220.499 180.313C212.605 185.91 209.604 190.908 197.81 193.108C197.81 196.405 197.114 197.003 197.114 197.003C197.114 197.003 201.46 198.406 207.705 198.406Z" fill="url(#paint3_linear_1337_3968)"/>
<path opacity="0.5" d="M213.027 168.67C222.527 170.467 224.901 164.501 223.86 159.751C222.818 155.001 224.148 148.222 224.148 148.222L224.853 148.075C225.394 156.173 225.297 174.519 225.297 174.519L214.156 171.635C210.614 169.605 208.172 167.753 213.027 168.67Z" fill="#E23E53"/>
<path d="M224.3 144.333C224.3 144.333 226.896 145.732 229.164 151.995C231.429 158.261 236.594 167.688 234.56 169.72C232.528 171.752 227.231 173.919 224.033 173.251C223.5 172.054 224.102 168.519 224.102 168.519C224.102 168.519 228.165 168.719 227.764 166.987C227.366 165.253 225.042 163.655 224.366 153.794C223.9 145.536 224.3 144.333 224.3 144.333Z" fill="url(#paint4_linear_1337_3968)"/>
<path d="M198.829 143.343C198.829 143.343 195.792 143.926 192.512 151.997C190.004 158.168 185.082 167.69 187.116 169.722C189.148 171.754 194.447 173.921 197.643 173.253C198.176 172.055 197.574 168.521 197.574 168.521C197.574 168.521 193.511 168.721 193.912 166.989C194.31 165.255 196.634 163.656 197.31 153.796C197.778 145.537 198.829 143.343 198.829 143.343Z" fill="url(#paint5_linear_1337_3968)"/>
<path d="M223.926 172.92C223.956 173.041 223.989 173.155 224.032 173.253C225.005 173.455 226.174 173.392 227.387 173.155C227.02 174.747 226.184 178.466 225.799 180.848C225.299 183.947 224.565 183.545 224.565 183.544C224.744 183.403 224.851 183.177 224.831 182.916L223.926 172.92Z" fill="url(#paint6_linear_1337_3968)"/>
<path opacity="0.5" d="M194.988 166.83L197.562 150.582L197.116 167.218L194.988 166.83Z" fill="#E23E53"/>
<path d="M223.926 172.92L223.934 173.007C223.939 173.007 223.948 173.009 223.956 173.009C223.947 172.976 223.934 172.948 223.926 172.92ZM224.82 182.953C224.829 183.196 224.733 183.408 224.561 183.542C224.561 183.544 225.296 183.945 225.795 180.846C226.18 178.464 227.016 174.745 227.383 173.154C227.266 173.179 227.152 173.191 227.037 173.207C226.643 174.932 225.886 178.335 225.525 180.574C225.31 181.926 225.046 182.611 224.82 182.953Z" fill="#C9C9C9"/>
<path d="M224.101 183.698C224.537 183.707 224.865 183.354 224.83 182.915L223.272 165.62C223.233 165.181 222.842 164.815 222.402 164.809L185.018 164.137C184.58 164.13 184.306 164.474 184.41 164.902L188.63 182.338C188.734 182.762 189.178 183.121 189.617 183.126L224.101 183.698Z" fill="url(#paint7_linear_1337_3968)"/>
<path d="M224.829 182.916L223.271 165.621C223.232 165.182 222.842 164.816 222.401 164.81L185.018 164.139C184.91 164.137 184.812 164.157 184.727 164.194C184.827 164.003 185.018 163.872 185.282 163.878L222.66 164.547C223.101 164.557 223.493 164.919 223.534 165.358L225.09 182.654C225.118 182.957 224.962 183.209 224.725 183.34C224.796 183.218 224.842 183.077 224.829 182.916Z" fill="#C9C9C9"/>
<path d="M188.194 190.166C185.489 189.87 183.078 191.356 182.841 193.493C182.604 195.627 184.734 197.616 187.345 197.899C190.389 198.236 193.827 197.653 193.827 197.653C196.612 197.229 198.871 197.133 199.075 195.275C199.275 193.458 197.859 192.995 194.38 191.728C194.38 191.728 190.9 190.464 188.194 190.166Z" fill="url(#paint8_linear_1337_3968)"/>
<path d="M188.122 190.165C188.439 194.467 187.795 196.804 187.315 197.896C184.719 197.596 182.606 195.62 182.841 193.494C183.074 191.377 185.446 189.902 188.122 190.165Z" fill="#FAFAFA"/>
<path d="M190.602 192.44C191.128 194.594 190.203 196.278 190.167 196.352C190.093 196.483 189.923 196.531 189.79 196.457C189.657 196.385 189.607 196.215 189.681 196.08C189.69 196.065 190.534 194.507 190.062 192.572C190.027 192.422 190.118 192.274 190.266 192.235C190.417 192.201 190.567 192.292 190.602 192.44Z" fill="#FAFAFA"/>
<path d="M192.958 193.02C193.487 194.835 192.627 196.245 192.591 196.303C192.51 196.432 192.34 196.473 192.21 196.392C192.081 196.312 192.038 196.14 192.12 196.01C192.129 195.997 192.884 194.743 192.425 193.177C192.382 193.029 192.466 192.876 192.614 192.831C192.76 192.789 192.913 192.874 192.958 193.02Z" fill="#FAFAFA"/>
<path d="M195.074 193.538C195.586 195.046 194.804 196.205 194.768 196.255C194.681 196.379 194.508 196.41 194.384 196.325C194.258 196.238 194.226 196.064 194.311 195.94C194.339 195.9 194.968 194.954 194.55 193.718C194.5 193.575 194.574 193.416 194.724 193.366C194.867 193.316 195.026 193.392 195.074 193.538Z" fill="#FAFAFA"/>
<path d="M205.117 143.241C205.696 143.151 206.166 143.042 206.331 142.875C206.91 142.298 206.782 141.025 206.782 141.025C207.642 142.144 208.679 142.931 209.917 143.023C211.142 143.112 212.318 142.516 213.362 141.528C213.377 142.529 214 143.116 214.87 143.519C209.68 149.057 205.7 144.05 205.117 143.241Z" fill="#FCCA9B"/>
<path opacity="0.3" d="M206.752 141.872C206.819 141.424 206.784 141.025 206.784 141.025C207.644 142.144 208.681 142.931 209.918 143.023C211.143 143.112 212.32 142.516 213.364 141.528C213.369 141.807 213.421 142.053 213.51 142.272C212.429 143.34 211.203 144.008 209.918 143.915C208.664 143.821 207.615 143.012 206.752 141.872Z" fill="#FCCA9B"/>
<path d="M203.326 131.817C203.326 131.817 204.018 143.134 210.089 143.134C215.557 143.134 217.313 136.43 217.535 132.474C217.753 128.52 210.466 130.7 207.026 127.332C206.24 129.132 205.285 130.879 203.326 131.817Z" fill="#FCCA9B"/>
<path d="M204.186 136.315C204.186 136.315 202.669 136.478 202.162 134.612C201.649 132.745 202.998 132.503 202.998 132.503L204.186 136.315Z" fill="#FCCA9B"/>
<path d="M216.958 136.305C216.958 136.305 218.479 136.336 218.828 134.432C219.176 132.528 217.873 132.798 217.873 132.798L216.958 136.305Z" fill="#FCCA9B"/>
<path d="M207.234 174.093C207.367 175.238 206.549 176.167 205.404 176.167C204.258 176.167 203.22 175.238 203.085 174.093C202.952 172.947 203.77 172.018 204.915 172.018C206.06 172.018 207.099 172.947 207.234 174.093Z" fill="white"/>
<path d="M132.103 0.15332L119.872 23.139L110.28 13.9665L132.103 0.15332Z" fill="#7FD291"/>
<path d="M132.104 0.15332L96.3638 11.2243L104.481 12.3844L132.104 0.15332Z" fill="#7FD291"/>
<path d="M132.104 0.15332L110.281 13.9665L106.343 19.1328L104.481 12.3844L132.104 0.15332Z" fill="#048D5C"/>
<path d="M106.343 19.1319L112.355 15.9659L110.28 13.9656L106.343 19.1319Z" fill="#048D5C"/>
<path d="M103.015 21.2271C102.864 21.2271 102.717 21.1531 102.629 21.0181C102.488 20.8053 102.549 20.5166 102.762 20.3778L103.149 20.1243C103.359 19.9855 103.65 20.0447 103.789 20.2575C103.929 20.4703 103.868 20.759 103.655 20.8978L103.267 21.1513C103.189 21.2031 103.102 21.2271 103.015 21.2271Z" fill="#048D5C"/>
<path d="M80.239 50.7104C80.0632 50.7104 79.893 50.6086 79.8171 50.4365C79.6839 50.1404 79.5618 49.8425 79.4489 49.5409C79.3601 49.3022 79.4822 49.0357 79.7209 48.9451C79.9596 48.8563 80.2261 48.9784 80.3167 49.2171C80.4222 49.5002 80.5388 49.7815 80.6628 50.059C80.7683 50.2922 80.6628 50.566 80.4296 50.6697C80.3667 50.6974 80.3019 50.7104 80.239 50.7104ZM79.1602 47.1187C78.9382 47.1187 78.7421 46.9578 78.7051 46.732C78.6514 46.4119 78.6107 46.0899 78.5792 45.768C78.5552 45.5126 78.7421 45.2868 78.9956 45.2628C79.2454 45.2498 79.4767 45.4238 79.5007 45.6791C79.5303 45.9807 79.5673 46.2805 79.6173 46.5803C79.658 46.8319 79.4896 47.0706 79.2361 47.1132C79.2121 47.1169 79.1862 47.1187 79.1602 47.1187ZM79.0437 43.368C79.0289 43.368 79.0141 43.368 78.9993 43.3661C78.7458 43.3421 78.5589 43.1163 78.5829 42.861C78.6144 42.539 78.6569 42.2189 78.7088 41.8988C78.7495 41.6453 78.9919 41.475 79.2398 41.5176C79.4915 41.5583 79.6636 41.797 79.621 42.0487C79.5729 42.3466 79.534 42.6482 79.5044 42.9498C79.4804 43.1903 79.2787 43.368 79.0437 43.368ZM79.8838 39.7153C79.8301 39.7153 79.7764 39.706 79.7246 39.6857C79.4841 39.5969 79.362 39.3323 79.4508 39.0917C79.5636 38.7883 79.6839 38.4885 79.8153 38.1943C79.9189 37.9593 80.1928 37.8557 80.4259 37.9593C80.6591 38.0629 80.7646 38.3368 80.6609 38.5699C80.537 38.8475 80.4222 39.1287 80.3167 39.4118C80.2483 39.5987 80.0706 39.7153 79.8838 39.7153ZM81.6287 36.3957C81.5362 36.3957 81.4418 36.3679 81.3604 36.3106C81.1531 36.1625 81.1032 35.8739 81.2512 35.6648C81.4381 35.4039 81.6324 35.1448 81.8359 34.8932C81.9951 34.6952 82.2874 34.6637 82.4873 34.8247C82.6871 34.9857 82.7167 35.2762 82.5557 35.476C82.3633 35.7129 82.1801 35.9553 82.0062 36.2033C81.9155 36.3272 81.773 36.3957 81.6287 36.3957ZM84.1711 33.6386C84.0397 33.6386 83.9065 33.5812 83.8158 33.4721C83.653 33.2759 83.6789 32.9836 83.8751 32.8207C84.1212 32.6153 84.3765 32.4155 84.6393 32.223C84.8428 32.0713 85.1333 32.1157 85.2851 32.323C85.4368 32.5284 85.3905 32.8189 85.1852 32.9688C84.939 33.1501 84.7003 33.337 84.4672 33.5294C84.3802 33.6034 84.2766 33.6386 84.1711 33.6386ZM87.2613 31.5014C87.1096 31.5014 86.9615 31.4274 86.8746 31.2923C86.7358 31.0776 86.795 30.7908 87.0096 30.6521L87.7979 30.1376C88.0125 29.9989 88.2994 30.0581 88.4381 30.2727C88.5769 30.4874 88.5177 30.7742 88.3031 30.913L87.5148 31.4274C87.4371 31.4773 87.3483 31.5014 87.2613 31.5014ZM90.4125 29.4456C90.2608 29.4456 90.1128 29.3716 90.0258 29.2365C89.887 29.0219 89.9462 28.735 90.1609 28.5963L90.9491 28.0819C91.1638 27.9431 91.4506 28.0023 91.5894 28.2169C91.7282 28.4316 91.6689 28.7184 91.4543 28.8572L90.666 29.3716C90.5865 29.4215 90.4995 29.4456 90.4125 29.4456ZM93.5637 27.3917C93.412 27.3917 93.264 27.3176 93.177 27.1826C93.0382 26.9679 93.0974 26.6811 93.3121 26.5423L94.1004 26.0279C94.315 25.8891 94.6018 25.9502 94.7406 26.163C94.8794 26.3776 94.8202 26.6645 94.6055 26.8032L93.8173 27.3176C93.7377 27.3676 93.6507 27.3917 93.5637 27.3917ZM96.7131 25.3377C96.5614 25.3377 96.4152 25.2637 96.3264 25.1286C96.1876 24.914 96.2468 24.6272 96.4615 24.4884L97.2479 23.974C97.4607 23.837 97.7475 23.8944 97.8881 24.1091C98.0269 24.3237 97.9677 24.6105 97.753 24.7493L96.9666 25.2637C96.8889 25.3137 96.8019 25.3377 96.7131 25.3377ZM99.8643 23.2819C99.7126 23.2819 99.5646 23.2079 99.4776 23.0728C99.3388 22.8582 99.398 22.5714 99.6127 22.4326L100.401 21.9182C100.616 21.7794 100.902 21.8405 101.041 22.0533C101.18 22.2679 101.121 22.5547 100.906 22.6935L100.118 23.2079C100.038 23.2579 99.9495 23.2819 99.8643 23.2819Z" fill="#048D5C"/>
<path d="M81.9172 53.5371C81.7784 53.5371 81.6396 53.4741 81.5489 53.3539C81.4527 53.2262 81.3565 53.0967 81.2658 52.9671C81.1178 52.758 81.1678 52.4694 81.3769 52.3232C81.5841 52.1752 81.8746 52.2251 82.0208 52.4342C82.1059 52.5545 82.1947 52.6748 82.2854 52.7932C82.439 52.9967 82.4001 53.2872 82.1966 53.4427C82.1133 53.5056 82.0152 53.5371 81.9172 53.5371Z" fill="#048D5C"/>
<path d="M102.983 40.3163C104.095 40.3163 104.997 39.4149 104.997 38.303C104.997 37.1911 104.095 36.2898 102.983 36.2898C101.872 36.2898 100.97 37.1911 100.97 38.303C100.97 39.4149 101.872 40.3163 102.983 40.3163Z" fill="#ECD8B9"/>
<defs>
<linearGradient id="paint0_linear_1337_3968" x1="206.785" y1="182.108" x2="206.785" y2="188.016" gradientUnits="userSpaceOnUse">
<stop stop-color="#205A78"/>
<stop offset="1" stop-color="#20304D"/>
</linearGradient>
<linearGradient id="paint1_linear_1337_3968" x1="185.538" y1="179.881" x2="206.738" y2="203.629" gradientUnits="userSpaceOnUse">
<stop stop-color="#205A78"/>
<stop offset="1" stop-color="#20304D"/>
</linearGradient>
<linearGradient id="paint2_linear_1337_3968" x1="209.718" y1="142.282" x2="209.718" y2="171.238" gradientUnits="userSpaceOnUse">
<stop stop-color="#FC4945"/>
<stop offset="0.9528" stop-color="#DB2C30"/>
<stop offset="1" stop-color="#D92B2F"/>
</linearGradient>
<linearGradient id="paint3_linear_1337_3968" x1="218.901" y1="184.269" x2="223.883" y2="194.811" gradientUnits="userSpaceOnUse">
<stop stop-color="#205A78"/>
<stop offset="1" stop-color="#20304D"/>
</linearGradient>
<linearGradient id="paint4_linear_1337_3968" x1="229.417" y1="142.282" x2="229.417" y2="171.236" gradientUnits="userSpaceOnUse">
<stop stop-color="#FC4945"/>
<stop offset="1" stop-color="#D92B2F"/>
</linearGradient>
<linearGradient id="paint5_linear_1337_3968" x1="192.733" y1="142.284" x2="192.733" y2="171.238" gradientUnits="userSpaceOnUse">
<stop stop-color="#FC4945"/>
<stop offset="1" stop-color="#D92B2F"/>
</linearGradient>
<linearGradient id="paint6_linear_1337_3968" x1="221.97" y1="179.295" x2="226.488" y2="177.267" gradientUnits="userSpaceOnUse">
<stop stop-color="#3D3D3D"/>
<stop offset="1" stop-color="#B3B3B3"/>
</linearGradient>
<linearGradient id="paint7_linear_1337_3968" x1="206.004" y1="188.029" x2="204.151" y2="168.566" gradientUnits="userSpaceOnUse">
<stop stop-color="#A3968C"/>
<stop offset="1" stop-color="#B3B3B3"/>
</linearGradient>
<linearGradient id="paint8_linear_1337_3968" x1="191.58" y1="192.609" x2="190.192" y2="196.495" gradientUnits="userSpaceOnUse">
<stop stop-color="#F06465"/>
<stop offset="1" stop-color="#F0423B"/>
</linearGradient>
</defs>
</svg>
