<svg width="100" height="100" viewBox="0 0 100 100" fill="none" xmlns="http://www.w3.org/2000/svg">
<rect width="100" height="100" rx="50" fill="white"/>
<path d="M14.9808 65.9652C16.4357 66.5206 17.6877 67.0497 18.8956 67.7638C23.119 70.2767 24.1417 72.5074 25.0234 73.1158C25.4731 72.9835 26.152 72.6044 26.6458 72.3928C31.0102 70.5676 35.7626 70.5147 40.4268 70.744C40.4709 70.744 40.656 70.7528 40.7001 70.7616C40.8412 70.7881 40.6648 70.7352 40.8059 70.7792C40.947 70.8233 40.8588 70.7881 40.947 70.8498C40.656 70.938 40.2681 71.0085 39.9418 71.0967C37.5524 71.7668 39.3511 71.7491 36.7412 71.6874C35.0572 71.6521 33.4084 71.7227 31.7773 71.899C30.3048 72.0577 28.8147 72.331 27.3952 72.6485C26.6898 72.8072 26.0198 72.9747 25.3497 73.1687C24.8383 73.3186 24.3798 72.7807 23.7185 72.2781C21.091 70.2767 20.4562 69.6948 17.2645 68.3898C16.1182 67.9137 14.6634 67.4023 13.4202 67.0408C12.5826 66.794 12.997 66.7763 12.0271 65.8594C11.8067 65.6477 10.7134 64.8278 10.59 64.6338C11.3659 64.722 14.1873 65.6654 14.9808 65.9652V65.9652ZM32.8618 69.0247C31.5216 69.1481 30.0668 69.4038 28.7707 69.6419C28.0918 69.7653 27.4922 69.8711 26.8221 70.0122C26.2137 70.1356 25.4378 70.3737 24.8383 70.4178L24.9088 70.356C25.1821 70.1797 26.6193 69.73 26.9367 69.6242C31.0278 68.2311 34.9867 67.5522 39.3775 67.3318C40.3386 67.2877 50.3018 66.891 51.0513 67.3054C49.8962 67.6228 49.1203 67.7197 47.6567 68.1518C46.8367 68.3987 46.8632 68.5045 45.858 68.4516C45.1527 68.4163 44.4032 68.4075 43.6979 68.4075C39.1747 68.4075 37.3584 68.5926 32.8618 69.0247Z" fill="#02563C"/>
<path d="M32.8619 69.0246C31.5217 69.1481 30.0669 69.4037 28.7708 69.6418C28.0919 69.7652 27.4923 69.871 26.8222 70.0121C26.2138 70.1356 25.4379 70.3736 24.8384 70.4177L24.9089 70.356C25.1822 70.1796 26.6194 69.73 26.9368 69.6242C31.0279 68.2311 34.9868 67.5522 39.3776 67.3317C40.3387 67.2877 50.3019 66.8909 51.0514 67.3053C49.8964 67.6227 49.1205 67.7197 47.6568 68.1517C46.8368 68.3986 46.8633 68.5044 45.8582 68.4515C45.1528 68.4162 44.4033 68.4074 43.698 68.4074C39.1749 68.4074 37.3585 68.5926 32.8619 69.0246Z" stroke="#02563C" stroke-width="0.4"/>
<path d="M10.4489 62.5786C9.89345 62.3229 9.30271 62.0583 8.73842 61.8379C7.92725 61.5293 7.98015 61.4323 7.41586 60.9121C6.39309 59.9775 5.81117 59.6072 5 58.9019C5.71418 58.7872 13.4291 62.7461 14.1785 63.1428C17.5643 64.9151 20.4739 66.9871 23.2601 69.7556C23.4893 69.976 24.4768 70.9106 24.6355 71.1751L24.6708 71.2545C24.2211 70.99 23.6833 70.4962 23.2424 70.1612C22.7575 69.7909 22.3166 69.4735 21.8141 69.112C20.8706 68.4242 19.8038 67.666 18.7898 67.0664C15.3776 65.0385 14.0022 64.2097 10.4489 62.5786V62.5786ZM29.3879 70.3199C34.5106 68.5741 40.559 68.8034 45.911 69.2707C45.7258 69.447 44.0947 69.7909 43.5656 69.9672C41.864 70.5051 43.0102 70.4522 41.0616 70.364C39.0778 70.2758 37.2438 70.2053 35.2336 70.2934C32.4915 70.3992 29.9698 70.8048 27.3688 71.4308C26.9808 71.5278 25.2351 72.0833 25.1204 72.0304C25.8963 71.3956 28.2505 70.7078 29.3879 70.3199V70.3199Z" fill="#E86110"/>
<path d="M10.0169 46.4534C10.0787 45.8097 10.2462 45.0603 10.3961 44.4695C10.4754 44.1609 10.5901 43.8435 10.6694 43.5614C10.9075 42.6885 11.2513 41.8597 11.6569 41.0485C12.1859 40.0081 12.7061 39.0471 13.4115 38.1213C14.3637 36.8693 15.316 35.7583 16.5592 34.7708C20.2711 31.8347 23.8949 30.3623 29.0793 30.3623C29.4056 30.3623 30.2785 30.3623 30.543 30.5386C28.0213 30.7414 25.8699 31.3234 24.0536 32.2315C22.7487 32.884 21.4438 33.6422 20.3681 34.6386C20.2535 34.7532 20.2094 34.762 20.086 34.8678C18.6224 36.1639 17.4673 37.7686 16.5063 39.4703C15.8097 40.7223 15.3072 42.1066 14.9721 43.5173C14.3814 45.9155 14.3902 48.9927 14.9897 51.3909C15.1396 51.9905 15.2983 52.4754 15.4659 53.0044C15.651 53.5599 15.845 53.9655 16.0654 54.4945L16.6033 55.5349C16.665 55.6495 16.7091 55.7553 16.7796 55.8699C17.4585 57.0602 18.5077 58.4269 19.4688 59.3879L20.5709 60.3666C21.2498 61.0014 22.2373 61.6451 23.0397 62.0771C23.4717 62.3152 23.8949 62.5621 24.3887 62.7649C24.6179 62.8618 24.8824 62.9853 25.1381 63.0823C25.3938 63.1881 25.5966 63.2586 25.8788 63.3556C29.097 64.4225 32.5797 64.59 35.8596 63.673C36.7854 63.4085 37.6671 63.1175 38.4959 62.7031C40.0565 61.9096 41.5995 61.0544 42.8251 59.8023C43.1866 59.4408 43.6274 59.0705 43.9977 58.6032C44.1741 58.374 44.3857 58.1888 44.5356 57.9596H41.0969V55.6495H47.022C48.1858 55.6495 48.9529 54.7943 48.4503 53.7098C48.2387 53.2601 47.7185 53.0485 47.1895 53.0485H41.1498V50.6767H46.3431C48.1241 50.6767 49.72 50.9765 50.4782 52.4666C50.7604 53.0132 50.8574 53.8156 50.8574 54.5209C50.8574 56.011 50.0374 57.3424 48.6002 57.6774C48.7148 57.8979 48.8647 58.1359 48.9882 58.3563C49.8258 59.8112 50.6105 61.3189 51.4922 62.7472C51.5716 62.8795 51.6068 62.9236 51.6421 63.0911H48.8207C48.5561 62.6943 48.3357 62.2535 48.0712 61.8126C47.357 60.6223 46.5811 59.0793 45.8317 57.9596H45.2674C45.1704 58.3828 44.3681 59.7494 44.1124 60.1286C43.5304 60.9574 42.5517 62.0507 41.7141 62.6943L40.8236 63.4438C38.9985 65.0749 36.9353 66.2123 34.5283 67.0235C33.6906 67.3056 32.8618 67.5084 31.9184 67.6847C30.5606 67.9404 28.5062 68.0991 27.1308 67.914C24.0184 67.4908 23.6128 67.4291 20.8442 66.3005C19.8479 65.8949 18.8075 65.2336 17.9258 64.6517C17.4673 64.3519 17.0706 64.0169 16.6385 63.6818L15.4394 62.6238C15.2102 62.4386 15.0955 62.227 14.8663 62.0066C14.4784 61.6186 14.1786 61.2131 13.8259 60.7898C12.2741 58.9118 11.0309 56.399 10.4402 54.0184C9.92878 51.9552 9.83179 50.7825 9.83179 48.6488C9.83179 47.9082 9.93759 47.1852 10.0169 46.4534V46.4534Z" fill="#005439"/>
<path fill-rule="evenodd" clip-rule="evenodd" d="M39.5187 45.8799V50.6763H40.8148V58.691C40.8148 59.4934 40.8677 60.0929 40.8677 60.8953C40.6737 60.9482 40.4268 61.1333 40.2593 61.2391C40.0477 61.3802 39.8802 61.4596 39.6509 61.5918C36.6179 63.3905 32.5179 64.1047 28.9294 63.5756C27.8097 63.4081 26.8486 63.1701 25.8964 62.835C24.2829 62.2707 23.507 61.8299 22.1315 61.0099C21.7524 60.7807 21.3997 60.5161 21.0382 60.2428C20.6502 59.9342 20.3769 59.7314 20.033 59.3876C19.7862 59.1319 19.6627 59.0878 19.5922 58.8585C19.5305 58.6293 19.6451 56.6984 19.5834 56.1605C19.504 55.3935 19.5393 55.9313 19.5922 55.3053V54.5206H34.1579V54.1767H19.5922C19.5922 52.2987 19.4776 52.5015 19.989 52.4838C24.6443 51.558 29.3703 51.6021 34.1579 52.4838V50.6763H35.454V45.8799H39.5187ZM31.0543 55.4199C30.8868 55.2788 30.8339 55.2524 30.7105 55.2524C30.2784 55.2524 29.8111 55.6227 29.8111 56.0371C29.8111 56.6014 29.8376 56.3104 29.9257 56.7072C29.961 56.8571 29.9786 56.9717 29.9786 57.1657C29.9786 58.3031 29.8728 57.9063 29.9786 59.1407H30.2079C30.2167 58.9643 30.2608 58.9467 30.2608 58.7527V57.3949C30.2608 56.6719 30.0933 56.6896 30.0933 56.1517C30.0933 55.7109 30.4988 55.4199 31.0543 55.4199V55.4199ZM28.6208 55.4199C28.3651 55.0672 27.8097 55.3582 27.6245 55.5522C27.1484 56.0371 27.554 56.5661 27.554 56.8835V59.1407H27.8361V56.9452C27.8361 56.6014 27.6686 56.4956 27.6686 56.1517C27.6686 55.9225 27.9595 55.4199 28.6208 55.4199V55.4199ZM26.2579 55.4199C26.1873 55.3582 26.1873 55.3494 26.0815 55.3053C25.8699 55.2171 25.5966 55.2788 25.4291 55.3846C24.6708 55.8519 25.1822 56.6014 25.1822 56.9452V59.1407H25.4643V57.1657C25.4643 56.6984 25.2968 56.7072 25.2968 56.1517C25.2968 55.6315 25.7906 55.4199 26.2579 55.4199V55.4199ZM23.0044 55.8343C23.216 55.4993 23.4364 55.4199 23.8244 55.4199C23.5687 55.0672 23.0132 55.3582 22.828 55.5522C22.3784 56.0106 22.7046 56.4162 22.7663 56.8218L22.7575 59.1407H23.0397V56.9452C23.0397 56.6014 22.8721 56.4956 22.8721 56.1517C22.8721 56.0724 22.9515 55.9137 23.0044 55.8343V55.8343ZM21.4614 55.4199C20.9412 54.9702 20.2182 55.5874 20.2182 56.0371C20.2182 56.6014 20.518 56.8042 20.3328 58.3648C20.2976 58.7263 20.3857 58.8321 20.3857 59.1407H20.615C20.7296 58.6469 20.6679 58.0297 20.6679 57.5095C20.6679 56.7336 20.5003 56.6455 20.5003 56.1517C20.5003 55.7109 20.9059 55.4199 21.4614 55.4199V55.4199ZM35.6744 52.4309H39.6245V52.0342H35.3394V59.1407H35.6744V52.4309ZM37.2086 53.8505C37.5525 53.5771 37.6847 53.5595 38.2755 53.5595C38.0374 53.2156 37.3144 53.3126 37.0146 53.489C35.7538 54.2031 36.5826 55.2965 36.5826 55.6491V59.1495H36.9794C36.9794 58.8938 37.0323 58.9203 37.0323 58.6381C37.0323 57.6242 37.0587 56.7072 36.9705 55.7109C36.9441 55.4023 36.7501 55.1995 36.7501 54.8027C36.7501 54.3619 36.9529 54.0444 37.2086 53.8505V53.8505ZM36.468 46.9644H38.778V46.7351C37.914 46.7351 37.0499 46.7351 36.1858 46.7351V50.6852H36.468V46.9644ZM37.1557 49.0099C37.3144 48.0401 38.0727 48.3046 38.2755 48.3222C37.8875 47.7403 37.1116 47.9872 36.9176 48.4809C36.6972 49.0364 36.8647 50.2884 36.8647 50.6852H37.1469V50.4647C37.1469 49.8387 37.0587 49.6359 37.1557 49.0099ZM33.4173 55.4287C33.1528 55.0672 32.5708 55.3846 32.421 55.5522C31.936 56.0988 32.3504 56.5573 32.3504 56.7777V59.1495H32.6326V56.9541C32.6326 56.6102 32.465 56.5044 32.465 56.1605C32.465 55.8255 32.8177 55.4287 33.4173 55.4287ZM70.7574 57.1039C71.1012 56.2928 71.6567 55.6051 72.4855 55.2171C73.2614 54.8556 73.7816 54.8644 74.6104 54.8644C75.5097 54.8644 75.9153 55.2436 76.365 55.5433V54.8644H78.728C78.728 56.0459 78.7985 61.8299 78.6662 63.0907C78.5957 63.7784 78.2607 64.5543 77.9256 65.004C76.9734 66.2825 75.8889 66.5999 74.2136 66.5999C72.6707 66.5999 71.6479 66.018 70.7926 65.004C70.6163 64.8012 70.2724 64.2281 70.2107 63.946C70.6251 63.946 71.0395 63.946 71.4539 63.946C72.0535 63.9371 71.9829 64.0606 72.3797 64.2546C72.8646 64.5014 73.8081 64.7748 74.3106 64.7219C76.0476 64.5455 76.365 63.8754 76.365 61.918C76.0917 62.0944 75.8624 62.2443 75.5274 62.3853C74.2136 62.9496 72.0623 62.6322 71.066 61.1157C70.4488 60.1723 70.44 59.6344 70.44 58.5852C70.44 58.0562 70.5898 57.4919 70.7574 57.1039V57.1039ZM73.5435 60.4985C74.3018 60.7806 75.2629 60.7542 75.8448 60.2075C76.4091 59.6785 76.365 59.3347 76.365 58.5852C76.365 57.4743 75.4921 56.7777 74.5575 56.7777C72.2386 56.7777 71.6832 59.7931 73.5435 60.4985V60.4985Z" fill="#E86110"/>
<path fill-rule="evenodd" clip-rule="evenodd" d="M54.1284 54.8028C55.7684 54.8028 57.5494 54.6265 58.6604 55.4553C59.3569 55.9843 59.7713 56.8219 59.7713 58.0122V63.0908C57.038 63.0908 57.3995 63.276 57.3995 62.4736C56.8881 62.747 56.3944 63.0908 55.592 63.0908C51.0513 63.0908 51.8095 58.312 54.3048 57.6331C56.0682 57.157 56.5531 57.7036 57.3995 57.9064C57.3995 57.298 57.0909 56.8748 56.6765 56.6897C56.174 56.4604 53.4671 56.3194 52.7177 56.3194V54.9086C53.0792 54.8293 53.6787 54.8028 54.1284 54.8028ZM56.9322 61.0453C57.523 60.7455 57.3995 60.6221 57.3995 59.7668C57.3995 59.0085 55.6185 58.8939 54.8514 59.3524C54.4723 59.5816 54.3577 59.8638 54.3577 60.2694C54.3577 61.2304 56.1475 61.442 56.9322 61.0453V61.0453ZM80.1386 57.395C80.65 56.0108 82.1136 54.8557 83.5861 54.8557C84.9086 54.8557 85.8697 54.9174 86.8748 55.9138C87.1305 56.1695 87.4215 56.5839 87.6066 56.9277C88.0651 57.7389 87.9858 58.4619 87.9858 59.37H82.3429C82.3429 60.5074 82.9248 61.1775 84.0887 61.1775C85.2437 61.1775 85.5435 60.5692 85.7374 60.5074C85.949 60.4545 87.6243 60.4986 87.9858 60.4986C87.9152 60.7984 87.589 61.3274 87.4039 61.5567C86.5398 62.6147 85.5699 63.0908 83.974 63.0908C80.7029 63.0908 79.204 59.952 80.1386 57.395ZM82.3958 57.6772H85.6669C85.4377 57.2363 84.8734 56.7778 84.2033 56.7778H83.8682C83.2775 56.7778 82.5192 57.2363 82.3958 57.6772Z" fill="#E86110"/>
<path d="M46.625 40.8009C47.2246 40.8009 47.0394 40.7304 47.3128 41.0742C47.4009 41.18 47.4538 41.2506 47.542 41.3564L50.6015 45.0683C50.6985 45.2006 50.7338 45.2359 50.8572 45.3152C51.0953 45.1565 52.9821 42.8376 53.2907 42.4497L54.4634 41.0301C54.675 40.748 54.6133 40.8009 55.2569 40.8009V49.5474H53.5111L53.4494 44.9802C53.1849 45.1653 53.035 45.4298 52.7881 45.6679L51.1834 47.4577C51.0512 47.6253 51.0512 47.6693 50.8572 47.8016C50.628 47.6429 48.4678 45.0771 48.2562 44.9273V49.5474H46.4575V40.9772C46.4575 40.845 46.4928 40.8009 46.625 40.8009V40.8009Z" fill="#005439"/>
<path d="M64.1181 54.8033V55.5351C64.3738 55.394 64.5677 55.2088 64.8587 55.0854C65.5464 54.7944 65.758 54.8562 66.4899 54.8562C67.8565 54.8562 69.135 56.3903 69.135 57.6247V63.0913H66.8249V58.4711C66.8249 56.646 65.1673 56.4873 64.5325 57.2456C64.4002 57.4043 64.1181 57.7746 64.1181 58.0127V63.0913H61.7992V54.8562C62.0813 54.7504 63.7125 54.8033 64.1181 54.8033V54.8033Z" fill="#E86110"/>
<path fill-rule="evenodd" clip-rule="evenodd" d="M73.0321 44.1869V43.7372H74.6721L74.725 52.3162H73.0321V49.1597C71.4891 50.1913 69.9285 49.3096 69.2496 47.8019C69.135 47.5462 69.0292 47.0524 69.0292 46.6733C69.0292 44.7688 71.013 42.8379 73.0321 44.1869ZM70.8984 47.7931C71.8154 48.71 73.0321 47.9253 73.0321 47.0701V46.2236C73.0321 45.386 72.0975 45.0422 71.6037 45.1303C70.6603 45.3067 70.4928 46.012 70.4928 46.8408C70.4928 47.22 70.7044 47.5903 70.8984 47.7931V47.7931Z" fill="#005439"/>
<path d="M92.0504 54.8033V55.7026C92.4295 55.4469 92.9409 54.8562 93.849 54.8562C94.572 54.8562 94.9776 54.7504 94.9776 55.0237C94.9776 58.2595 95.3038 56.8312 93.4611 56.8312C92.7557 56.8312 92.0504 57.7746 92.0504 58.1273V63.0913H89.7315C89.7315 61.6717 89.6786 60.4197 89.6786 58.9737C89.6786 57.6041 89.6786 56.2316 89.6786 54.8562C89.9607 54.7504 91.636 54.8033 92.0504 54.8033V54.8033Z" fill="#E86110"/>
<path fill-rule="evenodd" clip-rule="evenodd" d="M87.4656 44.7061C88.1797 45.482 88.2062 46.0728 88.2062 47.0691H84.2033C84.2033 47.8009 84.5736 48.3652 85.2789 48.3652C86.4604 48.3652 86.24 47.9861 86.6368 47.9155C86.9101 47.8714 87.8623 47.9155 88.2062 47.9155C87.8447 48.6033 87.4744 49.2381 86.6279 49.5467C85.5611 49.9258 83.9476 49.7495 83.2069 48.859C82.6515 48.1977 82.4575 47.6422 82.4575 46.6723C82.4575 43.895 85.9755 43.0838 87.4656 44.7061V44.7061ZM84.2562 45.8788H86.5133C86.4604 45.6584 86.2929 45.5702 86.0989 45.4556C85.7727 45.2528 85.6404 45.2616 85.2789 45.2616C84.9263 45.2616 84.3443 45.5614 84.2562 45.8788ZM66.7808 43.9479C66.9219 44.0096 67.2481 44.2477 67.3451 44.3446C67.6978 44.6973 67.883 45.1734 68.0681 45.5438H66.8249C66.6838 45.0236 65.1849 44.8472 65.0174 45.5438C65.7316 46.3637 67.9006 45.5261 67.9006 47.9155C67.9006 49.6966 65.0615 50.3843 63.7301 48.7443C63.5273 48.4886 63.1747 48.0566 63.1041 47.748C65.2996 47.748 64.0035 47.7392 64.9998 48.1536C65.811 48.4975 66.5339 48.1624 66.4899 47.8009C66.4281 47.3512 65.3172 47.4218 64.6471 47.1573C63.7742 46.8046 63.6067 46.3549 63.6067 45.4909C63.6067 43.9302 65.5993 43.3748 66.7808 43.9479V43.9479ZM80.4825 46.2227C80.4825 45.7554 80.3502 44.8825 80.5795 44.5739C80.7558 44.327 81.3289 44.0449 81.664 43.9655C81.664 45.1911 81.611 46.2932 81.611 47.4659C81.611 48.2594 81.611 48.4446 81.1966 48.859C80.121 49.9523 78.1724 49.7583 77.2378 49.1235C76.841 48.8501 76.6823 48.4975 76.5942 47.9596C76.409 46.928 76.4619 46.6106 76.5324 45.773L77.1408 46.2315C78.6133 47.413 77.3701 48.4798 79.2922 48.4798C80.5354 48.4798 80.4825 47.1661 80.4825 46.2227V46.2227Z" fill="#005439"/>
<path d="M58.149 43.473C58.7309 42.8823 58.872 42.2915 58.872 41.3658C59.6479 41.8948 59.4892 42.9705 59.4363 43.6229C59.5774 43.5259 59.692 43.2879 59.7185 43.0586C59.7537 43.1204 59.7978 43.0763 59.789 43.3143C59.7802 43.7993 59.6303 43.9403 59.6038 44.2489C59.7273 44.2842 59.7714 44.2577 59.7714 44.4165C59.7714 45.2982 57.3996 46.171 57.6553 47.9962C57.6905 48.199 57.7346 48.534 57.7434 48.7015C57.5406 48.6486 57.62 48.6486 57.4613 48.5252L57.0116 48.0755C56.6766 47.6435 56.3856 47.2291 56.3856 46.5061C56.3856 45.3687 57.4437 44.1872 58.149 43.473V43.473ZM74.7779 41.1982H74.8925C74.9102 41.9301 75.8448 42.6442 76.462 42.8999C77.5377 43.3496 79.1864 44.1784 79.1864 45.5979C79.1864 46.2416 78.9925 47.1321 78.6221 47.4054C78.5604 46.753 78.2342 46.1358 77.7845 45.6949C77.282 45.21 75.1747 44.7074 75.1747 44.2489C75.1747 43.9139 75.3951 44.2313 74.9631 43.667C74.8308 43.4907 74.6898 43.3143 74.6721 43.0586C74.7867 43.1468 74.7956 43.1733 74.9102 43.2702C74.9983 43.3496 75.0865 43.3937 75.1747 43.4554C75.1306 43.2879 75.0865 43.2702 74.9983 43.1292C74.7515 42.7412 74.6721 42.3004 74.6721 41.8242C74.6721 41.5509 74.7338 41.4099 74.7779 41.1982Z" fill="#E86110"/>
<path d="M60.0359 44.6798C60.0711 44.4682 60.0535 44.239 60.0535 44.0186C60.7501 44.1861 61.1733 44.4418 61.5877 44.9091C62.7956 46.2669 62.3371 48.1802 61.1909 48.9385C60.7412 49.2382 60.124 49.4587 59.5509 49.4322C59.1983 49.4146 58.9337 49.3881 58.7574 49.1589C58.4841 48.8062 58.3077 48.1449 58.3077 47.5189C58.4488 47.6247 58.4047 47.6423 58.5458 47.7922C59.0748 48.3301 60.1593 48.3477 60.7148 47.7922C61.2262 47.2809 61.3143 46.1787 60.7148 45.6144C60.5208 45.4293 60.1858 45.2089 59.8243 45.2089C59.886 44.9884 59.9742 44.9972 60.0359 44.6798Z" fill="#005439"/>
<path d="M23.6832 48.3916C23.7714 47.6597 24.1593 46.6193 24.609 46.249C25.4025 46.4871 25.9051 46.8486 26.4694 47.4041C26.5752 47.501 26.6369 47.5099 26.6457 47.6862C26.6634 48.0477 26.6634 50.9485 26.6281 51.1425C26.0815 51.1777 25.6142 51.1866 25.1028 51.2571C24.8735 51.2835 23.7978 51.4687 23.6832 51.4423V48.3916Z" fill="#E86110"/>
<path d="M23.3218 44.5049C23.4541 44.3638 23.8068 43.9494 23.9214 43.8789C24.3005 43.9318 25.2263 44.3374 25.5349 44.5049C26.1256 44.8311 26.4078 45.0428 26.8398 45.4572L27.4658 44.9722C27.6686 44.8223 27.8979 44.6813 28.1447 44.5402C28.4357 44.3727 29.3968 43.9406 29.82 43.9494L30.9045 45.0339C30.9103 45.0398 30.9162 45.0457 30.9221 45.0516L30.9838 45.1397C30.9133 45.1926 30.0051 45.4395 29.8023 45.5101C29.3968 45.6599 29.0793 45.7922 28.709 45.9862C28.3387 46.1713 28.0654 46.3477 27.748 46.5681C27.457 46.7621 26.9456 47.1853 26.8575 47.2735C26.6547 46.9296 25.4467 46.1625 25.0588 45.9685C24.7149 45.7834 24.3622 45.6335 23.9831 45.5012C23.7891 45.4395 23.5863 45.369 23.3924 45.3161C23.2689 45.2808 23.1984 45.2632 23.075 45.2367C22.9691 45.2103 22.8545 45.1926 22.7664 45.1397C22.8281 45.0075 23.2248 44.6107 23.3218 44.5049V44.5049ZM23.2689 51.585C22.9515 51.6732 22.6429 51.7172 22.3255 51.823C22.1492 51.8848 21.5849 52.1493 21.4526 52.1316C21.3997 50.8884 21.2763 48.6489 21.5408 47.5027C21.6907 46.8679 22.1051 45.9685 22.4489 45.6599C22.784 45.6511 23.9831 45.9333 24.1506 46.0832C24.0625 46.2419 23.9214 46.4094 23.8156 46.6034C23.4805 47.2206 23.2689 47.9083 23.2689 48.6401V51.585Z" fill="#02563C"/>
<path d="M30.1021 51.3895C29.9786 51.4159 28.9029 51.2396 28.6825 51.2043C28.1623 51.1338 27.695 51.1338 27.1484 51.0897C27.1131 50.8957 27.1131 47.9949 27.1307 47.6423C27.1395 47.4571 27.2101 47.4483 27.3071 47.3513C27.8714 46.8046 28.3827 46.4343 29.1675 46.2051C29.6171 46.5754 30.0051 47.6158 30.0932 48.3388L30.1021 51.3895Z" fill="#E86110"/>
<path d="M30.5077 48.5954C30.5077 47.8548 30.3049 47.1671 29.961 46.5499C29.8552 46.3647 29.7141 46.1972 29.626 46.0385C29.7935 45.8886 30.9926 45.6064 31.3277 45.6064C31.6715 45.9239 32.0859 46.8144 32.2358 47.458C32.5091 48.6042 32.3769 50.8438 32.324 52.087C32.1917 52.0958 31.6274 51.8313 31.4511 51.7695C31.1337 51.6637 30.8251 51.6197 30.5077 51.5315V48.5954Z" fill="#02563C"/>
<path d="M26.3372 40.8539C25.8787 40.2808 26.6193 39.5578 27.1219 39.8487C26.9279 39.9193 26.8133 39.9016 26.6899 40.0692C26.3637 40.51 26.9544 41.0479 27.36 40.7128C27.4482 40.6335 27.4482 40.607 27.5275 40.5453C27.5099 40.8715 27.2454 41.0567 26.9456 41.1272C26.9456 41.4005 27.0426 41.5592 27.2365 41.6033L27.0602 41.8237L27.1219 42.2822C27.554 42.3792 29.2645 43.3667 29.3438 43.596C29.141 43.6753 28.8236 43.7282 28.612 43.7988C27.6862 44.222 27.5187 44.3454 26.8398 44.8039C26.6723 44.7157 26.3989 44.416 25.7024 44.0809C25.4908 43.9751 25.2703 43.8781 25.0411 43.7899C24.9088 43.737 24.4768 43.596 24.3975 43.5343C24.7149 43.2609 25.0764 43.0493 25.4291 42.8465C25.7288 42.6702 26.2667 42.388 26.5753 42.2822L26.6458 41.8149L26.4783 41.6121C26.6899 41.5328 26.7957 41.3917 26.7781 41.1448C26.6282 41.0919 26.5224 41.0831 26.3372 40.8539V40.8539ZM27.0337 39.9369C27.0778 39.9545 27.1043 39.9986 27.1307 40.0339L27.2365 40.1132C27.2718 40.0956 27.3071 40.078 27.3423 40.0515C27.3776 40.0339 27.4305 40.0074 27.4658 39.9986C27.457 40.0163 27.4482 40.0339 27.4393 40.0603C27.4305 40.0868 27.4217 40.0956 27.4129 40.1132C27.3952 40.1485 27.3688 40.2102 27.36 40.2367C27.3776 40.2631 27.5011 40.3689 27.5451 40.4218C27.457 40.4218 27.3688 40.3954 27.2718 40.3954C27.263 40.4307 27.1836 40.5982 27.1572 40.6158C27.1484 40.5717 27.1396 40.5276 27.1307 40.4836C27.1219 40.4395 27.1219 40.4042 27.1043 40.3601C27.069 40.3601 26.9456 40.3337 26.8574 40.3337C26.8662 40.2984 26.9103 40.2808 26.9632 40.2543C27.0044 40.2367 27.0426 40.2191 27.0778 40.2014C27.0778 40.175 27.0337 39.9545 27.0337 39.9369V39.9369ZM37.7464 27.0552L37.526 27.0817C37.3497 27.1434 37.2879 27.2316 37.2879 27.4167C37.3056 27.6548 37.5084 27.743 37.8434 27.7165L37.5525 27.84C37.5613 28.0251 37.5965 27.9458 37.623 28.0956C37.6494 28.2455 37.4643 28.6688 37.7905 29.2683C37.8963 29.4623 38.9367 29.6563 38.7692 30.7496C38.7339 31.0317 38.6546 30.97 38.3813 30.97C37.72 30.97 36.9353 31.0053 36.2828 30.9435L36.2299 30.8113C36.1506 30.5556 36.2299 30.2117 36.3445 29.9825C36.8383 29.0038 37.094 29.9472 37.3585 28.704C37.4202 28.4042 37.3497 28.3161 37.3408 28.272C37.2791 27.9987 37.3937 28.0692 37.3937 27.8311C36.6619 27.3109 37.3585 26.8348 37.7464 27.0552V27.0552Z" fill="#E86110"/>
<path d="M35.9037 45.7033V45.0244H39.0602L39.0514 45.7033H35.9037Z" fill="#02563C"/>
<path fill-rule="evenodd" clip-rule="evenodd" d="M39.2453 42.062L39.2541 43.8519H35.7449L35.7273 42.062H39.2453ZM38.1872 43.0671C38.1872 43.1377 38.1872 43.2611 38.1961 43.3228C38.2754 43.7372 38.6986 43.7901 38.8309 43.3934C38.875 43.2523 38.8485 43.0583 38.8573 42.8996C38.8573 42.5117 38.8044 42.2736 38.3989 42.3001C38.1255 42.6351 38.1961 42.6087 38.1872 43.0671V43.0671ZM37.2879 42.45C37.1733 42.6175 37.2086 42.6087 37.1997 42.8555C37.1997 43.173 37.1645 43.508 37.4378 43.6314C37.667 43.7461 37.8875 43.5345 37.8875 43.1112C37.8875 42.5822 37.958 42.6263 37.6759 42.3001C37.4466 42.2824 37.4025 42.3001 37.2879 42.45V42.45ZM36.512 42.3001C36.1329 42.3001 36.177 42.8203 36.177 42.9878C36.177 43.3052 36.1858 43.6843 36.512 43.6667C36.8382 43.6579 36.8471 43.2788 36.8471 42.9878C36.8471 42.8115 36.9 42.3001 36.512 42.3001ZM38.778 32.0547L38.7868 33.4213L36.1241 33.4125L36.1064 32.0635L38.778 32.0547ZM37.9756 32.8129C37.9756 32.8659 37.9756 32.9628 37.9845 33.0069C38.0374 33.3155 38.3636 33.3596 38.4606 33.0598C38.5047 32.954 38.4782 32.8041 38.4782 32.6895C38.487 32.3986 38.4429 32.2134 38.1343 32.231C37.9227 32.4867 37.9845 32.4603 37.9756 32.8129ZM37.2967 32.3456C37.2086 32.4691 37.2262 32.4691 37.2262 32.6542C37.2262 32.8923 37.1997 33.148 37.4025 33.245C37.5789 33.3243 37.7464 33.1656 37.7464 32.8482C37.7464 32.4515 37.7993 32.4779 37.5877 32.231C37.4113 32.2222 37.3761 32.231 37.2967 32.3456V32.3456ZM36.706 32.231C36.415 32.231 36.4503 32.6278 36.4503 32.7512C36.4503 32.9893 36.4503 33.2803 36.706 33.2714C36.9529 33.2626 36.9529 32.9717 36.9529 32.7512C36.9617 32.619 36.9969 32.231 36.706 32.231Z" fill="#E86110"/>
<path d="M37.4555 35.6871L37.8963 36.0133L37.8875 39.3638C37.6495 39.452 37.5877 39.6107 37.4114 39.69C36.9265 39.3462 36.9882 39.3374 36.9882 39.0905L36.997 36.0398C37.1822 35.9516 37.2968 35.8282 37.4555 35.6871V35.6871ZM35.5246 44.1603H39.4393C39.4393 44.5306 39.3864 44.7422 38.9985 44.848H36.0536C35.6568 44.8304 35.5157 44.5041 35.5246 44.1603ZM36.0536 41.0567H38.9985C39.3864 41.1625 39.4393 41.3741 39.4393 41.7444L35.5246 41.7356C35.5157 41.3917 35.6568 41.0743 36.0536 41.0567V41.0567ZM36.2652 31.1904H38.7075C39.0337 31.2786 39.0778 31.4549 39.0778 31.7635H35.8243C35.8243 31.4726 35.939 31.2081 36.2652 31.1904ZM35.8243 33.6856H39.0778C39.0778 33.9942 39.0337 34.1706 38.7075 34.2499L36.2652 34.2588C35.939 34.2411 35.8243 33.9678 35.8243 33.6856ZM36.2035 34.5056L38.681 34.5144V35.0787H36.1947L36.2035 34.5056ZM38.2049 39.2139V36.1985L38.681 36.2955L38.6899 39.0905L38.2049 39.2139ZM38.6987 40.801L36.2035 40.8186C36.1682 40.078 36.0095 40.2543 37.9228 40.2543C38.0991 40.2543 38.5488 40.2102 38.6722 40.2984C38.7251 40.3954 38.7075 40.6511 38.6987 40.801V40.801ZM36.2035 37.4417C36.2035 36.128 36.0977 36.2778 36.6708 36.2073V39.1963C36.5297 39.1698 36.3269 39.1522 36.2387 39.0817C36.1417 38.923 36.2035 37.7415 36.2035 37.4417V37.4417ZM36.2035 39.3726C36.6267 39.3197 37.2086 39.6812 37.3849 39.9193C37.5701 39.8576 37.5172 39.8576 37.6671 39.7341C37.7553 39.6636 37.8522 39.6107 37.9669 39.5666C38.1785 39.4608 38.4165 39.3814 38.6987 39.3726V40.078C38.2843 40.0956 36.4856 40.1221 36.2035 40.0515V39.3726ZM36.2035 35.2992H38.6899L38.681 36.0133C38.2931 36.0045 37.9845 35.8546 37.6935 35.6342L37.4467 35.449C37.2351 35.5989 37.191 35.6959 36.8912 35.8282C36.7237 35.8987 36.4151 36.0222 36.1947 35.9869L36.2035 35.2992Z" fill="#02563C"/>
<path d="M37.6317 27.1338C37.667 27.1426 37.6846 27.1779 37.7111 27.2043L37.7816 27.266C37.8169 27.2484 37.8433 27.2396 37.8698 27.222C37.8874 27.2043 37.9315 27.1867 37.958 27.1779C37.9492 27.1955 37.9403 27.2043 37.9403 27.222C37.9315 27.2396 37.9227 27.2484 37.9139 27.266C37.9051 27.2925 37.8786 27.3366 37.8786 27.3542C37.8962 27.3807 37.9844 27.4512 38.0109 27.4953C37.9492 27.4953 37.8874 27.4688 37.8169 27.4688C37.8081 27.4953 37.7464 27.6187 37.7287 27.6364C37.7287 27.6011 37.7111 27.5746 37.7111 27.5394C37.7023 27.5041 37.7023 27.4777 37.6935 27.4512C37.6582 27.4512 37.57 27.4247 37.5083 27.4247C37.5171 27.4071 37.5436 27.3895 37.5877 27.3718C37.617 27.3601 37.6435 27.3454 37.667 27.3278C37.667 27.3101 37.6406 27.1426 37.6317 27.1338Z" fill="#E86110"/>
</svg>
