<svg width="100" height="100" viewBox="0 0 100 100" fill="none" xmlns="http://www.w3.org/2000/svg">
<rect width="100" height="100" rx="50" fill="white"/>
<path d="M21.9915 58.1722C19.3715 57.8391 17.3216 55.653 17.3216 53.0297H21.9915H22.6273V53.0192C25.2801 53.0192 27.4836 54.9347 27.7905 57.3707L27.8015 57.4123L27.8124 57.5789C27.827 57.7038 27.8344 57.8321 27.8344 57.964C27.8344 58.3596 27.8563 60.2543 27.7138 61.212C27.6041 61.795 27.4068 62.3467 27.1218 62.8464C24.4361 66.4795 19.7333 66.9688 17.4421 66.9688C10.3605 66.9688 5 61.5763 5 54.435C5 47.3249 10.4921 41.9741 17.8368 41.9741C21.3009 41.9741 24.8745 43.3066 26.9135 45.6801L27.1218 45.9091C27.6151 46.6379 27.8124 47.4707 27.8124 48.3763V51.6347C26.0694 51.6347 24.5347 50.7707 23.6139 49.4694C21.9586 48.0536 19.799 47.1896 17.8039 47.1896C13.9781 47.1896 11.0512 50.3438 11.0512 54.435C11.0512 58.5991 14.011 61.7533 17.8697 61.7533C19.0755 61.7533 20.5993 61.2953 21.9915 60.5666V58.1722ZM63.2972 47.8975V66.4795C60.0195 66.4795 57.3447 63.9394 57.3447 60.8372V42.2552C60.6224 42.2552 63.2972 44.7953 63.2972 47.8975ZM52.905 42.4738V61.0558C52.905 64.158 50.2302 66.6981 46.9635 66.6981V48.1161C46.9635 45.0139 49.6273 42.4738 52.905 42.4738ZM36.5603 48.1161V66.6981C33.2935 66.6981 30.6188 64.158 30.6188 61.0558V42.4738C33.8855 42.4738 36.5603 45.0139 36.5603 48.1161ZM62.9245 38.9448V42.2032C60.0633 42.2032 57.7174 39.9754 57.7174 37.2584V34C60.5786 34 62.9245 36.2278 62.9245 38.9448Z" fill="#065286"/>
<path fill-rule="evenodd" clip-rule="evenodd" d="M41.0001 54.706L40.3423 54.0606L40.3643 51.4789C40.3643 51.4789 40.6822 50.8647 41.2961 50.5003L41.7674 50.1984L42.2388 50.5003C42.8527 50.8647 43.1816 51.4789 43.1816 51.4789L43.1925 54.0606L42.5348 54.706V51.9369C42.3704 51.5413 41.8003 51.1666 41.7674 51.1458C41.7345 51.1666 41.1645 51.5413 41.0001 51.9369V54.706ZM39.2023 53.0508C39.2023 53.0508 39.2461 51.3956 39.3777 51.0312C39.5092 50.6773 39.8819 50.2088 40.5177 49.8341C41.1426 49.4697 41.5811 49.0533 41.7674 48.5536C41.9538 49.0533 42.3813 49.4697 43.0171 49.8341C43.6529 50.2088 44.0257 50.6773 44.1572 51.0312C44.2778 51.3956 44.3326 53.0508 44.3326 53.0508C44.9574 52.4574 45.4179 51.9265 45.67 51.4372C46.4922 50.0423 46.1633 48.7202 46.1633 48.7202C45.8892 47.471 45.3302 46.5757 44.0147 45.7533C42.6883 44.9309 41.0768 45.2328 41.0768 45.2328C38.6542 45.4931 37.6676 47.7625 37.6676 47.7625C36.2863 50.8751 39.2023 53.0508 39.2023 53.0508Z" fill="#065286"/>
<path d="M70.9799 48.5067V49.8901C70.9251 49.9567 70.8386 50.0292 70.7204 50.1073C70.6039 50.1854 70.4514 50.2528 70.263 50.3098C70.0746 50.365 69.8434 50.3927 69.5694 50.3927C69.3313 50.3927 69.1137 50.3552 68.9167 50.2805C68.7198 50.204 68.5502 50.0926 68.408 49.9462C68.2658 49.7998 68.1562 49.6209 68.0792 49.4094C68.0021 49.198 67.9635 48.9564 67.9635 48.6847V48.4505C67.9635 48.1789 67.9995 47.9374 68.0715 47.726C68.145 47.5144 68.2496 47.3356 68.3849 47.1891C68.5219 47.0428 68.6855 46.9314 68.8757 46.8548C69.0675 46.7784 69.2816 46.7402 69.5179 46.7402C69.8349 46.7402 70.0951 46.7898 70.299 46.889C70.5045 46.9883 70.6621 47.1249 70.7717 47.2989C70.8813 47.4713 70.9498 47.6698 70.9772 47.8943H70.2887C70.2698 47.7706 70.2321 47.6625 70.1757 47.5698C70.1191 47.4754 70.0387 47.4022 69.9342 47.3502C69.8314 47.2965 69.6978 47.2697 69.5334 47.2697C69.3946 47.2697 69.2722 47.2957 69.1659 47.3478C69.0597 47.3998 68.9707 47.4754 68.8987 47.5746C68.8268 47.6739 68.772 47.7967 68.7343 47.9431C68.6983 48.0895 68.6803 48.257 68.6803 48.4457V48.6847C68.6803 48.8751 68.7009 49.0443 68.742 49.1923C68.7831 49.3387 68.8422 49.4623 68.9193 49.5631C68.9981 49.6623 69.0949 49.738 69.2096 49.7901C69.3261 49.8405 69.458 49.8657 69.6053 49.8657C69.7388 49.8657 69.8493 49.8551 69.9367 49.834C70.0258 49.8112 70.0969 49.7844 70.1499 49.7534C70.2031 49.7225 70.2442 49.6924 70.2734 49.6632V48.997H69.5308V48.5067H70.9799ZM74.1272 49.8169V50.3439H72.1386V49.8169H74.1272ZM72.3544 46.7915V50.3439H71.6479V46.7915H72.3544ZM73.8678 48.2578V48.7726H72.1386V48.2578H73.8678ZM74.1195 46.7915V47.3209H72.1386V46.7915H74.1195ZM77.624 46.7915V50.3439H76.9148L75.3245 47.8796V50.3439H74.6179V46.7915H75.3245L76.92 49.2581V46.7915H77.624ZM80.8228 49.8169V50.3439H78.8341V49.8169H80.8228ZM79.0499 46.7915V50.3439H78.3434V46.7915H79.0499ZM80.5633 48.2578V48.7726H78.8341V48.2578H80.5633ZM80.8151 46.7915V47.3209H78.8341V46.7915H80.8151ZM81.3134 46.7915H82.6726C82.957 46.7915 83.201 46.8322 83.4049 46.9135C83.6087 46.9948 83.7655 47.1151 83.8751 47.2746C83.9847 47.434 84.0395 47.63 84.0395 47.8625C84.0395 48.0464 84.0052 48.2058 83.9367 48.3408C83.8682 48.4758 83.7714 48.5889 83.6464 48.6799C83.5231 48.771 83.3775 48.8426 83.2096 48.8946L82.9887 49.0019H81.7887L81.7837 48.4725H82.6803C82.8259 48.4725 82.9467 48.4481 83.0426 48.3993C83.1385 48.3506 83.2104 48.283 83.2585 48.1968C83.3081 48.1106 83.3329 48.0122 83.3329 47.9016C83.3329 47.7828 83.309 47.6804 83.261 47.5942C83.2131 47.5063 83.1402 47.4389 83.0426 47.3917C82.9449 47.3445 82.8216 47.3209 82.6726 47.3209H82.02V50.3439H81.3134V46.7915ZM83.4254 50.3439L82.5596 48.7531L83.3072 48.7506L84.1833 50.3098V50.3439H83.4254ZM86.1462 47.3307L85.08 50.3439H84.3324L85.7301 46.7915H86.208L86.1462 47.3307ZM87.0378 50.3439L85.9665 47.3307L85.9022 46.7915H86.3827L87.788 50.3439H87.0378ZM86.989 49.0239V49.5534H84.9824V49.0239H86.989ZM90.1312 49.4217C90.1312 49.3533 90.12 49.2923 90.0978 49.2387C90.0773 49.1834 90.0387 49.1337 89.9823 49.0898C89.9274 49.0443 89.8495 49.0004 89.7484 48.9581C89.6491 48.9142 89.5206 48.8686 89.363 48.8214C89.1883 48.7694 89.0256 48.7108 88.8748 48.6458C88.7241 48.5806 88.5914 48.5051 88.4766 48.4189C88.3636 48.3327 88.2753 48.2335 88.212 48.1211C88.1486 48.0073 88.1169 47.8756 88.1169 47.726C88.1169 47.5795 88.1495 47.4461 88.2146 47.3258C88.2813 47.2055 88.3755 47.1021 88.4972 47.0159C88.6188 46.9281 88.7618 46.8606 88.9263 46.8134C89.0923 46.7663 89.2756 46.7426 89.476 46.7426C89.7536 46.7426 89.9933 46.7906 90.1955 46.8866C90.3993 46.9826 90.5569 47.1127 90.6682 47.277C90.7795 47.4412 90.8352 47.6259 90.8352 47.8308H90.1312C90.1312 47.7202 90.1063 47.6226 90.0567 47.5381C90.0088 47.4534 89.9351 47.3868 89.8358 47.338C89.7381 47.2892 89.6148 47.2648 89.4658 47.2648C89.3219 47.2648 89.202 47.2851 89.106 47.3258C89.0119 47.3664 88.9408 47.4218 88.8928 47.4917C88.8466 47.5616 88.8234 47.6397 88.8234 47.726C88.8234 47.791 88.8398 47.8495 88.8723 47.9016C88.9048 47.952 88.9537 48 89.0188 48.0456C89.0838 48.0895 89.1644 48.1309 89.2603 48.17C89.3578 48.2074 89.4709 48.2448 89.5993 48.2822C89.8049 48.3408 89.9848 48.4058 90.1389 48.4774C90.2948 48.549 90.4241 48.6303 90.5269 48.7214C90.6313 48.8125 90.7093 48.9149 90.7607 49.0288C90.8137 49.1427 90.8404 49.272 90.8404 49.4168C90.8404 49.5696 90.8087 49.7063 90.7453 49.8266C90.6819 49.9471 90.5911 50.0495 90.4729 50.134C90.3547 50.2187 90.2126 50.2829 90.0464 50.3268C89.8819 50.3708 89.6979 50.3927 89.494 50.3927C89.3125 50.3927 89.1327 50.3699 88.9545 50.3243C88.778 50.2772 88.6179 50.2073 88.4741 50.1146C88.3301 50.0202 88.2154 49.9015 88.1297 49.7583C88.0441 49.6135 88.0013 49.4444 88.0013 49.2508H88.7104C88.7104 49.3631 88.7293 49.459 88.767 49.5388C88.8063 49.6169 88.8611 49.6811 88.9314 49.7315C89.0033 49.7803 89.0872 49.8161 89.1832 49.8388C89.279 49.8616 89.3827 49.873 89.494 49.873C89.6379 49.873 89.7561 49.8543 89.8486 49.8169C89.9428 49.7778 90.0131 49.7242 90.0593 49.6559C90.1072 49.5875 90.1312 49.5094 90.1312 49.4217ZM92.1379 46.7915V50.3439H91.4312V46.7915H92.1379Z" fill="#065286"/>
<path d="M68.3694 52.6211H68.9809L70.0036 55.2951L71.0235 52.6211H71.6376L70.2476 56.1735H69.7569L68.3694 52.6211ZM68.0612 52.6211H68.6598L68.7677 55.0781V56.1735H68.0612V52.6211ZM71.3447 52.6211H71.9458V56.1735H71.2393V55.0781L71.3447 52.6211ZM74.1991 53.1603L73.1328 56.1735H72.3852L73.7829 52.6211H74.2607L74.1991 53.1603ZM75.0907 56.1735L74.0192 53.1603L73.955 52.6211H74.4355L75.8409 56.1735H75.0907ZM75.0419 54.8535V55.383H73.0353V54.8535H75.0419ZM78.1841 55.2513C78.1841 55.1829 78.1729 55.1219 78.1507 55.0683C78.1301 55.013 78.0916 54.9634 78.035 54.9194C77.9802 54.8739 77.9023 54.83 77.8012 54.7877C77.7019 54.7438 77.5734 54.6982 77.4159 54.6511C77.2412 54.599 77.0785 54.5404 76.9277 54.4754C76.777 54.4103 76.6443 54.3347 76.5295 54.2485C76.4165 54.1623 76.3282 54.0631 76.2649 53.9508C76.2015 53.837 76.1698 53.7052 76.1698 53.5556C76.1698 53.4091 76.2023 53.2758 76.2674 53.1554C76.3343 53.0351 76.4284 52.9317 76.55 52.8455C76.6717 52.7578 76.8146 52.6902 76.9791 52.6431C77.1452 52.5959 77.3285 52.5723 77.5289 52.5723C77.8064 52.5723 78.0462 52.6203 78.2484 52.7162C78.4522 52.8122 78.6097 52.9423 78.7211 53.1066C78.8324 53.2709 78.888 53.4556 78.888 53.6604H78.1841C78.1841 53.5499 78.1592 53.4522 78.1096 53.3677C78.0616 53.2831 77.9879 53.2164 77.8886 53.1676C77.791 53.1188 77.6677 53.0944 77.5186 53.0944C77.3748 53.0944 77.2549 53.1147 77.1589 53.1554C77.0648 53.196 76.9936 53.2514 76.9457 53.3214C76.8995 53.3912 76.8763 53.4693 76.8763 53.5556C76.8763 53.6207 76.8926 53.6792 76.9251 53.7312C76.9577 53.7816 77.0065 53.8296 77.0716 53.8752C77.1367 53.9191 77.2172 53.9606 77.3131 53.9996C77.4107 54.0371 77.5238 54.0744 77.6522 54.1118C77.8578 54.1704 78.0377 54.2355 78.1918 54.307C78.3477 54.3786 78.4769 54.4599 78.5798 54.551C78.6842 54.6421 78.7622 54.7445 78.8136 54.8584C78.8666 54.9723 78.8932 55.1016 78.8932 55.2464C78.8932 55.3992 78.8615 55.5359 78.7981 55.6563C78.7348 55.7767 78.644 55.8791 78.5258 55.9637C78.4076 56.0483 78.2655 56.1125 78.0993 56.1565C77.9348 56.2004 77.7507 56.2224 77.5469 56.2224C77.3654 56.2224 77.1855 56.1996 77.0073 56.154C76.831 56.1068 76.6708 56.037 76.5269 55.9442C76.383 55.8499 76.2683 55.7311 76.1826 55.588C76.0969 55.4432 76.0542 55.274 76.0542 55.0805H76.7633C76.7633 55.1927 76.7821 55.2887 76.8198 55.3684C76.8592 55.4465 76.914 55.5107 76.9842 55.5611C77.0561 55.6099 77.1401 55.6457 77.236 55.6684C77.3319 55.6912 77.4355 55.7027 77.5469 55.7027C77.6908 55.7027 77.809 55.6839 77.9014 55.6466C77.9957 55.6074 78.0658 55.5538 78.1121 55.4855C78.1601 55.4171 78.1841 55.3391 78.1841 55.2513ZM80.964 55.0952V52.6211H81.6706V55.0952C81.6706 55.3309 81.6166 55.5335 81.5088 55.7027C81.4008 55.8702 81.2536 55.9986 81.0668 56.0882C80.8801 56.1776 80.6694 56.2224 80.4348 56.2224C80.1933 56.2224 79.9792 56.1842 79.7924 56.1076C79.6057 56.0296 79.4593 55.9109 79.3531 55.7514C79.2486 55.592 79.1964 55.3895 79.1964 55.1439H79.9055C79.9055 55.2773 79.9269 55.3847 79.9698 55.466C80.0125 55.5473 80.0734 55.6059 80.1522 55.6417C80.2326 55.6774 80.3268 55.6953 80.4348 55.6953C80.5393 55.6953 80.6309 55.6726 80.7097 55.627C80.7902 55.5798 80.8527 55.5116 80.8973 55.422C80.9418 55.3326 80.964 55.2236 80.964 55.0952ZM83.1248 52.6211V56.1735H82.4183V52.6211H83.1248ZM85.0055 56.1735H84.1988L84.2039 55.6466H85.0055C85.223 55.6466 85.4055 55.601 85.5527 55.5099C85.7001 55.4171 85.8114 55.2846 85.8867 55.1122C85.9622 54.9382 85.9998 54.73 85.9998 54.4876V54.3046C85.9998 54.1175 85.9784 53.9524 85.9355 53.8093C85.8928 53.6662 85.8294 53.5458 85.7454 53.4482C85.6632 53.3506 85.5613 53.2766 85.4397 53.2262C85.3181 53.1757 85.1785 53.1505 85.0209 53.1505H84.1833V52.6211H85.0209C85.271 52.6211 85.4988 52.661 85.7043 52.7406C85.9116 52.8203 86.0906 52.9351 86.2414 53.0847C86.3937 53.2327 86.5103 53.41 86.5907 53.6166C86.673 53.8231 86.7141 54.0541 86.7141 54.3095V54.4876C86.7141 54.7413 86.673 54.9723 86.5907 55.1805C86.5103 55.3871 86.3937 55.5643 86.2414 55.7124C86.0906 55.8604 85.9108 55.9743 85.7018 56.054C85.4928 56.1337 85.2607 56.1735 85.0055 56.1735ZM84.5944 52.6211V56.1735H83.8879V52.6211H84.5944ZM68.8139 58.4507V62.0032H68.1074V58.4507H68.8139ZM72.5831 58.4507V62.0032H71.8739L70.2835 59.5389V62.0032H69.577V58.4507H70.2835L71.8791 60.9174V58.4507H72.5831ZM74.4201 62.0032H73.6133L73.6185 61.4762H74.4201C74.6376 61.4762 74.82 61.4306 74.9674 61.3395C75.1147 61.2468 75.226 61.1143 75.3014 60.9419C75.3767 60.7678 75.4144 60.5596 75.4144 60.3173V60.1343C75.4144 59.9472 75.393 59.7821 75.3502 59.6389C75.3073 59.4958 75.2439 59.3755 75.1601 59.2778C75.0779 59.1803 74.9759 59.1063 74.8543 59.0559C74.7327 59.0054 74.5931 58.9802 74.4355 58.9802H73.598V58.4507H74.4355C74.6856 58.4507 74.9134 58.4906 75.119 58.5702C75.3262 58.65 75.5052 58.7647 75.6559 58.9143C75.8084 59.0623 75.9248 59.2396 76.0054 59.4463C76.0876 59.6528 76.1287 59.8838 76.1287 60.1392V60.3173C76.1287 60.571 76.0876 60.802 76.0054 61.0102C75.9248 61.2167 75.8084 61.394 75.6559 61.542C75.5052 61.6901 75.3253 61.8039 75.1163 61.8837C74.9074 61.9633 74.6753 62.0032 74.4201 62.0032ZM74.009 58.4507V62.0032H73.3024V58.4507H74.009ZM79.7591 60.1367V60.3197C79.7591 60.588 79.7214 60.8297 79.6461 61.0443C79.5706 61.2574 79.4635 61.4387 79.3249 61.5884C79.1861 61.738 79.0208 61.8528 78.8289 61.9324C78.6371 62.0121 78.4239 62.052 78.1892 62.052C77.958 62.052 77.7456 62.0121 77.552 61.9324C77.3602 61.8528 77.194 61.738 77.0536 61.5884C76.9132 61.4387 76.8044 61.2574 76.7272 61.0443C76.6502 60.8297 76.6117 60.588 76.6117 60.3197V60.1367C76.6117 59.8667 76.6502 59.6251 76.7272 59.412C76.8044 59.1989 76.9123 59.0176 77.0511 58.868C77.1897 58.7167 77.3551 58.6012 77.5469 58.5215C77.7405 58.4418 77.9528 58.4019 78.1841 58.4019C78.4187 58.4019 78.632 58.4418 78.8239 58.5215C79.0157 58.6012 79.1809 58.7167 79.3197 58.868C79.4601 59.0176 79.5681 59.1989 79.6434 59.412C79.7205 59.6251 79.7591 59.8667 79.7591 60.1367ZM79.0448 60.3197V60.1318C79.0448 59.9382 79.0259 59.7682 78.9883 59.6219C78.9506 59.4738 78.8949 59.3494 78.8213 59.2486C78.7476 59.1477 78.6568 59.0721 78.549 59.0216C78.441 58.9696 78.3194 58.9436 78.1841 58.9436C78.0471 58.9436 77.9254 58.9696 77.8192 59.0216C77.7147 59.0721 77.6257 59.1477 77.552 59.2486C77.4784 59.3494 77.4218 59.4738 77.3825 59.6219C77.3448 59.7682 77.3259 59.9382 77.3259 60.1318V60.3197C77.3259 60.5116 77.3448 60.6816 77.3825 60.8297C77.4218 60.9776 77.4784 61.1029 77.552 61.2054C77.6274 61.3062 77.7182 61.3826 77.8243 61.4347C77.9306 61.4867 78.0521 61.5128 78.1892 61.5128C78.3262 61.5128 78.4479 61.4867 78.5541 61.4347C78.6602 61.3826 78.7493 61.3062 78.8213 61.2054C78.8949 61.1029 78.9506 60.9776 78.9883 60.8297C79.0259 60.6816 79.0448 60.5116 79.0448 60.3197ZM83.3638 58.4507V62.0032H82.6546L81.0642 59.5389V62.0032H80.3577V58.4507H81.0642L82.6598 60.9174V58.4507H83.3638ZM86.5625 61.4762V62.0032H84.5739V61.4762H86.5625ZM84.7896 58.4507V62.0032H84.0831V58.4507H84.7896ZM86.303 59.9171V60.4319H84.5739V59.9171H86.303ZM86.5548 58.4507V58.9802H84.5739V58.4507H86.5548ZM89.011 61.081C89.011 61.0126 88.9999 60.9516 88.9776 60.8979C88.9571 60.8427 88.9185 60.793 88.862 60.7491C88.8072 60.7036 88.7293 60.6597 88.6282 60.6174C88.5289 60.5735 88.4004 60.5279 88.2428 60.4807C88.0681 60.4287 87.9053 60.37 87.7546 60.3051C87.6039 60.2399 87.4711 60.1643 87.3563 60.0782C87.2433 59.992 87.1552 59.8927 87.0917 59.7804C87.0284 59.6666 86.9967 59.5348 86.9967 59.3853C86.9967 59.2388 87.0292 59.1054 87.0943 58.9851C87.1611 58.8647 87.2554 58.7614 87.377 58.6752C87.4985 58.5874 87.6416 58.5199 87.806 58.4727C87.9722 58.4255 88.1554 58.4019 88.3559 58.4019C88.6333 58.4019 88.8731 58.4499 89.0752 58.5459C89.279 58.6419 89.4366 58.772 89.548 58.9363C89.6593 59.1005 89.715 59.2852 89.715 59.4901H89.011C89.011 59.3795 88.9862 59.2819 88.9366 59.1974C88.8885 59.1127 88.8149 59.0461 88.7156 58.9973C88.6179 58.9484 88.4946 58.9241 88.3456 58.9241C88.2016 58.9241 88.0818 58.9444 87.9859 58.9851C87.8916 59.0257 87.8206 59.0811 87.7726 59.151C87.7263 59.2209 87.7033 59.299 87.7033 59.3853C87.7033 59.4503 87.7195 59.5088 87.7521 59.5609C87.7846 59.6113 87.8334 59.6592 87.8985 59.7048C87.9635 59.7488 88.0441 59.7902 88.14 59.8292C88.2376 59.8667 88.3507 59.9041 88.4792 59.9415C88.6847 60.0001 88.8645 60.0651 89.0188 60.1367C89.1745 60.2083 89.3039 60.2896 89.4067 60.3807C89.5112 60.4718 89.5891 60.5742 89.6404 60.6881C89.6936 60.802 89.7201 60.9313 89.7201 61.0761C89.7201 61.2289 89.6885 61.3656 89.6251 61.4859C89.5617 61.6064 89.4709 61.7088 89.3527 61.7933C89.2345 61.878 89.0923 61.9422 88.9262 61.9861C88.7618 62.03 88.5776 62.052 88.3739 62.052C88.1922 62.052 88.0124 62.0292 87.8343 61.9836C87.6578 61.9365 87.4976 61.8666 87.3538 61.7739C87.21 61.6795 87.0952 61.5608 87.0095 61.4176C86.9239 61.2728 86.8811 61.1036 86.8811 60.9101H87.5902C87.5902 61.0223 87.609 61.1183 87.6467 61.1981C87.6861 61.2761 87.7409 61.3404 87.8112 61.3908C87.8831 61.4396 87.9671 61.4754 88.063 61.4981C88.1589 61.5209 88.2625 61.5323 88.3739 61.5323C88.5177 61.5323 88.6359 61.5136 88.7284 61.4762C88.8225 61.4371 88.8928 61.3835 88.9391 61.3152C88.987 61.2468 89.011 61.1687 89.011 61.081ZM91.0176 58.4507V62.0032H90.3111V58.4507H91.0176ZM93.3145 58.99L92.2482 62.0032H91.5006L92.8983 58.4507H93.3763L93.3145 58.99ZM94.2061 62.0032L93.1347 58.99L93.0704 58.4507H93.5509L94.9564 62.0032H94.2061ZM94.1572 60.6832V61.2126H92.1507V60.6832H94.1572Z" fill="#065286"/>
</svg>
