<svg width="75" height="38" viewBox="0 0 75 38" fill="none" xmlns="http://www.w3.org/2000/svg">
<path d="M8.21048 32.0532C9.40723 32.5102 10.4372 32.9453 11.4308 33.5328C14.9051 35.6 15.7464 37.435 16.4717 37.9355C16.8416 37.8267 17.4001 37.5148 17.8063 37.3407C21.3966 35.8393 25.306 35.7958 29.1428 35.9844C29.1791 35.9844 29.3314 35.9916 29.3677 35.9989C29.4837 36.0207 29.3387 35.9771 29.4547 36.0134C29.5708 36.0497 29.4982 36.0207 29.5708 36.0714C29.3314 36.144 29.0123 36.202 28.7439 36.2745C26.7783 36.8257 28.258 36.8112 26.1111 36.7605C24.7257 36.7315 23.3694 36.7895 22.0276 36.9345C20.8163 37.0651 19.5905 37.2899 18.4228 37.551C17.8426 37.6816 17.2913 37.8194 16.7401 37.979C16.3194 38.1023 15.9423 37.6598 15.3983 37.2464C13.2369 35.6 12.7146 35.1213 10.089 34.0478C9.14612 33.6561 7.94937 33.2355 6.92668 32.9381C6.23764 32.735 6.57854 32.7205 5.7807 31.9662C5.59937 31.7921 4.69999 31.1176 4.59845 30.958C5.23672 31.0305 7.5577 31.8066 8.21048 32.0532V32.0532ZM22.9197 34.57C21.8172 34.6716 20.6205 34.8819 19.5543 35.0778C18.9958 35.1793 18.5026 35.2663 17.9513 35.3824C17.4509 35.4839 16.8126 35.6798 16.3194 35.716L16.3774 35.6653C16.6023 35.5202 17.7845 35.1503 18.0456 35.0632C21.4111 33.9173 24.6677 33.3588 28.2797 33.1774C29.0703 33.1412 37.2663 32.8148 37.8828 33.1557C36.9326 33.4168 36.2944 33.4966 35.0904 33.852C34.4158 34.0551 34.4376 34.1421 33.6107 34.0986C33.0305 34.0696 32.414 34.0623 31.8337 34.0623C28.1129 34.0623 26.6188 34.2146 22.9197 34.57Z" fill="#02563C"/>
<path d="M22.9197 34.5702C21.8172 34.6718 20.6205 34.8821 19.5543 35.078C18.9958 35.1795 18.5026 35.2665 17.9513 35.3826C17.4509 35.4841 16.8126 35.68 16.3194 35.7162L16.3774 35.6655C16.6023 35.5204 17.7845 35.1505 18.0456 35.0634C21.4111 33.9175 24.6677 33.359 28.2797 33.1776C29.0703 33.1414 37.2663 32.815 37.8828 33.1559C36.9326 33.417 36.2943 33.4968 35.0903 33.8522C34.4158 34.0553 34.4376 34.1423 33.6107 34.0988C33.0305 34.0698 32.414 34.0625 31.8337 34.0625C28.1129 34.0625 26.6188 34.2148 22.9197 34.5702Z" stroke="#02563C" stroke-width="0.4"/>
<path d="M4.4824 29.2677C4.02545 29.0574 3.5395 28.8398 3.0753 28.6585C2.40802 28.4046 2.45154 28.3248 1.98734 27.8969C1.14599 27.1281 0.667282 26.8235 0 26.2432C0.587499 26.1489 6.93393 29.4056 7.55045 29.7319C10.3356 31.1898 12.7291 32.8943 15.0211 35.1717C15.2097 35.3531 16.022 36.1219 16.1526 36.3395L16.1816 36.4048C15.8117 36.1872 15.3693 35.781 15.0066 35.5054C14.6077 35.2008 14.245 34.9397 13.8316 34.6423C13.0555 34.0765 12.1779 33.4528 11.3438 32.9596C8.53686 31.2914 7.40538 30.6096 4.4824 29.2677V29.2677ZM20.062 35.6359C24.276 34.1998 29.2516 34.3884 33.6542 34.7728C33.5019 34.9179 32.1601 35.2008 31.7249 35.3458C30.3251 35.7883 31.268 35.7447 29.6651 35.6722C28.0331 35.5997 26.5245 35.5417 24.8708 35.6142C22.6151 35.7012 20.5407 36.0349 18.401 36.5498C18.0819 36.6296 16.6458 37.0866 16.5515 37.043C17.1898 36.5208 19.1263 35.9551 20.062 35.6359V35.6359Z" fill="#E86110"/>
<path d="M4.12699 16.0025C4.17776 15.473 4.31557 14.8565 4.43887 14.3705C4.50415 14.1167 4.59843 13.8556 4.66371 13.6235C4.85954 12.9054 5.14241 12.2236 5.47606 11.5563C5.91124 10.7005 6.33917 9.9099 6.91942 9.14833C7.70275 8.11839 8.48608 7.2045 9.50876 6.39216C12.5623 3.97689 15.5433 2.76562 19.8081 2.76562C20.0765 2.76562 20.7945 2.76562 21.0121 2.91069C18.9378 3.07751 17.168 3.55621 15.6739 4.30328C14.6004 4.84 13.527 5.46377 12.6421 6.28336C12.5478 6.37765 12.5115 6.38491 12.41 6.47195C11.206 7.53815 10.2558 8.8582 9.46524 10.258C8.89225 11.288 8.47883 12.4267 8.20321 13.5872C7.71725 15.56 7.72451 18.0914 8.21772 20.0642C8.34102 20.5574 8.47157 20.9563 8.60938 21.3915C8.7617 21.8484 8.92126 22.1821 9.10259 22.6173L9.54503 23.4731C9.5958 23.5674 9.63206 23.6545 9.69009 23.7488C10.2486 24.7279 11.1117 25.8521 11.9023 26.6427L12.8089 27.4478C13.3674 27.97 14.1797 28.4995 14.8398 28.8549C15.1952 29.0507 15.5433 29.2538 15.9495 29.4207C16.1381 29.5004 16.3557 29.602 16.566 29.6818C16.7763 29.7688 16.9432 29.8268 17.1753 29.9066C19.8226 30.7842 22.6876 30.922 25.3857 30.1677C26.1473 29.9501 26.8726 29.7108 27.5544 29.3699C28.8382 28.7171 30.1075 28.0136 31.1157 26.9836C31.413 26.6862 31.7757 26.3816 32.0803 25.9972C32.2254 25.8086 32.3994 25.6563 32.5227 25.4677H29.6941V23.5674H34.5681C35.5255 23.5674 36.1565 22.8639 35.7431 21.9718C35.569 21.6018 35.1411 21.4278 34.7059 21.4278H29.7376V19.4767H34.0096C35.4747 19.4767 36.7876 19.7233 37.4113 20.9491C37.6434 21.3988 37.7232 22.0588 37.7232 22.639C37.7232 23.8648 37.0487 24.96 35.8664 25.2356C35.9607 25.417 36.084 25.6128 36.1855 25.7941C36.8746 26.9909 37.5201 28.2312 38.2454 29.4061C38.3107 29.5149 38.3397 29.5512 38.3687 29.689H36.0477C35.8302 29.3626 35.6488 29 35.4312 28.6373C34.8437 27.6582 34.2055 26.3889 33.589 25.4677H33.1248C33.045 25.8159 32.3849 26.9401 32.1746 27.252C31.6959 27.9338 30.8908 28.8332 30.2018 29.3626L29.4692 29.9791C27.9678 31.321 26.2706 32.2566 24.2905 32.9239C23.6015 33.156 22.9197 33.3228 22.1436 33.4679C21.0266 33.6782 19.3367 33.8088 18.2052 33.6564C15.6449 33.3083 15.3112 33.2575 13.0338 32.3291C12.2142 31.9955 11.3583 31.4515 10.633 30.9728C10.2558 30.7262 9.92944 30.4506 9.57404 30.175L8.58762 29.3046C8.39904 29.1523 8.30475 28.9782 8.11617 28.7969C7.79704 28.4778 7.55043 28.1441 7.26031 27.796C5.98377 26.2511 4.96109 24.1839 4.47513 22.2256C4.05445 20.5284 3.97467 19.5637 3.97467 17.8085C3.97467 17.1992 4.06171 16.6045 4.12699 16.0025V16.0025Z" fill="#005439"/>
<path fill-rule="evenodd" clip-rule="evenodd" d="M28.3958 15.5312V19.4769H29.462V26.07C29.462 26.73 29.5055 27.2232 29.5055 27.8832C29.3459 27.9267 29.1428 28.0791 29.005 28.1661C28.8309 28.2821 28.6931 28.3474 28.5046 28.4562C26.0095 29.9358 22.6368 30.5233 19.6848 30.0882C18.7637 29.9504 17.9731 29.7545 17.1898 29.4789C15.8625 29.0147 15.2242 28.6521 14.0927 27.9775C13.7808 27.7889 13.4907 27.5713 13.1933 27.3465C12.8742 27.0926 12.6494 26.9258 12.3665 26.643C12.1634 26.4326 12.0619 26.3963 12.0038 26.2078C11.9531 26.0192 12.0473 24.4308 11.9966 23.9883C11.9313 23.3573 11.9603 23.7998 12.0038 23.2848V22.6393H23.9859V22.3564H12.0038C12.0038 20.8115 11.9095 20.9783 12.3302 20.9638C16.1598 20.2022 20.0475 20.2385 23.9859 20.9638V19.4769H25.0521V15.5312H28.3958ZM21.4328 23.3791C21.295 23.263 21.2515 23.2413 21.1499 23.2413C20.7945 23.2413 20.4101 23.5459 20.4101 23.8868C20.4101 24.351 20.4319 24.1116 20.5044 24.438C20.5334 24.5613 20.5479 24.6556 20.5479 24.8152C20.5479 25.7508 20.4609 25.4244 20.5479 26.4399H20.7365C20.7438 26.2948 20.78 26.2803 20.78 26.1207V25.0038C20.78 24.409 20.6422 24.4235 20.6422 23.9811C20.6422 23.6184 20.9759 23.3791 21.4328 23.3791V23.3791ZM19.431 23.3791C19.2206 23.0889 18.7637 23.3283 18.6114 23.4879C18.2197 23.8868 18.5534 24.322 18.5534 24.5831V26.4399H18.7854V24.6339C18.7854 24.351 18.6476 24.2639 18.6476 23.9811C18.6476 23.7925 18.887 23.3791 19.431 23.3791V23.3791ZM17.4871 23.3791C17.4291 23.3283 17.4291 23.321 17.3421 23.2848C17.168 23.2123 16.9432 23.263 16.8054 23.3501C16.1816 23.7345 16.6023 24.351 16.6023 24.6339V26.4399H16.8344V24.8152C16.8344 24.4308 16.6966 24.438 16.6966 23.9811C16.6966 23.5531 17.1027 23.3791 17.4871 23.3791V23.3791ZM14.8108 23.72C14.9848 23.4444 15.1662 23.3791 15.4853 23.3791C15.275 23.0889 14.818 23.3283 14.6657 23.4879C14.2958 23.865 14.5642 24.1987 14.6149 24.5323L14.6077 26.4399H14.8398V24.6339C14.8398 24.351 14.702 24.2639 14.702 23.9811C14.702 23.9158 14.7672 23.7852 14.8108 23.72V23.72ZM13.5415 23.3791C13.1135 23.0092 12.5188 23.5169 12.5188 23.8868C12.5188 24.351 12.7654 24.5178 12.6131 25.8016C12.5841 26.099 12.6566 26.186 12.6566 26.4399H12.8452C12.9395 26.0337 12.8887 25.526 12.8887 25.0981C12.8887 24.4598 12.7509 24.3872 12.7509 23.9811C12.7509 23.6184 13.0845 23.3791 13.5415 23.3791V23.3791ZM25.2334 20.9203H28.4828V20.5939H24.9578V26.4399H25.2334V20.9203ZM26.4955 22.088C26.7783 21.8632 26.8871 21.8487 27.3731 21.8487C27.1772 21.5658 26.5825 21.6456 26.3359 21.7906C25.2987 22.3781 25.9805 23.2775 25.9805 23.5677V26.4471H26.3069C26.3069 26.2368 26.3504 26.2585 26.3504 26.0264C26.3504 25.1923 26.3722 24.438 26.2996 23.6184C26.2779 23.3646 26.1183 23.1977 26.1183 22.8714C26.1183 22.5087 26.2851 22.2476 26.4955 22.088V22.088ZM25.8862 16.4234H27.7865V16.2348C27.0757 16.2348 26.3649 16.2348 25.6541 16.2348V19.4842H25.8862V16.4234ZM26.4519 18.1061C26.5825 17.3083 27.2063 17.5258 27.3731 17.5404C27.0539 17.0616 26.4157 17.2647 26.2561 17.6709C26.0748 18.1278 26.2126 19.1578 26.2126 19.4842H26.4447V19.3028C26.4447 18.7879 26.3722 18.6211 26.4519 18.1061ZM23.3766 23.3863C23.1591 23.0889 22.6803 23.3501 22.557 23.4879C22.1581 23.9376 22.499 24.3147 22.499 24.496V26.4471H22.7311V24.6411C22.7311 24.3582 22.5933 24.2712 22.5933 23.9883C22.5933 23.7127 22.8834 23.3863 23.3766 23.3863ZM54.0934 24.7644C54.3763 24.0971 54.8332 23.5314 55.515 23.2123C56.1533 22.9149 56.5812 22.9221 57.263 22.9221C58.0028 22.9221 58.3364 23.234 58.7063 23.4806V22.9221H60.6502C60.6502 23.894 60.7082 28.6521 60.5994 29.6892C60.5414 30.255 60.2658 30.8933 59.9901 31.2632C59.2068 32.3149 58.3147 32.576 56.9366 32.576C55.6673 32.576 54.8259 32.0973 54.1224 31.2632C53.9773 31.0963 53.6945 30.6249 53.6437 30.3928C53.9846 30.3928 54.3255 30.3928 54.6664 30.3928C55.1596 30.3855 55.1016 30.4871 55.428 30.6466C55.8269 30.8497 56.603 31.0746 57.0164 31.0311C58.4452 30.886 58.7063 30.3348 58.7063 28.7246C58.4815 28.8696 58.2929 28.9929 58.0173 29.109C56.9366 29.5732 55.1668 29.3121 54.3472 28.0646C53.8395 27.2885 53.8323 26.846 53.8323 25.9829C53.8323 25.5477 53.9556 25.0835 54.0934 24.7644V24.7644ZM56.3854 27.5568C57.0091 27.7889 57.7997 27.7672 58.2784 27.3175C58.7426 26.8823 58.7063 26.5994 58.7063 25.9829C58.7063 25.069 57.9883 24.496 57.2195 24.496C55.3119 24.496 54.855 26.9766 56.3854 27.5568V27.5568Z" fill="#E86110"/>
<path fill-rule="evenodd" clip-rule="evenodd" d="M40.4141 22.8713C41.7631 22.8713 43.2283 22.7263 44.1422 23.4081C44.7151 23.8432 45.056 24.5323 45.056 25.5114V29.6892C42.8076 29.6892 43.105 29.8415 43.105 29.1815C42.6843 29.4063 42.2781 29.6892 41.6181 29.6892C37.8828 29.6892 38.5065 25.758 40.5591 25.1996C42.0097 24.8079 42.4087 25.2576 43.105 25.4244C43.105 24.9239 42.8511 24.5758 42.5102 24.4235C42.0968 24.2349 39.8701 24.1189 39.2536 24.1189V22.9584C39.551 22.8931 40.0442 22.8713 40.4141 22.8713ZM42.7206 28.0065C43.2065 27.7599 43.105 27.6583 43.105 26.9548C43.105 26.331 41.6398 26.2367 41.0088 26.6139C40.6969 26.8025 40.6027 27.0346 40.6027 27.3682C40.6027 28.1588 42.075 28.3329 42.7206 28.0065V28.0065ZM61.8106 25.0037C62.2313 23.865 63.4353 22.9148 64.6466 22.9148C65.7345 22.9148 66.5251 22.9656 67.352 23.7852C67.5623 23.9955 67.8017 24.3364 67.954 24.6193C68.3311 25.2866 68.2659 25.8813 68.2659 26.6284H63.6239C63.6239 27.5641 64.1026 28.1153 65.06 28.1153C66.0102 28.1153 66.2568 27.6148 66.4163 27.5641C66.5904 27.5205 67.9685 27.5568 68.2659 27.5568C68.2078 27.8034 67.9395 28.2386 67.7872 28.4272C67.0764 29.2975 66.2785 29.6892 64.9657 29.6892C62.2748 29.6892 61.0418 27.1071 61.8106 25.0037ZM63.6674 25.2358H66.3583C66.1697 24.8732 65.7055 24.496 65.1543 24.496H64.8787C64.3927 24.496 63.769 24.8732 63.6674 25.2358Z" fill="#E86110"/>
<path d="M34.2418 11.3526C34.735 11.3526 34.5826 11.2945 34.8075 11.5774C34.88 11.6644 34.9235 11.7225 34.9961 11.8095L37.5129 14.863C37.5927 14.9718 37.6217 15.0009 37.7232 15.0661C37.9191 14.9356 39.4712 13.028 39.7251 12.7089L40.6897 11.5411C40.8638 11.309 40.813 11.3526 41.3425 11.3526V18.5476H39.9064L39.8556 14.7905C39.638 14.9428 39.5147 15.1604 39.3116 15.3563L37.9916 16.8286C37.8828 16.9664 37.8828 17.0027 37.7232 17.1115C37.5346 16.9809 35.7576 14.8703 35.5836 14.747V18.5476H34.1039V11.4976C34.1039 11.3888 34.133 11.3526 34.2418 11.3526V11.3526Z" fill="#005439"/>
<path d="M48.6318 22.8712V23.4732C48.8421 23.3572 49.0017 23.2049 49.2411 23.1033C49.8068 22.864 49.9809 22.9147 50.5829 22.9147C51.7071 22.9147 52.7588 24.1768 52.7588 25.1922V29.6891H50.8585V25.8885C50.8585 24.3871 49.4949 24.2566 48.9727 24.8803C48.8639 25.0109 48.6318 25.3155 48.6318 25.5114V29.6891H46.7242V22.9147C46.9563 22.8277 48.2982 22.8712 48.6318 22.8712V22.8712Z" fill="#E86110"/>
<path fill-rule="evenodd" clip-rule="evenodd" d="M55.9646 14.1382V13.7683H57.3137L57.3572 20.8256H55.9646V18.229C54.6954 19.0776 53.4116 18.3523 52.8531 17.112C52.7588 16.9017 52.6718 16.4955 52.6718 16.1836C52.6718 14.6169 54.3037 13.0285 55.9646 14.1382ZM54.2094 17.1047C54.9637 17.8591 55.9646 17.2135 55.9646 16.51V15.8137C55.9646 15.1247 55.1958 14.8418 54.7897 14.9143C54.0136 15.0594 53.8758 15.6396 53.8758 16.3214C53.8758 16.6333 54.0498 16.9379 54.2094 17.1047V17.1047Z" fill="#005439"/>
<path d="M71.6095 22.8712V23.611C71.9214 23.4007 72.3421 22.9147 73.0891 22.9147C73.6839 22.9147 74.0175 22.8277 74.0175 23.0526C74.0175 25.7144 74.2859 24.5394 72.77 24.5394C72.1898 24.5394 71.6095 25.3155 71.6095 25.6056V29.6891H69.702C69.702 28.5214 69.6584 27.4914 69.6584 26.3019C69.6584 25.1753 69.6584 24.0462 69.6584 22.9147C69.8905 22.8277 71.2686 22.8712 71.6095 22.8712V22.8712Z" fill="#E86110"/>
<path fill-rule="evenodd" clip-rule="evenodd" d="M67.838 14.5658C68.4255 15.204 68.4472 15.69 68.4472 16.5096H65.1543C65.1543 17.1116 65.459 17.5758 66.0392 17.5758C67.0111 17.5758 66.8298 17.2639 67.1562 17.2059C67.381 17.1696 68.1643 17.2059 68.4472 17.2059C68.1498 17.7716 67.8452 18.2938 67.1489 18.5477C66.2713 18.8596 64.944 18.7145 64.3347 17.982C63.8778 17.438 63.7182 16.981 63.7182 16.1832C63.7182 13.8985 66.6122 13.2312 67.838 14.5658V14.5658ZM65.1978 15.5304H67.0546C67.0111 15.3491 66.8733 15.2766 66.7137 15.1823C66.4454 15.0154 66.3366 15.0227 66.0392 15.0227C65.7491 15.0227 65.2704 15.2693 65.1978 15.5304ZM50.8223 13.942C50.9383 13.9928 51.2067 14.1886 51.2865 14.2684C51.5766 14.5585 51.7289 14.9502 51.8812 15.2548H50.8585C50.7425 14.8269 49.5095 14.6818 49.3716 15.2548C49.9591 15.9293 51.7434 15.2403 51.7434 17.2059C51.7434 18.671 49.4079 19.2367 48.3127 17.8877C48.1459 17.6773 47.8558 17.3219 47.7977 17.0681C49.6037 17.0681 48.5375 17.0608 49.3571 17.4017C50.0244 17.6846 50.6192 17.409 50.5829 17.1116C50.5321 16.7417 49.6182 16.7997 49.067 16.5821C48.349 16.292 48.2112 15.9221 48.2112 15.2113C48.2112 13.9275 49.8503 13.4705 50.8223 13.942V13.942ZM62.0935 15.8133C62.0935 15.4289 61.9847 14.7108 62.1733 14.457C62.3184 14.2539 62.7898 14.0218 63.0654 13.9565C63.0654 14.9647 63.0219 15.8713 63.0219 16.836C63.0219 17.4887 63.0219 17.6411 62.681 17.982C61.7961 18.8813 60.1932 18.7218 59.4244 18.1995C59.098 17.9747 58.9675 17.6846 58.8949 17.2421C58.7426 16.3935 58.7861 16.1324 58.8442 15.4434L59.3446 15.8205C60.5559 16.7924 59.5332 17.6701 61.1144 17.6701C62.137 17.6701 62.0935 16.5894 62.0935 15.8133V15.8133Z" fill="#005439"/>
<path d="M43.7215 13.551C44.2002 13.065 44.3162 12.5791 44.3162 11.8175C44.9545 12.2527 44.824 13.1376 44.7804 13.6743C44.8965 13.5945 44.9908 13.3987 45.0125 13.2101C45.0415 13.2609 45.0778 13.2246 45.0706 13.4204C45.0633 13.8193 44.94 13.9354 44.9182 14.1892C45.0198 14.2183 45.0561 14.1965 45.0561 14.3271C45.0561 15.0524 43.105 15.7704 43.3153 17.2718C43.3443 17.4386 43.3806 17.7142 43.3878 17.852C43.221 17.8085 43.2863 17.8085 43.1557 17.707L42.7858 17.3371C42.5102 16.9817 42.2709 16.6408 42.2709 16.046C42.2709 15.1104 43.1412 14.1385 43.7215 13.551V13.551ZM57.4008 11.6797H57.4951C57.5096 12.2817 58.2784 12.8692 58.7861 13.0795C59.671 13.4494 61.0273 14.1312 61.0273 15.299C61.0273 15.8284 60.8677 16.561 60.5631 16.7858C60.5123 16.2491 60.244 15.7414 59.8741 15.3788C59.4606 14.9798 57.7272 14.5664 57.7272 14.1892C57.7272 13.9136 57.9085 14.1747 57.5531 13.7105C57.4443 13.5655 57.3282 13.4204 57.3137 13.2101C57.408 13.2826 57.4153 13.3044 57.5096 13.3842C57.5821 13.4494 57.6546 13.4857 57.7272 13.5365C57.6909 13.3987 57.6546 13.3842 57.5821 13.2681C57.379 12.949 57.3137 12.5863 57.3137 12.1947C57.3137 11.9698 57.3645 11.8538 57.4008 11.6797Z" fill="#E86110"/>
<path d="M45.2737 14.544C45.3027 14.3699 45.2882 14.1813 45.2882 14C45.8611 14.1378 46.2093 14.3481 46.5502 14.7326C47.5439 15.8495 47.1667 17.4234 46.2238 18.0472C45.8539 18.2938 45.3462 18.4751 44.8747 18.4534C44.5846 18.4389 44.367 18.4171 44.222 18.2285C43.9971 17.9384 43.8521 17.3944 43.8521 16.8795C43.9681 16.9665 43.9318 16.981 44.0479 17.1043C44.4831 17.5468 45.3752 17.5613 45.8321 17.1043C46.2528 16.6836 46.3253 15.777 45.8321 15.3128C45.6726 15.1605 45.397 14.9792 45.0996 14.9792C45.1504 14.7978 45.2229 14.8051 45.2737 14.544Z" fill="#005439"/>
<path d="M15.3693 17.5975C15.4418 16.9955 15.7609 16.1396 16.1308 15.835C16.7836 16.0308 17.197 16.3282 17.6612 16.7851C17.7483 16.8649 17.799 16.8721 17.8063 17.0172C17.8208 17.3146 17.8208 19.7008 17.7918 19.8604C17.3421 19.8894 16.9577 19.8967 16.537 19.9547C16.3484 19.9765 15.4636 20.1288 15.3693 20.107V17.5975Z" fill="#E86110"/>
<path d="M15.0719 14.3997C15.1807 14.2837 15.4708 13.9428 15.5651 13.8848C15.877 13.9283 16.6385 14.2619 16.8924 14.3997C17.3784 14.6681 17.6105 14.8422 17.9659 15.1831L18.4808 14.7841C18.6477 14.6608 18.8362 14.5448 19.0393 14.4287C19.2787 14.2909 20.0693 13.9355 20.4174 13.9428L21.3095 14.8349C21.3144 14.8398 21.3192 14.8446 21.324 14.8494L21.3748 14.922C21.3168 14.9655 20.5697 15.1686 20.4029 15.2266C20.0693 15.3499 19.8081 15.4587 19.5035 15.6183C19.1989 15.7706 18.974 15.9156 18.7129 16.097C18.4736 16.2565 18.0529 16.6047 17.9804 16.6772C17.8135 16.3943 16.8199 15.7633 16.5007 15.6037C16.2179 15.4514 15.9277 15.3281 15.6159 15.2193C15.4563 15.1686 15.2895 15.1105 15.1299 15.067C15.0284 15.038 14.9703 15.0235 14.8688 15.0017C14.7818 14.98 14.6875 14.9655 14.6149 14.922C14.6657 14.8132 14.9921 14.4868 15.0719 14.3997V14.3997ZM15.0284 20.224C14.7673 20.2965 14.5134 20.3327 14.2523 20.4198C14.1072 20.4706 13.643 20.6881 13.5342 20.6736C13.4907 19.651 13.3892 17.8087 13.6068 16.8658C13.7301 16.3436 14.071 15.6037 14.3538 15.3499C14.6294 15.3426 15.6159 15.5747 15.7537 15.698C15.6811 15.8286 15.5651 15.9664 15.4781 16.126C15.2024 16.6337 15.0284 17.1994 15.0284 17.8014V20.224Z" fill="#02563C"/>
<path d="M20.6495 20.0636C20.5479 20.0854 19.6631 19.9403 19.4817 19.9113C19.0538 19.8533 18.6694 19.8533 18.2197 19.817C18.1907 19.6575 18.1907 17.2712 18.2052 16.9811C18.2125 16.8288 18.2705 16.8215 18.3503 16.7417C18.8145 16.292 19.2351 15.9874 19.8807 15.7988C20.2506 16.1035 20.5697 16.9593 20.6422 17.5541L20.6495 20.0636Z" fill="#E86110"/>
<path d="M20.9831 17.7645C20.9831 17.1552 20.8163 16.5895 20.5334 16.0817C20.4464 15.9294 20.3303 15.7916 20.2578 15.6611C20.3956 15.5378 21.382 15.3057 21.6577 15.3057C21.9405 15.5668 22.2814 16.2993 22.4047 16.8288C22.6296 17.7717 22.5208 19.614 22.4772 20.6367C22.3685 20.6439 21.9043 20.4263 21.7592 20.3756C21.4981 20.2885 21.2442 20.2523 20.9831 20.1797V17.7645Z" fill="#02563C"/>
<path d="M17.5524 11.3965C17.1752 10.925 17.7845 10.3303 18.1979 10.5696C18.0384 10.6277 17.9441 10.6132 17.8425 10.751C17.5742 11.1136 18.0601 11.5561 18.3938 11.2804C18.4663 11.2152 18.4663 11.1934 18.5316 11.1426C18.5171 11.411 18.2995 11.5633 18.0529 11.6213C18.0529 11.8462 18.1326 11.9767 18.2922 12.013L18.1472 12.1943L18.1979 12.5715C18.5533 12.6513 19.9604 13.4636 20.0257 13.6522C19.8589 13.7175 19.5978 13.761 19.4237 13.819C18.6621 14.1672 18.5243 14.2687 17.9658 14.6459C17.828 14.5733 17.6032 14.3267 17.0302 14.0511C16.8561 13.9641 16.6748 13.8843 16.4862 13.8118C16.3774 13.7682 16.022 13.6522 15.9567 13.6014C16.2178 13.3766 16.5152 13.2025 16.8053 13.0357C17.0519 12.8906 17.4944 12.6585 17.7482 12.5715L17.8063 12.1871L17.6685 12.0203C17.8425 11.955 17.9296 11.8389 17.9151 11.6358C17.7918 11.5923 17.7047 11.5851 17.5524 11.3965V11.3965ZM18.1254 10.6422C18.1617 10.6567 18.1834 10.6929 18.2052 10.722L18.2922 10.7872C18.3212 10.7727 18.3502 10.7582 18.3793 10.7365C18.4083 10.722 18.4518 10.7002 18.4808 10.6929C18.4735 10.7075 18.4663 10.722 18.459 10.7437C18.4518 10.7655 18.4445 10.7727 18.4373 10.7872C18.4228 10.8163 18.401 10.867 18.3938 10.8888C18.4083 10.9105 18.5098 10.9976 18.5461 11.0411C18.4735 11.0411 18.401 11.0193 18.3212 11.0193C18.314 11.0483 18.2487 11.1862 18.2269 11.2007C18.2197 11.1644 18.2124 11.1281 18.2052 11.0919C18.1979 11.0556 18.1979 11.0266 18.1834 10.9903C18.1544 10.9903 18.0529 10.9686 17.9803 10.9686C17.9876 10.9396 18.0239 10.925 18.0674 10.9033C18.1012 10.8888 18.1326 10.8743 18.1617 10.8598C18.1617 10.838 18.1254 10.6567 18.1254 10.6422V10.6422ZM26.9379 0.0454416L26.7565 0.0671999C26.6115 0.117971 26.5607 0.190506 26.5607 0.34282C26.5752 0.538653 26.742 0.611181 27.0177 0.589422L26.7783 0.690966C26.7856 0.843281 26.8146 0.778001 26.8363 0.901303C26.8581 1.0246 26.7058 1.37276 26.9741 1.86596C27.0612 2.02553 27.917 2.1851 27.7792 3.08448C27.7502 3.31658 27.6849 3.26581 27.4601 3.26581C26.9161 3.26581 26.2706 3.29482 25.7339 3.24405L25.6903 3.13525C25.6251 2.92491 25.6903 2.64204 25.7846 2.45346C26.1908 1.64837 26.4011 2.42445 26.6187 1.40177C26.6695 1.15516 26.6115 1.08263 26.6042 1.04636C26.5535 0.821519 26.6477 0.879544 26.6477 0.683711C26.0457 0.25578 26.6187 -0.135885 26.9379 0.0454416V0.0454416Z" fill="#E86110"/>
<path d="M25.422 15.3856V14.8271H28.0186L28.0113 15.3856H25.422Z" fill="#02563C"/>
<path fill-rule="evenodd" clip-rule="evenodd" d="M28.171 12.3904L28.1782 13.8628H25.2915L25.277 12.3904H28.171ZM27.3006 13.2173C27.3006 13.2753 27.3006 13.3769 27.3078 13.4276C27.3731 13.7685 27.7213 13.812 27.8301 13.4856C27.8663 13.3696 27.8446 13.21 27.8518 13.0795C27.8518 12.7603 27.8083 12.5645 27.4747 12.5863C27.2498 12.8619 27.3078 12.8401 27.3006 13.2173V13.2173ZM26.5608 12.7096C26.4665 12.8474 26.4955 12.8401 26.4882 13.0432C26.4882 13.3043 26.4592 13.5799 26.6841 13.6815C26.8727 13.7758 27.054 13.6017 27.054 13.2536C27.054 12.8184 27.112 12.8546 26.8799 12.5863C26.6913 12.5718 26.6551 12.5863 26.5608 12.7096V12.7096ZM25.9225 12.5863C25.6106 12.5863 25.6469 13.0142 25.6469 13.152C25.6469 13.4131 25.6541 13.725 25.9225 13.7105C26.1909 13.7032 26.1981 13.3914 26.1981 13.152C26.1981 13.0069 26.2416 12.5863 25.9225 12.5863ZM27.7865 4.1582L27.7938 5.28243L25.6034 5.27518L25.5889 4.16545L27.7865 4.1582ZM27.1265 4.78197C27.1265 4.82548 27.1265 4.90527 27.1338 4.94153C27.1773 5.19539 27.4456 5.23166 27.5254 4.98505C27.5617 4.89802 27.5399 4.77471 27.5399 4.68043C27.5472 4.44107 27.5109 4.28876 27.2571 4.30326C27.083 4.5136 27.1338 4.49184 27.1265 4.78197ZM26.568 4.39755C26.4955 4.4991 26.51 4.4991 26.51 4.65141C26.51 4.84724 26.4882 5.05758 26.6551 5.13737C26.8001 5.20265 26.9379 5.07209 26.9379 4.81098C26.9379 4.48459 26.9814 4.50635 26.8074 4.30326C26.6623 4.29601 26.6333 4.30326 26.568 4.39755V4.39755ZM26.0821 4.30326C25.8427 4.30326 25.8717 4.62965 25.8717 4.7312C25.8717 4.92703 25.8717 5.16638 26.0821 5.15913C26.2852 5.15187 26.2852 4.91252 26.2852 4.7312C26.2924 4.6224 26.3214 4.30326 26.0821 4.30326Z" fill="#E86110"/>
<path d="M26.6985 7.14633L27.0612 7.4147L27.0539 10.1709C26.8581 10.2434 26.8073 10.3739 26.6623 10.4392C26.2634 10.1564 26.3141 10.1491 26.3141 9.94601L26.3214 7.43645C26.4737 7.36392 26.568 7.26238 26.6985 7.14633V7.14633ZM25.1101 14.1165H28.3305C28.3305 14.4212 28.287 14.5952 27.9678 14.6823H25.5453C25.2189 14.6678 25.1029 14.3994 25.1101 14.1165ZM25.5453 11.5634H27.9678C28.287 11.6505 28.3305 11.8246 28.3305 12.1292L25.1101 12.1219C25.1029 11.8391 25.2189 11.578 25.5453 11.5634V11.5634ZM25.7194 3.44727H27.7285C27.9968 3.5198 28.0331 3.66486 28.0331 3.91872H25.3567C25.3567 3.67936 25.451 3.46177 25.7194 3.44727ZM25.3567 5.49988H28.0331C28.0331 5.75374 27.9968 5.8988 27.7285 5.96408L25.7194 5.97133C25.451 5.95683 25.3567 5.73198 25.3567 5.49988ZM25.6686 6.17442L27.7067 6.18167V6.64587H25.6614L25.6686 6.17442ZM27.3151 10.0476V7.56701L27.7067 7.64679L27.714 9.94601L27.3151 10.0476ZM27.7212 11.3531L25.6686 11.3676C25.6396 10.7584 25.509 10.9034 27.083 10.9034C27.228 10.9034 27.5979 10.8672 27.6995 10.9397C27.743 11.0195 27.7285 11.2298 27.7212 11.3531V11.3531ZM25.6686 8.58969C25.6686 7.50898 25.5816 7.63228 26.053 7.57426V10.0331C25.937 10.0113 25.7701 9.99679 25.6976 9.93876C25.6178 9.80821 25.6686 8.83629 25.6686 8.58969V8.58969ZM25.6686 10.1781C26.0168 10.1346 26.4955 10.432 26.6405 10.6278C26.7928 10.577 26.7493 10.577 26.8726 10.4755C26.9451 10.4175 27.0249 10.3739 27.1192 10.3377C27.2933 10.2506 27.4891 10.1854 27.7212 10.1781V10.7584C27.3803 10.7729 25.9007 10.7946 25.6686 10.7366V10.1781ZM25.6686 6.82719H27.714L27.7067 7.4147C27.3876 7.40744 27.1337 7.28414 26.8944 7.10281L26.6913 6.9505C26.5172 7.0738 26.481 7.15358 26.2343 7.26238C26.0965 7.3204 25.8427 7.42195 25.6614 7.39293L25.6686 6.82719Z" fill="#02563C"/>
<path d="M26.8436 0.110352C26.8726 0.117605 26.8871 0.146616 26.9089 0.168375L26.9669 0.219148C26.9959 0.204641 27.0177 0.197388 27.0394 0.182882C27.0539 0.168376 27.0902 0.15387 27.112 0.146617C27.1047 0.161123 27.0975 0.168376 27.0975 0.182882C27.0902 0.197388 27.083 0.204641 27.0757 0.219148C27.0685 0.240907 27.0467 0.277172 27.0467 0.291678C27.0612 0.313438 27.1337 0.37146 27.1555 0.407726C27.1047 0.407726 27.0539 0.385967 26.9959 0.385967C26.9887 0.407727 26.9379 0.509271 26.9234 0.523777C26.9234 0.494765 26.9089 0.473003 26.9089 0.443991C26.9016 0.414979 26.9016 0.39322 26.8944 0.37146C26.8654 0.37146 26.7928 0.349702 26.7421 0.349702C26.7493 0.335196 26.7711 0.320691 26.8073 0.306185C26.8315 0.296515 26.8533 0.284426 26.8726 0.26992C26.8726 0.255414 26.8509 0.117605 26.8436 0.110352Z" fill="#E86110"/>
</svg>
