<svg width="92" height="34" viewBox="0 0 92 34" fill="none" xmlns="http://www.w3.org/2000/svg">
<g clip-path="url(#clip0_1641_1005)">
<path d="M17.7662 25.0258C15.1171 24.689 13.0444 22.4785 13.0444 19.8261H17.7662H18.4091V19.8155C21.0914 19.8155 23.3193 21.7523 23.6297 24.2153L23.6407 24.2574L23.6518 24.4258C23.6666 24.5521 23.674 24.6819 23.674 24.8153C23.674 25.2152 23.6962 27.1309 23.5521 28.0993C23.4412 28.6887 23.2417 29.2466 22.9535 29.7518C20.2379 33.4253 15.4829 33.9201 13.1663 33.9201C6.00604 33.9201 0.585938 28.4677 0.585938 21.247C0.585938 14.0579 6.13904 8.64769 13.5654 8.64769C17.0679 8.64769 20.6813 9.99499 22.7429 12.3949L22.9535 12.6264C23.4523 13.3632 23.6518 14.2053 23.6518 15.121V18.4156C21.8895 18.4156 20.3377 17.542 19.4066 16.2262C17.733 14.7947 15.5494 13.9211 13.5321 13.9211C9.66377 13.9211 6.70433 17.1104 6.70433 21.247C6.70433 25.4573 9.69702 28.6466 13.5986 28.6466C14.8179 28.6466 16.3585 28.1835 17.7662 27.4467V25.0258ZM59.5309 14.6369V33.4253C56.2168 33.4253 53.5122 30.8571 53.5122 27.7204V8.93189C56.8264 8.93189 59.5309 11.5002 59.5309 14.6369ZM49.0232 9.15293V27.9414C49.0232 31.0781 46.3187 33.6464 43.0157 33.6464V14.8579C43.0157 11.7212 45.7091 9.15293 49.0232 9.15293ZM32.4969 14.8579V33.6464C29.1939 33.6464 26.4893 31.0781 26.4893 27.9414V9.15293C29.7924 9.15293 32.4969 11.7212 32.4969 14.8579ZM59.154 5.5847V8.87926C56.2611 8.87926 53.8891 6.62675 53.8891 3.87952V0.584961C56.782 0.584961 59.154 2.83747 59.154 5.5847Z" fill="#065286"/>
<path fill-rule="evenodd" clip-rule="evenodd" d="M36.9861 21.5208L36.321 20.8683L36.3432 18.2579C36.3432 18.2579 36.6646 17.6368 37.2853 17.2684L37.7619 16.9632L38.2386 17.2684C38.8593 17.6368 39.1918 18.2579 39.1918 18.2579L39.2029 20.8683L38.5378 21.5208V18.721C38.3716 18.321 37.7952 17.9421 37.7619 17.921C37.7287 17.9421 37.1523 18.321 36.9861 18.721V21.5208ZM35.1683 19.8473C35.1683 19.8473 35.2126 18.1737 35.3456 17.8053C35.4786 17.4474 35.8555 16.9737 36.4984 16.5948C37.1302 16.2264 37.5735 15.8054 37.7619 15.3001C37.9504 15.8054 38.3826 16.2264 39.0255 16.5948C39.6684 16.9737 40.0453 17.4474 40.1783 17.8053C40.3002 18.1737 40.3556 19.8473 40.3556 19.8473C40.9874 19.2473 41.4529 18.7105 41.7079 18.2158C42.5392 16.8053 42.2066 15.4685 42.2066 15.4685C41.9295 14.2054 41.3643 13.3002 40.0342 12.4687C38.693 11.6372 37.0636 11.9424 37.0636 11.9424C34.6141 12.2055 33.6165 14.5002 33.6165 14.5002C32.2199 17.6474 35.1683 19.8473 35.1683 19.8473Z" fill="#065286"/>
<path d="M67.2989 15.2529V16.6517C67.2435 16.719 67.156 16.7923 67.0365 16.8712C66.9187 16.9502 66.7645 17.0184 66.5741 17.076C66.3836 17.1319 66.1498 17.1599 65.8727 17.1599C65.632 17.1599 65.412 17.122 65.2128 17.0464C65.0137 16.969 64.8422 16.8564 64.6985 16.7084C64.5547 16.5603 64.4439 16.3795 64.366 16.1656C64.288 15.9518 64.249 15.7076 64.249 15.4329V15.1961C64.249 14.9215 64.2854 14.6773 64.3582 14.4635C64.4326 14.2496 64.5383 14.0688 64.6751 13.9207C64.8136 13.7727 64.979 13.66 65.1713 13.5827C65.3653 13.5054 65.5818 13.4668 65.8207 13.4668C66.1412 13.4668 66.4043 13.5169 66.6105 13.6172C66.8183 13.7176 66.9776 13.8557 67.0884 14.0317C67.1993 14.206 67.2685 14.4066 67.2962 14.6337H66.6001C66.581 14.5086 66.5429 14.3993 66.4858 14.3056C66.4286 14.2101 66.3472 14.1361 66.2416 14.0835C66.1376 14.0293 66.0026 14.0021 65.8364 14.0021C65.696 14.0021 65.5722 14.0285 65.4648 14.0811C65.3574 14.1337 65.2674 14.2101 65.1946 14.3104C65.1219 14.4109 65.0665 14.535 65.0283 14.683C64.992 14.831 64.9738 15.0004 64.9738 15.1912V15.4329C64.9738 15.6254 64.9946 15.7965 65.0362 15.9461C65.0778 16.0941 65.1375 16.2191 65.2154 16.3211C65.2951 16.4214 65.393 16.4979 65.5089 16.5505C65.6268 16.6015 65.7601 16.6269 65.9091 16.6269C66.0441 16.6269 66.1558 16.6163 66.2442 16.5949C66.3343 16.5719 66.4061 16.5447 66.4597 16.5135C66.5135 16.4822 66.5551 16.4518 66.5845 16.4222V15.7487H65.8337V15.2529H67.2989ZM70.4812 16.5777V17.1105H68.4705V16.5777H70.4812ZM68.6887 13.5186V17.1105H67.9744V13.5186H68.6887ZM70.2189 15.0012V15.5217H68.4705V15.0012H70.2189ZM70.4734 13.5186V14.0539H68.4705V13.5186H70.4734ZM74.0168 13.5186V17.1105H73.2998L71.6918 14.6188V17.1105H70.9774V13.5186H71.6918L73.305 16.0127V13.5186H74.0168ZM77.2512 16.5777V17.1105H75.2404V16.5777H77.2512ZM75.4586 13.5186V17.1105H74.7443V13.5186H75.4586ZM76.9888 15.0012V15.5217H75.2404V15.0012H76.9888ZM77.2434 13.5186V14.0539H75.2404V13.5186H77.2434ZM77.7473 13.5186H79.1216C79.4091 13.5186 79.6558 13.5597 79.862 13.6419C80.0681 13.7242 80.2266 13.8458 80.3374 14.0071C80.4482 14.1682 80.5037 14.3664 80.5037 14.6016C80.5037 14.7875 80.469 14.9486 80.3997 15.0851C80.3304 15.2217 80.2325 15.336 80.1062 15.4281C79.9815 15.5202 79.8343 15.5925 79.6645 15.6451L79.4411 15.7536H78.2279L78.2228 15.2183H79.1293C79.2765 15.2183 79.3987 15.1937 79.4957 15.1443C79.5927 15.095 79.6654 15.0267 79.7139 14.9396C79.7641 14.8524 79.7892 14.7529 79.7892 14.6411C79.7892 14.521 79.765 14.4174 79.7165 14.3302C79.668 14.2414 79.5943 14.1732 79.4957 14.1255C79.3969 14.0778 79.2722 14.0539 79.1216 14.0539H78.4618V17.1105H77.7473V13.5186ZM79.8827 17.1105L79.0073 15.5021L79.7632 15.4995L80.6491 17.076V17.1105H79.8827ZM82.6338 14.0638L81.5558 17.1105H80.7998L82.213 13.5186H82.6962L82.6338 14.0638ZM83.5353 17.1105L82.452 14.0638L82.3871 13.5186H82.8729L84.2938 17.1105H83.5353ZM83.4859 15.7758V16.3112H81.457V15.7758H83.4859ZM86.6631 16.178C86.6631 16.1089 86.6518 16.0472 86.6293 15.993C86.6085 15.9371 86.5695 15.8869 86.5124 15.8425C86.457 15.7965 86.3782 15.752 86.276 15.7093C86.1756 15.6649 86.0457 15.6188 85.8863 15.5711C85.7096 15.5185 85.5451 15.4592 85.3927 15.3935C85.2403 15.3276 85.1061 15.2512 84.99 15.1641C84.8758 15.0769 84.7865 14.9766 84.7225 14.863C84.6584 14.748 84.6264 14.6147 84.6264 14.4635C84.6264 14.3154 84.6593 14.1805 84.7251 14.0589C84.7926 13.9372 84.8878 13.8327 85.0109 13.7455C85.1338 13.6568 85.2784 13.5885 85.4447 13.5408C85.6126 13.4931 85.798 13.4692 86.0006 13.4692C86.2812 13.4692 86.5236 13.5177 86.728 13.6148C86.9341 13.7118 87.0935 13.8434 87.206 14.0095C87.3186 14.1756 87.3749 14.3623 87.3749 14.5695H86.6631C86.6631 14.4577 86.6379 14.359 86.5877 14.2735C86.5393 14.1879 86.4648 14.1206 86.3643 14.0712C86.2656 14.0218 86.1409 13.9972 85.9903 13.9972C85.8447 13.9972 85.7235 14.0177 85.6265 14.0589C85.5313 14.0999 85.4594 14.1559 85.4109 14.2267C85.3641 14.2973 85.3407 14.3762 85.3407 14.4635C85.3407 14.5293 85.3572 14.5884 85.3902 14.6411C85.423 14.692 85.4724 14.7405 85.5383 14.7866C85.604 14.831 85.6854 14.8729 85.7824 14.9124C85.8811 14.9503 85.9954 14.9881 86.1253 15.0259C86.3331 15.0851 86.515 15.1509 86.6708 15.2232C86.8284 15.2956 86.9592 15.3779 87.0631 15.47C87.1687 15.5621 87.2475 15.6656 87.2995 15.7808C87.3532 15.8959 87.3801 16.0267 87.3801 16.1731C87.3801 16.3276 87.3481 16.4658 87.284 16.5875C87.2198 16.7093 87.128 16.8128 87.0086 16.8983C86.8891 16.9839 86.7453 17.0488 86.5773 17.0932C86.411 17.1377 86.2249 17.1599 86.0187 17.1599C85.8352 17.1599 85.6534 17.1368 85.4733 17.0907C85.2948 17.043 85.1329 16.9724 84.9875 16.8786C84.842 16.7833 84.7259 16.6632 84.6393 16.5184C84.5528 16.372 84.5094 16.201 84.5094 16.0053H85.2265C85.2265 16.1188 85.2455 16.2158 85.2837 16.2964C85.3234 16.3754 85.3789 16.4403 85.4499 16.4913C85.5226 16.5406 85.6074 16.5768 85.7045 16.5998C85.8014 16.6228 85.9062 16.6344 86.0187 16.6344C86.1643 16.6344 86.2838 16.6155 86.3773 16.5777C86.4725 16.5381 86.5436 16.4839 86.5903 16.4149C86.6388 16.3457 86.6631 16.2668 86.6631 16.178ZM88.692 13.5186V17.1105H87.9775V13.5186H88.692Z" fill="#065286"/>
<path d="M64.6595 19.4126H65.2777L66.3118 22.1164L67.343 19.4126H67.9639L66.5585 23.0046H66.0624L64.6595 19.4126ZM64.3478 19.4126H64.9531L65.0621 21.8969V23.0046H64.3478V19.4126ZM67.6678 19.4126H68.2756V23.0046H67.5613V21.8969L67.6678 19.4126ZM70.554 19.9579L69.4758 23.0046H68.7199L70.1331 19.4126H70.6163L70.554 19.9579ZM71.4554 23.0046L70.3721 19.9579L70.3071 19.4126H70.7929L72.214 23.0046H71.4554ZM71.4061 21.6699V22.2052H69.3772V21.6699H71.4061ZM74.5832 22.0721C74.5832 22.0029 74.5719 21.9412 74.5494 21.887C74.5286 21.8312 74.4897 21.7809 74.4325 21.7365C74.3771 21.6905 74.2983 21.6461 74.1961 21.6034C74.0956 21.559 73.9657 21.5129 73.8065 21.4652C73.6298 21.4125 73.4653 21.3533 73.3129 21.2876C73.1605 21.2217 73.0263 21.1453 72.9102 21.0581C72.7959 20.971 72.7067 20.8707 72.6426 20.7571C72.5786 20.6421 72.5465 20.5088 72.5465 20.3575C72.5465 20.2094 72.5793 20.0746 72.6452 19.9529C72.7128 19.8313 72.808 19.7267 72.9309 19.6396C73.054 19.5509 73.1985 19.4825 73.3648 19.4349C73.5328 19.3872 73.7181 19.3633 73.9207 19.3633C74.2013 19.3633 74.4438 19.4118 74.6482 19.5089C74.8542 19.6059 75.0135 19.7375 75.1261 19.9036C75.2387 20.0697 75.2949 20.2564 75.2949 20.4635H74.5832C74.5832 20.3518 74.5581 20.253 74.5079 20.1676C74.4593 20.082 74.3848 20.0146 74.2844 19.9652C74.1858 19.9159 74.0611 19.8913 73.9103 19.8913C73.7649 19.8913 73.6436 19.9118 73.5466 19.9529C73.4514 19.994 73.3795 20.05 73.3311 20.1207C73.2843 20.1913 73.2609 20.2703 73.2609 20.3575C73.2609 20.4233 73.2773 20.4825 73.3102 20.5351C73.3431 20.5861 73.3925 20.6346 73.4583 20.6807C73.5241 20.7251 73.6055 20.767 73.7025 20.8065C73.8013 20.8444 73.9155 20.8821 74.0454 20.9199C74.2533 20.9792 74.4351 21.045 74.591 21.1173C74.7486 21.1897 74.8793 21.2719 74.9833 21.364C75.0889 21.4561 75.1677 21.5597 75.2197 21.6748C75.2733 21.79 75.3001 21.9207 75.3001 22.0671C75.3001 22.2217 75.2681 22.3599 75.204 22.4815C75.14 22.6033 75.0482 22.7069 74.9287 22.7924C74.8092 22.8779 74.6655 22.9429 74.4974 22.9873C74.3312 23.0317 74.145 23.0539 73.9389 23.0539C73.7554 23.0539 73.5735 23.0309 73.3934 22.9848C73.215 22.9371 73.0531 22.8665 72.9075 22.7727C72.7621 22.6773 72.6461 22.5572 72.5595 22.4125C72.4728 22.2661 72.4296 22.095 72.4296 21.8994H73.1466C73.1466 22.0128 73.1656 22.1099 73.2037 22.1905C73.2436 22.2694 73.299 22.3344 73.37 22.3853C73.4427 22.4347 73.5276 22.4709 73.6246 22.4939C73.7216 22.5169 73.8263 22.5285 73.9389 22.5285C74.0844 22.5285 74.2039 22.5095 74.2974 22.4717C74.3927 22.4322 74.4636 22.378 74.5104 22.3089C74.559 22.2398 74.5832 22.1608 74.5832 22.0721ZM77.394 21.9142V19.4126H78.1084V21.9142C78.1084 22.1526 78.0539 22.3574 77.9448 22.5285C77.8356 22.6978 77.6868 22.8277 77.4979 22.9183C77.3091 23.0087 77.0961 23.0539 76.8589 23.0539C76.6147 23.0539 76.3982 23.0153 76.2094 22.9379C76.0206 22.859 75.8725 22.739 75.7652 22.5777C75.6595 22.4166 75.6067 22.2119 75.6067 21.9635H76.3238C76.3238 22.0984 76.3454 22.2069 76.3887 22.2891C76.4319 22.3713 76.4935 22.4306 76.5731 22.4668C76.6545 22.5029 76.7497 22.521 76.8589 22.521C76.9645 22.521 77.0572 22.4981 77.1369 22.452C77.2182 22.4043 77.2814 22.3352 77.3265 22.2447C77.3715 22.1543 77.394 22.0441 77.394 21.9142ZM79.5788 19.4126V23.0046H78.8644V19.4126H79.5788ZM81.4804 23.0046H80.6647L80.6699 22.4717H81.4804C81.7003 22.4717 81.8848 22.4256 82.0337 22.3335C82.1827 22.2398 82.2953 22.1058 82.3714 21.9315C82.4477 21.7555 82.4857 21.545 82.4857 21.2999V21.1149C82.4857 20.9257 82.4641 20.7588 82.4208 20.6141C82.3775 20.4693 82.3135 20.3477 82.2286 20.2489C82.1454 20.1503 82.0423 20.0755 81.9194 20.0245C81.7965 19.9735 81.6553 19.948 81.496 19.948H80.6491V19.4126H81.496C81.7488 19.4126 81.9792 19.453 82.187 19.5335C82.3966 19.6141 82.5776 19.7301 82.73 19.8814C82.8841 20.031 83.0019 20.2103 83.0833 20.4192C83.1664 20.6281 83.2079 20.8616 83.2079 21.1198V21.2999C83.2079 21.5564 83.1664 21.79 83.0833 22.0005C83.0019 22.2093 82.8841 22.3886 82.73 22.5383C82.5776 22.6879 82.3957 22.8031 82.1844 22.8837C81.9731 22.9642 81.7384 23.0046 81.4804 23.0046ZM81.0647 19.4126V23.0046H80.3504V19.4126H81.0647ZM65.1089 25.3071V28.899H64.3946V25.3071H65.1089ZM68.9199 25.3071V28.899H68.2029L66.5948 26.4073V28.899H65.8805V25.3071H66.5948L68.2081 27.8012V25.3071H68.9199ZM70.7774 28.899H69.9616L69.9668 28.3662H70.7774C70.9973 28.3662 71.1818 28.3201 71.3307 28.228C71.4797 28.1342 71.5922 28.0002 71.6685 27.8259C71.7446 27.6499 71.7827 27.4394 71.7827 27.1943V27.0093C71.7827 26.8202 71.7611 26.6532 71.7178 26.5085C71.6744 26.3638 71.6104 26.2421 71.5256 26.1433C71.4425 26.0447 71.3394 25.9699 71.2164 25.9189C71.0934 25.8679 70.9523 25.8424 70.7929 25.8424H69.9461V25.3071H70.7929C71.0459 25.3071 71.2762 25.3474 71.484 25.4279C71.6935 25.5085 71.8745 25.6245 72.0269 25.7758C72.1811 25.9255 72.2988 26.1047 72.3803 26.3137C72.4634 26.5225 72.505 26.756 72.505 27.0142V27.1943C72.505 27.4509 72.4634 27.6844 72.3803 27.8949C72.2988 28.1038 72.1811 28.283 72.0269 28.4327C71.8745 28.5824 71.6926 28.6975 71.4814 28.7782C71.2701 28.8587 71.0354 28.899 70.7774 28.899ZM70.3618 25.3071V28.899H69.6473V25.3071H70.3618ZM76.1757 27.0117V27.1968C76.1757 27.4681 76.1375 27.7124 76.0614 27.9295C75.9851 28.1449 75.8768 28.3283 75.7366 28.4796C75.5963 28.6309 75.4292 28.7469 75.2352 28.8274C75.0412 28.908 74.8256 28.9484 74.5883 28.9484C74.3546 28.9484 74.1399 28.908 73.9441 28.8274C73.7502 28.7469 73.5821 28.6309 73.4401 28.4796C73.2981 28.3283 73.1882 28.1449 73.1102 27.9295C73.0322 27.7124 72.9933 27.4681 72.9933 27.1968V27.0117C72.9933 26.7388 73.0322 26.4945 73.1102 26.279C73.1882 26.0636 73.2973 25.8802 73.4376 25.7289C73.5778 25.576 73.7449 25.4592 73.9389 25.3786C74.1347 25.298 74.3494 25.2577 74.5832 25.2577C74.8204 25.2577 75.0361 25.298 75.2301 25.3786C75.4241 25.4592 75.5911 25.576 75.7314 25.7289C75.8734 25.8802 75.9826 26.0636 76.0587 26.279C76.1367 26.4945 76.1757 26.7388 76.1757 27.0117ZM75.4534 27.1968V27.0068C75.4534 26.8111 75.4344 26.6392 75.3964 26.4912C75.3582 26.3415 75.3019 26.2158 75.2274 26.1138C75.1529 26.0118 75.0612 25.9354 74.9521 25.8843C74.8429 25.8317 74.72 25.8054 74.5832 25.8054C74.4447 25.8054 74.3216 25.8317 74.2142 25.8843C74.1086 25.9354 74.0186 26.0118 73.9441 26.1138C73.8696 26.2158 73.8124 26.3415 73.7727 26.4912C73.7345 26.6392 73.7155 26.8111 73.7155 27.0068V27.1968C73.7155 27.3909 73.7345 27.5627 73.7727 27.7124C73.8124 27.862 73.8696 27.9887 73.9441 28.0923C74.0203 28.1943 74.1122 28.2715 74.2195 28.3242C74.3269 28.3768 74.4498 28.4031 74.5883 28.4031C74.7269 28.4031 74.8499 28.3768 74.9573 28.3242C75.0646 28.2715 75.1547 28.1943 75.2274 28.0923C75.3019 27.9887 75.3582 27.862 75.3964 27.7124C75.4344 27.5627 75.4534 27.3909 75.4534 27.1968ZM79.8204 25.3071V28.899H79.1034L77.4953 26.4073V28.899H76.781V25.3071H77.4953L79.1086 27.8012V25.3071H79.8204ZM83.0547 28.3662V28.899H81.044V28.3662H83.0547ZM81.2621 25.3071V28.899H80.5478V25.3071H81.2621ZM82.7923 26.7897V27.3102H81.044V26.7897H82.7923ZM83.0469 25.3071V25.8424H81.044V25.3071H83.0469ZM85.5304 27.9665C85.5304 27.8974 85.5192 27.8357 85.4966 27.7815C85.4759 27.7256 85.4368 27.6754 85.3798 27.631C85.3243 27.585 85.2455 27.5405 85.1433 27.4978C85.0429 27.4534 84.913 27.4073 84.7536 27.3596C84.577 27.307 84.4124 27.2477 84.26 27.182C84.1076 27.1161 83.9734 27.0397 83.8574 26.9526C83.7431 26.8654 83.654 26.7651 83.5898 26.6515C83.5257 26.5365 83.4937 26.4032 83.4937 26.252C83.4937 26.1039 83.5266 25.969 83.5925 25.8474C83.66 25.7257 83.7553 25.6212 83.8782 25.534C84.0011 25.4453 84.1458 25.377 84.312 25.3293C84.4801 25.2816 84.6653 25.2577 84.868 25.2577C85.1485 25.2577 85.3909 25.3062 85.5953 25.4033C85.8014 25.5003 85.9608 25.6319 86.0734 25.798C86.1859 25.9641 86.2422 26.1508 86.2422 26.358H85.5304C85.5304 26.2462 85.5053 26.1474 85.4551 26.062C85.4066 25.9764 85.3321 25.909 85.2317 25.8597C85.1329 25.8103 85.0082 25.7857 84.8576 25.7857C84.7121 25.7857 84.5909 25.8062 84.4939 25.8474C84.3986 25.8884 84.3268 25.9444 84.2782 26.0151C84.2314 26.0858 84.2082 26.1647 84.2082 26.252C84.2082 26.3178 84.2246 26.3769 84.2575 26.4295C84.2904 26.4805 84.3397 26.529 84.4056 26.5751C84.4713 26.6195 84.5528 26.6614 84.6498 26.7009C84.7484 26.7388 84.8628 26.7766 84.9927 26.8144C85.2005 26.8736 85.3823 26.9394 85.5383 27.0117C85.6958 27.0841 85.8265 27.1663 85.9305 27.2584C86.0361 27.3505 86.115 27.4541 86.1668 27.5693C86.2206 27.6844 86.2474 27.8152 86.2474 27.9616C86.2474 28.1161 86.2154 28.2543 86.1513 28.376C86.0872 28.4977 85.9954 28.6013 85.8759 28.6868C85.7564 28.7724 85.6126 28.8373 85.4447 28.8817C85.2784 28.9261 85.0922 28.9484 84.8862 28.9484C84.7025 28.9484 84.5207 28.9253 84.3406 28.8792C84.1622 28.8315 84.0002 28.7609 83.8548 28.6671C83.7094 28.5717 83.5933 28.4516 83.5067 28.3069C83.4201 28.1605 83.3769 27.9895 83.3769 27.7938H84.0938C84.0938 27.9073 84.1128 28.0043 84.151 28.0849C84.1908 28.1639 84.2462 28.2288 84.3172 28.2798C84.3899 28.3291 84.4749 28.3653 84.5718 28.3883C84.6688 28.4113 84.7736 28.4229 84.8862 28.4229C85.0316 28.4229 85.1511 28.404 85.2446 28.3662C85.3399 28.3266 85.4109 28.2724 85.4577 28.2033C85.5061 28.1342 85.5304 28.0552 85.5304 27.9665ZM87.5593 25.3071V28.899H86.845V25.3071H87.5593ZM89.8818 25.8523L88.8036 28.899H88.0477L89.4609 25.3071H89.9442L89.8818 25.8523ZM90.7832 28.899L89.6999 25.8523L89.6349 25.3071H90.1207L91.5418 28.899H90.7832ZM90.7338 27.5643V28.0997H88.705V27.5643H90.7338Z" fill="#065286"/>
</g>
<defs>
<clipPath id="clip0_1641_1005">
<rect width="91" height="33.3667" fill="white" transform="translate(0.585938 0.584961)"/>
</clipPath>
</defs>
</svg>
