<svg width="300" height="178" viewBox="0 0 300 178" fill="none" xmlns="http://www.w3.org/2000/svg">
<g clip-path="url(#clip0_1641_845)">
<path d="M227.4 45.3172C234.456 39.4536 244.562 35.2109 254.144 34.2098C297.001 29.9193 285.893 93.5608 265.49 85.9337C255.002 82.0242 249.377 80.9276 238.317 80.2605C219.487 79.2121 209.953 59.857 227.4 45.3172Z" fill="#E5DBE2"/>
<path d="M14.4977 161.683C14.6407 161.921 14.5454 162.255 14.2594 162.398C14.021 162.541 13.6873 162.446 13.4966 162.208C8.58647 153.34 4.91574 143.758 2.6275 133.7C0.434611 123.975 -0.423476 113.773 0.196254 103.381C2.10312 73.014 16.4522 46.2703 38.1905 27.583C59.881 8.94347 88.9129 -1.68732 120.186 0.219547C142.543 1.55435 163.042 9.13413 179.918 21.0997C197.366 33.4466 210.999 50.4654 218.913 70.1061L218.961 70.2013C218.993 70.2332 219.009 70.2808 219.009 70.3444C221.535 76.1603 224.348 80.7371 227.828 84.0261C231.261 87.2676 235.408 89.2224 240.699 89.7947C240.985 89.7947 241.224 90.0805 241.176 90.3663C241.176 90.7003 240.89 90.8905 240.604 90.8905C235.074 90.2708 230.688 88.2687 227.065 84.8368C223.49 81.4516 220.582 76.7323 218.008 70.7735L217.96 70.6781L217.912 70.5827V70.5351C210.047 51.0851 196.555 34.2094 179.298 21.9578C162.565 10.1353 142.305 2.6508 120.138 1.316C89.1513 -0.543196 60.4054 9.94452 38.9056 28.4411C17.4057 46.9377 3.15189 73.3954 1.2927 103.428C0.672967 113.773 1.53106 123.832 3.72395 133.461C5.96451 143.425 9.63521 152.912 14.4977 161.683Z" fill="#E5DBE2"/>
<path d="M114.177 3.03223C159.322 3.03223 198.222 29.6807 216.051 68.1039C216.083 68.1674 216.114 68.231 216.147 68.2946C221.962 80.0218 228.541 86.6961 239.315 87.1729C269.729 88.5553 295.138 102.523 295.138 137.18C295.138 151.863 288.846 165.068 278.739 174.268C192.073 174.268 106.073 174.268 18.6909 174.268C8.0602 157.107 1.95825 136.894 1.95825 115.251C1.95825 53.278 52.2041 3.03223 114.177 3.03223Z" fill="#E5DBE2"/>
<path d="M121.566 68.8193C123.187 69.3278 124.442 70.1382 125.332 71.2506C126.667 72.9191 130.052 78.735 131.1 80.4992C132.149 82.2629 121.852 93.37 121.28 90.7482C120.93 88.9687 121.026 81.6589 121.566 68.8193Z" fill="white"/>
<path d="M194.032 92.8449C194.032 95.8962 186.166 111.199 182.734 116.872C179.349 122.544 170.244 125.167 164.857 120.542C161.234 117.491 161.186 112.581 164.714 105.812C170.435 93.3533 174.789 84.868 177.776 80.3554C180.795 75.8422 184.196 73.3951 187.978 73.0137C192.014 84.2325 194.032 90.8428 194.032 92.8449Z" fill="white"/>
<path d="M184.35 114.106C183.73 115.155 183.206 116.108 182.729 116.872C181.967 118.159 180.87 119.303 179.631 120.256C178.931 118.254 177.358 117.539 174.911 118.111L165.138 120.352L165.329 118.921L162.421 113.916C162.469 113.916 179.488 113.963 184.35 114.106Z" fill="#E5DBE2"/>
<path d="M105.402 37.498L105.354 63.0022C105.354 66.3869 103.638 67.3404 101.874 69.9146C100.794 72.6796 100.079 74.1256 99.7294 74.2527C97.3934 75.2062 84.5218 67.3404 85.2371 61.2384L87.7634 39.5002C88.4313 33.9703 89.7655 27.3916 95.2958 27.3916C100.873 27.3916 105.402 31.9204 105.402 37.498Z" fill="#FFC5B0"/>
<path d="M105.403 37.4989L105.356 59.5232C103.974 60.8103 101.733 62.6695 100.398 63.1939C99.206 63.6229 97.7281 63.7183 96.3458 63.5276C94.9634 63.3369 93.581 62.9078 92.5326 62.1451C91.3879 61.2871 88.0508 58.2361 85.8102 56.1862L87.765 39.5011C88.4321 33.9713 89.7671 27.3926 95.2973 27.3926C100.875 27.3926 105.403 31.9214 105.403 37.4989Z" fill="#EE8B83"/>
<path d="M68.6062 68.2469C70.958 67.3571 75.8523 65.5615 83.2887 62.8601L85.4345 59.4277L99.2589 65.8634L101.261 70.2968L102.215 65.482L105.361 63.1938L106.982 64.8146C109.985 65.625 117.47 67.4366 121.569 68.819C122.618 74.5396 127.194 100.044 127.194 101.76C127.194 103.063 126.512 105.828 125.145 110.055L122.571 128.599C123.524 130.316 123.524 131.984 122.952 134.654L128.434 174.269C109.794 174.269 85.3389 174.269 66.6993 174.269L73.7071 139.039C72.1816 135.543 72.4517 133.271 74.5175 132.222L65.6982 103.476C71.8478 91.9874 72.7536 83.788 66.3656 69.1527C67.1761 68.7713 67.9388 68.4853 68.6062 68.2469Z" fill="white"/>
<path d="M78.5707 103.285L84.0529 113.201C86.8816 117.078 90.4413 118.779 94.7313 118.302L98.5926 122.449C108.954 121.655 114.356 121.209 114.801 121.115C115.134 121.019 119.664 120.59 123.716 120.256L122.571 128.599L113.943 131.221C114.166 133.636 113.529 135.289 112.036 136.179C110.542 137.037 99.8637 141.438 80.0005 149.383C76.5367 150.241 73.2951 152.593 70.2759 156.439L73.7083 139.039C72.1828 135.543 72.4529 133.27 74.5187 132.222L69.5609 116.109L78.5707 103.285Z" fill="#EFE9ED"/>
<path d="M99.7792 74.2519L98.8729 69.3418L101.256 70.2952L101.638 70.4859L104.212 71.487C107.867 91.0008 109.727 101.138 109.79 101.901C109.885 102.807 108.598 114.534 108.122 118.729L107.454 118.872C107.327 118.587 107.2 118.332 107.072 118.11C106.66 117.347 106.024 117.013 105.166 117.109C105.023 117.156 104.593 117.204 104.022 117.252L105.118 102.807L99.7792 74.2519ZM108.646 132.268L111.22 174.124H105.166L103.164 133.508C105.356 132.983 107.263 132.554 108.646 132.268Z" fill="#665C80"/>
<path d="M106.979 64.8146L105.358 63.1938L102.212 65.482L101.259 70.2969L83.2863 62.8601L85.4313 59.4277L99.2566 65.8634L101.259 70.2969L106.979 64.8146Z" fill="white"/>
<path d="M111.272 174.46C111.129 174.46 111.081 174.365 111.034 174.269L107.745 120.21C108.412 114.251 109.699 102.809 109.604 101.904C109.461 100.855 104.408 73.6347 104.027 71.6325L101.214 70.536L99.1634 69.678L105.313 102.762C105.313 102.794 105.313 102.826 105.313 102.857L103.263 130.316L105.409 174.126C105.409 174.222 105.313 174.317 105.218 174.317C105.075 174.365 104.979 174.269 104.979 174.126L102.834 130.316L104.885 102.809L98.6873 69.4872L83.1939 63.0516C83.0984 63.0039 83.051 62.9086 83.0984 62.8132C83.1458 62.6702 83.2413 62.6226 83.3368 62.6702L101.214 70.0593L106.839 64.6725C106.934 64.5771 107.03 64.5771 107.125 64.6725C107.22 64.7677 107.22 64.9108 107.125 65.0062L101.691 70.25L104.312 71.2511C104.375 71.2829 104.424 71.3464 104.455 71.4418C104.646 72.6336 109.89 100.76 110.033 101.904C110.128 103 108.221 119.542 108.174 120.21L111.463 174.269C111.463 174.365 111.415 174.46 111.272 174.46ZM127.194 101.999C127.099 101.999 127.004 101.904 127.004 101.761C127.004 100.045 122.332 74.0637 121.378 68.8676C121.331 68.7245 121.427 68.6291 121.569 68.6291C121.665 68.5815 121.76 68.6768 121.808 68.7722C122.713 73.9683 127.433 99.9972 127.433 101.761C127.433 101.904 127.337 101.999 127.194 101.999Z" fill="#E5DBE2"/>
<path d="M83.9566 44.4119C80.0005 46.3188 78.7606 39.8355 78.8083 38.024C78.9037 36.2125 80.5721 34.0195 81.716 34.0195C82.4471 34.0513 83.2895 34.7188 84.2431 36.0218C86.6897 40.3757 86.595 43.1725 83.9566 44.4119Z" fill="#FFC5B0"/>
<path d="M85.3397 38.2141C85.4826 38.3572 85.4826 38.5955 85.3871 38.6909C85.2916 38.8338 85.1487 38.8339 85.0058 38.7385C83.8934 42.3298 83.0984 43.7917 82.6224 43.1243C81.9071 42.1709 81.1445 41.2174 81.0016 39.7873C80.8579 38.3572 82.2411 37.2131 81.859 36.784C81.4776 36.4026 80.9534 36.8793 80.9061 36.927H80.8579C80.4766 37.356 80.2382 37.8804 80.2382 37.8804C80.1434 38.0711 79.9997 38.0711 79.8568 37.9758C79.714 37.8804 79.6666 37.6421 79.7621 37.4991C79.7621 37.4991 80.6676 35.4968 82.1929 35.7828C83.6234 36.0213 85.3397 38.2141 85.3397 38.2141Z" fill="#EE8B83"/>
<path d="M111.223 39.5962C112.495 38.5792 113.481 38.166 114.179 38.3567C115.276 38.595 116.372 41.1216 115.943 42.9331C115.562 44.697 112.606 50.6083 109.317 47.7957C107.092 45.8888 107.728 43.1556 111.223 39.5962Z" fill="#EE8B83"/>
<path d="M101.74 17.5239C121.19 20.3842 116.328 35.4008 112.943 47.6047C112.022 51.0053 110.48 53.6113 108.319 55.4228C105.49 58.1242 103.409 59.7291 102.074 60.2376C100.835 60.7144 99.4042 60.8097 97.9744 60.619C96.5921 60.4284 95.2097 59.9516 94.1605 59.1889C92.8255 58.2354 88.4881 54.1834 86.4379 52.2765C83.8634 49.8452 83.1481 47.414 83.1481 43.6479C83.0534 30.9673 82.1952 15.188 101.74 17.5239Z" fill="#FFC5B0"/>
<path d="M113.983 21.0999C116.415 24.2462 116.844 28.346 116.319 32.7317C109.582 33.2402 101.001 30.364 90.5771 24.1032L88.6697 23.4358C89.8618 19.1454 104.354 20.0035 113.983 21.0999Z" fill="#FFA89E"/>
<path d="M118.616 28.251C119.236 33.2565 116.757 37.4039 114.898 40.0735C115.597 34.5754 115.597 31.3814 114.898 30.4916C114.199 29.5699 115.438 28.823 118.616 28.251Z" fill="#4D456C"/>
<path d="M81.9576 34.7802C81.2905 34.3988 80.5437 34.669 79.7171 35.5906C79.8126 30.6804 78.6684 20.86 83.2453 17.9521C80.4324 15.4731 83.0068 9.56188 85.7716 14.9488C89.6803 0.647334 109.035 8.03646 117.473 15.1395C120.953 3.26927 134.206 25.2935 118.093 30.5374C110.561 32.9687 100.311 28.0108 93.0655 25.3412C93.0332 25.3412 93.0016 25.3412 92.97 25.3412C92.9226 25.2935 92.97 25.3889 92.97 25.4365C92.8745 30.1083 89.9187 33.5883 86.01 35.6859C85.7242 38.1331 84.7705 40.0558 83.1497 41.4542C82.991 37.3862 82.5932 35.1615 81.9576 34.7802Z" fill="#4D456C"/>
<path d="M100.925 13.8535C106.502 18.8113 126.19 24.6749 124.712 15.4743C126.381 19.002 126.667 24.2459 122.901 27.7736C110.698 29.2673 103.372 24.6272 100.925 13.8535Z" fill="#524973"/>
<path d="M203.994 50.7514L213.337 51.4665C214.719 51.5619 215.769 52.7537 215.626 54.1361L214.481 69.4386C214.481 69.5817 214.481 72.6327 218.819 74.0151L205.805 89.2696L195.222 72.2513C198.273 71.7428 199.926 70.4398 200.18 68.3422L201.324 53.0397C201.419 51.6572 202.659 50.6561 203.994 50.7514Z" fill="#FFC5B0"/>
<path d="M203.991 50.7514L213.335 51.4665C214.717 51.5618 215.766 52.7536 215.623 54.1361L214.479 69.4386C214.479 69.4863 214.479 69.82 214.622 70.2967C212.715 71.6316 210.093 73.4431 208.901 73.9674C207.71 74.4918 206.279 74.6349 204.897 74.5395C203.467 74.3965 202.084 74.0151 201.036 73.3477C200.416 72.9187 199.367 72.0606 198.318 71.0595C199.431 70.265 200.05 69.3592 200.177 68.3422L201.321 53.0396C201.417 51.6572 202.656 50.656 203.991 50.7514Z" fill="#EE8B83"/>
<path d="M217.577 73.5388C220.58 74.6829 224.107 75.541 229.113 78.5919C228.017 81.9287 227.874 92.1303 229.494 101.332L223.487 123.498C224.028 123.944 224.06 124.5 223.583 125.167C224.537 137.418 230.877 144.951 230.496 174.269H171.859C172.622 159.825 180.726 136.656 182.776 122.069C182.427 121.369 182.537 120.829 183.11 120.448L181.012 100.95C179.725 95.4674 182.061 87.3635 187.972 73.0144L196.601 71.918C200.128 80.165 205.229 80.3079 217.577 73.5388Z" fill="#524973"/>
<path d="M195.655 174.459C195.56 174.459 195.464 174.412 195.464 174.269C194.416 164.305 195.512 151.958 196.513 141.042C196.99 135.845 197.419 130.935 197.657 126.645C197.657 126.502 197.752 126.406 197.848 126.454C197.991 126.454 198.086 126.549 198.039 126.645C197.848 130.983 197.419 135.893 196.942 141.042C195.941 151.958 194.845 164.305 195.846 174.221C195.893 174.364 195.798 174.459 195.655 174.459ZM182.498 174.459C182.402 174.459 182.307 174.364 182.307 174.269C182.068 165.926 183.594 156.535 185.072 147.477C186.598 138.42 188.123 129.076 187.837 120.972C187.789 120.876 187.885 120.781 188.027 120.781C188.123 120.781 188.218 120.829 188.218 120.972C188.552 129.076 187.026 138.467 185.501 147.525C184.023 156.582 182.498 165.926 182.736 174.269C182.736 174.364 182.641 174.459 182.498 174.459ZM210.528 174.459C210.385 174.459 210.29 174.364 210.29 174.269C210.051 167.213 209.241 160.158 208.431 153.388C207.716 147 206.953 140.469 206.667 133.796C206.62 133.652 206.715 133.557 206.858 133.557C207.001 133.557 207.048 133.652 207.048 133.748C207.382 140.422 208.145 147 208.86 153.341C209.67 160.11 210.481 167.165 210.719 174.269C210.719 174.364 210.624 174.459 210.528 174.459ZM223.304 174.459C223.161 174.459 223.066 174.364 223.066 174.269C222.827 167.261 222.017 160.301 221.255 153.579C220.492 147.239 219.729 140.66 219.443 133.986C219.443 133.89 219.538 133.796 219.634 133.748C219.777 133.748 219.872 133.843 219.872 133.986C220.158 140.612 220.921 147.191 221.683 153.531C222.446 160.253 223.257 167.213 223.495 174.269C223.495 174.364 223.4 174.459 223.304 174.459Z" fill="#4D456C"/>
<path d="M217.578 73.5397C220.581 74.6838 224.109 75.5419 229.115 78.5929C228.018 81.93 227.875 92.1315 229.496 101.332L223.489 123.5C224.03 123.944 224.061 124.501 223.584 125.168C224.347 134.845 228.447 141.567 229.973 158.347C210.189 158.109 207.281 138.707 206.566 136.609C206.026 134.957 205.263 133.892 204.278 133.415C202.943 132.748 201.084 131.826 198.7 130.65C196.317 129.474 195.236 127.584 195.459 124.978L183.111 120.448L181.014 100.951C179.727 95.4686 182.063 87.3647 187.974 73.0154L196.603 71.9189C200.13 80.1663 205.231 80.3092 217.578 73.5397Z" fill="#4D456C"/>
<path d="M220.056 53.8501C219.738 57.0282 218.753 59.5865 217.101 61.5252C213.827 64.608 211.618 66.4989 210.474 67.1981C209.473 67.7702 208.186 68.1038 206.899 68.1515C205.612 68.1992 204.277 68.0086 203.228 67.4842C202.021 66.9121 199.669 65.2118 196.172 62.3833C194.361 60.5718 193.169 58.0928 192.598 54.9466C190.547 43.7437 187.306 29.8713 205.278 28.8702C223.251 28.3935 221.2 42.5043 220.056 53.8501Z" fill="#FFC5B0"/>
<path d="M220.053 53.85C219.735 57.0282 218.75 59.5865 217.097 61.5252C213.824 64.608 211.615 66.4989 210.471 67.1981C209.47 67.7702 208.183 68.1038 206.896 68.1515C206.578 68.1515 206.26 68.1515 205.942 68.1515C206.133 67.6748 206.705 67.2934 207.754 67.0074C213.665 65.4819 217.479 56.6627 217.383 53.2303C217.288 49.798 216.382 38.7859 209.136 37.022C204.337 35.8144 200.126 36.4817 196.503 39.0242C195.041 38.039 193.596 36.9743 192.165 35.8302C193.881 32.0165 197.695 29.2992 205.275 28.8702C223.247 28.3935 221.197 42.5043 220.053 53.85Z" fill="#FFA89E"/>
<path d="M207.566 30.1584C209.568 30.5397 220.723 42.3622 212.524 37.4521C207.089 34.2104 202.148 34.4011 197.698 38.0242L196.221 34.4965C200.177 29.9677 205.612 29.777 207.566 30.1584Z" fill="#4D456C"/>
<path d="M219.533 119.303C220.423 115.395 222.377 113.646 225.396 114.06C224.11 104.525 223.538 84.5033 229.115 78.5918C235.376 82.2786 238.491 87.1093 238.459 93.0841C238.411 104.859 235.693 108.72 237.934 121.067C242.511 146.238 210.952 153.626 211.382 134.94L219.533 119.303Z" fill="white"/>
<path d="M224.728 107.29C224.108 97.0883 224.632 83.3112 229.113 78.5918C230.765 79.577 232.403 80.9593 234.024 82.7388C233.07 82.453 232.243 83.8196 231.545 86.8386C230.638 90.9865 230.687 102.761 224.728 107.29Z" fill="#E5DBE2"/>
<path fill-rule="evenodd" clip-rule="evenodd" d="M219.865 35.0211C224.442 44.8414 224.109 54.6141 221.391 63.767C222.726 64.6727 223.059 65.8645 223.393 68.7725C223.616 70.7429 224.252 72.6021 225.3 74.35C227.271 74.8268 228.955 76.2887 230.353 78.7358C233.023 79.5936 234.406 80.4999 234.643 83.4557L233.357 82.0251C231.212 80.4999 229.4 91.6551 226.111 98.9483C222.869 106.29 215.432 110.58 207.376 112.392C199.319 114.156 194.838 107.768 190.547 104.669C187.687 102.604 185.065 101.46 182.682 101.237C178.423 103.144 176.072 102.731 175.626 99.9975C174.959 95.8496 173.72 87.6983 176.866 81.2151C180.012 74.7791 186.019 70.8223 187.878 64.9588C189.737 59.0952 189.689 45.5564 191.548 37.5953C194.886 23.2938 213.573 21.5777 219.865 35.0211ZM194.076 57.2837C195.553 61.3357 200.177 66.4843 204.992 67.0563C205.468 67.1199 205.929 67.1199 206.375 67.0563C206.852 67.0881 207.312 67.0722 207.757 67.0086C212.524 66.2459 216.719 60.9543 217.911 56.8546C219.865 49.8469 215.814 41.9334 211.761 36.3558C209.759 33.6385 207.471 31.6363 205.087 31.5887C205.056 31.5887 205.008 31.5887 204.944 31.5887C204.913 31.5887 204.881 31.6045 204.849 31.6363C202.465 31.7317 200.32 33.7816 198.557 36.5942C194.934 42.3148 191.501 50.3713 194.076 57.2837Z" fill="#665C80"/>
<path d="M217.91 56.8551C216.718 60.9548 212.523 66.2463 207.756 67.0091C207.311 67.0727 206.85 67.0885 206.373 67.0568C205.928 67.1203 205.468 67.1203 204.991 67.0568C200.557 66.4847 196.219 62.0513 194.455 58.1899C194.297 58.2534 194.058 58.1104 193.74 57.7608C195.028 61.3362 196.743 63.9104 198.412 65.8173C213.38 83.0744 220.198 59.191 220.341 46.6533C219.896 49.4501 218.958 49.6885 217.528 47.3684C218.482 50.5147 218.768 53.7564 217.91 56.8551Z" fill="#4D456C"/>
<path d="M201.08 104.907C199.522 104.907 197.981 104.573 196.456 103.906C196.392 103.906 196.344 103.89 196.312 103.858C193.213 102.475 190.115 99.758 187.064 95.7538C187.016 95.6583 187.016 95.5154 187.112 95.4207C187.207 95.3725 187.35 95.3725 187.398 95.468C190.401 99.4722 193.452 102.142 196.503 103.476C196.535 103.476 196.551 103.476 196.551 103.476C204.178 103.476 210.376 93.4659 215.334 85.4567C219.052 79.4504 222.246 74.2541 225.297 74.1111C225.392 74.1111 225.487 74.2065 225.487 74.3495C225.487 74.4448 225.44 74.5401 225.297 74.5401C222.484 74.6832 219.338 79.7844 215.667 85.6478C210.852 93.4659 204.941 103.095 197.504 103.858C198.712 104.271 199.903 104.478 201.08 104.478C201.111 104.478 201.127 104.478 201.127 104.478C209.422 104.43 216.429 94.9438 222.007 87.3641C225.392 82.7393 228.109 79.0691 230.302 78.5446C230.398 78.4969 230.541 78.5922 230.541 78.6876C230.588 78.8306 230.541 78.926 230.398 78.9736C228.347 79.4504 225.583 83.2162 222.341 87.6025C216.716 95.277 209.661 104.86 201.127 104.907C201.127 104.907 201.111 104.907 201.08 104.907ZM191.736 94.1812C191.688 94.1812 191.593 94.1812 191.593 94.0857C188.732 89.2233 187.922 81.4051 187.779 74.7785C187.747 74.7149 187.747 74.6673 187.779 74.6355C187.684 68.1045 188.256 62.7653 188.256 62.6699C188.256 62.5746 188.351 62.4792 188.494 62.4792C188.589 62.4792 188.685 62.6223 188.685 62.7176C188.638 62.813 188.065 68.1522 188.208 74.6832C190.497 80.9757 194.024 84.1225 198.648 84.1225C207.658 84.1225 218.194 71.8229 221.197 63.7187C221.197 63.5757 221.34 63.528 221.436 63.5757C221.578 63.6234 221.626 63.7187 221.578 63.8617C218.527 72.1089 207.849 84.5512 198.648 84.5512C198.648 84.5512 198.632 84.5512 198.601 84.5512C194.12 84.5512 190.592 81.6436 188.256 75.9703C188.447 82.2151 189.305 89.3662 191.927 93.8946C191.974 93.9901 191.974 94.133 191.879 94.1812C191.847 94.1812 191.799 94.1812 191.736 94.1812ZM196.36 61.9072C196.296 61.9072 196.249 61.8754 196.217 61.8118C191.354 56.4726 190.067 46.3186 190.02 46.2233C190.02 46.1279 190.115 46.0325 190.21 45.9849C190.353 45.9849 190.449 46.0802 190.449 46.1756C190.497 46.271 191.736 56.282 196.503 61.5258C196.599 61.6212 196.599 61.7641 196.503 61.8595C196.472 61.8913 196.423 61.9072 196.36 61.9072ZM218.67 54.5181C218.67 54.5181 218.654 54.5022 218.623 54.4704C218.527 54.4704 218.432 54.3275 218.48 54.2321C221.626 44.0304 220.101 36.1169 220.101 36.0692C220.053 35.9262 220.148 35.8309 220.243 35.7832C220.386 35.7832 220.482 35.8309 220.529 35.9739C220.529 36.0215 222.055 44.0304 218.908 54.3274C218.861 54.4228 218.766 54.5181 218.67 54.5181Z" fill="#4D456C"/>
<path d="M155.082 86.458L124.238 84.9801C124.175 84.9801 124.127 84.9485 124.095 84.8846C124.048 84.7891 124.048 84.6943 124.143 84.5988L130.769 79.2114C130.832 79.1799 130.881 79.1641 130.912 79.1641H155.082H179.251C179.315 79.1641 179.362 79.1799 179.395 79.2114L186.068 84.5988C186.132 84.6304 186.163 84.6777 186.163 84.7417C186.163 84.8846 186.068 84.9801 185.925 84.9801L155.129 86.458H155.082Z" fill="#745977"/>
<path d="M124.186 84.4736H185.825C185.968 84.4736 186.063 84.5692 186.063 84.6647V84.7121V116.795C186.063 116.89 185.968 116.986 185.825 116.986H124.186C124.043 116.986 123.947 116.89 123.947 116.795V84.6647C123.947 84.5692 124.043 84.4736 124.186 84.4736Z" fill="#9E6E82"/>
<path d="M141.044 95.3685H143.166C143.857 95.3685 144.375 95.554 144.72 95.9243C145.065 96.2946 145.238 96.8377 145.238 97.5538V102.025C145.238 102.741 145.065 103.285 144.72 103.655C144.375 104.025 143.857 104.211 143.166 104.211H141.044V95.3685ZM143.141 102.947C143.368 102.947 143.541 102.88 143.659 102.745C143.785 102.61 143.848 102.392 143.848 102.088V97.4906C143.848 97.1874 143.785 96.9688 143.659 96.8338C143.541 96.6988 143.368 96.6317 143.141 96.6317H142.434V102.947H143.141ZM148.184 104.337C147.502 104.337 146.98 104.143 146.618 103.756C146.256 103.368 146.075 102.821 146.075 102.114V97.4653C146.075 96.758 146.256 96.2109 146.618 95.8232C146.98 95.4356 147.502 95.2422 148.184 95.2422C148.866 95.2422 149.388 95.4356 149.751 95.8232C150.113 96.2109 150.294 96.758 150.294 97.4653V102.114C150.294 102.821 150.113 103.368 149.751 103.756C149.388 104.143 148.866 104.337 148.184 104.337ZM148.184 103.074C148.664 103.074 148.904 102.783 148.904 102.202V97.3769C148.904 96.7959 148.664 96.5053 148.184 96.5053C147.704 96.5053 147.464 96.7959 147.464 97.3769V102.202C147.464 102.783 147.704 103.074 148.184 103.074ZM151.233 95.3685H152.976L154.328 100.661H154.353V95.3685H155.591V104.211H154.164L152.496 97.7559H152.471V104.211H151.233V95.3685ZM157.697 95.3685H159.579L161.019 104.211H159.63L159.377 102.455V102.48H157.798L157.546 104.211H156.257L157.697 95.3685ZM159.213 101.28L158.594 96.9096H158.569L157.963 101.28H159.213ZM162.201 96.6317H160.748V95.3685H165.043V96.6317H163.59V104.211H162.201V96.6317ZM165.715 95.3685H169.505V96.6317H167.105V98.9685H169.012V100.232H167.105V102.947H169.505V104.211H165.715V95.3685Z" fill="#4D456C"/>
<path d="M144.783 81.4043H165.426C165.616 81.4043 165.807 81.5472 165.807 81.7856C165.807 82.024 165.616 82.1669 165.426 82.1669H144.783C144.593 82.1669 144.402 82.024 144.402 81.7856C144.402 81.5472 144.593 81.4043 144.783 81.4043Z" fill="#4D456C"/>
<path fill-rule="evenodd" clip-rule="evenodd" d="M132.53 86.8369H177.675C177.866 86.8369 177.961 86.9798 177.961 87.1227C177.961 88.6961 178.581 90.0785 179.63 91.0795C180.631 92.0806 182.013 92.7003 183.538 92.7003C183.729 92.7003 183.872 92.8432 183.872 93.0343V108.622C183.872 108.765 183.729 108.909 183.538 108.909C182.013 108.909 180.631 109.529 179.63 110.53C178.581 111.531 177.961 112.961 177.961 114.486C177.961 114.63 177.866 114.772 177.675 114.772H132.53C132.34 114.772 132.197 114.63 132.197 114.486C132.197 112.961 131.577 111.531 130.576 110.53C129.575 109.529 128.192 108.909 126.619 108.909C126.476 108.909 126.332 108.765 126.332 108.622V93.0343C126.332 92.8432 126.476 92.7003 126.619 92.7003C128.192 92.7003 129.575 92.0806 130.576 91.0795C131.577 90.0785 132.197 88.6961 132.197 87.1227C132.197 86.9798 132.34 86.8369 132.53 86.8369ZM177.389 87.4566H132.816C132.721 89.0293 132.054 90.4598 131.005 91.5082C129.956 92.5574 128.526 93.2245 126.952 93.3201V108.337C128.526 108.384 129.956 109.052 131.005 110.1C132.054 111.197 132.721 112.627 132.816 114.2H177.389C177.484 112.627 178.152 111.197 179.2 110.1C180.249 109.052 181.679 108.384 183.253 108.337V93.3201C181.679 93.2245 180.249 92.5574 179.2 91.5082C178.152 90.4598 177.484 89.0293 177.389 87.4566Z" fill="#4D456C"/>
<path d="M201.703 126.548C201.639 124.482 201.957 122.623 202.655 120.971C203.705 118.444 208.519 123.068 208.186 123.926C207.899 124.736 204.753 127.692 204.182 127.835C203.609 127.978 202.655 128.169 202.417 127.882C202.179 127.645 201.846 127.358 201.703 126.548Z" fill="#E5DBE2"/>
<path d="M187.451 109.578C186.116 108.72 184.304 105.193 186.163 104.049C186.418 103.953 186.609 104.001 186.736 104.192C186.974 104.525 188.738 107.242 190.693 107.862C192.647 108.482 195.745 108.482 196.747 108.673C197.7 108.816 199.035 108.768 201.228 110.198C202.69 111.183 205.137 112.979 208.569 115.585L206.376 123.832L200.942 120.686C200.338 120.4 199.623 120.257 198.797 120.257C197.557 120.209 193.362 120.352 192.361 120.4C191.36 120.448 190.216 120.114 188.738 118.827C183.367 118.159 180.411 117.762 179.871 117.635C179.299 117.508 178.981 117.238 178.918 116.825C177.774 116.761 177.106 116.729 176.916 116.729C176.582 116.681 176.677 114.727 178.155 114.441C177.487 111.056 185.258 110.198 187.451 109.578Z" fill="#FFC5B0"/>
<path d="M207.233 114.536C207.773 114.949 208.218 115.299 208.567 115.585L206.375 123.832L203.372 122.116C207.185 119.684 207.233 115.346 207.233 114.536Z" fill="#FFA89E"/>
<path d="M191.789 119.399L188.691 119.065C188.596 119.065 188.5 118.922 188.5 118.826C188.548 118.684 188.643 118.635 188.739 118.635L191.837 118.969C191.933 118.969 192.028 119.112 192.028 119.208C192.028 119.303 191.933 119.399 191.789 119.399ZM188.5 117.158L178.918 117.063C178.776 117.063 178.68 116.967 178.68 116.824C178.68 116.729 178.823 116.633 178.918 116.633L188.5 116.729C188.596 116.729 188.691 116.872 188.691 116.967C188.691 117.063 188.596 117.158 188.5 117.158ZM178.633 114.822C178.108 114.822 177.965 114.584 177.965 114.536C177.917 114.441 177.965 114.298 178.06 114.25C178.156 114.203 178.299 114.25 178.346 114.345C178.346 114.393 178.537 114.441 178.918 114.393C179.538 114.298 186.117 113.392 189.549 113.106C189.692 113.106 189.787 113.201 189.787 113.296C189.787 113.44 189.692 113.535 189.597 113.535C186.164 113.821 179.586 114.727 178.966 114.822C178.839 114.822 178.727 114.822 178.633 114.822ZM187.452 109.816C187.356 109.816 187.261 109.721 187.213 109.626C187.213 109.483 187.308 109.388 187.404 109.388C187.499 109.34 189.311 109.054 190.312 109.245C190.455 109.245 190.502 109.388 190.502 109.483C190.455 109.626 190.359 109.673 190.264 109.673C189.311 109.483 187.499 109.769 187.499 109.769C187.468 109.8 187.452 109.816 187.452 109.816Z" fill="#EE8B83"/>
<path d="M207.136 114.489C207.454 114.299 207.771 114.266 208.089 114.393C208.566 114.537 217.004 118.923 217.814 119.208C218.625 119.542 219.197 119.4 219.531 119.304C220.833 120.543 221.326 122.514 221.008 125.216C220.532 129.315 216.098 133.748 211.378 134.94C210.87 133.574 209.964 132.525 208.661 131.794C206.754 130.698 203.99 129.22 203.227 128.838C202.416 128.457 201.844 127.885 201.701 126.55C202.082 128.171 202.941 127.456 203.608 126.55C204.657 125.12 206.135 122.26 206.993 119.4C207.787 116.666 207.835 115.03 207.136 114.489Z" fill="white"/>
<path d="M211.38 135.131C211.333 135.131 211.237 135.083 211.19 134.988C211.19 134.893 211.237 134.749 211.333 134.749C216.005 133.558 220.343 129.172 220.772 125.215C221.248 121.306 219.389 119.447 219.389 119.447C219.294 119.351 219.294 119.208 219.341 119.161C219.437 119.065 219.579 119.065 219.675 119.114C219.723 119.208 221.725 121.116 221.2 125.263C220.724 129.363 216.243 133.892 211.475 135.131C211.444 135.131 211.412 135.131 211.38 135.131ZM234.883 120.543C234.787 120.543 234.74 120.496 234.692 120.448C231.593 114.823 225.444 114.299 225.396 114.299C225.253 114.299 225.157 114.156 225.157 114.06C225.205 113.965 225.3 113.869 225.396 113.869C225.444 113.869 227.636 114.06 230.115 115.395C230.258 115.395 232.832 115.681 234.024 115.347C234.167 115.3 234.263 115.347 234.31 115.49C234.358 115.585 234.263 115.681 234.167 115.728C233.309 116.015 231.879 115.967 230.973 115.871C232.451 116.825 233.929 118.207 235.073 120.258C235.121 120.353 235.073 120.496 234.977 120.543C234.946 120.543 234.914 120.543 234.883 120.543Z" fill="#E5DBE2"/>
<path d="M117.751 121.686C118.291 122.671 117.925 123.991 116.654 125.643L107.024 129.6L104.402 119.446L116.13 117.205C116.702 119.207 117.242 120.701 117.751 121.686Z" fill="#FFC5B0"/>
<path d="M111.083 127.932L107.031 129.6L104.743 120.638L106.411 119.065L108.366 118.684C109.176 119.923 110.987 123.165 111.083 127.932Z" fill="#FFA89E"/>
<path d="M136.723 119.304C138.725 119.591 139.059 122.117 137.247 122.165C136.071 122.197 131.733 122.61 124.232 123.405C126.14 120.019 134.768 119.018 136.723 119.304Z" fill="#FFA89E"/>
<path d="M138.87 116.157C140.872 115.966 141.873 118.398 140.157 118.779C139.013 119.065 134.913 120.4 127.858 122.783C128.811 119.113 136.915 116.3 138.87 116.157Z" fill="#FFC5B0"/>
<path d="M114.801 118.255C115.278 116.873 117.185 114.68 118.663 113.536C120.093 112.392 120.903 109.389 120.856 108.435C120.76 107.529 120.141 106.719 121.333 106.528C122.572 106.337 123.478 106.814 123.906 108.292C124.383 109.77 123.573 113.727 123.906 114.299C124.288 114.823 124.764 115.205 126.385 114.585C128.054 113.917 137.493 108.816 139.495 108.626C141.497 108.483 141.831 109.913 141.163 110.39C140.687 110.675 138.399 112.074 134.299 114.585C139.304 113.25 142.022 113.203 143.118 113.441C144.215 113.679 144.596 114.775 142.928 115.348C141.212 115.872 138.828 116.444 136.873 117.541C134.966 118.636 128.817 122.642 124.574 124.31C121.857 125.359 118.663 125.597 116.661 125.645L114.801 118.255Z" fill="#FFC5B0"/>
<path d="M116.658 125.835C116.515 125.835 116.42 125.739 116.42 125.644C116.42 125.549 116.515 125.453 116.658 125.406C118.803 125.406 121.902 125.119 124.476 124.118C127.765 122.831 132.246 120.114 134.916 118.493C135.679 118.016 136.346 117.635 136.776 117.349C137.872 116.73 139.112 116.3 139.922 116.014C140.064 116.014 140.16 116.062 140.207 116.157C140.256 116.3 140.207 116.396 140.064 116.443C139.254 116.681 138.062 117.158 136.966 117.731C136.537 117.969 135.917 118.398 135.107 118.875C132.437 120.495 127.956 123.213 124.667 124.5C121.997 125.549 118.803 125.835 116.658 125.835ZM128.909 118.255C128.814 118.255 128.751 118.223 128.719 118.159C128.672 118.064 128.672 117.969 128.766 117.874L134.201 114.394C134.201 114.394 134.217 114.378 134.248 114.346C140.256 112.773 142.592 113.107 143.163 113.25C143.259 113.25 143.354 113.392 143.306 113.488C143.306 113.583 143.163 113.678 143.068 113.631C142.496 113.535 140.256 113.201 134.392 114.775L129.005 118.255C128.973 118.255 128.942 118.255 128.909 118.255ZM123.761 116.539C123.618 116.539 123.57 116.443 123.57 116.3L123.618 114.012C123.666 113.869 123.761 113.774 123.857 113.774C123.999 113.774 124.047 113.869 124.047 114.012V114.108C124.079 114.139 124.095 114.155 124.095 114.155C124.333 114.536 124.667 115.013 126.287 114.394C126.812 114.155 128.052 113.535 129.624 112.773C133.153 110.961 138.015 108.53 139.445 108.435C139.588 108.435 139.683 108.53 139.683 108.625C139.683 108.769 139.588 108.863 139.493 108.863C138.158 108.959 133.153 111.485 129.816 113.154C128.242 113.917 127.003 114.584 126.478 114.775C125.143 115.299 124.476 115.204 124.047 114.775L123.999 116.348C123.952 116.443 123.857 116.539 123.761 116.539Z" fill="#EE8B83"/>
<path d="M76.3763 93.274C77.9336 100.393 79.7613 108.831 81.8582 118.588C83.0029 118.079 83.8287 118.365 84.3371 119.446C97.3674 118.015 104.312 117.237 105.17 117.11C106.028 117.014 106.663 117.348 107.077 118.111C109.079 121.734 109.699 129.933 109.603 131.078C109.539 131.809 109.222 132.19 108.65 132.222C102.024 133.604 83.4797 138.752 75.5182 139.182C67.6048 139.563 65.1735 128.932 63.8863 121.877C62.5993 114.822 58.8332 104.715 56.9263 89.794C55.6233 79.8466 58.7696 72.9661 66.3653 69.1523C72.944 71.3453 74.8985 86.5524 76.3763 93.274Z" fill="white"/>
<path d="M97.256 118.017C101.213 117.588 104.646 117.207 105.17 117.112C106.028 117.016 106.663 117.35 107.077 118.113C109.079 121.736 109.699 129.935 109.603 131.079C109.539 131.81 109.222 132.191 108.65 132.224C106.648 132.652 103.596 133.415 100.069 134.273C100.101 128.298 99.1634 122.88 97.256 118.017Z" fill="#665C80"/>
<path d="M165.474 117.064H169.192C168.906 118.144 168.541 118.796 168.096 119.018C167.38 119.352 165.759 120.21 165.14 120.353C164.52 120.496 163.948 120.639 163.423 120.21C162.661 120.877 161.946 121.211 161.278 121.211C160.611 121.211 160.103 121.084 159.753 120.83C158.768 121.688 157.624 121.64 156.321 120.687C155.526 120.941 154.97 120.926 154.652 120.639C154.176 120.21 152.745 118.16 152.364 117.54C151.982 116.921 153.508 115.586 155.462 117.207C155.558 116.126 155.638 115.395 155.701 115.014C155.796 114.442 155.987 112.869 156.13 112.154C156.321 111.439 157.941 111.391 158.466 112.678C158.529 112.011 158.911 111.693 159.61 111.725C160.611 111.82 161.278 112.869 161.327 114.109C161.358 114.903 161.406 115.777 161.469 116.73C161.724 114.824 161.882 113.632 161.946 113.155C162.041 112.392 163.329 112.631 163.806 113.155C164.282 113.727 164.425 115.205 164.187 116.158L165.474 117.064Z" fill="#FFC5B0"/>
<path d="M159.755 121.068C159.66 121.068 159.612 121.02 159.565 120.925C159.517 120.782 158.421 117.779 158.278 117.254C158.134 116.682 158.134 115.919 158.134 115.919L158.278 112.63C158.278 112.534 158.372 112.439 158.468 112.439C158.611 112.439 158.706 112.534 158.659 112.678L158.563 115.919C158.563 115.919 158.563 116.635 158.706 117.111C158.849 117.636 159.946 120.734 159.946 120.782C159.993 120.877 159.946 121.02 159.85 121.02C159.819 121.052 159.787 121.068 159.755 121.068ZM156.323 120.925C156.227 120.925 156.18 120.877 156.132 120.782C156.084 120.686 155.512 119.113 155.322 118.446C155.179 117.779 155.226 117.206 155.226 117.159C155.226 117.063 155.322 116.968 155.465 116.968C155.56 116.968 155.655 117.063 155.655 117.206C155.655 117.206 155.608 117.73 155.751 118.35C155.893 118.97 156.513 120.591 156.513 120.639C156.561 120.734 156.513 120.877 156.418 120.877C156.386 120.909 156.355 120.925 156.323 120.925ZM163.426 120.4C163.363 120.4 163.314 120.369 163.283 120.305C163.236 120.258 162.091 118.637 161.662 117.969C161.233 117.302 161.281 116.729 161.281 116.729C161.281 116.587 161.376 116.491 161.471 116.491C161.614 116.539 161.709 116.635 161.709 116.729C161.709 116.729 161.71 117.159 162.043 117.779C162.425 118.398 163.617 120.067 163.617 120.067C163.664 120.162 163.664 120.305 163.569 120.352C163.537 120.385 163.49 120.4 163.426 120.4ZM166.858 118.35C166.795 118.35 166.747 118.334 166.716 118.303L166.286 117.969V118.017C166.286 118.16 166.191 118.255 166.096 118.255C165.952 118.303 165.857 118.16 165.857 118.064L165.809 117.636L165.332 117.254C165.238 117.159 165.238 117.063 165.285 116.968C165.381 116.872 165.523 116.825 165.571 116.92L166.953 117.969C167.049 118.017 167.097 118.16 167.001 118.255C166.97 118.319 166.922 118.35 166.858 118.35Z" fill="#EE8B83"/>
<path d="M139.204 79.1638H135.486C135.772 78.0833 136.153 77.4318 136.629 77.2093C137.297 76.8756 138.966 76.0175 139.585 75.9222C140.205 75.7792 140.729 75.5885 141.254 76.0175C142.048 75.3501 142.764 75.0164 143.399 75.0164C144.066 75.0482 144.575 75.1753 144.924 75.3978C145.91 74.5397 147.054 74.5874 148.357 75.5408C149.151 75.2865 149.708 75.3025 150.025 75.5885C150.502 76.0175 151.933 78.0674 152.314 78.6871C152.695 79.3067 151.17 80.6417 149.263 79.0209C149.136 80.1017 149.04 80.832 148.977 81.2141C148.881 81.8338 148.691 83.3591 148.547 84.0743C148.404 84.7888 146.736 84.837 146.212 83.5493C146.148 84.2172 145.783 84.5346 145.116 84.503C144.066 84.4075 143.399 83.3591 143.352 82.1196C143.319 81.3246 143.272 80.4506 143.208 79.4977C142.954 81.4043 142.795 82.5964 142.732 83.0733C142.637 83.8359 141.349 83.5975 140.873 83.0733C140.443 82.5009 140.253 81.023 140.539 80.0693L139.204 79.1638Z" fill="#FFC5B0"/>
<path d="M146.211 83.7874C146.115 83.7874 146.019 83.6918 146.019 83.5489L146.115 80.3074C146.115 80.3074 146.163 79.5921 146.019 79.1153C145.829 78.5909 144.733 75.4922 144.733 75.4446C144.685 75.3492 144.733 75.2539 144.876 75.2062C144.971 75.1586 145.067 75.2062 145.114 75.3015C145.162 75.4446 146.258 78.4478 146.402 78.9724C146.592 79.5439 146.544 80.3074 146.544 80.3074L146.449 83.5963C146.449 83.6918 146.353 83.7874 146.211 83.7874ZM143.207 79.735C143.064 79.735 143.016 79.5921 143.016 79.4966C143.016 79.4966 143.016 79.0679 142.635 78.4955C142.254 77.8282 141.11 76.1596 141.062 76.1596C141.014 76.0643 141.014 75.9213 141.11 75.8736C141.205 75.7782 141.348 75.8259 141.444 75.9213C141.491 75.969 142.635 77.5898 143.016 78.2572C143.446 78.9246 143.446 79.4966 143.446 79.4966C143.398 79.6395 143.303 79.735 143.207 79.735ZM139.203 79.3537C139.171 79.3537 139.139 79.3379 139.108 79.3063L138.535 78.8769L137.725 78.2572C137.63 78.2095 137.63 78.0665 137.677 77.9711C137.725 77.8758 137.868 77.8758 137.964 77.9235L138.392 78.2572V78.2095C138.392 78.0665 138.488 77.9711 138.631 77.9711C138.726 77.9711 138.821 78.0665 138.821 78.1618L138.869 78.5909L139.346 78.9724C139.441 79.0679 139.489 79.2108 139.393 79.2581C139.362 79.3221 139.298 79.3537 139.203 79.3537ZM149.262 79.2581C149.118 79.2581 149.023 79.1626 149.023 79.0197C149.023 79.0197 149.071 78.4955 148.928 77.8758C148.785 77.256 148.165 75.6353 148.165 75.5876C148.117 75.4922 148.165 75.3969 148.308 75.3492C148.404 75.3015 148.498 75.3492 148.547 75.4446C148.594 75.5399 149.214 77.1131 149.357 77.7805C149.499 78.4478 149.452 79.0197 149.452 79.0679C149.452 79.1626 149.357 79.2581 149.262 79.2581Z" fill="#EE8B83"/>
<path d="M164.901 159.442C165.665 159.442 166.284 158.824 166.284 158.06C166.284 157.297 165.665 156.678 164.901 156.678C164.138 156.678 163.519 157.297 163.519 158.06C163.519 158.824 164.138 159.442 164.901 159.442Z" fill="#D2C7CD"/>
<path d="M160.469 158.059C160.469 158.679 159.992 159.155 159.373 159.155H135.728C135.108 159.155 134.631 158.679 134.631 158.059C134.631 157.487 135.108 156.963 135.728 156.963H159.373C159.992 156.963 160.469 157.487 160.469 158.059Z" fill="white"/>
<path d="M159.752 158.06C159.752 158.394 159.514 158.633 159.18 158.633H145.498C145.164 158.633 144.926 158.394 144.926 158.06C144.926 157.775 145.164 157.536 145.498 157.536H159.18C159.514 157.536 159.752 157.775 159.752 158.06Z" fill="#D2C7CD"/>
<path d="M136.014 165.068C136.777 165.068 137.396 164.449 137.396 163.685C137.396 162.922 136.777 162.303 136.014 162.303C135.25 162.303 134.631 162.922 134.631 163.685C134.631 164.449 135.25 165.068 136.014 165.068Z" fill="#D2C7CD"/>
<path d="M141.542 162.637H165.188C165.808 162.637 166.285 163.114 166.285 163.685C166.285 164.305 165.808 164.782 165.188 164.782H141.542C140.923 164.782 140.446 164.305 140.446 163.685C140.446 163.114 140.923 162.637 141.542 162.637Z" fill="#D2C7CD"/>
<path d="M141.731 163.16H160.276C160.609 163.16 160.847 163.399 160.847 163.684C160.847 164.018 160.609 164.257 160.276 164.257H141.684C141.398 164.257 141.159 164.018 141.159 163.684C141.159 163.399 141.398 163.16 141.684 163.16H141.731Z" fill="white"/>
<path d="M196.457 103.713C200.462 103.713 203.989 101.139 207.231 97.5158C201.701 104.094 213.333 99.1366 220.15 90.2227C213.857 98.6124 205.848 107.766 196.457 103.713Z" fill="#4D456C"/>
<path d="M222.873 75.4446C222.587 75.6988 222.286 75.9848 221.968 76.3026C221.745 76.5251 221.539 76.7635 221.348 77.0177C221.284 77.0495 221.237 77.0972 221.205 77.1607C219.06 79.6877 216.771 83.5964 214.197 87.6487C214.674 86.7906 223.636 71.9169 223.398 68.7705C223.62 70.741 224.256 72.6002 225.305 74.3481C224.494 74.3957 223.684 74.7771 222.873 75.4446Z" fill="#4D456C"/>
<path d="M188.455 62.7168C188.137 65.7042 187.978 69.1366 187.978 73.0138C187.978 73.0456 187.978 73.0615 187.978 73.0615C187.978 73.1251 187.978 73.2045 187.978 73.2999C187.978 73.2363 187.963 73.1727 187.931 73.1092C187.931 73.0774 187.931 73.0615 187.931 73.0615C187.502 70.6779 186.596 69.6768 185.595 69.4385C186.596 68.0083 187.407 66.5782 187.883 64.9573C188.106 64.2899 188.297 63.5431 188.455 62.7168Z" fill="#4D456C"/>
<path fill-rule="evenodd" clip-rule="evenodd" d="M75.1327 139.373C74.5924 139.373 74.068 139.326 73.5595 139.23C73.4642 139.23 73.3688 139.087 73.3688 138.992C73.4165 138.897 73.5119 138.802 73.6548 138.802C74.2587 138.929 74.8784 138.976 75.514 138.945C81.0916 138.659 92.104 135.989 100.161 134.034C103.641 133.176 106.644 132.413 108.598 132.032C108.693 132.032 109.313 131.936 109.408 131.031C109.456 129.887 108.837 121.783 106.882 118.207C106.882 118.159 106.31 117.206 105.166 117.349C103.926 117.492 84.5716 119.637 84.3332 119.637L77.1826 120.495C77.0395 120.495 76.9442 120.401 76.9442 120.305C76.9442 120.162 76.9919 120.067 77.1349 120.067L79.0421 119.828L81.6158 118.493C81.2826 116.872 78.3267 103.286 76.1815 93.3225C75.9431 92.3696 75.7524 91.273 75.514 90.0809C74.0362 82.5493 71.8434 71.2032 66.3134 69.344C66.2181 69.2964 66.1228 69.2011 66.1705 69.058C66.2181 68.9626 66.3134 68.915 66.4565 68.915C72.2247 70.8695 74.4653 82.4064 75.9431 90.0335C76.1815 91.1775 76.3721 92.2741 76.5629 93.2277C78.708 103.048 81.5684 116.348 81.9971 118.303C83.4276 117.826 84.1903 118.827 84.4287 119.209C86.1924 119.017 103.926 117.064 105.118 116.921C106.548 116.73 107.263 117.969 107.263 118.016C109.266 121.64 109.885 129.934 109.838 131.079C109.742 132.127 109.027 132.413 108.646 132.461C106.739 132.843 103.735 133.605 100.255 134.415C92.1987 136.418 81.139 139.087 75.5617 139.373C75.4028 139.373 75.2598 139.373 75.1327 139.373ZM81.9498 118.779L80.1861 119.685L83.9519 119.256C83.6661 118.875 83.0463 118.303 81.9498 118.779Z" fill="#E5DBE2"/>
<path fill-rule="evenodd" clip-rule="evenodd" d="M37.6651 130.837C46.246 130.647 45.4356 119.492 48.3435 118.252C41.733 118.475 38.1736 122.67 37.6651 130.837ZM16.2606 107.527C18.3104 109.672 17.6907 116.203 20.6463 120.35C24.46 125.737 30.5143 123.067 33.3269 128.407C32.7231 115.472 27.0343 108.512 16.2606 107.527ZM29.1795 92.7959C31.7061 97.9922 21.123 110.244 36.4733 121.256C41.6854 108.321 39.2541 98.8346 29.1795 92.7959Z" fill="#58C4E0"/>
<path d="M42.4788 172.696C42.0974 173.745 41.5571 174.269 40.858 174.269H36.1385H31.419C30.7199 174.269 30.1795 173.745 29.7981 172.696C24.9357 155.566 25.174 143.314 30.5132 135.941H36.1385H41.7637C47.1029 143.314 47.3413 155.566 42.4788 172.696Z" fill="#9E6E82"/>
<path d="M29.3246 138.182C29.7695 137.197 30.1668 136.45 30.5164 135.941H36.1416H41.7668C42.625 137.149 43.4195 139.039 44.1504 141.614L29.3246 138.182Z" fill="#745977"/>
<path d="M35.6184 136.798C35.5866 136.798 35.5707 136.798 35.5707 136.798C35.5389 136.798 35.523 136.798 35.523 136.798C35.4912 136.798 35.4594 136.782 35.4276 136.75C35.4276 136.75 35.4118 136.735 35.3799 136.703C35.3482 136.671 35.3323 136.639 35.3323 136.607C35.3323 136.607 35.3164 136.592 35.2847 136.56C35.1893 136.083 30.5652 112.533 16.1683 107.814C16.0253 107.766 15.93 107.575 15.9777 107.432C16.0253 107.29 16.216 107.194 16.359 107.241C28.8013 111.341 34.0929 128.98 35.4753 134.701C36.1904 127.359 38.1449 99.8053 28.992 93.0356C28.8489 92.94 28.8489 92.7498 28.9443 92.6069C29.0397 92.4632 29.2303 92.4632 29.3257 92.5587C38.4786 99.3285 36.9531 125.214 36.1904 133.795C37.9543 128.885 42.2923 118.683 48.299 117.968C48.4419 117.92 48.585 118.063 48.6327 118.206C48.6327 118.349 48.5373 118.54 48.3467 118.54C41.0529 119.446 35.9997 136.226 35.9044 136.607C35.8726 136.639 35.8567 136.655 35.8567 136.655C35.8249 136.687 35.809 136.719 35.809 136.75C35.7772 136.75 35.7455 136.766 35.7137 136.798C35.6819 136.798 35.6501 136.798 35.6184 136.798Z" fill="#4F96B5"/>
<path d="M29.706 135.462H42.5773C42.9587 135.462 43.2447 135.796 43.2447 136.177C43.2447 136.558 42.9587 136.892 42.5773 136.892H29.706C29.3246 136.892 29.0386 136.558 29.0386 136.177C29.0386 135.796 29.3246 135.462 29.706 135.462Z" fill="#9E6E82"/>
<path d="M285.653 175.508C285.653 176.271 285.081 176.843 284.366 176.843H2.10281C1.38773 176.843 0.815674 176.271 0.815674 175.508C0.815674 174.746 1.38773 174.126 2.10281 174.126H284.366C285.081 174.126 285.653 174.746 285.653 175.508Z" fill="#4D456C"/>
<path d="M289.465 174.126H293.088C293.755 174.126 294.328 174.746 294.328 175.508C294.328 176.224 293.755 176.843 293.088 176.843H289.465C288.798 176.843 288.226 176.224 288.226 175.508C288.226 174.746 288.798 174.126 289.465 174.126Z" fill="#4D456C"/>
<path d="M299 160.921H298.952H253.235C252.663 160.921 252.234 160.492 252.234 159.968V135.178V121.64C252.234 121.067 252.663 120.639 253.235 120.639H299C299.571 120.639 300.001 121.067 300.001 121.64V159.968C300.001 160.492 299.571 160.921 299 160.921Z" fill="#D2C7CD"/>
<path d="M296.619 118.637H250.806C250.28 118.637 249.853 119.064 249.853 119.59V157.966C249.853 158.493 250.28 158.92 250.806 158.92H296.619C297.145 158.92 297.572 158.493 297.572 157.966V119.59C297.572 119.064 297.145 118.637 296.619 118.637Z" fill="#665C80"/>
<path d="M253.046 121.83C253.467 121.83 253.809 121.489 253.809 121.067C253.809 120.647 253.467 120.305 253.046 120.305C252.624 120.305 252.283 120.647 252.283 121.067C252.283 121.489 252.624 121.83 253.046 121.83Z" fill="#58C4E0"/>
<path d="M258.576 121.83C258.996 121.83 259.338 121.489 259.338 121.067C259.338 120.647 258.996 120.305 258.576 120.305C258.154 120.305 257.812 120.647 257.812 121.067C257.812 121.489 258.154 121.83 258.576 121.83Z" fill="#F06994"/>
<path d="M255.812 121.83C256.233 121.83 256.575 121.489 256.575 121.067C256.575 120.647 256.233 120.305 255.812 120.305C255.391 120.305 255.049 120.647 255.049 121.067C255.049 121.489 255.391 121.83 255.812 121.83Z" fill="#E5DBE2"/>
<path d="M295.188 123.451H252.189C251.741 123.451 251.378 123.814 251.378 124.261V156.345C251.378 156.792 251.741 157.155 252.189 157.155H295.188C295.636 157.155 295.999 156.792 295.999 156.345V124.261C295.999 123.814 295.636 123.451 295.188 123.451Z" fill="#E5DBE2"/>
<path d="M293.567 125.454H253.809C253.413 125.454 253.093 125.774 253.093 126.169V149.146C253.093 149.542 253.413 149.861 253.809 149.861H293.567C293.961 149.861 294.282 149.542 294.282 149.146V126.169C294.282 125.774 293.961 125.454 293.567 125.454Z" fill="white"/>
<path d="M254.855 152.388H292.515C293.04 152.388 293.469 152.817 293.469 153.341C293.469 153.866 293.04 154.295 292.515 154.295H254.855C254.331 154.295 253.901 153.866 253.901 153.341C253.901 152.817 254.331 152.388 254.855 152.388Z" fill="white"/>
<path d="M255.045 152.866H283.076C283.362 152.866 283.553 153.105 283.553 153.343C283.553 153.629 283.314 153.819 283.076 153.819H255.045C254.807 153.819 254.568 153.629 254.568 153.343C254.568 153.105 254.807 152.866 255.045 152.866Z" fill="#FED0D3"/>
<path d="M285.223 152.866H286.749C286.987 152.866 287.226 153.105 287.226 153.343C287.226 153.629 286.987 153.819 286.749 153.819H285.223C284.937 153.819 284.747 153.629 284.747 153.343C284.747 153.105 284.937 152.866 285.223 152.866Z" fill="#FED0D3"/>
<path d="M66.4595 58.7132H66.3641H20.6471C20.1227 58.7132 19.6937 58.2841 19.6937 57.7597V32.9705V19.3841C19.6937 18.8597 20.1227 18.4307 20.6471 18.4307H66.4595C66.9839 18.4307 67.4129 18.8597 67.4129 19.3841V57.7597C67.4129 58.2841 66.9839 58.7132 66.4595 58.7132Z" fill="#D2C7CD"/>
<path d="M64.0225 16.3809H18.2101C17.6835 16.3809 17.2567 16.8077 17.2567 17.3343V55.7099C17.2567 56.2364 17.6835 56.6633 18.2101 56.6633H64.0225C64.549 56.6633 64.9758 56.2364 64.9758 55.7099V17.3343C64.9758 16.8077 64.549 16.3809 64.0225 16.3809Z" fill="#665C80"/>
<path d="M20.5019 19.6222C20.9232 19.6222 21.2646 19.2807 21.2646 18.8595C21.2646 18.4382 20.9232 18.0967 20.5019 18.0967C20.0807 18.0967 19.7391 18.4382 19.7391 18.8595C19.7391 19.2807 20.0807 19.6222 20.5019 19.6222Z" fill="#58C4E0"/>
<path d="M26.0289 19.6222C26.4502 19.6222 26.7917 19.2807 26.7917 18.8595C26.7917 18.4382 26.4502 18.0967 26.0289 18.0967C25.6078 18.0967 25.2662 18.4382 25.2662 18.8595C25.2662 19.2807 25.6078 19.6222 26.0289 19.6222Z" fill="#F06994"/>
<path d="M23.2682 19.6222C23.6894 19.6222 24.0309 19.2807 24.0309 18.8594C24.0309 18.4381 23.6894 18.0967 23.2682 18.0967C22.8469 18.0967 22.5054 18.4381 22.5054 18.8594C22.5054 19.2807 22.8469 19.6222 23.2682 19.6222Z" fill="#E5DBE2"/>
<path d="M62.6419 21.2422H19.6421C19.1946 21.2422 18.8317 21.605 18.8317 22.0527V54.1356C18.8317 54.5832 19.1946 54.946 19.6421 54.946H62.6419C63.0895 54.946 63.4523 54.5832 63.4523 54.1356V22.0527C63.4523 21.605 63.0895 21.2422 62.6419 21.2422Z" fill="#E5DBE2"/>
<path d="M61.0226 23.2451H21.2645C20.8696 23.2451 20.5494 23.5652 20.5494 23.9602V46.9379C20.5494 47.3328 20.8696 47.653 21.2645 47.653H61.0226C61.4175 47.653 61.7376 47.3328 61.7376 46.9379V23.9602C61.7376 23.5652 61.4175 23.2451 61.0226 23.2451Z" fill="white"/>
<path d="M22.3162 50.1797H59.9768C60.5012 50.1797 60.9302 50.6087 60.9302 51.1331C60.9302 51.6575 60.5012 52.0865 59.9768 52.0865H22.3162C21.7919 52.0865 21.3629 51.6575 21.3629 51.1331C21.3629 50.6087 21.7919 50.1797 22.3162 50.1797Z" fill="white"/>
<path d="M22.501 50.6553H50.5319C50.7703 50.6553 51.0086 50.846 51.0086 51.132C51.0086 51.3704 50.7703 51.6087 50.5319 51.6087H22.501C22.215 51.6087 22.0244 51.3704 22.0244 51.132C22.0244 50.846 22.215 50.6553 22.501 50.6553Z" fill="#FED0D3"/>
<path d="M52.6367 50.6553H54.2098C54.4483 50.6553 54.6866 50.846 54.6866 51.132C54.6866 51.3704 54.4483 51.6087 54.2098 51.6087H52.6367C52.3984 51.6087 52.16 51.3704 52.16 51.132C52.16 50.846 52.3984 50.6553 52.6367 50.6553Z" fill="#FED0D3"/>
<path d="M39.7158 87.2679C37.6182 87.2679 35.5207 86.6482 33.7568 85.4561C33.6138 85.3613 33.5662 85.1703 33.6615 85.0274C33.7568 84.8845 33.9475 84.8845 34.0905 84.9318C37.7136 87.4108 42.6714 87.2205 46.056 84.4076C46.1197 84.376 46.1991 84.3603 46.2945 84.3603L49.3454 84.6934C49.4089 84.6934 49.4566 84.6776 49.4884 84.646C49.552 84.5821 49.5679 84.5189 49.5361 84.455L48.6781 81.3563C48.6462 81.2932 48.6462 81.2292 48.6781 81.166C50.8232 76.9709 49.8222 71.9654 46.2468 68.9144C45.341 68.1517 44.3876 67.5796 43.2912 67.1982C43.1481 67.1029 43.0528 66.9599 43.1481 66.8169C43.1958 66.6262 43.3388 66.5785 43.5295 66.6262C44.6259 67.0552 45.6747 67.675 46.6282 68.4377C50.3942 71.6317 51.4429 76.9233 49.2977 81.3089L50.1082 84.3121C50.2036 84.5505 50.1559 84.7889 49.9651 85.0274C49.7745 85.2184 49.5361 85.3132 49.2501 85.2658L46.3421 84.98C44.4353 86.5053 42.0517 87.2679 39.7158 87.2679ZM31.1349 82.7868C31.0395 82.7868 30.9442 82.7395 30.8965 82.6439C30.7058 82.3258 30.5152 82.0084 30.3244 81.6903C30.2768 81.5474 30.3244 81.4045 30.4675 81.3089C30.6105 81.2134 30.8012 81.2616 30.8489 81.4045C31.0077 81.7218 31.1985 82.0242 31.4209 82.31C31.5162 82.4529 31.4686 82.6439 31.3256 82.6913C31.262 82.7553 31.1985 82.7868 31.1349 82.7868ZM29.9431 80.3553C29.8001 80.3553 29.7047 80.2605 29.6571 80.165C28.3699 76.5896 29.1327 72.5851 31.5639 69.6772C33.0894 67.9133 35.0916 66.7215 37.3322 66.1972C37.4752 66.1495 37.6659 66.2448 37.7136 66.4355C37.7136 66.5785 37.6182 66.7215 37.4752 66.7692C35.33 67.2459 33.4708 68.39 32.0407 70.0586C29.7047 72.8234 29.0374 76.5896 30.2292 79.9739C30.2768 80.1168 30.1815 80.2605 30.0384 80.3553C30.0067 80.3553 29.9749 80.3553 29.9431 80.3553ZM40.4308 66.5309C40.113 66.5309 39.8111 66.5309 39.5251 66.5309C39.3344 66.5309 39.239 66.3878 39.239 66.2448C39.239 66.0541 39.3344 65.9111 39.5251 65.9111C39.8429 65.9111 40.1448 65.927 40.4308 65.9587C40.6215 65.9587 40.7168 66.1018 40.7168 66.2448C40.7168 66.4355 40.5739 66.5309 40.4308 66.5309Z" fill="white"/>
<path d="M35.0924 73.6811C36.1889 72.6323 37.9527 72.6323 39.0015 73.6811L39.7643 74.4439L40.527 73.6811C41.5758 72.6323 43.3396 72.6323 44.3884 73.6811C45.4848 74.7776 45.4848 76.4937 44.3884 77.5902L43.6257 78.353L39.7643 82.2143L35.8552 78.353L35.0924 77.5902C34.0437 76.4937 34.0437 74.7776 35.0924 73.6811Z" fill="white"/>
<path d="M159.417 145.14H138.584C138.394 145.14 138.251 144.997 138.251 144.855C138.251 144.663 138.394 144.521 138.584 144.521H143.399V140.659H139.872C139.681 140.659 139.585 140.516 139.585 140.373C139.585 140.182 139.681 140.087 139.872 140.087H153.124C153.315 140.087 153.411 140.182 153.411 140.373C153.411 140.516 153.315 140.659 153.124 140.659H144.019V144.568H157.033V140.659H155.651C155.46 140.659 155.317 140.516 155.317 140.373C155.317 140.182 155.46 140.087 155.651 140.087H160.895C161.038 140.087 161.181 140.182 161.181 140.373C161.181 140.516 161.038 140.659 160.895 140.659H157.606V144.568H159.417C159.608 144.568 159.751 144.663 159.751 144.855C159.751 144.997 159.608 145.14 159.417 145.14ZM137.059 145.14H136.392C136.201 145.14 136.105 144.997 136.105 144.855C136.105 144.663 136.201 144.568 136.392 144.568H137.059C137.25 144.568 137.345 144.663 137.345 144.855C137.345 144.997 137.25 145.14 137.059 145.14Z" fill="#D2C7CD"/>
<path d="M264.962 106.623H244.082C243.892 106.623 243.797 106.48 243.797 106.337C243.797 106.146 243.892 106.004 244.082 106.004H248.897V102.142H245.37C245.226 102.142 245.083 101.999 245.083 101.856C245.083 101.665 245.226 101.522 245.37 101.522H258.622C258.813 101.522 258.956 101.665 258.956 101.856C258.956 101.999 258.813 102.142 258.622 102.142H249.517V106.004H262.532V102.142H261.149C260.958 102.142 260.863 101.999 260.863 101.856C260.863 101.665 260.958 101.522 261.149 101.522H266.393C266.536 101.522 266.679 101.665 266.679 101.856C266.679 101.999 266.536 102.142 266.393 102.142H263.103V106.004H264.962C265.106 106.004 265.249 106.146 265.249 106.337C265.249 106.48 265.106 106.623 264.962 106.623ZM242.604 106.623H241.89C241.746 106.623 241.603 106.48 241.603 106.337C241.603 106.146 241.746 106.004 241.89 106.004H242.604C242.747 106.004 242.891 106.146 242.891 106.337C242.891 106.48 242.747 106.623 242.604 106.623Z" fill="#D2C7CD"/>
<path d="M272.879 77.2083H272.211C272.068 77.2083 271.925 77.0652 271.925 76.9223C271.925 76.7315 272.068 76.5886 272.211 76.5886H272.879C273.069 76.5886 273.212 76.7315 273.212 76.9223C273.212 77.0652 273.069 77.2083 272.879 77.2083ZM270.733 77.2083H255.193C255.05 77.2083 254.907 77.0652 254.907 76.9223C254.907 76.7315 255.05 76.5886 255.193 76.5886H257.052V72.7272H253.763C253.619 72.7272 253.476 72.5841 253.476 72.4411C253.476 72.2504 253.619 72.1074 253.763 72.1074H259.007C259.197 72.1074 259.292 72.2504 259.292 72.4411C259.292 72.5841 259.197 72.7272 259.007 72.7272H257.624V76.5886H265.299V72.7272H261.533C261.343 72.7272 261.2 72.5841 261.2 72.4411C261.2 72.2504 261.343 72.1074 261.533 72.1074H269.399C269.589 72.1074 269.732 72.2504 269.732 72.4411C269.732 72.5841 269.589 72.7272 269.399 72.7272H265.871V76.5886H270.733C270.876 76.5886 271.02 76.7315 271.02 76.9223C271.02 77.0652 270.876 77.2083 270.733 77.2083Z" fill="#D2C7CD"/>
<path d="M255.618 170.12H254.903C254.76 170.12 254.617 169.977 254.617 169.835C254.617 169.643 254.76 169.501 254.903 169.501H255.618C255.761 169.501 255.904 169.643 255.904 169.835C255.904 169.977 255.761 170.12 255.618 170.12ZM253.425 170.12H237.884C237.741 170.12 237.598 169.977 237.598 169.835C237.598 169.643 237.741 169.501 237.884 169.501H239.743V165.639H236.454C236.312 165.639 236.168 165.496 236.168 165.353C236.168 165.162 236.312 165.02 236.454 165.02H241.698C241.889 165.02 241.984 165.162 241.984 165.353C241.984 165.496 241.889 165.639 241.698 165.639H240.316V169.501H247.991V165.639H244.224C244.034 165.639 243.891 165.496 243.891 165.353C243.891 165.162 244.034 165.02 244.224 165.02H252.138C252.281 165.02 252.424 165.162 252.424 165.353C252.424 165.496 252.281 165.639 252.138 165.639H248.563V169.501H253.425C253.569 169.501 253.712 169.643 253.712 169.835C253.712 169.977 253.569 170.12 253.425 170.12Z" fill="#D2C7CD"/>
<path d="M155.032 28.4887H154.365C154.222 28.4887 154.078 28.3458 154.078 28.2027C154.078 28.012 154.222 27.869 154.365 27.869H155.032C155.223 27.869 155.366 28.012 155.366 28.2027C155.366 28.3458 155.223 28.4887 155.032 28.4887ZM152.887 28.4887H137.346C137.203 28.4887 137.06 28.3458 137.06 28.2027C137.06 28.012 137.203 27.869 137.346 27.869H139.206V24.0076H135.916C135.773 24.0076 135.63 23.8646 135.63 23.7216C135.63 23.5309 135.773 23.4355 135.916 23.4355H141.159C141.351 23.4355 141.446 23.5309 141.446 23.7216C141.446 23.8646 141.351 24.0076 141.159 24.0076H139.777V27.869H147.452V24.0076H143.687C143.496 24.0076 143.353 23.8646 143.353 23.7216C143.353 23.5309 143.496 23.4355 143.687 23.4355H151.552C151.743 23.4355 151.886 23.5309 151.886 23.7216C151.886 23.8646 151.743 24.0076 151.552 24.0076H148.025V27.869H152.887C153.03 27.869 153.173 28.012 153.173 28.2027C153.173 28.3458 153.03 28.4887 152.887 28.4887Z" fill="#D2C7CD"/>
<path d="M25.1281 99.4245H24.413C24.27 99.4245 24.1269 99.2816 24.1269 99.1387C24.1269 98.995 24.27 98.8521 24.413 98.8521H25.1281C25.271 98.8521 25.4141 98.995 25.4141 99.1387C25.4141 99.2816 25.271 99.4245 25.1281 99.4245ZM22.9351 99.4245H10.7789C10.6359 99.4245 10.4929 99.2816 10.4929 99.1387C10.4929 98.995 10.6359 98.8521 10.7789 98.8521H12.6381V94.9435H9.34877C9.20572 94.9435 9.06274 94.8479 9.06274 94.6569C9.06274 94.514 9.20572 94.3711 9.34877 94.3711H14.5926C14.7833 94.3711 14.8786 94.514 14.8786 94.6569C14.8786 94.8479 14.7833 94.9435 14.5926 94.9435H13.2102V98.8521H20.8853V94.9435H17.1192C16.9285 94.9435 16.7855 94.8479 16.7855 94.6569C16.7855 94.514 16.9285 94.3711 17.1192 94.3711H25.0327C25.1757 94.3711 25.3187 94.514 25.3187 94.6569C25.3187 94.8479 25.1757 94.9435 25.0327 94.9435H21.4573V98.8521H22.9351C23.0782 98.8521 23.2212 98.995 23.2212 99.1387C23.2212 99.2816 23.0782 99.4245 22.9351 99.4245Z" fill="#D2C7CD"/>
<path d="M68.2224 153.913H67.5072C67.3643 153.913 67.2212 153.769 67.2212 153.579C67.2212 153.436 67.3643 153.293 67.5072 153.293H68.2224C68.3653 153.293 68.5084 153.436 68.5084 153.579C68.5084 153.769 68.3653 153.913 68.2224 153.913ZM66.0294 153.913H50.4885C50.3455 153.913 50.2025 153.769 50.2025 153.579C50.2025 153.436 50.3455 153.293 50.4885 153.293H52.3477V149.431H49.0584C48.9154 149.431 48.7723 149.288 48.7723 149.145C48.7723 148.955 48.9154 148.812 49.0584 148.812H54.3023C54.4929 148.812 54.6359 148.955 54.6359 149.145C54.6359 149.288 54.4929 149.431 54.3023 149.431H52.9198V153.293H60.5949V149.431H56.8288C56.6382 149.431 56.4951 149.288 56.4951 149.145C56.4951 148.955 56.6382 148.812 56.8288 148.812H64.7423C64.8853 148.812 65.0283 148.955 65.0283 149.145C65.0283 149.288 64.8853 149.431 64.7423 149.431H61.1669V153.293H66.0294C66.1725 153.293 66.3155 153.436 66.3155 153.579C66.3155 153.769 66.1725 153.913 66.0294 153.913Z" fill="#D2C7CD"/>
<path d="M176.008 38.2137C175.865 38.2137 175.769 38.1183 175.769 38.023V37.4986C175.769 37.3556 175.865 37.2602 176.008 37.2602C176.103 37.2602 176.198 37.3556 176.198 37.4986V38.023C176.198 38.1183 176.103 38.2137 176.008 38.2137ZM177.343 36.8789H176.818C176.723 36.8789 176.627 36.7835 176.627 36.6405C176.627 36.5452 176.723 36.4498 176.818 36.4498H177.343C177.486 36.4498 177.581 36.5452 177.581 36.6405C177.581 36.7835 177.486 36.8789 177.343 36.8789ZM175.149 36.8789H174.625C174.53 36.8789 174.434 36.7835 174.434 36.6405C174.434 36.5452 174.53 36.4498 174.625 36.4498H175.149C175.245 36.4498 175.34 36.5452 175.34 36.6405C175.34 36.7835 175.245 36.8789 175.149 36.8789ZM176.008 36.0208C175.865 36.0208 175.769 35.9255 175.769 35.7824V35.3057C175.769 35.1627 175.865 35.0674 176.008 35.0674C176.103 35.0674 176.198 35.1627 176.198 35.3057V35.7824C176.198 35.9255 176.103 36.0208 176.008 36.0208Z" fill="white"/>
<path d="M255.715 46.2703C255.62 46.2703 255.524 46.1749 255.524 46.032V45.5075C255.524 45.4122 255.62 45.3169 255.715 45.3169C255.858 45.3169 255.954 45.4122 255.954 45.5075V46.032C255.954 46.1749 255.858 46.2703 255.715 46.2703ZM257.098 44.8879H256.573C256.478 44.8879 256.382 44.7925 256.382 44.6971C256.382 44.5542 256.478 44.4588 256.573 44.4588H257.098C257.193 44.4588 257.288 44.5542 257.288 44.6971C257.288 44.7925 257.193 44.8879 257.098 44.8879ZM254.904 44.8879H254.38C254.237 44.8879 254.142 44.7925 254.142 44.6971C254.142 44.5542 254.237 44.4588 254.38 44.4588H254.904C255 44.4588 255.096 44.5542 255.096 44.6971C255.096 44.7925 255 44.8879 254.904 44.8879ZM255.715 44.0297C255.62 44.0297 255.524 43.9344 255.524 43.839V43.3147C255.524 43.2193 255.62 43.124 255.715 43.124C255.858 43.124 255.954 43.2193 255.954 43.3147V43.839C255.954 43.9344 255.858 44.0297 255.715 44.0297Z" fill="white"/>
<path d="M48.2015 105.383C48.0584 105.383 47.9631 105.289 47.9631 105.146V104.669C47.9631 104.526 48.0584 104.43 48.2015 104.43C48.2968 104.43 48.3921 104.526 48.3921 104.669V105.146C48.3921 105.289 48.2968 105.383 48.2015 105.383ZM49.5362 104.001H49.0119C48.9165 104.001 48.8212 103.906 48.8212 103.811C48.8212 103.668 48.9165 103.572 49.0119 103.572H49.5362C49.6793 103.572 49.7746 103.668 49.7746 103.811C49.7746 103.906 49.6793 104.001 49.5362 104.001ZM47.3434 104.001H46.819C46.7237 104.001 46.6283 103.906 46.6283 103.811C46.6283 103.668 46.7237 103.572 46.819 103.572H47.3434C47.4387 103.572 47.5341 103.668 47.5341 103.811C47.5341 103.906 47.4387 104.001 47.3434 104.001ZM48.2015 103.191C48.0584 103.191 47.9631 103.095 47.9631 102.953V102.428C47.9631 102.333 48.0584 102.237 48.2015 102.237C48.2968 102.237 48.3921 102.333 48.3921 102.428V102.953C48.3921 103.095 48.2968 103.191 48.2015 103.191Z" fill="white"/>
<path d="M19.3571 76.9236C19.2141 76.9236 19.1188 76.8284 19.1188 76.6853V76.1609C19.1188 76.0656 19.2141 75.9702 19.3571 75.9702C19.4525 75.9702 19.5478 76.0656 19.5478 76.1609V76.6853C19.5478 76.8284 19.4525 76.9236 19.3571 76.9236ZM20.6919 75.5412H20.1676C20.0722 75.5412 19.9768 75.4458 19.9768 75.3505C19.9768 75.2075 20.0722 75.1121 20.1676 75.1121H20.6919C20.8349 75.1121 20.9303 75.2075 20.9303 75.3505C20.9303 75.4458 20.8349 75.5412 20.6919 75.5412ZM18.499 75.5412H17.9747C17.8793 75.5412 17.784 75.4458 17.784 75.3505C17.784 75.2075 17.8793 75.1121 17.9747 75.1121H18.499C18.5944 75.1121 18.7374 75.2075 18.7374 75.3505C18.7374 75.4458 18.5944 75.5412 18.499 75.5412ZM19.3571 74.6831C19.2141 74.6831 19.1188 74.5877 19.1188 74.4924V73.968C19.1188 73.8727 19.2141 73.7773 19.3571 73.7773C19.4525 73.7773 19.5478 73.8727 19.5478 73.968V74.4924C19.5478 74.5877 19.4525 74.6831 19.3571 74.6831Z" fill="white"/>
<path d="M73.7507 23.5779C73.6553 23.5779 73.5599 23.4826 73.5599 23.3396V22.8629C73.5599 22.7199 73.6553 22.6246 73.7507 22.6246C73.8936 22.6246 73.989 22.7199 73.989 22.8629V23.3396C73.989 23.4826 73.8936 23.5779 73.7507 23.5779ZM75.1331 22.1955H74.6088C74.5134 22.1955 74.3704 22.1001 74.3704 22.0048C74.3704 21.8618 74.5134 21.7664 74.6088 21.7664H75.1331C75.2285 21.7664 75.3238 21.8618 75.3238 22.0048C75.3238 22.1001 75.2285 22.1955 75.1331 22.1955ZM72.9403 22.1955H72.4158C72.2729 22.1955 72.1775 22.1001 72.1775 22.0048C72.1775 21.8618 72.2729 21.7664 72.4158 21.7664H72.9403C73.0356 21.7664 73.1309 21.8618 73.1309 22.0048C73.1309 22.1001 73.0356 22.1955 72.9403 22.1955ZM73.7507 21.3851C73.6553 21.3851 73.5599 21.2897 73.5599 21.1467V20.6223C73.5599 20.527 73.6553 20.4316 73.7507 20.4316C73.8936 20.4316 73.989 20.527 73.989 20.6223V21.1467C73.989 21.2897 73.8936 21.3851 73.7507 21.3851Z" fill="white"/>
<path d="M19.3571 140.707C19.2141 140.707 19.1188 140.612 19.1188 140.469V139.944C19.1188 139.849 19.2141 139.754 19.3571 139.754C19.4525 139.754 19.5478 139.849 19.5478 139.944V140.469C19.5478 140.612 19.4525 140.707 19.3571 140.707ZM20.6919 139.324H20.1676C20.0722 139.324 19.9768 139.229 19.9768 139.134C19.9768 138.991 20.0722 138.896 20.1676 138.896H20.6919C20.8349 138.896 20.9303 138.991 20.9303 139.134C20.9303 139.229 20.8349 139.324 20.6919 139.324ZM18.499 139.324H17.9747C17.8793 139.324 17.784 139.229 17.784 139.134C17.784 138.991 17.8793 138.896 17.9747 138.896H18.499C18.5944 138.896 18.7374 138.991 18.7374 139.134C18.7374 139.229 18.5944 139.324 18.499 139.324ZM19.3571 138.467C19.2141 138.467 19.1188 138.371 19.1188 138.276V137.752C19.1188 137.656 19.2141 137.561 19.3571 137.561C19.4525 137.561 19.5478 137.656 19.5478 137.752V138.276C19.5478 138.371 19.4525 138.467 19.3571 138.467Z" fill="white"/>
<path d="M172.197 134.748C172.054 134.748 171.958 134.653 171.958 134.557V134.033C171.958 133.938 172.054 133.842 172.197 133.842C172.292 133.842 172.387 133.938 172.387 134.033V134.557C172.387 134.653 172.292 134.748 172.197 134.748ZM173.531 133.413H173.007C172.911 133.413 172.817 133.318 172.817 133.175C172.817 133.079 172.911 132.985 173.007 132.985H173.531C173.675 132.985 173.769 133.079 173.769 133.175C173.769 133.318 173.675 133.413 173.531 133.413ZM171.339 133.413H170.814C170.719 133.413 170.623 133.318 170.623 133.175C170.623 133.079 170.719 132.985 170.814 132.985H171.339C171.434 132.985 171.529 133.079 171.529 133.175C171.529 133.318 171.434 133.413 171.339 133.413ZM172.197 132.555C172.054 132.555 171.958 132.46 171.958 132.365V131.84C171.958 131.697 172.054 131.602 172.197 131.602C172.292 131.602 172.387 131.697 172.387 131.84V132.365C172.387 132.46 172.292 132.555 172.197 132.555Z" fill="white"/>
<path d="M140.777 132.032C140.682 132.032 140.586 131.936 140.586 131.842V131.317C140.586 131.222 140.682 131.126 140.777 131.126C140.92 131.126 141.016 131.222 141.016 131.317V131.842C141.016 131.936 140.92 132.032 140.777 132.032ZM142.16 130.697H141.636C141.54 130.697 141.445 130.602 141.445 130.459C141.445 130.364 141.54 130.268 141.636 130.268H142.16C142.255 130.268 142.351 130.364 142.351 130.459C142.351 130.602 142.255 130.697 142.16 130.697ZM139.967 130.697H139.442C139.3 130.697 139.204 130.602 139.204 130.459C139.204 130.364 139.3 130.268 139.442 130.268H139.967C140.062 130.268 140.158 130.364 140.158 130.459C140.158 130.602 140.062 130.697 139.967 130.697ZM140.777 129.839C140.682 129.839 140.586 129.744 140.586 129.648V129.124C140.586 128.981 140.682 128.886 140.777 128.886C140.92 128.886 141.016 128.981 141.016 129.124V129.648C141.016 129.744 140.92 129.839 140.777 129.839Z" fill="white"/>
<path d="M239.173 153.674C239.077 153.674 238.982 153.579 238.982 153.436V152.959C238.982 152.816 239.077 152.721 239.173 152.721C239.316 152.721 239.411 152.816 239.411 152.959V153.436C239.411 153.579 239.316 153.674 239.173 153.674ZM240.555 152.292H240.031C239.887 152.292 239.792 152.196 239.792 152.102C239.792 151.958 239.887 151.863 240.031 151.863H240.555C240.651 151.863 240.745 151.958 240.745 152.102C240.745 152.196 240.651 152.292 240.555 152.292ZM238.314 152.292H237.838C237.695 152.292 237.599 152.196 237.599 152.102C237.599 151.958 237.695 151.863 237.838 151.863H238.314C238.457 151.863 238.553 151.958 238.553 152.102C238.553 152.196 238.457 152.292 238.314 152.292ZM239.173 151.482C239.077 151.482 238.982 151.386 238.982 151.244V150.719C238.982 150.624 239.077 150.528 239.173 150.528C239.316 150.528 239.411 150.624 239.411 150.719V151.244C239.411 151.386 239.316 151.482 239.173 151.482Z" fill="white"/>
<path d="M275.929 111.485C275.833 111.485 275.739 111.389 275.739 111.294V110.77C275.739 110.674 275.833 110.579 275.929 110.579C276.072 110.579 276.167 110.674 276.167 110.77V111.294C276.167 111.389 276.072 111.485 275.929 111.485ZM277.311 110.15H276.787C276.644 110.15 276.549 110.054 276.549 109.911C276.549 109.817 276.644 109.721 276.787 109.721H277.311C277.407 109.721 277.502 109.817 277.502 109.911C277.502 110.054 277.407 110.15 277.311 110.15ZM275.071 110.15H274.594C274.451 110.15 274.356 110.054 274.356 109.911C274.356 109.817 274.451 109.721 274.594 109.721H275.071C275.214 109.721 275.309 109.817 275.309 109.911C275.309 110.054 275.214 110.15 275.071 110.15ZM275.929 109.292C275.833 109.292 275.739 109.197 275.739 109.102V108.577C275.739 108.434 275.833 108.339 275.929 108.339C276.072 108.339 276.167 108.434 276.167 108.577V109.102C276.167 109.197 276.072 109.292 275.929 109.292Z" fill="white"/>
<path d="M229.45 60.3338C229.307 60.3338 229.212 60.2384 229.212 60.0954V59.6187C229.212 59.4757 229.307 59.3803 229.45 59.3803C229.546 59.3803 229.641 59.4757 229.641 59.6187V60.0954C229.641 60.2384 229.546 60.3338 229.45 60.3338ZM230.785 58.9513H230.308C230.165 58.9513 230.07 58.856 230.07 58.7606C230.07 58.6176 230.165 58.5223 230.308 58.5223H230.785C230.928 58.5223 231.024 58.6176 231.024 58.7606C231.024 58.856 230.928 58.9513 230.785 58.9513ZM228.592 58.9513H228.068C227.972 58.9513 227.878 58.856 227.878 58.7606C227.878 58.6176 227.972 58.5223 228.068 58.5223H228.592C228.735 58.5223 228.83 58.6176 228.83 58.7606C228.83 58.856 228.735 58.9513 228.592 58.9513ZM229.45 58.1409C229.307 58.1409 229.212 58.0456 229.212 57.9025V57.3782C229.212 57.2828 229.307 57.1875 229.45 57.1875C229.546 57.1875 229.641 57.2828 229.641 57.3782V57.9025C229.641 58.0456 229.546 58.1409 229.45 58.1409Z" fill="white"/>
<path d="M243.799 53.7062C247.143 53.7062 249.853 50.9956 249.853 47.6519C249.853 44.3082 247.143 41.5977 243.799 41.5977C240.456 41.5977 237.745 44.3082 237.745 47.6519C237.745 50.9956 240.456 53.7062 243.799 53.7062Z" fill="white"/>
<path d="M243.801 47.9376C243.737 47.9376 243.674 47.9218 243.61 47.89L243.039 47.5086C242.466 47.1273 242.323 46.3169 242.705 45.7448C243.086 45.1728 243.896 45.0297 244.468 45.4111L245.041 45.8401C245.184 45.8878 245.231 46.0785 245.136 46.2215C245.041 46.3645 244.85 46.4121 244.707 46.3169L244.135 45.8878C243.849 45.6971 243.42 45.7925 243.182 46.0785C242.991 46.3645 243.086 46.7935 243.372 47.0319L243.944 47.4133C244.087 47.5086 244.135 47.6993 244.04 47.8424C243.992 47.89 243.896 47.9376 243.801 47.9376Z" fill="#58C4E0"/>
<path d="M243.798 50.1312C243.544 50.1312 243.306 50.0517 243.083 49.8927L242.511 49.5114C242.368 49.4161 242.368 49.2254 242.416 49.0824C242.511 48.9394 242.702 48.8917 242.844 48.987L243.417 49.4161C243.56 49.5114 243.75 49.5591 243.941 49.5114C244.131 49.4637 244.275 49.3684 244.37 49.2254C244.561 48.9394 244.513 48.5103 244.179 48.3196L243.607 47.8906C243.464 47.7952 243.464 47.6045 243.56 47.5092C243.607 47.3662 243.798 47.3185 243.941 47.4139L244.513 47.7953C245.132 48.2243 245.276 48.987 244.847 49.5591C244.656 49.8451 244.37 50.0358 244.037 50.0835C243.973 50.1152 243.893 50.1312 243.798 50.1312Z" fill="#58C4E0"/>
<path d="M243.804 51.035C243.614 51.035 243.471 50.892 243.471 50.7489V49.8432C243.471 49.6525 243.614 49.5095 243.804 49.5095C243.947 49.5095 244.09 49.6525 244.09 49.8432V50.7489C244.09 50.892 243.947 51.035 243.804 51.035ZM243.804 45.7911C243.614 45.7911 243.471 45.6481 243.471 45.5051V44.5993C243.471 44.4087 243.614 44.2656 243.804 44.2656C243.947 44.2656 244.09 44.4087 244.09 44.5993V45.5051C244.09 45.6481 243.947 45.7911 243.804 45.7911Z" fill="#58C4E0"/>
<path fill-rule="evenodd" clip-rule="evenodd" d="M243.705 67.9613H241.083C240.511 67.9613 240.082 67.4846 240.082 66.9125V62.9081C240.082 62.3361 240.511 61.8594 241.083 61.8594H243.705C244.277 61.8594 244.753 62.3361 244.753 62.9081V66.9125C244.753 67.4846 244.277 67.9613 243.705 67.9613ZM241.083 62.4314C240.845 62.4314 240.654 62.6221 240.654 62.9081V66.9125C240.654 67.1509 240.845 67.3892 241.083 67.3892H243.705C243.943 67.3892 244.134 67.1509 244.134 66.9125V62.9081C244.134 62.6221 243.943 62.4314 243.705 62.4314H241.083Z" fill="white"/>
<path fill-rule="evenodd" clip-rule="evenodd" d="M251.571 67.9609H248.949C248.377 67.9609 247.948 67.4841 247.948 66.9121V56.5674C247.948 55.9953 248.377 55.5186 248.949 55.5186H251.571C252.143 55.5186 252.62 55.9953 252.62 56.5674V66.9121C252.62 67.4841 252.143 67.9609 251.571 67.9609ZM248.949 56.1383C248.711 56.1383 248.52 56.329 248.52 56.5674V66.9121C248.52 67.1504 248.711 67.3888 248.949 67.3888H251.571C251.81 67.3888 252.047 67.1504 252.047 66.9121V56.5674C252.047 56.329 251.81 56.1383 251.571 56.1383H248.949Z" fill="white"/>
<path fill-rule="evenodd" clip-rule="evenodd" d="M259.437 67.9614H256.815C256.243 67.9614 255.814 67.4847 255.814 66.9127V52.2775C255.814 51.7054 256.243 51.2764 256.815 51.2764H259.437C260.009 51.2764 260.486 51.7054 260.486 52.2775V66.9127C260.486 67.4847 260.009 67.9614 259.437 67.9614ZM256.815 51.8484C256.577 51.8484 256.386 52.0392 256.386 52.2775V66.9127C256.386 67.151 256.577 67.3894 256.815 67.3894H259.437C259.675 67.3894 259.914 67.151 259.914 66.9127V52.2775C259.914 52.0392 259.675 51.8484 259.437 51.8484H256.815Z" fill="white"/>
<path fill-rule="evenodd" clip-rule="evenodd" d="M267.302 67.9617H264.681C264.109 67.9617 263.679 67.4849 263.679 66.9129V45.3654C263.679 44.7933 264.109 44.3643 264.681 44.3643H267.302C267.875 44.3643 268.352 44.7933 268.352 45.3654V66.9129C268.352 67.4849 267.875 67.9617 267.302 67.9617ZM264.681 44.9363C264.442 44.9363 264.252 45.127 264.252 45.3654V66.9129C264.252 67.1512 264.442 67.3897 264.681 67.3897H267.302C267.541 67.3897 267.779 67.1512 267.779 66.9129V45.3654C267.779 45.127 267.541 44.9363 267.302 44.9363H264.681Z" fill="white"/>
<path d="M270.966 142.71L273.064 138.324C273.159 138.086 273.445 137.895 273.684 137.895H277.021H278.499H284.696V143.139H281.025H277.116H277.021H271.205C270.966 143.139 270.871 142.948 270.966 142.71Z" fill="#F2D0AC"/>
<path d="M280.974 142.71L283.072 138.324C283.167 138.086 283.453 137.895 283.692 137.895C285.313 137.895 286.918 137.895 288.506 137.895C288.745 137.895 289.031 138.086 289.126 138.324L291.223 142.71C291.366 142.948 291.223 143.139 290.985 143.139H287.124H281.213C280.974 143.139 280.879 142.948 280.974 142.71Z" fill="#FDE3C8"/>
<path fill-rule="evenodd" clip-rule="evenodd" d="M275.878 137.895H277.164L274.161 143.139H272.922C272.922 143.139 272.906 143.139 272.874 143.139L275.878 137.895ZM278.166 137.895L275.162 143.186H277.117L280.12 137.895C280.12 137.895 280.104 137.895 280.073 137.895H278.166Z" fill="#E3B79D"/>
<path d="M284.7 141.518L283.794 143.139H282.555C282.523 143.139 282.508 143.139 282.508 143.139L284.7 139.277V141.518Z" fill="white"/>
<path fill-rule="evenodd" clip-rule="evenodd" d="M285.511 137.895H286.798L283.794 143.139H282.555C282.523 143.139 282.508 143.139 282.508 143.139L285.511 137.895ZM289.325 138.705L289.134 138.324C289.038 138.086 288.752 137.895 288.514 137.895H287.799L284.795 143.186H286.75L289.325 138.705Z" fill="white"/>
<path d="M258.568 142.71L260.666 138.324C260.762 138.086 261.047 137.895 261.286 137.895H264.623H266.101H272.297V143.139H268.627H264.718H264.623H258.807C258.568 143.139 258.473 142.948 258.568 142.71Z" fill="#F2D0AC"/>
<path d="M268.585 142.71L270.683 138.324C270.778 138.086 271.064 137.895 271.303 137.895C272.923 137.895 274.528 137.895 276.118 137.895C276.356 137.895 276.642 138.086 276.737 138.324L278.835 142.71C278.978 142.948 278.835 143.139 278.597 143.139H274.735H268.824C268.585 143.139 268.49 142.948 268.585 142.71Z" fill="#FDE3C8"/>
<path fill-rule="evenodd" clip-rule="evenodd" d="M263.49 137.895H264.778L261.774 143.139H260.535C260.535 143.139 260.518 143.139 260.487 143.139L263.49 137.895ZM265.779 137.895L262.775 143.186H264.729L267.733 137.895C267.733 137.895 267.717 137.895 267.685 137.895H265.779Z" fill="#FDE3C8"/>
<path d="M272.304 141.518L271.399 143.139H270.159C270.128 143.139 270.112 143.139 270.112 143.139L272.304 139.277V141.518Z" fill="white"/>
<path fill-rule="evenodd" clip-rule="evenodd" d="M273.115 137.895H274.402L271.399 143.139H270.159C270.128 143.139 270.112 143.139 270.112 143.139L273.115 137.895ZM276.929 138.705L276.738 138.324C276.643 138.086 276.357 137.895 276.118 137.895H275.403L272.4 143.186H274.355L276.929 138.705Z" fill="white"/>
<path d="M264.006 137.465L266.103 133.031C266.246 132.793 266.532 132.602 266.77 132.602H270.059H271.537H277.734V137.893H274.064H270.155H270.059H264.244C264.006 137.893 263.91 137.703 264.006 137.465Z" fill="#F2D0AC"/>
<path d="M274.014 137.465L276.112 133.031C276.208 132.793 276.493 132.602 276.732 132.602C278.353 132.602 279.958 132.602 281.547 132.602C281.785 132.602 282.071 132.793 282.167 133.031L284.264 137.465C284.407 137.703 284.312 137.893 284.073 137.893H280.164H274.253C274.014 137.893 273.92 137.703 274.014 137.465Z" fill="#FDE3C8"/>
<path fill-rule="evenodd" clip-rule="evenodd" d="M268.965 132.603H270.205L267.201 137.894H265.962C265.962 137.894 265.945 137.894 265.914 137.894L268.965 132.603ZM271.253 132.603L268.25 137.846H270.205L273.208 132.603C273.208 132.603 273.192 132.603 273.16 132.603H271.253Z" fill="#E3B79D"/>
<path d="M277.739 136.274L276.834 137.895H275.594C275.563 137.895 275.546 137.895 275.546 137.895L277.739 134.033V136.274Z" fill="white"/>
<path fill-rule="evenodd" clip-rule="evenodd" d="M278.55 132.603H279.837L276.834 137.894H275.594C275.563 137.894 275.546 137.894 275.546 137.894L278.55 132.603ZM282.363 133.365L282.173 133.031C282.077 132.793 281.792 132.603 281.553 132.603H280.838L277.835 137.846H279.789L282.363 133.365Z" fill="white"/>
<path d="M42.9549 33.9219H28.844C28.6334 33.9219 28.4626 34.0926 28.4626 34.3033V36.6392C28.4626 36.8498 28.6334 37.0206 28.844 37.0206H42.9549C43.1655 37.0206 43.3362 36.8498 43.3362 36.6392V34.3033C43.3362 34.0926 43.1655 33.9219 42.9549 33.9219Z" fill="#E3B79D"/>
<path d="M31.6123 33.9209H29.9915C29.8336 33.9209 29.7055 34.049 29.7055 34.2069V36.7336C29.7055 36.8915 29.8336 37.0195 29.9915 37.0195H31.6123C31.7703 37.0195 31.8983 36.8915 31.8983 36.7336V34.2069C31.8983 34.049 31.7703 33.9209 31.6123 33.9209Z" fill="#FDE3C8"/>
<path d="M33.8568 37.0195H32.9987C32.9034 37.0195 32.8557 36.9719 32.8557 36.8765V34.0639C32.8557 34.0163 32.9034 33.9209 32.9987 33.9209H33.8568C33.9521 33.9209 33.9998 34.0163 33.9998 34.0639V36.8765C33.9998 36.9719 33.9521 37.0195 33.8568 37.0195Z" fill="#FDE3C8"/>
<path d="M41.5735 37.0206H40.7631C40.7154 37.0206 40.6201 36.9729 40.6201 36.8775V34.0649C40.6201 34.0172 40.7154 33.9219 40.7631 33.9219H41.5735C41.6689 33.9219 41.7166 34.0172 41.7166 34.0649V36.8775C41.7166 36.9729 41.6689 37.0206 41.5735 37.0206Z" fill="#B8CEEB"/>
<path d="M42.9533 37.0205H28.8426C28.6319 37.0205 28.4612 37.1913 28.4612 37.4019V39.6901C28.4612 39.9007 28.6319 40.0715 28.8426 40.0715H42.9533C43.164 40.0715 43.3347 39.9007 43.3347 39.6901V37.4019C43.3347 37.1913 43.164 37.0205 42.9533 37.0205Z" fill="#FDE3C8"/>
<path d="M41.8146 37.0205H40.1937C40.0358 37.0205 39.9077 37.1486 39.9077 37.3065V39.7855C39.9077 39.9435 40.0358 40.0715 40.1937 40.0715H41.8146C41.9726 40.0715 42.1006 39.9435 42.1006 39.7855V37.3065C42.1006 37.1486 41.9726 37.0205 41.8146 37.0205Z" fill="#E3B79D"/>
<path d="M37.8099 39.9285V37.1636C37.8099 37.0682 37.9052 37.0205 37.9529 37.0205H38.811C38.9064 37.0205 38.954 37.0682 38.954 37.1636V39.9285C38.954 40.0238 38.9064 40.0715 38.811 40.0715H37.9529C37.9052 40.0715 37.8099 40.0238 37.8099 39.9285Z" fill="#E3B79D"/>
<path d="M30.0856 39.9285V37.1636C30.0856 37.0682 30.1333 37.0205 30.2285 37.0205H31.039C31.1343 37.0205 31.182 37.0682 31.182 37.1636V39.9285C31.182 40.0238 31.1343 40.0715 31.039 40.0715H30.2285C30.1333 40.0715 30.0856 40.0238 30.0856 39.9285Z" fill="#E3B79D"/>
<path d="M28.4681 36.9261C28.325 36.9261 28.1821 36.7831 28.1821 36.64V34.3041C28.1821 33.9704 28.4681 33.6367 28.8494 33.6367H39.9092C40.0999 33.6367 40.1953 33.7798 40.1953 33.9227C40.1953 34.1135 40.0999 34.2565 39.9092 34.2565H28.8494C28.8018 34.2565 28.7541 34.2565 28.7541 34.3041V36.64C28.7541 36.7831 28.6588 36.9261 28.4681 36.9261Z" fill="white"/>
<path d="M43.3408 40.0247C43.1978 40.0247 43.0548 39.8816 43.0548 39.691V37.4028C43.0548 37.3551 43.0071 37.3074 42.9594 37.3074H31.8996C31.7566 37.3074 31.6136 37.1644 31.6136 37.0214C31.6136 36.8307 31.7566 36.7354 31.8996 36.7354H42.9594C43.3408 36.7354 43.6745 37.0214 43.6745 37.4028V39.691C43.6745 39.8816 43.5315 40.0247 43.3408 40.0247Z" fill="white"/>
<path d="M42.9549 40.0732H28.844C28.6334 40.0732 28.4626 40.244 28.4626 40.4546V42.7428C28.4626 42.9535 28.6334 43.1242 28.844 43.1242H42.9549C43.1655 43.1242 43.3362 42.9535 43.3362 42.7428V40.4546C43.3362 40.244 43.1655 40.0732 42.9549 40.0732Z" fill="#E3B79D"/>
<path d="M31.6123 40.0732H29.9915C29.8336 40.0732 29.7055 40.2013 29.7055 40.3593V42.8382C29.7055 42.9962 29.8336 43.1242 29.9915 43.1242H31.6123C31.7703 43.1242 31.8983 42.9962 31.8983 42.8382V40.3593C31.8983 40.2013 31.7703 40.0732 31.6123 40.0732Z" fill="#FDE3C8"/>
<path d="M33.8568 43.1718H32.9987C32.9034 43.1718 32.8557 43.1242 32.8557 43.0289V40.2162C32.8557 40.1685 32.9034 40.0732 32.9987 40.0732H33.8568C33.9521 40.0732 33.9998 40.1685 33.9998 40.2162V43.0289C33.9998 43.1242 33.9521 43.1718 33.8568 43.1718Z" fill="#FDE3C8"/>
<path d="M41.5728 43.1718H40.7624C40.7147 43.1718 40.6194 43.1242 40.6194 43.0289V40.2162C40.6194 40.1685 40.7147 40.0732 40.7624 40.0732H41.5728C41.6681 40.0732 41.7158 40.1685 41.7158 40.2162V43.0289C41.7158 43.1242 41.6681 43.1718 41.5728 43.1718Z" fill="#FDE3C8"/>
<path d="M28.4681 43.0764C28.325 43.0764 28.1821 42.9334 28.1821 42.7904V40.4544C28.1821 40.1208 28.4681 39.7871 28.8494 39.7871H39.9092C40.0999 39.7871 40.1953 39.9301 40.1953 40.0731C40.1953 40.2638 40.0999 40.4068 39.9092 40.4068H28.8494C28.8018 40.4068 28.7541 40.4068 28.7541 40.4544V42.7904C28.7541 42.9334 28.6588 43.0764 28.4681 43.0764Z" fill="white"/>
<path d="M47.6823 43.1718C52.395 43.1718 56.2155 39.3514 56.2155 34.6387C56.2155 29.9259 52.395 26.1055 47.6823 26.1055C42.9695 26.1055 39.1491 29.9259 39.1491 34.6387C39.1491 39.3514 42.9695 43.1718 47.6823 43.1718Z" fill="#FDE3C8"/>
<path fill-rule="evenodd" clip-rule="evenodd" d="M47.6803 27.583C49.6348 27.583 51.3986 28.3457 52.6858 29.6329C53.9729 30.92 54.7357 32.6838 54.7357 34.6384C54.7357 36.5929 53.9729 38.3091 52.6858 39.5962C51.3986 40.8833 49.6348 41.6937 47.6803 41.6937C45.7734 41.6937 44.0096 40.8833 42.7225 39.5962C41.4353 38.3091 40.6726 36.5929 40.6726 34.6384C40.6726 32.6838 41.4353 30.92 42.7225 29.6329C44.0096 28.3457 45.7734 27.583 47.6803 27.583ZM51.78 30.5386C50.7313 29.4898 49.3011 28.8701 47.6803 28.8701C46.1071 28.8701 44.677 29.4898 43.6282 30.5386C42.5794 31.5874 41.9597 33.0175 41.9597 34.6384C41.9597 36.2116 42.5794 37.6417 43.6282 38.6904C44.677 39.7392 46.1071 40.4066 47.6803 40.4066C49.3011 40.4066 50.7313 39.7392 51.78 38.6904C52.8288 37.6417 53.4486 36.2116 53.4486 34.6384C53.4486 33.0175 52.8288 31.5874 51.78 30.5386Z" fill="#E3B79D"/>
<path d="M47.3436 35.1635L46.6286 34.6391H46.5809C46.1995 34.3531 45.9135 33.9241 45.8182 33.4473C45.7705 32.9706 45.8658 32.4939 46.1518 32.0649C46.3902 31.7311 46.6763 31.4928 47.0576 31.3497V30.7777C47.0576 30.3964 47.3436 30.1104 47.6773 30.1104C48.0587 30.1104 48.3447 30.3964 48.3447 30.7777V31.3974C48.4718 31.461 48.5989 31.5245 48.7261 31.5882L49.4412 32.1125C49.7272 32.3032 49.8225 32.6846 49.5842 32.9706C49.3935 33.2566 49.0122 33.352 48.7261 33.1613L48.011 32.6846C48.011 32.6528 47.9952 32.6369 47.9633 32.6369C47.868 32.5734 47.7885 32.5415 47.725 32.5415H47.6773C47.6773 32.5415 47.6614 32.5415 47.6296 32.5415C47.5979 32.5415 47.5661 32.5415 47.5343 32.5415C47.4072 32.5734 47.296 32.6528 47.2006 32.78C47.2006 32.78 47.1848 32.7958 47.1529 32.8276C47.0894 32.9547 47.0735 33.0819 47.1053 33.209C47.1371 33.3679 47.2006 33.495 47.296 33.5904C47.3277 33.5904 47.3595 33.6062 47.3913 33.638L48.0587 34.1147L48.7738 34.5915C49.2028 34.8775 49.4888 35.3065 49.5365 35.7833C49.6319 36.26 49.5365 36.7366 49.2505 37.1657C49.0122 37.4994 48.7261 37.7378 48.3447 37.8807V38.5005C48.3447 38.8342 48.0587 39.1202 47.6773 39.1202C47.3436 39.1202 47.0576 38.8342 47.0576 38.5005V37.8331C46.9305 37.8013 46.8034 37.7378 46.6763 37.6424L45.9612 37.1657C45.6751 36.9274 45.5798 36.546 45.8182 36.26C46.0088 35.9739 46.3902 35.8786 46.6763 36.1169L47.3913 36.5937C47.4867 36.6572 47.582 36.689 47.6773 36.689C47.7091 36.689 47.7409 36.689 47.7727 36.689C47.8044 36.689 47.8362 36.689 47.868 36.689C48.011 36.689 48.1064 36.5937 48.2018 36.4506C48.297 36.3076 48.3447 36.1646 48.297 36.0216C48.297 35.8786 48.2018 35.7356 48.0587 35.6402L47.3436 35.1635Z" fill="#E3B79D"/>
<path d="M41.9567 41.3617C41.8296 41.3617 41.7343 41.3299 41.6707 41.2664C39.8115 39.5501 38.7151 37.1189 38.7151 34.64C38.7151 29.6822 42.7671 25.6777 47.6773 25.6777C51.3003 25.6777 54.4944 27.7753 55.9245 31.0646C56.0198 31.303 55.9245 31.5413 55.7338 31.6367C55.4954 31.7321 55.2571 31.6367 55.1617 31.3983C53.8746 28.4427 50.919 26.5358 47.6773 26.5358C43.2438 26.5358 39.5732 30.1589 39.5732 34.64C39.5732 36.8805 40.5742 39.0734 42.2428 40.5989C42.3857 40.7896 42.4334 41.0279 42.2428 41.2187C42.1792 41.314 42.0838 41.3617 41.9567 41.3617Z" fill="white"/>
</g>
<defs>
<clipPath id="clip0_1641_845">
<rect width="300" height="177.632" fill="white"/>
</clipPath>
</defs>
</svg>
