<svg width="40" height="40" viewBox="0 0 40 40" fill="none" xmlns="http://www.w3.org/2000/svg">
<rect width="39.7163" height="40" rx="10" fill="#3D588F"/>
<path d="M24.36 22C24.44 21.34 24.5 20.68 24.5 20C24.5 19.32 24.44 18.66 24.36 18H27.74C27.9 18.64 28 19.31 28 20C28 20.69 27.9 21.36 27.74 22H24.36ZM22.59 27.56C23.19 26.45 23.65 25.25 23.97 24H26.92C25.9512 25.6683 24.4141 26.932 22.59 27.56ZM22.34 22H17.66C17.56 21.34 17.5 20.68 17.5 20C17.5 19.32 17.56 18.65 17.66 18H22.34C22.43 18.65 22.5 19.32 22.5 20C22.5 20.68 22.43 21.34 22.34 22ZM20 27.96C19.17 26.76 18.5 25.43 18.09 24H21.91C21.5 25.43 20.83 26.76 20 27.96ZM16 16H13.08C14.0389 14.3272 15.5748 13.0615 17.4 12.44C16.8 13.55 16.35 14.75 16 16ZM13.08 24H16C16.35 25.25 16.8 26.45 17.4 27.56C15.5786 26.9317 14.0448 25.6677 13.08 24ZM12.26 22C12.1 21.36 12 20.69 12 20C12 19.31 12.1 18.64 12.26 18H15.64C15.56 18.66 15.5 19.32 15.5 20C15.5 20.68 15.56 21.34 15.64 22H12.26ZM20 12.03C20.83 13.23 21.5 14.57 21.91 16H18.09C18.5 14.57 19.17 13.23 20 12.03ZM26.92 16H23.97C23.657 14.7615 23.1936 13.5659 22.59 12.44C24.43 13.07 25.96 14.34 26.92 16ZM20 10C14.47 10 10 14.5 10 20C10 22.6522 11.0536 25.1957 12.9289 27.0711C13.8575 27.9997 14.9599 28.7362 16.1732 29.2388C17.3864 29.7413 18.6868 30 20 30C22.6522 30 25.1957 28.9464 27.0711 27.0711C28.9464 25.1957 30 22.6522 30 20C30 18.6868 29.7413 17.3864 29.2388 16.1732C28.7362 14.9599 27.9997 13.8575 27.0711 12.9289C26.1425 12.0003 25.0401 11.2638 23.8268 10.7612C22.6136 10.2587 21.3132 10 20 10Z" fill="white"/>
</svg>
