<svg width="30" height="32" viewBox="0 0 30 32" fill="none" xmlns="http://www.w3.org/2000/svg">
<path d="M8.73672 28.8131L1.70722 11.9765C1.66314 11.8913 1.62155 11.8036 1.58298 11.7139C0.813059 9.92315 1.4367 7.91894 2.8914 6.79184C3.2826 6.48878 3.73447 6.24934 4.23537 6.09406L11.5905 3.67608L14.6712 2.66322L18.7101 1.33526C18.8179 1.3017 18.926 1.27866 19.0347 1.26412C19.8763 1.15191 20.7139 1.59673 21.081 2.39069L24.0776 8.88371L26.506 14.1454L28.4316 18.3181C28.9305 19.3991 28.3635 20.6725 27.2254 21.0252L26.6684 21.1975L26.3588 21.2937L25.7477 21.483L12.7907 25.4924C12.7416 25.5075 12.693 25.524 12.6454 25.5425C11.9326 25.8155 11.3911 26.4161 11.1972 27.161L11.1356 27.3969C10.8736 28.4053 11.8159 29.3125 12.8137 29.0119C12.8137 29.0119 12.8137 29.0119 12.8142 29.0114L24.2048 25.5816C24.9537 25.3567 25.5262 24.751 25.7096 23.9906L25.903 23.1871L25.955 22.9717L26.1194 22.2885L26.2591 22.5905L26.8647 23.9035C27.3637 24.9845 26.7961 26.2583 25.6585 26.6105L25.6134 26.6245L12.7561 30.6034C12.5708 30.6605 12.384 30.701 12.1966 30.7251C10.7725 30.911 9.35685 30.1566 8.73672 28.8131Z" fill="#FFC107"/>
<g opacity="0.55">
<path opacity="0.55" d="M7.91817 22.3468C7.75083 21.9081 7.40281 21.6335 7.14084 21.7334C6.87886 21.8334 6.80214 22.27 6.96947 22.7087C7.13681 23.1473 7.48484 23.4219 7.74681 23.322C8.00879 23.222 8.0855 22.7854 7.91817 22.3468Z" fill="white"/>
</g>
<g opacity="0.55">
<path opacity="0.55" d="M4.18968 13.1807C4.02235 12.7421 3.67432 12.4675 3.41234 12.5674C3.15036 12.6674 3.07363 13.104 3.24096 13.5426C3.4083 13.9813 3.75632 14.2559 4.01831 14.156C4.28029 14.056 4.35702 13.6194 4.18968 13.1807Z" fill="white"/>
</g>
<g opacity="0.55">
<path opacity="0.55" d="M26.259 22.5908L25.9549 22.972L25.9028 23.1874L26.3301 24.1457C26.7514 25.0579 26.4128 26.1078 25.6133 26.6248L25.6584 26.6108C26.796 26.2586 27.3635 24.9848 26.8646 23.9038L26.259 22.5908Z" fill="white"/>
</g>
<g opacity="0.55">
<path opacity="0.55" d="M12.6452 25.5427L12.1057 25.7095C11.3217 25.9525 10.7191 26.5832 10.5122 27.3781L10.4506 27.6141C10.1886 28.6224 11.1308 29.5296 12.1287 29.2291L12.8741 29.0047C12.854 29.0077 12.8345 29.0102 12.814 29.0117C12.8145 29.0121 12.8135 29.0122 12.8135 29.0122C11.8156 29.3127 10.8734 28.4056 11.1354 27.3972L11.197 27.1612C11.3908 26.4164 11.9323 25.8157 12.6452 25.5427Z" fill="white"/>
</g>
<g opacity="0.55">
<path opacity="0.55" d="M19.0347 1.26436C19.0097 1.27038 18.9851 1.2779 18.9606 1.2854L18.375 1.47825C19.208 1.37757 20.0326 1.82139 20.3962 2.60785L27.7468 18.5353C28.2267 19.5753 27.7208 20.7925 26.6684 21.1977L27.2254 21.0254C28.3635 20.6727 28.9305 19.3994 28.4316 18.3184L21.081 2.39095C20.7138 1.597 19.8763 1.15217 19.0347 1.26436Z" fill="white"/>
</g>
<path d="M2.31284 6.9736C2.82443 6.462 3.45736 6.07533 4.16171 5.85742L18.6323 1.09995C18.6337 1.09944 18.635 1.09905 18.6364 1.09859C19.6937 0.771279 20.8412 1.28215 21.3057 2.28688L28.6564 18.2145C28.9241 18.7945 28.9286 19.4619 28.6687 20.0456C28.4087 20.6295 27.9091 21.073 27.2984 21.2622L25.8207 21.7201L12.8636 25.7295C12.1567 25.9485 11.6233 26.5071 11.4368 27.2237L11.3752 27.4598C11.2751 27.8452 11.3866 28.2406 11.6739 28.517C11.9611 28.7933 12.3603 28.8897 12.7418 28.7747L24.1329 25.3444C24.7946 25.1457 25.3061 24.6048 25.4681 23.9327L25.8779 22.2307C25.9026 22.128 25.9896 22.0524 26.0946 22.042C26.1997 22.0316 26.2998 22.089 26.3441 22.1849L27.0894 23.7998C27.3572 24.3799 27.3615 25.0475 27.1014 25.6313C26.8412 26.2152 26.342 26.6585 25.7314 26.8476L12.829 30.8405C11.1178 31.3701 9.2615 30.5433 8.51114 28.9172C8.50987 28.9144 8.50866 28.9117 8.50751 28.9088L1.48169 12.0817C1.43693 11.9943 1.39427 11.9037 1.35488 11.8121C0.863364 10.6688 0.882983 9.40996 1.41021 8.26754C1.63444 7.78162 1.94172 7.3447 2.31284 6.9736ZM18.785 1.57173L4.31243 6.32977C3.22717 6.66562 2.33495 7.44717 1.86046 8.4753C1.39302 9.48835 1.37525 10.6038 1.81047 11.6162C1.84666 11.7003 1.88591 11.7835 1.92713 11.8635C1.9302 11.8694 1.93299 11.8754 1.93551 11.8815L8.96329 28.7135C9.61112 30.112 11.2092 30.8228 12.6824 30.3668L25.5848 26.3739C26.0588 26.2272 26.4466 25.8829 26.6484 25.4295C26.8504 24.9762 26.847 24.458 26.6392 24.0076L26.1929 23.0407L25.9502 24.0489C25.7471 24.8917 25.1054 25.5701 24.2757 25.8193L12.8848 29.2496C12.3293 29.4169 11.7481 29.2766 11.33 28.8743C10.9119 28.4719 10.7493 27.8964 10.8953 27.3348L10.957 27.0986C11.1869 26.2151 11.8447 25.5261 12.7169 25.2558L27.1516 20.7886C27.626 20.6416 28.0137 20.2972 28.2157 19.8438C28.4174 19.3907 28.4139 18.8726 28.2061 18.4223L20.8555 2.49483C20.4952 1.71545 19.6053 1.31877 18.785 1.57173Z" fill="#2E3349" stroke="white" stroke-width="0.8"/>
<g opacity="0.3">
<path opacity="0.3" d="M13.8918 22.968L25.6991 19.2404C26.1278 19.1051 26.3409 18.6246 26.1534 18.216L19.6032 3.94177C19.4436 3.59391 19.047 3.42285 18.6844 3.54556L6.98366 7.50535C6.56365 7.6475 6.35903 8.12196 6.54398 8.52498L12.9876 22.567C13.1447 22.9095 13.5324 23.0814 13.8918 22.968Z" fill="black"/>
</g>
<path d="M26.3583 21.2938L25.7472 21.4832L12.7902 25.4926C12.0063 25.7356 11.4037 26.3662 11.1968 27.1612L11.1352 27.3971C10.8732 28.4055 11.8154 29.3127 12.8133 29.0121L24.2043 25.5818C24.9532 25.3568 25.5258 24.7512 25.7091 23.9908L26.1189 22.2887L26.3583 21.2938Z" fill="white"/>
<path d="M11.7897 26.0563C12.061 25.7851 12.3983 25.579 12.7806 25.4606L26.405 21.2444L25.742 23.9987C25.5567 24.7675 24.9713 25.3865 24.2142 25.6139L12.8232 29.0442C12.3429 29.1889 11.8403 29.0676 11.4789 28.7198C11.1174 28.3718 10.9768 27.8743 11.103 27.3887L11.1646 27.1527C11.275 26.7287 11.4928 26.3533 11.7897 26.0563ZM26.3122 21.3433L25.7574 21.5153L12.8004 25.5247C12.0221 25.7659 11.4348 26.3808 11.2295 27.1697L11.1679 27.4056C11.0479 27.8674 11.1816 28.3406 11.5254 28.6715C11.8692 29.0023 12.3471 29.1177 12.8039 28.9801L24.1949 25.5497C24.9292 25.3291 25.4969 24.7289 25.6768 23.983L26.3122 21.3433Z" fill="white"/>
<g opacity="0.3">
<path opacity="0.3" d="M26.3583 21.2938L25.7472 21.4832L12.7902 25.4926C12.0063 25.7356 11.4037 26.3662 11.1968 27.1612L11.1352 27.3971C10.8732 28.4055 11.8154 29.3127 12.8133 29.0121L14.7699 28.423C13.8572 28.5472 13.0627 27.6987 13.3057 26.7624L13.3673 26.5265C13.5742 25.7315 14.1768 25.1008 14.9607 24.8579L26.3483 21.3339L26.3583 21.2938Z" fill="white"/>
</g>
<path d="M11.6377 25.9046C11.9331 25.6092 12.3006 25.3848 12.7169 25.2558L26.285 21.057C26.3702 21.0306 26.463 21.052 26.528 21.113C26.593 21.174 26.6203 21.2652 26.5994 21.3519L25.9502 24.0489C25.7471 24.8917 25.1054 25.5701 24.2757 25.8193L12.8848 29.2496C12.3293 29.4169 11.7481 29.2766 11.33 28.8743C10.9119 28.4719 10.7493 27.8964 10.8953 27.3348L10.9569 27.0986C11.0771 26.6368 11.3142 26.2281 11.6377 25.9046ZM26.0153 21.6597L25.8206 21.7201L12.8636 25.7295C12.1567 25.9485 11.6232 26.5071 11.4368 27.2237L11.3751 27.4598C11.275 27.8452 11.3866 28.2406 11.6739 28.517C11.961 28.7933 12.3602 28.8897 12.7418 28.7747L24.1329 25.3444C24.7946 25.1457 25.3061 24.6047 25.4681 23.9327L26.0153 21.6597Z" fill="white"/>
<g opacity="0.3">
<path opacity="0.3" d="M3.70696 7.63856C3.62361 7.4599 3.39539 7.40081 3.23915 7.52108C3.23813 7.52186 3.23715 7.52264 3.23612 7.5234C1.78145 8.65049 1.15778 10.6547 1.9277 12.4455C1.96626 12.5352 2.00783 12.6228 2.05193 12.708L8.92013 29.159C9.60839 30.284 10.8988 30.8941 12.1957 30.7253C12.2012 30.7218 12.2032 30.7198 12.2032 30.7198C9.74766 30.6347 8.20381 27.9056 11.0125 24.7583C11.2825 24.4562 11.3501 24.024 11.1783 23.6568L3.70696 7.63856Z" fill="black"/>
</g>
<path d="M8.10762 22.347C7.94029 21.9083 7.59226 21.6337 7.33029 21.7337C7.06831 21.8336 6.99159 22.2702 7.15893 22.7089C7.32626 23.1476 7.67429 23.4222 7.93626 23.3222C8.19824 23.2223 8.27496 22.7857 8.10762 22.347Z" fill="white"/>
<path d="M4.37913 13.1807C4.2118 12.7421 3.86376 12.4675 3.60178 12.5674C3.3398 12.6673 3.26308 13.104 3.43041 13.5426C3.59775 13.9813 3.94578 14.2559 4.20776 14.156C4.46974 14.056 4.54647 13.6194 4.37913 13.1807Z" fill="white"/>
<path d="M22.3792 24.3361L18.4795 25.5478L20.5787 30.1C20.6907 30.3429 21.0194 30.3827 21.1862 30.1735L22.283 28.7975L23.9886 29.2138C24.2809 29.2852 24.5264 28.9872 24.4002 28.714L22.3887 24.3566L22.3792 24.3361Z" fill="#FF4229"/>
<g opacity="0.55">
<path opacity="0.55" d="M22.341 24.4039L18.6406 25.5536L18.6642 25.6062L21.8721 24.6093L23.988 29.1799L24.6177 29.3337L22.341 24.4039Z" fill="white"/>
</g>
<path d="M18.3031 25.3728C18.3312 25.3447 18.366 25.3234 18.4049 25.3113L22.3047 24.0997C22.4235 24.0628 22.5512 24.1196 22.6034 24.2326L24.7121 28.8003C24.7943 28.9784 24.768 29.1831 24.6433 29.3345C24.5185 29.4859 24.3227 29.5512 24.1322 29.5046L22.377 29.0763L21.2769 30.4559C21.1669 30.5944 20.9957 30.6643 20.82 30.643C20.6442 30.6217 20.4951 30.513 20.421 30.3522L18.2532 25.652C18.2234 25.5871 18.2229 25.5125 18.2519 25.4473C18.2644 25.4192 18.2818 25.3941 18.3031 25.3728ZM22.2443 24.6378L18.822 25.701L20.8713 30.1445C20.8726 30.1474 20.8738 30.15 20.8796 30.1507C20.8856 30.1514 20.8876 30.1488 20.8892 30.1468L22.0881 28.6433C22.1482 28.5681 22.2469 28.5341 22.3407 28.557L24.2498 29.0229C24.254 29.0239 24.2558 29.0246 24.2605 29.0193C24.2647 29.0142 24.2637 29.012 24.2619 29.0082L22.2443 24.6378Z" fill="white"/>
<path d="M23.6506 24.0014C23.4257 24.2638 23.1505 24.3624 22.8745 24.4583C22.5992 24.5564 22.3214 24.6461 22.0422 24.7315C21.4824 24.8977 20.917 25.045 20.3592 25.2175L19.5218 25.474C19.2431 25.5608 18.9624 25.6412 18.6862 25.7366C18.4109 25.8348 18.131 25.9201 17.84 25.9657C17.5495 26.0132 17.2544 26.0446 16.9448 26.0232C16.9237 26.0217 16.9078 26.0034 16.9093 25.9824C16.9101 25.9707 16.9163 25.9604 16.9251 25.954C17.1766 25.7724 17.4428 25.6437 17.7135 25.5311C17.8488 25.4747 17.9864 25.4261 18.1263 25.3855C18.266 25.344 18.4088 25.3136 18.5493 25.2743C18.8312 25.1987 19.1086 25.1083 19.3878 25.0241L20.2245 24.7678C20.7828 24.5984 21.3334 24.4038 21.8897 24.2282C22.1686 24.1426 22.4487 24.0614 22.7315 23.9886C23.0136 23.9135 23.2963 23.8411 23.6295 23.9326C23.6522 23.9388 23.6656 23.9623 23.6593 23.985C23.6576 23.9911 23.6545 23.9968 23.6506 24.0014Z" fill="#44464E"/>
<g opacity="0.3">
<path opacity="0.3" d="M20.9851 30.1783C20.9851 30.1783 19.3355 25.9255 22.4599 24.6618L22.235 24.4369L18.5762 25.5183L20.6532 30.3205L20.9851 30.1783Z" fill="white"/>
</g>
</svg>
