<svg width="191" height="153" viewBox="0 0 191 153" fill="none" xmlns="http://www.w3.org/2000/svg">
<path fill-rule="evenodd" clip-rule="evenodd" d="M58.7396 63.2446C57.2164 58.5065 56.73 52.3213 59.9666 45.246C66.7184 30.4819 92.2616 27.3222 114.161 9.06244C136.062 27.3222 161.604 30.4819 168.357 45.246C171.593 52.3217 171.105 58.5065 169.584 63.2446C181.293 74.8435 188.409 90.1421 188.409 106.909C188.409 124.594 180.488 140.643 167.614 152.444H60.7092C47.8356 140.643 39.9141 124.594 39.9141 106.909C39.9136 90.1425 47.0312 74.8435 58.7396 63.2446Z" fill="url(#paint0_linear)"/>
<path fill-rule="evenodd" clip-rule="evenodd" d="M67.1924 107.854L58.2354 114.337C59.6319 124.326 81.7885 146.422 109.019 152.444H135.854C144.383 150.391 152.924 146.164 161.071 139.022L103.854 104.094L67.1924 107.854Z" fill="#4C466A"/>
<path fill-rule="evenodd" clip-rule="evenodd" d="M83.8415 108.06L78.1561 121.748C78.1561 121.748 79.7181 127.739 80.121 132.14C80.3567 134.708 78.261 144.626 76.4736 152.444H151.836C150.049 144.626 147.954 134.708 148.188 132.14C148.592 127.739 150.154 121.748 150.154 121.748L147.786 116.59C147.786 116.59 120.814 118.09 114.154 118.525C107.495 118.09 83.8415 108.06 83.8415 108.06Z" fill="white"/>
<path fill-rule="evenodd" clip-rule="evenodd" d="M79.2001 119.235L78.1562 121.748C78.1562 121.748 79.7183 127.74 80.1212 132.141C80.1977 132.967 80.0309 134.555 79.7121 136.589C81.5291 134.908 84.2922 134.026 88.5187 135.953C98.391 140.455 113.038 158.407 150.534 146.588C149.179 140.293 148.01 134.092 148.189 132.141C148.592 127.74 150.154 121.748 150.154 121.748L149.671 120.695C145.968 119.401 142.411 118.167 139.223 117.069C130.724 117.548 118.372 118.25 114.155 118.525C111.861 118.375 107.552 117.087 102.887 115.463C92.1009 116.828 81.5871 118.177 81.5871 118.177L79.2001 119.235Z" fill="#E4DAE2"/>
<path fill-rule="evenodd" clip-rule="evenodd" d="M55.6514 118.027C55.6514 118.027 67.5625 80.7716 70.517 74.9968C73.4715 69.222 83.5109 67.6177 87.3037 67.8797C91.0952 68.1417 88.045 84.9113 85.9957 89.0852C83.9464 93.2599 62.2031 119.771 55.6514 118.027Z" fill="white"/>
<path fill-rule="evenodd" clip-rule="evenodd" d="M93.6358 18.3353C91.678 35.6273 82.5947 49.4085 79.6657 64.2553C79.6657 64.2553 72.4027 67.3406 69.8511 70.8321C67.2999 74.3231 62.5192 96.9265 55.0001 109.013C55.0001 109.013 54.1246 110.922 56.4418 112.183C60.66 114.478 61.0796 115.192 65.052 118.067L67.3362 121.825C110.206 71.489 139.259 119.587 141.061 116.454C147.238 105.711 143.748 73.4811 141.465 68.3782C141.465 68.3782 141.029 67.5391 140.223 67.1358C140.223 67.1358 138.108 61.6631 133.676 59.1119C129.246 56.5607 93.6358 18.3353 93.6358 18.3353Z" fill="#675D82"/>
<path fill-rule="evenodd" clip-rule="evenodd" d="M172.902 118.023C172.902 118.023 160.747 80.7712 157.793 74.9968C154.839 69.2224 144.799 67.6177 141.006 67.8797C137.215 68.1417 140.265 84.9113 142.314 89.0852C144.364 93.2599 166.352 119.768 172.902 118.023Z" fill="white"/>
<path fill-rule="evenodd" clip-rule="evenodd" d="M134.674 18.3353C136.632 35.6273 145.715 49.4085 148.644 64.2553C148.644 64.2553 155.907 67.3406 158.459 70.8321C161.01 74.3231 165.79 96.9265 173.31 109.013C173.31 109.013 174.185 110.922 171.867 112.183C167.65 114.478 167.23 115.192 163.258 118.067L160.973 121.825C160.973 121.825 162.316 135.657 162.182 137.672C162.047 139.686 147.678 147.609 130.222 144.923C120.628 143.447 110.467 138.24 102.233 132.065H102.232C73.7653 134.823 70.9922 113.275 70.9922 113.275C70.9922 113.275 80.2928 105.935 84.0563 102.965C83.4905 95.7961 83.8465 87.5753 84.5469 80.8744C85.1742 74.8748 86.0781 70.0933 86.8453 68.3786C86.8453 68.3786 87.2812 67.5395 88.0877 67.1363C88.0877 67.1363 90.2022 61.6636 94.6331 59.1123C99.0645 56.5607 134.674 18.3353 134.674 18.3353Z" fill="#675D82"/>
<path fill-rule="evenodd" clip-rule="evenodd" d="M97.1436 57.0685C100.604 53.9301 106.657 47.7959 112.904 41.3169H137.833C138.424 41.3169 138.907 41.8 138.907 42.3909V72.5355V72.538V72.5463C138.908 72.7666 138.971 76.3441 140.96 79.3283C143.013 82.4077 161.678 106.477 161.678 106.477L138.701 92.3076C138.505 92.5754 138.188 92.7509 137.833 92.7509H98.2171C97.6266 92.7509 97.1436 92.2679 97.1436 91.6761V57.0685Z" fill="#4C466A"/>
<path fill-rule="evenodd" clip-rule="evenodd" d="M163.989 117.532C163.759 117.702 163.515 117.88 163.257 118.067L162.053 120.048L155.288 128.839C155.288 128.839 126.901 102.625 118.135 94.964C109.368 87.3032 97.3458 100.002 97.3458 100.002L87.4706 110.113L78.9414 107.001L84.0551 102.965C84.0008 102.274 83.9557 101.573 83.9172 100.865L100.001 81.0303L128.157 80.0018L163.989 117.532Z" fill="#4C466A"/>
<path fill-rule="evenodd" clip-rule="evenodd" d="M114.155 0.18634C125.525 0.18634 134.828 9.4886 134.828 20.859V40.4869C134.828 51.8573 125.525 61.1596 114.155 61.1596C102.785 61.1596 93.4824 51.8573 93.4824 40.4869V20.859C93.4824 9.4886 102.785 0.18634 114.155 0.18634Z" fill="#675D82"/>
<path fill-rule="evenodd" clip-rule="evenodd" d="M99.0186 28.2544C99.8485 23.2627 102.595 20.3291 102.595 20.3291C102.595 20.3291 108.197 15.4101 110.132 14.3792C111.285 13.7644 112.728 13.4782 114.154 13.4815C115.579 13.4782 117.024 13.7649 118.177 14.3792C120.112 15.4101 125.713 20.3291 125.713 20.3291C125.713 20.3291 128.456 23.2577 129.288 28.2431V34.6895C129.288 37.3757 128.793 41.4368 126.04 45.6679C124.614 47.8577 120.569 51.8602 117.001 55.2109C115.251 55.5481 113.376 55.6401 111.525 55.4157C107.905 52.0262 103.721 47.9032 102.266 45.6679C99.5133 41.4368 99.019 37.3753 99.019 34.6895V28.2544H99.0186Z" fill="#FCD1C8"/>
<path fill-rule="evenodd" clip-rule="evenodd" d="M102.121 20.9079C102.423 20.9079 102.596 20.9112 102.596 20.9112C102.596 20.9112 108.197 15.9922 110.133 14.9613C111.285 14.3466 112.729 14.0612 114.154 14.0637C115.58 14.0612 117.024 14.347 118.177 14.9613C120.113 15.9922 125.714 20.9112 125.714 20.9112C125.714 20.9112 125.869 20.8849 126.141 20.8461C126.946 21.8916 128.66 24.4821 129.288 28.2431V28.7271C129.284 28.7605 129.283 28.7931 129.288 28.8232C128.898 27.7358 128.436 26.8039 127.992 26.0425C127.094 24.5013 126.272 23.6643 126.272 23.6643C126.272 23.6643 120.401 18.7453 118.372 17.7135C117.163 17.0997 115.65 16.8134 114.156 16.8167C112.662 16.8134 111.149 17.1001 109.941 17.7135C107.912 18.7453 102.04 23.6643 102.04 23.6643C102.04 23.6643 101.217 24.5026 100.318 26.045C99.8741 26.8081 99.4115 27.7433 99.0195 28.8357C99.0237 28.8081 99.0237 28.7801 99.0195 28.7517V28.2548C99.633 24.5594 101.298 21.9923 102.121 20.9079Z" fill="#F8A8A0"/>
<path fill-rule="evenodd" clip-rule="evenodd" d="M112.93 45.4247C112.747 45.3913 112.624 45.2158 112.658 45.0315C112.69 44.848 112.866 44.7256 113.05 44.759C113.053 44.759 114.026 44.9216 115.276 44.7557C115.461 44.7318 115.632 44.8627 115.655 45.0478C115.68 45.2329 115.55 45.4038 115.363 45.4272C114.014 45.6048 112.934 45.4247 112.93 45.4247Z" fill="#EE8B83"/>
<path fill-rule="evenodd" clip-rule="evenodd" d="M110.844 43.6052C110.667 43.5446 110.572 43.3516 110.633 43.1744C110.694 42.9964 110.887 42.9028 111.065 42.9638C111.072 42.9663 113.798 43.9333 117.267 42.9579C117.447 42.9073 117.633 43.0127 117.684 43.1932C117.735 43.3737 117.629 43.5605 117.45 43.6111C113.773 44.6449 110.853 43.6086 110.844 43.6052Z" fill="#EE8B83"/>
<path fill-rule="evenodd" clip-rule="evenodd" d="M139.143 86.8081C139.084 86.8131 139.614 86.3551 140.125 86.3806C140.638 86.4053 141.166 87.1445 141.166 87.2619C141.166 87.3785 140.386 100.715 139.916 100.715C139.446 100.715 134.36 100.077 134.242 99.7414C134.125 99.4059 134.605 97.8275 134.517 97.7263C134.431 97.6235 136.072 95.9812 136.072 95.9812L139.143 86.8081Z" fill="#4C466A"/>
<path fill-rule="evenodd" clip-rule="evenodd" d="M137.279 84.0831L137.412 84.7546L142.314 89.0852L141.139 103.219L139.259 103.286L129.356 91.6707C129.356 91.6707 128.113 90.4952 128.55 87.944C128.986 85.3927 137.279 84.0831 137.279 84.0831Z" fill="#FCD1C8"/>
<path fill-rule="evenodd" clip-rule="evenodd" d="M140.607 87.5787L142.313 89.0852L141.26 101.75C140.453 102.085 139.614 102.403 138.755 102.697L134.33 97.5069C136.497 95.677 139.252 92.5123 140.607 87.5787Z" fill="#F8A8A0"/>
<path fill-rule="evenodd" clip-rule="evenodd" d="M133.048 96.0017L129.356 91.6711C129.356 91.6711 128.113 90.4956 128.55 87.9443C128.572 87.816 128.614 87.6919 128.674 87.5703C131.583 87.8014 133.885 88.0158 134.096 88.1328C134.701 88.4692 137.316 89.8507 137.316 89.8507C137.316 89.8507 134.269 94.1203 133.048 96.0017Z" fill="#F8A8A0"/>
<path fill-rule="evenodd" clip-rule="evenodd" d="M94.3463 38.5521H133.962C134.552 38.5521 135.036 39.0352 135.036 39.6269V88.9114C135.036 89.5023 134.552 89.9854 133.962 89.9854H94.3463C93.755 89.9854 93.2715 89.5023 93.2715 88.9114V39.6274C93.2715 39.0356 93.755 38.5521 94.3463 38.5521Z" fill="#83D0CD"/>
<path fill-rule="evenodd" clip-rule="evenodd" d="M99.1786 40.8359H129.128C129.128 42.8296 130.758 44.4598 132.751 44.4598V84.078C130.758 84.078 129.128 85.7086 129.128 87.702H99.1786C99.1786 85.7086 97.5489 84.078 95.5547 84.078V44.4598C97.5484 44.4598 99.1786 42.8301 99.1786 40.8359Z" fill="#C8E5E1"/>
<path fill-rule="evenodd" clip-rule="evenodd" d="M105.016 55.9485C104.859 55.88 104.716 55.7893 104.594 55.6823V55.6815V55.6807C104.297 55.422 104.113 55.0651 104.113 54.6735C104.113 54.2811 104.297 53.9251 104.594 53.6656L104.595 53.6647C104.892 53.4069 105.301 53.246 105.752 53.246H106.421C105.466 47.8444 113.742 45.2605 114.025 45.174L114.028 45.1724L114.032 45.1715L114.037 45.1699L114.042 45.1682L114.046 45.1673L114.051 45.1665L114.054 45.1657L114.06 45.164L114.062 45.1632L114.068 45.1623L114.072 45.1615L114.078 45.1598H114.08L114.088 45.1581H114.088L114.097 45.1573H114.098L114.106 45.1556H114.107L114.114 45.1548H114.116L114.124 45.154H114.125L114.133 45.1531H114.142H114.152H114.16H114.161H114.169H114.178L114.187 45.154H114.188L114.196 45.1548H114.197L114.205 45.1556H114.206L114.213 45.1573H114.214L114.223 45.1581H114.223L114.231 45.1598H114.233L114.24 45.1615L114.242 45.1623L114.249 45.1632L114.251 45.164L114.257 45.1657L114.26 45.1665L114.265 45.1673L114.269 45.1682L114.274 45.1699L114.279 45.1715L114.283 45.1724C114.447 45.2229 122.852 47.8047 121.889 53.246H122.56C123.009 53.246 123.42 53.4069 123.715 53.6647L123.718 53.6656C124.014 53.9251 124.199 54.2811 124.199 54.6735C124.199 55.0563 124.023 55.4048 123.738 55.6619C123.732 55.6685 123.725 55.6748 123.718 55.6823C123.594 55.7893 123.451 55.88 123.293 55.9485L123.348 55.9949C124.228 56.638 124.786 57.3969 125.126 58.1955C125.463 58.9904 125.582 59.8207 125.582 60.6072V64.2687V67.9311C125.582 68.718 125.463 69.5471 125.126 70.3424C124.786 71.1397 124.229 71.8998 123.348 72.543L123.293 72.5894C123.451 72.6587 123.594 72.7486 123.718 72.8556C123.725 72.8631 123.732 72.8694 123.738 72.8769C124.023 73.1339 124.199 73.4824 124.199 73.8644C124.199 74.2568 124.014 74.6136 123.718 74.8723L123.715 74.8731C123.42 75.1318 123.009 75.2919 122.56 75.2919H121.889C122.852 80.7341 114.447 83.315 114.283 83.3655L114.279 83.3664L114.274 83.3672L114.269 83.3689L114.265 83.3705L114.26 83.3714L114.257 83.3731L114.251 83.3739L114.249 83.3747L114.242 83.3756L114.24 83.3764L114.233 83.3781H114.231L114.223 83.3797H114.223L114.214 83.3814H114.213L114.206 83.3822H114.205L114.197 83.3831H114.196L114.188 83.3839H114.187L114.178 83.3848H114.169L114.161 83.3856H114.16H114.152L114.142 83.3848H114.133L114.125 83.3839H114.124L114.116 83.3831H114.114L114.107 83.3822H114.106L114.098 83.3814H114.097L114.088 83.3797H114.088L114.08 83.3781H114.078L114.072 83.3764L114.068 83.3756L114.062 83.3747L114.06 83.3739L114.054 83.3731L114.051 83.3714L114.046 83.3705L114.042 83.3689L114.037 83.3672L114.032 83.3664L114.028 83.3655L114.025 83.3647C113.742 83.2774 105.466 80.694 106.421 75.2919H105.752C105.301 75.2919 104.892 75.1318 104.595 74.8731L104.594 74.8723C104.297 74.6136 104.113 74.2568 104.113 73.8644C104.113 73.4724 104.297 73.1159 104.594 72.8572V72.8556C104.716 72.7486 104.859 72.6587 105.016 72.5894L104.962 72.543C104.082 71.8998 103.524 71.1401 103.184 70.3424C102.847 69.5475 102.729 68.718 102.729 67.9311V64.2687V60.6072C102.729 59.8203 102.847 58.9904 103.184 58.1955C103.524 57.3974 104.082 56.638 104.962 55.9949L105.016 55.9485Z" fill="#83D0CD"/>
<path fill-rule="evenodd" clip-rule="evenodd" d="M134.384 75.3717C134.384 75.3717 134.39 72.6195 134.63 71.8802C134.63 71.8802 134.503 68.8752 134.686 67.9357C134.686 67.9357 134.686 65.186 134.686 64.2696C134.686 63.354 135.689 62.7489 136.275 62.5312C136.861 62.3134 136.994 63.135 136.994 64.344C136.994 65.5529 137.258 68.3891 137.296 69.5643C137.335 70.7389 137.637 72.3508 137.712 73.8949C137.788 75.439 138.167 80.2238 138.167 80.2238L134.384 75.3717Z" fill="#FCD1C8"/>
<path fill-rule="evenodd" clip-rule="evenodd" d="M134.384 75.3717C134.384 75.3717 134.389 73.291 134.548 72.2621L137.791 75.1899C137.928 77.2058 138.166 80.2234 138.166 80.2234L134.384 75.3717Z" fill="#F8A8A0"/>
<path fill-rule="evenodd" clip-rule="evenodd" d="M126.952 80.7763C126.952 80.7763 127.589 81.498 127.875 81.582C128.16 81.666 131.837 80.9952 132.752 80.5251C133.667 80.055 135.446 79.77 134.522 78.6952C133.599 77.6212 133.246 76.6809 131.988 76.6646C130.729 76.6475 129.755 75.8924 128.682 76.8991C127.607 77.9058 126.952 80.7763 126.952 80.7763Z" fill="#F8A8A0"/>
<path fill-rule="evenodd" clip-rule="evenodd" d="M89.2111 87.0538C89.2111 87.0538 88.6611 86.3484 88.0819 86.4312C87.5019 86.5143 87.0986 88.1182 87.0142 88.8399C86.9311 89.5616 90.26 97.7193 91.0272 98.8948C91.7932 100.07 93.3432 100.355 93.7623 100.036C94.1819 99.7172 94.2663 98.7607 94.0319 97.871C93.7966 96.9804 93.4773 96.3937 93.4109 96.2763C93.3428 96.1584 89.2111 87.0538 89.2111 87.0538Z" fill="#4C466A"/>
<path fill-rule="evenodd" clip-rule="evenodd" d="M130.51 72.9851L129.717 73.4673H129.716L129.71 73.4715V73.4723C128.166 74.4615 126.411 75.8263 126.411 75.8263C126.411 75.8263 125.27 76.8 125.354 78.5459C125.437 80.2919 125.572 81.8694 125.572 81.8694C125.572 81.8694 125.756 82.373 126.36 82.1047C126.965 81.836 127.603 81.2656 127.988 79.9229L129.92 78.1092C129.92 78.1092 131.782 78.3779 132.571 78.6128C132.571 78.6128 133.092 78.8151 132.84 79.2843C132.588 79.7545 128.307 81.0303 128.307 81.0303C128.307 81.0303 127.719 81.2317 127.484 81.9534C127.25 82.6751 127.232 85.0078 127.031 87.2397C127.031 87.2397 126.955 87.8022 127.231 88.0797C127.509 88.3572 129.052 88.7513 129.052 88.7513C129.052 88.7513 129.069 89.6572 129.657 90.2114C130.244 90.7647 130.815 90.9469 131.386 91.1345C131.956 91.3213 132.946 90.4642 133.164 89.9853C133.164 89.9853 134.844 89.9853 136.405 89.9853C137.966 89.9853 139.073 88.8679 139.107 87.7604C139.126 87.1595 139.064 86.5297 139.006 86.0245V86.0237C138.539 83.6697 139.288 82.2856 138.951 81.1272C138.616 79.9684 137.475 79.6337 137.39 78.8443C137.297 77.9647 137.275 77.1982 136.635 76.4774C135.981 75.7385 134.185 73.9261 133.144 72.9859C132.104 72.0456 131.08 72.6374 131.08 72.6374L130.51 72.9851Z" fill="#FCD1C8"/>
<path fill-rule="evenodd" clip-rule="evenodd" d="M155.289 128.839C150.264 123.353 142.254 112.169 137.587 105.518C144.607 100.1 145.768 93.2975 145.96 91.1132C151.964 96.8233 160.945 105.995 171.003 115.361C179.4 123.18 164.549 138.948 155.289 128.839Z" fill="white"/>
<path fill-rule="evenodd" clip-rule="evenodd" d="M91.0311 84.0831L90.8966 84.7546L85.9951 89.0852L87.1706 103.219L89.0507 103.286L98.9543 91.6707C98.9543 91.6707 100.196 90.4952 99.7596 87.944C99.3233 85.3927 91.0311 84.0831 91.0311 84.0831Z" fill="#FCD1C8"/>
<path fill-rule="evenodd" clip-rule="evenodd" d="M88.1776 87.1566L85.9941 89.0852L86.8312 99.1572C87.4718 99.5621 88.1496 99.9733 88.8437 100.372C89.4831 100.74 90.1012 101.041 90.7502 101.291L93.9947 97.4865C89.4982 94.2608 88.5541 88.8879 88.1776 87.1566Z" fill="#F8A8A0"/>
<path fill-rule="evenodd" clip-rule="evenodd" d="M95.6365 95.5625L98.9545 91.6707C98.9545 91.6707 100.196 90.4952 99.7598 87.944C99.7548 87.913 99.7477 87.8813 99.7393 87.8508L92.8353 88.3673L91.3359 89.9335L95.6365 95.5625Z" fill="#F8A8A0"/>
<path fill-rule="evenodd" clip-rule="evenodd" d="M93.9259 75.3717C93.9259 75.3717 93.9184 72.6195 93.6789 71.8802C93.6789 71.8802 93.8064 68.8752 93.6233 67.9357C93.6233 67.9357 93.6233 65.186 93.6233 64.2696C93.6233 63.354 92.6208 62.7489 92.0345 62.5312C91.4482 62.3134 91.3153 63.135 91.3153 64.344C91.3153 65.5529 91.0512 68.3891 91.0132 69.5643C90.9752 70.7389 90.673 72.3508 90.5978 73.8949C90.5217 75.439 90.1436 80.2238 90.1436 80.2238L93.9259 75.3717Z" fill="#FCD1C8"/>
<path fill-rule="evenodd" clip-rule="evenodd" d="M93.9255 75.3717C93.9255 75.3717 93.92 73.5008 93.7846 72.4301L90.5631 74.4912C90.4449 76.4076 90.1436 80.2234 90.1436 80.2234L93.9255 75.3717Z" fill="#F8A8A0"/>
<path fill-rule="evenodd" clip-rule="evenodd" d="M101.357 80.7763C101.357 80.7763 100.719 81.498 100.434 81.582C100.148 81.666 96.472 80.9952 95.5564 80.5251C94.642 80.055 92.8635 79.77 93.7866 78.6952C94.7097 77.6212 95.0616 76.6809 96.3215 76.6646C97.5802 76.6475 98.5539 75.8924 99.6275 76.8991C100.702 77.9058 101.357 80.7763 101.357 80.7763Z" fill="#F8A8A0"/>
<path fill-rule="evenodd" clip-rule="evenodd" d="M97.7983 72.9851L98.5923 73.4673H98.5931L98.5994 73.4715V73.4723C100.143 74.4615 101.899 75.8263 101.899 75.8263C101.899 75.8263 103.04 76.8 102.956 78.5459C102.872 80.2919 102.738 81.8694 102.738 81.8694C102.738 81.8694 102.553 82.373 101.949 82.1047C101.345 81.836 100.707 81.2656 100.321 79.9229L98.3896 78.1092C98.3896 78.1092 96.5263 78.3779 95.7377 78.6128C95.7377 78.6128 95.217 78.8151 95.469 79.2843C95.721 79.7545 100.002 81.0303 100.002 81.0303C100.002 81.0303 100.589 81.2317 100.824 81.9534C101.059 82.6751 101.077 85.0078 101.278 87.2397C101.278 87.2397 101.354 87.8022 101.076 88.0797C100.8 88.3572 99.2559 88.7513 99.2559 88.7513C99.2559 88.7513 99.2384 89.6572 98.6512 90.2114C98.0641 90.7647 97.4933 90.9469 96.9224 91.1345C96.3516 91.3213 95.3616 90.4642 95.1422 89.9853C95.1422 89.9853 93.4639 89.9853 91.9031 89.9853C90.3419 89.9853 89.2332 88.8679 89.2006 87.7604C89.1822 87.1595 89.2428 86.5297 89.3026 86.0245V86.0237C89.7694 83.6697 89.0209 82.2856 89.3569 81.1272C89.6921 79.9684 90.8337 79.6337 90.9181 78.8443C91.0118 77.9647 91.0331 77.1982 91.6729 76.4774C92.3269 75.7385 94.1234 73.9261 95.1639 72.9859C96.2045 72.0456 97.2279 72.6374 97.2279 72.6374L97.7983 72.9851Z" fill="#FCD1C8"/>
<path fill-rule="evenodd" clip-rule="evenodd" d="M73.0211 128.839C78.032 123.369 86.0121 112.229 90.6849 105.572C83.4082 99.9967 82.3756 92.9277 82.2289 90.9435C75.6271 96.7297 65.5864 106.171 57.3071 115.361C49.6254 123.885 63.7602 138.948 73.0211 128.839Z" fill="white"/>
<path fill-rule="evenodd" clip-rule="evenodd" d="M114.155 16.0963C115.649 16.0929 117.163 16.3796 118.371 16.9931C120.4 18.0249 126.272 22.943 126.272 22.943C126.272 22.943 127.093 23.7813 127.991 25.3221C128.435 26.0826 128.897 27.015 129.288 28.1027C129.088 26.9013 128.775 25.8189 128.418 24.8691C127.293 21.877 125.713 20.1908 125.713 20.1908C125.713 20.1908 120.112 15.2718 118.177 14.24C117.024 13.6261 115.579 13.3407 114.154 13.3432C112.728 13.3407 111.285 13.6265 110.132 14.24C108.197 15.2718 102.595 20.1908 102.595 20.1908C102.595 20.1908 101.016 21.8778 99.8894 24.8699C99.5317 25.8231 99.2191 26.9088 99.0186 28.1144C99.4105 27.0233 99.8731 26.0876 100.317 25.3237C101.216 23.7813 102.039 22.943 102.039 22.943C102.039 22.943 107.911 18.0244 109.94 16.9931C111.148 16.3796 112.662 16.0929 114.155 16.0963Z" fill="white"/>
<path fill-rule="evenodd" clip-rule="evenodd" d="M95.1416 90.1717C95.0388 90.1717 94.9557 90.0885 94.9557 89.9857C94.9557 89.954 94.964 89.9231 94.9782 89.8967L95.4492 88.7835C95.4881 88.6886 95.5984 88.6447 95.692 88.684C95.7869 88.7241 95.8311 88.8332 95.7919 88.9281L95.4225 89.7998H96.8959C96.9987 89.7998 97.0819 89.8829 97.0819 89.9857C97.0819 90.0885 96.9987 90.1717 96.8959 90.1717H95.1416ZM98.5721 78.0788C98.5888 78.1799 98.5199 78.2764 98.4192 78.2927C98.3172 78.3099 98.2215 78.2413 98.2052 78.1402C98.2039 78.1385 98.097 77.4824 98.097 77.0507C98.097 76.9479 98.1801 76.864 98.2829 76.864C98.3857 76.864 98.4701 76.9479 98.4701 77.0507C98.4706 77.4578 98.5717 78.0771 98.5721 78.0788ZM95.7772 79.3074C95.8738 79.3425 95.9243 79.4494 95.8892 79.5464C95.8546 79.6425 95.7472 79.6927 95.6506 79.6576C95.6444 79.6559 93.5386 78.8861 93.4203 78.8861C93.3175 78.8861 93.2344 78.803 93.2344 78.7002C93.2344 78.5965 93.3175 78.5125 93.4203 78.5125C93.6004 78.5121 95.771 79.3057 95.7772 79.3074ZM98.6022 85.867C98.6022 85.867 98.3932 85.6881 98.448 85.3275C98.5128 84.9021 98.8634 84.312 98.8646 84.3112C98.916 84.2222 98.8851 84.1081 98.7969 84.0567C98.7083 84.0053 98.5942 84.0354 98.5428 84.1244C98.542 84.1261 98.155 84.7759 98.0802 85.2719C98.0639 85.3764 98.0627 85.4721 98.0719 85.5578C97.2708 85.1833 95.9749 84.8386 94.5035 84.4487L93.7818 84.256C93.6819 84.2297 93.5804 84.2895 93.5545 84.3881C93.5286 84.4884 93.5875 84.5895 93.6869 84.6158L94.4091 84.8085C96.2148 85.2874 97.7493 85.6948 98.3393 86.1315C98.3519 86.1428 98.3644 86.1528 98.3786 86.1599C98.4179 86.1917 98.4526 86.2243 98.4827 86.2569C98.9741 86.7939 99.0698 88.7546 99.0698 88.7601C99.0748 88.862 99.1622 88.9414 99.265 88.9364C99.3669 88.9314 99.4463 88.8441 99.4409 88.7413C99.4409 88.7354 99.3393 86.643 98.756 86.0053C98.7138 85.9581 98.6624 85.9121 98.6039 85.8666H98.6022V85.867ZM100.399 80.0909C100.306 80.1344 100.194 80.0951 100.151 80.0019C100.107 79.9087 100.147 79.798 100.239 79.7537L100.739 79.5171C100.833 79.4733 100.944 79.513 100.987 79.6062C101.031 79.6993 100.991 79.8101 100.898 79.8535L100.399 80.0909Z" fill="#F8A8A0"/>
<path fill-rule="evenodd" clip-rule="evenodd" d="M133.33 89.8967C133.345 89.9231 133.353 89.954 133.353 89.9857C133.353 90.0885 133.269 90.1717 133.166 90.1717H131.413C131.31 90.1717 131.226 90.0885 131.226 89.9857C131.226 89.8829 131.31 89.7998 131.413 89.7998H132.886L132.517 88.9281C132.477 88.8332 132.521 88.7241 132.615 88.684C132.71 88.6447 132.819 88.689 132.859 88.7835L133.33 89.8967ZM130.103 78.1402C130.087 78.2413 129.99 78.3099 129.89 78.2927C129.788 78.2764 129.72 78.1799 129.736 78.0788C129.736 78.0771 129.838 77.4578 129.838 77.0503C129.838 76.9475 129.921 76.8635 130.024 76.8635C130.127 76.8635 130.211 76.9475 130.211 77.0503C130.211 77.4824 130.103 78.1385 130.103 78.1402ZM132.658 79.6575C132.561 79.6927 132.454 79.6429 132.419 79.5464C132.384 79.4494 132.435 79.3425 132.531 79.3074C132.537 79.3057 134.708 78.5125 134.888 78.5125C134.992 78.5125 135.075 78.5965 135.075 78.7002C135.075 78.803 134.992 78.8861 134.888 78.8861C134.77 78.8861 132.664 79.6559 132.658 79.6575ZM129.969 86.1315C130.56 85.6957 132.093 85.2874 133.9 84.8085L134.622 84.6158C134.72 84.5895 134.78 84.4884 134.755 84.3881C134.728 84.2895 134.625 84.2297 134.527 84.256L133.805 84.4487C132.334 84.839 131.038 85.1833 130.237 85.5578C130.245 85.4721 130.244 85.3764 130.228 85.2719C130.153 84.7755 129.767 84.1261 129.766 84.1244C129.714 84.0354 129.6 84.0053 129.512 84.0567C129.422 84.1081 129.393 84.2222 129.444 84.3112C129.445 84.312 129.796 84.9021 129.859 85.3275C129.915 85.6881 129.706 85.867 129.705 85.867C129.647 85.9125 129.595 85.9594 129.552 86.0057C128.97 86.643 128.868 88.7358 128.867 88.7417C128.863 88.8445 128.941 88.9318 129.044 88.9368C129.147 88.9418 129.234 88.8624 129.24 88.7605C129.24 88.7546 129.335 86.7943 129.826 86.2573C129.855 86.2247 129.89 86.1921 129.93 86.1604C129.944 86.1528 129.957 86.1428 129.969 86.1315ZM128.069 79.7537C128.162 79.7975 128.202 79.9087 128.158 80.0019C128.114 80.0951 128.002 80.134 127.91 80.0909L127.41 79.8535C127.317 79.8101 127.278 79.6993 127.322 79.6062C127.365 79.513 127.476 79.4733 127.569 79.5171L128.069 79.7537Z" fill="#F8A8A0"/>
<path fill-rule="evenodd" clip-rule="evenodd" d="M104.932 66.8572C104.932 66.6816 105.075 66.5379 105.252 66.5379C105.428 66.5379 105.571 66.6816 105.571 66.8572C105.571 67.0891 105.62 67.2684 105.704 67.395C105.774 67.5028 105.871 67.5755 105.984 67.6115C106.108 67.6499 106.252 67.6482 106.404 67.6048C106.626 67.5412 106.859 67.3916 107.068 67.1526C107.132 67.0799 107.228 66.9666 107.335 66.84C107.506 66.6378 107.711 66.3946 107.991 66.0811C108.546 65.4627 109.056 64.9971 109.506 64.6812C110.017 64.3243 110.465 64.1492 110.831 64.1492H111.771C111.841 64.1492 111.907 64.12 111.962 64.0723C112.041 64.003 112.103 63.8977 112.137 63.7735C112.173 63.6407 112.177 63.4885 112.138 63.3377C112.088 63.15 111.97 62.9616 111.76 62.8095L111.757 62.807L109.973 61.5094L109.912 61.5462C109.444 61.832 108.936 62.2357 108.465 62.7606C108.218 63.0372 108.001 63.2926 107.821 63.5073C107.728 63.6168 107.645 63.7155 107.547 63.8283C107.251 64.1655 106.911 64.3799 106.577 64.4748C106.304 64.5525 106.034 64.5525 105.792 64.4756C105.54 64.3966 105.323 64.2366 105.169 63.9988C105.02 63.7702 104.932 63.4739 104.932 63.1133C104.932 62.9378 105.075 62.794 105.251 62.794C105.427 62.794 105.57 62.9378 105.57 63.1133C105.57 63.3452 105.619 63.5236 105.703 63.6519C105.773 63.7589 105.871 63.8308 105.983 63.8676C106.107 63.906 106.251 63.9043 106.403 63.8609C106.625 63.7974 106.859 63.6478 107.067 63.4087C107.132 63.3343 107.227 63.2228 107.334 63.0961C107.505 62.893 107.71 62.6498 107.991 62.3373C108.453 61.8199 108.949 61.4108 109.416 61.1049L107.504 59.7158C107.495 59.7083 107.487 59.702 107.478 59.6928C107.27 59.5173 107.121 59.3075 107.037 59.0907C106.968 58.911 106.945 58.7233 106.97 58.5415C106.994 58.3547 107.07 58.1776 107.199 58.0225C107.328 57.8692 107.508 57.7392 107.744 57.6493C107.823 57.6193 108.663 57.3865 109.739 57.0919C111.857 56.5123 114.62 55.7655 114.806 55.7149C114.882 55.6953 114.97 55.6832 115.06 55.6832C115.249 55.6832 115.466 55.7337 115.66 55.8708C115.849 56.0045 116.014 56.216 116.099 56.5352C116.139 56.6823 116.162 56.8537 116.162 57.0501V58.2942C116.162 58.4705 116.019 58.6143 115.842 58.6143C115.665 58.6143 115.522 58.4705 115.522 58.2942V57.0501C115.522 56.9097 115.508 56.7939 115.482 56.6991C115.441 56.5432 115.371 56.4467 115.293 56.3923C115.22 56.3409 115.136 56.3213 115.06 56.3213C115.025 56.3213 114.995 56.3255 114.971 56.3317C114.749 56.3915 111.806 57.1863 109.906 57.7062C108.857 57.9929 108.043 58.2181 107.97 58.2457C107.842 58.2946 107.749 58.3589 107.688 58.4316C107.639 58.4914 107.61 58.5574 107.601 58.626C107.591 58.6995 107.603 58.7802 107.634 58.8633C107.679 58.9816 107.765 59.0998 107.887 59.2043L110.022 60.7576C110.502 60.5211 110.927 60.4041 111.217 60.4041H112.439L111.531 58.58C111.452 58.4224 111.516 58.2306 111.675 58.1525C111.709 58.1354 111.745 58.1257 111.78 58.1207L112.087 58.076C112.261 58.0505 112.423 58.1709 112.449 58.3456C112.468 58.4801 112.401 58.6076 112.288 58.6703L113.234 60.5696C113.26 60.616 113.274 60.6682 113.274 60.7246C113.274 60.8094 113.241 60.8872 113.187 60.944L113.186 60.9448L113.176 60.9544V60.9553L113.171 60.9603H113.17L113.165 60.9661C113.108 61.0142 113.035 61.0439 112.956 61.0439H111.217C111.069 61.0439 110.862 61.0919 110.616 61.1893L114.82 64.2466V59.9298C114.82 59.7534 114.963 59.6097 115.139 59.6097C115.233 59.6097 115.319 59.6515 115.376 59.7158L115.994 60.3101C116.121 60.4325 116.125 60.6339 116.002 60.7605C115.88 60.8872 115.679 60.8913 115.552 60.7693L115.458 60.6795V64.3435C115.458 64.5621 115.548 64.7606 115.693 64.9052C115.837 65.0498 116.036 65.1396 116.255 65.1396C116.473 65.1396 116.672 65.0498 116.816 64.9052C116.961 64.7606 117.051 64.5625 117.051 64.3435V63.3577V56.1612C117.051 55.9849 117.194 55.8411 117.37 55.8411C117.465 55.8411 117.55 55.8821 117.607 55.9473L118.225 56.5415C118.352 56.664 118.356 56.8654 118.234 56.992C118.111 57.1195 117.91 57.1232 117.783 57.0008L117.689 56.9109V63.3573V64.3431C117.689 64.738 117.528 65.0966 117.269 65.3569C117.008 65.6164 116.65 65.7773 116.255 65.7773C115.961 65.7773 115.687 65.6883 115.459 65.5358V69.517C115.459 69.6926 115.316 69.8363 115.139 69.8363C114.963 69.8363 114.82 69.6926 114.82 69.517V65.0352L112.802 63.5667C112.801 63.6958 112.782 63.822 112.75 63.9407C112.682 64.1848 112.553 64.4004 112.38 64.5512C112.211 64.6992 112.003 64.7869 111.77 64.7869H110.83C110.592 64.7869 110.268 64.924 109.871 65.2023C109.459 65.4902 108.986 65.9232 108.465 66.5049C108.218 66.7798 108.001 67.0369 107.821 67.2516C107.744 67.3415 107.676 67.4238 107.598 67.512C107.609 67.5446 107.615 67.5789 107.615 67.614C107.615 68.3908 107.934 69.0979 108.446 69.6102C108.958 70.1226 109.664 70.4402 110.442 70.4402C111.218 70.4402 111.925 70.1226 112.437 69.6102C112.949 69.0979 113.268 68.3908 113.268 67.614V65.3874C113.268 65.2111 113.411 65.0673 113.587 65.0673C113.764 65.0673 113.907 65.2111 113.907 65.3874V67.614C113.907 68.5672 113.517 69.4339 112.889 70.0624C112.261 70.6901 111.395 71.0795 110.442 71.0795C109.488 71.0795 108.622 70.6901 107.994 70.0624C107.459 69.5271 107.098 68.82 107.002 68.0327C106.861 68.1159 106.719 68.1781 106.577 68.2178C106.304 68.2964 106.034 68.2955 105.792 68.2195C105.541 68.1397 105.323 67.9796 105.169 67.7418C105.021 67.5141 104.932 67.2178 104.932 66.8572ZM122.744 68.6357C122.744 68.8121 122.601 68.9558 122.424 68.9558C122.248 68.9558 122.105 68.8121 122.105 68.6357V60.3017C122.105 60.1254 122.248 59.9824 122.424 59.9824C122.519 59.9824 122.603 60.0226 122.662 60.0877L123.279 60.6828C123.406 60.8044 123.41 61.0059 123.288 61.1325C123.165 61.2591 122.964 61.2633 122.837 61.1412L122.744 61.0514V68.6357H122.744ZM120.577 66.5379V67.0072V69.1677C120.577 69.38 120.493 69.5735 120.358 69.7164L120.343 69.7293C120.199 69.8739 120 69.9638 119.782 69.9638C119.563 69.9638 119.364 69.8739 119.219 69.7293C119.175 69.6854 119.136 69.6353 119.103 69.5814C119.308 69.5095 119.492 69.3946 119.645 69.2467C119.652 69.2408 119.659 69.2345 119.666 69.2279C119.932 68.9617 120.099 68.5935 120.101 68.1898V68.1815V68.1731V68.1698C120.098 67.9437 120.008 67.7372 119.863 67.583C119.857 67.5755 119.851 67.5684 119.844 67.5609C119.685 67.4025 119.465 67.3039 119.224 67.3039C118.983 67.3039 118.763 67.4025 118.605 67.5609V67.5626C118.445 67.7218 118.347 67.9403 118.347 68.181V69.0243H117.76C117.411 69.0243 116.853 69.2049 116.247 69.5743C115.775 69.8618 115.263 70.2697 114.788 70.8004C114.53 71.0883 114.343 71.3106 114.187 71.4958C114.088 71.6115 114.001 71.7151 113.943 71.7816C113.756 71.9955 113.546 72.1301 113.348 72.1874C113.214 72.225 113.087 72.2266 112.98 72.1924C112.883 72.1623 112.798 72.0992 112.737 72.0073L112.737 72.0064L112.737 72.0056C112.665 71.8936 112.621 71.7356 112.621 71.5296C112.621 71.3533 112.477 71.2103 112.301 71.2103C112.125 71.2103 111.981 71.3533 111.981 71.5296C111.981 71.866 112.064 72.1427 112.204 72.3549C112.35 72.5777 112.552 72.7273 112.788 72.8012C113.014 72.8731 113.266 72.874 113.522 72.8012C113.831 72.7122 114.148 72.5137 114.422 72.2012C114.513 72.0967 114.588 72.0068 114.673 71.9074C114.838 71.7106 115.037 71.4765 115.262 71.225C115.691 70.7461 116.154 70.3796 116.579 70.1192C117.08 69.8133 117.511 69.6637 117.76 69.6637H118.436C118.508 69.8597 118.623 70.0361 118.768 70.1802C119.028 70.4406 119.387 70.6023 119.782 70.6023C120.177 70.6023 120.536 70.4406 120.795 70.1802C120.803 70.1744 120.809 70.1681 120.814 70.1606C121.063 69.9028 121.217 69.5517 121.217 69.1673V67.0068V66.5375V59.4229L121.31 59.5127C121.437 59.6343 121.639 59.631 121.761 59.5039C121.883 59.3773 121.878 59.1759 121.752 59.0535L121.135 58.4592C121.076 58.3949 120.992 58.3531 120.898 58.3531C120.722 58.3531 120.577 58.4968 120.577 58.6732V66.5379H120.577ZM119.513 64.1317C119.513 64.308 119.37 64.4509 119.194 64.4509C119.018 64.4509 118.875 64.308 118.875 64.1317V56.936C118.875 56.7588 119.018 56.6159 119.194 56.6159C119.288 56.6159 119.374 56.6569 119.431 56.722L120.049 57.3163C120.175 57.4379 120.18 57.6402 120.057 57.7668C119.936 57.8934 119.734 57.8976 119.607 57.7751L119.513 57.6853V64.1317V64.1317ZM118.986 68.1819C118.986 68.1167 119.012 68.0561 119.054 68.0139H119.056C119.099 67.9704 119.158 67.9437 119.223 67.9437C119.289 67.9437 119.348 67.9704 119.392 68.0139L119.402 68.0243C119.437 68.0661 119.46 68.12 119.461 68.1785V68.1819C119.461 68.4138 119.366 68.6244 119.213 68.777L119.2 68.7916C119.137 68.8513 119.065 68.9019 118.985 68.9399V68.1819H118.986ZM111.782 58.1207L112.104 58.2962C112.042 58.173 111.912 58.1057 111.782 58.1207Z" fill="#FBE2C8"/>
<path fill-rule="evenodd" clip-rule="evenodd" d="M118.759 65.2663C118.982 65.2663 119.162 65.4468 119.162 65.6695C119.162 65.8914 118.982 66.0719 118.759 66.0719C118.537 66.0719 118.356 65.8914 118.356 65.6695C118.356 65.4468 118.537 65.2663 118.759 65.2663ZM110.468 68.1468C110.69 68.1468 110.871 68.3265 110.871 68.5492C110.871 68.7711 110.69 68.9516 110.468 68.9516C110.246 68.9516 110.065 68.7711 110.065 68.5492C110.065 68.3261 110.246 68.1468 110.468 68.1468ZM109.22 62.9277C109.442 62.9277 109.622 63.1083 109.622 63.331C109.622 63.5529 109.442 63.7334 109.22 63.7334C108.997 63.7334 108.816 63.5529 108.816 63.331C108.816 63.1083 108.997 62.9277 109.22 62.9277ZM119.8 65.2663C120.022 65.2663 120.203 65.4468 120.203 65.6695C120.203 65.8914 120.022 66.0719 119.8 66.0719C119.578 66.0719 119.397 65.8914 119.397 65.6695C119.397 65.4468 119.578 65.2663 119.8 65.2663ZM110.26 62.9277C110.482 62.9277 110.663 63.1083 110.663 63.331C110.663 63.5529 110.482 63.7334 110.26 63.7334C110.038 63.7334 109.857 63.5529 109.857 63.331C109.857 63.1083 110.038 62.9277 110.26 62.9277Z" fill="white"/>
<path fill-rule="evenodd" clip-rule="evenodd" d="M90.0629 106.459C92.5184 102.971 94.2263 100.48 94.4177 100.229C95.0554 99.3896 94.1072 97.3574 94.1072 97.3574L93.653 97.8893C93.653 97.8893 94.317 99.6909 93.3772 99.7586C92.4365 99.8254 88.8104 93.4133 88.105 90.7952C87.4005 88.1759 87.7356 86.7158 88.0206 86.6146C88.3069 86.5143 88.7202 86.6798 88.7202 86.6798L88.8681 86.549C88.8681 86.549 88.1431 86.0137 87.5037 86.5139C86.1564 87.5645 84.133 89.2653 81.6791 91.4292C81.6766 91.4375 80.6432 100.112 90.0629 106.459Z" fill="#9E6D82"/>
<path fill-rule="evenodd" clip-rule="evenodd" d="M137.906 105.976C135.635 102.744 134.074 100.469 133.892 100.229C133.255 99.3896 134.203 97.3574 134.203 97.3574L134.656 97.8893C134.656 97.8893 133.993 99.6909 134.933 99.7586C135.873 99.8254 139.499 93.4133 140.205 90.7952C140.909 88.1759 140.574 86.7158 140.289 86.6146C140.003 86.5143 139.59 86.6798 139.59 86.6798L139.442 86.549C139.442 86.549 140.166 86.0137 140.807 86.5139C142.229 87.623 144.196 89.4237 146.599 91.7246C146.598 91.733 146.127 103.083 137.906 105.976Z" fill="#9E6D82"/>
<path d="M171.342 115.882C171.297 115.882 171.25 115.864 171.214 115.83L169.107 113.843C169.032 113.772 169.029 113.654 169.1 113.579C169.17 113.504 169.288 113.5 169.363 113.571L171.47 115.559C171.545 115.629 171.548 115.747 171.478 115.823C171.442 115.862 171.392 115.882 171.342 115.882ZM57.1611 115.713C57.1163 115.713 57.0712 115.696 57.0357 115.665C56.9596 115.595 56.9538 115.477 57.0227 115.401L58.7699 113.478C58.8397 113.402 58.958 113.396 59.0336 113.465C59.1097 113.534 59.1155 113.653 59.0466 113.729L57.2994 115.652C57.2622 115.692 57.212 115.713 57.1611 115.713Z" fill="#E4DAE2"/>
<path fill-rule="evenodd" clip-rule="evenodd" d="M57.3695 112.697C57.3151 112.866 57.2616 113.032 57.209 113.194C57.5082 113.581 57.7543 114.262 57.3068 115.361C57.6139 115.02 57.9236 114.678 58.2353 114.337C58.4585 114.092 58.6825 113.849 58.9077 113.604C58.4576 113.324 57.9545 113.027 57.3695 112.697Z" fill="#E4DAE2"/>
<path fill-rule="evenodd" clip-rule="evenodd" d="M171.091 115.444C170.642 114.261 170.991 113.534 171.304 113.161C171.243 112.978 171.181 112.789 171.117 112.596C170.381 113.008 169.772 113.369 169.236 113.707C169.821 114.257 170.411 114.808 171.003 115.361C171.032 115.389 171.063 115.417 171.091 115.444Z" fill="#E4DAE2"/>
<path d="M152.641 138.866C137.107 138.866 124.002 130.97 115.181 123.636C103.731 114.115 96.8406 103.465 96.7729 103.358C96.7169 103.272 96.742 103.157 96.8289 103.101C96.9158 103.045 97.0311 103.07 97.0863 103.157C97.1548 103.263 104.018 113.872 115.428 123.356C125.943 132.096 142.581 141.644 162.142 137.49C162.243 137.469 162.343 137.533 162.363 137.634C162.385 137.734 162.32 137.833 162.219 137.855C158.94 138.551 155.742 138.866 152.641 138.866ZM102.231 132.252C102.188 132.252 102.145 132.237 102.111 132.208C102.022 132.133 93.1205 124.573 87.2479 113.612C87.1998 113.521 87.2337 113.408 87.3248 113.36C87.4125 113.311 87.5279 113.344 87.5772 113.436C93.416 124.335 102.262 131.848 102.351 131.922C102.43 131.988 102.44 132.107 102.374 132.186C102.337 132.229 102.284 132.252 102.231 132.252ZM151.404 94.3414C151.335 94.3414 151.27 94.3038 151.237 94.2386C148.498 88.7588 148.725 82.6284 148.945 76.6985C149.097 72.6002 149.254 68.362 148.46 64.29C148.44 64.1889 148.506 64.0907 148.608 64.0715C148.704 64.0477 148.807 64.117 148.826 64.2194C149.629 68.3331 149.471 72.5935 149.319 76.7127C149.09 82.8661 148.874 88.6782 151.572 94.0723C151.617 94.1638 151.58 94.2762 151.488 94.3222C151.461 94.336 151.433 94.3414 151.404 94.3414ZM82.9319 83.2063C82.8655 83.2063 82.8011 83.1712 82.7673 83.1085C76.9243 72.2337 79.4626 64.275 79.4889 64.1956C79.5215 64.0978 79.6268 64.0447 79.7242 64.0782C79.822 64.1099 79.875 64.2161 79.8424 64.3134C79.8165 64.3912 77.3338 72.2078 83.0961 82.9318C83.1442 83.0233 83.1103 83.1357 83.0197 83.1846C82.9921 83.1988 82.962 83.2063 82.9319 83.2063Z" fill="#4C466A"/>
<path d="M131.916 38.7393C131.915 38.7393 131.915 38.7393 131.914 38.7393C131.811 38.7385 131.728 38.6545 131.729 38.5517C131.729 38.4882 131.769 32.1617 131.729 30.544C131.691 28.9368 131.458 27.3977 131.456 27.3823C131.245 26.1261 130.911 24.8808 130.461 23.6831C129.189 20.3057 127.392 18.3583 127.374 18.3395C127.323 18.2957 120.905 12.6696 118.714 11.5016C117.485 10.8472 115.874 10.4869 114.177 10.4869C114.162 10.4869 114.147 10.4869 114.132 10.4869C112.434 10.4869 110.824 10.8467 109.595 11.5016C107.403 12.6696 100.987 18.2957 100.922 18.3529C100.917 18.3588 99.1187 20.3061 97.8487 23.6852C97.3962 24.8858 97.061 26.1353 96.8512 27.3982C96.8341 27.5001 96.7459 27.5687 96.6369 27.5515C96.5349 27.5352 96.4659 27.4387 96.4831 27.3376C96.697 26.0505 97.0389 24.7771 97.4994 23.5527C98.7974 20.1001 100.588 18.1657 100.663 18.085C100.941 17.8393 107.19 12.3603 109.419 11.1719C110.702 10.4894 112.375 10.1133 114.131 10.1133C114.147 10.1133 114.162 10.1133 114.178 10.1133C115.934 10.1133 117.607 10.4894 118.89 11.1719C121.119 12.3603 127.368 17.8393 127.633 18.0721C127.722 18.1661 129.511 20.1005 130.81 23.5519C131.268 24.7713 131.609 26.0404 131.824 27.3234C131.827 27.3413 132.063 28.9042 132.102 30.5353C132.142 32.1588 132.103 38.4898 132.102 38.5538C132.102 38.6557 132.018 38.7393 131.916 38.7393Z" fill="#4C466A"/>
<path fill-rule="evenodd" clip-rule="evenodd" d="M79.6659 64.2549C79.6659 64.2549 73.9805 66.6699 70.9023 69.6449C70.9023 69.6449 73.3006 67.9098 76.1214 70.1405C77.5589 71.2768 79.1056 73.4427 80.5017 77.3909C79.4135 74.0658 79.0951 71.2107 79.0888 69.0202C79.0817 66.0105 79.6659 64.2549 79.6659 64.2549Z" fill="#4C466A"/>
<path fill-rule="evenodd" clip-rule="evenodd" d="M159.467 72.8464C159.098 71.9362 158.762 71.2484 158.458 70.8321C155.907 67.3407 148.644 64.2554 148.644 64.2554C148.95 65.8283 149.116 67.4171 149.195 69.0131C149.499 75.1264 148.53 81.3496 149.34 87.2181C148.852 75.3303 151.463 71.8025 154.156 71.2149C156.773 70.6416 159.467 72.8464 159.467 72.8464Z" fill="#4C466A"/>
<path fill-rule="evenodd" clip-rule="evenodd" d="M102.232 132.065C102.232 132.065 95.2498 126.189 89.5372 117.16C89.1055 116.477 88.6818 115.776 88.2672 115.059C88.2672 115.059 88.6805 115.898 89.126 117.212C90.2798 120.622 91.6455 127.233 86.5635 130.727C90.6433 132.066 95.7771 132.69 102.232 132.065Z" fill="#4C466A"/>
<path d="M55.001 109.2C54.9667 109.2 54.9328 109.19 54.9023 109.171C54.815 109.116 54.7883 109.002 54.8426 108.914C59.4565 101.497 63.0717 89.9987 65.7111 81.6029C67.3822 76.2877 68.7019 72.09 69.7015 70.7223C72.1291 67.4004 78.6168 64.507 79.5028 64.1225C80.7882 57.6673 83.1911 51.5089 85.7348 44.9918C88.9868 36.6587 92.3496 28.0409 93.4511 18.3145C93.452 18.307 93.4536 18.2999 93.4553 18.2924C94.7491 7.86221 103.644 0 114.155 0C118.735 0 123.091 1.47307 126.75 4.25957C126.832 4.32225 126.848 4.43926 126.786 4.52075C126.723 4.60307 126.606 4.61854 126.524 4.55669C122.93 1.81992 118.653 0.372762 114.155 0.372762C103.825 0.372762 95.0838 8.10542 93.8231 18.3592C93.8226 18.3659 93.8214 18.3722 93.8197 18.378C92.7102 28.1437 89.3408 36.7782 86.0825 45.1272C83.5321 51.6618 81.1238 57.8328 79.8496 64.2913C79.8379 64.3519 79.7965 64.4025 79.7397 64.4267C79.6678 64.4576 72.4947 67.5325 70.0028 70.9425C69.0392 72.2605 67.7274 76.4323 66.0676 81.7153C63.4215 90.1304 59.7988 101.655 55.1593 109.112C55.1238 109.168 55.0628 109.2 55.001 109.2ZM93.2723 63.3644C93.1695 63.3644 93.0855 63.2804 93.0855 63.1776V39.6274C93.0855 38.9312 93.6513 38.3653 94.3471 38.3653H132.778C132.881 38.3653 132.965 38.4493 132.965 38.5521C132.965 38.6549 132.881 38.7389 132.778 38.7389H94.3471C93.8577 38.7389 93.4591 39.1372 93.4591 39.627V63.1772C93.4591 63.2804 93.3751 63.3644 93.2723 63.3644Z" fill="white"/>
<path fill-rule="evenodd" clip-rule="evenodd" d="M186.422 51.951C185.889 51.951 185.379 52.0467 184.907 52.221C184.694 51.9866 184.387 51.839 184.044 51.839C183.885 51.839 183.733 51.8716 183.595 51.9289C183.518 50.9251 182.68 50.1357 181.656 50.1357C181.212 50.1357 180.803 50.2841 180.476 50.5348C180.405 50.437 180.319 50.3514 180.221 50.2795C180.407 49.9481 180.514 49.5661 180.514 49.1595C180.514 48.526 180.257 47.9531 179.843 47.5394C179.429 47.1248 178.856 46.8678 178.224 46.8678H178.215C177.866 46.6848 177.469 46.5803 177.049 46.5803C176.791 46.5803 176.542 46.6196 176.307 46.6915C176.201 46.4645 176.021 46.2777 175.798 46.1624C175.86 45.8782 175.893 45.5828 175.893 45.2802C175.893 44.1319 175.427 43.0913 174.675 42.3387C173.922 41.5869 172.882 41.121 171.734 41.121C171.368 41.121 171.014 41.1682 170.676 41.2564C168.218 41.2931 166.236 43.2961 166.236 45.7633C166.236 45.7984 166.237 45.8327 166.237 45.8678C166.02 45.8122 165.792 45.783 165.558 45.783C165.092 45.783 164.653 45.8987 164.267 46.1022C163.61 45.2059 162.55 44.6242 161.352 44.6242C159.359 44.6242 157.742 46.2401 157.742 48.2352C157.742 48.6271 157.805 49.0049 157.92 49.3576C157.884 49.3559 157.848 49.3543 157.811 49.3543C156.828 49.3543 156.033 50.1499 156.033 51.1328C156.033 51.2477 156.044 51.3606 156.064 51.47C156.052 51.47 156.04 51.4692 156.027 51.4692C155.472 51.4692 155.021 51.9101 155.002 52.46C154.849 52.4316 154.69 52.4153 154.527 52.4153C153.885 52.4153 153.286 52.6389 152.854 53.0472C151.7 54.14 152.961 54.4233 154.175 54.4233H155.76H157.004H182.498H184.488H187.758C189.024 54.4233 190.833 54.6314 189.576 53.3067C188.784 52.4709 187.664 51.951 186.422 51.951ZM175.468 46.0525C175.405 46.0412 175.341 46.0362 175.276 46.0362L175.241 46.037C175.248 45.9464 175.251 45.8548 175.251 45.7637C175.251 43.7813 173.971 42.0984 172.193 41.4942C173.061 41.5986 173.842 41.9952 174.429 42.5836C175.12 43.2731 175.547 44.2276 175.547 45.2802C175.547 45.5439 175.519 45.8026 175.468 46.0525ZM179.915 50.1211C179.799 50.081 179.673 50.0601 179.543 50.0601C179.48 50.0601 179.415 50.0651 179.355 50.0747C179.485 49.7717 179.557 49.4391 179.557 49.0889C179.557 48.391 179.27 47.7592 178.81 47.3041C179.112 47.3998 179.381 47.5661 179.598 47.7838C179.951 48.1357 180.168 48.6221 180.168 49.1599C180.168 49.5089 180.076 49.8369 179.915 50.1211Z" fill="white"/>
<path fill-rule="evenodd" clip-rule="evenodd" d="M62.9341 142.004C62.4406 142.004 61.9684 142.093 61.5317 142.255C61.3345 142.038 61.0495 141.901 60.7327 141.901C60.5856 141.901 60.4452 141.931 60.3165 141.984C60.2467 141.055 59.4702 140.323 58.5229 140.323C58.1117 140.323 57.7322 140.461 57.4297 140.693C57.3637 140.603 57.2838 140.523 57.1932 140.458C57.3657 140.151 57.4644 139.796 57.4644 139.419C57.4644 138.834 57.227 138.304 56.8434 137.92C56.4598 137.536 55.929 137.299 55.3431 137.299H55.3356C55.013 137.129 54.6457 137.033 54.2558 137.033C54.0176 137.033 53.7869 137.069 53.57 137.136C53.4714 136.925 53.3047 136.752 53.0991 136.646C53.1555 136.382 53.1856 136.109 53.1856 135.828C53.1856 134.765 52.7547 133.802 52.0585 133.106C51.3615 132.409 50.3987 131.978 49.3355 131.978C48.9971 131.978 48.669 132.022 48.3564 132.104C46.0806 132.137 44.246 133.993 44.246 136.275C44.246 136.308 44.246 136.34 44.2473 136.372C44.0459 136.322 43.8348 136.294 43.618 136.294C43.1859 136.294 42.7788 136.401 42.422 136.59C41.8143 135.76 40.8319 135.221 39.7245 135.221C37.8786 135.221 36.3813 136.717 36.3813 138.564C36.3813 138.926 36.4398 139.276 36.5468 139.603C36.5138 139.601 36.48 139.6 36.4461 139.6C35.5372 139.6 34.8 140.336 34.8 141.246C34.8 141.353 34.8101 141.457 34.8297 141.558C34.8184 141.557 34.8071 141.557 34.795 141.557C34.2818 141.557 33.8635 141.965 33.8468 142.474C33.7039 142.448 33.5568 142.433 33.4055 142.433C32.8121 142.433 32.258 142.64 31.8581 143.018C30.7883 144.029 31.9554 144.292 33.0808 144.292H34.548H35.6985H59.301H61.1435H64.1698C65.3425 144.292 67.0174 144.483 65.8531 143.257C65.1206 142.486 64.0842 142.004 62.9341 142.004ZM52.794 136.543C52.7355 136.534 52.6757 136.528 52.6152 136.528H52.5842C52.5897 136.445 52.5926 136.361 52.5926 136.276C52.5926 134.442 51.4083 132.883 49.7618 132.324C50.5662 132.421 51.2879 132.788 51.8329 133.332C52.4714 133.971 52.8663 134.854 52.8663 135.829C52.8659 136.073 52.8412 136.313 52.794 136.543ZM56.9102 140.31C56.8024 140.273 56.6863 140.253 56.5659 140.253C56.507 140.253 56.4489 140.258 56.3921 140.267C56.5124 139.986 56.578 139.678 56.578 139.353C56.578 138.708 56.3139 138.123 55.8872 137.702C56.166 137.79 56.4159 137.944 56.6173 138.146C56.9433 138.471 57.1447 138.922 57.1447 139.419C57.1447 139.743 57.0594 140.048 56.9102 140.31Z" fill="white"/>
<path d="M0.375981 152.071H186.971C187.178 152.071 187.345 152.237 187.345 152.444C187.345 152.651 187.178 152.817 186.971 152.817H0.375981C0.169543 152.817 0.00238127 152.651 0.00238127 152.444C0.00238127 152.237 0.169543 152.071 0.375981 152.071Z" fill="white"/>
<defs>
<linearGradient id="paint0_linear" x1="173.205" y1="42.771" x2="65.7964" y2="142.282" gradientUnits="userSpaceOnUse">
<stop stop-color="#80CACA"/>
<stop offset="1" stop-color="#5DB0AD"/>
</linearGradient>
</defs>
</svg>
