<svg width="69" height="57" viewBox="0 0 69 57" fill="none" xmlns="http://www.w3.org/2000/svg">
<path d="M66.9852 30.3987C66.318 33.0579 65.3249 35.6121 64.0416 38.0067C61.6763 42.4282 58.3227 46.3035 54.2035 49.2858C50.6486 51.8618 46.5219 53.7716 41.9653 54.7902C24.0298 58.8092 6.23324 47.5234 2.21619 29.5889C-0.0138936 19.628 2.47607 9.70586 8.20638 2.16692C9.27607 0.757016 11.5251 1.42514 11.6338 3.1922C11.6725 3.78848 11.7254 4.38759 11.7944 4.9867C11.9295 6.13484 12.1242 7.28863 12.3812 8.43865C12.9274 10.8748 13.7259 13.1871 14.7446 15.3539C14.9279 15.7404 15.116 16.1212 15.3116 16.4992C15.7907 17.4234 16.3085 18.3183 16.866 19.1829C17.2686 19.8094 17.691 20.419 18.1323 21.0124C18.3458 21.3006 18.5651 21.5851 18.7881 21.8648C19.3456 22.5669 19.9315 23.2444 20.5429 23.8955C20.8755 24.2527 21.2167 24.6014 21.5654 24.9416C21.8101 25.1806 22.0577 25.416 22.311 25.6475C23.238 26.5008 24.2122 27.3002 25.2271 28.0411C25.3207 28.11 25.4152 28.1771 25.5087 28.2442C26.0766 28.6496 26.6568 29.038 27.2484 29.4056C27.3864 29.4915 27.5234 29.5757 27.6623 29.6598C28.2529 30.0179 28.8558 30.3553 29.4662 30.6746C29.797 30.8485 30.1305 31.0158 30.4679 31.1764C30.5387 31.2114 30.6096 31.2454 30.6814 31.2785C30.7315 31.3021 30.7807 31.3257 30.8317 31.3493C30.9404 31.4004 31.05 31.4495 31.1587 31.4986C31.7389 31.7614 32.3266 32.008 32.921 32.2367C33.0996 32.3066 33.2792 32.3727 33.4597 32.4379C33.6534 32.5088 33.848 32.5787 34.0437 32.6459C34.5567 32.8226 35.0784 32.9879 35.601 33.1391C36.4155 33.3782 37.2405 33.5823 38.0739 33.7571C38.9291 33.9348 39.7928 34.0803 40.6641 34.1899C41.8207 34.3373 42.9915 34.4233 44.1699 34.4469C45.2765 34.4687 46.3934 34.4356 47.5151 34.343C47.7438 34.3251 47.9734 34.3043 48.203 34.2806C48.6963 34.2306 49.1915 34.1701 49.6857 34.0964C50.4993 33.9764 51.3148 33.827 52.1313 33.6437C52.1851 33.6314 52.239 33.6201 52.2919 33.6059C54.6222 33.073 56.84 32.3066 58.9237 31.3361C60.7324 30.4961 62.4409 29.5029 64.0369 28.3774C65.4761 27.3616 67.4142 28.6884 66.9852 30.3987Z" fill="#FFC107"/>
<g opacity="0.35">
<path opacity="0.35" d="M6.05708 5.36408C2.26909 12.2292 0.875124 20.4513 2.72272 28.7037C6.73912 46.6376 24.5368 57.9224 42.4706 53.906C47.0277 52.8862 51.1546 50.9755 54.7096 48.3997C57.2791 46.5403 59.5494 44.3309 61.4688 41.8595C60.4877 42.7707 59.4487 43.6253 58.3554 44.4171C54.7994 46.9931 50.6734 48.9036 46.1154 49.9236C35.4175 52.3199 24.7671 49.2701 17.0635 42.6119C17.4833 42.4689 17.8697 42.251 18.2094 41.9583C18.148 42.0107 18.0854 42.0613 18.0212 42.1091C17.8697 41.9827 17.7189 41.8555 17.5695 41.7264C18.0758 41.5539 18.5347 41.2742 18.92 40.8834C19.0181 40.7838 19.1082 40.6782 19.1929 40.5687C19.1927 40.5692 19.1925 40.5696 19.1923 40.5701C19.9886 38.595 19.2881 35.7695 17.2966 33.6067C14.8531 30.9523 11.3893 30.3022 9.56216 32.1554C9.42837 32.291 9.30736 32.4356 9.19915 32.5893C7.95527 30.1496 6.99404 27.5161 6.36844 24.7211C4.52308 16.4785 5.90851 8.26555 9.68575 1.40625C9.14263 1.41526 8.59554 1.65245 8.20468 2.16697C6.658 4.20257 5.34989 6.4129 4.30454 8.74962C4.82443 7.58773 5.4097 6.45727 6.05708 5.36408Z" fill="#6E3C1B"/>
</g>
<g opacity="0.35">
<path opacity="0.35" d="M51.42 37.7023C49.3499 37.6777 47.6423 39.0892 47.6061 40.8552C47.5698 42.6211 49.2185 44.0727 51.2886 44.0974C53.3588 44.1221 55.0663 42.7105 55.1026 40.9446C55.1389 39.1786 53.4901 37.727 51.42 37.7023Z" fill="#6E3C1B"/>
</g>
<g opacity="0.35">
<path opacity="0.35" d="M31.9648 38.9628C34.3945 39.0656 36.1898 37.8855 35.9745 36.3269C35.7593 34.7683 33.6152 33.4214 31.1854 33.3186C28.7557 33.2158 26.9605 34.3959 27.1757 35.9545C27.3909 37.5131 29.5351 38.8599 31.9648 38.9628Z" fill="#6E3C1B"/>
</g>
<path d="M31.9319 38.8359C34.041 38.9945 35.5512 38.3126 35.3049 37.3127C35.0586 36.3127 33.1491 35.3735 31.0399 35.2148C28.9308 35.0561 27.4206 35.7381 27.6669 36.738C27.9132 37.738 29.8227 38.6772 31.9319 38.8359Z" fill="#FFC107"/>
<path d="M51.2618 39.9122C49.807 40.4592 49.0155 41.8449 49.4941 43.0072C49.9726 44.1695 51.54 44.6683 52.9948 44.1214C54.4497 43.5744 55.2412 42.1887 54.7626 41.0264C54.284 39.8641 52.7167 39.3653 51.2618 39.9122Z" fill="#FFC107"/>
<path d="M36.7569 47.9104C36.7572 48.2217 36.7176 48.5345 36.6347 48.8436C36.0503 51.0337 33.5517 52.2252 31.0531 51.5048C29.1767 50.963 27.8333 49.4971 27.5293 47.8745L36.7569 47.9104Z" fill="#FFC107"/>
<path d="M36.8744 47.9103C36.9769 49.0471 36.4425 50.2358 35.536 50.9801C35.0879 51.3594 34.5565 51.632 34.0004 51.8076C33.4412 51.9755 32.8549 52.0481 32.2746 52.0192C31.6951 51.9879 31.1196 51.8742 30.5814 51.6633C30.0436 51.4525 29.5362 51.1629 29.0929 50.7952C28.6443 50.434 28.2715 49.9843 27.9793 49.4941C27.6895 49.0017 27.5028 48.4503 27.4372 47.8919C27.4311 47.8401 27.4681 47.7931 27.5199 47.787C27.5669 47.7815 27.6098 47.8114 27.622 47.8554L27.6225 47.8571C27.9112 48.8926 28.572 49.7734 29.4128 50.3844C30.2549 50.9927 31.2736 51.3558 32.303 51.3909C32.8161 51.4104 33.3326 51.3584 33.8229 51.2136C34.3156 51.0773 34.7802 50.8485 35.1883 50.5444C35.5946 50.2384 35.9414 49.8503 36.1883 49.3991C36.3185 49.1762 36.4093 48.9327 36.4938 48.6853C36.5686 48.4354 36.618 48.1756 36.6405 47.9105C36.6459 47.8459 36.7027 47.798 36.7674 47.8035C36.825 47.8084 36.8695 47.8546 36.8744 47.9103Z" fill="#6E3C1B"/>
<path d="M12.9774 29.218C11.8081 29.059 10.6786 29.2384 9.71288 29.8074C7.963 30.8384 7.24855 32.8475 7.42967 35.1942C7.54851 36.7338 8.09474 38.3906 9.08385 39.9469C11.5806 43.8753 15.9539 45.6758 18.8518 43.9683C19.9302 43.333 20.6523 42.3014 21.0053 41.0541C21.6011 38.9494 21.0486 36.2955 19.4809 33.8288L12.9774 29.218Z" fill="#FFC107"/>
<path d="M9.71292 29.8074C9.25929 30.1281 8.86906 30.5226 8.56688 30.9704C8.26484 31.4184 8.04215 31.9127 7.90429 32.4296C7.76334 32.9456 7.6941 33.4794 7.68329 34.0143C7.67446 34.5485 7.70447 35.0875 7.79133 35.6143C7.83264 35.8782 7.88757 36.1401 7.9537 36.399C8.01627 36.6587 8.09275 36.9151 8.17422 37.1696C8.34456 37.6764 8.55003 38.1718 8.79455 38.6477C9.28029 39.6005 9.89076 40.4926 10.6116 41.2797C10.9706 41.6746 11.3579 42.0433 11.7707 42.3794C12.1812 42.7186 12.6203 43.0214 13.0796 43.2865C13.5381 43.5528 14.0202 43.7774 14.5194 43.9486C14.6436 43.9934 14.7709 44.0267 14.8966 44.0667C15.0242 44.0978 15.1512 44.1335 15.2797 44.1606C15.4081 44.1874 15.5365 44.2176 15.6665 44.235C15.7959 44.2582 15.9261 44.2724 16.0566 44.2847C16.5791 44.3391 17.105 44.2985 17.6171 44.194C18.1266 44.0797 18.622 43.8813 19.065 43.591C19.5123 43.3069 19.9048 42.9324 20.2307 42.4998C20.5556 42.0659 20.8096 41.5736 21.0054 41.0541C20.8964 41.5985 20.7026 42.1322 20.4182 42.6237C20.1339 43.115 19.7499 43.5548 19.2966 43.9148C18.8408 44.2723 18.3096 44.5352 17.7513 44.7082C17.1901 44.8715 16.6003 44.94 16.018 44.9161C15.4353 44.8952 14.8558 44.7985 14.3027 44.6251C13.7481 44.4562 13.2138 44.229 12.7053 43.9569C11.6885 43.409 10.7877 42.6704 10.0131 41.8261C9.24156 40.9774 8.59665 40.0186 8.10682 38.9838C7.62498 37.9473 7.27753 36.8388 7.16634 35.6957C7.05046 34.5596 7.13334 33.3889 7.52767 32.3072C7.73238 31.7718 8.0167 31.2641 8.38965 30.8342C8.7606 30.4034 9.21347 30.0508 9.71292 29.8074Z" fill="#6E3C1B"/>
<path d="M51.2836 44.3595C50.4751 44.3966 49.6441 44.2051 48.9216 43.7901C48.5638 43.5779 48.2323 43.3127 47.9526 42.9939C47.6778 42.672 47.4516 42.3006 47.3113 41.8913C47.0201 41.0732 47.1194 40.1341 47.5209 39.3681C47.7214 38.9829 48.0026 38.648 48.3197 38.3628C48.6392 38.0798 48.9968 37.84 49.3846 37.6679C49.7723 37.4966 50.1803 37.3787 50.5959 37.3097C51.013 37.2492 51.4349 37.2417 51.8528 37.2824C52.2698 37.3345 52.6803 37.4341 53.0724 37.5862C53.4642 37.7403 53.8287 37.9604 54.1573 38.223C54.8194 38.7416 55.297 39.5152 55.4187 40.3511C55.4785 40.7676 55.4579 41.1945 55.342 41.5942C55.2846 41.7937 55.2093 41.9871 55.1138 42.1691C55.0217 42.3533 54.8941 42.5148 54.78 42.6817C54.7507 42.7244 54.6924 42.7354 54.6497 42.7061C54.6099 42.679 54.5976 42.6266 54.6196 42.585L54.6264 42.5723C54.7169 42.4028 54.8198 42.2416 54.8861 42.0635C54.9575 41.8884 55.011 41.7072 55.0463 41.5237C55.0802 41.3398 55.0983 41.1541 55.0961 40.9686C55.085 40.7833 55.0749 40.599 55.0306 40.4199C54.8773 39.7003 54.4311 39.0644 53.8375 38.6338C52.655 37.7527 50.9686 37.6265 49.6462 38.2399C48.989 38.5485 48.405 39.0332 48.0667 39.6621C47.7247 40.2827 47.6321 41.0346 47.8414 41.7188C48.0475 42.4048 48.5375 43.0034 49.1545 43.4166C49.7734 43.8344 50.5197 44.068 51.2863 44.1255L51.287 44.1256C51.3516 44.1304 51.3999 44.1867 51.3951 44.2512C51.3905 44.311 51.342 44.3568 51.2836 44.3595Z" fill="#6E3C1B"/>
<path d="M56.2635 38.921C56.7246 39.5675 56.9971 40.3635 57.024 41.1782C57.0554 41.9947 56.8199 42.8154 56.4061 43.5212C55.9968 44.2348 55.3894 44.8161 54.7063 45.2559C54.0175 45.6903 53.2457 45.9875 52.4474 46.1279C51.6488 46.2655 50.8283 46.2642 50.0337 46.1103C49.2397 45.9577 48.4732 45.6507 47.8029 45.1979C47.1331 44.7479 46.5512 44.1536 46.1621 43.4451C45.7779 42.7363 45.5855 41.9244 45.6428 41.1337C45.6465 41.0817 45.6917 41.0426 45.7437 41.0464C45.7919 41.0499 45.829 41.089 45.8311 41.1361L45.8312 41.1377C45.8667 41.8939 46.1033 42.6216 46.501 43.2438C46.8981 43.8684 47.46 44.3734 48.0838 44.7596C49.3413 45.5315 50.8939 45.7729 52.3366 45.5088C53.0577 45.3759 53.7569 45.1189 54.3757 44.7315C54.6905 44.5457 54.974 44.3147 55.2424 44.0692C55.3091 44.0075 55.3671 43.9374 55.4301 43.872C55.49 43.804 55.5585 43.7426 55.6118 43.6692L55.7772 43.4534C55.8046 43.4173 55.8339 43.3823 55.8599 43.3452L55.9311 43.2297L56.0746 42.9986C56.1191 42.9198 56.1538 42.8361 56.1943 42.755C56.2814 42.5949 56.3328 42.4211 56.3944 42.2504C56.4297 42.1661 56.4467 42.077 56.4672 41.9886L56.5294 41.7229C56.547 41.5424 56.5765 41.3614 56.5839 41.1788C56.6135 40.4469 56.423 39.7072 56.0649 39.0447C56.0341 38.9877 56.0553 38.9166 56.1123 38.8858C56.1648 38.8573 56.2297 38.8735 56.2635 38.921Z" fill="#6E3C1B"/>
<g opacity="0.35">
<path opacity="0.35" d="M29.1713 47.8634C29.3405 48.8218 30.1748 49.6714 31.3628 49.9646C32.9448 50.3542 34.5558 49.6092 34.9616 48.3005C35.0191 48.1158 35.0491 47.9296 35.0536 47.7448C35.1514 45.689 33.3877 44.7685 31.9237 44.737C30.2692 44.7013 28.8859 45.7412 29.1713 47.8634Z" fill="#6E3C1B"/>
</g>
<path d="M29.333 47.9786C29.5022 48.937 30.3364 49.7866 31.5245 50.0798C33.1065 50.4694 34.7175 49.7244 35.1232 48.4157C35.1807 48.231 35.2108 48.0447 35.2153 47.86C34.7968 47.212 34.0773 46.6961 33.1708 46.4721C31.5638 46.0765 29.9294 46.7426 29.333 47.9786Z" fill="#FFC107"/>
<path d="M32.8122 44.7231C33.4363 44.8565 34.0307 45.1755 34.4965 45.6424C34.7273 45.8775 34.9258 46.149 35.076 46.4499C35.2246 46.7513 35.3218 47.083 35.354 47.4249C35.3903 47.7643 35.3551 48.1211 35.2422 48.4482C35.1373 48.7787 34.9655 49.0905 34.7397 49.3555C34.2784 49.8795 33.6344 50.2098 32.9672 50.3249C31.6269 50.5524 30.208 49.969 29.4396 48.8649C29.0579 48.3186 28.8498 47.6334 28.9256 46.966C28.9645 46.6345 29.0664 46.3121 29.2311 46.0271C29.393 45.7404 29.617 45.4956 29.8721 45.3026C29.9137 45.2711 29.9729 45.2793 30.0044 45.321C30.0332 45.3591 30.0283 45.4124 29.9954 45.4452C29.574 45.8653 29.3284 46.4273 29.3187 46.9945C29.3012 47.5612 29.5181 48.1131 29.8598 48.5577C30.5545 49.4471 31.766 49.9043 32.8585 49.7053C33.4013 49.6056 33.9153 49.3494 34.2735 48.9469C34.6291 48.5473 34.8276 48.0102 34.798 47.4644C34.7748 46.9191 34.5412 46.3762 34.1716 45.9394C33.8049 45.4965 33.3044 45.1611 32.7473 44.9479L32.7458 44.9473C32.6853 44.9241 32.655 44.8563 32.6782 44.7958C32.6992 44.7411 32.7567 44.7111 32.8122 44.7231Z" fill="#6E3C1B"/>
<g opacity="0.35">
<path opacity="0.35" d="M17.5853 33.5407C15.1916 30.9442 11.7833 30.3243 9.97264 32.1561C8.16201 33.988 8.63469 37.5779 11.0284 40.1744C13.4221 42.771 16.8303 43.3909 18.641 41.559C20.4516 39.7272 19.979 36.1373 17.5853 33.5407Z" fill="#6E3C1B"/>
</g>
<path d="M15.9636 35.4223C13.7287 33.3337 10.9245 32.8598 9.70013 34.3638C8.4758 35.8678 9.29505 38.7801 11.53 40.8686C13.7649 42.9572 16.5691 43.4311 17.7935 41.9271C19.0178 40.4232 18.1986 37.5108 15.9636 35.4223Z" fill="#FFC107"/>
<path d="M15.3075 42.5695C15.8846 42.6181 16.4651 42.5607 16.9929 42.3713C17.5205 42.1831 17.9899 41.8589 18.3459 41.4419C18.7053 41.0265 18.9547 40.5198 19.0916 39.9814C19.2311 39.4434 19.2786 38.8773 19.2373 38.3145C19.1594 37.1871 18.7875 36.0784 18.2145 35.0924C17.6496 34.0996 16.8859 33.218 15.9771 32.5402C15.0746 31.8618 13.9982 31.3943 12.9037 31.3363C12.3587 31.3071 11.8147 31.3995 11.3281 31.6212C10.8417 31.8435 10.4128 32.1875 10.0947 32.6282C9.77315 33.0667 9.5627 33.5916 9.44523 34.141C9.3262 34.6915 9.30563 35.2685 9.35765 35.8413C9.46024 36.9909 9.85877 38.1177 10.4389 39.1436L10.4393 39.1442C10.4722 39.2024 10.4517 39.2762 10.3936 39.3091C10.339 39.3399 10.2704 39.3233 10.235 39.2733C9.53907 38.2817 9.0419 37.1289 8.85605 35.9014C8.76413 35.2884 8.75778 34.6562 8.85951 34.0311C8.95765 33.4065 9.18206 32.7882 9.54747 32.2462C9.91061 31.7045 10.4231 31.2487 11.0201 30.965C11.6157 30.6766 12.2824 30.5515 12.9306 30.5715C13.5806 30.5887 14.2154 30.7368 14.8057 30.9715C15.1012 31.0889 15.3875 31.2259 15.6636 31.3796C15.9382 31.5356 16.2026 31.7075 16.4571 31.8924C17.4713 32.6389 18.2924 33.6164 18.9061 34.7011C19.211 35.246 19.4557 35.8252 19.638 36.4246C19.8169 37.0248 19.9324 37.6477 19.9508 38.2793C19.974 38.9095 19.9031 39.5493 19.7173 40.1617C19.5297 40.7724 19.2102 41.3537 18.7628 41.8221C18.3131 42.2872 17.7421 42.6305 17.1288 42.8005C16.8221 42.8844 16.5077 42.9317 16.1948 42.9406C15.8815 42.9499 15.5707 42.9198 15.2671 42.8667C15.1854 42.8524 15.1308 42.7747 15.1451 42.693C15.1585 42.6161 15.2285 42.5631 15.3049 42.5693L15.3075 42.5695Z" fill="#6E3C1B"/>
<g opacity="0.35">
<path opacity="0.35" d="M47.5147 34.343C47.5024 34.3789 47.4883 34.4148 47.4741 34.4498C47.4599 34.6624 47.4231 34.8807 47.3569 35.1018C46.6548 37.3707 43.8719 38.2212 41.7533 37.7128C40.762 37.4604 39.7802 37.1874 38.8087 36.8925C38.7927 36.9785 38.7653 37.0645 38.7237 37.1467L37.9092 38.7777C37.5142 39.5687 36.4454 39.8361 35.5231 39.3759C34.5999 38.9148 34.1728 37.8989 34.5677 37.108L35.2661 35.7104C31.5325 34.3449 27.953 32.6468 24.5388 30.6029C24.5076 30.7427 24.4443 30.8788 24.3479 30.9969L23.1932 32.4077C22.6328 33.0919 21.531 33.1174 20.7334 32.4644C19.9349 31.8115 19.7422 30.7266 20.3025 30.0415L21.4554 28.6326C20.8497 28.2196 20.2487 27.7954 19.6543 27.3588C18.3389 26.3807 17.7851 24.6685 18.3597 23.2246C18.3975 22.7558 18.5364 22.2919 18.7877 21.8647C19.3453 22.5669 19.9311 23.2444 20.5425 23.8955C20.8752 24.2527 21.2163 24.6014 21.565 24.9416C21.8098 25.1806 22.0573 25.416 22.3106 25.6474C23.2376 26.5008 24.2119 27.3002 25.2268 28.041C25.3203 28.11 25.4148 28.1771 25.5083 28.2442C26.0763 28.6496 26.6565 29.038 27.2481 29.4056C27.386 29.4915 27.523 29.5756 27.6619 29.6597C28.2525 30.0179 28.8554 30.3552 29.4659 30.6746C29.7966 30.8485 30.1302 31.0158 30.4675 31.1764C30.5384 31.2114 30.6093 31.2454 30.6811 31.2785C30.7312 31.3021 30.7803 31.3257 30.8313 31.3493C30.94 31.4004 31.0496 31.4495 31.1583 31.4986C31.7385 31.7614 32.3263 32.008 32.9207 32.2367C33.0993 32.3066 33.2788 32.3727 33.4593 32.4379C33.653 32.5088 33.8477 32.5787 34.0433 32.6458C34.5564 32.8225 35.078 32.9879 35.6006 33.1391C36.4152 33.3782 37.2401 33.5823 38.0736 33.7571C38.9288 33.9348 39.7925 34.0803 40.6637 34.1899C41.8204 34.3373 42.9912 34.4233 44.1696 34.4469C45.2761 34.4687 46.393 34.4356 47.5147 34.343Z" fill="#6E3C1B"/>
</g>
<path d="M28.0696 34.1865C27.6848 34.5384 27.4121 34.9964 27.4021 35.4785L27.3975 35.657L27.4215 35.8343C27.4265 35.8637 27.4267 35.8933 27.4352 35.9223L27.4609 36.0087C27.4796 36.0659 27.4898 36.1245 27.5143 36.1799C27.5655 36.2902 27.604 36.404 27.6733 36.5072C27.7058 36.5593 27.7313 36.6144 27.7689 36.664L27.8803 36.8128C28.1843 37.2057 28.5914 37.5291 29.0324 37.7895C29.4718 38.0563 29.9544 38.2557 30.4511 38.4072C30.5765 38.4412 30.7005 38.481 30.8272 38.5109L31.2092 38.5935L31.5958 38.6519C31.725 38.6681 31.8547 38.6781 31.9843 38.6919C32.5035 38.7317 33.0268 38.7087 33.5365 38.6197C34.044 38.5266 34.5441 38.3642 34.9679 38.0827C35.1884 37.952 35.3681 37.7728 35.5315 37.5807L35.6404 37.4259C35.6803 37.3754 35.6986 37.3146 35.7303 37.2592C35.7981 37.1491 35.8217 37.0228 35.8662 36.9003L35.8713 36.8861C35.889 36.8375 35.9428 36.8124 35.9915 36.83C36.033 36.8451 36.0573 36.8865 36.0526 36.9286C36.0206 37.2135 35.9367 37.5003 35.7827 37.7518C35.6265 37.9977 35.4314 38.2252 35.2003 38.401C34.7444 38.7667 34.2009 38.9952 33.6463 39.1285C33.0907 39.2671 32.5174 39.309 31.9499 39.2878C31.3813 39.2679 30.819 39.168 30.2723 39.0102C29.7259 38.8504 29.1988 38.6187 28.7086 38.318C28.4641 38.1664 28.2342 37.9895 28.0156 37.7983C27.9078 37.7007 27.8062 37.5946 27.7041 37.4906L27.5635 37.3201C27.5166 37.2634 27.4702 37.2066 27.4311 37.1426L27.3087 36.9565C27.268 36.8947 27.2382 36.8242 27.2029 36.7584C27.1289 36.6286 27.0826 36.482 27.0323 36.3399C27.0082 36.2682 26.9987 36.1907 26.9819 36.1166L26.9598 36.0046C26.9527 35.9672 26.954 35.9279 26.9508 35.8898L26.9404 35.6603L26.9646 35.4314C27.0029 35.128 27.1275 34.8395 27.2975 34.5971C27.4688 34.3534 27.6886 34.1562 27.9269 34.0012C27.9812 33.9658 28.0539 33.9812 28.0892 34.0355C28.121 34.0844 28.1113 34.1485 28.0696 34.1865Z" fill="#6E3C1B"/>
<path d="M30.5967 40.233C31.2568 40.4383 31.9308 40.5132 32.5989 40.4761C32.9324 40.4546 33.2648 40.4132 33.5903 40.337C33.9171 40.268 34.236 40.165 34.5464 40.0438C35.1665 39.8002 35.7494 39.4557 36.2328 39.0072C36.7141 38.5593 37.0813 37.9839 37.158 37.3058L37.1583 37.3039C37.1641 37.2518 37.2112 37.2143 37.2632 37.2202C37.3071 37.2251 37.3406 37.2594 37.3465 37.3011C37.399 37.6695 37.3383 38.056 37.2042 38.4101C37.0681 38.7651 36.8577 39.0871 36.6082 39.3678C36.1094 39.934 35.4652 40.3448 34.7805 40.6276C34.4368 40.7689 34.0782 40.8702 33.7147 40.9443C33.3494 41.0084 32.9781 41.0452 32.6069 41.0333C31.8671 41.0167 31.1213 40.8298 30.4983 40.4453C30.443 40.4111 30.4258 40.3385 30.46 40.2831C30.4888 40.2364 30.545 40.2169 30.5951 40.2324L30.5967 40.233Z" fill="#6E3C1B"/>
<g opacity="0.5">
<path opacity="0.5" d="M66.8388 29.0775C66.4324 27.9964 65.0453 27.4082 63.9468 28.1831C60.4676 30.6374 56.4565 32.4602 52.0423 33.4489C44.5934 35.1168 37.1679 34.146 30.7444 31.1548C30.9152 31.2877 31.0868 31.4163 31.2587 31.5425C31.2254 31.5276 31.1915 31.5137 31.1582 31.4987C31.0495 31.4496 30.9399 31.4004 30.8313 31.3494C30.7802 31.3258 30.7311 31.3022 30.681 31.2785C30.6091 31.2454 30.5383 31.2115 30.4674 31.1765C30.2122 31.0549 29.9597 30.9283 29.7083 30.7992C29.6275 30.7577 29.5462 30.717 29.4658 30.6747C28.8941 30.3756 28.3295 30.06 27.775 29.7271C27.7373 29.7045 27.6993 29.6826 27.6618 29.6598C27.5229 29.5757 27.3859 29.4916 27.2479 29.4056C26.6563 29.038 26.0762 28.6496 25.5082 28.2443C25.4147 28.1772 25.3202 28.1101 25.2266 28.0411C24.7192 27.6707 24.2219 27.2856 23.7356 26.8864C23.4924 26.6869 23.252 26.4838 23.0145 26.2773C22.7769 26.0708 22.5422 25.8608 22.3105 25.6474C22.2131 25.5585 22.1173 25.4685 22.0215 25.3784C21.9315 25.2938 21.8422 25.2085 21.7533 25.123C21.6905 25.0625 21.6273 25.0025 21.5649 24.9415C21.2162 24.6014 20.875 24.2527 20.5424 23.8955C20.4278 23.7734 20.3149 23.6495 20.2021 23.5255C19.7132 22.9885 19.2406 22.4352 18.7876 21.8647C18.7052 21.7614 18.624 21.6568 18.5427 21.5522C18.404 21.3737 18.2664 21.1941 18.1318 21.0123C18.1024 20.9728 18.0737 20.9326 18.0445 20.8929C17.8277 20.5987 17.6156 20.3006 17.4082 19.9984C17.2237 19.7296 17.0424 19.4582 16.8655 19.1829C16.308 18.3183 15.7901 17.4234 15.3111 16.4992C15.1852 16.256 15.0633 16.0108 14.9429 15.7645C14.8762 15.628 14.8094 15.4917 14.7441 15.3539C13.7254 13.1871 12.9269 10.8748 12.3807 8.43864C12.2843 8.00737 12.1996 7.57557 12.1206 7.14375C11.9889 6.42406 11.8783 5.70425 11.7939 4.98666C11.7805 4.87038 11.7705 4.7542 11.7583 4.63797C11.7077 4.15522 11.6644 3.67275 11.6332 3.19217C11.6178 2.94081 11.5578 2.71261 11.4653 2.50854C11.1513 1.81597 10.4498 1.41109 9.73168 1.40581C9.62469 1.40505 9.51747 1.4142 9.41111 1.43148C9.34439 1.44234 9.27818 1.45666 9.21253 1.47482C9.13574 1.49602 9.06002 1.52266 8.98553 1.55416C8.93939 1.57364 8.89387 1.5952 8.84891 1.61873C8.799 1.64486 8.74996 1.67343 8.70179 1.70465C8.52031 1.82214 8.35182 1.97453 8.20586 2.16693C8.18504 2.19436 8.16523 2.22244 8.14453 2.24994C9.23783 1.91042 10.5392 2.61735 10.6212 3.9512C10.66 4.54747 10.7129 5.14661 10.7819 5.74572C10.917 6.89384 11.1117 8.04768 11.3687 9.19767C11.9149 11.6338 12.7134 13.9461 13.732 16.113C13.9154 16.4994 14.1035 16.8803 14.2991 17.2582C14.7782 18.1824 15.296 19.0773 15.8535 19.9419C16.2561 20.5685 16.6784 21.1779 17.1198 21.7714C17.3333 22.0597 17.5526 22.3441 17.7755 22.6238C18.3331 23.3259 18.9189 24.0034 19.5304 24.6545C19.863 25.0117 20.2041 25.3604 20.5528 25.7006C20.7975 25.9397 21.0451 26.175 21.2984 26.4065C22.2254 27.2598 23.1997 28.0592 24.2145 28.8001C24.3081 28.8691 24.4026 28.9362 24.4961 29.0032C25.0641 29.4086 25.6443 29.797 26.2358 30.1646C26.3738 30.2506 26.5108 30.3347 26.6497 30.4188C27.2403 30.7769 27.8432 31.1143 28.4536 31.4337C28.7844 31.6075 29.1179 31.7748 29.4553 31.9354C29.5262 31.9704 29.597 32.0044 29.6689 32.0375C29.719 32.0611 29.7681 32.0847 29.8191 32.1084C29.9278 32.1594 30.0374 32.2086 30.1461 32.2577C30.7263 32.5204 31.3141 32.767 31.9084 32.9957C32.0871 33.0656 32.2666 33.1318 32.447 33.197C32.6408 33.2679 32.8355 33.3378 33.031 33.4049C33.5442 33.5816 34.0658 33.7469 34.5884 33.8981C35.2201 34.0836 35.8582 34.2474 36.5016 34.3934C49.1069 39.1388 62.733 30.8622 64.5061 31.1844C65.6233 31.3882 65.3784 33.0834 64.8696 34.697C64.3468 36.095 63.7317 37.4544 63.029 38.7657C60.8436 42.8509 57.8129 46.4681 54.1158 49.3472C54.1434 49.3274 54.1715 49.3084 54.1991 49.2885C54.2003 49.2876 54.2017 49.2867 54.203 49.2858C54.2852 49.2262 54.3653 49.164 54.447 49.1037C54.7272 48.8969 55.0035 48.6857 55.2764 48.4707C55.623 48.1975 55.9644 47.9188 56.299 47.6329C57.0655 46.9777 57.8015 46.2909 58.5023 45.5723C58.9415 45.1218 59.3674 44.6595 59.7796 44.1859C60.1919 43.7124 60.5905 43.2275 60.9748 42.7322C61.1671 42.4845 61.3557 42.2341 61.5407 41.9812C62.4662 40.7168 63.3018 39.3884 64.041 38.0067C64.2014 37.7073 64.3572 37.4055 64.5085 37.1014C64.5842 36.9492 64.6587 36.7966 64.732 36.6433C65.6852 34.6506 66.4424 32.5593 66.9845 30.3988C67.1069 29.9116 67.0345 29.4571 66.8388 29.0775Z" fill="white"/>
</g>
<mask id="path-23-outside-1" maskUnits="userSpaceOnUse" x="0" y="-1" width="69" height="58" fill="black">
<rect fill="white" y="-1" width="69" height="58"/>
<path d="M34.7398 56C28.0875 56.0002 21.5123 54.0076 15.9154 50.2485C9.32652 45.8234 4.49837 39.2123 2.32058 31.633C2.223 31.2902 2.13971 30.9841 2.06571 30.6963C1.98864 30.3958 1.91378 30.0852 1.83704 29.7465C1.78194 29.5038 1.7282 29.2537 1.67745 29.0036C1.62753 28.7552 1.57984 28.5086 1.53524 28.261C1.49225 28.021 1.45147 27.7802 1.41367 27.5409C1.39293 27.411 1.37342 27.2799 1.35401 27.1487C1.33979 27.0521 1.32646 26.957 1.3131 26.8614L1.30273 26.7874C1.28558 26.6585 1.26951 26.5328 1.25408 26.406C1.23877 26.2826 1.22367 26.1593 1.21011 26.0356C1.19662 25.9122 1.18303 25.7888 1.17107 25.6649C1.15872 25.544 1.14673 25.4201 1.13562 25.2966C1.12464 25.1729 1.11364 25.0491 1.1045 24.9263L1.1003 24.8728C1.092 24.767 1.08386 24.6618 1.07743 24.5565C1.07422 24.5161 1.07113 24.4691 1.06817 24.4218L1.0515 24.1366C1.04411 24.0173 1.03842 23.8945 1.03323 23.7706C1.00654 23.179 0.995788 22.5796 1.00148 21.9906L1.00419 21.7233C1.00654 21.5672 1.01061 21.4136 1.01593 21.2595L1.01643 21.2454C1.01853 21.1689 1.02063 21.0924 1.02423 21.0155C1.04376 20.4977 1.07624 19.9699 1.12059 19.4499C1.12664 19.377 1.13332 19.3023 1.1401 19.2275L1.14491 19.1749C1.14873 19.1318 1.1527 19.0887 1.15763 19.046C1.1675 18.9354 1.18035 18.8155 1.19358 18.6946C1.24262 18.2346 1.30475 17.7553 1.37825 17.2712C1.39518 17.1546 1.41408 17.035 1.43396 16.916C1.5843 15.9873 1.7785 15.0474 2.01075 14.1244C2.06624 13.9036 2.12367 13.6836 2.18371 13.4637C2.31405 12.9893 2.45093 12.5283 2.59051 12.0927C2.61978 11.9984 2.6513 11.9009 2.68379 11.8038C2.83402 11.3477 3.00042 10.8775 3.1778 10.4079C3.2539 10.2076 3.33124 10.0097 3.41104 9.81182C3.52259 9.53225 3.64117 9.24714 3.76274 8.96601C3.82414 8.82455 3.88679 8.68297 3.94989 8.54284C4.36731 7.61154 4.83453 6.68565 5.33843 5.79084C5.51075 5.48539 5.69 5.179 5.87148 4.87988C5.97501 4.70865 6.08127 4.53694 6.18811 4.36684C6.30212 4.18451 6.41887 4.00419 6.5372 3.8233C6.74191 3.51091 6.95772 3.19438 7.19701 2.85526C7.33525 2.65982 7.48459 2.45408 7.65398 2.22572C7.73071 2.12232 7.80902 2.01851 7.88659 1.91564C7.93612 1.84991 7.989 1.78722 8.04337 1.72958C8.05425 1.71723 8.06794 1.70228 8.08251 1.68788C8.10513 1.664 8.12823 1.64194 8.15206 1.61983C8.16428 1.60718 8.17751 1.59506 8.19171 1.58345C8.20469 1.57189 8.21764 1.56065 8.23062 1.54952L8.25311 1.53006C8.27844 1.50861 8.29746 1.49424 8.31674 1.48007L8.34207 1.46067C8.35702 1.4488 8.3721 1.43701 8.3874 1.42578L8.40506 1.41355C8.76815 1.15542 9.19929 1.01323 9.65241 1.0021C9.65783 1.00157 9.66971 1.00099 9.68143 1.00086L9.74504 1L9.75222 1.00013C9.8456 1.00149 9.94344 1.00954 10.043 1.02396C11.0929 1.17528 11.8893 1.97742 12.0239 3.01994C12.0311 3.07256 12.0358 3.12724 12.0396 3.18307C12.0499 3.35213 12.0613 3.51762 12.0753 3.68308C12.0831 3.78977 12.0919 3.89108 12.1011 3.99392C12.1171 4.17302 12.1338 4.35247 12.1535 4.53099C12.1646 4.64605 12.1769 4.75525 12.1893 4.86594C12.2609 5.49584 12.3519 6.12945 12.46 6.74931C12.4779 6.8584 12.4967 6.96307 12.5163 7.06827C12.5362 7.18045 12.5569 7.28858 12.5785 7.39724C12.6357 7.69057 12.69 7.95415 12.745 8.2048L12.3528 8.30863L12.7479 8.2175C12.75 8.22651 12.752 8.23554 12.7538 8.24447L12.7784 8.35392C12.7992 8.44664 12.82 8.53909 12.842 8.63169L12.8604 8.71037C12.8865 8.82106 12.9124 8.9318 12.9407 9.04256C12.9585 9.11697 12.9756 9.18554 12.9933 9.25319C13.0199 9.35869 13.0459 9.45941 13.073 9.56079C13.0804 9.59062 13.086 9.61372 13.0928 9.63638L13.0969 9.6506C13.1328 9.78866 13.1707 9.92526 13.2096 10.0623C13.2525 10.2171 13.2962 10.3691 13.3411 10.5191C13.4012 10.723 13.4642 10.9238 13.5275 11.1243C13.5606 11.2284 13.5941 11.3332 13.6283 11.4376C13.6431 11.4831 13.6581 11.5273 13.673 11.5715L13.6971 11.6432C15.2569 16.2884 17.7797 20.4342 21.1954 23.9646C26.7575 29.713 34.1826 33.2505 42.1028 33.9255C43.9561 34.0841 45.8363 34.0826 47.6916 33.921C47.7631 33.9151 47.833 33.9085 47.9028 33.902L48.0172 33.8914C48.0726 33.886 48.1291 33.88 48.1857 33.874C48.3095 33.8622 48.4286 33.8491 48.5468 33.8357C48.6201 33.8276 48.6927 33.8187 48.7653 33.8098C48.9675 33.7861 49.1661 33.7597 49.3659 33.7315C49.6119 33.6976 49.8623 33.6602 50.1325 33.6171C50.2804 33.5919 50.4321 33.5661 50.5843 33.5393C50.7434 33.5115 50.9016 33.4823 51.0608 33.4513L51.0841 33.4467C51.2411 33.4162 51.3985 33.3847 51.5555 33.352C51.7039 33.3207 51.853 33.2891 52.0031 33.2557C52.8103 33.0762 53.6242 32.8627 54.4224 32.621C54.5531 32.5811 54.6847 32.541 54.8158 32.4993C54.9493 32.4577 55.0791 32.4147 55.2091 32.3718C55.3392 32.3297 55.467 32.2859 55.5937 32.2425C58.0061 31.4123 60.3166 30.3016 62.4647 28.9399L62.568 28.8743C62.645 28.8254 62.7219 28.7766 62.798 28.7267L63.0638 28.5509C63.2034 28.4588 63.3412 28.3663 63.4776 28.2717L63.8064 28.0418C64.0801 27.8492 64.381 27.7194 64.6984 27.6578C64.7501 27.6477 64.8027 27.6394 64.8551 27.634C64.9517 27.6211 65.0502 27.615 65.158 27.6173L65.2558 27.6213C65.4227 27.6309 65.5883 27.6591 65.7494 27.7051C66.0701 27.7978 66.3745 27.9607 66.6306 28.1766C66.9772 28.4708 67.2271 28.8498 67.3545 29.2736C67.4521 29.6007 67.4737 29.9408 67.419 30.2853C67.4153 30.3143 67.4082 30.3543 67.4004 30.3924C67.392 30.4316 67.384 30.4669 67.3746 30.5028C67.3052 30.7809 67.2268 31.0762 67.1357 31.4009C67.0937 31.5508 67.0508 31.6999 67.0069 31.8486C66.8768 32.2879 66.7343 32.7355 66.5829 33.1795C66.4705 33.5069 66.3681 33.7934 66.2694 34.056C65.7879 35.3459 65.2249 36.6136 64.5963 37.8227C64.5305 37.9486 64.465 38.0735 64.3992 38.1969L64.3856 38.2222C64.3146 38.3537 64.2433 38.486 64.1705 38.6164C64.1014 38.7413 64.0308 38.8671 63.96 38.9929C63.7746 39.3165 63.6096 39.5957 63.4542 39.8491C63.132 40.3789 62.7895 40.9074 62.4372 41.4186C62.4172 41.448 62.396 41.4786 62.3739 41.509L62.2687 41.6607C62.2292 41.7172 62.1894 41.7734 62.1493 41.8296C62.1408 41.8423 62.1323 41.8542 62.1229 41.866L62.0661 41.946C62.0294 41.9983 61.9925 42.0491 61.9556 42.0999L61.8705 42.2159C61.8497 42.2463 61.8268 42.2765 61.8042 42.306C61.7637 42.3622 61.7219 42.4187 61.68 42.4753L61.6704 42.4883C61.6421 42.5264 61.6132 42.5651 61.5833 42.6026C61.5453 42.6553 61.5055 42.7072 61.4661 42.7584L61.3644 42.8903C61.3417 42.9218 61.3183 42.952 61.2936 42.9812C61.2803 42.9995 61.2667 43.0169 61.2531 43.0344C61.1722 43.1382 61.0914 43.2415 61.0087 43.3438C61.0002 43.3559 60.9885 43.3712 60.9734 43.3879C60.922 43.453 60.8704 43.5168 60.8185 43.5806L60.7964 43.6077C60.7634 43.6482 60.73 43.6891 60.6962 43.7288C60.6066 43.8399 60.509 43.9569 60.4103 44.0734L60.0895 43.8248L60.4018 44.0834C60.3939 44.093 60.3857 44.1026 60.3772 44.1119C60.3621 44.1286 60.3474 44.1464 60.3326 44.1643C60.2928 44.212 60.2531 44.2577 60.2134 44.3034C60.1741 44.35 60.131 44.4004 60.0862 44.4503C60.0665 44.474 60.0461 44.4974 60.0256 44.5208L59.9981 44.5523C59.9963 44.5548 59.9868 44.5654 59.9771 44.5758C59.9178 44.6435 59.8592 44.71 59.7998 44.7761L59.7493 44.832C59.6808 44.9085 59.6076 44.9886 59.5348 45.0677C59.5089 45.0976 59.4823 45.1266 59.4559 45.1556L59.4247 45.1897C59.3641 45.2552 59.3068 45.3166 59.2484 45.3777L59.2365 45.3908C59.2124 45.4169 59.1879 45.4434 59.1631 45.4689C59.1218 45.5134 59.0741 45.5634 59.0261 45.6138L58.9364 45.7072C58.8881 45.7573 58.8393 45.8076 58.7904 45.8572L58.7172 45.9326C58.6309 46.0213 58.5437 46.1083 58.4563 46.1952C58.4481 46.2038 58.4342 46.218 58.4185 46.2331L58.341 46.3094C58.2957 46.3542 58.2506 46.3986 58.2051 46.4428C58.1869 46.4615 58.1624 46.4857 58.137 46.5092L57.965 46.6746C57.9001 46.7372 57.8348 46.7996 57.7686 46.8615C57.6952 46.9312 57.6197 47.0027 57.5428 47.0725C57.5115 47.1028 57.4799 47.1317 57.4472 47.1601C57.3623 47.2387 57.2763 47.3167 57.1894 47.3943C57.1592 47.4224 57.124 47.4536 57.0883 47.4853L57.0637 47.5071C57.0452 47.5243 57.0207 47.5456 56.9959 47.5673L56.9774 47.5833C56.9481 47.6099 56.9147 47.6394 56.8796 47.6694C56.8354 47.7095 56.7821 47.7553 56.7281 47.8014L56.7063 47.82C56.6958 47.8294 56.6852 47.8385 56.6747 47.8473L56.6611 47.8591C56.5645 47.9422 56.4678 48.0253 56.3692 48.1076C56.3408 48.1323 56.3057 48.1614 56.271 48.1892C56.197 48.2517 56.1159 48.3183 56.0348 48.385L55.9686 48.4394C55.9556 48.4509 55.9397 48.4642 55.9221 48.4774C55.8956 48.5001 55.8679 48.5222 55.8404 48.5433C55.7658 48.6047 55.6818 48.6717 55.5967 48.7381C55.5917 48.7424 55.5866 48.7465 55.5815 48.7506C55.5689 48.7616 55.5586 48.7692 55.5529 48.7736L55.4895 48.8232C55.4235 48.8747 55.3577 48.9261 55.2906 48.9775C55.2626 49.0003 55.2284 49.0271 55.1918 49.0531C55.0938 49.1287 54.9957 49.2042 54.8963 49.2777C54.8427 49.319 54.7831 49.3645 54.7221 49.408C54.6582 49.4554 54.5905 49.5046 54.5221 49.5544L54.5215 49.5557L54.1237 49.8414C54.1069 49.8539 54.0837 49.8698 54.0606 49.8856C53.9908 49.9347 53.9157 49.9866 53.8403 50.0386L53.7605 50.0935C53.5625 50.2312 53.3497 50.3739 53.0918 50.542C52.7912 50.738 52.5149 50.9122 52.2469 51.0742C52.1534 51.1326 52.0535 51.1928 51.953 51.2516C51.9371 51.2625 51.9213 51.2722 51.9054 51.281C51.8547 51.3112 51.8034 51.3409 51.7522 51.3708C51.6927 51.4064 51.636 51.4396 51.5784 51.4724C51.5016 51.5172 51.4205 51.5632 51.3392 51.6091L51.2709 51.6478C51.1658 51.7079 51.0589 51.7671 50.952 51.8263C50.9384 51.8346 50.9166 51.8463 50.8941 51.8574C50.806 51.9058 50.7241 51.9509 50.6405 51.995C50.5497 52.0442 50.4543 52.0946 50.3581 52.1447C50.2932 52.1788 50.2274 52.2134 50.1605 52.2475C50.1364 52.2609 50.1127 52.2731 50.0881 52.2851C50.0603 52.2999 50.0318 52.3143 50.0036 52.3278C49.9345 52.364 49.8647 52.399 49.795 52.4338C49.6586 52.5022 49.5279 52.5668 49.3967 52.63C49.2036 52.7234 49.0081 52.816 48.8115 52.9056L48.4534 53.0717L48.4503 53.0701C48.4044 53.0907 48.3582 53.1111 48.3122 53.1317L48.0649 53.242L48.0618 53.2404C48.0612 53.2406 48.0606 53.2409 48.0599 53.2412C47.9684 53.281 47.8868 53.3155 47.8056 53.349L47.6692 53.4072C47.6054 53.4336 47.547 53.4577 47.4887 53.4804C47.4672 53.4901 47.4457 53.4988 47.4231 53.507C47.3891 53.5213 47.3547 53.5355 47.3201 53.5495L47.2211 53.5889C47.1725 53.6083 47.1236 53.6277 47.0744 53.6466C47.0634 53.6517 47.0504 53.6571 47.0368 53.6622L46.9536 53.6951C46.886 53.7216 46.8162 53.7488 46.746 53.7745L46.7193 53.7847C46.6966 53.7936 46.6737 53.8024 46.6506 53.8108C46.642 53.8142 46.633 53.8176 46.6238 53.8207C46.5779 53.8388 46.5316 53.8559 46.4839 53.8732C46.4469 53.8879 46.4091 53.9021 46.3719 53.9153C46.3499 53.9232 46.3251 53.9321 46.3 53.9406C46.2815 53.9484 46.2624 53.9554 46.2429 53.962C46.2123 53.9736 46.1821 53.9844 46.151 53.9947C46.0969 54.015 46.0421 54.0346 45.9861 54.054L45.8448 54.1038C45.8149 54.1153 45.7846 54.1256 45.7534 54.1352C45.6926 54.1574 45.6305 54.1781 45.5668 54.1991L45.4258 54.2472C45.3403 54.2759 45.2523 54.3048 45.1641 54.3337L44.8757 54.4265C44.785 54.4549 44.6942 54.4834 44.603 54.5113C44.4668 54.5532 44.3306 54.5941 44.1944 54.6329C44.1733 54.6403 44.1524 54.6466 44.1314 54.6519C44.066 54.6708 44.0005 54.6896 43.9349 54.7083L43.9335 54.7111L43.5234 54.8224C43.4399 54.8451 43.3554 54.8676 43.271 54.89L43.0262 54.9527C42.9732 54.9674 42.914 54.982 42.8536 54.9961C42.8151 55.0068 42.7773 55.0161 42.738 55.0257C42.6722 55.0418 42.6055 55.0575 42.5398 55.0727C42.506 55.0819 42.4738 55.0896 42.4413 55.096C42.389 55.1089 42.3371 55.1212 42.2851 55.1334L42.259 55.14C42.1911 55.1552 42.1298 55.169 42.0676 55.1823C42.0211 55.1934 41.9665 55.2055 41.9119 55.2175L41.8182 55.2381C41.7694 55.2487 41.7206 55.2595 41.6715 55.2697C41.6149 55.2816 41.5606 55.2929 41.5073 55.3039L41.5029 55.3129L41.2855 55.3488C41.1858 55.3695 41.0869 55.3883 40.9882 55.4071C40.9302 55.4183 40.8741 55.4286 40.8181 55.4387L40.7461 55.4519C40.6607 55.4679 40.5733 55.4836 40.4873 55.4988L40.4486 55.5055C40.431 55.5087 40.4134 55.5119 40.3956 55.5146C40.2794 55.5352 40.1541 55.5559 40.0292 55.5754C40.0275 55.5759 40.0201 55.5771 40.0123 55.5782L39.9357 55.5903C39.8421 55.6053 39.749 55.6201 39.6559 55.6333C39.5783 55.6452 39.4971 55.6567 39.416 55.6681L39.2889 55.6864C39.1967 55.6989 39.1081 55.7106 39.0192 55.7224L38.9168 55.7358C38.7921 55.7519 38.6685 55.7665 38.5446 55.7809C38.455 55.7914 38.3652 55.8012 38.2756 55.8108L38.1748 55.8218C37.031 55.9411 35.8838 56 34.7398 56ZM8.72488 2.19445L8.7154 2.20322C8.69526 2.22182 8.6824 2.23326 8.67029 2.24641L8.63297 2.28618C8.59901 2.32209 8.56577 2.36165 8.53389 2.40391C8.45731 2.50526 8.38047 2.60724 8.3051 2.70872C8.13944 2.9322 7.99356 3.13318 7.85914 3.32319C7.62554 3.65421 7.41489 3.96323 7.21553 4.26756C7.10026 4.44353 6.98648 4.61926 6.87506 4.7974C6.77029 4.96431 6.66654 5.1321 6.56498 5.29994C6.38758 5.59236 6.21268 5.8913 6.04466 6.18904C5.55298 7.06207 5.09715 7.96574 4.68961 8.87457L4.68936 8.8751C4.62785 9.01198 4.56655 9.15042 4.50677 9.28828C4.38829 9.56203 4.27279 9.83987 4.16347 10.1138C4.08501 10.308 4.0099 10.5006 3.93602 10.6952C3.76294 11.1532 3.60036 11.6124 3.45324 12.0592C3.42212 12.1523 3.39234 12.2441 3.36368 12.3365C3.22643 12.765 3.09289 13.215 2.96566 13.6778C2.90734 13.8918 2.85115 14.1064 2.79703 14.3221C2.57034 15.2228 2.38097 16.1397 2.23395 17.0475C2.2148 17.1629 2.19664 17.2769 2.18011 17.3904C2.10821 17.8651 2.04757 18.3324 1.99962 18.7819C1.98677 18.8987 1.97442 19.0133 1.96405 19.1288C1.95884 19.1751 1.95563 19.2115 1.95231 19.2478L1.94738 19.3024C1.94095 19.3734 1.93455 19.4462 1.92848 19.518C1.88514 20.0261 1.85339 20.5411 1.83421 21.0494C1.83074 21.1248 1.82877 21.1964 1.82682 21.2679L1.82632 21.285C1.821 21.4367 1.81718 21.585 1.81483 21.7329L1.81212 21.9978C1.80671 22.5727 1.81718 23.1571 1.84324 23.7354C1.8483 23.8555 1.85374 23.9731 1.8609 24.0917L1.87722 24.3698C1.88005 24.4135 1.88291 24.4572 1.88623 24.5007C1.89278 24.6077 1.90067 24.7083 1.90859 24.8094L1.91305 24.865C1.92182 24.9854 1.93255 25.1049 1.9433 25.2245C1.9539 25.3447 1.96567 25.4652 1.97789 25.5846C1.98973 25.707 2.00284 25.8272 2.01604 25.9472C2.02915 26.0669 2.04372 26.1862 2.05877 26.3068C2.07398 26.4317 2.08954 26.5542 2.10609 26.6773L2.1161 26.7492C2.12921 26.8428 2.14219 26.9361 2.15615 27.0305C2.17493 27.1581 2.19395 27.2861 2.21434 27.4136C2.25151 27.6483 2.29131 27.8836 2.33318 28.1176C2.37692 28.3594 2.4236 28.6008 2.47218 28.8431C2.52159 29.0865 2.57396 29.3304 2.6277 29.5672C2.70282 29.8984 2.77581 30.2018 2.85107 30.4946C2.9232 30.7755 3.00475 31.075 3.1001 31.4101C7.18446 45.6243 20.1345 55.1943 34.6482 55.1949C35.7871 55.1949 36.9344 55.136 38.0888 55.0158L38.1885 55.005C38.2757 54.9956 38.363 54.9862 38.4503 54.9759C38.5711 54.9617 38.6917 54.9477 38.8117 54.9321L39.3021 54.8658C39.3805 54.8545 39.4589 54.8434 39.5378 54.8314C39.6305 54.8182 39.7192 54.8041 39.8083 54.7899L39.9016 54.7753C40.0235 54.7558 40.1435 54.7362 40.263 54.715L40.3026 54.7081C40.3199 54.7051 40.3372 54.7018 40.3546 54.6991C40.4296 54.6858 40.5143 54.6709 40.5978 54.6552L40.6731 54.6413C40.7258 54.6318 40.7787 54.6222 40.8313 54.6119C40.8748 54.6037 40.9173 54.5955 40.9593 54.5875L40.966 54.574L41.2069 54.5383C41.3026 54.5189 41.3997 54.4985 41.4969 54.4781C41.5532 54.4665 41.5986 54.4565 41.6441 54.4465L41.737 54.4261C41.7879 54.4149 41.8386 54.4036 41.8899 54.3915C41.9546 54.3777 42.0106 54.3651 42.0663 54.3526L42.0824 54.3486C42.1402 54.335 42.198 54.3214 42.2562 54.3069L42.2797 54.3017C42.2969 54.2985 42.3137 54.2944 42.3317 54.2894L42.3488 54.2851C42.4136 54.27 42.4798 54.2545 42.5452 54.2385C42.579 54.2303 42.6098 54.2229 42.6414 54.2139L42.6614 54.2087C42.7141 54.1965 42.766 54.1839 42.8186 54.1694L43.0634 54.1065C43.1461 54.0847 43.2288 54.0627 43.312 54.0401L43.544 53.9763C43.6678 53.9419 43.792 53.9064 43.9154 53.8706L43.9586 53.8572C44.0942 53.8189 44.2296 53.7782 44.3656 53.7364C44.4552 53.709 44.5442 53.6811 44.633 53.6532L44.9115 53.5636C44.9978 53.5353 45.0839 53.5071 45.1698 53.4782L45.3018 53.4331C45.371 53.4102 45.428 53.3914 45.4837 53.3708L45.5072 53.3628C45.5236 53.3579 45.5396 53.3529 45.5552 53.3468L45.6783 53.3033C45.6922 53.298 45.7066 53.2929 45.7212 53.288C45.7734 53.2701 45.8236 53.252 45.873 53.2335L45.888 53.2282C45.913 53.2198 45.9374 53.2111 45.9621 53.2017L45.9794 53.1954C45.9824 53.1946 45.9812 53.1952 45.9783 53.1969L46.0276 53.1771C46.0514 53.1693 46.0756 53.1605 46.0987 53.1522C46.1306 53.1409 46.16 53.1299 46.1886 53.1184L46.2015 53.1135C46.2465 53.0971 46.2902 53.0813 46.3336 53.0639L46.369 53.0508C46.3886 53.0438 46.4079 53.0362 46.4271 53.0288L46.4629 53.0151C46.532 52.9898 46.5963 52.9646 46.6606 52.9395L46.7736 52.8939C46.8234 52.8748 46.873 52.8551 46.9224 52.8356L47.0144 52.799C47.049 52.7848 47.0836 52.7708 47.1175 52.7563L47.1853 52.7289C47.2414 52.7072 47.2971 52.6842 47.3527 52.6612L47.4908 52.6023C47.5732 52.5682 47.6501 52.5357 47.726 52.5027C47.7794 52.4795 47.8227 52.4606 47.8656 52.4424L47.9825 52.3914C48.0779 52.3487 48.1742 52.306 48.2697 52.2628C48.2698 52.2628 48.27 52.2628 48.2701 52.2628L48.4465 52.1618L48.4669 52.1721L48.4729 52.1694C48.6666 52.0811 48.8565 51.9911 49.0447 51.9002C49.1724 51.8385 49.2992 51.7759 49.4249 51.7128C49.4999 51.6754 49.5671 51.6417 49.6338 51.6068L49.6474 51.6C49.6688 51.5897 49.6904 51.5789 49.7114 51.5675L49.7295 51.5583C49.7444 51.5512 49.7587 51.5438 49.7733 51.5356L49.7861 51.5288C49.8522 51.4951 49.9174 51.4609 49.9827 51.4267C50.0763 51.3779 50.168 51.3292 50.2587 51.2802C50.3444 51.2349 50.4248 51.1906 50.5051 51.1465L50.5318 51.1325C50.5377 51.1296 50.5439 51.1264 50.5497 51.1229C50.6631 51.06 50.7668 51.0026 50.8699 50.9435L50.9402 50.9037C51.0183 50.8596 51.0961 50.8155 51.1739 50.7701C51.2304 50.7379 51.2815 50.7079 51.333 50.677L51.3454 50.6698C51.3966 50.6401 51.4477 50.6105 51.4979 50.5803L51.5288 50.5609C51.6278 50.5031 51.7264 50.4438 51.8228 50.3836C52.0876 50.2235 52.3563 50.0542 52.6492 49.8632C52.9003 49.6994 53.1068 49.5609 53.299 49.4275L53.3802 49.3714C53.4537 49.3207 53.5269 49.2702 53.5999 49.219C53.619 49.2058 53.6331 49.1965 53.6464 49.1866L53.9913 48.9384C54.0764 48.8765 54.1614 48.8147 54.2458 48.7525C54.3043 48.7105 54.3565 48.6704 54.4087 48.6304C54.5119 48.5541 54.6076 48.4802 54.7035 48.4064L54.717 48.3963C54.7425 48.3784 54.7661 48.3595 54.7904 48.3401C54.8629 48.2844 54.9266 48.2346 54.9904 48.1847L55.083 48.1113C55.174 48.04 55.2553 47.9752 55.3362 47.909C55.3636 47.8876 55.3824 47.873 55.3997 47.8576L55.5202 47.759C55.599 47.6942 55.6777 47.6294 55.7564 47.5633C55.7903 47.5358 55.8178 47.5132 55.8444 47.4901C55.9455 47.4057 56.039 47.3253 56.1324 47.2449L56.2013 47.1854C56.2498 47.144 56.2978 47.103 56.3448 47.0606C56.3826 47.0282 56.4107 47.0031 56.4395 46.9773L56.4641 46.9557C56.4829 46.9393 56.5014 46.9233 56.5197 46.9065L56.5506 46.8789C56.5823 46.8508 56.6138 46.823 56.6449 46.7942C56.7345 46.7141 56.8185 46.6378 56.9016 46.5609L56.9116 46.5519C56.9359 46.5308 56.9595 46.5093 56.9827 46.4868L56.9936 46.4766C57.0677 46.4095 57.1404 46.3406 57.213 46.2716C57.2782 46.2106 57.3405 46.1512 57.403 46.0908L57.5817 45.9191C57.6034 45.8989 57.6182 45.8841 57.6334 45.8686C57.6843 45.819 57.7281 45.7759 57.7719 45.7325L57.879 45.6266C57.9691 45.5369 58.0532 45.4531 58.1356 45.3685L58.212 45.2897C58.2613 45.2398 58.3077 45.1917 58.3538 45.144L58.4395 45.0547C58.4854 45.0066 58.5312 44.9586 58.5766 44.9098C58.6022 44.8834 58.6213 44.8626 58.6402 44.8421L58.6578 44.8229C58.7176 44.7602 58.7722 44.7018 58.827 44.6425L58.8587 44.6077C58.881 44.5834 58.9035 44.5589 58.9254 44.5336L58.934 44.5238C59.0059 44.4456 59.0783 44.3666 59.1497 44.2869L59.2007 44.2305C59.2545 44.1707 59.3108 44.1067 59.367 44.0426C59.3676 44.0415 59.3763 44.0319 59.3852 44.0224L59.3768 44.0323L59.4162 43.9867C59.4331 43.9673 59.4502 43.9481 59.4663 43.9283L59.4788 43.9138C59.5199 43.8682 59.5594 43.8219 59.5986 43.7755C59.6383 43.73 59.674 43.689 59.7092 43.6465C59.7313 43.6199 59.7539 43.593 59.7768 43.5678L59.799 43.5416C59.8865 43.4381 59.9801 43.326 60.0723 43.2119C60.1091 43.1683 60.139 43.1316 60.1687 43.0953L60.1902 43.069C60.2426 43.0041 60.2962 42.938 60.3495 42.8703L60.3788 42.8341C60.4584 42.7354 60.5362 42.636 60.6145 42.5355C60.6241 42.5232 60.6338 42.5112 60.6429 42.4981L60.6695 42.4643C60.6839 42.4477 60.6972 42.4304 60.7101 42.4122L60.824 42.264C60.8603 42.2168 60.8966 42.1696 60.9311 42.1215L60.9455 42.1026C60.9711 42.0708 60.9956 42.0377 61.0197 42.0052L61.029 41.9927C61.0698 41.9376 61.111 41.8819 61.1508 41.8268L61.159 41.8157C61.1748 41.7951 61.1913 41.7739 61.2056 41.7527L61.2999 41.6238C61.3342 41.5767 61.3684 41.5295 61.4019 41.4818L61.4859 41.3643C61.5269 41.3067 61.5678 41.2491 61.6081 41.1912L61.6276 41.1628L61.7156 41.0367C61.7364 41.008 61.7526 40.9841 61.7689 40.9602C62.1136 40.4603 62.4476 39.9448 62.7626 39.4268C62.9146 39.1791 63.0754 38.9068 63.2553 38.5929C63.3235 38.4716 63.3932 38.3476 63.462 38.2232C63.5336 38.0946 63.6032 37.9657 63.6722 37.8376L63.6851 37.8139C63.7491 37.6941 63.8133 37.5711 63.8777 37.4481C64.4907 36.2691 65.0402 35.032 65.5104 33.772C65.6067 33.5158 65.7065 33.2365 65.8161 32.9174C65.9636 32.4847 66.1028 32.0476 66.2296 31.6192C66.2723 31.4744 66.3143 31.3288 66.3553 31.1825C66.4443 30.8651 66.5209 30.5773 66.5894 30.3026C66.597 30.2738 66.6022 30.2496 66.6073 30.2255C66.6106 30.2097 66.6143 30.1891 66.6171 30.1689C66.6542 29.9348 66.6406 29.7155 66.5782 29.5065C66.4962 29.2339 66.3332 28.9878 66.1073 28.7958C65.9385 28.6536 65.7372 28.5457 65.5258 28.4847C65.4031 28.4496 65.2755 28.4307 65.1473 28.4288L65.1074 28.4281C65.054 28.4288 65.0049 28.4321 64.9579 28.4385L64.943 28.4404C64.9129 28.4433 64.8828 28.4483 64.8532 28.454C64.6488 28.4936 64.4529 28.5787 64.2709 28.7068L63.9406 28.9378C63.7984 29.0364 63.6551 29.1327 63.5115 29.2273L63.2447 29.4038C63.1634 29.4571 63.0832 29.508 63.0029 29.559L62.9004 29.6242C60.6976 31.0205 58.3299 32.1587 55.8618 33.0081C55.7259 33.0547 55.5936 33.0999 55.4614 33.1427C55.3295 33.1864 55.1952 33.2306 55.0596 33.2729C54.9276 33.3148 54.7931 33.356 54.6587 33.397C53.8401 33.6448 53.0064 33.8636 52.1795 34.0474C52.0265 34.0815 51.8744 34.1136 51.7224 34.1457C51.5597 34.1797 51.3972 34.2122 51.235 34.2437L51.2118 34.2483C51.0491 34.28 50.8871 34.3097 50.7248 34.3381C50.5715 34.3651 50.4181 34.3912 50.2648 34.4173C49.9847 34.4621 49.7286 34.5003 49.4781 34.5348C49.2736 34.5637 49.0686 34.5909 48.8625 34.6151C48.7889 34.6242 48.7128 34.6334 48.6374 34.6418C48.5151 34.6556 48.3908 34.6692 48.2677 34.6808C48.2135 34.6867 48.1537 34.693 48.0929 34.699L47.979 34.7095C47.906 34.7164 47.8329 34.7232 47.7602 34.7292C45.8608 34.8948 43.9337 34.8963 42.0341 34.7337C33.9189 34.042 26.3113 30.4178 20.6131 24.5288C17.1127 20.9108 14.5273 16.6622 12.9285 11.9009L12.9049 11.8307C12.8891 11.7839 12.8734 11.7371 12.8581 11.69C12.8233 11.5842 12.789 11.4768 12.755 11.3695C12.6897 11.1632 12.6253 10.9576 12.5641 10.75C12.5183 10.5963 12.473 10.4392 12.4293 10.2815C12.39 10.1432 12.3511 10.0032 12.3142 9.86173C12.3047 9.82922 12.2964 9.79631 12.2881 9.76332C12.2618 9.66502 12.2347 9.56046 12.2082 9.45485C12.19 9.38536 12.1716 9.3111 12.1539 9.23743C12.1259 9.12785 12.0986 9.01198 12.0714 8.89615L12.0542 8.82286C12.0306 8.72353 12.0091 8.62772 11.9875 8.53168L11.9521 8.37262C11.897 8.12192 11.8414 7.85224 11.7833 7.55431C11.7608 7.44177 11.7392 7.32795 11.719 7.21361C11.6989 7.10624 11.6792 6.99588 11.6609 6.88499C11.5507 6.25317 11.4574 5.60352 11.3841 4.95773C11.3709 4.84269 11.3585 4.72904 11.3474 4.61484C11.3276 4.43596 11.3102 4.25082 11.2938 4.06613C11.2842 3.95885 11.275 3.85297 11.2673 3.74661C11.2532 3.57958 11.2413 3.40779 11.2307 3.23547C11.2284 3.20058 11.2254 3.16332 11.2205 3.1261C11.1191 2.34195 10.4979 1.90891 9.92717 1.82663C9.86344 1.81737 9.80252 1.81219 9.74546 1.81112L9.67592 1.81279C9.37942 1.82 9.10196 1.91179 8.86995 2.07827L8.72488 2.19445ZM41.2764 54.9671L41.2775 54.9677L41.2706 54.9388L41.2764 54.9671ZM45.9741 53.1988C45.9738 53.1988 45.9737 53.1989 45.9735 53.1991L45.9741 53.1988ZM48.258 52.2693L48.2579 52.2695L48.258 52.2693ZM55.0604 48.1298C55.0597 48.1303 55.0589 48.131 55.0575 48.132L55.0604 48.1298ZM4.31972 8.70873H4.32096H4.31972Z"/>
</mask>
<path d="M34.7398 56C28.0875 56.0002 21.5123 54.0076 15.9154 50.2485C9.32652 45.8234 4.49837 39.2123 2.32058 31.633C2.223 31.2902 2.13971 30.9841 2.06571 30.6963C1.98864 30.3958 1.91378 30.0852 1.83704 29.7465C1.78194 29.5038 1.7282 29.2537 1.67745 29.0036C1.62753 28.7552 1.57984 28.5086 1.53524 28.261C1.49225 28.021 1.45147 27.7802 1.41367 27.5409C1.39293 27.411 1.37342 27.2799 1.35401 27.1487C1.33979 27.0521 1.32646 26.957 1.3131 26.8614L1.30273 26.7874C1.28558 26.6585 1.26951 26.5328 1.25408 26.406C1.23877 26.2826 1.22367 26.1593 1.21011 26.0356C1.19662 25.9122 1.18303 25.7888 1.17107 25.6649C1.15872 25.544 1.14673 25.4201 1.13562 25.2966C1.12464 25.1729 1.11364 25.0491 1.1045 24.9263L1.1003 24.8728C1.092 24.767 1.08386 24.6618 1.07743 24.5565C1.07422 24.5161 1.07113 24.4691 1.06817 24.4218L1.0515 24.1366C1.04411 24.0173 1.03842 23.8945 1.03323 23.7706C1.00654 23.179 0.995788 22.5796 1.00148 21.9906L1.00419 21.7233C1.00654 21.5672 1.01061 21.4136 1.01593 21.2595L1.01643 21.2454C1.01853 21.1689 1.02063 21.0924 1.02423 21.0155C1.04376 20.4977 1.07624 19.9699 1.12059 19.4499C1.12664 19.377 1.13332 19.3023 1.1401 19.2275L1.14491 19.1749C1.14873 19.1318 1.1527 19.0887 1.15763 19.046C1.1675 18.9354 1.18035 18.8155 1.19358 18.6946C1.24262 18.2346 1.30475 17.7553 1.37825 17.2712C1.39518 17.1546 1.41408 17.035 1.43396 16.916C1.5843 15.9873 1.7785 15.0474 2.01075 14.1244C2.06624 13.9036 2.12367 13.6836 2.18371 13.4637C2.31405 12.9893 2.45093 12.5283 2.59051 12.0927C2.61978 11.9984 2.6513 11.9009 2.68379 11.8038C2.83402 11.3477 3.00042 10.8775 3.1778 10.4079C3.2539 10.2076 3.33124 10.0097 3.41104 9.81182C3.52259 9.53225 3.64117 9.24714 3.76274 8.96601C3.82414 8.82455 3.88679 8.68297 3.94989 8.54284C4.36731 7.61154 4.83453 6.68565 5.33843 5.79084C5.51075 5.48539 5.69 5.179 5.87148 4.87988C5.97501 4.70865 6.08127 4.53694 6.18811 4.36684C6.30212 4.18451 6.41887 4.00419 6.5372 3.8233C6.74191 3.51091 6.95772 3.19438 7.19701 2.85526C7.33525 2.65982 7.48459 2.45408 7.65398 2.22572C7.73071 2.12232 7.80902 2.01851 7.88659 1.91564C7.93612 1.84991 7.989 1.78722 8.04337 1.72958C8.05425 1.71723 8.06794 1.70228 8.08251 1.68788C8.10513 1.664 8.12823 1.64194 8.15206 1.61983C8.16428 1.60718 8.17751 1.59506 8.19171 1.58345C8.20469 1.57189 8.21764 1.56065 8.23062 1.54952L8.25311 1.53006C8.27844 1.50861 8.29746 1.49424 8.31674 1.48007L8.34207 1.46067C8.35702 1.4488 8.3721 1.43701 8.3874 1.42578L8.40506 1.41355C8.76815 1.15542 9.19929 1.01323 9.65241 1.0021C9.65783 1.00157 9.66971 1.00099 9.68143 1.00086L9.74504 1L9.75222 1.00013C9.8456 1.00149 9.94344 1.00954 10.043 1.02396C11.0929 1.17528 11.8893 1.97742 12.0239 3.01994C12.0311 3.07256 12.0358 3.12724 12.0396 3.18307C12.0499 3.35213 12.0613 3.51762 12.0753 3.68308C12.0831 3.78977 12.0919 3.89108 12.1011 3.99392C12.1171 4.17302 12.1338 4.35247 12.1535 4.53099C12.1646 4.64605 12.1769 4.75525 12.1893 4.86594C12.2609 5.49584 12.3519 6.12945 12.46 6.74931C12.4779 6.8584 12.4967 6.96307 12.5163 7.06827C12.5362 7.18045 12.5569 7.28858 12.5785 7.39724C12.6357 7.69057 12.69 7.95415 12.745 8.2048L12.3528 8.30863L12.7479 8.2175C12.75 8.22651 12.752 8.23554 12.7538 8.24447L12.7784 8.35392C12.7992 8.44664 12.82 8.53909 12.842 8.63169L12.8604 8.71037C12.8865 8.82106 12.9124 8.9318 12.9407 9.04256C12.9585 9.11697 12.9756 9.18554 12.9933 9.25319C13.0199 9.35869 13.0459 9.45941 13.073 9.56079C13.0804 9.59062 13.086 9.61372 13.0928 9.63638L13.0969 9.6506C13.1328 9.78866 13.1707 9.92526 13.2096 10.0623C13.2525 10.2171 13.2962 10.3691 13.3411 10.5191C13.4012 10.723 13.4642 10.9238 13.5275 11.1243C13.5606 11.2284 13.5941 11.3332 13.6283 11.4376C13.6431 11.4831 13.6581 11.5273 13.673 11.5715L13.6971 11.6432C15.2569 16.2884 17.7797 20.4342 21.1954 23.9646C26.7575 29.713 34.1826 33.2505 42.1028 33.9255C43.9561 34.0841 45.8363 34.0826 47.6916 33.921C47.7631 33.9151 47.833 33.9085 47.9028 33.902L48.0172 33.8914C48.0726 33.886 48.1291 33.88 48.1857 33.874C48.3095 33.8622 48.4286 33.8491 48.5468 33.8357C48.6201 33.8276 48.6927 33.8187 48.7653 33.8098C48.9675 33.7861 49.1661 33.7597 49.3659 33.7315C49.6119 33.6976 49.8623 33.6602 50.1325 33.6171C50.2804 33.5919 50.4321 33.5661 50.5843 33.5393C50.7434 33.5115 50.9016 33.4823 51.0608 33.4513L51.0841 33.4467C51.2411 33.4162 51.3985 33.3847 51.5555 33.352C51.7039 33.3207 51.853 33.2891 52.0031 33.2557C52.8103 33.0762 53.6242 32.8627 54.4224 32.621C54.5531 32.5811 54.6847 32.541 54.8158 32.4993C54.9493 32.4577 55.0791 32.4147 55.2091 32.3718C55.3392 32.3297 55.467 32.2859 55.5937 32.2425C58.0061 31.4123 60.3166 30.3016 62.4647 28.9399L62.568 28.8743C62.645 28.8254 62.7219 28.7766 62.798 28.7267L63.0638 28.5509C63.2034 28.4588 63.3412 28.3663 63.4776 28.2717L63.8064 28.0418C64.0801 27.8492 64.381 27.7194 64.6984 27.6578C64.7501 27.6477 64.8027 27.6394 64.8551 27.634C64.9517 27.6211 65.0502 27.615 65.158 27.6173L65.2558 27.6213C65.4227 27.6309 65.5883 27.6591 65.7494 27.7051C66.0701 27.7978 66.3745 27.9607 66.6306 28.1766C66.9772 28.4708 67.2271 28.8498 67.3545 29.2736C67.4521 29.6007 67.4737 29.9408 67.419 30.2853C67.4153 30.3143 67.4082 30.3543 67.4004 30.3924C67.392 30.4316 67.384 30.4669 67.3746 30.5028C67.3052 30.7809 67.2268 31.0762 67.1357 31.4009C67.0937 31.5508 67.0508 31.6999 67.0069 31.8486C66.8768 32.2879 66.7343 32.7355 66.5829 33.1795C66.4705 33.5069 66.3681 33.7934 66.2694 34.056C65.7879 35.3459 65.2249 36.6136 64.5963 37.8227C64.5305 37.9486 64.465 38.0735 64.3992 38.1969L64.3856 38.2222C64.3146 38.3537 64.2433 38.486 64.1705 38.6164C64.1014 38.7413 64.0308 38.8671 63.96 38.9929C63.7746 39.3165 63.6096 39.5957 63.4542 39.8491C63.132 40.3789 62.7895 40.9074 62.4372 41.4186C62.4172 41.448 62.396 41.4786 62.3739 41.509L62.2687 41.6607C62.2292 41.7172 62.1894 41.7734 62.1493 41.8296C62.1408 41.8423 62.1323 41.8542 62.1229 41.866L62.0661 41.946C62.0294 41.9983 61.9925 42.0491 61.9556 42.0999L61.8705 42.2159C61.8497 42.2463 61.8268 42.2765 61.8042 42.306C61.7637 42.3622 61.7219 42.4187 61.68 42.4753L61.6704 42.4883C61.6421 42.5264 61.6132 42.5651 61.5833 42.6026C61.5453 42.6553 61.5055 42.7072 61.4661 42.7584L61.3644 42.8903C61.3417 42.9218 61.3183 42.952 61.2936 42.9812C61.2803 42.9995 61.2667 43.0169 61.2531 43.0344C61.1722 43.1382 61.0914 43.2415 61.0087 43.3438C61.0002 43.3559 60.9885 43.3712 60.9734 43.3879C60.922 43.453 60.8704 43.5168 60.8185 43.5806L60.7964 43.6077C60.7634 43.6482 60.73 43.6891 60.6962 43.7288C60.6066 43.8399 60.509 43.9569 60.4103 44.0734L60.0895 43.8248L60.4018 44.0834C60.3939 44.093 60.3857 44.1026 60.3772 44.1119C60.3621 44.1286 60.3474 44.1464 60.3326 44.1643C60.2928 44.212 60.2531 44.2577 60.2134 44.3034C60.1741 44.35 60.131 44.4004 60.0862 44.4503C60.0665 44.474 60.0461 44.4974 60.0256 44.5208L59.9981 44.5523C59.9963 44.5548 59.9868 44.5654 59.9771 44.5758C59.9178 44.6435 59.8592 44.71 59.7998 44.7761L59.7493 44.832C59.6808 44.9085 59.6076 44.9886 59.5348 45.0677C59.5089 45.0976 59.4823 45.1266 59.4559 45.1556L59.4247 45.1897C59.3641 45.2552 59.3068 45.3166 59.2484 45.3777L59.2365 45.3908C59.2124 45.4169 59.1879 45.4434 59.1631 45.4689C59.1218 45.5134 59.0741 45.5634 59.0261 45.6138L58.9364 45.7072C58.8881 45.7573 58.8393 45.8076 58.7904 45.8572L58.7172 45.9326C58.6309 46.0213 58.5437 46.1083 58.4563 46.1952C58.4481 46.2038 58.4342 46.218 58.4185 46.2331L58.341 46.3094C58.2957 46.3542 58.2506 46.3986 58.2051 46.4428C58.1869 46.4615 58.1624 46.4857 58.137 46.5092L57.965 46.6746C57.9001 46.7372 57.8348 46.7996 57.7686 46.8615C57.6952 46.9312 57.6197 47.0027 57.5428 47.0725C57.5115 47.1028 57.4799 47.1317 57.4472 47.1601C57.3623 47.2387 57.2763 47.3167 57.1894 47.3943C57.1592 47.4224 57.124 47.4536 57.0883 47.4853L57.0637 47.5071C57.0452 47.5243 57.0207 47.5456 56.9959 47.5673L56.9774 47.5833C56.9481 47.6099 56.9147 47.6394 56.8796 47.6694C56.8354 47.7095 56.7821 47.7553 56.7281 47.8014L56.7063 47.82C56.6958 47.8294 56.6852 47.8385 56.6747 47.8473L56.6611 47.8591C56.5645 47.9422 56.4678 48.0253 56.3692 48.1076C56.3408 48.1323 56.3057 48.1614 56.271 48.1892C56.197 48.2517 56.1159 48.3183 56.0348 48.385L55.9686 48.4394C55.9556 48.4509 55.9397 48.4642 55.9221 48.4774C55.8956 48.5001 55.8679 48.5222 55.8404 48.5433C55.7658 48.6047 55.6818 48.6717 55.5967 48.7381C55.5917 48.7424 55.5866 48.7465 55.5815 48.7506C55.5689 48.7616 55.5586 48.7692 55.5529 48.7736L55.4895 48.8232C55.4235 48.8747 55.3577 48.9261 55.2906 48.9775C55.2626 49.0003 55.2284 49.0271 55.1918 49.0531C55.0938 49.1287 54.9957 49.2042 54.8963 49.2777C54.8427 49.319 54.7831 49.3645 54.7221 49.408C54.6582 49.4554 54.5905 49.5046 54.5221 49.5544L54.5215 49.5557L54.1237 49.8414C54.1069 49.8539 54.0837 49.8698 54.0606 49.8856C53.9908 49.9347 53.9157 49.9866 53.8403 50.0386L53.7605 50.0935C53.5625 50.2312 53.3497 50.3739 53.0918 50.542C52.7912 50.738 52.5149 50.9122 52.2469 51.0742C52.1534 51.1326 52.0535 51.1928 51.953 51.2516C51.9371 51.2625 51.9213 51.2722 51.9054 51.281C51.8547 51.3112 51.8034 51.3409 51.7522 51.3708C51.6927 51.4064 51.636 51.4396 51.5784 51.4724C51.5016 51.5172 51.4205 51.5632 51.3392 51.6091L51.2709 51.6478C51.1658 51.7079 51.0589 51.7671 50.952 51.8263C50.9384 51.8346 50.9166 51.8463 50.8941 51.8574C50.806 51.9058 50.7241 51.9509 50.6405 51.995C50.5497 52.0442 50.4543 52.0946 50.3581 52.1447C50.2932 52.1788 50.2274 52.2134 50.1605 52.2475C50.1364 52.2609 50.1127 52.2731 50.0881 52.2851C50.0603 52.2999 50.0318 52.3143 50.0036 52.3278C49.9345 52.364 49.8647 52.399 49.795 52.4338C49.6586 52.5022 49.5279 52.5668 49.3967 52.63C49.2036 52.7234 49.0081 52.816 48.8115 52.9056L48.4534 53.0717L48.4503 53.0701C48.4044 53.0907 48.3582 53.1111 48.3122 53.1317L48.0649 53.242L48.0618 53.2404C48.0612 53.2406 48.0606 53.2409 48.0599 53.2412C47.9684 53.281 47.8868 53.3155 47.8056 53.349L47.6692 53.4072C47.6054 53.4336 47.547 53.4577 47.4887 53.4804C47.4672 53.4901 47.4457 53.4988 47.4231 53.507C47.3891 53.5213 47.3547 53.5355 47.3201 53.5495L47.2211 53.5889C47.1725 53.6083 47.1236 53.6277 47.0744 53.6466C47.0634 53.6517 47.0504 53.6571 47.0368 53.6622L46.9536 53.6951C46.886 53.7216 46.8162 53.7488 46.746 53.7745L46.7193 53.7847C46.6966 53.7936 46.6737 53.8024 46.6506 53.8108C46.642 53.8142 46.633 53.8176 46.6238 53.8207C46.5779 53.8388 46.5316 53.8559 46.4839 53.8732C46.4469 53.8879 46.4091 53.9021 46.3719 53.9153C46.3499 53.9232 46.3251 53.9321 46.3 53.9406C46.2815 53.9484 46.2624 53.9554 46.2429 53.962C46.2123 53.9736 46.1821 53.9844 46.151 53.9947C46.0969 54.015 46.0421 54.0346 45.9861 54.054L45.8448 54.1038C45.8149 54.1153 45.7846 54.1256 45.7534 54.1352C45.6926 54.1574 45.6305 54.1781 45.5668 54.1991L45.4258 54.2472C45.3403 54.2759 45.2523 54.3048 45.1641 54.3337L44.8757 54.4265C44.785 54.4549 44.6942 54.4834 44.603 54.5113C44.4668 54.5532 44.3306 54.5941 44.1944 54.6329C44.1733 54.6403 44.1524 54.6466 44.1314 54.6519C44.066 54.6708 44.0005 54.6896 43.9349 54.7083L43.9335 54.7111L43.5234 54.8224C43.4399 54.8451 43.3554 54.8676 43.271 54.89L43.0262 54.9527C42.9732 54.9674 42.914 54.982 42.8536 54.9961C42.8151 55.0068 42.7773 55.0161 42.738 55.0257C42.6722 55.0418 42.6055 55.0575 42.5398 55.0727C42.506 55.0819 42.4738 55.0896 42.4413 55.096C42.389 55.1089 42.3371 55.1212 42.2851 55.1334L42.259 55.14C42.1911 55.1552 42.1298 55.169 42.0676 55.1823C42.0211 55.1934 41.9665 55.2055 41.9119 55.2175L41.8182 55.2381C41.7694 55.2487 41.7206 55.2595 41.6715 55.2697C41.6149 55.2816 41.5606 55.2929 41.5073 55.3039L41.5029 55.3129L41.2855 55.3488C41.1858 55.3695 41.0869 55.3883 40.9882 55.4071C40.9302 55.4183 40.8741 55.4286 40.8181 55.4387L40.7461 55.4519C40.6607 55.4679 40.5733 55.4836 40.4873 55.4988L40.4486 55.5055C40.431 55.5087 40.4134 55.5119 40.3956 55.5146C40.2794 55.5352 40.1541 55.5559 40.0292 55.5754C40.0275 55.5759 40.0201 55.5771 40.0123 55.5782L39.9357 55.5903C39.8421 55.6053 39.749 55.6201 39.6559 55.6333C39.5783 55.6452 39.4971 55.6567 39.416 55.6681L39.2889 55.6864C39.1967 55.6989 39.1081 55.7106 39.0192 55.7224L38.9168 55.7358C38.7921 55.7519 38.6685 55.7665 38.5446 55.7809C38.455 55.7914 38.3652 55.8012 38.2756 55.8108L38.1748 55.8218C37.031 55.9411 35.8838 56 34.7398 56ZM8.72488 2.19445L8.7154 2.20322C8.69526 2.22182 8.6824 2.23326 8.67029 2.24641L8.63297 2.28618C8.59901 2.32209 8.56577 2.36165 8.53389 2.40391C8.45731 2.50526 8.38047 2.60724 8.3051 2.70872C8.13944 2.9322 7.99356 3.13318 7.85914 3.32319C7.62554 3.65421 7.41489 3.96323 7.21553 4.26756C7.10026 4.44353 6.98648 4.61926 6.87506 4.7974C6.77029 4.96431 6.66654 5.1321 6.56498 5.29994C6.38758 5.59236 6.21268 5.8913 6.04466 6.18904C5.55298 7.06207 5.09715 7.96574 4.68961 8.87457L4.68936 8.8751C4.62785 9.01198 4.56655 9.15042 4.50677 9.28828C4.38829 9.56203 4.27279 9.83987 4.16347 10.1138C4.08501 10.308 4.0099 10.5006 3.93602 10.6952C3.76294 11.1532 3.60036 11.6124 3.45324 12.0592C3.42212 12.1523 3.39234 12.2441 3.36368 12.3365C3.22643 12.765 3.09289 13.215 2.96566 13.6778C2.90734 13.8918 2.85115 14.1064 2.79703 14.3221C2.57034 15.2228 2.38097 16.1397 2.23395 17.0475C2.2148 17.1629 2.19664 17.2769 2.18011 17.3904C2.10821 17.8651 2.04757 18.3324 1.99962 18.7819C1.98677 18.8987 1.97442 19.0133 1.96405 19.1288C1.95884 19.1751 1.95563 19.2115 1.95231 19.2478L1.94738 19.3024C1.94095 19.3734 1.93455 19.4462 1.92848 19.518C1.88514 20.0261 1.85339 20.5411 1.83421 21.0494C1.83074 21.1248 1.82877 21.1964 1.82682 21.2679L1.82632 21.285C1.821 21.4367 1.81718 21.585 1.81483 21.7329L1.81212 21.9978C1.80671 22.5727 1.81718 23.1571 1.84324 23.7354C1.8483 23.8555 1.85374 23.9731 1.8609 24.0917L1.87722 24.3698C1.88005 24.4135 1.88291 24.4572 1.88623 24.5007C1.89278 24.6077 1.90067 24.7083 1.90859 24.8094L1.91305 24.865C1.92182 24.9854 1.93255 25.1049 1.9433 25.2245C1.9539 25.3447 1.96567 25.4652 1.97789 25.5846C1.98973 25.707 2.00284 25.8272 2.01604 25.9472C2.02915 26.0669 2.04372 26.1862 2.05877 26.3068C2.07398 26.4317 2.08954 26.5542 2.10609 26.6773L2.1161 26.7492C2.12921 26.8428 2.14219 26.9361 2.15615 27.0305C2.17493 27.1581 2.19395 27.2861 2.21434 27.4136C2.25151 27.6483 2.29131 27.8836 2.33318 28.1176C2.37692 28.3594 2.4236 28.6008 2.47218 28.8431C2.52159 29.0865 2.57396 29.3304 2.6277 29.5672C2.70282 29.8984 2.77581 30.2018 2.85107 30.4946C2.9232 30.7755 3.00475 31.075 3.1001 31.4101C7.18446 45.6243 20.1345 55.1943 34.6482 55.1949C35.7871 55.1949 36.9344 55.136 38.0888 55.0158L38.1885 55.005C38.2757 54.9956 38.363 54.9862 38.4503 54.9759C38.5711 54.9617 38.6917 54.9477 38.8117 54.9321L39.3021 54.8658C39.3805 54.8545 39.4589 54.8434 39.5378 54.8314C39.6305 54.8182 39.7192 54.8041 39.8083 54.7899L39.9016 54.7753C40.0235 54.7558 40.1435 54.7362 40.263 54.715L40.3026 54.7081C40.3199 54.7051 40.3372 54.7018 40.3546 54.6991C40.4296 54.6858 40.5143 54.6709 40.5978 54.6552L40.6731 54.6413C40.7258 54.6318 40.7787 54.6222 40.8313 54.6119C40.8748 54.6037 40.9173 54.5955 40.9593 54.5875L40.966 54.574L41.2069 54.5383C41.3026 54.5189 41.3997 54.4985 41.4969 54.4781C41.5532 54.4665 41.5986 54.4565 41.6441 54.4465L41.737 54.4261C41.7879 54.4149 41.8386 54.4036 41.8899 54.3915C41.9546 54.3777 42.0106 54.3651 42.0663 54.3526L42.0824 54.3486C42.1402 54.335 42.198 54.3214 42.2562 54.3069L42.2797 54.3017C42.2969 54.2985 42.3137 54.2944 42.3317 54.2894L42.3488 54.2851C42.4136 54.27 42.4798 54.2545 42.5452 54.2385C42.579 54.2303 42.6098 54.2229 42.6414 54.2139L42.6614 54.2087C42.7141 54.1965 42.766 54.1839 42.8186 54.1694L43.0634 54.1065C43.1461 54.0847 43.2288 54.0627 43.312 54.0401L43.544 53.9763C43.6678 53.9419 43.792 53.9064 43.9154 53.8706L43.9586 53.8572C44.0942 53.8189 44.2296 53.7782 44.3656 53.7364C44.4552 53.709 44.5442 53.6811 44.633 53.6532L44.9115 53.5636C44.9978 53.5353 45.0839 53.5071 45.1698 53.4782L45.3018 53.4331C45.371 53.4102 45.428 53.3914 45.4837 53.3708L45.5072 53.3628C45.5236 53.3579 45.5396 53.3529 45.5552 53.3468L45.6783 53.3033C45.6922 53.298 45.7066 53.2929 45.7212 53.288C45.7734 53.2701 45.8236 53.252 45.873 53.2335L45.888 53.2282C45.913 53.2198 45.9374 53.2111 45.9621 53.2017L45.9794 53.1954C45.9824 53.1946 45.9812 53.1952 45.9783 53.1969L46.0276 53.1771C46.0514 53.1693 46.0756 53.1605 46.0987 53.1522C46.1306 53.1409 46.16 53.1299 46.1886 53.1184L46.2015 53.1135C46.2465 53.0971 46.2902 53.0813 46.3336 53.0639L46.369 53.0508C46.3886 53.0438 46.4079 53.0362 46.4271 53.0288L46.4629 53.0151C46.532 52.9898 46.5963 52.9646 46.6606 52.9395L46.7736 52.8939C46.8234 52.8748 46.873 52.8551 46.9224 52.8356L47.0144 52.799C47.049 52.7848 47.0836 52.7708 47.1175 52.7563L47.1853 52.7289C47.2414 52.7072 47.2971 52.6842 47.3527 52.6612L47.4908 52.6023C47.5732 52.5682 47.6501 52.5357 47.726 52.5027C47.7794 52.4795 47.8227 52.4606 47.8656 52.4424L47.9825 52.3914C48.0779 52.3487 48.1742 52.306 48.2697 52.2628C48.2698 52.2628 48.27 52.2628 48.2701 52.2628L48.4465 52.1618L48.4669 52.1721L48.4729 52.1694C48.6666 52.0811 48.8565 51.9911 49.0447 51.9002C49.1724 51.8385 49.2992 51.7759 49.4249 51.7128C49.4999 51.6754 49.5671 51.6417 49.6338 51.6068L49.6474 51.6C49.6688 51.5897 49.6904 51.5789 49.7114 51.5675L49.7295 51.5583C49.7444 51.5512 49.7587 51.5438 49.7733 51.5356L49.7861 51.5288C49.8522 51.4951 49.9174 51.4609 49.9827 51.4267C50.0763 51.3779 50.168 51.3292 50.2587 51.2802C50.3444 51.2349 50.4248 51.1906 50.5051 51.1465L50.5318 51.1325C50.5377 51.1296 50.5439 51.1264 50.5497 51.1229C50.6631 51.06 50.7668 51.0026 50.8699 50.9435L50.9402 50.9037C51.0183 50.8596 51.0961 50.8155 51.1739 50.7701C51.2304 50.7379 51.2815 50.7079 51.333 50.677L51.3454 50.6698C51.3966 50.6401 51.4477 50.6105 51.4979 50.5803L51.5288 50.5609C51.6278 50.5031 51.7264 50.4438 51.8228 50.3836C52.0876 50.2235 52.3563 50.0542 52.6492 49.8632C52.9003 49.6994 53.1068 49.5609 53.299 49.4275L53.3802 49.3714C53.4537 49.3207 53.5269 49.2702 53.5999 49.219C53.619 49.2058 53.6331 49.1965 53.6464 49.1866L53.9913 48.9384C54.0764 48.8765 54.1614 48.8147 54.2458 48.7525C54.3043 48.7105 54.3565 48.6704 54.4087 48.6304C54.5119 48.5541 54.6076 48.4802 54.7035 48.4064L54.717 48.3963C54.7425 48.3784 54.7661 48.3595 54.7904 48.3401C54.8629 48.2844 54.9266 48.2346 54.9904 48.1847L55.083 48.1113C55.174 48.04 55.2553 47.9752 55.3362 47.909C55.3636 47.8876 55.3824 47.873 55.3997 47.8576L55.5202 47.759C55.599 47.6942 55.6777 47.6294 55.7564 47.5633C55.7903 47.5358 55.8178 47.5132 55.8444 47.4901C55.9455 47.4057 56.039 47.3253 56.1324 47.2449L56.2013 47.1854C56.2498 47.144 56.2978 47.103 56.3448 47.0606C56.3826 47.0282 56.4107 47.0031 56.4395 46.9773L56.4641 46.9557C56.4829 46.9393 56.5014 46.9233 56.5197 46.9065L56.5506 46.8789C56.5823 46.8508 56.6138 46.823 56.6449 46.7942C56.7345 46.7141 56.8185 46.6378 56.9016 46.5609L56.9116 46.5519C56.9359 46.5308 56.9595 46.5093 56.9827 46.4868L56.9936 46.4766C57.0677 46.4095 57.1404 46.3406 57.213 46.2716C57.2782 46.2106 57.3405 46.1512 57.403 46.0908L57.5817 45.9191C57.6034 45.8989 57.6182 45.8841 57.6334 45.8686C57.6843 45.819 57.7281 45.7759 57.7719 45.7325L57.879 45.6266C57.9691 45.5369 58.0532 45.4531 58.1356 45.3685L58.212 45.2897C58.2613 45.2398 58.3077 45.1917 58.3538 45.144L58.4395 45.0547C58.4854 45.0066 58.5312 44.9586 58.5766 44.9098C58.6022 44.8834 58.6213 44.8626 58.6402 44.8421L58.6578 44.8229C58.7176 44.7602 58.7722 44.7018 58.827 44.6425L58.8587 44.6077C58.881 44.5834 58.9035 44.5589 58.9254 44.5336L58.934 44.5238C59.0059 44.4456 59.0783 44.3666 59.1497 44.2869L59.2007 44.2305C59.2545 44.1707 59.3108 44.1067 59.367 44.0426C59.3676 44.0415 59.3763 44.0319 59.3852 44.0224L59.3768 44.0323L59.4162 43.9867C59.4331 43.9673 59.4502 43.9481 59.4663 43.9283L59.4788 43.9138C59.5199 43.8682 59.5594 43.8219 59.5986 43.7755C59.6383 43.73 59.674 43.689 59.7092 43.6465C59.7313 43.6199 59.7539 43.593 59.7768 43.5678L59.799 43.5416C59.8865 43.4381 59.9801 43.326 60.0723 43.2119C60.1091 43.1683 60.139 43.1316 60.1687 43.0953L60.1902 43.069C60.2426 43.0041 60.2962 42.938 60.3495 42.8703L60.3788 42.8341C60.4584 42.7354 60.5362 42.636 60.6145 42.5355C60.6241 42.5232 60.6338 42.5112 60.6429 42.4981L60.6695 42.4643C60.6839 42.4477 60.6972 42.4304 60.7101 42.4122L60.824 42.264C60.8603 42.2168 60.8966 42.1696 60.9311 42.1215L60.9455 42.1026C60.9711 42.0708 60.9956 42.0377 61.0197 42.0052L61.029 41.9927C61.0698 41.9376 61.111 41.8819 61.1508 41.8268L61.159 41.8157C61.1748 41.7951 61.1913 41.7739 61.2056 41.7527L61.2999 41.6238C61.3342 41.5767 61.3684 41.5295 61.4019 41.4818L61.4859 41.3643C61.5269 41.3067 61.5678 41.2491 61.6081 41.1912L61.6276 41.1628L61.7156 41.0367C61.7364 41.008 61.7526 40.9841 61.7689 40.9602C62.1136 40.4603 62.4476 39.9448 62.7626 39.4268C62.9146 39.1791 63.0754 38.9068 63.2553 38.5929C63.3235 38.4716 63.3932 38.3476 63.462 38.2232C63.5336 38.0946 63.6032 37.9657 63.6722 37.8376L63.6851 37.8139C63.7491 37.6941 63.8133 37.5711 63.8777 37.4481C64.4907 36.2691 65.0402 35.032 65.5104 33.772C65.6067 33.5158 65.7065 33.2365 65.8161 32.9174C65.9636 32.4847 66.1028 32.0476 66.2296 31.6192C66.2723 31.4744 66.3143 31.3288 66.3553 31.1825C66.4443 30.8651 66.5209 30.5773 66.5894 30.3026C66.597 30.2738 66.6022 30.2496 66.6073 30.2255C66.6106 30.2097 66.6143 30.1891 66.6171 30.1689C66.6542 29.9348 66.6406 29.7155 66.5782 29.5065C66.4962 29.2339 66.3332 28.9878 66.1073 28.7958C65.9385 28.6536 65.7372 28.5457 65.5258 28.4847C65.4031 28.4496 65.2755 28.4307 65.1473 28.4288L65.1074 28.4281C65.054 28.4288 65.0049 28.4321 64.9579 28.4385L64.943 28.4404C64.9129 28.4433 64.8828 28.4483 64.8532 28.454C64.6488 28.4936 64.4529 28.5787 64.2709 28.7068L63.9406 28.9378C63.7984 29.0364 63.6551 29.1327 63.5115 29.2273L63.2447 29.4038C63.1634 29.4571 63.0832 29.508 63.0029 29.559L62.9004 29.6242C60.6976 31.0205 58.3299 32.1587 55.8618 33.0081C55.7259 33.0547 55.5936 33.0999 55.4614 33.1427C55.3295 33.1864 55.1952 33.2306 55.0596 33.2729C54.9276 33.3148 54.7931 33.356 54.6587 33.397C53.8401 33.6448 53.0064 33.8636 52.1795 34.0474C52.0265 34.0815 51.8744 34.1136 51.7224 34.1457C51.5597 34.1797 51.3972 34.2122 51.235 34.2437L51.2118 34.2483C51.0491 34.28 50.8871 34.3097 50.7248 34.3381C50.5715 34.3651 50.4181 34.3912 50.2648 34.4173C49.9847 34.4621 49.7286 34.5003 49.4781 34.5348C49.2736 34.5637 49.0686 34.5909 48.8625 34.6151C48.7889 34.6242 48.7128 34.6334 48.6374 34.6418C48.5151 34.6556 48.3908 34.6692 48.2677 34.6808C48.2135 34.6867 48.1537 34.693 48.0929 34.699L47.979 34.7095C47.906 34.7164 47.8329 34.7232 47.7602 34.7292C45.8608 34.8948 43.9337 34.8963 42.0341 34.7337C33.9189 34.042 26.3113 30.4178 20.6131 24.5288C17.1127 20.9108 14.5273 16.6622 12.9285 11.9009L12.9049 11.8307C12.8891 11.7839 12.8734 11.7371 12.8581 11.69C12.8233 11.5842 12.789 11.4768 12.755 11.3695C12.6897 11.1632 12.6253 10.9576 12.5641 10.75C12.5183 10.5963 12.473 10.4392 12.4293 10.2815C12.39 10.1432 12.3511 10.0032 12.3142 9.86173C12.3047 9.82922 12.2964 9.79631 12.2881 9.76332C12.2618 9.66502 12.2347 9.56046 12.2082 9.45485C12.19 9.38536 12.1716 9.3111 12.1539 9.23743C12.1259 9.12785 12.0986 9.01198 12.0714 8.89615L12.0542 8.82286C12.0306 8.72353 12.0091 8.62772 11.9875 8.53168L11.9521 8.37262C11.897 8.12192 11.8414 7.85224 11.7833 7.55431C11.7608 7.44177 11.7392 7.32795 11.719 7.21361C11.6989 7.10624 11.6792 6.99588 11.6609 6.88499C11.5507 6.25317 11.4574 5.60352 11.3841 4.95773C11.3709 4.84269 11.3585 4.72904 11.3474 4.61484C11.3276 4.43596 11.3102 4.25082 11.2938 4.06613C11.2842 3.95885 11.275 3.85297 11.2673 3.74661C11.2532 3.57958 11.2413 3.40779 11.2307 3.23547C11.2284 3.20058 11.2254 3.16332 11.2205 3.1261C11.1191 2.34195 10.4979 1.90891 9.92717 1.82663C9.86344 1.81737 9.80252 1.81219 9.74546 1.81112L9.67592 1.81279C9.37942 1.82 9.10196 1.91179 8.86995 2.07827L8.72488 2.19445ZM41.2764 54.9671L41.2775 54.9677L41.2706 54.9388L41.2764 54.9671ZM45.9741 53.1988C45.9738 53.1988 45.9737 53.1989 45.9735 53.1991L45.9741 53.1988ZM48.258 52.2693L48.2579 52.2695L48.258 52.2693ZM55.0604 48.1298C55.0597 48.1303 55.0589 48.131 55.0575 48.132L55.0604 48.1298ZM4.31972 8.70873H4.32096H4.31972Z" fill="white"/>
<path d="M34.7398 56C28.0875 56.0002 21.5123 54.0076 15.9154 50.2485C9.32652 45.8234 4.49837 39.2123 2.32058 31.633C2.223 31.2902 2.13971 30.9841 2.06571 30.6963C1.98864 30.3958 1.91378 30.0852 1.83704 29.7465C1.78194 29.5038 1.7282 29.2537 1.67745 29.0036C1.62753 28.7552 1.57984 28.5086 1.53524 28.261C1.49225 28.021 1.45147 27.7802 1.41367 27.5409C1.39293 27.411 1.37342 27.2799 1.35401 27.1487C1.33979 27.0521 1.32646 26.957 1.3131 26.8614L1.30273 26.7874C1.28558 26.6585 1.26951 26.5328 1.25408 26.406C1.23877 26.2826 1.22367 26.1593 1.21011 26.0356C1.19662 25.9122 1.18303 25.7888 1.17107 25.6649C1.15872 25.544 1.14673 25.4201 1.13562 25.2966C1.12464 25.1729 1.11364 25.0491 1.1045 24.9263L1.1003 24.8728C1.092 24.767 1.08386 24.6618 1.07743 24.5565C1.07422 24.5161 1.07113 24.4691 1.06817 24.4218L1.0515 24.1366C1.04411 24.0173 1.03842 23.8945 1.03323 23.7706C1.00654 23.179 0.995788 22.5796 1.00148 21.9906L1.00419 21.7233C1.00654 21.5672 1.01061 21.4136 1.01593 21.2595L1.01643 21.2454C1.01853 21.1689 1.02063 21.0924 1.02423 21.0155C1.04376 20.4977 1.07624 19.9699 1.12059 19.4499C1.12664 19.377 1.13332 19.3023 1.1401 19.2275L1.14491 19.1749C1.14873 19.1318 1.1527 19.0887 1.15763 19.046C1.1675 18.9354 1.18035 18.8155 1.19358 18.6946C1.24262 18.2346 1.30475 17.7553 1.37825 17.2712C1.39518 17.1546 1.41408 17.035 1.43396 16.916C1.5843 15.9873 1.7785 15.0474 2.01075 14.1244C2.06624 13.9036 2.12367 13.6836 2.18371 13.4637C2.31405 12.9893 2.45093 12.5283 2.59051 12.0927C2.61978 11.9984 2.6513 11.9009 2.68379 11.8038C2.83402 11.3477 3.00042 10.8775 3.1778 10.4079C3.2539 10.2076 3.33124 10.0097 3.41104 9.81182C3.52259 9.53225 3.64117 9.24714 3.76274 8.96601C3.82414 8.82455 3.88679 8.68297 3.94989 8.54284C4.36731 7.61154 4.83453 6.68565 5.33843 5.79084C5.51075 5.48539 5.69 5.179 5.87148 4.87988C5.97501 4.70865 6.08127 4.53694 6.18811 4.36684C6.30212 4.18451 6.41887 4.00419 6.5372 3.8233C6.74191 3.51091 6.95772 3.19438 7.19701 2.85526C7.33525 2.65982 7.48459 2.45408 7.65398 2.22572C7.73071 2.12232 7.80902 2.01851 7.88659 1.91564C7.93612 1.84991 7.989 1.78722 8.04337 1.72958C8.05425 1.71723 8.06794 1.70228 8.08251 1.68788C8.10513 1.664 8.12823 1.64194 8.15206 1.61983C8.16428 1.60718 8.17751 1.59506 8.19171 1.58345C8.20469 1.57189 8.21764 1.56065 8.23062 1.54952L8.25311 1.53006C8.27844 1.50861 8.29746 1.49424 8.31674 1.48007L8.34207 1.46067C8.35702 1.4488 8.3721 1.43701 8.3874 1.42578L8.40506 1.41355C8.76815 1.15542 9.19929 1.01323 9.65241 1.0021C9.65783 1.00157 9.66971 1.00099 9.68143 1.00086L9.74504 1L9.75222 1.00013C9.8456 1.00149 9.94344 1.00954 10.043 1.02396C11.0929 1.17528 11.8893 1.97742 12.0239 3.01994C12.0311 3.07256 12.0358 3.12724 12.0396 3.18307C12.0499 3.35213 12.0613 3.51762 12.0753 3.68308C12.0831 3.78977 12.0919 3.89108 12.1011 3.99392C12.1171 4.17302 12.1338 4.35247 12.1535 4.53099C12.1646 4.64605 12.1769 4.75525 12.1893 4.86594C12.2609 5.49584 12.3519 6.12945 12.46 6.74931C12.4779 6.8584 12.4967 6.96307 12.5163 7.06827C12.5362 7.18045 12.5569 7.28858 12.5785 7.39724C12.6357 7.69057 12.69 7.95415 12.745 8.2048L12.3528 8.30863L12.7479 8.2175C12.75 8.22651 12.752 8.23554 12.7538 8.24447L12.7784 8.35392C12.7992 8.44664 12.82 8.53909 12.842 8.63169L12.8604 8.71037C12.8865 8.82106 12.9124 8.9318 12.9407 9.04256C12.9585 9.11697 12.9756 9.18554 12.9933 9.25319C13.0199 9.35869 13.0459 9.45941 13.073 9.56079C13.0804 9.59062 13.086 9.61372 13.0928 9.63638L13.0969 9.6506C13.1328 9.78866 13.1707 9.92526 13.2096 10.0623C13.2525 10.2171 13.2962 10.3691 13.3411 10.5191C13.4012 10.723 13.4642 10.9238 13.5275 11.1243C13.5606 11.2284 13.5941 11.3332 13.6283 11.4376C13.6431 11.4831 13.6581 11.5273 13.673 11.5715L13.6971 11.6432C15.2569 16.2884 17.7797 20.4342 21.1954 23.9646C26.7575 29.713 34.1826 33.2505 42.1028 33.9255C43.9561 34.0841 45.8363 34.0826 47.6916 33.921C47.7631 33.9151 47.833 33.9085 47.9028 33.902L48.0172 33.8914C48.0726 33.886 48.1291 33.88 48.1857 33.874C48.3095 33.8622 48.4286 33.8491 48.5468 33.8357C48.6201 33.8276 48.6927 33.8187 48.7653 33.8098C48.9675 33.7861 49.1661 33.7597 49.3659 33.7315C49.6119 33.6976 49.8623 33.6602 50.1325 33.6171C50.2804 33.5919 50.4321 33.5661 50.5843 33.5393C50.7434 33.5115 50.9016 33.4823 51.0608 33.4513L51.0841 33.4467C51.2411 33.4162 51.3985 33.3847 51.5555 33.352C51.7039 33.3207 51.853 33.2891 52.0031 33.2557C52.8103 33.0762 53.6242 32.8627 54.4224 32.621C54.5531 32.5811 54.6847 32.541 54.8158 32.4993C54.9493 32.4577 55.0791 32.4147 55.2091 32.3718C55.3392 32.3297 55.467 32.2859 55.5937 32.2425C58.0061 31.4123 60.3166 30.3016 62.4647 28.9399L62.568 28.8743C62.645 28.8254 62.7219 28.7766 62.798 28.7267L63.0638 28.5509C63.2034 28.4588 63.3412 28.3663 63.4776 28.2717L63.8064 28.0418C64.0801 27.8492 64.381 27.7194 64.6984 27.6578C64.7501 27.6477 64.8027 27.6394 64.8551 27.634C64.9517 27.6211 65.0502 27.615 65.158 27.6173L65.2558 27.6213C65.4227 27.6309 65.5883 27.6591 65.7494 27.7051C66.0701 27.7978 66.3745 27.9607 66.6306 28.1766C66.9772 28.4708 67.2271 28.8498 67.3545 29.2736C67.4521 29.6007 67.4737 29.9408 67.419 30.2853C67.4153 30.3143 67.4082 30.3543 67.4004 30.3924C67.392 30.4316 67.384 30.4669 67.3746 30.5028C67.3052 30.7809 67.2268 31.0762 67.1357 31.4009C67.0937 31.5508 67.0508 31.6999 67.0069 31.8486C66.8768 32.2879 66.7343 32.7355 66.5829 33.1795C66.4705 33.5069 66.3681 33.7934 66.2694 34.056C65.7879 35.3459 65.2249 36.6136 64.5963 37.8227C64.5305 37.9486 64.465 38.0735 64.3992 38.1969L64.3856 38.2222C64.3146 38.3537 64.2433 38.486 64.1705 38.6164C64.1014 38.7413 64.0308 38.8671 63.96 38.9929C63.7746 39.3165 63.6096 39.5957 63.4542 39.8491C63.132 40.3789 62.7895 40.9074 62.4372 41.4186C62.4172 41.448 62.396 41.4786 62.3739 41.509L62.2687 41.6607C62.2292 41.7172 62.1894 41.7734 62.1493 41.8296C62.1408 41.8423 62.1323 41.8542 62.1229 41.866L62.0661 41.946C62.0294 41.9983 61.9925 42.0491 61.9556 42.0999L61.8705 42.2159C61.8497 42.2463 61.8268 42.2765 61.8042 42.306C61.7637 42.3622 61.7219 42.4187 61.68 42.4753L61.6704 42.4883C61.6421 42.5264 61.6132 42.5651 61.5833 42.6026C61.5453 42.6553 61.5055 42.7072 61.4661 42.7584L61.3644 42.8903C61.3417 42.9218 61.3183 42.952 61.2936 42.9812C61.2803 42.9995 61.2667 43.0169 61.2531 43.0344C61.1722 43.1382 61.0914 43.2415 61.0087 43.3438C61.0002 43.3559 60.9885 43.3712 60.9734 43.3879C60.922 43.453 60.8704 43.5168 60.8185 43.5806L60.7964 43.6077C60.7634 43.6482 60.73 43.6891 60.6962 43.7288C60.6066 43.8399 60.509 43.9569 60.4103 44.0734L60.0895 43.8248L60.4018 44.0834C60.3939 44.093 60.3857 44.1026 60.3772 44.1119C60.3621 44.1286 60.3474 44.1464 60.3326 44.1643C60.2928 44.212 60.2531 44.2577 60.2134 44.3034C60.1741 44.35 60.131 44.4004 60.0862 44.4503C60.0665 44.474 60.0461 44.4974 60.0256 44.5208L59.9981 44.5523C59.9963 44.5548 59.9868 44.5654 59.9771 44.5758C59.9178 44.6435 59.8592 44.71 59.7998 44.7761L59.7493 44.832C59.6808 44.9085 59.6076 44.9886 59.5348 45.0677C59.5089 45.0976 59.4823 45.1266 59.4559 45.1556L59.4247 45.1897C59.3641 45.2552 59.3068 45.3166 59.2484 45.3777L59.2365 45.3908C59.2124 45.4169 59.1879 45.4434 59.1631 45.4689C59.1218 45.5134 59.0741 45.5634 59.0261 45.6138L58.9364 45.7072C58.8881 45.7573 58.8393 45.8076 58.7904 45.8572L58.7172 45.9326C58.6309 46.0213 58.5437 46.1083 58.4563 46.1952C58.4481 46.2038 58.4342 46.218 58.4185 46.2331L58.341 46.3094C58.2957 46.3542 58.2506 46.3986 58.2051 46.4428C58.1869 46.4615 58.1624 46.4857 58.137 46.5092L57.965 46.6746C57.9001 46.7372 57.8348 46.7996 57.7686 46.8615C57.6952 46.9312 57.6197 47.0027 57.5428 47.0725C57.5115 47.1028 57.4799 47.1317 57.4472 47.1601C57.3623 47.2387 57.2763 47.3167 57.1894 47.3943C57.1592 47.4224 57.124 47.4536 57.0883 47.4853L57.0637 47.5071C57.0452 47.5243 57.0207 47.5456 56.9959 47.5673L56.9774 47.5833C56.9481 47.6099 56.9147 47.6394 56.8796 47.6694C56.8354 47.7095 56.7821 47.7553 56.7281 47.8014L56.7063 47.82C56.6958 47.8294 56.6852 47.8385 56.6747 47.8473L56.6611 47.8591C56.5645 47.9422 56.4678 48.0253 56.3692 48.1076C56.3408 48.1323 56.3057 48.1614 56.271 48.1892C56.197 48.2517 56.1159 48.3183 56.0348 48.385L55.9686 48.4394C55.9556 48.4509 55.9397 48.4642 55.9221 48.4774C55.8956 48.5001 55.8679 48.5222 55.8404 48.5433C55.7658 48.6047 55.6818 48.6717 55.5967 48.7381C55.5917 48.7424 55.5866 48.7465 55.5815 48.7506C55.5689 48.7616 55.5586 48.7692 55.5529 48.7736L55.4895 48.8232C55.4235 48.8747 55.3577 48.9261 55.2906 48.9775C55.2626 49.0003 55.2284 49.0271 55.1918 49.0531C55.0938 49.1287 54.9957 49.2042 54.8963 49.2777C54.8427 49.319 54.7831 49.3645 54.7221 49.408C54.6582 49.4554 54.5905 49.5046 54.5221 49.5544L54.5215 49.5557L54.1237 49.8414C54.1069 49.8539 54.0837 49.8698 54.0606 49.8856C53.9908 49.9347 53.9157 49.9866 53.8403 50.0386L53.7605 50.0935C53.5625 50.2312 53.3497 50.3739 53.0918 50.542C52.7912 50.738 52.5149 50.9122 52.2469 51.0742C52.1534 51.1326 52.0535 51.1928 51.953 51.2516C51.9371 51.2625 51.9213 51.2722 51.9054 51.281C51.8547 51.3112 51.8034 51.3409 51.7522 51.3708C51.6927 51.4064 51.636 51.4396 51.5784 51.4724C51.5016 51.5172 51.4205 51.5632 51.3392 51.6091L51.2709 51.6478C51.1658 51.7079 51.0589 51.7671 50.952 51.8263C50.9384 51.8346 50.9166 51.8463 50.8941 51.8574C50.806 51.9058 50.7241 51.9509 50.6405 51.995C50.5497 52.0442 50.4543 52.0946 50.3581 52.1447C50.2932 52.1788 50.2274 52.2134 50.1605 52.2475C50.1364 52.2609 50.1127 52.2731 50.0881 52.2851C50.0603 52.2999 50.0318 52.3143 50.0036 52.3278C49.9345 52.364 49.8647 52.399 49.795 52.4338C49.6586 52.5022 49.5279 52.5668 49.3967 52.63C49.2036 52.7234 49.0081 52.816 48.8115 52.9056L48.4534 53.0717L48.4503 53.0701C48.4044 53.0907 48.3582 53.1111 48.3122 53.1317L48.0649 53.242L48.0618 53.2404C48.0612 53.2406 48.0606 53.2409 48.0599 53.2412C47.9684 53.281 47.8868 53.3155 47.8056 53.349L47.6692 53.4072C47.6054 53.4336 47.547 53.4577 47.4887 53.4804C47.4672 53.4901 47.4457 53.4988 47.4231 53.507C47.3891 53.5213 47.3547 53.5355 47.3201 53.5495L47.2211 53.5889C47.1725 53.6083 47.1236 53.6277 47.0744 53.6466C47.0634 53.6517 47.0504 53.6571 47.0368 53.6622L46.9536 53.6951C46.886 53.7216 46.8162 53.7488 46.746 53.7745L46.7193 53.7847C46.6966 53.7936 46.6737 53.8024 46.6506 53.8108C46.642 53.8142 46.633 53.8176 46.6238 53.8207C46.5779 53.8388 46.5316 53.8559 46.4839 53.8732C46.4469 53.8879 46.4091 53.9021 46.3719 53.9153C46.3499 53.9232 46.3251 53.9321 46.3 53.9406C46.2815 53.9484 46.2624 53.9554 46.2429 53.962C46.2123 53.9736 46.1821 53.9844 46.151 53.9947C46.0969 54.015 46.0421 54.0346 45.9861 54.054L45.8448 54.1038C45.8149 54.1153 45.7846 54.1256 45.7534 54.1352C45.6926 54.1574 45.6305 54.1781 45.5668 54.1991L45.4258 54.2472C45.3403 54.2759 45.2523 54.3048 45.1641 54.3337L44.8757 54.4265C44.785 54.4549 44.6942 54.4834 44.603 54.5113C44.4668 54.5532 44.3306 54.5941 44.1944 54.6329C44.1733 54.6403 44.1524 54.6466 44.1314 54.6519C44.066 54.6708 44.0005 54.6896 43.9349 54.7083L43.9335 54.7111L43.5234 54.8224C43.4399 54.8451 43.3554 54.8676 43.271 54.89L43.0262 54.9527C42.9732 54.9674 42.914 54.982 42.8536 54.9961C42.8151 55.0068 42.7773 55.0161 42.738 55.0257C42.6722 55.0418 42.6055 55.0575 42.5398 55.0727C42.506 55.0819 42.4738 55.0896 42.4413 55.096C42.389 55.1089 42.3371 55.1212 42.2851 55.1334L42.259 55.14C42.1911 55.1552 42.1298 55.169 42.0676 55.1823C42.0211 55.1934 41.9665 55.2055 41.9119 55.2175L41.8182 55.2381C41.7694 55.2487 41.7206 55.2595 41.6715 55.2697C41.6149 55.2816 41.5606 55.2929 41.5073 55.3039L41.5029 55.3129L41.2855 55.3488C41.1858 55.3695 41.0869 55.3883 40.9882 55.4071C40.9302 55.4183 40.8741 55.4286 40.8181 55.4387L40.7461 55.4519C40.6607 55.4679 40.5733 55.4836 40.4873 55.4988L40.4486 55.5055C40.431 55.5087 40.4134 55.5119 40.3956 55.5146C40.2794 55.5352 40.1541 55.5559 40.0292 55.5754C40.0275 55.5759 40.0201 55.5771 40.0123 55.5782L39.9357 55.5903C39.8421 55.6053 39.749 55.6201 39.6559 55.6333C39.5783 55.6452 39.4971 55.6567 39.416 55.6681L39.2889 55.6864C39.1967 55.6989 39.1081 55.7106 39.0192 55.7224L38.9168 55.7358C38.7921 55.7519 38.6685 55.7665 38.5446 55.7809C38.455 55.7914 38.3652 55.8012 38.2756 55.8108L38.1748 55.8218C37.031 55.9411 35.8838 56 34.7398 56ZM8.72488 2.19445L8.7154 2.20322C8.69526 2.22182 8.6824 2.23326 8.67029 2.24641L8.63297 2.28618C8.59901 2.32209 8.56577 2.36165 8.53389 2.40391C8.45731 2.50526 8.38047 2.60724 8.3051 2.70872C8.13944 2.9322 7.99356 3.13318 7.85914 3.32319C7.62554 3.65421 7.41489 3.96323 7.21553 4.26756C7.10026 4.44353 6.98648 4.61926 6.87506 4.7974C6.77029 4.96431 6.66654 5.1321 6.56498 5.29994C6.38758 5.59236 6.21268 5.8913 6.04466 6.18904C5.55298 7.06207 5.09715 7.96574 4.68961 8.87457L4.68936 8.8751C4.62785 9.01198 4.56655 9.15042 4.50677 9.28828C4.38829 9.56203 4.27279 9.83987 4.16347 10.1138C4.08501 10.308 4.0099 10.5006 3.93602 10.6952C3.76294 11.1532 3.60036 11.6124 3.45324 12.0592C3.42212 12.1523 3.39234 12.2441 3.36368 12.3365C3.22643 12.765 3.09289 13.215 2.96566 13.6778C2.90734 13.8918 2.85115 14.1064 2.79703 14.3221C2.57034 15.2228 2.38097 16.1397 2.23395 17.0475C2.2148 17.1629 2.19664 17.2769 2.18011 17.3904C2.10821 17.8651 2.04757 18.3324 1.99962 18.7819C1.98677 18.8987 1.97442 19.0133 1.96405 19.1288C1.95884 19.1751 1.95563 19.2115 1.95231 19.2478L1.94738 19.3024C1.94095 19.3734 1.93455 19.4462 1.92848 19.518C1.88514 20.0261 1.85339 20.5411 1.83421 21.0494C1.83074 21.1248 1.82877 21.1964 1.82682 21.2679L1.82632 21.285C1.821 21.4367 1.81718 21.585 1.81483 21.7329L1.81212 21.9978C1.80671 22.5727 1.81718 23.1571 1.84324 23.7354C1.8483 23.8555 1.85374 23.9731 1.8609 24.0917L1.87722 24.3698C1.88005 24.4135 1.88291 24.4572 1.88623 24.5007C1.89278 24.6077 1.90067 24.7083 1.90859 24.8094L1.91305 24.865C1.92182 24.9854 1.93255 25.1049 1.9433 25.2245C1.9539 25.3447 1.96567 25.4652 1.97789 25.5846C1.98973 25.707 2.00284 25.8272 2.01604 25.9472C2.02915 26.0669 2.04372 26.1862 2.05877 26.3068C2.07398 26.4317 2.08954 26.5542 2.10609 26.6773L2.1161 26.7492C2.12921 26.8428 2.14219 26.9361 2.15615 27.0305C2.17493 27.1581 2.19395 27.2861 2.21434 27.4136C2.25151 27.6483 2.29131 27.8836 2.33318 28.1176C2.37692 28.3594 2.4236 28.6008 2.47218 28.8431C2.52159 29.0865 2.57396 29.3304 2.6277 29.5672C2.70282 29.8984 2.77581 30.2018 2.85107 30.4946C2.9232 30.7755 3.00475 31.075 3.1001 31.4101C7.18446 45.6243 20.1345 55.1943 34.6482 55.1949C35.7871 55.1949 36.9344 55.136 38.0888 55.0158L38.1885 55.005C38.2757 54.9956 38.363 54.9862 38.4503 54.9759C38.5711 54.9617 38.6917 54.9477 38.8117 54.9321L39.3021 54.8658C39.3805 54.8545 39.4589 54.8434 39.5378 54.8314C39.6305 54.8182 39.7192 54.8041 39.8083 54.7899L39.9016 54.7753C40.0235 54.7558 40.1435 54.7362 40.263 54.715L40.3026 54.7081C40.3199 54.7051 40.3372 54.7018 40.3546 54.6991C40.4296 54.6858 40.5143 54.6709 40.5978 54.6552L40.6731 54.6413C40.7258 54.6318 40.7787 54.6222 40.8313 54.6119C40.8748 54.6037 40.9173 54.5955 40.9593 54.5875L40.966 54.574L41.2069 54.5383C41.3026 54.5189 41.3997 54.4985 41.4969 54.4781C41.5532 54.4665 41.5986 54.4565 41.6441 54.4465L41.737 54.4261C41.7879 54.4149 41.8386 54.4036 41.8899 54.3915C41.9546 54.3777 42.0106 54.3651 42.0663 54.3526L42.0824 54.3486C42.1402 54.335 42.198 54.3214 42.2562 54.3069L42.2797 54.3017C42.2969 54.2985 42.3137 54.2944 42.3317 54.2894L42.3488 54.2851C42.4136 54.27 42.4798 54.2545 42.5452 54.2385C42.579 54.2303 42.6098 54.2229 42.6414 54.2139L42.6614 54.2087C42.7141 54.1965 42.766 54.1839 42.8186 54.1694L43.0634 54.1065C43.1461 54.0847 43.2288 54.0627 43.312 54.0401L43.544 53.9763C43.6678 53.9419 43.792 53.9064 43.9154 53.8706L43.9586 53.8572C44.0942 53.8189 44.2296 53.7782 44.3656 53.7364C44.4552 53.709 44.5442 53.6811 44.633 53.6532L44.9115 53.5636C44.9978 53.5353 45.0839 53.5071 45.1698 53.4782L45.3018 53.4331C45.371 53.4102 45.428 53.3914 45.4837 53.3708L45.5072 53.3628C45.5236 53.3579 45.5396 53.3529 45.5552 53.3468L45.6783 53.3033C45.6922 53.298 45.7066 53.2929 45.7212 53.288C45.7734 53.2701 45.8236 53.252 45.873 53.2335L45.888 53.2282C45.913 53.2198 45.9374 53.2111 45.9621 53.2017L45.9794 53.1954C45.9824 53.1946 45.9812 53.1952 45.9783 53.1969L46.0276 53.1771C46.0514 53.1693 46.0756 53.1605 46.0987 53.1522C46.1306 53.1409 46.16 53.1299 46.1886 53.1184L46.2015 53.1135C46.2465 53.0971 46.2902 53.0813 46.3336 53.0639L46.369 53.0508C46.3886 53.0438 46.4079 53.0362 46.4271 53.0288L46.4629 53.0151C46.532 52.9898 46.5963 52.9646 46.6606 52.9395L46.7736 52.8939C46.8234 52.8748 46.873 52.8551 46.9224 52.8356L47.0144 52.799C47.049 52.7848 47.0836 52.7708 47.1175 52.7563L47.1853 52.7289C47.2414 52.7072 47.2971 52.6842 47.3527 52.6612L47.4908 52.6023C47.5732 52.5682 47.6501 52.5357 47.726 52.5027C47.7794 52.4795 47.8227 52.4606 47.8656 52.4424L47.9825 52.3914C48.0779 52.3487 48.1742 52.306 48.2697 52.2628C48.2698 52.2628 48.27 52.2628 48.2701 52.2628L48.4465 52.1618L48.4669 52.1721L48.4729 52.1694C48.6666 52.0811 48.8565 51.9911 49.0447 51.9002C49.1724 51.8385 49.2992 51.7759 49.4249 51.7128C49.4999 51.6754 49.5671 51.6417 49.6338 51.6068L49.6474 51.6C49.6688 51.5897 49.6904 51.5789 49.7114 51.5675L49.7295 51.5583C49.7444 51.5512 49.7587 51.5438 49.7733 51.5356L49.7861 51.5288C49.8522 51.4951 49.9174 51.4609 49.9827 51.4267C50.0763 51.3779 50.168 51.3292 50.2587 51.2802C50.3444 51.2349 50.4248 51.1906 50.5051 51.1465L50.5318 51.1325C50.5377 51.1296 50.5439 51.1264 50.5497 51.1229C50.6631 51.06 50.7668 51.0026 50.8699 50.9435L50.9402 50.9037C51.0183 50.8596 51.0961 50.8155 51.1739 50.7701C51.2304 50.7379 51.2815 50.7079 51.333 50.677L51.3454 50.6698C51.3966 50.6401 51.4477 50.6105 51.4979 50.5803L51.5288 50.5609C51.6278 50.5031 51.7264 50.4438 51.8228 50.3836C52.0876 50.2235 52.3563 50.0542 52.6492 49.8632C52.9003 49.6994 53.1068 49.5609 53.299 49.4275L53.3802 49.3714C53.4537 49.3207 53.5269 49.2702 53.5999 49.219C53.619 49.2058 53.6331 49.1965 53.6464 49.1866L53.9913 48.9384C54.0764 48.8765 54.1614 48.8147 54.2458 48.7525C54.3043 48.7105 54.3565 48.6704 54.4087 48.6304C54.5119 48.5541 54.6076 48.4802 54.7035 48.4064L54.717 48.3963C54.7425 48.3784 54.7661 48.3595 54.7904 48.3401C54.8629 48.2844 54.9266 48.2346 54.9904 48.1847L55.083 48.1113C55.174 48.04 55.2553 47.9752 55.3362 47.909C55.3636 47.8876 55.3824 47.873 55.3997 47.8576L55.5202 47.759C55.599 47.6942 55.6777 47.6294 55.7564 47.5633C55.7903 47.5358 55.8178 47.5132 55.8444 47.4901C55.9455 47.4057 56.039 47.3253 56.1324 47.2449L56.2013 47.1854C56.2498 47.144 56.2978 47.103 56.3448 47.0606C56.3826 47.0282 56.4107 47.0031 56.4395 46.9773L56.4641 46.9557C56.4829 46.9393 56.5014 46.9233 56.5197 46.9065L56.5506 46.8789C56.5823 46.8508 56.6138 46.823 56.6449 46.7942C56.7345 46.7141 56.8185 46.6378 56.9016 46.5609L56.9116 46.5519C56.9359 46.5308 56.9595 46.5093 56.9827 46.4868L56.9936 46.4766C57.0677 46.4095 57.1404 46.3406 57.213 46.2716C57.2782 46.2106 57.3405 46.1512 57.403 46.0908L57.5817 45.9191C57.6034 45.8989 57.6182 45.8841 57.6334 45.8686C57.6843 45.819 57.7281 45.7759 57.7719 45.7325L57.879 45.6266C57.9691 45.5369 58.0532 45.4531 58.1356 45.3685L58.212 45.2897C58.2613 45.2398 58.3077 45.1917 58.3538 45.144L58.4395 45.0547C58.4854 45.0066 58.5312 44.9586 58.5766 44.9098C58.6022 44.8834 58.6213 44.8626 58.6402 44.8421L58.6578 44.8229C58.7176 44.7602 58.7722 44.7018 58.827 44.6425L58.8587 44.6077C58.881 44.5834 58.9035 44.5589 58.9254 44.5336L58.934 44.5238C59.0059 44.4456 59.0783 44.3666 59.1497 44.2869L59.2007 44.2305C59.2545 44.1707 59.3108 44.1067 59.367 44.0426C59.3676 44.0415 59.3763 44.0319 59.3852 44.0224L59.3768 44.0323L59.4162 43.9867C59.4331 43.9673 59.4502 43.9481 59.4663 43.9283L59.4788 43.9138C59.5199 43.8682 59.5594 43.8219 59.5986 43.7755C59.6383 43.73 59.674 43.689 59.7092 43.6465C59.7313 43.6199 59.7539 43.593 59.7768 43.5678L59.799 43.5416C59.8865 43.4381 59.9801 43.326 60.0723 43.2119C60.1091 43.1683 60.139 43.1316 60.1687 43.0953L60.1902 43.069C60.2426 43.0041 60.2962 42.938 60.3495 42.8703L60.3788 42.8341C60.4584 42.7354 60.5362 42.636 60.6145 42.5355C60.6241 42.5232 60.6338 42.5112 60.6429 42.4981L60.6695 42.4643C60.6839 42.4477 60.6972 42.4304 60.7101 42.4122L60.824 42.264C60.8603 42.2168 60.8966 42.1696 60.9311 42.1215L60.9455 42.1026C60.9711 42.0708 60.9956 42.0377 61.0197 42.0052L61.029 41.9927C61.0698 41.9376 61.111 41.8819 61.1508 41.8268L61.159 41.8157C61.1748 41.7951 61.1913 41.7739 61.2056 41.7527L61.2999 41.6238C61.3342 41.5767 61.3684 41.5295 61.4019 41.4818L61.4859 41.3643C61.5269 41.3067 61.5678 41.2491 61.6081 41.1912L61.6276 41.1628L61.7156 41.0367C61.7364 41.008 61.7526 40.9841 61.7689 40.9602C62.1136 40.4603 62.4476 39.9448 62.7626 39.4268C62.9146 39.1791 63.0754 38.9068 63.2553 38.5929C63.3235 38.4716 63.3932 38.3476 63.462 38.2232C63.5336 38.0946 63.6032 37.9657 63.6722 37.8376L63.6851 37.8139C63.7491 37.6941 63.8133 37.5711 63.8777 37.4481C64.4907 36.2691 65.0402 35.032 65.5104 33.772C65.6067 33.5158 65.7065 33.2365 65.8161 32.9174C65.9636 32.4847 66.1028 32.0476 66.2296 31.6192C66.2723 31.4744 66.3143 31.3288 66.3553 31.1825C66.4443 30.8651 66.5209 30.5773 66.5894 30.3026C66.597 30.2738 66.6022 30.2496 66.6073 30.2255C66.6106 30.2097 66.6143 30.1891 66.6171 30.1689C66.6542 29.9348 66.6406 29.7155 66.5782 29.5065C66.4962 29.2339 66.3332 28.9878 66.1073 28.7958C65.9385 28.6536 65.7372 28.5457 65.5258 28.4847C65.4031 28.4496 65.2755 28.4307 65.1473 28.4288L65.1074 28.4281C65.054 28.4288 65.0049 28.4321 64.9579 28.4385L64.943 28.4404C64.9129 28.4433 64.8828 28.4483 64.8532 28.454C64.6488 28.4936 64.4529 28.5787 64.2709 28.7068L63.9406 28.9378C63.7984 29.0364 63.6551 29.1327 63.5115 29.2273L63.2447 29.4038C63.1634 29.4571 63.0832 29.508 63.0029 29.559L62.9004 29.6242C60.6976 31.0205 58.3299 32.1587 55.8618 33.0081C55.7259 33.0547 55.5936 33.0999 55.4614 33.1427C55.3295 33.1864 55.1952 33.2306 55.0596 33.2729C54.9276 33.3148 54.7931 33.356 54.6587 33.397C53.8401 33.6448 53.0064 33.8636 52.1795 34.0474C52.0265 34.0815 51.8744 34.1136 51.7224 34.1457C51.5597 34.1797 51.3972 34.2122 51.235 34.2437L51.2118 34.2483C51.0491 34.28 50.8871 34.3097 50.7248 34.3381C50.5715 34.3651 50.4181 34.3912 50.2648 34.4173C49.9847 34.4621 49.7286 34.5003 49.4781 34.5348C49.2736 34.5637 49.0686 34.5909 48.8625 34.6151C48.7889 34.6242 48.7128 34.6334 48.6374 34.6418C48.5151 34.6556 48.3908 34.6692 48.2677 34.6808C48.2135 34.6867 48.1537 34.693 48.0929 34.699L47.979 34.7095C47.906 34.7164 47.8329 34.7232 47.7602 34.7292C45.8608 34.8948 43.9337 34.8963 42.0341 34.7337C33.9189 34.042 26.3113 30.4178 20.6131 24.5288C17.1127 20.9108 14.5273 16.6622 12.9285 11.9009L12.9049 11.8307C12.8891 11.7839 12.8734 11.7371 12.8581 11.69C12.8233 11.5842 12.789 11.4768 12.755 11.3695C12.6897 11.1632 12.6253 10.9576 12.5641 10.75C12.5183 10.5963 12.473 10.4392 12.4293 10.2815C12.39 10.1432 12.3511 10.0032 12.3142 9.86173C12.3047 9.82922 12.2964 9.79631 12.2881 9.76332C12.2618 9.66502 12.2347 9.56046 12.2082 9.45485C12.19 9.38536 12.1716 9.3111 12.1539 9.23743C12.1259 9.12785 12.0986 9.01198 12.0714 8.89615L12.0542 8.82286C12.0306 8.72353 12.0091 8.62772 11.9875 8.53168L11.9521 8.37262C11.897 8.12192 11.8414 7.85224 11.7833 7.55431C11.7608 7.44177 11.7392 7.32795 11.719 7.21361C11.6989 7.10624 11.6792 6.99588 11.6609 6.88499C11.5507 6.25317 11.4574 5.60352 11.3841 4.95773C11.3709 4.84269 11.3585 4.72904 11.3474 4.61484C11.3276 4.43596 11.3102 4.25082 11.2938 4.06613C11.2842 3.95885 11.275 3.85297 11.2673 3.74661C11.2532 3.57958 11.2413 3.40779 11.2307 3.23547C11.2284 3.20058 11.2254 3.16332 11.2205 3.1261C11.1191 2.34195 10.4979 1.90891 9.92717 1.82663C9.86344 1.81737 9.80252 1.81219 9.74546 1.81112L9.67592 1.81279C9.37942 1.82 9.10196 1.91179 8.86995 2.07827L8.72488 2.19445ZM41.2764 54.9671L41.2775 54.9677L41.2706 54.9388L41.2764 54.9671ZM45.9741 53.1988C45.9738 53.1988 45.9737 53.1989 45.9735 53.1991L45.9741 53.1988ZM48.258 52.2693L48.2579 52.2695L48.258 52.2693ZM55.0604 48.1298C55.0597 48.1303 55.0589 48.131 55.0575 48.132L55.0604 48.1298ZM4.31972 8.70873H4.32096H4.31972Z" stroke="white" stroke-width="2" mask="url(#path-23-outside-1)"/>
<path d="M11.7268 18.6666C11.829 17.7617 11.7724 16.7384 11.5304 15.677C10.8041 12.4919 8.68228 10.1709 6.79125 10.493C4.90021 10.815 3.95603 13.6582 4.68238 16.8433C5.40872 20.0285 7.53049 22.3494 9.42153 22.0273L11.7268 18.6666Z" fill="#FFC107"/>
<path d="M6.31951 10.7603C5.8465 11.0866 5.50073 11.5651 5.26427 12.0876C5.02759 12.613 4.892 13.1837 4.81496 13.7604C4.73906 14.3383 4.72677 14.9257 4.75553 15.5089C4.77104 15.8004 4.79816 16.0916 4.84095 16.3774C4.86301 16.5199 4.88745 16.6616 4.92125 16.7959C4.96573 16.9351 5.00502 17.0753 5.05079 17.2134C5.22979 17.7671 5.4482 18.3047 5.70356 18.8212C5.96268 19.3354 6.25695 19.8316 6.61049 20.2789C6.78357 20.5051 6.97158 20.719 7.17517 20.9148C7.37529 21.1143 7.5937 21.2933 7.82657 21.4478C8.0587 21.6037 8.30897 21.7299 8.57315 21.8184C8.83837 21.9011 9.11789 21.9455 9.40535 21.9332L9.40762 21.9331C9.45987 21.9308 9.50409 21.9714 9.50632 22.0237C9.50824 22.0686 9.47852 22.1075 9.43695 22.1191C9.13466 22.2027 8.80735 22.217 8.49128 22.1655C8.17429 22.1152 7.87112 22.0012 7.58786 21.8573C7.30503 21.711 7.04505 21.5276 6.80259 21.327C6.56343 21.1223 6.34398 20.8976 6.14074 20.6607C5.74037 20.1816 5.406 19.6536 5.1424 19.0949C5.00565 18.8179 4.89205 18.5306 4.79182 18.2398C4.74013 18.0949 4.69428 17.9482 4.65062 17.8009C4.61188 17.6522 4.57057 17.5045 4.53783 17.3546C4.50059 17.206 4.47372 17.055 4.44665 16.9044C4.41353 16.7478 4.39043 16.5946 4.37128 16.4415C4.33396 16.1357 4.31402 15.8311 4.30598 15.5261C4.29067 14.9165 4.32925 14.306 4.4284 13.7026C4.52859 13.1003 4.6961 12.5021 4.97486 11.9487C5.2498 11.3968 5.65926 10.8931 6.19106 10.5646C6.24592 10.5304 6.31812 10.5472 6.35228 10.602C6.38542 10.6552 6.37016 10.7249 6.31951 10.7603Z" fill="#6E3C1B"/>
<g opacity="0.35">
<path opacity="0.35" d="M5.9512 15.685C6.05682 16.6588 6.38082 17.583 6.82878 18.3148C7.35439 19.1729 8.0501 19.7701 8.76462 19.8773C10.0887 20.0776 10.9768 18.5261 10.7472 16.4118C10.5291 14.3938 9.3717 12.5923 8.11421 12.2576C8.05437 12.2409 7.99393 12.2283 7.93374 12.2194C6.60963 12.0192 5.72157 13.5707 5.9512 15.685Z" fill="#6E3C1B"/>
</g>
<path d="M10.1456 16.7355C9.31953 15.2382 8.0043 14.459 7.2079 14.9952C6.41151 15.5313 6.43554 17.1797 7.26156 18.677C8.08759 20.1743 9.40282 20.9535 10.1992 20.4173C10.9956 19.8812 10.9716 18.2328 10.1456 16.7355Z" fill="#FFC107"/>
<path d="M10.5895 17.805C10.6144 17.1317 10.5264 16.4588 10.3341 15.8193C10.2486 15.4967 10.1222 15.1877 9.98871 14.8857C9.8467 14.5873 9.68668 14.2993 9.50024 14.032C9.30864 13.7697 9.09825 13.5239 8.86076 13.3192C8.6243 13.1152 8.35736 12.954 8.08402 12.8805C7.81217 12.8035 7.53662 12.822 7.29852 12.9381C7.05893 13.0521 6.85954 13.2674 6.70784 13.526C6.55632 13.7858 6.45522 14.0877 6.3906 14.3991C6.32563 14.7112 6.29615 15.0356 6.29833 15.362C6.29221 15.5251 6.31075 15.6888 6.31753 15.8526C6.34008 16.0153 6.34959 16.18 6.38395 16.3417C6.43508 16.668 6.52211 16.9879 6.61909 17.3041C6.72707 17.6165 6.85367 17.9228 7.00686 18.2156C7.16271 18.5063 7.34356 18.7833 7.55302 19.0359C7.76427 19.2858 8.0093 19.5064 8.28619 19.6693C8.56254 19.8299 8.87862 19.9269 9.20061 19.8965L9.20241 19.8964C9.25435 19.8915 9.30037 19.9296 9.30525 19.9815C9.30976 20.0293 9.27783 20.0721 9.23224 20.0824C8.86885 20.1651 8.48065 20.0947 8.14785 19.9399C7.8112 19.7866 7.51972 19.5572 7.26259 19.3023C7.00954 19.0424 6.79457 18.7511 6.60322 18.4463C6.41292 18.1403 6.26357 17.8127 6.12902 17.4798L6.03959 17.2259C6.00852 17.1415 5.98097 17.056 5.95804 16.9692L5.88472 16.7099L5.82815 16.4462C5.78598 16.2712 5.76885 16.0909 5.7394 15.913C5.72569 15.7326 5.70087 15.5532 5.70142 15.371C5.68566 15.0081 5.71488 14.6409 5.7861 14.2773C5.85758 13.9142 5.97105 13.5513 6.16308 13.2116C6.35189 12.874 6.64024 12.5572 7.02586 12.3732C7.40913 12.1862 7.86585 12.1679 8.25454 12.2844C8.64639 12.4007 8.97433 12.6228 9.25245 12.8737C9.53108 13.1268 9.7642 13.4152 9.96278 13.721C10.1569 14.0296 10.3193 14.353 10.4556 14.6857C10.5796 15.0227 10.6922 15.3632 10.7613 15.7134C10.9088 16.4092 10.9456 17.1327 10.822 17.8313C10.8108 17.895 10.75 17.9376 10.6862 17.9263C10.6278 17.916 10.5873 17.8642 10.5895 17.8066L10.5895 17.805Z" fill="#6E3C1B"/>
</svg>
