<svg width="30" height="30" viewBox="0 0 30 30" fill="none" xmlns="http://www.w3.org/2000/svg">
<path d="M22.0367 27.8229C14.9623 31.7536 6.04172 29.2058 2.11099 22.1315C1.42951 20.9052 0.942744 19.6237 0.641012 18.3222C0.509124 17.7561 0.412469 17.1858 0.350328 16.6155C-0.272455 10.9289 2.48729 5.15948 7.80167 2.20643C10.2976 0.819998 13.0229 0.239333 15.6783 0.379494C20.5495 0.636331 25.1831 3.31874 27.7274 7.89712C28.5283 9.33809 29.06 10.8557 29.3396 12.3927C30.4319 18.3989 27.6694 24.693 22.0367 27.8229Z" fill="#FED922"/>
<g opacity="0.35">
<path opacity="0.35" d="M22.0364 27.8227C14.9621 31.7534 6.04144 29.2057 2.11069 22.1313C1.42923 20.9051 0.942445 19.6236 0.640731 18.3221C0.563379 17.99 0.497794 17.6558 0.445312 17.3216C3.2154 20.7414 7.20344 22.8066 11.4138 23.2333L11.3468 23.1628C11.2336 22.7078 11.2454 22.2273 11.4055 21.7668C11.8723 20.4259 12.9611 19.5 15.0753 20.2367C16.2808 20.6565 17.0707 21.697 17.1301 22.7914C18.4219 22.4537 19.6923 21.9497 20.9137 21.271C20.978 21.2351 21.0415 21.1992 21.105 21.1626C20.891 20.3134 21.125 19.2956 21.8058 18.4809C22.7759 17.3209 24.3101 16.9799 25.3575 17.6468C27.1154 15.5941 28.3133 13.1492 28.8809 10.558C29.0749 11.1642 29.2268 11.7766 29.3393 12.3925C30.4316 18.3987 27.6691 24.6929 22.0364 27.8227Z" fill="#371A45"/>
</g>
<g opacity="0.4">
<path opacity="0.4" d="M29.7177 12.429C29.422 11.5117 29.0334 10.6089 28.5474 9.73423C25.6741 4.56406 20.1847 1.76618 14.6499 2.07661L14.6505 2.07933C14.8631 2.92548 13.9702 3.8789 12.6567 4.20893C11.3425 4.53914 10.1056 4.1208 9.89304 3.27468C9.8831 3.23509 9.8752 3.19501 9.87022 3.15491C9.31931 3.37892 8.77594 3.63877 8.2432 3.93512C2.49627 7.12883 -0.319097 13.5535 0.805148 19.6796C-1.33231 13.0347 1.44076 5.58984 7.77464 2.07021C14.9825 -1.93524 24.0732 0.66078 28.0788 7.86933C28.8914 9.33078 29.4321 10.8707 29.7177 12.429Z" fill="white"/>
</g>
<path d="M15.0172 30C13.634 30 12.2431 29.8068 10.8765 29.4165C7.02437 28.3163 3.83136 25.7819 1.88549 22.2801C-2.13133 15.0514 0.481774 5.90243 7.71048 1.8855C14.9389 -2.13126 24.088 0.481601 28.1051 7.71049C30.0509 11.2123 30.5166 15.2622 29.4164 19.1142C28.3163 22.9662 25.7819 26.1592 22.2801 28.1051C20.0208 29.3606 17.5326 29.9999 15.0172 30ZM14.9712 0.690122C12.6216 0.690122 10.2411 1.26892 8.0457 2.48889C1.14971 6.32093 -1.34312 15.0488 2.48892 21.9448C4.34516 25.2854 7.39126 27.7032 11.0659 28.7527C14.7406 29.8021 18.6041 29.3579 21.9449 27.5017C25.2854 25.6454 27.7032 22.5994 28.7528 18.9246C29.8023 15.2499 29.358 11.3864 27.5017 8.04579C24.8897 3.34514 20.0021 0.690122 14.9712 0.690122Z" fill="#371A45"/>
<path d="M17.0849 21.8568C17.1567 22.0017 17.219 22.1536 17.2637 22.3121C17.3075 22.4707 17.3373 22.6345 17.3498 22.8008C17.363 22.9672 17.3566 23.1355 17.3359 23.3023C17.3137 23.4655 17.2846 23.6248 17.2413 23.7846C17.1556 24.1027 17.0228 24.4177 16.8266 24.7027C16.6293 24.986 16.3642 25.2322 16.0586 25.4078C15.753 25.5841 15.4126 25.6864 15.0762 25.7321C14.7386 25.781 14.4032 25.775 14.0758 25.7443C13.9117 25.7248 13.7533 25.7017 13.5895 25.6688C13.4231 25.6365 13.2593 25.5898 13.0988 25.5338C12.9381 25.4781 12.7815 25.4099 12.6305 25.3303C12.4794 25.2513 12.333 25.1621 12.1966 25.0585C11.9227 24.8536 11.6766 24.6089 11.4775 24.3272C11.2773 24.0472 11.1204 23.7315 11.0326 23.3943C10.8471 22.7225 10.9347 21.9768 11.2798 21.379C11.6164 20.7739 12.1854 20.3369 12.8041 20.1123C13.4264 19.8887 14.1049 19.866 14.719 20.035C14.774 20.0501 14.8062 20.107 14.7911 20.1619C14.7775 20.2113 14.7299 20.2424 14.6805 20.2371C14.0854 20.1735 13.4861 20.2631 12.9688 20.5104C12.4509 20.7526 12.021 21.1563 11.7825 21.6454C11.5455 22.1341 11.4975 22.7043 11.6598 23.2152C11.8165 23.7281 12.1581 24.1861 12.6029 24.5047C12.8262 24.6624 13.0681 24.7976 13.3285 24.8892C13.4582 24.9357 13.591 24.9752 13.7267 25.0025C13.8645 25.0316 14.0108 25.0544 14.1523 25.0724C14.4365 25.1069 14.7213 25.1213 14.9949 25.09C15.2693 25.0616 15.5304 24.9884 15.7675 24.8724C16.2407 24.637 16.5876 24.181 16.7778 23.6401C16.8256 23.5058 16.8686 23.3652 16.9018 23.2256C16.9347 23.0892 16.9538 22.9492 16.9605 22.8077C16.9756 22.5245 16.9355 22.2348 16.8488 21.954L16.8479 21.9513C16.827 21.8838 16.8649 21.8121 16.9324 21.7913C16.9933 21.7725 17.0575 21.8014 17.0849 21.8568Z" fill="#371A45"/>
<g opacity="0.4">
<path opacity="0.4" d="M18.4466 14.2057C17.7434 14.5518 16.9473 14.4976 16.3171 14.1313C16.6719 14.2486 17.0638 14.2698 17.4529 14.172C18.5471 13.8971 19.2107 12.7871 18.9358 11.6929C18.6611 10.5994 17.5516 9.93485 16.4574 10.2097C16.3931 10.2259 16.331 10.2451 16.2695 10.2669C16.33 10.2297 16.3918 10.1956 16.4565 10.1637C17.5728 9.61413 18.9232 10.0729 19.4728 11.1892C20.0225 12.3062 19.5629 13.6561 18.4466 14.2057Z" fill="white"/>
</g>
<g opacity="0.35">
<path opacity="0.35" d="M7.06968 18.3632C8.7715 18.3632 10.1511 16.9836 10.1511 15.2818C10.1511 13.58 8.7715 12.2004 7.06968 12.2004C5.36787 12.2004 3.98828 13.58 3.98828 15.2818C3.98828 16.9836 5.36787 18.3632 7.06968 18.3632Z" fill="#371A45"/>
</g>
<g opacity="0.4">
<path opacity="0.4" d="M11.3499 14.0593C12.0305 16.0251 10.9884 18.1709 9.02255 18.8515C7.05605 19.5324 4.91025 18.4903 4.22966 16.5244C4.21611 16.4853 4.20342 16.4466 4.19141 16.4076C4.83865 17.8465 6.48912 18.5786 8.00868 18.0525C9.61697 17.4957 10.4692 15.7407 9.91241 14.1324C9.35558 12.5241 7.60065 11.6719 5.99236 12.2287C5.55391 12.3805 5.17196 12.6216 4.85884 12.9244C5.287 12.3925 5.86448 11.9712 6.55738 11.7313C8.52326 11.0507 10.669 12.0928 11.3499 14.0593Z" fill="white"/>
</g>
<path d="M4.7259 12.8887C5.21104 12.3375 5.90901 11.9622 6.65533 11.8477C7.40338 11.7245 8.19601 11.874 8.86742 12.2498C9.2025 12.4395 9.50446 12.6879 9.76042 12.978L9.85486 13.0884L9.90193 13.1438L9.94396 13.203C9.99922 13.2825 10.0562 13.3612 10.1094 13.4423L10.2519 13.6963C10.2986 13.7815 10.3329 13.8727 10.3721 13.9616C10.5136 14.3226 10.6067 14.7039 10.6276 15.0934C10.6462 15.4819 10.6068 15.8745 10.4984 16.2485C10.3941 16.6236 10.2217 16.9783 9.99885 17.2957C9.77678 17.6138 9.50412 17.8966 9.19077 18.1252C8.87632 18.3525 8.52344 18.5224 8.15639 18.6366C8.06342 18.6614 7.97267 18.6947 7.87794 18.7116L7.59406 18.7611C7.40273 18.7783 7.21139 18.7965 7.01976 18.784C6.63785 18.768 6.25765 18.6965 5.90458 18.5554C5.55259 18.4133 5.22462 18.2177 4.93923 17.9741C4.36182 17.4917 3.98115 16.8047 3.84558 16.0919C3.83497 16.036 3.87165 15.9821 3.92755 15.9714C3.97854 15.9617 4.02785 15.9914 4.04425 16.0391L4.04516 16.0418C4.26711 16.6863 4.66359 17.2594 5.20595 17.6367C5.47291 17.8277 5.7662 17.9783 6.07517 18.0775C6.38515 18.1733 6.70735 18.2202 7.02757 18.2158C7.18803 18.2188 7.3469 18.1936 7.5047 18.1723L7.73826 18.1192C7.81639 18.1033 7.89041 18.0717 7.96661 18.0493C8.26668 17.9447 8.55083 17.7967 8.80103 17.6031C9.2936 17.211 9.67865 16.6726 9.83792 16.0617C9.91813 15.7583 9.95758 15.4444 9.94411 15.1303C9.93003 14.8161 9.8555 14.5054 9.74369 14.212C9.52785 13.6176 9.09021 13.1191 8.55725 12.7729C8.28711 12.6029 7.98725 12.4808 7.67573 12.4037C7.36463 12.326 7.03769 12.2917 6.71342 12.3246C6.0607 12.3661 5.42217 12.6351 4.90479 13.0711C4.85083 13.1168 4.77005 13.1101 4.72434 13.0561C4.6828 13.0071 4.68476 12.9357 4.7259 12.8887Z" fill="#371A45"/>
<path d="M24.6317 17.2634C24.7853 17.2799 24.9396 17.3084 25.0903 17.3547C25.2406 17.402 25.3873 17.4649 25.5268 17.5437C25.8063 17.7006 26.0504 17.9246 26.2403 18.1902C26.4284 18.4573 26.5595 18.7643 26.6308 19.083C26.7017 19.4025 26.7092 19.7331 26.6654 20.0536C26.6241 20.3749 26.5315 20.6877 26.3997 20.9816C26.2635 21.2735 26.0916 21.5473 25.8902 21.7979C25.6801 22.0406 25.4459 22.2616 25.1855 22.4517C24.9214 22.6359 24.6366 22.794 24.3309 22.9048C24.0249 23.0144 23.7013 23.0788 23.3729 23.0948C23.0451 23.1095 22.7085 23.0766 22.3909 22.9658C22.0733 22.8593 21.7746 22.6882 21.5249 22.4635C21.2743 22.2404 21.0739 21.9611 20.9432 21.6562C20.6794 21.0432 20.6864 20.3604 20.8725 19.7637C20.9699 19.465 21.1046 19.1826 21.2745 18.9256C21.4485 18.6709 21.6558 18.4445 21.8824 18.2449C21.9251 18.2072 21.9901 18.2113 22.0278 18.2541C22.0617 18.2924 22.0617 18.3491 22.0302 18.3874L22.0277 18.3904C21.8466 18.6116 21.6893 18.8466 21.5603 19.0939C21.4392 19.3454 21.3434 19.6055 21.2887 19.8725C21.1752 20.4049 21.2311 20.9598 21.4579 21.4156C21.6917 21.8684 22.1052 22.2048 22.5859 22.3442C23.0688 22.4846 23.6069 22.4413 24.0947 22.2603C24.3373 22.1643 24.5713 22.0436 24.7886 21.8941C25.0029 21.7401 25.1979 21.5591 25.3737 21.361C25.5441 21.1588 25.6945 20.9402 25.8145 20.7049C25.9302 20.4678 26.0125 20.2165 26.0645 19.96C26.0739 19.8956 26.0895 19.8311 26.0948 19.7662L26.1095 19.571L26.1054 19.376C26.1048 19.3107 26.0903 19.2476 26.0855 19.1827C26.0505 18.9262 25.9685 18.6767 25.8379 18.4525C25.5863 17.9935 25.1234 17.6604 24.587 17.5148L24.5845 17.5141C24.5163 17.4956 24.476 17.4253 24.4945 17.3571C24.5112 17.2955 24.5702 17.2567 24.6317 17.2634Z" fill="#371A45"/>
<g opacity="0.35">
<path opacity="0.35" d="M16.9556 14.2333C18.0836 14.2333 18.9981 13.3188 18.9981 12.1908C18.9981 11.0627 18.0836 10.1483 16.9556 10.1483C15.8275 10.1483 14.9131 11.0627 14.9131 12.1908C14.9131 13.3188 15.8275 14.2333 16.9556 14.2333Z" fill="#371A45"/>
</g>
<path d="M15.2171 13.4608C14.9185 13.1026 14.7571 12.6198 14.767 12.1338C14.7692 11.8898 14.8201 11.6454 14.9054 11.4133C14.9935 11.182 15.1206 10.9641 15.2806 10.7715C15.6026 10.3896 16.0599 10.1102 16.5606 10.0156C16.8097 9.9696 17.0662 9.95545 17.3191 9.99227C17.5711 10.0299 17.818 10.106 18.0444 10.2229C18.5005 10.4523 18.865 10.8447 19.0776 11.3032C19.1829 11.5338 19.2449 11.782 19.2681 12.0313C19.2949 12.2804 19.2703 12.5331 19.2094 12.7738C19.1479 13.0139 19.0522 13.2456 18.9144 13.4489C18.7765 13.6515 18.609 13.8316 18.4168 13.9767C18.0343 14.2711 17.5519 14.4125 17.0944 14.3902C17.0373 14.3875 16.9933 14.339 16.9961 14.282C16.9985 14.2332 17.0343 14.194 17.0803 14.1854L17.0839 14.1847C17.4912 14.1086 17.8651 13.9303 18.1375 13.6496C18.2746 13.5123 18.3913 13.3576 18.4787 13.1888C18.5638 13.019 18.6241 12.8394 18.6536 12.6558C18.6717 12.5645 18.673 12.4711 18.677 12.3791L18.6702 12.2406C18.6693 12.1945 18.6585 12.1492 18.6536 12.1036C18.6241 11.9226 18.57 11.747 18.4881 11.5851C18.3191 11.2654 18.0561 10.9937 17.7322 10.8359C17.571 10.7573 17.3994 10.701 17.222 10.6738C17.0446 10.6475 16.8619 10.652 16.6843 10.681C16.3265 10.7344 15.996 10.9199 15.7336 11.1773C15.604 11.3089 15.4982 11.4638 15.4151 11.631C15.3311 11.7976 15.269 11.9794 15.246 12.1694C15.1828 12.5495 15.2514 12.9533 15.4306 13.3207L15.4313 13.3221C15.4624 13.3859 15.4359 13.4628 15.3721 13.494C15.3179 13.5204 15.2541 13.5051 15.2171 13.4608Z" fill="#371A45"/>
<g opacity="0.3">
<path opacity="0.3" d="M26.0869 10.9173C25.8121 11.2488 25.4006 11.3028 25.002 11.1125C25.2064 11.1556 25.4077 11.125 25.5809 11.0091C26.0678 10.6832 26.1509 9.80598 25.7667 9.04981C25.3828 8.2941 24.6767 7.94502 24.1897 8.27092C24.1611 8.29005 24.1343 8.31113 24.1084 8.33404C24.1303 8.30014 24.1537 8.26836 24.1789 8.23785C24.6152 7.71148 25.3958 7.88419 25.9227 8.6242C26.4498 9.36468 26.5231 10.3909 26.0869 10.9173Z" fill="white"/>
<path opacity="0.3" d="M25.4537 11.2605C25.3035 11.2605 25.1451 11.2231 24.9856 11.1469L24.6981 11.0095L25.0099 11.0752C25.2108 11.1176 25.4008 11.0838 25.5596 10.9775C26.0301 10.6625 26.1079 9.8055 25.7327 9.06704C25.509 8.62687 25.1616 8.30821 24.8033 8.21464C24.5862 8.15776 24.3813 8.18844 24.2108 8.30251C24.1845 8.32013 24.1593 8.33974 24.1337 8.3625L23.9258 8.54674L24.0764 8.31335C24.0988 8.27856 24.1228 8.2459 24.1495 8.21355C24.3302 7.99546 24.5698 7.88604 24.8463 7.89566C25.2407 7.91012 25.6443 8.16759 25.9536 8.60209C26.4891 9.35416 26.5619 10.4036 26.1161 10.9415C25.9417 11.1521 25.7093 11.2605 25.4537 11.2605ZM25.2679 11.1639C25.5741 11.2282 25.8577 11.134 26.0575 10.8929C26.4827 10.3798 26.4083 9.37201 25.8916 8.64628C25.596 8.23121 25.2141 7.98534 24.8435 7.97176C24.633 7.9643 24.4478 8.03236 24.2957 8.17036C24.4558 8.10241 24.6355 8.09201 24.8226 8.14094C25.2016 8.23994 25.5672 8.57321 25.8006 9.03251C26.1926 9.80417 26.1035 10.7051 25.6019 11.0407C25.5004 11.1087 25.3877 11.15 25.2679 11.1639Z" fill="#371A45"/>
</g>
<g opacity="0.35">
<path opacity="0.35" d="M25.7662 9.04982C26.1503 9.80588 26.067 10.683 25.5801 11.0088C25.0932 11.3347 24.3872 10.9859 24.0031 10.2299C23.619 9.4738 23.7023 8.59671 24.1892 8.27085C24.676 7.945 25.3821 8.29376 25.7662 9.04982Z" fill="#371A45"/>
</g>
<g opacity="0.4">
<path opacity="0.4" d="M26.1535 10.9364C25.9402 11.0793 25.6888 11.1055 25.4361 11.0337C25.4499 11.0261 25.463 11.0179 25.4769 11.0089C25.9636 10.683 26.0465 9.80608 25.6626 9.05005C25.3408 8.41621 24.7926 8.06889 24.3369 8.16488C24.4073 8.05163 24.4971 7.95634 24.6034 7.88524C25.1461 7.52276 25.9325 7.9108 26.3606 8.75385C26.7887 9.5962 26.6955 10.5732 26.1535 10.9364Z" fill="white"/>
</g>
<path d="M24.241 10.7784C24.0052 10.5825 23.8276 10.3192 23.7056 10.0321C23.5839 9.74389 23.5191 9.42189 23.5461 9.08585C23.5594 8.91806 23.5963 8.7462 23.6728 8.5783C23.7483 8.41158 23.866 8.24731 24.0323 8.12296C24.1984 7.99941 24.4082 7.92597 24.6138 7.92091C24.8198 7.91477 25.0133 7.96536 25.1778 8.0452C25.5084 8.20597 25.7481 8.45746 25.923 8.73273C26.0998 9.00905 26.2072 9.31595 26.258 9.63136C26.3039 9.94774 26.2843 10.2787 26.1666 10.5871C26.1054 10.7392 26.02 10.8876 25.8965 11.0053C25.7758 11.1238 25.6183 11.2097 25.4558 11.2331C25.3989 11.2413 25.3461 11.2019 25.3378 11.1449C25.3315 11.1012 25.3534 11.0599 25.3896 11.0394L25.3943 11.0368C25.6092 10.9158 25.7184 10.6996 25.7542 10.4649C25.7726 10.3478 25.7771 10.227 25.7666 10.1063C25.7548 9.98546 25.7312 9.86523 25.6984 9.74789C25.63 9.51307 25.5215 9.2891 25.3817 9.09875C25.2428 8.90886 25.0665 8.75083 24.8869 8.66861C24.7044 8.58587 24.5499 8.591 24.4272 8.67268C24.3006 8.75166 24.1931 8.94164 24.1513 9.16528C24.1058 9.38845 24.1136 9.63914 24.1635 9.88625C24.2082 10.1368 24.3045 10.3793 24.4346 10.6118L24.4367 10.6157C24.4716 10.6781 24.4493 10.757 24.3869 10.7918C24.3389 10.8186 24.281 10.8114 24.241 10.7784Z" fill="#371A45"/>
<g opacity="0.4">
<path opacity="0.4" d="M16.9855 6.48088C16.4448 6.747 15.8327 6.70537 15.3481 6.4237C15.6209 6.51389 15.9223 6.53014 16.2214 6.45497C17.0627 6.2436 17.573 5.39011 17.3616 4.5488C17.1504 3.708 16.2973 3.19706 15.4559 3.40843C15.4065 3.42085 15.3587 3.43558 15.3115 3.45238C15.358 3.42374 15.4056 3.39755 15.4553 3.37301C16.3136 2.95046 17.3519 3.30319 17.7745 4.16149C18.1972 5.02037 17.8438 6.0583 16.9855 6.48088Z" fill="white"/>
</g>
<g opacity="0.35">
<path opacity="0.35" d="M15.838 6.50202C16.7054 6.50202 17.4085 5.7989 17.4085 4.93155C17.4085 4.06421 16.7054 3.36108 15.838 3.36108C14.9707 3.36108 14.2676 4.06421 14.2676 4.93155C14.2676 5.7989 14.9707 6.50202 15.838 6.50202Z" fill="#371A45"/>
</g>
<path d="M14.4773 5.92423C14.2339 5.64996 14.0991 5.26963 14.1006 4.8837C14.1011 4.49592 14.2424 4.10183 14.4977 3.79275C14.7537 3.48611 15.1188 3.2594 15.5207 3.18224C15.7205 3.14491 15.9263 3.1329 16.1294 3.16245C16.3318 3.19264 16.5303 3.25341 16.7119 3.34764C17.0779 3.53232 17.37 3.84804 17.5384 4.21662C17.6221 4.40176 17.6707 4.60109 17.6878 4.80061C17.7076 4.99999 17.6873 5.20181 17.6376 5.39381C17.586 5.58519 17.5068 5.76867 17.3952 5.92902C17.2833 6.08878 17.1487 6.23011 16.9945 6.34264C16.6877 6.57061 16.3042 6.67498 15.9466 6.64652C15.8895 6.64196 15.8469 6.59198 15.8514 6.53487C15.8552 6.48763 15.89 6.4503 15.9343 6.44136L15.9362 6.44103C16.5562 6.3163 17.0129 5.81891 17.0784 5.27519C17.1215 5.00645 17.0658 4.73077 16.9489 4.49846C16.824 4.26867 16.6335 4.07377 16.3998 3.96069C16.2834 3.90471 16.1602 3.86364 16.0323 3.84403C15.9047 3.825 15.7727 3.82726 15.6445 3.84764C15.3862 3.88424 15.1456 4.01502 14.9523 4.19994C14.8577 4.29504 14.7767 4.40509 14.7132 4.52632C14.6487 4.64681 14.5997 4.77946 14.5796 4.91929C14.5248 5.19928 14.5669 5.50065 14.6909 5.78414L14.6921 5.7869C14.7206 5.85219 14.6908 5.92828 14.6255 5.95683C14.573 5.97982 14.5134 5.96485 14.4773 5.92423Z" fill="#371A45"/>
<path d="M7.63424 5.1688C7.56412 4.75857 8.08439 4.0583 8.89169 3.75276C9.69897 3.44721 10.4096 3.67102 10.5577 4.06232" fill="#FFA726"/>
<path d="M7.51854 5.1888C7.48279 5.08939 7.47881 4.98494 7.48973 4.88825C7.49941 4.79021 7.52719 4.6989 7.55918 4.61108C7.62636 4.43633 7.72534 4.28118 7.83952 4.14098C8.07093 3.86327 8.36898 3.646 8.70206 3.50432C9.03349 3.36359 9.4061 3.29456 9.77888 3.3471C9.9643 3.37399 10.1504 3.43126 10.3183 3.53595C10.4009 3.59033 10.4803 3.65427 10.5457 3.7346C10.5779 3.77522 10.6067 3.81936 10.6309 3.86594C10.653 3.91423 10.6714 3.9642 10.6805 4.01629C10.6929 4.08791 10.645 4.15603 10.5733 4.1685C10.526 4.17672 10.4802 4.15856 10.451 4.12468L10.4371 4.10841C10.3595 4.01786 10.2516 3.96181 10.1287 3.92796C10.0061 3.89399 9.87311 3.88039 9.73863 3.88314C9.46897 3.88933 9.19499 3.95498 8.93432 4.06056C8.67466 4.16691 8.42861 4.31578 8.2127 4.49978C8.10506 4.59163 8.00555 4.69311 7.92185 4.80244C7.83782 4.91133 7.77268 5.03028 7.75212 5.14884L7.74866 5.16876C7.73739 5.23379 7.67553 5.27733 7.61052 5.26602C7.56677 5.25843 7.53268 5.22777 7.51854 5.1888Z" fill="#371A45"/>
<g opacity="0.35">
<path opacity="0.35" d="M8.74788 3.88461C7.8952 4.27364 7.35814 4.92692 7.54832 5.34374C7.73849 5.76056 8.58389 5.78309 9.43656 5.39405C10.2892 5.00501 10.8263 4.35174 10.6361 3.93492C10.4459 3.5181 9.60055 3.49557 8.74788 3.88461Z" fill="#371A45"/>
</g>
</svg>
