<svg width="78" height="55" viewBox="0 0 78 55" fill="none" xmlns="http://www.w3.org/2000/svg">
<g opacity="0.2">
<path opacity="0.2" d="M39.7554 5.26764C26.0441 5.26764 14.8892 16.4225 14.8892 30.1338C14.8892 43.8452 26.0441 55 39.7554 55C53.4667 55 64.6217 43.8452 64.6217 30.1338C64.6217 16.4225 53.4667 5.26764 39.7554 5.26764Z" fill="#2E3349"/>
</g>
<g opacity="0.2">
<path opacity="0.2" d="M12.4116 3.48884C12.3627 2.41243 11.4804 1.56934 10.4018 1.56934C10.1674 1.56934 9.97655 1.75786 9.97376 1.99235L9.84008 13.3073C9.83785 13.4958 9.68262 13.6492 9.49413 13.6492C9.30777 13.6492 9.15263 13.4976 9.14824 13.3113L8.90094 2.84309C8.88442 2.14073 8.29938 1.56936 7.59685 1.56936C6.89431 1.56936 6.30926 2.14073 6.29273 2.84295L6.04543 13.3115C6.04104 13.4976 5.88584 13.6492 5.69948 13.6492H5.50834C5.31984 13.6492 5.16462 13.4958 5.16239 13.3073L5.02877 1.99235C5.02597 1.75786 4.83516 1.56934 4.60076 1.56934C3.52334 1.56934 2.64107 2.4124 2.59217 3.48856L2.00317 16.4361C1.93212 18.0078 2.53881 19.538 3.66812 20.6351L4.16133 21.1125C4.71384 21.6491 5.0145 22.3973 4.98622 23.1654L3.96759 51.0242C3.93149 51.9926 4.28189 52.9104 4.95429 53.6083C5.62695 54.3064 6.53145 54.691 7.50123 54.691C9.45144 54.691 11.038 53.105 11.038 51.1557C11.038 51.1117 11.038 51.0678 11.0363 51.0245L10.0162 23.1653C9.98791 22.3974 10.2885 21.6492 10.8409 21.1127L11.3348 20.6347C12.4637 19.538 13.0704 18.0078 12.9993 16.4361L12.4116 3.48884Z" fill="#2E3349"/>
</g>
<g opacity="0.2">
<path opacity="0.2" d="M77.3829 30.2808V3.00278C77.3828 2.4349 77.0608 1.93664 76.5427 1.70246C76.0271 1.46951 75.4436 1.55645 75.02 1.92942C70.7721 5.66754 69.2148 14.3191 69.1719 20.5921C69.1302 26.685 70.3951 31.6376 72.4729 33.517C72.6483 33.6757 72.7381 33.8916 72.7194 34.1098L71.253 51.1912C71.1809 52.0305 71.4663 52.8677 72.0358 53.4882C72.6054 54.1088 73.4152 54.4646 74.2574 54.4646C75.0868 54.4646 75.8597 54.135 76.4337 53.5366C77.0078 52.9382 77.3049 52.1524 77.2705 51.3238L76.5759 34.6153C76.5461 33.899 76.6738 33.1697 76.9452 32.5059C77.2356 31.7963 77.3829 31.0475 77.3829 30.2808Z" fill="#2E3349"/>
</g>
<path d="M8.51381 19.2676C7.8932 19.8868 7.55792 20.7356 7.59074 21.6116L7.65779 23.4307L7.73483 25.5294L7.84612 28.5868L8.23703 39.267L8.42393 44.3503L8.49954 46.449L8.61082 49.4708C8.61082 49.4821 8.61225 49.4936 8.61082 49.505C8.61225 49.5321 8.61225 49.5592 8.61225 49.5863C8.61225 51.2955 7.22693 52.6936 5.50348 52.6936C3.74151 52.6936 2.33193 51.2313 2.39756 49.4708L2.59017 44.1848L2.69574 41.3186L2.76708 39.3526L2.94114 34.5875L3.3078 24.5763L3.41195 21.7101L3.41622 21.6116C3.44904 20.7214 3.10235 19.8582 2.46176 19.2362L1.96813 18.7582C1.62287 18.423 1.33039 18.0435 1.09642 17.6326C0.624179 16.8065 0.388775 15.8563 0.433002 14.8862L0.554271 12.234L1.02223 1.93891C1.06075 1.09288 1.75698 0.42804 2.60301 0.42804L2.73712 11.7432C2.7414 12.1669 3.08666 12.5079 3.51042 12.5079H3.70159C4.12247 12.5079 4.4663 12.1726 4.47629 11.7517L4.72311 1.28406C4.73449 0.807541 5.12258 0.42804 5.5991 0.42804C5.83736 0.42804 6.05421 0.523628 6.21115 0.677712C6.36951 0.831795 6.46938 1.0458 6.47509 1.28406L6.72191 11.7517C6.7319 12.1726 7.07573 12.5079 7.49661 12.5079C7.70918 12.5079 7.90036 12.4223 8.04018 12.2839C8.17996 12.1455 8.26845 11.9543 8.26987 11.7432L8.40398 0.42804H8.40541C9.25144 0.42804 9.94767 1.09431 9.98619 1.93891L10.574 14.8862C10.6396 16.3371 10.0804 17.7467 9.03886 18.7582L8.54523 19.2362C8.53521 19.2462 8.5238 19.2562 8.51381 19.2676Z" fill="#D2CDCF"/>
<g opacity="0.3">
<path opacity="0.3" d="M7.73381 21.6116L7.80087 23.4307L1.23948 17.6326C0.767246 16.8065 0.531841 15.8563 0.576069 14.8862L0.697338 12.2339L8.65688 19.2676C8.03627 19.8868 7.701 20.7356 7.73381 21.6116Z" fill="white"/>
</g>
<g opacity="0.3">
<path opacity="0.3" d="M7.98901 28.5868L3.45068 24.5763L3.55483 21.7101L7.87773 25.5294L7.98901 28.5868Z" fill="white"/>
</g>
<g opacity="0.3">
<path opacity="0.3" d="M8.56701 44.3503L2.91016 39.3526L3.08421 34.5874L8.38011 39.267L8.56701 44.3503Z" fill="white"/>
</g>
<g opacity="0.3">
<path opacity="0.3" d="M8.75357 49.4708C8.75357 49.4822 8.755 49.4936 8.75357 49.505L2.73291 44.1849L2.83849 41.3186L8.64229 46.449L8.75357 49.4708Z" fill="white"/>
</g>
<g opacity="0.3">
<path opacity="0.3" d="M8.54523 19.2362C7.90464 19.8582 7.55795 20.7214 7.59077 21.6116L8.61085 49.4708C8.61228 49.5093 8.61228 49.5478 8.61228 49.5863C8.61228 51.2955 7.22696 52.6936 5.50351 52.6936C5.33088 52.6936 5.1611 52.6794 4.99561 52.6523C6.47509 52.4098 7.59505 51.1243 7.59505 49.5863C7.59505 49.5478 7.59505 49.5093 7.59362 49.4708L6.57496 21.6116C6.54217 20.7214 6.88883 19.8582 7.52942 19.2362L8.02163 18.7582C9.06455 17.7467 9.62381 16.3371 9.55676 14.8862L9.53804 14.4686C9.51324 13.9156 9.95486 13.4538 10.5084 13.4538L10.574 14.8862C10.6396 16.3371 10.0804 17.7467 9.03886 18.7583L8.54523 19.2362Z" fill="#2E3349"/>
</g>
<g opacity="0.65">
<path opacity="0.65" d="M6.00324 52.6537C5.8406 52.6794 5.67367 52.6937 5.5039 52.6937C3.74192 52.6937 2.33235 51.2313 2.39797 49.4708L3.41664 21.6116C3.44945 20.7214 3.10276 19.8582 2.46218 19.2362L1.96854 18.7582C0.92705 17.7467 0.367785 16.3371 0.433413 14.8862L1.02264 1.93891C1.06116 1.09288 1.75739 0.42804 2.60342 0.42804L2.6077 0.779008C2.26672 1.05436 2.04273 1.46953 2.02133 1.93891L1.4321 14.8862C1.36647 16.3371 1.92574 17.7467 2.96723 18.7582L3.46086 19.2362C4.10145 19.8582 4.44814 20.7214 4.41533 21.6116L3.39666 49.4708C3.33674 51.0616 4.48238 52.4083 6.00324 52.6537Z" fill="white"/>
</g>
<g opacity="0.65">
<path opacity="0.65" d="M5.43852 0.42804C5.62399 0.42804 5.79665 0.486534 5.93786 0.584976C5.7153 0.73906 5.56838 0.993012 5.56124 1.28406L5.31442 11.7517C5.30444 12.1726 4.9606 12.5079 4.53973 12.5079H4.34858C4.20017 12.5079 4.06181 12.4665 3.94482 12.3923C4.16311 12.2611 4.30863 12.0242 4.31577 11.7517L4.56258 1.28406C4.57394 0.807541 4.962 0.42804 5.43852 0.42804Z" fill="white"/>
</g>
<g opacity="0.65">
<path opacity="0.65" d="M9.23792 0.779008L9.10809 11.7432C9.10667 11.9543 9.01821 12.1455 8.87839 12.2839C8.73858 12.4223 8.5474 12.5079 8.33479 12.5079C8.14507 12.5079 7.97099 12.4394 7.83545 12.3253C7.85117 12.311 7.86544 12.2982 7.8797 12.2839C8.01952 12.1455 8.10798 11.9543 8.1094 11.7432L8.24351 0.42804H8.24494C8.62016 0.42804 8.96685 0.559297 9.23792 0.779008Z" fill="white"/>
</g>
<path d="M5.50367 53.1216C4.53397 53.1216 3.62933 52.7371 2.95667 52.0389C2.2843 51.341 1.93388 50.4233 1.96997 49.4548L2.98872 21.5959C3.01699 20.8279 2.71633 20.0797 2.16377 19.5433L1.67056 19.0657C0.541162 17.9689 -0.06544 16.4386 0.00560949 14.8668L0.59455 1.91931C0.6436 0.843094 1.52581 2.78652e-05 2.60323 2.78652e-05C2.83757 2.78652e-05 3.02844 0.188609 3.03123 0.422959L3.16483 11.738C3.16706 11.9264 3.32228 12.0798 3.51078 12.0798H3.70193C3.88834 12.0798 4.04342 11.9283 4.04787 11.7421L4.29517 1.27373C4.31175 0.571393 4.89678 0 5.59926 0C6.30174 0 6.88677 0.571363 6.90335 1.27364L7.15065 11.742C7.1551 11.9283 7.31018 12.0798 7.4966 12.0798C7.68509 12.0798 7.84032 11.9264 7.84254 11.7379L7.97617 0.422931C7.97896 0.188581 8.16983 0 8.40418 0C9.48285 0 10.3651 0.843121 10.4141 1.91951L11.0018 14.8667C11.0728 16.4386 10.4662 17.9689 9.33724 19.0652L8.8432 19.5437C8.2909 20.0801 7.99038 20.828 8.01868 21.5959L9.03883 49.455C9.04037 49.4989 9.04048 49.5426 9.04048 49.5863C9.04045 51.5357 7.45382 53.1216 5.50367 53.1216ZM2.18118 0.935229C1.76835 1.09679 1.47103 1.48884 1.44971 1.95817L0.860801 14.9056C0.800737 16.2329 1.31306 17.5253 2.26644 18.4512L2.75965 18.9286C3.48609 19.6341 3.88138 20.6176 3.84417 21.6273L2.82542 49.4863C2.79808 50.2205 3.06368 50.916 3.57318 51.445C4.08297 51.9741 4.76858 52.2656 5.50367 52.2656C6.98193 52.2656 8.18444 51.0637 8.18444 49.5863C8.18444 49.5529 8.18458 49.5196 8.18332 49.4862L7.16318 21.6273C7.12597 20.6176 7.52125 19.6341 8.2473 18.9291C8.24744 18.9289 8.24758 18.9288 8.2477 18.9286L8.74133 18.4507C9.69431 17.5252 10.2066 16.2328 10.1466 14.9055L9.55889 1.95834C9.53757 1.48847 9.23968 1.09599 8.82619 0.934717L8.69856 11.7481C8.69077 12.403 8.15156 12.9358 7.4966 12.9358C6.84916 12.9358 6.3101 12.4093 6.29489 11.7622L6.04759 1.2939C6.04185 1.05245 5.84069 0.85599 5.59923 0.85599C5.35778 0.85599 5.15659 1.05245 5.15088 1.29396L4.90357 11.7622C4.88837 12.4093 4.34933 12.9358 3.70187 12.9358H3.51072C2.85575 12.9358 2.31657 12.403 2.30876 11.7481L2.18118 0.935229Z" fill="#2E3349"/>
<path d="M74.9582 1.43387V28.7109C74.9582 28.7994 74.9554 28.8892 74.9525 28.9777C74.9211 29.594 74.7856 30.2018 74.5516 30.7739C74.2834 31.4302 74.1464 32.1293 74.1464 32.8355C74.1464 32.9125 74.1479 32.9882 74.1507 33.0638V33.0695L74.2606 35.6946L74.3633 38.177L74.4518 40.2843L74.5787 43.3559L74.8456 49.7718C74.9069 51.2427 73.7313 52.4669 72.2604 52.4669C70.8194 52.4669 69.6724 51.297 69.6724 49.8845C69.6724 49.8103 69.6752 49.7347 69.6824 49.6591L70.5312 39.7792L70.7666 37.0286L70.9193 35.2566L70.9293 35.1411L71.149 32.5772C71.1733 32.2905 71.0834 32.0123 70.9093 31.7883C70.8651 31.7312 70.8166 31.6784 70.7624 31.6299C69.9906 30.9323 69.3571 29.8109 68.8649 28.397C67.8462 25.4737 67.4325 21.2949 67.665 17.0034C67.7149 16.0889 67.7934 15.1673 67.9019 14.2527C67.9732 13.6478 68.0588 13.0443 68.1558 12.448C68.3884 11.0327 68.6937 9.6488 69.076 8.34194C70.0177 5.11047 71.4215 2.33982 73.3062 0.682002C73.9481 0.115603 74.9582 0.577852 74.9582 1.43387Z" fill="#D2CDCF"/>
<path d="M74.9582 1.43387V28.7109C74.9582 28.7994 74.9554 28.8892 74.9525 28.9777C74.9211 29.594 74.7856 30.2018 74.5516 30.7739C74.2834 31.4302 74.1464 32.1293 74.1464 32.8355C74.1464 32.9125 74.1479 32.9882 74.1507 33.0638V33.0695L74.2606 35.6946L74.3633 38.177L74.4518 40.2843L74.5787 43.3559L74.8456 49.7718C74.9069 51.2427 73.7313 52.4669 72.2604 52.4669C70.8194 52.4669 69.6724 51.297 69.6724 49.8845C69.6724 49.8103 69.6752 49.7347 69.6824 49.6591L70.5312 39.7792L70.7666 37.0286L70.9193 35.2566L70.9293 35.1411L71.149 32.5772C71.1733 32.2905 71.0834 32.0123 70.9093 31.7883C70.8651 31.7312 70.8166 31.6784 70.7624 31.6299C69.9906 30.9323 69.3571 29.8109 68.8649 28.397C67.8462 25.4737 67.4325 21.2949 67.665 17.0034C67.7149 16.0889 67.7934 15.1673 67.9019 14.2527C67.9732 13.6478 68.0588 13.0443 68.1558 12.448C68.3884 11.0327 68.6937 9.6488 69.076 8.34194C70.0177 5.11047 71.4215 2.33982 73.3062 0.682002C73.9481 0.115603 74.9582 0.577852 74.9582 1.43387Z" fill="#D2CDCF"/>
<g opacity="0.65">
<path opacity="0.65" d="M74.556 0.632075C74.536 0.647768 74.5146 0.663462 74.4946 0.682009C67.6636 6.69268 67.1628 27.2985 71.9508 31.63C72.0051 31.6784 72.0536 31.7312 72.0978 31.7883C72.2718 32.0123 72.3617 32.2905 72.3375 32.5773L72.1077 35.2566L70.8708 49.6591C70.8637 49.7347 70.8608 49.8103 70.8608 49.8845C70.8608 51.0958 71.7054 52.1301 72.8553 52.3969C72.6641 52.4426 72.4658 52.4668 72.2603 52.4668C70.8194 52.4668 69.6724 51.2969 69.6724 49.8845C69.6724 49.8103 69.6752 49.7347 69.6823 49.6591L70.9193 35.2566L71.149 32.5773C71.1733 32.2905 71.0834 32.0123 70.9093 31.7883C70.8651 31.7312 70.8166 31.6784 70.7624 31.63C65.9744 27.2985 66.4752 6.69268 73.3062 0.682009C73.6899 0.343882 74.2036 0.372416 74.556 0.632075Z" fill="white"/>
</g>
<g opacity="0.3">
<path opacity="0.3" d="M75.1008 13.5408V18.4601L68.2983 12.448C68.5309 11.0327 68.8362 9.64877 69.2186 8.34192L75.1008 13.5408Z" fill="white"/>
</g>
<g opacity="0.3">
<path opacity="0.3" d="M75.1009 20.4903V23.4492L67.8076 17.0034C67.8575 16.0889 67.936 15.1673 68.0445 14.2527L75.1009 20.4903Z" fill="white"/>
</g>
<g opacity="0.3">
<path opacity="0.3" d="M71.2915 32.5772C71.3157 32.2904 71.2258 32.0122 71.0518 31.7883C71.0075 31.7312 70.959 31.6784 70.9048 31.6299C70.133 30.9322 69.4995 29.8109 69.0073 28.397L74.2932 33.0694L74.4031 35.6945L74.5059 38.177L71.0718 35.141L71.2915 32.5772Z" fill="white"/>
</g>
<g opacity="0.3">
<path opacity="0.3" d="M74.7214 43.356L70.6738 39.7792L70.9092 37.0286L74.5944 40.2843L74.7214 43.356Z" fill="white"/>
</g>
<path d="M72.2604 52.8953C71.418 52.8953 70.6082 52.5394 70.0387 51.9189C69.4691 51.2983 69.1838 50.4611 69.2558 49.6218L70.7222 32.5404C70.7409 32.3223 70.6512 32.1062 70.4757 31.9475C68.3981 30.0682 67.1333 25.1158 67.1748 19.0231C67.2177 12.75 68.775 4.09816 73.0229 0.359985C73.4464 -0.0131249 74.0302 -0.0998687 74.5459 0.133225C75.0639 0.367517 75.3857 0.865664 75.3857 1.4334V28.7114C75.3857 29.4782 75.2384 30.2268 74.9481 30.9365C74.6728 31.6093 74.5485 32.3191 74.5786 33.046L75.2733 49.7545C75.3077 50.5831 75.0105 51.369 74.4364 51.9674C73.8623 52.5658 73.0896 52.8953 72.2604 52.8953ZM73.9552 0.860586C73.8232 0.860586 73.6948 0.908777 73.5883 1.00263C69.553 4.55376 68.0725 12.9328 68.0308 19.0289C67.9909 24.8852 69.1477 29.592 71.05 31.3127C71.4255 31.6525 71.6168 32.1266 71.5752 32.6136L70.1087 49.695C70.0563 50.3049 70.2555 50.8891 70.6694 51.34C71.0832 51.791 71.6483 52.0393 72.2604 52.0393C72.8541 52.0393 73.4075 51.8033 73.8187 51.3748C74.2298 50.9462 74.4426 50.3834 74.4181 49.79L73.7234 33.0815C73.6882 32.2308 73.8336 31.4001 74.1558 30.6124C74.4038 30.0061 74.5297 29.3665 74.5297 28.7114V1.43343C74.5297 1.20299 74.4038 1.00856 74.1931 0.913258C74.1151 0.877933 74.0345 0.860586 73.9552 0.860586Z" fill="#2E3349"/>
<g opacity="0.3">
<path opacity="0.3" d="M74.9581 1.43387V28.7109C74.9581 28.7993 74.9552 28.8892 74.9524 28.9777C74.921 29.594 74.7855 30.2018 74.5515 30.7739C74.2833 31.4302 74.1463 32.1293 74.1463 32.8355C74.1463 32.9125 74.1478 32.9882 74.1506 33.0638L74.2604 35.6946L74.3632 38.177L74.4517 40.2843L74.5786 43.3559L74.8454 49.7718C74.9068 51.2427 73.7312 52.4669 72.2602 52.4669C72.0505 52.4669 71.8479 52.4426 71.6539 52.3941C72.8281 52.1144 73.6855 51.0344 73.6327 49.7718L73.3659 43.3559L73.239 40.2843L73.1505 38.177L73.0478 35.6946L73.0421 35.5519C72.2831 35.4549 71.4813 35.3394 70.9191 35.2566L71.1489 32.5772C71.1731 32.2905 71.0832 32.0123 70.9092 31.7883L73.6113 29.9093C73.6813 29.604 73.724 29.2916 73.7397 28.9777C73.7426 28.8892 73.7455 28.7993 73.7455 28.7109V1.43387C73.7455 1.09431 73.5871 0.817534 73.356 0.64205C73.9993 0.139852 74.9581 0.599249 74.9581 1.43387Z" fill="#2E3349"/>
</g>
<path d="M37.6925 53.0032C51.1534 53.0032 62.0656 42.091 62.0656 28.63C62.0656 15.1691 51.1534 4.2569 37.6925 4.2569C24.2316 4.2569 13.3193 15.1691 13.3193 28.63C13.3193 42.091 24.2316 53.0032 37.6925 53.0032Z" fill="white"/>
<circle cx="37.5" cy="28.5" r="18" stroke="#2E3349" stroke-opacity="0.7"/>
<path d="M37.6924 53.4963C23.981 53.4963 12.8262 42.3415 12.8262 28.6301C12.8262 14.9188 23.981 3.76385 37.6924 3.76385C51.4037 3.76385 62.5585 14.9188 62.5585 28.6301C62.5585 42.3415 51.4037 53.4963 37.6924 53.4963ZM37.6924 4.75002C24.5248 4.75002 13.8123 15.4626 13.8123 28.6301C13.8123 41.7977 24.5248 52.5102 37.6924 52.5102C50.8599 52.5102 61.5724 41.7977 61.5724 28.6301C61.5724 15.4626 50.8599 4.75002 37.6924 4.75002Z" fill="#2E3349"/>
</svg>
