<svg width="70" height="82" viewBox="0 0 70 82" fill="none" xmlns="http://www.w3.org/2000/svg">
<rect x="1" y="1" width="68" height="80" rx="4" stroke="#2E3349" stroke-opacity="0.5" stroke-width="2"/>
<path d="M15 0H65C67.7614 0 70 2.23858 70 5V77C70 79.7614 67.7614 82 65 82H15V0Z" fill="white"/>
<path d="M16 1H65C67.2091 1 69 2.79086 69 5V77C69 79.2091 67.2091 81 65 81H16V1Z" stroke="#2E3349" stroke-opacity="0.5" stroke-width="2"/>
<mask id="path-4-outside-1" maskUnits="userSpaceOnUse" x="25.207" y="24.207" width="34" height="34" fill="black">
<rect fill="white" x="25.207" y="24.207" width="34" height="34"/>
<path fill-rule="evenodd" clip-rule="evenodd" d="M31.3934 36.3994C31.3934 36.532 31.3407 36.6592 31.2469 36.7529L27.3535 40.6464C27.1582 40.8416 27.1582 41.1582 27.3535 41.3535L31.2469 45.2469C31.3407 45.3407 31.3934 45.4679 31.3934 45.6005V51.1065C31.3934 51.3827 31.6172 51.6065 31.8934 51.6065H37.3994C37.532 51.6065 37.6592 51.6592 37.753 51.753L41.6464 55.6464C41.8416 55.8416 42.1582 55.8416 42.3535 55.6464L46.2469 51.753C46.3406 51.6592 46.4678 51.6065 46.6004 51.6065H52.1066C52.3827 51.6065 52.6066 51.3827 52.6066 51.1065V45.6004C52.6066 45.4678 52.6593 45.3406 52.753 45.2468L56.6464 41.3535C56.8416 41.1582 56.8416 40.8416 56.6464 40.6464L52.753 36.753C52.6593 36.6593 52.6066 36.5321 52.6066 36.3995V30.8933C52.6066 30.6172 52.3827 30.3933 52.1066 30.3933H46.6004C46.4678 30.3933 46.3406 30.3406 46.2469 30.2469L42.3535 26.3535C42.1582 26.1582 41.8416 26.1582 41.6464 26.3535L37.753 30.2469C37.6592 30.3406 37.532 30.3933 37.3994 30.3933H31.8934C31.6172 30.3933 31.3934 30.6172 31.3934 30.8933V36.3994Z"/>
</mask>
<path d="M37.753 30.2469L39.1672 31.6611L37.753 30.2469ZM42.3535 26.3535L43.7677 24.9393L42.3535 26.3535ZM41.6464 26.3535L40.2322 24.9393L41.6464 26.3535ZM46.2469 30.2469L44.8327 31.6611L46.2469 30.2469ZM52.753 36.753L51.3388 38.1672L52.753 36.753ZM56.6464 40.6464L58.0606 39.2322L56.6464 40.6464ZM41.6464 55.6464L43.0606 54.2322L41.6464 55.6464ZM42.3535 55.6464L40.9393 54.2322L42.3535 55.6464ZM37.753 51.753L36.3388 53.1672L37.753 51.753ZM31.2469 45.2469L29.8327 46.6611L31.2469 45.2469ZM31.2469 36.7529L29.8327 35.3387L31.2469 36.7529ZM27.3535 40.6464L25.9393 39.2322L27.3535 40.6464ZM27.3535 41.3535L25.9393 42.7677L27.3535 41.3535ZM28.7677 42.0606L32.6611 38.1671L29.8327 35.3387L25.9393 39.2322L28.7677 42.0606ZM32.6611 43.8327L28.7677 39.9393L25.9393 42.7677L29.8327 46.6611L32.6611 43.8327ZM33.3934 51.1065V45.6005H29.3934V51.1065H33.3934ZM37.3994 49.6065H31.8934V53.6065H37.3994V49.6065ZM43.0606 54.2322L39.1672 50.3388L36.3388 53.1672L40.2322 57.0606L43.0606 54.2322ZM44.8327 50.3388L40.9393 54.2322L43.7677 57.0606L47.6611 53.1672L44.8327 50.3388ZM52.1066 49.6065H46.6004V53.6065H52.1066V49.6065ZM50.6066 45.6004V51.1065H54.6066V45.6004H50.6066ZM55.2322 39.9393L51.3388 43.8326L54.1672 46.661L58.0606 42.7677L55.2322 39.9393ZM51.3388 38.1672L55.2322 42.0606L58.0606 39.2322L54.1672 35.3388L51.3388 38.1672ZM50.6066 30.8933V36.3995H54.6066V30.8933H50.6066ZM46.6004 32.3933H52.1066V28.3933H46.6004V32.3933ZM40.9393 27.7677L44.8327 31.6611L47.6611 28.8327L43.7677 24.9393L40.9393 27.7677ZM39.1672 31.6611L43.0606 27.7677L40.2322 24.9393L36.3388 28.8327L39.1672 31.6611ZM31.8934 32.3933H37.3994V28.3933H31.8934V32.3933ZM33.3934 36.3994V30.8933H29.3934V36.3994H33.3934ZM31.8934 28.3933C30.5127 28.3933 29.3934 29.5126 29.3934 30.8933H33.3934C33.3934 31.7217 32.7218 32.3933 31.8934 32.3933V28.3933ZM36.3388 28.8327C36.6201 28.5514 37.0016 28.3933 37.3994 28.3933V32.3933C38.0625 32.3933 38.6983 32.1299 39.1672 31.6611L36.3388 28.8327ZM43.7677 24.9393C42.7914 23.963 41.2085 23.963 40.2322 24.9393L43.0606 27.7677C42.4748 28.3535 41.5251 28.3535 40.9393 27.7677L43.7677 24.9393ZM46.6004 28.3933C46.9983 28.3933 47.3798 28.5514 47.6611 28.8327L44.8327 31.6611C45.3015 32.1299 45.9374 32.3933 46.6004 32.3933V28.3933ZM54.6066 30.8933C54.6066 29.5126 53.4873 28.3933 52.1066 28.3933V32.3933C51.2782 32.3933 50.6066 31.7217 50.6066 30.8933H54.6066ZM54.1672 35.3388C54.4485 35.6201 54.6066 36.0016 54.6066 36.3995H50.6066C50.6066 37.0625 50.87 37.6984 51.3388 38.1672L54.1672 35.3388ZM58.0606 42.7677C59.0369 41.7914 59.0369 40.2085 58.0606 39.2322L55.2322 42.0606C54.6464 41.4748 54.6464 40.525 55.2322 39.9393L58.0606 42.7677ZM54.6066 45.6004C54.6066 45.9982 54.4485 46.3797 54.1672 46.661L51.3388 43.8326C50.87 44.3015 50.6066 44.9373 50.6066 45.6004H54.6066ZM52.1066 53.6065C53.4873 53.6065 54.6066 52.4872 54.6066 51.1065H50.6066C50.6066 50.2781 51.2782 49.6065 52.1066 49.6065V53.6065ZM47.6611 53.1672C47.3798 53.4485 46.9983 53.6065 46.6004 53.6065V49.6065C45.9374 49.6065 45.3015 49.8699 44.8327 50.3388L47.6611 53.1672ZM40.2322 57.0606C41.2085 58.0369 42.7914 58.0369 43.7677 57.0606L40.9393 54.2322C41.5251 53.6464 42.4748 53.6464 43.0606 54.2322L40.2322 57.0606ZM37.3994 53.6065C37.0016 53.6065 36.6201 53.4485 36.3388 53.1672L39.1672 50.3388C38.6983 49.8699 38.0625 49.6065 37.3994 49.6065V53.6065ZM29.3934 51.1065C29.3934 52.4872 30.5127 53.6065 31.8934 53.6065V49.6065C32.7218 49.6065 33.3934 50.2781 33.3934 51.1065H29.3934ZM29.8327 46.6611C29.5514 46.3798 29.3934 45.9983 29.3934 45.6005H33.3934C33.3934 44.9374 33.13 44.3016 32.6611 43.8327L29.8327 46.6611ZM32.6611 38.1671C33.13 37.6983 33.3934 37.0624 33.3934 36.3994H29.3934C29.3934 36.0015 29.5514 35.62 29.8327 35.3387L32.6611 38.1671ZM25.9393 39.2322C24.963 40.2085 24.963 41.7914 25.9393 42.7677L28.7677 39.9393C29.3535 40.5251 29.3535 41.4748 28.7677 42.0606L25.9393 39.2322Z" fill="#2E3349" fill-opacity="0.5" mask="url(#path-4-outside-1)"/>
</svg>
