<svg width="100" height="100" viewBox="0 0 100 100" fill="none" xmlns="http://www.w3.org/2000/svg">
<rect x="9" y="9" width="82" height="26" rx="5" fill="#FFC7C0"/>
<rect x="10" y="10" width="80" height="80" rx="4" stroke="#2E3349" stroke-width="2"/>
<line x1="10" y1="34" x2="89" y2="34" stroke="#2E3349" stroke-width="2"/>
<path d="M34.54 57.964C34.6333 56.0973 35.2867 54.66 36.5 53.652C37.732 52.6253 39.3467 52.112 41.344 52.112C42.7067 52.112 43.8733 52.3547 44.844 52.84C45.8147 53.3067 46.5427 53.9507 47.028 54.772C47.532 55.5747 47.784 56.4893 47.784 57.516C47.784 58.692 47.476 59.6907 46.86 60.512C46.2627 61.3147 45.544 61.856 44.704 62.136V62.248C45.7867 62.584 46.6267 63.1813 47.224 64.04C47.84 64.8987 48.148 66 48.148 67.344C48.148 68.464 47.8867 69.4627 47.364 70.34C46.86 71.2173 46.104 71.908 45.096 72.412C44.1067 72.8973 42.912 73.14 41.512 73.14C39.4027 73.14 37.6853 72.608 36.36 71.544C35.0347 70.48 34.3347 68.912 34.26 66.84H38.068C38.1053 67.7547 38.4133 68.492 38.992 69.052C39.5893 69.5933 40.4013 69.864 41.428 69.864C42.38 69.864 43.108 69.6027 43.612 69.08C44.1347 68.5387 44.396 67.848 44.396 67.008C44.396 65.888 44.0413 65.0853 43.332 64.6C42.6227 64.1147 41.5213 63.872 40.028 63.872H39.216V60.652H40.028C42.6787 60.652 44.004 59.7653 44.004 57.992C44.004 57.1893 43.7613 56.564 43.276 56.116C42.8093 55.668 42.128 55.444 41.232 55.444C40.3547 55.444 39.6733 55.6867 39.188 56.172C38.7213 56.6387 38.4507 57.236 38.376 57.964H34.54ZM51.2457 62.528C51.2457 59.2987 51.8244 56.7693 52.9817 54.94C54.1577 53.1107 56.0991 52.196 58.8057 52.196C61.5124 52.196 63.4444 53.1107 64.6017 54.94C65.7777 56.7693 66.3657 59.2987 66.3657 62.528C66.3657 65.776 65.7777 68.324 64.6017 70.172C63.4444 72.02 61.5124 72.944 58.8057 72.944C56.0991 72.944 54.1577 72.02 52.9817 70.172C51.8244 68.324 51.2457 65.776 51.2457 62.528ZM62.5017 62.528C62.5017 61.1467 62.4084 59.9893 62.2217 59.056C62.0537 58.104 61.6991 57.3293 61.1577 56.732C60.6351 56.1347 59.8511 55.836 58.8057 55.836C57.7604 55.836 56.9671 56.1347 56.4257 56.732C55.9031 57.3293 55.5484 58.104 55.3617 59.056C55.1937 59.9893 55.1097 61.1467 55.1097 62.528C55.1097 63.9467 55.1937 65.1413 55.3617 66.112C55.5297 67.064 55.8844 67.8387 56.4257 68.436C56.9671 69.0147 57.7604 69.304 58.8057 69.304C59.8511 69.304 60.6444 69.0147 61.1857 68.436C61.7271 67.8387 62.0817 67.064 62.2497 66.112C62.4177 65.1413 62.5017 63.9467 62.5017 62.528Z" fill="#2E3349"/>
</svg>
