<svg width="30" height="30" viewBox="0 0 30 30" fill="none" xmlns="http://www.w3.org/2000/svg">
<path d="M15 30C18.9782 30 22.7936 28.4196 25.6066 25.6066C28.4196 22.7936 30 18.9782 30 15C30 11.0218 28.4196 7.20644 25.6066 4.3934C22.7936 1.58035 18.9782 0 15 0C11.0218 0 7.20644 1.58035 4.3934 4.3934C1.58035 7.20644 0 11.0218 0 15C0 18.9782 1.58035 22.7936 4.3934 25.6066C7.20644 28.4196 11.0218 30 15 30ZM16.7438 12.3525L14.8687 21.1744C14.7375 21.8119 14.9231 22.1737 15.4388 22.1737C15.8025 22.1737 16.3519 22.0425 16.725 21.7125L16.56 22.4925C16.0219 23.1413 14.835 23.6138 13.8131 23.6138C12.495 23.6138 11.9344 22.8225 12.2981 21.1406L13.6819 14.6381C13.8019 14.0887 13.6931 13.89 13.1438 13.7569L12.2981 13.605L12.4519 12.8906L16.7456 12.3525H16.7438ZM15 10.3125C14.5027 10.3125 14.0258 10.115 13.6742 9.76332C13.3225 9.41169 13.125 8.93478 13.125 8.4375C13.125 7.94022 13.3225 7.46331 13.6742 7.11167C14.0258 6.76004 14.5027 6.5625 15 6.5625C15.4973 6.5625 15.9742 6.76004 16.3258 7.11167C16.6775 7.46331 16.875 7.94022 16.875 8.4375C16.875 8.93478 16.6775 9.41169 16.3258 9.76332C15.9742 10.115 15.4973 10.3125 15 10.3125Z" fill="#9CC2F7"/>
</svg>
