<svg width="10" height="14" viewBox="0 0 10 14" fill="none" xmlns="http://www.w3.org/2000/svg">
<path d="M4.99966 3.16254C4.63574 3.16254 4.28 3.27045 3.97741 3.47263C3.67483 3.67481 3.43899 3.96218 3.29973 4.29839C3.16047 4.63461 3.12403 5.00456 3.19502 5.36149C3.26602 5.71841 3.44126 6.04626 3.69859 6.30359C3.95592 6.56092 4.28377 6.73616 4.64069 6.80716C4.99761 6.87815 5.36757 6.84171 5.70379 6.70245C6.04 6.56319 6.32737 6.32735 6.52955 6.02477C6.73173 5.72218 6.83964 5.36644 6.83964 5.00252C6.83909 4.5147 6.64505 4.04701 6.30011 3.70207C5.95517 3.35713 5.48748 3.16309 4.99966 3.16254ZM4.99966 5.92252C4.8177 5.92252 4.63983 5.86856 4.48853 5.76747C4.33724 5.66638 4.21932 5.5227 4.14969 5.35459C4.08006 5.18648 4.06184 5.0015 4.09734 4.82304C4.13284 4.64458 4.22046 4.48065 4.34912 4.35199C4.47779 4.22333 4.64171 4.13571 4.82017 4.10021C4.99864 4.06471 5.18362 4.08293 5.35172 4.15256C5.51983 4.22219 5.66351 4.34011 5.7646 4.4914C5.86569 4.64269 5.91965 4.82057 5.91965 5.00252C5.91937 5.24643 5.82235 5.48028 5.64988 5.65275C5.47741 5.82522 5.24357 5.92224 4.99966 5.92252Z" fill="white"/>
<path d="M8.53548 1.46409C7.66128 0.590106 6.49432 0.0709252 5.25983 0.00674802C4.02535 -0.0574292 2.81084 0.337947 1.85073 1.11657C0.89061 1.89519 0.252941 3.00186 0.0607913 4.22299C-0.131358 5.44411 0.135633 6.69313 0.810236 7.72898L4.28629 13.0653C4.36364 13.1841 4.46941 13.2816 4.594 13.3492C4.71859 13.4167 4.85807 13.4521 4.99979 13.4521C5.1415 13.4521 5.28098 13.4167 5.40557 13.3492C5.53016 13.2816 5.63593 13.1841 5.71328 13.0653L9.18945 7.72898C9.8154 6.76808 10.092 5.62122 9.97297 4.48061C9.85391 3.34001 9.34639 2.275 8.53548 1.46409ZM8.41861 7.22681L4.9998 12.4751L1.58096 7.22681C0.534467 5.6203 0.758917 3.47039 2.11464 2.11461C2.49352 1.73572 2.94332 1.43516 3.43836 1.23011C3.9334 1.02505 4.46397 0.919514 4.9998 0.919514C5.53563 0.919514 6.0662 1.02505 6.56124 1.23011C7.05628 1.43516 7.50608 1.73572 7.88496 2.11461C9.24068 3.47039 9.4651 5.6203 8.41861 7.22681Z" fill="white"/>
</svg>
