<svg width="240" height="220" viewBox="0 0 240 220" fill="none" xmlns="http://www.w3.org/2000/svg">
<path fill-rule="evenodd" clip-rule="evenodd" d="M240 71.7614C231.17 70.8062 222.069 70.733 212.829 71.6367C190.088 73.8623 169.6 81.7065 152.985 93.4056C135.835 105.484 122.809 121.668 115.688 140.022L115.653 140.098L115.642 140.124C115.627 140.154 115.612 140.188 115.594 140.231C113.3 145.68 110.682 150.018 107.296 153.169C103.942 156.293 99.8156 158.258 94.4782 158.996C94.1717 159.037 93.9595 159.295 94.0065 159.571C94.0536 159.846 94.3399 160.036 94.6463 159.994C100.245 159.221 104.578 157.155 108.106 153.87C111.606 150.611 114.297 146.161 116.644 140.589L116.674 140.521L116.692 140.489L116.727 140.412L116.725 140.411L116.737 140.382C123.786 122.198 136.687 106.163 153.677 94.2004C170.13 82.6146 190.422 74.8461 212.949 72.6413C222.149 71.7412 231.211 71.8205 240 72.7806V71.7614V71.7614Z" fill="#F2CCA3"/>
<path fill-rule="evenodd" clip-rule="evenodd" d="M219.173 74.1219C173.38 76.118 135.222 102.142 119.039 137.967C119.006 138.032 118.971 138.092 118.939 138.159C113.616 149.115 107.266 155.448 96.3516 156.368C66.7498 158.865 41.9191 171.508 41.5788 200.571L40 220H240V74.9153C233.217 74.0943 226.255 73.8135 219.173 74.1219Z" fill="#F2CCA3"/>
<path fill-rule="evenodd" clip-rule="evenodd" d="M193.985 185.701L200.786 219.998C182.294 219.998 157.986 220.003 139.494 220.003L144.251 185.701H193.985Z" fill="#4D456C"/>
<path fill-rule="evenodd" clip-rule="evenodd" d="M121.173 127.327C117.111 128.86 110.865 133.259 109.017 137.077C109.017 137.077 108.762 137.666 109.412 138.072C110.061 138.478 114.354 137.899 114.354 137.899C114.354 137.899 122.311 131.2 122.311 131.099C122.311 130.998 121.173 127.327 121.173 127.327Z" fill="#745977"/>
<path fill-rule="evenodd" clip-rule="evenodd" d="M84.6597 118.025C84.6597 118.025 83.7295 118.038 83.3234 118.667C82.9173 119.296 84.0745 119.967 84.8049 120.332C85.5357 120.697 88.1339 121.874 89.4737 122.402C90.8136 122.929 93.0875 123.64 95.7464 123.661C95.7464 123.661 97.0862 124.391 98.0815 124.715C99.0759 125.04 102.79 124.452 105.003 124.614C107.215 124.777 108.616 125.202 110.158 127.191C111.702 129.18 115.639 138.761 115.639 138.761L121.973 130.317L120.721 128.298C120.721 128.298 117.629 123.314 116.391 121.344C115.153 119.375 114.198 117.224 111.113 117.772C108.028 118.32 84.6597 118.025 84.6597 118.025Z" fill="#FFC5B0"/>
<path fill-rule="evenodd" clip-rule="evenodd" d="M98.5732 89.8163C98.5732 89.8163 104.301 89.6838 109.689 92.3542C109.689 92.3542 110.729 90.669 110.965 89.7278C111.187 88.8417 114.129 89.2416 111.367 87.692C111.157 87.5731 113.612 85.0511 113.3 84.9393C108.874 83.3597 103.116 83.1846 98.5732 83.1846C94.0301 83.1846 88.2718 83.3597 83.8459 84.9393C83.5335 85.0511 85.9891 87.5731 85.7797 87.692C83.0173 89.2412 85.9592 88.8417 86.1814 89.7278C86.4168 90.669 87.457 92.3542 87.457 92.3542C92.8457 89.6838 98.5732 89.8163 98.5732 89.8163Z" fill="#4D456C"/>
<path fill-rule="evenodd" clip-rule="evenodd" d="M84.7388 86.4802C84.7388 86.4802 85.8124 84.3902 87.2934 84.476C87.2934 84.476 88.0388 81.9728 90.2295 82.0199C90.2295 82.0199 91.9737 79.6738 93.7522 80.2744C93.7522 80.2744 95.4005 78.0374 97.2713 79.6703C97.2713 79.6703 98.2081 79.1392 99.1576 79.8876C99.1576 79.8876 101.265 78.1276 102.824 81.2076C102.824 81.2076 104.074 80.8037 104.574 81.9451C104.574 81.9451 108.495 81.5627 109.502 84.7347C109.502 84.7347 112.836 84.9358 112.905 86.9646C112.975 88.9926 101.99 91.6999 96.9519 91.4856C91.9143 91.2722 84.7388 86.4802 84.7388 86.4802Z" fill="white"/>
<path fill-rule="evenodd" clip-rule="evenodd" d="M84.0715 91.5934C84.0715 91.5934 80.3363 100.019 82.8919 111.948C80.0156 113.674 81.2788 116.294 84.0962 117.751C86.8853 119.193 91.2981 120.265 98.5727 120.265C105.847 120.265 110.26 119.193 113.049 117.751C115.866 116.294 117.13 113.674 114.253 111.948C116.809 100.02 113.073 91.5934 113.073 91.5934L98.5722 92.7528L84.0715 91.5934Z" fill="#9E6E82"/>
<path fill-rule="evenodd" clip-rule="evenodd" d="M84.0714 91.5934C84.0714 91.5934 83.7133 92.4021 83.2939 93.8735C86.172 95.5134 94.0916 96.9011 98.573 97.1255C103.252 97.3592 111.676 96.6983 114.201 95.2186C113.655 92.9033 113.074 91.5938 113.074 91.5938L98.573 92.7532L84.0714 91.5934Z" fill="#745977"/>
<path fill-rule="evenodd" clip-rule="evenodd" d="M98.5733 87.5656C98.5733 87.5656 107.913 87.6096 113.301 84.9393C113.301 84.9393 114.362 85.3331 114.598 86.2738C114.834 87.2158 115.348 90.8397 113.4 92.4417C111.452 94.0447 103.116 95.1385 98.5733 95.1385C94.0307 95.1385 85.6945 94.0447 83.7466 92.4417C81.7982 90.8397 82.3122 87.2158 82.5485 86.2738C82.7843 85.3326 83.846 84.9393 83.846 84.9393C89.2338 87.6092 98.5733 87.5656 98.5733 87.5656Z" fill="#9E6E82"/>
<path d="M91.0891 84.2425C91.7649 83.9796 92.217 83.5202 92.0988 83.2165C91.9807 82.9128 91.337 82.8798 90.6612 83.1427C89.9854 83.4056 89.5333 83.865 89.6514 84.1687C89.7696 84.4724 90.4133 84.5055 91.0891 84.2425Z" fill="white"/>
<path d="M96.1074 81.7387C96.7137 82.1364 97.3503 82.2378 97.5292 81.9651C97.708 81.6924 97.3615 81.1489 96.7551 80.7512C96.1488 80.3534 95.5122 80.2521 95.3333 80.5248C95.1545 80.7975 95.501 81.341 96.1074 81.7387Z" fill="white"/>
<path d="M101.016 81.9147C101.237 82.6056 101.668 83.0851 101.979 82.9859C102.29 82.8866 102.364 82.2461 102.143 81.5553C101.923 80.8645 101.492 80.3849 101.181 80.4842C100.87 80.5834 100.796 81.2239 101.016 81.9147Z" fill="white"/>
<path d="M106.885 85.0228C106.169 85.135 105.629 85.4874 105.68 85.8098C105.73 86.1322 106.352 86.3026 107.068 86.1903C107.785 86.0781 108.324 85.7257 108.274 85.4033C108.223 85.0809 107.602 84.9105 106.885 85.0228Z" fill="white"/>
<path d="M102.301 85.5807C101.585 85.469 100.964 85.6397 100.914 85.9622C100.863 86.2846 101.403 86.6366 102.119 86.7484C102.835 86.8602 103.457 86.6894 103.507 86.367C103.557 86.0445 103.018 85.6925 102.301 85.5807Z" fill="white"/>
<path d="M105.893 83.0166C105.176 82.9046 104.555 83.0753 104.504 83.398C104.454 83.7207 104.994 84.0731 105.71 84.1851C106.427 84.2972 107.048 84.1264 107.099 83.8037C107.149 83.4811 106.609 83.1286 105.893 83.0166Z" fill="white"/>
<path d="M95.3581 84.6911C94.9773 84.0736 94.4435 83.712 94.1657 83.8833C93.8879 84.0546 93.9714 84.694 94.3521 85.3114C94.7328 85.9289 95.2667 86.2905 95.5445 86.1192C95.8223 85.9479 95.7388 85.3085 95.3581 84.6911Z" fill="white"/>
<path d="M99.2752 84.5306C99.6982 83.9417 99.8263 83.3099 99.5612 83.1195C99.2962 82.9291 98.7383 83.2522 98.3153 83.8411C97.8923 84.4301 97.7642 85.0619 98.0293 85.2523C98.2943 85.4427 98.8522 85.1196 99.2752 84.5306Z" fill="white"/>
<path fill-rule="evenodd" clip-rule="evenodd" d="M148.914 114.472C148.914 114.472 145.693 115.108 143.153 119.718C140.613 124.328 132.816 145.155 132.816 145.155C132.816 145.155 131.31 144.684 130.792 146.283L122.231 127.844C122.231 127.844 121.832 127.186 121.173 127.327C121.173 127.327 119.273 133.027 109.872 137.336C109.53 137.492 108.936 137.804 109.017 137.077C109.017 137.077 108.766 137.523 109.025 138.216C109.284 138.911 117.788 159.103 119.058 162.349C123.74 174.315 135.18 170.911 143.208 159.97C145.465 156.896 147.937 155.781 149.636 152.039C152.287 146.202 148.914 114.472 148.914 114.472Z" fill="white"/>
<path fill-rule="evenodd" clip-rule="evenodd" d="M135.266 167.612C138.038 165.898 140.779 163.28 143.208 159.97C145.464 156.896 147.937 155.781 149.636 152.039C149.852 151.563 150.028 150.911 150.169 150.122C150.023 149.798 149.865 149.473 149.688 149.15C150.307 149.232 142.216 146.597 142.216 146.597L137.914 162.304C137.914 162.304 137.393 165.077 135.266 167.612Z" fill="#EFE9ED"/>
<path fill-rule="evenodd" clip-rule="evenodd" d="M125.388 134.642L122.232 127.844C122.232 127.844 121.832 127.186 121.174 127.327C121.174 127.327 119.274 133.028 109.872 137.336C109.531 137.492 108.937 137.804 109.018 137.077C109.018 137.077 108.766 137.523 109.025 138.216C109.121 138.472 110.332 141.368 111.889 145.087C122.853 141.972 125.388 134.642 125.388 134.642Z" fill="#9E6E82"/>
<path fill-rule="evenodd" clip-rule="evenodd" d="M172.382 74.1539C177.887 74.1539 179.219 80.6862 179.859 86.1532L182.391 107.768C183.101 113.825 170.312 121.638 168.005 120.703C167.493 120.495 165.884 116.393 165.884 116.393C164.109 113.804 162.403 112.886 162.399 109.524L162.373 84.1626C162.367 78.6591 166.877 74.1539 172.382 74.1539Z" fill="#FFC5B0"/>
<path fill-rule="evenodd" clip-rule="evenodd" d="M181.844 103.095C179.497 105.043 176.601 107.401 175.511 108.109C174.348 108.866 172.821 109.335 171.272 109.516C169.725 109.704 168.115 109.608 166.773 109.149C165.628 108.758 163.859 107.529 162.395 106.417L162.372 84.1631C162.366 78.6587 166.876 74.1539 172.381 74.1539C177.887 74.1539 179.218 80.6862 179.859 86.1532L181.844 103.095Z" fill="#EE8B83"/>
<path fill-rule="evenodd" clip-rule="evenodd" d="M201.118 115.6C194.789 130.133 195.683 138.288 201.802 149.689L193.029 178.263C193.029 178.263 196.129 179.838 193.852 185.033C193.852 185.033 200.67 209.858 200.752 210.751C200.833 211.643 199.778 211.806 199.778 211.806C199.778 211.806 162.995 215.622 162.102 215.622C161.209 215.622 161.046 214.485 161.046 214.485L158.101 194.652C158.101 194.652 156.216 214.201 155.972 214.87C155.728 215.541 155.12 215.5 155.12 215.5C155.12 215.5 142.168 214.525 140.829 214.16C139.489 213.794 139.895 212.536 139.895 212.536L144.948 180.666C144.361 178.038 144.364 176.371 145.33 174.643C144.057 165.587 142.216 155.738 142.216 146.597C142.216 144.883 147.883 120.172 148.914 114.472C152.979 113.087 157.824 112.126 160.809 111.326L162.401 109.722L165.554 111.968L166.463 116.778L168.457 112.336L182.18 105.976L184.342 109.381C184.342 109.381 195.388 113.371 198.911 114.713C199.572 114.964 200.319 115.254 201.118 115.6Z" fill="white"/>
<path fill-rule="evenodd" clip-rule="evenodd" d="M197.376 164.104L193.029 178.263L187.737 152.859L196.133 151.83L197.376 164.104Z" fill="#EFE9ED"/>
<path fill-rule="evenodd" clip-rule="evenodd" d="M160.81 111.326L162.401 109.72L165.554 111.967L166.464 116.777L184.343 109.38L182.181 105.975L168.458 112.336L166.464 116.777L160.81 111.326Z" fill="white"/>
<path fill-rule="evenodd" clip-rule="evenodd" d="M186.703 85.5914C186.703 85.5914 188.57 84.1011 189.652 84.3634C190.734 84.6256 191.753 87.1719 191.342 88.9249C190.929 90.6787 187.952 96.5417 184.686 93.672C181.42 90.8019 186.703 85.5914 186.703 85.5914Z" fill="#FFC5B0"/>
<path fill-rule="evenodd" clip-rule="evenodd" d="M185.037 87.3817C184.895 87.4847 184.828 87.6875 184.889 87.8345C184.943 87.9669 185.082 88.0074 185.214 87.9392H185.214C185.214 87.9392 185.391 93.5466 186.326 92.8127C187.261 92.0787 188.231 91.3827 188.775 90.0473C189.318 88.711 188.271 87.2585 188.769 86.962C189.244 86.679 189.62 87.284 189.654 87.3417L189.656 87.3443L189.656 87.3452L189.657 87.3461C189.946 87.8679 190.033 88.4426 190.033 88.4452C190.059 88.612 190.205 88.6921 190.358 88.6247C190.51 88.5574 190.613 88.3678 190.587 88.2019C190.586 88.1957 190.265 86.0292 188.732 85.8756C187.268 85.7282 185.043 87.3764 185.037 87.3817Z" fill="#EE8B83"/>
<path fill-rule="evenodd" clip-rule="evenodd" d="M159.908 81.733C159.908 81.733 158.537 79.7763 157.424 79.7231C156.312 79.6698 154.616 81.8241 154.517 83.6228C154.418 85.4215 155.62 91.8856 159.563 90.0543C163.506 88.223 159.908 81.733 159.908 81.733Z" fill="#EE8B83"/>
<path fill-rule="evenodd" clip-rule="evenodd" d="M174.947 63.1592C155.57 60.6688 156.199 76.3447 156.118 88.8993C156.084 94.1837 158.464 97.6487 158.464 97.6487C158.464 97.6487 161.41 102.643 163.144 103.93C164.178 104.697 165.542 105.181 166.929 105.377C168.314 105.579 169.761 105.498 170.969 105.053C172.509 104.486 177.762 101.792 180.206 100.526C183.326 98.9076 184.652 96.73 185.69 93.1449C189.181 81.08 194.239 66.2203 174.947 63.1592Z" fill="#FFC5B0"/>
<path fill-rule="evenodd" clip-rule="evenodd" d="M158.202 70.6124C157.576 72.0956 157.141 73.7267 156.838 75.4462C156.902 75.3965 165.408 68.8563 183.123 78.7652C185.207 79.9312 187.039 80.7733 188.646 81.3555C189.268 77.3088 189.183 73.4561 187.488 70.3075C179.048 67.5275 167.254 64.4123 165.461 66.0174C163.939 67.3841 160.275 68.4273 158.202 70.6124Z" fill="#FFA89E"/>
<path fill-rule="evenodd" clip-rule="evenodd" d="M157.25 70.1675C155.783 72.346 155.08 77.5231 156.222 81.7277C156.222 81.7277 157.522 73.0394 158.894 72.0186C160.265 70.9974 157.25 70.1675 157.25 70.1675Z" fill="#493B65"/>
<path fill-rule="evenodd" clip-rule="evenodd" d="M186.278 91.0676C186.278 91.0676 184.5 88.3898 185.082 84.7848C181.927 81.7083 181.552 77.0984 182.745 72.61C182.753 72.5765 182.822 72.5101 182.788 72.5127C182.747 72.5162 182.704 72.5369 182.667 72.522C174.688 69.3038 162.483 70.7646 156.498 71.6332L162.284 67.4721L177.143 67.025L182.745 71.1663L191.839 77.3976L191.475 81.0096C191.475 81.0096 191.624 83.3746 190.481 85.0066C189.7 84.3928 189.014 84.9617 188.535 85.6965C187.499 87.2889 186.278 91.0676 186.278 91.0676Z" fill="#493B65"/>
<path fill-rule="evenodd" clip-rule="evenodd" d="M165.465 95.293C165.282 95.2362 165.179 95.0422 165.235 94.8583C165.292 94.6743 165.487 94.5714 165.67 94.6282C165.673 94.629 166.646 94.9142 167.944 94.9014C168.136 94.8996 168.293 95.0545 168.295 95.2468C168.296 95.4386 168.142 95.5966 167.95 95.5975C166.55 95.612 165.468 95.2939 165.465 95.293Z" fill="#EE8B83"/>
<path fill-rule="evenodd" clip-rule="evenodd" d="M166.875 88.7611C166.726 88.5671 167.004 87.8983 167.233 87.4574C167.406 87.1239 167.527 86.9686 167.627 87.0029C167.732 86.9831 167.82 87.1534 167.924 87.5058C168.061 87.9735 168.2 88.6709 168.012 88.8421C167.764 89.0678 167.074 89.019 166.875 88.7611Z" fill="#F9D4C8"/>
<path fill-rule="evenodd" clip-rule="evenodd" d="M167.402 84.7699C167.472 84.6203 167.653 84.5551 167.804 84.6264C167.955 84.6977 168.019 84.8772 167.948 85.0286C167.713 85.5297 166.358 88.3783 166.373 88.6586C166.397 88.8443 166.694 89.1417 166.828 89.2557C167.061 89.4532 167.343 89.6138 167.641 89.6794C167.805 89.7155 167.908 89.877 167.872 90.0402C167.837 90.2034 167.675 90.3064 167.512 90.2703C167.116 90.1836 166.743 89.979 166.436 89.7177C166.177 89.4959 165.816 89.0827 165.772 88.7312C165.724 88.3391 167.119 85.3199 167.402 84.7699Z" fill="#EE8B83"/>
<path fill-rule="evenodd" clip-rule="evenodd" d="M163.093 92.997C162.914 92.9143 162.837 92.7022 162.919 92.5236C163.002 92.3449 163.214 92.2666 163.393 92.3498C163.407 92.3568 168.386 94.713 170.927 92.4013C171.073 92.2688 171.299 92.2794 171.431 92.4246C171.564 92.5707 171.553 92.7959 171.407 92.9288C168.512 95.5631 163.108 93.0045 163.093 92.997Z" fill="#EE8B83"/>
<path fill-rule="evenodd" clip-rule="evenodd" d="M170.392 92.5773C170.2 92.5368 170.075 92.3481 170.116 92.1545C170.156 91.9617 170.345 91.8372 170.538 91.8777C170.543 91.8786 171.969 92.1465 171.66 93.4916C171.616 93.6835 171.425 93.8027 171.234 93.7587C171.043 93.7156 170.923 93.5242 170.967 93.3323C171.109 92.7124 170.395 92.5782 170.392 92.5773Z" fill="#EE8B83"/>
<path fill-rule="evenodd" clip-rule="evenodd" d="M165.443 166.314C165.443 166.314 163.496 149.259 163.608 148.141C163.691 147.309 166.783 129.741 168.365 120.777C168.91 117.682 169.276 115.613 169.276 115.613L166.464 116.777L166.095 116.92L163.539 117.917C163.539 117.917 158.114 147.023 158.003 148.142C157.891 149.26 159.837 166.314 159.837 166.314L158.671 185.702L158.124 194.801L161.047 214.486C161.047 214.486 161.209 215.622 162.102 215.622C162.303 215.622 164.323 215.429 167.333 215.13L163.818 193.323L164.277 185.702L165.443 166.314Z" fill="#9E6E82"/>
<path d="M101.39 124.202C101.385 124.202 101.382 124.202 101.379 124.202L95.7369 123.817C95.6502 123.811 95.5847 123.736 95.5904 123.65C95.5965 123.563 95.6735 123.502 95.7576 123.504L101.4 123.888C101.486 123.894 101.552 123.97 101.546 124.056C101.54 124.139 101.471 124.202 101.39 124.202ZM101.959 123.072C100.071 123.072 97.5853 123.057 96.847 122.984C95.637 122.862 90.6734 122.134 90.21 122.058C89.9548 122.017 89.598 121.851 89.4312 121.518C89.3384 121.332 89.2724 121.024 89.4867 120.612C89.8871 119.844 90.6302 119.592 90.6615 119.581C90.7438 119.553 90.8322 119.599 90.8595 119.681C90.8868 119.764 90.8423 119.852 90.7596 119.879C90.753 119.882 90.1049 120.106 89.7643 120.758C89.6424 120.993 89.6244 121.202 89.7128 121.377C89.8184 121.588 90.064 121.716 90.2598 121.748C90.7226 121.823 95.6718 122.55 96.8774 122.67C98.0737 122.79 104.169 122.752 104.23 122.751C104.23 122.751 104.23 122.751 104.231 122.751C104.317 122.751 104.387 122.82 104.388 122.907C104.388 122.994 104.319 123.064 104.232 123.065C104.134 123.065 103.169 123.072 101.959 123.072Z" fill="#EE8B83"/>
<path fill-rule="evenodd" clip-rule="evenodd" d="M201.118 115.6C201.118 115.6 207.138 118.409 209.898 127.665C211.41 132.733 212.884 142.582 213.963 151.526C214.79 158.389 217.275 168.173 213.952 174.758C213.15 176.346 211.983 177.825 210.299 178.535C209.355 178.932 208.295 179.325 207.164 179.596C204.529 179.001 202.091 176.775 201.048 172.568C196.029 152.336 191.914 128.342 201.118 115.6Z" fill="white"/>
<path fill-rule="evenodd" clip-rule="evenodd" d="M199.001 134.087C194.716 134.791 187.727 137.874 185.162 141.252C185.162 141.252 184.797 141.778 185.353 142.305C185.91 142.83 190.233 143.11 190.233 143.11C190.233 143.11 199.354 138.11 199.374 138.01C199.395 137.911 199.001 134.087 199.001 134.087Z" fill="#745977"/>
<path d="M158.124 195.193C158.115 195.193 158.108 195.193 158.1 195.192C157.883 195.18 157.718 194.993 157.731 194.776L159.443 166.324C159.225 164.419 157.5 149.223 157.612 148.102C157.724 146.98 162.931 119.034 163.153 117.846C163.178 117.711 163.27 117.601 163.396 117.552L165.749 116.634L160.536 111.608C160.381 111.458 160.376 111.21 160.527 111.053C160.677 110.897 160.926 110.892 161.082 111.043L166.552 116.315L184.193 109.016C184.392 108.935 184.624 109.029 184.707 109.229C184.79 109.43 184.694 109.66 184.494 109.743L166.623 117.136C166.614 117.14 166.605 117.143 166.596 117.147L163.886 118.203C162.001 128.322 158.481 147.314 158.395 148.179C158.316 148.969 159.448 159.429 160.228 166.268C160.231 166.291 160.231 166.314 160.23 166.336L158.516 194.824C158.503 195.033 158.33 195.193 158.124 195.193Z" fill="#E5DBE2"/>
<path d="M143.253 160.722C143.059 160.722 142.89 160.577 142.864 160.379C142.154 154.88 141.823 150.5 141.823 146.596C141.823 145.648 143.261 138.983 145.453 128.925C146.807 122.712 148.086 116.844 148.528 114.402C148.566 114.188 148.77 114.047 148.984 114.086C149.197 114.124 149.339 114.328 149.301 114.542C148.857 116.996 147.576 122.872 146.221 129.091C144.527 136.858 142.61 145.66 142.61 146.596C142.61 150.466 142.938 154.813 143.644 160.278C143.671 160.493 143.519 160.69 143.304 160.718C143.287 160.72 143.27 160.722 143.253 160.722ZM196.087 130.16C196.071 130.16 196.054 130.158 196.037 130.156C195.822 130.128 195.67 129.932 195.697 129.717C196.442 123.853 198.158 119.026 200.8 115.37C200.926 115.195 201.171 115.153 201.348 115.281C201.524 115.409 201.563 115.654 201.436 115.83C198.873 119.379 197.204 124.084 196.477 129.816C196.451 130.014 196.282 130.16 196.087 130.16Z" fill="#E5DBE2"/>
<path fill-rule="evenodd" clip-rule="evenodd" d="M193.817 128.558L196.671 130.95C196.671 130.95 196.421 131.338 196.598 132.232C196.775 133.126 197.836 136.779 197.836 136.779L194.75 141.042L189.371 141.346C189.371 141.346 188.356 135.947 188.173 134.729C187.991 133.51 187.362 132.645 186.81 132.36L193.817 128.558Z" fill="#FFC5B0"/>
<path fill-rule="evenodd" clip-rule="evenodd" d="M211.453 177.878L209.502 155.971C209.502 155.971 208.118 155.212 207.296 156.679L199.936 134.803C199.936 134.803 199.674 134.079 199 134.088C199 134.088 196.014 139.302 185.949 141.674C185.583 141.76 184.94 141.949 185.162 141.252C185.162 141.252 184.828 141.64 184.945 142.371C184.945 142.371 188.781 158.438 193.572 170.374C198.362 182.309 205.71 180.466 210.299 178.534C210.715 178.359 211.099 178.136 211.453 177.878Z" fill="white"/>
<path fill-rule="evenodd" clip-rule="evenodd" d="M202.546 142.559L199.937 134.803C199.937 134.803 199.674 134.079 199.001 134.088C199.001 134.088 196.015 139.302 185.949 141.674C185.584 141.76 184.941 141.949 185.162 141.252C185.162 141.252 184.829 141.64 184.946 142.371C184.946 142.371 185.743 145.707 187.063 150.467C199.792 148.556 202.546 142.559 202.546 142.559Z" fill="#9E6E82"/>
<path fill-rule="evenodd" clip-rule="evenodd" d="M185.086 104.877C185.086 104.877 188.608 106.98 189.467 107.58C190.325 108.179 191.427 109.158 192.689 110.517C193.95 111.875 193.495 115.311 193.495 115.311L193.164 116.409L191.305 116.737L189.872 116.22C189.872 116.22 190.037 115.752 190.054 115.637C190.071 115.522 189.639 112.203 189.639 112.203L187.409 109.133C187.409 109.133 185.17 107.765 184.607 107.163C184.044 106.562 184.158 105.488 184.367 105.173C184.575 104.858 184.882 104.792 185.086 104.877Z" fill="#FFC5B0"/>
<path fill-rule="evenodd" clip-rule="evenodd" d="M189.955 104.344C189.955 104.344 189.028 105.627 189.505 106.413C189.981 107.198 191.966 109.43 191.966 109.43L193.148 112.558L192.643 115.976L194.779 117.75L197.132 115.979L196.474 115.371L196.251 111.804C196.251 111.804 196.103 111.254 195.817 110.804C195.531 110.355 194.405 108.44 194.023 107.876C193.643 107.312 192.956 106.559 192.489 106.072C192.021 105.585 190.526 104.358 190.526 104.358C190.526 104.358 190.168 104.124 189.955 104.344Z" fill="#FFC5B0"/>
<path fill-rule="evenodd" clip-rule="evenodd" d="M198.353 106.982C198.353 106.982 196.771 107.361 196.556 108.762C196.342 110.162 196.525 111.837 196.525 111.837L196.297 114.481L194.983 117.035C194.983 117.035 193.738 115.991 192.497 115.793C191.255 115.596 189.872 116.22 189.872 116.22L187.252 114.288C187.252 114.288 186.601 113.802 185.794 114C184.986 114.199 182.507 114.758 182.507 114.758C182.507 114.758 181.883 114.845 181.427 115.289C180.973 115.732 179.157 117.384 179.157 117.384C179.157 117.384 178.889 117.676 179.099 117.98C178.386 117.946 177.881 118.271 177.745 118.441C177.552 118.682 177.775 119.257 178.091 120.093C178.407 120.929 178.705 122.632 179.114 123.232C179.523 123.833 182.384 126.227 182.915 126.871C183.447 127.515 183.639 131.662 187.926 132.748C187.926 132.748 188.724 132.895 189.291 132.774C189.291 132.774 190.58 133.672 192.13 133.442C193.679 133.211 196.898 131.665 196.993 130.142C197.088 128.62 197.311 121.854 197.45 121.072C197.59 120.29 198.955 116.398 199.197 115.356C199.438 114.315 198.823 107.683 198.823 107.683C198.823 107.683 198.832 106.96 198.353 106.982ZM180.332 118.395C181.043 118.367 183.162 118.002 184.236 116.899C185.546 117.971 187.628 118.291 187.678 118.302C187.678 118.302 188.077 120.067 188.508 120.649C188.508 120.649 186.118 122.407 185.481 123.134C184.17 121.965 183.072 121.744 182.469 121.518C182.469 121.519 181.46 119.194 180.332 118.395Z" fill="#FFC5B0"/>
<path d="M189.29 132.969C189.241 132.969 189.19 132.95 189.152 132.912C189.133 132.893 187.257 130.988 188.221 128.217C188.257 128.114 188.37 128.062 188.471 128.096C188.574 128.132 188.628 128.244 188.592 128.346C187.709 130.886 189.411 132.616 189.429 132.633C189.506 132.709 189.506 132.834 189.43 132.911C189.392 132.949 189.341 132.969 189.29 132.969ZM184.31 124.877C184.273 124.877 184.236 124.867 184.203 124.846C184.112 124.786 184.085 124.665 184.145 124.574C184.722 123.68 185.311 123.029 185.336 123.002C185.409 122.922 185.533 122.916 185.613 122.99C185.693 123.062 185.699 123.186 185.626 123.266C185.621 123.273 185.034 123.921 184.475 124.788C184.437 124.844 184.374 124.877 184.31 124.877ZM193.053 124.725C192.958 124.725 192.875 124.656 192.86 124.559C192.239 120.695 188.673 120.837 188.519 120.845C188.427 120.865 188.318 120.768 188.313 120.659C188.307 120.551 188.389 120.458 188.498 120.453C188.537 120.45 192.571 120.279 193.247 124.497C193.265 124.604 193.191 124.705 193.084 124.722C193.074 124.723 193.063 124.725 193.053 124.725ZM181.078 123.234C181.005 123.234 180.935 123.193 180.901 123.122C180.854 123.024 180.895 122.907 180.993 122.861C181.883 122.434 182.283 121.455 182.286 121.445C182.327 121.344 182.442 121.294 182.542 121.336C182.642 121.377 182.691 121.491 182.651 121.591C182.633 121.637 182.188 122.724 181.163 123.215C181.135 123.228 181.106 123.234 181.078 123.234ZM187.678 118.499C187.629 118.499 187.58 118.481 187.541 118.444C187.464 118.368 187.461 118.244 187.537 118.165L188.366 117.311C188.442 117.233 188.566 117.231 188.644 117.306C188.722 117.382 188.724 117.506 188.648 117.585L187.82 118.44C187.78 118.479 187.73 118.499 187.678 118.499ZM196.055 118.362C195.998 118.362 195.942 118.338 195.903 118.291C194.102 116.103 189.932 116.412 189.888 116.416C189.77 116.417 189.685 116.343 189.676 116.236C189.667 116.128 189.748 116.033 189.856 116.024C189.946 116.017 191.056 115.936 192.383 116.149L192.945 112.579L191.794 109.533C191.556 109.264 189.794 107.269 189.337 106.515C189.281 106.422 189.31 106.301 189.403 106.245C189.495 106.189 189.616 106.218 189.672 106.311C190.076 106.977 191.622 108.744 192.018 109.194C192.221 109.106 192.482 108.979 192.58 108.896C192.663 108.825 192.788 108.836 192.857 108.919C192.927 109.002 192.917 109.125 192.834 109.196C192.693 109.315 192.405 109.453 192.216 109.537L193.283 112.362C193.513 112.359 193.895 112.327 194.104 112.207C194.199 112.155 194.317 112.187 194.372 112.28C194.425 112.375 194.393 112.495 194.299 112.548C194.006 112.716 193.562 112.75 193.314 112.755L192.77 116.219C193.995 116.466 195.336 116.983 196.206 118.041C196.275 118.125 196.263 118.249 196.18 118.318C196.143 118.348 196.099 118.362 196.055 118.362ZM184.236 117.095C184.199 117.095 184.162 117.085 184.129 117.063C184.038 117.003 184.012 116.882 184.072 116.79C184.126 116.707 184.267 116.447 184.262 116.255C184.258 116.146 184.344 116.056 184.452 116.052C184.454 116.052 184.457 116.052 184.458 116.052C184.564 116.052 184.651 116.136 184.655 116.243C184.664 116.594 184.427 116.965 184.4 117.006C184.363 117.064 184.299 117.095 184.236 117.095ZM197.183 114.944C197.164 114.944 197.144 114.942 197.125 114.935C196.786 114.829 196.243 114.702 196.238 114.7C196.132 114.676 196.066 114.571 196.091 114.465C196.115 114.359 196.218 114.292 196.326 114.318C196.349 114.323 196.89 114.45 197.242 114.561C197.345 114.593 197.403 114.703 197.37 114.807C197.344 114.89 197.266 114.944 197.183 114.944ZM189.646 112.399C189.64 112.399 189.636 112.399 189.635 112.399C189.527 112.396 189.441 112.307 189.444 112.199C189.445 112.091 189.533 112.006 189.64 112.006C189.641 112.006 189.642 112.006 189.643 112.006C189.643 112.004 190.031 112.01 190.318 111.78C190.403 111.712 190.526 111.726 190.594 111.81C190.662 111.895 190.648 112.019 190.564 112.086C190.19 112.386 189.722 112.399 189.646 112.399ZM197.177 112.139C196.782 112.139 196.472 112.027 196.456 112.02C196.355 111.983 196.303 111.87 196.34 111.769C196.378 111.668 196.489 111.615 196.592 111.652C196.596 111.653 197.012 111.802 197.449 111.722C197.559 111.701 197.659 111.774 197.678 111.879C197.698 111.986 197.627 112.088 197.521 112.108C197.403 112.131 197.287 112.139 197.177 112.139ZM187.409 109.33C187.331 109.33 187.258 109.283 187.227 109.207C187.187 109.106 187.237 108.992 187.337 108.951C187.34 108.951 187.628 108.833 187.781 108.648C187.85 108.565 187.974 108.553 188.058 108.621C188.141 108.691 188.153 108.815 188.084 108.898C187.866 109.163 187.497 109.311 187.482 109.317C187.458 109.326 187.434 109.33 187.409 109.33Z" fill="#EE8B83"/>
<path fill-rule="evenodd" clip-rule="evenodd" d="M185.082 84.7844C185.082 84.7844 184.314 88.2296 183.746 90.3474C183.178 92.4642 174.429 97.8437 173.516 98.3105C172.602 98.7774 171.1 98.5745 170.227 97.6206C169.354 96.6658 168.502 96.829 167.02 96.6055C165.538 96.382 164.441 96.2403 163.833 96.0366C163.223 95.8337 162.148 95.7528 161.011 96.3613C159.875 96.9707 158.717 95.9961 158.352 95.1034C157.987 94.2097 156.372 90.6585 156.124 89.4401V87.8966C156.124 87.8966 155.59 89.1145 155.59 89.8044C155.59 90.4943 156.991 95.5887 157.579 97.7209C158.168 99.8523 161.882 103.608 164.115 105.637C166.348 107.667 169.434 107.302 173.94 104.786C178.447 102.267 181.938 99.5685 183.014 98.7149C184.09 97.8622 185.158 95.4364 186.278 91.0672C187.399 86.698 185.082 84.7844 185.082 84.7844Z" fill="#493B65"/>
<path fill-rule="evenodd" clip-rule="evenodd" d="M190.92 84.2208C184.573 75.4071 164.356 66.3431 155.701 75.8401L155.675 76.2902C155.675 76.2902 155.234 75.8031 155.172 75.3165C155.111 74.8294 155.253 73.6827 155.538 72.9514C155.821 72.221 161.231 58.5893 161.231 58.5893C161.231 58.5893 161.535 57.767 162.002 57.4018C166.083 54.2091 172.216 50.9461 177.571 52.4826C182.926 54.0182 188.331 58.6391 189.893 59.9375C191.456 61.2368 192.673 63.9235 192.555 66.578C192.455 68.8229 192.261 77.113 192.069 80.4508C191.996 81.7141 191.937 83.3579 190.92 84.2208Z" fill="white"/>
<path fill-rule="evenodd" clip-rule="evenodd" d="M190.92 84.2208C189.681 82.5004 187.911 80.7703 185.803 79.17C186.952 78.3089 187.442 77.2124 187.697 74.5592C188.031 71.0986 188.785 63.7286 188.785 61.4555C188.785 59.1895 187.425 57.9456 187.415 57.9373C188.538 58.7992 189.405 59.5314 189.894 59.9379C191.457 61.2373 192.674 63.9239 192.556 66.5784C192.456 68.8233 192.262 77.1134 192.07 80.4513C191.996 81.7141 191.937 83.3579 190.92 84.2208Z" fill="#EFE9ED"/>
<path fill-rule="evenodd" clip-rule="evenodd" d="M155.36 73.53C155.411 73.3228 155.47 73.1261 155.538 72.9519C155.645 72.6751 156.489 70.5464 157.495 68.0089C173.318 57.4849 192.272 75.4502 192.272 75.4502C192.207 77.4166 192.138 79.2531 192.069 80.4517C192.046 80.8504 192.024 81.286 191.974 81.7246C188.542 78.1065 182.853 73.3114 175.082 70.7915C161.579 66.413 155.363 73.527 155.36 73.53Z" fill="#9E6E82"/>
<path fill-rule="evenodd" clip-rule="evenodd" d="M187.947 71.9927C190.644 73.9076 192.272 75.4498 192.272 75.4498C192.207 77.4161 192.138 79.2527 192.069 80.4513C192.046 80.8499 192.024 81.2855 191.974 81.7242C190.685 80.3663 189.079 78.8417 187.164 77.3343C187.416 76.6475 187.58 75.7635 187.696 74.5592C187.765 73.8438 187.853 72.962 187.947 71.9927Z" fill="#745977"/>
<path fill-rule="evenodd" clip-rule="evenodd" d="M92.3633 102.716C91.3134 102.716 90.6855 103.334 90.6855 104.394V104.888L91.7349 104.94V104.58C91.7349 103.972 91.9413 103.726 92.3426 103.726C92.743 103.726 92.9494 103.972 92.9494 104.447V104.59C92.9494 105.176 92.805 105.681 92.3012 106.494L90.6855 109.098V110.023H94.0401V108.995H91.9308L93.1452 107.05C93.8342 105.939 94.0401 105.331 94.0401 104.632V104.364C94.0406 103.324 93.4127 102.716 92.3633 102.716ZM96.0879 108.87H94.936V110.023H96.0879V108.87ZM98.753 110.126C99.8437 110.126 100.492 109.467 100.492 108.357V106.998C100.492 105.866 99.926 105.228 99.0205 105.228C98.5884 105.228 98.32 105.372 98.1665 105.548H98.1458L98.2386 103.85H100.225V102.82H97.2816L97.0554 106.947L98.0639 106.988L98.0736 106.844C98.115 106.453 98.3517 106.237 98.7222 106.237C99.1653 106.237 99.4011 106.535 99.4011 107.071V108.285C99.4011 108.82 99.1745 109.118 98.7222 109.118C98.2905 109.118 98.0639 108.851 98.0639 108.264V108.07L97.0141 108.121V108.399C97.0141 109.488 97.6622 110.126 98.753 110.126ZM102.19 102.716C101.511 102.716 101.089 103.149 101.089 103.849V105.413C101.089 106.113 101.511 106.545 102.19 106.545C102.869 106.545 103.291 106.113 103.291 105.413V103.849C103.291 103.15 102.869 102.716 102.19 102.716ZM105.823 102.716L102.406 110.126H101.727L105.144 102.716H105.823ZM102.19 103.386C102.427 103.386 102.55 103.541 102.55 103.849V105.413C102.55 105.722 102.427 105.877 102.19 105.877C101.953 105.877 101.83 105.722 101.83 105.413V103.849C101.83 103.54 101.953 103.386 102.19 103.386ZM105.36 106.298C104.681 106.298 104.258 106.73 104.258 107.43V108.994C104.258 109.694 104.681 110.126 105.36 110.126C106.039 110.126 106.46 109.694 106.46 108.994V107.43C106.46 106.73 106.039 106.298 105.36 106.298ZM105.36 106.967C105.123 106.967 105 107.122 105 107.43V108.995C105 109.303 105.123 109.457 105.36 109.457C105.597 109.457 105.72 109.303 105.72 108.995V107.43C105.72 107.121 105.597 106.967 105.36 106.967Z" fill="white"/>
<path d="M87.8651 91.7611C87.8145 91.7611 87.7643 91.7413 87.726 91.7034C87.6486 91.6269 87.6486 91.5024 87.726 91.4249L89.5155 89.6359C89.5925 89.5602 89.7162 89.5602 89.7932 89.6359C89.8702 89.7124 89.8702 89.8369 89.7932 89.9144L88.0041 91.7034C87.965 91.7413 87.9152 91.7611 87.8651 91.7611Z" fill="#745977"/>
<path d="M90.6875 91.7611C90.6378 91.7611 90.5877 91.7413 90.5489 91.7034L88.7599 89.9144C88.6829 89.8369 88.6829 89.7124 88.7599 89.6359C88.8369 89.5602 88.9605 89.5602 89.0375 89.6359L90.827 91.4249C90.9045 91.5024 90.9045 91.6269 90.827 91.7034C90.7883 91.7413 90.7386 91.7611 90.6875 91.7611Z" fill="#745977"/>
<path d="M88.8985 92.7942C88.8479 92.7942 88.7977 92.7744 88.7599 92.7366C88.6829 92.66 88.6829 92.5355 88.7599 92.458L90.5489 90.669C90.6259 90.5933 90.7505 90.5933 90.827 90.669C90.9045 90.7456 90.9045 90.8701 90.827 90.9475L89.0375 92.7366C88.9993 92.7744 88.9482 92.7942 88.8985 92.7942Z" fill="#745977"/>
<path d="M89.6546 92.7942C89.6049 92.7942 89.5539 92.7744 89.516 92.7366L87.7265 90.9475C87.6491 90.8701 87.6491 90.7456 87.7265 90.669C87.8031 90.5933 87.9276 90.5933 88.0046 90.669L89.7937 92.458C89.8707 92.5355 89.8707 92.66 89.7937 92.7366C89.7549 92.7744 89.7052 92.7942 89.6546 92.7942Z" fill="#745977"/>
<path d="M87.1166 114.745C87.1034 114.745 87.0902 114.744 87.0774 114.741C83.982 114.122 82.7738 112.132 82.7232 112.047C82.6691 111.954 82.699 111.834 82.7918 111.778C82.8855 111.724 83.0057 111.754 83.0615 111.847C83.0725 111.866 84.2399 113.772 87.1544 114.356C87.2605 114.376 87.33 114.48 87.3089 114.587C87.29 114.681 87.2081 114.745 87.1166 114.745Z" fill="#745977"/>
<path d="M109.607 114.867C109.515 114.867 109.433 114.802 109.415 114.708C109.393 114.602 109.463 114.499 109.57 114.478C113.331 113.741 114.064 111.9 114.071 111.88C114.108 111.779 114.222 111.725 114.322 111.764C114.424 111.802 114.476 111.914 114.439 112.015C114.409 112.099 113.647 114.079 109.645 114.863C109.633 114.866 109.621 114.867 109.607 114.867Z" fill="#745977"/>
<path fill-rule="evenodd" clip-rule="evenodd" d="M110.277 114.521C110.508 114.464 113.303 113.851 114.101 117.1C116.133 115.601 116.741 113.441 114.255 111.947C114.255 111.948 113.628 113.674 110.277 114.521Z" fill="#745977"/>
<path d="M109.313 101.137C109.264 101.137 109.213 101.118 109.175 101.079C109.098 101.003 109.098 100.878 109.175 100.802L110.964 99.0118C111.041 98.9362 111.165 98.9362 111.242 99.0118C111.319 99.0884 111.319 99.2129 111.242 99.2904L109.453 101.079C109.414 101.118 109.364 101.137 109.313 101.137Z" fill="#745977"/>
<path d="M112.137 101.137C112.087 101.137 112.036 101.118 111.998 101.079L110.209 99.2904C110.132 99.2129 110.132 99.0884 110.209 99.0118C110.285 98.9362 110.41 98.9362 110.487 99.0118L112.276 100.802C112.353 100.878 112.353 101.003 112.276 101.079C112.238 101.118 112.188 101.137 112.137 101.137Z" fill="#745977"/>
<path d="M110.347 102.17C110.297 102.17 110.247 102.151 110.209 102.112C110.132 102.036 110.132 101.911 110.209 101.834L111.998 100.045C112.075 99.9688 112.2 99.9688 112.276 100.045C112.353 100.122 112.353 100.246 112.276 100.323L110.487 102.112C110.449 102.151 110.398 102.17 110.347 102.17Z" fill="#745977"/>
<path d="M111.104 102.17C111.053 102.17 111.003 102.151 110.965 102.112L109.176 100.323C109.098 100.246 109.098 100.122 109.176 100.045C109.252 99.9688 109.376 99.9688 109.453 100.045L111.243 101.834C111.319 101.911 111.319 102.036 111.243 102.112C111.204 102.151 111.154 102.17 111.104 102.17Z" fill="#745977"/>
<path d="M90.8007 116.159C90.7501 116.159 90.7 116.139 90.6626 116.101C90.5851 116.024 90.5851 115.9 90.6626 115.823L92.4516 114.033C92.5291 113.957 92.6523 113.957 92.7293 114.033C92.8058 114.11 92.8058 114.235 92.7293 114.311L90.9393 116.101C90.9015 116.139 90.8509 116.159 90.8007 116.159Z" fill="#745977"/>
<path d="M93.6234 116.159C93.5737 116.159 93.5231 116.139 93.4848 116.101L91.6958 114.311C91.6183 114.235 91.6183 114.11 91.6958 114.033C91.7723 113.957 91.896 113.957 91.9734 114.033L93.7629 115.823C93.8399 115.9 93.8399 116.024 93.7629 116.101C93.7246 116.139 93.6745 116.159 93.6234 116.159Z" fill="#745977"/>
<path d="M91.8339 117.192C91.7842 117.192 91.7332 117.172 91.6958 117.134C91.6183 117.057 91.6183 116.933 91.6958 116.856L93.4848 115.066C93.5623 114.99 93.6859 114.99 93.7629 115.066C93.8399 115.143 93.8399 115.268 93.7629 115.344L91.9734 117.134C91.9343 117.172 91.8845 117.192 91.8339 117.192Z" fill="#745977"/>
<path d="M92.5907 117.192C92.5406 117.192 92.49 117.172 92.4521 117.134L90.6631 115.344C90.5856 115.268 90.5856 115.143 90.6631 115.066C90.7396 114.99 90.8633 114.99 90.9398 115.066L92.7298 116.856C92.8063 116.933 92.8063 117.057 92.7298 117.134C92.6915 117.172 92.6409 117.192 92.5907 117.192Z" fill="#745977"/>
<path d="M84.0203 100.691C83.971 100.691 83.9204 100.671 83.8821 100.633C83.8056 100.556 83.8056 100.431 83.8821 100.355L85.6721 98.5648C85.7486 98.4891 85.8723 98.4891 85.9488 98.5648C86.0263 98.6423 86.0263 98.7668 85.9488 98.8433L84.1598 100.633C84.1215 100.671 84.0713 100.691 84.0203 100.691Z" fill="#745977"/>
<path d="M85.0542 101.723C85.0036 101.723 84.9539 101.704 84.9152 101.666C84.8382 101.589 84.8382 101.464 84.9152 101.388L86.7051 99.598C86.7817 99.5223 86.9057 99.5223 86.9827 99.598C87.0593 99.6754 87.0593 99.7999 86.9827 99.8765L85.1937 101.666C85.1541 101.704 85.1044 101.723 85.0542 101.723Z" fill="#745977"/>
<path d="M109.423 109.217C109.373 109.217 109.323 109.198 109.284 109.16C109.207 109.083 109.207 108.958 109.284 108.882L111.074 107.092C111.151 107.017 111.275 107.017 111.352 107.092C111.428 107.169 111.428 107.294 111.352 107.371L109.563 109.16C109.524 109.198 109.474 109.217 109.423 109.217Z" fill="#745977"/>
<path d="M110.457 110.25C110.407 110.25 110.357 110.231 110.318 110.193C110.242 110.115 110.242 109.991 110.318 109.914L112.107 108.125C112.184 108.05 112.309 108.05 112.386 108.125C112.462 108.202 112.462 108.326 112.386 108.404L110.597 110.193C110.559 110.231 110.508 110.25 110.457 110.25Z" fill="#745977"/>
<path d="M103.296 92.2002C103.245 92.2002 103.195 92.1804 103.157 92.1426C103.08 92.066 103.08 91.9415 103.157 91.8641L104.946 90.075C105.023 89.9993 105.147 89.9993 105.224 90.075C105.301 90.1525 105.301 90.277 105.224 90.3535L103.435 92.1426C103.396 92.1804 103.345 92.2002 103.296 92.2002Z" fill="#745977"/>
<path d="M104.328 93.2334C104.279 93.2334 104.228 93.2144 104.19 93.1766C104.114 93.0992 104.114 92.9746 104.19 92.8981L105.979 91.1082C106.056 91.0325 106.18 91.0325 106.257 91.1082C106.334 91.1856 106.334 91.3101 106.257 91.3867L104.467 93.1766C104.43 93.2144 104.379 93.2334 104.328 93.2334Z" fill="#745977"/>
<path d="M115.684 105.375C115.647 105.375 115.61 105.365 115.576 105.343L113.463 103.95C113.372 103.89 113.347 103.768 113.407 103.677C113.467 103.587 113.588 103.561 113.679 103.621L115.792 105.014C115.883 105.074 115.908 105.196 115.848 105.287C115.81 105.343 115.748 105.375 115.684 105.375Z" fill="#9E6E82"/>
<path d="M115.905 103.77C115.867 103.77 115.83 103.76 115.797 103.738L113.683 102.345C113.593 102.285 113.568 102.164 113.627 102.073C113.687 101.982 113.808 101.957 113.9 102.017L116.013 103.41C116.103 103.47 116.128 103.591 116.069 103.682C116.031 103.739 115.968 103.77 115.905 103.77Z" fill="#9E6E82"/>
<path d="M84.2509 97.4864C84.214 97.4864 84.1761 97.4763 84.1431 97.4538L82.0298 96.0617C81.9392 96.0014 81.9141 95.8804 81.9739 95.7893C82.0333 95.6991 82.1552 95.6731 82.2454 95.7334L84.3592 97.1256C84.4498 97.1859 84.4749 97.3069 84.4155 97.3979C84.3777 97.4543 84.3147 97.4864 84.2509 97.4864Z" fill="#9E6E82"/>
<path d="M84.5771 96.2222C84.5393 96.2222 84.5023 96.2121 84.4689 96.1897L82.3556 94.7975C82.2654 94.7372 82.2394 94.6162 82.2997 94.5252C82.3591 94.435 82.481 94.4081 82.5712 94.4693L84.6854 95.8614C84.7756 95.9217 84.8011 96.0427 84.7408 96.1338C84.7034 96.1901 84.6405 96.2222 84.5771 96.2222Z" fill="#9E6E82"/>
<path d="M115.011 89.7982C114.974 89.7982 114.936 89.7881 114.903 89.7665L112.79 88.3735C112.699 88.3132 112.674 88.1922 112.734 88.1011C112.793 88.0109 112.914 87.9841 113.006 88.0453L115.119 89.4383C115.21 89.4977 115.235 89.6196 115.175 89.7107C115.137 89.7674 115.075 89.7982 115.011 89.7982Z" fill="#9E6E82"/>
<path d="M115.337 88.5341C115.3 88.5341 115.262 88.524 115.228 88.5025L113.115 87.1094C113.025 87.0491 113 86.9281 113.059 86.837C113.118 86.7468 113.24 86.72 113.331 86.7812L115.445 88.1742C115.535 88.2336 115.56 88.3555 115.501 88.4466C115.463 88.5033 115.401 88.5341 115.337 88.5341Z" fill="#9E6E82"/>
<path d="M82.461 117.417C82.4025 117.417 82.344 117.39 82.3053 117.34C82.2393 117.254 82.2555 117.131 82.3409 117.065L84.3469 115.521C84.4335 115.456 84.5567 115.471 84.6223 115.557C84.6883 115.643 84.672 115.766 84.5867 115.832L82.5816 117.376C82.5455 117.403 82.5032 117.417 82.461 117.417Z" fill="#9E6E82"/>
<path d="M81.6444 116.488C81.5846 116.488 81.5265 116.461 81.4887 116.41C81.4222 116.326 81.4385 116.201 81.5243 116.135L83.5294 114.591C83.6161 114.526 83.7402 114.542 83.8062 114.627C83.8717 114.713 83.8554 114.836 83.7701 114.903L81.7637 116.447C81.7276 116.474 81.6854 116.488 81.6444 116.488Z" fill="#9E6E82"/>
<path d="M133.478 152.155C133.332 152.155 133.192 152.074 133.124 151.935L130.44 146.456C130.345 146.262 130.425 146.026 130.62 145.931C130.814 145.836 131.051 145.917 131.146 146.111L133.83 151.589C133.925 151.784 133.844 152.019 133.65 152.115C133.595 152.142 133.536 152.155 133.478 152.155ZM135.914 145.659C135.909 145.659 135.905 145.659 135.9 145.659L132.802 145.548C132.586 145.54 132.415 145.358 132.424 145.141C132.432 144.925 132.587 144.744 132.83 144.762L135.928 144.873C136.145 144.881 136.315 145.063 136.306 145.28C136.298 145.492 136.124 145.659 135.914 145.659Z" fill="#E5DBE2"/>
<path d="M194.727 173.294C194.585 173.294 194.448 173.216 194.378 173.082C193.968 172.295 193.575 171.434 193.209 170.52C190.529 163.844 188.148 155.867 186.623 150.35C186.564 150.141 186.687 149.924 186.897 149.866C187.103 149.808 187.322 149.931 187.38 150.141C188.9 155.638 191.272 163.586 193.937 170.227C194.295 171.117 194.677 171.955 195.075 172.719C195.176 172.911 195.101 173.149 194.908 173.249C194.85 173.279 194.788 173.294 194.727 173.294ZM209.519 164.741C209.349 164.741 209.192 164.628 209.142 164.457L206.922 156.797L202.285 143.014C202.216 142.808 202.327 142.585 202.533 142.516C202.737 142.447 202.961 142.558 203.031 142.764L207.438 155.864C208.217 155.151 209.2 155.359 209.689 155.625L211.551 156.612C211.743 156.713 211.816 156.951 211.714 157.143C211.613 157.334 211.375 157.409 211.183 157.306L209.32 156.319C209.319 156.318 209.318 156.317 209.316 156.317C209.149 156.227 208.316 155.848 207.723 156.736L209.897 164.239C209.958 164.447 209.837 164.665 209.629 164.725C209.592 164.736 209.555 164.741 209.519 164.741Z" fill="#E5DBE2"/>
<path d="M167.332 215.522C167.142 215.522 166.976 215.384 166.945 215.191L163.43 193.384C163.425 193.356 163.423 193.327 163.425 193.298L165.048 166.324C164.831 164.419 163.105 149.222 163.217 148.102C163.329 146.981 168.663 116.828 168.89 115.545C168.927 115.331 169.135 115.19 169.345 115.226C169.558 115.264 169.701 115.467 169.664 115.681C169.608 115.995 164.108 147.089 163.999 148.179C163.92 148.969 165.053 159.429 165.833 166.268C165.836 166.291 165.836 166.314 165.835 166.336L164.212 193.302L167.721 215.065C167.755 215.279 167.61 215.481 167.395 215.515C167.374 215.52 167.353 215.522 167.332 215.522Z" fill="#E5DBE2"/>
<path d="M177.003 206.67C175.014 206.67 173.323 205.183 173.07 203.21L170.958 186.754C170.858 185.976 171.41 185.262 172.188 185.163L187.542 183.192C188.33 183.091 189.035 183.656 189.134 184.423L191.245 200.878C191.379 201.925 191.096 202.964 190.446 203.804C189.797 204.644 188.863 205.181 187.816 205.316L177.507 206.638C177.338 206.66 177.169 206.67 177.003 206.67ZM187.722 183.967C187.695 183.967 187.669 183.968 187.641 183.973L172.287 185.943C171.939 185.987 171.692 186.307 171.737 186.655L173.849 203.11C174.068 204.824 175.648 206.081 177.407 205.859L187.716 204.537C188.555 204.428 189.303 203.998 189.824 203.324C190.345 202.649 190.573 201.817 190.465 200.978L188.353 184.523C188.313 184.206 188.042 183.967 187.722 183.967Z" fill="#E5DBE2"/>
<path d="M171.923 191.593C171.728 191.593 171.559 191.448 171.534 191.25C171.506 191.035 171.659 190.838 171.874 190.811L189.27 188.578C189.483 188.549 189.681 188.703 189.709 188.918C189.736 189.133 189.585 189.33 189.369 189.357L171.973 191.59C171.957 191.592 171.94 191.593 171.923 191.593Z" fill="#E5DBE2"/>
<path fill-rule="evenodd" clip-rule="evenodd" d="M152.797 186.356L143.498 184.893C143.158 184.839 142.844 185.191 142.801 185.675L141.522 199.836C141.371 201.512 142.212 203.037 143.393 203.222L149.636 204.204C150.817 204.39 151.906 203.17 152.057 201.493L153.336 187.332C153.38 186.849 153.137 186.409 152.797 186.356Z" fill="white"/>
<path d="M149.873 204.616C149.774 204.616 149.674 204.608 149.574 204.593L143.331 203.611C141.947 203.393 140.96 201.683 141.13 199.8L142.409 185.639C142.472 184.934 142.985 184.418 143.558 184.504L152.857 185.968C153.408 186.054 153.79 186.67 153.727 187.368L152.448 201.528C152.288 203.289 151.182 204.616 149.873 204.616ZM143.436 185.281C143.361 185.281 143.216 185.433 143.191 185.71L141.913 199.871C141.781 201.325 142.487 202.683 143.453 202.835L149.696 203.816C150.646 203.96 151.536 202.876 151.665 201.458L152.944 187.297C152.972 186.985 152.823 186.757 152.735 186.745L143.436 185.281Z" fill="#E5DBE2"/>
<path d="M152.987 191.594C152.966 191.594 152.945 191.593 152.925 191.589L142.389 189.931C142.175 189.898 142.029 189.697 142.062 189.482C142.096 189.268 142.301 189.122 142.512 189.155L153.047 190.813C153.262 190.847 153.408 191.048 153.374 191.263C153.344 191.455 153.177 191.594 152.987 191.594Z" fill="#E5DBE2"/>
<path fill-rule="evenodd" clip-rule="evenodd" d="M49.8911 125.224C46.7468 131.22 58.5331 145.888 40.2458 158.086C40.2458 158.086 31.9403 135.203 49.8911 125.224ZM43.618 166.557C47.1151 160.443 54.0434 163.798 58.6885 157.686C62.2771 152.964 61.8177 145.348 64.3064 142.909C64.306 142.909 45.4453 143.962 43.618 166.557ZM26.5591 154.095C29.8666 155.664 28.4476 168.637 38.4581 169.203C38.4581 169.203 38.0537 154.924 26.5591 154.095Z" fill="#80CACA"/>
<path d="M40.6332 176.083C40.6235 176.083 40.6125 176.081 40.6024 176.079C40.5843 176.076 40.5672 176.071 40.5509 176.064C40.5311 176.054 40.5131 176.042 40.4968 176.027C40.4849 176.015 40.473 176 40.4647 175.984C40.4647 175.984 40.4647 175.984 40.4642 175.984C40.4554 175.97 40.4497 175.955 40.4453 175.938C40.444 175.935 40.4435 175.933 40.4427 175.93C40.3463 175.558 35.1349 155.662 26.5285 154.289C26.4211 154.272 26.349 154.171 26.3657 154.064C26.3828 153.956 26.4871 153.888 26.5905 153.9C33.976 155.079 38.7601 168.836 40.2957 173.958C39.7475 165.52 38.4103 132.905 49.7799 125.061C49.8701 125 49.9929 125.023 50.0532 125.112C50.1152 125.201 50.0923 125.323 50.0035 125.385C38.6048 133.248 40.2829 167.735 40.7419 174.657C42.1829 169.271 48.9686 147.176 64.252 142.72C64.3576 142.69 64.465 142.75 64.4962 142.854C64.5262 142.958 64.4663 143.067 64.362 143.098C47.2983 148.074 40.9328 175.455 40.8272 175.924C40.8246 175.938 40.8202 175.951 40.8145 175.964C40.8052 175.986 40.792 176.005 40.7757 176.022C40.7634 176.035 40.7485 176.047 40.7322 176.055C40.7172 176.064 40.7018 176.07 40.686 176.074C40.6684 176.08 40.6517 176.082 40.6332 176.083Z" fill="#B2DCD4"/>
<path fill-rule="evenodd" clip-rule="evenodd" d="M47.7922 218.159C47.0939 220 45.8883 220 45.8883 220H40.383H34.8786C34.8786 220 33.673 220 32.9751 218.159C24.4994 188.241 33.8397 175.378 33.8397 175.378H40.383H46.9271C46.9271 175.378 56.2679 188.241 47.7922 218.159Z" fill="white"/>
<path fill-rule="evenodd" clip-rule="evenodd" d="M32.8306 177.17C33.4149 175.964 33.8391 175.378 33.8391 175.378H40.3828H46.9269C46.9269 175.378 47.9627 176.808 49.0323 179.816L32.8306 177.17Z" fill="white"/>
<path fill-rule="evenodd" clip-rule="evenodd" d="M32.902 174.824H47.8639C48.314 174.824 48.6818 175.192 48.6818 175.642V175.643C48.6818 176.092 48.314 176.46 47.8639 176.46H32.902C32.4528 176.46 32.085 176.092 32.085 175.643V175.642C32.085 175.192 32.4528 174.824 32.902 174.824Z" fill="white"/>
<path fill-rule="evenodd" clip-rule="evenodd" d="M177.91 24.5398C180.999 24.5398 183.519 22.0199 183.519 18.9307C183.519 15.8418 180.999 13.3224 177.91 13.3224C174.821 13.3224 172.302 15.8423 172.302 18.9307C172.302 22.0199 174.821 24.5398 177.91 24.5398Z" fill="#C49666"/>
<path d="M177.91 19.2052C177.856 19.2052 177.802 19.1898 177.754 19.1572L177.217 18.7868C176.96 18.6099 176.788 18.3432 176.731 18.0357C176.674 17.7281 176.74 17.417 176.918 17.161C177.284 16.6307 178.013 16.4957 178.544 16.8617L179.081 17.2322C179.206 17.318 179.238 17.4892 179.151 17.6137C179.066 17.7391 178.894 17.7708 178.769 17.6841L178.232 17.3136C177.95 17.1205 177.565 17.1918 177.371 17.4725C177.277 17.6076 177.242 17.7726 177.272 17.9358C177.302 18.099 177.393 18.2407 177.529 18.3336L178.066 18.704C178.191 18.7898 178.222 18.961 178.136 19.0864C178.083 19.1643 177.997 19.2052 177.91 19.2052Z" fill="white"/>
<path d="M177.936 21.2059C177.701 21.2059 177.473 21.1355 177.276 20.9995L176.738 20.629C176.614 20.5432 176.582 20.3721 176.668 20.2467C176.754 20.1213 176.926 20.0905 177.05 20.1763L177.588 20.5468C177.724 20.6405 177.89 20.6774 178.052 20.6458C178.215 20.6158 178.356 20.5248 178.449 20.3888C178.542 20.2537 178.578 20.0887 178.548 19.9255C178.517 19.7622 178.427 19.6214 178.291 19.5277L177.753 19.1572C177.629 19.0706 177.597 18.8994 177.683 18.7749C177.769 18.6495 177.941 18.6178 178.065 18.7045L178.603 19.075C179.134 19.441 179.268 20.1706 178.902 20.7008C178.726 20.9577 178.459 21.1298 178.152 21.1865C178.079 21.1993 178.007 21.2059 177.936 21.2059Z" fill="white"/>
<path d="M177.91 22.0458C177.758 22.0458 177.635 21.9222 177.635 21.7708V20.9304C177.635 20.7791 177.758 20.6554 177.91 20.6554C178.062 20.6554 178.185 20.7791 178.185 20.9304V21.7708C178.185 21.9217 178.062 22.0458 177.91 22.0458ZM177.91 17.2067C177.758 17.2067 177.635 17.083 177.635 16.9317V16.0913C177.635 15.9399 177.758 15.8163 177.91 15.8163C178.062 15.8163 178.185 15.9399 178.185 16.0913V16.9317C178.185 17.0826 178.062 17.2067 177.91 17.2067Z" fill="white"/>
<path d="M177.85 37.6716H175.428C174.902 37.6716 174.475 37.2444 174.475 36.7186V32.9847C174.475 32.4598 174.902 32.0317 175.428 32.0317H177.85C178.375 32.0317 178.803 32.4598 178.803 32.9847V36.7186C178.803 37.2448 178.375 37.6716 177.85 37.6716ZM175.428 32.5817C175.206 32.5817 175.025 32.763 175.025 32.9847V36.7186C175.025 36.9412 175.206 37.1216 175.428 37.1216H177.85C178.072 37.1216 178.253 36.9412 178.253 36.7186V32.9847C178.253 32.763 178.072 32.5817 177.85 32.5817H175.428Z" fill="#C49666"/>
<path d="M185.112 37.6725H182.69C182.165 37.6725 181.737 37.2444 181.737 36.7195V27.1512C181.737 26.6263 182.165 26.1982 182.69 26.1982H185.112C185.637 26.1982 186.065 26.6263 186.065 27.1512V36.7195C186.065 37.2449 185.637 37.6725 185.112 37.6725ZM182.69 26.7482C182.468 26.7482 182.287 26.9286 182.287 27.1512V36.7195C182.287 36.9413 182.468 37.1225 182.69 37.1225H185.112C185.334 37.1225 185.515 36.9413 185.515 36.7195V27.1512C185.515 26.9286 185.334 26.7482 185.112 26.7482H182.69Z" fill="#C49666"/>
<path d="M192.374 37.6716H189.952C189.427 37.6716 188.999 37.2444 188.999 36.7195V23.2127C188.999 22.6878 189.427 22.2597 189.952 22.2597H192.374C192.899 22.2597 193.326 22.6878 193.326 23.2127V36.7195C193.326 37.2448 192.899 37.6716 192.374 37.6716ZM189.952 22.8097C189.73 22.8097 189.549 22.9901 189.549 23.2127V36.7195C189.549 36.9412 189.73 37.1216 189.952 37.1216H192.374C192.596 37.1216 192.776 36.9412 192.776 36.7195V23.2127C192.776 22.9901 192.596 22.8097 192.374 22.8097H189.952Z" fill="#C49666"/>
<path d="M199.636 37.6716H197.213C196.688 37.6716 196.261 37.2444 196.261 36.7186V16.8208C196.261 16.2959 196.688 15.8687 197.213 15.8687H199.636C200.161 15.8687 200.588 16.2959 200.588 16.8208V36.719C200.588 37.2448 200.161 37.6716 199.636 37.6716ZM197.213 16.4187C196.992 16.4187 196.811 16.5991 196.811 16.8208V36.719C196.811 36.9417 196.992 37.1221 197.213 37.1221H199.636C199.858 37.1221 200.038 36.9417 200.038 36.719V16.8208C200.038 16.5991 199.858 16.4187 199.636 16.4187H197.213V16.4187Z" fill="#C49666"/>
<path fill-rule="evenodd" clip-rule="evenodd" d="M131.994 67.1346C126.719 68.7956 123.791 74.4188 125.453 79.6936C126.925 84.3659 131.506 87.1969 136.199 86.6262L138.517 88.4773C138.644 88.5781 138.799 88.6071 138.954 88.5583C139.108 88.5094 139.219 88.3968 139.264 88.241L140.136 85.282C144.033 82.9601 145.975 78.1905 144.552 73.6752C142.891 68.4013 137.268 65.4727 131.994 67.1346Z" fill="white"/>
<path d="M138.629 89.4603C138.463 89.4603 138.302 89.4044 138.166 89.2961L135.938 87.5172C131.519 88.0003 127.201 85.5165 125.41 81.439C125.349 81.3 125.412 81.1372 125.551 81.0765C125.688 81.0144 125.852 81.0782 125.913 81.2181C127.623 85.1104 131.758 87.4701 135.987 86.958C136.059 86.947 136.134 86.9699 136.192 87.0156L138.51 88.8667C138.565 88.9116 138.624 88.9226 138.691 88.901C138.759 88.8795 138.802 88.8359 138.822 88.7686L139.694 85.8096C139.713 85.7427 139.757 85.6859 139.816 85.6507C143.709 83.3319 145.475 78.6899 144.111 74.3629C143.776 73.3008 143.271 72.3169 142.608 71.4369C142.517 71.3159 142.541 71.1439 142.663 71.0519C142.783 70.9608 142.956 70.985 143.048 71.1069C143.748 72.0358 144.281 73.0759 144.635 74.197C146.064 78.7348 144.237 83.5994 140.19 86.0679L139.349 88.9235C139.277 89.1668 139.098 89.3498 138.856 89.4255C138.782 89.4493 138.705 89.4603 138.629 89.4603ZM124.817 77.9551C124.67 77.9551 124.548 77.8381 124.543 77.6902C124.528 77.3448 124.533 76.9924 124.554 76.6426C124.564 76.4921 124.677 76.3821 124.846 76.3856C124.998 76.3949 125.112 76.5255 125.104 76.6778C125.083 77.0078 125.078 77.3413 125.092 77.6687C125.098 77.8209 124.979 77.9481 124.828 77.9538C124.824 77.9551 124.821 77.9551 124.817 77.9551ZM125.058 75.3538C125.038 75.3538 125.017 75.3512 124.997 75.3468C124.849 75.3133 124.756 75.1655 124.789 75.0176C125.598 71.4616 128.258 68.5716 131.732 67.4773C133.874 66.8011 136.122 66.8389 138.235 67.5829C138.378 67.6335 138.453 67.7902 138.403 67.9336C138.352 68.0771 138.195 68.1527 138.052 68.1021C136.053 67.3973 133.925 67.3629 131.898 68.0009C131.897 68.0009 131.897 68.0009 131.897 68.0018C128.608 69.038 126.09 71.7726 125.325 75.14C125.297 75.2671 125.183 75.3538 125.058 75.3538ZM140.737 69.4833C140.68 69.4833 140.623 69.4661 140.574 69.4301C140.347 69.2642 140.108 69.1053 139.867 68.9593C139.736 68.8801 139.694 68.7115 139.774 68.5822C139.852 68.4515 140.022 68.411 140.151 68.4893C140.406 68.6433 140.658 68.8105 140.898 68.987C141.021 69.0763 141.048 69.2483 140.959 69.3711C140.905 69.4446 140.821 69.4833 140.737 69.4833Z" fill="#9E6E82"/>
<path fill-rule="evenodd" clip-rule="evenodd" d="M139.158 74.1874C138.16 73.1886 136.526 73.1886 135.527 74.1874L134.825 74.8905L134.123 74.1874C133.123 73.1886 131.49 73.1886 130.492 74.1874C129.492 75.1862 129.492 76.8195 130.492 77.8192L131.194 78.5214L134.825 82.1523L138.456 78.5214L139.158 77.8192C140.156 76.8199 140.156 75.1862 139.158 74.1874Z" fill="#ED8080"/>
<path d="M147.239 43.041H129.082C128.93 43.041 128.807 42.9174 128.807 42.766C128.807 42.6146 128.93 42.491 129.082 42.491H133.276V39.1452H130.211C130.06 39.1452 129.936 39.0216 129.936 38.8702C129.936 38.7189 130.06 38.5952 130.211 38.5952H141.753C141.905 38.5952 142.028 38.7189 142.028 38.8702C142.028 39.0216 141.905 39.1452 141.753 39.1452H133.826V42.491H145.117V39.1452H143.928C143.776 39.1452 143.653 39.0216 143.653 38.8702C143.653 38.7189 143.776 38.5952 143.928 38.5952H148.491C148.643 38.5952 148.766 38.7189 148.766 38.8702C148.766 39.0216 148.643 39.1452 148.491 39.1452H145.667V42.491H147.238C147.39 42.491 147.513 42.6146 147.513 42.766C147.513 42.9174 147.391 43.041 147.239 43.041ZM127.782 43.041H127.183C127.031 43.041 126.908 42.9174 126.908 42.766C126.908 42.6146 127.031 42.491 127.183 42.491H127.782C127.933 42.491 128.057 42.6146 128.057 42.766C128.057 42.9174 127.933 43.041 127.782 43.041Z" fill="#C49666"/>
<path d="M38.2701 95.1512H20.113C19.9608 95.1512 19.838 95.0285 19.838 94.8762C19.838 94.7249 19.9608 94.6012 20.113 94.6012H24.308V91.2554H21.2421C21.0907 91.2554 20.9671 91.1327 20.9671 90.9804C20.9671 90.8291 21.0907 90.7054 21.2421 90.7054H32.7846C32.9369 90.7054 33.0596 90.8291 33.0596 90.9804C33.0596 91.1327 32.9369 91.2554 32.7846 91.2554H24.858V94.6012H36.1484V91.2554H34.9596C34.8073 91.2554 34.6846 91.1327 34.6846 90.9804C34.6846 90.8291 34.8073 90.7054 34.9596 90.7054H39.5219C39.6742 90.7054 39.7969 90.8291 39.7969 90.9804C39.7969 91.1327 39.6742 91.2554 39.5219 91.2554H36.6984V94.6012H38.2697C38.4219 94.6012 38.5447 94.7249 38.5447 94.8762C38.5451 95.0285 38.4219 95.1512 38.2701 95.1512ZM18.8128 95.1512H18.214C18.0626 95.1512 17.939 95.0285 17.939 94.8762C17.939 94.7249 18.0626 94.6012 18.214 94.6012H18.8128C18.965 94.6012 19.0878 94.7249 19.0878 94.8762C19.0878 95.0285 18.965 95.1512 18.8128 95.1512Z" fill="#C49666"/>
<path d="M88.7174 137.838H70.5603C70.408 137.838 70.2853 137.715 70.2853 137.563C70.2853 137.411 70.408 137.288 70.5603 137.288H74.7548V133.942H71.6893C71.538 133.942 71.4143 133.819 71.4143 133.667C71.4143 133.515 71.538 133.392 71.6893 133.392H83.2314C83.3837 133.392 83.5065 133.515 83.5065 133.667C83.5065 133.819 83.3837 133.942 83.2314 133.942H75.3044V137.288H86.5953V133.942H85.4064C85.2541 133.942 85.1314 133.819 85.1314 133.667C85.1314 133.515 85.2541 133.392 85.4064 133.392H89.9688C90.121 133.392 90.2438 133.515 90.2438 133.667C90.2438 133.819 90.121 133.942 89.9688 133.942H87.1453V137.288H88.7165C88.8688 137.288 88.9915 137.411 88.9915 137.563C88.9924 137.714 88.8696 137.838 88.7174 137.838ZM69.2601 137.838H68.6612C68.5099 137.838 68.3862 137.715 68.3862 137.563C68.3862 137.411 68.5099 137.288 68.6612 137.288H69.2601C69.4114 137.288 69.5351 137.411 69.5351 137.563C69.5351 137.714 69.4114 137.838 69.2601 137.838Z" fill="#C49666"/>
<path d="M114.496 13.9221H96.3386C96.1864 13.9221 96.0636 13.7985 96.0636 13.6471C96.0636 13.4957 96.1864 13.3721 96.3386 13.3721H100.534V10.0263H97.4676C97.3163 10.0263 97.1926 9.90268 97.1926 9.75132C97.1926 9.59908 97.3163 9.47632 97.4676 9.47632H109.01C109.162 9.47632 109.285 9.59908 109.285 9.75132C109.285 9.90268 109.162 10.0263 109.01 10.0263H101.084V13.3721H112.374V10.0263H111.184C111.032 10.0263 110.909 9.90268 110.909 9.75132C110.909 9.59908 111.032 9.47632 111.184 9.47632H115.748C115.9 9.47632 116.023 9.59908 116.023 9.75132C116.023 9.90268 115.9 10.0263 115.748 10.0263H112.924V13.3721H114.495C114.647 13.3721 114.77 13.4957 114.77 13.6471C114.77 13.7985 114.648 13.9221 114.496 13.9221ZM95.0384 13.9221H94.4396C94.2882 13.9221 94.1646 13.7985 94.1646 13.6471C94.1646 13.4957 94.2882 13.3721 94.4396 13.3721H95.0384C95.1902 13.3721 95.3134 13.4957 95.3134 13.6471C95.3134 13.7985 95.1902 13.9221 95.0384 13.9221Z" fill="#C49666"/>
<path d="M81.7873 208.505H63.6293C63.478 208.505 63.3543 208.381 63.3543 208.23C63.3543 208.078 63.478 207.955 63.6293 207.955H67.8252V204.609H64.7601C64.6079 204.609 64.4851 204.485 64.4851 204.334C64.4851 204.182 64.6079 204.059 64.7601 204.059H76.3018C76.4536 204.059 76.5768 204.182 76.5768 204.334C76.5768 204.485 76.4536 204.609 76.3018 204.609H68.3747V207.955H79.6647V204.609H78.4754C78.3241 204.609 78.2004 204.485 78.2004 204.334C78.2004 204.182 78.3241 204.059 78.4754 204.059H83.0396C83.1909 204.059 83.3146 204.182 83.3146 204.334C83.3146 204.485 83.1909 204.609 83.0396 204.609H80.2147V207.955H81.7864C81.9382 207.955 82.0614 208.078 82.0614 208.23C82.0623 208.381 81.9391 208.505 81.7873 208.505ZM62.33 208.505H61.732C61.5798 208.505 61.457 208.381 61.457 208.23C61.457 208.078 61.5798 207.955 61.732 207.955H62.33C62.4822 207.955 62.605 208.078 62.605 208.23C62.605 208.381 62.4822 208.505 62.33 208.505Z" fill="white"/>
<path d="M214.629 95.6987H196.471C196.32 95.6987 196.196 95.575 196.196 95.4237C196.196 95.2714 196.32 95.1487 196.471 95.1487H200.666V91.8024H197.601C197.45 91.8024 197.326 91.6797 197.326 91.5274C197.326 91.3761 197.45 91.2524 197.601 91.2524H209.143C209.294 91.2524 209.418 91.3761 209.418 91.5274C209.418 91.6797 209.294 91.8024 209.143 91.8024H201.217V95.1487H212.508V91.8024H211.318C211.167 91.8024 211.043 91.6797 211.043 91.5274C211.043 91.3761 211.167 91.2524 211.318 91.2524H215.882C216.034 91.2524 216.157 91.3761 216.157 91.5274C216.157 91.6797 216.034 91.8024 215.882 91.8024H213.058V95.1487H214.629C214.781 95.1487 214.904 95.2714 214.904 95.4237C214.904 95.575 214.781 95.6987 214.629 95.6987ZM195.172 95.6987H194.573C194.421 95.6987 194.298 95.575 194.298 95.4237C194.298 95.2714 194.421 95.1487 194.573 95.1487H195.172C195.324 95.1487 195.447 95.2714 195.447 95.4237C195.447 95.575 195.324 95.6987 195.172 95.6987Z" fill="white"/>
<path d="M127.462 190.211H109.305C109.152 190.211 109.03 190.087 109.03 189.936C109.03 189.783 109.152 189.661 109.305 189.661H113.5V186.314H110.434C110.282 186.314 110.159 186.192 110.159 186.039C110.159 185.888 110.282 185.764 110.434 185.764H121.977C122.128 185.764 122.252 185.888 122.252 186.039C122.252 186.192 122.128 186.314 121.977 186.314H114.049V189.661H125.34V186.314H124.151C123.998 186.314 123.876 186.192 123.876 186.039C123.876 185.888 123.998 185.764 124.151 185.764H128.713C128.865 185.764 128.988 185.888 128.988 186.039C128.988 186.192 128.865 186.314 128.713 186.314H125.89V189.661H127.461C127.613 189.661 127.736 189.783 127.736 189.936C127.737 190.087 127.613 190.211 127.462 190.211ZM108.004 190.211H107.406C107.254 190.211 107.131 190.087 107.131 189.936C107.131 189.783 107.254 189.661 107.406 189.661H108.004C108.157 189.661 108.279 189.783 108.279 189.936C108.279 190.087 108.157 190.211 108.004 190.211Z" fill="white"/>
<path d="M24.3413 177.252H9.78694C9.63558 177.252 9.51194 177.129 9.51194 176.977C9.51194 176.826 9.63558 176.702 9.78694 176.702H13.9824V173.356H10.9169C10.7646 173.356 10.6419 173.233 10.6419 173.081C10.6419 172.929 10.7646 172.806 10.9169 172.806H18.8554C19.0081 172.806 19.1308 172.929 19.1308 173.081C19.1308 173.233 19.0081 173.356 18.8554 173.356H14.5328V176.702H22.2192V173.356H21.0303C20.8789 173.356 20.7553 173.233 20.7553 173.081C20.7553 172.929 20.8789 172.806 21.0303 172.806H25.5936C25.7458 172.806 25.8686 172.929 25.8686 173.081C25.8686 173.233 25.7458 173.356 25.5936 173.356H22.7692V176.702H24.3413C24.4931 176.702 24.6163 176.826 24.6163 176.977C24.6163 177.129 24.4931 177.252 24.3413 177.252ZM8.48673 177.252H7.88877C7.73653 177.252 7.61377 177.129 7.61377 176.977C7.61377 176.826 7.73653 176.702 7.88877 176.702H8.48673C8.63897 176.702 8.76173 176.826 8.76173 176.977C8.76173 177.129 8.63897 177.252 8.48673 177.252Z" fill="#C49666"/>
<path d="M22.6947 131.516C22.5856 131.516 22.4971 131.427 22.4971 131.319V130.844C22.4971 130.736 22.5856 130.647 22.6947 130.647C22.8029 130.647 22.8905 130.736 22.8905 130.844V131.319C22.8905 131.427 22.8029 131.516 22.6947 131.516ZM23.9496 130.26H23.4744C23.3652 130.26 23.2772 130.173 23.2772 130.065C23.2772 129.956 23.3652 129.868 23.4744 129.868H23.9496C24.0578 129.868 24.1454 129.956 24.1454 130.065C24.1454 130.173 24.0578 130.26 23.9496 130.26ZM21.9146 130.26H21.4398C21.3311 130.26 21.2427 130.173 21.2427 130.065C21.2427 129.956 21.3311 129.868 21.4398 129.868H21.9146C22.0232 129.868 22.1108 129.956 22.1108 130.065C22.1108 130.173 22.0232 130.26 21.9146 130.26ZM22.6947 129.481C22.5856 129.481 22.4971 129.393 22.4971 129.285V128.809C22.4971 128.7 22.5856 128.612 22.6947 128.612C22.8029 128.612 22.8905 128.7 22.8905 128.809V129.285C22.8905 129.393 22.8029 129.481 22.6947 129.481Z" fill="white"/>
<path d="M57.1591 110.173C57.0504 110.173 56.9624 110.085 56.9624 109.977V109.501C56.9624 109.392 57.0504 109.305 57.1591 109.305C57.2673 109.305 57.3549 109.392 57.3549 109.501V109.977C57.3553 110.085 57.2673 110.173 57.1591 110.173ZM58.414 108.918H57.9388C57.8301 108.918 57.7421 108.829 57.7421 108.721C57.7421 108.613 57.8301 108.525 57.9388 108.525H58.414C58.5222 108.525 58.6098 108.613 58.6098 108.721C58.6098 108.829 58.5222 108.918 58.414 108.918ZM56.3798 108.918H55.9046C55.7955 108.918 55.7075 108.829 55.7075 108.721C55.7075 108.613 55.7955 108.525 55.9046 108.525H56.3798C56.4881 108.525 56.5756 108.613 56.5756 108.721C56.5756 108.829 56.4881 108.918 56.3798 108.918ZM57.1591 108.138C57.0504 108.138 56.9624 108.05 56.9624 107.942V107.466C56.9624 107.357 57.0504 107.27 57.1591 107.27C57.2673 107.27 57.3549 107.357 57.3549 107.466V107.942C57.3553 108.05 57.2673 108.138 57.1591 108.138Z" fill="white"/>
<path d="M115.922 63.6062C115.814 63.6062 115.726 63.5178 115.726 63.4095V62.9343C115.726 62.8261 115.814 62.7376 115.922 62.7376C116.03 62.7376 116.119 62.8261 116.119 62.9343V63.4095C116.119 63.5173 116.03 63.6062 115.922 63.6062ZM117.177 62.3504H116.702C116.594 62.3504 116.506 62.2629 116.506 62.1546C116.506 62.0464 116.594 61.958 116.702 61.958H117.177C117.285 61.958 117.373 62.0464 117.373 62.1546C117.373 62.2629 117.285 62.3504 117.177 62.3504ZM115.143 62.3504H114.667C114.559 62.3504 114.471 62.2629 114.471 62.1546C114.471 62.0464 114.559 61.958 114.667 61.958H115.143C115.251 61.958 115.339 62.0464 115.339 62.1546C115.339 62.2629 115.251 62.3504 115.143 62.3504ZM115.922 61.5712C115.814 61.5712 115.726 61.4836 115.726 61.3754V60.8993C115.726 60.7911 115.814 60.7026 115.922 60.7026C116.03 60.7026 116.119 60.7911 116.119 60.8993V61.3754C116.119 61.4832 116.03 61.5712 115.922 61.5712Z" fill="white"/>
<path d="M141.7 18.4251C141.592 18.4251 141.504 18.3366 141.504 18.2284V17.7532C141.504 17.6449 141.592 17.5565 141.7 17.5565C141.808 17.5565 141.896 17.6449 141.896 17.7532V18.2284C141.896 18.3366 141.808 18.4251 141.7 18.4251ZM142.954 17.1702H142.479C142.371 17.1702 142.283 17.0817 142.283 16.9735C142.283 16.8653 142.371 16.7768 142.479 16.7768H142.954C143.063 16.7768 143.151 16.8653 143.151 16.9735C143.151 17.0817 143.063 17.1702 142.954 17.1702ZM140.919 17.1702H140.444C140.336 17.1702 140.248 17.0817 140.248 16.9735C140.248 16.8653 140.336 16.7768 140.444 16.7768H140.919C141.028 16.7768 141.116 16.8653 141.116 16.9735C141.116 17.0817 141.028 17.1702 140.919 17.1702ZM141.7 16.3909C141.592 16.3909 141.504 16.3025 141.504 16.1942V15.7182C141.504 15.6099 141.592 15.5215 141.7 15.5215C141.808 15.5215 141.896 15.6099 141.896 15.7182V16.1942C141.896 16.3025 141.808 16.3909 141.7 16.3909Z" fill="white"/>
<path d="M66.8607 12.0504C66.7516 12.0504 66.6636 11.9619 66.6636 11.8537V11.3785C66.6636 11.2702 66.7516 11.1818 66.8607 11.1818C66.969 11.1818 67.0565 11.2702 67.0565 11.3785V11.8537C67.0565 11.9619 66.969 12.0504 66.8607 12.0504ZM68.1156 10.7946H67.6404C67.5317 10.7946 67.4438 10.707 67.4438 10.5988C67.4438 10.4906 67.5317 10.4021 67.6404 10.4021H68.1156C68.2239 10.4021 68.3114 10.4906 68.3114 10.5988C68.3114 10.707 68.2239 10.7946 68.1156 10.7946ZM66.0815 10.7946H65.6054C65.4967 10.7946 65.4092 10.707 65.4092 10.5988C65.4092 10.4906 65.4967 10.4021 65.6054 10.4021H66.0815C66.1897 10.4021 66.2773 10.4906 66.2773 10.5988C66.2773 10.707 66.1897 10.7946 66.0815 10.7946ZM66.8607 10.0154C66.7516 10.0154 66.6636 9.92691 66.6636 9.81867V9.34347C66.6636 9.23523 66.7516 9.14679 66.8607 9.14679C66.969 9.14679 67.0565 9.23523 67.0565 9.34347V9.81867C67.0565 9.92691 66.969 10.0154 66.8607 10.0154Z" fill="white"/>
<path d="M146.966 57.5078C146.858 57.5078 146.77 57.4194 146.77 57.3111V56.8359C146.77 56.7277 146.858 56.6393 146.966 56.6393C147.074 56.6393 147.162 56.7277 147.162 56.8359V57.3111C147.162 57.4194 147.074 57.5078 146.966 57.5078ZM148.221 56.2534H147.745C147.637 56.2534 147.549 56.1649 147.549 56.0567C147.549 55.9485 147.637 55.86 147.745 55.86H148.221C148.329 55.86 148.417 55.9485 148.417 56.0567C148.417 56.1649 148.329 56.2534 148.221 56.2534ZM146.186 56.2534H145.711C145.603 56.2534 145.514 56.1649 145.514 56.0567C145.514 55.9485 145.603 55.86 145.711 55.86H146.186C146.294 55.86 146.382 55.9485 146.382 56.0567C146.382 56.1649 146.294 56.2534 146.186 56.2534ZM146.966 55.4728C146.858 55.4728 146.77 55.3853 146.77 55.277V54.8009C146.77 54.6927 146.858 54.6042 146.966 54.6042C147.074 54.6042 147.162 54.6927 147.162 54.8009V55.277C147.162 55.3853 147.074 55.4728 146.966 55.4728Z" fill="white"/>
<path d="M204.897 50.301C204.789 50.301 204.701 50.2125 204.701 50.1043V49.6291C204.701 49.5208 204.789 49.4324 204.897 49.4324C205.006 49.4324 205.094 49.5208 205.094 49.6291V50.1043C205.094 50.2125 205.006 50.301 204.897 50.301ZM206.152 49.0465H205.677C205.568 49.0465 205.48 48.9581 205.48 48.8498C205.48 48.7416 205.568 48.6532 205.677 48.6532H206.152C206.26 48.6532 206.348 48.7416 206.348 48.8498C206.348 48.9581 206.26 49.0465 206.152 49.0465ZM204.117 49.0465H203.642C203.533 49.0465 203.446 48.9581 203.446 48.8498C203.446 48.7416 203.533 48.6532 203.642 48.6532H204.117C204.225 48.6532 204.313 48.7416 204.313 48.8498C204.313 48.9581 204.225 49.0465 204.117 49.0465ZM204.897 48.266C204.789 48.266 204.701 48.1784 204.701 48.0702V47.5941C204.701 47.4858 204.789 47.3974 204.897 47.3974C205.006 47.3974 205.094 47.4858 205.094 47.5941V48.0702C205.094 48.1784 205.006 48.266 204.897 48.266Z" fill="white"/>
<path d="M194.365 10.6639C194.256 10.6639 194.168 10.5754 194.168 10.4672V9.992C194.168 9.88376 194.256 9.79532 194.365 9.79532C194.473 9.79532 194.561 9.88376 194.561 9.992V10.4672C194.561 10.5754 194.473 10.6639 194.365 10.6639ZM195.619 9.40944H195.143C195.035 9.40944 194.947 9.321 194.947 9.21276C194.947 9.10452 195.035 9.01608 195.143 9.01608H195.619C195.728 9.01608 195.816 9.10452 195.816 9.21276C195.816 9.321 195.728 9.40944 195.619 9.40944ZM193.584 9.40944H193.109C193.001 9.40944 192.913 9.321 192.913 9.21276C192.913 9.10452 193.001 9.01608 193.109 9.01608H193.584C193.693 9.01608 193.781 9.10452 193.781 9.21276C193.781 9.321 193.693 9.40944 193.584 9.40944ZM194.365 8.62888C194.256 8.62888 194.168 8.54132 194.168 8.43308V7.957C194.168 7.84876 194.256 7.76031 194.365 7.76031C194.473 7.76031 194.561 7.84876 194.561 7.957V8.43308C194.561 8.54132 194.473 8.62888 194.365 8.62888Z" fill="white"/>
<path d="M204.897 83.2857C204.789 83.2857 204.701 83.1973 204.701 83.0891V82.6139C204.701 82.5056 204.789 82.4181 204.897 82.4181C205.006 82.4181 205.094 82.5056 205.094 82.6139V83.0891C205.094 83.1973 205.006 83.2857 204.897 83.2857ZM206.152 82.0313H205.677C205.568 82.0313 205.48 81.9429 205.48 81.8346C205.48 81.7264 205.568 81.6379 205.677 81.6379H206.152C206.26 81.6379 206.348 81.7264 206.348 81.8346C206.348 81.9429 206.26 82.0313 206.152 82.0313ZM204.117 82.0313H203.642C203.533 82.0313 203.446 81.9429 203.446 81.8346C203.446 81.7264 203.533 81.6379 203.642 81.6379H204.117C204.225 81.6379 204.313 81.7264 204.313 81.8346C204.313 81.9429 204.225 82.0313 204.117 82.0313ZM204.897 81.2516C204.789 81.2516 204.701 81.1632 204.701 81.0549V80.5797C204.701 80.4715 204.789 80.3831 204.897 80.3831C205.006 80.3831 205.094 80.4715 205.094 80.5797V81.0549C205.094 81.1632 205.006 81.2516 204.897 81.2516Z" fill="white"/>
<path d="M145.857 106.847C145.749 106.847 145.661 106.758 145.661 106.65V106.175C145.661 106.066 145.749 105.978 145.857 105.978C145.966 105.978 146.054 106.066 146.054 106.175V106.65C146.054 106.758 145.966 106.847 145.857 106.847ZM147.113 105.592H146.637C146.529 105.592 146.441 105.504 146.441 105.395C146.441 105.287 146.529 105.199 146.637 105.199H147.113C147.221 105.199 147.309 105.287 147.309 105.395C147.309 105.504 147.221 105.592 147.113 105.592ZM145.078 105.592H144.602C144.494 105.592 144.406 105.504 144.406 105.395C144.406 105.287 144.494 105.199 144.602 105.199H145.078C145.186 105.199 145.274 105.287 145.274 105.395C145.274 105.504 145.186 105.592 145.078 105.592ZM145.857 104.811C145.749 104.811 145.661 104.724 145.661 104.616V104.14C145.661 104.031 145.749 103.943 145.857 103.943C145.966 103.943 146.054 104.031 146.054 104.14V104.616C146.054 104.724 145.966 104.811 145.857 104.811Z" fill="white"/>
<path d="M107.052 171.153C106.943 171.153 106.855 171.064 106.855 170.956V170.481C106.855 170.373 106.943 170.284 107.052 170.284C107.16 170.284 107.248 170.373 107.248 170.481V170.956C107.248 171.064 107.16 171.153 107.052 171.153ZM108.307 169.898H107.831C107.723 169.898 107.635 169.81 107.635 169.702C107.635 169.593 107.723 169.505 107.831 169.505H108.307C108.415 169.505 108.502 169.593 108.502 169.702C108.502 169.81 108.415 169.898 108.307 169.898ZM106.272 169.898H105.797C105.688 169.898 105.6 169.81 105.6 169.702C105.6 169.593 105.688 169.505 105.797 169.505H106.272C106.381 169.505 106.468 169.593 106.468 169.702C106.468 169.81 106.381 169.898 106.272 169.898ZM107.052 169.118C106.943 169.118 106.855 169.03 106.855 168.922V168.447C106.855 168.338 106.943 168.25 107.052 168.25C107.16 168.25 107.248 168.338 107.248 168.447V168.922C107.248 169.03 107.16 169.118 107.052 169.118Z" fill="white"/>
<path d="M75.1757 183.904C75.0675 183.904 74.9795 183.815 74.9795 183.707V183.232C74.9795 183.123 75.0675 183.035 75.1757 183.035C75.2839 183.035 75.3724 183.123 75.3724 183.232V183.707C75.3728 183.815 75.2844 183.904 75.1757 183.904ZM76.4306 182.648H75.9554C75.8467 182.648 75.7587 182.56 75.7587 182.452C75.7587 182.344 75.8467 182.255 75.9554 182.255H76.4306C76.5388 182.255 76.6268 182.344 76.6268 182.452C76.6268 182.56 76.5388 182.648 76.4306 182.648ZM74.3964 182.648H73.9212C73.8121 182.648 73.7241 182.56 73.7241 182.452C73.7241 182.344 73.8121 182.255 73.9212 182.255H74.3964C74.5047 182.255 74.5922 182.344 74.5922 182.452C74.5922 182.56 74.5047 182.648 74.3964 182.648ZM75.1757 181.869C75.0675 181.869 74.9795 181.78 74.9795 181.672V181.197C74.9795 181.088 75.0675 181.001 75.1757 181.001C75.2839 181.001 75.3724 181.088 75.3724 181.197V181.672C75.3728 181.78 75.2844 181.869 75.1757 181.869Z" fill="white"/>
<path d="M207.722 200.031C207.613 200.031 207.525 199.944 207.525 199.836V199.36C207.525 199.251 207.613 199.164 207.722 199.164C207.83 199.164 207.918 199.251 207.918 199.36V199.836C207.918 199.944 207.83 200.031 207.722 200.031ZM208.976 198.777H208.5C208.392 198.777 208.304 198.689 208.304 198.58C208.304 198.472 208.392 198.384 208.5 198.384H208.976C209.084 198.384 209.172 198.472 209.172 198.58C209.172 198.689 209.084 198.777 208.976 198.777ZM206.941 198.777H206.466C206.358 198.777 206.27 198.689 206.27 198.58C206.27 198.472 206.358 198.384 206.466 198.384H206.941C207.049 198.384 207.138 198.472 207.138 198.58C207.138 198.689 207.049 198.777 206.941 198.777ZM207.722 197.997C207.613 197.997 207.525 197.909 207.525 197.801V197.325C207.525 197.216 207.613 197.129 207.722 197.129C207.83 197.129 207.918 197.216 207.918 197.325V197.801C207.918 197.909 207.83 197.997 207.722 197.997Z" fill="white"/>
<path d="M125.675 211.673C125.567 211.673 125.478 211.585 125.478 211.477V211.002C125.478 210.893 125.567 210.805 125.675 210.805C125.783 210.805 125.871 210.893 125.871 211.002V211.477C125.871 211.585 125.783 211.673 125.675 211.673ZM126.93 210.419H126.454C126.346 210.419 126.258 210.331 126.258 210.222C126.258 210.114 126.346 210.026 126.454 210.026H126.93C127.038 210.026 127.126 210.114 127.126 210.222C127.126 210.331 127.038 210.419 126.93 210.419ZM124.896 210.419H124.42C124.312 210.419 124.224 210.331 124.224 210.222C124.224 210.114 124.312 210.026 124.42 210.026H124.896C125.004 210.026 125.092 210.114 125.092 210.222C125.092 210.331 125.004 210.419 124.896 210.419ZM125.675 209.638C125.567 209.638 125.478 209.551 125.478 209.443V208.967C125.478 208.858 125.567 208.77 125.675 208.77C125.783 208.77 125.871 208.858 125.871 208.967V209.443C125.871 209.551 125.783 209.638 125.675 209.638Z" fill="white"/>
<path d="M13.139 203.081C13.0299 203.081 12.9419 202.992 12.9419 202.885V202.409C12.9419 202.3 13.0299 202.213 13.139 202.213C13.2473 202.213 13.3348 202.3 13.3348 202.409V202.885C13.3353 202.992 13.2473 203.081 13.139 203.081ZM14.3935 201.826H13.9183C13.8096 201.826 13.722 201.737 13.722 201.629C13.722 201.521 13.8096 201.433 13.9183 201.433H14.3935C14.5021 201.433 14.5897 201.521 14.5897 201.629C14.5897 201.737 14.5021 201.826 14.3935 201.826ZM12.3589 201.826H11.8837C11.775 201.826 11.687 201.737 11.687 201.629C11.687 201.521 11.775 201.433 11.8837 201.433H12.3589C12.468 201.433 12.5556 201.521 12.5556 201.629C12.5556 201.737 12.468 201.826 12.3589 201.826ZM13.139 201.046C13.0299 201.046 12.9419 200.958 12.9419 200.85V200.374C12.9419 200.265 13.0299 200.178 13.139 200.178C13.2473 200.178 13.3348 200.265 13.3348 200.374V200.85C13.3353 200.958 13.2473 201.046 13.139 201.046Z" fill="white"/>
</svg>
