<svg width="80" height="80" viewBox="0 0 80 80" fill="none" xmlns="http://www.w3.org/2000/svg">
<rect width="80" height="80" rx="10" fill="#708F32"/>
<path d="M59.25 23.3937L59.025 21.0312L56.775 21.7812C52.9189 23.121 48.8011 23.5322 44.7563 22.9812C40.5059 22.3216 36.1555 22.9078 32.2313 24.6688C30.1509 25.5546 28.3252 26.9467 26.9203 28.7184C25.5154 30.4901 24.576 32.585 24.1875 34.8125C23.6839 37.69 23.9358 40.649 24.9188 43.4C25.5517 41.9714 26.2913 40.5925 27.1313 39.275C29.0366 36.4716 31.6768 34.2466 34.7625 32.8437C37.7352 31.4865 40.9845 30.8443 44.25 30.9687C41.1413 31.4441 38.1656 32.5615 35.5125 34.25C34.2328 35.0541 33.0608 36.0181 32.025 37.1187C31.0344 38.2189 30.1609 39.4191 29.4188 40.7C28.0248 43.3775 27.0329 46.2458 26.475 49.2125C25.8737 52.1888 25.5474 55.214 25.5 58.25H29.25C29.4263 55.5272 29.796 52.8204 30.3563 50.15C32.9577 51.5548 35.8751 52.2712 38.8313 52.2313C41.5884 52.2294 44.3172 51.6747 46.8563 50.6C61.125 44.5063 59.25 24.2375 59.25 23.3937Z" fill="white"/>
</svg>
