<svg width="467" height="491" viewBox="0 0 467 491" fill="none" xmlns="http://www.w3.org/2000/svg">
<path d="M467 286.782C467 405.921 349.267 490.076 229.988 490.076C110.709 490.076 0 405.921 0 286.782C0 167.504 166.906 20.126 286.185 20.126C405.464 20.126 467 167.504 467 286.782Z" fill="url(#paint0_linear_602_3795)"/>
<g opacity="0.7">
<path opacity="0.1" d="M225.07 222.155L407.711 327.525C410.24 328.93 410.24 332.724 407.57 334.129L290.399 401.144C285.763 403.813 280.002 403.813 275.366 401.144L92.7248 295.774C90.1959 294.228 90.1959 290.576 92.7248 289.171L210.037 222.155C214.673 219.486 220.433 219.486 225.07 222.155Z" fill="#3C5185"/>
<path opacity="0.1" d="M225.211 222.294L407.15 327.383C409.678 328.788 409.678 332.441 407.15 333.846L290.259 400.721C285.623 403.39 279.863 403.39 275.226 400.721L93.2873 295.632C90.7584 294.086 90.7584 290.434 93.2873 289.029L210.178 222.154C214.814 219.485 220.574 219.625 225.211 222.294Z" fill="#3C5185"/>
<path opacity="0.1" d="M225.207 222.296L406.725 327.104C409.253 328.509 409.253 332.162 406.725 333.707L290.115 400.301C285.479 402.971 279.859 402.971 275.223 400.301L93.7053 295.493C91.1764 294.088 91.1764 290.435 93.7053 288.89L210.315 222.296C214.951 219.627 220.571 219.627 225.207 222.296Z" fill="#3C5185"/>
<path opacity="0.1" d="M225.352 222.436L406.167 326.822C408.696 328.368 408.696 332.02 406.167 333.425L289.979 399.879C285.343 402.548 279.723 402.408 275.087 399.738L94.2717 295.352C91.7428 293.947 91.7428 290.294 94.2717 288.889L210.46 222.436C214.955 219.766 220.716 219.766 225.352 222.436Z" fill="#3C5185"/>
<path opacity="0.2" d="M225.35 222.575L405.744 326.681C408.273 328.086 408.273 331.739 405.744 333.144L289.837 399.457C285.341 401.985 279.581 401.985 274.945 399.316L94.6916 295.21C92.1627 293.805 92.1627 290.153 94.6916 288.748L210.458 222.575C215.094 219.906 220.855 219.906 225.35 222.575Z" fill="#3C5185"/>
<path opacity="0.2" d="M225.492 222.717L405.183 326.401C407.712 327.946 407.712 331.459 405.183 333.004L289.838 398.896C285.202 401.565 279.582 401.565 274.946 398.896L95.114 295.071C92.7256 293.666 92.7255 290.013 95.2544 288.608L210.599 222.717C215.236 220.048 220.856 220.048 225.492 222.717Z" fill="#3C5185"/>
<path opacity="0.2" d="M225.492 222.857L404.761 326.26C407.29 327.665 407.29 331.318 404.761 332.723L289.697 398.474C285.061 401.143 279.441 401.143 274.805 398.474L95.676 295.07C93.1471 293.525 93.1471 290.013 95.676 288.608L210.74 222.716C215.376 220.188 220.996 220.187 225.492 222.857Z" fill="#3C5185"/>
<path opacity="0.2" d="M225.631 222.857L404.339 325.979C406.727 327.525 406.727 331.037 404.198 332.442L289.555 398.052C284.919 400.722 279.299 400.722 274.804 398.052L96.096 294.93C93.7076 293.525 93.7076 289.872 96.096 288.467L210.879 222.857C215.515 220.188 221.135 220.328 225.631 222.857Z" fill="#3C5185"/>
<path opacity="0.3" d="M225.774 222.998L403.779 325.839C406.308 327.244 406.308 330.897 403.779 332.302L289.417 397.631C284.781 400.301 279.302 400.16 274.665 397.631L96.6603 294.79C94.1315 293.385 94.1315 289.732 96.6603 288.328L211.022 222.998C215.518 220.329 221.138 220.329 225.774 222.998Z" fill="#3C5185"/>
<path opacity="0.3" d="M225.774 223.139L403.358 325.558C405.746 326.963 405.746 330.616 403.358 332.021L289.277 397.21C284.781 399.739 279.162 399.739 274.666 397.21L97.0823 294.65C94.6939 293.245 94.6939 289.733 97.0823 288.328L211.163 223.139C215.659 220.469 221.279 220.469 225.774 223.139Z" fill="#3C5185"/>
<path opacity="0.3" d="M225.913 223.279L402.794 325.417C405.323 326.822 405.323 330.335 402.794 331.74L289.135 396.788C284.639 399.317 279.02 399.317 274.524 396.788L97.6428 294.509C95.1139 293.104 95.1139 289.592 97.6428 288.187L211.302 223.138C215.798 220.609 221.417 220.609 225.913 223.279Z" fill="#3C5185"/>
<path opacity="0.3" d="M225.912 223.278L402.371 325.136C404.76 326.541 404.76 330.194 402.371 331.599L288.993 396.366C284.498 398.895 279.018 398.895 274.522 396.226L98.0628 294.509C95.6744 292.963 95.6744 289.451 98.0628 288.046L211.441 223.278C215.937 220.75 221.416 220.75 225.912 223.278Z" fill="#3C5185"/>
<path opacity="0.4" d="M226.053 223.42L401.81 324.997C404.339 326.402 404.339 329.914 401.81 331.319L288.853 395.805C284.357 398.475 278.878 398.475 274.382 395.805L98.6252 294.369C96.0963 292.964 96.0963 289.311 98.6252 287.907L211.441 223.42C215.937 220.891 221.557 220.891 226.053 223.42Z" fill="#3C5185"/>
<path opacity="0.4" d="M226.053 223.56L401.389 324.715C403.777 326.12 403.777 329.632 401.389 331.037L288.854 395.383C284.358 398.053 278.738 398.053 274.383 395.383L99.0472 294.228C96.6588 292.823 96.6588 289.311 99.0472 287.906L211.582 223.56C216.078 221.031 221.557 221.031 226.053 223.56Z" fill="#3C5185"/>
<path opacity="0.4" d="M226.194 223.701L400.828 324.576C403.357 325.981 403.357 329.493 400.828 330.898L288.714 394.963C284.218 397.492 278.739 397.492 274.243 394.963L99.4694 294.088C97.081 292.684 97.081 289.171 99.6099 287.766L211.724 223.701C216.219 221.032 221.699 221.032 226.194 223.701Z" fill="#3C5185"/>
<path opacity="0.4" d="M226.195 223.84L400.406 324.293C402.795 325.698 402.795 329.21 400.406 330.615L288.574 394.54C284.078 397.069 278.599 397.069 274.103 394.54L100.032 293.946C97.6431 292.542 97.6431 289.029 100.032 287.624L211.864 223.7C216.36 221.171 221.839 221.171 226.195 223.84Z" fill="#3C5185"/>
<path opacity="0.5" d="M226.335 223.84L399.985 324.152C402.374 325.557 402.374 328.929 399.845 330.334L288.434 394.118C283.938 396.647 278.459 396.647 274.103 394.118L100.453 293.806C98.065 292.401 98.065 289.029 100.453 287.624L212.005 223.84C216.501 221.311 221.84 221.311 226.335 223.84Z" fill="#3C5185"/>
<path opacity="0.5" d="M226.475 223.982L399.422 323.872C401.81 325.277 401.81 328.79 399.422 330.195L288.292 393.698C283.796 396.227 278.457 396.227 273.961 393.698L101.014 293.807C98.6256 292.402 98.6256 288.89 101.014 287.485L212.144 223.982C216.5 221.453 221.979 221.453 226.475 223.982Z" fill="#3C5185"/>
<path opacity="0.5" d="M226.473 224.123L398.999 323.733C401.387 324.997 401.387 328.51 398.999 329.915L288.15 393.277C283.794 395.806 278.315 395.806 273.96 393.137L101.434 293.667C99.0455 292.263 99.0455 288.75 101.434 287.345L212.283 224.123C216.638 221.594 222.118 221.594 226.473 224.123Z" fill="#3C5185"/>
<path opacity="0.5" d="M226.618 224.263L398.441 323.452C400.83 324.856 400.83 328.369 398.441 329.633L288.014 392.855C283.658 395.244 278.179 395.244 273.824 392.715L102 293.526C99.6119 292.122 99.6119 288.609 102 287.345L212.428 224.123C216.783 221.734 222.122 221.734 226.618 224.263Z" fill="#3C5185"/>
<path opacity="0.6" d="M226.614 224.262L398.016 323.31C400.405 324.574 400.405 328.087 398.016 329.491L287.87 392.292C283.514 394.821 278.175 394.821 273.82 392.292L102.418 293.385C100.03 291.98 100.03 288.608 102.418 287.203L212.425 224.262C216.92 221.733 222.259 221.733 226.614 224.262Z" fill="#3C5185"/>
<path opacity="0.6" d="M226.755 224.403L397.455 323.029C399.843 324.434 399.843 327.806 397.455 329.211L287.73 391.871C283.374 394.4 278.036 394.4 273.68 391.871L102.981 293.244C100.592 291.839 100.592 288.468 102.981 287.063L212.566 224.403C216.921 221.874 222.4 221.874 226.755 224.403Z" fill="#3C5185"/>
<path opacity="0.6" d="M226.756 224.543L397.034 322.889C399.422 324.153 399.422 327.665 397.034 328.93L287.73 391.449C283.375 393.978 278.036 393.978 273.681 391.449L103.403 293.104C101.014 291.839 101.014 288.327 103.403 287.063L212.706 224.543C217.062 222.014 222.401 222.014 226.756 224.543Z" fill="#3C5185"/>
<path opacity="0.6" d="M226.897 224.683L396.472 322.607C398.861 324.012 398.861 327.384 396.472 328.788L287.59 391.027C283.235 393.556 277.896 393.556 273.541 391.027L103.825 293.103C101.577 291.698 101.577 288.326 103.825 286.921L212.848 224.683C217.203 222.154 222.542 222.154 226.897 224.683Z" fill="#3C5185"/>
<path opacity="0.7" d="M226.895 224.825L396.049 322.327C398.438 323.732 398.438 327.104 396.049 328.509L287.448 390.607C283.093 393.136 277.754 392.995 273.399 390.607L104.385 292.964C101.997 291.559 101.997 288.187 104.385 286.782L212.986 224.684C217.342 222.296 222.68 222.296 226.895 224.825Z" fill="#3C5185"/>
<path opacity="0.7" d="M227.038 224.824L395.63 322.185C397.878 323.59 397.878 326.962 395.49 328.227L287.31 390.184C282.955 392.573 277.756 392.573 273.401 390.184L104.809 292.822C102.561 291.417 102.561 288.046 104.809 286.781L213.129 224.824C217.485 222.435 222.683 222.435 227.038 224.824Z" fill="#3C5185"/>
<path opacity="0.7" d="M227.035 224.965L395.065 321.905C397.453 323.31 397.453 326.682 395.065 328.087L287.166 389.764C282.811 392.152 277.612 392.152 273.257 389.623L105.367 292.683C102.979 291.278 102.979 287.906 105.367 286.642L213.266 224.965C217.481 222.436 222.82 222.436 227.035 224.965Z" fill="#3C5185"/>
<path opacity="0.7" d="M227.176 225.105L394.644 321.764C396.892 323.029 396.892 326.4 394.644 327.805L287.026 389.341C282.811 391.73 277.472 391.73 273.258 389.201L105.789 292.541C103.542 291.277 103.542 287.905 105.789 286.5L213.407 225.105C217.622 222.576 222.961 222.576 227.176 225.105Z" fill="#3C5185"/>
<path opacity="0.8" d="M227.319 225.247L394.084 321.485C396.473 322.89 396.473 326.261 394.084 327.526L286.888 388.781C282.673 391.31 277.475 391.31 273.119 388.781L106.354 292.402C103.965 291.138 103.965 287.766 106.354 286.502L213.41 225.106C217.765 222.718 222.963 222.718 227.319 225.247Z" fill="#3C5185"/>
<path opacity="0.8" d="M227.319 225.246L393.663 321.344C395.911 322.608 395.911 325.98 393.663 327.385L286.748 388.359C282.533 390.888 277.335 390.748 273.12 388.359L106.776 292.402C104.528 290.997 104.528 287.625 106.776 286.361L213.551 225.246C217.906 222.858 223.104 222.858 227.319 225.246Z" fill="#3C5185"/>
<path opacity="0.8" d="M227.46 225.387L393.102 321.063C395.491 322.468 395.491 325.84 393.102 327.104L286.749 387.938C282.393 390.326 277.195 390.326 272.98 387.938L107.198 292.262C104.95 290.857 104.95 287.626 107.339 286.221L213.692 225.387C217.907 222.999 223.246 222.999 227.46 225.387Z" fill="#3C5185"/>
<path opacity="0.8" d="M227.457 225.526L392.677 320.921C394.925 322.185 394.925 325.557 392.677 326.821L286.604 387.515C282.389 389.903 277.191 389.903 272.976 387.515L107.756 292.119C105.508 290.855 105.508 287.483 107.756 286.078L213.829 225.526C218.044 223.137 223.242 223.137 227.457 225.526Z" fill="#3C5185"/>
<path opacity="0.9" d="M227.601 225.667L392.119 320.64C394.508 322.045 394.508 325.276 392.119 326.681L286.468 387.094C282.253 389.482 277.055 389.482 272.84 387.094L108.182 291.98C105.934 290.715 105.934 287.343 108.182 286.079L213.974 225.667C218.188 223.138 223.387 223.278 227.601 225.667Z" fill="#3C5185"/>
<path opacity="0.9" d="M227.6 225.808L391.696 320.501C393.944 321.765 393.944 325.137 391.696 326.401L286.326 386.673C282.111 389.061 276.913 389.061 272.839 386.673L108.743 291.84C106.495 290.576 106.495 287.204 108.743 285.939L214.113 225.668C218.327 223.279 223.385 223.279 227.6 225.808Z" fill="#3C5185"/>
<path opacity="0.9" d="M227.737 225.808L391.271 320.219C393.519 321.624 393.519 324.856 391.271 326.12L286.182 386.251C281.967 388.64 276.91 388.64 272.695 386.111L109.161 291.699C106.913 290.435 106.913 287.204 109.161 285.799L214.25 225.808C218.464 223.42 223.522 223.42 227.737 225.808Z" fill="#3C5185"/>
<path opacity="0.9" d="M227.739 225.949L390.712 320.079C392.96 321.344 392.96 324.575 390.712 325.98L286.044 385.69C281.97 388.078 276.772 388.078 272.557 385.69L109.725 291.699C107.477 290.294 107.477 287.063 109.725 285.799L214.393 225.949C218.467 223.56 223.665 223.56 227.739 225.949Z" fill="#3C5185"/>
<path d="M227.88 226.088L390.291 319.797C392.539 321.202 392.539 324.434 390.291 325.698L285.904 385.267C281.83 387.656 276.632 387.656 272.557 385.267L110.147 291.558C107.899 290.294 107.899 286.922 110.147 285.657L214.534 226.088C218.608 223.7 223.666 223.7 227.88 226.088Z" fill="#3C5185"/>
<path d="M227.879 226.229L389.727 319.657C391.975 320.922 391.975 324.153 389.727 325.418L285.762 384.846C281.688 387.235 276.63 387.235 272.415 384.846L110.707 291.418C108.46 290.154 108.46 286.922 110.707 285.517L214.532 226.089C218.747 223.841 223.805 223.841 227.879 226.229Z" fill="#3C5185"/>
<path d="M228.02 226.229L389.306 319.376C391.554 320.641 391.554 323.872 389.306 325.277L285.763 384.425C281.548 386.813 276.49 386.813 272.416 384.425L111.129 291.278C108.881 290.013 108.881 286.782 111.129 285.517L214.673 226.229C218.888 223.841 223.945 223.981 228.02 226.229Z" fill="#3C5185"/>
</g>
<path d="M410.244 179.164V313.756C410.244 316.566 407.153 318.393 404.764 316.988L226.057 213.725C223.668 212.32 222.123 209.791 222.123 206.981V72.2482C222.123 69.4383 225.073 67.7524 227.602 69.1573L406.31 172.28C408.698 173.684 410.244 176.354 410.244 179.164Z" fill="url(#paint1_linear_602_3795)"/>
<path d="M407.855 180.709V315.301C407.855 318.111 404.905 319.937 402.516 318.533L223.809 215.27C221.28 213.865 219.875 211.336 219.875 208.526V73.7931C219.875 70.9833 222.825 69.2973 225.214 70.7023L403.921 173.824C406.45 175.229 407.855 177.899 407.855 180.709Z" fill="#3C5185"/>
<path d="M397.319 305.607L229.148 207.964V84.751L397.319 182.394V305.607Z" fill="#EDF3FA"/>
<path d="M227.04 221.874L404.202 319.096C404.202 319.096 407.012 326.542 402.376 329.352L289.7 393.838C285.205 396.367 279.725 396.367 275.229 393.698L99.8937 292.543C97.5053 291.138 98.0673 282.146 98.0673 282.146L212.569 221.734C217.065 219.205 222.544 219.205 227.04 221.874Z" fill="url(#paint2_linear_602_3795)"/>
<path d="M227.041 214.849L402.377 316.145C404.765 317.55 404.765 321.062 402.377 322.467L289.701 386.813C285.206 389.482 279.726 389.342 275.231 386.813L99.8948 285.517C97.5064 284.112 97.5064 280.6 99.8948 279.195L212.571 214.849C217.066 212.32 222.546 212.32 227.041 214.849Z" fill="white"/>
<path d="M206.39 298.303L252.612 324.856C253.315 325.277 253.315 326.261 252.612 326.542L222.968 343.542C221.704 344.244 220.299 344.244 219.175 343.542L172.953 316.848C172.25 316.426 172.25 315.583 172.953 315.162L202.597 298.162C203.721 297.6 205.266 297.6 206.39 298.303Z" fill="#D1E1F2"/>
<path d="M224.933 224.684L234.628 230.304C235.049 230.585 235.049 231.147 234.628 231.288L229.851 234.098C229.429 234.238 229.008 234.238 228.586 234.098L218.892 228.478C218.471 228.197 218.471 227.635 218.892 227.494L223.669 224.684C224.091 224.544 224.652 224.544 224.933 224.684Z" fill="#D1E1F2"/>
<path d="M239.262 233.113L248.956 238.733C249.237 239.014 249.237 239.576 248.956 239.716L244.038 242.526C243.757 242.807 243.195 242.807 242.774 242.526L233.08 236.907C232.799 236.766 232.799 236.204 233.08 235.923L237.997 233.113C238.278 232.973 238.84 232.973 239.262 233.113Z" fill="#D1E1F2"/>
<path d="M253.451 241.121L263.145 246.741C263.567 247.022 263.567 247.584 263.145 247.865L258.368 250.534C257.947 250.815 257.525 250.815 257.104 250.534L247.41 244.914C246.988 244.774 246.988 244.212 247.41 243.931L252.187 241.121C252.608 240.981 253.03 240.981 253.451 241.121Z" fill="#D1E1F2"/>
<path d="M268.203 249.409L277.897 255.029C278.319 255.31 278.319 255.872 277.897 256.012L273.12 258.822C272.699 259.103 272.137 259.103 271.856 258.822L262.162 253.202C261.74 253.062 261.74 252.5 262.162 252.219L266.939 249.409C267.36 249.269 267.782 249.269 268.203 249.409Z" fill="#D1E1F2"/>
<path d="M282.252 257.278L291.946 262.898C292.367 263.179 292.367 263.741 291.946 263.881L287.169 266.691C286.748 266.972 286.326 266.972 285.905 266.691L276.211 261.072C275.789 260.931 275.789 260.369 276.211 260.088L280.987 257.278C281.409 257.138 281.971 257.138 282.252 257.278Z" fill="#D1E1F2"/>
<path d="M296.025 265.847L305.719 271.467C306.141 271.608 306.141 272.17 305.719 272.451L300.943 275.12C300.521 275.401 300.1 275.401 299.678 275.12L289.984 269.641C289.563 269.36 289.563 268.798 289.984 268.517L294.761 265.847C295.182 265.566 295.604 265.566 296.025 265.847Z" fill="#D1E1F2"/>
<path d="M310.351 273.716L320.046 279.335C320.467 279.616 320.467 280.178 320.046 280.319L315.269 283.129C314.847 283.269 314.426 283.269 314.004 283.129L304.31 277.509C303.889 277.228 303.889 276.666 304.31 276.526L309.087 273.716C309.509 273.575 310.07 273.575 310.351 273.716Z" fill="#D1E1F2"/>
<path d="M324.543 282.146L334.237 287.766C334.658 288.047 334.658 288.609 334.237 288.75L329.46 291.559C329.039 291.7 328.617 291.7 328.196 291.559L318.502 285.94C318.08 285.659 318.08 285.097 318.502 284.956L323.278 282.146C323.7 282.006 324.121 282.006 324.543 282.146Z" fill="#D1E1F2"/>
<path d="M338.451 290.434L348.145 296.054C348.567 296.195 348.567 296.757 348.145 297.038L343.368 299.707C342.947 299.988 342.525 299.988 342.104 299.707L332.41 294.228C331.988 293.947 331.988 293.385 332.41 293.104L337.187 290.434C337.608 290.153 338.03 290.153 338.451 290.434Z" fill="#D1E1F2"/>
<path d="M353.203 298.864L362.897 304.484C363.319 304.624 363.319 305.186 362.897 305.467L357.98 308.277C357.699 308.418 357.137 308.418 356.856 308.277L347.162 302.657C346.74 302.376 346.74 301.814 347.162 301.674L351.939 298.864C352.36 298.583 352.782 298.583 353.203 298.864Z" fill="#D1E1F2"/>
<path d="M367.394 306.872L377.088 312.492C377.51 312.632 377.51 313.194 377.088 313.475L372.312 316.285C371.89 316.425 371.469 316.425 371.047 316.285L361.353 310.665C360.932 310.384 360.932 309.822 361.353 309.682L366.13 306.872C366.551 306.591 366.973 306.591 367.394 306.872Z" fill="#D1E1F2"/>
<path d="M205.263 235.22L211.866 231.426C212.709 230.864 213.693 230.864 214.536 231.426L220.998 235.079C221.841 235.641 221.982 236.906 220.998 237.468L214.676 241.401C213.833 241.963 212.709 241.963 211.866 241.401L205.263 237.608C204.28 237.046 204.28 235.782 205.263 235.22Z" fill="#D1E1F2"/>
<path d="M220.015 243.791L226.478 239.857C227.461 239.436 228.445 239.436 229.288 239.857L235.75 243.51C236.593 244.072 236.593 245.336 235.75 245.898L229.428 249.832C228.445 250.394 227.461 250.394 226.618 249.832L220.015 246.039C219.031 245.617 219.031 244.212 220.015 243.791Z" fill="#D1E1F2"/>
<path d="M234.204 251.798L240.808 247.864C241.651 247.442 242.775 247.442 243.617 247.864L250.08 251.657C250.923 252.079 250.923 253.343 250.08 253.905L243.617 257.839C242.775 258.401 241.791 258.401 240.808 257.839L234.204 254.046C233.362 253.624 233.362 252.219 234.204 251.798Z" fill="#D1E1F2"/>
<path d="M249.517 260.086L255.98 256.152C256.823 255.731 257.947 255.731 258.79 256.152L265.252 259.805C266.095 260.367 266.095 261.631 265.252 262.193L258.93 266.127C257.947 266.689 256.963 266.689 256.12 266.127L249.517 262.334C248.533 261.912 248.533 260.507 249.517 260.086Z" fill="#D1E1F2"/>
<path d="M262.868 267.955L269.471 264.021C270.314 263.6 271.297 263.6 272.14 264.021L278.603 267.815C279.446 268.236 279.586 269.5 278.603 270.062L272.281 273.996C271.438 274.558 270.314 274.558 269.471 273.996L262.868 270.203C262.025 269.781 261.884 268.376 262.868 267.955Z" fill="#D1E1F2"/>
<path d="M276.491 276.385L283.095 272.451C283.938 272.029 284.921 272.029 285.764 272.451L292.227 276.104C293.07 276.666 293.07 277.93 292.227 278.492L285.905 282.426C285.062 282.988 283.938 282.988 283.095 282.426L276.491 278.633C275.508 278.211 275.508 276.806 276.491 276.385Z" fill="#D1E1F2"/>
<path d="M290.962 284.253L297.566 280.46C298.408 279.898 299.532 279.898 300.375 280.46L306.698 284.112C307.681 284.674 307.681 285.939 306.838 286.501L300.375 290.435C299.532 290.997 298.408 290.997 297.566 290.435L290.962 286.641C290.119 286.079 290.119 284.815 290.962 284.253Z" fill="#D1E1F2"/>
<path d="M305.294 292.4L311.757 288.467C312.6 288.045 313.724 288.045 314.567 288.467L321.03 292.26C321.872 292.681 321.872 294.086 321.03 294.508L314.707 298.441C313.724 299.003 312.74 299.004 311.897 298.582L305.294 294.789C304.311 294.227 304.311 292.822 305.294 292.4Z" fill="#D1E1F2"/>
<path d="M319.203 300.971L325.806 297.037C326.649 296.615 327.773 296.615 328.616 297.037L334.938 300.83C335.921 301.252 335.921 302.657 335.078 303.078L328.616 307.012C327.773 307.574 326.649 307.574 325.806 307.152L319.203 303.359C318.36 302.797 318.36 301.533 319.203 300.971Z" fill="#D1E1F2"/>
<path d="M334.515 309.962L340.978 306.028C341.961 305.607 342.945 305.607 343.788 306.028L350.25 309.821C351.093 310.243 351.093 311.507 350.25 312.069L343.928 316.003C343.085 316.565 341.961 316.565 341.118 316.144L334.515 312.35C333.531 311.788 333.531 310.383 334.515 309.962Z" fill="#D1E1F2"/>
<path d="M348.286 317.409L354.89 313.616C355.733 313.054 356.716 313.054 357.559 313.475L364.022 317.269C364.865 317.831 364.865 319.095 364.022 319.657L357.699 323.45C356.857 324.012 355.733 324.012 354.89 323.591L348.286 319.797C347.303 319.235 347.303 317.971 348.286 317.409Z" fill="#D1E1F2"/>
<path d="M190.652 243.228L197.114 239.435C198.098 238.873 199.081 238.873 199.924 239.295L206.387 243.088C207.23 243.65 207.23 244.914 206.387 245.476L200.065 249.41C199.081 249.832 198.098 249.832 197.255 249.41L190.652 245.617C189.668 245.055 189.668 243.79 190.652 243.228Z" fill="#D1E1F2"/>
<path d="M205.263 251.658L211.866 247.865C212.709 247.303 213.833 247.303 214.676 247.865L221.139 251.518C221.982 252.08 221.982 253.344 221.139 253.906L214.676 257.84C213.833 258.402 212.85 258.402 211.866 257.84L205.263 254.047C204.42 253.485 204.42 252.22 205.263 251.658Z" fill="#D1E1F2"/>
<path d="M219.593 259.666L226.196 255.873C227.039 255.311 228.023 255.311 229.006 255.873L235.328 259.525C236.312 260.087 236.312 261.352 235.469 261.914L229.006 265.848C228.163 266.41 227.039 266.41 226.196 265.848L219.593 262.054C218.75 261.492 218.75 260.228 219.593 259.666Z" fill="#D1E1F2"/>
<path d="M234.767 267.955L241.37 264.162C242.213 263.6 243.337 263.6 244.18 264.162L250.643 267.815C251.486 268.376 251.486 269.641 250.643 270.203L244.18 274.137C243.337 274.699 242.213 274.699 241.37 274.137L234.767 270.343C233.924 269.781 233.924 268.517 234.767 267.955Z" fill="#D1E1F2"/>
<path d="M248.255 275.823L254.718 272.03C255.701 271.468 256.685 271.468 257.528 272.03L263.99 275.683C264.833 276.245 264.833 277.509 263.99 278.071L257.668 282.005C256.825 282.567 255.701 282.567 254.858 282.005L248.255 278.212C247.272 277.65 247.272 276.385 248.255 275.823Z" fill="#D1E1F2"/>
<path d="M261.88 284.253L268.343 280.46C269.186 279.898 270.31 279.898 271.153 280.46L277.615 284.112C278.458 284.674 278.458 285.939 277.615 286.501L271.153 290.435C270.31 290.997 269.326 290.997 268.343 290.435L261.88 286.641C260.897 286.079 260.897 284.815 261.88 284.253Z" fill="#D1E1F2"/>
<path d="M276.351 292.261L282.954 288.467C283.797 287.905 284.781 287.905 285.624 288.467L292.086 292.12C293.07 292.682 293.07 293.947 292.086 294.509L285.764 298.442C284.921 298.864 283.797 298.864 282.954 298.442L276.351 294.649C275.508 294.087 275.508 292.823 276.351 292.261Z" fill="#D1E1F2"/>
<path d="M290.544 300.268L297.148 296.475C297.99 295.913 299.114 295.913 299.957 296.475L306.28 300.128C307.263 300.69 307.263 301.954 306.42 302.516L299.957 306.45C299.114 307.012 297.99 307.012 297.148 306.45L290.544 302.657C289.701 302.235 289.701 300.83 290.544 300.268Z" fill="#D1E1F2"/>
<path d="M304.592 308.84L311.195 305.047C312.038 304.625 313.022 304.625 313.865 305.047L320.327 308.699C321.17 309.261 321.311 310.526 320.327 311.088L314.005 315.022C313.162 315.584 312.038 315.584 311.195 315.022L304.592 311.228C303.749 310.807 303.609 309.402 304.592 308.84Z" fill="#D1E1F2"/>
<path d="M319.765 317.83L326.368 314.037C327.211 313.475 328.335 313.475 329.178 314.037L335.641 317.69C336.484 318.251 336.484 319.516 335.641 320.078L329.178 324.012C328.335 324.574 327.352 324.574 326.368 324.012L319.765 320.218C318.922 319.656 318.922 318.392 319.765 317.83Z" fill="#D1E1F2"/>
<path d="M333.675 325.418L340.138 321.484C340.981 321.063 342.105 321.063 342.948 321.484L349.41 325.277C350.253 325.699 350.253 326.963 349.41 327.525L342.948 331.459C342.105 332.021 341.121 332.021 340.138 331.459L333.675 327.666C332.692 327.244 332.692 325.839 333.675 325.418Z" fill="#D1E1F2"/>
<path d="M175.9 251.237L182.503 247.303C183.346 246.882 184.47 246.882 185.313 247.303L191.776 251.097C192.618 251.518 192.618 252.783 191.776 253.345L185.313 257.278C184.47 257.84 183.486 257.84 182.503 257.278L175.9 253.485C175.057 253.064 175.057 251.659 175.9 251.237Z" fill="#D1E1F2"/>
<path d="M190.652 259.666L197.255 255.873C198.098 255.311 199.222 255.311 200.065 255.732L206.387 259.525C207.37 260.087 207.37 261.352 206.527 261.914L200.065 265.707C199.222 266.269 198.098 266.269 197.255 265.848L190.652 262.054C189.809 261.492 189.809 260.228 190.652 259.666Z" fill="#D1E1F2"/>
<path d="M204.982 267.674L211.585 263.88C212.428 263.318 213.411 263.318 214.254 263.88L220.717 267.533C221.56 268.095 221.7 269.36 220.717 269.922L214.395 273.855C213.552 274.277 212.428 274.277 211.585 273.855L204.982 270.062C203.998 269.5 203.998 268.236 204.982 267.674Z" fill="#D1E1F2"/>
<path d="M220.154 275.965L226.757 272.171C227.6 271.609 228.583 271.609 229.567 272.031L235.889 275.824C236.872 276.386 236.872 277.651 235.889 278.213L229.567 282.146C228.724 282.568 227.6 282.568 226.757 282.146L220.154 278.353C219.311 277.791 219.311 276.527 220.154 275.965Z" fill="#D1E1F2"/>
<path d="M233.503 283.831L240.106 280.038C240.949 279.476 242.073 279.476 242.916 280.038L249.379 283.69C250.222 284.252 250.222 285.517 249.379 286.079L242.916 290.013C242.073 290.434 241.09 290.434 240.106 290.013L233.503 286.219C232.66 285.657 232.66 284.393 233.503 283.831Z" fill="#D1E1F2"/>
<path d="M247.128 292.262L253.732 288.468C254.574 287.906 255.698 287.906 256.541 288.328L262.864 292.121C263.847 292.683 263.847 293.948 263.004 294.51L256.541 298.303C255.698 298.865 254.574 298.865 253.732 298.443L247.128 294.65C246.285 294.088 246.285 292.824 247.128 292.262Z" fill="#D1E1F2"/>
<path d="M261.741 300.27L268.345 296.337C269.188 295.915 270.171 295.915 271.014 296.337L277.477 300.13C278.32 300.551 278.32 301.816 277.477 302.378L271.155 306.312C270.312 306.874 269.188 306.874 268.345 306.452L261.741 302.659C260.758 302.097 260.758 300.692 261.741 300.27Z" fill="#D1E1F2"/>
<path d="M275.931 308.278L282.534 304.485C283.377 303.923 284.361 303.923 285.344 304.485L291.666 308.138C292.65 308.7 292.65 309.964 291.666 310.526L285.344 314.46C284.501 314.882 283.377 315.022 282.534 314.46L275.931 310.667C275.088 310.105 275.088 308.84 275.931 308.278Z" fill="#D1E1F2"/>
<path d="M289.978 316.847L296.441 313.053C297.424 312.491 298.407 312.491 299.25 313.053L305.713 316.706C306.556 317.268 306.556 318.533 305.713 319.095L299.391 323.028C298.407 323.45 297.424 323.59 296.581 323.028L289.978 319.235C288.994 318.673 288.994 317.409 289.978 316.847Z" fill="#D1E1F2"/>
<path d="M305.152 325.84L311.755 322.046C312.598 321.485 313.722 321.485 314.565 322.046L320.887 325.699C321.87 326.261 321.87 327.526 321.027 328.088L314.565 332.022C313.722 332.443 312.598 332.443 311.755 332.022L305.152 328.228C304.309 327.666 304.309 326.402 305.152 325.84Z" fill="#D1E1F2"/>
<path d="M318.923 333.286L325.526 329.493C326.369 328.931 327.493 328.931 328.336 329.493L334.659 333.146C335.642 333.708 335.642 334.972 334.799 335.534L328.336 339.468C327.493 340.03 326.369 340.03 325.526 339.468L318.923 335.674C318.08 335.112 318.08 333.848 318.923 333.286Z" fill="#D1E1F2"/>
<path d="M161.288 259.104L167.892 255.311C168.735 254.749 169.859 254.749 170.702 255.311L177.024 258.964C178.007 259.526 178.007 260.79 177.164 261.352L170.702 265.286C169.859 265.848 168.735 265.848 167.892 265.286L161.288 261.493C160.446 260.931 160.446 259.666 161.288 259.104Z" fill="#D1E1F2"/>
<path d="M176.042 267.676L182.645 263.742C183.488 263.32 184.472 263.32 185.315 263.742L191.778 267.535C192.621 267.957 192.761 269.221 191.778 269.783L185.455 273.717C184.612 274.279 183.488 274.279 182.645 273.717L176.042 269.924C175.059 269.502 175.059 268.097 176.042 267.676Z" fill="#D1E1F2"/>
<path d="M190.37 275.683L196.833 271.749C197.676 271.327 198.8 271.327 199.643 271.749L206.106 275.542C206.949 275.964 206.949 277.228 206.106 277.79L199.783 281.724C198.8 282.286 197.817 282.286 196.974 281.864L190.37 278.071C189.387 277.509 189.387 276.104 190.37 275.683Z" fill="#D1E1F2"/>
<path d="M205.544 283.971L212.147 280.037C212.99 279.615 213.974 279.615 214.817 280.037L221.28 283.83C222.122 284.252 222.263 285.516 221.28 286.078L214.957 290.012C214.114 290.574 212.99 290.574 212.147 290.012L205.544 286.218C204.561 285.797 204.561 284.392 205.544 283.971Z" fill="#D1E1F2"/>
<path d="M220.156 292.683L226.759 288.749C227.602 288.327 228.585 288.327 229.569 288.749L262.866 308.137C263.849 308.699 263.849 309.963 263.006 310.525L256.543 314.318C255.7 314.88 254.576 314.88 253.734 314.459L220.156 295.071C219.313 294.509 219.313 293.244 220.156 292.683Z" fill="#D1E1F2"/>
<path d="M261.32 316.285L267.923 312.351C268.766 311.93 269.749 311.93 270.592 312.351L277.055 316.145C277.898 316.566 277.898 317.971 277.055 318.392L270.733 322.326C269.89 322.888 268.766 322.888 267.923 322.467L261.32 318.673C260.336 318.111 260.336 316.847 261.32 316.285Z" fill="#D1E1F2"/>
<path d="M275.228 324.855L281.831 320.922C282.674 320.5 283.798 320.5 284.641 320.922L291.104 324.715C291.947 325.136 291.947 326.541 291.104 327.103L284.641 330.897C283.798 331.459 282.815 331.459 281.831 331.037L275.228 327.244C274.385 326.682 274.385 325.417 275.228 324.855Z" fill="#D1E1F2"/>
<path d="M290.541 333.847L297.145 329.913C297.988 329.491 298.971 329.491 299.814 329.913L306.277 333.706C307.12 334.128 307.26 335.533 306.277 335.954L299.954 339.888C299.111 340.45 297.988 340.45 297.145 340.028L290.541 336.235C289.698 335.673 289.558 334.409 290.541 333.847Z" fill="#D1E1F2"/>
<path d="M304.312 341.293L310.915 337.5C311.758 336.938 312.742 336.938 313.725 337.5L320.047 341.152C321.031 341.714 321.031 342.979 320.047 343.541L313.725 347.475C312.882 347.896 311.758 347.896 310.915 347.475L304.312 343.681C303.469 343.119 303.469 341.855 304.312 341.293Z" fill="#D1E1F2"/>
<path d="M393.668 303.501L391.42 302.236L239.687 212.04C237.72 210.916 236.034 207.965 236.034 205.577L234.91 1.58059L237.298 0.31611C238.141 -0.10537 239.265 -0.10537 240.108 0.31611L389.874 87.422C391.982 88.546 393.668 91.4964 393.668 93.8848V303.501Z" fill="url(#paint3_linear_602_3795)"/>
<path d="M391.419 302.236L233.645 210.635V3.96887C233.645 1.58048 235.33 0.597028 237.438 1.86147L387.625 89.1078C389.733 90.2318 391.419 93.1822 391.419 95.5706V302.236Z" fill="white"/>
<path d="M391.419 95.5706V105.405L233.645 13.8034V3.96887C233.645 1.58048 235.33 0.597028 237.438 1.86147L387.625 89.1078C389.733 90.2318 391.419 93.1822 391.419 95.5706Z" fill="url(#paint4_linear_602_3795)"/>
<path d="M243.197 12.2581C243.197 12.9605 242.635 13.382 242.073 12.9605C241.371 12.5391 240.809 11.5556 240.809 10.8531C240.809 10.0102 241.371 9.72919 242.073 10.1507C242.635 10.4317 243.197 11.4151 243.197 12.2581Z" fill="white"/>
<path d="M248.535 15.3498C248.535 16.1927 247.973 16.4737 247.411 16.0522C246.708 15.6308 246.146 14.7878 246.146 13.9448C246.146 13.2424 246.708 12.8209 247.27 13.2424C247.973 13.6639 248.535 14.6473 248.535 15.3498Z" fill="white"/>
<path d="M253.875 18.5794C253.875 19.2818 253.313 19.7033 252.61 19.2818C252.048 18.8603 251.486 17.8769 251.486 17.1744C251.486 16.3315 252.048 16.0505 252.61 16.472C253.313 16.7529 253.875 17.7364 253.875 18.5794Z" fill="white"/>
<path d="M383.411 136.313V140.809L276.215 78.1491V73.6533L383.411 136.313Z" fill="#D1E1F2"/>
<path d="M383.411 148.677V153.313L276.215 90.5124V86.0166L383.411 148.677Z" fill="#D1E1F2"/>
<path d="M340.701 136.314V140.81L276.215 103.017V98.3809L340.701 136.314Z" fill="#D1E1F2"/>
<path d="M383.411 195.462V200.098L276.215 137.438V132.802L383.411 195.462Z" fill="#D1E1F2"/>
<path d="M383.411 207.966V212.461L276.215 149.801V145.165L383.411 207.966Z" fill="#D1E1F2"/>
<path d="M340.701 195.462V200.098L276.215 162.165V157.528L340.701 195.462Z" fill="#D1E1F2"/>
<path d="M383.411 254.751V259.247L276.215 196.586V191.95L383.411 254.751Z" fill="#D1E1F2"/>
<path d="M383.411 267.113V271.749L276.215 208.949V204.453L383.411 267.113Z" fill="#D1E1F2"/>
<path d="M340.701 254.751V259.246L276.215 221.454V216.817L340.701 254.751Z" fill="#D1E1F2"/>
<path d="M269.751 85.8763C269.751 93.4629 264.413 96.5538 257.95 92.7605C251.487 88.9672 246.148 79.8351 246.148 72.2484C246.148 64.8023 251.487 61.7115 257.95 65.3643C264.413 69.1576 269.751 78.4302 269.751 85.8763Z" fill="#3C5185"/>
<path d="M256.265 85.5943L252.05 80.396C251.488 79.6936 251.488 78.7101 252.19 78.1482C252.893 77.5862 254.017 77.7267 254.579 78.4292L256.686 80.958L262.025 76.7432C262.727 76.1813 263.711 76.3218 264.273 77.0242C264.835 77.7267 264.835 78.8507 263.992 79.4126L256.265 85.5943Z" fill="white"/>
<path d="M269.751 145.165C269.751 152.611 264.413 155.702 257.95 151.909C251.487 148.256 246.148 138.983 246.148 131.537C246.148 123.95 251.487 120.859 257.95 124.653C264.413 128.446 269.751 137.578 269.751 145.165Z" fill="#3C5185"/>
<path d="M256.265 144.743L252.05 139.685C251.488 138.983 251.488 137.999 252.19 137.297C252.893 136.735 254.017 136.875 254.579 137.578L256.686 140.247L262.025 136.032C262.727 135.47 263.711 135.611 264.273 136.313C264.835 137.016 264.835 137.999 263.992 138.561L256.265 144.743Z" fill="white"/>
<path d="M269.751 204.313C269.751 211.899 264.413 214.99 257.95 211.197C251.487 207.404 246.148 198.131 246.148 190.685C246.148 183.239 251.487 180.148 257.95 183.801C264.413 187.594 269.751 196.867 269.751 204.313Z" fill="#3C5185"/>
<path d="M256.265 204.034L252.05 198.836C251.488 198.133 251.488 197.15 252.19 196.588C252.893 196.026 254.017 196.026 254.579 196.728L256.686 199.397L262.025 195.183C262.727 194.621 263.711 194.761 264.273 195.464C264.835 196.166 264.835 197.29 263.992 197.852L256.265 204.034Z" fill="white"/>
<path opacity="0.5" d="M393.802 268.658L329.456 231.568L311.894 221.452C309.225 219.907 307.117 216.254 307.117 213.163V107.231V93.8845V93.6035C307.117 93.463 307.117 93.3225 307.117 93.3225C307.117 92.9478 307.164 92.6669 307.258 92.4795C307.445 92.1049 307.632 91.7303 307.82 91.3556C307.82 91.3556 307.867 91.3556 307.96 91.3556C308.101 91.0746 308.101 90.9341 308.382 90.6531C310.911 88.2648 314.844 87.8433 317.935 89.6697L393.802 133.363V268.658Z" fill="#A5CBEF"/>
<path d="M314.702 86.0167C317.231 83.6283 321.165 83.2069 324.256 84.8928L447.468 155.842C450.138 157.387 452.245 161.181 452.245 164.131V283.551C452.245 286.36 450.278 288.889 447.468 289.732C446.344 290.013 445.22 289.873 444.096 289.311L318.214 216.676C315.545 215.271 313.438 211.477 313.438 208.387V88.8266C313.438 87.7027 313.859 86.7192 314.702 86.0167Z" fill="url(#paint5_linear_602_3795)"/>
<path d="M313.438 89.1078C313.438 86.1574 315.545 84.893 318.214 86.4384L443.534 158.652C446.204 160.197 448.311 163.85 448.311 166.941V286.22C448.311 289.17 446.204 290.435 443.534 289.03L318.214 216.676C315.545 215.271 313.438 211.478 313.438 208.387V89.1078Z" fill="#F6F9FC"/>
<path d="M448.311 166.941V180.147L313.438 102.455V89.1078C313.438 86.1574 315.545 84.893 318.214 86.4384L443.534 158.652C446.204 160.197 448.311 163.85 448.311 166.941Z" fill="url(#paint6_linear_602_3795)"/>
<path d="M344.489 128.305V155.702L320.184 141.933V114.396L344.489 128.305Z" fill="#D1E1F2"/>
<path d="M344.489 164.412V191.948L320.184 178.04V150.503L344.489 164.412Z" fill="#D1E1F2"/>
<path d="M344.489 200.518V228.055L320.184 214.146V186.609L344.489 200.518Z" fill="#D1E1F2"/>
<path d="M328.751 102.314C328.751 103.86 327.628 104.422 326.363 103.719C325.099 102.876 324.115 101.19 324.115 99.6449C324.115 98.24 325.099 97.6781 326.363 98.3806C327.628 99.083 328.751 100.909 328.751 102.314Z" fill="white"/>
<path d="M336.617 106.95C336.617 108.496 335.493 109.057 334.228 108.355C332.964 107.512 331.98 105.826 331.98 104.281C331.98 102.876 332.964 102.314 334.228 103.016C335.493 103.719 336.617 105.545 336.617 106.95Z" fill="white"/>
<path d="M344.486 111.586C344.486 113.131 343.362 113.693 342.098 112.991C340.833 112.148 339.85 110.462 339.85 108.916C339.85 107.512 340.833 106.95 342.098 107.652C343.362 108.354 344.486 110.181 344.486 111.586Z" fill="white"/>
<path fill-rule="evenodd" clip-rule="evenodd" d="M363.736 162.023L362.05 156.544L355.587 153.032L354.323 156.966L350.529 154.858L356.57 137.016L359.942 138.842L367.389 163.99L363.736 162.023ZM358.537 144.462L356.851 149.519L360.645 151.627L358.537 144.462Z" fill="#4A65A3"/>
<path fill-rule="evenodd" clip-rule="evenodd" d="M359.801 192.229L352.917 188.577L352.215 167.081L358.256 170.453C359.286 171.015 360.223 171.67 361.066 172.42C361.815 173.169 362.377 173.918 362.752 174.668C363.501 176.166 363.923 177.618 364.016 179.023C364.016 180.709 363.642 181.739 362.892 182.114C362.705 182.301 362.518 182.395 362.33 182.395C362.237 182.395 362.096 182.395 361.909 182.395C362.845 183.238 363.595 184.268 364.157 185.486C364.812 186.703 365.14 187.968 365.14 189.279C365.234 190.778 364.906 191.902 364.157 192.651C363.407 193.587 361.956 193.447 359.801 192.229ZM356.008 177.618L357.694 178.602C358.631 179.07 359.333 179.304 359.801 179.304C360.27 179.304 360.457 178.789 360.363 177.759C360.363 176.822 360.129 176.12 359.661 175.651C359.193 175.089 358.443 174.527 357.413 173.965L355.868 172.982L356.008 177.618ZM356.289 186.469L358.678 187.734C359.614 188.202 360.363 188.436 360.925 188.436C361.394 188.342 361.628 187.78 361.628 186.75C361.534 185.814 361.206 185.017 360.644 184.362C360.176 183.8 359.333 183.191 358.115 182.535L356.149 181.411L356.289 186.469Z" fill="#4A65A3"/>
<path d="M359.942 225.948C361.628 226.885 362.986 226.698 364.016 225.386L366.404 229.742C364.719 231.521 362.658 231.756 360.223 230.444C357.881 229.133 355.867 227.026 354.181 224.122C352.589 221.219 351.746 218.174 351.653 214.99C351.465 211.805 352.168 209.557 353.76 208.246C355.259 207.029 357.132 207.029 359.38 208.246C362.002 209.651 364.203 212.133 365.983 215.692L364.016 217.94C362.798 215.505 361.393 213.819 359.801 212.883C358.49 212.227 357.366 212.227 356.429 212.883C355.586 213.538 355.165 214.849 355.165 216.816C355.259 218.877 355.774 220.75 356.71 222.436C357.647 224.122 358.724 225.293 359.942 225.948Z" fill="#4A65A3"/>
<path d="M441.709 184.924V190.544L371.041 148.817V143.338L441.709 184.924Z" fill="#D1E1F2"/>
<path d="M415.858 184.923V190.403L371.041 163.99V158.37L415.858 184.923Z" fill="#D1E1F2"/>
<path d="M441.709 221.031V226.651L371.041 184.925V179.445L441.709 221.031Z" fill="#D1E1F2"/>
<path d="M415.858 221.031V226.51L371.041 200.097V194.478L415.858 221.031Z" fill="#D1E1F2"/>
<path d="M441.709 257.137V262.757L371.041 221.03V215.551L441.709 257.137Z" fill="#D1E1F2"/>
<path d="M415.858 257.137V262.757L371.041 236.204V230.584L415.858 257.137Z" fill="#D1E1F2"/>
<path d="M220.291 474.484C216.497 474.484 213.547 471.533 213.547 467.88L213.687 289.173L227.034 289.313V467.88C227.034 471.533 223.943 474.484 220.291 474.484Z" fill="#A9C177"/>
<path d="M227.034 467.881C227.034 471.533 223.943 474.484 220.291 474.484C216.497 474.484 213.547 471.533 213.547 467.881V457.062H227.034V467.881Z" fill="#A5CBEF"/>
<path d="M213.688 289.172L220.431 273.016L227.034 289.313L213.688 289.172Z" fill="url(#paint7_linear_602_3795)"/>
<path d="M218.744 276.949L220.43 273.016L221.975 276.949H218.744Z" fill="#3C5185"/>
<path d="M220.431 458.185C218.043 458.185 215.795 457.904 213.547 457.342V455.656C217.762 456.78 222.679 456.78 227.034 455.797V457.483C224.927 457.904 222.679 458.185 220.431 458.185Z" fill="#3C5185"/>
<path d="M227.034 451.583V453.269C224.927 453.69 222.679 453.971 220.431 453.971C218.043 453.971 215.795 453.69 213.547 453.269V451.442C217.902 452.566 222.679 452.566 227.034 451.583Z" fill="#3C5185"/>
<path d="M177.158 467.319L182.216 466.616C183.34 466.616 184.464 466.335 185.447 466.195C187.695 465.914 190.224 467.74 192.331 469.005C193.596 469.707 193.455 471.534 192.191 472.236L181.232 478.137C177.579 480.244 173.084 480.104 169.431 477.996L168.588 477.434C167.183 476.591 166.34 475.187 166.34 473.641L168.166 467.459L177.158 467.319Z" fill="#4A65A3"/>
<path d="M172.942 473.641C169.43 473.5 168.025 470.269 168.165 466.756L168.727 426.294L167.744 386.675C167.603 383.163 169.43 376.841 172.942 376.7C176.454 376.56 184.041 379.51 184.182 383.022L181.231 426.294L179.405 467.599C179.264 470.971 176.595 473.641 173.223 473.641C173.129 473.641 173.036 473.641 172.942 473.641Z" fill="url(#paint8_linear_602_3795)"/>
<path d="M173.084 389.907L161.844 373.048C155.944 364.477 156.646 352.816 163.39 344.808L173.927 332.304C175.191 330.759 177.439 330.478 179.125 331.883C180.67 333.147 180.811 335.395 179.546 336.941L168.869 349.585C164.373 355.064 163.811 363.072 167.885 368.973L179.125 385.832C180.249 387.518 179.827 389.907 178.141 391.031C177.673 391.312 177.158 391.499 176.596 391.593C175.191 391.733 173.927 391.171 173.084 389.907Z" fill="#F2B1B5"/>
<path d="M163.39 350.427C161.704 348.882 161.423 346.212 162.968 344.526L173.505 331.882C175.051 330.196 177.58 329.915 179.406 331.461C181.233 332.866 181.373 335.535 179.968 337.361L169.291 349.865C168.588 350.708 167.605 351.27 166.621 351.411C165.497 351.411 164.373 351.13 163.39 350.427Z" fill="url(#paint9_linear_602_3795)"/>
<path d="M195.002 477.153L200.059 476.591C201.183 476.591 202.167 476.31 203.291 476.17C205.539 475.889 208.068 477.715 210.034 478.979C211.439 479.682 211.299 481.508 210.034 482.211L199.076 488.112C195.423 490.219 190.927 490.078 187.274 487.971L186.432 487.409C185.027 486.566 184.184 485.161 184.184 483.616L186.01 477.434L195.002 477.153Z" fill="#4A65A3"/>
<path d="M197.25 392.576L199.076 436.27L197.25 477.575C197.109 480.947 194.299 483.616 191.068 483.616C190.974 483.616 190.881 483.616 190.787 483.616C187.275 483.475 185.87 480.104 186.01 476.732L186.572 436.129L181.655 404.799L171.118 398.758C169.011 397.634 167.746 395.386 167.746 392.998L170.275 374.312C170.275 369.535 172.944 347.197 177.019 349.585L198.655 361.949C200.762 363.213 195.845 361.527 195.845 363.916V388.783C196.688 389.907 197.25 391.171 197.25 392.576Z" fill="url(#paint10_linear_602_3795)"/>
<path d="M174.066 329.916C176.454 328.511 179.405 328.511 181.653 329.916L191.628 335.255C192.096 335.536 192.518 335.77 192.892 335.957C202.305 341.858 200.479 354.502 199.776 364.056L198.652 377.965L198.372 396.791C193.173 399.32 186.57 398.336 180.107 395.386C179.545 395.105 168.025 390.89 167.744 389.485C167.322 387.378 168.446 373.047 168.727 370.8C169.149 366.866 169.008 362.932 169.43 359.139L168.165 340.874C167.884 336.379 170.273 332.164 174.066 329.916Z" fill="url(#paint11_linear_602_3795)"/>
<path d="M183.475 336.099C181.508 336.099 180.104 334.554 180.104 332.728V319.381C180.104 317.554 181.508 316.009 183.475 316.009C185.302 316.009 186.847 317.554 186.847 319.381V332.728C186.847 334.554 185.302 336.099 183.475 336.099Z" fill="#F2B1B5"/>
<path d="M182.215 330.056L180.107 329.775L182.496 307.437L199.074 309.263L198.231 317.271C197.248 325.139 190.223 330.899 182.215 330.056Z" fill="#F2B1B5"/>
<path d="M194.015 313.338C193.031 313.9 192.61 314.743 193.453 316.148C193.734 316.71 194.296 318.114 193.874 318.676C193.172 319.379 192.469 318.536 191.907 318.395C190.362 318.255 190.783 319.8 190.643 320.784C190.081 324.437 186.428 328.932 182.354 328.651C179.825 328.511 178.42 325.842 177.998 323.313C177.436 319.66 177.717 315.866 178.139 312.214C178.42 309.825 178.701 307.437 180.106 305.47C181.37 303.644 183.618 302.52 185.866 302.239C188.254 301.817 190.502 301.958 192.891 302.239C195.138 302.379 197.527 302.379 199.775 303.222C201.18 303.784 203.147 305.189 203.147 306.875C203.006 309.404 201.039 310.949 198.932 311.792C197.667 312.354 195.279 312.495 194.015 313.338Z" fill="#333333"/>
<path opacity="0.3" d="M190.506 345.369C192.472 344.807 194.439 345.931 195.001 347.898L199.778 364.055L198.795 376.699C196.547 375.575 194.861 373.468 194.158 370.939L187.977 349.865C187.415 347.898 188.539 345.931 190.506 345.369Z" fill="#A5CBEF"/>
<path d="M202.59 373.608C198.797 373.187 195.706 370.799 194.441 367.146L187.557 346.353C186.855 344.386 187.979 342.419 189.805 341.716C191.772 341.154 193.879 342.138 194.441 344.105L201.466 364.898C201.887 366.022 202.871 366.162 203.292 366.303C203.573 366.303 204.697 366.303 205.259 365.179L213.408 349.865C214.391 348.039 216.639 347.336 218.325 348.32C220.152 349.303 220.854 351.551 219.871 353.377L211.722 368.551C210.036 371.782 206.945 373.608 203.433 373.608C203.152 373.608 202.871 373.608 202.59 373.608Z" fill="#F2B1B5"/>
<path d="M190.928 358.155L186.994 346.495C186.291 344.387 187.556 341.999 189.663 341.296C191.911 340.453 194.3 341.718 195.002 343.825L198.936 355.486C199.638 357.734 198.374 360.122 196.267 360.825C195.798 360.919 195.33 360.965 194.862 360.965C193.176 360.965 191.49 359.841 190.928 358.155Z" fill="url(#paint12_linear_602_3795)"/>
<path d="M210.877 359.138C210.315 358.857 210.034 358.295 210.174 357.733L216.075 343.121C216.216 342.559 216.778 342.419 217.34 342.559C217.902 342.84 218.183 343.402 217.902 343.964L212.141 358.435C212.001 358.857 211.72 359.138 211.298 359.138C211.111 359.138 210.971 359.138 210.877 359.138Z" fill="#F2B1B5"/>
<path d="M212.561 358.156C211.999 358.015 211.718 357.313 211.999 356.751L218.883 342.702C219.164 342.14 219.726 341.999 220.288 342.28C220.85 342.561 220.991 343.123 220.85 343.685L213.966 357.734C213.685 358.156 213.404 358.296 212.982 358.296C212.795 358.296 212.655 358.25 212.561 358.156Z" fill="#F2B1B5"/>
<path d="M213.126 360.121C212.705 359.84 212.424 359.138 212.705 358.716L220.432 344.948C220.713 344.526 221.275 344.386 221.837 344.667C222.258 344.948 222.539 345.51 222.259 346.072L214.531 359.699C214.391 360.121 213.969 360.261 213.548 360.261C213.454 360.261 213.314 360.215 213.126 360.121Z" fill="#F2B1B5"/>
<path d="M212 361.947C211.579 361.525 211.438 360.963 211.86 360.401L221.414 348.178C221.835 347.616 222.538 347.616 222.959 347.897C223.38 348.319 223.521 348.881 223.099 349.443L213.405 361.806C213.265 362.087 212.843 362.228 212.422 362.087C212.235 362.087 212.094 362.04 212 361.947Z" fill="#F2B1B5"/>
<path d="M213.265 355.344C212.703 355.485 212.141 355.063 212.001 354.501L211.017 347.898C210.877 347.336 211.298 346.774 211.86 346.634C212.422 346.634 212.984 347.055 212.984 347.617L214.108 354.22C214.108 354.501 213.968 354.923 213.687 355.204C213.499 355.298 213.359 355.344 213.265 355.344Z" fill="#F2B1B5"/>
<path d="M91.1811 436.829C88.6522 436.829 86.5449 434.862 86.4044 432.334L86.2639 430.226C86.1234 429.383 86.6854 428.821 87.3879 428.54L95.5365 425.449L102.421 422.218C103.966 421.375 105.792 421.235 107.478 421.937C109.867 422.78 110.148 426.011 108.04 427.276L99.1893 432.474L95.2555 434.722L91.4621 436.829H91.1811Z" fill="#3C5185"/>
<path d="M90.196 426.855L95.5348 425.45L99.609 423.483C101.576 424.607 101.716 427.558 99.609 428.682L93.7084 432.054L93.4274 432.334C91.7414 433.177 89.634 433.037 88.2291 431.632C87.2456 430.649 86.4027 429.665 86.8241 429.244L89.072 428.401C89.072 427.698 89.4936 426.996 90.196 426.855Z" fill="#F2B1B5"/>
<path d="M86.6872 428.26L85.8441 387.658L84.1582 370.377C84.1582 367.708 87.8111 338.063 90.3399 338.063C93.0093 338.063 98.3481 343.543 98.3481 346.072L94.9762 428.26C94.9762 430.789 93.8523 432.897 91.3234 432.897C88.7945 432.897 86.6872 430.789 86.6872 428.26Z" fill="#F2B1B5"/>
<path d="M89.7774 347.897L77.5545 325.418C74.3232 319.517 76.1496 312.352 81.6288 308.558L97.6451 297.6C99.331 296.476 101.579 296.897 102.843 298.583C103.967 300.269 103.546 302.658 101.86 303.782L85.8436 314.74C83.4552 316.286 82.7527 319.376 84.1577 321.905L96.3806 344.244C97.3641 346.07 96.6616 348.318 94.8352 349.301C94.2732 349.676 93.6645 349.864 93.0088 349.864C91.7444 349.864 90.4799 349.161 89.7774 347.897Z" fill="#F2B1B5"/>
<path d="M107.757 446.383C105.228 446.383 103.121 444.416 102.98 441.887L102.84 439.639C102.84 438.937 103.261 438.234 103.964 438.094L112.253 435.003L118.997 431.772C120.542 430.929 122.509 430.788 124.195 431.491C126.583 432.334 126.864 435.565 124.616 436.83L115.765 442.028L111.831 444.276L108.179 446.383H107.757Z" fill="#3C5185"/>
<path d="M106.776 436.268L112.255 435.003L116.189 433.036C118.156 434.16 118.297 437.11 116.33 438.234L110.289 441.606L110.008 441.887C108.322 442.73 106.214 442.59 104.95 441.185C103.966 440.201 103.123 439.218 103.404 438.796L105.652 437.953C105.652 437.251 106.074 436.549 106.776 436.268Z" fill="#F2B1B5"/>
<path d="M103.264 437.812L101.156 397.631L94.6934 353.797C94.6934 351.268 104.387 347.615 107.057 347.615C109.586 347.615 111.693 349.723 111.693 352.251V437.812C111.693 440.341 110.429 442.448 107.9 442.448C105.371 442.448 103.264 440.341 103.264 437.812Z" fill="#F2B1B5"/>
<path d="M84.1547 290.155C84.1547 284.817 89.9149 281.445 94.6917 283.974C95.5347 284.395 96.3776 285.379 96.7991 286.081C103.824 297.601 112.815 300.13 112.815 311.932L110.146 333.146L113.377 353.939L114.501 389.906C112.394 391.311 109.584 391.873 106.634 391.732C106.353 391.732 103.262 391.592 102.559 391.451C94.5512 390.046 87.105 389.484 84.1547 383.583L83.0308 368.551C82.3283 358.154 83.4523 347.898 86.4026 337.923L84.1547 290.155Z" fill="url(#paint13_linear_602_3795)"/>
<path d="M93.1513 306.311C93.1513 304.204 94.9777 302.658 96.9446 302.799L100.738 302.939C114.787 303.361 128.134 296.898 136.564 285.518L140.919 279.477C142.183 277.931 144.431 277.51 146.117 278.774C147.803 279.898 148.084 282.287 146.96 283.973L142.464 289.873C132.77 303.361 117.035 310.947 100.457 310.245L96.6636 310.104C96.4763 310.104 96.2889 310.104 96.1016 310.104C94.2752 309.683 93.0108 308.138 93.1513 306.311Z" fill="#F2B1B5"/>
<path d="M92.8672 288.609V275.965H98.3465V288.609C98.3465 290.155 97.082 291.419 95.6771 291.419C94.1316 291.419 92.8672 290.155 92.8672 288.609Z" fill="#F2B1B5"/>
<path d="M86.4062 267.676L100.034 264.726L102.844 277.791C102.844 277.979 102.844 278.166 102.844 278.353C103.406 282.428 99.6126 285.8 95.5383 285.238L90.059 284.535L86.4062 267.676Z" fill="#F2B1B5"/>
<path d="M98.3487 346.071C93.7125 346.071 89.0761 345.369 84.8613 343.964C85.3296 341.997 85.8448 339.983 86.4068 337.923L86.2663 336.658C93.7124 339.328 103.266 339.187 110.572 336.658L111.836 344.104C107.621 345.369 102.985 346.071 98.3487 346.071Z" fill="#829954"/>
<path d="M140.214 281.725L145.131 274.279C145.412 273.857 146.115 273.717 146.536 273.998V274.138C146.958 274.419 147.098 274.981 146.817 275.403L141.9 282.849C141.478 283.27 140.916 283.411 140.495 283.13C139.933 282.849 139.933 282.146 140.214 281.725Z" fill="#F2B1B5"/>
<path d="M139.229 282.146L139.369 278.915C139.369 278.353 139.79 277.932 140.352 277.932H140.633C141.055 277.932 141.617 278.353 141.476 278.915V282.287C141.476 282.849 140.914 283.27 140.352 283.13H140.212C139.65 283.13 139.229 282.708 139.229 282.146Z" fill="#F2B1B5"/>
<path d="M92.1664 306.311C92.3069 303.782 94.4143 301.675 96.9432 301.815L100.737 301.956C103.172 302.05 105.56 301.909 107.902 301.534C110.431 301.253 112.819 303.08 113.24 305.609C113.521 308.138 111.695 310.385 109.166 310.807C106.263 311.182 103.359 311.322 100.456 311.228L96.6622 311.088C96.3812 311.088 96.1003 311.041 95.8193 310.947C93.7119 310.526 92.0259 308.559 92.1664 306.311Z" fill="url(#paint14_linear_602_3795)"/>
<path d="M79.0991 299.286C79.6611 298.303 80.2231 297.46 80.3636 296.336C80.5041 294.229 78.6777 292.262 78.2562 290.154C77.6942 286.923 79.8016 283.973 79.8016 280.882C79.5206 277.229 78.6777 274.419 79.6611 270.766C79.8485 270.204 80.0357 269.689 80.2231 269.221C82.19 264.725 86.5453 262.337 91.3221 261.634C93.289 261.213 95.3964 261.213 97.3633 261.494C98.4872 261.634 99.7517 261.775 100.735 262.337C101.157 262.618 101.719 262.899 102 263.32C102.421 264.023 102.562 264.866 102.562 265.568C102.281 267.394 100.033 267.956 99.8921 269.642C99.7516 270.485 100.314 271.469 100.454 272.312C100.454 273.436 100.314 274.56 99.8921 275.683C99.0492 277.51 97.0823 279.196 97.2228 281.303C97.2228 282.287 97.6442 283.13 97.7847 284.113C98.3467 287.485 94.8344 290.014 95.8179 293.386C96.3799 295.493 98.7682 297.039 98.6277 299.286C98.4873 300.27 97.9252 300.972 97.7847 301.956C97.5037 303.782 98.7682 305.749 98.0657 307.435C95.2559 313.195 85.5619 312.212 81.0661 309.683C80.0826 308.98 78.9587 308.278 78.2562 307.154C76.8513 304.766 77.8347 301.675 79.0991 299.286Z" fill="#333333"/>
<path d="M48.33 186.188C64.3463 195.461 77.5527 218.22 77.5527 236.766C77.5527 242.526 76.2882 247.303 73.8998 250.815L75.0238 257.98C75.3048 259.244 74.0404 260.228 72.7759 259.806L66.3133 256.856C61.2555 258.402 55.0737 257.559 48.33 253.625C32.1733 244.352 19.1074 221.592 19.1074 203.047C19.1074 184.502 32.1733 176.915 48.33 186.188Z" fill="url(#paint15_linear_602_3795)"/>
<path d="M69.8226 253.906C72.0705 250.394 73.4754 245.617 73.4754 239.856C73.4754 221.311 60.2691 198.551 44.2528 189.279C36.5257 184.783 29.501 184.221 24.3027 186.891C29.6415 181.13 38.352 180.428 48.3271 186.188C64.3433 195.461 77.5498 218.221 77.5498 236.766C77.5498 242.526 76.2853 247.303 73.8969 250.815L75.0208 257.98C75.3018 259.245 74.0374 260.228 72.773 259.807L70.6656 258.683L69.8226 253.906Z" fill="url(#paint16_linear_602_3795)"/>
<path d="M48.0484 228.617L44.3955 226.509L44.2551 223.7C44.2551 222.482 44.3488 221.639 44.5361 221.171C44.8171 220.702 45.2854 220.187 45.941 219.625L48.1889 217.658C48.7509 217.19 48.985 216.394 48.8913 215.27C48.8913 214.146 48.6572 213.069 48.1889 212.039C47.6269 211.008 46.9244 210.259 46.0815 209.791C45.3322 209.322 44.6765 209.276 44.1145 209.65C43.5526 210.119 43.2248 210.915 43.1311 212.039L39.1973 209.791C39.3846 207.168 40.1339 205.482 41.4452 204.733C42.6628 203.984 44.255 204.124 46.2219 205.155C48.0952 206.278 49.6875 207.918 50.9987 210.072C52.2164 212.226 52.8251 214.614 52.8251 217.237C52.8251 219.017 52.4973 220.328 51.8417 221.171C51.3734 221.639 51.0456 221.967 50.8583 222.154C50.671 222.342 50.3899 222.576 50.0153 222.857C49.6406 223.044 49.3597 223.278 49.1723 223.559C48.8914 223.746 48.704 223.887 48.6103 223.981C48.142 224.449 47.9548 225.292 48.0484 226.509V228.617ZM46.3625 237.608C45.7068 237.234 45.0981 236.578 44.5361 235.642C44.0678 234.705 43.8336 233.815 43.8336 232.972C43.8336 232.036 44.0678 231.38 44.5361 231.005C45.0044 230.537 45.5663 230.537 46.2219 231.005C46.8776 231.38 47.4864 232.036 48.0484 232.972C48.5167 233.909 48.7509 234.799 48.7509 235.642C48.7509 236.578 48.5167 237.234 48.0484 237.608C47.5801 238.077 47.0181 238.077 46.3625 237.608Z" fill="white"/>
<path d="M140.91 146.994C139.505 146.994 138.241 146.151 137.679 144.886L131.216 129.432C128.547 122.829 129.952 115.102 134.588 109.763L140.208 103.581C141.472 102.176 143.72 102.036 145.125 103.3C146.67 104.565 146.811 106.813 145.406 108.218L139.786 114.54C136.836 117.771 135.993 122.548 137.679 126.763L144.141 142.217C144.844 143.903 144.001 146.01 142.175 146.713C141.8 146.9 141.378 146.994 140.91 146.994Z" fill="url(#paint17_linear_602_3795)"/>
<path d="M147.936 206.843L150.043 212.041V214.991C150.043 216.256 149.06 217.239 147.796 217.239H146.531L145.407 215.975L144.143 216.115L142.878 217.239L129.11 219.206C127.705 219.487 126.441 218.223 126.581 216.818L126.722 214.71C126.722 213.867 127.143 213.165 127.845 212.884L137.399 209.091L140.49 206.843H147.936Z" fill="#3C5185"/>
<path d="M144.145 213.305C141.195 213.305 139.93 210.917 139.93 207.826L138.806 180.429L138.666 140.951C138.385 137.86 141.195 134.91 144.145 134.629C147.095 134.488 151.31 137.579 151.591 140.529L149.624 180.289L148.922 207.826C148.922 210.917 147.236 213.305 144.145 213.305Z" fill="#4A65A3"/>
<path d="M188.819 120.44C188.257 120.44 187.835 120.019 187.695 119.597L187.273 112.994C187.273 112.432 187.695 111.87 188.257 111.87C188.819 111.87 189.381 112.292 189.381 112.854L189.802 119.457C189.802 119.878 189.381 120.44 188.819 120.44Z" fill="#F2B1B5"/>
<path d="M180.251 128.167C176.177 128.167 172.384 126.622 169.574 123.672L160.442 114.399C159.177 113.135 159.318 111.027 160.582 109.763C161.846 108.498 163.954 108.498 165.218 109.763L174.21 119.035C175.896 120.721 178.003 121.564 180.251 121.564C180.251 121.564 180.298 121.564 180.392 121.564C182.639 121.564 184.747 120.581 186.433 119.035L190.226 115.242C191.491 113.837 193.598 113.837 194.862 115.102C196.127 116.506 196.127 118.473 194.862 119.878L191.069 123.672C188.259 126.482 184.466 128.167 180.392 128.167C180.392 128.167 180.345 128.167 180.251 128.167Z" fill="#F2B1B5"/>
<path d="M189.523 117.911C188.961 117.63 188.82 116.927 189.101 116.506L192.614 110.886C192.895 110.465 193.457 110.324 194.019 110.605H194.159C194.581 110.886 194.721 111.448 194.44 111.87L190.928 117.63C190.647 118.051 190.085 118.192 189.523 117.911Z" fill="#F2B1B5"/>
<path d="M191.91 117.35V117.209C191.488 116.928 191.348 116.366 191.629 115.945L195.703 110.606C196.124 110.184 196.686 110.184 197.108 110.465H197.248C197.67 110.887 197.67 111.449 197.389 111.87L193.315 117.209C193.034 117.631 192.331 117.631 191.91 117.35Z" fill="#F2B1B5"/>
<path d="M192.754 118.613L192.614 118.473C192.192 118.051 192.333 117.489 192.614 117.068L197.671 112.572C197.952 112.291 198.655 112.291 198.936 112.712L199.076 112.853C199.357 113.134 199.357 113.836 198.936 114.117L194.019 118.613C193.597 119.035 193.035 119.035 192.754 118.613Z" fill="#F2B1B5"/>
<path d="M192.053 120.44V120.299C191.772 119.878 191.912 119.175 192.474 118.894L198.234 115.804C198.656 115.523 199.358 115.663 199.639 116.225C199.92 116.647 199.639 117.349 199.218 117.63L193.458 120.721C193.036 121.002 192.334 120.861 192.053 120.44Z" fill="#F2B1B5"/>
<path d="M165.779 220.893L167.184 224.124L166.201 232.835C165.779 235.785 164.234 238.454 161.705 240.14C160.862 240.702 159.879 240.843 159.036 240.702L157.912 240.421C156.507 240 155.383 238.735 155.383 237.33L159.317 224.405L165.779 220.893Z" fill="#3C5185"/>
<path d="M163.108 226.794C160.298 226.794 158.753 224.687 158.472 221.877L154.257 186.894L147.513 153.176L139.505 139.548C139.364 136.597 152.992 136.316 156.083 136.035C159.034 135.754 164.653 144.043 164.794 146.994L165.215 186.051L167.744 220.753C168.025 223.844 166.62 226.373 163.529 226.654C163.342 226.747 163.202 226.794 163.108 226.794Z" fill="url(#paint18_linear_602_3795)"/>
<path d="M191.349 123.672C188.399 126.763 184.465 128.308 180.391 128.308C180.391 128.308 180.344 128.308 180.25 128.308C176.176 128.308 172.242 126.763 169.432 123.812L167.044 121.284L165.92 136.035L165.077 149.382C151.589 152.192 142.598 147.977 138.664 142.358V106.672C138.664 100.35 145.548 96.2758 151.027 99.5072L161.564 105.267C161.752 105.455 161.939 105.595 162.126 105.689C164.093 106.953 165.639 108.78 166.482 110.747L174.349 118.895C175.895 120.441 178.002 121.424 180.25 121.424C180.25 121.424 180.297 121.424 180.391 121.424C182.638 121.424 184.746 120.441 186.291 118.895C187.556 117.49 189.804 117.49 191.209 118.755C192.613 120.16 192.614 122.267 191.349 123.672Z" fill="url(#paint19_linear_602_3795)"/>
<path d="M151.167 107.655L146.25 111.168V108.498C146.25 107.187 146.484 105.923 146.952 104.705L148.779 100.35L150.184 100.631L151.167 107.655Z" fill="white"/>
<path d="M151.167 107.655L153.977 111.449L151.588 115.242L148.919 114.258L147.795 110.044L151.167 107.655Z" fill="#829954"/>
<path d="M153.134 108.216H152.712C151.307 108.216 150.043 107.092 150.043 105.546V95.4307H155.803V105.546C155.803 107.092 154.539 108.216 153.134 108.216Z" fill="#F2B1B5"/>
<path d="M154.116 102.597H151.587C145.124 102.597 142.314 97.2585 142.314 90.7958V88.1264C142.314 86.1595 144 84.4736 145.967 84.4736H152.149C154.818 84.4736 156.785 86.5811 156.785 89.2504L159.595 99.2254C159.595 100.771 155.661 102.597 154.116 102.597Z" fill="#F2B1B5"/>
<path d="M161.984 98.2429C161.141 99.3668 158.332 102.598 156.646 101.474C155.662 100.772 156.084 99.2264 156.365 98.1024C156.646 96.838 156.786 95.5735 156.505 94.3091C156.505 93.8876 156.365 93.4661 156.084 93.3256C155.522 93.0446 154.96 93.7471 154.819 94.3091C154.819 95.0116 154.96 95.7141 154.679 96.276C154.398 96.276 154.164 96.276 153.976 96.276C152.993 94.1686 153.555 91.3587 152.009 89.8133C150.745 88.6894 148.778 88.6894 147.092 88.5489C145.547 88.5489 144.001 88.2679 142.737 87.4249C139.505 85.177 140.91 82.6481 143.861 81.3837C146.39 80.2598 149.2 80.2598 152.009 80.6812C153.695 80.9622 155.381 81.2432 156.927 82.0862C160.299 83.6316 162.827 86.8629 163.389 90.5158C163.811 93.1851 163.249 95.8545 161.984 98.2429Z" fill="#333333"/>
<path d="M156.226 102.175L157.35 102.737C157.912 103.018 158.052 103.58 157.771 104.142C156.507 105.687 155.664 107.654 155.523 109.761L155.102 113.133L151.168 107.654L156.226 102.175Z" fill="white"/>
<path d="M165.077 149.382C151.589 152.192 142.598 147.977 138.664 142.358V139.548C142.598 145.308 151.589 149.523 165.077 146.713V149.382Z" fill="#3C5185"/>
<path d="M151.589 115.243L150.887 144.466L148.077 146.854L146.531 143.763L149.06 114.26L151.589 115.243Z" fill="#829954"/>
<g opacity="0.3">
<path opacity="0.1" d="M306.553 414.633L351.23 440.484C354.18 442.169 354.04 446.384 351.089 448.07L306.553 473.078C303.743 474.764 300.371 474.764 297.562 473.078L252.885 448.07C249.934 446.384 249.934 442.169 252.885 440.484L297.421 414.633C300.231 413.087 303.743 413.087 306.553 414.633Z" fill="#3C5185"/>
<path opacity="0.1" d="M306.551 414.773L350.947 440.484C353.898 442.17 353.898 446.384 350.947 447.93L306.551 472.938C303.742 474.624 300.37 474.624 297.56 472.938L253.164 447.93C250.214 446.384 250.214 442.17 253.164 440.484L297.419 414.773C300.229 413.228 303.742 413.228 306.551 414.773Z" fill="#3C5185"/>
<path opacity="0.1" d="M306.552 414.913L350.667 440.483C353.617 442.169 353.617 446.383 350.667 447.929L306.412 472.796C303.742 474.342 300.37 474.342 297.56 472.796L253.445 447.929C250.495 446.383 250.495 442.169 253.305 440.483L297.56 414.913C300.37 413.368 303.742 413.368 306.552 414.913Z" fill="#3C5185"/>
<path opacity="0.1" d="M306.554 415.053L350.528 440.482C353.338 442.168 353.338 446.383 350.388 447.928L306.413 472.655C303.744 474.2 300.372 474.2 297.562 472.655L253.588 447.928C250.778 446.383 250.778 442.168 253.588 440.482L297.562 415.053C300.372 413.507 303.744 413.507 306.554 415.053Z" fill="#3C5185"/>
<path opacity="0.1" d="M306.556 415.194L350.25 440.483C353.06 442.169 353.06 446.243 350.25 447.929L306.416 472.516C303.746 474.061 300.375 474.061 297.565 472.516L253.871 447.929C251.061 446.243 250.921 442.169 253.871 440.483L297.565 415.194C300.375 413.649 303.746 413.649 306.556 415.194Z" fill="#3C5185"/>
<path opacity="0.2" d="M306.554 415.476L349.967 440.484C352.777 442.17 352.777 446.244 349.967 447.93L306.414 472.376C303.744 473.922 300.373 473.922 297.703 472.376L254.15 447.93C251.2 446.244 251.2 442.17 254.15 440.484L297.563 415.476C300.373 413.79 303.745 413.79 306.554 415.476Z" fill="#3C5185"/>
<path opacity="0.2" d="M306.414 415.615L349.686 440.482C352.637 442.168 352.496 446.243 349.686 447.929L306.414 472.234C303.745 473.779 300.373 473.779 297.704 472.234L254.432 447.929C251.481 446.243 251.481 442.168 254.291 440.482L297.563 415.615C300.373 413.929 303.745 413.929 306.414 415.615Z" fill="#3C5185"/>
<path opacity="0.2" d="M306.414 415.758L349.546 440.484C352.356 442.17 352.356 446.245 349.405 447.931L306.414 472.096C303.745 473.641 300.373 473.641 297.704 472.096L254.572 447.931C251.762 446.245 251.762 442.17 254.572 440.484L297.563 415.758C300.373 414.072 303.745 414.072 306.414 415.758Z" fill="#3C5185"/>
<path opacity="0.2" d="M306.411 415.897L349.261 440.624C352.071 442.169 352.071 446.244 349.261 447.789L306.411 471.954C303.601 473.499 300.369 473.499 297.7 471.954L254.85 447.789C252.04 446.244 252.04 442.169 254.85 440.624L297.7 415.897C300.369 414.211 303.741 414.211 306.411 415.897Z" fill="#3C5185"/>
<path opacity="0.2" d="M306.414 416.037L348.984 440.623C351.793 442.169 351.793 446.243 348.984 447.788L306.274 471.813C303.604 473.358 300.373 473.358 297.704 471.813L255.134 447.788C252.324 446.243 252.184 442.169 254.994 440.623L297.704 416.037C300.373 414.351 303.745 414.351 306.414 416.037Z" fill="#3C5185"/>
<path opacity="0.3" d="M306.415 416.179L348.844 440.624C351.513 442.17 351.513 446.244 348.703 447.79L306.274 471.673C303.605 473.219 300.374 473.219 297.704 471.673L255.275 447.79C252.466 446.244 252.466 442.17 255.275 440.624L297.704 416.179C300.374 414.633 303.746 414.633 306.415 416.179Z" fill="#3C5185"/>
<path opacity="0.3" d="M306.413 416.318L348.561 440.624C351.371 442.169 351.231 446.243 348.561 447.789L306.273 471.532C303.603 473.078 300.372 473.078 297.843 471.532L255.555 447.789C252.745 446.243 252.745 442.169 255.555 440.624L297.703 416.318C300.372 414.773 303.744 414.773 306.413 416.318Z" fill="#3C5185"/>
<path opacity="0.3" d="M306.273 416.458L348.281 440.623C351.09 442.168 351.09 446.242 348.281 447.788L306.273 471.391C303.604 472.936 300.372 472.936 297.843 471.391L255.836 447.788C253.026 446.242 253.026 442.168 255.836 440.623L297.703 416.458C300.372 414.912 303.744 414.912 306.273 416.458Z" fill="#3C5185"/>
<path opacity="0.3" d="M306.274 416.6L348 440.624C350.81 442.169 350.81 446.244 348 447.789L306.274 471.251C303.604 472.797 300.373 472.797 297.844 471.251L256.117 447.789C253.308 446.244 253.308 442.169 255.977 440.624L297.703 416.6C300.373 415.054 303.604 415.054 306.274 416.6Z" fill="#3C5185"/>
<path opacity="0.3" d="M306.276 416.739L347.862 440.623C350.531 442.309 350.531 446.243 347.721 447.788L306.276 471.11C303.606 472.656 300.515 472.656 297.846 471.11L256.26 447.788C253.59 446.243 253.59 442.309 256.26 440.623L297.705 416.739C300.375 415.194 303.606 415.194 306.276 416.739Z" fill="#3C5185"/>
<path opacity="0.4" d="M306.274 416.881L347.579 440.624C350.249 442.31 350.249 446.244 347.579 447.649L306.134 470.971C303.605 472.376 300.514 472.376 297.845 470.971L256.539 447.649C253.87 446.244 253.73 442.31 256.539 440.624L297.845 416.881C300.373 415.335 303.605 415.335 306.274 416.881Z" fill="#3C5185"/>
<path opacity="0.4" d="M306.272 417.021L347.296 440.765C349.966 442.31 349.966 446.103 347.296 447.649L306.132 470.83C303.603 472.235 300.512 472.235 297.843 470.83L256.819 447.649C254.009 446.103 254.009 442.31 256.678 440.765L297.843 417.021C300.372 415.476 303.603 415.476 306.272 417.021Z" fill="#3C5185"/>
<path opacity="0.4" d="M306.276 417.161L347.019 440.764C349.829 442.309 349.689 446.103 347.019 447.648L306.136 470.689C303.607 472.094 300.516 472.094 297.987 470.689L256.963 447.648C254.294 446.103 254.294 442.309 256.963 440.764L297.847 417.161C300.375 415.616 303.607 415.616 306.276 417.161Z" fill="#3C5185"/>
<path opacity="0.4" d="M306.273 417.302L346.875 440.764C349.544 442.309 349.544 446.103 346.735 447.648L306.132 470.549C303.603 471.954 300.512 471.954 297.983 470.549L257.24 447.648C254.571 446.103 254.571 442.309 257.24 440.764L297.843 417.302C300.372 415.756 303.603 415.756 306.273 417.302Z" fill="#3C5185"/>
<path opacity="0.4" d="M306.132 417.441L346.594 440.763C349.264 442.309 349.264 446.102 346.594 447.647L306.132 470.407C303.603 471.812 300.513 471.812 297.984 470.407L257.522 447.647C254.852 446.102 254.852 442.309 257.522 440.763L297.843 417.441C300.513 415.896 303.603 415.896 306.132 417.441Z" fill="#3C5185"/>
<path opacity="0.5" d="M306.133 417.584L346.314 440.765C348.983 442.311 348.983 446.104 346.314 447.649L306.133 470.269C303.604 471.674 300.513 471.674 297.984 470.269L257.803 447.649C255.134 446.104 255.134 442.311 257.663 440.765L297.844 417.584C300.513 416.038 303.604 416.038 306.133 417.584Z" fill="#3C5185"/>
<path opacity="0.5" d="M306.131 417.724L346.172 440.764C348.701 442.31 348.701 446.103 346.031 447.649L305.991 470.128C303.602 471.532 300.511 471.532 297.983 470.128L257.942 447.649C255.413 446.103 255.273 442.31 257.942 440.764L297.983 417.724C300.511 416.178 303.602 416.178 306.131 417.724Z" fill="#3C5185"/>
<path opacity="0.5" d="M306.133 417.863L345.893 440.764C348.421 442.309 348.421 446.102 345.893 447.507L305.992 469.986C303.604 471.391 300.513 471.391 297.984 469.986L258.225 447.507C255.555 446.102 255.555 442.309 258.225 440.764L297.984 417.863C300.513 416.458 303.604 416.458 306.133 417.863Z" fill="#3C5185"/>
<path opacity="0.5" d="M306.133 418.005L345.612 440.765C348.281 442.31 348.141 446.104 345.612 447.508L305.993 469.847C303.604 471.252 300.513 471.252 297.985 469.847L258.506 447.508C255.837 446.104 255.837 442.31 258.506 440.765L297.985 418.005C300.513 416.6 303.604 416.6 306.133 418.005Z" fill="#3C5185"/>
<path opacity="0.5" d="M306.131 418.145L345.329 440.904C347.999 442.309 347.999 446.103 345.329 447.508L305.991 469.706C303.603 471.111 300.512 471.111 298.123 469.706L258.645 447.508C256.116 446.103 256.116 442.309 258.645 440.904L297.983 418.145C300.512 416.74 303.603 416.74 306.131 418.145Z" fill="#3C5185"/>
<path opacity="0.5" d="M305.993 418.285L345.191 440.905C347.72 442.31 347.72 446.103 345.05 447.508L305.993 469.565C303.464 470.97 300.514 470.97 298.126 469.565L258.928 447.508C256.399 446.103 256.399 442.31 258.928 440.905L297.985 418.285C300.514 416.88 303.605 416.88 305.993 418.285Z" fill="#3C5185"/>
<path opacity="0.6" d="M305.992 418.426L344.908 440.905C347.437 442.31 347.437 446.103 344.908 447.508L305.992 469.425C303.463 470.83 300.513 470.83 298.124 469.425L259.208 447.508C256.679 446.103 256.538 442.31 259.208 440.905L297.984 418.426C300.513 417.021 303.603 417.021 305.992 418.426Z" fill="#3C5185"/>
<path opacity="0.6" d="M305.994 418.565L344.63 440.904C347.159 442.309 347.159 445.962 344.63 447.507L305.994 469.284C303.465 470.548 300.515 470.548 298.126 469.284L259.491 447.507C256.821 445.962 256.821 442.309 259.35 440.904L298.126 418.565C300.515 417.16 303.606 417.16 305.994 418.565Z" fill="#3C5185"/>
<path opacity="0.6" d="M305.992 418.707L344.487 440.905C347.016 442.31 346.875 445.963 344.347 447.508L305.851 469.144C303.463 470.409 300.513 470.409 298.124 469.144L259.629 447.508C257.1 445.963 257.1 442.31 259.629 440.905L298.124 418.707C300.513 417.302 303.604 417.302 305.992 418.707Z" fill="#3C5185"/>
<path opacity="0.6" d="M305.994 418.848L344.208 440.905C346.737 442.31 346.737 445.963 344.208 447.368L305.854 469.004C303.465 470.268 300.515 470.268 298.127 469.004L259.912 447.368C257.383 445.963 257.383 442.31 259.912 440.905L298.127 418.848C300.515 417.443 303.465 417.443 305.994 418.848Z" fill="#3C5185"/>
<path opacity="0.6" d="M305.994 418.986L343.928 440.903C346.456 442.449 346.456 445.961 343.928 447.366L305.854 468.861C303.465 470.126 300.515 470.126 298.267 468.861L260.194 447.366C257.665 445.961 257.665 442.449 260.194 440.903L298.127 418.986C300.515 417.581 303.465 417.581 305.994 418.986Z" fill="#3C5185"/>
<path opacity="0.7" d="M305.851 419.128L343.643 440.904C346.172 442.45 346.172 445.962 343.643 447.367L305.851 468.722C303.462 469.987 300.652 469.987 298.264 468.722L260.471 447.367C257.942 445.962 257.942 442.45 260.331 440.904L298.124 419.128C300.512 417.723 303.462 417.723 305.851 419.128Z" fill="#3C5185"/>
<path opacity="0.7" d="M305.853 419.269L343.505 440.905C345.893 442.45 345.893 445.962 343.364 447.367L305.853 468.582C303.464 469.846 300.654 469.846 298.266 468.582L260.614 447.367C258.225 445.962 258.085 442.45 260.614 440.905L298.126 419.269C300.514 417.864 303.464 417.864 305.853 419.269Z" fill="#3C5185"/>
<path opacity="0.7" d="M305.853 419.41L343.224 441.046C345.612 442.451 345.612 445.963 343.224 447.368L305.853 468.442C303.464 469.707 300.654 469.707 298.266 468.442L260.895 447.368C258.366 445.963 258.366 442.451 260.895 441.046L298.266 419.41C300.514 418.005 303.464 418.005 305.853 419.41Z" fill="#3C5185"/>
<path opacity="0.7" d="M305.851 419.55L342.942 441.045C345.47 442.45 345.33 445.963 342.942 447.367L305.711 468.301C303.463 469.565 300.653 469.565 298.265 468.301L261.174 447.367C258.645 445.963 258.646 442.45 261.034 441.045L298.265 419.55C300.513 418.145 303.463 418.145 305.851 419.55Z" fill="#3C5185"/>
<path opacity="0.7" d="M305.853 419.69L342.662 441.045C345.191 442.449 345.191 445.962 342.662 447.367L305.713 468.16C303.465 469.424 300.655 469.424 298.266 468.16L261.317 447.367C258.928 445.962 258.928 442.449 261.317 441.045L298.266 419.69C300.655 418.425 303.465 418.425 305.853 419.69Z" fill="#3C5185"/>
<path opacity="0.8" d="M305.849 419.831L342.518 441.046C344.907 442.451 344.907 445.963 342.518 447.227L305.709 468.02C303.461 469.285 300.651 469.285 298.403 468.02L261.594 447.227C259.206 445.963 259.206 442.451 261.594 441.046L298.263 419.831C300.651 418.567 303.461 418.567 305.849 419.831Z" fill="#3C5185"/>
<path opacity="0.8" d="M305.711 419.971L342.239 441.045C344.628 442.45 344.628 445.962 342.239 447.227L305.711 467.879C303.463 469.144 300.653 469.144 298.406 467.879L261.877 447.227C259.489 445.962 259.489 442.45 261.877 441.045L298.265 419.971C300.653 418.706 303.463 418.706 305.711 419.971Z" fill="#3C5185"/>
<path opacity="0.8" d="M305.713 420.111L341.96 441.045C344.349 442.45 344.349 445.962 341.96 447.227L305.713 467.739C303.465 469.003 300.655 469.003 298.407 467.739L262.16 447.227C259.772 445.962 259.631 442.45 262.019 441.045L298.267 420.111C300.655 418.847 303.465 418.847 305.713 420.111Z" fill="#3C5185"/>
<path opacity="0.8" d="M305.712 420.251L341.818 441.044C344.066 442.449 344.066 445.821 341.678 447.226L305.712 467.597C303.464 468.862 300.654 468.862 298.406 467.597L262.299 447.226C259.911 445.821 259.911 442.449 262.299 441.044L298.265 420.251C300.654 418.987 303.464 418.987 305.712 420.251Z" fill="#3C5185"/>
<path opacity="0.8" d="M305.71 420.392L341.536 441.044C343.924 442.449 343.784 445.821 341.536 447.226L305.71 467.317C303.462 468.581 300.652 468.581 298.404 467.317L262.578 447.226C260.19 445.821 260.19 442.449 262.578 441.044L298.404 420.392C300.652 419.127 303.462 419.127 305.71 420.392Z" fill="#3C5185"/>
<path opacity="0.9" d="M305.712 420.534L341.257 441.187C343.646 442.451 343.646 445.823 341.257 447.228L305.572 467.178C303.465 468.443 300.655 468.443 298.407 467.178L262.862 447.228C260.474 445.823 260.474 442.451 262.722 441.187L298.407 420.534C300.655 419.27 303.465 419.27 305.712 420.534Z" fill="#3C5185"/>
<path opacity="0.9" d="M305.71 420.674L340.974 441.186C343.363 442.45 343.363 445.822 340.974 447.227L305.57 467.037C303.322 468.301 300.653 468.301 298.405 467.037L263 447.227C260.752 445.822 260.752 442.45 263 441.186L298.405 420.674C300.653 419.409 303.462 419.409 305.71 420.674Z" fill="#3C5185"/>
<path opacity="0.9" d="M305.709 420.814L340.832 441.185C343.08 442.45 343.08 445.821 340.692 447.086L305.569 466.895C303.321 468.16 300.651 468.16 298.544 466.895L263.28 447.086C261.032 445.821 260.892 442.45 263.28 441.185L298.403 420.814C300.651 419.549 303.461 419.549 305.709 420.814Z" fill="#3C5185"/>
<path opacity="0.9" d="M305.572 420.954L340.555 441.185C342.803 442.45 342.803 445.821 340.555 447.086L305.572 466.755C303.324 468.019 300.655 468.019 298.548 466.755L263.565 447.086C261.176 445.821 261.176 442.45 263.565 441.185L298.407 420.954C300.655 419.69 303.465 419.69 305.572 420.954Z" fill="#3C5185"/>
<path opacity="0.9" d="M305.571 421.095L340.273 441.185C342.661 442.45 342.521 445.822 340.273 447.086L305.571 466.615C303.323 467.879 300.654 467.879 298.546 466.615L263.844 447.086C261.456 445.822 261.456 442.45 263.704 441.185L298.406 421.095C300.654 419.83 303.323 419.83 305.571 421.095Z" fill="#3C5185"/>
<path d="M305.571 421.236L340.132 441.186C342.38 442.451 342.38 445.823 339.992 447.087L305.571 466.475C303.323 467.74 300.654 467.74 298.546 466.475L263.985 447.087C261.737 445.823 261.737 442.451 263.985 441.186L298.546 421.236C300.654 419.972 303.323 419.972 305.571 421.236Z" fill="#3C5185"/>
<path d="M305.571 421.376L339.851 441.186C342.099 442.591 342.099 445.822 339.851 447.086L305.431 466.334C303.323 467.598 300.794 467.598 298.546 466.334L264.266 447.086C262.018 445.822 262.018 442.591 264.266 441.186L298.546 421.376C300.654 420.252 303.323 420.252 305.571 421.376Z" fill="#3C5185"/>
<path d="M305.571 421.516L339.571 441.185C341.819 442.59 341.819 445.821 339.571 447.086L305.431 466.193C303.323 467.457 300.795 467.457 298.547 466.193L264.547 447.086C262.299 445.821 262.299 442.59 264.547 441.185L298.547 421.516C300.654 420.392 303.323 420.392 305.571 421.516Z" fill="#3C5185"/>
</g>
<path d="M305.996 417.723L346.458 436.83V443.011C346.458 444.697 345.615 446.102 344.21 446.945L305.996 468.441C303.467 469.846 300.516 469.846 298.128 468.441L259.773 446.664C258.368 445.821 257.525 444.416 257.525 442.871V436.127L298.128 417.723C300.516 416.318 303.607 416.318 305.996 417.723Z" fill="url(#paint20_linear_602_3795)"/>
<path d="M305.994 410.417L344.63 432.755C347.159 434.16 347.159 437.954 344.63 439.359L305.994 461.135C303.465 462.54 300.515 462.54 298.126 461.135L259.491 439.359C256.821 437.954 256.821 434.16 259.35 432.755L298.126 410.417C300.515 409.012 303.606 409.012 305.994 410.417Z" fill="white"/>
<path d="M344.63 439.359L338.027 442.871L289.838 415.053L298.127 410.417C300.515 409.012 303.606 409.012 305.995 410.417L344.63 432.755C347.159 434.16 347.159 437.954 344.63 439.359Z" fill="url(#paint21_linear_602_3795)"/>
<path d="M279.725 427.838L288.857 422.499L297.848 427.838L288.857 433.036L279.725 427.838Z" fill="#D1E1F2"/>
<path d="M292.926 435.566L302.058 430.368L311.049 435.566L302.058 440.765L292.926 435.566Z" fill="#D1E1F2"/>
<path d="M306.133 443.433L315.265 438.095L324.256 443.433L315.265 448.632L306.133 443.433Z" fill="#D1E1F2"/>
<path d="M267.498 435.566L276.63 430.368L285.622 435.566L276.63 440.765L267.498 435.566Z" fill="#D1E1F2"/>
<path d="M280.705 443.433L289.837 438.095L298.829 443.433L289.837 448.632L280.705 443.433Z" fill="#D1E1F2"/>
<path d="M293.912 451.159L303.044 445.961L312.036 451.159L303.044 456.357L293.912 451.159Z" fill="#D1E1F2"/>
<path style="mix-blend-mode:multiply" d="M350.532 383.162C365.565 374.451 390.292 374.451 405.325 383.162C420.358 391.872 420.358 406.062 405.325 414.773C390.292 423.483 365.565 423.483 350.532 414.773C335.359 406.062 335.359 391.872 350.532 383.162Z" fill="url(#paint22_radial_602_3795)"/>
<path d="M405.044 394.681C405.184 398.896 402.374 402.971 397.036 406.061C386.218 412.384 368.516 412.384 357.698 406.061C352.359 402.971 349.689 398.896 349.689 394.681V387.376H352.78C353.998 385.971 355.637 384.66 357.698 383.442C368.516 377.26 386.218 377.26 397.036 383.442C399.096 384.66 400.735 385.971 401.953 387.376H405.044V394.681Z" fill="url(#paint23_linear_602_3795)"/>
<path d="M357.698 375.996C368.516 369.814 386.218 369.814 397.036 375.996C407.854 382.318 407.854 392.433 397.036 398.756C386.218 404.937 368.516 404.937 357.698 398.756C347.02 392.433 347.02 382.318 357.698 375.996Z" fill="url(#paint24_linear_602_3795)"/>
<path d="M359.806 377.26C369.5 371.64 385.235 371.64 394.929 377.26C404.623 382.879 404.623 392.011 394.929 397.491C385.235 403.11 369.5 403.11 359.806 397.491C350.112 392.011 350.112 382.879 359.806 377.26Z" fill="white"/>
<path d="M377.925 388.78C377.504 388.78 377.083 388.499 376.802 388.077C376.38 387.515 376.661 386.672 377.363 386.251L388.181 380.069C388.743 379.648 389.586 379.929 390.008 380.491C390.429 381.193 390.148 382.036 389.446 382.317L378.628 388.639C378.441 388.733 378.206 388.78 377.925 388.78Z" fill="#3C5185"/>
<path d="M391.414 395.945C391.227 395.945 391.04 395.898 390.853 395.805L377.927 388.358C377.506 388.078 377.225 387.375 377.506 386.954C377.787 386.392 378.489 386.251 378.911 386.532L391.836 393.978C392.398 394.259 392.538 394.962 392.257 395.383C392.117 395.805 391.695 395.945 391.414 395.945Z" fill="#4A65A3"/>
<path d="M374.839 385.69C376.525 384.566 379.475 384.566 381.161 385.69C382.847 386.673 382.847 388.218 381.161 389.342C379.475 390.326 376.525 390.326 374.839 389.342C373.153 388.218 373.153 386.673 374.839 385.69Z" fill="#3C5185"/>
<path d="M391.275 378.104C391.837 377.823 392.961 377.823 393.523 378.104C394.085 378.526 394.085 379.088 393.523 379.369C392.961 379.79 391.837 379.79 391.275 379.369C390.713 379.088 390.713 378.526 391.275 378.104Z" fill="#3C5185"/>
<path d="M362.193 378.104C362.755 377.823 363.879 377.823 364.441 378.104C365.003 378.526 365.003 379.088 364.441 379.369C363.879 379.79 362.755 379.79 362.193 379.369C361.631 379.088 361.631 378.526 362.193 378.104Z" fill="#3C5185"/>
<path d="M360.648 395.243C361.21 394.962 362.193 394.962 362.896 395.243C363.458 395.664 363.458 396.226 362.896 396.648C362.193 396.929 361.21 396.929 360.648 396.648C359.945 396.226 359.945 395.664 360.648 395.243Z" fill="#3C5185"/>
<path d="M392.259 396.226C392.821 395.805 393.805 395.805 394.507 396.226C395.069 396.507 395.069 397.21 394.507 397.491C393.805 397.912 392.821 397.912 392.259 397.491C391.557 397.21 391.557 396.507 392.259 396.226Z" fill="#3C5185"/>
<defs>
<linearGradient id="paint0_linear_602_3795" x1="-142.32" y1="345.649" x2="221.277" y2="-133.433" gradientUnits="userSpaceOnUse">
<stop offset="0.1" stop-color="white"/>
<stop offset="1" stop-color="#E1EBF7"/>
</linearGradient>
<linearGradient id="paint1_linear_602_3795" x1="222.123" y1="63.1161" x2="410.244" y2="63.1161" gradientUnits="userSpaceOnUse">
<stop stop-color="white"/>
<stop offset="1" stop-color="#A5CBEF"/>
</linearGradient>
<linearGradient id="paint2_linear_602_3795" x1="98.6293" y1="214.288" x2="403.078" y2="214.288" gradientUnits="userSpaceOnUse">
<stop stop-color="#A5CBEF"/>
<stop offset="1" stop-color="white"/>
</linearGradient>
<linearGradient id="paint3_linear_602_3795" x1="234.91" y1="-5.58461" x2="393.668" y2="-5.58461" gradientUnits="userSpaceOnUse">
<stop stop-color="white"/>
<stop offset="1" stop-color="#A5CBEF"/>
</linearGradient>
<linearGradient id="paint4_linear_602_3795" x1="233.645" y1="-4.17975" x2="391.419" y2="-4.17975" gradientUnits="userSpaceOnUse">
<stop stop-color="#3C5185"/>
<stop offset="1" stop-color="#4A65A3"/>
</linearGradient>
<linearGradient id="paint5_linear_602_3795" x1="313.437" y1="78.2896" x2="452.245" y2="78.2896" gradientUnits="userSpaceOnUse">
<stop stop-color="white"/>
<stop offset="1" stop-color="#A5CBEF"/>
</linearGradient>
<linearGradient id="paint6_linear_602_3795" x1="313.438" y1="80.2567" x2="448.311" y2="80.2567" gradientUnits="userSpaceOnUse">
<stop stop-color="#3C5185"/>
<stop offset="1" stop-color="#5D7DBE"/>
</linearGradient>
<linearGradient id="paint7_linear_602_3795" x1="213.688" y1="267.396" x2="227.034" y2="267.396" gradientUnits="userSpaceOnUse">
<stop stop-color="#A8D9FB"/>
<stop offset="1" stop-color="white"/>
</linearGradient>
<linearGradient id="paint8_linear_602_3795" x1="167.884" y1="371.08" x2="184.182" y2="371.08" gradientUnits="userSpaceOnUse">
<stop stop-color="#4A65A3"/>
<stop offset="1" stop-color="#3C5185"/>
</linearGradient>
<linearGradient id="paint9_linear_602_3795" x1="162.406" y1="324.998" x2="180.39" y2="324.998" gradientUnits="userSpaceOnUse">
<stop stop-color="#A8D9FB"/>
<stop offset="1" stop-color="white"/>
</linearGradient>
<linearGradient id="paint10_linear_602_3795" x1="167.746" y1="343.825" x2="197.671" y2="343.825" gradientUnits="userSpaceOnUse">
<stop stop-color="#4A65A3"/>
<stop offset="1" stop-color="#3C5185"/>
</linearGradient>
<linearGradient id="paint11_linear_602_3795" x1="167.884" y1="323.313" x2="198.512" y2="323.313" gradientUnits="userSpaceOnUse">
<stop stop-color="#A8D9FB"/>
<stop offset="1" stop-color="white"/>
</linearGradient>
<linearGradient id="paint12_linear_602_3795" x1="186.713" y1="328.09" x2="207.506" y2="347.057" gradientUnits="userSpaceOnUse">
<stop stop-color="#A8D9FB"/>
<stop offset="1" stop-color="white"/>
</linearGradient>
<linearGradient id="paint13_linear_602_3795" x1="114.501" y1="277.511" x2="83.3117" y2="277.511" gradientUnits="userSpaceOnUse">
<stop stop-color="#4A65A3"/>
<stop offset="1" stop-color="#3C5185"/>
</linearGradient>
<linearGradient id="paint14_linear_602_3795" x1="112.959" y1="296.196" x2="92.3069" y2="296.196" gradientUnits="userSpaceOnUse">
<stop stop-color="#4A65A3"/>
<stop offset="1" stop-color="#3C5185"/>
</linearGradient>
<linearGradient id="paint15_linear_602_3795" x1="48.3301" y1="259.947" x2="48.3301" y2="182.254" gradientUnits="userSpaceOnUse">
<stop stop-color="#3C5185"/>
<stop offset="1" stop-color="#5D7DBE"/>
</linearGradient>
<linearGradient id="paint16_linear_602_3795" x1="17.4186" y1="186.61" x2="73.8968" y2="282.707" gradientUnits="userSpaceOnUse">
<stop stop-color="#5D7DBE"/>
<stop offset="1" stop-color="#3C5185"/>
</linearGradient>
<linearGradient id="paint17_linear_602_3795" x1="131.075" y1="96.8377" x2="145.968" y2="96.8377" gradientUnits="userSpaceOnUse">
<stop stop-color="#A8D9FB"/>
<stop offset="1" stop-color="white"/>
</linearGradient>
<linearGradient id="paint18_linear_602_3795" x1="139.786" y1="130.416" x2="188.959" y2="130.416" gradientUnits="userSpaceOnUse">
<stop stop-color="#3C5185"/>
<stop offset="1" stop-color="#5D7DBE"/>
</linearGradient>
<linearGradient id="paint19_linear_602_3795" x1="138.664" y1="93.1849" x2="191.911" y2="93.1849" gradientUnits="userSpaceOnUse">
<stop stop-color="#A8D9FB"/>
<stop offset="1" stop-color="white"/>
</linearGradient>
<linearGradient id="paint20_linear_602_3795" x1="257.525" y1="411.119" x2="346.458" y2="411.119" gradientUnits="userSpaceOnUse">
<stop stop-color="#3C5185"/>
<stop offset="1" stop-color="#4A65A3"/>
</linearGradient>
<linearGradient id="paint21_linear_602_3795" x1="289.838" y1="403.814" x2="345.895" y2="403.814" gradientUnits="userSpaceOnUse">
<stop stop-color="#4A65A3"/>
<stop offset="1" stop-color="#3C5185"/>
</linearGradient>
<radialGradient id="paint22_radial_602_3795" cx="0" cy="0" r="1" gradientUnits="userSpaceOnUse" gradientTransform="translate(377.929 398.897) scale(35.6853 35.6853)">
<stop offset="0.5" stop-color="#3C5185"/>
<stop offset="1" stop-color="white"/>
</radialGradient>
<linearGradient id="paint23_linear_602_3795" x1="349.689" y1="373.607" x2="405.044" y2="373.607" gradientUnits="userSpaceOnUse">
<stop stop-color="#7EA7DF"/>
<stop offset="1" stop-color="white"/>
</linearGradient>
<linearGradient id="paint24_linear_602_3795" x1="352.078" y1="366.302" x2="402.655" y2="366.302" gradientUnits="userSpaceOnUse">
<stop stop-color="#ECF2FA"/>
<stop offset="1" stop-color="#7EA7DF"/>
</linearGradient>
</defs>
</svg>
