<svg width="80" height="80" viewBox="0 0 80 80" fill="none" xmlns="http://www.w3.org/2000/svg">
<rect width="80" height="80" rx="10" fill="#708F32"/>
<path d="M58.9126 45.9123L54.2251 54.0311C53.3063 55.6436 51.6001 56.4873 49.8751 56.3748H46.1251V60.1248L41.4376 51.6873L46.1251 43.2498V46.9998H51.4126L47.2501 39.7811L55.3688 35.0936L58.7438 40.9436C59.7188 42.3873 59.8501 44.3186 58.9126 45.9123ZM35.2688 22.7373H44.6438C46.4813 22.7373 48.0751 23.8061 48.8438 25.3436L50.7188 28.6061L53.9626 26.7311L49.0126 34.9998L39.3563 35.1686L42.6 33.2936L39.9563 28.6998L35.8126 35.9186L27.675 31.2311L31.05 25.3811C31.8188 23.8248 33.4125 22.7373 35.2688 22.7373ZM27.4688 54.0498L22.7813 45.9311C21.8625 44.3373 21.9938 42.4248 22.95 40.9811L24.825 37.7373L21.5813 35.8623L31.2188 36.0123L36.1876 44.2998L32.9438 42.4248L30.3 46.9998H38.6251V56.3748H31.8751C30.9966 56.4384 30.118 56.2542 29.339 55.8432C28.5601 55.4322 27.9121 54.8108 27.4688 54.0498Z" fill="white"/>
</svg>
