<svg width="80" height="80" viewBox="0 0 80 80" fill="none" xmlns="http://www.w3.org/2000/svg">
<rect width="80" height="80" rx="10" fill="#708F32"/>
<path d="M40.5 19.8125C36.6062 19.8125 32.7998 20.9672 29.5622 23.1304C26.3246 25.2937 23.8012 28.3685 22.3111 31.9659C20.821 35.5633 20.4312 39.5218 21.1908 43.3408C21.9504 47.1598 23.8255 50.6678 26.5788 53.4212C29.3322 56.1745 32.8402 58.0496 36.6592 58.8092C40.4782 59.5689 44.4367 59.179 48.0341 57.6889C51.6315 56.1988 54.7063 53.6754 56.8696 50.4378C59.0329 47.2002 60.1875 43.3938 60.1875 39.5C60.1816 34.2804 58.1054 29.2762 54.4146 25.5854C50.7238 21.8946 45.7196 19.8185 40.5 19.8125ZM23.6531 40.0541L25.5347 40.6812L27.8438 44.1448V45.9491C27.8438 46.322 27.992 46.6796 28.2558 46.9433L32.0625 50.75V54.0927C29.5846 52.6587 27.5124 50.6176 26.0412 48.1616C24.57 45.7055 23.7482 42.9154 23.6531 40.0541ZM40.5 56.375C39.2834 56.3725 38.0707 56.2381 36.8831 55.9742L37.6875 53.5625L40.2258 47.2175C40.3104 47.0057 40.3421 46.7764 40.3184 46.5496C40.2946 46.3227 40.216 46.105 40.0894 45.9153L38.1052 42.9383C37.9767 42.7457 37.8027 42.5879 37.5986 42.4787C37.3945 42.3696 37.1666 42.3125 36.9352 42.3125H30.0024L28.2474 39.6786L31.2384 36.6875H33.4688V39.5H36.2813V35.6553L41.7206 26.135L39.2794 24.74L38.077 26.8438H34.2211L32.6953 24.553C34.7454 23.4711 36.9984 22.8285 39.3107 22.666C41.623 22.5036 43.9438 22.8248 46.125 23.6094V28.25C46.125 28.623 46.2732 28.9806 46.5369 29.2444C46.8006 29.5081 47.1583 29.6562 47.5313 29.6562H49.5914C49.8229 29.6563 50.0508 29.5992 50.2549 29.49C50.459 29.3809 50.633 29.223 50.7614 29.0305L51.9947 27.1798C53.6008 28.6779 54.9 30.4743 55.8197 32.4688H50.0906C49.7657 32.4689 49.4508 32.5817 49.1995 32.7878C48.9483 32.9939 48.7762 33.2807 48.7125 33.5994L47.6958 39.8853C47.6477 40.1813 47.6954 40.4848 47.832 40.7517C47.9686 41.0186 48.187 41.2349 48.4552 41.3689L53.1563 43.7188L54.1195 49.4225C52.5587 51.5735 50.5111 53.3247 48.144 54.533C45.777 55.7413 43.1576 56.3725 40.5 56.375Z" fill="white"/>
</svg>
