<svg width="216" height="80" viewBox="0 0 216 80" fill="none" xmlns="http://www.w3.org/2000/svg">
<g clip-path="url(#clip0_2741_393)">
<path d="M42.6222 45.5218H41.639H30.7446H30.2446V46.0218C30.2446 52.343 34.9993 57.6178 41.139 58.6207V63.5507C38.0095 65.1694 34.653 66.1609 32.0233 66.1609C23.3357 66.1609 16.6166 58.9619 16.6166 49.3467C16.6166 39.9024 23.2604 32.7049 31.8699 32.7049C36.3695 32.7049 41.2726 34.6784 45.05 37.9364C47.2908 41.1134 51.0034 43.2215 55.2185 43.2215H55.7185V42.7215V35.0126C55.7185 32.7968 55.2416 30.7233 54.0232 28.898L54.0034 28.8683L53.9796 28.8417L53.4984 28.3051C48.6235 22.5544 40.1334 19.3658 31.9466 19.3658C14.5431 19.3658 1.5 32.2421 1.5 49.3467C1.5 66.5084 14.2195 79.5 31.026 79.5C36.3965 79.5 47.5938 78.3456 54.0114 69.5414L54.0288 69.5177L54.0432 69.492C54.7369 68.2586 55.2149 66.9006 55.48 65.4713L55.4817 65.4621L55.483 65.4528C55.7913 63.352 55.776 59.418 55.7706 58.0326C55.7701 57.893 55.7697 57.7793 55.7697 57.6959C55.7697 57.3699 55.752 57.0513 55.7167 56.74L55.6919 56.3582L55.6888 56.3109L55.6769 56.2649L55.6594 56.1977C54.8956 50.1895 49.5412 45.4972 43.1222 45.4972H42.6222V45.5218ZM138 78.3424H138.5V77.8424V33.8797C138.5 26.246 132.018 20.0308 124.114 20.0308H123.614V20.5308V64.4935C123.614 72.1273 130.096 78.3424 138 78.3424ZM114.256 21.048V20.548H113.756C105.851 20.548 99.3954 26.7643 99.3954 34.3969V78.3596V78.8596H99.8954C107.775 78.8596 114.256 72.6439 114.256 65.0107V21.048ZM75.6262 78.8596H76.1262V78.3596V34.3969C76.1262 26.7638 69.6445 20.548 61.7653 20.548H61.2653V21.048V65.0107C61.2653 72.6439 67.747 78.8596 75.6262 78.8596ZM137.131 20.9076H137.631V20.4076V12.6988C137.631 5.97689 131.916 0.5 124.983 0.5H124.483V1V8.70887C124.483 15.4307 130.198 20.9076 137.131 20.9076Z" fill="#065286" stroke="white"/>
<path d="M81.4814 46.0041L81.1774 46.401L81.956 46.9976L81.9813 46.017L81.4814 46.0041ZM81.4814 46.0041L81.9813 46.017L81.9813 46.0169L81.9813 46.0165L81.9813 46.0144L81.9816 46.0061L81.9825 45.9731L81.9862 45.8461C81.9896 45.7361 81.9948 45.5777 82.002 45.3847C82.0164 44.9986 82.0388 44.4752 82.0708 43.9253C82.1028 43.3743 82.1441 42.8014 82.1961 42.3146C82.2499 41.8104 82.31 41.454 82.3648 41.2965C82.6275 40.5733 83.4134 39.5259 84.832 38.667C85.9774 37.9811 86.9103 37.1949 87.5106 36.2631C88.1038 37.1933 89.0256 37.98 90.1941 38.6679C91.6074 39.524 92.3925 40.5672 92.6574 41.2899C92.7091 41.456 92.7656 41.8156 92.8175 42.3134C92.8684 42.8015 92.9106 43.3754 92.9442 43.9267C92.9778 44.4772 93.0026 45.0009 93.0191 45.3873C93.0273 45.5804 93.0334 45.7389 93.0374 45.8491L93.042 45.9762L93.0431 46.0093L93.0434 46.0176L93.0434 46.0197L93.0434 46.0201L93.0434 46.0202L93.5432 46.0041L93.0434 46.0203L93.08 47.1541L93.8923 46.3621C95.3664 44.9246 96.4956 43.5998 97.1281 42.3456C98.1381 40.5805 98.4412 38.8624 98.4918 37.5862C98.5172 36.9463 98.4793 36.4153 98.4343 36.0412C98.4118 35.8541 98.3875 35.7058 98.3684 35.6023C98.3588 35.5506 98.3505 35.51 98.3444 35.4814L98.3369 35.4474L98.3352 35.4402C98.0033 33.8889 97.4932 32.5313 96.6526 31.3C95.8112 30.0677 94.6557 28.987 93.0659 27.9664L93.0643 27.9654C91.4062 26.9098 89.5846 26.5834 88.1974 26.515C87.501 26.4806 86.906 26.5109 86.4833 26.5499C86.2718 26.5694 86.1028 26.5912 85.9851 26.6085C85.9263 26.6171 85.8802 26.6245 85.848 26.63L85.8162 26.6356C82.8171 26.9718 80.7138 28.5825 79.3719 30.0868C78.6992 30.8409 78.2124 31.5738 77.8932 32.119C77.7333 32.392 77.6149 32.619 77.5357 32.7796C77.496 32.8598 77.4662 32.9236 77.4458 32.9683C77.4356 32.9906 77.4278 33.0082 77.4223 33.0206L77.4158 33.0355L77.4143 33.0391L77.4139 33.04L77.4137 33.0403C75.711 36.9814 76.6637 40.3418 78.0272 42.6897C78.7068 43.86 79.49 44.7836 80.1022 45.4143C80.4089 45.7302 80.6741 45.9741 80.8642 46.1403C80.9592 46.2234 81.0357 46.2871 81.0892 46.3308C81.116 46.3526 81.1371 46.3695 81.152 46.3812L81.1695 46.395L81.1747 46.399L81.1763 46.4003L81.1769 46.4007C81.1771 46.4009 81.1774 46.401 81.4814 46.0041ZM85.3533 50.3522L86.2082 51.2136V50V43.4204C86.3734 43.077 86.7065 42.7096 87.0597 42.3934C87.2254 42.2451 87.3844 42.1177 87.5123 42.0205C87.6402 42.1177 87.7992 42.2451 87.9649 42.3934C88.3181 42.7096 88.6512 43.077 88.8164 43.4204V50V51.2136L89.6713 50.3522L91.2177 48.7941L91.3636 48.647L91.3628 48.4398L91.337 42.2073L91.3365 42.0858L91.2804 41.9781L90.837 42.2093C91.2804 41.9781 91.2803 41.978 91.2802 41.9779L91.2801 41.9776L91.2797 41.977L91.2788 41.9752L91.2762 41.9702L91.2674 41.9538C91.2599 41.9402 91.2495 41.9212 91.2359 41.8973C91.2089 41.8496 91.1696 41.7824 91.1182 41.6998C91.0156 41.5348 90.864 41.3074 90.6647 41.0511C90.2701 40.5436 89.6753 39.906 88.8883 39.4246L87.787 38.7004L87.5123 38.5198L87.2376 38.7004L86.1364 39.4246C85.348 39.9069 84.759 40.5457 84.3702 41.0544C84.174 41.3112 84.0255 41.5393 83.9252 41.7047C83.875 41.7875 83.8366 41.8549 83.8103 41.9028C83.7971 41.9268 83.7869 41.9459 83.7796 41.9597L83.771 41.9762L83.7684 41.9813L83.7675 41.9831L83.7672 41.9837L83.767 41.984C83.767 41.9841 83.7669 41.9843 84.2134 42.2093L83.7669 41.9843L83.7144 42.0885L83.7134 42.2052L83.6618 48.4377L83.6601 48.6461L83.8069 48.7941L85.3533 50.3522Z" fill="#065286" stroke="white"/>
<mask id="path-3-outside-1_2741_393" maskUnits="userSpaceOnUse" x="149.88" y="29.8853" width="60" height="11" fill="black">
<rect fill="white" x="149.88" y="29.8853" width="60" height="11"/>
<path d="M158.109 35.1677V38.5213C157.977 38.6829 157.77 38.8585 157.487 39.0478C157.208 39.2371 156.842 39.4006 156.391 39.5386C155.939 39.6726 155.385 39.7398 154.729 39.7398C154.158 39.7398 153.637 39.6489 153.164 39.4677C152.693 39.2822 152.286 39.0122 151.946 38.6574C151.605 38.3023 151.342 37.8687 151.158 37.3559C150.973 36.8434 150.88 36.2579 150.88 35.5992V35.0314C150.88 34.3729 150.967 33.7875 151.139 33.2749C151.315 32.7621 151.566 32.3285 151.89 31.9735C152.219 31.6186 152.61 31.3486 153.066 31.1631C153.526 30.9779 154.039 30.8853 154.605 30.8853C155.365 30.8853 155.988 31.0054 156.477 31.2459C156.97 31.4866 157.347 31.8177 157.61 32.2397C157.872 32.6576 158.037 33.1386 158.102 33.683H156.452C156.407 33.3832 156.317 33.121 156.181 32.8964C156.046 32.6675 155.853 32.49 155.603 32.3639C155.356 32.2339 155.036 32.1688 154.642 32.1688C154.31 32.1688 154.016 32.2319 153.762 32.3581C153.507 32.4842 153.294 32.6675 153.121 32.908C152.949 33.1487 152.818 33.4463 152.727 33.8013C152.641 34.1562 152.598 34.5622 152.598 35.0198V35.5992C152.598 36.0608 152.647 36.4709 152.746 36.8297C152.844 37.1846 152.986 37.4841 153.171 37.7287C153.36 37.9692 153.592 38.1526 153.866 38.2788C154.146 38.401 154.462 38.462 154.815 38.462C155.135 38.462 155.399 38.4365 155.609 38.3853C155.822 38.33 155.993 38.2649 156.12 38.19C156.247 38.115 156.346 38.0421 156.415 37.9712V36.3563H154.636V35.1677H158.109ZM165.651 38.3439V39.6214H160.885V38.3439H165.651ZM161.402 31.0094V39.6214H159.709V31.0094H161.402ZM165.029 34.5642V35.8122H160.885V34.5642H165.029ZM165.632 31.0094V32.2929H160.885V31.0094H165.632ZM174.03 31.0094V39.6214H172.331L168.52 33.6474V39.6214H166.826V31.0094H168.52L172.343 36.9892V31.0094H174.03ZM181.695 38.3439V39.6214H176.93V38.3439H181.695ZM177.447 31.0094V39.6214H175.754V31.0094H177.447ZM181.073 34.5642V35.8122H176.93V34.5642H181.073ZM181.677 31.0094V32.2929H176.93V31.0094H181.677ZM182.871 31.0094H186.128C186.809 31.0094 187.394 31.1081 187.883 31.3052C188.371 31.5023 188.747 31.794 189.01 32.1806C189.272 32.567 189.404 33.0422 189.404 33.606C189.404 34.0517 189.321 34.4381 189.157 34.7654C188.993 35.0927 188.761 35.3668 188.462 35.5876C188.166 35.8084 187.817 35.9818 187.415 36.108L186.885 36.3682H184.01L183.998 35.0846H186.146C186.495 35.0846 186.785 35.0256 187.015 34.9072C187.244 34.7891 187.417 34.6253 187.532 34.4164C187.651 34.2074 187.71 33.9689 187.71 33.7006C187.71 33.4127 187.653 33.1644 187.538 32.9554C187.423 32.7424 187.248 32.5789 187.015 32.4646C186.781 32.3502 186.485 32.2929 186.128 32.2929H184.564V39.6214H182.871V31.0094ZM187.932 39.6214L185.857 35.765L187.649 35.7589L189.748 39.5386V39.6214H187.932ZM194.452 32.3167L191.897 39.6214H190.105L193.455 31.0094H194.6L194.452 32.3167ZM196.588 39.6214L194.021 32.3167L193.867 31.0094H195.019L198.386 39.6214H196.588ZM196.471 36.4214V37.7049H191.663V36.4214H196.471ZM204.001 37.3857C204.001 37.2199 203.974 37.072 203.921 36.942C203.872 36.808 203.779 36.6876 203.644 36.5812C203.513 36.4709 203.326 36.3644 203.084 36.2619C202.846 36.1554 202.538 36.0449 202.16 35.9306C201.742 35.8044 201.352 35.6623 200.991 35.5048C200.629 35.3468 200.311 35.1636 200.036 34.9547C199.765 34.7457 199.554 34.5052 199.402 34.2329C199.25 33.957 199.174 33.6376 199.174 33.2749C199.174 32.9198 199.252 32.5965 199.408 32.3048C199.568 32.0131 199.794 31.7625 200.086 31.5535C200.377 31.3408 200.72 31.177 201.114 31.0627C201.512 30.9483 201.951 30.8911 202.431 30.8911C203.096 30.8911 203.671 31.0074 204.155 31.2401C204.643 31.4728 205.021 31.7882 205.288 32.1865C205.555 32.5847 205.688 33.0324 205.688 33.529H204.001C204.001 33.261 203.942 33.0243 203.823 32.8194C203.708 32.6142 203.531 32.4527 203.293 32.3343C203.059 32.216 202.764 32.1569 202.407 32.1569C202.062 32.1569 201.774 32.2061 201.545 32.3048C201.319 32.4032 201.149 32.5375 201.034 32.7071C200.923 32.8764 200.867 33.0657 200.867 33.2749C200.867 33.4326 200.906 33.5745 200.984 33.7006C201.062 33.8228 201.179 33.9391 201.335 34.0497C201.491 34.1562 201.684 34.2566 201.914 34.3512C202.148 34.4421 202.419 34.5327 202.727 34.6233C203.219 34.7654 203.65 34.9231 204.02 35.0965C204.393 35.2701 204.703 35.4672 204.949 35.688C205.2 35.9088 205.386 36.1572 205.51 36.4333C205.637 36.7094 205.701 37.0228 205.701 37.3738C205.701 37.7443 205.625 38.0757 205.473 38.3674C205.321 38.6594 205.103 38.9077 204.82 39.1126C204.537 39.3178 204.196 39.4735 203.798 39.58C203.404 39.6865 202.963 39.7398 202.474 39.7398C202.039 39.7398 201.608 39.6845 201.181 39.574C200.759 39.4596 200.375 39.2903 200.03 39.0654C199.685 38.8368 199.41 38.5488 199.205 38.2018C199 37.8508 198.897 37.4407 198.897 36.9716H200.596C200.596 37.2436 200.642 37.4763 200.732 37.6696C200.826 37.8589 200.958 38.0146 201.126 38.1367C201.298 38.2551 201.499 38.3419 201.729 38.3969C201.959 38.4522 202.208 38.48 202.474 38.48C202.819 38.48 203.102 38.4345 203.324 38.3439C203.55 38.249 203.718 38.1191 203.829 37.9535C203.944 37.7877 204.001 37.5984 204.001 37.3857ZM208.81 31.0094V39.6214H207.116V31.0094H208.81Z"/>
</mask>
<path d="M158.109 35.1677V38.5213C157.977 38.6829 157.77 38.8585 157.487 39.0478C157.208 39.2371 156.842 39.4006 156.391 39.5386C155.939 39.6726 155.385 39.7398 154.729 39.7398C154.158 39.7398 153.637 39.6489 153.164 39.4677C152.693 39.2822 152.286 39.0122 151.946 38.6574C151.605 38.3023 151.342 37.8687 151.158 37.3559C150.973 36.8434 150.88 36.2579 150.88 35.5992V35.0314C150.88 34.3729 150.967 33.7875 151.139 33.2749C151.315 32.7621 151.566 32.3285 151.89 31.9735C152.219 31.6186 152.61 31.3486 153.066 31.1631C153.526 30.9779 154.039 30.8853 154.605 30.8853C155.365 30.8853 155.988 31.0054 156.477 31.2459C156.97 31.4866 157.347 31.8177 157.61 32.2397C157.872 32.6576 158.037 33.1386 158.102 33.683H156.452C156.407 33.3832 156.317 33.121 156.181 32.8964C156.046 32.6675 155.853 32.49 155.603 32.3639C155.356 32.2339 155.036 32.1688 154.642 32.1688C154.31 32.1688 154.016 32.2319 153.762 32.3581C153.507 32.4842 153.294 32.6675 153.121 32.908C152.949 33.1487 152.818 33.4463 152.727 33.8013C152.641 34.1562 152.598 34.5622 152.598 35.0198V35.5992C152.598 36.0608 152.647 36.4709 152.746 36.8297C152.844 37.1846 152.986 37.4841 153.171 37.7287C153.36 37.9692 153.592 38.1526 153.866 38.2788C154.146 38.401 154.462 38.462 154.815 38.462C155.135 38.462 155.399 38.4365 155.609 38.3853C155.822 38.33 155.993 38.2649 156.12 38.19C156.247 38.115 156.346 38.0421 156.415 37.9712V36.3563H154.636V35.1677H158.109ZM165.651 38.3439V39.6214H160.885V38.3439H165.651ZM161.402 31.0094V39.6214H159.709V31.0094H161.402ZM165.029 34.5642V35.8122H160.885V34.5642H165.029ZM165.632 31.0094V32.2929H160.885V31.0094H165.632ZM174.03 31.0094V39.6214H172.331L168.52 33.6474V39.6214H166.826V31.0094H168.52L172.343 36.9892V31.0094H174.03ZM181.695 38.3439V39.6214H176.93V38.3439H181.695ZM177.447 31.0094V39.6214H175.754V31.0094H177.447ZM181.073 34.5642V35.8122H176.93V34.5642H181.073ZM181.677 31.0094V32.2929H176.93V31.0094H181.677ZM182.871 31.0094H186.128C186.809 31.0094 187.394 31.1081 187.883 31.3052C188.371 31.5023 188.747 31.794 189.01 32.1806C189.272 32.567 189.404 33.0422 189.404 33.606C189.404 34.0517 189.321 34.4381 189.157 34.7654C188.993 35.0927 188.761 35.3668 188.462 35.5876C188.166 35.8084 187.817 35.9818 187.415 36.108L186.885 36.3682H184.01L183.998 35.0846H186.146C186.495 35.0846 186.785 35.0256 187.015 34.9072C187.244 34.7891 187.417 34.6253 187.532 34.4164C187.651 34.2074 187.71 33.9689 187.71 33.7006C187.71 33.4127 187.653 33.1644 187.538 32.9554C187.423 32.7424 187.248 32.5789 187.015 32.4646C186.781 32.3502 186.485 32.2929 186.128 32.2929H184.564V39.6214H182.871V31.0094ZM187.932 39.6214L185.857 35.765L187.649 35.7589L189.748 39.5386V39.6214H187.932ZM194.452 32.3167L191.897 39.6214H190.105L193.455 31.0094H194.6L194.452 32.3167ZM196.588 39.6214L194.021 32.3167L193.867 31.0094H195.019L198.386 39.6214H196.588ZM196.471 36.4214V37.7049H191.663V36.4214H196.471ZM204.001 37.3857C204.001 37.2199 203.974 37.072 203.921 36.942C203.872 36.808 203.779 36.6876 203.644 36.5812C203.513 36.4709 203.326 36.3644 203.084 36.2619C202.846 36.1554 202.538 36.0449 202.16 35.9306C201.742 35.8044 201.352 35.6623 200.991 35.5048C200.629 35.3468 200.311 35.1636 200.036 34.9547C199.765 34.7457 199.554 34.5052 199.402 34.2329C199.25 33.957 199.174 33.6376 199.174 33.2749C199.174 32.9198 199.252 32.5965 199.408 32.3048C199.568 32.0131 199.794 31.7625 200.086 31.5535C200.377 31.3408 200.72 31.177 201.114 31.0627C201.512 30.9483 201.951 30.8911 202.431 30.8911C203.096 30.8911 203.671 31.0074 204.155 31.2401C204.643 31.4728 205.021 31.7882 205.288 32.1865C205.555 32.5847 205.688 33.0324 205.688 33.529H204.001C204.001 33.261 203.942 33.0243 203.823 32.8194C203.708 32.6142 203.531 32.4527 203.293 32.3343C203.059 32.216 202.764 32.1569 202.407 32.1569C202.062 32.1569 201.774 32.2061 201.545 32.3048C201.319 32.4032 201.149 32.5375 201.034 32.7071C200.923 32.8764 200.867 33.0657 200.867 33.2749C200.867 33.4326 200.906 33.5745 200.984 33.7006C201.062 33.8228 201.179 33.9391 201.335 34.0497C201.491 34.1562 201.684 34.2566 201.914 34.3512C202.148 34.4421 202.419 34.5327 202.727 34.6233C203.219 34.7654 203.65 34.9231 204.02 35.0965C204.393 35.2701 204.703 35.4672 204.949 35.688C205.2 35.9088 205.386 36.1572 205.51 36.4333C205.637 36.7094 205.701 37.0228 205.701 37.3738C205.701 37.7443 205.625 38.0757 205.473 38.3674C205.321 38.6594 205.103 38.9077 204.82 39.1126C204.537 39.3178 204.196 39.4735 203.798 39.58C203.404 39.6865 202.963 39.7398 202.474 39.7398C202.039 39.7398 201.608 39.6845 201.181 39.574C200.759 39.4596 200.375 39.2903 200.03 39.0654C199.685 38.8368 199.41 38.5488 199.205 38.2018C199 37.8508 198.897 37.4407 198.897 36.9716H200.596C200.596 37.2436 200.642 37.4763 200.732 37.6696C200.826 37.8589 200.958 38.0146 201.126 38.1367C201.298 38.2551 201.499 38.3419 201.729 38.3969C201.959 38.4522 202.208 38.48 202.474 38.48C202.819 38.48 203.102 38.4345 203.324 38.3439C203.55 38.249 203.718 38.1191 203.829 37.9535C203.944 37.7877 204.001 37.5984 204.001 37.3857ZM208.81 31.0094V39.6214H207.116V31.0094H208.81Z" fill="#065286"/>
<path d="M158.109 35.1677V38.5213C157.977 38.6829 157.77 38.8585 157.487 39.0478C157.208 39.2371 156.842 39.4006 156.391 39.5386C155.939 39.6726 155.385 39.7398 154.729 39.7398C154.158 39.7398 153.637 39.6489 153.164 39.4677C152.693 39.2822 152.286 39.0122 151.946 38.6574C151.605 38.3023 151.342 37.8687 151.158 37.3559C150.973 36.8434 150.88 36.2579 150.88 35.5992V35.0314C150.88 34.3729 150.967 33.7875 151.139 33.2749C151.315 32.7621 151.566 32.3285 151.89 31.9735C152.219 31.6186 152.61 31.3486 153.066 31.1631C153.526 30.9779 154.039 30.8853 154.605 30.8853C155.365 30.8853 155.988 31.0054 156.477 31.2459C156.97 31.4866 157.347 31.8177 157.61 32.2397C157.872 32.6576 158.037 33.1386 158.102 33.683H156.452C156.407 33.3832 156.317 33.121 156.181 32.8964C156.046 32.6675 155.853 32.49 155.603 32.3639C155.356 32.2339 155.036 32.1688 154.642 32.1688C154.31 32.1688 154.016 32.2319 153.762 32.3581C153.507 32.4842 153.294 32.6675 153.121 32.908C152.949 33.1487 152.818 33.4463 152.727 33.8013C152.641 34.1562 152.598 34.5622 152.598 35.0198V35.5992C152.598 36.0608 152.647 36.4709 152.746 36.8297C152.844 37.1846 152.986 37.4841 153.171 37.7287C153.36 37.9692 153.592 38.1526 153.866 38.2788C154.146 38.401 154.462 38.462 154.815 38.462C155.135 38.462 155.399 38.4365 155.609 38.3853C155.822 38.33 155.993 38.2649 156.12 38.19C156.247 38.115 156.346 38.0421 156.415 37.9712V36.3563H154.636V35.1677H158.109ZM165.651 38.3439V39.6214H160.885V38.3439H165.651ZM161.402 31.0094V39.6214H159.709V31.0094H161.402ZM165.029 34.5642V35.8122H160.885V34.5642H165.029ZM165.632 31.0094V32.2929H160.885V31.0094H165.632ZM174.03 31.0094V39.6214H172.331L168.52 33.6474V39.6214H166.826V31.0094H168.52L172.343 36.9892V31.0094H174.03ZM181.695 38.3439V39.6214H176.93V38.3439H181.695ZM177.447 31.0094V39.6214H175.754V31.0094H177.447ZM181.073 34.5642V35.8122H176.93V34.5642H181.073ZM181.677 31.0094V32.2929H176.93V31.0094H181.677ZM182.871 31.0094H186.128C186.809 31.0094 187.394 31.1081 187.883 31.3052C188.371 31.5023 188.747 31.794 189.01 32.1806C189.272 32.567 189.404 33.0422 189.404 33.606C189.404 34.0517 189.321 34.4381 189.157 34.7654C188.993 35.0927 188.761 35.3668 188.462 35.5876C188.166 35.8084 187.817 35.9818 187.415 36.108L186.885 36.3682H184.01L183.998 35.0846H186.146C186.495 35.0846 186.785 35.0256 187.015 34.9072C187.244 34.7891 187.417 34.6253 187.532 34.4164C187.651 34.2074 187.71 33.9689 187.71 33.7006C187.71 33.4127 187.653 33.1644 187.538 32.9554C187.423 32.7424 187.248 32.5789 187.015 32.4646C186.781 32.3502 186.485 32.2929 186.128 32.2929H184.564V39.6214H182.871V31.0094ZM187.932 39.6214L185.857 35.765L187.649 35.7589L189.748 39.5386V39.6214H187.932ZM194.452 32.3167L191.897 39.6214H190.105L193.455 31.0094H194.6L194.452 32.3167ZM196.588 39.6214L194.021 32.3167L193.867 31.0094H195.019L198.386 39.6214H196.588ZM196.471 36.4214V37.7049H191.663V36.4214H196.471ZM204.001 37.3857C204.001 37.2199 203.974 37.072 203.921 36.942C203.872 36.808 203.779 36.6876 203.644 36.5812C203.513 36.4709 203.326 36.3644 203.084 36.2619C202.846 36.1554 202.538 36.0449 202.16 35.9306C201.742 35.8044 201.352 35.6623 200.991 35.5048C200.629 35.3468 200.311 35.1636 200.036 34.9547C199.765 34.7457 199.554 34.5052 199.402 34.2329C199.25 33.957 199.174 33.6376 199.174 33.2749C199.174 32.9198 199.252 32.5965 199.408 32.3048C199.568 32.0131 199.794 31.7625 200.086 31.5535C200.377 31.3408 200.72 31.177 201.114 31.0627C201.512 30.9483 201.951 30.8911 202.431 30.8911C203.096 30.8911 203.671 31.0074 204.155 31.2401C204.643 31.4728 205.021 31.7882 205.288 32.1865C205.555 32.5847 205.688 33.0324 205.688 33.529H204.001C204.001 33.261 203.942 33.0243 203.823 32.8194C203.708 32.6142 203.531 32.4527 203.293 32.3343C203.059 32.216 202.764 32.1569 202.407 32.1569C202.062 32.1569 201.774 32.2061 201.545 32.3048C201.319 32.4032 201.149 32.5375 201.034 32.7071C200.923 32.8764 200.867 33.0657 200.867 33.2749C200.867 33.4326 200.906 33.5745 200.984 33.7006C201.062 33.8228 201.179 33.9391 201.335 34.0497C201.491 34.1562 201.684 34.2566 201.914 34.3512C202.148 34.4421 202.419 34.5327 202.727 34.6233C203.219 34.7654 203.65 34.9231 204.02 35.0965C204.393 35.2701 204.703 35.4672 204.949 35.688C205.2 35.9088 205.386 36.1572 205.51 36.4333C205.637 36.7094 205.701 37.0228 205.701 37.3738C205.701 37.7443 205.625 38.0757 205.473 38.3674C205.321 38.6594 205.103 38.9077 204.82 39.1126C204.537 39.3178 204.196 39.4735 203.798 39.58C203.404 39.6865 202.963 39.7398 202.474 39.7398C202.039 39.7398 201.608 39.6845 201.181 39.574C200.759 39.4596 200.375 39.2903 200.03 39.0654C199.685 38.8368 199.41 38.5488 199.205 38.2018C199 37.8508 198.897 37.4407 198.897 36.9716H200.596C200.596 37.2436 200.642 37.4763 200.732 37.6696C200.826 37.8589 200.958 38.0146 201.126 38.1367C201.298 38.2551 201.499 38.3419 201.729 38.3969C201.959 38.4522 202.208 38.48 202.474 38.48C202.819 38.48 203.102 38.4345 203.324 38.3439C203.55 38.249 203.718 38.1191 203.829 37.9535C203.944 37.7877 204.001 37.5984 204.001 37.3857ZM208.81 31.0094V39.6214H207.116V31.0094H208.81Z" stroke="white" stroke-width="2" mask="url(#path-3-outside-1_2741_393)"/>
<mask id="path-4-outside-2_2741_393" maskUnits="userSpaceOnUse" x="150.114" y="44.0237" width="67" height="25" fill="black">
<rect fill="white" x="150.114" y="44.0237" width="67" height="25"/>
<path d="M151.853 45.142H153.318L155.769 51.6246L158.213 45.142H159.685L156.354 53.754H155.178L151.853 45.142ZM151.114 45.142H152.549L152.807 51.0984V53.754H151.114V45.142ZM158.983 45.142H160.423V53.754H158.73V51.0984L158.983 45.142ZM165.823 46.4493L163.268 53.754H161.476L164.825 45.142H165.97L165.823 46.4493ZM167.959 53.754L165.392 46.4493L165.238 45.142H166.389L169.757 53.754H167.959ZM167.842 50.554V51.8376H163.034V50.554H167.842ZM175.372 51.5183C175.372 51.3525 175.345 51.2046 175.292 51.0747C175.243 50.9406 175.15 50.8203 175.015 50.7138C174.883 50.6035 174.697 50.497 174.455 50.3945C174.217 50.288 173.909 50.1775 173.531 50.0632C173.112 49.937 172.723 49.7949 172.361 49.6374C172 49.4795 171.682 49.2962 171.407 49.0873C171.136 48.8783 170.925 48.6378 170.773 48.3655C170.621 48.0897 170.545 47.7702 170.545 47.4075C170.545 47.0525 170.623 46.7292 170.779 46.4374C170.939 46.1457 171.165 45.8951 171.456 45.6861C171.748 45.4734 172.09 45.3096 172.484 45.1953C172.883 45.081 173.322 45.0237 173.802 45.0237C174.467 45.0237 175.042 45.14 175.526 45.3727C176.014 45.6054 176.392 45.9208 176.659 46.3191C176.926 46.7173 177.059 47.165 177.059 47.6617H175.372C175.372 47.3936 175.312 47.1569 175.193 46.952C175.078 46.7468 174.902 46.5853 174.664 46.467C174.43 46.3486 174.135 46.2895 173.777 46.2895C173.433 46.2895 173.145 46.3388 172.915 46.4374C172.69 46.5359 172.519 46.6701 172.404 46.8397C172.294 47.009 172.238 47.1983 172.238 47.4075C172.238 47.5653 172.277 47.7071 172.355 47.8333C172.433 47.9554 172.55 48.0718 172.706 48.1823C172.862 48.2888 173.055 48.3892 173.285 48.4839C173.519 48.5747 173.79 48.6653 174.098 48.7559C174.59 48.898 175.021 49.0557 175.39 49.2291C175.764 49.4027 176.074 49.5998 176.32 49.8207C176.57 50.0415 176.757 50.2898 176.88 50.5659C177.008 50.842 177.071 51.1554 177.071 51.5065C177.071 51.8769 176.995 52.2083 176.843 52.5C176.692 52.792 176.474 53.0403 176.191 53.2453C175.908 53.4504 175.567 53.6061 175.169 53.7126C174.775 53.8191 174.333 53.8724 173.845 53.8724C173.41 53.8724 172.979 53.8171 172.552 53.7066C172.129 53.5923 171.746 53.4229 171.401 53.1981C171.056 52.9694 170.781 52.6815 170.576 52.3345C170.37 51.9834 170.268 51.5733 170.268 51.1042H171.967C171.967 51.3762 172.012 51.6089 172.103 51.8022C172.197 51.9915 172.329 52.1472 172.497 52.2694C172.669 52.3877 172.87 52.4745 173.1 52.5295C173.33 52.5848 173.578 52.6126 173.845 52.6126C174.19 52.6126 174.473 52.5671 174.695 52.4765C174.921 52.3817 175.089 52.2517 175.199 52.0861C175.315 51.9203 175.372 51.7311 175.372 51.5183ZM182.034 51.1398V45.142H183.727V51.1398C183.727 51.7114 183.597 52.2025 183.339 52.6126C183.08 53.0186 182.727 53.33 182.28 53.5471C181.832 53.7639 181.328 53.8724 180.765 53.8724C180.187 53.8724 179.674 53.7798 179.226 53.5943C178.779 53.405 178.428 53.1173 178.173 52.7307C177.923 52.3443 177.798 51.8535 177.798 51.2579H179.497C179.497 51.5814 179.548 51.8416 179.651 52.0387C179.753 52.2358 179.899 52.3779 180.088 52.4647C180.281 52.5513 180.507 52.5947 180.765 52.5947C181.016 52.5947 181.235 52.5396 181.424 52.4291C181.617 52.3148 181.767 52.1492 181.874 51.9322C181.98 51.7154 182.034 51.4512 182.034 51.1398ZM187.211 45.142V53.754H185.518V45.142H187.211ZM191.718 53.754H189.785L189.797 52.4765H191.718C192.239 52.4765 192.677 52.366 193.03 52.1452C193.383 51.9203 193.649 51.5991 193.83 51.1812C194.011 50.7592 194.101 50.2545 194.101 49.667V49.2233C194.101 48.7698 194.05 48.3695 193.947 48.0225C193.844 47.6755 193.693 47.3838 193.491 47.1471C193.294 46.9106 193.05 46.7312 192.759 46.609C192.467 46.4866 192.133 46.4256 191.755 46.4256H189.748V45.142H191.755C192.354 45.142 192.9 45.2387 193.393 45.4318C193.89 45.6251 194.319 45.9032 194.68 46.2658C195.045 46.6247 195.324 47.0545 195.517 47.5554C195.714 48.0561 195.812 48.6161 195.812 49.2352V49.667C195.812 50.282 195.714 50.842 195.517 51.3467C195.324 51.8474 195.045 52.2772 194.68 52.636C194.319 52.9949 193.887 53.271 193.387 53.4643C192.886 53.6574 192.33 53.754 191.718 53.754ZM190.733 45.142V53.754H189.04V45.142H190.733ZM152.918 59.2745V67.8865H151.225V59.2745H152.918ZM161.95 59.2745V67.8865H160.251L156.44 61.9125V67.8865H154.747V59.2745H156.44L160.263 65.2543V59.2745H161.95ZM166.352 67.8865H164.419L164.431 66.609H166.352C166.874 66.609 167.311 66.4985 167.664 66.2777C168.017 66.0528 168.283 65.7316 168.464 65.3136C168.645 64.8917 168.735 64.387 168.735 63.7994V63.3558C168.735 62.9023 168.684 62.502 168.581 62.155C168.478 61.808 168.326 61.5163 168.126 61.2796C167.928 61.0431 167.684 60.8637 167.393 60.7415C167.101 60.6191 166.767 60.5581 166.389 60.5581H164.382V59.2745H166.389C166.989 59.2745 167.534 59.3712 168.027 59.5642C168.523 59.7576 168.952 60.0357 169.314 60.3983C169.679 60.7572 169.958 61.187 170.151 61.6879C170.348 62.1886 170.447 62.7486 170.447 63.3676V63.7994C170.447 64.4145 170.348 64.9745 170.151 65.4792C169.958 65.9799 169.679 66.4097 169.314 66.7685C168.952 67.1274 168.521 67.4035 168.021 67.5968C167.52 67.7899 166.964 67.8865 166.352 67.8865ZM165.367 59.2745V67.8865H163.674V59.2745H165.367ZM179.146 63.3616V63.8053C179.146 64.4559 179.056 65.0416 178.875 65.562C178.695 66.0786 178.438 66.5182 178.106 66.8811C177.773 67.2437 177.377 67.5218 176.917 67.7149C176.458 67.9082 175.947 68.0049 175.384 68.0049C174.83 68.0049 174.321 67.9082 173.857 67.7149C173.398 67.5218 172.999 67.2437 172.663 66.8811C172.326 66.5182 172.066 66.0786 171.881 65.562C171.696 65.0416 171.604 64.4559 171.604 63.8053V63.3616C171.604 62.7072 171.696 62.1215 171.881 61.6049C172.066 61.0883 172.324 60.6487 172.657 60.286C172.989 59.9193 173.385 59.6392 173.845 59.4461C174.309 59.2528 174.818 59.1562 175.372 59.1562C175.934 59.1562 176.445 59.2528 176.905 59.4461C177.365 59.6392 177.761 59.9193 178.093 60.286C178.43 60.6487 178.689 61.0883 178.869 61.6049C179.054 62.1215 179.146 62.7072 179.146 63.3616ZM177.434 63.8053V63.3497C177.434 62.8806 177.389 62.4685 177.299 62.1136C177.209 61.7548 177.075 61.4532 176.899 61.2087C176.722 60.9641 176.505 60.7809 176.246 60.6585C175.988 60.5323 175.696 60.4692 175.372 60.4692C175.044 60.4692 174.752 60.5323 174.498 60.6585C174.247 60.7809 174.034 60.9641 173.857 61.2087C173.681 61.4532 173.545 61.7548 173.451 62.1136C173.361 62.4685 173.315 62.8806 173.315 63.3497V63.8053C173.315 64.2706 173.361 64.6827 173.451 65.0416C173.545 65.4002 173.681 65.7041 173.857 65.9524C174.038 66.1969 174.256 66.3822 174.51 66.5083C174.764 66.6345 175.056 66.6976 175.384 66.6976C175.713 66.6976 176.004 66.6345 176.259 66.5083C176.513 66.3822 176.727 66.1969 176.899 65.9524C177.075 65.7041 177.209 65.4002 177.299 65.0416C177.389 64.6827 177.434 64.2706 177.434 63.8053ZM187.784 59.2745V67.8865H186.085L182.274 61.9125V67.8865H180.581V59.2745H182.274L186.097 65.2543V59.2745H187.784ZM195.449 66.609V67.8865H190.684V66.609H195.449ZM191.201 59.2745V67.8865H189.508V59.2745H191.201ZM194.827 62.8294V64.0773H190.684V62.8294H194.827ZM195.431 59.2745V60.5581H190.684V59.2745H195.431ZM201.317 65.6508C201.317 65.485 201.29 65.3371 201.237 65.2071C201.187 65.0731 201.095 64.9528 200.96 64.8463C200.828 64.736 200.642 64.6295 200.399 64.527C200.161 64.4205 199.853 64.31 199.476 64.1957C199.057 64.0695 198.667 63.9274 198.306 63.7699C197.945 63.6119 197.627 63.4287 197.352 63.2198C197.081 63.0108 196.87 62.7703 196.717 62.498C196.566 62.2222 196.49 61.9027 196.49 61.54C196.49 61.1849 196.568 60.8617 196.724 60.5699C196.884 60.2782 197.11 60.0276 197.401 59.8186C197.692 59.6059 198.035 59.4421 198.429 59.3278C198.827 59.2135 199.266 59.1562 199.747 59.1562C200.412 59.1562 200.986 59.2725 201.471 59.5052C201.959 59.7379 202.337 60.0533 202.604 60.4516C202.87 60.8498 203.004 61.2975 203.004 61.7941H201.317C201.317 61.5261 201.257 61.2894 201.138 61.0845C201.023 60.8793 200.847 60.7178 200.609 60.5994C200.375 60.4811 200.079 60.422 199.722 60.422C199.377 60.422 199.09 60.4712 198.86 60.5699C198.634 60.6683 198.464 60.8026 198.349 60.9722C198.238 61.1415 198.183 61.3308 198.183 61.54C198.183 61.6977 198.222 61.8396 198.3 61.9658C198.378 62.0879 198.495 62.2042 198.651 62.3148C198.807 62.4213 199 62.5217 199.23 62.6164C199.463 62.7072 199.734 62.7978 200.042 62.8884C200.535 63.0305 200.966 63.1882 201.335 63.3616C201.709 63.5352 202.019 63.7323 202.265 63.9531C202.515 64.174 202.702 64.4223 202.825 64.6984C202.952 64.9745 203.016 65.2879 203.016 65.6389C203.016 66.0094 202.94 66.3408 202.788 66.6325C202.636 66.9245 202.419 67.1728 202.135 67.3777C201.852 67.5829 201.512 67.7386 201.114 67.8451C200.72 67.9516 200.278 68.0049 199.79 68.0049C199.355 68.0049 198.924 67.9496 198.497 67.8391C198.074 67.7247 197.69 67.5554 197.346 67.3305C197.001 67.1019 196.726 66.814 196.52 66.467C196.315 66.1159 196.213 65.7058 196.213 65.2367H197.912C197.912 65.5087 197.957 65.7414 198.047 65.9347C198.142 66.124 198.273 66.2797 198.441 66.4018C198.614 66.5202 198.815 66.607 199.045 66.662C199.275 66.7173 199.523 66.7451 199.79 66.7451C200.135 66.7451 200.418 66.6996 200.639 66.609C200.865 66.5141 201.033 66.3842 201.144 66.2186C201.259 66.0528 201.317 65.8635 201.317 65.6508ZM206.125 59.2745V67.8865H204.432V59.2745H206.125ZM211.629 60.5818L209.074 67.8865H207.283L210.632 59.2745H211.777L211.629 60.5818ZM213.766 67.8865L211.198 60.5818L211.044 59.2745H212.196L215.564 67.8865H213.766ZM213.649 64.6865V65.97H208.84V64.6865H213.649Z"/>
</mask>
<path d="M151.853 45.142H153.318L155.769 51.6246L158.213 45.142H159.685L156.354 53.754H155.178L151.853 45.142ZM151.114 45.142H152.549L152.807 51.0984V53.754H151.114V45.142ZM158.983 45.142H160.423V53.754H158.73V51.0984L158.983 45.142ZM165.823 46.4493L163.268 53.754H161.476L164.825 45.142H165.97L165.823 46.4493ZM167.959 53.754L165.392 46.4493L165.238 45.142H166.389L169.757 53.754H167.959ZM167.842 50.554V51.8376H163.034V50.554H167.842ZM175.372 51.5183C175.372 51.3525 175.345 51.2046 175.292 51.0747C175.243 50.9406 175.15 50.8203 175.015 50.7138C174.883 50.6035 174.697 50.497 174.455 50.3945C174.217 50.288 173.909 50.1775 173.531 50.0632C173.112 49.937 172.723 49.7949 172.361 49.6374C172 49.4795 171.682 49.2962 171.407 49.0873C171.136 48.8783 170.925 48.6378 170.773 48.3655C170.621 48.0897 170.545 47.7702 170.545 47.4075C170.545 47.0525 170.623 46.7292 170.779 46.4374C170.939 46.1457 171.165 45.8951 171.456 45.6861C171.748 45.4734 172.09 45.3096 172.484 45.1953C172.883 45.081 173.322 45.0237 173.802 45.0237C174.467 45.0237 175.042 45.14 175.526 45.3727C176.014 45.6054 176.392 45.9208 176.659 46.3191C176.926 46.7173 177.059 47.165 177.059 47.6617H175.372C175.372 47.3936 175.312 47.1569 175.193 46.952C175.078 46.7468 174.902 46.5853 174.664 46.467C174.43 46.3486 174.135 46.2895 173.777 46.2895C173.433 46.2895 173.145 46.3388 172.915 46.4374C172.69 46.5359 172.519 46.6701 172.404 46.8397C172.294 47.009 172.238 47.1983 172.238 47.4075C172.238 47.5653 172.277 47.7071 172.355 47.8333C172.433 47.9554 172.55 48.0718 172.706 48.1823C172.862 48.2888 173.055 48.3892 173.285 48.4839C173.519 48.5747 173.79 48.6653 174.098 48.7559C174.59 48.898 175.021 49.0557 175.39 49.2291C175.764 49.4027 176.074 49.5998 176.32 49.8207C176.57 50.0415 176.757 50.2898 176.88 50.5659C177.008 50.842 177.071 51.1554 177.071 51.5065C177.071 51.8769 176.995 52.2083 176.843 52.5C176.692 52.792 176.474 53.0403 176.191 53.2453C175.908 53.4504 175.567 53.6061 175.169 53.7126C174.775 53.8191 174.333 53.8724 173.845 53.8724C173.41 53.8724 172.979 53.8171 172.552 53.7066C172.129 53.5923 171.746 53.4229 171.401 53.1981C171.056 52.9694 170.781 52.6815 170.576 52.3345C170.37 51.9834 170.268 51.5733 170.268 51.1042H171.967C171.967 51.3762 172.012 51.6089 172.103 51.8022C172.197 51.9915 172.329 52.1472 172.497 52.2694C172.669 52.3877 172.87 52.4745 173.1 52.5295C173.33 52.5848 173.578 52.6126 173.845 52.6126C174.19 52.6126 174.473 52.5671 174.695 52.4765C174.921 52.3817 175.089 52.2517 175.199 52.0861C175.315 51.9203 175.372 51.7311 175.372 51.5183ZM182.034 51.1398V45.142H183.727V51.1398C183.727 51.7114 183.597 52.2025 183.339 52.6126C183.08 53.0186 182.727 53.33 182.28 53.5471C181.832 53.7639 181.328 53.8724 180.765 53.8724C180.187 53.8724 179.674 53.7798 179.226 53.5943C178.779 53.405 178.428 53.1173 178.173 52.7307C177.923 52.3443 177.798 51.8535 177.798 51.2579H179.497C179.497 51.5814 179.548 51.8416 179.651 52.0387C179.753 52.2358 179.899 52.3779 180.088 52.4647C180.281 52.5513 180.507 52.5947 180.765 52.5947C181.016 52.5947 181.235 52.5396 181.424 52.4291C181.617 52.3148 181.767 52.1492 181.874 51.9322C181.98 51.7154 182.034 51.4512 182.034 51.1398ZM187.211 45.142V53.754H185.518V45.142H187.211ZM191.718 53.754H189.785L189.797 52.4765H191.718C192.239 52.4765 192.677 52.366 193.03 52.1452C193.383 51.9203 193.649 51.5991 193.83 51.1812C194.011 50.7592 194.101 50.2545 194.101 49.667V49.2233C194.101 48.7698 194.05 48.3695 193.947 48.0225C193.844 47.6755 193.693 47.3838 193.491 47.1471C193.294 46.9106 193.05 46.7312 192.759 46.609C192.467 46.4866 192.133 46.4256 191.755 46.4256H189.748V45.142H191.755C192.354 45.142 192.9 45.2387 193.393 45.4318C193.89 45.6251 194.319 45.9032 194.68 46.2658C195.045 46.6247 195.324 47.0545 195.517 47.5554C195.714 48.0561 195.812 48.6161 195.812 49.2352V49.667C195.812 50.282 195.714 50.842 195.517 51.3467C195.324 51.8474 195.045 52.2772 194.68 52.636C194.319 52.9949 193.887 53.271 193.387 53.4643C192.886 53.6574 192.33 53.754 191.718 53.754ZM190.733 45.142V53.754H189.04V45.142H190.733ZM152.918 59.2745V67.8865H151.225V59.2745H152.918ZM161.95 59.2745V67.8865H160.251L156.44 61.9125V67.8865H154.747V59.2745H156.44L160.263 65.2543V59.2745H161.95ZM166.352 67.8865H164.419L164.431 66.609H166.352C166.874 66.609 167.311 66.4985 167.664 66.2777C168.017 66.0528 168.283 65.7316 168.464 65.3136C168.645 64.8917 168.735 64.387 168.735 63.7994V63.3558C168.735 62.9023 168.684 62.502 168.581 62.155C168.478 61.808 168.326 61.5163 168.126 61.2796C167.928 61.0431 167.684 60.8637 167.393 60.7415C167.101 60.6191 166.767 60.5581 166.389 60.5581H164.382V59.2745H166.389C166.989 59.2745 167.534 59.3712 168.027 59.5642C168.523 59.7576 168.952 60.0357 169.314 60.3983C169.679 60.7572 169.958 61.187 170.151 61.6879C170.348 62.1886 170.447 62.7486 170.447 63.3676V63.7994C170.447 64.4145 170.348 64.9745 170.151 65.4792C169.958 65.9799 169.679 66.4097 169.314 66.7685C168.952 67.1274 168.521 67.4035 168.021 67.5968C167.52 67.7899 166.964 67.8865 166.352 67.8865ZM165.367 59.2745V67.8865H163.674V59.2745H165.367ZM179.146 63.3616V63.8053C179.146 64.4559 179.056 65.0416 178.875 65.562C178.695 66.0786 178.438 66.5182 178.106 66.8811C177.773 67.2437 177.377 67.5218 176.917 67.7149C176.458 67.9082 175.947 68.0049 175.384 68.0049C174.83 68.0049 174.321 67.9082 173.857 67.7149C173.398 67.5218 172.999 67.2437 172.663 66.8811C172.326 66.5182 172.066 66.0786 171.881 65.562C171.696 65.0416 171.604 64.4559 171.604 63.8053V63.3616C171.604 62.7072 171.696 62.1215 171.881 61.6049C172.066 61.0883 172.324 60.6487 172.657 60.286C172.989 59.9193 173.385 59.6392 173.845 59.4461C174.309 59.2528 174.818 59.1562 175.372 59.1562C175.934 59.1562 176.445 59.2528 176.905 59.4461C177.365 59.6392 177.761 59.9193 178.093 60.286C178.43 60.6487 178.689 61.0883 178.869 61.6049C179.054 62.1215 179.146 62.7072 179.146 63.3616ZM177.434 63.8053V63.3497C177.434 62.8806 177.389 62.4685 177.299 62.1136C177.209 61.7548 177.075 61.4532 176.899 61.2087C176.722 60.9641 176.505 60.7809 176.246 60.6585C175.988 60.5323 175.696 60.4692 175.372 60.4692C175.044 60.4692 174.752 60.5323 174.498 60.6585C174.247 60.7809 174.034 60.9641 173.857 61.2087C173.681 61.4532 173.545 61.7548 173.451 62.1136C173.361 62.4685 173.315 62.8806 173.315 63.3497V63.8053C173.315 64.2706 173.361 64.6827 173.451 65.0416C173.545 65.4002 173.681 65.7041 173.857 65.9524C174.038 66.1969 174.256 66.3822 174.51 66.5083C174.764 66.6345 175.056 66.6976 175.384 66.6976C175.713 66.6976 176.004 66.6345 176.259 66.5083C176.513 66.3822 176.727 66.1969 176.899 65.9524C177.075 65.7041 177.209 65.4002 177.299 65.0416C177.389 64.6827 177.434 64.2706 177.434 63.8053ZM187.784 59.2745V67.8865H186.085L182.274 61.9125V67.8865H180.581V59.2745H182.274L186.097 65.2543V59.2745H187.784ZM195.449 66.609V67.8865H190.684V66.609H195.449ZM191.201 59.2745V67.8865H189.508V59.2745H191.201ZM194.827 62.8294V64.0773H190.684V62.8294H194.827ZM195.431 59.2745V60.5581H190.684V59.2745H195.431ZM201.317 65.6508C201.317 65.485 201.29 65.3371 201.237 65.2071C201.187 65.0731 201.095 64.9528 200.96 64.8463C200.828 64.736 200.642 64.6295 200.399 64.527C200.161 64.4205 199.853 64.31 199.476 64.1957C199.057 64.0695 198.667 63.9274 198.306 63.7699C197.945 63.6119 197.627 63.4287 197.352 63.2198C197.081 63.0108 196.87 62.7703 196.717 62.498C196.566 62.2222 196.49 61.9027 196.49 61.54C196.49 61.1849 196.568 60.8617 196.724 60.5699C196.884 60.2782 197.11 60.0276 197.401 59.8186C197.692 59.6059 198.035 59.4421 198.429 59.3278C198.827 59.2135 199.266 59.1562 199.747 59.1562C200.412 59.1562 200.986 59.2725 201.471 59.5052C201.959 59.7379 202.337 60.0533 202.604 60.4516C202.87 60.8498 203.004 61.2975 203.004 61.7941H201.317C201.317 61.5261 201.257 61.2894 201.138 61.0845C201.023 60.8793 200.847 60.7178 200.609 60.5994C200.375 60.4811 200.079 60.422 199.722 60.422C199.377 60.422 199.09 60.4712 198.86 60.5699C198.634 60.6683 198.464 60.8026 198.349 60.9722C198.238 61.1415 198.183 61.3308 198.183 61.54C198.183 61.6977 198.222 61.8396 198.3 61.9658C198.378 62.0879 198.495 62.2042 198.651 62.3148C198.807 62.4213 199 62.5217 199.23 62.6164C199.463 62.7072 199.734 62.7978 200.042 62.8884C200.535 63.0305 200.966 63.1882 201.335 63.3616C201.709 63.5352 202.019 63.7323 202.265 63.9531C202.515 64.174 202.702 64.4223 202.825 64.6984C202.952 64.9745 203.016 65.2879 203.016 65.6389C203.016 66.0094 202.94 66.3408 202.788 66.6325C202.636 66.9245 202.419 67.1728 202.135 67.3777C201.852 67.5829 201.512 67.7386 201.114 67.8451C200.72 67.9516 200.278 68.0049 199.79 68.0049C199.355 68.0049 198.924 67.9496 198.497 67.8391C198.074 67.7247 197.69 67.5554 197.346 67.3305C197.001 67.1019 196.726 66.814 196.52 66.467C196.315 66.1159 196.213 65.7058 196.213 65.2367H197.912C197.912 65.5087 197.957 65.7414 198.047 65.9347C198.142 66.124 198.273 66.2797 198.441 66.4018C198.614 66.5202 198.815 66.607 199.045 66.662C199.275 66.7173 199.523 66.7451 199.79 66.7451C200.135 66.7451 200.418 66.6996 200.639 66.609C200.865 66.5141 201.033 66.3842 201.144 66.2186C201.259 66.0528 201.317 65.8635 201.317 65.6508ZM206.125 59.2745V67.8865H204.432V59.2745H206.125ZM211.629 60.5818L209.074 67.8865H207.283L210.632 59.2745H211.777L211.629 60.5818ZM213.766 67.8865L211.198 60.5818L211.044 59.2745H212.196L215.564 67.8865H213.766ZM213.649 64.6865V65.97H208.84V64.6865H213.649Z" fill="#065286"/>
<path d="M151.853 45.142H153.318L155.769 51.6246L158.213 45.142H159.685L156.354 53.754H155.178L151.853 45.142ZM151.114 45.142H152.549L152.807 51.0984V53.754H151.114V45.142ZM158.983 45.142H160.423V53.754H158.73V51.0984L158.983 45.142ZM165.823 46.4493L163.268 53.754H161.476L164.825 45.142H165.97L165.823 46.4493ZM167.959 53.754L165.392 46.4493L165.238 45.142H166.389L169.757 53.754H167.959ZM167.842 50.554V51.8376H163.034V50.554H167.842ZM175.372 51.5183C175.372 51.3525 175.345 51.2046 175.292 51.0747C175.243 50.9406 175.15 50.8203 175.015 50.7138C174.883 50.6035 174.697 50.497 174.455 50.3945C174.217 50.288 173.909 50.1775 173.531 50.0632C173.112 49.937 172.723 49.7949 172.361 49.6374C172 49.4795 171.682 49.2962 171.407 49.0873C171.136 48.8783 170.925 48.6378 170.773 48.3655C170.621 48.0897 170.545 47.7702 170.545 47.4075C170.545 47.0525 170.623 46.7292 170.779 46.4374C170.939 46.1457 171.165 45.8951 171.456 45.6861C171.748 45.4734 172.09 45.3096 172.484 45.1953C172.883 45.081 173.322 45.0237 173.802 45.0237C174.467 45.0237 175.042 45.14 175.526 45.3727C176.014 45.6054 176.392 45.9208 176.659 46.3191C176.926 46.7173 177.059 47.165 177.059 47.6617H175.372C175.372 47.3936 175.312 47.1569 175.193 46.952C175.078 46.7468 174.902 46.5853 174.664 46.467C174.43 46.3486 174.135 46.2895 173.777 46.2895C173.433 46.2895 173.145 46.3388 172.915 46.4374C172.69 46.5359 172.519 46.6701 172.404 46.8397C172.294 47.009 172.238 47.1983 172.238 47.4075C172.238 47.5653 172.277 47.7071 172.355 47.8333C172.433 47.9554 172.55 48.0718 172.706 48.1823C172.862 48.2888 173.055 48.3892 173.285 48.4839C173.519 48.5747 173.79 48.6653 174.098 48.7559C174.59 48.898 175.021 49.0557 175.39 49.2291C175.764 49.4027 176.074 49.5998 176.32 49.8207C176.57 50.0415 176.757 50.2898 176.88 50.5659C177.008 50.842 177.071 51.1554 177.071 51.5065C177.071 51.8769 176.995 52.2083 176.843 52.5C176.692 52.792 176.474 53.0403 176.191 53.2453C175.908 53.4504 175.567 53.6061 175.169 53.7126C174.775 53.8191 174.333 53.8724 173.845 53.8724C173.41 53.8724 172.979 53.8171 172.552 53.7066C172.129 53.5923 171.746 53.4229 171.401 53.1981C171.056 52.9694 170.781 52.6815 170.576 52.3345C170.37 51.9834 170.268 51.5733 170.268 51.1042H171.967C171.967 51.3762 172.012 51.6089 172.103 51.8022C172.197 51.9915 172.329 52.1472 172.497 52.2694C172.669 52.3877 172.87 52.4745 173.1 52.5295C173.33 52.5848 173.578 52.6126 173.845 52.6126C174.19 52.6126 174.473 52.5671 174.695 52.4765C174.921 52.3817 175.089 52.2517 175.199 52.0861C175.315 51.9203 175.372 51.7311 175.372 51.5183ZM182.034 51.1398V45.142H183.727V51.1398C183.727 51.7114 183.597 52.2025 183.339 52.6126C183.08 53.0186 182.727 53.33 182.28 53.5471C181.832 53.7639 181.328 53.8724 180.765 53.8724C180.187 53.8724 179.674 53.7798 179.226 53.5943C178.779 53.405 178.428 53.1173 178.173 52.7307C177.923 52.3443 177.798 51.8535 177.798 51.2579H179.497C179.497 51.5814 179.548 51.8416 179.651 52.0387C179.753 52.2358 179.899 52.3779 180.088 52.4647C180.281 52.5513 180.507 52.5947 180.765 52.5947C181.016 52.5947 181.235 52.5396 181.424 52.4291C181.617 52.3148 181.767 52.1492 181.874 51.9322C181.98 51.7154 182.034 51.4512 182.034 51.1398ZM187.211 45.142V53.754H185.518V45.142H187.211ZM191.718 53.754H189.785L189.797 52.4765H191.718C192.239 52.4765 192.677 52.366 193.03 52.1452C193.383 51.9203 193.649 51.5991 193.83 51.1812C194.011 50.7592 194.101 50.2545 194.101 49.667V49.2233C194.101 48.7698 194.05 48.3695 193.947 48.0225C193.844 47.6755 193.693 47.3838 193.491 47.1471C193.294 46.9106 193.05 46.7312 192.759 46.609C192.467 46.4866 192.133 46.4256 191.755 46.4256H189.748V45.142H191.755C192.354 45.142 192.9 45.2387 193.393 45.4318C193.89 45.6251 194.319 45.9032 194.68 46.2658C195.045 46.6247 195.324 47.0545 195.517 47.5554C195.714 48.0561 195.812 48.6161 195.812 49.2352V49.667C195.812 50.282 195.714 50.842 195.517 51.3467C195.324 51.8474 195.045 52.2772 194.68 52.636C194.319 52.9949 193.887 53.271 193.387 53.4643C192.886 53.6574 192.33 53.754 191.718 53.754ZM190.733 45.142V53.754H189.04V45.142H190.733ZM152.918 59.2745V67.8865H151.225V59.2745H152.918ZM161.95 59.2745V67.8865H160.251L156.44 61.9125V67.8865H154.747V59.2745H156.44L160.263 65.2543V59.2745H161.95ZM166.352 67.8865H164.419L164.431 66.609H166.352C166.874 66.609 167.311 66.4985 167.664 66.2777C168.017 66.0528 168.283 65.7316 168.464 65.3136C168.645 64.8917 168.735 64.387 168.735 63.7994V63.3558C168.735 62.9023 168.684 62.502 168.581 62.155C168.478 61.808 168.326 61.5163 168.126 61.2796C167.928 61.0431 167.684 60.8637 167.393 60.7415C167.101 60.6191 166.767 60.5581 166.389 60.5581H164.382V59.2745H166.389C166.989 59.2745 167.534 59.3712 168.027 59.5642C168.523 59.7576 168.952 60.0357 169.314 60.3983C169.679 60.7572 169.958 61.187 170.151 61.6879C170.348 62.1886 170.447 62.7486 170.447 63.3676V63.7994C170.447 64.4145 170.348 64.9745 170.151 65.4792C169.958 65.9799 169.679 66.4097 169.314 66.7685C168.952 67.1274 168.521 67.4035 168.021 67.5968C167.52 67.7899 166.964 67.8865 166.352 67.8865ZM165.367 59.2745V67.8865H163.674V59.2745H165.367ZM179.146 63.3616V63.8053C179.146 64.4559 179.056 65.0416 178.875 65.562C178.695 66.0786 178.438 66.5182 178.106 66.8811C177.773 67.2437 177.377 67.5218 176.917 67.7149C176.458 67.9082 175.947 68.0049 175.384 68.0049C174.83 68.0049 174.321 67.9082 173.857 67.7149C173.398 67.5218 172.999 67.2437 172.663 66.8811C172.326 66.5182 172.066 66.0786 171.881 65.562C171.696 65.0416 171.604 64.4559 171.604 63.8053V63.3616C171.604 62.7072 171.696 62.1215 171.881 61.6049C172.066 61.0883 172.324 60.6487 172.657 60.286C172.989 59.9193 173.385 59.6392 173.845 59.4461C174.309 59.2528 174.818 59.1562 175.372 59.1562C175.934 59.1562 176.445 59.2528 176.905 59.4461C177.365 59.6392 177.761 59.9193 178.093 60.286C178.43 60.6487 178.689 61.0883 178.869 61.6049C179.054 62.1215 179.146 62.7072 179.146 63.3616ZM177.434 63.8053V63.3497C177.434 62.8806 177.389 62.4685 177.299 62.1136C177.209 61.7548 177.075 61.4532 176.899 61.2087C176.722 60.9641 176.505 60.7809 176.246 60.6585C175.988 60.5323 175.696 60.4692 175.372 60.4692C175.044 60.4692 174.752 60.5323 174.498 60.6585C174.247 60.7809 174.034 60.9641 173.857 61.2087C173.681 61.4532 173.545 61.7548 173.451 62.1136C173.361 62.4685 173.315 62.8806 173.315 63.3497V63.8053C173.315 64.2706 173.361 64.6827 173.451 65.0416C173.545 65.4002 173.681 65.7041 173.857 65.9524C174.038 66.1969 174.256 66.3822 174.51 66.5083C174.764 66.6345 175.056 66.6976 175.384 66.6976C175.713 66.6976 176.004 66.6345 176.259 66.5083C176.513 66.3822 176.727 66.1969 176.899 65.9524C177.075 65.7041 177.209 65.4002 177.299 65.0416C177.389 64.6827 177.434 64.2706 177.434 63.8053ZM187.784 59.2745V67.8865H186.085L182.274 61.9125V67.8865H180.581V59.2745H182.274L186.097 65.2543V59.2745H187.784ZM195.449 66.609V67.8865H190.684V66.609H195.449ZM191.201 59.2745V67.8865H189.508V59.2745H191.201ZM194.827 62.8294V64.0773H190.684V62.8294H194.827ZM195.431 59.2745V60.5581H190.684V59.2745H195.431ZM201.317 65.6508C201.317 65.485 201.29 65.3371 201.237 65.2071C201.187 65.0731 201.095 64.9528 200.96 64.8463C200.828 64.736 200.642 64.6295 200.399 64.527C200.161 64.4205 199.853 64.31 199.476 64.1957C199.057 64.0695 198.667 63.9274 198.306 63.7699C197.945 63.6119 197.627 63.4287 197.352 63.2198C197.081 63.0108 196.87 62.7703 196.717 62.498C196.566 62.2222 196.49 61.9027 196.49 61.54C196.49 61.1849 196.568 60.8617 196.724 60.5699C196.884 60.2782 197.11 60.0276 197.401 59.8186C197.692 59.6059 198.035 59.4421 198.429 59.3278C198.827 59.2135 199.266 59.1562 199.747 59.1562C200.412 59.1562 200.986 59.2725 201.471 59.5052C201.959 59.7379 202.337 60.0533 202.604 60.4516C202.87 60.8498 203.004 61.2975 203.004 61.7941H201.317C201.317 61.5261 201.257 61.2894 201.138 61.0845C201.023 60.8793 200.847 60.7178 200.609 60.5994C200.375 60.4811 200.079 60.422 199.722 60.422C199.377 60.422 199.09 60.4712 198.86 60.5699C198.634 60.6683 198.464 60.8026 198.349 60.9722C198.238 61.1415 198.183 61.3308 198.183 61.54C198.183 61.6977 198.222 61.8396 198.3 61.9658C198.378 62.0879 198.495 62.2042 198.651 62.3148C198.807 62.4213 199 62.5217 199.23 62.6164C199.463 62.7072 199.734 62.7978 200.042 62.8884C200.535 63.0305 200.966 63.1882 201.335 63.3616C201.709 63.5352 202.019 63.7323 202.265 63.9531C202.515 64.174 202.702 64.4223 202.825 64.6984C202.952 64.9745 203.016 65.2879 203.016 65.6389C203.016 66.0094 202.94 66.3408 202.788 66.6325C202.636 66.9245 202.419 67.1728 202.135 67.3777C201.852 67.5829 201.512 67.7386 201.114 67.8451C200.72 67.9516 200.278 68.0049 199.79 68.0049C199.355 68.0049 198.924 67.9496 198.497 67.8391C198.074 67.7247 197.69 67.5554 197.346 67.3305C197.001 67.1019 196.726 66.814 196.52 66.467C196.315 66.1159 196.213 65.7058 196.213 65.2367H197.912C197.912 65.5087 197.957 65.7414 198.047 65.9347C198.142 66.124 198.273 66.2797 198.441 66.4018C198.614 66.5202 198.815 66.607 199.045 66.662C199.275 66.7173 199.523 66.7451 199.79 66.7451C200.135 66.7451 200.418 66.6996 200.639 66.609C200.865 66.5141 201.033 66.3842 201.144 66.2186C201.259 66.0528 201.317 65.8635 201.317 65.6508ZM206.125 59.2745V67.8865H204.432V59.2745H206.125ZM211.629 60.5818L209.074 67.8865H207.283L210.632 59.2745H211.777L211.629 60.5818ZM213.766 67.8865L211.198 60.5818L211.044 59.2745H212.196L215.564 67.8865H213.766ZM213.649 64.6865V65.97H208.84V64.6865H213.649Z" stroke="white" stroke-width="2" mask="url(#path-4-outside-2_2741_393)"/>
</g>
<defs>
<clipPath id="clip0_2741_393">
<rect width="215.668" height="80" fill="white"/>
</clipPath>
</defs>
</svg>
