<svg width="60" height="60" viewBox="0 0 60 60" fill="none" xmlns="http://www.w3.org/2000/svg">
<path d="M41.6663 16.6667H18.333C17.0069 16.6667 15.7352 17.1935 14.7975 18.1312C13.8598 19.0689 13.333 20.3407 13.333 21.6667V38.3334C13.333 39.6595 13.8598 40.9313 14.7975 41.8689C15.7352 42.8066 17.0069 43.3334 18.333 43.3334H41.6663C42.9924 43.3334 44.2642 42.8066 45.2019 41.8689C46.1396 40.9313 46.6663 39.6595 46.6663 38.3334V21.6667C46.6663 20.3407 46.1396 19.0689 45.2019 18.1312C44.2642 17.1935 42.9924 16.6667 41.6663 16.6667ZM40.5497 20.0001L29.9997 27.9167L19.4497 20.0001H40.5497ZM41.6663 40.0001H18.333C17.891 40.0001 17.4671 39.8245 17.1545 39.5119C16.8419 39.1994 16.6663 38.7754 16.6663 38.3334V22.0834L28.9997 31.3334C29.2882 31.5498 29.6391 31.6667 29.9997 31.6667C30.3603 31.6667 30.7112 31.5498 30.9997 31.3334L43.333 22.0834V38.3334C43.333 38.7754 43.1574 39.1994 42.8449 39.5119C42.5323 39.8245 42.1084 40.0001 41.6663 40.0001Z" fill="#065286"/>
<rect x="1" y="1" width="58" height="58" rx="29" stroke="#065286" stroke-width="2"/>
</svg>
