<svg width="60" height="60" viewBox="0 0 60 60" fill="none" xmlns="http://www.w3.org/2000/svg">
<path fill-rule="evenodd" clip-rule="evenodd" d="M23.1285 13.4333C24.9057 13.3514 25.4724 13.3333 29.9997 13.3333C34.5269 13.3333 35.0936 13.3529 36.8694 13.4333C38.6451 13.5136 39.8573 13.7969 40.9179 14.2075C42.0285 14.6272 43.036 15.2833 43.8694 16.1317C44.7179 16.9636 45.3724 17.9696 45.7906 19.0817C46.2027 20.1423 46.4845 21.3545 46.5663 23.1272C46.6482 24.9075 46.6663 25.4742 46.6663 29.9999C46.6663 34.5272 46.6466 35.0939 46.5663 36.8711C46.486 38.6439 46.2027 39.856 45.7906 40.9166C45.3724 42.0289 44.7168 43.0366 43.8694 43.8696C43.036 44.7181 42.0285 45.3727 40.9179 45.7908C39.8573 46.203 38.6451 46.4848 36.8724 46.5666C35.0936 46.6484 34.5269 46.6666 29.9997 46.6666C25.4724 46.6666 24.9057 46.6469 23.1285 46.5666C21.3557 46.4863 20.1436 46.203 19.083 45.7908C17.9708 45.3726 16.963 44.717 16.13 43.8696C15.2821 43.0373 14.6259 42.0301 14.2073 40.9181C13.7966 39.8575 13.5148 38.6454 13.433 36.8726C13.3512 35.0923 13.333 34.5257 13.333 29.9999C13.333 25.4726 13.3527 24.906 13.433 23.1302C13.5133 21.3545 13.7966 20.1423 14.2073 19.0817C14.6265 17.9697 15.2832 16.9625 16.1315 16.1302C16.9634 15.2825 17.9701 14.6263 19.0815 14.2075C20.1421 13.7969 21.3542 13.5151 23.1269 13.4333H23.1285ZM36.7345 16.4333C34.9769 16.3529 34.4497 16.3363 29.9997 16.3363C25.5497 16.3363 25.0224 16.3529 23.2648 16.4333C21.6391 16.5075 20.7573 16.7787 20.1694 17.0075C19.3921 17.3105 18.836 17.6696 18.2527 18.2529C17.6997 18.7909 17.2742 19.4458 17.0073 20.1696C16.7785 20.7575 16.5073 21.6393 16.433 23.2651C16.3527 25.0226 16.336 25.5499 16.336 29.9999C16.336 34.4499 16.3527 34.9772 16.433 36.7348C16.5073 38.3605 16.7785 39.2423 17.0073 39.8302C17.2739 40.553 17.6997 41.209 18.2527 41.7469C18.7906 42.2999 19.4466 42.7257 20.1694 42.9923C20.7573 43.2211 21.6391 43.4923 23.2648 43.5666C25.0224 43.6469 25.5482 43.6636 29.9997 43.6636C34.4512 43.6636 34.9769 43.6469 36.7345 43.5666C38.3603 43.4923 39.2421 43.2211 39.83 42.9923C40.6073 42.6893 41.1633 42.3302 41.7466 41.7469C42.2997 41.209 42.7254 40.553 42.9921 39.8302C43.2209 39.2423 43.4921 38.3605 43.5663 36.7348C43.6466 34.9772 43.6633 34.4499 43.6633 29.9999C43.6633 25.5499 43.6466 25.0226 43.5663 23.2651C43.4921 21.6393 43.2209 20.7575 42.9921 20.1696C42.6891 19.3923 42.33 18.8363 41.7466 18.2529C41.2087 17.7 40.5538 17.2745 39.83 17.0075C39.2421 16.7787 38.3603 16.5075 36.7345 16.4333ZM27.8709 35.1378C29.0598 35.6327 30.3836 35.6995 31.6162 35.3268C32.8489 34.9541 33.9139 34.1649 34.6294 33.0942C35.3449 32.0235 35.6664 30.7376 35.5391 29.4561C35.4119 28.1747 34.8436 26.9772 33.9315 26.0681C33.35 25.487 32.647 25.0421 31.8729 24.7653C31.0988 24.4885 30.2731 24.3868 29.455 24.4675C28.6369 24.5482 27.8469 24.8093 27.1418 25.2319C26.4367 25.6546 25.8341 26.2283 25.3774 26.9118C24.9207 27.5953 24.6212 28.3716 24.5005 29.1847C24.3797 29.9978 24.4408 30.8276 24.6793 31.6143C24.9177 32.401 25.3277 33.1251 25.8796 33.7343C26.4314 34.3436 27.1115 34.8229 27.8709 35.1378ZM23.9421 23.9423C24.7376 23.1469 25.682 22.5158 26.7213 22.0853C27.7607 21.6548 28.8747 21.4332 29.9997 21.4332C31.1247 21.4332 32.2387 21.6548 33.278 22.0853C34.3174 22.5158 35.2618 23.1469 36.0573 23.9423C36.8527 24.7378 37.4838 25.6822 37.9143 26.7216C38.3448 27.7609 38.5664 28.8749 38.5664 29.9999C38.5664 31.1249 38.3448 32.2389 37.9143 33.2783C37.4838 34.3176 36.8527 35.262 36.0573 36.0575C34.4507 37.6641 32.2717 38.5666 29.9997 38.5666C27.7276 38.5666 25.5487 37.6641 23.9421 36.0575C22.3355 34.4509 21.433 32.272 21.433 29.9999C21.433 27.7279 22.3355 25.5489 23.9421 23.9423ZM40.4663 22.709C40.6635 22.5231 40.8213 22.2994 40.9304 22.0514C41.0396 21.8034 41.0979 21.5359 41.1018 21.265C41.1058 20.994 41.0553 20.725 40.9534 20.4739C40.8516 20.2228 40.7003 19.9946 40.5087 19.803C40.3171 19.6114 40.089 19.4602 39.8378 19.3583C39.5867 19.2564 39.3177 19.2059 39.0468 19.2099C38.7758 19.2138 38.5084 19.2721 38.2603 19.3813C38.0123 19.4904 37.7887 19.6482 37.6027 19.8454C37.2411 20.2288 37.0431 20.738 37.0507 21.265C37.0584 21.7919 37.2712 22.2952 37.6439 22.6679C38.0165 23.0405 38.5198 23.2533 39.0468 23.261C39.5737 23.2687 40.083 23.0707 40.4663 22.709Z" fill="#065286"/>
<rect x="1" y="1" width="58" height="58" rx="29" stroke="#065286" stroke-width="2"/>
</svg>
