<svg width="156" height="80" viewBox="0 0 156 80" fill="none" xmlns="http://www.w3.org/2000/svg">
<path d="M17.2849 67.4805C19.8044 68.4425 21.9727 69.3587 24.0647 70.5955C31.3788 74.9474 33.1501 78.8106 34.6771 79.8642C35.4558 79.6352 36.6316 78.9786 37.4867 78.6121C45.0452 75.4513 53.2755 75.3597 61.3532 75.7567C61.4295 75.7567 61.7502 75.7719 61.8265 75.7872C62.0708 75.833 61.7654 75.7414 62.0097 75.8177C62.2541 75.8941 62.1014 75.833 62.2541 75.9399C61.7502 76.0926 61.0783 76.2148 60.5133 76.3675C56.3753 77.528 59.4902 77.4974 54.9704 77.3905C52.0539 77.3294 49.1985 77.4516 46.3736 77.757C43.8236 78.0319 41.243 78.5052 38.7846 79.0549C37.563 79.3298 36.4025 79.6199 35.2421 79.9558C34.3564 80.2154 33.5624 79.2839 32.4172 78.4136C27.8668 74.9474 26.7674 73.9396 21.2398 71.6797C19.2547 70.8551 16.7352 69.9695 14.5822 69.3434C13.1316 68.9159 13.8493 68.8853 12.1696 67.2973C11.7879 66.9308 9.89444 65.5107 9.68066 65.1748C11.0244 65.3275 15.9107 66.9613 17.2849 67.4805ZM48.2518 72.7791C45.9308 72.9929 43.4113 73.4357 41.1667 73.848C39.9909 74.0617 38.9526 74.245 37.7921 74.4893C36.7385 74.7031 35.3947 75.1153 34.3564 75.1917L34.4786 75.0848C34.9519 74.7794 37.4409 74.0007 37.9906 73.8174C45.0757 71.4048 51.9318 70.2291 59.5361 69.8473C61.2005 69.771 78.4552 69.0838 79.7531 69.8015C77.7528 70.3512 76.409 70.5192 73.8743 71.2674C72.4542 71.6949 72.5 71.8782 70.7593 71.7866C69.5377 71.7255 68.2398 71.7102 67.0182 71.7102C59.1849 71.7102 56.0393 72.0309 48.2518 72.7791Z" fill="#02563C"/>
<path d="M48.2528 72.7792C45.9318 72.993 43.4123 73.4358 41.1677 73.8481C39.9919 74.0619 38.9536 74.2451 37.7931 74.4894C36.7395 74.7032 35.3958 75.1155 34.3574 75.1918L34.4796 75.0849C34.9529 74.7795 37.4419 74.0008 37.9916 73.8175C45.0767 71.4049 51.9328 70.2292 59.5371 69.8474C61.2015 69.7711 78.4562 69.084 79.7541 69.8016C77.7538 70.3513 76.41 70.5193 73.8753 71.2675C72.4552 71.6951 72.501 71.8783 70.7603 71.7867C69.5387 71.7256 68.2408 71.7103 67.0192 71.7103C59.1859 71.7103 56.0403 72.031 48.2528 72.7792Z" stroke="#02563C" stroke-width="0.4"/>
<path d="M9.43664 61.6173C8.47465 61.1745 7.45159 60.7164 6.47433 60.3346C5.06952 59.8002 5.16114 59.6322 4.18388 58.7313C2.4126 57.1127 1.40481 56.4714 0 55.2498C1.23684 55.0513 14.5978 61.9074 15.8957 62.5945C21.7593 65.6637 26.7982 69.2521 31.6234 74.0468C32.0205 74.4285 33.7307 76.0471 34.0055 76.5052L34.0666 76.6426C33.2878 76.1845 32.3564 75.3294 31.5929 74.7492C30.7531 74.1078 29.9896 73.5581 29.1192 72.9321C27.4854 71.7411 25.6377 70.4279 23.8817 69.3895C17.9724 65.8775 15.5903 64.4422 9.43664 61.6173ZM42.2359 75.024C51.1075 72.0006 61.5825 72.3976 70.8512 73.2069C70.5305 73.5123 67.7056 74.1078 66.7894 74.4132C63.8424 75.3447 65.8275 75.2531 62.4529 75.1004C59.0172 74.9477 55.8411 74.8255 52.3596 74.9782C47.6108 75.1614 43.2436 75.8639 38.7391 76.948C38.0672 77.116 35.0438 78.078 34.8453 77.9863C36.1891 76.8869 40.2661 75.6959 42.2359 75.024Z" fill="#E86110"/>
<path d="M8.68785 33.6889C8.79474 32.5742 9.08486 31.2763 9.34445 30.2532C9.48187 29.7188 9.68038 29.1691 9.8178 28.6804C10.2301 27.1687 10.8256 25.7334 11.528 24.3286C12.4442 22.5268 13.3451 20.8624 14.5667 19.2591C16.2158 17.0908 17.8649 15.1668 20.0179 13.4566C26.4464 8.37181 32.7223 5.82178 41.7008 5.82178C42.2658 5.82178 43.7775 5.82178 44.2356 6.12717C39.8685 6.47837 36.1427 7.48617 32.9971 9.05894C30.7372 10.1889 28.4773 11.5021 26.6144 13.2276C26.4159 13.4261 26.3396 13.4413 26.1258 13.6246C23.591 15.8692 21.5907 18.6483 19.9263 21.5953C18.72 23.7636 17.8496 26.1609 17.2694 28.6041C16.2463 32.7574 16.2616 38.0865 17.2999 42.2399C17.5595 43.2782 17.8344 44.118 18.1245 45.0342C18.4452 45.9962 18.7811 46.6986 19.1628 47.6148L20.0943 49.4166C20.2012 49.6151 20.2775 49.7984 20.3997 49.9969C21.5754 52.0583 23.3925 54.4251 25.0569 56.0895L26.9656 57.7844C28.1414 58.8838 29.8516 59.9985 31.2411 60.7467C31.9893 61.159 32.7223 61.5865 33.5774 61.9377C33.9744 62.1057 34.4325 62.3195 34.8753 62.4874C35.3181 62.6707 35.6693 62.7928 36.1579 62.9608C41.7314 64.8084 47.7629 65.0985 53.4432 63.5105C55.0465 63.0524 56.5735 62.5485 58.0088 61.8308C60.7115 60.4566 63.3837 58.9754 65.5062 56.8071C66.1323 56.1811 66.8957 55.5397 67.5371 54.7305C67.8425 54.3334 68.2089 54.0128 68.4685 53.6158H62.5133V49.6151H72.7746C74.7901 49.6151 76.1186 48.134 75.2482 46.2558C74.8818 45.4771 73.9809 45.1106 73.0647 45.1106H62.605V41.003H71.5988C74.6833 41.003 77.4471 41.5222 78.7603 44.1028C79.2489 45.0495 79.4168 46.439 79.4168 47.6606C79.4168 50.2412 77.9968 52.5469 75.5078 53.1271C75.7063 53.5089 75.9659 53.9212 76.1797 54.3029C77.6303 56.8224 78.9893 59.4335 80.5163 61.9072C80.6537 62.1362 80.7148 62.2126 80.7758 62.5027H75.8896C75.4315 61.8156 75.0497 61.0521 74.5916 60.2886C73.3548 58.2272 72.0111 55.555 70.7132 53.6158H69.7359C69.5679 54.3487 68.1784 56.7155 67.7356 57.3721C66.7278 58.8075 65.0328 60.7009 63.5822 61.8156L62.04 63.1135C58.8792 65.9384 55.3061 67.9082 51.1375 69.313C49.6868 69.8016 48.2515 70.1528 46.6177 70.4582C44.2661 70.901 40.7083 71.1759 38.3262 70.8552C32.936 70.1223 32.2336 70.0154 27.439 68.0609C25.7135 67.3585 23.9117 66.2132 22.3847 65.2054C21.5907 64.6863 20.9036 64.106 20.1554 63.5258L18.0787 61.6934C17.6817 61.3728 17.4832 61.0063 17.0862 60.6245C16.4143 59.9527 15.8951 59.2503 15.2843 58.5173C12.5969 55.2649 10.4439 50.913 9.42079 46.7902C8.53515 43.2171 8.36719 41.1863 8.36719 37.491C8.36719 36.2084 8.55042 34.9563 8.68785 33.6889Z" fill="#005439"/>
<path fill-rule="evenodd" clip-rule="evenodd" d="M59.781 32.6963V41.003H62.0256V54.8831C62.0256 56.2726 62.1173 57.311 62.1173 58.7005C61.7813 58.7921 61.3538 59.1128 61.0637 59.296C60.6972 59.5403 60.4071 59.6778 60.0101 59.9068C54.7573 63.0218 47.6569 64.2587 41.4422 63.3425C39.5029 63.0524 37.8385 62.6401 36.1894 62.0598C33.3951 61.0826 32.0513 60.3191 29.6693 58.899C29.0127 58.502 28.4019 58.0439 27.7758 57.5705C27.104 57.0361 26.6306 56.6849 26.0351 56.0894C25.6075 55.6466 25.3938 55.5702 25.2716 55.1732C25.1647 54.7762 25.3632 51.4322 25.2563 50.5007C25.1189 49.1722 25.18 50.1037 25.2716 49.0195V47.6605H50.4971V47.065H25.2716C25.2716 43.8126 25.0731 44.1638 25.9587 44.1333C34.0211 42.5299 42.2056 42.6063 50.4971 44.1333V41.003H52.7417V32.6963H59.781ZM45.1221 49.2181C44.832 48.9737 44.7404 48.9279 44.5266 48.9279C43.7784 48.9279 42.9691 49.5693 42.9691 50.2869C42.9691 51.2642 43.0149 50.7603 43.1676 51.4474C43.2287 51.707 43.2593 51.9055 43.2593 52.2414C43.2593 54.2112 43.076 53.5241 43.2593 55.6618H43.6563C43.6715 55.3564 43.7479 55.3259 43.7479 54.99V52.6385C43.7479 51.3863 43.4578 51.4169 43.4578 50.4854C43.4578 49.7219 44.1602 49.2181 45.1221 49.2181ZM40.9077 49.2181C40.4649 48.6073 39.5029 49.1112 39.1823 49.4471C38.3577 50.2869 39.0601 51.2031 39.0601 51.7528V55.6618H39.5487V51.8597C39.5487 51.2642 39.2586 51.0809 39.2586 50.4854C39.2586 50.0884 39.7625 49.2181 40.9077 49.2181ZM36.8155 49.2181C36.6933 49.1112 36.6933 49.0959 36.5101 49.0195C36.1436 48.8668 35.6702 48.9737 35.3801 49.157C34.0669 49.9663 34.9526 51.2642 34.9526 51.8597V55.6618H35.4412V52.2414C35.4412 51.4321 35.1511 51.4474 35.1511 50.4854C35.1511 49.5845 36.0062 49.2181 36.8155 49.2181ZM31.181 49.9357C31.5474 49.3555 31.9292 49.2181 32.601 49.2181C32.1582 48.6073 31.1962 49.1112 30.8756 49.4471C30.0968 50.2411 30.6618 50.9435 30.7687 51.6459L30.7534 55.6618H31.242V51.8597C31.242 51.2642 30.9519 51.0809 30.9519 50.4854C30.9519 50.348 31.0893 50.0732 31.181 49.9357ZM28.5088 49.2181C27.6079 48.4393 26.3557 49.5082 26.3557 50.2869C26.3557 51.2642 26.8749 51.6154 26.5543 54.3181C26.4932 54.9442 26.6459 55.1274 26.6459 55.6618H27.0429C27.2414 54.8067 27.1345 53.7379 27.1345 52.837C27.1345 51.4932 26.8444 51.3405 26.8444 50.4854C26.8444 49.7219 27.5468 49.2181 28.5088 49.2181ZM53.1234 44.0416H59.9642V43.3545H52.5432V55.6618H53.1234V44.0416ZM55.7804 46.5001C56.3759 46.0267 56.6049 45.9962 57.628 45.9962C57.2157 45.4006 55.9636 45.5686 55.4444 45.874C53.2609 47.1108 54.6962 49.0043 54.6962 49.6151V55.6771H55.3834C55.3834 55.2343 55.475 55.2801 55.475 54.7915C55.475 53.0355 55.5208 51.4474 55.3681 49.7219C55.3223 49.1875 54.9863 48.8363 54.9863 48.1492C54.9863 47.3857 55.3375 46.836 55.7804 46.5001ZM54.4977 34.5745H58.4984V34.1774C57.0019 34.1774 55.5055 34.1774 54.0091 34.1774V41.0182H54.4977V34.5745ZM55.6887 38.117C55.9636 36.4374 57.2768 36.8954 57.628 36.926C56.9561 35.9182 55.6124 36.3457 55.2765 37.2008C54.8947 38.1628 55.1848 40.3311 55.1848 41.0182H55.6735V40.6365C55.6735 39.5524 55.5208 39.2012 55.6887 38.117ZM49.2144 49.2333C48.7563 48.6073 47.7485 49.157 47.4889 49.4471C46.6491 50.3938 47.3668 51.1878 47.3668 51.5696V55.6771H47.8554V51.875C47.8554 51.2795 47.5653 51.0962 47.5653 50.5007C47.5653 49.9205 48.1761 49.2333 49.2144 49.2333ZM113.881 52.1345C114.477 50.7297 115.439 49.5387 116.874 48.8668C118.218 48.2408 119.119 48.2561 120.554 48.2561C122.112 48.2561 122.814 48.9127 123.593 49.4318V48.2561H127.685C127.685 50.3022 127.807 60.3191 127.578 62.5026C127.456 63.6937 126.876 65.0374 126.296 65.8162C124.646 68.0303 122.768 68.58 119.867 68.58C117.195 68.58 115.424 67.5722 113.942 65.8162C113.637 65.465 113.042 64.4724 112.935 63.9838C113.652 63.9838 114.37 63.9838 115.088 63.9838C116.126 63.9685 116.004 64.1823 116.691 64.5182C117.531 64.9458 119.165 65.4191 120.035 65.3275C123.043 65.0221 123.593 63.8616 123.593 60.4718C123.12 60.7772 122.722 61.0368 122.142 61.2811C119.867 62.2583 116.141 61.7086 114.416 59.0822C113.347 57.4484 113.332 56.5169 113.332 54.6999C113.332 53.7837 113.591 52.8064 113.881 52.1345ZM118.707 58.0134C120.02 58.502 121.684 58.4562 122.692 57.5095C123.669 56.5933 123.593 55.9978 123.593 54.6999C123.593 52.7759 122.081 51.5696 120.463 51.5696C116.447 51.5696 115.485 56.7918 118.707 58.0134Z" fill="#E86110"/>
<path fill-rule="evenodd" clip-rule="evenodd" d="M85.0826 48.1493C87.9228 48.1493 91.0072 47.8439 92.9312 49.2792C94.1375 50.1954 94.8552 51.646 94.8552 53.7074V62.5027C90.1216 62.5027 90.7477 62.8234 90.7477 61.4339C89.862 61.9072 89.0069 62.5027 87.6174 62.5027C79.7535 62.5027 81.0667 54.2266 85.388 53.0508C88.4419 52.2263 89.2818 53.173 90.7477 53.5242C90.7477 52.4706 90.2132 51.7377 89.4956 51.417C88.6252 51.02 83.9374 50.7757 82.6395 50.7757V48.3325C83.2655 48.1951 84.3039 48.1493 85.0826 48.1493ZM89.9384 58.9602C90.9614 58.441 90.7477 58.2272 90.7477 56.7461C90.7477 55.4329 87.6632 55.2344 86.3347 56.0284C85.6781 56.4254 85.4796 56.9141 85.4796 57.6165C85.4796 59.2809 88.5794 59.6473 89.9384 58.9602ZM130.128 52.6386C131.014 50.2412 133.548 48.2409 136.099 48.2409C138.389 48.2409 140.053 48.3478 141.794 50.0733C142.237 50.5161 142.741 51.2337 143.061 51.8293C143.855 53.2341 143.718 54.4862 143.718 56.059H133.945C133.945 58.0287 134.953 59.1892 136.969 59.1892C138.969 59.1892 139.488 58.1356 139.824 58.0287C140.191 57.9371 143.092 58.0135 143.718 58.0135C143.596 58.5326 143.031 59.4488 142.71 59.8458C141.214 61.6782 139.534 62.5027 136.77 62.5027C131.105 62.5027 128.509 57.0668 130.128 52.6386ZM134.037 53.1272H139.702C139.305 52.3637 138.328 51.5697 137.167 51.5697H136.587C135.564 51.5697 134.251 52.3637 134.037 53.1272Z" fill="#E86110"/>
<path d="M72.088 23.9015C73.1263 23.9015 72.8057 23.7793 73.279 24.3748C73.4317 24.558 73.5233 24.6802 73.676 24.8634L78.9746 31.292C79.1426 31.521 79.2036 31.5821 79.4174 31.7195C79.8297 31.4447 83.0974 27.4287 83.6318 26.7569L85.6627 24.2985C86.0292 23.8098 85.9223 23.9015 87.037 23.9015V39.0489H84.0136L83.9067 31.1393C83.4486 31.4599 83.189 31.918 82.7615 32.3303L79.9824 35.43C79.7533 35.7202 79.7533 35.7965 79.4174 36.0255C79.0204 35.7507 75.2793 31.3072 74.9129 31.0476V39.0489H71.7979V24.2068C71.7979 23.9778 71.8589 23.9015 72.088 23.9015Z" fill="#005439"/>
<path d="M102.383 48.1494V49.4168C102.826 49.1724 103.162 48.8518 103.666 48.638C104.857 48.1341 105.223 48.241 106.491 48.241C108.857 48.241 111.072 50.8979 111.072 53.0357V62.5028H107.071V54.5015C107.071 51.3407 104.2 51.0659 103.101 52.3791C102.872 52.6539 102.383 53.2952 102.383 53.7075V62.5028H98.3672V48.241C98.8558 48.0577 101.681 48.1494 102.383 48.1494Z" fill="#E86110"/>
<path fill-rule="evenodd" clip-rule="evenodd" d="M117.821 29.7647V28.986H120.661L120.753 43.8433H117.821V38.3768C115.149 40.1633 112.446 38.6364 111.27 36.0253C111.072 35.5825 110.889 34.7274 110.889 34.0708C110.889 30.7725 114.324 27.4285 117.821 29.7647ZM114.126 36.01C115.714 37.598 117.821 36.239 117.821 34.7579V33.292C117.821 31.8414 116.203 31.2459 115.347 31.3986C113.714 31.704 113.423 32.9255 113.423 34.3609C113.423 35.0175 113.79 35.6588 114.126 36.01Z" fill="#005439"/>
<path d="M150.758 48.1494V49.7069C151.415 49.2641 152.3 48.241 153.873 48.241C155.125 48.241 155.827 48.0578 155.827 48.5311C155.827 54.1351 156.392 51.6614 153.201 51.6614C151.979 51.6614 150.758 53.2952 150.758 53.906V62.5028H146.742C146.742 60.0444 146.65 57.8761 146.65 55.3719C146.65 53 146.65 50.6231 146.65 48.241C147.139 48.0577 150.04 48.1494 150.758 48.1494Z" fill="#E86110"/>
<path fill-rule="evenodd" clip-rule="evenodd" d="M142.817 30.6655C144.054 32.0092 144.1 33.0323 144.1 34.7577H137.167C137.167 36.0251 137.809 37.0024 139.03 37.0024C141.076 37.0024 140.695 36.3458 141.382 36.2236C141.855 36.1473 143.504 36.2236 144.1 36.2236C143.474 37.4147 142.832 38.5141 141.366 39.0485C139.519 39.7051 136.724 39.3997 135.442 37.8575C134.48 36.7123 134.144 35.7503 134.144 34.0706C134.144 29.2607 140.236 27.8559 142.817 30.6655ZM137.259 32.6963H141.168C141.076 32.3146 140.786 32.1619 140.45 31.9634C139.885 31.6122 139.656 31.6275 139.03 31.6275C138.419 31.6275 137.412 32.1466 137.259 32.6963ZM106.994 29.3523C107.239 29.4592 107.804 29.8715 107.972 30.0394C108.582 30.6502 108.903 31.4748 109.224 32.1161H107.071C106.826 31.2152 104.231 30.9098 103.94 32.1161C105.177 33.5362 108.934 32.0856 108.934 36.2236C108.934 39.3081 104.017 40.4991 101.711 37.659C101.36 37.2162 100.749 36.4679 100.627 35.9335C104.429 35.9335 102.184 35.9182 103.91 36.6359C105.315 37.2314 106.567 36.6512 106.49 36.0251C106.384 35.2464 104.46 35.3685 103.299 34.9104C101.787 34.2997 101.497 33.5209 101.497 32.0245C101.497 29.3218 104.948 28.3598 106.994 29.3523ZM130.723 33.2919C130.723 32.4826 130.494 30.9709 130.891 30.4364C131.197 30.0089 132.189 29.5202 132.77 29.3828C132.77 31.5053 132.678 33.414 132.678 35.4449C132.678 36.8191 132.678 37.1398 131.96 37.8575C130.097 39.7509 126.723 39.415 125.104 38.3156C124.417 37.8422 124.142 37.2314 123.99 36.3C123.669 34.5134 123.76 33.9637 123.883 32.5131L124.936 33.3071C127.486 35.3533 125.333 37.2009 128.662 37.2009C130.815 37.2009 130.723 34.9257 130.723 33.2919Z" fill="#005439"/>
<path d="M92.0451 28.5279C93.0529 27.5049 93.2973 26.4818 93.2973 24.8785C94.641 25.7947 94.3661 27.6576 94.2745 28.7875C94.5188 28.6196 94.7173 28.2073 94.7631 27.8103C94.8242 27.9172 94.9006 27.8408 94.8853 28.2531C94.87 29.0929 94.6104 29.3372 94.5646 29.8717C94.7784 29.9328 94.8548 29.8869 94.8548 30.1618C94.8548 31.6888 90.7472 33.2005 91.19 36.3613C91.2511 36.7125 91.3275 37.2927 91.3427 37.5828C90.9915 37.4912 91.129 37.4912 90.8541 37.2775L90.0754 36.4987C89.4951 35.7505 88.9912 35.0328 88.9912 33.7807C88.9912 31.8109 90.8236 29.7648 92.0451 28.5279ZM120.844 24.5884H121.042C121.073 25.8558 122.691 27.0926 123.76 27.5354C125.623 28.3142 128.479 29.7495 128.479 32.2079C128.479 33.3226 128.143 34.8648 127.501 35.3382C127.394 34.2083 126.829 33.1394 126.051 32.3759C125.18 31.5361 121.531 30.6657 121.531 29.8717C121.531 29.2914 121.913 29.8411 121.164 28.8639C120.935 28.5585 120.691 28.2531 120.66 27.8103C120.859 27.963 120.874 28.0088 121.073 28.1767C121.225 28.3142 121.378 28.3905 121.531 28.4974C121.454 28.2073 121.378 28.1767 121.225 27.9324C120.798 27.2606 120.66 26.4971 120.66 25.6725C120.66 25.1992 120.767 24.9549 120.844 24.5884Z" fill="#E86110"/>
<path d="M95.3132 30.6193C95.3742 30.2529 95.3437 29.8559 95.3437 29.4741C96.55 29.7642 97.2829 30.2071 98.0006 31.0164C100.093 33.3679 99.2985 36.6814 97.3135 37.9946C96.5347 38.5138 95.4659 38.8955 94.4733 38.8497C93.8625 38.8191 93.4045 38.7733 93.0991 38.3763C92.6257 37.7655 92.3203 36.6203 92.3203 35.5362C92.5646 35.7194 92.4883 35.7499 92.7326 36.0095C93.6488 36.941 95.5269 36.9715 96.4889 36.0095C97.3746 35.1239 97.5273 33.2152 96.4889 32.2379C96.153 31.9173 95.5727 31.5355 94.9467 31.5355C95.0536 31.1538 95.2063 31.1691 95.3132 30.6193Z" fill="#005439"/>
<path d="M32.3564 37.0484C32.5091 35.781 33.181 33.9792 33.9598 33.3379C35.334 33.7502 36.2044 34.3762 37.1817 35.3382C37.3649 35.5062 37.4718 35.5214 37.487 35.8268C37.5176 36.4529 37.5176 41.4766 37.4565 41.8125C36.5098 41.8736 35.7005 41.8889 34.8149 42.011C34.4178 42.0569 32.555 42.3775 32.3564 42.3317V37.0484Z" fill="#E86110"/>
<path d="M31.7309 30.3146C31.9599 30.0703 32.5707 29.3526 32.7692 29.2305C33.4258 29.3221 35.0291 30.0245 35.5635 30.3146C36.5866 30.8796 37.0752 31.2461 37.8234 31.9637L38.9076 31.1239C39.2588 30.8643 39.6558 30.62 40.0834 30.3757C40.5873 30.0856 42.2516 29.3374 42.9846 29.3526L44.8628 31.2308C44.8729 31.241 44.8831 31.2512 44.8933 31.2613L45.0002 31.414C44.878 31.5057 43.3053 31.9332 42.9541 32.0554C42.2516 32.3149 41.7019 32.544 41.0606 32.8799C40.4193 33.2006 39.9459 33.506 39.3962 33.8877C38.8923 34.2236 38.0067 34.9566 37.854 35.1093C37.5028 34.5138 35.4108 33.1853 34.739 32.8494C34.1435 32.5287 33.5327 32.2691 32.8761 32.0401C32.5402 31.9332 32.1889 31.811 31.853 31.7194C31.6392 31.6584 31.5171 31.6278 31.3033 31.582C31.1201 31.5362 30.9216 31.5057 30.7689 31.414C30.8758 31.185 31.5629 30.4979 31.7309 30.3146ZM31.6392 42.5761C31.0895 42.7288 30.5551 42.8052 30.0054 42.9884C29.7 43.0953 28.7227 43.5534 28.4937 43.5229C28.4021 41.3698 28.1883 37.4914 28.6464 35.5063C28.906 34.4069 29.6236 32.8494 30.2192 32.3149C30.7994 32.2997 32.8761 32.7883 33.1662 33.0479C33.0135 33.3227 32.7692 33.6129 32.586 33.9488C32.0057 35.0177 31.6392 36.2087 31.6392 37.4761V42.5761Z" fill="#02563C"/>
<path d="M43.4726 42.2398C43.2588 42.2856 41.3959 41.9802 41.0142 41.9191C40.1132 41.797 39.304 41.797 38.3572 41.7206C38.2962 41.3847 38.2962 36.361 38.3267 35.7502C38.342 35.4295 38.4641 35.4143 38.6321 35.2463C39.6094 34.2996 40.495 33.6582 41.854 33.2612C42.6327 33.9026 43.3046 35.7044 43.4573 36.9565L43.4726 42.2398Z" fill="#E86110"/>
<path d="M44.1754 37.3995C44.1754 36.1169 43.8242 34.9259 43.2287 33.857C43.0454 33.5363 42.8011 33.2462 42.6484 32.9714C42.9386 32.7118 45.0152 32.2231 45.5955 32.2231C46.191 32.7729 46.9087 34.3151 47.1682 35.4298C47.6416 37.4148 47.4126 41.2933 47.3209 43.4463C47.0919 43.4616 46.1146 43.0035 45.8093 42.8966C45.2595 42.7134 44.7251 42.637 44.1754 42.4843V37.3995Z" fill="#02563C"/>
<path d="M36.9521 23.9927C36.1581 23.0001 37.4407 21.748 38.3111 22.2519C37.9752 22.3741 37.7767 22.3435 37.5629 22.6337C36.9979 23.3972 38.021 24.3286 38.7234 23.7484C38.8761 23.6109 38.8761 23.5651 39.0135 23.4582C38.983 24.0232 38.5249 24.3439 38.0057 24.466C38.0057 24.9394 38.1737 25.2142 38.5096 25.2906L38.2042 25.6723L38.3111 26.4663C39.0593 26.6343 42.0216 28.3445 42.159 28.7415C41.8078 28.879 41.2581 28.9706 40.8917 29.0927C39.2884 29.8257 38.9982 30.0394 37.8225 30.8335C37.5323 30.6808 37.059 30.1616 35.8527 29.5814C35.4862 29.3981 35.1045 29.2301 34.7075 29.0775C34.4784 28.9858 33.7302 28.7415 33.5928 28.6346C34.1425 28.1613 34.7685 27.7948 35.3793 27.4436C35.8985 27.1382 36.8299 26.6496 37.3644 26.4663L37.4865 25.6571L37.1964 25.3059C37.5629 25.1684 37.7461 24.9241 37.7156 24.4966C37.456 24.4049 37.2728 24.3897 36.9521 23.9927ZM38.1584 22.4046C38.2347 22.4352 38.2806 22.5115 38.3264 22.5726L38.5096 22.71C38.5707 22.6795 38.6318 22.6489 38.6928 22.6031C38.7539 22.5726 38.8455 22.5268 38.9066 22.5115C38.8913 22.542 38.8761 22.5726 38.8608 22.6184C38.8455 22.6642 38.8303 22.6795 38.815 22.71C38.7845 22.7711 38.7386 22.878 38.7234 22.9238C38.7539 22.9696 38.9677 23.1528 39.044 23.2445C38.8913 23.2445 38.7386 23.1986 38.5707 23.1986C38.5554 23.2597 38.418 23.5498 38.3722 23.5804C38.3569 23.504 38.3416 23.4277 38.3264 23.3513C38.3111 23.275 38.3111 23.2139 38.2806 23.1376C38.2195 23.1376 38.0057 23.0918 37.853 23.0918C37.8683 23.0307 37.9446 23.0001 38.0362 22.9543C38.1075 22.9238 38.1737 22.8933 38.2347 22.8627C38.2347 22.8169 38.1584 22.4352 38.1584 22.4046ZM56.711 0.0956666L56.3293 0.141474C56.0239 0.248361 55.917 0.401065 55.917 0.721728C55.9475 1.13401 56.2987 1.2867 56.879 1.24089L56.3751 1.45467C56.3904 1.77533 56.4514 1.6379 56.4972 1.89748C56.5431 2.15707 56.2224 2.89002 56.7874 3.92835C56.9706 4.26429 58.7724 4.60022 58.4823 6.49365C58.4212 6.98228 58.2838 6.87539 57.8104 6.87539C56.6652 6.87539 55.3062 6.93647 54.1763 6.82959L54.0846 6.60054C53.9472 6.15772 54.0846 5.5622 54.2831 5.16519C55.1382 3.47026 55.5811 5.10411 56.0392 2.95109C56.146 2.43192 56.0239 2.27922 56.0086 2.20288C55.9017 1.72952 56.1002 1.85167 56.1002 1.43939C54.8329 0.538484 56.0392 -0.286075 56.711 0.0956666Z" fill="#E86110"/>
<path d="M53.5195 32.3906V31.2148H58.9861L58.9708 32.3906H53.5195Z" fill="#02563C"/>
<path fill-rule="evenodd" clip-rule="evenodd" d="M59.3074 26.0845L59.3227 29.1842H53.2454L53.2148 26.0845H59.3074ZM57.4751 27.8252C57.4751 27.9474 57.4751 28.1611 57.4903 28.268C57.6278 28.9857 58.3607 29.0773 58.5898 28.3902C58.6661 28.1459 58.6203 27.8099 58.6356 27.5351C58.6356 26.8632 58.544 26.4509 57.8415 26.4967C57.3682 27.077 57.4903 27.0312 57.4751 27.8252ZM55.9176 26.7563C55.7191 27.0465 55.7801 27.0312 55.7649 27.4587C55.7649 28.0084 55.7038 28.5887 56.1772 28.8025C56.5742 29.001 56.9559 28.6345 56.9559 27.9016C56.9559 26.9854 57.0781 27.0617 56.5894 26.4967C56.1924 26.4662 56.1161 26.4968 55.9176 26.7563ZM54.5738 26.4967C53.9172 26.4967 53.9936 27.3977 53.9936 27.6878C53.9936 28.2375 54.0089 28.8941 54.5738 28.8635C55.1388 28.8483 55.1541 28.1917 55.1541 27.6878C55.1541 27.3824 55.2457 26.4967 54.5738 26.4967ZM58.4981 8.75342L58.5134 11.1202L53.902 11.1049L53.8714 8.76868L58.4981 8.75342ZM57.1086 10.0666C57.1086 10.1582 57.1086 10.3262 57.1239 10.4025C57.2155 10.937 57.7805 11.0133 57.9484 10.4942C58.0248 10.3109 57.979 10.0513 57.979 9.85283C57.9942 9.34894 57.9179 9.02827 57.3835 9.05881C57.017 9.50163 57.1239 9.45582 57.1086 10.0666ZM55.9328 9.25731C55.7801 9.47109 55.8107 9.47109 55.8107 9.79175C55.8107 10.204 55.7649 10.6469 56.1161 10.8148C56.4215 10.9522 56.7116 10.6774 56.7116 10.1277C56.7116 9.44055 56.8032 9.48636 56.4367 9.05881C56.1313 9.04354 56.0703 9.05881 55.9328 9.25731ZM54.9098 9.05881C54.4059 9.05881 54.467 9.74595 54.467 9.95972C54.467 10.372 54.467 10.8759 54.9098 10.8606C55.3373 10.8454 55.3373 10.3415 55.3373 9.95972C55.3526 9.73068 55.4137 9.05881 54.9098 9.05881Z" fill="#E86110"/>
<path d="M56.208 15.0444L56.9715 15.6093L56.9562 21.4118C56.5439 21.5645 56.437 21.8393 56.1317 21.9768C55.2918 21.3813 55.3987 21.366 55.3987 20.9384L55.414 15.6551C55.7346 15.5024 55.9331 15.2887 56.208 15.0444ZM52.864 29.7185H59.6437C59.6437 30.3598 59.5521 30.7263 58.8802 30.9095H53.7801C53.093 30.879 52.8487 30.314 52.864 29.7185ZM53.7801 24.3436H58.8802C59.5521 24.5268 59.6437 24.8933 59.6437 25.5346L52.864 25.5193C52.8487 24.9238 53.093 24.3741 53.7801 24.3436ZM54.1466 7.25684H58.3763C58.9413 7.40953 59.0176 7.71493 59.0176 8.24936H53.3831C53.3831 7.74546 53.5816 7.28738 54.1466 7.25684ZM53.3831 11.5781H59.0176C59.0176 12.1126 58.9413 12.418 58.3763 12.5554L54.1466 12.5707C53.5816 12.5401 53.3831 12.0668 53.3831 11.5781ZM54.0397 12.9982L58.3305 13.0135V13.9907H54.0244L54.0397 12.9982ZM57.5059 21.1522V15.93L58.3305 16.098L58.3458 20.9384L57.5059 21.1522ZM58.361 23.9008L54.0397 23.9313C53.9786 22.6486 53.7038 22.954 57.0173 22.954C57.3227 22.954 58.1014 22.8777 58.3152 23.0304C58.4068 23.1983 58.3763 23.6412 58.361 23.9008ZM54.0397 18.083C54.0397 15.8078 53.8565 16.0674 54.849 15.9453V21.1217C54.6047 21.0759 54.2535 21.0453 54.1008 20.9232C53.9328 20.6483 54.0397 18.6022 54.0397 18.083ZM54.0397 21.4271C54.7727 21.3354 55.7805 21.9615 56.0858 22.3738C56.4065 22.2669 56.3149 22.2669 56.5745 22.0531C56.7272 21.931 56.8951 21.8393 57.0936 21.763C57.4601 21.5798 57.8724 21.4423 58.361 21.4271V22.6486C57.6434 22.6792 54.5283 22.725 54.0397 22.6028V21.4271ZM54.0397 14.3725H58.3458L58.3305 15.6093C57.6586 15.5941 57.1242 15.3345 56.6203 14.9527L56.1927 14.6321C55.8263 14.8917 55.7499 15.0596 55.2307 15.2887C54.9406 15.4108 54.4062 15.6246 54.0244 15.5635L54.0397 14.3725Z" fill="#02563C"/>
<path d="M56.5126 0.23291C56.5737 0.24818 56.6042 0.309257 56.65 0.355065L56.7722 0.461955C56.8333 0.431416 56.8791 0.416146 56.9249 0.385607C56.9554 0.355067 57.0318 0.324528 57.0776 0.309258C57.0623 0.339798 57.047 0.355067 57.047 0.385607C57.0318 0.416146 57.0165 0.431416 57.0012 0.461955C56.986 0.507764 56.9402 0.584112 56.9402 0.614651C56.9707 0.66046 57.1234 0.782614 57.1692 0.858962C57.0623 0.858962 56.9554 0.813155 56.8333 0.813155C56.818 0.858964 56.7111 1.07274 56.6806 1.10328C56.6806 1.0422 56.65 0.996389 56.65 0.93531C56.6348 0.874232 56.6348 0.828423 56.6195 0.782614C56.5584 0.782614 56.4057 0.736807 56.2988 0.736807C56.3141 0.706267 56.3599 0.675732 56.4363 0.645193C56.4872 0.624833 56.533 0.599384 56.5737 0.568844C56.5737 0.538305 56.5279 0.24818 56.5126 0.23291Z" fill="#E86110"/>
</svg>
