<svg width="191" height="70" viewBox="0 0 191 70" fill="none" xmlns="http://www.w3.org/2000/svg">
<g clip-path="url(#clip0_400_1065)">
<path d="M36.0425 51.2744C30.485 50.5678 26.1366 45.9306 26.1366 40.3659H36.0425H37.3912V40.3438C43.0185 40.3438 47.6924 44.4069 48.3435 49.5741L48.3667 49.6625L48.39 50.0158C48.4209 50.2808 48.4365 50.553 48.4365 50.8328C48.4365 51.6719 48.483 55.6908 48.1807 57.7224C47.9482 58.959 47.5296 60.1293 46.925 61.1893C41.228 68.8959 31.2524 69.9338 26.3924 69.9338C11.3708 69.9338 0 58.4953 0 43.347C0 28.265 11.6499 16.9148 27.2295 16.9148C34.5776 16.9148 42.1581 19.7413 46.4832 24.776L46.925 25.2618C47.9714 26.8076 48.39 28.5741 48.39 30.4953V37.4069C44.6927 37.4069 41.4373 35.5741 39.484 32.8139C35.9728 29.8107 31.3919 27.9779 27.1598 27.9779C19.0444 27.9779 12.8358 34.6688 12.8358 43.347C12.8358 52.1798 19.1142 58.8707 27.2993 58.8707C29.8572 58.8707 33.0894 57.899 36.0425 56.3533V51.2744ZM123.661 29.4795V68.8959C116.708 68.8959 111.034 63.5079 111.034 56.9274V17.511C117.987 17.511 123.661 22.8991 123.661 29.4795ZM101.617 17.9748V57.3912C101.617 63.9716 95.9429 69.3596 89.0134 69.3596V29.9432C89.0134 23.3628 94.6639 17.9748 101.617 17.9748ZM66.9461 29.9432V69.3596C60.0166 69.3596 54.3428 63.9716 54.3428 57.3912V17.9748C61.2723 17.9748 66.9461 23.3628 66.9461 29.9432ZM122.87 10.489V17.4006C116.801 17.4006 111.825 12.6751 111.825 6.91167V0C117.894 0 122.87 4.72555 122.87 10.489Z" fill="#065286"/>
<path fill-rule="evenodd" clip-rule="evenodd" d="M76.3637 43.9213L74.9685 42.5522L75.015 37.0759C75.015 37.0759 75.6893 35.7731 76.9915 35.0002L77.9914 34.3598L78.9913 35.0002C80.2935 35.7731 80.9911 37.0759 80.9911 37.0759L81.0143 42.5522L79.6191 43.9213V38.0475C79.2703 37.2084 78.0612 36.4134 77.9914 36.3693C77.9216 36.4134 76.7125 37.2084 76.3637 38.0475V43.9213ZM72.5501 40.4103C72.5501 40.4103 72.6432 36.8992 72.9222 36.1264C73.2012 35.3756 73.9918 34.3819 75.3405 33.5869C76.666 32.8141 77.5961 31.9308 77.9914 30.8709C78.3867 31.9308 79.2936 32.8141 80.6423 33.5869C81.991 34.3819 82.7816 35.3756 83.0606 36.1264C83.3164 36.8992 83.4327 40.4103 83.4327 40.4103C84.7581 39.1516 85.7347 38.0254 86.2695 36.9876C88.0135 34.0286 87.3159 31.2242 87.3159 31.2242C86.7346 28.5743 85.5487 26.6753 82.7583 24.9308C79.9447 23.1863 76.5264 23.8267 76.5264 23.8267C71.3875 24.3787 69.2947 29.1926 69.2947 29.1926C66.3648 35.7951 72.5501 40.4103 72.5501 40.4103Z" fill="#065286"/>
<path d="M139.957 30.7718V33.7062C139.841 33.8476 139.657 34.0012 139.407 34.1669C139.159 34.3325 138.836 34.4756 138.436 34.5964C138.037 34.7136 137.546 34.7723 136.965 34.7723C136.46 34.7723 135.998 34.6929 135.58 34.5343C135.163 34.372 134.803 34.1357 134.502 33.8253C134.2 33.5146 133.967 33.1352 133.804 32.6865C133.64 32.238 133.559 31.7257 133.559 31.1494V30.6525C133.559 30.0764 133.635 29.5641 133.788 29.1156C133.944 28.6669 134.166 28.2875 134.452 27.9768C134.743 27.6664 135.09 27.4301 135.493 27.2678C135.9 27.1057 136.355 27.0247 136.856 27.0247C137.528 27.0247 138.08 27.1298 138.513 27.3402C138.949 27.5509 139.283 27.8406 139.515 28.2098C139.748 28.5755 139.893 28.9964 139.951 29.4727H138.491C138.451 29.2103 138.371 28.9809 138.251 28.7844C138.131 28.5841 137.96 28.4289 137.739 28.3184C137.521 28.2047 137.237 28.1477 136.889 28.1477C136.594 28.1477 136.335 28.203 136.109 28.3134C135.884 28.4238 135.695 28.5841 135.542 28.7945C135.39 29.0052 135.274 29.2655 135.194 29.5762C135.117 29.8867 135.079 30.242 135.079 30.6424V31.1494C135.079 31.5532 135.123 31.9121 135.21 32.2261C135.297 32.5365 135.423 32.7987 135.586 33.0126C135.753 33.2231 135.959 33.3836 136.202 33.494C136.449 33.6009 136.729 33.6543 137.041 33.6543C137.324 33.6543 137.559 33.632 137.744 33.5872C137.933 33.5389 138.084 33.4819 138.196 33.4163C138.309 33.3507 138.396 33.2869 138.458 33.2248V31.8118H136.883V30.7718H139.957ZM146.633 33.551V34.6688H142.415V33.551H146.633ZM142.873 27.1333V34.6688H141.374V27.1333H142.873ZM146.083 30.2438V31.3357H142.415V30.2438H146.083ZM146.617 27.1333V28.2564H142.415V27.1333H146.617ZM154.051 27.1333V34.6688H152.546L149.173 29.4415V34.6688H147.674V27.1333H149.173L152.557 32.3656V27.1333H154.051ZM160.836 33.551V34.6688H156.617V33.551H160.836ZM157.075 27.1333V34.6688H155.577V27.1333H157.075ZM160.285 30.2438V31.3357H156.617V30.2438H160.285ZM160.82 27.1333V28.2564H156.617V27.1333H160.82ZM161.877 27.1333H164.76C165.363 27.1333 165.881 27.2196 166.313 27.3921C166.745 27.5646 167.078 27.8198 167.31 28.1581C167.543 28.4962 167.659 28.912 167.659 29.4053C167.659 29.7953 167.586 30.1334 167.441 30.4198C167.296 30.7062 167.09 30.946 166.825 31.1392C166.564 31.3324 166.255 31.4841 165.899 31.5945L165.43 31.8222H162.885L162.874 30.6991H164.776C165.085 30.6991 165.341 30.6474 165.545 30.5439C165.748 30.4405 165.901 30.2972 166.002 30.1144C166.108 29.9315 166.16 29.7229 166.16 29.4881C166.16 29.2362 166.11 29.0189 166.008 28.836C165.906 28.6497 165.752 28.5066 165.545 28.4066C165.337 28.3065 165.076 28.2564 164.76 28.2564H163.376V34.6688H161.877V27.1333ZM166.357 34.6688L164.52 31.2944L166.106 31.2891L167.964 34.5964V34.6688H166.357ZM172.128 28.2771L169.866 34.6688H168.281L171.245 27.1333H172.259L172.128 28.2771ZM174.019 34.6688L171.747 28.2771L171.61 27.1333H172.63L175.611 34.6688H174.019ZM173.916 31.8688V32.9919H169.659V31.8688H173.916ZM180.581 32.7125C180.581 32.5675 180.557 32.4381 180.51 32.3243C180.467 32.2071 180.385 32.1018 180.265 32.0086C180.149 31.9121 179.983 31.8189 179.769 31.7292C179.558 31.636 179.286 31.5393 178.951 31.4393C178.581 31.3289 178.236 31.2046 177.916 31.0668C177.596 30.9285 177.315 30.7682 177.071 30.5854C176.831 30.4025 176.644 30.1921 176.51 29.9538C176.375 29.7125 176.308 29.4329 176.308 29.1156C176.308 28.8049 176.377 28.522 176.515 28.2668C176.657 28.0115 176.857 27.7922 177.115 27.6094C177.373 27.4232 177.676 27.2799 178.025 27.1799C178.377 27.0799 178.766 27.0297 179.191 27.0297C179.78 27.0297 180.289 27.1315 180.717 27.3351C181.15 27.5387 181.484 27.8148 181.72 28.1632C181.956 28.5117 182.074 28.9034 182.074 29.338H180.581C180.581 29.1035 180.528 28.8963 180.423 28.717C180.321 28.5375 180.165 28.3962 179.954 28.2926C179.747 28.189 179.486 28.1374 179.17 28.1374C178.864 28.1374 178.61 28.1804 178.406 28.2668C178.207 28.3529 178.056 28.4704 177.954 28.6188C177.856 28.7669 177.807 28.9325 177.807 29.1156C177.807 29.2536 177.842 29.3777 177.911 29.4881C177.979 29.595 178.083 29.6968 178.221 29.7935C178.359 29.8867 178.53 29.9746 178.734 30.0574C178.941 30.1369 179.18 30.2162 179.453 30.2954C179.889 30.4198 180.27 30.5578 180.597 30.7095C180.928 30.8614 181.202 31.0339 181.42 31.2271C181.642 31.4203 181.807 31.6376 181.916 31.8792C182.029 32.1207 182.085 32.395 182.085 32.7022C182.085 33.0263 182.018 33.3163 181.884 33.5715C181.749 33.827 181.557 34.0443 181.306 34.2236C181.055 34.4031 180.754 34.5394 180.401 34.6326C180.052 34.7258 179.662 34.7723 179.229 34.7723C178.844 34.7723 178.463 34.724 178.085 34.6273C177.711 34.5272 177.371 34.3791 177.066 34.1823C176.761 33.9823 176.517 33.7303 176.335 33.4267C176.154 33.1195 176.063 32.7607 176.063 32.3502H177.567C177.567 32.5882 177.607 32.7918 177.687 32.961C177.771 33.1266 177.887 33.2628 178.036 33.3697C178.189 33.4733 178.366 33.5492 178.57 33.5974C178.773 33.6457 178.993 33.67 179.229 33.67C179.535 33.67 179.785 33.6303 179.982 33.551C180.181 33.468 180.33 33.3542 180.428 33.2094C180.53 33.0643 180.581 32.8987 180.581 32.7125ZM184.838 27.1333V34.6688H183.339V27.1333H184.838Z" fill="#065286"/>
<path d="M134.42 39.4993H135.717L137.886 45.1715L140.049 39.4993H141.352L138.403 47.0348H137.363L134.42 39.4993ZM133.766 39.4993H135.035L135.264 44.7111V47.0348H133.766V39.4993ZM140.731 39.4993H142.006V47.0348H140.507V44.7111L140.731 39.4993ZM146.786 40.6432L144.524 47.0348H142.938L145.903 39.4993H146.916L146.786 40.6432ZM148.677 47.0348L146.404 40.6432L146.268 39.4993H147.287L150.268 47.0348H148.677ZM148.573 44.2348V45.3579H144.317V44.2348H148.573ZM155.239 45.0786C155.239 44.9335 155.215 44.8041 155.168 44.6904C155.124 44.5731 155.042 44.4678 154.922 44.3746C154.806 44.2781 154.641 44.1849 154.426 44.0952C154.216 44.0021 153.943 43.9053 153.609 43.8053C153.238 43.6949 152.893 43.5706 152.574 43.4328C152.254 43.2946 151.972 43.1342 151.729 42.9514C151.489 42.7686 151.302 42.5581 151.167 42.3199C151.033 42.0785 150.966 41.7989 150.966 41.4816C150.966 41.1709 151.035 40.8881 151.173 40.6328C151.315 40.3775 151.514 40.1582 151.772 39.9754C152.03 39.7893 152.334 39.6459 152.682 39.5459C153.035 39.4459 153.424 39.3958 153.849 39.3958C154.437 39.3958 154.946 39.4975 155.375 39.7011C155.807 39.9047 156.141 40.1808 156.378 40.5292C156.614 40.8777 156.732 41.2694 156.732 41.704H155.239C155.239 41.4695 155.186 41.2623 155.08 41.083C154.979 40.9035 154.822 40.7622 154.612 40.6586C154.405 40.5551 154.143 40.5034 153.827 40.5034C153.522 40.5034 153.267 40.5464 153.064 40.6328C152.864 40.7189 152.713 40.8364 152.612 40.9848C152.514 41.1329 152.464 41.2986 152.464 41.4816C152.464 41.6196 152.499 41.7437 152.568 41.8541C152.637 41.961 152.74 42.0628 152.879 42.1595C153.017 42.2527 153.187 42.3406 153.391 42.4234C153.598 42.5029 153.838 42.5822 154.11 42.6615C154.546 42.7858 154.928 42.9238 155.255 43.0755C155.586 43.2274 155.86 43.3999 156.078 43.5931C156.299 43.7863 156.465 44.0036 156.574 44.2452C156.686 44.4868 156.743 44.761 156.743 45.0682C156.743 45.3923 156.675 45.6823 156.541 45.9375C156.407 46.193 156.214 46.4103 155.963 46.5896C155.713 46.7692 155.411 46.9054 155.059 46.9986C154.71 47.0918 154.319 47.1384 153.887 47.1384C153.502 47.1384 153.12 47.09 152.742 46.9933C152.368 46.8933 152.028 46.7451 151.723 46.5483C151.418 46.3483 151.175 46.0963 150.993 45.7927C150.811 45.4855 150.72 45.1267 150.72 44.7162H152.225C152.225 44.9542 152.265 45.1578 152.344 45.327C152.428 45.4926 152.544 45.6288 152.693 45.7357C152.846 45.8393 153.024 45.9152 153.227 45.9634C153.431 46.0117 153.651 46.036 153.887 46.036C154.192 46.036 154.443 45.9963 154.639 45.917C154.839 45.834 154.988 45.7203 155.086 45.5754C155.188 45.4303 155.239 45.2647 155.239 45.0786ZM161.135 44.7473V39.4993H162.634V44.7473C162.634 45.2475 162.52 45.6772 162.291 46.036C162.062 46.3913 161.75 46.6638 161.353 46.8537C160.957 47.0434 160.51 47.1384 160.013 47.1384C159.5 47.1384 159.046 47.0573 158.65 46.895C158.254 46.7294 157.943 46.4777 157.718 46.1394C157.496 45.8013 157.386 45.3718 157.386 44.8507H158.89C158.89 45.1338 158.935 45.3614 159.026 45.5339C159.117 45.7063 159.246 45.8307 159.413 45.9066C159.584 45.9824 159.784 46.0204 160.013 46.0204C160.234 46.0204 160.429 45.9722 160.596 45.8755C160.767 45.7755 160.899 45.6306 160.994 45.4407C161.088 45.251 161.135 45.0198 161.135 44.7473ZM165.719 39.4993V47.0348H164.22V39.4993H165.719ZM169.708 47.0348H167.997L168.008 45.917H169.708C170.169 45.917 170.557 45.8203 170.869 45.6271C171.181 45.4303 171.418 45.1492 171.577 44.7835C171.737 44.4143 171.817 43.9727 171.817 43.4586V43.0704C171.817 42.6736 171.772 42.3234 171.681 42.0198C171.59 41.7161 171.456 41.4609 171.278 41.2537C171.103 41.0468 170.887 40.8898 170.629 40.7829C170.371 40.6758 170.075 40.6224 169.741 40.6224H167.964V39.4993H169.741C170.271 39.4993 170.755 39.5839 171.191 39.7528C171.63 39.922 172.01 40.1653 172.33 40.4826C172.653 40.7966 172.9 41.1727 173.071 41.611C173.245 42.0491 173.332 42.5391 173.332 43.0808V43.4586C173.332 43.9968 173.245 44.4868 173.071 44.9284C172.9 45.3665 172.653 45.7426 172.33 46.0566C172.01 46.3706 171.628 46.6122 171.185 46.7813C170.742 46.9502 170.249 47.0348 169.708 47.0348ZM168.836 39.4993V47.0348H167.337V39.4993H168.836ZM135.362 51.8652V59.4007H133.864V51.8652H135.362ZM143.358 51.8652V59.4007H141.853L138.48 54.1735V59.4007H136.981V51.8652H138.48L141.864 57.0976V51.8652H143.358ZM147.254 59.4007H145.543L145.554 58.2829H147.254C147.716 58.2829 148.103 58.1862 148.415 57.993C148.728 57.7963 148.964 57.5151 149.124 57.1495C149.283 56.7803 149.363 56.3386 149.363 55.8245V55.4363C149.363 55.0395 149.318 54.6893 149.227 54.3857C149.136 54.0821 149.002 53.8268 148.824 53.6197C148.65 53.4128 148.433 53.2557 148.175 53.1489C147.917 53.0418 147.621 52.9883 147.287 52.9883H145.51V51.8652H147.287C147.818 51.8652 148.301 51.9498 148.737 52.1187C149.176 52.2879 149.556 52.5312 149.876 52.8486C150.199 53.1626 150.446 53.5386 150.617 53.9769C150.791 54.4151 150.879 54.9051 150.879 55.4467V55.8245C150.879 56.3627 150.791 56.8527 150.617 57.2943C150.446 57.7324 150.199 58.1085 149.876 58.4225C149.556 58.7365 149.174 58.9781 148.731 59.1472C148.288 59.3162 147.796 59.4007 147.254 59.4007ZM146.382 51.8652V59.4007H144.883V51.8652H146.382ZM158.579 55.4414V55.8296C158.579 56.3989 158.499 56.9114 158.34 57.3668C158.18 57.8188 157.952 58.2034 157.658 58.521C157.364 58.8383 157.013 59.0816 156.606 59.2506C156.199 59.4197 155.747 59.5043 155.249 59.5043C154.759 59.5043 154.308 59.4197 153.898 59.2506C153.491 59.0816 153.138 58.8383 152.84 58.521C152.543 58.2034 152.312 57.8188 152.148 57.3668C151.985 56.9114 151.903 56.3989 151.903 55.8296V55.4414C151.903 54.8688 151.985 54.3563 152.148 53.9043C152.312 53.4523 152.541 53.0676 152.835 52.7503C153.129 52.4294 153.48 52.1843 153.887 52.0154C154.298 51.8463 154.748 51.7617 155.239 51.7617C155.736 51.7617 156.189 51.8463 156.596 52.0154C157.003 52.1843 157.353 52.4294 157.647 52.7503C157.945 53.0676 158.174 53.4523 158.334 53.9043C158.498 54.3563 158.579 54.8688 158.579 55.4414ZM157.064 55.8296V55.431C157.064 55.0205 157.024 54.6599 156.944 54.3495C156.864 54.0355 156.746 53.7716 156.59 53.5576C156.434 53.3436 156.241 53.1833 156.012 53.0762C155.783 52.9658 155.526 52.9106 155.239 52.9106C154.948 52.9106 154.69 52.9658 154.464 53.0762C154.243 53.1833 154.054 53.3436 153.898 53.5576C153.742 53.7716 153.622 54.0355 153.538 54.3495C153.458 54.6599 153.418 55.0205 153.418 55.431V55.8296C153.418 56.2368 153.458 56.5974 153.538 56.9114C153.622 57.2252 153.742 57.4911 153.898 57.7084C154.058 57.9223 154.25 58.0844 154.475 58.1948C154.701 58.3052 154.959 58.3604 155.249 58.3604C155.54 58.3604 155.798 58.3052 156.023 58.1948C156.248 58.0844 156.438 57.9223 156.59 57.7084C156.746 57.4911 156.864 57.2252 156.944 56.9114C157.024 56.5974 157.064 56.2368 157.064 55.8296ZM166.226 51.8652V59.4007H164.721L161.348 54.1735V59.4007H159.849V51.8652H161.348L164.732 57.0976V51.8652H166.226ZM173.011 58.2829V59.4007H168.793V58.2829H173.011ZM169.25 51.8652V59.4007H167.752V51.8652H169.25ZM172.46 54.9757V56.0677H168.793V54.9757H172.46ZM172.995 51.8652V52.9883H168.793V51.8652H172.995ZM178.205 57.4445C178.205 57.2994 178.181 57.17 178.134 57.0563C178.09 56.939 178.008 56.8337 177.889 56.7405C177.772 56.644 177.607 56.5508 177.393 56.4612C177.182 56.368 176.909 56.2713 176.575 56.1712C176.205 56.0608 175.859 55.9365 175.54 55.7987C175.22 55.6605 174.938 55.5002 174.695 55.3173C174.455 55.1345 174.268 54.924 174.133 54.6858C173.999 54.4444 173.932 54.1649 173.932 53.8475C173.932 53.5369 174.001 53.254 174.139 52.9987C174.281 52.7434 174.481 52.5242 174.739 52.3413C174.996 52.1552 175.3 52.0119 175.649 51.9118C176.001 51.8118 176.39 51.7617 176.815 51.7617C177.404 51.7617 177.912 51.8635 178.341 52.0671C178.773 52.2707 179.108 52.5467 179.344 52.8952C179.58 53.2436 179.698 53.6353 179.698 54.0699H178.205C178.205 53.8354 178.152 53.6283 178.047 53.449C177.945 53.2694 177.789 53.1281 177.578 53.0246C177.371 52.921 177.109 52.8693 176.793 52.8693C176.488 52.8693 176.234 52.9124 176.03 52.9987C175.83 53.0848 175.68 53.2023 175.578 53.3507C175.48 53.4989 175.431 53.6645 175.431 53.8475C175.431 53.9856 175.465 54.1097 175.534 54.2201C175.603 54.3269 175.707 54.4287 175.845 54.5255C175.983 54.6187 176.154 54.7065 176.357 54.7893C176.564 54.8688 176.804 54.9481 177.077 55.0274C177.513 55.1517 177.894 55.2897 178.221 55.4414C178.552 55.5934 178.826 55.7658 179.044 55.959C179.266 56.1522 179.431 56.3695 179.54 56.6111C179.653 56.8527 179.709 57.1269 179.709 57.4341C179.709 57.7583 179.642 58.0482 179.507 58.3035C179.373 58.559 179.18 58.7763 178.929 58.9556C178.679 59.1351 178.377 59.2713 178.025 59.3645C177.676 59.4577 177.285 59.5043 176.853 59.5043C176.468 59.5043 176.087 59.4559 175.709 59.3592C175.334 59.2592 174.995 59.111 174.689 58.9143C174.384 58.7142 174.141 58.4622 173.959 58.1586C173.777 57.8515 173.687 57.4926 173.687 57.0821H175.191C175.191 57.3202 175.231 57.5238 175.311 57.6929C175.394 57.8585 175.511 57.9948 175.66 58.1016C175.812 58.2052 175.99 58.2812 176.194 58.3293C176.397 58.3777 176.617 58.402 176.853 58.402C177.158 58.402 177.409 58.3622 177.605 58.2829C177.805 58.1999 177.954 58.0862 178.052 57.9413C178.154 57.7963 178.205 57.6306 178.205 57.4445ZM182.461 51.8652V59.4007H180.962V51.8652H182.461ZM187.333 53.0091L185.072 59.4007H183.486L186.45 51.8652H187.464L187.333 53.0091ZM189.225 59.4007L186.952 53.0091L186.816 51.8652H187.835L190.816 59.4007H189.225ZM189.121 56.6007V57.7238H184.865V56.6007H189.121Z" fill="#065286"/>
</g>
<defs>
<clipPath id="clip0_400_1065">
<rect width="190.909" height="70" fill="white"/>
</clipPath>
</defs>
</svg>
