<svg width="60" height="60" viewBox="0 0 60 60" fill="none" xmlns="http://www.w3.org/2000/svg">
<path fill-rule="evenodd" clip-rule="evenodd" d="M38.8545 31.975C38.4406 31.7681 36.4114 30.7709 36.0336 30.632C35.6558 30.4945 35.3808 30.4264 35.1045 30.8403C34.8295 31.2514 34.0392 32.182 33.7989 32.457C33.5572 32.7334 33.317 32.7667 32.9045 32.5611C32.492 32.3528 31.1614 31.9181 29.585 30.5125C28.3586 29.4181 27.5295 28.0667 27.2892 27.6528C27.0489 27.2403 27.2628 27.0167 27.4697 26.8111C27.6559 26.6264 27.8822 26.3292 28.0892 26.0889C28.2961 25.8473 28.3642 25.675 28.5017 25.3986C28.6406 25.1236 28.5711 24.8834 28.467 24.6764C28.3642 24.4695 27.5392 22.4375 27.1947 21.6112C26.86 20.807 26.5197 20.9167 26.267 20.9028C26.0253 20.8917 25.7503 20.8889 25.4753 20.8889C25.2003 20.8889 24.7531 20.9917 24.3753 21.4056C23.9961 21.8181 22.9309 22.8167 22.9309 24.8486C22.9309 26.8792 24.4086 28.8417 24.6156 29.1181C24.8225 29.3931 27.5253 33.5625 31.6656 35.35C32.6517 35.775 33.4197 36.0292 34.0183 36.2181C35.0072 36.5333 35.9072 36.4889 36.6183 36.382C37.41 36.2639 39.06 35.3834 39.4044 34.4195C39.7475 33.4556 39.7475 32.6292 39.6447 32.457C39.5419 32.2847 39.2669 32.182 38.8531 31.975H38.8545ZM31.3239 42.257H31.3184C28.8592 42.2574 26.4453 41.5963 24.3295 40.3431L23.8295 40.0458L18.6323 41.4097L20.0198 36.3431L19.6934 35.8236C18.3186 33.6352 17.591 31.1025 17.5948 28.5181C17.5975 20.9487 23.7559 14.7903 31.3295 14.7903C34.9961 14.7903 38.4433 16.2209 41.035 18.8153C42.3133 20.0884 43.3265 21.6022 44.0159 23.2693C44.7054 24.9365 45.0574 26.7238 45.0517 28.5278C45.0489 36.0972 38.8906 42.257 31.3239 42.257ZM43.0072 16.8445C41.4769 15.3041 39.6562 14.0827 37.6504 13.2512C35.6447 12.4196 33.4938 11.9943 31.3225 12.0001C22.2198 12.0001 14.8087 19.4098 14.8059 28.5167C14.8017 31.415 15.562 34.2631 17.01 36.7736L14.667 45.3333L23.4225 43.0361C25.8446 44.3557 28.5588 45.0472 31.317 45.0472H31.3239C40.4267 45.0472 47.8378 37.6375 47.8405 28.5292C47.8473 26.3587 47.4235 24.2085 46.5939 22.2029C45.7643 20.1972 44.5452 18.376 43.0072 16.8445Z" fill="#065286"/>
<rect x="1" y="1" width="58" height="58" rx="29" stroke="#065286" stroke-width="2"/>
</svg>
